<svg width="385" height="102" viewBox="0 0 385 102" fill="none" xmlns="http://www.w3.org/2000/svg">
<g filter="url(#filter0_f_61_245)">
<path d="M93.9522 43.6654C93.121 43.7091 92.421 44.0263 91.8522 44.6169C91.3053 45.2075 90.9116 45.8857 90.671 46.6513C90.4303 47.395 90.31 48.1607 90.31 48.9482C90.31 49.7357 90.4194 50.5122 90.6382 51.2779C90.8788 52.0435 91.2835 52.7216 91.8522 53.3122C92.421 53.881 93.121 54.1872 93.9522 54.231H104.78C106.158 54.3622 106.913 55.1169 107.044 56.495C107.023 57.1075 106.793 57.6216 106.355 58.0372C105.918 58.431 105.393 58.6279 104.78 58.6279H94.3132H92.8038C91.2725 58.5404 90.0147 57.9607 89.0303 56.8888C88.046 55.795 87.335 54.5591 86.8975 53.181C86.4819 51.8029 86.2741 50.3919 86.2741 48.9482C86.2741 47.8763 86.3944 46.8154 86.635 45.7654C86.8757 44.7154 87.2475 43.72 87.7507 42.7794C88.2757 41.8169 88.9647 40.9966 89.8178 40.3185C90.6928 39.6404 91.6882 39.2904 92.8038 39.2685H93.4272H104.78C106.158 39.3997 106.913 40.1544 107.044 41.5325C107.044 42.145 106.815 42.6591 106.355 43.0747C105.918 43.4685 105.393 43.6654 104.78 43.6654H93.9522ZM112.598 38.7435C113.21 38.7435 113.735 38.9513 114.173 39.3669C114.61 39.7607 114.84 40.2638 114.862 40.8763V41.4997C114.84 42.3966 114.894 43.2279 115.026 43.9935C115.179 44.7372 115.529 45.4044 116.076 45.995C116.623 46.5857 117.312 46.9029 118.143 46.9466H127.363V40.9419C127.363 40.3294 127.582 39.8263 128.019 39.4325C128.479 39.0169 129.015 38.8091 129.627 38.8091C130.94 38.9185 131.662 39.6294 131.793 40.9419V48.5544C131.793 50.3044 131.552 51.956 131.071 53.5091C130.634 54.8872 129.912 56.0575 128.905 57.02C127.921 57.9607 126.663 58.4747 125.132 58.5622H113.319C112.729 58.5404 112.226 58.3325 111.81 57.9388C111.416 57.5232 111.209 57.02 111.187 56.4294C111.187 55.8169 111.384 55.2919 111.777 54.8544C112.193 54.4169 112.707 54.1872 113.319 54.1654H124.016C124.848 54.1216 125.537 53.8044 126.084 53.2138C126.587 52.6669 126.926 52.0435 127.101 51.3435H117.027C115.496 51.256 114.227 50.7419 113.221 49.8013C112.237 48.8388 111.526 47.6685 111.088 46.2904C110.673 44.9122 110.454 43.4466 110.432 41.8935V40.8763C110.454 40.2857 110.673 39.7935 111.088 39.3997C111.504 38.9841 112.007 38.7654 112.598 38.7435ZM158.313 49.9654C158.729 50.8404 158.937 51.7263 158.937 52.6232C158.937 53.4982 158.718 54.3732 158.28 55.2482C157.843 56.1013 157.132 56.8669 156.148 57.545C155.163 58.2013 153.905 58.5294 152.374 58.5294H152.177C152.046 58.5513 151.915 58.5622 151.784 58.5622H138.593C138.002 58.5404 137.499 58.3325 137.084 57.9388C136.69 57.5232 136.482 57.02 136.46 56.4294V41.4013C136.482 40.8107 136.69 40.3185 137.084 39.9247C137.499 39.5091 138.002 39.2904 138.593 39.2685H149.88C150.012 39.2685 150.143 39.2794 150.274 39.3013H150.471C152.002 39.345 153.26 39.695 154.245 40.3513C155.229 41.0075 155.94 41.7622 156.377 42.6154C156.815 43.4466 157.034 44.2888 157.034 45.1419C157.034 46.0169 156.826 46.87 156.41 47.7013C156.388 47.745 156.366 47.7779 156.345 47.7997C157.241 48.4341 157.898 49.156 158.313 49.9654ZM152.571 54.1654C152.987 54.1872 153.326 54.1107 153.588 53.9357C153.873 53.7607 154.08 53.5638 154.212 53.345C154.343 53.1044 154.409 52.8638 154.409 52.6232C154.409 52.47 154.343 52.2622 154.212 51.9997C154.08 51.7154 153.873 51.4857 153.588 51.3107C153.326 51.1357 152.987 51.0372 152.571 51.0154H150.471H140.89V53.2794C140.89 53.87 141.196 54.1654 141.809 54.1654H142.071H152.571ZM151.718 46.3232C151.98 46.17 152.177 45.995 152.309 45.7982C152.44 45.5794 152.505 45.3607 152.505 45.1419C152.505 44.9232 152.44 44.7154 152.309 44.5185C152.177 44.2997 151.97 44.1138 151.685 43.9607C151.423 43.7857 151.084 43.6872 150.668 43.6654H141.809C141.196 43.6654 140.89 43.9607 140.89 44.5513V46.6185H150.668C151.084 46.5966 151.434 46.4982 151.718 46.3232ZM168.756 39.2685H170.265H181.421C182.034 39.2904 182.537 39.52 182.931 39.9575C183.346 40.395 183.554 40.92 183.554 41.5325C183.445 42.845 182.734 43.556 181.421 43.6654H169.871C169.04 43.7091 168.351 44.0263 167.804 44.6169C167.257 45.2075 166.852 45.8857 166.59 46.6513C166.349 47.395 166.229 48.1607 166.229 48.9482C166.229 49.7357 166.349 50.5122 166.59 51.2779C166.852 52.0216 167.257 52.6888 167.804 53.2794C168.351 53.87 169.04 54.1872 169.871 54.231H181.421C182.034 54.2529 182.537 54.4825 182.931 54.92C183.346 55.3575 183.554 55.8825 183.554 56.495C183.532 57.0857 183.313 57.5888 182.898 58.0044C182.504 58.3982 182.012 58.606 181.421 58.6279H169.379H168.756C167.224 58.5404 165.956 57.9607 164.949 56.8888C163.965 55.795 163.254 54.5591 162.816 53.181C162.401 51.8029 162.193 50.3919 162.193 48.9482C162.193 47.5044 162.412 46.0935 162.849 44.7154C163.287 43.3372 163.998 42.1122 164.982 41.0404C165.966 39.9466 167.224 39.356 168.756 39.2685ZM183.488 48.8169C183.488 49.4294 183.27 49.9435 182.832 50.3591C182.416 50.7966 181.902 51.0154 181.29 51.0154H171.381C170.768 51.0154 170.243 50.8075 169.806 50.3919C169.39 49.9544 169.182 49.4294 169.182 48.8169C169.182 48.2044 169.39 47.6794 169.806 47.2419C170.243 46.8263 170.768 46.6185 171.381 46.6185H181.29C181.902 46.6185 182.416 46.8372 182.832 47.2747C183.27 47.6904 183.488 48.2044 183.488 48.8169ZM191.601 56.9544C191.47 58.2669 190.748 58.9779 189.435 59.0872C188.823 59.0872 188.287 58.8904 187.827 58.4966C187.39 58.081 187.171 57.5669 187.171 56.9544V41.4013C187.193 40.7888 187.423 40.2857 187.86 39.8919C188.298 39.4763 188.823 39.2685 189.435 39.2685H191.043H195.079H203.184C203.315 39.2685 203.446 39.2794 203.577 39.3013H203.774C205.306 39.345 206.563 39.695 207.548 40.3513C208.532 41.0075 209.243 41.7622 209.681 42.6154C210.118 43.4466 210.337 44.2888 210.337 45.1419C210.337 46.0169 210.118 46.881 209.681 47.7341C209.265 48.5654 208.554 49.3091 207.548 49.9654C206.563 50.6216 205.306 50.9716 203.774 51.0154H197.999C198.174 52.1091 198.535 52.9185 199.082 53.4435C199.607 53.9685 200.274 54.231 201.084 54.231H208.171C208.784 54.2529 209.287 54.4825 209.681 54.92C210.096 55.3575 210.304 55.8825 210.304 56.495C210.282 57.0857 210.063 57.5888 209.648 58.0044C209.254 58.3982 208.762 58.606 208.171 58.6279H200.493C198.874 58.6497 197.409 58.0154 196.096 56.7247C194.784 55.4341 193.985 53.9029 193.701 52.131C193.307 50.1622 193.11 49.0575 193.11 48.8169C193.11 48.2044 193.318 47.6904 193.734 47.2747C194.171 46.8372 194.696 46.6185 195.309 46.6185H203.971C204.387 46.5966 204.726 46.5091 204.988 46.356C205.273 46.181 205.481 45.995 205.612 45.7982C205.743 45.5794 205.809 45.3607 205.809 45.1419C205.809 44.9232 205.743 44.7154 205.612 44.5185C205.481 44.2997 205.273 44.1138 204.988 43.9607C204.726 43.7857 204.387 43.6872 203.971 43.6654H195.079H192.454C191.885 43.6872 191.601 43.9716 191.601 44.5185V56.9544ZM224.684 38.3825C225.821 38.3825 226.937 38.5138 228.031 38.7763C229.146 39.0388 230.207 39.4325 231.213 39.9575C232.22 40.4607 233.106 41.1388 233.871 41.9919C234.659 42.845 235.085 43.8622 235.151 45.0435V46.4216V56.8888C235.02 58.2013 234.298 58.9122 232.985 59.0216C232.373 59.0216 231.837 58.8247 231.378 58.431C230.94 58.0154 230.721 57.5013 230.721 56.8888V46.0607C230.678 45.3825 230.415 44.8247 229.934 44.3872C229.474 43.9279 228.949 43.5669 228.359 43.3044C227.79 43.0419 227.188 42.845 226.554 42.7138C225.942 42.5825 225.318 42.5169 224.684 42.5169C224.049 42.5169 223.415 42.5825 222.781 42.7138C222.168 42.845 221.567 43.0419 220.976 43.3044C220.407 43.5669 219.882 43.9279 219.401 44.3872C218.942 44.8247 218.69 45.3825 218.646 46.0607V56.8888C218.537 58.2013 217.826 58.9122 216.513 59.0216C215.901 59.0216 215.365 58.8247 214.906 58.431C214.468 58.0154 214.249 57.5013 214.249 56.8888V46.4216V45.0435C214.315 43.8622 214.731 42.845 215.496 41.9919C216.262 41.1388 217.148 40.4607 218.154 39.9575C219.16 39.4325 220.21 39.0388 221.304 38.7763C222.42 38.5138 223.546 38.3825 224.684 38.3825ZM257.242 39.2685C258.357 39.2904 259.353 39.6404 260.228 40.3185C261.103 40.9966 261.803 41.806 262.328 42.7466C262.874 43.6872 263.279 44.6825 263.542 45.7325C263.804 46.7825 263.935 47.8544 263.935 48.9482C263.935 50.3919 263.706 51.8138 263.246 53.2138C262.809 54.5919 262.076 55.8169 261.048 56.8888C260.042 57.9607 258.773 58.5404 257.242 58.6279H245.79C244.259 58.5622 242.979 57.9935 241.951 56.9216C240.923 55.8497 240.19 54.6138 239.753 53.2138C239.337 51.8138 239.129 50.3919 239.129 48.9482C239.129 47.5044 239.348 46.0935 239.785 44.7154C240.223 43.3154 240.945 42.0794 241.951 41.0075C242.979 39.9138 244.259 39.3341 245.79 39.2685H246.414H256.618H257.242ZM256.126 54.231C256.957 54.1872 257.646 53.881 258.193 53.3122C258.762 52.7216 259.167 52.0435 259.407 51.2779C259.648 50.5122 259.768 49.7357 259.768 48.9482C259.768 48.1607 259.637 47.395 259.374 46.6513C259.134 45.8857 258.74 45.2075 258.193 44.6169C257.646 44.0263 256.957 43.7091 256.126 43.6654H246.807C245.976 43.7091 245.287 44.0263 244.74 44.6169C244.193 45.2075 243.789 45.8857 243.526 46.6513C243.285 47.395 243.165 48.1607 243.165 48.9482C243.165 49.7357 243.285 50.5122 243.526 51.2779C243.767 52.0435 244.16 52.7216 244.707 53.3122C245.276 53.881 245.976 54.1872 246.807 54.231H256.126ZM267.225 41.4669C267.225 40.8544 267.432 40.3404 267.848 39.9247C268.285 39.4872 268.81 39.2685 269.423 39.2685H288.52C289.132 39.2685 289.657 39.4763 290.095 39.8919C290.51 40.3294 290.718 40.8544 290.718 41.4669C290.718 42.0794 290.5 42.6044 290.062 43.0419C289.646 43.4575 289.132 43.6654 288.52 43.6654H281.203V56.9544C281.071 58.2669 280.35 58.9779 279.037 59.0872C278.425 59.0872 277.889 58.8904 277.429 58.4966C276.992 58.081 276.773 57.5669 276.773 56.9544V43.6654H269.423C268.81 43.6654 268.296 43.4466 267.881 43.0091C267.443 42.5935 267.225 42.0794 267.225 41.4669ZM300.603 39.2685H302.112H313.268C313.881 39.2904 314.384 39.52 314.778 39.9575C315.193 40.395 315.401 40.92 315.401 41.5325C315.292 42.845 314.581 43.556 313.268 43.6654H301.718C300.887 43.7091 300.198 44.0263 299.651 44.6169C299.104 45.2075 298.7 45.8857 298.437 46.6513C298.196 47.395 298.076 48.1607 298.076 48.9482C298.076 49.7357 298.196 50.5122 298.437 51.2779C298.7 52.0216 299.104 52.6888 299.651 53.2794C300.198 53.87 300.887 54.1872 301.718 54.231H313.268C313.881 54.2529 314.384 54.4825 314.778 54.92C315.193 55.3575 315.401 55.8825 315.401 56.495C315.379 57.0857 315.161 57.5888 314.745 58.0044C314.351 58.3982 313.859 58.606 313.268 58.6279H301.226H300.603C299.071 58.5404 297.803 57.9607 296.796 56.8888C295.812 55.795 295.101 54.5591 294.664 53.181C294.248 51.8029 294.04 50.3919 294.04 48.9482C294.04 47.5044 294.259 46.0935 294.696 44.7154C295.134 43.3372 295.845 42.1122 296.829 41.0404C297.814 39.9466 299.071 39.356 300.603 39.2685ZM315.336 48.8169C315.336 49.4294 315.117 49.9435 314.679 50.3591C314.264 50.7966 313.75 51.0154 313.137 51.0154H303.228C302.615 51.0154 302.09 50.8075 301.653 50.3919C301.237 49.9544 301.029 49.4294 301.029 48.8169C301.029 48.2044 301.237 47.6794 301.653 47.2419C302.09 46.8263 302.615 46.6185 303.228 46.6185H313.137C313.75 46.6185 314.264 46.8372 314.679 47.2747C315.117 47.6904 315.336 48.2044 315.336 48.8169ZM340.248 41.4669C340.248 42.0794 340.029 42.5935 339.592 43.0091C339.176 43.4466 338.662 43.6654 338.05 43.6654H324.925C324.509 43.6872 324.159 43.7857 323.875 43.9607C323.612 44.1138 323.415 44.2997 323.284 44.5185C323.153 44.7154 323.087 44.9232 323.087 45.1419C323.087 45.3607 323.153 45.5794 323.284 45.7982C323.415 45.995 323.612 46.181 323.875 46.356C324.159 46.5091 324.509 46.5966 324.925 46.6185H334.243C335.775 46.6622 337.032 47.0232 338.017 47.7013C339.023 48.3575 339.734 49.1232 340.15 49.9982C340.587 50.8513 340.806 51.7263 340.806 52.6232C340.806 53.4982 340.587 54.3732 340.15 55.2482C339.712 56.1013 339.001 56.8669 338.017 57.545C337.032 58.2013 335.775 58.5294 334.243 58.5294H334.047C333.915 58.5513 333.784 58.5622 333.653 58.5622H321.25C320.637 58.5622 320.112 58.3544 319.675 57.9388C319.259 57.5013 319.051 56.9763 319.051 56.3638C319.051 55.7513 319.27 55.2372 319.707 54.8216C320.123 54.3841 320.637 54.1654 321.25 54.1654H334.44C334.856 54.1872 335.195 54.1107 335.457 53.9357C335.742 53.7607 335.95 53.5638 336.081 53.345C336.212 53.1044 336.278 52.8638 336.278 52.6232C336.278 52.47 336.212 52.2622 336.081 51.9997C335.95 51.7154 335.742 51.4857 335.457 51.3107C335.195 51.1357 334.856 51.0372 334.44 51.0154H325.122C323.59 50.9716 322.322 50.6216 321.315 49.9654C320.331 49.3091 319.62 48.5654 319.182 47.7341C318.767 46.881 318.559 46.0169 318.559 45.1419C318.559 44.2888 318.778 43.4466 319.215 42.6154C319.653 41.7622 320.364 41.0075 321.348 40.3513C322.332 39.695 323.59 39.345 325.122 39.3013H325.318C325.45 39.2794 325.581 39.2685 325.712 39.2685H338.05C338.662 39.2685 339.176 39.4872 339.592 39.9247C340.029 40.3404 340.248 40.8544 340.248 41.4669Z" fill="#07596E"/>
</g>
<path d="M92.5302 43.4865C91.6891 43.5307 90.9807 43.8517 90.4052 44.4493C89.8518 45.047 89.4534 45.7332 89.2099 46.5079C88.9664 47.2605 88.8447 48.0353 88.8447 48.8322C88.8447 49.629 88.9553 50.4148 89.1767 51.1896C89.4202 51.9643 89.8297 52.6505 90.4052 53.2482C90.9807 53.8237 91.6891 54.1336 92.5302 54.1779H103.487C104.882 54.3107 105.645 55.0743 105.778 56.4689C105.756 57.0887 105.524 57.6088 105.081 58.0294C104.638 58.4279 104.107 58.6271 103.487 58.6271H92.8954H91.3681C89.8186 58.5385 88.5458 57.9519 87.5497 56.8673C86.5536 55.7605 85.8342 54.5099 85.3915 53.1154C84.971 51.7208 84.7607 50.2931 84.7607 48.8322C84.7607 47.7475 84.8824 46.674 85.1259 45.6115C85.3694 44.549 85.7457 43.5418 86.2548 42.59C86.7861 41.616 87.4833 40.7859 88.3466 40.0997C89.232 39.4135 90.2392 39.0594 91.3681 39.0372H91.9989H103.487C104.882 39.17 105.645 39.9337 105.778 41.3282C105.778 41.948 105.546 42.4682 105.081 42.8888C104.638 43.2872 104.107 43.4865 103.487 43.4865H92.5302ZM111.398 38.506C112.017 38.506 112.549 38.7163 112.991 39.1368C113.434 39.5353 113.666 40.0444 113.689 40.6642V41.295C113.666 42.2026 113.722 43.0437 113.855 43.8185C114.01 44.5711 114.364 45.2462 114.917 45.8439C115.47 46.4415 116.168 46.7625 117.009 46.8068H126.339V40.7306C126.339 40.1108 126.56 39.6017 127.003 39.2032C127.468 38.7827 128.01 38.5724 128.63 38.5724C129.958 38.6831 130.689 39.4025 130.821 40.7306V48.4337C130.821 50.2045 130.578 51.8758 130.091 53.4474C129.648 54.8419 128.918 56.0262 127.899 57.0001C126.903 57.9519 125.631 58.4721 124.081 58.5607H112.128C111.53 58.5385 111.021 58.3282 110.601 57.9298C110.202 57.5092 109.992 57.0001 109.97 56.4025C109.97 55.7827 110.169 55.2514 110.567 54.8087C110.988 54.366 111.508 54.1336 112.128 54.1115H122.952C123.793 54.0672 124.491 53.7462 125.044 53.1486C125.553 52.5952 125.896 51.9643 126.073 51.256H115.88C114.33 51.1674 113.047 50.6473 112.028 49.6954C111.032 48.7215 110.313 47.5372 109.87 46.1427C109.45 44.7482 109.228 43.2651 109.206 41.6935V40.6642C109.228 40.0665 109.45 39.5685 109.87 39.17C110.291 38.7495 110.8 38.5281 111.398 38.506ZM157.657 49.8615C158.078 50.7469 158.288 51.6434 158.288 52.5509C158.288 53.4363 158.067 54.3217 157.624 55.2072C157.182 56.0704 156.462 56.8452 155.466 57.5314C154.47 58.1954 153.197 58.5275 151.648 58.5275H151.448C151.316 58.5496 151.183 58.5607 151.05 58.5607H137.702C137.105 58.5385 136.596 58.3282 136.175 57.9298C135.777 57.5092 135.566 57.0001 135.544 56.4025V41.1954C135.566 40.5978 135.777 40.0997 136.175 39.7013C136.596 39.2807 137.105 39.0594 137.702 39.0372H149.124C149.257 39.0372 149.39 39.0483 149.523 39.0704H149.722C151.271 39.1147 152.544 39.4689 153.54 40.1329C154.536 40.797 155.256 41.5607 155.698 42.424C156.141 43.2651 156.363 44.1173 156.363 44.9806C156.363 45.866 156.152 46.7293 155.732 47.5704C155.71 47.6147 155.687 47.6479 155.665 47.67C156.573 48.312 157.237 49.0424 157.657 49.8615ZM151.847 54.1115C152.267 54.1336 152.611 54.0561 152.876 53.879C153.164 53.7019 153.374 53.5027 153.507 53.2814C153.64 53.0379 153.706 52.7944 153.706 52.5509C153.706 52.396 153.64 52.1857 153.507 51.92C153.374 51.6323 153.164 51.3999 152.876 51.2228C152.611 51.0457 152.267 50.9461 151.847 50.924H149.722H140.027V53.215C140.027 53.8126 140.336 54.1115 140.956 54.1115H141.222H151.847ZM150.984 46.1759C151.249 46.021 151.448 45.8439 151.581 45.6447C151.714 45.4233 151.781 45.2019 151.781 44.9806C151.781 44.7592 151.714 44.549 151.581 44.3497C151.448 44.1284 151.238 43.9402 150.95 43.7853C150.685 43.6082 150.342 43.5086 149.921 43.4865H140.956C140.336 43.4865 140.027 43.7853 140.027 44.3829V46.4747H149.921C150.342 46.4526 150.696 46.353 150.984 46.1759ZM168.224 39.0372H169.751H181.04C181.66 39.0594 182.169 39.2918 182.568 39.7345C182.988 40.1772 183.199 40.7085 183.199 41.3282C183.088 42.6564 182.369 43.3758 181.04 43.4865H169.353C168.512 43.5307 167.815 43.8517 167.261 44.4493C166.708 45.047 166.298 45.7332 166.033 46.5079C165.789 47.2605 165.667 48.0353 165.667 48.8322C165.667 49.629 165.789 50.4148 166.033 51.1896C166.298 51.9422 166.708 52.6173 167.261 53.215C167.815 53.8126 168.512 54.1336 169.353 54.1779H181.04C181.66 54.2 182.169 54.4324 182.568 54.8751C182.988 55.3178 183.199 55.8491 183.199 56.4689C183.176 57.0665 182.955 57.5756 182.535 57.9962C182.136 58.3947 181.638 58.6049 181.04 58.6271H168.855H168.224C166.675 58.5385 165.391 57.9519 164.372 56.8673C163.376 55.7605 162.657 54.5099 162.214 53.1154C161.794 51.7208 161.583 50.2931 161.583 48.8322C161.583 47.3712 161.805 45.9435 162.247 44.549C162.69 43.1544 163.41 41.9148 164.406 40.8302C165.402 39.7234 166.675 39.1258 168.224 39.0372ZM183.132 48.6993C183.132 49.3191 182.911 49.8393 182.468 50.2599C182.048 50.7026 181.527 50.924 180.908 50.924H170.88C170.26 50.924 169.729 50.7137 169.287 50.2931C168.866 49.8504 168.656 49.3191 168.656 48.6993C168.656 48.0795 168.866 47.5483 169.287 47.1056C169.729 46.685 170.26 46.4747 170.88 46.4747H180.908C181.527 46.4747 182.048 46.6961 182.468 47.1388C182.911 47.5594 183.132 48.0795 183.132 48.6993ZM191.341 56.9337C191.209 58.2618 190.478 58.9812 189.15 59.0919C188.53 59.0919 187.988 58.8927 187.523 58.4943C187.08 58.0737 186.859 57.5535 186.859 56.9337V41.1954C186.881 40.5756 187.114 40.0665 187.556 39.6681C187.999 39.2475 188.53 39.0372 189.15 39.0372H190.777H194.861H203.062C203.195 39.0372 203.328 39.0483 203.461 39.0704H203.66C205.209 39.1147 206.482 39.4689 207.478 40.1329C208.474 40.797 209.194 41.5607 209.636 42.424C210.079 43.2651 210.3 44.1173 210.3 44.9806C210.3 45.866 210.079 46.7404 209.636 47.6036C209.216 48.4448 208.496 49.1974 207.478 49.8615C206.482 50.5255 205.209 50.8797 203.66 50.924H197.816C197.993 52.0307 198.358 52.8497 198.912 53.381C199.443 53.9122 200.118 54.1779 200.937 54.1779H208.109C208.729 54.2 209.238 54.4324 209.636 54.8751C210.057 55.3178 210.267 55.8491 210.267 56.4689C210.245 57.0665 210.024 57.5756 209.603 57.9962C209.205 58.3947 208.707 58.6049 208.109 58.6271H200.339C198.701 58.6492 197.218 58.0073 195.89 56.7013C194.562 55.3953 193.754 53.8458 193.466 52.0529C193.068 50.0607 192.869 48.9428 192.869 48.6993C192.869 48.0795 193.079 47.5594 193.5 47.1388C193.942 46.6961 194.474 46.4747 195.093 46.4747H203.859C204.28 46.4526 204.623 46.3641 204.888 46.2091C205.176 46.032 205.386 45.8439 205.519 45.6447C205.652 45.4233 205.718 45.2019 205.718 44.9806C205.718 44.7592 205.652 44.549 205.519 44.3497C205.386 44.1284 205.176 43.9402 204.888 43.7853C204.623 43.6082 204.28 43.5086 203.859 43.4865H194.861H192.205C191.629 43.5086 191.341 43.7963 191.341 44.3497V56.9337ZM224.818 38.1407C225.969 38.1407 227.098 38.2736 228.205 38.5392C229.334 38.8048 230.407 39.2032 231.426 39.7345C232.444 40.2436 233.34 40.9298 234.115 41.7931C234.912 42.6564 235.343 43.6857 235.41 44.881V46.2755V56.8673C235.277 58.1954 234.547 58.9148 233.218 59.0255C232.599 59.0255 232.056 58.8263 231.592 58.4279C231.149 58.0073 230.927 57.4871 230.927 56.8673V45.9103C230.883 45.2241 230.618 44.6596 230.131 44.2169C229.666 43.7521 229.134 43.3868 228.537 43.1212C227.961 42.8556 227.353 42.6564 226.711 42.5236C226.091 42.3907 225.46 42.3243 224.818 42.3243C224.176 42.3243 223.534 42.3907 222.892 42.5236C222.273 42.6564 221.664 42.8556 221.066 43.1212C220.491 43.3868 219.959 43.7521 219.472 44.2169C219.008 44.6596 218.753 45.2241 218.709 45.9103V56.8673C218.598 58.1954 217.879 58.9148 216.551 59.0255C215.931 59.0255 215.388 58.8263 214.924 58.4279C214.481 58.0073 214.259 57.4871 214.259 56.8673V46.2755V44.881C214.326 43.6857 214.746 42.6564 215.521 41.7931C216.296 40.9298 217.192 40.2436 218.211 39.7345C219.229 39.2032 220.291 38.8048 221.398 38.5392C222.527 38.2736 223.667 38.1407 224.818 38.1407ZM257.764 39.0372C258.892 39.0594 259.9 39.4135 260.785 40.0997C261.67 40.7859 262.379 41.6049 262.91 42.5568C263.463 43.5086 263.873 44.5157 264.139 45.5782C264.404 46.6407 264.537 47.7254 264.537 48.8322C264.537 50.2931 264.305 51.7319 263.84 53.1486C263.397 54.5431 262.655 55.7827 261.615 56.8673C260.597 57.9519 259.313 58.5385 257.764 58.6271H246.176C244.626 58.5607 243.331 57.9851 242.291 56.9005C241.251 55.8159 240.509 54.5652 240.066 53.1486C239.646 51.7319 239.435 50.2931 239.435 48.8322C239.435 47.3712 239.657 45.9435 240.099 44.549C240.542 43.1323 241.273 41.8816 242.291 40.797C243.331 39.6902 244.626 39.1036 246.176 39.0372H246.807H257.133H257.764ZM256.635 54.1779C257.476 54.1336 258.173 53.8237 258.726 53.2482C259.302 52.6505 259.711 51.9643 259.955 51.1896C260.198 50.4148 260.32 49.629 260.32 48.8322C260.32 48.0353 260.187 47.2605 259.922 46.5079C259.678 45.7332 259.28 45.047 258.726 44.4493C258.173 43.8517 257.476 43.5307 256.635 43.4865H247.205C246.364 43.5307 245.667 43.8517 245.113 44.4493C244.56 45.047 244.15 45.7332 243.885 46.5079C243.641 47.2605 243.519 48.0353 243.519 48.8322C243.519 49.629 243.641 50.4148 243.885 51.1896C244.128 51.9643 244.527 52.6505 245.08 53.2482C245.655 53.8237 246.364 54.1336 247.205 54.1779H256.635ZM267.865 41.2618C267.865 40.642 268.076 40.1219 268.496 39.7013C268.939 39.2586 269.47 39.0372 270.09 39.0372H289.414C290.034 39.0372 290.565 39.2475 291.008 39.6681C291.428 40.1108 291.639 40.642 291.639 41.2618C291.639 41.8816 291.417 42.4129 290.975 42.8556C290.554 43.2762 290.034 43.4865 289.414 43.4865H282.01V56.9337C281.877 58.2618 281.147 58.9812 279.818 59.0919C279.199 59.0919 278.656 58.8927 278.191 58.4943C277.749 58.0737 277.527 57.5535 277.527 56.9337V43.4865H270.09C269.47 43.4865 268.95 43.2651 268.529 42.8224C268.087 42.4018 267.865 41.8816 267.865 41.2618ZM301.641 39.0372H303.168H314.457C315.077 39.0594 315.586 39.2918 315.985 39.7345C316.405 40.1772 316.615 40.7085 316.615 41.3282C316.505 42.6564 315.785 43.3758 314.457 43.4865H302.77C301.929 43.5307 301.231 43.8517 300.678 44.4493C300.125 45.047 299.715 45.7332 299.449 46.5079C299.206 47.2605 299.084 48.0353 299.084 48.8322C299.084 49.629 299.206 50.4148 299.449 51.1896C299.715 51.9422 300.125 52.6173 300.678 53.215C301.231 53.8126 301.929 54.1336 302.77 54.1779H314.457C315.077 54.2 315.586 54.4324 315.985 54.8751C316.405 55.3178 316.615 55.8491 316.615 56.4689C316.593 57.0665 316.372 57.5756 315.951 57.9962C315.553 58.3947 315.055 58.6049 314.457 58.6271H302.272H301.641C300.091 58.5385 298.807 57.9519 297.789 56.8673C296.793 55.7605 296.074 54.5099 295.631 53.1154C295.21 51.7208 295 50.2931 295 48.8322C295 47.3712 295.222 45.9435 295.664 44.549C296.107 43.1544 296.826 41.9148 297.822 40.8302C298.819 39.7234 300.091 39.1258 301.641 39.0372ZM316.549 48.6993C316.549 49.3191 316.328 49.8393 315.885 50.2599C315.464 50.7026 314.944 50.924 314.324 50.924H304.297C303.677 50.924 303.146 50.7137 302.703 50.2931C302.283 49.8504 302.072 49.3191 302.072 48.6993C302.072 48.0795 302.283 47.5483 302.703 47.1056C303.146 46.685 303.677 46.4747 304.297 46.4747H314.324C314.944 46.4747 315.464 46.6961 315.885 47.1388C316.328 47.5594 316.549 48.0795 316.549 48.6993ZM341.758 41.2618C341.758 41.8816 341.537 42.4018 341.094 42.8224C340.674 43.2651 340.153 43.4865 339.534 43.4865H326.252C325.832 43.5086 325.478 43.6082 325.19 43.7853C324.924 43.9402 324.725 44.1284 324.592 44.3497C324.459 44.549 324.393 44.7592 324.393 44.9806C324.393 45.2019 324.459 45.4233 324.592 45.6447C324.725 45.8439 324.924 46.032 325.19 46.2091C325.478 46.3641 325.832 46.4526 326.252 46.4747H335.682C337.231 46.519 338.504 46.8842 339.5 47.5704C340.519 48.2345 341.238 49.0092 341.659 49.8947C342.101 50.7579 342.323 51.6434 342.323 52.5509C342.323 53.4363 342.101 54.3217 341.659 55.2072C341.216 56.0704 340.496 56.8452 339.5 57.5314C338.504 58.1954 337.231 58.5275 335.682 58.5275H335.483C335.35 58.5496 335.217 58.5607 335.084 58.5607H322.534C321.914 58.5607 321.383 58.3504 320.94 57.9298C320.519 57.4871 320.309 56.9559 320.309 56.3361C320.309 55.7163 320.53 55.1961 320.973 54.7755C321.394 54.3328 321.914 54.1115 322.534 54.1115H335.881C336.302 54.1336 336.645 54.0561 336.911 53.879C337.198 53.7019 337.409 53.5027 337.541 53.2814C337.674 53.0379 337.741 52.7944 337.741 52.5509C337.741 52.396 337.674 52.1857 337.541 51.92C337.409 51.6323 337.198 51.3999 336.911 51.2228C336.645 51.0457 336.302 50.9461 335.881 50.924H326.452C324.902 50.8797 323.618 50.5255 322.6 49.8615C321.604 49.1974 320.884 48.4448 320.442 47.6036C320.021 46.7404 319.811 45.866 319.811 44.9806C319.811 44.1173 320.032 43.2651 320.475 42.424C320.918 41.5607 321.637 40.797 322.633 40.1329C323.629 39.4689 324.902 39.1147 326.452 39.0704H326.651C326.784 39.0483 326.916 39.0372 327.049 39.0372H339.534C340.153 39.0372 340.674 39.2586 341.094 39.7013C341.537 40.1219 341.758 40.642 341.758 41.2618Z" fill="#07596E"/>
<g opacity="0.67" filter="url(#filter1_f_61_245)">
<path d="M50.4146 28C50.0574 28.8623 49.7002 29.7246 49.343 30.5869C51.379 31.405 53.415 32.223 55.4509 33.0411C58.5049 34.2682 61.5589 35.4953 64.6128 36.7224L63.9498 36.0594C66.1028 41.1047 68.2558 46.15 70.4087 51.1953V50.3916C68.3636 55.4816 66.3184 60.5715 64.2732 65.6614L64.7467 65.1879C59.7015 67.3408 54.6562 69.4938 49.6109 71.6467H50.1467C45.0568 69.6016 39.9668 67.5564 34.8769 65.5112L35.161 65.7953C33.0081 60.7501 30.8551 55.7048 28.7022 50.6595V50.9274C30.7473 45.8375 32.7925 40.7476 34.8377 35.6576L34.743 35.7523C37.7701 34.4606 40.7973 33.1688 43.8245 31.877C45.8426 31.0158 47.8607 30.1546 49.8788 29.2935C47.8428 30.1115 45.8069 30.9296 43.7709 31.7477C40.7169 32.9748 37.663 34.2019 34.609 35.429L34.5407 35.4582L34.5143 35.5237C32.3614 40.569 30.2084 45.6142 28.0554 50.6595L28 50.7975L28.0554 50.9274C30.1006 56.0173 32.1458 61.1072 34.191 66.1972L34.2785 66.4023L34.4751 66.4813C39.5204 68.6343 44.5656 70.7872 49.6109 72.9402L49.8869 73.051L50.1467 72.9402C55.2366 70.895 60.3265 68.8498 65.4164 66.8046L65.7583 66.6588L65.89 66.3311C68.043 61.2858 70.1959 56.2406 72.3489 51.1953L72.5152 50.7814L72.3489 50.3916C70.3037 45.3017 68.2585 40.2118 66.2133 35.1219L66.0091 34.6432L65.5504 34.4589C62.5232 33.1671 59.4961 31.8754 56.4689 30.5836C54.4508 29.7224 52.4327 28.8612 50.4146 28ZM49.343 30.5869L50.4146 28L51.6997 28.5164L49.8788 29.2935L49.343 30.5869Z" fill="#07596E"/>
</g>
<path opacity="0.67" d="M50.4146 28C50.0574 28.8623 49.7002 29.7246 49.343 30.5869C51.379 31.405 53.415 32.223 55.4509 33.0411C58.5049 34.2682 61.5589 35.4953 64.6128 36.7224L63.9498 36.0594C66.1028 41.1047 68.2558 46.15 70.4087 51.1953V50.3916C68.3636 55.4816 66.3184 60.5715 64.2732 65.6614L64.7467 65.1879C59.7015 67.3408 54.6562 69.4938 49.6109 71.6467H50.1467C45.0568 69.6016 39.9668 67.5564 34.8769 65.5112L35.161 65.7953C33.0081 60.7501 30.8551 55.7048 28.7022 50.6595V50.9274C30.7473 45.8375 32.7925 40.7476 34.8377 35.6576L34.743 35.7523C37.7701 34.4606 40.7973 33.1688 43.8245 31.877C45.8426 31.0158 47.8607 30.1546 49.8788 29.2935C47.8428 30.1115 45.8069 30.9296 43.7709 31.7477C40.7169 32.9748 37.663 34.2019 34.609 35.429L34.5407 35.4582L34.5143 35.5237C32.3614 40.569 30.2084 45.6142 28.0554 50.6595L28 50.7975L28.0554 50.9274C30.1006 56.0173 32.1458 61.1072 34.191 66.1972L34.2785 66.4023L34.4751 66.4813C39.5204 68.6343 44.5656 70.7872 49.6109 72.9402L49.8869 73.051L50.1467 72.9402C55.2366 70.895 60.3265 68.8498 65.4164 66.8046L65.7583 66.6588L65.89 66.3311C68.043 61.2858 70.1959 56.2406 72.3489 51.1953L72.5152 50.7814L72.3489 50.3916C70.3037 45.3017 68.2585 40.2118 66.2133 35.1219L66.0091 34.6432L65.5504 34.4589C62.5232 33.1671 59.4961 31.8754 56.4689 30.5836C54.4508 29.7224 52.4327 28.8612 50.4146 28ZM49.343 30.5869L50.4146 28L51.6997 28.5164L49.8788 29.2935L49.343 30.5869Z" fill="#07596E"/>
<g filter="url(#filter2_f_61_245)">
<path d="M50.7389 40.1424C51.8764 40.1424 52.9921 40.2737 54.0858 40.5362C55.2014 40.7987 56.2624 41.1924 57.2686 41.7174C58.2749 42.2206 59.1608 42.8987 59.9264 43.7518C60.7139 44.6049 61.1405 45.6221 61.2061 46.8034V48.1815V58.6487C61.0749 59.9612 60.353 60.6721 59.0405 60.7815C58.428 60.7815 57.8921 60.5846 57.4327 60.1909C56.9952 59.7752 56.7764 59.2612 56.7764 58.6487V47.8206C56.7327 47.1424 56.4702 46.5846 55.9889 46.1471C55.5296 45.6877 55.0046 45.3268 54.4139 45.0643C53.8452 44.8018 53.2436 44.6049 52.6092 44.4737C51.9967 44.3424 51.3733 44.2768 50.7389 44.2768C50.1046 44.2768 49.4702 44.3424 48.8358 44.4737C48.2233 44.6049 47.6217 44.8018 47.0311 45.0643C46.4624 45.3268 45.9374 45.6877 45.4561 46.1471C44.9967 46.5846 44.7452 47.1424 44.7014 47.8206V58.6487C44.5921 59.9612 43.8811 60.6721 42.5686 60.7815C41.9561 60.7815 41.4202 60.5846 40.9608 60.1909C40.5233 59.7752 40.3046 59.2612 40.3046 58.6487V48.1815V46.8034C40.3702 45.6221 40.7858 44.6049 41.5514 43.7518C42.3171 42.8987 43.203 42.2206 44.2092 41.7174C45.2155 41.1924 46.2655 40.7987 47.3592 40.5362C48.4749 40.2737 49.6014 40.1424 50.7389 40.1424Z" fill="#07596E"/>
</g>
<path d="M50.739 39.9006C51.89 39.9006 53.0189 40.0334 54.1257 40.2991C55.2546 40.5647 56.3282 40.9631 57.3464 41.4944C58.3646 42.0035 59.2611 42.6897 60.0358 43.553C60.8327 44.4163 61.2643 45.4456 61.3308 46.6409V48.0354V58.6272C61.1979 59.9553 60.4675 60.6747 59.1393 60.7854C58.5196 60.7854 57.9772 60.5862 57.5124 60.1877C57.0697 59.7672 56.8483 59.247 56.8483 58.6272V47.6702C56.8041 46.984 56.5384 46.4195 56.0515 45.9768C55.5866 45.512 55.0554 45.1467 54.4577 44.8811C53.8822 44.6155 53.2735 44.4163 52.6315 44.2834C52.0117 44.1506 51.3809 44.0842 50.739 44.0842C50.097 44.0842 49.4551 44.1506 48.8132 44.2834C48.1934 44.4163 47.5847 44.6155 46.987 44.8811C46.4115 45.1467 45.8802 45.512 45.3933 45.9768C44.9284 46.4195 44.6739 46.984 44.6296 47.6702V58.6272C44.5189 59.9553 43.7995 60.6747 42.4714 60.7854C41.8516 60.7854 41.3093 60.5862 40.8444 60.1877C40.4017 59.7672 40.1804 59.247 40.1804 58.6272V48.0354V46.6409C40.2468 45.4456 40.6673 44.4163 41.4421 43.553C42.2168 42.6897 43.1133 42.0035 44.1315 41.4944C45.1498 40.9631 46.2123 40.5647 47.319 40.2991C48.4479 40.0334 49.5879 39.9006 50.739 39.9006Z" fill="#07596E"/>
<defs>
<filter id="filter0_f_61_245" x="58.2741" y="10.3826" width="310.532" height="76.7047" filterUnits="userSpaceOnUse" color-interpolation-filters="sRGB">
<feFlood flood-opacity="0" result="BackgroundImageFix"/>
<feBlend mode="normal" in="SourceGraphic" in2="BackgroundImageFix" result="shape"/>
<feGaussianBlur stdDeviation="14" result="effect1_foregroundBlur_61_245"/>
</filter>
<filter id="filter1_f_61_245" x="0" y="0" width="100.515" height="101.051" filterUnits="userSpaceOnUse" color-interpolation-filters="sRGB">
<feFlood flood-opacity="0" result="BackgroundImageFix"/>
<feBlend mode="normal" in="SourceGraphic" in2="BackgroundImageFix" result="shape"/>
<feGaussianBlur stdDeviation="14" result="effect1_foregroundBlur_61_245"/>
</filter>
<filter id="filter2_f_61_245" x="12.3046" y="12.1425" width="76.9016" height="76.639" filterUnits="userSpaceOnUse" color-interpolation-filters="sRGB">
<feFlood flood-opacity="0" result="BackgroundImageFix"/>
<feBlend mode="normal" in="SourceGraphic" in2="BackgroundImageFix" result="shape"/>
<feGaussianBlur stdDeviation="14" result="effect1_foregroundBlur_61_245"/>
</filter>
</defs>
</svg>
