<svg width="261" height="72" viewBox="0 0 261 72" fill="none" xmlns="http://www.w3.org/2000/svg">
<g filter="url(#filter0_f_62_258)">
<path d="M64.4445 32.1895C63.8507 32.2208 63.3507 32.4473 62.9445 32.8692C62.5538 33.2911 62.2726 33.7754 62.1007 34.3223C61.9288 34.8536 61.8429 35.4004 61.8429 35.9629C61.8429 36.5254 61.921 37.0801 62.0773 37.627C62.2492 38.1739 62.5382 38.6583 62.9445 39.0801C63.3507 39.4864 63.8507 39.7051 64.4445 39.7364H72.1788C73.1632 39.8301 73.7023 40.3692 73.796 41.3536C73.7804 41.7911 73.6163 42.1583 73.3038 42.4551C72.9913 42.7364 72.6163 42.877 72.1788 42.877H64.7023H63.6242C62.5304 42.8145 61.632 42.4004 60.9288 41.6348C60.2257 40.8536 59.7179 39.9708 59.4054 38.9864C59.1085 38.002 58.9601 36.9942 58.9601 35.9629C58.9601 35.1973 59.046 34.4395 59.2179 33.6895C59.3898 32.9395 59.6554 32.2286 60.0148 31.5567C60.3898 30.8692 60.882 30.2833 61.4913 29.7989C62.1163 29.3145 62.8273 29.0645 63.6242 29.0489H64.0695H72.1788C73.1632 29.1426 73.7023 29.6817 73.796 30.6661C73.796 31.1036 73.632 31.4708 73.3038 31.7676C72.9913 32.0489 72.6163 32.1895 72.1788 32.1895H64.4445ZM77.7626 28.6739C78.2001 28.6739 78.5751 28.8223 78.8876 29.1192C79.2001 29.4004 79.3642 29.7598 79.3798 30.1973V30.6426C79.3642 31.2833 79.4032 31.877 79.497 32.4239C79.6063 32.9551 79.8563 33.4317 80.247 33.8536C80.6376 34.2754 81.1298 34.502 81.7235 34.5333H88.3095V30.2442C88.3095 29.8067 88.4657 29.4473 88.7782 29.1661C89.1063 28.8692 89.4892 28.7208 89.9267 28.7208C90.8642 28.7989 91.3798 29.3067 91.4735 30.2442V35.6817C91.4735 36.9317 91.3017 38.1114 90.9579 39.2208C90.6454 40.2051 90.1298 41.0411 89.411 41.7286C88.7079 42.4004 87.8095 42.7676 86.7157 42.8301H78.2782C77.8563 42.8145 77.497 42.6661 77.2001 42.3848C76.9188 42.0879 76.7704 41.7286 76.7548 41.3067C76.7548 40.8692 76.8954 40.4942 77.1767 40.1817C77.4735 39.8692 77.8407 39.7051 78.2782 39.6895H85.9188C86.5126 39.6583 87.0048 39.4317 87.3954 39.0098C87.7548 38.6192 87.997 38.1739 88.122 37.6739H80.9267C79.8329 37.6114 78.9267 37.2442 78.2079 36.5723C77.5048 35.8848 76.997 35.0489 76.6845 34.0645C76.3876 33.0801 76.2313 32.0333 76.2157 30.9239V30.1973C76.2313 29.7754 76.3876 29.4239 76.6845 29.1426C76.9813 28.8458 77.3407 28.6895 77.7626 28.6739ZM110.417 36.6895C110.714 37.3145 110.862 37.9473 110.862 38.5879C110.862 39.2129 110.706 39.8379 110.393 40.4629C110.081 41.0723 109.573 41.6192 108.87 42.1036C108.167 42.5723 107.268 42.8067 106.174 42.8067H106.034C105.94 42.8223 105.846 42.8301 105.753 42.8301H96.3307C95.9088 42.8145 95.5495 42.6661 95.2526 42.3848C94.9713 42.0879 94.8229 41.7286 94.8073 41.3067V30.5723C94.8229 30.1504 94.9713 29.7989 95.2526 29.5176C95.5495 29.2208 95.9088 29.0645 96.3307 29.0489H104.393C104.487 29.0489 104.581 29.0567 104.674 29.0723H104.815C105.909 29.1036 106.807 29.3536 107.51 29.8223C108.214 30.2911 108.721 30.8301 109.034 31.4395C109.346 32.0333 109.503 32.6348 109.503 33.2442C109.503 33.8692 109.354 34.4786 109.057 35.0723C109.042 35.1036 109.026 35.127 109.01 35.1426C109.651 35.5958 110.12 36.1114 110.417 36.6895ZM106.315 39.6895C106.612 39.7051 106.854 39.6504 107.042 39.5254C107.245 39.4004 107.393 39.2598 107.487 39.1036C107.581 38.9317 107.628 38.7598 107.628 38.5879C107.628 38.4786 107.581 38.3301 107.487 38.1426C107.393 37.9395 107.245 37.7754 107.042 37.6504C106.854 37.5254 106.612 37.4551 106.315 37.4395H104.815H97.9713V39.0567C97.9713 39.4786 98.1901 39.6895 98.6276 39.6895H98.8151H106.315ZM105.706 34.0879C105.893 33.9786 106.034 33.8536 106.128 33.7129C106.221 33.5567 106.268 33.4004 106.268 33.2442C106.268 33.0879 106.221 32.9395 106.128 32.7989C106.034 32.6426 105.885 32.5098 105.682 32.4004C105.495 32.2754 105.253 32.2051 104.956 32.1895H98.6276C98.1901 32.1895 97.9713 32.4004 97.9713 32.8223V34.2989H104.956C105.253 34.2833 105.503 34.2129 105.706 34.0879ZM117.875 29.0489H118.954H126.922C127.36 29.0645 127.719 29.2286 128 29.5411C128.297 29.8536 128.446 30.2286 128.446 30.6661C128.368 31.6036 127.86 32.1114 126.922 32.1895H118.672C118.079 32.2208 117.586 32.4473 117.196 32.8692C116.805 33.2911 116.516 33.7754 116.329 34.3223C116.157 34.8536 116.071 35.4004 116.071 35.9629C116.071 36.5254 116.157 37.0801 116.329 37.627C116.516 38.1583 116.805 38.6348 117.196 39.0567C117.586 39.4786 118.079 39.7051 118.672 39.7364H126.922C127.36 39.752 127.719 39.9161 128 40.2286C128.297 40.5411 128.446 40.9161 128.446 41.3536C128.43 41.7754 128.274 42.1348 127.977 42.4317C127.696 42.7129 127.344 42.8614 126.922 42.877H118.321H117.875C116.782 42.8145 115.875 42.4004 115.157 41.6348C114.454 40.8536 113.946 39.9708 113.633 38.9864C113.336 38.002 113.188 36.9942 113.188 35.9629C113.188 34.9317 113.344 33.9239 113.657 32.9395C113.969 31.9551 114.477 31.0801 115.18 30.3145C115.883 29.5333 116.782 29.1114 117.875 29.0489ZM128.399 35.8692C128.399 36.3067 128.243 36.6739 127.93 36.9708C127.633 37.2833 127.266 37.4395 126.829 37.4395H119.75C119.313 37.4395 118.938 37.2911 118.625 36.9942C118.329 36.6817 118.18 36.3067 118.18 35.8692C118.18 35.4317 118.329 35.0567 118.625 34.7442C118.938 34.4473 119.313 34.2989 119.75 34.2989H126.829C127.266 34.2989 127.633 34.4551 127.93 34.7676C128.243 35.0645 128.399 35.4317 128.399 35.8692ZM134.194 41.6817C134.1 42.6192 133.584 43.127 132.647 43.2051C132.209 43.2051 131.826 43.0645 131.498 42.7833C131.186 42.4864 131.029 42.1192 131.029 41.6817V30.5723C131.045 30.1348 131.209 29.7754 131.522 29.4942C131.834 29.1973 132.209 29.0489 132.647 29.0489H133.795H136.678H142.467C142.561 29.0489 142.654 29.0567 142.748 29.0723H142.889C143.983 29.1036 144.881 29.3536 145.584 29.8223C146.287 30.2911 146.795 30.8301 147.108 31.4395C147.42 32.0333 147.576 32.6348 147.576 33.2442C147.576 33.8692 147.42 34.4864 147.108 35.0958C146.811 35.6895 146.303 36.2208 145.584 36.6895C144.881 37.1583 143.983 37.4083 142.889 37.4395H138.764C138.889 38.2208 139.147 38.7989 139.537 39.1739C139.912 39.5489 140.389 39.7364 140.967 39.7364H146.029C146.467 39.752 146.826 39.9161 147.108 40.2286C147.404 40.5411 147.553 40.9161 147.553 41.3536C147.537 41.7754 147.381 42.1348 147.084 42.4317C146.803 42.7129 146.451 42.8614 146.029 42.877H140.545C139.389 42.8926 138.342 42.4395 137.404 41.5176C136.467 40.5958 135.897 39.502 135.694 38.2364C135.412 36.8301 135.272 36.0411 135.272 35.8692C135.272 35.4317 135.42 35.0645 135.717 34.7676C136.029 34.4551 136.404 34.2989 136.842 34.2989H143.029C143.326 34.2833 143.569 34.2208 143.756 34.1114C143.959 33.9864 144.108 33.8536 144.201 33.7129C144.295 33.5567 144.342 33.4004 144.342 33.2442C144.342 33.0879 144.295 32.9395 144.201 32.7989C144.108 32.6426 143.959 32.5098 143.756 32.4004C143.569 32.2754 143.326 32.2051 143.029 32.1895H136.678H134.803C134.397 32.2051 134.194 32.4083 134.194 32.7989V41.6817ZM157.824 28.4161C158.637 28.4161 159.434 28.5098 160.215 28.6973C161.012 28.8848 161.769 29.1661 162.488 29.5411C163.207 29.9004 163.84 30.3848 164.387 30.9942C164.949 31.6036 165.254 32.3301 165.301 33.1739V34.1583V41.6348C165.207 42.5723 164.691 43.0801 163.754 43.1583C163.316 43.1583 162.934 43.0176 162.605 42.7364C162.293 42.4395 162.137 42.0723 162.137 41.6348V33.9004C162.105 33.4161 161.918 33.0176 161.574 32.7051C161.246 32.377 160.871 32.1192 160.449 31.9317C160.043 31.7442 159.613 31.6036 159.16 31.5098C158.723 31.4161 158.277 31.3692 157.824 31.3692C157.371 31.3692 156.918 31.4161 156.465 31.5098C156.027 31.6036 155.598 31.7442 155.176 31.9317C154.769 32.1192 154.394 32.377 154.051 32.7051C153.723 33.0176 153.543 33.4161 153.512 33.9004V41.6348C153.434 42.5723 152.926 43.0801 151.988 43.1583C151.551 43.1583 151.168 43.0176 150.84 42.7364C150.527 42.4395 150.371 42.0723 150.371 41.6348V34.1583V33.1739C150.418 32.3301 150.715 31.6036 151.262 30.9942C151.809 30.3848 152.441 29.9004 153.16 29.5411C153.879 29.1661 154.629 28.8848 155.41 28.6973C156.207 28.5098 157.012 28.4161 157.824 28.4161ZM181.08 29.0489C181.877 29.0645 182.588 29.3145 183.213 29.7989C183.838 30.2833 184.338 30.8614 184.713 31.5333C185.103 32.2051 185.392 32.9161 185.58 33.6661C185.767 34.4161 185.861 35.1817 185.861 35.9629C185.861 36.9942 185.697 38.0098 185.369 39.0098C185.056 39.9942 184.533 40.8692 183.799 41.6348C183.08 42.4004 182.174 42.8145 181.08 42.877H172.9C171.806 42.8301 170.892 42.4239 170.158 41.6583C169.424 40.8926 168.9 40.0098 168.588 39.0098C168.291 38.0098 168.142 36.9942 168.142 35.9629C168.142 34.9317 168.299 33.9239 168.611 32.9395C168.924 31.9395 169.439 31.0567 170.158 30.2911C170.892 29.5098 171.806 29.0958 172.9 29.0489H173.345H180.634H181.08ZM180.283 39.7364C180.877 39.7051 181.369 39.4864 181.759 39.0801C182.166 38.6583 182.455 38.1739 182.627 37.627C182.799 37.0801 182.884 36.5254 182.884 35.9629C182.884 35.4004 182.791 34.8536 182.603 34.3223C182.431 33.7754 182.15 33.2911 181.759 32.8692C181.369 32.4473 180.877 32.2208 180.283 32.1895H173.627C173.033 32.2208 172.541 32.4473 172.15 32.8692C171.759 33.2911 171.47 33.7754 171.283 34.3223C171.111 34.8536 171.025 35.4004 171.025 35.9629C171.025 36.5254 171.111 37.0801 171.283 37.627C171.455 38.1739 171.736 38.6583 172.127 39.0801C172.533 39.4864 173.033 39.7051 173.627 39.7364H180.283ZM188.21 30.6192C188.21 30.1817 188.359 29.8145 188.656 29.5176C188.968 29.2051 189.343 29.0489 189.781 29.0489H203.421C203.859 29.0489 204.234 29.1973 204.546 29.4942C204.843 29.8067 204.992 30.1817 204.992 30.6192C204.992 31.0567 204.835 31.4317 204.523 31.7442C204.226 32.0411 203.859 32.1895 203.421 32.1895H198.195V41.6817C198.101 42.6192 197.585 43.127 196.648 43.2051C196.21 43.2051 195.828 43.0645 195.499 42.7833C195.187 42.4864 195.031 42.1192 195.031 41.6817V32.1895H189.781C189.343 32.1895 188.976 32.0333 188.679 31.7208C188.367 31.4239 188.21 31.0567 188.21 30.6192ZM212.052 29.0489H213.13H221.099C221.536 29.0645 221.896 29.2286 222.177 29.5411C222.474 29.8536 222.622 30.2286 222.622 30.6661C222.544 31.6036 222.036 32.1114 221.099 32.1895H212.849C212.255 32.2208 211.763 32.4473 211.372 32.8692C210.982 33.2911 210.693 33.7754 210.505 34.3223C210.333 34.8536 210.247 35.4004 210.247 35.9629C210.247 36.5254 210.333 37.0801 210.505 37.627C210.693 38.1583 210.982 38.6348 211.372 39.0567C211.763 39.4786 212.255 39.7051 212.849 39.7364H221.099C221.536 39.752 221.896 39.9161 222.177 40.2286C222.474 40.5411 222.622 40.9161 222.622 41.3536C222.607 41.7754 222.45 42.1348 222.154 42.4317C221.872 42.7129 221.521 42.8614 221.099 42.877H212.497H212.052C210.958 42.8145 210.052 42.4004 209.333 41.6348C208.63 40.8536 208.122 39.9708 207.81 38.9864C207.513 38.002 207.364 36.9942 207.364 35.9629C207.364 34.9317 207.521 33.9239 207.833 32.9395C208.146 31.9551 208.654 31.0801 209.357 30.3145C210.06 29.5333 210.958 29.1114 212.052 29.0489ZM222.575 35.8692C222.575 36.3067 222.419 36.6739 222.107 36.9708C221.81 37.2833 221.443 37.4395 221.005 37.4395H213.927C213.489 37.4395 213.114 37.2911 212.802 36.9942C212.505 36.6817 212.357 36.3067 212.357 35.8692C212.357 35.4317 212.505 35.0567 212.802 34.7442C213.114 34.4473 213.489 34.2989 213.927 34.2989H221.005C221.443 34.2989 221.81 34.4551 222.107 34.7676C222.419 35.0645 222.575 35.4317 222.575 35.8692ZM240.37 30.6192C240.37 31.0567 240.214 31.4239 239.901 31.7208C239.604 32.0333 239.237 32.1895 238.8 32.1895H229.425C229.128 32.2051 228.878 32.2754 228.675 32.4004C228.487 32.5098 228.347 32.6426 228.253 32.7989C228.159 32.9395 228.112 33.0879 228.112 33.2442C228.112 33.4004 228.159 33.5567 228.253 33.7129C228.347 33.8536 228.487 33.9864 228.675 34.1114C228.878 34.2208 229.128 34.2833 229.425 34.2989H236.081C237.175 34.3301 238.073 34.5879 238.776 35.0723C239.495 35.5411 240.003 36.0879 240.3 36.7129C240.612 37.3223 240.769 37.9473 240.769 38.5879C240.769 39.2129 240.612 39.8379 240.3 40.4629C239.987 41.0723 239.479 41.6192 238.776 42.1036C238.073 42.5723 237.175 42.8067 236.081 42.8067H235.94C235.847 42.8223 235.753 42.8301 235.659 42.8301H226.8C226.362 42.8301 225.987 42.6817 225.675 42.3848C225.378 42.0723 225.229 41.6973 225.229 41.2598C225.229 40.8223 225.386 40.4551 225.698 40.1583C225.995 39.8458 226.362 39.6895 226.8 39.6895H236.222C236.519 39.7051 236.761 39.6504 236.948 39.5254C237.151 39.4004 237.3 39.2598 237.394 39.1036C237.487 38.9317 237.534 38.7598 237.534 38.5879C237.534 38.4786 237.487 38.3301 237.394 38.1426C237.3 37.9395 237.151 37.7754 236.948 37.6504C236.761 37.5254 236.519 37.4551 236.222 37.4395H229.565C228.472 37.4083 227.565 37.1583 226.847 36.6895C226.144 36.2208 225.636 35.6895 225.323 35.0958C225.026 34.4864 224.878 33.8692 224.878 33.2442C224.878 32.6348 225.034 32.0333 225.347 31.4395C225.659 30.8301 226.167 30.2911 226.87 29.8223C227.573 29.3536 228.472 29.1036 229.565 29.0723H229.706C229.8 29.0567 229.894 29.0489 229.987 29.0489H238.8C239.237 29.0489 239.604 29.2051 239.901 29.5176C240.214 29.8145 240.37 30.1817 240.37 30.6192Z" fill="#07596E"/>
</g>
<path d="M64.4445 32.1895C63.8507 32.2208 63.3507 32.4473 62.9445 32.8692C62.5538 33.2911 62.2726 33.7754 62.1007 34.3223C61.9288 34.8536 61.8429 35.4004 61.8429 35.9629C61.8429 36.5254 61.921 37.0801 62.0773 37.627C62.2492 38.1739 62.5382 38.6583 62.9445 39.0801C63.3507 39.4864 63.8507 39.7051 64.4445 39.7364H72.1788C73.1632 39.8301 73.7023 40.3692 73.796 41.3536C73.7804 41.7911 73.6163 42.1583 73.3038 42.4551C72.9913 42.7364 72.6163 42.877 72.1788 42.877H64.7023H63.6242C62.5304 42.8145 61.632 42.4004 60.9288 41.6348C60.2257 40.8536 59.7179 39.9708 59.4054 38.9864C59.1085 38.002 58.9601 36.9942 58.9601 35.9629C58.9601 35.1973 59.046 34.4395 59.2179 33.6895C59.3898 32.9395 59.6554 32.2286 60.0148 31.5567C60.3898 30.8692 60.882 30.2833 61.4913 29.7989C62.1163 29.3145 62.8273 29.0645 63.6242 29.0489H64.0695H72.1788C73.1632 29.1426 73.7023 29.6817 73.796 30.6661C73.796 31.1036 73.632 31.4708 73.3038 31.7676C72.9913 32.0489 72.6163 32.1895 72.1788 32.1895H64.4445ZM77.7626 28.6739C78.2001 28.6739 78.5751 28.8223 78.8876 29.1192C79.2001 29.4004 79.3642 29.7598 79.3798 30.1973V30.6426C79.3642 31.2833 79.4032 31.877 79.497 32.4239C79.6063 32.9551 79.8563 33.4317 80.247 33.8536C80.6376 34.2754 81.1298 34.502 81.7235 34.5333H88.3095V30.2442C88.3095 29.8067 88.4657 29.4473 88.7782 29.1661C89.1063 28.8692 89.4892 28.7208 89.9267 28.7208C90.8642 28.7989 91.3798 29.3067 91.4735 30.2442V35.6817C91.4735 36.9317 91.3017 38.1114 90.9579 39.2208C90.6454 40.2051 90.1298 41.0411 89.411 41.7286C88.7079 42.4004 87.8095 42.7676 86.7157 42.8301H78.2782C77.8563 42.8145 77.497 42.6661 77.2001 42.3848C76.9188 42.0879 76.7704 41.7286 76.7548 41.3067C76.7548 40.8692 76.8954 40.4942 77.1767 40.1817C77.4735 39.8692 77.8407 39.7051 78.2782 39.6895H85.9188C86.5126 39.6583 87.0048 39.4317 87.3954 39.0098C87.7548 38.6192 87.997 38.1739 88.122 37.6739H80.9267C79.8329 37.6114 78.9267 37.2442 78.2079 36.5723C77.5048 35.8848 76.997 35.0489 76.6845 34.0645C76.3876 33.0801 76.2313 32.0333 76.2157 30.9239V30.1973C76.2313 29.7754 76.3876 29.4239 76.6845 29.1426C76.9813 28.8458 77.3407 28.6895 77.7626 28.6739ZM110.417 36.6895C110.714 37.3145 110.862 37.9473 110.862 38.5879C110.862 39.2129 110.706 39.8379 110.393 40.4629C110.081 41.0723 109.573 41.6192 108.87 42.1036C108.167 42.5723 107.268 42.8067 106.174 42.8067H106.034C105.94 42.8223 105.846 42.8301 105.753 42.8301H96.3307C95.9088 42.8145 95.5495 42.6661 95.2526 42.3848C94.9713 42.0879 94.8229 41.7286 94.8073 41.3067V30.5723C94.8229 30.1504 94.9713 29.7989 95.2526 29.5176C95.5495 29.2208 95.9088 29.0645 96.3307 29.0489H104.393C104.487 29.0489 104.581 29.0567 104.674 29.0723H104.815C105.909 29.1036 106.807 29.3536 107.51 29.8223C108.214 30.2911 108.721 30.8301 109.034 31.4395C109.346 32.0333 109.503 32.6348 109.503 33.2442C109.503 33.8692 109.354 34.4786 109.057 35.0723C109.042 35.1036 109.026 35.127 109.01 35.1426C109.651 35.5958 110.12 36.1114 110.417 36.6895ZM106.315 39.6895C106.612 39.7051 106.854 39.6504 107.042 39.5254C107.245 39.4004 107.393 39.2598 107.487 39.1036C107.581 38.9317 107.628 38.7598 107.628 38.5879C107.628 38.4786 107.581 38.3301 107.487 38.1426C107.393 37.9395 107.245 37.7754 107.042 37.6504C106.854 37.5254 106.612 37.4551 106.315 37.4395H104.815H97.9713V39.0567C97.9713 39.4786 98.1901 39.6895 98.6276 39.6895H98.8151H106.315ZM105.706 34.0879C105.893 33.9786 106.034 33.8536 106.128 33.7129C106.221 33.5567 106.268 33.4004 106.268 33.2442C106.268 33.0879 106.221 32.9395 106.128 32.7989C106.034 32.6426 105.885 32.5098 105.682 32.4004C105.495 32.2754 105.253 32.2051 104.956 32.1895H98.6276C98.1901 32.1895 97.9713 32.4004 97.9713 32.8223V34.2989H104.956C105.253 34.2833 105.503 34.2129 105.706 34.0879ZM117.875 29.0489H118.954H126.922C127.36 29.0645 127.719 29.2286 128 29.5411C128.297 29.8536 128.446 30.2286 128.446 30.6661C128.368 31.6036 127.86 32.1114 126.922 32.1895H118.672C118.079 32.2208 117.586 32.4473 117.196 32.8692C116.805 33.2911 116.516 33.7754 116.329 34.3223C116.157 34.8536 116.071 35.4004 116.071 35.9629C116.071 36.5254 116.157 37.0801 116.329 37.627C116.516 38.1583 116.805 38.6348 117.196 39.0567C117.586 39.4786 118.079 39.7051 118.672 39.7364H126.922C127.36 39.752 127.719 39.9161 128 40.2286C128.297 40.5411 128.446 40.9161 128.446 41.3536C128.43 41.7754 128.274 42.1348 127.977 42.4317C127.696 42.7129 127.344 42.8614 126.922 42.877H118.321H117.875C116.782 42.8145 115.875 42.4004 115.157 41.6348C114.454 40.8536 113.946 39.9708 113.633 38.9864C113.336 38.002 113.188 36.9942 113.188 35.9629C113.188 34.9317 113.344 33.9239 113.657 32.9395C113.969 31.9551 114.477 31.0801 115.18 30.3145C115.883 29.5333 116.782 29.1114 117.875 29.0489ZM128.399 35.8692C128.399 36.3067 128.243 36.6739 127.93 36.9708C127.633 37.2833 127.266 37.4395 126.829 37.4395H119.75C119.313 37.4395 118.938 37.2911 118.625 36.9942C118.329 36.6817 118.18 36.3067 118.18 35.8692C118.18 35.4317 118.329 35.0567 118.625 34.7442C118.938 34.4473 119.313 34.2989 119.75 34.2989H126.829C127.266 34.2989 127.633 34.4551 127.93 34.7676C128.243 35.0645 128.399 35.4317 128.399 35.8692ZM134.194 41.6817C134.1 42.6192 133.584 43.127 132.647 43.2051C132.209 43.2051 131.826 43.0645 131.498 42.7833C131.186 42.4864 131.029 42.1192 131.029 41.6817V30.5723C131.045 30.1348 131.209 29.7754 131.522 29.4942C131.834 29.1973 132.209 29.0489 132.647 29.0489H133.795H136.678H142.467C142.561 29.0489 142.654 29.0567 142.748 29.0723H142.889C143.983 29.1036 144.881 29.3536 145.584 29.8223C146.287 30.2911 146.795 30.8301 147.108 31.4395C147.42 32.0333 147.576 32.6348 147.576 33.2442C147.576 33.8692 147.42 34.4864 147.108 35.0958C146.811 35.6895 146.303 36.2208 145.584 36.6895C144.881 37.1583 143.983 37.4083 142.889 37.4395H138.764C138.889 38.2208 139.147 38.7989 139.537 39.1739C139.912 39.5489 140.389 39.7364 140.967 39.7364H146.029C146.467 39.752 146.826 39.9161 147.108 40.2286C147.404 40.5411 147.553 40.9161 147.553 41.3536C147.537 41.7754 147.381 42.1348 147.084 42.4317C146.803 42.7129 146.451 42.8614 146.029 42.877H140.545C139.389 42.8926 138.342 42.4395 137.404 41.5176C136.467 40.5958 135.897 39.502 135.694 38.2364C135.412 36.8301 135.272 36.0411 135.272 35.8692C135.272 35.4317 135.42 35.0645 135.717 34.7676C136.029 34.4551 136.404 34.2989 136.842 34.2989H143.029C143.326 34.2833 143.569 34.2208 143.756 34.1114C143.959 33.9864 144.108 33.8536 144.201 33.7129C144.295 33.5567 144.342 33.4004 144.342 33.2442C144.342 33.0879 144.295 32.9395 144.201 32.7989C144.108 32.6426 143.959 32.5098 143.756 32.4004C143.569 32.2754 143.326 32.2051 143.029 32.1895H136.678H134.803C134.397 32.2051 134.194 32.4083 134.194 32.7989V41.6817ZM157.824 28.4161C158.637 28.4161 159.434 28.5098 160.215 28.6973C161.012 28.8848 161.769 29.1661 162.488 29.5411C163.207 29.9004 163.84 30.3848 164.387 30.9942C164.949 31.6036 165.254 32.3301 165.301 33.1739V34.1583V41.6348C165.207 42.5723 164.691 43.0801 163.754 43.1583C163.316 43.1583 162.934 43.0176 162.605 42.7364C162.293 42.4395 162.137 42.0723 162.137 41.6348V33.9004C162.105 33.4161 161.918 33.0176 161.574 32.7051C161.246 32.377 160.871 32.1192 160.449 31.9317C160.043 31.7442 159.613 31.6036 159.16 31.5098C158.723 31.4161 158.277 31.3692 157.824 31.3692C157.371 31.3692 156.918 31.4161 156.465 31.5098C156.027 31.6036 155.598 31.7442 155.176 31.9317C154.769 32.1192 154.394 32.377 154.051 32.7051C153.723 33.0176 153.543 33.4161 153.512 33.9004V41.6348C153.434 42.5723 152.926 43.0801 151.988 43.1583C151.551 43.1583 151.168 43.0176 150.84 42.7364C150.527 42.4395 150.371 42.0723 150.371 41.6348V34.1583V33.1739C150.418 32.3301 150.715 31.6036 151.262 30.9942C151.809 30.3848 152.441 29.9004 153.16 29.5411C153.879 29.1661 154.629 28.8848 155.41 28.6973C156.207 28.5098 157.012 28.4161 157.824 28.4161ZM181.08 29.0489C181.877 29.0645 182.588 29.3145 183.213 29.7989C183.838 30.2833 184.338 30.8614 184.713 31.5333C185.103 32.2051 185.392 32.9161 185.58 33.6661C185.767 34.4161 185.861 35.1817 185.861 35.9629C185.861 36.9942 185.697 38.0098 185.369 39.0098C185.056 39.9942 184.533 40.8692 183.799 41.6348C183.08 42.4004 182.174 42.8145 181.08 42.877H172.9C171.806 42.8301 170.892 42.4239 170.158 41.6583C169.424 40.8926 168.9 40.0098 168.588 39.0098C168.291 38.0098 168.142 36.9942 168.142 35.9629C168.142 34.9317 168.299 33.9239 168.611 32.9395C168.924 31.9395 169.439 31.0567 170.158 30.2911C170.892 29.5098 171.806 29.0958 172.9 29.0489H173.345H180.634H181.08ZM180.283 39.7364C180.877 39.7051 181.369 39.4864 181.759 39.0801C182.166 38.6583 182.455 38.1739 182.627 37.627C182.799 37.0801 182.884 36.5254 182.884 35.9629C182.884 35.4004 182.791 34.8536 182.603 34.3223C182.431 33.7754 182.15 33.2911 181.759 32.8692C181.369 32.4473 180.877 32.2208 180.283 32.1895H173.627C173.033 32.2208 172.541 32.4473 172.15 32.8692C171.759 33.2911 171.47 33.7754 171.283 34.3223C171.111 34.8536 171.025 35.4004 171.025 35.9629C171.025 36.5254 171.111 37.0801 171.283 37.627C171.455 38.1739 171.736 38.6583 172.127 39.0801C172.533 39.4864 173.033 39.7051 173.627 39.7364H180.283ZM188.21 30.6192C188.21 30.1817 188.359 29.8145 188.656 29.5176C188.968 29.2051 189.343 29.0489 189.781 29.0489H203.421C203.859 29.0489 204.234 29.1973 204.546 29.4942C204.843 29.8067 204.992 30.1817 204.992 30.6192C204.992 31.0567 204.835 31.4317 204.523 31.7442C204.226 32.0411 203.859 32.1895 203.421 32.1895H198.195V41.6817C198.101 42.6192 197.585 43.127 196.648 43.2051C196.21 43.2051 195.828 43.0645 195.499 42.7833C195.187 42.4864 195.031 42.1192 195.031 41.6817V32.1895H189.781C189.343 32.1895 188.976 32.0333 188.679 31.7208C188.367 31.4239 188.21 31.0567 188.21 30.6192ZM212.052 29.0489H213.13H221.099C221.536 29.0645 221.896 29.2286 222.177 29.5411C222.474 29.8536 222.622 30.2286 222.622 30.6661C222.544 31.6036 222.036 32.1114 221.099 32.1895H212.849C212.255 32.2208 211.763 32.4473 211.372 32.8692C210.982 33.2911 210.693 33.7754 210.505 34.3223C210.333 34.8536 210.247 35.4004 210.247 35.9629C210.247 36.5254 210.333 37.0801 210.505 37.627C210.693 38.1583 210.982 38.6348 211.372 39.0567C211.763 39.4786 212.255 39.7051 212.849 39.7364H221.099C221.536 39.752 221.896 39.9161 222.177 40.2286C222.474 40.5411 222.622 40.9161 222.622 41.3536C222.607 41.7754 222.45 42.1348 222.154 42.4317C221.872 42.7129 221.521 42.8614 221.099 42.877H212.497H212.052C210.958 42.8145 210.052 42.4004 209.333 41.6348C208.63 40.8536 208.122 39.9708 207.81 38.9864C207.513 38.002 207.364 36.9942 207.364 35.9629C207.364 34.9317 207.521 33.9239 207.833 32.9395C208.146 31.9551 208.654 31.0801 209.357 30.3145C210.06 29.5333 210.958 29.1114 212.052 29.0489ZM222.575 35.8692C222.575 36.3067 222.419 36.6739 222.107 36.9708C221.81 37.2833 221.443 37.4395 221.005 37.4395H213.927C213.489 37.4395 213.114 37.2911 212.802 36.9942C212.505 36.6817 212.357 36.3067 212.357 35.8692C212.357 35.4317 212.505 35.0567 212.802 34.7442C213.114 34.4473 213.489 34.2989 213.927 34.2989H221.005C221.443 34.2989 221.81 34.4551 222.107 34.7676C222.419 35.0645 222.575 35.4317 222.575 35.8692ZM240.37 30.6192C240.37 31.0567 240.214 31.4239 239.901 31.7208C239.604 32.0333 239.237 32.1895 238.8 32.1895H229.425C229.128 32.2051 228.878 32.2754 228.675 32.4004C228.487 32.5098 228.347 32.6426 228.253 32.7989C228.159 32.9395 228.112 33.0879 228.112 33.2442C228.112 33.4004 228.159 33.5567 228.253 33.7129C228.347 33.8536 228.487 33.9864 228.675 34.1114C228.878 34.2208 229.128 34.2833 229.425 34.2989H236.081C237.175 34.3301 238.073 34.5879 238.776 35.0723C239.495 35.5411 240.003 36.0879 240.3 36.7129C240.612 37.3223 240.769 37.9473 240.769 38.5879C240.769 39.2129 240.612 39.8379 240.3 40.4629C239.987 41.0723 239.479 41.6192 238.776 42.1036C238.073 42.5723 237.175 42.8067 236.081 42.8067H235.94C235.847 42.8223 235.753 42.8301 235.659 42.8301H226.8C226.362 42.8301 225.987 42.6817 225.675 42.3848C225.378 42.0723 225.229 41.6973 225.229 41.2598C225.229 40.8223 225.386 40.4551 225.698 40.1583C225.995 39.8458 226.362 39.6895 226.8 39.6895H236.222C236.519 39.7051 236.761 39.6504 236.948 39.5254C237.151 39.4004 237.3 39.2598 237.394 39.1036C237.487 38.9317 237.534 38.7598 237.534 38.5879C237.534 38.4786 237.487 38.3301 237.394 38.1426C237.3 37.9395 237.151 37.7754 236.948 37.6504C236.761 37.5254 236.519 37.4551 236.222 37.4395H229.565C228.472 37.4083 227.565 37.1583 226.847 36.6895C226.144 36.2208 225.636 35.6895 225.323 35.0958C225.026 34.4864 224.878 33.8692 224.878 33.2442C224.878 32.6348 225.034 32.0333 225.347 31.4395C225.659 30.8301 226.167 30.2911 226.87 29.8223C227.573 29.3536 228.472 29.1036 229.565 29.0723H229.706C229.8 29.0567 229.894 29.0489 229.987 29.0489H238.8C239.237 29.0489 239.604 29.2051 239.901 29.5176C240.214 29.8145 240.37 30.1817 240.37 30.6192Z" fill="#07596E"/>
<g opacity="0.67" filter="url(#filter1_f_62_258)">
<path d="M35.6533 20C35.3981 20.6159 35.143 21.2318 34.8879 21.8478C36.3085 22.4181 37.7291 22.9885 39.1497 23.5589C41.2805 24.4145 43.4114 25.2701 45.5423 26.1257L45.0688 25.6521C46.5717 29.1717 48.0747 32.6913 49.5777 36.2109V35.6369C48.1517 39.1883 46.7257 42.7398 45.2997 46.2913L45.638 45.9531C42.1184 47.456 38.5988 48.959 35.0792 50.4619H35.4619C31.9104 49.036 28.359 47.61 24.8075 46.184L25.0104 46.387C23.5075 42.8674 22.0045 39.3478 20.5015 35.8282V36.0196C21.9275 32.4681 23.3535 28.9166 24.7795 25.3651L24.7118 25.4328C26.8236 24.531 28.9353 23.6292 31.0471 22.7274C32.4549 22.1263 33.8627 21.5251 35.2706 20.9239C33.85 21.4943 32.4294 22.0647 31.0088 22.635C28.8779 23.4906 26.747 24.3462 24.6161 25.2018L24.5673 25.2227L24.5485 25.2694C23.0455 28.789 21.5426 32.3086 20.0396 35.8282L20 35.9268L20.0396 36.0196C21.4656 39.571 22.8915 43.1225 24.3175 46.674L24.3801 46.8206L24.5205 46.8769C28.04 48.3799 31.5596 49.8829 35.0792 51.3858L35.2765 51.465L35.4619 51.3858C39.0134 49.9599 42.5649 48.5339 46.1163 47.1079L46.3607 47.0036L46.4546 46.7697C47.9576 43.2501 49.4605 39.7305 50.9635 36.2109L51.0823 35.915L50.9635 35.6369C49.5375 32.0854 48.1115 28.5339 46.6856 24.9824L46.5395 24.6404L46.212 24.5089C44.1003 23.6071 41.9885 22.7053 39.8768 21.8036C38.4689 21.2024 37.0611 20.6012 35.6533 20ZM34.8879 21.8478L35.6533 20L36.5711 20.3685L35.2706 20.9239L34.8879 21.8478Z" fill="#07596E"/>
</g>
<path opacity="0.67" d="M35.6533 20C35.3981 20.6159 35.143 21.2318 34.8879 21.8478C36.3085 22.4181 37.7291 22.9885 39.1497 23.5589C41.2805 24.4145 43.4114 25.2701 45.5423 26.1257L45.0688 25.6521C46.5717 29.1717 48.0747 32.6913 49.5777 36.2109V35.6369C48.1517 39.1883 46.7257 42.7398 45.2997 46.2913L45.638 45.9531C42.1184 47.456 38.5988 48.959 35.0792 50.4619H35.4619C31.9104 49.036 28.359 47.61 24.8075 46.184L25.0104 46.387C23.5075 42.8674 22.0045 39.3478 20.5015 35.8282V36.0196C21.9275 32.4681 23.3535 28.9166 24.7795 25.3651L24.7118 25.4328C26.8236 24.531 28.9353 23.6292 31.0471 22.7274C32.4549 22.1263 33.8627 21.5251 35.2706 20.9239C33.85 21.4943 32.4294 22.0647 31.0088 22.635C28.8779 23.4906 26.747 24.3462 24.6161 25.2018L24.5673 25.2227L24.5485 25.2694C23.0455 28.789 21.5426 32.3086 20.0396 35.8282L20 35.9268L20.0396 36.0196C21.4656 39.571 22.8915 43.1225 24.3175 46.674L24.3801 46.8206L24.5205 46.8769C28.04 48.3799 31.5596 49.8829 35.0792 51.3858L35.2765 51.465L35.4619 51.3858C39.0134 49.9599 42.5649 48.5339 46.1163 47.1079L46.3607 47.0036L46.4546 46.7697C47.9576 43.2501 49.4605 39.7305 50.9635 36.2109L51.0823 35.915L50.9635 35.6369C49.5375 32.0854 48.1115 28.5339 46.6856 24.9824L46.5395 24.6404L46.212 24.5089C44.1003 23.6071 41.9885 22.7053 39.8768 21.8036C38.4689 21.2024 37.0611 20.6012 35.6533 20ZM34.8879 21.8478L35.6533 20L36.5711 20.3685L35.2706 20.9239L34.8879 21.8478Z" fill="#07596E"/>
<g filter="url(#filter2_f_62_258)">
<path d="M35.8707 28.0161C36.6832 28.0161 37.48 28.1098 38.2613 28.2973C39.0582 28.4848 39.816 28.7661 40.5347 29.1411C41.2535 29.5004 41.8863 29.9848 42.4332 30.5942C42.9957 31.2036 43.3003 31.9301 43.3472 32.7739V33.7583V41.2348C43.2535 42.1723 42.7378 42.6801 41.8003 42.7583C41.3628 42.7583 40.98 42.6176 40.6519 42.3364C40.3394 42.0395 40.1832 41.6723 40.1832 41.2348V33.5004C40.1519 33.0161 39.9644 32.6176 39.6207 32.3051C39.2925 31.977 38.9175 31.7192 38.4957 31.5317C38.0894 31.3442 37.6597 31.2036 37.2066 31.1098C36.7691 31.0161 36.3238 30.9692 35.8707 30.9692C35.4175 30.9692 34.9644 31.0161 34.5113 31.1098C34.0738 31.2036 33.6441 31.3442 33.2222 31.5317C32.816 31.7192 32.441 31.977 32.0972 32.3051C31.7691 32.6176 31.5894 33.0161 31.5582 33.5004V41.2348C31.48 42.1723 30.9722 42.6801 30.0347 42.7583C29.5972 42.7583 29.2144 42.6176 28.8863 42.3364C28.5738 42.0395 28.4175 41.6723 28.4175 41.2348V33.7583V32.7739C28.4644 31.9301 28.7613 31.2036 29.3082 30.5942C29.855 29.9848 30.4878 29.5004 31.2066 29.1411C31.9253 28.7661 32.6753 28.4848 33.4566 28.2973C34.2535 28.1098 35.0582 28.0161 35.8707 28.0161Z" fill="#07596E"/>
</g>
<path d="M35.8706 28.4161C36.6831 28.4161 37.4799 28.5098 38.2612 28.6973C39.0581 28.8848 39.8159 29.1661 40.5346 29.5411C41.2534 29.9004 41.8862 30.3848 42.4331 30.9942C42.9956 31.6036 43.3003 32.3301 43.3471 33.1739V34.1583V41.6348C43.2534 42.5723 42.7378 43.0801 41.8003 43.1583C41.3628 43.1583 40.9799 43.0176 40.6518 42.7364C40.3393 42.4395 40.1831 42.0723 40.1831 41.6348V33.9004C40.1518 33.4161 39.9643 33.0176 39.6206 32.7051C39.2924 32.377 38.9174 32.1192 38.4956 31.9317C38.0893 31.7442 37.6596 31.6036 37.2065 31.5098C36.769 31.4161 36.3237 31.3692 35.8706 31.3692C35.4174 31.3692 34.9643 31.4161 34.5112 31.5098C34.0737 31.6036 33.644 31.7442 33.2221 31.9317C32.8159 32.1192 32.4409 32.377 32.0971 32.7051C31.769 33.0176 31.5893 33.4161 31.5581 33.9004V41.6348C31.4799 42.5723 30.9721 43.0801 30.0346 43.1583C29.5971 43.1583 29.2143 43.0176 28.8862 42.7364C28.5737 42.4395 28.4174 42.0723 28.4174 41.6348V34.1583V33.1739C28.4643 32.3301 28.7612 31.6036 29.3081 30.9942C29.8549 30.3848 30.4878 29.9004 31.2065 29.5411C31.9253 29.1661 32.6753 28.8848 33.4565 28.6973C34.2534 28.5098 35.0581 28.4161 35.8706 28.4161Z" fill="#07596E"/>
<defs>
<filter id="filter0_f_62_258" x="38.9601" y="8.41607" width="221.808" height="54.7891" filterUnits="userSpaceOnUse" color-interpolation-filters="sRGB">
<feFlood flood-opacity="0" result="BackgroundImageFix"/>
<feBlend mode="normal" in="SourceGraphic" in2="BackgroundImageFix" result="shape"/>
<feGaussianBlur stdDeviation="10" result="effect1_foregroundBlur_62_258"/>
</filter>
<filter id="filter1_f_62_258" x="0" y="0" width="71.0823" height="71.465" filterUnits="userSpaceOnUse" color-interpolation-filters="sRGB">
<feFlood flood-opacity="0" result="BackgroundImageFix"/>
<feBlend mode="normal" in="SourceGraphic" in2="BackgroundImageFix" result="shape"/>
<feGaussianBlur stdDeviation="10" result="effect1_foregroundBlur_62_258"/>
</filter>
<filter id="filter2_f_62_258" x="8.41753" y="8.01607" width="54.9297" height="54.7422" filterUnits="userSpaceOnUse" color-interpolation-filters="sRGB">
<feFlood flood-opacity="0" result="BackgroundImageFix"/>
<feBlend mode="normal" in="SourceGraphic" in2="BackgroundImageFix" result="shape"/>
<feGaussianBlur stdDeviation="10" result="effect1_foregroundBlur_62_258"/>
</filter>
</defs>
</svg>
