<svg width="184" height="67" viewBox="0 0 184 67" fill="none" xmlns="http://www.w3.org/2000/svg">
<path opacity="0.7" d="M4.83568 0.0142622C7.54805 -0.0222117 11.1035 0.0167876 13.8056 0.0703167C14.6525 0.0869186 14.2237 0.16113 14.8082 0.175932C15.9516 0.204786 17.0167 0.16839 18.1466 0.202762C18.521 0.214517 18.0549 0.332068 18.4475 0.341702C20.5991 0.393653 22.6345 0.363712 24.814 0.388699C35.5497 0.511984 46.1026 0.556111 56.9696 0.60967C60.5527 0.62723 64.9085 0.733912 68.6094 0.687258C69.0415 0.681706 68.7839 0.578526 68.8661 0.570022C70.1554 0.439834 69.7267 0.648133 70.5685 0.675808C73.9096 0.78508 77.6248 0.794583 80.8402 0.754763C82.2081 0.73752 80.8366 0.532578 82.2139 0.64761C82.3096 0.655382 81.9625 0.764952 82.3376 0.776638C83.1884 0.802922 84.8025 0.783337 85.4618 0.792018C86.7325 0.809304 86.9427 0.808202 88.1447 0.80945C89.7877 0.812111 91.7419 0.866577 93.5048 0.84175C93.8811 0.836125 93.383 0.723803 93.9831 0.70469C94.5837 0.685607 96.1727 0.695131 96.7084 0.721609C97.2442 0.7481 97.0161 0.836382 97.1109 0.856618C97.891 1.02741 99.7291 0.790862 99.9655 0.785012C104.277 0.685333 107.975 0.820088 112.023 0.819704C115.095 0.819126 118.381 0.774639 121.305 0.780739C124.788 0.788442 127.74 0.849308 131.124 0.838845C131.481 0.83787 131.063 0.705806 131.499 0.704348C136.133 0.68898 140.735 0.703376 145.349 0.792531C145.812 0.801589 145.215 0.91754 145.677 0.933522C148.508 1.02881 152.987 1.25772 154.668 0.752883C156.585 0.772596 158.913 0.792964 160.628 0.894728C161.734 0.960225 160.66 1.08654 162.018 1.03264C162.325 1.02063 161.926 0.910011 162.386 0.900368C164.32 0.85987 166.434 0.89583 168.348 0.838674C168.737 0.826788 168.631 0.727666 168.741 0.709817C169.668 0.565262 171.211 0.80422 171.548 0.821584C174.109 0.951066 175.98 0.900112 178.367 0.903273C178.92 0.904062 178.266 0.770919 178.799 0.766896C179.789 0.760059 180.792 0.757141 181.796 0.758929C182.672 0.739223 183.455 1.53031 183.43 2.40003C183.422 3.67128 183.405 4.93418 183.378 6.16467C183.364 6.76663 183.251 6.21306 183.239 6.50072C183.186 7.76907 183.4 8.05025 183.354 9.26667C183.345 9.52313 183.247 9.37864 183.237 9.42546C183.069 10.1576 183.307 10.7937 183.312 10.982C183.383 13.364 183.136 14.8866 183.171 17.1878C183.175 17.4631 183.298 16.8423 183.303 17.6162C183.337 22.7717 183.303 28.2243 183.205 33.3275C183.19 34.1209 183.098 33.5545 183.086 33.6044C182.909 34.4182 183.147 34.9447 183.156 35.2034C183.22 37.2444 183.02 39.151 183.304 40.5378C183.255 44.8545 183.27 49.1614 183.266 53.4594C183.268 53.8756 183.081 54.2876 182.768 54.5609C179.745 57.2178 176.714 59.8532 173.628 62.4162C173.544 62.4861 173.613 62.2689 173.446 62.4087C171.439 64.0911 171.937 63.8953 170.785 65.2084C170.633 65.3814 170.239 65.6489 169.884 65.8738C169.497 66.1487 169.077 66.1276 168.937 66.1035C168.917 66.0997 168.902 66.097 168.894 66.0956C168.466 66.0229 168.91 65.8484 168.766 65.8343C167.58 65.7237 167.774 66.3009 166.174 66.301C166.124 66.3001 166.334 66.1939 166.2 66.1833C165.783 66.1501 165.369 66.1924 164.961 66.1558C164.027 66.0712 163.694 65.7907 162.267 65.954C162.086 65.9751 162.362 66.3025 160.934 66.287C160.364 66.2806 157.844 66.2862 157.138 66.265C156.432 66.2438 156.916 66.1383 156.866 66.1337C154.965 65.9942 155.686 65.9364 154.734 65.7299C153.781 65.5242 154.045 66.0149 153.657 66.0697C153.268 66.1243 151.874 66.0092 151.532 65.9692C151.189 65.9291 151.616 65.8621 151.312 65.8395C149.294 65.6915 150.426 66.083 149.761 66.1609C148.193 66.3453 146.972 65.9814 145.536 65.9458C145.148 65.9361 145.465 66.019 145.119 66.0268C143.749 66.0564 142.926 65.9428 141.367 66.0469C141.112 66.0639 139.852 66.2827 139.037 66.1221C138.922 66.099 139.25 66.0083 138.666 65.988C137.794 65.9575 136.223 65.9377 135.285 65.968C134.593 65.9904 135.386 66.1398 134.515 66.0934C134.128 66.0727 134.846 65.9853 134.118 65.9536C133.395 65.922 131.545 65.9258 130.841 65.9288C130.138 65.9319 130.523 66.0453 130.466 66.0529C130.122 66.0966 128.774 66.1513 128.655 66.1512C122.644 66.165 117.101 65.9739 111.248 66.0372C110.789 66.042 111.095 66.1615 111.025 66.1635C109.453 66.2136 110.692 65.8958 109.594 65.7894C109.753 66.0319 109.104 65.988 107.997 66.0146C107.463 66.0276 107.754 66.1216 107.705 66.1312C106.914 66.2738 106.362 66.0896 106.22 66.0519C105.696 65.9132 105.126 66.0771 104.769 65.9844C104.413 65.8924 105.233 65.756 104.171 65.7578C103.873 65.8446 104.662 66.0715 103.855 66.1083C100.812 66.2474 95.1327 66.0694 92.6862 66.0509C90.2446 66.0324 89.4559 66.0484 88.0331 66.017C85.4632 65.9603 86.405 66.1286 84.8093 66.2057C83.2089 66.2827 83.9869 65.8685 83.7568 65.7795C83.531 65.6905 83.2844 65.7821 83.0035 65.7332C82.7235 65.6842 83.3297 65.6237 82.6711 65.6053C82.0122 65.587 80.2107 65.7453 79.9772 65.8384C79.4835 66.0357 80.2952 66.2427 78.5518 66.17C78.4515 66.1657 78.7769 66.0567 78.393 66.0457C75.3434 65.9619 72.1753 65.9567 69.1294 65.8825C68.7106 65.8722 69.0851 65.751 68.8414 65.7436C66.3027 65.6661 67.2102 65.8704 65.8188 66.0973C66.1312 65.7953 65.3618 65.6105 63.435 65.6087C62.2768 65.6076 62.4762 65.7395 61.7271 65.8325C61.5023 65.8605 60.6828 65.7699 60.5343 65.8319C60.0446 66.0347 60.8166 66.2617 58.8301 66.1713C58.7429 66.167 59.0204 66.056 58.7193 66.0493C56.7727 66.0053 56.5397 66.2174 54.4356 66.2431C52.7862 66.2633 49.8529 66.1339 47.9749 66.1129C48.0144 65.7733 46.2406 65.8511 45.521 66.0852C44.3022 66.0756 42.9858 66.0889 41.8078 66.0565C41.4024 66.0455 41.6688 65.9472 41.6177 65.9365C40.8337 65.7699 40.3038 65.9977 40.0408 66.0066C37.1896 66.0934 34.8666 65.9208 32.1455 66.0895C32.0489 66.0956 31.8925 66.3314 31.165 66.1592C31.118 66.1473 32.0167 66.04 30.7367 66.0317C29.4564 66.0234 27.043 65.8969 25.2657 66.0062C24.8356 66.0326 23.7477 66.224 22.8746 66.0744C22.7583 66.0541 22.8855 65.9865 22.7176 65.9488C22.1748 65.8289 21.8785 66.0673 21.2405 65.8647C20.6025 65.6622 19.2754 65.5105 17.483 65.6503C17.4259 65.6543 17.0016 65.8433 16.4379 65.8403C15.5381 65.8354 14.2607 65.796 13.3212 65.7972C12.8713 65.7979 13.1592 65.9152 13.0811 65.9174C10.0564 65.9831 7.90359 65.8785 4.66326 65.8331C4.16365 65.8259 2.87677 65.938 1.79614 65.8985C1.57152 65.8919 1.36218 65.807 1.21281 65.6829C0.9035 65.4039 0.958376 65.1937 1.00627 65.0922C1.06528 64.9831 1.14738 64.9184 1.21868 64.8C1.31391 64.5448 1.36891 64.0517 1.31538 62.9195C1.26049 61.7489 0.529657 60.2668 0.9083 58.1631C0.814475 54.0831 1.00826 50.3099 0.874292 46.2186C0.868356 46.0346 0.664387 45.4528 0.667163 45.0202C0.671679 44.3781 0.767011 44.0256 0.773291 43.5671C0.802006 41.6458 0.720444 39.8876 0.73313 38.0352C0.73774 37.3319 0.836312 37.5778 0.841821 36.739C0.847238 35.9007 0.717438 35.3417 0.780127 34.2057C0.827911 33.3478 1.09322 32.49 1.12414 31.3511C0.862447 31.3077 0.867837 30.5256 0.798755 29.1354C0.785351 28.8682 0.694266 29.1548 0.683228 29.0283C0.636283 28.5139 0.711772 28.0378 0.660669 27.5494C0.648396 27.4305 0.559024 27.4249 0.543946 27.3278C0.41233 26.5017 0.613362 25.1409 0.648365 24.9071C0.781297 24.0113 0.665059 23.5927 0.717407 22.9056C0.769749 22.2196 0.83518 23.2453 0.866943 22.444C0.932641 20.783 0.918207 18.6489 0.922314 16.9619C0.923401 16.2888 0.804104 16.7481 0.801489 16.6517C0.771232 15.2599 0.89813 13.8525 0.660498 13.0807C1.27493 12.1158 0.600902 12.2415 0.723902 10.252C0.73385 10.0953 1.02441 9.89594 1.06706 10.4976C1.10968 11.0992 1.01886 12.0115 1.08535 12.8462C1.10096 13.0439 1.37323 14.1763 1.38972 14.3308C1.51862 15.541 1.08442 15.7125 1.06057 15.7765C0.803207 16.5026 1.09653 17.8864 1.1168 18.2507C1.20967 19.9178 1.1486 21.334 1.21489 22.7283C1.25773 23.6402 1.54215 23.7294 1.53344 24.4455C1.50467 26.8259 1.10791 27.6568 1.45193 29.8999C1.5253 30.3808 1.83616 29.9028 1.59172 31.6263C1.57631 31.7345 1.3527 33.0141 1.49414 33.7533C1.51197 33.8462 1.60257 33.8432 1.61018 33.9657C1.65941 34.7863 1.58723 35.3336 1.6218 36.2276C1.65637 37.1214 1.7079 38.1963 1.67717 39.2169C1.6588 39.832 1.49 40.6212 1.44868 40.9156C1.32963 41.747 1.52482 42.6384 1.38066 43.1535C1.23578 43.6729 1.01575 42.6575 0.922143 44.0195C1.15752 44.0699 1.3991 44.1858 1.63581 44.2669C1.62753 47.2517 1.55142 50.1885 1.56181 53.1833C1.56334 53.5546 1.68988 53.1749 1.69477 53.5729C1.71487 55.2522 1.62467 56.7189 1.66059 58.4604C1.68888 59.8084 1.82286 61.2866 1.85661 62.6961C1.71569 63.1466 1.67353 63.934 1.66184 64.8C1.65116 64.8712 1.72555 64.9421 1.79614 64.9372C2.07218 64.9371 2.34072 64.938 2.5934 64.9421C3.12568 64.9506 3.09008 65.0225 3.46861 65.046C4.89664 65.1328 4.22743 64.8948 4.61895 64.8573C6.29854 64.6974 6.44236 65.2362 8.42258 65.2229C8.52747 65.2223 9.80988 64.9352 9.98649 64.9173C11.1088 64.8007 10.1723 65.0172 10.8746 65.0385C12.157 65.0772 13.0481 65.1458 14.5527 65.0617C14.9915 65.0368 16.0439 64.8578 16.8958 64.9962C17.0079 65.0144 16.946 65.1093 17.0362 65.1148C18.6691 65.2075 18.712 64.9093 19.6452 64.8083C20.5784 64.7073 22.0199 64.9132 22.3133 64.9725C23.0807 65.126 21.7252 65.0381 21.6836 65.0532C21.1954 65.2324 22.2467 65.2016 23.05 65.2167C23.1663 65.5091 24.2896 65.4916 23.8827 65.2312C23.8364 65.2028 23.2113 65.2301 23.05 65.2167C23.7551 64.9298 24.9896 64.893 26.3532 65.1612C26.9915 65.2868 26.3881 65.4333 28.3271 65.3797C29.207 65.3555 28.867 65.1542 29.6436 65.0993C31.4177 64.974 33.7231 65.1619 35.5521 65.1323C36.216 65.1215 35.5693 65.0113 36.023 65.0002C37.227 64.9703 38.2888 65.053 39.498 65.0106C39.6075 65.0066 39.3398 64.8912 39.7158 64.8898C42.5664 64.8764 45.0485 64.9503 48.0248 64.9523C49.4628 64.9533 52.0337 64.8896 53.5234 64.9024C56.1053 64.9239 59.2814 65.0917 61.4871 65.0509C62.9256 65.0248 62.61 64.9094 63.2264 64.8308C64.4158 64.6784 66.5213 64.9514 66.8048 64.9937C66.8134 64.9951 65.5756 65.0223 66.2361 65.0815C66.6201 65.205 66.7908 64.9942 66.8048 64.9937C66.9909 65.021 69.4638 65.0472 69.9548 65.0251C70.2216 65.0131 70.0724 64.9037 70.2114 64.8995C73.518 64.8017 76.8304 64.7739 80.184 64.825C80.243 64.8272 80.1541 64.9495 80.2929 64.9532C82.2345 65.0076 83.4776 64.8579 85.0789 64.7691C86.6799 64.6803 87.9495 64.7101 88.8973 64.92C90.1053 64.8936 91.8384 64.9864 92.8357 65.0427C93.833 65.099 93.9721 64.861 94.0599 64.8563C96.7969 64.7056 98.379 64.8419 101.218 64.8631C102.568 64.8736 105.246 64.8391 106.708 64.813C107.863 64.7921 108.559 64.8479 109.623 64.8122C109.767 64.8074 109.622 64.7014 109.666 64.6973C110.854 64.5705 110.283 64.8297 110.528 64.8759C111.417 65.0442 111.967 65.1339 113.488 65.0547C113.839 65.0366 114.861 64.6635 115.501 64.6416C116.332 64.6139 116.018 64.7477 116.889 64.7153C116.964 64.7126 116.948 64.6301 117.486 64.6338C119.98 64.6496 122.7 64.6976 125.292 64.6893C125.646 64.6885 125.192 64.5576 125.704 64.5543C128.105 64.5388 130.736 64.5436 133.075 64.6049C133.651 64.6204 133.29 64.712 133.415 64.7392C134.182 64.9038 135.27 64.6646 135.449 64.6601C139.732 64.5451 143.009 64.7616 147.374 64.6586C147.611 64.6525 149.44 64.3961 150.256 64.616C150.312 64.6306 151.119 64.8556 151.833 64.7018C151.877 64.6922 151.374 64.5763 152.252 64.5881C153.13 64.5999 154.542 64.5226 155.749 64.6498C156.131 64.6899 157.034 64.9144 158.173 64.7355C158.248 64.723 160.007 64.3184 160.635 64.5975C160.736 64.6435 160.63 64.9388 161.99 64.7874C162.25 64.758 161.778 64.6922 162.463 64.651C163.512 64.5876 164.901 64.6667 166.191 64.5352C166.415 64.5119 167.373 64.3114 168.14 64.4636C168.261 64.4874 168.032 64.586 168.438 64.597C168.603 64.6016 168.77 64.6052 168.937 64.6082C168.891 64.6124 168.848 64.632 168.816 64.6627C169.985 63.6465 171.155 62.5749 172.351 61.5916C172.887 61.1509 172.727 61.505 173.297 61.0589C173.868 60.6128 174.987 59.6803 175.506 59.1253C176.026 58.5702 175.238 58.9263 176.074 58.1614C177.901 56.4909 179.759 54.8731 181.626 53.2661C181.573 53.3168 181.545 53.3894 181.549 53.4594C181.577 51.3023 181.611 49.1449 181.621 46.98C181.624 46.2502 181.533 46.8552 181.531 45.7798C181.525 41.8149 181.439 34.9695 181.632 31.529C181.787 28.7724 181.905 32.2415 181.968 30.135C181.998 29.1185 181.703 28.0188 181.693 27.7734C181.599 25.3763 181.73 23.7103 181.69 21.5528C181.681 21.1073 181.561 21.5442 181.556 21.165C181.535 19.8699 181.588 18.5086 181.579 17.2709C181.574 16.7157 181.483 16.818 181.49 16.3071C181.505 15.0846 181.544 14.0036 181.63 12.8118C181.637 12.7032 181.751 13.4356 181.755 12.5312C181.762 11.0673 181.846 9.25028 181.759 7.56611C181.733 7.06639 181.524 7.0468 181.668 5.97264C181.698 5.74732 181.949 6.0348 181.732 4.78354C181.706 4.62735 181.538 3.42916 181.53 2.40003C181.525 2.49497 181.608 2.58059 181.679 2.56625C181.712 2.56352 181.783 2.52515 181.796 2.47131C181.502 2.41352 181.157 2.36393 180.839 2.38103C180.758 2.38618 181.084 2.49842 180.586 2.50937C178.831 2.546 176.992 2.53403 175.189 2.56919C174.707 2.5788 175.425 2.69495 174.707 2.70556C172.734 2.73492 170.27 2.70535 168.341 2.66899C167.629 2.65537 168.121 2.55915 168.069 2.54868C167.237 2.37837 166.745 2.60825 166.468 2.62165C164.75 2.70191 163.442 2.59393 161.858 2.62251C161.421 2.6301 161.731 2.73971 161.644 2.74948C160.741 2.84498 161.413 2.64813 160.842 2.62644C159.242 2.565 157.458 2.57381 155.84 2.58781C155.246 2.59312 155.914 2.72021 155.38 2.72351C152.223 2.74541 148.941 2.73325 145.86 2.66318C145.28 2.64976 145.645 2.55189 145.524 2.52954C144.691 2.37315 143.47 2.58646 143.189 2.60678C141.911 2.69956 141.414 2.61302 140.286 2.62917C134.773 2.7096 127.967 2.65228 122.763 2.61687C115.983 2.57129 110.721 2.47819 104.255 2.50236C103.844 2.50378 104.258 2.63397 103.904 2.63686C99.33 2.66825 94.8271 2.61737 90.244 2.65498C89.868 2.65783 90.4101 2.78125 89.8064 2.78999C88.5683 2.80876 86.9999 2.80205 85.748 2.76264C85.1374 2.74365 85.9564 2.63775 85.3418 2.6208C83.9107 2.58109 82.3766 2.5723 80.9067 2.59209C80.2811 2.60078 81.2249 2.72701 80.4118 2.72846C74.8731 2.74099 69.4335 2.76273 63.8364 2.59926C63.4527 2.58804 63.116 2.33149 62.3002 2.38069C62.2388 2.45188 62.2421 2.53564 62.2153 2.61174C54.1523 2.65273 46.1717 2.5638 38.0862 2.55005C37.7452 2.54949 38.3344 2.68543 37.6744 2.68505C33.8545 2.68304 30.145 2.7207 26.2376 2.58559C25.8499 2.57238 26.0488 2.33324 24.9064 2.36941C24.7049 2.37601 22.9841 2.4079 22.5392 2.45981C22.4788 2.46764 22.7927 2.57926 22.2383 2.58252C19.016 2.59947 15.6393 2.57398 12.4227 2.50578C11.9035 2.49456 12.4564 2.37569 12.0866 2.36667C9.46373 2.30357 6.61078 2.39393 4.1045 2.28601C2.42688 2.21334 3.04798 2.00787 2.15652 1.80561C2.11446 1.7961 1.97086 1.78925 1.79614 1.77999C1.56922 1.74219 1.30292 1.93283 1.23221 1.91294C1.08507 1.85987 1.00335 1.70719 0.971641 1.52058C0.932834 1.34076 0.947465 1.13055 0.713998 1.11433C0.657795 1.09656 0.210085 1.55122 0.12158 1.98979C0.0644383 2.19952 0.0591776 2.36985 0.0412841 2.3964C0.0310587 2.42282 -0.0299641 2.30726 0.0182962 1.92719C0.0233536 1.8801 0.138961 1.37488 0.541002 0.996504C0.925254 0.598696 1.55225 0.452408 1.79614 0.440343C1.7975 0.440047 1.79884 0.439752 1.80016 0.439456C1.97313 0.400951 1.66143 0.281276 2.01434 0.231986C2.36723 0.182742 2.755 0.283061 3.34008 0.22515C3.92489 0.166523 3.66775 0.0303783 4.83568 0.0142622ZM97.3262 65.2945C98.2497 65.4088 98.3859 64.9901 97.3872 65.0902C97.3388 65.0956 97.2786 65.2889 97.3262 65.2945ZM1.23557 50.1718C1.05088 51.379 1.32245 52.2052 1.46509 51.3535C1.60757 50.5019 1.29156 49.804 1.23557 50.1718ZM1.10073 37.653C0.955112 39.064 1.54889 39.2861 1.42886 37.7749C1.42207 37.687 1.10919 37.5705 1.10073 37.653ZM6.29067 1.74802C6.27792 1.74246 5.53117 1.73704 5.51332 1.74255C5.11569 1.87554 6.60889 1.88629 6.29067 1.74802ZM0.95393 25.2302C0.873609 25.6707 0.96633 26.9389 1.06621 26.3916C1.14656 25.9511 1.05385 24.6817 0.95393 25.2302ZM145.498 65.7414C145.512 65.7476 146.048 65.7532 146.037 65.7179C146 65.6043 145.255 65.6364 145.498 65.7414ZM0.947094 4.11634C0.924743 7.23582 0.434253 9.12719 0.489601 5.73012C0.499614 5.11493 0.646014 7.05597 0.690235 6.27296C0.770797 4.84025 0.462829 3.8889 0.627857 2.42686C0.658062 2.16219 0.949459 3.93839 0.947778 4.12188C0.94755 4.12002 0.947322 4.11819 0.947094 4.11634ZM97.858 65.7974C97.8765 65.8029 98.6176 65.8082 98.6353 65.8027C99.0367 65.6698 97.5437 65.6591 97.858 65.7974ZM175.039 61.0186C175.078 61.0004 176.375 59.8711 176.41 59.8259C176.939 59.0694 174.316 61.3521 175.039 61.0186ZM47.9454 66.1038C47.1367 66.2376 46.1693 66.2533 45.5247 66.0854C46.3283 66.0943 47.1373 66.0956 47.9454 66.1038Z" fill="#07596E"/>
<path d="M55.0306 40.5538H52.2466C51.0626 40.5538 50.1426 40.2258 49.4866 39.5698C48.8466 38.9138 48.5266 38.0018 48.5266 36.8338V28.8418C48.5266 27.6578 48.8466 26.7458 49.4866 26.1058C50.1426 25.4498 51.0626 25.1218 52.2466 25.1218H55.0306C56.1986 25.1218 57.1106 25.4498 57.7666 26.1058C58.4226 26.7458 58.7506 27.6578 58.7506 28.8418V29.9938C58.7506 30.2818 58.6066 30.4258 58.3186 30.4258H56.8066C56.5346 30.4258 56.3986 30.2818 56.3986 29.9938V28.9378C56.3986 27.7538 55.8226 27.1618 54.6706 27.1618H52.5826C51.4306 27.1618 50.8546 27.7538 50.8546 28.9378V36.7378C50.8546 37.9218 51.4306 38.5138 52.5826 38.5138H54.6706C55.8226 38.5138 56.3986 37.9218 56.3986 36.7378V35.6818C56.3986 35.3938 56.5346 35.2498 56.8066 35.2498H58.3186C58.6066 35.2498 58.7506 35.3938 58.7506 35.6818V36.8338C58.7506 38.0018 58.4226 38.9138 57.7666 39.5698C57.1106 40.2258 56.1986 40.5538 55.0306 40.5538ZM65.7836 38.5138H67.8716C69.0396 38.5138 69.6236 37.9218 69.6236 36.7378V28.9378C69.6236 27.7538 69.0396 27.1618 67.8716 27.1618H65.7836C64.6316 27.1618 64.0556 27.7538 64.0556 28.9378V36.7378C64.0556 37.9218 64.6316 38.5138 65.7836 38.5138ZM68.2316 40.5538H65.4476C64.2636 40.5538 63.3436 40.2258 62.6876 39.5698C62.0476 38.9138 61.7276 38.0018 61.7276 36.8338V28.8418C61.7276 27.6578 62.0476 26.7458 62.6876 26.1058C63.3436 25.4498 64.2636 25.1218 65.4476 25.1218H68.2316C69.4156 25.1218 70.3356 25.4498 70.9916 26.1058C71.6476 26.7458 71.9756 27.6578 71.9756 28.8418V36.8338C71.9756 38.0018 71.6476 38.9138 70.9916 39.5698C70.3356 40.2258 69.4156 40.5538 68.2316 40.5538ZM77.3458 40.5538H75.8578C75.5858 40.5538 75.4498 40.4178 75.4498 40.1458V25.5298C75.4498 25.2578 75.5858 25.1218 75.8578 25.1218H77.2018C77.4578 25.1218 77.6338 25.2098 77.7298 25.3858L83.5378 35.8258H83.6338V25.5298C83.6338 25.2578 83.7698 25.1218 84.0418 25.1218H85.5298C85.8018 25.1218 85.9378 25.2578 85.9378 25.5298V40.1458C85.9378 40.4178 85.8018 40.5538 85.5298 40.5538H84.2338C83.9778 40.5538 83.7698 40.4258 83.6098 40.1698L77.8498 29.8498H77.7538V40.1458C77.7538 40.4178 77.6178 40.5538 77.3458 40.5538ZM91.5779 40.5538H90.0899C89.8179 40.5538 89.6819 40.4178 89.6819 40.1458V25.5298C89.6819 25.2578 89.8179 25.1218 90.0899 25.1218H91.4339C91.6899 25.1218 91.8659 25.2098 91.9619 25.3858L97.7699 35.8258H97.8659V25.5298C97.8659 25.2578 98.0019 25.1218 98.2739 25.1218H99.7619C100.034 25.1218 100.17 25.2578 100.17 25.5298V40.1458C100.17 40.4178 100.034 40.5538 99.7619 40.5538H98.4659C98.2099 40.5538 98.0019 40.4258 97.8419 40.1698L92.0819 29.8498H91.9859V40.1458C91.9859 40.4178 91.8499 40.5538 91.5779 40.5538ZM112.002 40.5538H104.322C104.05 40.5538 103.914 40.4178 103.914 40.1458V25.5298C103.914 25.2578 104.05 25.1218 104.322 25.1218H112.002C112.258 25.1218 112.386 25.2578 112.386 25.5298V26.7538C112.386 27.0258 112.258 27.1618 112.002 27.1618H106.53C106.338 27.1618 106.242 27.2418 106.242 27.4018V31.4578C106.242 31.6178 106.338 31.6978 106.53 31.6978H111.162C111.45 31.6978 111.594 31.8338 111.594 32.1058V33.3298C111.594 33.6018 111.45 33.7378 111.162 33.7378H106.53C106.338 33.7378 106.242 33.8178 106.242 33.9778V38.2498C106.242 38.4258 106.338 38.5138 106.53 38.5138H112.002C112.258 38.5138 112.386 38.6498 112.386 38.9218V40.1458C112.386 40.4178 112.258 40.5538 112.002 40.5538ZM121.949 40.5538H119.165C117.981 40.5538 117.061 40.2258 116.405 39.5698C115.765 38.9138 115.445 38.0018 115.445 36.8338V28.8418C115.445 27.6578 115.765 26.7458 116.405 26.1058C117.061 25.4498 117.981 25.1218 119.165 25.1218H121.949C123.117 25.1218 124.029 25.4498 124.685 26.1058C125.341 26.7458 125.669 27.6578 125.669 28.8418V29.9938C125.669 30.2818 125.525 30.4258 125.237 30.4258H123.725C123.453 30.4258 123.317 30.2818 123.317 29.9938V28.9378C123.317 27.7538 122.741 27.1618 121.589 27.1618H119.501C118.349 27.1618 117.773 27.7538 117.773 28.9378V36.7378C117.773 37.9218 118.349 38.5138 119.501 38.5138H121.589C122.741 38.5138 123.317 37.9218 123.317 36.7378V35.6818C123.317 35.3938 123.453 35.2498 123.725 35.2498H125.237C125.525 35.2498 125.669 35.3938 125.669 35.6818V36.8338C125.669 38.0018 125.341 38.9138 124.685 39.5698C124.029 40.2258 123.117 40.5538 121.949 40.5538ZM133.11 40.5538H131.598C131.31 40.5538 131.166 40.4178 131.166 40.1458V27.4018C131.166 27.2418 131.086 27.1618 130.926 27.1618H127.902C127.614 27.1618 127.47 27.0258 127.47 26.7538V25.5298C127.47 25.2578 127.614 25.1218 127.902 25.1218H136.806C137.094 25.1218 137.238 25.2578 137.238 25.5298V26.7538C137.238 27.0258 137.094 27.1618 136.806 27.1618H133.782C133.606 27.1618 133.518 27.2418 133.518 27.4018V40.1458C133.518 40.4178 133.382 40.5538 133.11 40.5538Z" fill="#64E6F4"/>
<g filter="url(#filter0_f_61_223)">
<path d="M55.0306 40.5538H52.2466C51.0626 40.5538 50.1426 40.2258 49.4866 39.5698C48.8466 38.9138 48.5266 38.0018 48.5266 36.8338V28.8418C48.5266 27.6578 48.8466 26.7458 49.4866 26.1058C50.1426 25.4498 51.0626 25.1218 52.2466 25.1218H55.0306C56.1986 25.1218 57.1106 25.4498 57.7666 26.1058C58.4226 26.7458 58.7506 27.6578 58.7506 28.8418V29.9938C58.7506 30.2818 58.6066 30.4258 58.3186 30.4258H56.8066C56.5346 30.4258 56.3986 30.2818 56.3986 29.9938V28.9378C56.3986 27.7538 55.8226 27.1618 54.6706 27.1618H52.5826C51.4306 27.1618 50.8546 27.7538 50.8546 28.9378V36.7378C50.8546 37.9218 51.4306 38.5138 52.5826 38.5138H54.6706C55.8226 38.5138 56.3986 37.9218 56.3986 36.7378V35.6818C56.3986 35.3938 56.5346 35.2498 56.8066 35.2498H58.3186C58.6066 35.2498 58.7506 35.3938 58.7506 35.6818V36.8338C58.7506 38.0018 58.4226 38.9138 57.7666 39.5698C57.1106 40.2258 56.1986 40.5538 55.0306 40.5538ZM65.7836 38.5138H67.8716C69.0396 38.5138 69.6236 37.9218 69.6236 36.7378V28.9378C69.6236 27.7538 69.0396 27.1618 67.8716 27.1618H65.7836C64.6316 27.1618 64.0556 27.7538 64.0556 28.9378V36.7378C64.0556 37.9218 64.6316 38.5138 65.7836 38.5138ZM68.2316 40.5538H65.4476C64.2636 40.5538 63.3436 40.2258 62.6876 39.5698C62.0476 38.9138 61.7276 38.0018 61.7276 36.8338V28.8418C61.7276 27.6578 62.0476 26.7458 62.6876 26.1058C63.3436 25.4498 64.2636 25.1218 65.4476 25.1218H68.2316C69.4156 25.1218 70.3356 25.4498 70.9916 26.1058C71.6476 26.7458 71.9756 27.6578 71.9756 28.8418V36.8338C71.9756 38.0018 71.6476 38.9138 70.9916 39.5698C70.3356 40.2258 69.4156 40.5538 68.2316 40.5538ZM77.3458 40.5538H75.8578C75.5858 40.5538 75.4498 40.4178 75.4498 40.1458V25.5298C75.4498 25.2578 75.5858 25.1218 75.8578 25.1218H77.2018C77.4578 25.1218 77.6338 25.2098 77.7298 25.3858L83.5378 35.8258H83.6338V25.5298C83.6338 25.2578 83.7698 25.1218 84.0418 25.1218H85.5298C85.8018 25.1218 85.9378 25.2578 85.9378 25.5298V40.1458C85.9378 40.4178 85.8018 40.5538 85.5298 40.5538H84.2338C83.9778 40.5538 83.7698 40.4258 83.6098 40.1698L77.8498 29.8498H77.7538V40.1458C77.7538 40.4178 77.6178 40.5538 77.3458 40.5538ZM91.5779 40.5538H90.0899C89.8179 40.5538 89.6819 40.4178 89.6819 40.1458V25.5298C89.6819 25.2578 89.8179 25.1218 90.0899 25.1218H91.4339C91.6899 25.1218 91.8659 25.2098 91.9619 25.3858L97.7699 35.8258H97.8659V25.5298C97.8659 25.2578 98.0019 25.1218 98.2739 25.1218H99.7619C100.034 25.1218 100.17 25.2578 100.17 25.5298V40.1458C100.17 40.4178 100.034 40.5538 99.7619 40.5538H98.4659C98.2099 40.5538 98.0019 40.4258 97.8419 40.1698L92.0819 29.8498H91.9859V40.1458C91.9859 40.4178 91.8499 40.5538 91.5779 40.5538ZM112.002 40.5538H104.322C104.05 40.5538 103.914 40.4178 103.914 40.1458V25.5298C103.914 25.2578 104.05 25.1218 104.322 25.1218H112.002C112.258 25.1218 112.386 25.2578 112.386 25.5298V26.7538C112.386 27.0258 112.258 27.1618 112.002 27.1618H106.53C106.338 27.1618 106.242 27.2418 106.242 27.4018V31.4578C106.242 31.6178 106.338 31.6978 106.53 31.6978H111.162C111.45 31.6978 111.594 31.8338 111.594 32.1058V33.3298C111.594 33.6018 111.45 33.7378 111.162 33.7378H106.53C106.338 33.7378 106.242 33.8178 106.242 33.9778V38.2498C106.242 38.4258 106.338 38.5138 106.53 38.5138H112.002C112.258 38.5138 112.386 38.6498 112.386 38.9218V40.1458C112.386 40.4178 112.258 40.5538 112.002 40.5538ZM121.949 40.5538H119.165C117.981 40.5538 117.061 40.2258 116.405 39.5698C115.765 38.9138 115.445 38.0018 115.445 36.8338V28.8418C115.445 27.6578 115.765 26.7458 116.405 26.1058C117.061 25.4498 117.981 25.1218 119.165 25.1218H121.949C123.117 25.1218 124.029 25.4498 124.685 26.1058C125.341 26.7458 125.669 27.6578 125.669 28.8418V29.9938C125.669 30.2818 125.525 30.4258 125.237 30.4258H123.725C123.453 30.4258 123.317 30.2818 123.317 29.9938V28.9378C123.317 27.7538 122.741 27.1618 121.589 27.1618H119.501C118.349 27.1618 117.773 27.7538 117.773 28.9378V36.7378C117.773 37.9218 118.349 38.5138 119.501 38.5138H121.589C122.741 38.5138 123.317 37.9218 123.317 36.7378V35.6818C123.317 35.3938 123.453 35.2498 123.725 35.2498H125.237C125.525 35.2498 125.669 35.3938 125.669 35.6818V36.8338C125.669 38.0018 125.341 38.9138 124.685 39.5698C124.029 40.2258 123.117 40.5538 121.949 40.5538ZM133.11 40.5538H131.598C131.31 40.5538 131.166 40.4178 131.166 40.1458V27.4018C131.166 27.2418 131.086 27.1618 130.926 27.1618H127.902C127.614 27.1618 127.47 27.0258 127.47 26.7538V25.5298C127.47 25.2578 127.614 25.1218 127.902 25.1218H136.806C137.094 25.1218 137.238 25.2578 137.238 25.5298V26.7538C137.238 27.0258 137.094 27.1618 136.806 27.1618H133.782C133.606 27.1618 133.518 27.2418 133.518 27.4018V40.1458C133.518 40.4178 133.382 40.5538 133.11 40.5538Z" fill="#64E6F4"/>
</g>
<defs>
<filter id="filter0_f_61_223" x="47.5266" y="24.1218" width="90.7117" height="17.432" filterUnits="userSpaceOnUse" color-interpolation-filters="sRGB">
<feFlood flood-opacity="0" result="BackgroundImageFix"/>
<feBlend mode="normal" in="SourceGraphic" in2="BackgroundImageFix" result="shape"/>
<feGaussianBlur stdDeviation="0.5" result="effect1_foregroundBlur_61_223"/>
</filter>
</defs>
</svg>
