<svg width="41" height="41" viewBox="0 0 41 41" fill="none" xmlns="http://www.w3.org/2000/svg">
<g opacity="0.75">
<path d="M4.45673 0.0132695C5.3059 -0.0205991 6.41902 0.0156146 7.26499 0.0653201C7.53011 0.0807362 7.39586 0.149647 7.57888 0.163391C7.93682 0.190185 8.2703 0.156388 8.62403 0.188306C8.74125 0.199221 8.59533 0.308375 8.71825 0.317321C9.39184 0.365561 10.0291 0.337758 10.7114 0.360961C14.0725 0.47544 17.3763 0.516415 20.7785 0.566149C21.9003 0.582454 23.264 0.681516 24.4226 0.638194C24.5579 0.633039 24.4773 0.537229 24.503 0.529332C24.9066 0.408443 24.7724 0.601864 25.036 0.627562C26.082 0.729029 27.2451 0.737854 28.2518 0.700877C28.68 0.684866 28.2506 0.494562 28.6819 0.601378C28.7118 0.608595 28.6031 0.710338 28.7206 0.72119C28.9869 0.745596 29.4923 0.727411 29.6987 0.735472C30.0965 0.751523 30.1623 0.750499 30.5386 0.751658C31.053 0.754129 31.6648 0.804704 32.2167 0.781651C32.3345 0.776428 32.1786 0.672129 32.3665 0.654381C32.5545 0.636661 33.052 0.645505 33.2197 0.670091C33.3875 0.69469 33.316 0.776667 33.3457 0.795457C33.5899 0.954053 34.1654 0.734398 34.2394 0.728966C35.1544 0.66623 35.981 0.703501 36.8133 0.733921C37.294 0.7482 37.7714 0.869601 38.2127 1.08971C39.2593 1.58277 40.0197 2.77665 39.9885 3.90005C39.9885 3.90758 39.9884 3.91511 39.9884 3.92263C39.9812 5.01314 39.9247 5.93739 39.9344 6.9968C39.9353 7.10861 40.058 6.97759 40.0593 7.11415C40.0736 8.56496 40.0602 10.0057 39.9774 11.4502C39.969 11.5951 39.8614 11.4084 39.8465 11.5531C39.758 12.4393 39.5455 13.8414 40.0143 14.3678C39.9959 14.968 39.977 15.6967 39.8825 16.2338C39.8217 16.58 39.7044 16.2437 39.7545 16.669C39.7656 16.765 39.8683 16.6402 39.8773 16.7841C39.9149 17.3898 39.8815 18.0515 39.9346 18.6507C39.9456 18.7725 40.0377 18.7393 40.0542 18.7738C40.1885 19.064 39.9666 19.5471 39.9505 19.6525C39.8302 20.4545 39.8775 21.0401 39.8746 21.7873C39.8739 21.9606 39.9975 21.7557 40.0012 21.9225C40.019 22.7878 40.0083 23.6841 39.9535 24.5314C39.941 24.7198 39.8357 24.5465 39.8243 24.6366C39.7755 25.0337 39.9744 25.1217 39.9314 25.5025C39.9226 25.5828 39.8325 25.5376 39.8226 25.5522C39.6671 25.7814 39.8874 25.9806 39.8922 26.0395C39.9587 26.7853 39.7287 27.262 39.7613 27.9824C39.7654 28.0686 39.8795 27.8743 39.8841 28.1165C39.9156 29.7306 39.8843 31.4377 39.793 33.0353C39.779 33.2837 39.6933 33.1064 39.6827 33.122C39.5177 33.3768 39.7388 33.5417 39.7472 33.6226C39.8071 34.2616 39.6217 34.8585 39.8851 35.2927C39.8579 36.0962 39.8519 36.8987 39.8506 37.7001C39.8936 39.3196 38.4123 40.789 36.8133 40.692C36.2822 40.6706 35.7515 40.6389 35.2212 40.5923C35.1871 40.5896 35.2482 40.4807 35.1802 40.4757C34.3604 40.4145 34.5179 40.5838 33.9755 40.7908C33.8388 40.8428 33.4232 40.5929 33.3864 40.5745C33.2524 40.507 33.3914 40.345 33.3465 40.3319C32.9753 40.2292 33.0358 40.7651 32.5349 40.7653C32.5193 40.7644 32.5851 40.6658 32.543 40.656C32.4124 40.6252 32.2829 40.6644 32.1551 40.6304C31.8627 40.5518 31.7585 40.2914 31.3117 40.443C31.2552 40.4627 31.3415 40.7666 30.8944 40.7523C30.7161 40.7463 29.927 40.7515 29.7059 40.7318C29.485 40.7121 29.6366 40.6142 29.6209 40.6099C29.0257 40.4804 29.2514 40.4267 28.9532 40.2349C28.6551 40.0439 28.7377 40.4996 28.6162 40.5504C28.4944 40.6011 28.0581 40.4943 27.9508 40.4571C27.8437 40.4199 27.9773 40.3577 27.8821 40.3367C27.2501 40.1992 27.6047 40.5628 27.3965 40.6352C26.9056 40.8064 26.5233 40.4685 26.0739 40.4354C25.9523 40.4264 26.0515 40.5034 25.9432 40.5106C25.5144 40.5381 25.2565 40.4326 24.7686 40.5293C24.6888 40.5451 24.2944 40.7482 24.0391 40.5991C24.0029 40.5776 24.1056 40.4934 23.9229 40.4746C23.6499 40.4463 23.1579 40.4279 22.8644 40.456C22.6477 40.4768 22.8961 40.6156 22.6234 40.5725C22.5022 40.5532 22.7268 40.4721 22.4991 40.4427C22.2726 40.4133 21.6934 40.4169 21.473 40.4197C21.253 40.4225 21.3734 40.5278 21.3557 40.5349C21.2481 40.5755 20.8259 40.6262 20.7886 40.6261C18.9067 40.639 17.1714 40.4615 15.3391 40.5203C15.1953 40.5247 15.2911 40.6357 15.2692 40.6375C14.7769 40.684 15.165 40.3889 14.8212 40.2902C14.8709 40.5154 14.6679 40.4746 14.3211 40.4993C14.1541 40.5114 14.2451 40.5986 14.2298 40.6076C13.982 40.74 13.8095 40.5689 13.765 40.5339C13.6009 40.4052 13.4223 40.5573 13.3107 40.4712C13.1991 40.3858 13.4559 40.2592 13.1234 40.2608C13.0301 40.3414 13.277 40.5521 13.0245 40.5863C12.0719 40.7155 10.2937 40.5501 9.52779 40.533C8.76339 40.5158 8.51649 40.5307 8.07106 40.5015C7.26648 40.4489 7.56134 40.6052 7.06175 40.6767C6.5607 40.7483 6.80427 40.3637 6.73225 40.281C6.66155 40.1983 6.58435 40.2834 6.4964 40.238C6.40874 40.1925 6.59852 40.1363 6.39235 40.1193C6.18605 40.1022 5.62207 40.2493 5.54895 40.3357C5.39436 40.5189 5.64852 40.7111 5.10268 40.6436C5.07129 40.6396 5.17316 40.5384 5.05296 40.5282C4.38268 40.4735 3.69411 40.4549 3.01333 40.4248C2.7104 40.4122 2.4135 40.3468 2.14326 40.232C2.01995 40.1777 2.17074 40.1127 2.10215 40.0799C1.43262 39.6841 1.60634 39.9697 1.09616 39.844C1.36559 39.6926 1.25184 39.4395 0.953097 38.9748C0.786034 38.6823 0.709605 38.7865 0.540696 38.5985C0.487746 38.5394 0.500566 38.2689 0.438208 38.2353C0.235117 38.1135 0.0230756 38.4123 0.0684359 37.7001C0.0684706 37.6998 0.0685053 37.6995 0.06854 37.6993C0.0699462 37.6897 0.0836655 37.6942 0.101115 37.7001C0.124075 37.7087 0.153513 37.7193 0.16981 37.7001C0.176281 37.6931 0.180698 37.6819 0.181845 37.6646C0.222704 37.0552 0.0257424 36.9822 0.00188985 36.3235C-0.0168263 35.8071 0.103279 34.8888 0.122812 34.3008C0.438127 34.3132 0.365924 33.7578 0.14852 33.5326C0.157421 33.151 0.145131 32.7389 0.17518 32.3701C0.185425 32.2431 0.276717 32.3265 0.286581 32.3105C0.44132 32.0651 0.22981 31.8992 0.221518 31.8169C0.140913 30.9242 0.30122 30.1969 0.144553 29.345C0.13891 29.3148 -0.0801168 29.2658 0.0798071 29.0381C0.0908309 29.0233 0.190484 29.3047 0.19819 28.904C0.205914 28.5032 0.323329 27.7476 0.221835 27.1911C0.197402 27.0565 0.019596 26.7159 0.158518 26.4425C0.177382 26.4061 0.2402 26.446 0.275156 26.3934C0.386538 26.2235 0.165156 26.1307 0.353232 25.931C0.541298 25.7312 0.682147 25.3157 0.552389 24.7546C0.548616 24.7367 0.37315 24.6039 0.375924 24.4274C0.380504 24.1457 0.417057 23.7458 0.415914 23.4516C0.415304 23.3108 0.306348 23.4009 0.304355 23.3765C0.2433 22.4295 0.340433 21.7555 0.382589 20.7411C0.390533 20.5551 0.241955 20.0207 0.35942 19.6606C0.488009 19.2653 1.02292 19.6716 0.895478 18.7629C0.844506 18.3964 0.165879 17.9324 0.517477 17.2738C0.430353 15.9965 0.610299 14.8152 0.485897 13.5343C0.480386 13.4767 0.290986 13.2945 0.293564 13.1591C0.297757 12.9581 0.386279 12.8477 0.392111 12.7042C0.418775 12.1027 0.343038 11.5522 0.354818 10.9723C0.359099 10.7521 0.45063 10.8291 0.455746 10.5665C0.460776 10.304 0.340247 10.129 0.398458 9.77336C0.442829 9.50475 0.689187 9.23619 0.717903 8.87966C0.474898 8.86607 0.479903 8.6212 0.415756 8.18598C0.40331 8.10232 0.318731 8.19203 0.308481 8.15245C0.264889 7.9914 0.334986 7.84235 0.287533 7.68942C0.276137 7.65221 0.193149 7.65046 0.179148 7.62005C0.0569326 7.36144 0.243605 6.93539 0.276108 6.8622C0.399545 6.58175 0.29161 6.45069 0.340219 6.23558C0.388821 6.02081 0.449579 6.34193 0.479073 6.09106C0.540078 5.57105 0.526676 4.9029 0.530489 4.37477C0.531499 4.16405 0.420723 4.30781 0.418295 4.27766C0.410097 4.15052 0.414323 4.02296 0.418939 3.90005C0.429774 3.59918 0.496069 3.34863 0.396507 3.13405C1.04022 3.03173 0.391479 2.84315 0.850837 2.33865C0.890437 2.30121 1.13399 2.42137 1.06915 2.58229C1.00709 2.74034 0.807897 2.93438 0.794512 3.18187C0.783353 3.24634 0.966003 3.59301 0.982749 3.62499C1.02068 3.76995 0.962016 3.8452 0.880575 3.90005C0.789347 3.97295 0.670605 3.99303 0.65887 4.00365C0.41989 4.23097 0.692259 4.66418 0.71108 4.77827C0.797315 5.30016 0.740614 5.74357 0.802168 6.18008C0.841951 6.46558 1.10605 6.4935 1.09797 6.71768C1.07125 7.46292 0.702826 7.72305 1.02227 8.4253C1.0904 8.57588 1.37906 8.42624 1.15208 8.96579C1.13777 8.99969 0.930129 9.40028 1.06147 9.63173C1.07803 9.6608 1.16215 9.65987 1.16922 9.69821C1.21493 9.95512 1.14791 10.1265 1.18001 10.4063C1.21211 10.6862 1.25996 11.0227 1.23143 11.3422C1.21437 11.5348 1.05763 11.7819 1.01926 11.8741C0.908716 12.1343 1.08996 12.4134 0.956098 12.5747C0.821565 12.7373 0.617256 12.4194 0.530331 12.8458C0.748892 12.8616 0.973223 12.8979 1.19302 12.9233C1.18533 13.8577 1.11465 14.7772 1.12431 15.7147C1.12573 15.831 1.24323 15.7121 1.24777 15.8367C1.26644 16.3625 1.18268 16.8217 1.21603 17.3669C1.2423 17.7889 1.36671 18.2517 1.39805 18.693C1.14796 18.9625 1.23286 19.6173 1.21 20.093C1.20211 20.2597 1.13531 20.2485 1.11352 20.367C1.03293 20.8141 1.25393 20.6046 1.28871 20.7272C1.43715 21.253 0.936915 21.298 0.949275 21.918C0.94976 21.9508 1.21641 22.3523 1.23301 22.4076C1.34129 22.759 1.1402 22.4658 1.1205 22.6857C1.0845 23.0872 1.02082 23.3661 1.09892 23.8372C1.12205 23.9745 1.28825 24.304 1.1597 24.5708C1.14287 24.6059 1.05473 24.5865 1.04957 24.6147C0.963528 25.1259 1.24047 25.1394 1.33426 25.4315C1.42803 25.7237 1.23686 26.175 1.18176 26.2668C1.03922 26.5071 1.12084 26.0827 1.10685 26.0697C0.940394 25.9168 0.969053 26.246 0.954987 26.4975C0.683446 26.5339 0.699745 26.8856 0.941499 26.7582C0.967905 26.7437 0.942582 26.548 0.954987 26.4975C1.22141 26.7182 1.25553 27.1047 1.00656 27.5316C0.889876 27.7315 0.753826 27.5425 0.803596 28.1496C0.826064 28.4251 1.01303 28.3186 1.06401 28.5617C1.18031 29.1172 1.0059 29.8389 1.03338 30.4116C1.04336 30.6194 1.1457 30.4169 1.15605 30.559C1.18382 30.9359 1.10703 31.2683 1.14637 31.6469C1.15006 31.6812 1.2572 31.5974 1.25856 31.7151C1.27101 32.6076 1.20238 33.3846 1.20048 34.3164C1.19961 34.7666 1.2587 35.5715 1.24682 36.0379C1.23397 36.5584 1.16479 37.1561 1.12727 37.7001C1.10602 37.9202 1.13506 38.1325 1.20476 38.2988C1.34286 38.5988 1.42281 38.4802 1.54494 38.5576C1.76579 38.6892 1.90114 39.1439 1.95191 39.2171C1.95141 39.2236 1.71736 39.066 1.79924 39.2041C1.80015 39.3517 1.95068 39.2165 1.95191 39.2171C1.95864 39.2777 2.45916 39.5473 2.5809 39.5307C2.64216 39.5331 2.6308 39.4265 2.66074 39.4288C2.77909 39.4372 2.89669 39.4352 3.01333 39.4236C3.87544 39.3664 4.74009 39.3552 5.61369 39.3947C5.63217 39.3967 5.60433 39.5103 5.6478 39.5137C6.25563 39.5642 6.64484 39.4253 7.14615 39.3428C7.64738 39.2603 8.04488 39.288 8.3416 39.4829C8.71979 39.4584 9.26238 39.5446 9.57462 39.5968C9.88684 39.6491 9.93041 39.4281 9.95788 39.4237C10.8147 39.2838 11.3101 39.4104 12.199 39.4301C12.6217 39.4398 13.46 39.4077 13.9176 39.3836C14.2793 39.3641 14.4972 39.4159 14.8304 39.3828C14.8755 39.3783 14.83 39.2799 14.8437 39.2761C15.2156 39.1584 15.0369 39.399 15.1137 39.442C15.3921 39.5982 15.564 39.6815 16.0403 39.608C16.1502 39.5911 16.4702 39.2447 16.6704 39.2244C16.9308 39.1987 16.8325 39.3229 17.1051 39.2928C17.1284 39.2903 17.1236 39.2137 17.2918 39.2171C18.0728 39.2318 18.9243 39.2764 19.7359 39.2687C19.8468 39.2679 19.7046 39.1464 19.8648 39.1433C20.6164 39.1289 21.4402 39.1334 22.1725 39.1903C22.3527 39.2047 22.2397 39.2897 22.2788 39.315C22.519 39.4679 22.8597 39.2458 22.9159 39.2415C24.2565 39.1348 25.2826 39.3358 26.649 39.2401C26.7234 39.2345 27.296 38.9964 27.5514 39.2006C27.5689 39.2142 27.8216 39.4231 28.0451 39.2803C28.059 39.2713 27.9015 39.1638 28.1763 39.1747C28.4511 39.1857 28.8934 39.1138 29.2712 39.232C29.3908 39.2692 29.6734 39.4776 30.0302 39.3115C30.0534 39.2999 30.6041 38.9243 30.8007 39.1835C30.8326 39.2261 30.7992 39.5004 31.225 39.3598C31.3064 39.3325 31.1587 39.2713 31.373 39.2331C31.7014 39.1743 32.1365 39.2477 32.5401 39.1255C32.6105 39.1039 32.9102 38.9178 33.1506 39.059C33.1882 39.0812 33.1167 39.1727 33.2436 39.183C33.8473 39.2321 34.4794 39.1709 35.0923 39.2342C35.3094 39.2565 35.1984 39.4045 35.4247 39.4442C35.651 39.4838 36.107 39.522 36.3438 39.4543C36.5807 39.3867 36.3219 39.1508 36.6768 39.1319C36.7223 39.1295 36.7678 39.1272 36.8133 39.1252C37.5457 39.084 38.2814 38.5158 38.3144 37.7001C38.3175 37.57 38.3201 37.4398 38.3218 37.3096C38.3248 37.0811 38.2404 37.2705 38.2388 36.9338C38.2325 35.6925 38.1534 33.5494 38.3328 32.4723C38.4764 31.6093 38.5858 32.6953 38.6443 32.0358C38.6722 31.7176 38.3979 31.3733 38.3893 31.2965C38.3015 30.546 38.423 30.0245 38.3858 29.349C38.378 29.2095 38.2669 29.3463 38.2615 29.2276C38.2422 28.8221 38.2919 28.3959 38.2828 28.0084C38.2784 27.8346 38.1935 27.8666 38.2001 27.7067C38.2148 27.324 38.2505 26.9855 38.3301 26.6124C38.3373 26.5784 38.4429 26.8077 38.4469 26.5245C38.4529 26.0662 38.5314 25.4974 38.4504 24.9701C38.426 24.8137 38.2319 24.8075 38.3659 24.4712C38.3939 24.4007 38.6269 24.4907 38.4256 24.099C38.3921 24.0331 38.1206 23.375 38.2956 23.0521C38.3417 22.9669 38.5324 22.7494 38.5024 22.5613C38.4976 22.5358 38.3934 22.638 38.3832 22.4821C38.3492 21.9327 38.3603 21.3569 38.3277 20.7924C38.3188 20.6417 38.2109 20.8662 38.201 20.6415C38.1738 20.0238 38.2012 19.2525 38.235 18.6484C38.2477 18.4256 38.337 18.5796 38.3467 18.5634C38.5049 18.3028 38.2914 18.1487 38.279 18.0622C38.2044 17.5242 38.3047 17.1146 38.2782 16.6188C38.2711 16.4819 38.1693 16.5789 38.1603 16.5517C38.0716 16.2692 38.2544 16.4796 38.2745 16.3008C38.3316 15.7999 38.3234 15.2414 38.3104 14.7348C38.3055 14.5487 38.1874 14.7579 38.1844 14.5909C38.1641 13.6025 38.1753 12.575 38.2404 11.6104C38.2529 11.4287 38.3437 11.543 38.3645 11.5052C38.5097 11.2443 38.3116 10.8619 38.2928 10.7739C38.2066 10.3739 38.287 10.2185 38.272 9.86518C38.1973 8.13933 38.2505 6.0084 38.2834 4.3793C38.2866 4.2169 38.2901 4.05727 38.2938 3.90005C38.3363 3.05829 37.647 2.32653 36.8133 2.32248C36.4143 2.31902 36.0066 2.31895 35.5823 2.32365C35.4536 2.32496 35.5833 2.44586 35.4724 2.44854C34.0405 2.47768 32.6307 2.43044 31.1959 2.46536C31.0781 2.46801 31.2479 2.58262 31.0589 2.59073C30.6712 2.60816 30.1802 2.60193 29.7883 2.56534C29.5971 2.5477 29.8535 2.44936 29.6611 2.43362C29.2131 2.39675 28.7328 2.38859 28.2726 2.40696C28.0767 2.41503 28.3722 2.53225 28.1177 2.5336C26.3836 2.54523 24.6806 2.56541 22.9283 2.41363C22.8082 2.4032 22.7028 2.16498 22.4474 2.21066C22.4281 2.27678 22.4292 2.35455 22.4208 2.42521C19.8965 2.46328 17.398 2.38069 14.8666 2.36793C14.7599 2.36741 14.9443 2.49364 14.7377 2.49329C13.5418 2.49142 12.3804 2.52639 11.1571 2.40093C11.0357 2.38866 11.098 2.1666 10.7403 2.20019C10.6772 2.20632 10.1385 2.23593 9.99925 2.28414C9.98033 2.29141 10.0786 2.39506 9.90503 2.39808C8.89623 2.41382 7.83906 2.39015 6.83201 2.32682C6.66948 2.31641 6.84257 2.20603 6.7268 2.19765C5.90565 2.13906 5.01247 2.22296 4.22781 2.12275C3.70259 2.05527 3.89704 1.86447 3.61795 1.67667C3.57847 1.65017 3.25324 1.64597 3.23642 1.5367C3.19325 1.26193 3.35078 0.961064 3.28614 0.668187C3.27248 0.605104 2.83691 0.673048 3.0948 0.520604C3.11281 0.510402 3.4286 0.459807 3.50638 0.408092C3.56054 0.372338 3.46295 0.261211 3.57344 0.215442C3.68392 0.169715 3.80532 0.262868 3.98849 0.209094C4.17158 0.154654 4.09108 0.0282345 4.45673 0.0132695ZM10.9805 39.8306C11.2696 39.9368 11.3122 39.5479 10.9996 39.641C10.9844 39.6459 10.9656 39.8254 10.9805 39.8306ZM0.82137 14.7719C0.649871 15.1499 0.902042 15.4085 1.03449 15.1419C1.1668 14.8753 0.873357 14.6568 0.82137 14.7719ZM0.696163 10.8526C0.560944 11.2943 1.11231 11.3639 1.00085 10.8908C0.99455 10.8633 0.704014 10.8268 0.696163 10.8526ZM4.91225 1.62319C4.90826 1.61803 4.67447 1.61299 4.66888 1.61811C4.54439 1.7416 5.01187 1.75158 4.91225 1.62319ZM0.559847 6.96337C0.485263 7.10126 0.571361 7.49831 0.664107 7.32697C0.738718 7.18904 0.652626 6.79162 0.559847 6.96337ZM26.0617 40.2456C26.0663 40.2514 26.2339 40.2566 26.2305 40.2238C26.2191 40.1183 25.9859 40.1481 26.0617 40.2456ZM2.50829 1.49209C2.05669 1.57333 1.67564 1.67789 1.49334 1.66909C1.31722 1.67232 1.3335 1.47131 1.88706 1.24363C2.0781 1.16548 1.54499 1.56805 1.79979 1.48936C2.23083 1.36195 2.49629 1.00304 3.00439 1.1438C3.07846 1.16177 2.54374 1.47001 2.50681 1.49304C2.5073 1.49272 2.5078 1.49241 2.50829 1.49209ZM11.147 40.2976C11.1527 40.3028 11.3848 40.3076 11.3903 40.3025C11.516 40.1791 11.0486 40.1692 11.147 40.2976ZM35.8421 40.486C35.8549 40.4969 36.3933 40.5072 36.4109 40.4971C36.6918 40.2952 35.6032 40.2739 35.8421 40.486ZM0.131223 34.2916C0.0070411 34.0384 -0.00757992 33.7355 0.148362 33.5337C0.140083 33.7853 0.138864 34.0386 0.131223 34.2916Z" fill="#07596E"/>
<path d="M9.52399 12.4186C9.63951 12.4037 9.79093 12.3856 9.90601 12.3755C9.94208 12.3723 9.92381 12.3783 9.94871 12.3764C9.9974 12.3731 10.0428 12.3662 10.0909 12.3636C10.1068 12.3628 10.087 12.3725 10.1037 12.3717C10.1953 12.3673 10.282 12.3579 10.3748 12.3523C10.8321 12.3266 11.2815 12.3065 11.7443 12.291C11.8969 12.2855 12.0824 12.2995 12.24 12.2823C12.2584 12.2802 12.2475 12.2574 12.251 12.2553C12.3059 12.2227 12.2876 12.271 12.3235 12.2758C12.4658 12.2945 12.624 12.2922 12.7609 12.2765C12.8192 12.2698 12.7608 12.219 12.8194 12.2463C12.8235 12.2481 12.8087 12.2773 12.8247 12.2798C12.8609 12.2853 12.9297 12.2777 12.9578 12.279C13.0119 12.2818 13.0208 12.2812 13.072 12.2798C13.142 12.2781 13.2252 12.291 13.3003 12.2816C13.3163 12.2794 13.2951 12.2477 13.3207 12.2412C13.3463 12.2347 13.4139 12.2348 13.4368 12.2418C13.4596 12.2488 13.4499 12.2754 13.4539 12.2813C13.4871 12.3314 13.5654 12.2584 13.5755 12.256C13.7591 12.2191 13.9166 12.2558 14.089 12.2514C14.2198 12.2477 14.3598 12.2286 14.4843 12.2271C14.6326 12.2256 14.7584 12.2443 14.9025 12.2372C14.9177 12.2365 14.8999 12.1886 14.9184 12.1875C15.1158 12.1763 15.3118 12.1756 15.5083 12.206C15.528 12.2091 15.5026 12.2549 15.5223 12.2608C15.6428 12.2952 15.8336 12.3868 15.9052 12.1818C15.9868 12.188 16.086 12.1942 16.159 12.2349C16.2061 12.2612 16.1604 12.3139 16.2182 12.291C16.2313 12.2859 16.2143 12.2404 16.2339 12.2361C16.3163 12.2181 16.4063 12.2318 16.4878 12.2065C16.5044 12.2013 16.4999 12.1596 16.5046 12.152C16.544 12.0901 16.6098 12.1899 16.6241 12.1972C16.7332 12.2507 16.8129 12.2282 16.9145 12.2283C16.9381 12.2284 16.9102 12.1712 16.9329 12.1691C17.0506 12.1591 17.1725 12.1622 17.2878 12.1868C17.3134 12.1924 17.2898 12.2426 17.3021 12.2479C17.3561 12.2707 17.3681 12.1759 17.4199 12.1958C17.4308 12.1999 17.4247 12.2429 17.4267 12.2477C17.4578 12.3216 17.4849 12.2162 17.4929 12.2138C17.5944 12.1808 17.6592 12.2908 17.7572 12.2747C17.769 12.2726 17.7425 12.2176 17.7755 12.2151C17.9951 12.1981 18.2273 12.2114 18.4446 12.2556C18.4784 12.2623 18.4543 12.3047 18.4564 12.3099C18.4911 12.3913 18.5135 12.2821 18.5245 12.2779C18.6114 12.2479 18.6926 12.3396 18.7517 12.2087C19.0471 12.2441 19.3414 12.2033 19.6348 12.2469C19.707 12.2576 19.7792 12.2735 19.8514 12.2968C19.856 12.2982 19.8477 12.3526 19.8569 12.3551C19.9685 12.3857 19.947 12.3011 20.0208 12.1978C20.0394 12.1719 20.096 12.2968 20.101 12.3059C20.1192 12.3396 20.1003 12.4204 20.1064 12.427C20.1569 12.4782 20.1487 12.2109 20.2168 12.211C20.2189 12.2114 20.21 12.2606 20.2157 12.2655C20.2335 12.2809 20.2511 12.2614 20.2685 12.2783C20.3082 12.3176 20.3224 12.4471 20.3832 12.3718C20.3909 12.362 20.3791 12.2108 20.44 12.2181C20.4642 12.2212 20.5716 12.219 20.6016 12.2289C20.6317 12.2388 20.6111 12.2872 20.6132 12.2893C20.6942 12.3537 20.6635 12.3802 20.704 12.4751C20.7446 12.5695 20.7333 12.3442 20.7499 12.3192C20.7664 12.2941 20.8258 12.3471 20.8404 12.3654C20.855 12.3838 20.8368 12.4144 20.8497 12.4248C20.9357 12.4925 20.8875 12.3134 20.9158 12.2779C20.9826 12.194 21.0346 12.3603 21.0957 12.3766C21.1123 12.381 21.0988 12.3433 21.1135 12.3398C21.1718 12.3265 21.2069 12.3781 21.2733 12.3311C21.2841 12.3234 21.3378 12.2249 21.3725 12.2976C21.3774 12.308 21.3635 12.3489 21.3883 12.3581C21.4255 12.372 21.4924 12.381 21.5323 12.3675C21.5618 12.3576 21.528 12.2904 21.5651 12.3114C21.5816 12.3208 21.551 12.3598 21.582 12.3741C21.6128 12.3884 21.6916 12.3868 21.7216 12.3855C21.7515 12.3842 21.7351 12.3337 21.7376 12.3303C21.7522 12.3109 21.8096 12.287 21.8147 12.2871C22.0707 12.2832 22.3068 12.3676 22.556 12.3416C22.5756 12.3397 22.5625 12.2886 22.5655 12.2878C22.6325 12.267 22.5797 12.4021 22.6265 12.4474C22.6197 12.3442 22.6473 12.363 22.6945 12.352C22.7172 12.3466 22.7048 12.3068 22.7069 12.3028C22.7406 12.2428 22.7641 12.3209 22.7701 12.3368C22.7925 12.3953 22.8168 12.3265 22.832 12.3655C22.8471 12.4041 22.8122 12.4614 22.8574 12.4606C22.8701 12.4243 22.8365 12.329 22.8709 12.3139C23.0005 12.2571 23.2424 12.3337 23.3466 12.3415C23.4505 12.3498 23.4841 12.3437 23.5447 12.3566C23.6542 12.3799 23.6141 12.3129 23.682 12.2836C23.7502 12.2544 23.7171 12.416 23.7269 12.4509C23.7365 12.4857 23.747 12.4499 23.7589 12.4689C23.7709 12.488 23.745 12.5117 23.7731 12.5187C23.8012 12.5255 23.8779 12.4638 23.8878 12.4281C23.9089 12.3522 23.8743 12.2722 23.9485 12.3012C23.9528 12.3029 23.9389 12.3445 23.9553 12.3488C24.0852 12.382 24.2201 12.3848 24.3498 12.4126C24.3677 12.4164 24.3517 12.4609 24.3621 12.4636C24.4702 12.4916 24.4316 12.4169 24.4908 12.3355C24.4775 12.4446 24.5103 12.5114 24.5923 12.5111C24.6417 12.5111 24.6332 12.4643 24.6651 12.4314C24.6746 12.4215 24.7095 12.4535 24.7159 12.4317C24.7367 12.3605 24.7039 12.2805 24.7885 12.3136C24.7922 12.3151 24.7804 12.3536 24.7932 12.3561C24.8761 12.3722 24.886 12.2991 24.9756 12.2924C25.0459 12.2872 25.1708 12.3329 25.2508 12.3407C25.2491 12.4518 25.3246 12.4259 25.3553 12.3513C25.4072 12.355 25.4632 12.3517 25.5134 12.3625C25.5307 12.3662 25.5193 12.3968 25.5215 12.4002C25.5549 12.4523 25.5775 12.3815 25.5887 12.379C25.7101 12.3541 25.809 12.4066 25.9249 12.3585C25.929 12.3568 25.9357 12.2885 25.9667 12.339C25.9687 12.3424 25.9304 12.373 25.9849 12.3761C26.0394 12.3795 26.1422 12.4156 26.2179 12.3862C26.2362 12.379 26.2826 12.328 26.3198 12.3691C26.3247 12.3746 26.3193 12.3927 26.3264 12.4029C26.3496 12.4351 26.3622 12.3718 26.3894 12.4257C26.4165 12.4797 26.473 12.5178 26.5494 12.4811C26.5518 12.48 26.5699 12.4318 26.5939 12.4327C26.6322 12.4341 26.6866 12.4439 26.7266 12.4436C26.7458 12.4434 26.7335 12.4148 26.7369 12.4143C26.8657 12.3995 26.9574 12.4255 27.0954 12.4356C27.1207 12.4372 27.1934 12.4034 27.2423 12.4306C27.2961 12.4597 27.2409 12.5812 27.3645 12.5484C27.4143 12.534 27.4774 12.3912 27.567 12.4641C27.7408 12.4464 27.9015 12.4777 28.0757 12.4548C28.0836 12.4538 28.1083 12.4229 28.1268 12.4236C28.1541 12.4246 28.1691 12.4387 28.1887 12.4396C28.2705 12.4436 28.3454 12.4327 28.4243 12.4349C28.4542 12.4356 28.4437 12.4479 28.4795 12.4485C28.5152 12.4488 28.539 12.4336 28.5874 12.441C28.6239 12.4468 28.6604 12.4754 28.7089 12.4771C28.7108 12.4497 28.7441 12.4499 28.8033 12.4431C28.8147 12.4418 28.8025 12.433 28.8079 12.432C28.8298 12.4277 28.85 12.435 28.8708 12.4305C28.8759 12.4294 28.8761 12.4213 28.8803 12.42C28.9155 12.4091 28.9734 12.428 28.9834 12.4307C29.0215 12.4419 29.0393 12.4326 29.0686 12.4369C29.0978 12.441 29.0541 12.4459 29.0883 12.4481C29.159 12.4524 29.2499 12.4501 29.3217 12.4497C29.3504 12.4495 29.3309 12.4433 29.335 12.4432C29.3942 12.4419 29.4542 12.4468 29.487 12.4374C29.5281 12.4614 29.5228 12.4352 29.6075 12.4407C29.6142 12.4412 29.6227 12.4492 29.5971 12.4511C29.5714 12.4532 29.5326 12.4509 29.497 12.4542C29.4886 12.4547 29.4404 12.468 29.4338 12.4694C29.3823 12.4783 29.375 12.4573 29.3722 12.4561C29.3413 12.4434 29.2824 12.4596 29.2669 12.4617C29.1959 12.4694 29.1355 12.4674 29.0762 12.4742C29.0373 12.4786 29.0335 12.5012 29.003 12.5024C28.9017 12.5073 28.8663 12.4703 28.7707 12.5081C28.7502 12.5164 28.7706 12.5471 28.6972 12.5267C28.6926 12.5257 28.6381 12.5041 28.6066 12.5214C28.6027 12.5236 28.6028 12.5338 28.5976 12.535C28.5626 12.5429 28.5393 12.536 28.5012 12.5425C28.4632 12.5491 28.4174 12.5589 28.3739 12.5579C28.3477 12.5574 28.3141 12.5367 28.3016 12.5316C28.2662 12.5169 28.2282 12.546 28.2063 12.5266C28.1842 12.5064 28.2274 12.4741 28.1694 12.4613C28.1672 12.4956 28.1623 12.5311 28.1589 12.5661C28.0317 12.5731 27.9067 12.5679 27.7791 12.5764C27.7633 12.5776 27.7795 12.5987 27.7625 12.6007C27.691 12.609 27.6285 12.5962 27.5544 12.6073C27.497 12.6159 27.434 12.6463 27.374 12.6576C27.3373 12.6056 27.2482 12.6288 27.1835 12.6275C27.1608 12.627 27.1624 12.6113 27.1462 12.607C27.0854 12.5909 27.1139 12.6419 27.0973 12.6511C27.0257 12.6915 27.0196 12.5708 26.9353 12.5764C26.9308 12.5765 26.8762 12.6459 26.8687 12.6508C26.8209 12.6811 26.8607 12.6277 26.8308 12.6241C26.7762 12.6176 26.7383 12.6022 26.6742 12.6258C26.6555 12.6326 26.6107 12.68 26.5744 12.6469C26.5696 12.6425 26.5723 12.6183 26.5684 12.617C26.4989 12.5961 26.497 12.6728 26.4573 12.7016C26.4176 12.7306 26.3562 12.6798 26.3437 12.6643C26.311 12.6247 26.3687 12.6457 26.3705 12.6415C26.3913 12.5931 26.3465 12.6029 26.3123 12.6C26.3073 12.5215 26.2595 12.5269 26.2768 12.5973C26.2788 12.6049 26.3054 12.5967 26.3123 12.6C26.2823 12.6782 26.2297 12.6923 26.1716 12.6202C26.1444 12.5862 26.1701 12.5446 26.0875 12.5615C26.0501 12.5693 26.0646 12.626 26.0315 12.6429C25.9559 12.6821 25.8577 12.6315 25.7798 12.6427C25.7516 12.647 25.7791 12.679 25.7598 12.6831C25.7085 12.6944 25.6633 12.6711 25.6118 12.6861C25.6071 12.6876 25.6185 12.7226 25.6025 12.7238C25.4811 12.7339 25.3754 12.7153 25.2486 12.7197C25.1874 12.7218 25.0779 12.7476 25.0145 12.7461C24.9045 12.7439 24.7692 12.6903 24.6753 12.7075C24.614 12.7187 24.6275 12.7593 24.6012 12.7884C24.5506 12.8452 24.4609 12.7509 24.4488 12.7356C24.4485 12.7351 24.5012 12.7235 24.473 12.703C24.4567 12.6587 24.4494 12.7353 24.4488 12.7356C24.4409 12.726 24.3356 12.7197 24.3147 12.7285C24.3033 12.7333 24.3097 12.7734 24.3037 12.7752C24.1629 12.8165 24.0218 12.8333 23.879 12.8188C23.8765 12.818 23.8803 12.7708 23.8744 12.7695C23.7917 12.751 23.7387 12.8106 23.6705 12.8481C23.6024 12.8855 23.5483 12.8763 23.5079 12.7938C23.4565 12.8059 23.3827 12.7708 23.3402 12.749C23.2977 12.7272 23.2918 12.8239 23.2881 12.826C23.1715 12.8909 23.1041 12.8376 22.9832 12.832C22.9257 12.8292 22.8116 12.8466 22.7494 12.8593C22.7002 12.8695 22.6706 12.8466 22.6252 12.8629C22.6191 12.8651 22.6253 12.91 22.6234 12.9118C22.5728 12.9673 22.5971 12.8562 22.5867 12.8367C22.5488 12.7659 22.5254 12.7278 22.4606 12.7629C22.4457 12.7709 22.4022 12.9324 22.3749 12.9427C22.3395 12.9556 22.3529 12.8975 22.3158 12.9124C22.3126 12.9137 22.3133 12.9494 22.2904 12.9484C22.1841 12.9445 22.0683 12.9263 21.9579 12.9324C21.9428 12.9331 21.9622 12.9903 21.9404 12.9923C21.8381 13.0017 21.7261 13.0023 21.6264 12.977C21.6019 12.9706 21.6173 12.9293 21.612 12.9173C21.5793 12.8442 21.533 12.9521 21.5253 12.9543C21.3429 13.0096 21.2034 12.914 21.0175 12.9633C21.0074 12.9661 20.9295 13.0845 20.8947 12.9844C20.8923 12.9778 20.858 12.8752 20.8276 12.9459C20.8257 12.9504 20.8471 13.0032 20.8097 12.9982C20.7723 12.9933 20.7122 13.0295 20.6608 12.9716C20.6445 12.9534 20.6061 12.8504 20.5575 12.9332C20.5544 12.9389 20.4794 13.1261 20.4527 12.9977C20.4484 12.9765 20.4529 12.8402 20.395 12.9105C20.3839 12.9241 20.404 12.9544 20.3749 12.9736C20.3302 13.0032 20.271 12.967 20.2161 13.0283C20.2065 13.0391 20.1657 13.1322 20.133 13.0619C20.1279 13.0509 20.1377 13.0052 20.1204 13.0002C20.0383 12.9761 19.9523 13.007 19.8689 12.9755C19.8394 12.9644 19.8545 12.8904 19.8237 12.8707C19.7929 12.8509 19.7309 12.8319 19.6986 12.8657C19.6664 12.8996 19.7016 13.0175 19.6534 13.027C19.6472 13.0282 19.641 13.0293 19.6348 13.0303C19.4312 13.0639 19.2294 12.9978 19.0261 12.9867C18.995 12.985 19.0207 13.0273 18.9749 13.0277C18.8061 13.0299 18.5145 13.0654 18.368 12.975C18.2506 12.9028 18.3984 12.8507 18.3087 12.821C18.2654 12.807 18.2185 12.9411 18.2081 12.9451C18.106 12.9866 18.035 12.9261 17.9431 12.9428C17.9242 12.9463 17.9428 13.0007 17.9266 13.003C17.8715 13.0113 17.8135 12.9861 17.7608 12.9895C17.7371 12.9911 17.7415 13.0322 17.7197 13.0285C17.6677 13.0203 17.6216 13.0021 17.5709 12.9628C17.5663 12.9592 17.5974 12.9091 17.5589 12.9065C17.4966 12.9024 17.4192 12.8635 17.3475 12.9007C17.3262 12.9118 17.3254 13.0039 17.2796 12.9392C17.27 12.9257 17.2823 12.8157 17.229 12.9098C17.22 12.9256 17.1305 13.0511 17.0865 12.9676C17.075 12.9456 17.0454 12.8555 17.0198 12.869C17.0163 12.8712 17.0302 12.9203 17.009 12.9245C16.9343 12.9385 16.8559 12.9312 16.7792 12.944C16.7587 12.9475 16.7892 12.9983 16.7586 13.0018C16.6746 13.0116 16.5697 12.9953 16.4875 12.9771C16.4572 12.9703 16.4781 12.9306 16.4759 12.9261C16.4405 12.8534 16.4195 12.9493 16.4078 12.9545C16.3346 12.9854 16.2788 12.9384 16.2114 12.9478C16.1928 12.9503 16.206 12.996 16.2023 12.9999C16.1638 13.0377 16.1925 12.9577 16.1681 12.9479C16.1 12.9201 16.024 12.921 15.9551 12.9241C15.9298 12.9252 15.9583 12.9778 15.9355 12.9782C15.8011 12.9813 15.6613 12.9697 15.5301 12.9363C15.5054 12.93 15.5209 12.8925 15.5158 12.8835C15.4803 12.8212 15.4283 12.9021 15.4163 12.9093C15.3619 12.9426 15.3407 12.9083 15.2927 12.9123C15.0579 12.9318 14.768 12.8943 14.5464 12.8701C14.2576 12.8381 14.0335 12.7959 13.7581 12.7883C13.7406 12.7877 13.7583 12.8295 13.7432 12.8295C13.5484 12.8266 13.3566 12.7986 13.1614 12.7957C13.1454 12.7953 13.1685 12.8318 13.1428 12.8322C13.0901 12.8333 13.0233 12.8259 12.97 12.811C12.944 12.8038 12.9788 12.7779 12.9527 12.7714C12.8917 12.7564 12.8264 12.7498 12.7638 12.7504C12.7371 12.7507 12.7773 12.7862 12.7427 12.7839C12.5068 12.7688 12.2751 12.7513 12.0368 12.6971C12.0204 12.6933 12.0061 12.6384 11.9713 12.6465C11.9687 12.6611 11.9689 12.6785 11.9677 12.6942C11.6243 12.6739 11.2844 12.6278 10.9401 12.5969C10.9256 12.5955 10.9507 12.616 10.9226 12.6132C10.7599 12.5976 10.6019 12.584 10.4355 12.5548C10.419 12.552 10.4274 12.5304 10.3788 12.53C10.3702 12.5299 10.2969 12.5269 10.278 12.5294C10.2754 12.5298 10.2888 12.5402 10.2651 12.5382C10.1279 12.5263 9.9841 12.5094 9.84711 12.4933C9.825 12.4907 9.84855 12.4875 9.8328 12.4858C9.72109 12.4744 9.59959 12.4666 9.49285 12.456C9.4214 12.4495 9.44785 12.4491 9.40989 12.4459C9.40452 12.4455 9.36027 12.4439 9.35799 12.4436C9.35211 12.4429 9.37354 12.4414 9.36475 12.4406C9.36331 12.4405 9.32764 12.4429 9.32764 12.4429C9.32764 12.4429 9.32764 12.4429 9.32764 12.4429C9.32764 12.4429 9.33074 12.4427 9.33872 12.442C9.34117 12.4419 9.38413 12.4384 9.39471 12.4371C9.40208 12.4362 9.3888 12.4367 9.40383 12.4349C9.41886 12.4329 9.43537 12.4321 9.46029 12.4289C9.4852 12.4256 9.47425 12.425 9.52399 12.4186ZM23.1489 12.6503C23.1096 12.6039 23.1038 12.7763 23.1463 12.7342C23.1484 12.7319 23.151 12.6526 23.1489 12.6503ZM27.9074 12.5155C27.856 12.486 27.8208 12.5331 27.857 12.5558C27.8933 12.5777 27.923 12.524 27.9074 12.5155ZM28.4405 12.4811C28.3804 12.4635 28.371 12.5413 28.4353 12.5225C28.4391 12.5214 28.444 12.482 28.4405 12.4811ZM9.58596 12.4509C9.58541 12.4507 9.55361 12.4497 9.55285 12.4497C9.53591 12.4517 9.59951 12.4546 9.58596 12.4509ZM28.9696 12.456C28.9508 12.4494 28.8968 12.458 28.9201 12.4665C28.9389 12.473 28.993 12.4638 28.9696 12.456ZM21.0974 12.4696C21.0968 12.4667 21.074 12.4642 21.0744 12.4802C21.076 12.532 21.1077 12.5173 21.0974 12.4696ZM29.8688 12.4439C29.736 12.4472 29.6554 12.4336 29.8001 12.439C29.8263 12.4396 29.7436 12.4401 29.777 12.4413C29.838 12.4423 29.8785 12.4411 29.9408 12.4429C29.9521 12.4426 29.8764 12.4433 29.8686 12.4439C29.8687 12.4439 29.8687 12.4439 29.8688 12.4439ZM23.1263 12.4439C23.1255 12.4417 23.0939 12.4395 23.0932 12.4418C23.0761 12.4966 23.1397 12.5007 23.1263 12.4439ZM19.7669 12.3499C19.7652 12.3444 19.6919 12.3393 19.6895 12.3443C19.6513 12.4453 19.7994 12.4559 19.7669 12.3499ZM25.252 12.3437C25.2865 12.3006 25.3277 12.2969 25.3551 12.3512C25.3209 12.3478 25.2864 12.3469 25.252 12.3437Z" fill="#64E6F4"/>
<g filter="url(#filter0_f_38_797)">
<path d="M10.3384 12.5639C10.3139 12.5625 10.2792 12.551 10.2502 12.5476C10.1288 12.5327 10.0838 12.5236 9.97394 12.5105C9.81106 12.4933 9.32765 12.4399 9.32764 12.4429C9.32764 12.4429 9.32768 12.4429 9.32778 12.4429C9.32947 12.4431 9.37059 12.4445 9.37669 12.4439C9.38278 12.4432 9.37821 12.4401 9.43661 12.4347C9.52128 12.4266 9.7244 12.4181 9.76956 12.4162C9.80043 12.4142 9.83845 12.4084 9.87792 12.405C10.0052 12.3936 10.0718 12.3942 10.1865 12.3695C10.2324 12.3743 10.2782 12.3803 10.3241 12.3877C10.384 12.3796 10.4747 12.389 10.511 12.3869C10.5409 12.385 10.5583 12.3748 10.5894 12.3726C10.6243 12.3701 10.6779 12.3784 10.7413 12.374C10.8453 12.3668 10.8638 12.3356 10.9262 12.3273C10.9909 12.3185 11.0915 12.3306 11.174 12.3133C11.1844 12.3087 11.1947 12.3041 11.2051 12.2994C11.1977 12.2909 11.1902 12.2825 11.1828 12.2742C11.2244 12.2665 11.2423 12.2837 11.2805 12.2814C11.3255 12.2785 11.3484 12.2581 11.3786 12.2557C11.4034 12.2537 11.437 12.2666 11.4692 12.2633C11.516 12.2585 11.5058 12.2361 11.531 12.2296C11.541 12.2272 11.727 12.1975 11.7375 12.1962C11.8172 12.188 11.8242 12.223 11.8878 12.2216C12.0643 12.2178 12.2454 12.1735 12.4086 12.147C12.4815 12.1354 12.5576 12.1316 12.6302 12.1334C12.5158 12.2546 12.7691 12.3328 12.6743 12.1549C12.7552 12.1757 12.8125 12.1216 12.8892 12.1245C12.9388 12.1267 12.9731 12.1514 13.0439 12.1464C13.1695 12.1382 13.3069 12.0456 13.343 12.1937C13.4905 12.1593 13.6182 12.2112 13.6713 12.0679C13.7093 12.0565 13.8068 12.1356 13.8494 12.1457C13.8898 12.1542 14.1992 12.1817 14.2499 12.1827C14.3005 12.1832 14.3891 12.1827 14.4317 12.1674C14.4853 12.1491 14.5227 11.9806 14.6181 12.1715C14.729 12.152 14.7685 12.1559 14.8716 12.1761C14.8903 12.1798 14.8924 12.2097 14.9033 12.2094C14.9258 12.2088 14.964 12.1855 15.0041 12.1816C15.0701 12.1751 15.1077 12.2387 15.1004 12.1404C15.1439 12.1225 15.1874 12.1044 15.2309 12.0861C15.2461 12.1048 15.2614 12.1236 15.2766 12.1425C15.2999 12.1207 15.3231 12.0988 15.3464 12.0767C15.3191 12.2236 15.4827 12.1327 15.4296 12.0496C15.5139 12.0769 15.5982 12.1051 15.6825 12.134C15.6707 12.3056 15.8676 12.1499 15.851 12.0551C15.8606 12.0549 15.8703 12.0548 15.8799 12.0546C15.9644 12.0984 16.0419 12.0581 16.1449 12.0868C16.2478 12.1159 16.2381 12.1337 16.2694 12.2156C16.2936 12.2105 16.3179 12.2053 16.3421 12.2002C16.4692 11.9693 16.4467 12.3664 16.6643 12.1868C16.7339 12.3317 16.9053 12.254 17.0189 12.2071C17.0321 12.2017 17.0324 12.1728 17.05 12.1636C17.093 12.1414 17.2029 12.1773 17.1991 12.0833C17.2372 12.1098 17.2752 12.1365 17.3132 12.1634C17.3443 12.1458 17.3754 12.1282 17.4065 12.1104C17.4064 12.0808 17.4062 12.0511 17.406 12.0215C17.4686 12.1215 17.567 12.0813 17.6155 12.1049C17.6252 12.1097 17.6273 12.151 17.6573 12.1619C17.6924 12.1749 17.7577 12.162 17.7995 12.1746C17.8158 12.1284 17.832 12.0821 17.8483 12.0358C17.9231 12.0097 17.9493 12.1314 17.9932 12.1405C18.0011 12.1421 18.1453 12.1319 18.1531 12.1292C18.2167 12.1079 18.1987 12.0031 18.3826 12.0237C18.4154 12.0274 18.4419 12.0637 18.4715 12.0649C18.5238 12.0671 18.6814 11.9829 18.6938 11.9058C18.7572 12.0014 18.927 11.9609 18.977 11.9886C18.9921 11.9971 18.9955 12.0586 19.0419 12.0715C19.0795 12.082 19.1763 12.0323 19.224 12.0404C19.2746 12.0493 19.2927 12.1011 19.3154 12.1047C19.3368 12.1081 19.3565 12.0662 19.3857 12.0663C19.4769 12.0676 19.5594 12.135 19.6315 12.1363C19.6326 12.1363 19.6337 12.1363 19.6348 12.1363C19.7376 12.1356 19.8286 12.0137 19.9149 11.9594C19.9365 11.9675 19.9578 11.9942 19.9805 11.9945C20.2611 11.9992 20.5777 12.0241 20.8592 12.0529C20.9898 12.0664 21.3148 12.2339 21.2281 11.9588C21.2735 11.9116 21.6037 12.027 21.6665 12.0294C21.7292 12.0321 21.779 11.9847 21.8284 11.985C21.9773 11.986 22.0822 12.0222 22.2635 11.9854C22.3103 11.9757 22.3605 11.9215 22.3882 11.923C22.4216 11.9249 22.4575 11.9794 22.5008 11.9839C22.6039 11.9942 22.7961 11.9824 22.8951 11.9946C22.9132 11.9969 22.9195 12.0426 22.9453 12.0575C23.046 12.1156 23.1587 12.1132 23.1388 11.9697C23.2678 12.0551 23.3871 11.9853 23.5066 11.9859C23.7593 11.9872 24.2196 12.0367 24.4398 11.9946C24.5786 11.9682 24.575 11.9133 24.7794 11.9731C24.8248 11.9863 24.8699 12.003 24.925 12.0183C25.0539 12.0553 25.1723 12.155 25.2706 12.0469C25.4138 12.0842 25.5279 12.0719 25.6342 12.1688C25.6467 12.1475 25.6592 12.1263 25.6718 12.1052C25.6893 12.1057 25.7069 12.1062 25.7245 12.1067C25.7299 12.1276 25.7354 12.1485 25.7409 12.1693C25.8667 12.18 26.0263 12.1078 26.1328 12.1163C26.3114 12.1293 26.7713 12.1893 26.9406 12.2202C27.0305 12.2367 27.0353 12.2048 27.0868 12.2742C27.1069 12.2706 27.127 12.2671 27.1471 12.2636C27.1597 12.25 27.1723 12.2366 27.1848 12.2233C27.3002 12.2308 27.4369 12.2605 27.5468 12.267C27.747 12.2777 28.0476 12.2716 28.2486 12.3048C28.2991 12.3129 28.3621 12.3352 28.4114 12.3379C28.4833 12.3419 28.5007 12.3158 28.5919 12.3231C28.749 12.3372 29.0417 12.3824 29.1902 12.3894C29.2343 12.392 29.2549 12.3884 29.2853 12.3903C29.413 12.3984 29.5179 12.4063 29.6404 12.414C29.7719 12.4316 29.7605 12.4336 29.8013 12.439C29.8321 12.4437 29.9269 12.4447 29.9403 12.443C29.9497 12.4423 29.9145 12.445 29.9277 12.4442C29.7702 12.4593 29.704 12.4667 29.576 12.4691C29.3398 12.486 29.1035 12.5028 28.8673 12.5194C28.8458 12.5137 28.8243 12.5075 28.8028 12.501C28.8028 12.501 28.8028 12.501 28.8028 12.5009C28.7121 12.496 28.6736 12.5185 28.6247 12.5268C28.1562 12.6119 27.2342 12.6366 26.7185 12.6393C26.6074 12.6416 26.2459 12.6882 26.1696 12.6565C26.1499 12.6482 26.1444 12.6148 26.1234 12.614C25.9357 12.6406 25.7481 12.6692 25.5604 12.6995C25.1745 12.656 24.7756 12.7179 24.3868 12.7434C23.3348 12.8074 22.2933 12.8792 21.2585 12.8804C21.0585 12.8805 20.8047 12.9248 20.6089 12.8997C20.5272 12.8893 20.4932 12.8001 20.3858 12.8674C20.3847 12.8433 20.3836 12.8192 20.3825 12.7951C20.2888 12.8247 20.2289 12.8799 20.1239 12.886C20.0355 12.891 19.8015 12.8952 19.7233 12.8859C19.6828 12.8813 19.6979 12.836 19.6601 12.8363C19.6526 12.8363 19.6441 12.8373 19.6348 12.8388C19.564 12.8507 19.4468 12.8995 19.3679 12.8993C19.287 12.8991 19.1507 12.8466 19.0885 12.8538C18.8646 12.8797 18.6206 12.9544 18.382 12.9311C18.3161 12.9245 18.2313 12.8658 18.2107 12.8672C18.1703 12.8701 18.1583 12.9258 18.1312 12.9326C17.9936 12.9668 17.7792 12.8972 17.6443 12.8924C17.2049 12.8766 16.7393 12.8888 16.3017 12.866C16.0253 12.8524 15.5659 12.8445 15.3107 12.7998C15.2556 12.7902 15.2703 12.7395 15.2241 12.7381C15.1728 12.7366 15.1451 12.77 15.1212 12.7718C14.9554 12.7861 14.5895 12.8029 14.433 12.7637C14.4032 12.7562 14.3816 12.7191 14.3637 12.7186C14.3547 12.7183 14.3343 12.7421 14.3059 12.7434C14.0555 12.755 13.8729 12.7319 13.6276 12.7133C13.1577 12.6793 12.6132 12.6851 12.1196 12.6379C12.012 12.6276 11.9383 12.5808 11.9231 12.5807C11.8899 12.5801 11.8687 12.6075 11.8015 12.6103C11.578 12.6181 11.277 12.5727 11.0644 12.5701C10.9594 12.5687 10.8151 12.5807 10.7117 12.5755C10.6292 12.5715 10.4342 12.5469 10.3976 12.5507C10.3754 12.5529 10.3651 12.5654 10.3384 12.5639ZM13.1193 12.1744C13.1046 12.2428 13.2591 12.1787 13.2011 12.1446C13.1881 12.1371 13.1231 12.1567 13.1193 12.1744ZM20.356 12.1924C20.3546 12.1604 20.3532 12.1284 20.3518 12.0964C20.3315 12.1096 20.3112 12.1228 20.2909 12.1361C20.3023 12.1554 20.3137 12.1747 20.3251 12.194C20.3354 12.1934 20.3457 12.1929 20.356 12.1924Z" fill="#64E6F4"/>
</g>
<path d="M29.7456 21.3815C29.6301 21.3964 29.4786 21.4144 29.3636 21.4245C29.3275 21.4277 29.3457 21.4218 29.3209 21.4236C29.2722 21.427 29.2268 21.4338 29.1787 21.4365C29.1627 21.4372 29.1826 21.4275 29.1659 21.4284C29.0742 21.4328 28.9875 21.4422 28.8947 21.4477C28.4375 21.4734 27.9881 21.4935 27.5252 21.5091C27.3726 21.5146 27.1871 21.5005 27.0295 21.5178C27.0111 21.5199 27.0221 21.5427 27.0186 21.5448C26.9637 21.5774 26.9819 21.529 26.9461 21.5242C26.8038 21.5055 26.6456 21.5078 26.5086 21.5235C26.4504 21.5303 26.5088 21.5811 26.4501 21.5538C26.446 21.5519 26.4608 21.5227 26.4448 21.5203C26.4086 21.5147 26.3399 21.5223 26.3118 21.521C26.2577 21.5182 26.2487 21.5188 26.1975 21.5202C26.1276 21.522 26.0443 21.5091 25.9692 21.5185C25.9532 21.5206 25.9744 21.5524 25.9489 21.5589C25.9233 21.5654 25.8556 21.5653 25.8328 21.5583C25.81 21.5512 25.8197 21.5246 25.8157 21.5187C25.7824 21.4687 25.7042 21.5416 25.6941 21.544C25.5105 21.5809 25.353 21.5442 25.1806 21.5486C25.0497 21.5524 24.9098 21.5715 24.7853 21.5729C24.6369 21.5745 24.5112 21.5557 24.3671 21.5628C24.3519 21.5635 24.3697 21.6115 24.3511 21.6125C24.1538 21.6238 23.9578 21.6244 23.7613 21.594C23.7416 21.5909 23.767 21.5452 23.7473 21.5393C23.6267 21.5048 23.436 21.4133 23.3644 21.6183C23.2827 21.612 23.1836 21.6058 23.1105 21.5651C23.0634 21.5388 23.1092 21.4861 23.0513 21.509C23.0383 21.5141 23.0552 21.5596 23.0357 21.5639C22.9533 21.582 22.8633 21.5683 22.7818 21.5935C22.7652 21.5988 22.7697 21.6405 22.765 21.6481C22.7255 21.7099 22.6598 21.6101 22.6455 21.6028C22.5364 21.5494 22.4567 21.5718 22.3551 21.5717C22.3315 21.5717 22.3594 21.6289 22.3367 21.6309C22.219 21.6409 22.097 21.6379 21.9818 21.6132C21.9561 21.6076 21.9797 21.5574 21.9675 21.5521C21.9134 21.5294 21.9015 21.6241 21.8497 21.6043C21.8387 21.6002 21.8449 21.5571 21.8429 21.5524C21.8117 21.4784 21.7846 21.5838 21.7766 21.5863C21.6752 21.6192 21.6103 21.5092 21.5123 21.5254C21.5006 21.5275 21.527 21.5824 21.4941 21.5849C21.2745 21.602 21.0423 21.5886 20.8249 21.5445C20.7912 21.5377 20.8153 21.4953 20.8131 21.4901C20.7785 21.4087 20.7561 21.518 20.745 21.5222C20.6581 21.5522 20.5769 21.4604 20.5179 21.5913C20.2225 21.556 19.9282 21.5967 19.6348 21.5532C19.5625 21.5424 19.4903 21.5266 19.4182 21.5032C19.4136 21.5019 19.4219 21.4474 19.4126 21.4449C19.3011 21.4143 19.3225 21.499 19.2487 21.6022C19.2301 21.6281 19.1736 21.5033 19.1686 21.4941C19.1504 21.4604 19.1693 21.3796 19.1632 21.3731C19.1127 21.3218 19.1209 21.5892 19.0528 21.5891C19.0506 21.5886 19.0596 21.5395 19.0539 21.5346C19.0361 21.5192 19.0185 21.5387 19.0011 21.5217C18.9613 21.4825 18.9471 21.3529 18.8864 21.4283C18.8787 21.438 18.8904 21.5893 18.8296 21.5819C18.8053 21.5789 18.698 21.581 18.6679 21.5712C18.6379 21.5613 18.6585 21.5128 18.6564 21.5107C18.5754 21.4464 18.6061 21.4199 18.5655 21.325C18.525 21.2306 18.5362 21.4558 18.5197 21.4809C18.5031 21.5059 18.4438 21.453 18.4292 21.4346C18.4146 21.4163 18.4328 21.3856 18.4198 21.3752C18.3339 21.3075 18.3821 21.4866 18.3538 21.5221C18.287 21.6061 18.235 21.4397 18.1738 21.4235C18.1573 21.4191 18.1708 21.4568 18.1561 21.4603C18.0977 21.4735 18.0626 21.422 17.9963 21.4689C17.9854 21.4766 17.9318 21.5751 17.897 21.5025C17.8921 21.492 17.9061 21.4511 17.8812 21.4419C17.8441 21.428 17.7772 21.419 17.7372 21.4325C17.7078 21.4425 17.7416 21.5096 17.7045 21.4886C17.688 21.4793 17.7185 21.4402 17.6875 21.4259C17.6567 21.4117 17.5779 21.4133 17.548 21.4145C17.518 21.4158 17.5344 21.4663 17.532 21.4697C17.5174 21.4891 17.4599 21.513 17.4549 21.5129C17.1989 21.5169 16.9628 21.4324 16.7135 21.4584C16.694 21.4604 16.707 21.5115 16.704 21.5123C16.6371 21.533 16.6899 21.398 16.6431 21.3527C16.6498 21.4558 16.6222 21.437 16.5751 21.448C16.5523 21.4534 16.5647 21.4932 16.5626 21.4973C16.5289 21.5572 16.5055 21.4792 16.4994 21.4633C16.4771 21.4048 16.4528 21.4736 16.4376 21.4345C16.4224 21.3959 16.4574 21.3387 16.4121 21.3395C16.3994 21.3758 16.433 21.4711 16.3987 21.4862C16.2691 21.5429 16.0272 21.4664 15.923 21.4585C15.819 21.4503 15.7854 21.4564 15.7248 21.4434C15.6154 21.4202 15.6555 21.4871 15.5875 21.5165C15.5194 21.5456 15.5525 21.3841 15.5427 21.3491C15.5331 21.3144 15.5226 21.3502 15.5106 21.3311C15.4987 21.3121 15.5245 21.2883 15.4965 21.2814C15.4684 21.2745 15.3917 21.3363 15.3817 21.372C15.3607 21.4478 15.3953 21.5278 15.321 21.4989C15.3168 21.4972 15.3306 21.4556 15.3143 21.4512C15.1844 21.4181 15.0495 21.4153 14.9197 21.3875C14.9019 21.3836 14.9179 21.3392 14.9075 21.3365C14.7994 21.3085 14.838 21.3831 14.7787 21.4646C14.7921 21.3555 14.7593 21.2887 14.6772 21.2889C14.6279 21.2889 14.6364 21.3358 14.6045 21.3686C14.5949 21.3785 14.56 21.3466 14.5537 21.3684C14.5328 21.4395 14.5657 21.5195 14.4811 21.4865C14.4774 21.4849 14.4892 21.4464 14.4764 21.4439C14.3935 21.4279 14.3836 21.5009 14.2939 21.5077C14.2237 21.5128 14.0988 21.4672 14.0188 21.4593C14.0205 21.3482 13.9449 21.3741 13.9143 21.4488C13.8624 21.445 13.8063 21.4483 13.7561 21.4375C13.7389 21.4338 13.7502 21.4032 13.748 21.3999C13.7147 21.3477 13.6921 21.4186 13.6809 21.4211C13.5595 21.4459 13.4605 21.3935 13.3446 21.4415C13.3405 21.4433 13.3339 21.5116 13.3029 21.461C13.3009 21.4576 13.3391 21.427 13.2846 21.4239C13.2301 21.4205 13.1273 21.3844 13.0516 21.4139C13.0333 21.4211 12.987 21.4721 12.9498 21.431C12.9448 21.4255 12.9503 21.4073 12.9431 21.3971C12.92 21.3649 12.9074 21.4283 12.8802 21.3743C12.853 21.3203 12.7965 21.2822 12.7202 21.3189C12.7177 21.32 12.6997 21.3683 12.6757 21.3674C12.6373 21.366 12.5829 21.3561 12.5429 21.3565C12.5238 21.3567 12.536 21.3853 12.5327 21.3858C12.4039 21.4006 12.3122 21.3746 12.1742 21.3645C12.1489 21.3628 12.0762 21.3967 12.0272 21.3694C11.9734 21.3403 12.0287 21.2188 11.9051 21.2517C11.8552 21.266 11.7921 21.4089 11.7025 21.3359C11.5288 21.3537 11.3681 21.3223 11.1938 21.3452C11.186 21.3463 11.1612 21.3771 11.1428 21.3764C11.1154 21.3754 11.1004 21.3614 11.0809 21.3605C10.9991 21.3564 10.9242 21.3674 10.8453 21.3652C10.8153 21.3644 10.8258 21.3521 10.7901 21.3516C10.7544 21.3512 10.7306 21.3664 10.6822 21.359C10.6457 21.3533 10.6091 21.3246 10.5606 21.3229C10.5588 21.3504 10.5255 21.3501 10.4663 21.3569C10.4549 21.3582 10.4671 21.367 10.4617 21.3681C10.4398 21.3723 10.4195 21.365 10.3987 21.3696C10.3937 21.3706 10.3934 21.3788 10.3893 21.3801C10.3541 21.3909 10.2961 21.372 10.2862 21.3693C10.248 21.3582 10.2302 21.3674 10.2009 21.3631C10.1717 21.3591 10.2154 21.3542 10.1813 21.352C10.1105 21.3476 10.0197 21.3499 9.94781 21.3503C9.91915 21.3506 9.9387 21.3567 9.9346 21.3569C9.87532 21.3581 9.81539 21.3532 9.78252 21.3626C9.74142 21.3386 9.74678 21.3648 9.66204 21.3593C9.65537 21.3589 9.64688 21.3508 9.6725 21.3489C9.69812 21.3468 9.73698 21.3492 9.77253 21.3458C9.78095 21.3453 9.82917 21.332 9.83575 21.3307C9.8873 21.3217 9.8946 21.3427 9.89733 21.344C9.92825 21.3566 9.98718 21.3405 10.0027 21.3383C10.0737 21.3306 10.134 21.3326 10.1934 21.3259C10.2322 21.3215 10.236 21.2989 10.2665 21.2977C10.3679 21.2928 10.4033 21.3298 10.4988 21.2919C10.5193 21.2836 10.499 21.253 10.5724 21.2734C10.577 21.2744 10.6315 21.2959 10.6629 21.2786C10.6669 21.2764 10.6668 21.2662 10.672 21.265C10.7069 21.2571 10.7302 21.264 10.7683 21.2575C10.8064 21.251 10.8522 21.2412 10.8956 21.2422C10.9218 21.2427 10.9554 21.2633 10.968 21.2684C11.0034 21.2832 11.0413 21.254 11.0633 21.2735C11.0854 21.2936 11.0422 21.3259 11.1002 21.3388C11.1023 21.3044 11.1073 21.2689 11.1107 21.234C11.2378 21.227 11.3629 21.2321 11.4904 21.2236C11.5063 21.2225 11.4901 21.2013 11.507 21.1994C11.5786 21.1911 11.641 21.2038 11.7152 21.1928C11.7726 21.1841 11.8356 21.1537 11.8956 21.1424C11.9323 21.1945 12.0213 21.1712 12.086 21.1725C12.1087 21.173 12.1072 21.1887 12.1233 21.193C12.1841 21.2091 12.1556 21.1582 12.1723 21.1489C12.2438 21.1086 12.25 21.2292 12.3343 21.2236C12.3388 21.2236 12.3934 21.1541 12.4009 21.1492C12.4487 21.1189 12.4088 21.1724 12.4387 21.1759C12.4933 21.1825 12.5313 21.1979 12.5954 21.1743C12.6141 21.1675 12.6589 21.12 12.6952 21.1532C12.6999 21.1575 12.6973 21.1818 12.7011 21.183C12.7707 21.204 12.7725 21.1272 12.8123 21.0985C12.852 21.0695 12.9134 21.1202 12.9259 21.1357C12.9586 21.1754 12.9008 21.1544 12.8991 21.1585C12.8783 21.207 12.9231 21.1971 12.9573 21.2C12.9622 21.2786 13.0101 21.2731 12.9927 21.2028C12.9908 21.1951 12.9641 21.2034 12.9573 21.2C12.9873 21.1219 13.0399 21.1077 13.0979 21.1799C13.1251 21.2138 13.0994 21.2555 13.182 21.2385C13.2195 21.2308 13.205 21.1741 13.2381 21.1571C13.3136 21.118 13.4118 21.1685 13.4897 21.1574C13.518 21.1531 13.4905 21.1211 13.5098 21.117C13.5611 21.1057 13.6063 21.129 13.6578 21.1139C13.6624 21.1125 13.651 21.0774 13.667 21.0762C13.7884 21.0662 13.8942 21.0848 14.0209 21.0804C14.0822 21.0782 14.1917 21.0524 14.2551 21.054C14.3651 21.0562 14.5003 21.1097 14.5943 21.0926C14.6555 21.0813 14.6421 21.0408 14.6683 21.0117C14.719 20.9548 14.8087 21.0492 14.8207 21.0645C14.8211 21.065 14.7684 21.0766 14.7965 21.0971C14.8129 21.1413 14.8201 21.0647 14.8207 21.0645C14.8287 21.0741 14.934 21.0803 14.9549 21.0716C14.9663 21.0668 14.9599 21.0266 14.9658 21.0249C15.1066 20.9836 15.2477 20.9667 15.3905 20.9812C15.3931 20.982 15.3893 21.0293 15.3952 21.0305C15.4779 21.049 15.5308 20.9894 15.599 20.9519C15.6672 20.9145 15.7213 20.9238 15.7616 21.0063C15.8131 20.9942 15.8869 21.0292 15.9294 21.051C15.9718 21.0728 15.9778 20.9761 15.9815 20.9741C16.0981 20.9091 16.1655 20.9624 16.2864 20.9681C16.3439 20.9709 16.4579 20.9535 16.5202 20.9408C16.5694 20.9306 16.599 20.9535 16.6443 20.9371C16.6505 20.935 16.6443 20.89 16.6461 20.8883C16.6967 20.8328 16.6724 20.9439 16.6829 20.9633C16.7207 21.0341 16.7441 21.0723 16.8089 21.0371C16.8239 21.0292 16.8674 20.8677 16.8946 20.8574C16.9301 20.8444 16.9167 20.9026 16.9538 20.8876C16.9569 20.8864 16.9563 20.8507 16.9792 20.8516C17.0854 20.8556 17.2013 20.8738 17.3117 20.8677C17.3267 20.867 17.3074 20.8098 17.3292 20.8077C17.4314 20.7983 17.5435 20.7977 17.6431 20.823C17.6676 20.8294 17.6523 20.8707 17.6576 20.8828C17.6903 20.9559 17.7366 20.848 17.7442 20.8457C17.9266 20.7904 18.0662 20.886 18.2521 20.8367C18.2622 20.8339 18.3401 20.7156 18.3748 20.8157C18.3772 20.8223 18.4116 20.9249 18.442 20.8541C18.4439 20.8497 18.4225 20.7969 18.4598 20.8018C18.4972 20.8068 18.5574 20.7705 18.6088 20.8285C18.625 20.8467 18.6635 20.9496 18.712 20.8669C18.7152 20.8612 18.7901 20.6739 18.8169 20.8024C18.8212 20.8236 18.8167 20.9599 18.8746 20.8896C18.8856 20.876 18.8656 20.8457 18.8947 20.8265C18.9394 20.7968 18.9986 20.833 19.0535 20.7718C19.0631 20.761 19.1038 20.6678 19.1365 20.7381C19.1416 20.7491 19.1319 20.7949 19.1492 20.7999C19.2313 20.824 19.3173 20.7931 19.4007 20.8245C19.4302 20.8356 19.4151 20.9096 19.4459 20.9294C19.4767 20.9492 19.5387 20.9682 19.5709 20.9343C19.6031 20.9005 19.5679 20.7825 19.6162 20.7731C19.6224 20.7719 19.6286 20.7708 19.6348 20.7697C19.8383 20.7361 20.0401 20.8023 20.2435 20.8133C20.2746 20.815 20.2488 20.7728 20.2946 20.7723C20.4635 20.7702 20.755 20.7346 20.9015 20.8251C21.0189 20.8972 20.8712 20.9493 20.9609 20.979C21.0042 20.9931 21.051 20.859 21.0615 20.8549C21.1636 20.8134 21.2345 20.874 21.3264 20.8572C21.3454 20.8538 21.3268 20.7994 21.3429 20.7971C21.3981 20.7888 21.4561 20.8139 21.5088 20.8106C21.5324 20.809 21.5281 20.7679 21.5498 20.7715C21.6019 20.7797 21.6479 20.798 21.6987 20.8373C21.7033 20.8408 21.6721 20.8909 21.7106 20.8935C21.773 20.8977 21.8504 20.9365 21.9221 20.8994C21.9434 20.8882 21.9442 20.7962 21.99 20.8608C21.9996 20.8743 21.9873 20.9843 22.0406 20.8902C22.0496 20.8744 22.1391 20.7489 22.183 20.8325C22.1946 20.8545 22.2242 20.9445 22.2498 20.931C22.2532 20.9289 22.2393 20.8798 22.2605 20.8756C22.3353 20.8616 22.4136 20.8689 22.4904 20.856C22.5109 20.8525 22.4804 20.8018 22.5109 20.7982C22.595 20.7884 22.6999 20.8048 22.7821 20.8229C22.8124 20.8297 22.7914 20.8695 22.7936 20.874C22.8291 20.9466 22.85 20.8507 22.8618 20.8456C22.935 20.8146 22.9907 20.8617 23.0582 20.8522C23.0768 20.8498 23.0636 20.804 23.0673 20.8001C23.1057 20.7623 23.0771 20.8423 23.1014 20.8522C23.1696 20.88 23.2455 20.879 23.3144 20.876C23.3398 20.8748 23.3113 20.8222 23.334 20.8219C23.4685 20.8187 23.6083 20.8304 23.7395 20.8637C23.7642 20.8701 23.7486 20.9076 23.7538 20.9165C23.7893 20.9788 23.8413 20.8979 23.8533 20.8907C23.9077 20.8574 23.9288 20.8918 23.9769 20.8878C24.2117 20.8682 24.5015 20.9057 24.7232 20.9299C25.0119 20.9619 25.236 21.0042 25.5114 21.0117C25.5289 21.0123 25.5113 20.9705 25.5264 20.9706C25.7212 20.9735 25.9129 21.0014 26.1081 21.0043C26.1241 21.0047 26.101 20.9683 26.1268 20.9679C26.1795 20.9667 26.2463 20.9742 26.2996 20.9891C26.3256 20.9962 26.2907 21.0221 26.3169 21.0286C26.3778 21.0436 26.4432 21.0503 26.5058 21.0497C26.5324 21.0494 26.4922 21.0138 26.5269 21.0162C26.7628 21.0313 26.9944 21.0487 27.2328 21.103C27.2491 21.1067 27.2635 21.1617 27.2982 21.1536C27.3008 21.139 27.3007 21.1216 27.3018 21.1059C27.6452 21.1262 27.9851 21.1722 28.3295 21.2032C28.344 21.2046 28.3189 21.184 28.347 21.1868C28.5097 21.2025 28.6677 21.216 28.8341 21.2452C28.8506 21.248 28.8421 21.2697 28.8908 21.2701C28.8994 21.2701 28.9726 21.2731 28.9916 21.2706C28.9942 21.2702 28.9808 21.2598 29.0044 21.2618C29.1416 21.2738 29.2855 21.2907 29.4224 21.3067C29.4446 21.3093 29.421 21.3125 29.4368 21.3143C29.5485 21.3257 29.67 21.3335 29.7767 21.3441C29.8482 21.3506 29.8217 21.3509 29.8597 21.3542C29.865 21.3546 29.9093 21.3562 29.9116 21.3565C29.9174 21.3571 29.896 21.3586 29.9048 21.3594C29.9062 21.3595 29.9419 21.3572 29.9419 21.3572C29.9419 21.3572 29.9419 21.3572 29.9419 21.3572C29.9419 21.3572 29.9388 21.3574 29.9308 21.358C29.9284 21.3582 29.8854 21.3616 29.8748 21.363C29.8675 21.3639 29.8808 21.3633 29.8657 21.3652C29.8507 21.3672 29.8342 21.3679 29.8093 21.3711C29.7844 21.3745 29.7953 21.3751 29.7456 21.3815ZM16.1206 21.1497C16.1599 21.1962 16.1657 21.0237 16.1232 21.0659C16.1212 21.0681 16.1186 21.1475 16.1206 21.1497ZM11.3622 21.2846C11.4136 21.314 11.4488 21.2669 11.4125 21.2442C11.3762 21.2223 11.3465 21.276 11.3622 21.2846ZM10.829 21.319C10.8891 21.3366 10.8986 21.2588 10.8342 21.2776C10.8305 21.2787 10.8255 21.318 10.829 21.319ZM29.6836 21.3492C29.6841 21.3493 29.716 21.3504 29.7167 21.3503C29.7336 21.3483 29.6701 21.3454 29.6836 21.3492ZM10.3 21.344C10.3187 21.3506 10.3727 21.342 10.3494 21.3335C10.3307 21.3271 10.2766 21.3362 10.3 21.344ZM18.1722 21.3305C18.1728 21.3333 18.1956 21.3359 18.1951 21.3198C18.1936 21.2681 18.1619 21.2828 18.1722 21.3305ZM9.40073 21.3562C9.53359 21.3528 9.61414 21.3664 9.46946 21.3611C9.44326 21.3605 9.52593 21.36 9.49258 21.3587C9.43156 21.3577 9.39105 21.359 9.32878 21.3572C9.31751 21.3575 9.39315 21.3568 9.40097 21.3562C9.40089 21.3562 9.40081 21.3562 9.40073 21.3562ZM16.1433 21.3561C16.144 21.3584 16.1756 21.3605 16.1764 21.3583C16.1935 21.3034 16.1299 21.2993 16.1433 21.3561ZM19.5027 21.4501C19.5044 21.4556 19.5776 21.4607 19.58 21.4557C19.6182 21.3548 19.4702 21.3441 19.5027 21.4501ZM14.0175 21.4563C13.9831 21.4995 13.9419 21.5032 13.9144 21.4489C13.9487 21.4522 13.9831 21.4531 14.0175 21.4563Z" fill="#64E6F4"/>
<g filter="url(#filter1_f_38_797)">
<path d="M10.3384 21.4782C10.3139 21.4768 10.2792 21.4653 10.2502 21.4619C10.1288 21.447 10.0838 21.4379 9.97394 21.4248C9.81106 21.4076 9.32765 21.3542 9.32764 21.3572C9.32764 21.3572 9.32768 21.3572 9.32778 21.3572C9.32947 21.3574 9.37059 21.3588 9.37669 21.3582C9.38278 21.3575 9.37821 21.3544 9.43661 21.349C9.52128 21.3409 9.7244 21.3324 9.76956 21.3305C9.80043 21.3285 9.83845 21.3227 9.87792 21.3193C10.0052 21.3079 10.0718 21.3085 10.1865 21.2839C10.2324 21.2886 10.2782 21.2946 10.3241 21.302C10.384 21.2939 10.4747 21.3033 10.511 21.3012C10.5409 21.2993 10.5583 21.2891 10.5894 21.2869C10.6243 21.2844 10.6779 21.2927 10.7413 21.2883C10.8453 21.2811 10.8638 21.2499 10.9262 21.2416C10.9909 21.2328 11.0915 21.2449 11.174 21.2276C11.1844 21.223 11.1947 21.2184 11.2051 21.2137C11.1977 21.2052 11.1902 21.1968 11.1828 21.1885C11.2244 21.1808 11.2423 21.198 11.2805 21.1957C11.3255 21.1929 11.3484 21.1725 11.3786 21.17C11.4034 21.168 11.437 21.1809 11.4692 21.1776C11.516 21.1728 11.5058 21.1504 11.531 21.1439C11.541 21.1415 11.727 21.1118 11.7375 21.1105C11.8172 21.1023 11.8242 21.1373 11.8878 21.1359C12.0643 21.1321 12.2454 21.0878 12.4086 21.0613C12.4815 21.0497 12.5576 21.046 12.6302 21.0477C12.5158 21.1689 12.7691 21.2471 12.6743 21.0692C12.7552 21.09 12.8125 21.0359 12.8892 21.0388C12.9388 21.041 12.9731 21.0657 13.0439 21.0607C13.1695 21.0525 13.3069 20.9599 13.343 21.108C13.4905 21.0736 13.6182 21.1255 13.6713 20.9822C13.7093 20.9708 13.8068 21.0499 13.8494 21.0601C13.8898 21.0685 14.1992 21.096 14.2498 21.0971C14.3005 21.0975 14.3891 21.097 14.4317 21.0817C14.4853 21.0634 14.5227 20.8949 14.6181 21.0858C14.729 21.0663 14.7685 21.0702 14.8716 21.0904C14.8903 21.0941 14.8924 21.124 14.9033 21.1237C14.9258 21.1231 14.964 21.0998 15.0041 21.0959C15.0701 21.0894 15.1077 21.153 15.1004 21.0547C15.1439 21.0368 15.1874 21.0187 15.2309 21.0004C15.2461 21.0191 15.2614 21.0379 15.2766 21.0568C15.2999 21.035 15.3231 21.0131 15.3464 20.991C15.3191 21.1379 15.4827 21.047 15.4296 20.9639C15.5139 20.9912 15.5982 21.0194 15.6825 21.0483C15.6707 21.2199 15.8676 21.0642 15.851 20.9694C15.8606 20.9692 15.8703 20.9691 15.8799 20.9689C15.9644 21.0127 16.0419 20.9724 16.1449 21.0011C16.2478 21.0303 16.2381 21.048 16.2694 21.1299C16.2936 21.1248 16.3179 21.1197 16.3421 21.1145C16.4692 20.8836 16.4467 21.2807 16.6643 21.1011C16.7339 21.246 16.9053 21.1683 17.0189 21.1214C17.0321 21.116 17.0324 21.0871 17.05 21.0779C17.093 21.0557 17.2029 21.0916 17.1991 20.9976C17.2372 21.0241 17.2752 21.0509 17.3132 21.0777C17.3443 21.0601 17.3754 21.0425 17.4065 21.0247C17.4064 20.9951 17.4062 20.9654 17.406 20.9358C17.4686 21.0358 17.567 20.9956 17.6155 21.0192C17.6252 21.024 17.6273 21.0653 17.6573 21.0762C17.6924 21.0892 17.7577 21.0763 17.7995 21.0889C17.8158 21.0427 17.832 20.9964 17.8483 20.9501C17.9231 20.924 17.9493 21.0457 17.9932 21.0548C18.0011 21.0564 18.1453 21.0462 18.1531 21.0435C18.2167 21.0222 18.1987 20.9174 18.3826 20.938C18.4154 20.9417 18.4419 20.978 18.4715 20.9792C18.5238 20.9815 18.6814 20.8972 18.6938 20.8201C18.7572 20.9157 18.927 20.8752 18.977 20.9029C18.9921 20.9114 18.9955 20.9729 19.0419 20.9858C19.0795 20.9963 19.1763 20.9466 19.224 20.9547C19.2746 20.9636 19.2927 21.0154 19.3154 21.019C19.3368 21.0224 19.3565 20.9805 19.3857 20.9807C19.4769 20.9819 19.5594 21.0493 19.6315 21.0506C19.6326 21.0506 19.6337 21.0506 19.6348 21.0506C19.7376 21.0499 19.8286 20.928 19.9149 20.8738C19.9365 20.8818 19.9578 20.9085 19.9805 20.9088C20.2611 20.9135 20.5777 20.9384 20.8592 20.9672C20.9898 20.9807 21.3148 21.1482 21.2281 20.8731C21.2735 20.8259 21.6037 20.9413 21.6665 20.9437C21.7292 20.9464 21.779 20.899 21.8284 20.8993C21.9773 20.9003 22.0822 20.9365 22.2635 20.8997C22.3103 20.89 22.3605 20.8358 22.3882 20.8373C22.4216 20.8392 22.4575 20.8937 22.5008 20.8982C22.6039 20.9085 22.7961 20.8967 22.8951 20.9089C22.9132 20.9112 22.9195 20.9569 22.9453 20.9718C23.046 21.0299 23.1587 21.0275 23.1388 20.884C23.2678 20.9694 23.3871 20.8996 23.5066 20.9002C23.7593 20.9015 24.2196 20.951 24.4398 20.9089C24.5786 20.8825 24.575 20.8276 24.7794 20.8875C24.8248 20.9006 24.8699 20.9173 24.925 20.9326C25.0539 20.9696 25.1723 21.0693 25.2706 20.9612C25.4138 20.9986 25.5279 20.9862 25.6342 21.0831C25.6467 21.0618 25.6592 21.0406 25.6718 21.0196C25.6893 21.02 25.7069 21.0205 25.7245 21.021C25.7299 21.0419 25.7354 21.0628 25.7409 21.0836C25.8667 21.0943 26.0263 21.0221 26.1328 21.0306C26.3114 21.0436 26.7713 21.1036 26.9406 21.1345C27.0305 21.151 27.0353 21.1191 27.0868 21.1885C27.1069 21.1849 27.127 21.1814 27.1471 21.1779C27.1597 21.1643 27.1723 21.1509 27.1848 21.1376C27.3002 21.1451 27.4369 21.1748 27.5468 21.1813C27.747 21.192 28.0476 21.1859 28.2486 21.2191C28.2991 21.2272 28.3621 21.2495 28.4114 21.2522C28.4833 21.2562 28.5007 21.2301 28.5919 21.2374C28.749 21.2515 29.0417 21.2967 29.1902 21.3037C29.2343 21.3063 29.2549 21.3027 29.2853 21.3046C29.413 21.3127 29.5179 21.3206 29.6404 21.3283C29.7719 21.3459 29.7605 21.3479 29.8013 21.3533C29.8321 21.358 29.9268 21.359 29.9403 21.3573C29.9497 21.3566 29.9145 21.3593 29.9277 21.3585C29.7702 21.3736 29.704 21.381 29.576 21.3834C29.3398 21.4003 29.1035 21.4171 28.8673 21.4337C28.8458 21.428 28.8243 21.4219 28.8028 21.4153C28.8028 21.4153 28.8028 21.4153 28.8028 21.4153C28.7121 21.4103 28.6736 21.4328 28.6247 21.4411C28.1562 21.5262 27.2342 21.5509 26.7185 21.5536C26.6074 21.5559 26.2459 21.6025 26.1696 21.5708C26.1499 21.5625 26.1444 21.5291 26.1234 21.5283C25.9357 21.5549 25.7481 21.5835 25.5604 21.6139C25.1745 21.5703 24.7756 21.6322 24.3868 21.6577C23.3348 21.7217 22.2933 21.7935 21.2585 21.7947C21.0585 21.7948 20.8047 21.8391 20.6089 21.814C20.5272 21.8036 20.4932 21.7144 20.3858 21.7817C20.3847 21.7576 20.3836 21.7335 20.3825 21.7094C20.2888 21.739 20.2289 21.7942 20.1239 21.8003C20.0355 21.8053 19.8015 21.8095 19.7233 21.8002C19.6828 21.7956 19.6979 21.7503 19.6601 21.7506C19.6526 21.7506 19.6441 21.7516 19.6348 21.7531C19.564 21.765 19.4468 21.8138 19.3679 21.8136C19.287 21.8134 19.1507 21.7609 19.0885 21.7681C18.8646 21.794 18.6206 21.8687 18.382 21.8454C18.3161 21.8388 18.2313 21.7801 18.2107 21.7815C18.1703 21.7844 18.1583 21.8401 18.1312 21.8469C17.9936 21.8811 17.7792 21.8115 17.6443 21.8067C17.2049 21.7909 16.7393 21.8031 16.3017 21.7803C16.0253 21.7667 15.5659 21.7588 15.3107 21.7141C15.2556 21.7045 15.2703 21.6538 15.2241 21.6524C15.1728 21.6509 15.1451 21.6843 15.1212 21.6862C14.9554 21.7004 14.5895 21.7172 14.433 21.678C14.4032 21.6705 14.3816 21.6334 14.3637 21.6329C14.3547 21.6326 14.3343 21.6564 14.3059 21.6577C14.0555 21.6693 13.8729 21.6462 13.6276 21.6276C13.1577 21.5936 12.6132 21.5994 12.1196 21.5522C12.012 21.542 11.9383 21.4951 11.9231 21.495C11.8899 21.4944 11.8687 21.5218 11.8015 21.5246C11.578 21.5324 11.277 21.487 11.0644 21.4844C10.9594 21.483 10.8151 21.495 10.7117 21.4898C10.6292 21.4858 10.4342 21.4612 10.3976 21.465C10.3754 21.4673 10.3651 21.4797 10.3384 21.4782ZM13.1193 21.0887C13.1046 21.1571 13.2591 21.0931 13.2011 21.0589C13.1881 21.0514 13.1231 21.071 13.1193 21.0887ZM20.356 21.1067C20.3546 21.0747 20.3532 21.0427 20.3518 21.0107C20.3315 21.0239 20.3112 21.0371 20.2909 21.0504C20.3023 21.0697 20.3137 21.089 20.3251 21.1083C20.3354 21.1078 20.3457 21.1072 20.356 21.1067Z" fill="#64E6F4"/>
</g>
<path d="M28.9311 30.1504C28.9557 30.1519 28.9904 30.1633 29.0194 30.1668C29.1408 30.1816 29.1858 30.1907 29.2956 30.2038C29.4585 30.221 29.9419 30.2745 29.9419 30.2715C29.9419 30.2715 29.9419 30.2715 29.9418 30.2715C29.9401 30.2712 29.899 30.2698 29.8929 30.2705C29.8868 30.2711 29.8913 30.2742 29.8329 30.2796C29.7483 30.2878 29.5452 30.2962 29.5 30.2981C29.4691 30.3001 29.4311 30.3059 29.3916 30.3094C29.2643 30.3207 29.1977 30.3201 29.0831 30.3448C29.0372 30.3401 28.9913 30.334 28.9454 30.3267C28.8856 30.3348 28.7949 30.3254 28.7585 30.3274C28.7287 30.3294 28.7112 30.3396 28.6801 30.3417C28.6453 30.3442 28.5917 30.3359 28.5283 30.3404C28.4243 30.3476 28.4058 30.3788 28.3434 30.387C28.2787 30.3959 28.1781 30.3837 28.0955 30.401C28.0852 30.4056 28.0748 30.4103 28.0645 30.415C28.0719 30.4235 28.0793 30.4319 28.0867 30.4402C28.0451 30.4478 28.0273 30.4306 27.9891 30.433C27.9441 30.4358 27.9212 30.4562 27.8909 30.4587C27.8661 30.4607 27.8325 30.4478 27.8004 30.4511C27.7536 30.4559 27.7638 30.4783 27.7386 30.4848C27.7285 30.4871 27.5426 30.5168 27.5321 30.5181C27.4523 30.5264 27.4454 30.4913 27.3817 30.4928C27.2053 30.4965 27.0241 30.5408 26.8609 30.5674C26.788 30.579 26.712 30.5827 26.6393 30.581C26.7538 30.4597 26.5005 30.3816 26.5952 30.5594C26.5144 30.5386 26.457 30.5928 26.3804 30.5898C26.3308 30.5877 26.2965 30.5629 26.2257 30.568C26.1001 30.5762 25.9627 30.6688 25.9266 30.5207C25.7791 30.555 25.6514 30.5031 25.5982 30.6465C25.5602 30.6578 25.4628 30.5787 25.4201 30.5686C25.3798 30.5601 25.0703 30.5326 25.0197 30.5316C24.9691 30.5312 24.8805 30.5316 24.8378 30.547C24.7843 30.5653 24.7468 30.7337 24.6515 30.5428C24.5406 30.5624 24.5011 30.5585 24.3979 30.5383C24.3792 30.5346 24.3771 30.5047 24.3662 30.505C24.3438 30.5055 24.3055 30.5288 24.2654 30.5327C24.1995 30.5392 24.1618 30.4757 24.1692 30.574C24.1257 30.5919 24.0822 30.61 24.0387 30.6283C24.0235 30.6096 24.0082 30.5908 23.9929 30.5719C23.9697 30.5937 23.9464 30.6156 23.9232 30.6377C23.9505 30.4908 23.7869 30.5816 23.84 30.6648C23.7557 30.6374 23.6714 30.6093 23.5871 30.5804C23.5989 30.4088 23.402 30.5644 23.4186 30.6592C23.4089 30.6594 23.3993 30.6596 23.3896 30.6598C23.3052 30.6159 23.2276 30.6563 23.1247 30.6275C23.0218 30.5984 23.0314 30.5807 23.0001 30.4988C22.9759 30.5039 22.9517 30.509 22.9275 30.5142C22.8004 30.7451 22.8229 30.3479 22.6052 30.5276C22.5357 30.3826 22.3643 30.4604 22.2507 30.5073C22.2374 30.5127 22.2372 30.5416 22.2196 30.5508C22.1765 30.5729 22.0667 30.537 22.0704 30.6311C22.0324 30.6045 21.9943 30.5778 21.9563 30.5509C21.9252 30.5685 21.8941 30.5862 21.863 30.6039C21.8632 30.6336 21.8634 30.6632 21.8635 30.6929C21.8009 30.5929 21.7026 30.6331 21.654 30.6094C21.6444 30.6046 21.6423 30.5634 21.6123 30.5524C21.5772 30.5394 21.5118 30.5524 21.47 30.5398C21.4538 30.586 21.4375 30.6322 21.4213 30.6785C21.3465 30.7047 21.3202 30.583 21.2763 30.5739C21.2684 30.5723 21.1242 30.5824 21.1165 30.5851C21.0529 30.6064 21.0709 30.7112 20.8869 30.6907C20.8542 30.6869 20.8277 30.6507 20.7981 30.6495C20.7458 30.6472 20.5881 30.7315 20.5758 30.8085C20.5123 30.7129 20.3426 30.7534 20.2926 30.7258C20.2775 30.7173 20.2741 30.6558 20.2277 30.6429C20.1901 30.6323 20.0933 30.682 20.0456 30.6739C19.995 30.6651 19.9769 30.6133 19.9542 30.6097C19.9328 30.6063 19.913 30.6482 19.8838 30.648C19.7927 30.6467 19.7101 30.5793 19.6381 30.5781C19.637 30.5781 19.6359 30.5781 19.6348 30.5781C19.5319 30.5788 19.4409 30.7007 19.3547 30.7549C19.333 30.7468 19.3118 30.7202 19.2891 30.7198C19.0084 30.7152 18.6919 30.6902 18.4104 30.6615C18.2797 30.648 17.9548 30.4805 18.0415 30.7556C17.9961 30.8028 17.6659 30.6873 17.6031 30.6849C17.5403 30.6823 17.4905 30.7296 17.4412 30.7293C17.2923 30.7283 17.1874 30.6921 17.0061 30.729C16.9593 30.7386 16.9091 30.7928 16.8814 30.7913C16.848 30.7894 16.812 30.735 16.7688 30.7305C16.6656 30.7202 16.4734 30.7319 16.3745 30.7198C16.3564 30.7175 16.3501 30.6717 16.3242 30.6568C16.2236 30.5987 16.1108 30.6012 16.1308 30.7446C16.0018 30.6592 15.8825 30.7291 15.763 30.7284C15.5103 30.7272 15.0499 30.6776 14.8298 30.7197C14.691 30.7462 14.6945 30.8011 14.4902 30.7412C14.4448 30.728 14.3996 30.7114 14.3446 30.696C14.2156 30.659 14.0973 30.5594 13.999 30.6675C13.8557 30.6301 13.7417 30.6424 13.6354 30.5456C13.6228 30.5669 13.6103 30.5881 13.5978 30.6091C13.5802 30.6086 13.5627 30.6081 13.5451 30.6076C13.5396 30.5867 13.5341 30.5659 13.5287 30.5451C13.4028 30.5344 13.2432 30.6066 13.1367 30.5981C12.9582 30.585 12.4983 30.5251 12.329 30.4941C12.2391 30.4777 12.2342 30.5095 12.1828 30.4401C12.1627 30.4437 12.1426 30.4473 12.1225 30.4507C12.1099 30.4643 12.0973 30.4778 12.0847 30.4911C11.9694 30.4835 11.8326 30.4538 11.7228 30.4474C11.5226 30.4367 11.2219 30.4427 11.0209 30.4096C10.9705 30.4014 10.9075 30.3792 10.8581 30.3765C10.7863 30.3724 10.7688 30.3985 10.6777 30.3912C10.5205 30.3772 10.2279 30.3319 10.0794 30.3249C10.0353 30.3224 10.0147 30.3259 9.98424 30.324C9.85652 30.316 9.75166 30.308 9.62919 30.3003C9.49769 30.2828 9.50905 30.2807 9.4683 30.2753C9.43741 30.2706 9.34271 30.2696 9.32927 30.2714C9.31982 30.2721 9.35508 30.2694 9.34185 30.2702C9.4994 30.2551 9.56559 30.2477 9.69351 30.2453C9.92977 30.2284 10.166 30.2116 10.4023 30.1949C10.4238 30.2007 10.4453 30.2068 10.4668 30.2134C10.4668 30.2134 10.4668 30.2134 10.4668 30.2134C10.5575 30.2183 10.5959 30.1958 10.6449 30.1875C11.1133 30.1025 12.0353 30.0778 12.551 30.0751C12.6622 30.0728 13.0237 30.0261 13.0999 30.0578C13.1197 30.0661 13.1252 30.0996 13.1462 30.1003C13.3338 30.0737 13.5215 30.0451 13.7091 30.0148C14.095 30.0583 14.494 29.9964 14.8828 29.971C15.9348 29.907 16.9763 29.8352 18.0111 29.8339C18.2111 29.8339 18.4648 29.7896 18.6606 29.8147C18.7423 29.8251 18.7764 29.9142 18.8837 29.847C18.8848 29.8711 18.886 29.8951 18.8871 29.9192C18.9808 29.8897 19.0406 29.8344 19.1457 29.8284C19.2341 29.8234 19.4681 29.8192 19.5462 29.8285C19.5868 29.8331 19.5717 29.8783 19.6095 29.8781C19.617 29.878 19.6255 29.8771 19.6348 29.8755C19.7056 29.8637 19.8228 29.8149 19.9017 29.8151C19.9825 29.8153 20.1189 29.8678 20.1811 29.8605C20.405 29.8346 20.6489 29.7599 20.8875 29.7833C20.9535 29.7899 21.0383 29.8486 21.0589 29.8472C21.0992 29.8443 21.1112 29.7886 21.1383 29.7818C21.2759 29.7476 21.4904 29.8172 21.6252 29.822C22.0647 29.8378 22.5303 29.8256 22.9678 29.8483C23.2443 29.8619 23.7037 29.8698 23.9589 29.9146C24.0139 29.9242 23.9993 29.9749 24.0455 29.9763C24.0967 29.9777 24.1245 29.9444 24.1484 29.9425C24.3142 29.9282 24.6801 29.9114 24.8366 29.9507C24.8664 29.9581 24.888 29.9952 24.9058 29.9957C24.9149 29.9961 24.9353 29.9722 24.9636 29.9709C25.214 29.9594 25.3966 29.9824 25.642 30.0011C26.1119 30.035 26.6563 30.0293 27.15 30.0765C27.2575 30.0867 27.3313 30.1336 27.3464 30.1336C27.3796 30.1342 27.4009 30.1068 27.4681 30.1041C27.6916 30.0962 27.9926 30.1417 28.2052 30.1442C28.3102 30.1457 28.4545 30.1337 28.5578 30.1389C28.6404 30.1429 28.8353 30.1675 28.8719 30.1636C28.8942 30.1614 28.9045 30.149 28.9311 30.1504ZM26.1503 30.54C26.165 30.4716 26.0104 30.5356 26.0684 30.5697C26.0815 30.5772 26.1465 30.5577 26.1503 30.54ZM18.9135 30.5219C18.9149 30.554 18.9163 30.586 18.9178 30.618C18.9381 30.6048 18.9583 30.5915 18.9786 30.5783C18.9672 30.559 18.9558 30.5397 18.9444 30.5204C18.9341 30.5209 18.9238 30.5214 18.9135 30.5219Z" fill="#64E6F4"/>
<g filter="url(#filter2_f_38_797)">
<path d="M28.9311 30.1504C28.9557 30.1519 28.9904 30.1633 29.0194 30.1668C29.1408 30.1816 29.1858 30.1907 29.2956 30.2038C29.4585 30.221 29.9419 30.2745 29.9419 30.2715C29.9419 30.2715 29.9419 30.2715 29.9418 30.2715C29.9401 30.2712 29.899 30.2698 29.8929 30.2705C29.8868 30.2711 29.8913 30.2742 29.833 30.2796C29.7483 30.2878 29.5452 30.2962 29.5 30.2981C29.4691 30.3001 29.4311 30.3059 29.3916 30.3094C29.2643 30.3207 29.1977 30.3201 29.0831 30.3448C29.0372 30.3401 28.9913 30.334 28.9454 30.3267C28.8856 30.3348 28.7949 30.3254 28.7585 30.3274C28.7287 30.3294 28.7112 30.3396 28.6801 30.3417C28.6453 30.3442 28.5917 30.3359 28.5283 30.3404C28.4243 30.3476 28.4058 30.3788 28.3434 30.387C28.2787 30.3959 28.1781 30.3837 28.0955 30.401C28.0852 30.4056 28.0748 30.4103 28.0645 30.415C28.0719 30.4235 28.0793 30.4319 28.0867 30.4402C28.0451 30.4478 28.0273 30.4306 27.9891 30.433C27.9441 30.4358 27.9212 30.4562 27.8909 30.4587C27.8661 30.4607 27.8325 30.4478 27.8004 30.4511C27.7536 30.4559 27.7638 30.4783 27.7386 30.4848C27.7285 30.4871 27.5426 30.5168 27.5321 30.5181C27.4523 30.5264 27.4454 30.4913 27.3817 30.4928C27.2053 30.4965 27.0241 30.5408 26.8609 30.5674C26.788 30.579 26.712 30.5827 26.6393 30.581C26.7538 30.4597 26.5005 30.3816 26.5952 30.5594C26.5144 30.5386 26.457 30.5928 26.3804 30.5898C26.3308 30.5877 26.2965 30.5629 26.2257 30.568C26.1001 30.5762 25.9627 30.6688 25.9266 30.5207C25.7791 30.555 25.6514 30.5031 25.5982 30.6465C25.5602 30.6578 25.4628 30.5787 25.4201 30.5686C25.3798 30.5601 25.0703 30.5326 25.0197 30.5316C24.9691 30.5312 24.8805 30.5316 24.8378 30.547C24.7843 30.5653 24.7468 30.7337 24.6515 30.5428C24.5406 30.5624 24.5011 30.5585 24.3979 30.5383C24.3793 30.5346 24.3771 30.5047 24.3662 30.505C24.3438 30.5055 24.3055 30.5288 24.2654 30.5327C24.1995 30.5392 24.1618 30.4757 24.1692 30.574C24.1257 30.5919 24.0822 30.61 24.0387 30.6283C24.0235 30.6096 24.0082 30.5908 23.9929 30.5719C23.9697 30.5937 23.9464 30.6156 23.9232 30.6377C23.9505 30.4908 23.7869 30.5816 23.84 30.6648C23.7557 30.6374 23.6714 30.6093 23.5871 30.5804C23.5989 30.4088 23.402 30.5644 23.4186 30.6592C23.4089 30.6594 23.3993 30.6596 23.3896 30.6598C23.3052 30.6159 23.2276 30.6563 23.1247 30.6275C23.0218 30.5984 23.0314 30.5807 23.0001 30.4988C22.9759 30.5039 22.9517 30.509 22.9275 30.5142C22.8004 30.7451 22.8229 30.3479 22.6052 30.5276C22.5357 30.3826 22.3643 30.4604 22.2507 30.5073C22.2374 30.5127 22.2372 30.5416 22.2196 30.5508C22.1765 30.5729 22.0667 30.537 22.0704 30.6311C22.0324 30.6045 21.9943 30.5778 21.9563 30.5509C21.9252 30.5685 21.8941 30.5862 21.863 30.6039C21.8632 30.6336 21.8634 30.6632 21.8635 30.6929C21.8009 30.5929 21.7026 30.6331 21.654 30.6094C21.6444 30.6046 21.6423 30.5634 21.6123 30.5524C21.5772 30.5394 21.5118 30.5524 21.47 30.5398C21.4538 30.586 21.4375 30.6322 21.4213 30.6785C21.3465 30.7047 21.3202 30.583 21.2763 30.5739C21.2684 30.5723 21.1242 30.5824 21.1165 30.5851C21.0529 30.6064 21.0709 30.7112 20.8869 30.6907C20.8542 30.6869 20.8277 30.6507 20.7981 30.6495C20.7458 30.6472 20.5881 30.7315 20.5758 30.8085C20.5123 30.7129 20.3426 30.7534 20.2926 30.7258C20.2775 30.7173 20.2741 30.6558 20.2277 30.6429C20.1901 30.6323 20.0933 30.682 20.0456 30.6739C19.995 30.6651 19.9769 30.6133 19.9542 30.6097C19.9328 30.6063 19.913 30.6482 19.8838 30.648C19.7927 30.6467 19.7101 30.5793 19.6381 30.5781C19.637 30.5781 19.6359 30.5781 19.6348 30.5781C19.5319 30.5788 19.4409 30.7007 19.3547 30.7549C19.333 30.7468 19.3118 30.7202 19.2891 30.7198C19.0084 30.7152 18.6919 30.6902 18.4104 30.6615C18.2797 30.648 17.9548 30.4805 18.0415 30.7556C17.9961 30.8028 17.6659 30.6873 17.6031 30.6849C17.5403 30.6823 17.4905 30.7296 17.4412 30.7293C17.2923 30.7283 17.1874 30.6921 17.0061 30.729C16.9593 30.7386 16.9091 30.7928 16.8814 30.7913C16.848 30.7894 16.812 30.735 16.7688 30.7305C16.6656 30.7202 16.4734 30.7319 16.3745 30.7198C16.3564 30.7175 16.3501 30.6717 16.3242 30.6568C16.2236 30.5987 16.1108 30.6012 16.1308 30.7446C16.0018 30.6592 15.8825 30.7291 15.763 30.7284C15.5103 30.7272 15.0499 30.6776 14.8298 30.7197C14.691 30.7462 14.6945 30.8011 14.4902 30.7412C14.4448 30.728 14.3996 30.7114 14.3446 30.696C14.2156 30.659 14.0973 30.5594 13.999 30.6675C13.8557 30.6301 13.7417 30.6424 13.6354 30.5456C13.6228 30.5669 13.6103 30.5881 13.5978 30.6091C13.5802 30.6086 13.5627 30.6081 13.5451 30.6076C13.5396 30.5867 13.5341 30.5659 13.5287 30.5451C13.4028 30.5344 13.2432 30.6066 13.1367 30.5981C12.9582 30.585 12.4983 30.5251 12.329 30.4941C12.2391 30.4777 12.2342 30.5095 12.1828 30.4401C12.1627 30.4437 12.1426 30.4473 12.1225 30.4507C12.1099 30.4643 12.0973 30.4778 12.0847 30.4911C11.9694 30.4835 11.8326 30.4538 11.7228 30.4474C11.5226 30.4367 11.2219 30.4427 11.0209 30.4096C10.9705 30.4014 10.9075 30.3792 10.8581 30.3765C10.7863 30.3724 10.7688 30.3985 10.6777 30.3912C10.5205 30.3772 10.2279 30.3319 10.0794 30.3249C10.0353 30.3224 10.0147 30.3259 9.98424 30.324C9.85652 30.316 9.75166 30.308 9.62919 30.3003C9.49769 30.2828 9.50905 30.2807 9.4683 30.2753C9.43741 30.2706 9.34271 30.2696 9.32927 30.2714C9.31982 30.2721 9.35508 30.2694 9.34185 30.2702C9.4994 30.2551 9.56559 30.2477 9.69351 30.2453C9.92977 30.2284 10.166 30.2116 10.4023 30.1949C10.4238 30.2007 10.4453 30.2068 10.4668 30.2134C10.4668 30.2134 10.4668 30.2134 10.4668 30.2134C10.5575 30.2183 10.5959 30.1958 10.6449 30.1875C11.1133 30.1025 12.0353 30.0778 12.551 30.0751C12.6622 30.0728 13.0237 30.0261 13.0999 30.0578C13.1197 30.0661 13.1252 30.0996 13.1462 30.1003C13.3338 30.0737 13.5215 30.0451 13.7091 30.0148C14.095 30.0583 14.494 29.9964 14.8828 29.971C15.9348 29.907 16.9763 29.8352 18.0111 29.8339C18.2111 29.8339 18.4648 29.7896 18.6606 29.8147C18.7423 29.8251 18.7764 29.9142 18.8837 29.847C18.8848 29.8711 18.886 29.8951 18.8871 29.9192C18.9808 29.8897 19.0406 29.8344 19.1457 29.8284C19.2341 29.8234 19.4681 29.8192 19.5462 29.8285C19.5868 29.8331 19.5717 29.8783 19.6095 29.8781C19.617 29.878 19.6255 29.8771 19.6348 29.8755C19.7056 29.8637 19.8228 29.8149 19.9017 29.8151C19.9825 29.8153 20.1189 29.8678 20.1811 29.8605C20.405 29.8346 20.6489 29.7599 20.8875 29.7833C20.9535 29.7899 21.0383 29.8486 21.0589 29.8472C21.0992 29.8443 21.1112 29.7886 21.1383 29.7818C21.2759 29.7476 21.4904 29.8172 21.6252 29.822C22.0647 29.8378 22.5303 29.8256 22.9678 29.8483C23.2443 29.8619 23.7037 29.8698 23.9589 29.9146C24.0139 29.9242 23.9993 29.9749 24.0455 29.9763C24.0967 29.9777 24.1245 29.9444 24.1484 29.9425C24.3142 29.9282 24.6801 29.9114 24.8366 29.9507C24.8664 29.9581 24.888 29.9952 24.9058 29.9957C24.9149 29.9961 24.9353 29.9722 24.9636 29.9709C25.214 29.9594 25.3966 29.9824 25.642 30.0011C26.1119 30.035 26.6564 30.0293 27.15 30.0765C27.2576 30.0867 27.3313 30.1336 27.3464 30.1336C27.3796 30.1342 27.4009 30.1068 27.4681 30.1041C27.6916 30.0962 27.9926 30.1417 28.2052 30.1442C28.3102 30.1457 28.4545 30.1337 28.5578 30.1389C28.6404 30.1429 28.8353 30.1675 28.8719 30.1636C28.8942 30.1614 28.9045 30.149 28.9311 30.1504ZM26.1503 30.54C26.165 30.4716 26.0104 30.5356 26.0684 30.5697C26.0815 30.5772 26.1465 30.5577 26.1503 30.54ZM18.9135 30.5219C18.9149 30.554 18.9163 30.586 18.9178 30.618C18.9381 30.6048 18.9583 30.5915 18.9786 30.5783C18.9672 30.559 18.9558 30.5397 18.9444 30.5204C18.9341 30.5209 18.9238 30.5214 18.9135 30.5219Z" fill="#64E6F4"/>
</g>
</g>
<defs>
<filter id="filter0_f_38_797" x="8.32764" y="10.9058" width="22.6143" height="3.03613" filterUnits="userSpaceOnUse" color-interpolation-filters="sRGB">
<feFlood flood-opacity="0" result="BackgroundImageFix"/>
<feBlend mode="normal" in="SourceGraphic" in2="BackgroundImageFix" result="shape"/>
<feGaussianBlur stdDeviation="0.5" result="effect1_foregroundBlur_38_797"/>
</filter>
<filter id="filter1_f_38_797" x="8.32764" y="19.8201" width="22.6143" height="3.03613" filterUnits="userSpaceOnUse" color-interpolation-filters="sRGB">
<feFlood flood-opacity="0" result="BackgroundImageFix"/>
<feBlend mode="normal" in="SourceGraphic" in2="BackgroundImageFix" result="shape"/>
<feGaussianBlur stdDeviation="0.5" result="effect1_foregroundBlur_38_797"/>
</filter>
<filter id="filter2_f_38_797" x="8.32764" y="28.7725" width="22.6143" height="3.03613" filterUnits="userSpaceOnUse" color-interpolation-filters="sRGB">
<feFlood flood-opacity="0" result="BackgroundImageFix"/>
<feBlend mode="normal" in="SourceGraphic" in2="BackgroundImageFix" result="shape"/>
<feGaussianBlur stdDeviation="0.5" result="effect1_foregroundBlur_38_797"/>
</filter>
</defs>
</svg>
