<svg width="164" height="52" viewBox="0 0 164 52" fill="none" xmlns="http://www.w3.org/2000/svg">
<path opacity="0.7" d="M3.9763 0.0141401C6.30851 -0.0223337 9.36566 0.0166656 11.6891 0.0701946C12.4172 0.0867965 12.0485 0.161008 12.5511 0.17581C13.5342 0.204664 14.4501 0.168268 15.4216 0.20264C15.7436 0.214395 15.3428 0.331946 15.6804 0.34158C17.5304 0.393531 19.2805 0.36359 21.1546 0.388577C30.3855 0.511862 39.4594 0.555989 48.8033 0.609548C51.8842 0.627108 55.6295 0.73379 58.8118 0.687136C59.1833 0.681584 58.9618 0.578404 59.0325 0.5699C60.141 0.439712 59.7724 0.648011 60.4963 0.675686C63.369 0.784958 66.5636 0.794461 69.3283 0.754641C70.5045 0.737397 69.3252 0.532456 70.5095 0.647488C70.5918 0.65526 70.2933 0.76483 70.6159 0.776516C71.3474 0.8028 72.7352 0.783215 73.3022 0.791896C74.3948 0.809182 74.5755 0.808079 75.609 0.809328C77.0218 0.811988 78.7021 0.866455 80.2179 0.841628C80.5415 0.836003 80.1131 0.723681 80.6291 0.704568C81.1456 0.685485 82.5119 0.695009 82.9725 0.721487C83.4332 0.747978 83.237 0.83626 83.3186 0.856496C83.9894 1.02729 85.5698 0.79074 85.7731 0.78489C89.4807 0.685211 92.6601 0.819966 96.1404 0.819582C98.7824 0.819004 101.607 0.774517 104.121 0.780617C107.116 0.78832 109.655 0.849185 112.564 0.838722C112.872 0.837747 112.512 0.705684 112.887 0.704226C116.871 0.688858 120.828 0.703254 124.796 0.792409C125.194 0.801467 124.681 0.917418 125.078 0.9334C127.512 1.02869 131.363 1.2576 132.808 0.752761C134.457 0.772474 136.458 0.792842 137.933 0.894606C138.884 0.960103 137.961 1.08642 139.129 1.03252C139.392 1.02051 139.05 0.909889 139.445 0.900246C141.108 0.859748 142.926 0.895707 144.571 0.838552C144.906 0.826666 144.815 0.727544 144.909 0.709695C145.706 0.56514 147.033 0.804098 147.323 0.821462C149.525 0.950944 151.134 0.89999 153.186 0.903151C153.662 0.90394 153.099 0.770797 153.557 0.766774C155.934 0.747692 158.395 0.759136 160.722 0.818215C161.24 0.831676 160.764 0.94509 161.011 0.957326C161.34 0.973169 161.592 0.964781 161.811 0.946596C162.45 0.93393 163.106 1.03339 163.58 1.95929C163.693 2.24671 163.532 2.12091 163.543 2.17555C163.577 2.40068 163.591 2.60753 163.592 2.7999C163.595 3.21152 163.723 3.53557 163.727 3.65391C163.799 5.70211 163.551 7.0113 163.586 8.98997C163.59 9.22668 163.713 8.6929 163.718 9.3583C163.752 13.7913 163.718 18.4796 163.62 22.8675C163.605 23.5498 163.513 23.0628 163.501 23.1057C163.324 23.8054 163.562 24.2581 163.571 24.4806C163.635 26.2355 163.436 27.8749 163.719 29.0673C163.665 33.1319 163.689 37.1863 163.679 41.2316C163.682 41.8054 163.4 42.3706 162.942 42.7135C160.611 44.475 158.27 46.2154 155.894 47.9018C155.817 47.9563 155.88 47.7611 155.728 47.8703C153.898 49.1832 154.352 49.066 153.303 50.1467C153.039 50.4188 151.968 50.897 151.875 50.9426L151.737 51.0481C151.693 50.9903 151.587 50.8515 151.579 50.8403L151.63 50.8013C151.611 50.8127 151.592 50.8241 151.575 50.8354C151.173 51.0712 150.991 51.1863 150.709 51.3238C150.45 51.4548 150.148 51.6008 149.456 51.6009C149.413 51.6 149.594 51.4937 149.479 51.4832C149.12 51.45 148.764 51.4922 148.413 51.4557C147.61 51.3711 147.324 51.0906 146.097 51.2538C145.942 51.275 146.179 51.6024 144.951 51.5869C144.461 51.5805 142.294 51.5861 141.686 51.5649C141.08 51.5437 141.496 51.4382 141.453 51.4336C139.818 51.2941 140.438 51.2363 139.619 51.0298C138.8 50.824 139.027 51.3148 138.694 51.3695C138.359 51.4241 137.161 51.3091 136.866 51.269C136.572 51.229 136.939 51.162 136.677 51.1393C134.942 50.9913 135.916 51.3829 135.344 51.4608C133.996 51.6452 132.945 51.2813 131.711 51.2456C131.377 51.236 131.65 51.3189 131.352 51.3266C130.175 51.3562 129.466 51.2427 128.126 51.3468C127.907 51.3638 126.824 51.5826 126.123 51.422C126.023 51.3988 126.306 51.3082 125.804 51.2878C125.054 51.2574 123.703 51.2375 122.897 51.2678C122.302 51.2903 122.984 51.4397 122.235 51.3933C121.902 51.3726 122.519 51.2851 121.893 51.2535C121.271 51.2219 119.681 51.2257 119.075 51.2287C118.471 51.2318 118.802 51.3451 118.753 51.3528C118.457 51.3965 117.298 51.4512 117.195 51.451C112.027 51.4649 107.261 51.2738 102.229 51.3371C101.834 51.3419 102.097 51.4614 102.037 51.4634C100.685 51.5134 101.751 51.1956 100.806 51.0893C100.943 51.3318 100.385 51.2879 99.4329 51.3145C98.974 51.3275 99.224 51.4214 99.1821 51.4311C98.5016 51.5737 98.0277 51.3895 97.9056 51.3518C97.4549 51.2131 96.9644 51.3769 96.6577 51.2843C96.3512 51.1923 97.0567 51.0559 96.1433 51.0576C95.8872 51.1445 96.5653 51.3714 95.8719 51.4082C93.2556 51.5473 88.3718 51.3692 86.2682 51.3507C84.1688 51.3323 83.4907 51.3483 82.2674 51.3169C80.0576 51.2602 80.8675 51.4285 79.4954 51.5056C78.1192 51.5826 78.7882 51.1684 78.5904 51.0793C78.3963 50.9903 78.1842 51.082 77.9427 51.033C77.7019 50.9841 78.2231 50.9236 77.6569 50.9052C77.0903 50.8868 75.5413 51.0452 75.3405 51.1383C74.916 51.3356 75.614 51.5426 74.1149 51.4698C74.0286 51.4655 74.3084 51.3566 73.9783 51.3456C71.3561 51.2618 68.6321 51.2566 66.0131 51.1824C65.653 51.172 65.975 51.0509 65.7655 51.0435C63.5826 50.966 64.3629 51.1703 63.1665 51.3972C63.4351 51.0952 62.7735 50.9104 61.1169 50.9086C60.121 50.9074 60.2924 51.0394 59.6483 51.1323C59.455 51.1604 58.7504 51.0698 58.6227 51.1318C58.2016 51.3346 58.8653 51.5616 57.1573 51.4712C57.0824 51.4669 57.321 51.3559 57.062 51.3492C55.3882 51.3052 55.188 51.5173 53.3787 51.543C51.9606 51.5631 49.4383 51.4338 47.8235 51.4128C47.8575 51.0732 46.3323 51.151 45.7136 51.3851C44.6656 51.3755 43.5337 51.3887 42.5208 51.3564C42.1723 51.3453 42.4013 51.247 42.3573 51.2364C41.6832 51.0698 41.2276 51.2975 41.0015 51.3065C38.5498 51.3933 36.5524 51.2206 34.2127 51.3894C34.1297 51.3954 33.9951 51.6313 33.3697 51.4591C33.3292 51.4472 34.102 51.3399 33.0014 51.3316C31.9005 51.3233 29.8254 51.1968 28.2972 51.3061C27.9274 51.3324 26.9919 51.5239 26.2412 51.3743C26.1412 51.354 26.2506 51.2864 26.1062 51.2487C25.6395 51.1288 25.3847 51.3672 24.8361 51.1646C24.2875 50.9621 23.1465 50.8104 21.6053 50.9501C21.5562 50.9542 21.1914 51.1432 20.7067 51.1402C19.933 51.1353 18.8346 51.0959 18.0267 51.0971C17.6399 51.0978 17.8875 51.2151 17.8204 51.2173C15.2195 51.283 13.3685 51.1784 10.5823 51.133C10.0715 51.1245 8.60378 51.2845 7.61499 51.158C6.52927 51.0195 7.64495 50.4434 5.14939 50.5807C4.37117 50.6231 3.43292 51.0696 2.21128 51.095C1.85492 51.1078 1.46115 50.9168 1.2674 50.576C1.03902 50.3457 0.906005 50.0249 0.903272 49.6999C0.865169 46.5861 1.00997 43.6423 0.889428 40.477C0.883493 40.3188 0.679524 39.8186 0.6823 39.4466C0.686816 38.8945 0.782148 38.5914 0.788428 38.1972C0.817143 36.5452 0.73558 35.0334 0.748267 33.4406C0.752876 32.8359 0.851448 33.0473 0.856958 32.3261C0.862375 31.6053 0.732574 31.1246 0.795264 30.1478C0.843048 29.4101 1.10836 28.6725 1.13928 27.6933C0.877583 27.656 0.882974 26.9835 0.813892 25.7882C0.800488 25.5584 0.709403 25.8048 0.698365 25.6961C0.651419 25.2538 0.726909 24.8444 0.675806 24.4244C0.663533 24.3222 0.574161 24.3174 0.559083 24.2339C0.427467 23.5236 0.628499 22.3535 0.663501 22.1525C0.796434 21.3822 0.680196 21.0223 0.732544 20.4315C0.784885 19.8416 0.850317 20.7236 0.88208 20.0346C0.947777 18.6064 0.933344 16.7714 0.937451 15.3209C0.938538 14.7421 0.81924 15.137 0.816626 15.0541C0.786369 13.8574 0.913267 12.6472 0.675635 11.9837C1.29006 11.1539 0.616039 11.262 0.739038 9.55139C0.748987 9.41664 1.03954 9.24523 1.0822 9.76255C1.12482 10.2798 1.03399 11.0643 1.10049 11.782C1.11609 11.952 1.38836 12.9256 1.40486 13.0585C1.53375 14.0991 1.09956 14.2465 1.07571 14.3016C0.818344 14.9259 1.11166 16.1157 1.13193 16.429C1.2248 17.8624 1.16374 19.0802 1.23003 20.2791C1.27287 21.0632 1.55729 21.1399 1.54858 21.7556C1.51981 23.8023 1.12304 24.5168 1.46706 26.4455C1.54044 26.859 1.85129 26.448 1.60686 27.9299C1.59145 28.023 1.36783 29.1232 1.50928 29.7589C1.52711 29.8387 1.6177 29.8362 1.62531 29.9414C1.67454 30.6471 1.60237 31.1176 1.63694 31.8863C1.6715 32.6549 1.72303 33.5791 1.69231 34.4567C1.67393 34.9855 1.50514 35.6641 1.46382 35.9173C1.34477 36.6322 1.53995 37.3987 1.3958 37.8415C1.25092 38.2881 1.03089 37.415 0.93728 38.5861C1.17265 38.6295 1.41424 38.7291 1.65095 38.7989C1.64266 41.3653 1.56655 43.8906 1.57695 46.4656C1.57848 46.7848 1.70501 46.4583 1.70991 46.8006C1.72394 47.8086 1.68422 48.7275 1.67118 49.6999C1.66411 49.8645 1.74317 50.0328 1.89195 50.1299C1.98723 50.1921 2.10006 50.2147 2.21128 50.1972C3.11196 50.1459 4.05111 50.0647 4.95728 50.0394C5.69764 50.3088 7.49603 50.2173 8.80256 50.2419C9.26017 50.2505 9.22962 50.3224 9.55509 50.3459C10.7829 50.4326 10.2076 50.1946 10.5442 50.1572C11.9884 49.9973 12.112 50.536 13.8147 50.5227C13.9049 50.5222 15.0076 50.235 15.1595 50.2172C16.1244 50.1006 15.3192 50.3171 15.9231 50.3383C17.0258 50.3771 17.792 50.4457 19.0857 50.3616C19.463 50.3367 20.3678 50.1577 21.1004 50.2961C21.1968 50.3142 21.1435 50.4092 21.2211 50.4147C22.6252 50.5074 22.6621 50.2091 23.4644 50.1081C24.2669 50.0071 25.5063 50.213 25.7585 50.2724C26.4184 50.4259 25.2529 50.338 25.2171 50.353C24.7974 50.5323 25.7013 50.5014 26.392 50.5166C26.492 50.809 27.4579 50.7915 27.108 50.5311C27.0682 50.5027 26.5307 50.5299 26.392 50.5166C26.9983 50.2297 28.0598 50.1929 29.2323 50.461C29.7811 50.5867 29.2623 50.7332 30.9295 50.6796C31.6861 50.6554 31.3937 50.4541 32.0615 50.3992C33.5869 50.2739 35.5692 50.4618 37.1419 50.4322C37.7127 50.4214 37.1567 50.3112 37.5468 50.3C38.582 50.2701 39.495 50.3528 40.5347 50.3105C40.6289 50.3065 40.3987 50.1911 40.722 50.1897C43.1731 50.1763 45.3073 50.2502 47.8664 50.2522C49.1029 50.2531 51.3135 50.1895 52.5944 50.2023C54.8144 50.2238 57.5454 50.3916 59.4419 50.3508C60.6788 50.3247 60.4075 50.2093 60.9375 50.1307C61.9602 49.9783 63.7705 50.2513 64.0143 50.2936C64.0217 50.295 62.9574 50.3222 63.5253 50.3814C63.8555 50.5048 64.0023 50.2941 64.0143 50.2936C64.1744 50.3209 66.3006 50.3471 66.7228 50.325C66.9522 50.3129 66.8239 50.2036 66.9435 50.1994C69.7866 50.1015 72.6347 50.0738 75.5183 50.1249C75.5691 50.1271 75.4926 50.2494 75.612 50.2531C77.2814 50.3074 78.3503 50.1578 79.7272 50.069C81.1038 49.9802 82.1955 50.0099 83.0104 50.2199C84.0491 50.1935 85.5393 50.2863 86.3968 50.3426C87.2543 50.3989 87.374 50.1609 87.4494 50.1562C89.8028 50.0055 91.1632 50.1418 93.6047 50.163C94.7655 50.1735 97.068 50.139 98.3248 50.1129C99.318 50.0919 99.9164 50.1477 100.832 50.1121C100.955 50.1073 100.83 50.0013 100.868 49.9972C101.89 49.8704 101.399 50.1295 101.61 50.1758C102.374 50.3441 102.847 50.4337 104.155 50.3546C104.456 50.3364 105.335 49.9633 105.885 49.9415C106.6 49.9138 106.33 50.0476 107.079 50.0152C107.143 50.0125 107.13 49.93 107.592 49.9336C109.737 49.9494 112.075 49.9975 114.304 49.9892C114.609 49.9884 114.218 49.8575 114.658 49.8542C116.723 49.8387 118.985 49.8435 120.996 49.9048C121.491 49.9203 121.181 50.0119 121.288 50.0391C121.948 50.2037 122.884 49.9645 123.038 49.96C126.72 49.845 129.538 50.0615 133.291 49.9584C133.495 49.9524 135.068 49.696 135.769 49.9159C135.817 49.9305 136.511 50.1555 137.125 50.0017C137.163 49.992 136.731 49.8762 137.485 49.888C138.24 49.8998 139.455 49.8224 140.492 49.9497C140.821 49.9898 141.597 50.2142 142.577 50.0353C142.641 50.0228 144.153 49.6183 144.693 49.8974C144.781 49.9434 144.689 50.2387 145.859 50.0873C146.082 50.0579 145.676 49.992 146.265 49.9509C147.167 49.8875 148.362 49.9666 149.471 49.835C149.623 49.8167 150.164 49.689 150.709 49.709C150.71 49.7143 150.712 49.7312 150.728 49.7603C150.744 49.7794 150.753 49.8839 150.802 49.8732C150.812 49.8704 150.822 49.8665 150.832 49.8615C152.122 48.929 153.406 47.8779 154.725 46.9536C155.214 46.6111 155.068 46.9227 155.588 46.5797C156.108 46.2367 157.129 45.5099 157.602 45.0575C158.075 44.605 157.356 44.834 158.118 44.2268C159.361 43.2371 160.62 42.2773 161.886 41.3298C161.919 41.3103 161.944 41.2739 161.949 41.2316C161.978 39.0254 162.024 36.8206 162.036 34.6065C162.039 33.9791 161.948 34.4992 161.946 33.5746C161.94 30.1654 161.854 24.2794 162.048 21.3212C162.202 18.9509 162.32 21.9337 162.383 20.1225C162.413 19.2485 162.118 18.3029 162.108 18.0919C162.014 16.0308 162.145 14.5983 162.105 12.7432C162.096 12.3601 161.977 12.7358 161.971 12.4097C161.95 11.2961 162.004 10.1256 161.994 9.06141C161.989 8.58399 161.898 8.67196 161.905 8.23267C161.921 7.18151 161.959 6.25199 162.045 5.22727C162.052 5.13387 162.166 5.76364 162.17 4.98594C162.174 4.32141 162.199 3.57223 162.209 2.7999C162.23 2.59996 162.025 2.4014 161.843 2.43823C161.831 2.43989 161.821 2.4439 161.811 2.4495C161.486 2.50092 161.39 2.658 160.557 2.52788C160.364 2.49774 160.611 2.24681 159.535 2.46362C159.354 2.49965 157.547 2.79209 156.66 2.60359C156.426 2.55397 155.828 2.34864 155.312 2.38091C155.242 2.38605 155.522 2.4983 155.094 2.50925C153.585 2.54588 152.004 2.53391 150.453 2.56906C150.04 2.57867 150.656 2.69483 150.039 2.70544C148.342 2.7348 146.224 2.70522 144.565 2.66887C143.953 2.65524 144.376 2.55903 144.332 2.54856C143.616 2.37825 143.193 2.60813 142.955 2.62153C141.478 2.70179 140.353 2.59381 138.991 2.62238C138.615 2.62998 138.881 2.73959 138.807 2.74936C138.031 2.84486 138.609 2.64801 138.118 2.62631C136.742 2.56488 135.208 2.57369 133.817 2.58769C133.306 2.593 133.88 2.72009 133.421 2.72338C130.707 2.74528 127.885 2.73312 125.235 2.66306C124.737 2.64963 125.05 2.55177 124.946 2.52942C124.23 2.37303 123.18 2.58634 122.938 2.60666C121.839 2.69944 121.413 2.6129 120.442 2.62905C115.702 2.70948 109.85 2.65216 105.376 2.61674C99.5453 2.57117 95.021 2.47807 89.4612 2.50224C89.1078 2.50366 89.4641 2.63385 89.1595 2.63674C85.2267 2.66812 81.3549 2.61725 77.4141 2.65485C77.0908 2.65771 77.5569 2.78113 77.0379 2.78986C75.9733 2.80864 74.6247 2.80193 73.5482 2.76252C73.0232 2.74353 73.7274 2.63762 73.199 2.62067C71.9684 2.58097 70.6494 2.57218 69.3855 2.59196C68.8476 2.60065 69.6591 2.72688 68.96 2.72834C64.1975 2.74086 59.5203 2.7626 54.7077 2.59914C54.3778 2.58792 54.0883 2.33136 53.3868 2.38056C53.334 2.45176 53.3368 2.53552 53.3138 2.61162C46.3809 2.65261 39.5188 2.56367 32.5665 2.54992C32.2734 2.54937 32.78 2.68531 32.2125 2.68493C28.9279 2.68292 25.7384 2.72058 22.3786 2.58547C22.0453 2.57226 22.2163 2.33312 21.2339 2.36928C21.0607 2.37588 19.5811 2.40778 19.1986 2.45969C19.1466 2.46752 19.4166 2.57914 18.9398 2.58239C16.1692 2.59934 13.2657 2.57386 10.4999 2.50566C10.0535 2.49444 10.5289 2.37557 10.211 2.36655C7.9557 2.30345 5.50261 2.39381 3.3476 2.28589C2.5455 2.24548 2.35453 2.16401 2.21128 2.06487C2.14828 1.99147 2.09568 1.88024 1.83804 1.87779C1.79732 1.87752 1.62679 1.94474 1.48569 2.05994C1.34118 2.17032 1.23471 2.32108 1.17369 2.3146C1.01887 2.29867 0.901039 2.17688 0.803865 2.02684C0.70378 1.88211 0.625312 1.7093 0.421821 1.73826C0.373293 1.73939 0.15488 2.16037 0.11026 2.48807C0.0666434 2.80671 0.0305174 3.01178 5.90682e-05 2.44444C0.000240803 2.40649 0.0405663 2.03086 0.22954 1.66549C0.407336 1.29491 0.735335 0.977031 0.87067 0.856797C1.06707 0.686445 0.589562 0.832021 1.04258 0.512874C1.34867 0.321915 1.74498 0.231483 2.21128 0.240605C2.35366 0.246207 2.51124 0.245642 2.69031 0.225028C3.19316 0.166401 2.97206 0.0302563 3.9763 0.0141401ZM90.258 50.5943C91.052 50.7087 91.1692 50.2899 90.3104 50.3901C90.2688 50.3955 90.217 50.5887 90.258 50.5943ZM1.25071 43.8762C1.06602 44.9142 1.33758 45.6245 1.48022 44.8922C1.62271 44.16 1.30669 43.5599 1.25071 43.8762ZM1.11587 33.112C0.970248 34.3252 1.56403 34.5161 1.44399 33.2167C1.43721 33.1412 1.12432 33.041 1.11587 33.112ZM5.22736 1.7479C5.2164 1.74234 4.57431 1.73692 4.55897 1.74243C4.21706 1.87542 5.50098 1.88616 5.22736 1.7479ZM0.969067 22.4303C0.888745 22.809 0.981467 23.8995 1.08135 23.4289C1.1617 23.0501 1.06898 21.9586 0.969067 22.4303ZM131.678 51.0412C131.69 51.0475 132.151 51.0531 132.141 51.0178C132.11 50.9042 131.47 50.9363 131.678 51.0412ZM0.962231 4.27566C0.93988 6.95792 0.44939 8.58422 0.504737 5.66326C0.514751 5.1343 0.661151 6.80329 0.705371 6.13003C0.785934 4.89812 0.477966 4.08011 0.642994 2.82297C0.673199 2.5954 0.964596 4.12265 0.962914 4.28042C0.962687 4.27883 0.962459 4.27725 0.962231 4.27566ZM90.7152 51.0973C90.7311 51.1028 91.3683 51.1081 91.3836 51.1026C91.7287 50.9697 90.4449 50.959 90.7152 51.0973ZM157.18 46.7766C157.215 46.7647 158.398 45.8766 158.429 45.8387C158.911 45.198 156.52 46.993 157.18 46.7766ZM47.7981 51.4037C47.1028 51.5374 46.271 51.5532 45.7167 51.3853C46.4078 51.3942 47.1033 51.3955 47.7981 51.4037Z" fill="#07596E"/>
<path d="M73.0064 31.3999H67.2464C67.0424 31.3999 66.9404 31.2979 66.9404 31.0939V20.1319C66.9404 19.9279 67.0424 19.8259 67.2464 19.8259H73.0064C73.1984 19.8259 73.2944 19.9279 73.2944 20.1319V21.0499C73.2944 21.2539 73.1984 21.3559 73.0064 21.3559H68.9024C68.7584 21.3559 68.6864 21.4159 68.6864 21.5359V24.5779C68.6864 24.6979 68.7584 24.7579 68.9024 24.7579H72.3764C72.5924 24.7579 72.7004 24.8599 72.7004 25.0639V25.9819C72.7004 26.1859 72.5924 26.2879 72.3764 26.2879H68.9024C68.7584 26.2879 68.6864 26.3479 68.6864 26.4679V29.6719C68.6864 29.8039 68.7584 29.8699 68.9024 29.8699H73.0064C73.1984 29.8699 73.2944 29.9719 73.2944 30.1759V31.0939C73.2944 31.2979 73.1984 31.3999 73.0064 31.3999ZM77.7128 29.8699H80.2508C81.1148 29.8699 81.5468 29.4259 81.5468 28.5379V22.6879C81.5468 21.7999 81.1148 21.3559 80.2508 21.3559H77.7128C77.5808 21.3559 77.5148 21.4159 77.5148 21.5359V29.6719C77.5148 29.8039 77.5808 29.8699 77.7128 29.8699ZM75.7688 31.0939V20.1319C75.7688 19.9279 75.8708 19.8259 76.0748 19.8259H80.5028C81.3788 19.8259 82.0628 20.0719 82.5548 20.5639C83.0588 21.0439 83.3108 21.7279 83.3108 22.6159V28.6099C83.3108 29.4859 83.0588 30.1699 82.5548 30.6619C82.0628 31.1539 81.3788 31.3999 80.5028 31.3999H76.0748C75.8708 31.3999 75.7688 31.2979 75.7688 31.0939ZM87.7692 20.1319V31.0939C87.7692 31.2979 87.6672 31.3999 87.4632 31.3999H86.3292C86.1252 31.3999 86.0232 31.2979 86.0232 31.0939V20.1319C86.0232 19.9279 86.1252 19.8259 86.3292 19.8259H87.4632C87.6672 19.8259 87.7692 19.9279 87.7692 20.1319ZM93.834 31.3999H92.7C92.484 31.3999 92.376 31.2979 92.376 31.0939V21.5359C92.376 21.4159 92.316 21.3559 92.196 21.3559H89.928C89.712 21.3559 89.604 21.2539 89.604 21.0499V20.1319C89.604 19.9279 89.712 19.8259 89.928 19.8259H96.606C96.822 19.8259 96.93 19.9279 96.93 20.1319V21.0499C96.93 21.2539 96.822 21.3559 96.606 21.3559H94.338C94.206 21.3559 94.14 21.4159 94.14 21.5359V31.0939C94.14 31.2979 94.038 31.3999 93.834 31.3999Z" fill="#64E6F4"/>
<g filter="url(#filter0_f_61_226)">
<path d="M73.0064 31.3999H67.2464C67.0424 31.3999 66.9404 31.2979 66.9404 31.0939V20.1319C66.9404 19.9279 67.0424 19.8259 67.2464 19.8259H73.0064C73.1984 19.8259 73.2944 19.9279 73.2944 20.1319V21.0499C73.2944 21.2539 73.1984 21.3559 73.0064 21.3559H68.9024C68.7584 21.3559 68.6864 21.4159 68.6864 21.5359V24.5779C68.6864 24.6979 68.7584 24.7579 68.9024 24.7579H72.3764C72.5924 24.7579 72.7004 24.8599 72.7004 25.0639V25.9819C72.7004 26.1859 72.5924 26.2879 72.3764 26.2879H68.9024C68.7584 26.2879 68.6864 26.3479 68.6864 26.4679V29.6719C68.6864 29.8039 68.7584 29.8699 68.9024 29.8699H73.0064C73.1984 29.8699 73.2944 29.9719 73.2944 30.1759V31.0939C73.2944 31.2979 73.1984 31.3999 73.0064 31.3999ZM77.7128 29.8699H80.2508C81.1148 29.8699 81.5468 29.4259 81.5468 28.5379V22.6879C81.5468 21.7999 81.1148 21.3559 80.2508 21.3559H77.7128C77.5808 21.3559 77.5148 21.4159 77.5148 21.5359V29.6719C77.5148 29.8039 77.5808 29.8699 77.7128 29.8699ZM75.7688 31.0939V20.1319C75.7688 19.9279 75.8708 19.8259 76.0748 19.8259H80.5028C81.3788 19.8259 82.0628 20.0719 82.5548 20.5639C83.0588 21.0439 83.3108 21.7279 83.3108 22.6159V28.6099C83.3108 29.4859 83.0588 30.1699 82.5548 30.6619C82.0628 31.1539 81.3788 31.3999 80.5028 31.3999H76.0748C75.8708 31.3999 75.7688 31.2979 75.7688 31.0939ZM87.7692 20.1319V31.0939C87.7692 31.2979 87.6672 31.3999 87.4632 31.3999H86.3292C86.1252 31.3999 86.0232 31.2979 86.0232 31.0939V20.1319C86.0232 19.9279 86.1252 19.8259 86.3292 19.8259H87.4632C87.6672 19.8259 87.7692 19.9279 87.7692 20.1319ZM93.834 31.3999H92.7C92.484 31.3999 92.376 31.2979 92.376 31.0939V21.5359C92.376 21.4159 92.316 21.3559 92.196 21.3559H89.928C89.712 21.3559 89.604 21.2539 89.604 21.0499V20.1319C89.604 19.9279 89.712 19.8259 89.928 19.8259H96.606C96.822 19.8259 96.93 19.9279 96.93 20.1319V21.0499C96.93 21.2539 96.822 21.3559 96.606 21.3559H94.338C94.206 21.3559 94.14 21.4159 94.14 21.5359V31.0939C94.14 31.2979 94.038 31.3999 93.834 31.3999Z" fill="#64E6F4"/>
</g>
<defs>
<filter id="filter0_f_61_226" x="65.9404" y="18.8259" width="31.9895" height="13.574" filterUnits="userSpaceOnUse" color-interpolation-filters="sRGB">
<feFlood flood-opacity="0" result="BackgroundImageFix"/>
<feBlend mode="normal" in="SourceGraphic" in2="BackgroundImageFix" result="shape"/>
<feGaussianBlur stdDeviation="0.5" result="effect1_foregroundBlur_61_226"/>
</filter>
</defs>
</svg>
