<svg width="184" height="67" viewBox="0 0 184 67" fill="none" xmlns="http://www.w3.org/2000/svg">
<path opacity="0.7" d="M4.83568 0.0141401C7.54805 -0.0223337 11.1035 0.0166656 13.8056 0.0701946C14.6525 0.0867965 14.2237 0.161008 14.8082 0.17581C15.9516 0.204664 17.0167 0.168268 18.1466 0.20264C18.521 0.214395 18.0549 0.331946 18.4475 0.34158C20.5991 0.393531 22.6345 0.36359 24.814 0.388577C35.5497 0.511862 46.1026 0.555989 56.9696 0.609548C60.5527 0.627108 64.9085 0.73379 68.6094 0.687136C69.0415 0.681584 68.7839 0.578404 68.8661 0.5699C70.1554 0.439712 69.7267 0.648011 70.5685 0.675686C73.9096 0.784958 77.6248 0.794461 80.8402 0.754641C82.2081 0.737397 80.8366 0.532456 82.2139 0.647488C82.3096 0.65526 81.9625 0.76483 82.3376 0.776516C83.1884 0.8028 84.8025 0.783215 85.4618 0.791896C86.7325 0.809182 86.9427 0.808079 88.1447 0.809328C89.7877 0.811988 91.7419 0.866455 93.5048 0.841628C93.8811 0.836003 93.383 0.723681 93.9831 0.704568C94.5837 0.685485 96.1727 0.695009 96.7084 0.721487C97.2442 0.747978 97.0161 0.83626 97.1109 0.856496C97.891 1.02729 99.7291 0.79074 99.9655 0.78489C104.277 0.685211 107.975 0.819966 112.023 0.819582C115.095 0.819004 118.381 0.774517 121.305 0.780617C124.788 0.78832 127.74 0.849185 131.124 0.838722C131.481 0.837747 131.063 0.705684 131.499 0.704226C136.133 0.688858 140.735 0.703254 145.349 0.792409C145.812 0.801467 145.215 0.917418 145.677 0.9334C148.508 1.02869 152.987 1.2576 154.668 0.752761C156.585 0.772474 158.913 0.792842 160.628 0.894606C161.734 0.960103 160.66 1.08642 162.018 1.03252C162.325 1.02051 161.926 0.909889 162.386 0.900246C164.32 0.859748 166.434 0.895707 168.348 0.838552C168.737 0.826666 168.631 0.727544 168.741 0.709695C169.668 0.56514 171.211 0.804098 171.548 0.821462C174.109 0.950944 175.98 0.89999 178.367 0.903151C178.92 0.90394 178.266 0.770797 178.799 0.766774C179.789 0.759937 180.792 0.757019 181.796 0.758807C182.672 0.739101 183.455 1.53019 183.43 2.3999C183.422 3.67116 183.405 4.93406 183.378 6.16455C183.364 6.76651 183.251 6.21294 183.239 6.5006C183.186 7.76895 183.4 8.05012 183.354 9.26654C183.345 9.52301 183.247 9.37851 183.237 9.42534C183.069 10.1574 183.307 10.7936 183.312 10.9819C183.383 13.3639 183.136 14.8865 183.171 17.1877C183.175 17.463 183.298 16.8422 183.303 17.6161C183.337 22.7716 183.303 28.2242 183.205 33.3273C183.19 34.1208 183.098 33.5544 183.086 33.6043C182.909 34.4181 183.147 34.9446 183.156 35.2033C183.22 37.2443 183.02 39.1509 183.304 40.5376C183.255 44.8544 183.27 49.1613 183.266 53.4592C183.268 53.8755 183.081 54.2875 182.768 54.5608C179.745 57.2177 176.714 59.8531 173.628 62.4161C173.544 62.4859 173.613 62.2688 173.446 62.4086C171.439 64.091 171.937 63.8951 170.785 65.2083C170.633 65.3812 170.239 65.6488 169.884 65.8737C169.497 66.1486 169.077 66.1274 168.937 66.1033C168.917 66.0996 168.902 66.0969 168.894 66.0955C168.466 66.0228 168.91 65.8483 168.766 65.8342C167.58 65.7236 167.774 66.3007 166.174 66.3009C166.124 66.3 166.334 66.1937 166.2 66.1832C165.783 66.15 165.369 66.1922 164.961 66.1557C164.027 66.0711 163.694 65.7906 162.267 65.9538C162.086 65.975 162.362 66.3024 160.934 66.2869C160.364 66.2805 157.844 66.2861 157.138 66.2649C156.432 66.2437 156.916 66.1382 156.866 66.1336C154.965 65.9941 155.686 65.9363 154.734 65.7298C153.781 65.524 154.045 66.0148 153.657 66.0695C153.268 66.1241 151.874 66.0091 151.532 65.969C151.189 65.929 151.616 65.862 151.312 65.8393C149.294 65.6913 150.426 66.0829 149.761 66.1608C148.193 66.3452 146.972 65.9813 145.536 65.9456C145.148 65.936 145.465 66.0189 145.119 66.0266C143.749 66.0562 142.926 65.9427 141.367 66.0468C141.112 66.0638 139.852 66.2826 139.037 66.122C138.922 66.0988 139.25 66.0082 138.666 65.9878C137.794 65.9574 136.223 65.9375 135.285 65.9678C134.593 65.9903 135.386 66.1397 134.515 66.0933C134.128 66.0726 134.846 65.9851 134.118 65.9535C133.395 65.9219 131.545 65.9257 130.841 65.9287C130.138 65.9318 130.523 66.0452 130.466 66.0528C130.122 66.0965 128.774 66.1512 128.655 66.151C122.644 66.1649 117.101 65.9738 111.248 66.0371C110.789 66.0419 111.095 66.1614 111.025 66.1634C109.453 66.2134 110.692 65.8956 109.594 65.7893C109.753 66.0318 109.104 65.9879 107.997 66.0145C107.463 66.0275 107.754 66.1214 107.705 66.1311C106.914 66.2737 106.362 66.0895 106.22 66.0518C105.696 65.9131 105.126 66.0769 104.769 65.9843C104.413 65.8923 105.233 65.7559 104.171 65.7576C103.873 65.8445 104.662 66.0714 103.855 66.1082C100.812 66.2473 95.1327 66.0692 92.6862 66.0507C90.2446 66.0323 89.4559 66.0483 88.0331 66.0169C85.4632 65.9602 86.405 66.1285 84.8093 66.2056C83.2089 66.2826 83.9869 65.8684 83.7568 65.7794C83.531 65.6903 83.2844 65.782 83.0035 65.733C82.7235 65.6841 83.3297 65.6236 82.6711 65.6052C82.0122 65.5869 80.2107 65.7452 79.9772 65.8383C79.4835 66.0356 80.2952 66.2426 78.5518 66.1698C78.4515 66.1655 78.7769 66.0566 78.393 66.0456C75.3434 65.9618 72.1753 65.9566 69.1294 65.8824C68.7106 65.872 69.0851 65.7509 68.8414 65.7435C66.3027 65.666 67.2102 65.8703 65.8188 66.0972C66.1312 65.7952 65.3618 65.6104 63.435 65.6086C62.2768 65.6074 62.4762 65.7394 61.7271 65.8323C61.5023 65.8604 60.6828 65.7698 60.5343 65.8318C60.0446 66.0346 60.8166 66.2616 58.8301 66.1712C58.7429 66.1669 59.0204 66.0559 58.7193 66.0492C56.7727 66.0052 56.5397 66.2173 54.4356 66.243C52.7862 66.2631 49.8529 66.1338 47.9749 66.1128C48.0144 65.7732 46.2406 65.851 45.521 66.0851C44.3022 66.0755 42.9858 66.0887 41.8078 66.0564C41.4024 66.0453 41.6688 65.947 41.6177 65.9364C40.8337 65.7698 40.3038 65.9975 40.0408 66.0065C37.1896 66.0933 34.8666 65.9206 32.1455 66.0894C32.0489 66.0954 31.8925 66.3313 31.165 66.1591C31.118 66.1472 32.0167 66.0399 30.7367 66.0316C29.4564 66.0233 27.043 65.8968 25.2657 66.0061C24.8356 66.0324 23.7477 66.2239 22.8746 66.0743C22.7583 66.054 22.8855 65.9864 22.7176 65.9487C22.1748 65.8288 21.8785 66.0672 21.2405 65.8646C20.6025 65.6621 19.2754 65.5104 17.483 65.6501C17.4259 65.6542 17.0016 65.8432 16.4379 65.8402C15.5381 65.8353 14.2607 65.7959 13.3212 65.7971C12.8713 65.7978 13.1592 65.9151 13.0811 65.9173C10.0564 65.983 7.90359 65.8784 4.66326 65.833C4.16365 65.8258 2.87677 65.9379 1.79614 65.8984C1.57152 65.8918 1.36218 65.8068 1.21281 65.6828C0.9035 65.4038 0.958376 65.1936 1.00627 65.0921C1.06528 64.983 1.14738 64.9182 1.21868 64.7999C1.31391 64.5446 1.36891 64.0516 1.31538 62.9194C1.26049 61.7488 0.529657 60.2667 0.9083 58.163C0.814475 54.083 1.00826 50.3098 0.874292 46.2185C0.868356 46.0345 0.664387 45.4527 0.667163 45.0201C0.671679 44.378 0.767011 44.0255 0.773291 43.567C0.802006 41.6457 0.720444 39.8875 0.73313 38.0351C0.73774 37.3318 0.836312 37.5777 0.841821 36.7389C0.847238 35.9006 0.717438 35.3416 0.780127 34.2056C0.827911 33.3476 1.09322 32.4898 1.12414 31.351C0.862447 31.3076 0.867837 30.5255 0.798755 29.1353C0.785351 28.8681 0.694266 29.1546 0.683228 29.0282C0.636283 28.5138 0.711772 28.0377 0.660669 27.5492C0.648396 27.4304 0.559024 27.4248 0.543946 27.3277C0.41233 26.5016 0.613362 25.1407 0.648365 24.907C0.781297 24.0112 0.665059 23.5926 0.717407 22.9055C0.769749 22.2195 0.83518 23.2452 0.866943 22.4439C0.932641 20.7829 0.918207 18.6487 0.922314 16.9618C0.923401 16.2887 0.804104 16.7479 0.801489 16.6516C0.771232 15.2598 0.89813 13.8523 0.660498 13.0806C1.27493 12.1156 0.600902 12.2413 0.723902 10.2519C0.73385 10.0952 1.02441 9.89582 1.06706 10.4975C1.10968 11.0991 1.01886 12.0114 1.08535 12.8461C1.10096 13.0438 1.37323 14.1762 1.38972 14.3307C1.51862 15.5409 1.08442 15.7124 1.06057 15.7764C0.803207 16.5025 1.09653 17.8862 1.1168 18.2506C1.20967 19.9176 1.1486 21.3339 1.21489 22.7282C1.25773 23.6401 1.54215 23.7293 1.53344 24.4454C1.50467 26.8257 1.10791 27.6566 1.45193 29.8997C1.5253 30.3807 1.83616 29.9027 1.59172 31.6261C1.57631 31.7344 1.3527 33.014 1.49414 33.7532C1.51197 33.8461 1.60257 33.8431 1.61018 33.9656C1.65941 34.7862 1.58723 35.3335 1.6218 36.2274C1.65637 37.1213 1.7079 38.1962 1.67717 39.2168C1.6588 39.8319 1.49 40.6211 1.44868 40.9155C1.32963 41.7469 1.52482 42.6383 1.38066 43.1534C1.23578 43.6728 1.01575 42.6574 0.922143 44.0194C1.15752 44.0698 1.3991 44.1857 1.63581 44.2668C1.62753 47.2516 1.55142 50.1884 1.56181 53.1832C1.56334 53.5545 1.68988 53.1748 1.69477 53.5728C1.71487 55.252 1.62467 56.7188 1.66059 58.4603C1.68888 59.8083 1.82286 61.2864 1.85661 62.696C1.71569 63.1465 1.67353 63.9338 1.66184 64.7999C1.65116 64.871 1.72555 64.942 1.79614 64.9371C2.07218 64.937 2.34072 64.9379 2.5934 64.9419C3.12568 64.9505 3.09008 65.0224 3.46861 65.0459C4.89664 65.1326 4.22743 64.8946 4.61895 64.8572C6.29854 64.6973 6.44236 65.236 8.42258 65.2227C8.52747 65.2222 9.80988 64.9351 9.98649 64.9172C11.1088 64.8006 10.1723 65.0171 10.8746 65.0383C12.157 65.0771 13.0481 65.1457 14.5527 65.0616C14.9915 65.0367 16.0439 64.8577 16.8958 64.9961C17.0079 65.0143 16.946 65.1092 17.0362 65.1147C18.6691 65.2074 18.712 64.9091 19.6452 64.8081C20.5784 64.7071 22.0199 64.913 22.3133 64.9724C23.0807 65.1259 21.7252 65.038 21.6836 65.053C21.1954 65.2323 22.2467 65.2014 23.05 65.2166C23.1663 65.509 24.2896 65.4915 23.8827 65.2311C23.8364 65.2027 23.2113 65.2299 23.05 65.2166C23.7551 64.9297 24.9896 64.8929 26.3532 65.161C26.9915 65.2867 26.3881 65.4332 28.3271 65.3796C29.207 65.3554 28.867 65.1541 29.6436 65.0992C31.4177 64.9739 33.7231 65.1618 35.5521 65.1322C36.216 65.1214 35.5693 65.0112 36.023 65.0001C37.227 64.9701 38.2888 65.0528 39.498 65.0105C39.6075 65.0065 39.3398 64.8911 39.7158 64.8897C42.5664 64.8763 45.0485 64.9502 48.0248 64.9522C49.4628 64.9531 52.0337 64.8895 53.5234 64.9023C56.1053 64.9238 59.2814 65.0916 61.4871 65.0508C62.9256 65.0247 62.61 64.9093 63.2264 64.8307C64.4158 64.6783 66.5213 64.9513 66.8048 64.9936C66.8134 64.995 65.5756 65.0222 66.2361 65.0814C66.6201 65.2048 66.7908 64.9941 66.8048 64.9936C66.9909 65.0209 69.4638 65.0471 69.9548 65.025C70.2216 65.0129 70.0724 64.9036 70.2114 64.8994C73.518 64.8015 76.8304 64.7738 80.184 64.8249C80.243 64.8271 80.1541 64.9494 80.2929 64.9531C82.2345 65.0074 83.4776 64.8578 85.0789 64.769C86.6799 64.6802 87.9495 64.7099 88.8973 64.9199C90.1053 64.8935 91.8384 64.9863 92.8357 65.0426C93.833 65.0989 93.9721 64.8609 94.0599 64.8562C96.7969 64.7055 98.379 64.8418 101.218 64.863C102.568 64.8735 105.246 64.839 106.708 64.8129C107.863 64.7919 108.559 64.8477 109.623 64.8121C109.767 64.8073 109.622 64.7013 109.666 64.6972C110.854 64.5704 110.283 64.8295 110.528 64.8758C111.417 65.0441 111.967 65.1337 113.488 65.0546C113.839 65.0364 114.861 64.6633 115.501 64.6415C116.332 64.6138 116.018 64.7476 116.889 64.7152C116.964 64.7125 116.948 64.63 117.486 64.6336C119.98 64.6494 122.7 64.6975 125.292 64.6892C125.646 64.6884 125.192 64.5575 125.704 64.5542C128.105 64.5387 130.736 64.5435 133.075 64.6048C133.651 64.6203 133.29 64.7119 133.415 64.7391C134.182 64.9037 135.27 64.6645 135.449 64.66C139.732 64.545 143.009 64.7615 147.374 64.6584C147.611 64.6524 149.44 64.396 150.256 64.6159C150.312 64.6305 151.119 64.8555 151.833 64.7017C151.877 64.692 151.374 64.5762 152.252 64.588C153.13 64.5998 154.542 64.5224 155.749 64.6497C156.131 64.6898 157.034 64.9142 158.173 64.7353C158.248 64.7228 160.007 64.3183 160.635 64.5974C160.736 64.6434 160.63 64.9387 161.99 64.7873C162.25 64.7579 161.778 64.692 162.463 64.6509C163.512 64.5875 164.901 64.6666 166.191 64.535C166.415 64.5117 167.373 64.3113 168.14 64.4634C168.261 64.4873 168.032 64.5859 168.438 64.5969C168.603 64.6015 168.77 64.6051 168.937 64.6081C168.891 64.6123 168.848 64.6319 168.816 64.6626C169.985 63.6463 171.155 62.5748 172.351 61.5915C172.887 61.1508 172.727 61.5049 173.297 61.0588C173.868 60.6126 174.987 59.6801 175.506 59.1252C176.026 58.5701 175.238 58.9262 176.074 58.1613C177.901 56.4908 179.759 54.873 181.626 53.266C181.573 53.3167 181.545 53.3893 181.549 53.4592C181.577 51.3022 181.611 49.1448 181.621 46.9798C181.624 46.2501 181.533 46.8551 181.531 45.7797C181.525 41.8148 181.439 34.9694 181.632 31.5289C181.787 28.7723 181.905 32.2413 181.968 30.1349C181.998 29.1184 181.703 28.0187 181.693 27.7733C181.599 25.3762 181.73 23.7102 181.69 21.5527C181.681 21.1071 181.561 21.5441 181.556 21.1649C181.535 19.8697 181.588 18.5085 181.579 17.2708C181.574 16.7156 181.483 16.8179 181.49 16.307C181.505 15.0845 181.544 14.0034 181.63 12.8117C181.637 12.7031 181.751 13.4355 181.755 12.531C181.762 11.0672 181.846 9.25016 181.759 7.56598C181.733 7.06627 181.524 7.04668 181.668 5.97252C181.698 5.7472 181.949 6.03468 181.732 4.78342C181.706 4.62723 181.538 3.42904 181.53 2.3999C181.525 2.49485 181.608 2.58047 181.679 2.56612C181.712 2.56339 181.783 2.52503 181.796 2.47119C181.502 2.41339 181.157 2.36381 180.839 2.38091C180.758 2.38605 181.084 2.4983 180.586 2.50925C178.831 2.54588 176.992 2.53391 175.189 2.56906C174.707 2.57867 175.425 2.69483 174.707 2.70544C172.734 2.7348 170.27 2.70522 168.341 2.66887C167.629 2.65524 168.121 2.55903 168.069 2.54856C167.237 2.37825 166.745 2.60813 166.468 2.62153C164.75 2.70179 163.442 2.59381 161.858 2.62238C161.421 2.62998 161.731 2.73959 161.644 2.74936C160.741 2.84486 161.413 2.64801 160.842 2.62631C159.242 2.56488 157.458 2.57369 155.84 2.58769C155.246 2.593 155.914 2.72009 155.38 2.72338C152.223 2.74528 148.941 2.73312 145.86 2.66306C145.28 2.64963 145.645 2.55177 145.524 2.52942C144.691 2.37303 143.47 2.58634 143.189 2.60666C141.911 2.69944 141.414 2.6129 140.286 2.62905C134.773 2.70948 127.967 2.65216 122.763 2.61674C115.983 2.57117 110.721 2.47807 104.255 2.50224C103.844 2.50366 104.258 2.63385 103.904 2.63674C99.33 2.66812 94.8271 2.61725 90.244 2.65485C89.868 2.65771 90.4101 2.78113 89.8064 2.78986C88.5683 2.80864 86.9999 2.80193 85.748 2.76252C85.1374 2.74353 85.9564 2.63762 85.3418 2.62067C83.9107 2.58097 82.3766 2.57218 80.9067 2.59196C80.2811 2.60065 81.2249 2.72688 80.4118 2.72834C74.8731 2.74086 69.4335 2.7626 63.8364 2.59914C63.4527 2.58792 63.116 2.33136 62.3002 2.38056C62.2388 2.45176 62.2421 2.53552 62.2153 2.61162C54.1523 2.65261 46.1717 2.56367 38.0862 2.54992C37.7452 2.54937 38.3344 2.68531 37.6744 2.68493C33.8545 2.68292 30.145 2.72058 26.2376 2.58547C25.8499 2.57226 26.0488 2.33312 24.9064 2.36928C24.7049 2.37588 22.9841 2.40778 22.5392 2.45969C22.4788 2.46752 22.7927 2.57914 22.2383 2.58239C19.016 2.59934 15.6393 2.57386 12.4227 2.50566C11.9035 2.49444 12.4564 2.37557 12.0866 2.36655C9.46373 2.30345 6.61078 2.39381 4.1045 2.28589C2.42688 2.21322 3.04798 2.00775 2.15652 1.80549C2.11446 1.79597 1.97086 1.78913 1.79614 1.77986C1.56922 1.74207 1.30292 1.93271 1.23221 1.91282C1.08507 1.85975 1.00335 1.70707 0.971641 1.52046C0.932834 1.34064 0.947465 1.13042 0.713998 1.11421C0.657795 1.09644 0.210085 1.5511 0.12158 1.98967C0.0644383 2.19939 0.0591776 2.36972 0.0412841 2.39628C0.0310587 2.4227 -0.0299641 2.30713 0.0182962 1.92707C0.0233536 1.87998 0.138961 1.37476 0.541002 0.996382C0.925254 0.598574 1.55225 0.452286 1.79614 0.440221C1.7975 0.439925 1.79884 0.43963 1.80016 0.439334C1.97313 0.400829 1.66143 0.281154 2.01434 0.231864C2.36723 0.18262 2.755 0.282939 3.34008 0.225028C3.92489 0.166401 3.66775 0.0302563 4.83568 0.0141401ZM97.3262 65.2943C98.2497 65.4087 98.3859 64.9899 97.3872 65.0901C97.3388 65.0955 97.2786 65.2887 97.3262 65.2943ZM1.23557 50.1717C1.05088 51.3789 1.32245 52.205 1.46509 51.3534C1.60757 50.5018 1.29156 49.8038 1.23557 50.1717ZM1.10073 37.6529C0.955112 39.0638 1.54889 39.286 1.42886 37.7747C1.42207 37.6869 1.10919 37.5704 1.10073 37.6529ZM6.29067 1.7479C6.27792 1.74234 5.53117 1.73692 5.51332 1.74243C5.11569 1.87542 6.60889 1.88616 6.29067 1.7479ZM0.95393 25.2301C0.873609 25.6706 0.96633 26.9388 1.06621 26.3915C1.14656 25.9509 1.05385 24.6816 0.95393 25.2301ZM145.498 65.7412C145.512 65.7475 146.048 65.7531 146.037 65.7178C146 65.6042 145.255 65.6363 145.498 65.7412ZM0.947094 4.11621C0.924743 7.2357 0.434253 9.12706 0.489601 5.72999C0.499614 5.11481 0.646014 7.05585 0.690235 6.27284C0.770797 4.84013 0.462829 3.88878 0.627857 2.42673C0.658062 2.16207 0.949459 3.93827 0.947778 4.12175C0.94755 4.1199 0.947322 4.11807 0.947094 4.11621ZM97.858 65.7973C97.8765 65.8028 98.6176 65.8081 98.6353 65.8026C99.0367 65.6697 97.5437 65.659 97.858 65.7973ZM175.039 61.0185C175.078 61.0003 176.375 59.871 176.41 59.8258C176.939 59.0693 174.316 61.352 175.039 61.0185ZM47.9454 66.1037C47.1367 66.2374 46.1693 66.2532 45.5247 66.0853C46.3283 66.0942 47.1373 66.0955 47.9454 66.1037Z" fill="#07596E"/>
<path d="M63.9904 40.5537H62.4784C62.2064 40.5537 62.0704 40.4177 62.0704 40.1457V25.5297C62.0704 25.2577 62.2064 25.1217 62.4784 25.1217H70.0144C70.2864 25.1217 70.4224 25.2577 70.4224 25.5297V26.7537C70.4224 27.0257 70.2864 27.1617 70.0144 27.1617H64.6864C64.4944 27.1617 64.3984 27.2417 64.3984 27.4017V31.9377C64.3984 32.1137 64.4944 32.2017 64.6864 32.2017H69.3184C69.6064 32.2017 69.7504 32.3377 69.7504 32.6097V33.8097C69.7504 34.0977 69.6064 34.2417 69.3184 34.2417H64.6864C64.4944 34.2417 64.3984 34.3217 64.3984 34.4817V40.1457C64.3984 40.4177 64.2624 40.5537 63.9904 40.5537ZM75.6568 25.5297V40.1457C75.6568 40.4177 75.5208 40.5537 75.2488 40.5537H73.7368C73.4648 40.5537 73.3288 40.4177 73.3288 40.1457V25.5297C73.3288 25.2577 73.4648 25.1217 73.7368 25.1217H75.2488C75.5208 25.1217 75.6568 25.2577 75.6568 25.5297ZM87.7031 40.5537H79.9271C79.6551 40.5537 79.5191 40.4177 79.5191 40.1457V25.5297C79.5191 25.2577 79.6551 25.1217 79.9271 25.1217H81.4391C81.7111 25.1217 81.8471 25.2577 81.8471 25.5297V38.2257C81.8471 38.3857 81.9431 38.4657 82.1351 38.4657H87.7031C87.9751 38.4657 88.1111 38.6097 88.1111 38.8977V40.1457C88.1111 40.4177 87.9751 40.5537 87.7031 40.5537ZM94.7878 40.5537H93.2758C92.9878 40.5537 92.8438 40.4177 92.8438 40.1457V27.4017C92.8438 27.2417 92.7638 27.1617 92.6038 27.1617H89.5798C89.2918 27.1617 89.1478 27.0257 89.1478 26.7537V25.5297C89.1478 25.2577 89.2918 25.1217 89.5798 25.1217H98.4838C98.7718 25.1217 98.9158 25.2577 98.9158 25.5297V26.7537C98.9158 27.0257 98.7718 27.1617 98.4838 27.1617H95.4598C95.2838 27.1617 95.1958 27.2417 95.1958 27.4017V40.1457C95.1958 40.4177 95.0598 40.5537 94.7878 40.5537ZM109.298 40.5537H101.618C101.346 40.5537 101.21 40.4177 101.21 40.1457V25.5297C101.21 25.2577 101.346 25.1217 101.618 25.1217H109.298C109.554 25.1217 109.682 25.2577 109.682 25.5297V26.7537C109.682 27.0257 109.554 27.1617 109.298 27.1617H103.826C103.634 27.1617 103.538 27.2417 103.538 27.4017V31.4577C103.538 31.6177 103.634 31.6977 103.826 31.6977H108.458C108.746 31.6977 108.89 31.8337 108.89 32.1057V33.3297C108.89 33.6017 108.746 33.7377 108.458 33.7377H103.826C103.634 33.7377 103.538 33.8177 103.538 33.9777V38.2497C103.538 38.4257 103.634 38.5137 103.826 38.5137H109.298C109.554 38.5137 109.682 38.6497 109.682 38.9217V40.1457C109.682 40.4177 109.554 40.5537 109.298 40.5537ZM114.901 40.5537H113.389C113.117 40.5537 112.981 40.4177 112.981 40.1457V25.5297C112.981 25.2577 113.117 25.1217 113.389 25.1217H119.005C120.173 25.1217 121.085 25.4577 121.741 26.1297C122.413 26.7857 122.749 27.6977 122.749 28.8657V30.8817C122.749 32.7217 121.989 33.8817 120.469 34.3617V34.4577L123.133 40.0737C123.309 40.3937 123.205 40.5537 122.821 40.5537H121.333C120.949 40.5537 120.701 40.4177 120.589 40.1457L118.021 34.6257H115.597C115.405 34.6257 115.309 34.7057 115.309 34.8657V40.1457C115.309 40.4177 115.173 40.5537 114.901 40.5537ZM115.573 32.7057H118.621C119.805 32.7057 120.397 32.1217 120.397 30.9537V28.9377C120.397 27.7537 119.805 27.1617 118.621 27.1617H115.573C115.397 27.1617 115.309 27.2417 115.309 27.4017V32.4657C115.309 32.6257 115.397 32.7057 115.573 32.7057Z" fill="#64E6F4"/>
<g filter="url(#filter0_f_61_224)">
<path d="M63.9904 40.5537H62.4784C62.2064 40.5537 62.0704 40.4177 62.0704 40.1457V25.5297C62.0704 25.2577 62.2064 25.1217 62.4784 25.1217H70.0144C70.2864 25.1217 70.4224 25.2577 70.4224 25.5297V26.7537C70.4224 27.0257 70.2864 27.1617 70.0144 27.1617H64.6864C64.4944 27.1617 64.3984 27.2417 64.3984 27.4017V31.9377C64.3984 32.1137 64.4944 32.2017 64.6864 32.2017H69.3184C69.6064 32.2017 69.7504 32.3377 69.7504 32.6097V33.8097C69.7504 34.0977 69.6064 34.2417 69.3184 34.2417H64.6864C64.4944 34.2417 64.3984 34.3217 64.3984 34.4817V40.1457C64.3984 40.4177 64.2624 40.5537 63.9904 40.5537ZM75.6568 25.5297V40.1457C75.6568 40.4177 75.5208 40.5537 75.2488 40.5537H73.7368C73.4648 40.5537 73.3288 40.4177 73.3288 40.1457V25.5297C73.3288 25.2577 73.4648 25.1217 73.7368 25.1217H75.2488C75.5208 25.1217 75.6568 25.2577 75.6568 25.5297ZM87.7031 40.5537H79.9271C79.6551 40.5537 79.5191 40.4177 79.5191 40.1457V25.5297C79.5191 25.2577 79.6551 25.1217 79.9271 25.1217H81.4391C81.7111 25.1217 81.8471 25.2577 81.8471 25.5297V38.2257C81.8471 38.3857 81.9431 38.4657 82.1351 38.4657H87.7031C87.9751 38.4657 88.1111 38.6097 88.1111 38.8977V40.1457C88.1111 40.4177 87.9751 40.5537 87.7031 40.5537ZM94.7878 40.5537H93.2758C92.9878 40.5537 92.8438 40.4177 92.8438 40.1457V27.4017C92.8438 27.2417 92.7638 27.1617 92.6038 27.1617H89.5798C89.2918 27.1617 89.1478 27.0257 89.1478 26.7537V25.5297C89.1478 25.2577 89.2918 25.1217 89.5798 25.1217H98.4838C98.7718 25.1217 98.9158 25.2577 98.9158 25.5297V26.7537C98.9158 27.0257 98.7718 27.1617 98.4838 27.1617H95.4598C95.2838 27.1617 95.1958 27.2417 95.1958 27.4017V40.1457C95.1958 40.4177 95.0598 40.5537 94.7878 40.5537ZM109.298 40.5537H101.618C101.346 40.5537 101.21 40.4177 101.21 40.1457V25.5297C101.21 25.2577 101.346 25.1217 101.618 25.1217H109.298C109.554 25.1217 109.682 25.2577 109.682 25.5297V26.7537C109.682 27.0257 109.554 27.1617 109.298 27.1617H103.826C103.634 27.1617 103.538 27.2417 103.538 27.4017V31.4577C103.538 31.6177 103.634 31.6977 103.826 31.6977H108.458C108.746 31.6977 108.89 31.8337 108.89 32.1057V33.3297C108.89 33.6017 108.746 33.7377 108.458 33.7377H103.826C103.634 33.7377 103.538 33.8177 103.538 33.9777V38.2497C103.538 38.4257 103.634 38.5137 103.826 38.5137H109.298C109.554 38.5137 109.682 38.6497 109.682 38.9217V40.1457C109.682 40.4177 109.554 40.5537 109.298 40.5537ZM114.901 40.5537H113.389C113.117 40.5537 112.981 40.4177 112.981 40.1457V25.5297C112.981 25.2577 113.117 25.1217 113.389 25.1217H119.005C120.173 25.1217 121.085 25.4577 121.741 26.1297C122.413 26.7857 122.749 27.6977 122.749 28.8657V30.8817C122.749 32.7217 121.989 33.8817 120.469 34.3617V34.4577L123.133 40.0737C123.309 40.3937 123.205 40.5537 122.821 40.5537H121.333C120.949 40.5537 120.701 40.4177 120.589 40.1457L118.021 34.6257H115.597C115.405 34.6257 115.309 34.7057 115.309 34.8657V40.1457C115.309 40.4177 115.173 40.5537 114.901 40.5537ZM115.573 32.7057H118.621C119.805 32.7057 120.397 32.1217 120.397 30.9537V28.9377C120.397 27.7537 119.805 27.1617 118.621 27.1617H115.573C115.397 27.1617 115.309 27.2417 115.309 27.4017V32.4657C115.309 32.6257 115.397 32.7057 115.573 32.7057Z" fill="#64E6F4"/>
</g>
<defs>
<filter id="filter0_f_61_224" x="61.0703" y="24.1218" width="63.3269" height="17.4319" filterUnits="userSpaceOnUse" color-interpolation-filters="sRGB">
<feFlood flood-opacity="0" result="BackgroundImageFix"/>
<feBlend mode="normal" in="SourceGraphic" in2="BackgroundImageFix" result="shape"/>
<feGaussianBlur stdDeviation="0.5" result="effect1_foregroundBlur_61_224"/>
</filter>
</defs>
</svg>
