<svg width="164" height="52" viewBox="0 0 164 52" fill="none" xmlns="http://www.w3.org/2000/svg">
<path opacity="0.7" d="M3.97606 0.0141401C6.30827 -0.0223337 9.36541 0.0166656 11.6888 0.0701946C12.417 0.0867965 12.0483 0.161008 12.5509 0.17581C13.534 0.204664 14.4499 0.168268 15.4213 0.20264C15.7433 0.214395 15.3425 0.331946 15.6801 0.34158C17.5301 0.393531 19.2803 0.36359 21.1543 0.388577C30.3853 0.511862 39.4591 0.555989 48.8031 0.609548C51.884 0.627108 55.6292 0.73379 58.8115 0.687136C59.183 0.681584 58.9615 0.578404 59.0322 0.5699C60.1408 0.439712 59.7722 0.648011 60.496 0.675686C63.3688 0.784958 66.5634 0.794461 69.3281 0.754641C70.5043 0.737397 69.3249 0.532456 70.5093 0.647488C70.5915 0.65526 70.2931 0.76483 70.6156 0.776516C71.3471 0.8028 72.735 0.783215 73.3019 0.791896C74.3945 0.809182 74.5753 0.808079 75.6087 0.809328C77.0216 0.811988 78.7019 0.866455 80.2177 0.841628C80.5412 0.836003 80.1129 0.723681 80.6289 0.704568C81.1453 0.685485 82.5116 0.695009 82.9722 0.721487C83.433 0.747978 83.2368 0.83626 83.3183 0.856496C83.9891 1.02729 85.5695 0.79074 85.7728 0.78489C89.4804 0.685211 92.6598 0.819966 96.1401 0.819582C98.7822 0.819004 101.607 0.774517 104.121 0.780617C107.116 0.78832 109.655 0.849185 112.564 0.838722C112.871 0.837747 112.511 0.705684 112.887 0.704226C116.871 0.688858 120.828 0.703254 124.795 0.792409C125.193 0.801467 124.681 0.917418 125.078 0.9334C127.512 1.02869 131.363 1.2576 132.808 0.752761C134.457 0.772474 136.458 0.792842 137.933 0.894606C138.884 0.960103 137.96 1.08642 139.129 1.03252C139.392 1.02051 139.049 0.909889 139.445 0.900246C141.108 0.859748 142.925 0.895707 144.571 0.838552C144.906 0.826666 144.814 0.727544 144.909 0.709695C145.706 0.56514 147.033 0.804098 147.322 0.821462C149.525 0.950944 151.134 0.89999 153.186 0.903151C153.662 0.90394 153.099 0.770797 153.557 0.766774C155.934 0.747692 158.395 0.759136 160.722 0.818215C161.24 0.831676 160.764 0.94509 161.011 0.957326C161.34 0.973169 161.591 0.964781 161.811 0.946596C162.45 0.93393 163.106 1.03339 163.58 1.95929C163.693 2.24671 163.532 2.12091 163.543 2.17555C163.576 2.40068 163.591 2.60753 163.592 2.7999C163.595 3.21152 163.723 3.53557 163.727 3.65391C163.798 5.70211 163.551 7.0113 163.586 8.98997C163.59 9.22668 163.713 8.6929 163.718 9.3583C163.752 13.7913 163.718 18.4796 163.62 22.8675C163.605 23.5498 163.513 23.0628 163.501 23.1057C163.323 23.8054 163.562 24.2581 163.571 24.4806C163.635 26.2355 163.435 27.8749 163.719 29.0673C163.665 33.1319 163.688 37.1863 163.679 41.2316C163.681 41.8054 163.399 42.3706 162.941 42.7135C160.611 44.475 158.27 46.2154 155.893 47.9018C155.817 47.9563 155.879 47.7611 155.728 47.8703C153.898 49.1832 154.352 49.066 153.303 50.1467C153.038 50.4188 151.967 50.897 151.875 50.9426L151.737 51.0481C151.693 50.9903 151.587 50.8515 151.578 50.8403L151.63 50.8013C151.611 50.8127 151.592 50.8241 151.575 50.8354C151.173 51.0712 150.991 51.1863 150.708 51.3238C150.45 51.4548 150.148 51.6008 149.456 51.6009C149.413 51.6 149.594 51.4937 149.478 51.4832C149.12 51.45 148.764 51.4922 148.413 51.4557C147.61 51.3711 147.324 51.0906 146.097 51.2538C145.941 51.275 146.178 51.6024 144.95 51.5869C144.461 51.5805 142.294 51.5861 141.686 51.5649C141.079 51.5437 141.496 51.4382 141.453 51.4336C139.818 51.2941 140.438 51.2363 139.619 51.0298C138.8 50.824 139.027 51.3148 138.693 51.3695C138.359 51.4241 137.161 51.3091 136.866 51.269C136.572 51.229 136.939 51.162 136.677 51.1393C134.942 50.9913 135.915 51.3829 135.344 51.4608C133.995 51.6452 132.945 51.2813 131.711 51.2456C131.377 51.236 131.65 51.3189 131.352 51.3266C130.174 51.3562 129.466 51.2427 128.126 51.3468C127.907 51.3638 126.824 51.5826 126.122 51.422C126.023 51.3988 126.305 51.3082 125.803 51.2878C125.054 51.2574 123.702 51.2375 122.896 51.2678C122.301 51.2903 122.983 51.4397 122.234 51.3933C121.901 51.3726 122.518 51.2851 121.893 51.2535C121.271 51.2219 119.68 51.2257 119.075 51.2287C118.471 51.2318 118.801 51.3451 118.753 51.3528C118.457 51.3965 117.298 51.4512 117.195 51.451C112.027 51.4649 107.261 51.2738 102.229 51.3371C101.834 51.3419 102.097 51.4614 102.036 51.4634C100.684 51.5134 101.75 51.1956 100.806 51.0893C100.942 51.3318 100.385 51.2879 99.4327 51.3145C98.9738 51.3275 99.2237 51.4214 99.1818 51.4311C98.5013 51.5737 98.0274 51.3895 97.9054 51.3518C97.4547 51.2131 96.9642 51.3769 96.6575 51.2843C96.351 51.1923 97.0564 51.0559 96.1431 51.0576C95.887 51.1445 96.5651 51.3714 95.8716 51.4082C93.2553 51.5473 88.3716 51.3692 86.268 51.3507C84.1686 51.3323 83.4905 51.3483 82.2671 51.3169C80.0574 51.2602 80.8672 51.4285 79.4951 51.5056C78.119 51.5826 78.788 51.1684 78.5902 51.0793C78.396 50.9903 78.184 51.082 77.9424 51.033C77.7017 50.9841 78.2229 50.9236 77.6566 50.9052C77.0901 50.8868 75.5411 51.0452 75.3403 51.1383C74.9157 51.3356 75.6137 51.5426 74.1146 51.4698C74.0284 51.4655 74.3082 51.3566 73.9781 51.3456C71.3559 51.2618 68.6318 51.2566 66.0129 51.1824C65.6528 51.172 65.9748 51.0509 65.7652 51.0435C63.5823 50.966 64.3627 51.1703 63.1663 51.3972C63.4349 51.0952 62.7733 50.9104 61.1166 50.9086C60.1207 50.9074 60.2922 51.0394 59.648 51.1323C59.4548 51.1604 58.7501 51.0698 58.6224 51.1318C58.2014 51.3346 58.8651 51.5616 57.157 51.4712C57.0821 51.4669 57.3207 51.3559 57.0618 51.3492C55.388 51.3052 55.1877 51.5173 53.3785 51.543C51.9603 51.5631 49.4381 51.4338 47.8233 51.4128C47.8573 51.0732 46.3321 51.151 45.7133 51.3851C44.6654 51.3755 43.5335 51.3887 42.5206 51.3564C42.172 51.3453 42.401 51.247 42.3571 51.2364C41.683 51.0698 41.2274 51.2975 41.0012 51.3065C38.5496 51.3933 36.5522 51.2206 34.2125 51.3894C34.1294 51.3954 33.9949 51.6313 33.3694 51.4591C33.329 51.4472 34.1017 51.3399 33.0011 51.3316C31.9003 51.3233 29.8252 51.1968 28.2969 51.3061C27.9271 51.3324 26.9917 51.5239 26.2409 51.3743C26.1409 51.354 26.2504 51.2864 26.106 51.2487C25.6392 51.1288 25.3844 51.3672 24.8359 51.1646C24.2873 50.9621 23.1462 50.8104 21.605 50.9501C21.5559 50.9542 21.1911 51.1432 20.7064 51.1402C19.9327 51.1353 18.8343 51.0959 18.0265 51.0971C17.6397 51.0978 17.8873 51.2151 17.8201 51.2173C15.2193 51.283 13.3683 51.1784 10.582 51.133C10.0713 51.1245 8.60354 51.2845 7.61475 51.158C6.52902 51.0195 7.64471 50.4434 5.14914 50.5807C4.37093 50.6231 3.43267 51.0696 2.21104 51.095C1.85468 51.1078 1.46091 50.9168 1.26715 50.576C1.03878 50.3457 0.905761 50.0249 0.903028 49.6999C0.864925 46.5861 1.00973 43.6423 0.889184 40.477C0.883249 40.3188 0.67928 39.8186 0.682056 39.4466C0.686572 38.8945 0.781904 38.5914 0.788184 38.1972C0.816899 36.5452 0.735336 35.0334 0.748023 33.4406C0.752632 32.8359 0.851204 33.0473 0.856714 32.3261C0.862131 31.6053 0.73233 31.1246 0.79502 30.1478C0.842804 29.4101 1.10811 28.6725 1.13904 27.6933C0.877339 27.656 0.882729 26.9835 0.813647 25.7882C0.800244 25.5584 0.709159 25.8048 0.69812 25.6961C0.651175 25.2538 0.726665 24.8444 0.675562 24.4244C0.663289 24.3222 0.573917 24.3174 0.558839 24.2339C0.427222 23.5236 0.628255 22.3535 0.663257 22.1525C0.79619 21.3822 0.679952 21.0223 0.7323 20.4315C0.784641 19.8416 0.850073 20.7236 0.881836 20.0346C0.947533 18.6064 0.9331 16.7714 0.937207 15.3209C0.938294 14.7421 0.818996 15.137 0.816382 15.0541C0.786124 13.8574 0.913023 12.6472 0.675391 11.9837C1.28982 11.1539 0.615795 11.262 0.738794 9.55139C0.748742 9.41664 1.0393 9.24523 1.08196 9.76255C1.12457 10.2798 1.03375 11.0643 1.10024 11.782C1.11585 11.952 1.38812 12.9256 1.40461 13.0585C1.53351 14.0991 1.09931 14.2465 1.07546 14.3016C0.818099 14.9259 1.11142 16.1157 1.13169 16.429C1.22456 17.8624 1.16349 19.0802 1.22978 20.2791C1.27263 21.0632 1.55704 21.1399 1.54834 21.7556C1.51956 23.8023 1.1228 24.5168 1.46682 26.4455C1.54019 26.859 1.85105 26.448 1.60661 27.9299C1.5912 28.023 1.36759 29.1232 1.50903 29.7589C1.52686 29.8387 1.61746 29.8362 1.62507 29.9414C1.6743 30.6471 1.60212 31.1176 1.63669 31.8863C1.67126 32.6549 1.72279 33.5791 1.69206 34.4567C1.67369 34.9855 1.5049 35.6641 1.46357 35.9173C1.34453 36.6322 1.53971 37.3987 1.39555 37.8415C1.25067 38.2881 1.03065 37.415 0.937036 38.5861C1.17241 38.6295 1.414 38.7291 1.65071 38.7989C1.64242 41.3653 1.56631 43.8906 1.57671 46.4656C1.57823 46.7848 1.70477 46.4583 1.70967 46.8006C1.7237 47.8086 1.68398 48.7275 1.67093 49.6999C1.66386 49.8645 1.74292 50.0328 1.8917 50.1299C1.98699 50.1921 2.09981 50.2147 2.21104 50.1972C3.11172 50.1459 4.05086 50.0647 4.95704 50.0394C5.69739 50.3088 7.49579 50.2173 8.80232 50.2419C9.25993 50.2505 9.22938 50.3224 9.55485 50.3459C10.7827 50.4326 10.2073 50.1946 10.544 50.1572C11.9881 49.9973 12.1118 50.536 13.8145 50.5227C13.9047 50.5222 15.0073 50.235 15.1592 50.2172C16.1242 50.1006 15.319 50.3171 15.9229 50.3383C17.0255 50.3771 17.7917 50.4457 19.0854 50.3616C19.4627 50.3367 20.3676 50.1577 21.1002 50.2961C21.1965 50.3142 21.1433 50.4092 21.2208 50.4147C22.6249 50.5074 22.6618 50.2091 23.4642 50.1081C24.2667 50.0071 25.5061 50.213 25.7583 50.2724C26.4182 50.4259 25.2526 50.338 25.2169 50.353C24.7971 50.5323 25.7011 50.5014 26.3918 50.5166C26.4918 50.809 27.4577 50.7915 27.1078 50.5311C27.068 50.5027 26.5304 50.5299 26.3918 50.5166C26.998 50.2297 28.0596 50.1929 29.232 50.461C29.7809 50.5867 29.262 50.7332 30.9292 50.6796C31.6859 50.6554 31.3935 50.4541 32.0612 50.3992C33.5867 50.2739 35.569 50.4618 37.1417 50.4322C37.7125 50.4214 37.1564 50.3112 37.5465 50.3C38.5818 50.2701 39.4948 50.3528 40.5344 50.3105C40.6286 50.3065 40.3985 50.1911 40.7218 50.1897C43.1728 50.1763 45.3071 50.2502 47.8662 50.2522C49.1026 50.2531 51.3133 50.1895 52.5942 50.2023C54.8141 50.2238 57.5452 50.3916 59.4417 50.3508C60.6786 50.3247 60.4072 50.2093 60.9372 50.1307C61.9599 49.9783 63.7703 50.2513 64.014 50.2936C64.0215 50.295 62.9571 50.3222 63.5251 50.3814C63.8553 50.5048 64.002 50.2941 64.014 50.2936C64.1741 50.3209 66.3004 50.3471 66.7226 50.325C66.952 50.3129 66.8236 50.2036 66.9432 50.1994C69.7864 50.1015 72.6345 50.0738 75.5181 50.1249C75.5688 50.1271 75.4924 50.2494 75.6118 50.2531C77.2812 50.3074 78.3501 50.1578 79.7269 50.069C81.1035 49.9802 82.1952 50.0099 83.0102 50.2199C84.0488 50.1935 85.539 50.2863 86.3966 50.3426C87.2541 50.3989 87.3738 50.1609 87.4492 50.1562C89.8026 50.0055 91.163 50.1418 93.6045 50.163C94.7652 50.1735 97.0677 50.139 98.3245 50.1129C99.3178 50.0919 99.9162 50.1477 100.831 50.1121C100.955 50.1073 100.83 50.0013 100.868 49.9972C101.889 49.8704 101.398 50.1295 101.609 50.1758C102.374 50.3441 102.846 50.4337 104.154 50.3546C104.456 50.3364 105.335 49.9633 105.885 49.9415C106.6 49.9138 106.33 50.0476 107.079 50.0152C107.143 50.0125 107.129 49.93 107.592 49.9336C109.737 49.9494 112.075 49.9975 114.304 49.9892C114.609 49.9884 114.218 49.8575 114.658 49.8542C116.722 49.8387 118.985 49.8435 120.996 49.9048C121.491 49.9203 121.181 50.0119 121.288 50.0391C121.948 50.2037 122.883 49.9645 123.038 49.96C126.72 49.845 129.538 50.0615 133.291 49.9584C133.495 49.9524 135.067 49.696 135.769 49.9159C135.817 49.9305 136.511 50.1555 137.125 50.0017C137.163 49.992 136.73 49.8762 137.485 49.888C138.24 49.8998 139.455 49.8224 140.492 49.9497C140.821 49.9898 141.597 50.2142 142.577 50.0353C142.641 50.0228 144.153 49.6183 144.693 49.8974C144.781 49.9434 144.689 50.2387 145.858 50.0873C146.082 50.0579 145.676 49.992 146.265 49.9509C147.167 49.8875 148.362 49.9666 149.47 49.835C149.622 49.8167 150.163 49.689 150.708 49.709C150.71 49.7143 150.712 49.7312 150.728 49.7603C150.743 49.7794 150.753 49.8839 150.802 49.8732C150.812 49.8704 150.822 49.8665 150.832 49.8615C152.122 48.929 153.406 47.8779 154.725 46.9536C155.214 46.6111 155.068 46.9227 155.588 46.5797C156.108 46.2367 157.129 45.5099 157.602 45.0575C158.075 44.605 157.356 44.834 158.118 44.2268C159.361 43.2371 160.62 42.2773 161.886 41.3298C161.918 41.3103 161.944 41.2739 161.949 41.2316C161.978 39.0254 162.024 36.8206 162.036 34.6065C162.039 33.9791 161.948 34.4992 161.946 33.5746C161.939 30.1654 161.854 24.2794 162.047 21.3212C162.202 18.9509 162.32 21.9337 162.383 20.1225C162.413 19.2485 162.117 18.3029 162.108 18.0919C162.014 16.0308 162.145 14.5983 162.104 12.7432C162.096 12.3601 161.976 12.7358 161.971 12.4097C161.95 11.2961 162.003 10.1256 161.994 9.06141C161.989 8.58399 161.897 8.67196 161.904 8.23267C161.92 7.18151 161.959 6.25199 162.044 5.22727C162.052 5.13387 162.166 5.76364 162.17 4.98594C162.174 4.32141 162.199 3.57223 162.209 2.7999C162.23 2.59996 162.025 2.4014 161.842 2.43823C161.831 2.43989 161.821 2.4439 161.811 2.4495C161.485 2.50092 161.39 2.658 160.557 2.52788C160.363 2.49774 160.61 2.24681 159.535 2.46362C159.354 2.49965 157.546 2.79209 156.659 2.60359C156.425 2.55397 155.828 2.34864 155.311 2.38091C155.241 2.38605 155.522 2.4983 155.094 2.50925C153.585 2.54588 152.003 2.53391 150.453 2.56906C150.039 2.57867 150.656 2.69483 150.039 2.70544C148.342 2.7348 146.224 2.70522 144.565 2.66887C143.953 2.65524 144.376 2.55903 144.331 2.54856C143.616 2.37825 143.192 2.60813 142.955 2.62153C141.477 2.70179 140.352 2.59381 138.99 2.62238C138.615 2.62998 138.881 2.73959 138.806 2.74936C138.03 2.84486 138.608 2.64801 138.117 2.62631C136.741 2.56488 135.208 2.57369 133.816 2.58769C133.305 2.593 133.88 2.72009 133.421 2.72338C130.706 2.74528 127.884 2.73312 125.235 2.66306C124.736 2.64963 125.05 2.55177 124.946 2.52942C124.23 2.37303 123.18 2.58634 122.938 2.60666C121.839 2.69944 121.412 2.6129 120.442 2.62905C115.702 2.70948 109.85 2.65216 105.375 2.61674C99.545 2.57117 95.0208 2.47807 89.4609 2.50224C89.1075 2.50366 89.4639 2.63385 89.1593 2.63674C85.2264 2.66812 81.3546 2.61725 77.4139 2.65485C77.0905 2.65771 77.5567 2.78113 77.0376 2.78986C75.973 2.80864 74.6244 2.80193 73.548 2.76252C73.023 2.74353 73.7272 2.63762 73.1987 2.62067C71.9682 2.58097 70.6492 2.57218 69.3852 2.59196C68.8473 2.60065 69.6589 2.72688 68.9597 2.72834C64.1973 2.74086 59.5201 2.7626 54.7075 2.59914C54.3775 2.58792 54.0881 2.33136 53.3866 2.38056C53.3337 2.45176 53.3366 2.53552 53.3135 2.61162C46.3807 2.65261 39.5186 2.56367 32.5663 2.54992C32.2731 2.54937 32.7797 2.68531 32.2122 2.68493C28.9277 2.68292 25.7381 2.72058 22.3784 2.58547C22.045 2.57226 22.2161 2.33312 21.2337 2.36928C21.0604 2.37588 19.5809 2.40778 19.1983 2.45969C19.1464 2.46752 19.4163 2.57914 18.9396 2.58239C16.1689 2.59934 13.2655 2.57386 10.4997 2.50566C10.0533 2.49444 10.5287 2.37557 10.2107 2.36655C7.95545 2.30345 5.50237 2.39381 3.34735 2.28589C2.54526 2.24548 2.35429 2.16401 2.21103 2.06487C2.14803 1.99147 2.09543 1.88024 1.8378 1.87779C1.79708 1.87752 1.62654 1.94474 1.48545 2.05994C1.34093 2.17032 1.23447 2.32108 1.17344 2.3146C1.01863 2.29867 0.900795 2.17688 0.803621 2.02684C0.703536 1.88211 0.625068 1.7093 0.421576 1.73826C0.373049 1.73939 0.154636 2.16037 0.110016 2.48807C0.0663993 2.80671 0.0302733 3.01178 -0.000185072 2.44444C-3.33786e-06 2.40649 0.0403222 2.03086 0.229295 1.66549C0.407092 1.29491 0.735091 0.977031 0.870426 0.856797C1.06683 0.686445 0.589318 0.832021 1.04234 0.512874C1.34843 0.321915 1.74474 0.231483 2.21103 0.240605C2.35342 0.246207 2.51099 0.245642 2.69007 0.225028C3.19292 0.166401 2.97181 0.0302563 3.97606 0.0141401ZM90.2577 50.5943C91.0517 50.7087 91.1689 50.2899 90.3101 50.3901C90.2685 50.3955 90.2168 50.5887 90.2577 50.5943ZM1.25046 43.8762C1.06577 44.9142 1.33734 45.6245 1.47998 44.8922C1.62246 44.16 1.30645 43.5599 1.25046 43.8762ZM1.11562 33.112C0.970004 34.3252 1.56378 34.5161 1.44375 33.2167C1.43696 33.1412 1.12408 33.041 1.11562 33.112ZM5.22712 1.7479C5.21616 1.74234 4.57407 1.73692 4.55872 1.74243C4.21682 1.87542 5.50074 1.88616 5.22712 1.7479ZM0.968823 22.4303C0.888501 22.809 0.981223 23.8995 1.0811 23.4289C1.16145 23.0501 1.06874 21.9586 0.968823 22.4303ZM131.678 51.0412C131.69 51.0475 132.15 51.0531 132.141 51.0178C132.11 50.9042 131.469 50.9363 131.678 51.0412ZM0.961987 4.27566C0.939636 6.95792 0.449146 8.58422 0.504493 5.66326C0.514507 5.1343 0.660907 6.80329 0.705127 6.13003C0.78569 4.89812 0.477722 4.08011 0.64275 2.82297C0.672955 2.5954 0.964352 4.12265 0.96267 4.28042C0.962443 4.27883 0.962215 4.27725 0.961987 4.27566ZM90.715 51.0973C90.7308 51.1028 91.3681 51.1081 91.3834 51.1026C91.7285 50.9697 90.4447 50.959 90.715 51.0973ZM157.18 46.7766C157.215 46.7647 158.397 45.8766 158.429 45.8387C158.911 45.198 156.52 46.993 157.18 46.7766ZM47.7979 51.4037C47.1026 51.5374 46.2708 51.5532 45.7165 51.3853C46.4075 51.3942 47.1031 51.3955 47.7979 51.4037Z" fill="#07596E"/>
<path d="M55.8969 31.323H53.9709C53.0829 31.323 52.3929 31.077 51.9009 30.585C51.4209 30.093 51.1809 29.409 51.1809 28.533V22.539C51.1809 21.651 51.4209 20.967 51.9009 20.487C52.3929 19.995 53.0829 19.749 53.9709 19.749H55.8969C56.7849 19.749 57.4689 19.995 57.9489 20.487C58.4409 20.967 58.6869 21.651 58.6869 22.539V23.187C58.6869 23.403 58.5849 23.511 58.3809 23.511H57.2469C57.0429 23.511 56.9409 23.403 56.9409 23.187V22.611C56.9409 21.723 56.5089 21.279 55.6449 21.279H54.2229C53.3589 21.279 52.9269 21.723 52.9269 22.611V28.461C52.9269 29.349 53.3589 29.793 54.2229 29.793H55.6449C56.5089 29.793 56.9409 29.349 56.9409 28.461V26.841C56.9409 26.721 56.8749 26.661 56.7429 26.661H55.2849C55.0809 26.661 54.9789 26.559 54.9789 26.355V25.437C54.9789 25.233 55.0809 25.131 55.2849 25.131H58.3089C58.5609 25.131 58.6869 25.257 58.6869 25.509V28.533C58.6869 29.409 58.4409 30.093 57.9489 30.585C57.4569 31.077 56.7729 31.323 55.8969 31.323ZM67.3804 31.323H61.6204C61.4164 31.323 61.3144 31.221 61.3144 31.017V20.055C61.3144 19.851 61.4164 19.749 61.6204 19.749H67.3804C67.5724 19.749 67.6684 19.851 67.6684 20.055V20.973C67.6684 21.177 67.5724 21.279 67.3804 21.279H63.2764C63.1324 21.279 63.0604 21.339 63.0604 21.459V24.501C63.0604 24.621 63.1324 24.681 63.2764 24.681H66.7504C66.9664 24.681 67.0744 24.783 67.0744 24.987V25.905C67.0744 26.109 66.9664 26.211 66.7504 26.211H63.2764C63.1324 26.211 63.0604 26.271 63.0604 26.391V29.595C63.0604 29.727 63.1324 29.793 63.2764 29.793H67.3804C67.5724 29.793 67.6684 29.895 67.6684 30.099V31.017C67.6684 31.221 67.5724 31.323 67.3804 31.323ZM73.3108 31.323H72.1768C71.9608 31.323 71.8528 31.221 71.8528 31.017V21.459C71.8528 21.339 71.7928 21.279 71.6728 21.279H69.4048C69.1888 21.279 69.0808 21.177 69.0808 20.973V20.055C69.0808 19.851 69.1888 19.749 69.4048 19.749H76.0828C76.2988 19.749 76.4068 19.851 76.4068 20.055V20.973C76.4068 21.177 76.2988 21.279 76.0828 21.279H73.8148C73.6828 21.279 73.6168 21.339 73.6168 21.459V31.017C73.6168 31.221 73.5148 31.323 73.3108 31.323ZM88.7345 31.323H82.9025C82.6985 31.323 82.5965 31.221 82.5965 31.017V20.055C82.5965 19.851 82.6985 19.749 82.9025 19.749H84.0365C84.2405 19.749 84.3425 19.851 84.3425 20.055V29.577C84.3425 29.697 84.4145 29.757 84.5585 29.757H88.7345C88.9385 29.757 89.0405 29.865 89.0405 30.081V31.017C89.0405 31.221 88.9385 31.323 88.7345 31.323ZM92.7161 20.055V31.017C92.7161 31.221 92.6141 31.323 92.4101 31.323H91.2761C91.0721 31.323 90.9701 31.221 90.9701 31.017V20.055C90.9701 19.851 91.0721 19.749 91.2761 19.749H92.4101C92.6141 19.749 92.7161 19.851 92.7161 20.055ZM97.0348 31.323H95.9188C95.7148 31.323 95.6128 31.221 95.6128 31.017V20.055C95.6128 19.851 95.7148 19.749 95.9188 19.749H96.9268C97.1188 19.749 97.2508 19.815 97.3228 19.947L101.679 27.777H101.751V20.055C101.751 19.851 101.853 19.749 102.057 19.749H103.173C103.377 19.749 103.479 19.851 103.479 20.055V31.017C103.479 31.221 103.377 31.323 103.173 31.323H102.201C102.009 31.323 101.853 31.227 101.733 31.035L97.4128 23.295H97.3408V31.017C97.3408 31.221 97.2388 31.323 97.0348 31.323ZM107.727 31.323H106.593C106.389 31.323 106.287 31.221 106.287 31.017V20.055C106.287 19.851 106.389 19.749 106.593 19.749H107.727C107.931 19.749 108.033 19.851 108.033 20.055V25.761H108.087C108.207 25.437 108.363 25.137 108.555 24.861L111.993 20.055C112.125 19.851 112.317 19.749 112.569 19.749H113.901C114.153 19.749 114.195 19.863 114.027 20.091L110.517 24.861L114.477 30.963C114.621 31.203 114.549 31.323 114.261 31.323H113.253C112.929 31.323 112.701 31.221 112.569 31.017L109.455 26.139L108.033 27.813V31.017C108.033 31.221 107.931 31.323 107.727 31.323Z" fill="#64E6F4"/>
<g filter="url(#filter0_f_61_228)">
<path d="M55.8969 31.323H53.9709C53.0829 31.323 52.3929 31.077 51.9009 30.585C51.4209 30.093 51.1809 29.409 51.1809 28.533V22.539C51.1809 21.651 51.4209 20.967 51.9009 20.487C52.3929 19.995 53.0829 19.749 53.9709 19.749H55.8969C56.7849 19.749 57.4689 19.995 57.9489 20.487C58.4409 20.967 58.6869 21.651 58.6869 22.539V23.187C58.6869 23.403 58.5849 23.511 58.3809 23.511H57.2469C57.0429 23.511 56.9409 23.403 56.9409 23.187V22.611C56.9409 21.723 56.5089 21.279 55.6449 21.279H54.2229C53.3589 21.279 52.9269 21.723 52.9269 22.611V28.461C52.9269 29.349 53.3589 29.793 54.2229 29.793H55.6449C56.5089 29.793 56.9409 29.349 56.9409 28.461V26.841C56.9409 26.721 56.8749 26.661 56.7429 26.661H55.2849C55.0809 26.661 54.9789 26.559 54.9789 26.355V25.437C54.9789 25.233 55.0809 25.131 55.2849 25.131H58.3089C58.5609 25.131 58.6869 25.257 58.6869 25.509V28.533C58.6869 29.409 58.4409 30.093 57.9489 30.585C57.4569 31.077 56.7729 31.323 55.8969 31.323ZM67.3804 31.323H61.6204C61.4164 31.323 61.3144 31.221 61.3144 31.017V20.055C61.3144 19.851 61.4164 19.749 61.6204 19.749H67.3804C67.5724 19.749 67.6684 19.851 67.6684 20.055V20.973C67.6684 21.177 67.5724 21.279 67.3804 21.279H63.2764C63.1324 21.279 63.0604 21.339 63.0604 21.459V24.501C63.0604 24.621 63.1324 24.681 63.2764 24.681H66.7504C66.9664 24.681 67.0744 24.783 67.0744 24.987V25.905C67.0744 26.109 66.9664 26.211 66.7504 26.211H63.2764C63.1324 26.211 63.0604 26.271 63.0604 26.391V29.595C63.0604 29.727 63.1324 29.793 63.2764 29.793H67.3804C67.5724 29.793 67.6684 29.895 67.6684 30.099V31.017C67.6684 31.221 67.5724 31.323 67.3804 31.323ZM73.3108 31.323H72.1768C71.9608 31.323 71.8528 31.221 71.8528 31.017V21.459C71.8528 21.339 71.7928 21.279 71.6728 21.279H69.4048C69.1888 21.279 69.0808 21.177 69.0808 20.973V20.055C69.0808 19.851 69.1888 19.749 69.4048 19.749H76.0828C76.2988 19.749 76.4068 19.851 76.4068 20.055V20.973C76.4068 21.177 76.2988 21.279 76.0828 21.279H73.8148C73.6828 21.279 73.6168 21.339 73.6168 21.459V31.017C73.6168 31.221 73.5148 31.323 73.3108 31.323ZM88.7345 31.323H82.9025C82.6985 31.323 82.5965 31.221 82.5965 31.017V20.055C82.5965 19.851 82.6985 19.749 82.9025 19.749H84.0365C84.2405 19.749 84.3425 19.851 84.3425 20.055V29.577C84.3425 29.697 84.4145 29.757 84.5585 29.757H88.7345C88.9385 29.757 89.0405 29.865 89.0405 30.081V31.017C89.0405 31.221 88.9385 31.323 88.7345 31.323ZM92.7161 20.055V31.017C92.7161 31.221 92.6141 31.323 92.4101 31.323H91.2761C91.0721 31.323 90.9701 31.221 90.9701 31.017V20.055C90.9701 19.851 91.0721 19.749 91.2761 19.749H92.4101C92.6141 19.749 92.7161 19.851 92.7161 20.055ZM97.0348 31.323H95.9188C95.7148 31.323 95.6128 31.221 95.6128 31.017V20.055C95.6128 19.851 95.7148 19.749 95.9188 19.749H96.9268C97.1188 19.749 97.2508 19.815 97.3228 19.947L101.679 27.777H101.751V20.055C101.751 19.851 101.853 19.749 102.057 19.749H103.173C103.377 19.749 103.479 19.851 103.479 20.055V31.017C103.479 31.221 103.377 31.323 103.173 31.323H102.201C102.009 31.323 101.853 31.227 101.733 31.035L97.4128 23.295H97.3408V31.017C97.3408 31.221 97.2388 31.323 97.0348 31.323ZM107.727 31.323H106.593C106.389 31.323 106.287 31.221 106.287 31.017V20.055C106.287 19.851 106.389 19.749 106.593 19.749H107.727C107.931 19.749 108.033 19.851 108.033 20.055V25.761H108.087C108.207 25.437 108.363 25.137 108.555 24.861L111.993 20.055C112.125 19.851 112.317 19.749 112.569 19.749H113.901C114.153 19.749 114.195 19.863 114.027 20.091L110.517 24.861L114.477 30.963C114.621 31.203 114.549 31.323 114.261 31.323H113.253C112.929 31.323 112.701 31.221 112.569 31.017L109.455 26.139L108.033 27.813V31.017C108.033 31.221 107.931 31.323 107.727 31.323Z" fill="#64E6F4"/>
</g>
<defs>
<filter id="filter0_f_61_228" x="50.1812" y="18.749" width="65.5117" height="13.574" filterUnits="userSpaceOnUse" color-interpolation-filters="sRGB">
<feFlood flood-opacity="0" result="BackgroundImageFix"/>
<feBlend mode="normal" in="SourceGraphic" in2="BackgroundImageFix" result="shape"/>
<feGaussianBlur stdDeviation="0.5" result="effect1_foregroundBlur_61_228"/>
</filter>
</defs>
</svg>
