<svg width="184" height="66" viewBox="0 0 184 66" fill="none" xmlns="http://www.w3.org/2000/svg">
<path opacity="0.7" d="M4.82289 0.0142622C7.52765 -0.0222117 11.0732 0.0167876 13.7677 0.0703167C14.6122 0.0869186 14.1846 0.16113 14.7675 0.175932C15.9076 0.204786 16.9698 0.16839 18.0965 0.202762C18.4699 0.214517 18.0051 0.332068 18.3966 0.341702C20.5421 0.393653 22.5718 0.363712 24.7453 0.388699C35.4508 0.511984 45.9741 0.556111 56.8107 0.60967C60.3838 0.62723 64.7273 0.733912 68.418 0.687258C68.8488 0.681706 68.5919 0.578526 68.6739 0.570022C69.9595 0.439834 69.5321 0.648133 70.3715 0.675808C73.7032 0.78508 77.4081 0.794583 80.6144 0.754763C81.9785 0.73752 80.6108 0.532578 81.9843 0.64761C82.0797 0.655382 81.7336 0.764952 82.1077 0.776638C82.956 0.802922 84.5656 0.783337 85.2231 0.792018C86.4902 0.809304 86.6999 0.808202 87.8984 0.80945C89.5369 0.812111 91.4856 0.866577 93.2436 0.84175C93.6188 0.836125 93.1221 0.723803 93.7205 0.70469C94.3194 0.685607 95.904 0.695131 96.4381 0.721609C96.9725 0.7481 96.745 0.836382 96.8395 0.856618C97.6175 1.02741 99.4504 0.790862 99.6861 0.785012C103.986 0.685333 107.673 0.820088 111.71 0.819704C114.774 0.819126 118.05 0.774639 120.965 0.780739C124.439 0.788442 127.383 0.849308 130.757 0.838845C131.113 0.83787 130.696 0.705806 131.131 0.704348C135.752 0.68898 140.341 0.703376 144.942 0.792531C145.404 0.801589 144.809 0.91754 145.27 0.933522C148.093 1.02881 152.559 1.25772 154.235 0.752883C156.147 0.772596 158.468 0.792964 160.179 0.894728C161.282 0.960225 160.21 1.08654 161.565 1.03264C161.871 1.02063 161.473 0.910011 161.932 0.900368C163.861 0.85987 165.968 0.89583 167.877 0.838674C168.265 0.826788 168.159 0.727666 168.269 0.709817C169.194 0.565262 170.732 0.80422 171.068 0.821584C173.622 0.951066 175.488 0.900112 177.868 0.903273C178.42 0.904062 177.767 0.770919 178.298 0.766896C179.453 0.758901 180.625 0.756265 181.796 0.760247C182.673 0.741572 183.452 1.5336 183.427 2.40003C183.417 3.49416 183.401 4.57963 183.378 5.64093C183.364 6.2412 183.251 5.68919 183.239 5.97604C183.186 7.24083 183.4 7.52122 183.354 8.73423C183.345 8.98998 183.248 8.84589 183.237 8.89258C183.07 9.62262 183.307 10.257 183.312 10.4448C183.384 12.8201 183.136 14.3385 183.171 16.6332C183.175 16.9077 183.298 16.2887 183.303 17.0604C183.337 22.2015 183.303 27.6388 183.205 32.7276C183.19 33.5188 183.098 32.954 183.086 33.0038C182.909 33.8153 183.147 34.3404 183.156 34.5983C183.22 36.6336 183.021 38.5348 183.304 39.9177C183.255 44.2499 183.27 48.5721 183.266 52.8853C183.268 53.3042 183.079 53.7187 182.762 53.992C179.756 56.605 176.741 59.1965 173.673 61.7164C173.589 61.7856 173.658 61.5692 173.491 61.7077C171.481 63.3744 171.978 63.1821 170.823 64.4858C170.664 64.6649 170.242 64.9449 169.875 65.1725C169.445 65.4705 169.008 65.4032 168.948 65.3956C168.945 65.3952 168.943 65.3949 168.94 65.3945C168.524 65.3211 168.962 65.1483 168.819 65.1343C167.637 65.0237 167.829 65.6009 166.234 65.601C166.184 65.6001 166.394 65.4939 166.26 65.4833C165.844 65.4501 165.432 65.4923 165.025 65.4558C164.093 65.3712 163.761 65.0907 162.338 65.254C162.158 65.2751 162.433 65.6025 161.009 65.587C160.441 65.5806 157.928 65.5862 157.223 65.565C156.52 65.5438 157.003 65.4383 156.952 65.4337C155.057 65.2942 155.776 65.2364 154.826 65.0299C153.876 64.8242 154.14 65.3149 153.752 65.3697C153.365 65.4243 151.975 65.3092 151.633 65.2692C151.292 65.2291 151.717 65.1621 151.414 65.1395C149.401 64.9915 150.531 65.383 149.867 65.4609C148.304 65.6453 147.086 65.2814 145.655 65.2458C145.267 65.2361 145.583 65.319 145.238 65.3268C143.872 65.3564 143.051 65.2428 141.497 65.3469C141.243 65.3639 139.986 65.5827 139.173 65.4221C139.058 65.399 139.385 65.3083 138.803 65.288C137.934 65.2575 136.367 65.2377 135.432 65.268C134.742 65.2904 135.533 65.4398 134.664 65.3934C134.278 65.3727 134.994 65.2853 134.268 65.2536C133.547 65.222 131.702 65.2258 131 65.2288C130.299 65.2319 130.683 65.3453 130.626 65.3529C130.284 65.3966 128.939 65.4513 128.82 65.4512C122.826 65.465 117.298 65.2739 111.462 65.3372C111.004 65.342 111.31 65.4615 111.24 65.4635C109.672 65.5136 110.908 65.1958 109.813 65.0894C109.971 65.3319 109.324 65.288 108.22 65.3146C107.688 65.3276 107.978 65.4216 107.929 65.4312C107.14 65.5738 106.59 65.3896 106.449 65.3519C105.926 65.2132 105.357 65.3771 105.001 65.2844C104.646 65.1924 105.464 65.056 104.405 65.0578C104.108 65.1446 104.894 65.3715 104.09 65.4083C101.056 65.5474 95.392 65.3693 92.9523 65.3509C90.5176 65.3324 89.7311 65.3484 88.3124 65.317C85.7496 65.2603 86.6888 65.4286 85.0975 65.5057C83.5016 65.5827 84.2775 65.1685 84.048 65.0795C83.8229 64.9905 83.5769 65.0821 83.2968 65.0332C83.0176 64.9842 83.6221 64.9237 82.9654 64.9053C82.3083 64.887 80.5119 65.0453 80.279 65.1384C79.7866 65.3357 80.5961 65.5427 78.8575 65.47C78.7576 65.4657 79.0821 65.3567 78.6992 65.3457C75.6581 65.2619 72.4989 65.2567 69.4616 65.1825C69.044 65.1721 69.4174 65.051 69.1744 65.0436C66.6428 64.9661 67.5478 65.1704 66.1602 65.3973C66.4718 65.0953 65.7045 64.9105 63.7832 64.9087C62.6282 64.9076 62.8271 65.0395 62.08 65.1324C61.8559 65.1605 61.0387 65.0699 60.8906 65.1319C60.4023 65.3347 61.172 65.5617 59.1911 65.4713C59.1042 65.467 59.3809 65.356 59.0806 65.3493C57.1395 65.3053 56.9072 65.5174 54.8089 65.5431C53.1642 65.5633 50.2391 65.4339 48.3664 65.4129C48.4058 65.0733 46.6369 65.1511 45.9193 65.3852C44.704 65.3756 43.3913 65.3889 42.2166 65.3565C41.8123 65.3455 42.0779 65.2471 42.0269 65.2365C41.2452 65.0699 40.7168 65.2977 40.4545 65.3066C37.6112 65.3934 35.2948 65.2208 32.5813 65.3895C32.485 65.3956 32.329 65.6314 31.6036 65.4592C31.5567 65.4473 32.4528 65.34 31.1764 65.3317C29.8998 65.3234 27.4932 65.1969 25.7208 65.3062C25.2919 65.3326 24.207 65.524 23.3364 65.3744C23.2204 65.3541 23.3473 65.2865 23.1799 65.2488C22.6385 65.1289 22.343 65.3673 21.7069 65.1647C21.0706 64.9622 19.7473 64.8105 17.9599 64.9503C17.903 64.9543 17.4799 65.1433 16.9178 65.1403C16.0205 65.1354 14.7466 65.096 13.8097 65.0972C13.3611 65.0979 13.6482 65.2152 13.5704 65.2174C10.5541 65.2831 8.40736 65.1785 5.17609 65.1331C4.59423 65.1247 2.94151 65.279 1.79626 65.1645C1.77413 65.1625 1.75265 65.1597 1.73126 65.1561C1.21062 65.027 1.25397 64.7724 1.26466 64.646C1.29679 64.4979 1.2868 64.3655 1.31678 64.1C1.34156 63.7981 1.34491 63.3702 1.3155 62.7499C1.26061 61.5826 0.529779 60.1047 0.908422 58.0069C0.814597 53.9383 1.00839 50.1757 0.874414 46.0958C0.868478 45.9123 0.664509 45.3322 0.667286 44.9008C0.671801 44.2605 0.767133 43.909 0.773413 43.4518C0.802128 41.5358 0.720566 39.7826 0.733252 37.9354C0.737862 37.234 0.836434 37.4793 0.841943 36.6428C0.84736 35.8068 0.71756 35.2494 0.780249 34.1166C0.828033 33.261 1.09334 32.4056 1.12427 31.27C0.862569 31.2267 0.867959 30.4468 0.798877 29.0605C0.785473 28.7941 0.694389 29.0798 0.68335 28.9537C0.636405 28.4407 0.711894 27.966 0.660791 27.4789C0.648518 27.3604 0.559147 27.3548 0.544068 27.2579C0.412452 26.4342 0.613484 25.0771 0.648487 24.844C0.781419 23.9507 0.665181 23.5333 0.717529 22.8481C0.769871 22.1641 0.835302 23.1869 0.867065 22.3878C0.932763 20.7315 0.918329 18.6033 0.922436 16.9211C0.923523 16.2499 0.804226 16.7079 0.801611 16.6118C0.771354 15.2239 0.898252 13.8204 0.66062 13.0508C1.27505 12.0885 0.601024 12.2139 0.724024 10.23C0.733972 10.0737 1.02453 9.87495 1.06719 10.4749C1.1098 11.0748 1.01898 11.9846 1.08547 12.817C1.10108 13.0141 1.37335 14.1433 1.38984 14.2973C1.51874 15.5042 1.08454 15.6752 1.06069 15.739C0.803329 16.4631 1.09665 17.843 1.11692 18.2063C1.20979 19.8687 1.14872 21.281 1.21501 22.6714C1.25786 23.5807 1.54227 23.6697 1.53357 24.3837C1.50479 26.7574 1.10803 27.586 1.45205 29.8228C1.52542 30.3024 1.83628 29.8258 1.59184 31.5444C1.57643 31.6523 1.35282 32.9283 1.49426 33.6655C1.51209 33.7581 1.60269 33.7551 1.6103 33.8772C1.65953 34.6956 1.58735 35.2413 1.62192 36.1328C1.65649 37.0241 1.70802 38.096 1.67729 39.1138C1.65892 39.7271 1.49013 40.5141 1.4488 40.8077C1.32976 41.6368 1.52494 42.5257 1.38078 43.0393C1.2359 43.5573 1.01588 42.5447 0.922265 43.9029C1.15764 43.9532 1.39923 44.0687 1.63593 44.1496C1.62765 47.126 1.55154 50.0546 1.56194 53.041C1.56346 53.4112 1.69 53.0326 1.69489 53.4295C1.715 55.1041 1.62479 56.5667 1.66071 58.3033C1.68901 59.6475 1.82298 61.1215 1.85673 62.5271C1.74505 62.8832 1.6954 63.4502 1.67379 64.1C1.65221 64.1623 1.72133 64.2441 1.79626 64.2381C2.25287 64.2372 2.70321 64.2354 3.11205 64.2421C3.64282 64.2506 3.60732 64.3225 3.98481 64.346C5.4088 64.4328 4.74151 64.1948 5.1319 64.1573C6.80679 63.9974 6.95021 64.5362 8.92488 64.5229C9.02951 64.5223 10.3083 64.2352 10.4844 64.2173C11.6035 64.1007 10.6697 64.3172 11.3701 64.3385C12.6488 64.3772 13.5375 64.4458 15.0378 64.3617C15.4753 64.3368 16.5248 64.1578 17.3744 64.2962C17.4862 64.3144 17.4244 64.4093 17.5143 64.4148C19.1427 64.5075 19.1855 64.2093 20.116 64.1083C21.0467 64.0073 22.4841 64.2132 22.7766 64.2725C23.5419 64.426 22.1902 64.3381 22.1488 64.3531C21.6619 64.5324 22.7103 64.5016 23.5113 64.5167C23.6272 64.8091 24.7475 64.7916 24.3417 64.5312C24.2955 64.5028 23.6722 64.5301 23.5113 64.5167C24.2144 64.2298 25.4455 64.193 26.8053 64.4612C27.4418 64.5868 26.8401 64.7333 28.7736 64.6797C29.6511 64.6555 29.312 64.4542 30.0864 64.3993C31.8556 64.274 34.1545 64.4619 35.9784 64.4323C36.6404 64.4215 35.9955 64.3113 36.4479 64.3002C37.6485 64.2703 38.7074 64.353 39.9132 64.3106C40.0224 64.3066 39.7555 64.1912 40.1304 64.1898C42.973 64.1764 45.4482 64.2503 48.4161 64.2523C49.8501 64.2533 52.4138 64.1896 53.8993 64.2024C56.474 64.2239 59.6412 64.3917 61.8407 64.3509C63.2752 64.3248 62.9605 64.2094 63.5751 64.1308C64.7612 63.9784 66.8608 64.2514 67.1435 64.2937C67.1521 64.2951 65.9177 64.3223 66.5764 64.3815C66.9593 64.505 67.1296 64.2942 67.1435 64.2937C67.3291 64.321 69.795 64.3472 70.2847 64.3251C70.5507 64.3131 70.4019 64.2037 70.5406 64.1995C73.8379 64.1017 77.141 64.0739 80.4852 64.125C80.5441 64.1272 80.4554 64.2495 80.5938 64.2532C82.5299 64.3076 83.7696 64.1579 85.3664 64.0691C86.9629 63.9803 88.229 64.0101 89.1741 64.22C90.3787 64.1936 92.1069 64.2864 93.1015 64.3427C94.096 64.399 94.2347 64.161 94.3222 64.1563C97.0515 64.0056 98.6292 64.1419 101.461 64.1631C102.807 64.1736 105.477 64.1391 106.935 64.113C108.087 64.0921 108.781 64.1479 109.842 64.1122C109.986 64.1074 109.841 64.0014 109.884 63.9973C111.069 63.8705 110.5 64.1297 110.744 64.1759C111.631 64.3442 112.179 64.4339 113.696 64.3547C114.046 64.3366 115.065 63.9634 115.703 63.9416C116.532 63.9139 116.219 64.0477 117.087 64.0153C117.162 64.0126 117.146 63.9301 117.682 63.9338C120.17 63.9496 122.882 63.9976 125.467 63.9893C125.82 63.9885 125.367 63.8576 125.878 63.8543C128.272 63.8388 130.896 63.8436 133.228 63.9049C133.802 63.9204 133.442 64.012 133.567 64.0392C134.332 64.2038 135.417 63.9646 135.596 63.9601C139.866 63.8451 143.134 64.0616 147.487 63.9585C147.723 63.9525 149.547 63.6961 150.361 63.916C150.416 63.9306 151.221 64.1556 151.933 64.0018C151.977 63.9922 151.476 63.8763 152.351 63.8881C153.227 63.8999 154.635 63.8226 155.839 63.9498C156.219 63.9899 157.12 64.2144 158.256 64.0354C158.33 64.023 160.084 63.6184 160.71 63.8975C160.812 63.9435 160.706 64.2388 162.062 64.0874C162.321 64.058 161.851 63.9922 162.533 63.951C163.579 63.8876 164.965 63.9667 166.251 63.8352C166.475 63.8119 167.43 63.6114 168.195 63.7636C168.315 63.7874 168.087 63.886 168.492 63.897C168.641 63.9011 168.79 63.9045 168.94 63.9073C168.894 63.9117 168.851 63.9313 168.819 63.9618C170.004 62.9445 171.189 61.8692 172.402 60.8841C172.939 60.4477 172.777 60.8002 173.348 60.3586C173.92 59.9168 175.041 58.9931 175.562 58.4423C176.082 57.8915 175.294 58.2418 176.132 57.4835C177.941 55.8477 179.779 54.2635 181.626 52.6904C181.573 52.7413 181.544 52.8146 181.548 52.8853C181.576 50.7069 181.611 48.5282 181.621 46.3418C181.624 45.6141 181.533 46.2174 181.531 45.145C181.525 41.1912 181.439 34.365 181.633 30.9342C181.787 28.1854 181.905 31.6446 181.968 29.5441C181.998 28.5304 181.703 27.4338 181.693 27.1891C181.599 24.7987 181.73 23.1374 181.69 20.9859C181.681 20.5416 181.562 20.9774 181.556 20.5993C181.535 19.3077 181.589 17.9503 181.579 16.7161C181.574 16.1624 181.483 16.2644 181.49 15.7549C181.506 14.5359 181.544 13.4579 181.63 12.2694C181.637 12.1611 181.751 12.8915 181.755 11.9896C181.762 10.5298 181.847 8.71789 181.759 7.03844C181.733 6.54012 181.524 6.52059 181.668 5.44944C181.698 5.22475 181.949 5.51142 181.733 4.26367C181.71 4.13346 181.589 3.27704 181.545 2.40003C181.509 2.54599 181.683 2.67786 181.777 2.60276C181.784 2.59809 181.79 2.59143 181.796 2.58312C181.479 2.5132 180.869 2.35218 180.333 2.38103C180.252 2.38618 180.577 2.49842 180.081 2.50937C178.331 2.546 176.497 2.53403 174.699 2.56919C174.219 2.5788 174.934 2.69495 174.218 2.70556C172.25 2.73492 169.794 2.70535 167.87 2.66899C167.16 2.65537 167.651 2.55915 167.599 2.54868C166.769 2.37837 166.278 2.60825 166.003 2.62165C164.289 2.70191 162.984 2.59393 161.405 2.62251C160.969 2.6301 161.278 2.73971 161.191 2.74948C160.292 2.84498 160.962 2.64813 160.392 2.62644C158.797 2.565 157.018 2.57381 155.404 2.58781C154.812 2.59312 155.478 2.72021 154.946 2.72351C151.798 2.74541 148.525 2.73325 145.452 2.66318C144.874 2.64976 145.238 2.55189 145.117 2.52954C144.286 2.37315 143.068 2.58646 142.788 2.60678C141.514 2.69956 141.019 2.61302 139.894 2.62917C134.396 2.7096 127.609 2.65228 122.42 2.61687C115.658 2.57129 110.411 2.47819 103.963 2.50236C103.554 2.50378 103.967 2.63397 103.614 2.63686C99.0524 2.66825 94.5621 2.61737 89.9919 2.65498C89.6169 2.65783 90.1575 2.78125 89.5555 2.78999C88.3209 2.80876 86.7568 2.80205 85.5085 2.76264C84.8996 2.74365 85.7163 2.63775 85.1034 2.6208C83.6763 2.58109 82.1466 2.5723 80.6807 2.59209C80.0569 2.60078 80.9981 2.72701 80.1872 2.72846C74.6641 2.74099 69.2397 2.76273 63.6583 2.59926C63.2757 2.58804 62.9399 2.33149 62.1264 2.38069C62.0651 2.45188 62.0684 2.53564 62.0417 2.61174C54.0013 2.65273 46.0431 2.5638 37.9802 2.55005C37.6402 2.54949 38.2277 2.68543 37.5696 2.68505C33.7603 2.68304 30.0613 2.7207 26.1649 2.58559C25.7783 2.57238 25.9766 2.33324 24.8373 2.36941C24.6364 2.37601 22.9205 2.4079 22.4768 2.45981C22.4166 2.46764 22.7296 2.57926 22.1767 2.58252C18.9635 2.59947 15.5962 2.57398 12.3886 2.50578C11.8709 2.49456 12.4222 2.37569 12.0535 2.36667C9.43796 2.30357 6.59301 2.39393 4.09375 2.28601C2.42083 2.21334 3.0402 2.00787 2.15123 1.80561C2.10964 1.79618 1.9685 1.78937 1.79626 1.78022C1.56969 1.74218 1.30229 1.9338 1.23136 1.91407C1.08421 1.86117 1.0021 1.70881 0.969752 1.52247C0.930342 1.34292 0.944115 1.13291 0.71099 1.11697C0.654866 1.09937 0.209461 1.55362 0.121427 1.99092C0.0645744 2.20008 0.0592962 2.36993 0.0414062 2.39641C0.0311411 2.42275 -0.0296862 2.30754 0.0180725 1.9285C0.0229512 1.88129 0.139534 1.37229 0.544046 0.993428C0.930667 0.594848 1.55884 0.451918 1.79549 0.439456C1.79575 0.439427 1.796 0.439397 1.79626 0.439368C1.96788 0.400769 1.65779 0.281238 2.00945 0.231986C2.36135 0.182742 2.74803 0.283061 3.33147 0.22515C3.91465 0.166523 3.65822 0.0303783 4.82289 0.0142622ZM97.5794 64.5945C98.5002 64.7088 98.6361 64.2901 97.6402 64.3902C97.5919 64.3956 97.5319 64.5888 97.5794 64.5945ZM1.23569 50.0379C1.051 51.2418 1.32257 52.0656 1.46521 51.2163C1.60769 50.3672 1.29168 49.6711 1.23569 50.0379ZM1.10085 37.5542C0.955234 38.9612 1.54901 39.1827 1.42898 37.6757C1.42219 37.5881 1.10931 37.472 1.10085 37.5542ZM6.2738 1.74802C6.26108 1.74246 5.51642 1.73704 5.49863 1.74255C5.10211 1.87554 6.59113 1.88629 6.2738 1.74802ZM0.954052 25.1663C0.873731 25.6055 0.966452 26.8702 1.06633 26.3244C1.14668 25.8851 1.05397 24.6192 0.954052 25.1663ZM145.616 65.0414C145.63 65.0476 146.164 65.0532 146.154 65.0179C146.117 64.9043 145.374 64.9364 145.616 65.0414ZM0.947216 4.11153C0.924866 7.22227 0.434375 9.10834 0.489723 5.72078C0.499736 5.10733 0.646136 7.04293 0.690357 6.26211C0.770919 4.83341 0.462951 3.88474 0.627979 2.42678C0.658185 2.16285 0.949581 3.93408 0.9479 4.11705C0.947672 4.11521 0.947444 4.11337 0.947216 4.11153ZM98.1097 65.0974C98.1281 65.1029 98.8671 65.1082 98.8848 65.1027C99.2851 64.9698 97.7962 64.9591 98.1097 65.0974ZM175.087 60.3302C175.126 60.3122 176.426 59.1931 176.461 59.1482C176.992 58.3962 174.364 60.6583 175.087 60.3302ZM48.3369 65.4038C47.5305 65.5376 46.5659 65.5533 45.923 65.3854C46.7244 65.3943 47.5311 65.3956 48.3369 65.4038Z" fill="#07596E"/>
<path d="M70.184 40.4H62.408C62.136 40.4 62 40.264 62 39.992V25.376C62 25.104 62.136 24.968 62.408 24.968H63.92C64.192 24.968 64.328 25.104 64.328 25.376V38.072C64.328 38.232 64.424 38.312 64.616 38.312H70.184C70.456 38.312 70.592 38.456 70.592 38.744V39.992C70.592 40.264 70.456 40.4 70.184 40.4ZM76.8607 38.36H78.9487C80.1167 38.36 80.7007 37.768 80.7007 36.584V28.784C80.7007 27.6 80.1167 27.008 78.9487 27.008H76.8607C75.7087 27.008 75.1327 27.6 75.1327 28.784V36.584C75.1327 37.768 75.7087 38.36 76.8607 38.36ZM79.3087 40.4H76.5247C75.3407 40.4 74.4207 40.072 73.7647 39.416C73.1247 38.76 72.8047 37.848 72.8047 36.68V28.688C72.8047 27.504 73.1247 26.592 73.7647 25.952C74.4207 25.296 75.3407 24.968 76.5247 24.968H79.3087C80.4927 24.968 81.4127 25.296 82.0687 25.952C82.7247 26.592 83.0527 27.504 83.0527 28.688V36.68C83.0527 37.848 82.7247 38.76 82.0687 39.416C81.4127 40.072 80.4927 40.4 79.3087 40.4ZM92.5749 40.4H90.0069C88.8229 40.4 87.9029 40.072 87.2469 39.416C86.6069 38.76 86.2869 37.848 86.2869 36.68V28.688C86.2869 27.504 86.6069 26.592 87.2469 25.952C87.9029 25.296 88.8229 24.968 90.0069 24.968H92.5749C93.7589 24.968 94.6709 25.296 95.3109 25.952C95.9669 26.592 96.2949 27.504 96.2949 28.688V29.552C96.2949 29.84 96.1589 29.984 95.8869 29.984H94.3749C94.1029 29.984 93.9669 29.84 93.9669 29.552V28.784C93.9669 27.6 93.3909 27.008 92.2389 27.008H90.3429C89.1909 27.008 88.6149 27.6 88.6149 28.784V36.584C88.6149 37.768 89.1909 38.36 90.3429 38.36H92.2389C93.3909 38.36 93.9669 37.768 93.9669 36.584V34.424C93.9669 34.264 93.8789 34.184 93.7029 34.184H91.7589C91.4869 34.184 91.3509 34.048 91.3509 33.776V32.552C91.3509 32.28 91.4869 32.144 91.7589 32.144H95.7909C96.1269 32.144 96.2949 32.312 96.2949 32.648V36.68C96.2949 37.848 95.9669 38.76 95.3109 39.416C94.6549 40.072 93.7429 40.4 92.5749 40.4ZM108.205 25.376V39.992C108.205 40.264 108.069 40.4 107.797 40.4H106.285C106.013 40.4 105.877 40.264 105.877 39.992V25.376C105.877 25.104 106.013 24.968 106.285 24.968H107.797C108.069 24.968 108.205 25.104 108.205 25.376ZM113.963 40.4H112.475C112.203 40.4 112.067 40.264 112.067 39.992V25.376C112.067 25.104 112.203 24.968 112.475 24.968H113.819C114.075 24.968 114.251 25.056 114.347 25.232L120.155 35.672H120.251V25.376C120.251 25.104 120.387 24.968 120.659 24.968H122.147C122.419 24.968 122.555 25.104 122.555 25.376V39.992C122.555 40.264 122.419 40.4 122.147 40.4H120.851C120.595 40.4 120.387 40.272 120.227 40.016L114.467 29.696H114.371V39.992C114.371 40.264 114.235 40.4 113.963 40.4Z" fill="#64E6F4"/>
<g filter="url(#filter0_f_61_220)">
<path d="M70.184 40.4H62.408C62.136 40.4 62 40.264 62 39.992V25.376C62 25.104 62.136 24.968 62.408 24.968H63.92C64.192 24.968 64.328 25.104 64.328 25.376V38.072C64.328 38.232 64.424 38.312 64.616 38.312H70.184C70.456 38.312 70.592 38.456 70.592 38.744V39.992C70.592 40.264 70.456 40.4 70.184 40.4ZM76.8607 38.36H78.9487C80.1167 38.36 80.7007 37.768 80.7007 36.584V28.784C80.7007 27.6 80.1167 27.008 78.9487 27.008H76.8607C75.7087 27.008 75.1327 27.6 75.1327 28.784V36.584C75.1327 37.768 75.7087 38.36 76.8607 38.36ZM79.3087 40.4H76.5247C75.3407 40.4 74.4207 40.072 73.7647 39.416C73.1247 38.76 72.8047 37.848 72.8047 36.68V28.688C72.8047 27.504 73.1247 26.592 73.7647 25.952C74.4207 25.296 75.3407 24.968 76.5247 24.968H79.3087C80.4927 24.968 81.4127 25.296 82.0687 25.952C82.7247 26.592 83.0527 27.504 83.0527 28.688V36.68C83.0527 37.848 82.7247 38.76 82.0687 39.416C81.4127 40.072 80.4927 40.4 79.3087 40.4ZM92.5749 40.4H90.0069C88.8229 40.4 87.9029 40.072 87.2469 39.416C86.6069 38.76 86.2869 37.848 86.2869 36.68V28.688C86.2869 27.504 86.6069 26.592 87.2469 25.952C87.9029 25.296 88.8229 24.968 90.0069 24.968H92.5749C93.7589 24.968 94.6709 25.296 95.3109 25.952C95.9669 26.592 96.2949 27.504 96.2949 28.688V29.552C96.2949 29.84 96.1589 29.984 95.8869 29.984H94.3749C94.1029 29.984 93.9669 29.84 93.9669 29.552V28.784C93.9669 27.6 93.3909 27.008 92.2389 27.008H90.3429C89.1909 27.008 88.6149 27.6 88.6149 28.784V36.584C88.6149 37.768 89.1909 38.36 90.3429 38.36H92.2389C93.3909 38.36 93.9669 37.768 93.9669 36.584V34.424C93.9669 34.264 93.8789 34.184 93.7029 34.184H91.7589C91.4869 34.184 91.3509 34.048 91.3509 33.776V32.552C91.3509 32.28 91.4869 32.144 91.7589 32.144H95.7909C96.1269 32.144 96.2949 32.312 96.2949 32.648V36.68C96.2949 37.848 95.9669 38.76 95.3109 39.416C94.6549 40.072 93.7429 40.4 92.5749 40.4ZM108.205 25.376V39.992C108.205 40.264 108.069 40.4 107.797 40.4H106.285C106.013 40.4 105.877 40.264 105.877 39.992V25.376C105.877 25.104 106.013 24.968 106.285 24.968H107.797C108.069 24.968 108.205 25.104 108.205 25.376ZM113.963 40.4H112.475C112.203 40.4 112.067 40.264 112.067 39.992V25.376C112.067 25.104 112.203 24.968 112.475 24.968H113.819C114.075 24.968 114.251 25.056 114.347 25.232L120.155 35.672H120.251V25.376C120.251 25.104 120.387 24.968 120.659 24.968H122.147C122.419 24.968 122.555 25.104 122.555 25.376V39.992C122.555 40.264 122.419 40.4 122.147 40.4H120.851C120.595 40.4 120.387 40.272 120.227 40.016L114.467 29.696H114.371V39.992C114.371 40.264 114.235 40.4 113.963 40.4Z" fill="#64E6F4"/>
</g>
<defs>
<filter id="filter0_f_61_220" x="61" y="23.968" width="62.5552" height="17.432" filterUnits="userSpaceOnUse" color-interpolation-filters="sRGB">
<feFlood flood-opacity="0" result="BackgroundImageFix"/>
<feBlend mode="normal" in="SourceGraphic" in2="BackgroundImageFix" result="shape"/>
<feGaussianBlur stdDeviation="0.5" result="effect1_foregroundBlur_61_220"/>
</filter>
</defs>
</svg>
