<svg width="184" height="67" viewBox="0 0 184 67" fill="none" xmlns="http://www.w3.org/2000/svg">
<path opacity="0.7" d="M4.83575 0.0142622C7.54811 -0.0222117 11.1036 0.0167876 13.8057 0.0703167C14.6525 0.0869186 14.2237 0.16113 14.8083 0.175932C15.9516 0.204786 17.0168 0.16839 18.1466 0.202762C18.5211 0.214517 18.055 0.332068 18.4476 0.341702C20.5991 0.393653 22.6346 0.363712 24.8141 0.388699C35.5498 0.511984 46.1026 0.556111 56.9696 0.60967C60.5528 0.62723 64.9085 0.733912 68.6095 0.687258C69.0416 0.681706 68.784 0.578526 68.8662 0.570022C70.1554 0.439834 69.7268 0.648133 70.5686 0.675808C73.9096 0.78508 77.6249 0.794583 80.8402 0.754763C82.2082 0.73752 80.8367 0.532578 82.214 0.64761C82.3097 0.655382 81.9625 0.764952 82.3377 0.776638C83.1884 0.802922 84.8025 0.783337 85.4619 0.792018C86.7326 0.809304 86.9428 0.808202 88.1447 0.80945C89.7878 0.812111 91.742 0.866577 93.5049 0.84175C93.8812 0.836125 93.383 0.723803 93.9831 0.70469C94.5838 0.685607 96.1728 0.695131 96.7085 0.721609C97.2443 0.7481 97.0162 0.836382 97.111 0.856618C97.8911 1.02741 99.7291 0.790862 99.9655 0.785012C104.278 0.685333 107.975 0.820088 112.023 0.819704C115.095 0.819126 118.381 0.774639 121.305 0.780739C124.788 0.788442 127.74 0.849308 131.124 0.838845C131.481 0.83787 131.063 0.705806 131.499 0.704348C136.133 0.68898 140.735 0.703376 145.349 0.792531C145.812 0.801589 145.215 0.91754 145.678 0.933522C148.508 1.02881 152.987 1.25772 154.668 0.752883C156.585 0.772596 158.913 0.792964 160.628 0.894728C161.734 0.960225 160.66 1.08654 162.018 1.03264C162.325 1.02063 161.926 0.910011 162.386 0.900368C164.321 0.85987 166.434 0.89583 168.348 0.838674C168.737 0.826788 168.631 0.727666 168.741 0.709817C169.668 0.565262 171.211 0.80422 171.548 0.821584C174.11 0.951066 175.98 0.900112 178.367 0.903273C178.921 0.904062 178.266 0.770919 178.799 0.766896C179.789 0.760059 180.792 0.757141 181.796 0.758929C182.672 0.739223 183.455 1.53031 183.431 2.40003C183.422 3.67128 183.405 4.93418 183.378 6.16467C183.364 6.76663 183.251 6.21306 183.239 6.50072C183.186 7.76907 183.4 8.05025 183.354 9.26667C183.345 9.52313 183.248 9.37864 183.237 9.42546C183.07 10.1576 183.307 10.7937 183.312 10.982C183.383 13.364 183.136 14.8866 183.171 17.1878C183.175 17.4631 183.298 16.8423 183.303 17.6162C183.337 22.7717 183.303 28.2243 183.205 33.3275C183.19 34.1209 183.098 33.5545 183.086 33.6044C182.909 34.4182 183.147 34.9447 183.156 35.2034C183.22 37.2444 183.021 39.151 183.304 40.5378C183.255 44.8545 183.27 49.1614 183.266 53.4594C183.268 53.8756 183.081 54.2876 182.768 54.5609C179.745 57.2178 176.714 59.8532 173.628 62.4162C173.544 62.4861 173.613 62.2689 173.446 62.4087C171.439 64.0911 171.937 63.8953 170.785 65.2084C170.633 65.3814 170.239 65.6489 169.884 65.8738C169.497 66.1487 169.077 66.1276 168.937 66.1035C168.917 66.0997 168.902 66.097 168.894 66.0956C168.466 66.0229 168.91 65.8484 168.766 65.8343C167.581 65.7237 167.774 66.3009 166.174 66.301C166.124 66.3001 166.334 66.1939 166.2 66.1833C165.783 66.1501 165.369 66.1924 164.961 66.1558C164.027 66.0712 163.694 65.7907 162.267 65.954C162.086 65.9751 162.362 66.3025 160.934 66.287C160.364 66.2806 157.844 66.2862 157.138 66.265C156.432 66.2438 156.917 66.1383 156.866 66.1337C154.965 65.9942 155.686 65.9364 154.734 65.7299C153.781 65.5242 154.045 66.0149 153.657 66.0697C153.268 66.1243 151.874 66.0092 151.532 65.9692C151.19 65.9291 151.617 65.8621 151.312 65.8395C149.294 65.6915 150.426 66.083 149.761 66.1609C148.193 66.3453 146.972 65.9814 145.537 65.9458C145.148 65.9361 145.465 66.019 145.119 66.0268C143.749 66.0564 142.926 65.9428 141.367 66.0469C141.112 66.0639 139.853 66.2827 139.037 66.1221C138.922 66.099 139.25 66.0083 138.666 65.988C137.794 65.9575 136.223 65.9377 135.285 65.968C134.593 65.9904 135.386 66.1398 134.515 66.0934C134.128 66.0727 134.846 65.9853 134.118 65.9536C133.395 65.922 131.545 65.9258 130.841 65.9288C130.138 65.9319 130.523 66.0453 130.466 66.0529C130.122 66.0966 128.774 66.1513 128.655 66.1512C122.644 66.165 117.101 65.9739 111.248 66.0372C110.789 66.042 111.095 66.1615 111.025 66.1635C109.453 66.2136 110.692 65.8958 109.594 65.7894C109.753 66.0319 109.104 65.988 107.997 66.0146C107.463 66.0276 107.754 66.1216 107.705 66.1312C106.914 66.2738 106.362 66.0896 106.221 66.0519C105.696 65.9132 105.126 66.0771 104.769 65.9844C104.413 65.8924 105.233 65.756 104.171 65.7578C103.873 65.8446 104.662 66.0715 103.855 66.1083C100.813 66.2474 95.1327 66.0694 92.6862 66.0509C90.2446 66.0324 89.456 66.0484 88.0332 66.017C85.4633 65.9603 86.4051 66.1286 84.8094 66.2057C83.2089 66.2827 83.9869 65.8685 83.7569 65.7795C83.5311 65.6905 83.2845 65.7821 83.0035 65.7332C82.7236 65.6842 83.3297 65.6237 82.6712 65.6053C82.0123 65.587 80.2108 65.7453 79.9773 65.8384C79.4835 66.0357 80.2953 66.2427 78.5518 66.17C78.4516 66.1657 78.777 66.0567 78.393 66.0457C75.3435 65.9619 72.1753 65.9567 69.1295 65.8825C68.7107 65.8722 69.0852 65.751 68.8414 65.7436C66.3027 65.6661 67.2103 65.8704 65.8188 66.0973C66.1313 65.7953 65.3618 65.6105 63.4351 65.6087C62.2769 65.6076 62.4763 65.7395 61.7272 65.8325C61.5024 65.8605 60.6829 65.7699 60.5344 65.8319C60.0447 66.0347 60.8166 66.2617 58.8301 66.1713C58.743 66.167 59.0205 66.056 58.7193 66.0493C56.7727 66.0053 56.5398 66.2174 54.4356 66.2431C52.7863 66.2633 49.853 66.1339 47.975 66.1129C48.0145 65.7733 46.2406 65.8511 45.5211 66.0852C44.3023 66.0756 42.9859 66.0889 41.8079 66.0565C41.4025 66.0455 41.6689 65.9472 41.6177 65.9365C40.8338 65.7699 40.3039 65.9977 40.0409 66.0066C37.1896 66.0934 34.8666 65.9208 32.1455 66.0895C32.049 66.0956 31.8925 66.3314 31.1651 66.1592C31.118 66.1473 32.0167 66.04 30.7367 66.0317C29.4565 66.0234 27.0431 65.8969 25.2657 66.0062C24.8357 66.0326 23.7477 66.224 22.8746 66.0744C22.7583 66.0541 22.8856 65.9865 22.7177 65.9488C22.1749 65.8289 21.8785 66.0673 21.2405 65.8647C20.6026 65.6622 19.2755 65.5105 17.4831 65.6503C17.426 65.6543 17.0017 65.8433 16.438 65.8403C15.5381 65.8354 14.2607 65.796 13.3212 65.7972C12.8714 65.7979 13.1593 65.9152 13.0812 65.9174C10.0564 65.9831 7.90365 65.8785 4.66332 65.8331C4.16371 65.8259 2.87683 65.938 1.7962 65.8985C1.57158 65.8919 1.36224 65.807 1.21287 65.6829C0.903561 65.4039 0.958437 65.1937 1.00633 65.0922C1.06534 64.9831 1.14744 64.9184 1.21874 64.8C1.31397 64.5448 1.36898 64.0517 1.31544 62.9195C1.26055 61.7489 0.529718 60.2668 0.908361 58.1631C0.814536 54.0831 1.00832 50.3099 0.874353 46.2186C0.868417 46.0346 0.664448 45.4528 0.667224 45.0202C0.67174 44.3781 0.767072 44.0256 0.773352 43.5671C0.802067 41.6458 0.720505 39.8876 0.733191 38.0352C0.737801 37.3319 0.836373 37.5778 0.841882 36.739C0.847299 35.9007 0.717499 35.3417 0.780188 34.2057C0.827972 33.3478 1.09328 32.49 1.12421 31.3511C0.862508 31.3077 0.867898 30.5256 0.798816 29.1354C0.785412 28.8682 0.694327 29.1548 0.683289 29.0283C0.636344 28.5139 0.711833 28.0378 0.66073 27.5494C0.648457 27.4305 0.559086 27.4249 0.544007 27.3278C0.412391 26.5017 0.613423 25.1409 0.648426 24.9071C0.781358 24.0113 0.66512 23.5927 0.717468 22.9056C0.76981 22.2196 0.835241 23.2453 0.867004 22.444C0.932702 20.783 0.918268 18.6489 0.922375 16.9619C0.923462 16.2888 0.804165 16.7481 0.80155 16.6517C0.771293 15.2599 0.898191 13.8525 0.660559 13.0807C1.27499 12.1158 0.600963 12.2415 0.723963 10.252C0.733911 10.0953 1.02447 9.89594 1.06713 10.4976C1.10974 11.0992 1.01892 12.0115 1.08541 12.8462C1.10102 13.0439 1.37329 14.1763 1.38978 14.3308C1.51868 15.541 1.08448 15.7125 1.06063 15.7765C0.803268 16.5026 1.09659 17.8864 1.11686 18.2507C1.20973 19.9178 1.14866 21.334 1.21495 22.7283C1.2578 23.6402 1.54221 23.7294 1.53351 24.4455C1.50473 26.8259 1.10797 27.6568 1.45199 29.8999C1.52536 30.3808 1.83622 29.9028 1.59178 31.6263C1.57637 31.7345 1.35276 33.0141 1.4942 33.7533C1.51203 33.8462 1.60263 33.8432 1.61024 33.9657C1.65947 34.7863 1.58729 35.3336 1.62186 36.2276C1.65643 37.1214 1.70796 38.1963 1.67723 39.2169C1.65886 39.832 1.49006 40.6212 1.44874 40.9156C1.3297 41.747 1.52488 42.6384 1.38072 43.1535C1.23584 43.6729 1.01582 42.6575 0.922204 44.0195C1.15758 44.0699 1.39916 44.1858 1.63587 44.2669C1.62759 47.2517 1.55148 50.1885 1.56187 53.1833C1.5634 53.5546 1.68994 53.1749 1.69483 53.5729C1.71494 55.2522 1.62473 56.7189 1.66065 58.4604C1.68894 59.8084 1.82292 61.2866 1.85667 62.6961C1.71575 63.1466 1.6736 63.934 1.6619 64.8C1.65122 64.8712 1.72561 64.9421 1.7962 64.9372C2.07225 64.9371 2.34078 64.938 2.59346 64.9421C3.12574 64.9506 3.09014 65.0225 3.46867 65.046C4.8967 65.1328 4.22749 64.8948 4.61901 64.8573C6.2986 64.6974 6.44242 65.2362 8.42264 65.2229C8.52753 65.2223 9.80994 64.9352 9.98655 64.9173C11.1089 64.8007 10.1723 65.0172 10.8747 65.0385C12.1571 65.0772 13.0482 65.1458 14.5528 65.0617C14.9915 65.0368 16.0439 64.8578 16.8959 64.9962C17.008 65.0144 16.9461 65.1093 17.0362 65.1148C18.6692 65.2075 18.7121 64.9093 19.6452 64.8083C20.5785 64.7073 22.02 64.9132 22.3133 64.9725C23.0808 65.126 21.7253 65.0381 21.6837 65.0532C21.1955 65.2324 22.2468 65.2016 23.05 65.2167C23.1663 65.5091 24.2897 65.4916 23.8828 65.2312C23.8365 65.2028 23.2114 65.2301 23.05 65.2167C23.7552 64.9298 24.9897 64.893 26.3533 65.1612C26.9916 65.2868 26.3882 65.4333 28.3271 65.3797C29.2071 65.3555 28.8671 65.1542 29.6436 65.0993C31.4178 64.974 33.7232 65.1619 35.5522 65.1323C36.216 65.1215 35.5693 65.0113 36.023 65.0002C37.227 64.9703 38.2888 65.053 39.498 65.0106C39.6076 65.0066 39.3399 64.8912 39.7159 64.8898C42.5665 64.8764 45.0486 64.9503 48.0248 64.9523C49.4628 64.9533 52.0338 64.8896 53.5235 64.9024C56.1053 64.9239 59.2815 65.0917 61.4871 65.0509C62.9257 65.0248 62.6101 64.9094 63.2265 64.8308C64.4159 64.6784 66.5213 64.9514 66.8048 64.9937C66.8135 64.9951 65.5756 65.0223 66.2361 65.0815C66.6202 65.205 66.7909 64.9942 66.8048 64.9937C66.991 65.021 69.4638 65.0472 69.9548 65.0251C70.2217 65.0131 70.0724 64.9037 70.2115 64.8995C73.5181 64.8017 76.8304 64.7739 80.1841 64.825C80.2431 64.8272 80.1542 64.9495 80.293 64.9532C82.2345 65.0076 83.4777 64.8579 85.0789 64.7691C86.6799 64.6803 87.9496 64.7101 88.8973 64.92C90.1053 64.8936 91.8385 64.9864 92.8358 65.0427C93.8331 65.099 93.9722 64.861 94.06 64.8563C96.7969 64.7056 98.3791 64.8419 101.219 64.8631C102.569 64.8736 105.246 64.8391 106.708 64.813C107.863 64.7921 108.559 64.8479 109.623 64.8122C109.767 64.8074 109.622 64.7014 109.666 64.6973C110.854 64.5705 110.283 64.8297 110.528 64.8759C111.417 65.0442 111.967 65.1339 113.488 65.0547C113.839 65.0366 114.861 64.6635 115.501 64.6416C116.332 64.6139 116.018 64.7477 116.889 64.7153C116.964 64.7126 116.948 64.6301 117.486 64.6338C119.98 64.6496 122.7 64.6976 125.292 64.6893C125.646 64.6885 125.192 64.5576 125.704 64.5543C128.105 64.5388 130.736 64.5436 133.075 64.6049C133.651 64.6204 133.29 64.712 133.415 64.7392C134.182 64.9038 135.27 64.6646 135.449 64.6601C139.732 64.5451 143.009 64.7616 147.374 64.6586C147.611 64.6525 149.44 64.3961 150.256 64.616C150.312 64.6306 151.119 64.8556 151.833 64.7018C151.877 64.6922 151.374 64.5763 152.252 64.5881C153.13 64.5999 154.542 64.5226 155.749 64.6498C156.131 64.6899 157.034 64.9144 158.173 64.7355C158.248 64.723 160.007 64.3184 160.635 64.5975C160.737 64.6435 160.63 64.9388 161.99 64.7874C162.25 64.758 161.778 64.6922 162.463 64.651C163.512 64.5876 164.901 64.6667 166.191 64.5352C166.416 64.5119 167.373 64.3114 168.14 64.4636C168.261 64.4874 168.032 64.586 168.438 64.597C168.603 64.6016 168.77 64.6052 168.937 64.6082C168.891 64.6124 168.848 64.632 168.816 64.6627C169.985 63.6465 171.155 62.5749 172.351 61.5916C172.887 61.1509 172.727 61.505 173.297 61.0589C173.868 60.6128 174.987 59.6803 175.506 59.1253C176.026 58.5702 175.238 58.9263 176.074 58.1614C177.901 56.4909 179.759 54.8731 181.626 53.2661C181.573 53.3168 181.545 53.3894 181.549 53.4594C181.577 51.3023 181.611 49.1449 181.621 46.98C181.624 46.2502 181.533 46.8552 181.531 45.7798C181.525 41.8149 181.439 34.9695 181.633 31.529C181.787 28.7724 181.905 32.2415 181.968 30.135C181.998 29.1185 181.703 28.0188 181.693 27.7734C181.599 25.3763 181.73 23.7103 181.69 21.5528C181.681 21.1073 181.562 21.5442 181.556 21.165C181.535 19.8699 181.588 18.5086 181.579 17.2709C181.574 16.7157 181.483 16.818 181.49 16.3071C181.505 15.0846 181.544 14.0036 181.63 12.8118C181.637 12.7032 181.751 13.4356 181.755 12.5312C181.762 11.0673 181.846 9.25028 181.759 7.56611C181.733 7.06639 181.524 7.0468 181.668 5.97264C181.698 5.74732 181.949 6.0348 181.732 4.78354C181.706 4.62735 181.538 3.42916 181.53 2.40003C181.525 2.49497 181.608 2.58059 181.679 2.56625C181.712 2.56352 181.783 2.52515 181.796 2.47131C181.502 2.41352 181.157 2.36393 180.839 2.38103C180.758 2.38618 181.084 2.49842 180.586 2.50937C178.831 2.546 176.992 2.53403 175.189 2.56919C174.708 2.5788 175.425 2.69495 174.707 2.70556C172.734 2.73492 170.27 2.70535 168.341 2.66899C167.629 2.65537 168.121 2.55915 168.069 2.54868C167.237 2.37837 166.745 2.60825 166.468 2.62165C164.75 2.70191 163.442 2.59393 161.858 2.62251C161.421 2.6301 161.731 2.73971 161.644 2.74948C160.741 2.84498 161.413 2.64813 160.842 2.62644C159.242 2.565 157.458 2.57381 155.84 2.58781C155.246 2.59312 155.914 2.72021 155.381 2.72351C152.223 2.74541 148.941 2.73325 145.86 2.66318C145.28 2.64976 145.645 2.55189 145.524 2.52954C144.691 2.37315 143.47 2.58646 143.189 2.60678C141.911 2.69956 141.414 2.61302 140.286 2.62917C134.773 2.7096 127.967 2.65228 122.763 2.61687C115.983 2.57129 110.721 2.47819 104.255 2.50236C103.844 2.50378 104.258 2.63397 103.904 2.63686C99.3301 2.66825 94.8271 2.61737 90.2441 2.65498C89.868 2.65783 90.4101 2.78125 89.8065 2.78999C88.5683 2.80876 86.9999 2.80205 85.7481 2.76264C85.1375 2.74365 85.9565 2.63775 85.3418 2.6208C83.9107 2.58109 82.3767 2.5723 80.9067 2.59209C80.2811 2.60078 81.225 2.72701 80.4119 2.72846C74.8732 2.74099 69.4336 2.76273 63.8365 2.59926C63.4528 2.58804 63.1161 2.33149 62.3003 2.38069C62.2388 2.45188 62.2422 2.53564 62.2153 2.61174C54.1524 2.65273 46.1718 2.5638 38.0862 2.55005C37.7453 2.54949 38.3345 2.68543 37.6745 2.68505C33.8545 2.68304 30.1451 2.7207 26.2377 2.58559C25.85 2.57238 26.0489 2.33324 24.9064 2.36941C24.7049 2.37601 22.9842 2.4079 22.5393 2.45981C22.4789 2.46764 22.7928 2.57926 22.2383 2.58252C19.0161 2.59947 15.6394 2.57398 12.4227 2.50578C11.9036 2.49456 12.4564 2.37569 12.0867 2.36667C9.46379 2.30357 6.61085 2.39393 4.10456 2.28601C2.42694 2.21334 3.04804 2.00787 2.15658 1.80561C2.11452 1.7961 1.97092 1.78925 1.7962 1.77999C1.56928 1.74219 1.30299 1.93283 1.23227 1.91294C1.08513 1.85987 1.00341 1.70719 0.971702 1.52058C0.932895 1.34076 0.947526 1.13055 0.714059 1.11433C0.657856 1.09656 0.210146 1.55122 0.121641 1.98979C0.0644993 2.19952 0.0592386 2.36985 0.0413451 2.3964C0.0311198 2.42282 -0.0299031 2.30726 0.0183573 1.92719C0.0234146 1.8801 0.139022 1.37488 0.541063 0.996504C0.925315 0.598696 1.55231 0.452408 1.7962 0.440343C1.79756 0.440047 1.7989 0.439752 1.80022 0.439456C1.97319 0.400951 1.66149 0.281276 2.0144 0.231986C2.36729 0.182742 2.75506 0.283061 3.34014 0.22515C3.92495 0.166523 3.66781 0.0303783 4.83575 0.0142622ZM97.3263 65.2945C98.2497 65.4088 98.386 64.9901 97.3872 65.0902C97.3389 65.0956 97.2787 65.2889 97.3263 65.2945ZM1.23563 50.1718C1.05094 51.379 1.32251 52.2052 1.46515 51.3535C1.60763 50.5019 1.29162 49.804 1.23563 50.1718ZM1.10079 37.653C0.955173 39.064 1.54895 39.2861 1.42892 37.7749C1.42213 37.687 1.10925 37.5705 1.10079 37.653ZM6.29073 1.74802C6.27798 1.74246 5.53123 1.73704 5.51338 1.74255C5.11575 1.87554 6.60895 1.88629 6.29073 1.74802ZM0.953991 25.2302C0.87367 25.6707 0.966391 26.9389 1.06627 26.3916C1.14662 25.9511 1.05391 24.6817 0.953991 25.2302ZM145.498 65.7414C145.512 65.7476 146.048 65.7532 146.037 65.7179C146.001 65.6043 145.256 65.6364 145.498 65.7414ZM0.947155 4.11634C0.924804 7.23582 0.434314 9.12719 0.489662 5.73012C0.499675 5.11493 0.646075 7.05597 0.690296 6.27296C0.770858 4.84025 0.46289 3.8889 0.627918 2.42686C0.658124 2.16219 0.94952 3.93839 0.947839 4.12188C0.947611 4.12002 0.947383 4.11819 0.947155 4.11634ZM97.8581 65.7974C97.8765 65.8029 98.6176 65.8082 98.6354 65.8027C99.0367 65.6698 97.5437 65.6591 97.8581 65.7974ZM175.039 61.0186C175.078 61.0004 176.375 59.8711 176.41 59.8259C176.939 59.0694 174.316 61.3521 175.039 61.0186ZM47.9454 66.1038C47.1367 66.2376 46.1694 66.2533 45.5248 66.0854C46.3284 66.0943 47.1374 66.0956 47.9454 66.1038Z" fill="#07596E"/>
<path d="M54.0217 36.8098V36.1858C54.0217 35.9138 54.1577 35.7778 54.4297 35.7778H55.9657C56.2377 35.7778 56.3737 35.9138 56.3737 36.1858V36.6178C56.3737 37.2898 56.5177 37.7778 56.8057 38.0818C57.1097 38.3698 57.6057 38.5138 58.2937 38.5138H59.9497C60.6377 38.5138 61.1337 38.3618 61.4377 38.0578C61.7417 37.7378 61.8937 37.2258 61.8937 36.5218V35.9698C61.8937 35.4578 61.6937 35.0578 61.2937 34.7698C60.9097 34.4658 60.4297 34.2738 59.8537 34.1938C59.2777 34.0978 58.6457 33.9698 57.9577 33.8098C57.2697 33.6498 56.6377 33.4658 56.0617 33.2578C55.4857 33.0498 54.9977 32.6578 54.5977 32.0818C54.2137 31.5058 54.0217 30.7698 54.0217 29.8738V28.8658C54.0217 27.6978 54.3497 26.7858 55.0057 26.1298C55.6777 25.4578 56.5977 25.1218 57.7657 25.1218H60.3097C61.4937 25.1218 62.4137 25.4578 63.0697 26.1298C63.7417 26.7858 64.0777 27.6978 64.0777 28.8658V29.3938C64.0777 29.6658 63.9417 29.8018 63.6697 29.8018H62.1337C61.8617 29.8018 61.7257 29.6658 61.7257 29.3938V29.0818C61.7257 28.3938 61.5737 27.9058 61.2697 27.6178C60.9817 27.3138 60.4937 27.1618 59.8057 27.1618H58.2937C57.6057 27.1618 57.1097 27.3218 56.8057 27.6418C56.5177 27.9458 56.3737 28.4738 56.3737 29.2258V29.9698C56.3737 30.6898 56.8937 31.1778 57.9337 31.4338C58.3977 31.5458 58.9017 31.6418 59.4457 31.7218C60.0057 31.8018 60.5657 31.9218 61.1257 32.0818C61.6857 32.2418 62.1977 32.4578 62.6617 32.7298C63.1257 32.9858 63.5017 33.3858 63.7897 33.9298C64.0777 34.4578 64.2217 35.1058 64.2217 35.8738V36.8098C64.2217 37.9778 63.8857 38.8978 63.2137 39.5698C62.5577 40.2258 61.6457 40.5538 60.4777 40.5538H57.7897C56.6217 40.5538 55.7017 40.2258 55.0297 39.5698C54.3577 38.8978 54.0217 37.9778 54.0217 36.8098ZM70.1461 25.5298V40.1458C70.1461 40.4178 70.0101 40.5538 69.7381 40.5538H68.2261C67.9541 40.5538 67.8181 40.4178 67.8181 40.1458V25.5298C67.8181 25.2578 67.9541 25.1218 68.2261 25.1218H69.7381C70.0101 25.1218 70.1461 25.2578 70.1461 25.5298ZM80.0564 40.5538H77.4884C76.3044 40.5538 75.3844 40.2258 74.7284 39.5698C74.0884 38.9138 73.7684 38.0018 73.7684 36.8338V28.8418C73.7684 27.6578 74.0884 26.7458 74.7284 26.1058C75.3844 25.4498 76.3044 25.1218 77.4884 25.1218H80.0564C81.2404 25.1218 82.1524 25.4498 82.7924 26.1058C83.4484 26.7458 83.7764 27.6578 83.7764 28.8418V29.7058C83.7764 29.9938 83.6404 30.1378 83.3684 30.1378H81.8564C81.5844 30.1378 81.4484 29.9938 81.4484 29.7058V28.9378C81.4484 27.7538 80.8724 27.1618 79.7204 27.1618H77.8244C76.6724 27.1618 76.0964 27.7538 76.0964 28.9378V36.7378C76.0964 37.9218 76.6724 38.5138 77.8244 38.5138H79.7204C80.8724 38.5138 81.4484 37.9218 81.4484 36.7378V34.5778C81.4484 34.4178 81.3604 34.3378 81.1844 34.3378H79.2404C78.9684 34.3378 78.8324 34.2018 78.8324 33.9298V32.7058C78.8324 32.4338 78.9684 32.2978 79.2404 32.2978H83.2724C83.6084 32.2978 83.7764 32.4658 83.7764 32.8018V36.8338C83.7764 38.0018 83.4484 38.9138 82.7924 39.5698C82.1364 40.2258 81.2244 40.5538 80.0564 40.5538ZM89.1757 40.5538H87.6877C87.4157 40.5538 87.2797 40.4178 87.2797 40.1458V25.5298C87.2797 25.2578 87.4157 25.1218 87.6877 25.1218H89.0317C89.2877 25.1218 89.4637 25.2098 89.5597 25.3858L95.3677 35.8258H95.4637V25.5298C95.4637 25.2578 95.5997 25.1218 95.8717 25.1218H97.3597C97.6317 25.1218 97.7677 25.2578 97.7677 25.5298V40.1458C97.7677 40.4178 97.6317 40.5538 97.3597 40.5538H96.0637C95.8077 40.5538 95.5997 40.4258 95.4397 40.1698L89.6797 29.8498H89.5837V40.1458C89.5837 40.4178 89.4477 40.5538 89.1757 40.5538ZM115.535 25.1218H117.047C117.335 25.1218 117.479 25.2498 117.479 25.5058V36.8338C117.479 38.0018 117.143 38.9138 116.471 39.5698C115.815 40.2258 114.903 40.5538 113.735 40.5538H111.071C109.903 40.5538 108.991 40.2258 108.335 39.5698C107.679 38.9138 107.351 38.0018 107.351 36.8338V25.5298C107.351 25.2578 107.487 25.1218 107.759 25.1218H109.271C109.543 25.1218 109.679 25.2578 109.679 25.5298V36.7378C109.679 37.9218 110.255 38.5138 111.407 38.5138H113.375C114.543 38.5138 115.127 37.9218 115.127 36.7378V25.5298C115.127 25.2578 115.263 25.1218 115.535 25.1218ZM122.99 40.5538H121.478C121.206 40.5538 121.07 40.4178 121.07 40.1458V25.5298C121.07 25.2578 121.206 25.1218 121.478 25.1218H127.19C128.358 25.1218 129.27 25.4498 129.926 26.1058C130.582 26.7458 130.91 27.6578 130.91 28.8418V31.3378C130.91 32.5058 130.582 33.4178 129.926 34.0738C129.27 34.7298 128.358 35.0578 127.19 35.0578H123.686C123.494 35.0578 123.398 35.1378 123.398 35.2978V40.1458C123.398 40.4178 123.262 40.5538 122.99 40.5538ZM123.662 32.9938H126.854C127.99 32.9938 128.558 32.4018 128.558 31.2178V28.9378C128.558 27.7538 127.99 27.1618 126.854 27.1618H123.662C123.486 27.1618 123.398 27.2418 123.398 27.4018V32.7538C123.398 32.9138 123.486 32.9938 123.662 32.9938Z" fill="#64E6F4"/>
<g filter="url(#filter0_f_61_221)">
<path d="M54.0217 36.8098V36.1858C54.0217 35.9138 54.1577 35.7778 54.4297 35.7778H55.9657C56.2377 35.7778 56.3737 35.9138 56.3737 36.1858V36.6178C56.3737 37.2898 56.5177 37.7778 56.8057 38.0818C57.1097 38.3698 57.6057 38.5138 58.2937 38.5138H59.9497C60.6377 38.5138 61.1337 38.3618 61.4377 38.0578C61.7417 37.7378 61.8937 37.2258 61.8937 36.5218V35.9698C61.8937 35.4578 61.6937 35.0578 61.2937 34.7698C60.9097 34.4658 60.4297 34.2738 59.8537 34.1938C59.2777 34.0978 58.6457 33.9698 57.9577 33.8098C57.2697 33.6498 56.6377 33.4658 56.0617 33.2578C55.4857 33.0498 54.9977 32.6578 54.5977 32.0818C54.2137 31.5058 54.0217 30.7698 54.0217 29.8738V28.8658C54.0217 27.6978 54.3497 26.7858 55.0057 26.1298C55.6777 25.4578 56.5977 25.1218 57.7657 25.1218H60.3097C61.4937 25.1218 62.4137 25.4578 63.0697 26.1298C63.7417 26.7858 64.0777 27.6978 64.0777 28.8658V29.3938C64.0777 29.6658 63.9417 29.8018 63.6697 29.8018H62.1337C61.8617 29.8018 61.7257 29.6658 61.7257 29.3938V29.0818C61.7257 28.3938 61.5737 27.9058 61.2697 27.6178C60.9817 27.3138 60.4937 27.1618 59.8057 27.1618H58.2937C57.6057 27.1618 57.1097 27.3218 56.8057 27.6418C56.5177 27.9458 56.3737 28.4738 56.3737 29.2258V29.9698C56.3737 30.6898 56.8937 31.1778 57.9337 31.4338C58.3977 31.5458 58.9017 31.6418 59.4457 31.7218C60.0057 31.8018 60.5657 31.9218 61.1257 32.0818C61.6857 32.2418 62.1977 32.4578 62.6617 32.7298C63.1257 32.9858 63.5017 33.3858 63.7897 33.9298C64.0777 34.4578 64.2217 35.1058 64.2217 35.8738V36.8098C64.2217 37.9778 63.8857 38.8978 63.2137 39.5698C62.5577 40.2258 61.6457 40.5538 60.4777 40.5538H57.7897C56.6217 40.5538 55.7017 40.2258 55.0297 39.5698C54.3577 38.8978 54.0217 37.9778 54.0217 36.8098ZM70.1461 25.5298V40.1458C70.1461 40.4178 70.0101 40.5538 69.7381 40.5538H68.2261C67.9541 40.5538 67.8181 40.4178 67.8181 40.1458V25.5298C67.8181 25.2578 67.9541 25.1218 68.2261 25.1218H69.7381C70.0101 25.1218 70.1461 25.2578 70.1461 25.5298ZM80.0564 40.5538H77.4884C76.3044 40.5538 75.3844 40.2258 74.7284 39.5698C74.0884 38.9138 73.7684 38.0018 73.7684 36.8338V28.8418C73.7684 27.6578 74.0884 26.7458 74.7284 26.1058C75.3844 25.4498 76.3044 25.1218 77.4884 25.1218H80.0564C81.2404 25.1218 82.1524 25.4498 82.7924 26.1058C83.4484 26.7458 83.7764 27.6578 83.7764 28.8418V29.7058C83.7764 29.9938 83.6404 30.1378 83.3684 30.1378H81.8564C81.5844 30.1378 81.4484 29.9938 81.4484 29.7058V28.9378C81.4484 27.7538 80.8724 27.1618 79.7204 27.1618H77.8244C76.6724 27.1618 76.0964 27.7538 76.0964 28.9378V36.7378C76.0964 37.9218 76.6724 38.5138 77.8244 38.5138H79.7204C80.8724 38.5138 81.4484 37.9218 81.4484 36.7378V34.5778C81.4484 34.4178 81.3604 34.3378 81.1844 34.3378H79.2404C78.9684 34.3378 78.8324 34.2018 78.8324 33.9298V32.7058C78.8324 32.4338 78.9684 32.2978 79.2404 32.2978H83.2724C83.6084 32.2978 83.7764 32.4658 83.7764 32.8018V36.8338C83.7764 38.0018 83.4484 38.9138 82.7924 39.5698C82.1364 40.2258 81.2244 40.5538 80.0564 40.5538ZM89.1757 40.5538H87.6877C87.4157 40.5538 87.2797 40.4178 87.2797 40.1458V25.5298C87.2797 25.2578 87.4157 25.1218 87.6877 25.1218H89.0317C89.2877 25.1218 89.4637 25.2098 89.5597 25.3858L95.3677 35.8258H95.4637V25.5298C95.4637 25.2578 95.5997 25.1218 95.8717 25.1218H97.3597C97.6317 25.1218 97.7677 25.2578 97.7677 25.5298V40.1458C97.7677 40.4178 97.6317 40.5538 97.3597 40.5538H96.0637C95.8077 40.5538 95.5997 40.4258 95.4397 40.1698L89.6797 29.8498H89.5837V40.1458C89.5837 40.4178 89.4477 40.5538 89.1757 40.5538ZM115.535 25.1218H117.047C117.335 25.1218 117.479 25.2498 117.479 25.5058V36.8338C117.479 38.0018 117.143 38.9138 116.471 39.5698C115.815 40.2258 114.903 40.5538 113.735 40.5538H111.071C109.903 40.5538 108.991 40.2258 108.335 39.5698C107.679 38.9138 107.351 38.0018 107.351 36.8338V25.5298C107.351 25.2578 107.487 25.1218 107.759 25.1218H109.271C109.543 25.1218 109.679 25.2578 109.679 25.5298V36.7378C109.679 37.9218 110.255 38.5138 111.407 38.5138H113.375C114.543 38.5138 115.127 37.9218 115.127 36.7378V25.5298C115.127 25.2578 115.263 25.1218 115.535 25.1218ZM122.99 40.5538H121.478C121.206 40.5538 121.07 40.4178 121.07 40.1458V25.5298C121.07 25.2578 121.206 25.1218 121.478 25.1218H127.19C128.358 25.1218 129.27 25.4498 129.926 26.1058C130.582 26.7458 130.91 27.6578 130.91 28.8418V31.3378C130.91 32.5058 130.582 33.4178 129.926 34.0738C129.27 34.7298 128.358 35.0578 127.19 35.0578H123.686C123.494 35.0578 123.398 35.1378 123.398 35.2978V40.1458C123.398 40.4178 123.262 40.5538 122.99 40.5538ZM123.662 32.9938H126.854C127.99 32.9938 128.558 32.4018 128.558 31.2178V28.9378C128.558 27.7538 127.99 27.1618 126.854 27.1618H123.662C123.486 27.1618 123.398 27.2418 123.398 27.4018V32.7538C123.398 32.9138 123.486 32.9938 123.662 32.9938Z" fill="#64E6F4"/>
</g>
<defs>
<filter id="filter0_f_61_221" x="53.0217" y="24.1218" width="78.8883" height="17.432" filterUnits="userSpaceOnUse" color-interpolation-filters="sRGB">
<feFlood flood-opacity="0" result="BackgroundImageFix"/>
<feBlend mode="normal" in="SourceGraphic" in2="BackgroundImageFix" result="shape"/>
<feGaussianBlur stdDeviation="0.5" result="effect1_foregroundBlur_61_221"/>
</filter>
</defs>
</svg>
