<svg width="3" height="99" viewBox="0 0 3 99" fill="none" xmlns="http://www.w3.org/2000/svg">
<path opacity="0.5" d="M3 98.396L3 98.672C3 98.7227 2.97467 98.7347 2.924 98.708L0.788 97.852L0.788 98.86C0.788 98.9053 0.764 98.928 0.716 98.928L0.496 98.928C0.450667 98.928 0.428 98.9053 0.428 98.86L0.428 97.504C0.428 97.456 0.450667 97.432 0.496 97.432L0.744 97.432C0.786666 97.432 0.842666 97.4467 0.912 97.476L2.936 98.284C2.97867 98.3 3 98.3373 3 98.396ZM2.66 96.4436L2.66 96.1276C2.66 96.0289 2.63733 95.9569 2.592 95.9116C2.54667 95.8636 2.47467 95.8396 2.376 95.8396L2.16 95.8396C1.96 95.8396 1.86 95.9356 1.86 96.1276L1.86 96.4436C1.86 96.6356 1.96 96.7316 2.16 96.7316L2.376 96.7316C2.47467 96.7316 2.54667 96.7089 2.592 96.6636C2.63733 96.6156 2.66 96.5422 2.66 96.4436ZM1.548 96.4436L1.548 96.1276C1.548 95.9356 1.448 95.8396 1.248 95.8396L1.052 95.8396C0.953333 95.8396 0.881333 95.8636 0.836 95.9116C0.790666 95.9569 0.768 96.0289 0.768 96.1276L0.768 96.4436C0.768 96.5422 0.790666 96.6156 0.836 96.6636C0.881333 96.7089 0.953333 96.7316 1.052 96.7316L1.248 96.7316C1.448 96.7316 1.548 96.6356 1.548 96.4436ZM3 96.0716L3 96.4956C3 96.6929 2.94933 96.8462 2.848 96.9556C2.74667 97.0649 2.59867 97.1196 2.404 97.1196L2.188 97.1196C1.94267 97.1196 1.78267 97.0276 1.708 96.8436C1.63333 97.0276 1.472 97.1196 1.224 97.1196L1.02 97.1196C0.828 97.1196 0.681333 97.0649 0.58 96.9556C0.478667 96.8462 0.428 96.6929 0.428 96.4956L0.428 96.0716C0.428 95.8742 0.478666 95.7222 0.58 95.6156C0.681333 95.5062 0.828 95.4516 1.02 95.4516L1.224 95.4516C1.34667 95.4516 1.45067 95.4769 1.536 95.5276C1.62133 95.5756 1.67867 95.6409 1.708 95.7236C1.78 95.5422 1.94133 95.4516 2.192 95.4516L2.404 95.4516C2.59867 95.4516 2.74667 95.5062 2.848 95.6156C2.94933 95.7222 3 95.8742 3 96.0716ZM1.696 94.3427L1.696 93.7827L1.064 93.7827C0.866666 93.7827 0.768 93.8801 0.768 94.0747L0.768 94.3427C0.768 94.5347 0.866666 94.6307 1.064 94.6307L1.404 94.6307C1.59867 94.6307 1.696 94.5347 1.696 94.3427ZM3 94.0187L3 94.8307C3 94.8814 2.97733 94.9067 2.932 94.9067L2.724 94.9067C2.68133 94.9067 2.66 94.8814 2.66 94.8307L2.66 94.0747C2.66 93.8827 2.56133 93.7867 2.364 93.7867L2.04 93.7867L2.04 94.4027C2.04 94.6001 1.98667 94.7534 1.88 94.8627C1.77067 94.9721 1.61867 95.0267 1.424 95.0267L1.048 95.0267C0.850666 95.0267 0.698666 94.9721 0.592 94.8627C0.482666 94.7534 0.428 94.6001 0.428 94.4027L0.428 94.0187C0.428 93.8214 0.482666 93.6681 0.592 93.5587C0.698666 93.4494 0.850666 93.3947 1.048 93.3947L2.38 93.3947C2.57467 93.3947 2.72667 93.4494 2.836 93.5587C2.94533 93.6681 3 93.8214 3 94.0187ZM2.932 92.9522L2.564 92.9522C2.39867 92.9522 2.26 92.8815 2.148 92.7402L1.532 91.9842C1.43067 91.8562 1.31333 91.7922 1.18 91.7922L1.048 91.7922C0.856 91.7922 0.76 91.8922 0.76 92.0922L0.76 92.2882C0.76 92.3895 0.782666 92.4628 0.828 92.5082C0.873333 92.5535 0.946666 92.5762 1.048 92.5762L1.196 92.5762C1.244 92.5762 1.268 92.5988 1.268 92.6442L1.268 92.9002C1.268 92.9455 1.244 92.9682 1.196 92.9682L1.04 92.9682C0.845333 92.9682 0.694666 92.9135 0.588 92.8042C0.481333 92.6948 0.428 92.5415 0.428 92.3442L0.428 92.0322C0.428 91.8375 0.481333 91.6855 0.587999 91.5762C0.694666 91.4668 0.845333 91.4122 1.04 91.4122L1.204 91.4122C1.412 91.4122 1.58267 91.4935 1.716 91.6562L2.344 92.4242C2.39467 92.4855 2.45467 92.5162 2.524 92.5162L2.652 92.5162L2.652 91.4762C2.652 91.4282 2.67467 91.4042 2.72 91.4042L2.932 91.4042C2.97733 91.4042 3 91.4282 3 91.4762L3 92.8802C3 92.9282 2.97733 92.9522 2.932 92.9522ZM1.548 90.3269L1.548 90.1069C1.548 89.9096 1.45067 89.8109 1.256 89.8109L1.048 89.8109C0.856 89.8109 0.76 89.9096 0.76 90.1069L0.76 90.3429C0.76 90.4416 0.782666 90.5149 0.827999 90.5629C0.873333 90.6083 0.946666 90.6309 1.048 90.6309L1.164 90.6309C1.20933 90.6309 1.232 90.6536 1.232 90.6989L1.232 90.9549C1.232 91.0003 1.20933 91.0229 1.164 91.0229L1.04 91.0229C0.845333 91.0229 0.694666 90.9683 0.587999 90.8589C0.481333 90.7496 0.428 90.5963 0.428 90.3989L0.428 90.0509C0.428 89.8536 0.481333 89.7003 0.587999 89.5909C0.694666 89.4816 0.845333 89.4269 1.04 89.4269L1.26 89.4269C1.49467 89.4269 1.644 89.5336 1.708 89.7469C1.75867 89.5336 1.908 89.4269 2.156 89.4269L2.388 89.4269C2.58267 89.4269 2.73333 89.4816 2.84 89.5909C2.94667 89.7003 3 89.8536 3 90.0509L3 90.3989C3 90.5963 2.94667 90.7496 2.84 90.8589C2.73333 90.9683 2.58267 91.0229 2.388 91.0229L2.248 91.0229C2.2 91.0229 2.176 91.0003 2.176 90.9549L2.176 90.6989C2.176 90.6536 2.2 90.6309 2.248 90.6309L2.38 90.6309C2.47867 90.6309 2.552 90.6083 2.6 90.5629C2.64533 90.5149 2.668 90.4416 2.668 90.3429L2.668 90.1069C2.668 89.9096 2.572 89.8109 2.38 89.8109L2.16 89.8109C1.96533 89.8109 1.868 89.9096 1.868 90.1069L1.868 90.3269C1.868 90.3723 1.84533 90.3949 1.8 90.3949L1.62 90.3949C1.572 90.3949 1.548 90.3723 1.548 90.3269ZM2.932 88.0342L2.564 88.0342C2.39867 88.0342 2.26 87.9635 2.148 87.8222L1.532 87.0662C1.43067 86.9382 1.31333 86.8742 1.18 86.8742L1.048 86.8742C0.855999 86.8742 0.759999 86.9742 0.759999 87.1742L0.759999 87.3702C0.759999 87.4715 0.782666 87.5449 0.827999 87.5902C0.873333 87.6355 0.946666 87.6582 1.048 87.6582L1.196 87.6582C1.244 87.6582 1.268 87.6809 1.268 87.7262L1.268 87.9822C1.268 88.0275 1.244 88.0502 1.196 88.0502L1.04 88.0502C0.845333 88.0502 0.694666 87.9955 0.587999 87.8862C0.481333 87.7769 0.427999 87.6235 0.427999 87.4262L0.427999 87.1142C0.427999 86.9195 0.481333 86.7675 0.587999 86.6582C0.694666 86.5489 0.845333 86.4942 1.04 86.4942L1.204 86.4942C1.412 86.4942 1.58267 86.5755 1.716 86.7382L2.344 87.5062C2.39467 87.5675 2.45467 87.5982 2.524 87.5982L2.652 87.5982L2.652 86.5582C2.652 86.5102 2.67467 86.4862 2.72 86.4862L2.932 86.4862C2.97733 86.4862 3 86.5102 3 86.5582L3 87.9622C3 88.0102 2.97733 88.0342 2.932 88.0342ZM1.548 85.409L1.548 85.189C1.548 84.9916 1.45067 84.893 1.256 84.893L1.048 84.893C0.855999 84.893 0.759999 84.9916 0.759999 85.189L0.759999 85.425C0.759999 85.5236 0.782666 85.597 0.827999 85.645C0.873333 85.6903 0.946666 85.713 1.048 85.713L1.164 85.713C1.20933 85.713 1.232 85.7356 1.232 85.781L1.232 86.037C1.232 86.0823 1.20933 86.105 1.164 86.105L1.04 86.105C0.845333 86.105 0.694666 86.0503 0.587999 85.941C0.481333 85.8316 0.427999 85.6783 0.427999 85.481L0.427999 85.133C0.427999 84.9356 0.481333 84.7823 0.587999 84.673C0.694666 84.5636 0.845333 84.509 1.04 84.509L1.26 84.509C1.49467 84.509 1.644 84.6156 1.708 84.829C1.75867 84.6156 1.908 84.509 2.156 84.509L2.388 84.509C2.58267 84.509 2.73333 84.5636 2.84 84.673C2.94667 84.7823 3 84.9356 3 85.133L3 85.481C3 85.6783 2.94667 85.8316 2.84 85.941C2.73333 86.0503 2.58267 86.105 2.388 86.105L2.248 86.105C2.2 86.105 2.176 86.0823 2.176 86.037L2.176 85.781C2.176 85.7356 2.2 85.713 2.248 85.713L2.38 85.713C2.47867 85.713 2.552 85.6903 2.6 85.645C2.64533 85.597 2.668 85.5236 2.668 85.425L2.668 85.189C2.668 84.9916 2.572 84.893 2.38 84.893L2.16 84.893C1.96533 84.893 1.868 84.9916 1.868 85.189L1.868 85.409C1.868 85.4543 1.84533 85.477 1.8 85.477L1.62 85.477C1.572 85.477 1.548 85.4543 1.548 85.409ZM2.66 83.3693L2.66 83.0533C2.66 82.9547 2.63733 82.8827 2.592 82.8373C2.54667 82.7893 2.47467 82.7653 2.376 82.7653L2.16 82.7653C1.96 82.7653 1.86 82.8613 1.86 83.0533L1.86 83.3693C1.86 83.5613 1.96 83.6573 2.16 83.6573L2.376 83.6573C2.47467 83.6573 2.54667 83.6347 2.592 83.5893C2.63733 83.5413 2.66 83.468 2.66 83.3693ZM1.548 83.3693L1.548 83.0533C1.548 82.8613 1.448 82.7653 1.248 82.7653L1.052 82.7653C0.953332 82.7653 0.881332 82.7893 0.835999 82.8373C0.790666 82.8827 0.767999 82.9547 0.767999 83.0533L0.767999 83.3693C0.767999 83.468 0.790666 83.5413 0.835999 83.5893C0.881333 83.6347 0.953333 83.6573 1.052 83.6573L1.248 83.6573C1.448 83.6573 1.548 83.5613 1.548 83.3693ZM3 82.9973L3 83.4213C3 83.6187 2.94933 83.772 2.848 83.8813C2.74667 83.9907 2.59867 84.0453 2.404 84.0453L2.188 84.0453C1.94267 84.0453 1.78267 83.9533 1.708 83.7693C1.63333 83.9533 1.472 84.0453 1.224 84.0453L1.02 84.0453C0.827999 84.0453 0.681333 83.9907 0.579999 83.8813C0.478666 83.772 0.427999 83.6187 0.427999 83.4213L0.427999 82.9973C0.427999 82.8 0.478666 82.648 0.579999 82.5413C0.681332 82.432 0.827999 82.3773 1.02 82.3773L1.224 82.3773C1.34667 82.3773 1.45067 82.4027 1.536 82.4533C1.62133 82.5013 1.67867 82.5667 1.708 82.6493C1.78 82.468 1.94133 82.3773 2.192 82.3773L2.404 82.3773C2.59867 82.3773 2.74667 82.432 2.848 82.5413C2.94933 82.648 3 82.8 3 82.9973ZM1.696 81.2685L1.696 80.7085L1.064 80.7085C0.866666 80.7085 0.767999 80.8059 0.767999 81.0005L0.767999 81.2685C0.767999 81.4605 0.866666 81.5565 1.064 81.5565L1.404 81.5565C1.59867 81.5565 1.696 81.4605 1.696 81.2685ZM3 80.9445L3 81.7565C3 81.8072 2.97733 81.8325 2.932 81.8325L2.724 81.8325C2.68133 81.8325 2.66 81.8072 2.66 81.7565L2.66 81.0005C2.66 80.8085 2.56133 80.7125 2.364 80.7125L2.04 80.7125L2.04 81.3285C2.04 81.5259 1.98667 81.6792 1.88 81.7885C1.77067 81.8979 1.61867 81.9525 1.424 81.9525L1.048 81.9525C0.850666 81.9525 0.698666 81.8979 0.591999 81.7885C0.482666 81.6792 0.427999 81.5259 0.427999 81.3285L0.427999 80.9445C0.427999 80.7472 0.482666 80.5939 0.591999 80.4845C0.698666 80.3752 0.850666 80.3205 1.048 80.3205L2.38 80.3205C2.57467 80.3205 2.72667 80.3752 2.836 80.4845C2.94533 80.5939 3 80.7472 3 80.9445ZM1.696 79.2099L1.696 78.6499L1.064 78.6499C0.866666 78.6499 0.767999 78.7473 0.767999 78.9419L0.767999 79.2099C0.767999 79.4019 0.866666 79.4979 1.064 79.4979L1.404 79.4979C1.59867 79.4979 1.696 79.4019 1.696 79.2099ZM3 78.8859L3 79.6979C3 79.7486 2.97733 79.7739 2.932 79.7739L2.724 79.7739C2.68133 79.7739 2.66 79.7486 2.66 79.6979L2.66 78.9419C2.66 78.7499 2.56133 78.6539 2.364 78.6539L2.04 78.6539L2.04 79.2699C2.04 79.4673 1.98667 79.6206 1.88 79.7299C1.77067 79.8393 1.61867 79.8939 1.424 79.8939L1.048 79.8939C0.850666 79.8939 0.698666 79.8393 0.591999 79.7299C0.482666 79.6206 0.427999 79.4673 0.427999 79.2699L0.427999 78.8859C0.427999 78.6886 0.482666 78.5353 0.591999 78.4259C0.698666 78.3166 0.850666 78.2619 1.048 78.2619L2.38 78.2619C2.57467 78.2619 2.72667 78.3166 2.836 78.4259C2.94533 78.5353 3 78.6886 3 78.8859ZM2.168 76.7033L0.751999 76.7033L2.168 77.4913L2.168 76.7033ZM3 76.3993L3 76.6353C3 76.6807 2.97733 76.7033 2.932 76.7033L2.512 76.7033L2.512 77.7593C2.512 77.8367 2.47333 77.8753 2.396 77.8753L2.272 77.8753C2.21333 77.8753 2.16133 77.8633 2.116 77.8393L0.527999 76.9473C0.487999 76.926 0.461332 76.906 0.447999 76.8873C0.434666 76.8687 0.427999 76.8407 0.427999 76.8033L0.427999 76.4513C0.427999 76.374 0.466666 76.3353 0.543999 76.3353L2.168 76.3353L2.168 76.0433C2.168 75.998 2.19067 75.9753 2.236 75.9753L2.436 75.9753C2.48667 75.9753 2.512 75.998 2.512 76.0433L2.512 76.3353L2.932 76.3353C2.97733 76.3353 3 76.3567 3 76.3993ZM2.66 74.9785L2.66 74.6945C2.66 74.5025 2.56133 74.4065 2.364 74.4065L1.064 74.4065C0.866665 74.4065 0.767999 74.5025 0.767999 74.6945L0.767999 74.9785C0.767999 75.1705 0.866666 75.2665 1.064 75.2665L2.364 75.2665C2.56133 75.2665 2.66 75.1705 2.66 74.9785ZM3 74.6385L3 75.0385C3 75.2359 2.94533 75.3892 2.836 75.4985C2.72667 75.6079 2.57467 75.6625 2.38 75.6625L1.048 75.6625C0.850666 75.6625 0.698665 75.6079 0.591999 75.4985C0.482666 75.3892 0.427999 75.2359 0.427999 75.0385L0.427999 74.6385C0.427999 74.4439 0.482665 74.2919 0.591999 74.1825C0.698665 74.0732 0.850665 74.0185 1.048 74.0185L2.38 74.0185C2.57467 74.0185 2.72667 74.0732 2.836 74.1825C2.94533 74.2919 3 74.4439 3 74.6385ZM2.932 73.5732L2.564 73.5732C2.39867 73.5732 2.26 73.5026 2.148 73.3612L1.532 72.6052C1.43067 72.4772 1.31333 72.4132 1.18 72.4132L1.048 72.4132C0.855999 72.4132 0.759999 72.5132 0.759999 72.7132L0.759999 72.9092C0.759999 73.0106 0.782665 73.0839 0.827999 73.1292C0.873332 73.1746 0.946665 73.1972 1.048 73.1972L1.196 73.1972C1.244 73.1972 1.268 73.2199 1.268 73.2652L1.268 73.5212C1.268 73.5666 1.244 73.5892 1.196 73.5892L1.04 73.5892C0.845332 73.5892 0.694665 73.5346 0.587999 73.4252C0.481332 73.3159 0.427999 73.1626 0.427999 72.9652L0.427999 72.6532C0.427999 72.4586 0.481332 72.3066 0.587999 72.1972C0.694665 72.0879 0.845332 72.0332 1.04 72.0332L1.204 72.0332C1.412 72.0332 1.58267 72.1146 1.716 72.2772L2.344 73.0452C2.39467 73.1066 2.45467 73.1372 2.524 73.1372L2.652 73.1372L2.652 72.0972C2.652 72.0492 2.67467 72.0252 2.72 72.0252L2.932 72.0252C2.97733 72.0252 3 72.0492 3 72.0972L3 73.5012C3 73.5492 2.97733 73.5732 2.932 73.5732ZM2.932 70.6709L2.564 70.6709C2.39867 70.6709 2.26 70.6002 2.148 70.4589L1.532 69.7029C1.43067 69.5749 1.31333 69.5109 1.18 69.5109L1.048 69.5109C0.855999 69.5109 0.759999 69.6109 0.759999 69.8109L0.759999 70.0069C0.759999 70.1082 0.782665 70.1816 0.827999 70.2269C0.873332 70.2722 0.946665 70.2949 1.048 70.2949L1.196 70.2949C1.244 70.2949 1.268 70.3176 1.268 70.3629L1.268 70.6189C1.268 70.6642 1.244 70.6869 1.196 70.6869L1.04 70.6869C0.845332 70.6869 0.694665 70.6322 0.587999 70.5229C0.481332 70.4136 0.427999 70.2602 0.427999 70.0629L0.427999 69.7509C0.427999 69.5562 0.481332 69.4042 0.587999 69.2949C0.694665 69.1856 0.845332 69.1309 1.04 69.1309L1.204 69.1309C1.412 69.1309 1.58267 69.2122 1.716 69.3749L2.344 70.1429C2.39467 70.2042 2.45467 70.2349 2.524 70.2349L2.652 70.2349L2.652 69.1949C2.652 69.1469 2.67467 69.1229 2.72 69.1229L2.932 69.1229C2.97733 69.1229 3 69.1469 3 69.1949L3 70.5989C3 70.6469 2.97733 70.6709 2.932 70.6709ZM2.66 68.0217L2.66 67.7057C2.66 67.607 2.63733 67.535 2.592 67.4897C2.54667 67.4417 2.47467 67.4177 2.376 67.4177L2.16 67.4177C1.96 67.4177 1.86 67.5137 1.86 67.7057L1.86 68.0217C1.86 68.2137 1.96 68.3097 2.16 68.3097L2.376 68.3097C2.47467 68.3097 2.54667 68.287 2.592 68.2417C2.63733 68.1937 2.66 68.1204 2.66 68.0217ZM1.548 68.0217L1.548 67.7057C1.548 67.5137 1.448 67.4177 1.248 67.4177L1.052 67.4177C0.953332 67.4177 0.881332 67.4417 0.835999 67.4897C0.790665 67.535 0.767999 67.607 0.767999 67.7057L0.767999 68.0217C0.767999 68.1204 0.790665 68.1937 0.835999 68.2417C0.881332 68.287 0.953332 68.3097 1.052 68.3097L1.248 68.3097C1.448 68.3097 1.548 68.2137 1.548 68.0217ZM3 67.6497L3 68.0737C3 68.271 2.94933 68.4244 2.848 68.5337C2.74667 68.643 2.59867 68.6977 2.404 68.6977L2.188 68.6977C1.94267 68.6977 1.78267 68.6057 1.708 68.4217C1.63333 68.6057 1.472 68.6977 1.224 68.6977L1.02 68.6977C0.827999 68.6977 0.681332 68.643 0.579999 68.5337C0.478665 68.4244 0.427999 68.271 0.427999 68.0737L0.427999 67.6497C0.427999 67.4524 0.478665 67.3004 0.579999 67.1937C0.681332 67.0844 0.827998 67.0297 1.02 67.0297L1.224 67.0297C1.34667 67.0297 1.45067 67.055 1.536 67.1057C1.62133 67.1537 1.67867 67.219 1.708 67.3017C1.78 67.1204 1.94133 67.0297 2.192 67.0297L2.404 67.0297C2.59867 67.0297 2.74667 67.0844 2.848 67.1937C2.94933 67.3004 3 67.4524 3 67.6497ZM1.696 65.9209L1.696 65.3609L1.064 65.3609C0.866665 65.3609 0.767998 65.4582 0.767998 65.6529L0.767998 65.9209C0.767998 66.1129 0.866665 66.2089 1.064 66.2089L1.404 66.2089C1.59867 66.2089 1.696 66.1129 1.696 65.9209ZM3 65.5969L3 66.4089C3 66.4595 2.97733 66.4849 2.932 66.4849L2.724 66.4849C2.68133 66.4849 2.66 66.4595 2.66 66.4089L2.66 65.6529C2.66 65.4609 2.56133 65.3649 2.364 65.3649L2.04 65.3649L2.04 65.9809C2.04 66.1782 1.98667 66.3315 1.88 66.4409C1.77067 66.5502 1.61867 66.6049 1.424 66.6049L1.048 66.6049C0.850665 66.6049 0.698665 66.5502 0.591998 66.4409C0.482665 66.3315 0.427999 66.1782 0.427999 65.9809L0.427999 65.5969C0.427999 65.3995 0.482665 65.2462 0.591998 65.1369C0.698665 65.0275 0.850665 64.9729 1.048 64.9729L2.38 64.9729C2.57467 64.9729 2.72667 65.0275 2.836 65.1369C2.94533 65.2462 3 65.3995 3 65.5969ZM0.427998 63.2783L0.427998 63.0263C0.427998 62.9809 0.449332 62.9583 0.491998 62.9583L2.38 62.9583C2.57467 62.9583 2.72667 63.0129 2.836 63.1223C2.94533 63.2316 3 63.3836 3 63.5783L3 63.9783C3 64.1756 2.94533 64.3289 2.836 64.4383C2.72667 64.5476 2.57467 64.6023 2.38 64.6023L2.02 64.6023C1.97467 64.6023 1.952 64.5783 1.952 64.5303L1.952 64.2783C1.952 64.2329 1.97467 64.2103 2.02 64.2103L2.364 64.2103C2.56133 64.2103 2.66 64.1143 2.66 63.9223L2.66 63.6383C2.66 63.4463 2.56133 63.3503 2.364 63.3503L0.495998 63.3503C0.450665 63.3503 0.427998 63.3263 0.427998 63.2783ZM1.696 61.8115L1.696 61.2515L1.064 61.2515C0.866665 61.2515 0.767998 61.3488 0.767998 61.5435L0.767998 61.8115C0.767998 62.0035 0.866665 62.0995 1.064 62.0995L1.404 62.0995C1.59867 62.0995 1.696 62.0035 1.696 61.8115ZM3 61.4875L3 62.2995C3 62.3502 2.97733 62.3755 2.932 62.3755L2.724 62.3755C2.68133 62.3755 2.66 62.3502 2.66 62.2995L2.66 61.5435C2.66 61.3515 2.56133 61.2555 2.364 61.2555L2.04 61.2555L2.04 61.8715C2.04 62.0688 1.98667 62.2222 1.88 62.3315C1.77067 62.4408 1.61867 62.4955 1.424 62.4955L1.048 62.4955C0.850665 62.4955 0.698665 62.4408 0.591998 62.3315C0.482665 62.2222 0.427998 62.0688 0.427998 61.8715L0.427998 61.4875C0.427998 61.2902 0.482665 61.1368 0.591998 61.0275C0.698665 60.9182 0.850665 60.8635 1.048 60.8635L2.38 60.8635C2.57466 60.8635 2.72666 60.9182 2.836 61.0275C2.94533 61.1368 3 61.2902 3 61.4875ZM2.66 59.9049L2.66 59.3409C2.66 59.1489 2.56133 59.0529 2.364 59.0529L1.064 59.0529C0.866665 59.0529 0.767998 59.1489 0.767998 59.3409L0.767998 59.9049C0.767998 59.9342 0.781332 59.9489 0.807998 59.9489L2.616 59.9489C2.64533 59.9489 2.66 59.9342 2.66 59.9049ZM2.932 60.3369L0.495998 60.3369C0.450665 60.3369 0.427998 60.3142 0.427998 60.2689L0.427998 59.2849C0.427998 59.0902 0.482665 58.9382 0.591998 58.8289C0.698665 58.7169 0.850665 58.6609 1.048 58.6609L2.38 58.6609C2.57466 58.6609 2.72666 58.7169 2.836 58.8289C2.94533 58.9382 3 59.0902 3 59.2849L3 60.2689C3 60.3142 2.97733 60.3369 2.932 60.3369ZM0.427998 56.9502L0.427998 56.6982C0.427998 56.6528 0.449331 56.6302 0.491998 56.6302L2.38 56.6302C2.57466 56.6302 2.72666 56.6848 2.836 56.7942C2.94533 56.9035 3 57.0555 3 57.2502L3 57.6502C3 57.8475 2.94533 58.0008 2.836 58.1102C2.72666 58.2195 2.57466 58.2742 2.38 58.2742L2.02 58.2742C1.97466 58.2742 1.952 58.2502 1.952 58.2022L1.952 57.9502C1.952 57.9048 1.97466 57.8822 2.02 57.8822L2.364 57.8822C2.56133 57.8822 2.66 57.7862 2.66 57.5942L2.66 57.3102C2.66 57.1182 2.56133 57.0222 2.364 57.0222L0.495998 57.0222C0.450665 57.0222 0.427998 56.9982 0.427998 56.9502ZM2.932 56.1514L2.564 56.1514C2.39866 56.1514 2.26 56.0807 2.148 55.9394L1.532 55.1834C1.43066 55.0554 1.31333 54.9914 1.18 54.9914L1.048 54.9914C0.855998 54.9914 0.759998 55.0914 0.759998 55.2914L0.759998 55.4874C0.759998 55.5887 0.782665 55.662 0.827998 55.7074C0.873331 55.7527 0.946665 55.7754 1.048 55.7754L1.196 55.7754C1.244 55.7754 1.268 55.798 1.268 55.8434L1.268 56.0994C1.268 56.1447 1.244 56.1674 1.196 56.1674L1.04 56.1674C0.845331 56.1674 0.694665 56.1127 0.587998 56.0034C0.481331 55.894 0.427998 55.7407 0.427998 55.5434L0.427998 55.2314C0.427998 55.0367 0.481331 54.8847 0.587998 54.7754C0.694665 54.666 0.845331 54.6114 1.04 54.6114L1.204 54.6114C1.412 54.6114 1.58266 54.6927 1.716 54.8554L2.344 55.6234C2.39466 55.6847 2.45466 55.7154 2.524 55.7154L2.652 55.7154L2.652 54.6754C2.652 54.6274 2.67466 54.6034 2.72 54.6034L2.932 54.6034C2.97733 54.6034 3 54.6274 3 54.6754L3 56.0794C3 56.1274 2.97733 56.1514 2.932 56.1514ZM1.548 53.5262L1.548 53.3062C1.548 53.1088 1.45066 53.0102 1.256 53.0102L1.048 53.0102C0.855998 53.0102 0.759998 53.1088 0.759998 53.3062L0.759998 53.5422C0.759998 53.6408 0.782665 53.7142 0.827998 53.7622C0.873331 53.8075 0.946665 53.8302 1.048 53.8302L1.164 53.8302C1.20933 53.8302 1.232 53.8528 1.232 53.8982L1.232 54.1542C1.232 54.1995 1.20933 54.2222 1.164 54.2222L1.04 54.2222C0.845331 54.2222 0.694665 54.1675 0.587998 54.0582C0.481331 53.9488 0.427998 53.7955 0.427998 53.5982L0.427998 53.2502C0.427998 53.0528 0.481331 52.8995 0.587998 52.7902C0.694665 52.6808 0.845331 52.6262 1.04 52.6262L1.26 52.6262C1.49466 52.6262 1.644 52.7328 1.708 52.9462C1.75866 52.7328 1.908 52.6262 2.156 52.6262L2.388 52.6262C2.58266 52.6262 2.73333 52.6808 2.84 52.7902C2.94666 52.8995 3 53.0528 3 53.2502L3 53.5982C3 53.7955 2.94666 53.9488 2.84 54.0582C2.73333 54.1675 2.58266 54.2222 2.388 54.2222L2.248 54.2222C2.2 54.2222 2.176 54.1995 2.176 54.1542L2.176 53.8982C2.176 53.8528 2.2 53.8302 2.248 53.8302L2.38 53.8302C2.47866 53.8302 2.552 53.8075 2.6 53.7622C2.64533 53.7142 2.668 53.6408 2.668 53.5422L2.668 53.3062C2.668 53.1088 2.572 53.0102 2.38 53.0102L2.16 53.0102C1.96533 53.0102 1.868 53.1088 1.868 53.3062L1.868 53.5262C1.868 53.5715 1.84533 53.5942 1.8 53.5942L1.62 53.5942C1.572 53.5942 1.548 53.5715 1.548 53.5262ZM1.696 51.5185L1.696 50.9585L1.064 50.9585C0.866664 50.9585 0.767998 51.0559 0.767998 51.2505L0.767998 51.5185C0.767998 51.7105 0.866664 51.8065 1.064 51.8065L1.404 51.8065C1.59866 51.8065 1.696 51.7105 1.696 51.5185ZM3 51.1945L3 52.0065C3 52.0572 2.97733 52.0825 2.932 52.0825L2.724 52.0825C2.68133 52.0825 2.66 52.0572 2.66 52.0065L2.66 51.2505C2.66 51.0585 2.56133 50.9625 2.364 50.9625L2.04 50.9625L2.04 51.5785C2.04 51.7759 1.98666 51.9292 1.88 52.0385C1.77066 52.1479 1.61866 52.2025 1.424 52.2025L1.048 52.2025C0.850664 52.2025 0.698664 52.1479 0.591998 52.0385C0.482665 51.9292 0.427998 51.7759 0.427998 51.5785L0.427998 51.1945C0.427998 50.9972 0.482664 50.8439 0.591998 50.7345C0.698664 50.6252 0.850664 50.5705 1.048 50.5705L2.38 50.5705C2.57466 50.5705 2.72666 50.6252 2.836 50.7345C2.94533 50.8439 3 50.9972 3 51.1945ZM2.66 49.4199L2.66 49.1359C2.66 48.9439 2.56133 48.8479 2.364 48.8479L1.064 48.8479C0.866664 48.8479 0.767998 48.9439 0.767998 49.1359L0.767998 49.4199C0.767998 49.6119 0.866664 49.7079 1.064 49.7079L2.364 49.7079C2.56133 49.7079 2.66 49.6119 2.66 49.4199ZM3 49.0799L3 49.4799C3 49.6773 2.94533 49.8306 2.836 49.9399C2.72666 50.0493 2.57466 50.1039 2.38 50.1039L1.048 50.1039C0.850664 50.1039 0.698664 50.0493 0.591998 49.9399C0.482664 49.8306 0.427998 49.6773 0.427998 49.4799L0.427998 49.0799C0.427998 48.8853 0.482664 48.7333 0.591998 48.6239C0.698664 48.5146 0.850664 48.4599 1.048 48.4599L2.38 48.4599C2.57466 48.4599 2.72666 48.5146 2.836 48.6239C2.94533 48.7333 3 48.8853 3 49.0799ZM1.548 47.3387L1.548 47.1187C1.548 46.9213 1.45066 46.8227 1.256 46.8227L1.048 46.8227C0.855998 46.8227 0.759998 46.9213 0.759998 47.1187L0.759998 47.3547C0.759998 47.4533 0.782664 47.5267 0.827998 47.5747C0.873331 47.62 0.946664 47.6427 1.048 47.6427L1.164 47.6427C1.20933 47.6427 1.232 47.6653 1.232 47.7107L1.232 47.9667C1.232 48.012 1.20933 48.0347 1.164 48.0347L1.04 48.0347C0.845331 48.0347 0.694664 47.98 0.587998 47.8707C0.481331 47.7613 0.427998 47.608 0.427998 47.4107L0.427998 47.0627C0.427998 46.8653 0.481331 46.712 0.587998 46.6027C0.694664 46.4933 0.845331 46.4387 1.04 46.4387L1.26 46.4387C1.49466 46.4387 1.644 46.5453 1.708 46.7587C1.75866 46.5453 1.908 46.4387 2.156 46.4387L2.388 46.4387C2.58266 46.4387 2.73333 46.4933 2.84 46.6027C2.94666 46.712 3 46.8653 3 47.0627L3 47.4107C3 47.608 2.94666 47.7613 2.84 47.8707C2.73333 47.98 2.58266 48.0347 2.388 48.0347L2.248 48.0347C2.2 48.0347 2.176 48.012 2.176 47.9667L2.176 47.7107C2.176 47.6653 2.2 47.6427 2.248 47.6427L2.38 47.6427C2.47866 47.6427 2.552 47.62 2.6 47.5747C2.64533 47.5267 2.668 47.4533 2.668 47.3547L2.668 47.1187C2.668 46.9213 2.572 46.8227 2.38 46.8227L2.16 46.8227C1.96533 46.8227 1.868 46.9213 1.868 47.1187L1.868 47.3387C1.868 47.384 1.84533 47.4067 1.8 47.4067L1.62 47.4067C1.572 47.4067 1.548 47.384 1.548 47.3387ZM2.932 45.999L2.564 45.999C2.39866 45.999 2.26 45.9284 2.148 45.787L1.532 45.031C1.43066 44.903 1.31333 44.839 1.18 44.839L1.048 44.839C0.855998 44.839 0.759998 44.939 0.759998 45.139L0.759998 45.335C0.759998 45.4364 0.782664 45.5097 0.827997 45.555C0.873331 45.6004 0.946664 45.623 1.048 45.623L1.196 45.623C1.244 45.623 1.268 45.6457 1.268 45.691L1.268 45.947C1.268 45.9924 1.244 46.015 1.196 46.015L1.04 46.015C0.845331 46.015 0.694664 45.9604 0.587997 45.851C0.481331 45.7417 0.427998 45.5884 0.427998 45.391L0.427998 45.079C0.427998 44.8844 0.481331 44.7324 0.587997 44.623C0.694664 44.5137 0.845331 44.459 1.04 44.459L1.204 44.459C1.412 44.459 1.58266 44.5404 1.716 44.703L2.344 45.471C2.39466 45.5324 2.45466 45.563 2.524 45.563L2.652 45.563L2.652 44.523C2.652 44.475 2.67466 44.451 2.72 44.451L2.932 44.451C2.97733 44.451 3 44.475 3 44.523L3 45.927C3 45.975 2.97733 45.999 2.932 45.999ZM2.66 43.5338L2.66 42.9698C2.66 42.7778 2.56133 42.6818 2.364 42.6818L1.064 42.6818C0.866664 42.6818 0.767997 42.7778 0.767997 42.9698L0.767997 43.5338C0.767997 43.5631 0.781331 43.5778 0.807997 43.5778L2.616 43.5778C2.64533 43.5778 2.66 43.5631 2.66 43.5338ZM2.932 43.9658L0.495997 43.9658C0.450664 43.9658 0.427998 43.9431 0.427998 43.8978L0.427998 42.9138C0.427998 42.7191 0.482664 42.5671 0.591997 42.4578C0.698664 42.3458 0.850664 42.2898 1.048 42.2898L2.38 42.2898C2.57466 42.2898 2.72666 42.3458 2.836 42.4578C2.94533 42.5671 3 42.7191 3 42.9138L3 43.8978C3 43.9431 2.97733 43.9658 2.932 43.9658ZM3 40.6299L3 40.9259C3 40.9473 2.99333 40.9633 2.98 40.9739C2.96666 40.9819 2.94933 40.9806 2.928 40.9699L1.668 40.3099L0.499997 40.9419C0.481331 40.9526 0.465331 40.9539 0.451997 40.9459C0.435997 40.9353 0.427997 40.9193 0.427997 40.8979L0.427997 40.6139C0.427997 40.5606 0.450664 40.5233 0.495997 40.5019L1.424 40.0419L1.424 40.0259L0.495997 39.5659C0.450664 39.5419 0.427997 39.5073 0.427997 39.4619L0.427997 39.1659C0.427997 39.1446 0.435997 39.1299 0.451997 39.1219C0.467997 39.1113 0.485331 39.1099 0.503997 39.1179L1.668 39.7579L2.924 39.0979C2.94533 39.0873 2.964 39.0859 2.98 39.0939C2.99333 39.1019 3 39.1179 3 39.1419L3 39.4419C3 39.4846 2.97866 39.5153 2.936 39.5339L1.96 40.0259L1.96 40.0419L2.936 40.5339C2.97866 40.5526 3 40.5846 3 40.6299ZM3 38.5245L3 38.8205C3 38.8418 2.99333 38.8578 2.98 38.8685C2.96666 38.8765 2.94933 38.8751 2.928 38.8645L1.668 38.2045L0.499997 38.8365C0.481331 38.8471 0.465331 38.8485 0.451997 38.8405C0.435997 38.8298 0.427997 38.8138 0.427997 38.7925L0.427997 38.5085C0.427997 38.4551 0.450664 38.4178 0.495997 38.3965L1.424 37.9365L1.424 37.9205L0.495997 37.4605C0.450664 37.4365 0.427997 37.4018 0.427997 37.3565L0.427997 37.0605C0.427997 37.0391 0.435997 37.0245 0.451997 37.0165C0.467997 37.0058 0.48533 37.0045 0.503997 37.0125L1.668 37.6525L2.924 36.9925C2.94533 36.9818 2.964 36.9805 2.98 36.9885C2.99333 36.9965 3 37.0125 3 37.0365L3 37.3365C3 37.3791 2.97866 37.4098 2.936 37.4285L1.96 37.9205L1.96 37.9365L2.936 38.4285C2.97866 38.4471 3 38.4791 3 38.5245ZM2.66 35.967L2.66 35.651C2.66 35.5523 2.63733 35.4803 2.592 35.435C2.54666 35.387 2.47466 35.363 2.376 35.363L2.16 35.363C1.96 35.363 1.86 35.459 1.86 35.651L1.86 35.967C1.86 36.159 1.96 36.255 2.16 36.255L2.376 36.255C2.47466 36.255 2.54666 36.2323 2.592 36.187C2.63733 36.139 2.66 36.0657 2.66 35.967ZM1.548 35.967L1.548 35.651C1.548 35.459 1.448 35.363 1.248 35.363L1.052 35.363C0.95333 35.363 0.88133 35.387 0.835997 35.435C0.790664 35.4803 0.767997 35.5523 0.767997 35.651L0.767997 35.967C0.767997 36.0657 0.790664 36.139 0.835997 36.187C0.88133 36.2323 0.95333 36.255 1.052 36.255L1.248 36.255C1.448 36.255 1.548 36.159 1.548 35.967ZM3 35.595L3 36.019C3 36.2163 2.94933 36.3697 2.848 36.479C2.74666 36.5883 2.59866 36.643 2.404 36.643L2.188 36.643C1.94266 36.643 1.78266 36.551 1.708 36.367C1.63333 36.551 1.472 36.643 1.224 36.643L1.02 36.643C0.827997 36.643 0.68133 36.5883 0.579997 36.479C0.478664 36.3697 0.427997 36.2163 0.427997 36.019L0.427997 35.595C0.427997 35.3977 0.478664 35.2457 0.579997 35.139C0.68133 35.0297 0.827997 34.975 1.02 34.975L1.224 34.975C1.34666 34.975 1.45066 35.0003 1.536 35.051C1.62133 35.099 1.67866 35.1643 1.708 35.247C1.78 35.0657 1.94133 34.975 2.192 34.975L2.404 34.975C2.59866 34.975 2.74666 35.0297 2.848 35.139C2.94933 35.2457 3 35.3977 3 35.595ZM1.696 33.8662L1.696 33.3062L1.064 33.3062C0.866664 33.3062 0.767997 33.4035 0.767997 33.5982L0.767997 33.8662C0.767997 34.0582 0.866664 34.1542 1.064 34.1542L1.404 34.1542C1.59866 34.1542 1.696 34.0582 1.696 33.8662ZM3 33.5422L3 34.3542C3 34.4049 2.97733 34.4302 2.932 34.4302L2.724 34.4302C2.68133 34.4302 2.66 34.4049 2.66 34.3542L2.66 33.5982C2.66 33.4062 2.56133 33.3102 2.364 33.3102L2.04 33.3102L2.04 33.9262C2.04 34.1235 1.98666 34.2769 1.88 34.3862C1.77066 34.4955 1.61866 34.5502 1.424 34.5502L1.048 34.5502C0.850664 34.5502 0.698664 34.4955 0.591997 34.3862C0.482664 34.2769 0.427997 34.1235 0.427997 33.9262L0.427997 33.5422C0.427997 33.3449 0.482664 33.1915 0.591997 33.0822C0.698664 32.9729 0.850664 32.9182 1.048 32.9182L2.38 32.9182C2.57466 32.9182 2.72666 32.9729 2.836 33.0822C2.94533 33.1915 3 33.3449 3 33.5422ZM2.932 32.4756L2.564 32.4756C2.39866 32.4756 2.26 32.4049 2.148 32.2636L1.532 31.5076C1.43066 31.3796 1.31333 31.3156 1.18 31.3156L1.048 31.3156C0.855997 31.3156 0.759997 31.4156 0.759997 31.6156L0.759997 31.8116C0.759997 31.9129 0.782664 31.9863 0.827997 32.0316C0.87333 32.0769 0.946664 32.0996 1.048 32.0996L1.196 32.0996C1.244 32.0996 1.268 32.1223 1.268 32.1676L1.268 32.4236C1.268 32.4689 1.244 32.4916 1.196 32.4916L1.04 32.4916C0.84533 32.4916 0.694664 32.4369 0.587997 32.3276C0.48133 32.2183 0.427997 32.0649 0.427997 31.8676L0.427997 31.5556C0.427997 31.3609 0.48133 31.2089 0.587997 31.0996C0.694664 30.9903 0.84533 30.9356 1.04 30.9356L1.204 30.9356C1.412 30.9356 1.58266 31.0169 1.716 31.1796L2.344 31.9476C2.39466 32.0089 2.45466 32.0396 2.524 32.0396L2.652 32.0396L2.652 30.9996C2.652 30.9516 2.67466 30.9276 2.72 30.9276L2.932 30.9276C2.97733 30.9276 3 30.9516 3 30.9996L3 32.4036C3 32.4516 2.97733 32.4756 2.932 32.4756ZM1.548 29.8504L1.548 29.6304C1.548 29.433 1.45066 29.3344 1.256 29.3344L1.048 29.3344C0.855997 29.3344 0.759997 29.433 0.759997 29.6304L0.759997 29.8664C0.759997 29.965 0.782664 30.0384 0.827997 30.0864C0.87333 30.1317 0.946664 30.1544 1.048 30.1544L1.164 30.1544C1.20933 30.1544 1.232 30.177 1.232 30.2224L1.232 30.4784C1.232 30.5237 1.20933 30.5464 1.164 30.5464L1.04 30.5464C0.84533 30.5464 0.694664 30.4917 0.587997 30.3824C0.48133 30.273 0.427997 30.1197 0.427997 29.9224L0.427997 29.5744C0.427997 29.377 0.48133 29.2237 0.587997 29.1144C0.694663 29.005 0.84533 28.9504 1.04 28.9504L1.26 28.9504C1.49466 28.9504 1.644 29.057 1.708 29.2704C1.75866 29.057 1.908 28.9504 2.156 28.9504L2.388 28.9504C2.58266 28.9504 2.73333 29.005 2.84 29.1144C2.94666 29.2237 3 29.377 3 29.5744L3 29.9224C3 30.1197 2.94666 30.273 2.84 30.3824C2.73333 30.4917 2.58266 30.5464 2.388 30.5464L2.248 30.5464C2.2 30.5464 2.176 30.5237 2.176 30.4784L2.176 30.2224C2.176 30.177 2.2 30.1544 2.248 30.1544L2.38 30.1544C2.47866 30.1544 2.552 30.1317 2.6 30.0864C2.64533 30.0384 2.668 29.965 2.668 29.8664L2.668 29.6304C2.668 29.433 2.572 29.3344 2.38 29.3344L2.16 29.3344C1.96533 29.3344 1.868 29.433 1.868 29.6304L1.868 29.8504C1.868 29.8957 1.84533 29.9184 1.8 29.9184L1.62 29.9184C1.572 29.9184 1.548 29.8957 1.548 29.8504ZM2.66 27.8107L2.66 27.4947C2.66 27.3961 2.63733 27.3241 2.592 27.2787C2.54666 27.2307 2.47466 27.2067 2.376 27.2067L2.16 27.2067C1.96 27.2067 1.86 27.3027 1.86 27.4947L1.86 27.8107C1.86 28.0027 1.96 28.0987 2.16 28.0987L2.376 28.0987C2.47466 28.0987 2.54666 28.0761 2.592 28.0307C2.63733 27.9827 2.66 27.9094 2.66 27.8107ZM1.548 27.8107L1.548 27.4947C1.548 27.3027 1.448 27.2067 1.248 27.2067L1.052 27.2067C0.95333 27.2067 0.88133 27.2307 0.835997 27.2787C0.790663 27.3241 0.767997 27.3961 0.767997 27.4947L0.767997 27.8107C0.767997 27.9094 0.790663 27.9827 0.835997 28.0307C0.88133 28.0761 0.95333 28.0987 1.052 28.0987L1.248 28.0987C1.448 28.0987 1.548 28.0027 1.548 27.8107ZM3 27.4387L3 27.8627C3 28.0601 2.94933 28.2134 2.848 28.3227C2.74666 28.4321 2.59866 28.4867 2.404 28.4867L2.188 28.4867C1.94266 28.4867 1.78266 28.3947 1.708 28.2107C1.63333 28.3947 1.472 28.4867 1.224 28.4867L1.02 28.4867C0.827997 28.4867 0.68133 28.4321 0.579997 28.3227C0.478664 28.2134 0.427997 28.0601 0.427997 27.8627L0.427997 27.4387C0.427997 27.2414 0.478663 27.0894 0.579997 26.9827C0.68133 26.8734 0.827997 26.8187 1.02 26.8187L1.224 26.8187C1.34666 26.8187 1.45066 26.8441 1.536 26.8947C1.62133 26.9427 1.67866 27.0081 1.708 27.0907C1.78 26.9094 1.94133 26.8187 2.192 26.8187L2.404 26.8187C2.59866 26.8187 2.74666 26.8734 2.848 26.9827C2.94933 27.0894 3 27.2414 3 27.4387ZM1.696 25.7099L1.696 25.1499L1.064 25.1499C0.866663 25.1499 0.767997 25.2473 0.767997 25.4419L0.767997 25.7099C0.767997 25.9019 0.866663 25.9979 1.064 25.9979L1.404 25.9979C1.59866 25.9979 1.696 25.9019 1.696 25.7099ZM3 25.3859L3 26.1979C3 26.2486 2.97733 26.2739 2.932 26.2739L2.724 26.2739C2.68133 26.2739 2.66 26.2486 2.66 26.1979L2.66 25.4419C2.66 25.2499 2.56133 25.1539 2.364 25.1539L2.04 25.1539L2.04 25.7699C2.04 25.9673 1.98666 26.1206 1.88 26.2299C1.77066 26.3393 1.61866 26.3939 1.424 26.3939L1.048 26.3939C0.850663 26.3939 0.698663 26.3393 0.591997 26.2299C0.482663 26.1206 0.427997 25.9673 0.427997 25.7699L0.427997 25.3859C0.427997 25.1886 0.482663 25.0353 0.591997 24.9259C0.698663 24.8166 0.850663 24.7619 1.048 24.7619L2.38 24.7619C2.57466 24.7619 2.72666 24.8166 2.836 24.9259C2.94533 25.0353 3 25.1886 3 25.3859ZM2.66 23.8033L2.66 23.2393C2.66 23.0473 2.56133 22.9513 2.364 22.9513L1.064 22.9513C0.866663 22.9513 0.767997 23.0473 0.767997 23.2393L0.767997 23.8033C0.767997 23.8327 0.78133 23.8473 0.807997 23.8473L2.616 23.8473C2.64533 23.8473 2.66 23.8327 2.66 23.8033ZM2.932 24.2353L0.495997 24.2353C0.450663 24.2353 0.427997 24.2127 0.427997 24.1673L0.427997 23.1833C0.427997 22.9887 0.482663 22.8367 0.591996 22.7273C0.698663 22.6153 0.850663 22.5593 1.048 22.5593L2.38 22.5593C2.57466 22.5593 2.72666 22.6153 2.836 22.7273C2.94533 22.8367 3 22.9887 3 23.1833L3 24.1673C3 24.2127 2.97733 24.2353 2.932 24.2353ZM1.548 21.4246L1.548 21.2046C1.548 21.0073 1.45066 20.9086 1.256 20.9086L1.048 20.9086C0.855997 20.9086 0.759997 21.0073 0.759997 21.2046L0.759997 21.4406C0.759997 21.5393 0.782663 21.6126 0.827996 21.6606C0.87333 21.7059 0.946663 21.7286 1.048 21.7286L1.164 21.7286C1.20933 21.7286 1.232 21.7513 1.232 21.7966L1.232 22.0526C1.232 22.0979 1.20933 22.1206 1.164 22.1206L1.04 22.1206C0.84533 22.1206 0.694663 22.0659 0.587996 21.9566C0.48133 21.8473 0.427997 21.6939 0.427997 21.4966L0.427997 21.1486C0.427997 20.9513 0.48133 20.7979 0.587996 20.6886C0.694663 20.5793 0.84533 20.5246 1.04 20.5246L1.26 20.5246C1.49466 20.5246 1.644 20.6313 1.708 20.8446C1.75866 20.6313 1.908 20.5246 2.156 20.5246L2.388 20.5246C2.58266 20.5246 2.73333 20.5793 2.84 20.6886C2.94666 20.7979 3 20.9513 3 21.1486L3 21.4966C3 21.6939 2.94666 21.8473 2.84 21.9566C2.73333 22.0659 2.58266 22.1206 2.388 22.1206L2.248 22.1206C2.2 22.1206 2.176 22.0979 2.176 22.0526L2.176 21.7966C2.176 21.7513 2.2 21.7286 2.248 21.7286L2.38 21.7286C2.47866 21.7286 2.552 21.7059 2.6 21.6606C2.64533 21.6126 2.668 21.5393 2.668 21.4406L2.668 21.2046C2.668 21.0073 2.572 20.9086 2.38 20.9086L2.16 20.9086C1.96533 20.9086 1.868 21.0073 1.868 21.2046L1.868 21.4246C1.868 21.4699 1.84533 21.4926 1.8 21.4926L1.62 21.4926C1.572 21.4926 1.548 21.4699 1.548 21.4246ZM1.548 18.4558L1.548 18.2358C1.548 18.0385 1.45066 17.9398 1.256 17.9398L1.048 17.9398C0.855996 17.9398 0.759996 18.0385 0.759996 18.2358L0.759996 18.4718C0.759996 18.5705 0.782663 18.6438 0.827996 18.6918C0.87333 18.7372 0.946663 18.7598 1.048 18.7598L1.164 18.7598C1.20933 18.7598 1.232 18.7825 1.232 18.8278L1.232 19.0838C1.232 19.1292 1.20933 19.1518 1.164 19.1518L1.04 19.1518C0.84533 19.1518 0.694663 19.0972 0.587996 18.9878C0.48133 18.8785 0.427996 18.7252 0.427996 18.5278L0.427996 18.1798C0.427996 17.9825 0.48133 17.8292 0.587996 17.7198C0.694663 17.6105 0.84533 17.5558 1.04 17.5558L1.26 17.5558C1.49466 17.5558 1.644 17.6625 1.708 17.8758C1.75866 17.6625 1.908 17.5558 2.156 17.5558L2.388 17.5558C2.58266 17.5558 2.73333 17.6105 2.84 17.7198C2.94666 17.8292 3 17.9825 3 18.1798L3 18.5278C3 18.7252 2.94666 18.8785 2.84 18.9878C2.73333 19.0972 2.58266 19.1518 2.388 19.1518L2.248 19.1518C2.2 19.1518 2.176 19.1292 2.176 19.0838L2.176 18.8278C2.176 18.7825 2.2 18.7598 2.248 18.7598L2.38 18.7598C2.47866 18.7598 2.552 18.7372 2.6 18.6918C2.64533 18.6438 2.668 18.5705 2.668 18.4718L2.668 18.2358C2.668 18.0385 2.572 17.9398 2.38 17.9398L2.16 17.9398C1.96533 17.9398 1.868 18.0385 1.868 18.2358L1.868 18.4558C1.868 18.5012 1.84533 18.5238 1.8 18.5238L1.62 18.5238C1.572 18.5238 1.548 18.5012 1.548 18.4558ZM2.168 16.0002L0.751996 16.0002L2.168 16.7882L2.168 16.0002ZM3 15.6962L3 15.9322C3 15.9776 2.97733 16.0002 2.932 16.0002L2.512 16.0002L2.512 17.0562C2.512 17.1336 2.47333 17.1722 2.396 17.1722L2.272 17.1722C2.21333 17.1722 2.16133 17.1602 2.116 17.1362L0.527996 16.2442C0.487996 16.2229 0.46133 16.2029 0.447996 16.1842C0.434663 16.1656 0.427996 16.1376 0.427996 16.1002L0.427996 15.7482C0.427996 15.6709 0.466663 15.6322 0.543996 15.6322L2.168 15.6322L2.168 15.3402C2.168 15.2949 2.19066 15.2722 2.236 15.2722L2.436 15.2722C2.48666 15.2722 2.512 15.2949 2.512 15.3402L2.512 15.6322L2.932 15.6322C2.97733 15.6322 3 15.6536 3 15.6962ZM2.66 14.2834L2.66 13.9674C2.66 13.8687 2.63733 13.7967 2.592 13.7514C2.54666 13.7034 2.47466 13.6794 2.376 13.6794L2.16 13.6794C1.96 13.6794 1.86 13.7754 1.86 13.9674L1.86 14.2834C1.86 14.4754 1.96 14.5714 2.16 14.5714L2.376 14.5714C2.47466 14.5714 2.54666 14.5487 2.592 14.5034C2.63733 14.4554 2.66 14.3821 2.66 14.2834ZM1.548 14.2834L1.548 13.9674C1.548 13.7754 1.448 13.6794 1.248 13.6794L1.052 13.6794C0.953329 13.6794 0.881329 13.7034 0.835996 13.7514C0.790663 13.7967 0.767996 13.8687 0.767996 13.9674L0.767996 14.2834C0.767996 14.3821 0.790663 14.4554 0.835996 14.5034C0.88133 14.5487 0.953329 14.5714 1.052 14.5714L1.248 14.5714C1.448 14.5714 1.548 14.4754 1.548 14.2834ZM3 13.9114L3 14.3354C3 14.5327 2.94933 14.6861 2.848 14.7954C2.74666 14.9047 2.59866 14.9594 2.404 14.9594L2.188 14.9594C1.94266 14.9594 1.78266 14.8674 1.708 14.6834C1.63333 14.8674 1.472 14.9594 1.224 14.9594L1.02 14.9594C0.827996 14.9594 0.68133 14.9047 0.579996 14.7954C0.478663 14.6861 0.427996 14.5327 0.427996 14.3354L0.427996 13.9114C0.427996 13.7141 0.478663 13.5621 0.579996 13.4554C0.681329 13.3461 0.827996 13.2914 1.02 13.2914L1.224 13.2914C1.34666 13.2914 1.45066 13.3167 1.536 13.3674C1.62133 13.4154 1.67866 13.4807 1.708 13.5634C1.78 13.3821 1.94133 13.2914 2.192 13.2914L2.404 13.2914C2.59866 13.2914 2.74666 13.3461 2.848 13.4554C2.94933 13.5621 3 13.7141 3 13.9114ZM2.932 12.8506L2.564 12.8506C2.39866 12.8506 2.26 12.7799 2.148 12.6386L1.532 11.8826C1.43066 11.7546 1.31333 11.6906 1.18 11.6906L1.048 11.6906C0.855996 11.6906 0.759996 11.7906 0.759996 11.9906L0.759996 12.1866C0.759996 12.2879 0.782663 12.3613 0.827996 12.4066C0.873329 12.4519 0.946663 12.4746 1.048 12.4746L1.196 12.4746C1.244 12.4746 1.268 12.4973 1.268 12.5426L1.268 12.7986C1.268 12.8439 1.244 12.8666 1.196 12.8666L1.04 12.8666C0.845329 12.8666 0.694663 12.8119 0.587996 12.7026C0.481329 12.5933 0.427996 12.4399 0.427996 12.2426L0.427996 11.9306C0.427996 11.7359 0.481329 11.5839 0.587996 11.4746C0.694663 11.3653 0.845329 11.3106 1.04 11.3106L1.204 11.3106C1.412 11.3106 1.58266 11.3919 1.716 11.5546L2.344 12.3226C2.39466 12.3839 2.45466 12.4146 2.524 12.4146L2.652 12.4146L2.652 11.3746C2.652 11.3266 2.67466 11.3026 2.72 11.3026L2.932 11.3026C2.97733 11.3026 3 11.3266 3 11.3746L3 12.7786C3 12.8266 2.97733 12.8506 2.932 12.8506ZM1.696 10.2334L1.696 9.67337L1.064 9.67337C0.866663 9.67337 0.767996 9.77071 0.767996 9.96537L0.767996 10.2334C0.767996 10.4254 0.866663 10.5214 1.064 10.5214L1.404 10.5214C1.59866 10.5214 1.696 10.4254 1.696 10.2334ZM3 9.90937L3 10.7214C3 10.772 2.97733 10.7974 2.932 10.7974L2.724 10.7974C2.68133 10.7974 2.66 10.772 2.66 10.7214L2.66 9.96537C2.66 9.77337 2.56133 9.67737 2.364 9.67737L2.04 9.67737L2.04 10.2934C2.04 10.4907 1.98666 10.644 1.88 10.7534C1.77066 10.8627 1.61866 10.9174 1.424 10.9174L1.048 10.9174C0.850663 10.9174 0.698663 10.8627 0.591996 10.7534C0.482663 10.644 0.427996 10.4907 0.427996 10.2934L0.427996 9.90937C0.427996 9.71204 0.482663 9.55871 0.591996 9.44937C0.698663 9.34004 0.850663 9.28537 1.048 9.28537L2.38 9.28537C2.57466 9.28537 2.72666 9.34004 2.836 9.44937C2.94533 9.55871 3 9.71204 3 9.90937ZM2.932 7.88966L2.564 7.88966C2.39866 7.88966 2.26 7.81899 2.148 7.67766L1.532 6.92166C1.43066 6.79366 1.31333 6.72966 1.18 6.72966L1.048 6.72966C0.855996 6.72966 0.759996 6.82966 0.759996 7.02966L0.759996 7.22566C0.759996 7.32699 0.782663 7.40032 0.827996 7.44566C0.873329 7.49099 0.946663 7.51366 1.048 7.51366L1.196 7.51366C1.244 7.51366 1.268 7.53632 1.268 7.58166L1.268 7.83766C1.268 7.88299 1.244 7.90566 1.196 7.90566L1.04 7.90566C0.845329 7.90566 0.694663 7.85099 0.587996 7.74166C0.481329 7.63232 0.427996 7.47899 0.427996 7.28166L0.427996 6.96966C0.427996 6.77499 0.481329 6.62299 0.587996 6.51366C0.694662 6.40432 0.845329 6.34966 1.04 6.34966L1.204 6.34966C1.412 6.34966 1.58266 6.43099 1.716 6.59366L2.344 7.36166C2.39466 7.42299 2.45466 7.45366 2.524 7.45366L2.652 7.45366L2.652 6.41366C2.652 6.36566 2.67466 6.34166 2.72 6.34166L2.932 6.34166C2.97733 6.34166 3 6.36566 3 6.41366L3 7.81766C3 7.86566 2.97733 7.88966 2.932 7.88966ZM1.548 5.26444L1.548 5.04444C1.548 4.8471 1.45066 4.74844 1.256 4.74844L1.048 4.74844C0.855996 4.74844 0.759996 4.8471 0.759996 5.04444L0.759996 5.28044C0.759996 5.3791 0.782663 5.45244 0.827996 5.50044C0.873329 5.54577 0.946662 5.56844 1.048 5.56844L1.164 5.56844C1.20933 5.56844 1.232 5.5911 1.232 5.63644L1.232 5.89244C1.232 5.93777 1.20933 5.96044 1.164 5.96044L1.04 5.96044C0.845329 5.96044 0.694662 5.90577 0.587996 5.79644C0.481329 5.6871 0.427996 5.53377 0.427996 5.33644L0.427996 4.98844C0.427996 4.7911 0.481329 4.63777 0.587996 4.52844C0.694662 4.4191 0.845329 4.36444 1.04 4.36444L1.26 4.36444C1.49466 4.36444 1.644 4.4711 1.708 4.68444C1.75866 4.4711 1.908 4.36444 2.156 4.36444L2.388 4.36444C2.58266 4.36444 2.73333 4.4191 2.84 4.52844C2.94666 4.63777 3 4.7911 3 4.98844L3 5.33644C3 5.53377 2.94666 5.6871 2.84 5.79644C2.73333 5.90577 2.58266 5.96044 2.388 5.96044L2.248 5.96044C2.2 5.96044 2.176 5.93777 2.176 5.89244L2.176 5.63644C2.176 5.5911 2.2 5.56844 2.248 5.56844L2.38 5.56844C2.47866 5.56844 2.552 5.54577 2.6 5.50044C2.64533 5.45244 2.668 5.3791 2.668 5.28044L2.668 5.04444C2.668 4.8471 2.572 4.74844 2.38 4.74844L2.16 4.74844C1.96533 4.74844 1.868 4.8471 1.868 5.04444L1.868 5.26444C1.868 5.30977 1.84533 5.33244 1.8 5.33244L1.62 5.33244C1.572 5.33244 1.548 5.30977 1.548 5.26444ZM2.932 3.92481L2.564 3.92481C2.39866 3.92481 2.26 3.85415 2.148 3.71281L1.532 2.95681C1.43066 2.82881 1.31333 2.76481 1.18 2.76481L1.048 2.76481C0.855996 2.76481 0.759996 2.86481 0.759996 3.06481L0.759996 3.26081C0.759996 3.36215 0.782662 3.43548 0.827996 3.48081C0.873329 3.52615 0.946662 3.54881 1.048 3.54881L1.196 3.54881C1.244 3.54881 1.268 3.57148 1.268 3.61681L1.268 3.87281C1.268 3.91815 1.244 3.94081 1.196 3.94081L1.04 3.94081C0.845329 3.94081 0.694662 3.88615 0.587996 3.77681C0.481329 3.66748 0.427996 3.51415 0.427996 3.31681L0.427996 3.00481C0.427996 2.81015 0.481329 2.65815 0.587996 2.54881C0.694662 2.43948 0.845329 2.38481 1.04 2.38481L1.204 2.38481C1.412 2.38481 1.58266 2.46615 1.716 2.62881L2.344 3.39681C2.39466 3.45815 2.45466 3.48881 2.524 3.48881L2.652 3.48881L2.652 2.44881C2.652 2.40081 2.67466 2.37681 2.72 2.37681L2.932 2.37681C2.97733 2.37681 3 2.40081 3 2.44881L3 3.85281C3 3.90081 2.97733 3.92481 2.932 3.92481ZM2.66 1.26759L2.66 0.983594C2.66 0.791594 2.56133 0.695594 2.364 0.695594L1.064 0.695594C0.866662 0.695594 0.767996 0.791594 0.767996 0.983594L0.767996 1.26759C0.767996 1.45959 0.866662 1.55559 1.064 1.55559L2.364 1.55559C2.56133 1.55559 2.66 1.45959 2.66 1.26759ZM3 0.927594L3 1.32759C3 1.52493 2.94533 1.67826 2.836 1.78759C2.72666 1.89693 2.57466 1.95159 2.38 1.95159L1.048 1.95159C0.850662 1.95159 0.698662 1.89693 0.591996 1.78759C0.482662 1.67826 0.427996 1.52493 0.427996 1.32759L0.427996 0.927594C0.427996 0.732927 0.482662 0.580927 0.591995 0.471594C0.698662 0.36226 0.850662 0.307594 1.048 0.307594L2.38 0.307594C2.57466 0.307594 2.72666 0.36226 2.836 0.471593C2.94533 0.580927 3 0.732927 3 0.927594Z" fill="#F75049"/>
</svg>
