<svg width="132" height="48" viewBox="0 0 132 48" fill="none" xmlns="http://www.w3.org/2000/svg">
<path opacity="0.7" d="M3.29093 0.0101698C5.22613 -0.015883 7.76287 0.0119737 9.69075 0.0502087C10.295 0.0620673 9.98901 0.115075 10.4061 0.125648C11.2218 0.146258 11.9818 0.120261 12.7879 0.144813C13.0551 0.153209 12.7225 0.237174 13.0026 0.244056C14.5377 0.281163 15.9899 0.259777 17.545 0.277625C25.2046 0.365685 32.7338 0.397205 40.4871 0.435461C43.0436 0.448004 46.1513 0.524206 48.7918 0.490881C49.1001 0.486916 48.9163 0.413216 48.975 0.407141C49.8948 0.31415 49.589 0.462935 50.1896 0.482702C52.5733 0.560754 55.2241 0.567542 57.5182 0.539099C58.4941 0.526782 57.5156 0.380395 58.4983 0.462561C58.5665 0.468112 58.3189 0.546377 58.5865 0.554724C59.1935 0.573498 60.3451 0.559509 60.8156 0.56571C61.7222 0.578057 61.8722 0.577269 62.7297 0.578161C63.902 0.580061 65.2963 0.618966 66.554 0.601232C66.8225 0.597215 66.4671 0.516985 66.8952 0.503332C67.3238 0.489702 68.4575 0.496505 68.8397 0.515417C69.222 0.534339 69.0592 0.597399 69.1269 0.611852C69.6835 0.733849 70.9949 0.564884 71.1636 0.560705C74.24 0.489506 76.8782 0.58576 79.766 0.585485C81.9583 0.585073 84.3025 0.553296 86.3885 0.557653C88.8737 0.563155 90.98 0.606631 93.3943 0.599157C93.6491 0.598461 93.3505 0.504129 93.6617 0.503088C96.968 0.492111 100.251 0.502394 103.543 0.566076C103.874 0.572546 103.448 0.655368 103.778 0.666784C105.797 0.734849 108.993 0.898357 110.192 0.537756C111.56 0.551837 113.221 0.566385 114.445 0.639074C115.234 0.685858 114.467 0.776084 115.437 0.737585C115.655 0.729007 115.371 0.649991 115.699 0.643102C117.079 0.614176 118.587 0.639861 119.953 0.599035C120.23 0.590545 120.155 0.519744 120.233 0.506994C120.895 0.403741 121.996 0.574425 122.236 0.586828C124.063 0.679315 125.398 0.642919 127.101 0.645178C127.496 0.645741 127.029 0.550639 127.409 0.547766C128.124 0.542825 128.848 0.54075 129.572 0.54212C130.352 0.524481 131.046 1.2305 131.022 2C131.015 2.74634 131.004 3.48659 130.988 4.21108C130.978 4.64056 130.897 4.24561 130.889 4.45084C130.851 5.35578 131.004 5.55639 130.971 6.42427C130.964 6.60725 130.895 6.50416 130.887 6.53757C130.768 7.0599 130.937 7.51377 130.941 7.64812C130.992 9.34765 130.815 10.434 130.84 12.0758C130.843 12.2722 130.931 11.8293 130.935 12.3815C130.959 16.0598 130.935 19.9501 130.864 23.591C130.854 24.1571 130.788 23.753 130.78 23.7886C130.653 24.3692 130.823 24.7449 130.829 24.9295C130.875 26.3857 130.733 27.746 130.935 28.7354C130.9 31.8493 130.911 34.956 130.908 38.0563C130.909 38.4345 130.74 38.8088 130.455 39.0569C128.384 40.8754 126.306 42.6785 124.192 44.4338C124.133 44.4837 124.182 44.3287 124.063 44.4284C122.631 45.6287 122.986 45.4891 122.164 46.4261C122.041 46.5669 121.693 46.7953 121.417 46.9662C121.181 47.1252 120.959 47.1506 120.92 47.1577C120.557 47.1897 120.891 46.9874 120.776 47.0026C120.697 47.0117 120.628 47.0142 120.565 47.0145C119.94 47.0167 119.96 47.3578 118.922 47.3579C118.887 47.3572 119.037 47.2813 118.941 47.2738C118.643 47.2501 118.348 47.2802 118.057 47.2541C117.39 47.1937 117.153 46.9934 116.135 47.11C116.006 47.1251 116.203 47.3589 115.184 47.3479C114.777 47.3433 112.979 47.3473 112.475 47.3321C111.972 47.317 112.317 47.2416 112.281 47.2384C110.925 47.1387 111.439 47.0974 110.76 46.9499C110.08 46.803 110.269 47.1535 109.992 47.1926C109.714 47.2316 108.72 47.1494 108.476 47.1208C108.231 47.0922 108.536 47.0443 108.319 47.0282C106.879 46.9225 107.687 47.2021 107.212 47.2578C106.093 47.3895 105.222 47.1296 104.198 47.1041C103.921 47.0972 104.147 47.1564 103.9 47.162C102.923 47.1831 102.335 47.102 101.223 47.1764C101.041 47.1885 100.143 47.3448 99.5608 47.2301C99.4784 47.2135 99.7126 47.1488 99.2961 47.1342C98.6739 47.1125 97.5528 47.0983 96.8839 47.12C96.3901 47.136 96.9561 47.2427 96.3346 47.2096C96.0584 47.1948 96.5703 47.1323 96.0513 47.1097C95.5351 47.0871 94.2153 47.0899 93.713 47.092C93.2117 47.0942 93.4861 47.1752 93.4456 47.1806C93.2004 47.2119 92.2383 47.2509 92.1532 47.2508C87.8646 47.2607 83.9098 47.1242 79.7343 47.1694C79.4066 47.1728 79.6249 47.2582 79.5749 47.2596C78.4531 47.2954 79.3376 47.0684 78.5539 46.9924C78.6672 47.1657 78.2046 47.1343 77.4144 47.1533C77.0336 47.1626 77.241 47.2297 77.2063 47.2365C76.6416 47.3384 76.2484 47.2068 76.1471 47.1799C75.7731 47.0809 75.3661 47.1979 75.1116 47.1317C74.8573 47.066 75.4426 46.9686 74.6848 46.9698C74.4723 47.0318 75.0349 47.1939 74.4595 47.2202C72.2886 47.3195 68.2362 47.1924 66.4907 47.1792C64.7487 47.166 64.186 47.1774 63.1709 47.155C61.3373 47.1145 62.0093 47.2347 60.8708 47.2898C59.7289 47.3448 60.284 47.0489 60.1199 46.9853C59.9588 46.9217 59.7828 46.9872 59.5824 46.9522C59.3826 46.9173 59.8151 46.8741 59.3452 46.8609C58.8751 46.8478 57.5898 46.9609 57.4232 47.0274C57.0709 47.1683 57.6501 47.3162 56.4062 47.2642C56.3346 47.2612 56.5668 47.1834 56.2929 47.1755C54.1171 47.1156 51.8567 47.1119 49.6836 47.0589C49.3848 47.0515 49.652 46.965 49.4781 46.9597C47.6668 46.9043 48.3143 47.0503 47.3215 47.2124C47.5444 46.9966 46.9955 46.8646 45.6208 46.8634C44.7944 46.8625 44.9367 46.9568 44.4022 47.0232C44.2419 47.0432 43.6571 46.9785 43.5512 47.0228C43.2018 47.1676 43.7526 47.3298 42.3353 47.2652C42.2731 47.2622 42.4711 47.1829 42.2562 47.1781C40.8674 47.1466 40.7012 47.2981 39.1999 47.3165C38.0232 47.3309 35.9303 47.2385 34.5904 47.2235C34.6186 46.9809 33.353 47.0365 32.8396 47.2037C31.97 47.1969 31.0308 47.2063 30.1904 47.1832C29.9011 47.1753 30.0912 47.1051 30.0547 47.0975C29.4953 46.9785 29.1173 47.1412 28.9296 47.1475C26.8953 47.2096 25.2379 47.0862 23.2965 47.2068C23.2276 47.2111 23.116 47.3796 22.597 47.2566C22.5634 47.2481 23.2046 47.1714 22.2914 47.1655C21.3779 47.1596 19.656 47.0692 18.388 47.1473C18.0811 47.1661 17.3049 47.3029 16.682 47.196C16.599 47.1815 16.6898 47.1332 16.57 47.1063C16.1827 47.0206 15.9713 47.1909 15.5161 47.0462C15.0609 46.9016 14.1141 46.7932 12.8352 46.893C12.7945 46.8959 12.4918 47.0309 12.0896 47.0288C11.4476 47.0253 10.5362 46.9971 9.86585 46.998C9.54491 46.9985 9.75029 47.0823 9.6946 47.0838C7.53652 47.1308 6.00059 47.0561 3.68867 47.0237C3.32127 47.0184 2.35707 47.1035 1.57239 47.0674C1.44375 47.062 1.32204 47.0301 1.2192 46.98C0.873996 46.7857 0.936952 46.6309 0.949743 46.5269C0.982716 46.4106 0.94957 46.3049 0.953091 46C0.961883 45.7974 0.959962 45.5317 0.943271 45.1791C0.904061 44.3439 0.382041 43.2865 0.6525 41.7855C0.585482 38.8745 0.723903 36.1825 0.628208 33.2634C0.623969 33.1321 0.478277 32.717 0.48026 32.4084C0.483485 31.9503 0.551579 31.6988 0.556065 31.3716C0.576576 30.0008 0.518317 28.7464 0.527379 27.4248C0.530671 26.923 0.60108 27.0985 0.605015 26.5C0.608885 25.9019 0.51617 25.503 0.560948 24.6925C0.595079 24.0804 0.784586 23.4684 0.806675 22.6559C0.619748 22.6249 0.623598 22.0669 0.574254 21.075C0.56468 20.8844 0.499619 21.0888 0.491734 20.9986C0.458202 20.6316 0.512123 20.2919 0.475621 19.9434C0.466854 19.8586 0.403018 19.8546 0.392247 19.7853C0.298236 19.1959 0.44183 18.225 0.466832 18.0582C0.561784 17.4191 0.478757 17.1204 0.516148 16.6302C0.553535 16.1408 0.600272 16.8726 0.622959 16.3008C0.669886 15.1158 0.659577 13.5931 0.66251 12.3895C0.663287 11.9093 0.578074 12.237 0.576207 12.1682C0.554594 11.1752 0.645236 10.171 0.475499 9.62042C0.914375 8.93192 0.43293 9.0216 0.520787 7.60219C0.527893 7.49038 0.735434 7.34814 0.765903 7.7774C0.796344 8.20664 0.731469 8.85755 0.778965 9.45311C0.790111 9.59416 0.984591 10.402 0.996371 10.5123C1.08844 11.3757 0.778299 11.4981 0.761265 11.5438C0.577434 12.0618 0.786949 13.0491 0.801426 13.3091C0.867761 14.4984 0.824145 15.5089 0.871494 16.5037C0.902096 17.1543 1.10525 17.218 1.09903 17.7289C1.07848 19.4272 0.795077 20.02 1.0408 21.6204C1.09321 21.9636 1.31526 21.6225 1.14066 22.8522C1.12965 22.9294 0.969926 23.8423 1.07096 24.3698C1.08369 24.436 1.14841 24.4339 1.15384 24.5213C1.189 25.1068 1.13745 25.4972 1.16214 26.1351C1.18683 26.7728 1.22364 27.5397 1.20169 28.2679C1.18857 28.7067 1.068 29.2698 1.03849 29.4799C0.953453 30.0731 1.09287 30.7091 0.989902 31.0765C0.886415 31.4471 0.729253 30.7226 0.662388 31.6944C0.830512 31.7304 1.00307 31.8131 1.17215 31.8709C1.16623 34.0005 1.11187 36.0959 1.1193 38.2325C1.12038 38.4974 1.21077 38.2265 1.21427 38.5105C1.22863 39.7086 1.16419 40.7551 1.18985 41.9976C1.21006 42.9594 1.30576 44.014 1.32987 45.0197C1.25851 45.2475 1.2226 45.5962 1.20477 46C1.17198 46.1828 1.36468 46.3955 1.57239 46.3838C1.79417 46.3835 2.01008 46.3839 2.21189 46.3872C2.59164 46.3933 2.56627 46.4446 2.83633 46.4614C3.85516 46.5234 3.37776 46.3534 3.65705 46.3266C4.85542 46.2124 4.958 46.5972 6.37085 46.5877C6.44571 46.5874 7.36065 46.3822 7.48667 46.3695C8.28738 46.2862 7.6192 46.4409 8.12033 46.456C9.03527 46.4837 9.67107 46.5327 10.7445 46.4726C11.0576 46.4548 11.8084 46.327 12.4163 46.4259C12.4963 46.4388 12.4521 46.5066 12.5164 46.5106C13.6815 46.5768 13.7121 46.3637 14.3779 46.2916C15.0438 46.2195 16.0722 46.3665 16.2815 46.4089C16.829 46.5186 15.8619 46.4558 15.8323 46.4665C15.4839 46.5946 16.234 46.5725 16.8071 46.5833C16.8901 46.7922 17.6916 46.7797 17.4013 46.5937C17.3682 46.5734 16.9222 46.5929 16.8071 46.5833C17.3102 46.3784 18.191 46.3522 19.1639 46.5437C19.6193 46.6334 19.1888 46.7381 20.5722 46.6998C21.2 46.6825 20.9574 46.5387 21.5115 46.4995C22.7773 46.41 24.4221 46.5442 25.7271 46.523C26.2007 46.5154 25.7393 46.4366 26.063 46.4287C26.922 46.4073 27.6796 46.4664 28.5423 46.4361C28.6205 46.4333 28.4295 46.3509 28.6978 46.3498C30.7316 46.3403 32.5025 46.393 34.626 46.3945C35.652 46.3952 37.4863 46.3497 38.5491 46.3589C40.3912 46.3742 42.6573 46.494 44.231 46.4649C45.2573 46.4463 45.0322 46.3639 45.4719 46.3077C46.3206 46.1988 47.8227 46.3938 48.025 46.424C48.0312 46.425 47.148 46.4445 47.6193 46.4868C47.8933 46.575 48.0151 46.4244 48.025 46.424C48.1579 46.4435 49.9221 46.4623 50.2725 46.4465C50.4628 46.4379 50.3563 46.3598 50.4556 46.3568C52.8147 46.2869 55.178 46.267 57.5707 46.3036C57.6128 46.3051 57.5494 46.3925 57.6485 46.3951C59.0337 46.434 59.9207 46.3271 61.0631 46.2636C62.2054 46.2002 63.1113 46.2215 63.7874 46.3714C64.6493 46.3525 65.8858 46.4188 66.5974 46.4591C67.3089 46.4993 67.4082 46.3293 67.4708 46.3259C69.4236 46.2183 70.5524 46.3156 72.5783 46.3308C73.5415 46.3383 75.452 46.3136 76.4949 46.295C77.3191 46.28 77.8156 46.3199 78.575 46.2944C78.6777 46.291 78.574 46.2153 78.6053 46.2124C79.4529 46.1218 79.0455 46.3069 79.2205 46.3399C79.8549 46.4601 80.2469 46.5242 81.3323 46.4676C81.5826 46.4547 82.3119 46.1882 82.7682 46.1726C83.3616 46.1528 83.1376 46.2483 83.7589 46.2252C83.812 46.2233 83.801 46.1644 84.1844 46.167C85.9642 46.1782 87.9047 46.2125 89.7543 46.2066C90.0069 46.2061 89.683 46.1126 90.0481 46.1102C91.7609 46.0991 93.6383 46.1026 95.307 46.1463C95.7178 46.1574 95.4603 46.2228 95.5494 46.2423C96.0968 46.3599 96.8731 46.189 97.0012 46.1858C100.056 46.1037 102.395 46.2583 105.509 46.1847C105.678 46.1803 106.983 45.9972 107.565 46.1543C107.605 46.1647 108.181 46.3254 108.69 46.2155C108.722 46.2087 108.363 46.1259 108.989 46.1344C109.616 46.1428 110.624 46.0875 111.484 46.1784C111.757 46.2071 112.401 46.3674 113.214 46.2396C113.267 46.2307 114.522 45.9417 114.97 46.1411C115.043 46.1739 114.967 46.3849 115.937 46.2767C116.123 46.2557 115.786 46.2087 116.274 46.1793C117.023 46.134 118.014 46.1905 118.934 46.0965C119.095 46.0799 119.778 45.9367 120.325 46.0454C120.411 46.0624 120.248 46.1328 120.537 46.1407C120.547 46.141 120.556 46.1412 120.565 46.1415C120.599 46.1481 120.637 46.1386 120.667 46.1155C121.532 45.3669 122.396 44.5719 123.281 43.8446C123.664 43.5303 123.549 43.7829 123.956 43.4647C124.363 43.1464 125.162 42.4811 125.532 42.0852C125.903 41.6891 125.34 41.943 125.937 41.3972C127.156 40.2833 128.393 39.2022 129.637 38.1296C129.66 38.1138 129.677 38.0868 129.68 38.0563C129.7 36.4834 129.726 34.9104 129.733 33.3317C129.735 32.8111 129.67 33.2427 129.669 32.4754C129.664 29.6466 129.603 24.7626 129.741 22.3079C129.852 20.3411 129.936 22.8162 129.981 21.3133C130.002 20.588 129.791 19.8034 129.785 19.6284C129.717 17.9181 129.811 16.7295 129.782 15.1901C129.776 14.8722 129.69 15.184 129.686 14.9135C129.672 13.9894 129.71 13.0181 129.703 12.1351C129.699 11.739 129.634 11.8119 129.639 11.4474C129.65 10.5752 129.678 9.80392 129.739 8.95364C129.745 8.87614 129.826 9.39871 129.829 8.7534C129.834 7.70897 129.894 6.41258 129.832 5.21097C129.813 4.85443 129.664 4.84046 129.767 4.07407C129.788 3.91331 129.967 4.11842 129.813 3.22568C129.798 3.13786 129.72 2.58834 129.685 2C129.657 1.95176 129.642 1.94064 129.628 1.87103C129.624 1.85229 129.616 1.80612 129.572 1.77014C129.357 1.72681 129.101 1.68802 128.865 1.70072C128.807 1.70439 129.039 1.78457 128.684 1.79239C127.432 1.81856 126.12 1.81 124.834 1.83512C124.49 1.84198 125.002 1.92495 124.49 1.93253C123.082 1.9535 121.324 1.93237 119.947 1.9064C119.44 1.89667 119.791 1.82795 119.754 1.82047C119.16 1.69882 118.809 1.86302 118.612 1.87259C117.386 1.92992 116.452 1.85279 115.322 1.8732C115.01 1.87863 115.231 1.95692 115.169 1.9639C114.525 2.03211 115.005 1.89151 114.597 1.87601C113.456 1.83212 112.183 1.83842 111.029 1.84842C110.605 1.85221 111.081 1.94299 110.701 1.94534C108.448 1.96099 106.107 1.9523 103.908 1.90225C103.494 1.89267 103.755 1.82276 103.669 1.80679C103.074 1.69509 102.203 1.84746 102.002 1.86197C101.09 1.92824 100.736 1.86642 99.9311 1.87796C95.9981 1.93541 91.1418 1.89447 87.4292 1.86917C82.5913 1.83662 78.8373 1.77012 74.2238 1.78739C73.9306 1.7884 74.2263 1.88139 73.9735 1.88345C70.7102 1.90587 67.4975 1.86953 64.2276 1.89639C63.9592 1.89843 64.346 1.98659 63.9153 1.99283C63.032 2.00624 61.9129 2.00145 61.0197 1.9733C60.5841 1.95974 61.1684 1.88409 60.7299 1.87198C59.7089 1.84362 58.6144 1.83734 57.5656 1.85147C57.1193 1.85768 57.7926 1.94784 57.2125 1.94888C53.2608 1.95783 49.3798 1.97336 45.3864 1.8566C45.1127 1.84858 44.8724 1.66533 44.2904 1.70047C44.2465 1.75133 44.2489 1.81115 44.2298 1.86551C38.4771 1.89479 32.7831 1.83127 27.0143 1.82144C26.771 1.82105 27.1914 1.91815 26.7205 1.91788C23.9951 1.91644 21.3485 1.94334 18.5607 1.84683C18.2841 1.8374 18.426 1.66658 17.6108 1.69242C17.4671 1.69713 16.2394 1.71991 15.922 1.75699C15.8788 1.76258 16.1028 1.84231 15.7072 1.84464C13.4082 1.85674 10.999 1.83854 8.70404 1.78983C8.33364 1.78181 8.72809 1.69691 8.46427 1.69046C6.59292 1.64539 4.55742 1.70993 2.76925 1.63285C1.72167 1.58742 1.9304 1.46932 1.57239 1.34371C1.53847 1.3259 1.49449 1.30985 1.4358 1.30277C1.40306 1.29746 1.25324 1.32709 1.12627 1.40921C0.996546 1.48647 0.901575 1.60769 0.857638 1.6019C0.745447 1.58804 0.670362 1.48874 0.615256 1.36813C0.557381 1.25174 0.520227 1.11447 0.364553 1.13415C0.326973 1.13299 0.118213 1.46863 0.0773914 1.74141C0.0379759 2.00546 0.00881219 2.17568 1.8239e-05 1.70528C0.00134385 1.6743 0.0455077 1.36136 0.22988 1.07387C0.404051 0.780413 0.714163 0.557003 0.842706 0.479691C1.0287 0.370554 0.621909 0.436731 1.04031 0.244277C1.20013 0.182377 1.38005 0.154306 1.57239 0.159328C1.75288 0.167986 1.96031 0.186919 2.22386 0.160804C2.64111 0.118927 2.45764 0.0216813 3.29093 0.0101698ZM69.8013 46.6389C70.4601 46.7205 70.5574 46.4215 69.8447 46.493C69.8103 46.4968 69.7673 46.6349 69.8013 46.6389ZM0.886264 36.0839C0.754343 36.9452 0.94832 37.5347 1.0502 36.927C1.15198 36.3195 0.926255 35.8215 0.886264 36.0839ZM0.789951 27.1521C0.685937 28.1588 1.11006 28.3172 1.02433 27.239C1.01948 27.1763 0.795991 27.0932 0.789951 27.1521ZM4.32903 1.24857C4.31993 1.2446 3.78714 1.24073 3.77441 1.24466C3.49071 1.33965 4.55607 1.34733 4.32903 1.24857ZM0.685093 18.2888C0.627721 18.603 0.69395 19.5079 0.765293 19.1174C0.822686 18.8031 0.756461 17.8974 0.685093 18.2888ZM104.17 46.9581C104.181 46.9626 104.563 46.9666 104.555 46.9414C104.529 46.8602 103.998 46.8831 104.17 46.9581ZM0.68021 3.22454C0.664245 5.45021 0.313895 6.79967 0.353429 4.37593C0.360582 3.93702 0.465153 5.32189 0.496739 4.76324C0.554284 3.74104 0.334307 3.06228 0.452184 2.01914C0.473759 1.8303 0.681899 3.09758 0.680699 3.2285C0.680536 3.22718 0.680373 3.22586 0.68021 3.22454ZM70.1807 46.9981C70.1939 47.0021 70.7226 47.0058 70.7353 47.0019C71.0216 46.907 69.9564 46.8994 70.1807 46.9981ZM125.2 43.4367C125.227 43.4237 126.153 42.618 126.177 42.5857C126.555 42.0458 124.683 43.6744 125.2 43.4367ZM34.5693 47.217C33.9924 47.3125 33.3022 47.3238 32.8422 47.2038C33.4156 47.2102 33.9928 47.2111 34.5693 47.217Z" fill="#07596E"/>
<path d="M41.085 29.1099H39.229C38.4397 29.1099 37.8263 28.8912 37.389 28.4539C36.9623 28.0166 36.749 27.4086 36.749 26.6299V21.3019C36.749 20.5126 36.9623 19.9046 37.389 19.4779C37.8263 19.0406 38.4397 18.8219 39.229 18.8219H41.085C41.8637 18.8219 42.4717 19.0406 42.909 19.4779C43.3463 19.9046 43.565 20.5126 43.565 21.3019V22.0699C43.565 22.2619 43.469 22.3579 43.277 22.3579H42.269C42.0877 22.3579 41.997 22.2619 41.997 22.0699V21.3659C41.997 20.5766 41.613 20.1819 40.845 20.1819H39.453C38.685 20.1819 38.301 20.5766 38.301 21.3659V26.5659C38.301 27.3552 38.685 27.7499 39.453 27.7499H40.845C41.613 27.7499 41.997 27.3552 41.997 26.5659V25.8619C41.997 25.6699 42.0877 25.5739 42.269 25.5739H43.277C43.469 25.5739 43.565 25.6699 43.565 25.8619V26.6299C43.565 27.4086 43.3463 28.0166 42.909 28.4539C42.4717 28.8912 41.8637 29.1099 41.085 29.1099ZM48.2536 27.7499H49.6456C50.4243 27.7499 50.8136 27.3552 50.8136 26.5659V21.3659C50.8136 20.5766 50.4243 20.1819 49.6456 20.1819H48.2536C47.4856 20.1819 47.1016 20.5766 47.1016 21.3659V26.5659C47.1016 27.3552 47.4856 27.7499 48.2536 27.7499ZM49.8856 29.1099H48.0296C47.2403 29.1099 46.6269 28.8912 46.1896 28.4539C45.7629 28.0166 45.5496 27.4086 45.5496 26.6299V21.3019C45.5496 20.5126 45.7629 19.9046 46.1896 19.4779C46.6269 19.0406 47.2403 18.8219 48.0296 18.8219H49.8856C50.6749 18.8219 51.2883 19.0406 51.7256 19.4779C52.1629 19.9046 52.3816 20.5126 52.3816 21.3019V26.6299C52.3816 27.4086 52.1629 28.0166 51.7256 28.4539C51.2883 28.8912 50.6749 29.1099 49.8856 29.1099ZM55.9617 29.1099H54.9697C54.7884 29.1099 54.6977 29.0192 54.6977 28.8379V19.0939C54.6977 18.9126 54.7884 18.8219 54.9697 18.8219H55.8657C56.0364 18.8219 56.1537 18.8806 56.2177 18.9979L60.0897 25.9579H60.1537V19.0939C60.1537 18.9126 60.2444 18.8219 60.4257 18.8219H61.4177C61.5991 18.8219 61.6897 18.9126 61.6897 19.0939V28.8379C61.6897 29.0192 61.5991 29.1099 61.4177 29.1099H60.5537C60.3831 29.1099 60.2444 29.0246 60.1377 28.8539L56.2977 21.9739H56.2337V28.8379C56.2337 29.0192 56.1431 29.1099 55.9617 29.1099ZM65.4499 29.1099H64.4579C64.2765 29.1099 64.1859 29.0192 64.1859 28.8379V19.0939C64.1859 18.9126 64.2765 18.8219 64.4579 18.8219H65.3539C65.5245 18.8219 65.6419 18.8806 65.7059 18.9979L69.5779 25.9579H69.6419V19.0939C69.6419 18.9126 69.7325 18.8219 69.9139 18.8219H70.9059C71.0872 18.8219 71.1779 18.9126 71.1779 19.0939V28.8379C71.1779 29.0192 71.0872 29.1099 70.9059 29.1099H70.0419C69.8712 29.1099 69.7325 29.0246 69.6259 28.8539L65.7859 21.9739H65.7219V28.8379C65.7219 29.0192 65.6312 29.1099 65.4499 29.1099ZM79.066 29.1099H73.946C73.7647 29.1099 73.674 29.0192 73.674 28.8379V19.0939C73.674 18.9126 73.7647 18.8219 73.946 18.8219H79.066C79.2367 18.8219 79.322 18.9126 79.322 19.0939V19.9099C79.322 20.0912 79.2367 20.1819 79.066 20.1819H75.418C75.29 20.1819 75.226 20.2352 75.226 20.3419V23.0459C75.226 23.1526 75.29 23.2059 75.418 23.2059H78.506C78.698 23.2059 78.794 23.2966 78.794 23.4779V24.2939C78.794 24.4752 78.698 24.5659 78.506 24.5659H75.418C75.29 24.5659 75.226 24.6192 75.226 24.7259V27.5739C75.226 27.6912 75.29 27.7499 75.418 27.7499H79.066C79.2367 27.7499 79.322 27.8406 79.322 28.0219V28.8379C79.322 29.0192 79.2367 29.1099 79.066 29.1099ZM85.6975 29.1099H83.8415C83.0522 29.1099 82.4388 28.8912 82.0015 28.4539C81.5748 28.0166 81.3615 27.4086 81.3615 26.6299V21.3019C81.3615 20.5126 81.5748 19.9046 82.0015 19.4779C82.4388 19.0406 83.0522 18.8219 83.8415 18.8219H85.6975C86.4762 18.8219 87.0842 19.0406 87.5215 19.4779C87.9588 19.9046 88.1775 20.5126 88.1775 21.3019V22.0699C88.1775 22.2619 88.0815 22.3579 87.8895 22.3579H86.8815C86.7002 22.3579 86.6095 22.2619 86.6095 22.0699V21.3659C86.6095 20.5766 86.2255 20.1819 85.4575 20.1819H84.0655C83.2975 20.1819 82.9135 20.5766 82.9135 21.3659V26.5659C82.9135 27.3552 83.2975 27.7499 84.0655 27.7499H85.4575C86.2255 27.7499 86.6095 27.3552 86.6095 26.5659V25.8619C86.6095 25.6699 86.7002 25.5739 86.8815 25.5739H87.8895C88.0815 25.5739 88.1775 25.6699 88.1775 25.8619V26.6299C88.1775 27.4086 87.9588 28.0166 87.5215 28.4539C87.0842 28.8912 86.4762 29.1099 85.6975 29.1099ZM93.1381 29.1099H92.1301C91.9381 29.1099 91.8421 29.0192 91.8421 28.8379V20.3419C91.8421 20.2352 91.7888 20.1819 91.6821 20.1819H89.6661C89.4741 20.1819 89.3781 20.0912 89.3781 19.9099V19.0939C89.3781 18.9126 89.4741 18.8219 89.6661 18.8219H95.6021C95.7941 18.8219 95.8901 18.9126 95.8901 19.0939V19.9099C95.8901 20.0912 95.7941 20.1819 95.6021 20.1819H93.5861C93.4688 20.1819 93.4101 20.2352 93.4101 20.3419V28.8379C93.4101 29.0192 93.3194 29.1099 93.1381 29.1099Z" fill="#64E6F4"/>
<g filter="url(#filter0_f_43_223)">
<path d="M41.085 29.1099H39.229C38.4397 29.1099 37.8263 28.8912 37.389 28.4539C36.9623 28.0165 36.749 27.4085 36.749 26.6299V21.3019C36.749 20.5125 36.9623 19.9045 37.389 19.4779C37.8263 19.0405 38.4397 18.8219 39.229 18.8219H41.085C41.8637 18.8219 42.4717 19.0405 42.909 19.4779C43.3463 19.9045 43.565 20.5125 43.565 21.3019V22.0699C43.565 22.2619 43.469 22.3579 43.277 22.3579H42.269C42.0877 22.3579 41.997 22.2619 41.997 22.0699V21.3659C41.997 20.5765 41.613 20.1819 40.845 20.1819H39.453C38.685 20.1819 38.301 20.5765 38.301 21.3659V26.5659C38.301 27.3552 38.685 27.7499 39.453 27.7499H40.845C41.613 27.7499 41.997 27.3552 41.997 26.5659V25.8619C41.997 25.6699 42.0877 25.5739 42.269 25.5739H43.277C43.469 25.5739 43.565 25.6699 43.565 25.8619V26.6299C43.565 27.4085 43.3463 28.0165 42.909 28.4539C42.4717 28.8912 41.8637 29.1099 41.085 29.1099ZM48.2536 27.7499H49.6456C50.4243 27.7499 50.8136 27.3552 50.8136 26.5659V21.3659C50.8136 20.5765 50.4243 20.1819 49.6456 20.1819H48.2536C47.4856 20.1819 47.1016 20.5765 47.1016 21.3659V26.5659C47.1016 27.3552 47.4856 27.7499 48.2536 27.7499ZM49.8856 29.1099H48.0296C47.2403 29.1099 46.6269 28.8912 46.1896 28.4539C45.7629 28.0165 45.5496 27.4085 45.5496 26.6299V21.3019C45.5496 20.5125 45.7629 19.9045 46.1896 19.4779C46.6269 19.0405 47.2403 18.8219 48.0296 18.8219H49.8856C50.6749 18.8219 51.2883 19.0405 51.7256 19.4779C52.1629 19.9045 52.3816 20.5125 52.3816 21.3019V26.6299C52.3816 27.4085 52.1629 28.0165 51.7256 28.4539C51.2883 28.8912 50.6749 29.1099 49.8856 29.1099ZM55.9617 29.1099H54.9697C54.7884 29.1099 54.6977 29.0192 54.6977 28.8379V19.0939C54.6977 18.9125 54.7884 18.8219 54.9697 18.8219H55.8657C56.0364 18.8219 56.1537 18.8805 56.2177 18.9979L60.0897 25.9579H60.1537V19.0939C60.1537 18.9125 60.2444 18.8219 60.4257 18.8219H61.4177C61.5991 18.8219 61.6897 18.9125 61.6897 19.0939V28.8379C61.6897 29.0192 61.5991 29.1099 61.4177 29.1099H60.5537C60.3831 29.1099 60.2444 29.0245 60.1377 28.8539L56.2977 21.9739H56.2337V28.8379C56.2337 29.0192 56.1431 29.1099 55.9617 29.1099ZM65.4499 29.1099H64.4579C64.2765 29.1099 64.1859 29.0192 64.1859 28.8379V19.0939C64.1859 18.9125 64.2765 18.8219 64.4579 18.8219H65.3539C65.5245 18.8219 65.6419 18.8805 65.7059 18.9979L69.5779 25.9579H69.6419V19.0939C69.6419 18.9125 69.7325 18.8219 69.9139 18.8219H70.9059C71.0872 18.8219 71.1779 18.9125 71.1779 19.0939V28.8379C71.1779 29.0192 71.0872 29.1099 70.9059 29.1099H70.0419C69.8712 29.1099 69.7325 29.0245 69.6259 28.8539L65.7859 21.9739H65.7219V28.8379C65.7219 29.0192 65.6312 29.1099 65.4499 29.1099ZM79.066 29.1099H73.946C73.7647 29.1099 73.674 29.0192 73.674 28.8379V19.0939C73.674 18.9125 73.7647 18.8219 73.946 18.8219H79.066C79.2367 18.8219 79.322 18.9125 79.322 19.0939V19.9099C79.322 20.0912 79.2367 20.1819 79.066 20.1819H75.418C75.29 20.1819 75.226 20.2352 75.226 20.3419V23.0459C75.226 23.1525 75.29 23.2059 75.418 23.2059H78.506C78.698 23.2059 78.794 23.2965 78.794 23.4779V24.2939C78.794 24.4752 78.698 24.5659 78.506 24.5659H75.418C75.29 24.5659 75.226 24.6192 75.226 24.7259V27.5739C75.226 27.6912 75.29 27.7499 75.418 27.7499H79.066C79.2367 27.7499 79.322 27.8405 79.322 28.0219V28.8379C79.322 29.0192 79.2367 29.1099 79.066 29.1099ZM85.6975 29.1099H83.8415C83.0522 29.1099 82.4388 28.8912 82.0015 28.4539C81.5748 28.0165 81.3615 27.4085 81.3615 26.6299V21.3019C81.3615 20.5125 81.5748 19.9045 82.0015 19.4779C82.4388 19.0405 83.0522 18.8219 83.8415 18.8219H85.6975C86.4762 18.8219 87.0842 19.0405 87.5215 19.4779C87.9588 19.9045 88.1775 20.5125 88.1775 21.3019V22.0699C88.1775 22.2619 88.0815 22.3579 87.8895 22.3579H86.8815C86.7002 22.3579 86.6095 22.2619 86.6095 22.0699V21.3659C86.6095 20.5765 86.2255 20.1819 85.4575 20.1819H84.0655C83.2975 20.1819 82.9135 20.5765 82.9135 21.3659V26.5659C82.9135 27.3552 83.2975 27.7499 84.0655 27.7499H85.4575C86.2255 27.7499 86.6095 27.3552 86.6095 26.5659V25.8619C86.6095 25.6699 86.7002 25.5739 86.8815 25.5739H87.8895C88.0815 25.5739 88.1775 25.6699 88.1775 25.8619V26.6299C88.1775 27.4085 87.9588 28.0165 87.5215 28.4539C87.0842 28.8912 86.4762 29.1099 85.6975 29.1099ZM93.1381 29.1099H92.1301C91.9381 29.1099 91.8421 29.0192 91.8421 28.8379V20.3419C91.8421 20.2352 91.7888 20.1819 91.6821 20.1819H89.6661C89.4741 20.1819 89.3781 20.0912 89.3781 19.9099V19.0939C89.3781 18.9125 89.4741 18.8219 89.6661 18.8219H95.6021C95.7941 18.8219 95.8901 18.9125 95.8901 19.0939V19.9099C95.8901 20.0912 95.7941 20.1819 95.6021 20.1819H93.5861C93.4688 20.1819 93.4101 20.2352 93.4101 20.3419V28.8379C93.4101 29.0192 93.3194 29.1099 93.1381 29.1099Z" fill="#64E6F4"/>
</g>
<defs>
<filter id="filter0_f_43_223" x="35.749" y="17.8218" width="61.1412" height="12.288" filterUnits="userSpaceOnUse" color-interpolation-filters="sRGB">
<feFlood flood-opacity="0" result="BackgroundImageFix"/>
<feBlend mode="normal" in="SourceGraphic" in2="BackgroundImageFix" result="shape"/>
<feGaussianBlur stdDeviation="0.5" result="effect1_foregroundBlur_43_223"/>
</filter>
</defs>
</svg>
