<svg width="31" height="32" viewBox="0 0 31 32" fill="none" xmlns="http://www.w3.org/2000/svg">
<g opacity="0.75">
<path d="M3.42842 0.0101698C4.08163 -0.015883 4.93788 0.0119737 5.58862 0.0502087C5.79256 0.0620673 5.68929 0.115075 5.83007 0.125648C6.10542 0.146258 6.36194 0.120261 6.63403 0.144813C6.72421 0.153209 6.61196 0.237174 6.70652 0.244056C7.22466 0.281163 7.71484 0.259777 8.23973 0.277625C10.8252 0.365685 13.3666 0.397205 15.9836 0.435461C16.8465 0.448004 17.8955 0.524206 18.7868 0.490881C18.8909 0.486916 18.8288 0.413216 18.8486 0.407141C19.1591 0.31415 19.0559 0.462935 19.2586 0.482702C20.0632 0.560754 20.958 0.567542 21.7323 0.539099C22.0617 0.526782 21.7314 0.380395 22.0631 0.462561C22.0862 0.468112 22.0026 0.546377 22.0929 0.554724C22.2978 0.573498 22.6865 0.559509 22.8453 0.56571C23.1513 0.578057 23.202 0.577269 23.4914 0.578161C23.8871 0.580061 24.3577 0.618966 24.7823 0.601232C24.8729 0.597215 24.7529 0.516985 24.8974 0.503332C25.0421 0.489702 25.4248 0.496505 25.5538 0.515417C25.6828 0.534339 25.6279 0.597399 25.6507 0.611852C25.8386 0.733849 26.2812 0.564884 26.3382 0.560705C27.042 0.512447 27.6779 0.541117 28.3181 0.564517C28.6878 0.575501 29.0551 0.668886 29.3945 0.838205C30.1996 1.21748 30.7845 2.13585 30.7606 3C30.7605 3.0058 30.7605 3.01159 30.7605 3.01737C30.755 3.85623 30.7115 4.56718 30.719 5.38212C30.7197 5.46812 30.814 5.36734 30.815 5.47238C30.826 6.58839 30.8157 7.69664 30.752 8.80784C30.7456 8.91928 30.6627 8.77566 30.6513 8.88699C30.5833 9.56865 30.4198 10.6472 30.7804 11.0521C30.7663 11.5138 30.7517 12.0744 30.679 12.4875C30.6323 12.7538 30.542 12.4951 30.5805 12.8223C30.5891 12.8961 30.6681 12.8001 30.675 12.9108C30.7039 13.3767 30.6783 13.8857 30.7191 14.3466C30.7276 14.4404 30.7984 14.4148 30.8111 14.4413C30.9144 14.6646 30.7437 15.0362 30.7313 15.1172C30.6388 15.7342 30.6752 16.1847 30.6729 16.7594C30.6724 16.8928 30.7675 16.7351 30.7703 16.8634C30.784 17.529 30.7758 18.2185 30.7336 18.8702C30.724 19.0152 30.643 18.8819 30.6342 18.9512C30.5967 19.2566 30.7497 19.3243 30.7166 19.6173C30.7099 19.679 30.6405 19.6442 30.6329 19.6555C30.5133 19.8318 30.6827 19.985 30.6865 20.0304C30.7376 20.604 30.5607 20.9707 30.5858 21.5249C30.589 21.5912 30.6767 21.4417 30.6803 21.6281C30.7045 22.8697 30.6804 24.1828 30.6102 25.4118C30.5994 25.6028 30.5335 25.4664 30.5254 25.4785C30.3984 25.6744 30.5685 25.8012 30.5749 25.8635C30.621 26.3551 30.4784 26.8142 30.681 27.1482C30.6601 27.7663 30.6555 28.3835 30.6545 29C30.6875 30.2458 29.5481 31.3761 28.3181 31.3015C27.9096 31.285 27.5013 31.2607 27.0934 31.2248C27.0672 31.2227 27.1142 31.1389 27.0618 31.1351C26.4313 31.0881 26.5524 31.2183 26.1351 31.3775C26.03 31.4175 25.7103 31.2252 25.682 31.2111C25.579 31.1592 25.6859 31.0346 25.6514 31.0245C25.3658 30.9455 25.4123 31.3577 25.027 31.3579C25.015 31.3572 25.0656 31.2813 25.0333 31.2738C24.9328 31.2501 24.8332 31.2802 24.7349 31.2541C24.5099 31.1937 24.4298 30.9934 24.0861 31.11C24.0426 31.1251 24.109 31.3589 23.7651 31.3479C23.6279 31.3433 23.0209 31.3473 22.8508 31.3321C22.6809 31.317 22.7976 31.2416 22.7855 31.2384C22.3276 31.1387 22.5012 31.0974 22.2719 30.9499C22.0425 30.803 22.1061 31.1535 22.0126 31.1926C21.919 31.2316 21.5833 31.1494 21.5008 31.1208C21.4184 31.0922 21.5212 31.0443 21.4479 31.0282C20.9618 30.9225 21.2345 31.2021 21.0744 31.2578C20.6968 31.3895 20.4027 31.1296 20.057 31.1041C19.9634 31.0972 20.0398 31.1564 19.9565 31.162C19.6266 31.1831 19.4282 31.102 19.0529 31.1764C18.9915 31.1885 18.6881 31.3448 18.4917 31.2301C18.4639 31.2135 18.543 31.1488 18.4024 31.1342C18.1924 31.1125 17.8139 31.0983 17.5882 31.12C17.4215 31.136 17.6126 31.2427 17.4028 31.2096C17.3095 31.1948 17.4823 31.1323 17.3071 31.1097C17.1329 31.0871 16.6874 31.0898 16.5179 31.092C16.3486 31.0942 16.4413 31.1752 16.4276 31.1806C16.3448 31.2119 16.0201 31.2509 15.9914 31.2508C14.5438 31.2607 13.2089 31.1242 11.7995 31.1694C11.6889 31.1728 11.7626 31.2582 11.7457 31.2596C11.367 31.2954 11.6656 31.0684 11.4011 30.9924C11.4393 31.1657 11.2832 31.1343 11.0164 31.1533C10.8879 31.1626 10.9579 31.2297 10.9462 31.2365C10.7556 31.3384 10.6228 31.2068 10.5887 31.1799C10.4624 31.0809 10.3251 31.1979 10.2391 31.1317C10.1533 31.066 10.3509 30.9686 10.0951 30.9698C10.0233 31.0318 10.2132 31.1939 10.019 31.2202C9.28626 31.3195 7.91843 31.1924 7.32924 31.1792C6.74123 31.166 6.55132 31.1774 6.20868 31.155C5.58977 31.1145 5.81659 31.2347 5.43229 31.2898C5.04686 31.3448 5.23423 31.0489 5.17883 30.9853C5.12444 30.9217 5.06505 30.9872 4.9974 30.9522C4.92997 30.9173 5.07595 30.874 4.91736 30.8609C4.75868 30.8478 4.32483 30.9609 4.26859 31.0274C4.14968 31.1683 4.34518 31.3162 3.9253 31.2642C3.90116 31.2612 3.97953 31.1834 3.88706 31.1755C3.37146 31.1335 2.84179 31.1191 2.31812 31.0959C2.08509 31.0863 1.85671 31.0359 1.64883 30.9477C1.55397 30.9059 1.66997 30.8559 1.61721 30.8306C1.10218 30.5262 1.23581 30.7459 0.843369 30.6492C1.05063 30.5328 0.963123 30.338 0.73332 29.9806C0.604811 29.7556 0.546019 29.8357 0.416089 29.6911C0.375359 29.6456 0.38522 29.4376 0.337252 29.4117C0.181028 29.318 0.0179196 29.5479 0.052812 29C0.0528387 28.9998 0.0528654 28.9996 0.0528921 28.9994C0.0539738 28.992 0.0645271 28.9955 0.0779502 29C0.0956112 29.0067 0.118256 29.0148 0.130792 29C0.13577 28.9947 0.139168 28.9861 0.14005 28.9727C0.17148 28.5039 0.0199709 28.4478 0.00162277 27.9411C-0.0127743 27.5439 0.0796141 26.8375 0.09464 26.3852C0.33719 26.3947 0.281649 25.9675 0.114415 25.7942C0.121262 25.5007 0.111808 25.1837 0.134923 24.9C0.142804 24.8024 0.213028 24.8665 0.220616 24.8542C0.339646 24.6654 0.176946 24.5378 0.170568 24.4745C0.108564 23.7878 0.231877 23.2284 0.111364 22.5731C0.107023 22.5498 -0.0614592 22.5121 0.0615591 22.3369C0.070039 22.3256 0.146695 22.542 0.152623 22.2338C0.158564 21.9255 0.248883 21.3443 0.170812 20.9162C0.152016 20.8126 0.0152428 20.5507 0.122106 20.3404C0.136617 20.3124 0.184938 20.343 0.211827 20.3026C0.297506 20.1719 0.127212 20.1005 0.271886 19.9468C0.416552 19.7932 0.524897 19.4736 0.425083 19.042C0.422181 19.0282 0.287207 18.926 0.289342 18.7903C0.292864 18.5736 0.320982 18.2659 0.320103 18.0397C0.319634 17.9313 0.235821 18.0007 0.234288 17.9819C0.187323 17.2534 0.262041 16.735 0.294469 15.9546C0.300579 15.8116 0.186288 15.4005 0.276646 15.1235C0.375561 14.8194 0.787028 15.1319 0.688998 14.433C0.649789 14.151 0.127768 13.7941 0.398228 13.2875C0.33121 12.3049 0.46963 11.3962 0.373936 10.4109C0.369696 10.3666 0.224004 10.2265 0.225987 10.1224C0.229213 9.9677 0.297307 9.88282 0.301793 9.7724C0.322304 9.3097 0.264045 8.88628 0.273106 8.44017C0.276399 8.2708 0.346807 8.33003 0.350743 8.12801C0.354612 7.92612 0.261897 7.79151 0.306676 7.51793C0.340807 7.31131 0.530313 7.10473 0.552402 6.83047C0.365475 6.82002 0.369325 6.63166 0.319981 6.29687C0.310407 6.23252 0.245347 6.30152 0.237462 6.27108C0.203929 6.14719 0.257851 6.03253 0.221349 5.9149C0.212582 5.88628 0.148745 5.88493 0.137975 5.86154C0.0439633 5.6626 0.187558 5.33487 0.21256 5.27858C0.307511 5.06285 0.224484 4.96203 0.261876 4.79656C0.299262 4.63136 0.345999 4.87837 0.368687 4.68539C0.415614 4.28538 0.405304 3.77143 0.408238 3.36517C0.409014 3.20308 0.323802 3.31367 0.321934 3.29047C0.315628 3.19267 0.318879 3.09455 0.32243 3C0.330764 2.76856 0.381761 2.57583 0.305175 2.41077C0.800342 2.33206 0.301307 2.187 0.65466 1.79893C0.685121 1.77012 0.872472 1.86255 0.822591 1.98634C0.774855 2.10792 0.621629 2.25718 0.611333 2.44756C0.602748 2.49715 0.743248 2.76381 0.75613 2.78842C0.785309 2.89993 0.74018 2.95781 0.677532 3C0.607357 3.05608 0.516019 3.07153 0.506992 3.07969C0.323161 3.25456 0.532676 3.5878 0.547153 3.67555C0.613488 4.07701 0.569872 4.41809 0.617221 4.75387C0.647824 4.97348 0.850978 4.99497 0.84476 5.16741C0.824206 5.74067 0.540804 5.94076 0.786532 6.48096C0.838941 6.5968 1.06098 6.48168 0.886386 6.89673C0.875379 6.9228 0.715653 7.23095 0.816684 7.40899C0.829422 7.43134 0.894133 7.43064 0.899569 7.46012C0.934732 7.65775 0.883179 7.78955 0.90787 8.00484C0.932561 8.22011 0.969369 8.47897 0.947421 8.72476C0.934296 8.87288 0.81373 9.06294 0.784213 9.13385C0.699181 9.33407 0.838598 9.54875 0.735629 9.67279C0.632142 9.79787 0.474981 9.55334 0.408116 9.88134C0.57624 9.89348 0.748802 9.9214 0.91788 9.94092C0.91196 10.6597 0.857596 11.367 0.865023 12.0882C0.866112 12.1776 0.956496 12.0862 0.959994 12.1821C0.974353 12.5865 0.909921 12.9397 0.93558 13.3591C0.955787 13.6837 1.05148 14.0397 1.07559 14.3792C0.883213 14.5865 0.948522 15.0902 0.930941 15.4561C0.924866 15.5843 0.873485 15.5758 0.856723 15.6669C0.794728 16.0108 0.964733 15.8497 0.991488 15.9439C1.10567 16.3484 0.720873 16.3831 0.73038 16.86C0.730754 16.8852 0.935868 17.1941 0.948641 17.2366C1.03193 17.5069 0.877249 17.2813 0.862094 17.4505C0.834398 17.7593 0.785414 17.9739 0.845492 18.3363C0.863287 18.4419 0.991133 18.6954 0.892245 18.9005C0.879296 18.9275 0.811499 18.9126 0.807528 18.9343C0.741345 19.3276 0.954374 19.3379 1.02652 19.5627C1.09865 19.7874 0.951597 20.1346 0.909213 20.2052C0.799568 20.39 0.862355 20.0636 0.851596 20.0536C0.723549 19.936 0.745594 20.1892 0.734775 20.3826C0.525897 20.4106 0.538435 20.6812 0.724399 20.5832C0.744711 20.572 0.725232 20.4215 0.734775 20.3826C0.939712 20.5524 0.965959 20.8497 0.774447 21.1781C0.684689 21.3319 0.580035 21.1865 0.61832 21.6535C0.635603 21.8654 0.779426 21.7835 0.818637 21.9705C0.908101 22.3978 0.773938 22.953 0.795077 23.3935C0.802752 23.5533 0.881479 23.3976 0.889437 23.5069C0.910802 23.7968 0.851731 24.0525 0.881991 24.3437C0.884833 24.3701 0.967244 24.3056 0.968295 24.3962C0.977865 25.0827 0.92508 25.6805 0.923617 26.3972C0.922947 26.7435 0.9684 27.3627 0.959261 27.7214C0.949376 28.1218 0.896164 28.5815 0.867297 29C0.850953 29.1694 0.873294 29.3326 0.926905 29.4606C1.03314 29.6914 1.09464 29.6001 1.18858 29.6596C1.35847 29.7609 1.46258 30.1107 1.50164 30.1669C1.50125 30.172 1.32121 30.0507 1.3842 30.1569C1.3849 30.2705 1.50069 30.1665 1.50164 30.1669C1.50681 30.2136 1.89183 30.421 1.98548 30.4082C2.0326 30.41 2.02386 30.328 2.04689 30.3298C2.13793 30.3362 2.22839 30.3347 2.31812 30.3258C2.98127 30.2818 3.64639 30.2732 4.31839 30.3036C4.3326 30.3051 4.31119 30.3925 4.34463 30.3951C4.8122 30.4339 5.11158 30.3271 5.49721 30.2636C5.88277 30.2002 6.18854 30.2215 6.41678 30.3714C6.7077 30.3525 7.12507 30.4188 7.36526 30.4591C7.60543 30.4993 7.63894 30.3293 7.66007 30.3259C8.3192 30.2183 8.70023 30.3156 9.38405 30.3308C9.70916 30.3383 10.354 30.3136 10.706 30.295C10.9842 30.28 11.1518 30.3199 11.4082 30.2944C11.4429 30.291 11.4078 30.2153 11.4184 30.2124C11.7045 30.1218 11.567 30.3069 11.6261 30.3399C11.8402 30.4601 11.9725 30.5242 12.3389 30.4676C12.4234 30.4547 12.6695 30.1882 12.8236 30.1726C13.0238 30.1528 12.9482 30.2483 13.158 30.2252C13.1759 30.2233 13.1722 30.1644 13.3016 30.167C13.9023 30.1782 14.5573 30.2125 15.1816 30.2066C15.2669 30.2061 15.1576 30.1126 15.2808 30.1102C15.859 30.0991 16.4927 30.1026 17.0559 30.1463C17.1945 30.1574 17.1076 30.2228 17.1377 30.2423C17.3225 30.3599 17.5845 30.189 17.6278 30.1858C18.659 30.1037 19.4483 30.2583 20.4994 30.1847C20.5566 30.1803 20.9971 29.9972 21.1936 30.1543C21.207 30.1647 21.4014 30.3254 21.5733 30.2155C21.584 30.2087 21.4628 30.1259 21.6742 30.1344C21.8856 30.1428 22.2259 30.0875 22.5164 30.1784C22.6084 30.2071 22.8259 30.3674 23.1003 30.2396C23.1182 30.2307 23.5418 29.9417 23.693 30.1411C23.7175 30.1739 23.6919 30.3849 24.0194 30.2767C24.082 30.2557 23.9684 30.2087 24.1333 30.1793C24.3858 30.134 24.7205 30.1905 25.031 30.0965C25.0852 30.0799 25.3157 29.9367 25.5006 30.0454C25.5296 30.0624 25.4745 30.1328 25.5722 30.1407C26.0366 30.1785 26.5228 30.1314 26.9942 30.1801C27.1612 30.1973 27.0759 30.3111 27.2499 30.3416C27.424 30.3721 27.7748 30.4015 27.957 30.3495C28.1392 30.2974 27.9401 30.1159 28.2131 30.1014C28.2481 30.0995 28.2831 30.0978 28.3181 30.0963C28.8815 30.0646 29.4474 29.6275 29.4727 29C29.4752 28.8999 29.4772 28.7998 29.4785 28.6996C29.4808 28.5239 29.4159 28.6696 29.4146 28.4106C29.4098 27.4557 29.3489 25.8072 29.4869 24.9786C29.5974 24.3148 29.6816 25.1502 29.7265 24.6429C29.748 24.3981 29.537 24.1333 29.5304 24.0742C29.4629 23.4969 29.5564 23.0957 29.5277 22.5761C29.5217 22.4688 29.4362 22.574 29.4321 22.4827C29.4173 22.1708 29.4554 21.843 29.4485 21.5449C29.4451 21.4112 29.3798 21.4358 29.3849 21.3128C29.3962 21.0184 29.4236 20.758 29.4848 20.471C29.4904 20.4449 29.5717 20.6213 29.5747 20.4035C29.5793 20.0509 29.6397 19.6133 29.5774 19.2077C29.5586 19.0874 29.4093 19.0827 29.5124 18.824C29.5339 18.7697 29.7132 18.839 29.5583 18.5376C29.5326 18.4869 29.3237 17.9807 29.4583 17.7323C29.4938 17.6668 29.6404 17.4995 29.6174 17.3548C29.6137 17.3352 29.5335 17.4138 29.5257 17.2939C29.4996 16.8713 29.5081 16.4283 29.483 15.9941C29.4761 15.8782 29.3932 16.0509 29.3856 15.8781C29.3646 15.4028 29.3857 14.8095 29.4117 14.3448C29.4214 14.1735 29.4902 14.2919 29.4976 14.2795C29.6193 14.079 29.4551 13.9605 29.4455 13.894C29.3882 13.4801 29.4653 13.165 29.4449 12.7836C29.4395 12.6784 29.3612 12.753 29.3542 12.732C29.286 12.5147 29.4266 12.6766 29.4421 12.5391C29.486 12.1537 29.4797 11.7241 29.4697 11.3344C29.4659 11.1913 29.3751 11.3522 29.3728 11.2237C29.3571 10.4634 29.3658 9.67302 29.4159 8.93101C29.4254 8.7913 29.4954 8.8792 29.5113 8.85008C29.623 8.64939 29.4707 8.35526 29.4561 8.28758C29.3899 7.97985 29.4517 7.86032 29.4402 7.58856C29.3827 6.26099 29.4236 4.62181 29.4489 3.36866C29.4514 3.24373 29.4541 3.12094 29.457 3C29.4897 2.3525 28.9594 1.7896 28.3181 1.78648C28.0112 1.78383 27.6975 1.78377 27.3711 1.78739C27.2722 1.7884 27.372 1.88139 27.2866 1.88345C26.1851 1.90587 25.1007 1.86953 23.997 1.89639C23.9064 1.89843 24.037 1.98659 23.8916 1.99283C23.5934 2.00624 23.2157 2.00145 22.9142 1.9733C22.7672 1.95974 22.9644 1.88409 22.8164 1.87198C22.4718 1.84362 22.1023 1.83734 21.7483 1.85147C21.5977 1.85768 21.825 1.94784 21.6291 1.94888C20.2953 1.95783 18.9853 1.97336 17.6374 1.8566C17.5449 1.84858 17.4639 1.66533 17.2674 1.70047C17.2526 1.75133 17.2534 1.81115 17.2469 1.86551C15.3052 1.89479 13.3832 1.83127 11.436 1.82144C11.3539 1.82105 11.4958 1.91815 11.3368 1.91788C10.4169 1.91644 9.52357 1.94334 8.58257 1.84683C8.48921 1.8374 8.53711 1.66658 8.26196 1.69242C8.21344 1.69713 7.79904 1.71991 7.6919 1.75699C7.67735 1.76258 7.75295 1.84231 7.61942 1.84464C6.84342 1.85674 6.03022 1.83854 5.25556 1.78983C5.13054 1.78181 5.26368 1.69691 5.17463 1.69046C4.54298 1.64539 3.85591 1.70993 3.25233 1.63285C2.84832 1.58094 2.9979 1.43417 2.78321 1.28971C2.75284 1.26932 2.50266 1.26609 2.48973 1.18204C2.45651 0.970681 2.57769 0.739242 2.52797 0.513952C2.51746 0.465427 2.18241 0.517692 2.38078 0.400427C2.39464 0.392579 2.63756 0.35366 2.69739 0.31388C2.73904 0.286376 2.66398 0.200894 2.74897 0.165687C2.83395 0.130513 2.92734 0.202169 3.06824 0.160804C3.20908 0.118927 3.14715 0.0216813 3.42842 0.0101698ZM8.44669 30.6389C8.66908 30.7205 8.7019 30.4214 8.46136 30.493C8.44972 30.4968 8.43522 30.6349 8.44669 30.6389ZM0.631992 11.363C0.50007 11.6537 0.694048 11.8527 0.795932 11.6476C0.897706 11.4425 0.671982 11.2744 0.631992 11.363ZM0.535679 8.34812C0.431664 8.68792 0.855793 8.74141 0.770053 8.37747C0.765208 8.35631 0.541718 8.32826 0.535679 8.34812ZM3.77882 1.24857C3.77575 1.2446 3.59591 1.24073 3.59161 1.24466C3.49585 1.33965 3.85546 1.34733 3.77882 1.24857ZM0.430821 5.3564C0.373448 5.46248 0.439678 5.76789 0.511021 5.63609C0.568414 5.52999 0.502189 5.22429 0.430821 5.3564ZM20.0476 30.9581C20.0511 30.9626 20.1801 30.9666 20.1775 30.9414C20.1687 30.8602 19.9893 30.8831 20.0476 30.9581ZM1.92962 1.14772C1.58224 1.21022 1.28913 1.29065 1.14889 1.28388C1.01342 1.28636 1.02594 1.13174 1.45175 0.9566C1.59871 0.896487 1.18863 1.20616 1.38462 1.14563C1.71619 1.04762 1.92039 0.77153 2.31124 0.879807C2.36822 0.893633 1.95689 1.13074 1.92848 1.14846C1.92886 1.14821 1.92924 1.14797 1.92962 1.14772ZM8.57476 30.9981C8.5792 31.0021 8.75768 31.0058 8.76196 31.0019C8.85861 30.907 8.49906 30.8994 8.57476 30.9981ZM27.571 31.143C27.5808 31.1515 27.995 31.1593 28.0085 31.1516C28.2246 30.9963 27.3872 30.9799 27.571 31.143ZM0.10111 26.3781C0.00558528 26.1833 -0.00566167 25.9504 0.114293 25.7951C0.107925 25.9887 0.106987 26.1835 0.10111 26.3781Z" fill="#07596E"/>
<path d="M7.32633 9.55273C7.41519 9.54125 7.53167 9.52738 7.6202 9.51961C7.64794 9.51714 7.63389 9.5217 7.65304 9.52031C7.6905 9.51772 7.72539 9.51245 7.76241 9.51043C7.77467 9.50983 7.75941 9.5173 7.77227 9.51664C7.84275 9.51326 7.90944 9.50602 7.98084 9.50175C8.33255 9.48197 8.67827 9.46653 9.03428 9.45456C9.15166 9.45034 9.29436 9.46116 9.41561 9.44788C9.42976 9.44626 9.42132 9.42872 9.42402 9.42711C9.46625 9.40204 9.45221 9.43924 9.47979 9.44291C9.58924 9.45728 9.71096 9.45551 9.8163 9.44345C9.86111 9.43827 9.81618 9.39919 9.8613 9.42018C9.86443 9.42162 9.85306 9.44408 9.86535 9.44596C9.89322 9.45024 9.9461 9.44438 9.9677 9.44539C10.0093 9.44751 10.0162 9.44708 10.0556 9.446C10.1094 9.44466 10.1734 9.45455 10.2312 9.44733C10.2435 9.44568 10.2272 9.42127 10.2469 9.41627C10.2665 9.41125 10.3186 9.41132 10.3361 9.41673C10.3537 9.42213 10.3462 9.4426 10.3493 9.44713C10.3749 9.48566 10.4351 9.42953 10.4429 9.42767C10.5841 9.39928 10.7053 9.42754 10.8379 9.42416C10.9385 9.42126 11.0462 9.40658 11.1419 9.40547C11.2561 9.40425 11.3528 9.41866 11.4636 9.41324C11.4753 9.41268 11.4616 9.37579 11.4759 9.37498C11.6277 9.36632 11.7785 9.36584 11.9296 9.38922C11.9448 9.39162 11.9253 9.4268 11.9404 9.43133C12.0331 9.45783 12.1799 9.52825 12.2349 9.37055C12.2978 9.37536 12.374 9.38013 12.4302 9.41147C12.4664 9.43169 12.4312 9.47223 12.4758 9.45462C12.4858 9.45068 12.4727 9.41568 12.4878 9.41239C12.5512 9.3985 12.6204 9.40904 12.6831 9.38962C12.6959 9.38557 12.6924 9.3535 12.696 9.34764C12.7264 9.30009 12.7769 9.37684 12.7879 9.38245C12.8719 9.42358 12.9332 9.40632 13.0113 9.40636C13.0295 9.4064 13.008 9.36242 13.0255 9.36083C13.116 9.35313 13.2098 9.35549 13.2985 9.37444C13.3182 9.37877 13.3001 9.41739 13.3095 9.42144C13.351 9.43894 13.3603 9.36607 13.4001 9.38135C13.4085 9.38449 13.4038 9.41762 13.4053 9.42124C13.4293 9.47813 13.4501 9.39707 13.4563 9.39518C13.5343 9.36984 13.5842 9.45447 13.6596 9.44202C13.6686 9.44042 13.6483 9.39816 13.6736 9.39623C13.8425 9.3831 14.0212 9.39338 14.1884 9.42732C14.2143 9.43254 14.1958 9.46515 14.1974 9.46915C14.2241 9.53175 14.2413 9.44772 14.2498 9.4445C14.3167 9.4214 14.3791 9.492 14.4246 9.3913C14.6518 9.4185 14.8782 9.38715 15.1039 9.42064C15.1594 9.4289 15.215 9.44109 15.2705 9.45905C15.274 9.4601 15.2676 9.50198 15.2748 9.50389C15.3605 9.52744 15.3441 9.46235 15.4008 9.38291C15.4151 9.36298 15.4586 9.45903 15.4625 9.46605C15.4765 9.49198 15.4619 9.55416 15.4666 9.55919C15.5055 9.59859 15.4992 9.39296 15.5516 9.39304C15.5532 9.39339 15.5463 9.43119 15.5507 9.43496C15.5644 9.44679 15.5779 9.4318 15.5913 9.44483C15.6219 9.47501 15.6328 9.57469 15.6796 9.51673C15.6855 9.50921 15.6764 9.39288 15.7232 9.39854C15.7419 9.40088 15.8245 9.39921 15.8476 9.40681C15.8707 9.4144 15.8548 9.45168 15.8565 9.4533C15.9188 9.50282 15.8952 9.5232 15.9264 9.59618C15.9576 9.66882 15.9489 9.49554 15.9616 9.47624C15.9744 9.45701 16.02 9.49773 16.0313 9.51183C16.0425 9.52595 16.0285 9.54954 16.0385 9.55753C16.1046 9.60962 16.0675 9.47184 16.0893 9.44451C16.1406 9.37997 16.1806 9.50793 16.2277 9.52041C16.2404 9.52381 16.23 9.49478 16.2413 9.4921C16.2862 9.48192 16.3132 9.52157 16.3643 9.48546C16.3726 9.47954 16.4139 9.40375 16.4406 9.45965C16.4444 9.46769 16.4336 9.49913 16.4528 9.50623C16.4813 9.5169 16.5328 9.52384 16.5635 9.51346C16.5862 9.5058 16.5602 9.45416 16.5887 9.47031C16.6014 9.4775 16.5779 9.50754 16.6017 9.51852C16.6254 9.52947 16.686 9.52827 16.7091 9.52729C16.7321 9.52629 16.7195 9.48747 16.7214 9.48486C16.7326 9.46992 16.7768 9.45153 16.7807 9.45161C16.9776 9.44856 17.1592 9.51352 17.351 9.49352C17.366 9.49203 17.356 9.45273 17.3583 9.4521C17.4098 9.43615 17.3692 9.54003 17.4052 9.57489C17.4 9.49554 17.4212 9.50999 17.4575 9.50152C17.475 9.49739 17.4655 9.46677 17.4671 9.46365C17.493 9.41752 17.511 9.47758 17.5157 9.48979C17.5329 9.53479 17.5515 9.48189 17.5632 9.51191C17.5749 9.54162 17.548 9.58563 17.5828 9.58503C17.5926 9.55709 17.5668 9.48381 17.5932 9.47217C17.6929 9.42855 17.8789 9.48742 17.9591 9.49345C18.0391 9.49981 18.0649 9.4951 18.1115 9.50507C18.1957 9.52296 18.1649 9.47144 18.2171 9.44887C18.2696 9.42645 18.2441 9.55073 18.2516 9.5776C18.259 9.60435 18.2671 9.5768 18.2763 9.59147C18.2855 9.6061 18.2656 9.62438 18.2872 9.62974C18.3088 9.63499 18.3678 9.5875 18.3754 9.56003C18.3916 9.50168 18.365 9.44013 18.4221 9.46243C18.4254 9.46374 18.4148 9.49572 18.4273 9.49908C18.5272 9.52459 18.631 9.52672 18.7308 9.54811C18.7445 9.55108 18.7323 9.58525 18.7403 9.58733C18.8234 9.60889 18.7937 9.55145 18.8393 9.4888C18.829 9.57272 18.8542 9.62411 18.9174 9.62392C18.9553 9.62392 18.9488 9.58788 18.9733 9.56259C18.9807 9.55501 19.0075 9.57957 19.0124 9.56278C19.0284 9.50807 19.0032 9.44651 19.0682 9.47195C19.0711 9.47314 19.062 9.50276 19.0719 9.50468C19.1356 9.51705 19.1433 9.46084 19.2122 9.45565C19.2662 9.45167 19.3623 9.48681 19.4239 9.49285C19.4226 9.57828 19.4807 9.55837 19.5042 9.50093C19.5442 9.50385 19.5873 9.50128 19.6259 9.50961C19.6392 9.51244 19.6304 9.53598 19.6321 9.53856C19.6578 9.5787 19.6752 9.52419 19.6838 9.52225C19.7772 9.50313 19.8533 9.54347 19.9424 9.50654C19.9456 9.50517 19.9507 9.45263 19.9746 9.49154C19.9761 9.49416 19.9467 9.51769 19.9886 9.52007C20.0305 9.5227 20.1096 9.55047 20.1678 9.5278C20.1819 9.52225 20.2176 9.48304 20.2462 9.51463C20.25 9.51889 20.2458 9.53283 20.2513 9.54067C20.2691 9.56546 20.2788 9.51671 20.2997 9.55822C20.3206 9.59978 20.3641 9.62905 20.4228 9.60082C20.4247 9.59997 20.4386 9.56288 20.457 9.56358C20.4865 9.56465 20.5284 9.5722 20.5591 9.57193C20.5739 9.57181 20.5644 9.5498 20.567 9.5494C20.6661 9.53802 20.7366 9.55804 20.8428 9.56578C20.8622 9.56705 20.9182 9.54102 20.9558 9.56197C20.9972 9.58438 20.9547 9.67784 21.0498 9.65256C21.0881 9.64152 21.1367 9.53163 21.2056 9.58774C21.3393 9.57411 21.4629 9.59824 21.5969 9.5806C21.6029 9.57979 21.622 9.55606 21.6362 9.55662C21.6572 9.55737 21.6687 9.56818 21.6838 9.56887C21.7467 9.572 21.8043 9.56357 21.865 9.56527C21.888 9.56584 21.88 9.5753 21.9075 9.57571C21.9349 9.57601 21.9532 9.56431 21.9905 9.57001C22.0186 9.57441 22.0467 9.59646 22.084 9.59776C22.0854 9.57666 22.111 9.57685 22.1566 9.57161C22.1653 9.57062 22.1559 9.56382 22.1601 9.56303C22.1769 9.55975 22.1925 9.56536 22.2085 9.56188C22.2124 9.56105 22.2126 9.5548 22.2158 9.55381C22.2428 9.54544 22.2874 9.56 22.2951 9.56205C22.3244 9.57065 22.3381 9.56353 22.3607 9.56685C22.3831 9.56993 22.3495 9.57371 22.3758 9.57543C22.4302 9.57876 22.5001 9.577 22.5554 9.57667C22.5774 9.57648 22.5624 9.57177 22.5655 9.57163C22.6111 9.57069 22.6572 9.57446 22.6825 9.56723C22.7141 9.58566 22.71 9.56552 22.7752 9.56976C22.7803 9.57011 22.7869 9.57629 22.7672 9.57778C22.7474 9.57936 22.7176 9.57758 22.6902 9.58014C22.6837 9.58054 22.6466 9.59075 22.6416 9.5918C22.6019 9.59867 22.5963 9.58254 22.5942 9.58156C22.5704 9.57184 22.5251 9.58427 22.5132 9.58592C22.4585 9.59183 22.4121 9.5903 22.3665 9.59548C22.3366 9.59889 22.3337 9.61625 22.3102 9.6172C22.2322 9.62097 22.205 9.5925 22.1315 9.62161C22.1158 9.62797 22.1314 9.65158 22.075 9.63589C22.0714 9.63511 22.0295 9.61851 22.0053 9.63182C22.0022 9.63353 22.0023 9.64138 21.9983 9.6423C21.9714 9.64839 21.9535 9.64308 21.9242 9.64808C21.8949 9.65312 21.8597 9.66065 21.8263 9.65986C21.8061 9.65948 21.7803 9.64362 21.7706 9.63969C21.7434 9.62834 21.7142 9.65075 21.6973 9.6358C21.6803 9.62031 21.7136 9.59546 21.669 9.58556C21.6673 9.61199 21.6635 9.63929 21.6608 9.66619C21.5631 9.67158 21.4668 9.66759 21.3687 9.67413C21.3566 9.67501 21.369 9.6913 21.356 9.69278C21.301 9.69917 21.2529 9.68937 21.1959 9.69788C21.1517 9.70453 21.1033 9.72792 21.0571 9.73662C21.0289 9.69658 20.9604 9.71447 20.9106 9.71347C20.8931 9.71305 20.8943 9.701 20.8819 9.69769C20.8351 9.68532 20.857 9.72449 20.8442 9.73161C20.7892 9.76265 20.7845 9.66984 20.7196 9.67413C20.7162 9.67417 20.6742 9.72762 20.6684 9.73139C20.6316 9.75467 20.6623 9.71357 20.6393 9.71082C20.5973 9.70581 20.5681 9.69394 20.5188 9.7121C20.5044 9.71735 20.4699 9.75385 20.442 9.72835C20.4384 9.72498 20.4404 9.70634 20.4374 9.70538C20.3839 9.68925 20.3825 9.74828 20.352 9.77042C20.3214 9.7927 20.2742 9.75369 20.2645 9.74175C20.2394 9.71125 20.2838 9.7274 20.2852 9.72424C20.3012 9.68696 20.2667 9.69454 20.2404 9.6923C20.2366 9.63187 20.1998 9.63607 20.2131 9.69019C20.2146 9.69608 20.2351 9.6897 20.2404 9.6923C20.2173 9.75241 20.1769 9.76332 20.1322 9.70781C20.1113 9.68168 20.1311 9.64964 20.0675 9.66268C20.0387 9.66863 20.0498 9.71226 20.0244 9.72528C19.9663 9.75541 19.8908 9.71653 19.8308 9.72512C19.8091 9.72839 19.8303 9.75301 19.8154 9.7562C19.776 9.76488 19.7412 9.74695 19.7016 9.75854C19.698 9.75964 19.7067 9.78659 19.6944 9.78752C19.601 9.79527 19.5197 9.78094 19.4222 9.78435C19.3751 9.78599 19.2909 9.80584 19.2421 9.80465C19.1575 9.80294 19.0534 9.76176 18.9812 9.77496C18.9341 9.78361 18.9444 9.81482 18.9242 9.83719C18.8852 9.88091 18.8163 9.80833 18.807 9.79657C18.8067 9.79617 18.8472 9.78727 18.8256 9.77148C18.813 9.73744 18.8074 9.79638 18.807 9.79657C18.8009 9.7892 18.7199 9.78436 18.7038 9.79111C18.695 9.7948 18.6999 9.82567 18.6954 9.82703C18.587 9.85878 18.4785 9.87178 18.3687 9.86059C18.3667 9.86 18.3696 9.82363 18.3651 9.82269C18.3015 9.80844 18.2608 9.8543 18.2083 9.88315C18.1558 9.91191 18.1143 9.90481 18.0832 9.84132C18.0436 9.85066 17.9869 9.82369 17.9542 9.80692C17.9215 9.79014 17.9169 9.86455 17.9141 9.86612C17.8244 9.91606 17.7726 9.87508 17.6796 9.87071C17.6353 9.86856 17.5476 9.88197 17.4997 9.89172C17.4619 9.89957 17.4391 9.88197 17.4042 9.89451C17.3995 9.89619 17.4043 9.93074 17.4028 9.93212C17.3639 9.97479 17.3826 9.88934 17.3746 9.87437C17.3454 9.8199 17.3274 9.79056 17.2776 9.81759C17.2661 9.82371 17.2326 9.94797 17.2117 9.95588C17.1844 9.96584 17.1947 9.92111 17.1662 9.93261C17.1637 9.93355 17.1642 9.96101 17.1466 9.96028C17.0649 9.95726 16.9758 9.94326 16.8909 9.94794C16.8793 9.94849 16.8942 9.9925 16.8774 9.99405C16.7987 10.0013 16.7125 10.0018 16.6359 9.98231C16.6171 9.97737 16.6289 9.94561 16.6248 9.93633C16.5996 9.88011 16.564 9.9631 16.5581 9.96484C16.4178 10.0074 16.3105 9.93382 16.1675 9.97174C16.1597 9.97392 16.0998 10.0649 16.0731 9.98796C16.0712 9.98286 16.0448 9.90395 16.0214 9.95839C16.0199 9.9618 16.0364 10.0024 16.0077 9.9986C15.9789 9.99479 15.9326 10.0227 15.8931 9.97812C15.8806 9.9641 15.851 9.8849 15.8137 9.94857C15.8112 9.95296 15.7536 10.097 15.733 9.99817C15.7297 9.98189 15.7332 9.87703 15.6886 9.93109C15.6801 9.94158 15.6956 9.96487 15.6732 9.97965C15.6388 10.0024 15.5933 9.97461 15.551 10.0217C15.5437 10.03 15.5123 10.1017 15.4871 10.0476C15.4832 10.0391 15.4907 10.004 15.4774 10.0001C15.4142 9.98155 15.3481 10.0053 15.284 9.98113C15.2612 9.97262 15.2729 9.91569 15.2492 9.90048C15.2255 9.88527 15.1778 9.87065 15.153 9.89667C15.1282 9.92271 15.1553 10.0134 15.1182 10.0207C15.1134 10.0216 15.1086 10.0225 15.1039 10.0233C14.9473 10.0491 14.7921 9.99824 14.6356 9.98976C14.6117 9.98845 14.6315 10.0209 14.5963 10.0213C14.4664 10.0229 14.2421 10.0503 14.1294 9.98074C14.0391 9.92524 14.1528 9.88515 14.0838 9.86231C14.0505 9.85149 14.0144 9.95463 14.0064 9.95774C13.9279 9.98967 13.8733 9.94311 13.8026 9.95598C13.788 9.95864 13.8023 10.0005 13.7899 10.0023C13.7475 10.0087 13.7029 9.98928 13.6623 9.99187C13.6441 9.99312 13.6475 10.0247 13.6308 10.0219C13.5907 10.0156 13.5553 10.0016 13.5162 9.97135C13.5127 9.96861 13.5367 9.93006 13.5071 9.92805C13.4591 9.92486 13.3996 9.895 13.3444 9.92355C13.328 9.93215 13.3274 10.0029 13.2922 9.95323C13.2848 9.94283 13.2942 9.85821 13.2532 9.93061C13.2463 9.94277 13.1775 10.0393 13.1437 9.97502C13.1348 9.95812 13.112 9.88884 13.0923 9.89922C13.0897 9.90087 13.1004 9.93865 13.084 9.94189C13.0265 9.95264 12.9663 9.94702 12.9072 9.95692C12.8915 9.95961 12.915 9.99863 12.8914 10.0014C12.8268 10.0089 12.7461 9.99632 12.6829 9.98236C12.6596 9.97713 12.6757 9.94657 12.674 9.94311C12.6467 9.88722 12.6306 9.96099 12.6215 9.96494C12.5652 9.98876 12.5224 9.95258 12.4705 9.95985C12.4562 9.96173 12.4663 9.99691 12.4635 9.99991C12.4339 10.029 12.4559 9.96744 12.4372 9.95987C12.3848 9.93848 12.3264 9.93924 12.2734 9.94156C12.2539 9.94245 12.2758 9.98291 12.2583 9.9832C12.1549 9.98561 12.0473 9.97664 11.9464 9.95099C11.9274 9.9461 11.9394 9.91727 11.9354 9.91039C11.9081 9.86247 11.8681 9.92469 11.8589 9.9302C11.817 9.95584 11.8008 9.9294 11.7638 9.93249C11.5832 9.94754 11.3602 9.91867 11.1897 9.90008C10.9676 9.87544 10.7952 9.84295 10.5834 9.83713C10.5699 9.83669 10.5835 9.86885 10.5719 9.86881C10.422 9.86656 10.2745 9.84508 10.1244 9.84282C10.1121 9.84254 10.1298 9.87055 10.11 9.87089C10.0695 9.87175 10.0181 9.86603 9.97708 9.85458C9.95708 9.84908 9.98391 9.82914 9.96377 9.82416C9.91689 9.81259 9.86663 9.80748 9.81847 9.80795C9.79798 9.80817 9.8289 9.83553 9.80226 9.83372C9.62081 9.82211 9.44261 9.8087 9.25924 9.76697C9.24667 9.76406 9.23564 9.72179 9.20891 9.72804C9.2069 9.73927 9.20701 9.75264 9.20613 9.76471C8.94198 9.74912 8.68053 9.7137 8.41564 9.68987C8.40447 9.6888 8.42378 9.70459 8.40215 9.70245C8.27701 9.6904 8.15549 9.67998 8.02748 9.65754C8.01478 9.65536 8.02129 9.63873 7.98386 9.63842C7.97726 9.63839 7.92089 9.63605 7.90631 9.63799C7.90433 9.63828 7.91462 9.6463 7.89645 9.64474C7.79089 9.63558 7.68027 9.62258 7.57489 9.61021C7.55788 9.60824 7.57599 9.60577 7.56388 9.60442C7.47795 9.59565 7.38449 9.58964 7.30238 9.58147C7.24742 9.57648 7.26777 9.57624 7.23856 9.57371C7.23443 9.5734 7.2004 9.57218 7.19864 9.57195C7.19412 9.57145 7.2106 9.5703 7.20384 9.56966C7.20274 9.5696 7.1753 9.57141 7.17529 9.57141C7.17529 9.57141 7.17529 9.57141 7.17529 9.57141C7.17529 9.57141 7.17768 9.57126 7.18382 9.57077C7.1857 9.57065 7.21875 9.56797 7.22689 9.56696C7.23255 9.56626 7.22234 9.5667 7.2339 9.56527C7.24546 9.56373 7.25817 9.56313 7.27734 9.56068C7.29649 9.5581 7.28807 9.55765 7.32633 9.55273ZM17.8071 9.73098C17.7768 9.69526 17.7724 9.8279 17.8051 9.79548C17.8067 9.79376 17.8086 9.73273 17.8071 9.73098ZM21.4674 9.62725C21.4278 9.60459 21.4008 9.64083 21.4287 9.65829C21.4566 9.67514 21.4794 9.63383 21.4674 9.62725ZM21.8775 9.60079C21.8313 9.58725 21.824 9.64709 21.8735 9.63264C21.8764 9.63181 21.8802 9.60154 21.8775 9.60079ZM7.374 9.57756C7.37358 9.57745 7.34912 9.57663 7.34853 9.5767C7.33551 9.57821 7.38442 9.58045 7.374 9.57756ZM22.2845 9.58154C22.2701 9.57647 22.2285 9.58308 22.2465 9.58959C22.2609 9.59457 22.3025 9.58754 22.2845 9.58154ZM16.2289 9.59194C16.2285 9.58976 16.2109 9.5878 16.2113 9.60015C16.2125 9.63993 16.2369 9.62865 16.2289 9.59194ZM22.9762 9.57217C22.874 9.57476 22.812 9.56429 22.9233 9.56842C22.9435 9.56888 22.8799 9.56924 22.9056 9.57021C22.9525 9.57098 22.9837 9.57004 23.0316 9.5714C23.0402 9.57118 22.982 9.57172 22.976 9.57218C22.9761 9.57218 22.9761 9.57218 22.9762 9.57217ZM17.7896 9.57224C17.789 9.57049 17.7648 9.56882 17.7642 9.57056C17.751 9.61274 17.7999 9.61592 17.7896 9.57224ZM15.2055 9.49991C15.2042 9.49569 15.1478 9.49174 15.146 9.49563C15.1166 9.57326 15.2305 9.58146 15.2055 9.49991ZM19.4248 9.49513C19.4513 9.46194 19.483 9.45909 19.5041 9.50089C19.4778 9.49831 19.4513 9.49759 19.4248 9.49513Z" fill="#64E6F4"/>
<g filter="url(#filter0_f_34_287)">
<path d="M7.95282 9.66453C7.93392 9.66344 7.90725 9.65461 7.88495 9.65197C7.79156 9.64054 7.75695 9.63354 7.67245 9.62345C7.54716 9.61021 7.1753 9.5691 7.17529 9.57141C7.17529 9.57141 7.17533 9.57141 7.1754 9.57142C7.17671 9.57161 7.20833 9.57268 7.21303 9.57219C7.21771 9.57168 7.2142 9.56929 7.25912 9.56515C7.32425 9.55886 7.4805 9.55237 7.51524 9.55091C7.53899 9.54937 7.56822 9.54491 7.59859 9.54228C7.6965 9.53354 7.74774 9.534 7.83596 9.51501C7.87124 9.51864 7.90653 9.52329 7.94181 9.52894C7.98785 9.52273 8.05763 9.52997 8.0856 9.52837C8.10855 9.52686 8.12199 9.51902 8.14591 9.51738C8.17273 9.51545 8.21392 9.52183 8.26271 9.51844C8.3427 9.51289 8.35693 9.48889 8.40493 9.48254C8.45469 9.47574 8.53209 9.48507 8.59559 9.47175C8.60356 9.46822 8.61152 9.46465 8.61949 9.46104C8.61378 9.4545 8.60807 9.44804 8.60237 9.44165C8.63435 9.43575 8.64811 9.449 8.6775 9.44717C8.71207 9.44501 8.72972 9.42932 8.75299 9.42743C8.77205 9.4259 8.7979 9.4358 8.82261 9.43327C8.85865 9.42957 8.85077 9.41234 8.87016 9.40734C8.87789 9.40553 9.02094 9.38268 9.02901 9.38167C9.09038 9.37534 9.09572 9.40229 9.14466 9.40119C9.2804 9.3983 9.41974 9.36421 9.54529 9.34379C9.60135 9.33486 9.65985 9.33201 9.71575 9.33333C9.6277 9.4266 9.82256 9.48674 9.74969 9.34992C9.81189 9.36593 9.85598 9.32428 9.91495 9.32653C9.95308 9.32817 9.97947 9.34723 10.0339 9.34336C10.1306 9.33702 10.2362 9.26582 10.264 9.37972C10.3775 9.35331 10.4757 9.39323 10.5166 9.28296C10.5458 9.27421 10.6208 9.33508 10.6536 9.34285C10.6846 9.34938 10.9227 9.37054 10.9616 9.37132C11.0006 9.37165 11.0687 9.3713 11.1015 9.3595C11.1427 9.34543 11.1715 9.21582 11.2449 9.3627C11.3302 9.34766 11.3606 9.35066 11.4399 9.3662C11.4543 9.36901 11.4559 9.39201 11.4643 9.39181C11.4816 9.39138 11.511 9.37346 11.5418 9.37045C11.5926 9.36546 11.6215 9.41434 11.6159 9.33873C11.6493 9.32496 11.6828 9.31103 11.7162 9.29694C11.728 9.31134 11.7397 9.3258 11.7514 9.34034C11.7693 9.32358 11.7872 9.30671 11.8051 9.28973C11.7841 9.40272 11.91 9.33284 11.8691 9.2689C11.9339 9.28991 11.9988 9.31156 12.0636 9.3338C12.0546 9.46581 12.206 9.34607 12.1933 9.27313C12.2007 9.273 12.2081 9.27287 12.2155 9.27274C12.2805 9.30645 12.3401 9.2754 12.4193 9.29754C12.4985 9.31993 12.491 9.33359 12.5151 9.39659C12.5338 9.39265 12.5524 9.3887 12.571 9.38473C12.6688 9.20711 12.6515 9.51261 12.8189 9.3744C12.8724 9.48592 13.0042 9.42612 13.0917 9.39004C13.1018 9.38588 13.102 9.36364 13.1156 9.35657C13.1487 9.33952 13.2332 9.36713 13.2303 9.29479C13.2596 9.31522 13.2888 9.33578 13.3181 9.35645C13.342 9.34291 13.3659 9.32933 13.3898 9.31569C13.3897 9.29288 13.3896 9.27008 13.3895 9.24727C13.4376 9.32418 13.5133 9.29328 13.5506 9.31145C13.558 9.31516 13.5596 9.34687 13.5827 9.3553C13.6097 9.36531 13.66 9.35536 13.6921 9.36503C13.7046 9.3295 13.7171 9.29392 13.7296 9.25829C13.7871 9.23818 13.8074 9.33179 13.8411 9.33881C13.8472 9.34002 13.9581 9.33222 13.9641 9.33016C14.013 9.31376 13.9992 9.23315 14.1407 9.24896C14.1659 9.25184 14.1863 9.27972 14.209 9.28066C14.2493 9.28239 14.3705 9.21757 14.38 9.15831C14.4288 9.23183 14.5594 9.2007 14.5979 9.22194C14.6095 9.22848 14.6121 9.2758 14.6478 9.28573C14.6767 9.29384 14.7512 9.2556 14.7879 9.26184C14.8268 9.26864 14.8407 9.30849 14.8582 9.31128C14.8746 9.31387 14.8898 9.28163 14.9123 9.28178C14.9824 9.28277 15.0459 9.33461 15.1013 9.33556C15.1022 9.33558 15.103 9.33558 15.1039 9.33558C15.183 9.33505 15.253 9.24126 15.3193 9.19955C15.336 9.20577 15.3523 9.22628 15.3698 9.22652C15.5857 9.23011 15.8292 9.2493 16.0457 9.27144C16.1462 9.28182 16.3962 9.41065 16.3295 9.19905C16.3644 9.1627 16.6184 9.25152 16.6667 9.25339C16.715 9.2554 16.7533 9.21898 16.7912 9.21922C16.9058 9.22 16.9865 9.24783 17.1259 9.21948C17.162 9.21206 17.2005 9.17038 17.2219 9.17153C17.2476 9.173 17.2752 9.2149 17.3085 9.21836C17.3878 9.22628 17.5357 9.21723 17.6118 9.22656C17.6257 9.22834 17.6306 9.26354 17.6504 9.27499C17.7278 9.31968 17.8146 9.31781 17.7993 9.20746C17.8985 9.27316 17.9902 9.21943 18.0822 9.21991C18.2766 9.22087 18.6307 9.25898 18.8 9.22659C18.9068 9.20626 18.9041 9.16404 19.0613 9.21009C19.0962 9.22023 19.1309 9.23302 19.1732 9.24484C19.2724 9.27328 19.3635 9.34997 19.4391 9.2668C19.5493 9.29555 19.637 9.28606 19.7188 9.36058C19.7284 9.34418 19.7381 9.32788 19.7477 9.3117C19.7612 9.31207 19.7747 9.31246 19.7882 9.31285C19.7925 9.32892 19.7967 9.34495 19.8009 9.36093C19.8977 9.36919 20.0204 9.31365 20.1024 9.32019C20.2397 9.33023 20.5935 9.37635 20.7237 9.40015C20.7929 9.41278 20.7966 9.3883 20.8362 9.44169C20.8516 9.4389 20.8671 9.43618 20.8826 9.43352C20.8922 9.42306 20.9019 9.41272 20.9116 9.40251C21.0003 9.4083 21.1055 9.43114 21.19 9.43613C21.344 9.44434 21.5753 9.4397 21.7299 9.46518C21.7687 9.47144 21.8172 9.48855 21.8551 9.49065C21.9104 9.49376 21.9238 9.47368 21.994 9.47931C22.1148 9.49011 22.3399 9.5249 22.4542 9.53028C22.4881 9.53226 22.5039 9.52953 22.5274 9.53099C22.6256 9.53719 22.7063 9.54329 22.8005 9.54921C22.9016 9.56273 22.8929 9.56431 22.9242 9.56846C22.948 9.57207 23.0208 9.57284 23.0312 9.57148C23.0384 9.57093 23.0113 9.57303 23.0215 9.57242C22.9003 9.58405 22.8494 9.5897 22.751 9.59159C22.5693 9.60458 22.3875 9.61749 22.2058 9.63029C22.1893 9.62588 22.1727 9.62116 22.1562 9.61612C22.1562 9.61611 22.1562 9.6161 22.1562 9.61608C22.0864 9.61229 22.0568 9.62961 22.0192 9.636C21.6588 9.70142 20.9496 9.7204 20.5529 9.72249C20.4674 9.72425 20.1893 9.76015 20.1307 9.73577C20.1155 9.72938 20.1113 9.70365 20.0951 9.70306C19.9508 9.72352 19.8064 9.74553 19.6621 9.76885C19.3652 9.73537 19.0583 9.783 18.7592 9.80258C17.95 9.85181 17.1489 9.90702 16.3529 9.90799C16.199 9.90803 16.0038 9.9421 15.8532 9.92279C15.7904 9.91479 15.7642 9.84623 15.6816 9.89797C15.6807 9.87944 15.6799 9.8609 15.679 9.84237C15.607 9.8651 15.5609 9.9076 15.4801 9.91225C15.4121 9.91613 15.2321 9.91933 15.172 9.9122C15.1408 9.90866 15.1524 9.87383 15.1233 9.87401C15.1176 9.87408 15.111 9.87479 15.1039 9.87599C15.0494 9.88512 14.9593 9.92264 14.8986 9.92249C14.8364 9.92235 14.7315 9.88194 14.6836 9.88753C14.5114 9.90746 14.3238 9.96491 14.1402 9.94694C14.0895 9.94188 14.0243 9.89674 14.0084 9.89782C13.9774 9.90004 13.9681 9.94288 13.9473 9.9481C13.8415 9.97441 13.6765 9.92089 13.5727 9.9172C13.2347 9.90502 12.8766 9.9144 12.54 9.89692C12.3273 9.88647 11.974 9.88038 11.7776 9.84595C11.7353 9.83858 11.7466 9.79957 11.711 9.79851C11.6716 9.79737 11.6503 9.82301 11.6318 9.82447C11.5043 9.83546 11.2229 9.84837 11.1025 9.81819C11.0796 9.81244 11.0629 9.7839 11.0492 9.78352C11.0423 9.78327 11.0266 9.80161 11.0047 9.80261C10.8121 9.81148 10.6717 9.79376 10.483 9.77941C10.1215 9.75329 9.70265 9.75774 9.32293 9.72141C9.2402 9.71355 9.18346 9.67749 9.17182 9.67746C9.14629 9.677 9.12995 9.69806 9.07824 9.70019C8.90632 9.70621 8.67479 9.67125 8.51127 9.6693C8.43048 9.66819 8.31947 9.67743 8.23997 9.67343C8.17647 9.67036 8.02652 9.65143 7.99837 9.65437C7.98125 9.65609 7.97333 9.66563 7.95282 9.66453ZM10.0919 9.36487C10.0806 9.41751 10.1995 9.36824 10.1549 9.34199C10.1449 9.33622 10.0949 9.35128 10.0919 9.36487ZM15.6587 9.37875C15.6576 9.35413 15.6565 9.3295 15.6554 9.30488C15.6398 9.31505 15.6242 9.32523 15.6086 9.33542C15.6174 9.35027 15.6261 9.36511 15.6349 9.37994C15.6428 9.37954 15.6508 9.37915 15.6587 9.37875Z" fill="#64E6F4"/>
</g>
<path d="M22.8814 16.4473C22.7925 16.4588 22.6761 16.4726 22.5875 16.4804C22.5598 16.4829 22.5738 16.4783 22.5547 16.4797C22.5172 16.4823 22.4823 16.4875 22.4453 16.4896C22.4331 16.4902 22.4483 16.4827 22.4355 16.4834C22.365 16.4867 22.2983 16.494 22.2269 16.4983C21.8752 16.518 21.5295 16.5335 21.1735 16.5454C21.0561 16.5497 20.9134 16.5388 20.7921 16.5521C20.778 16.5537 20.7864 16.5713 20.7837 16.5729C20.7415 16.598 20.7555 16.5608 20.7279 16.5571C20.6185 16.5427 20.4968 16.5445 20.3914 16.5565C20.3466 16.5617 20.3916 16.6008 20.3464 16.5798C20.3433 16.5784 20.3547 16.5559 20.3424 16.554C20.3145 16.5498 20.2616 16.5556 20.24 16.5546C20.1984 16.5525 20.1915 16.5529 20.1521 16.554C20.0983 16.5553 20.0343 16.5454 19.9765 16.5527C19.9642 16.5543 19.9805 16.5787 19.9609 16.5837C19.9412 16.5887 19.8891 16.5887 19.8716 16.5833C19.854 16.5779 19.8615 16.5574 19.8584 16.5529C19.8328 16.5143 19.7726 16.5705 19.7649 16.5723C19.6236 16.6007 19.5025 16.5725 19.3699 16.5758C19.2692 16.5787 19.1616 16.5934 19.0658 16.5945C18.9517 16.5958 18.855 16.5813 18.7441 16.5868C18.7324 16.5873 18.7461 16.6242 18.7318 16.625C18.58 16.6337 18.4292 16.6342 18.2781 16.6108C18.2629 16.6084 18.2825 16.5732 18.2673 16.5687C18.1746 16.5422 18.0279 16.4718 17.9728 16.6294C17.91 16.6246 17.8337 16.6199 17.7775 16.5885C17.7413 16.5683 17.7765 16.5278 17.732 16.5454C17.7219 16.5493 17.735 16.5843 17.7199 16.5876C17.6566 16.6015 17.5873 16.591 17.5246 16.6104C17.5119 16.6144 17.5153 16.6465 17.5117 16.6524C17.4814 16.6999 17.4308 16.6232 17.4198 16.6175C17.3359 16.5764 17.2746 16.5937 17.1964 16.5936C17.1783 16.5936 17.1997 16.6376 17.1822 16.6392C17.0917 16.6469 16.9979 16.6445 16.9092 16.6256C16.8895 16.6212 16.9077 16.5826 16.8982 16.5786C16.8567 16.5611 16.8475 16.6339 16.8076 16.6186C16.7992 16.6155 16.804 16.5824 16.8024 16.5788C16.7784 16.5219 16.7576 16.6029 16.7514 16.6048C16.6734 16.6302 16.6235 16.5455 16.5481 16.558C16.5391 16.5596 16.5594 16.6018 16.5341 16.6038C16.3652 16.6169 16.1866 16.6066 16.0194 16.5727C15.9934 16.5675 16.0119 16.5349 16.0103 16.5309C15.9836 16.4682 15.9664 16.5523 15.9579 16.5555C15.8911 16.5786 15.8286 16.508 15.7832 16.6087C15.5559 16.5815 15.3295 16.6128 15.1039 16.5794C15.0483 16.5711 14.9928 16.5589 14.9373 16.5409C14.9337 16.5399 14.9401 16.498 14.933 16.4961C14.8472 16.4726 14.8637 16.5377 14.8069 16.6171C14.7926 16.637 14.7491 16.541 14.7453 16.5339C14.7312 16.508 14.7458 16.4458 14.7411 16.4408C14.7022 16.4014 14.7086 16.607 14.6562 16.607C14.6545 16.6066 14.6614 16.5688 14.657 16.565C14.6433 16.5532 14.6298 16.5682 14.6164 16.5552C14.5858 16.525 14.5749 16.4253 14.5282 16.4833C14.5222 16.4908 14.5313 16.6071 14.4845 16.6015C14.4658 16.5991 14.3833 16.6008 14.3601 16.5932C14.337 16.5856 14.3529 16.5483 14.3512 16.5467C14.289 16.4972 14.3126 16.4768 14.2814 16.4038C14.2502 16.3312 14.2588 16.5045 14.2461 16.5238C14.2334 16.543 14.1877 16.5023 14.1765 16.4882C14.1653 16.4741 14.1792 16.4505 14.1693 16.4425C14.1032 16.3904 14.1403 16.5282 14.1185 16.5555C14.0671 16.62 14.0271 16.4921 13.9801 16.4796C13.9673 16.4762 13.9777 16.5052 13.9664 16.5079C13.9215 16.5181 13.8945 16.4784 13.8435 16.5145C13.8351 16.5205 13.7939 16.5963 13.7671 16.5404C13.7634 16.5323 13.7741 16.5009 13.755 16.4938C13.7264 16.4831 13.6749 16.4762 13.6442 16.4865C13.6215 16.4942 13.6475 16.5458 13.619 16.5297C13.6063 16.5225 13.6298 16.4925 13.606 16.4815C13.5823 16.4705 13.5217 16.4717 13.4986 16.4727C13.4756 16.4737 13.4882 16.5125 13.4863 16.5151C13.4751 16.5301 13.4309 16.5485 13.427 16.5484C13.2301 16.5514 13.0485 16.4865 12.8568 16.5065C12.8417 16.508 12.8517 16.5473 12.8494 16.5479C12.7979 16.5639 12.8385 16.46 12.8026 16.4251C12.8078 16.5045 12.7865 16.49 12.7502 16.4985C12.7327 16.5026 12.7423 16.5332 12.7407 16.5364C12.7147 16.5825 12.6967 16.5224 12.692 16.5102C12.6749 16.4652 12.6562 16.5181 12.6445 16.4881C12.6328 16.4584 12.6597 16.4144 12.6249 16.415C12.6151 16.4429 12.641 16.5162 12.6146 16.5278C12.5149 16.5715 12.3288 16.5126 12.2486 16.5066C12.1687 16.5002 12.1428 16.5049 12.0962 16.4949C12.012 16.477 12.0429 16.5286 11.9906 16.5511C11.9382 16.5736 11.9637 16.4493 11.9561 16.4224C11.9487 16.3956 11.9406 16.4232 11.9314 16.4085C11.9223 16.3939 11.9421 16.3756 11.9205 16.3703C11.899 16.365 11.8399 16.4125 11.8323 16.44C11.8161 16.4983 11.8427 16.5599 11.7856 16.5376C11.7823 16.5363 11.793 16.5043 11.7804 16.5009C11.6805 16.4754 11.5767 16.4733 11.4769 16.4519C11.4632 16.4489 11.4755 16.4148 11.4675 16.4127C11.3843 16.3911 11.414 16.4485 11.3685 16.5112C11.3787 16.4273 11.3535 16.3759 11.2904 16.3761C11.2524 16.3761 11.2589 16.4121 11.2344 16.4374C11.227 16.445 11.2002 16.4204 11.1953 16.4372C11.1793 16.4919 11.2046 16.5535 11.1395 16.528C11.1366 16.5269 11.1457 16.4972 11.1359 16.4953C11.0721 16.483 11.0645 16.5392 10.9955 16.5443C10.9415 16.5483 10.8454 16.5132 10.7839 16.5072C10.7852 16.4217 10.7271 16.4416 10.7035 16.4991C10.6636 16.4962 10.6204 16.4987 10.5818 16.4904C10.5686 16.4876 10.5773 16.464 10.5756 16.4614C10.5499 16.4213 10.5326 16.4758 10.5239 16.4777C10.4305 16.4969 10.3544 16.4565 10.2653 16.4935C10.2621 16.4948 10.257 16.5474 10.2332 16.5085C10.2316 16.5058 10.2611 16.4823 10.2191 16.4799C10.1772 16.4773 10.0981 16.4495 10.0399 16.4722C10.0258 16.4778 9.99017 16.517 9.96157 16.4854C9.95776 16.4811 9.96193 16.4672 9.95643 16.4593C9.93864 16.4345 9.92894 16.4833 9.90803 16.4418C9.88713 16.4002 9.84366 16.371 9.78494 16.3992C9.78307 16.4 9.76917 16.4371 9.7507 16.4364C9.72122 16.4354 9.67937 16.4278 9.64859 16.4281C9.63385 16.4282 9.64329 16.4502 9.64073 16.4506C9.54164 16.462 9.47111 16.442 9.36495 16.4342C9.34549 16.4329 9.28957 16.459 9.2519 16.438C9.21053 16.4156 9.25304 16.3222 9.15796 16.3474C9.1196 16.3585 9.07105 16.4684 9.00213 16.4123C8.86847 16.4259 8.74486 16.4018 8.61082 16.4194C8.60479 16.4202 8.58573 16.4439 8.57156 16.4434C8.55053 16.4426 8.53898 16.4318 8.52396 16.4311C8.46102 16.428 8.40341 16.4364 8.34273 16.4347C8.31969 16.4342 8.32775 16.4247 8.30026 16.4243C8.2728 16.424 8.25449 16.4357 8.21727 16.43C8.18917 16.4256 8.16106 16.4035 8.12375 16.4022C8.12233 16.4233 8.09671 16.4232 8.05116 16.4284C8.04241 16.4294 8.0518 16.4362 8.04766 16.437C8.0308 16.4402 8.0152 16.4346 7.9992 16.4381C7.99531 16.4389 7.99513 16.4452 7.99194 16.4462C7.96488 16.4546 7.9203 16.44 7.91264 16.4379C7.88329 16.4294 7.86958 16.4365 7.84707 16.4332C7.8246 16.4301 7.8582 16.4263 7.83195 16.4246C7.77753 16.4212 7.70762 16.423 7.65235 16.4233C7.6303 16.4235 7.64535 16.4282 7.64219 16.4284C7.59659 16.4293 7.55048 16.4255 7.5252 16.4328C7.49359 16.4143 7.49771 16.4345 7.43253 16.4302C7.42739 16.4299 7.42086 16.4237 7.44058 16.4222C7.46028 16.4206 7.49018 16.4224 7.51752 16.4199C7.524 16.4195 7.56109 16.4092 7.56615 16.4082C7.6058 16.4013 7.61142 16.4175 7.61352 16.4184C7.6373 16.4282 7.68264 16.4157 7.69457 16.4141C7.74918 16.4082 7.79559 16.4097 7.84126 16.4045C7.87114 16.4011 7.87406 16.3838 7.89752 16.3828C7.9755 16.379 8.00272 16.4075 8.07621 16.3784C8.09197 16.372 8.0763 16.3484 8.13277 16.3641C8.13631 16.3649 8.17823 16.3815 8.20245 16.3682C8.20549 16.3665 8.2054 16.3586 8.20941 16.3577C8.23629 16.3516 8.25422 16.3569 8.28351 16.3519C8.31279 16.3469 8.34801 16.3394 8.38144 16.3401C8.40159 16.3405 8.42745 16.3564 8.43709 16.3603C8.46433 16.3717 8.49353 16.3493 8.51041 16.3642C8.52742 16.3797 8.49416 16.4045 8.53878 16.4144C8.54043 16.388 8.54423 16.3607 8.54688 16.3338C8.64467 16.3284 8.74088 16.3324 8.83899 16.3259C8.85115 16.325 8.83871 16.3087 8.85175 16.3072C8.90677 16.3008 8.95482 16.3106 9.01187 16.3021C9.05603 16.2955 9.10446 16.2721 9.15064 16.2634C9.17884 16.3034 9.24736 16.2855 9.29714 16.2865C9.31458 16.2869 9.31342 16.299 9.32582 16.3023C9.3726 16.3147 9.35068 16.2755 9.3635 16.2684C9.41853 16.2373 9.42324 16.3302 9.48811 16.3259C9.49155 16.3258 9.53356 16.2724 9.53935 16.2686C9.57611 16.2453 9.54543 16.2864 9.56844 16.2892C9.61045 16.2942 9.63965 16.3061 9.68894 16.2879C9.70331 16.2826 9.73779 16.2461 9.7657 16.2717C9.76937 16.275 9.76735 16.2937 9.7703 16.2946C9.82379 16.3107 9.8252 16.2517 9.85577 16.2296C9.88635 16.2073 9.93357 16.2463 9.94318 16.2583C9.96832 16.2887 9.92392 16.2726 9.92255 16.2758C9.90656 16.313 9.941 16.3055 9.96732 16.3077C9.97113 16.3681 10.0079 16.3639 9.9946 16.3098C9.99308 16.3039 9.9726 16.3103 9.96732 16.3077C9.99042 16.2476 10.0309 16.2367 10.0755 16.2922C10.0964 16.3183 10.0767 16.3504 10.1402 16.3373C10.169 16.3314 10.1579 16.2877 10.1833 16.2747C10.2414 16.2446 10.317 16.2835 10.3769 16.2749C10.3986 16.2716 10.3775 16.247 10.3923 16.2438C10.4318 16.2351 10.4666 16.253 10.5062 16.2415C10.5098 16.2404 10.501 16.2134 10.5133 16.2125C10.6067 16.2047 10.688 16.2191 10.7855 16.2156C10.8326 16.214 10.9168 16.1942 10.9656 16.1953C11.0502 16.1971 11.1543 16.2382 11.2265 16.225C11.2737 16.2164 11.2633 16.1852 11.2835 16.1628C11.3225 16.1191 11.3915 16.1917 11.4008 16.2034C11.401 16.2038 11.3605 16.2127 11.3821 16.2285C11.3947 16.2626 11.4003 16.2036 11.4008 16.2034C11.4069 16.2108 11.4879 16.2156 11.504 16.2089C11.5127 16.2052 11.5078 16.1743 11.5124 16.173C11.6207 16.1412 11.7292 16.1282 11.8391 16.1394C11.841 16.14 11.8381 16.1764 11.8426 16.1773C11.9062 16.1916 11.947 16.1457 11.9994 16.1169C12.0519 16.0881 12.0935 16.0952 12.1245 16.1587C12.1641 16.1493 12.2209 16.1763 12.2535 16.1931C12.2862 16.2099 12.2908 16.1355 12.2937 16.1339C12.3833 16.0839 12.4351 16.1249 12.5282 16.1293C12.5724 16.1314 12.6601 16.118 12.708 16.1083C12.7459 16.1004 12.7687 16.118 12.8035 16.1055C12.8082 16.1038 12.8035 16.0693 12.8049 16.0679C12.8438 16.0252 12.8251 16.1107 12.8332 16.1256C12.8623 16.1801 12.8803 16.2094 12.9301 16.1824C12.9416 16.1763 12.9751 16.052 12.9961 16.0441C13.0233 16.0342 13.013 16.0789 13.0416 16.0674C13.044 16.0664 13.0435 16.039 13.0611 16.0397C13.1428 16.0427 13.2319 16.0567 13.3168 16.0521C13.3284 16.0515 13.3136 16.0075 13.3303 16.0059C13.409 15.9987 13.4952 15.9982 13.5718 16.0177C13.5907 16.0226 13.5789 16.0544 13.5829 16.0637C13.6081 16.1199 13.6437 16.0369 13.6496 16.0352C13.7899 15.9926 13.8973 16.0662 14.0402 16.0283C14.048 16.0261 14.1079 15.9351 14.1347 16.012C14.1365 16.0171 14.163 16.0961 14.1863 16.0416C14.1878 16.0382 14.1713 15.9976 14.2001 16.0014C14.2288 16.0052 14.2751 15.9773 14.3146 16.0219C14.3271 16.0359 14.3567 16.1151 14.3941 16.0514C14.3965 16.047 14.4541 15.903 14.4747 16.0018C14.478 16.0181 14.4745 16.123 14.5191 16.0689C14.5276 16.0584 14.5121 16.0351 14.5346 16.0203C14.5689 15.9976 14.6145 16.0254 14.6567 15.9783C14.6641 15.97 14.6954 15.8983 14.7206 15.9524C14.7245 15.9609 14.717 15.996 14.7303 15.9999C14.7935 16.0185 14.8596 15.9947 14.9238 16.0189C14.9465 16.0274 14.9349 16.0843 14.9586 16.0995C14.9822 16.1147 15.03 16.1294 15.0547 16.1033C15.0795 16.0773 15.0524 15.9866 15.0896 15.9793C15.0943 15.9784 15.0991 15.9775 15.1039 15.9767C15.2604 15.9509 15.4157 16.0018 15.5721 16.0102C15.596 16.0115 15.5762 15.9791 15.6114 15.9787C15.7413 15.9771 15.9656 15.9497 16.0783 16.0193C16.1686 16.0748 16.055 16.1149 16.124 16.1377C16.1573 16.1485 16.1933 16.0454 16.2013 16.0423C16.2799 16.0103 16.3344 16.0569 16.4051 16.044C16.4197 16.0414 16.4054 15.9995 16.4178 15.9977C16.4603 15.9913 16.5048 16.0107 16.5454 16.0081C16.5636 16.0069 16.5602 15.9753 16.577 15.9781C16.617 15.9844 16.6524 15.9984 16.6915 16.0287C16.695 16.0314 16.671 16.0699 16.7007 16.0719C16.7486 16.0751 16.8082 16.105 16.8633 16.0765C16.8797 16.0679 16.8803 15.9971 16.9155 16.0468C16.9229 16.0572 16.9135 16.1418 16.9545 16.0694C16.9614 16.0572 17.0302 15.9607 17.064 16.025C17.073 16.0419 17.0957 16.1112 17.1154 16.1008C17.1181 16.0991 17.1074 16.0613 17.1237 16.0581C17.1812 16.0474 17.2414 16.053 17.3005 16.0431C17.3163 16.0404 17.2928 16.0014 17.3163 15.9986C17.3809 15.9911 17.4616 16.0037 17.5249 16.0176C17.5482 16.0229 17.5321 16.0534 17.5337 16.0569C17.561 16.1128 17.5771 16.039 17.5862 16.0351C17.6425 16.0112 17.6854 16.0474 17.7372 16.0402C17.7516 16.0383 17.7414 16.0031 17.7443 16.0001C17.7738 15.971 17.7518 16.0326 17.7705 16.0401C17.8229 16.0615 17.8814 16.0608 17.9344 16.0584C17.9538 16.0575 17.932 16.0171 17.9494 16.0168C18.0529 16.0144 18.1604 16.0234 18.2613 16.049C18.2803 16.0539 18.2684 16.0827 18.2723 16.0896C18.2996 16.1375 18.3396 16.0753 18.3489 16.0698C18.3907 16.0442 18.407 16.0706 18.4439 16.0675C18.6245 16.0525 18.8475 16.0813 19.018 16.0999C19.2401 16.1246 19.4125 16.1571 19.6244 16.1629C19.6378 16.1633 19.6242 16.1312 19.6358 16.1312C19.7857 16.1334 19.9332 16.1549 20.0834 16.1572C20.0957 16.1575 20.0779 16.1294 20.0977 16.1291C20.1383 16.1283 20.1896 16.134 20.2306 16.1454C20.2507 16.1509 20.2238 16.1709 20.244 16.1758C20.2908 16.1874 20.3411 16.1925 20.3893 16.192C20.4097 16.1918 20.3788 16.1645 20.4055 16.1663C20.5869 16.1779 20.7651 16.1913 20.9485 16.233C20.9611 16.2359 20.9721 16.2782 20.9988 16.272C21.0008 16.2607 21.0007 16.2474 21.0016 16.2353C21.2657 16.2509 21.5272 16.2863 21.7921 16.3101C21.8033 16.3112 21.784 16.2954 21.8056 16.2975C21.9307 16.3096 22.0522 16.32 22.1803 16.3425C22.193 16.3446 22.1864 16.3613 22.2239 16.3616C22.2305 16.3616 22.2868 16.3639 22.3014 16.362C22.3034 16.3617 22.2931 16.3537 22.3113 16.3553C22.4168 16.3644 22.5275 16.3774 22.6328 16.3898C22.6498 16.3918 22.6317 16.3942 22.6438 16.3956C22.7298 16.4044 22.8232 16.4104 22.9053 16.4185C22.9603 16.4235 22.94 16.4238 22.9692 16.4263C22.9733 16.4266 23.0073 16.4278 23.0091 16.4281C23.0136 16.4285 22.9971 16.4297 23.0039 16.4303C23.005 16.4304 23.0324 16.4286 23.0324 16.4286C23.0324 16.4286 23.0324 16.4286 23.0324 16.4286C23.0324 16.4286 23.03 16.4287 23.0239 16.4292C23.022 16.4294 22.989 16.432 22.9808 16.433C22.9752 16.4337 22.9854 16.4333 22.9738 16.4347C22.9623 16.4363 22.9496 16.4369 22.9304 16.4393C22.9112 16.4419 22.9197 16.4423 22.8814 16.4473ZM12.4007 16.269C12.4309 16.3047 12.4354 16.1721 12.4027 16.2045C12.4011 16.2062 12.3991 16.2673 12.4007 16.269ZM8.74033 16.3727C8.77988 16.3954 8.80695 16.3592 8.77904 16.3417C8.75115 16.3249 8.72828 16.3662 8.74033 16.3727ZM8.33021 16.3992C8.37643 16.4127 8.38371 16.3529 8.3342 16.3674C8.33132 16.3682 8.3275 16.3985 8.33021 16.3992ZM22.8337 16.4224C22.8341 16.4226 22.8586 16.4234 22.8592 16.4233C22.8722 16.4218 22.8233 16.4196 22.8337 16.4224ZM7.92323 16.4185C7.93766 16.4235 7.9792 16.4169 7.96128 16.4104C7.94684 16.4054 7.90526 16.4125 7.92323 16.4185ZM13.9788 16.4081C13.9793 16.4102 13.9968 16.4122 13.9965 16.3998C13.9953 16.3601 13.9709 16.3713 13.9788 16.4081ZM7.23152 16.4278C7.33372 16.4252 7.39568 16.4357 7.28439 16.4316C7.26424 16.4311 7.32783 16.4308 7.30217 16.4298C7.25523 16.429 7.22407 16.43 7.17617 16.4286C7.1675 16.4288 7.22569 16.4283 7.2317 16.4278C7.23164 16.4278 7.23158 16.4278 7.23152 16.4278ZM12.4181 16.4278C12.4187 16.4295 12.443 16.4312 12.4435 16.4294C12.4567 16.3873 12.4078 16.3841 12.4181 16.4278ZM15.0022 16.5001C15.0036 16.5043 15.0599 16.5083 15.0618 16.5044C15.0911 16.4267 14.9772 16.4185 15.0022 16.5001ZM10.7829 16.5049C10.7564 16.5381 10.7247 16.5409 10.7036 16.4991C10.7299 16.5017 10.7564 16.5024 10.7829 16.5049Z" fill="#64E6F4"/>
<g filter="url(#filter1_f_34_287)">
<path d="M7.95282 16.5217C7.93392 16.5206 7.90725 16.5118 7.88495 16.5092C7.79156 16.4977 7.75695 16.4907 7.67245 16.4806C7.54715 16.4674 7.1753 16.4263 7.17529 16.4286C7.17529 16.4286 7.17533 16.4286 7.1754 16.4286C7.17671 16.4288 7.20833 16.4299 7.21303 16.4294C7.21771 16.4289 7.2142 16.4265 7.25912 16.4223C7.32425 16.416 7.4805 16.4095 7.51524 16.4081C7.53899 16.4065 7.56822 16.4021 7.59859 16.3995C7.6965 16.3907 7.74774 16.3912 7.83596 16.3722C7.87124 16.3758 7.90653 16.3805 7.94181 16.3861C7.98785 16.3799 8.05763 16.3871 8.0856 16.3855C8.10855 16.384 8.12199 16.3762 8.14591 16.3746C8.17273 16.3726 8.21392 16.379 8.26271 16.3756C8.3427 16.3701 8.35694 16.3461 8.40493 16.3397C8.45469 16.3329 8.53209 16.3423 8.59559 16.3289C8.60356 16.3254 8.61152 16.3218 8.61949 16.3182C8.61378 16.3117 8.60808 16.3052 8.60237 16.2988C8.63435 16.2929 8.64811 16.3062 8.6775 16.3043C8.71208 16.3022 8.72972 16.2865 8.75299 16.2846C8.77205 16.2831 8.79789 16.293 8.82261 16.2904C8.85865 16.2868 8.85077 16.2695 8.87016 16.2645C8.87789 16.2627 9.02093 16.2399 9.02901 16.2389C9.09038 16.2325 9.09573 16.2595 9.14466 16.2584C9.2804 16.2555 9.41973 16.2214 9.54529 16.201C9.60135 16.192 9.65985 16.1892 9.71575 16.1905C9.6277 16.2838 9.82256 16.3439 9.74969 16.2071C9.81188 16.2231 9.85598 16.1815 9.91495 16.1837C9.95308 16.1854 9.97948 16.2044 10.0339 16.2005C10.1306 16.1942 10.2362 16.123 10.264 16.2369C10.3775 16.2105 10.4757 16.2504 10.5166 16.1401C10.5458 16.1314 10.6208 16.1923 10.6536 16.2C10.6846 16.2066 10.9227 16.2277 10.9616 16.2285C11.0006 16.2288 11.0687 16.2285 11.1015 16.2167C11.1427 16.2026 11.1715 16.073 11.2449 16.2199C11.3302 16.2048 11.3606 16.2078 11.4399 16.2234C11.4543 16.2262 11.4559 16.2492 11.4643 16.249C11.4816 16.2486 11.511 16.2306 11.5418 16.2276C11.5926 16.2226 11.6215 16.2715 11.6159 16.1959C11.6493 16.1821 11.6828 16.1682 11.7162 16.1541C11.728 16.1685 11.7397 16.183 11.7514 16.1975C11.7693 16.1808 11.7872 16.1639 11.8051 16.1469C11.7841 16.2599 11.91 16.19 11.8691 16.1261C11.9339 16.1471 11.9988 16.1687 12.0636 16.191C12.0546 16.323 12.206 16.2032 12.1933 16.1303C12.2007 16.1302 12.2081 16.1301 12.2155 16.1299C12.2805 16.1636 12.3401 16.1326 12.4193 16.1547C12.4985 16.1771 12.491 16.1908 12.5151 16.2538C12.5338 16.2498 12.5524 16.2459 12.571 16.2419C12.6688 16.0643 12.6515 16.3698 12.8189 16.2316C12.8724 16.3431 13.0042 16.2833 13.0917 16.2472C13.1018 16.2431 13.102 16.2208 13.1155 16.2138C13.1487 16.1967 13.2332 16.2243 13.2303 16.152C13.2596 16.1724 13.2888 16.193 13.3181 16.2136C13.342 16.2001 13.3659 16.1865 13.3898 16.1729C13.3897 16.1501 13.3896 16.1273 13.3894 16.1045C13.4376 16.1814 13.5133 16.1505 13.5506 16.1686C13.558 16.1723 13.5596 16.2041 13.5827 16.2125C13.6097 16.2225 13.66 16.2125 13.6921 16.2222C13.7046 16.1867 13.7171 16.1511 13.7296 16.1155C13.7871 16.0954 13.8074 16.189 13.8411 16.196C13.8472 16.1972 13.9581 16.1894 13.9641 16.1873C14.013 16.1709 13.9992 16.0903 14.1407 16.1061C14.1659 16.109 14.1863 16.1369 14.209 16.1378C14.2493 16.1396 14.3705 16.0747 14.38 16.0155C14.4288 16.089 14.5594 16.0579 14.5979 16.0791C14.6095 16.0857 14.6121 16.133 14.6478 16.1429C14.6767 16.151 14.7512 16.1128 14.7879 16.119C14.8268 16.1258 14.8407 16.1657 14.8582 16.1685C14.8746 16.171 14.8898 16.1388 14.9123 16.139C14.9824 16.1399 15.0459 16.1918 15.1013 16.1927C15.1022 16.1928 15.103 16.1928 15.1039 16.1928C15.183 16.1922 15.253 16.0984 15.3193 16.0567C15.336 16.0629 15.3523 16.0835 15.3698 16.0837C15.5857 16.0873 15.8292 16.1065 16.0457 16.1286C16.1462 16.139 16.3962 16.2678 16.3295 16.0562C16.3644 16.0199 16.6184 16.1087 16.6667 16.1106C16.715 16.1126 16.7533 16.0762 16.7912 16.0764C16.9058 16.0772 16.9865 16.105 17.1259 16.0767C17.162 16.0692 17.2005 16.0276 17.2219 16.0287C17.2476 16.0302 17.2752 16.0721 17.3085 16.0755C17.3878 16.0835 17.5357 16.0744 17.6118 16.0837C17.6257 16.0855 17.6306 16.1207 17.6504 16.1322C17.7278 16.1769 17.8146 16.175 17.7993 16.0646C17.8985 16.1303 17.9902 16.0766 18.0822 16.0771C18.2766 16.0781 18.6307 16.1162 18.8 16.0838C18.9068 16.0634 18.9041 16.0212 19.0613 16.0673C19.0962 16.0774 19.1309 16.0902 19.1732 16.102C19.2724 16.1305 19.3635 16.2071 19.4391 16.124C19.5493 16.1527 19.637 16.1432 19.7188 16.2178C19.7284 16.2014 19.7381 16.1851 19.7477 16.1689C19.7612 16.1693 19.7747 16.1696 19.7882 16.17C19.7924 16.1861 19.7967 16.2021 19.8009 16.2181C19.8977 16.2264 20.0204 16.1708 20.1024 16.1774C20.2397 16.1874 20.5935 16.2335 20.7237 16.2573C20.7929 16.27 20.7966 16.2455 20.8362 16.2989C20.8516 16.2961 20.8671 16.2934 20.8826 16.2907C20.8922 16.2802 20.9019 16.2699 20.9116 16.2597C21.0003 16.2655 21.1055 16.2883 21.19 16.2933C21.344 16.3015 21.5753 16.2969 21.7299 16.3224C21.7687 16.3286 21.8172 16.3457 21.8551 16.3478C21.9104 16.3509 21.9238 16.3309 21.994 16.3365C22.1148 16.3473 22.3399 16.3821 22.4542 16.3875C22.4881 16.3894 22.5039 16.3867 22.5274 16.3882C22.6256 16.3944 22.7063 16.4005 22.8005 16.4064C22.9016 16.4199 22.8929 16.4215 22.9242 16.4256C22.948 16.4292 23.0208 16.43 23.0312 16.4287C23.0384 16.4281 23.0113 16.4302 23.0215 16.4296C22.9003 16.4412 22.8494 16.4469 22.751 16.4488C22.5693 16.4618 22.3875 16.4747 22.2058 16.4875C22.1893 16.4831 22.1727 16.4783 22.1562 16.4733C22.1562 16.4733 22.1562 16.4733 22.1562 16.4733C22.0864 16.4695 22.0568 16.4868 22.0192 16.4932C21.6588 16.5586 20.9496 16.5776 20.5529 16.5797C20.4674 16.5814 20.1893 16.6173 20.1307 16.5929C20.1155 16.5866 20.1113 16.5608 20.0951 16.5602C19.9508 16.5807 19.8064 16.6027 19.6621 16.626C19.3652 16.5926 19.0583 16.6402 18.7592 16.6598C17.95 16.709 17.1489 16.7642 16.3529 16.7652C16.199 16.7652 16.0038 16.7993 15.8532 16.78C15.7904 16.772 15.7642 16.7034 15.6816 16.7551C15.6807 16.7366 15.6799 16.7181 15.679 16.6995C15.607 16.7223 15.5609 16.7648 15.4801 16.7694C15.4121 16.7733 15.2321 16.7765 15.172 16.7694C15.1408 16.7658 15.1524 16.731 15.1233 16.7312C15.1176 16.7313 15.111 16.732 15.1039 16.7332C15.0494 16.7423 14.9593 16.7798 14.8986 16.7797C14.8364 16.7795 14.7315 16.7391 14.6836 16.7447C14.5114 16.7646 14.3238 16.8221 14.1402 16.8041C14.0895 16.7991 14.0243 16.7539 14.0084 16.755C13.9774 16.7572 13.9681 16.8001 13.9473 16.8053C13.8415 16.8316 13.6765 16.7781 13.5727 16.7744C13.2347 16.7622 12.8766 16.7716 12.54 16.7541C12.3273 16.7436 11.974 16.7376 11.7776 16.7031C11.7353 16.6958 11.7466 16.6567 11.711 16.6557C11.6716 16.6546 11.6503 16.6802 11.6318 16.6816C11.5043 16.6926 11.2229 16.7056 11.1025 16.6754C11.0796 16.6696 11.0629 16.6411 11.0492 16.6407C11.0423 16.6405 11.0266 16.6588 11.0047 16.6598C10.8121 16.6687 10.6717 16.6509 10.483 16.6366C10.1215 16.6105 9.70266 16.6149 9.32293 16.5786C9.24019 16.5707 9.18346 16.5347 9.17182 16.5346C9.14629 16.5342 9.12995 16.5552 9.07825 16.5574C8.90632 16.5634 8.67479 16.5284 8.51127 16.5265C8.43049 16.5254 8.31947 16.5346 8.23997 16.5306C8.17647 16.5275 8.02652 16.5086 7.99837 16.5115C7.98125 16.5133 7.97333 16.5228 7.95282 16.5217ZM10.0919 16.222C10.0806 16.2747 10.1995 16.2254 10.1549 16.1992C10.1449 16.1934 10.0949 16.2085 10.0919 16.222ZM15.6587 16.2359C15.6576 16.2113 15.6565 16.1867 15.6554 16.1621C15.6398 16.1722 15.6242 16.1824 15.6086 16.1926C15.6174 16.2074 15.6261 16.2223 15.6349 16.2371C15.6428 16.2367 15.6508 16.2363 15.6587 16.2359Z" fill="#64E6F4"/>
</g>
<path d="M22.2549 23.1926C22.2738 23.1937 22.3005 23.2025 22.3228 23.2051C22.4162 23.2166 22.4508 23.2236 22.5353 23.2337C22.6606 23.2469 23.0324 23.288 23.0324 23.2857C23.0324 23.2857 23.0324 23.2857 23.0323 23.2857C23.031 23.2855 22.9994 23.2844 22.9947 23.2849C22.99 23.2854 22.9935 23.2878 22.9486 23.292C22.8835 23.2983 22.7272 23.3047 22.6925 23.3062C22.6687 23.3077 22.6395 23.3122 22.6091 23.3148C22.5112 23.3236 22.46 23.3231 22.3718 23.3421C22.3365 23.3385 22.3012 23.3338 22.2659 23.3282C22.2199 23.3344 22.1501 23.3271 22.1221 23.3287C22.0992 23.3303 22.0857 23.3381 22.0618 23.3397C22.035 23.3417 21.9938 23.3353 21.945 23.3387C21.865 23.3442 21.8508 23.3682 21.8028 23.3746C21.753 23.3814 21.6756 23.372 21.6121 23.3854C21.6042 23.3889 21.5962 23.3925 21.5882 23.3961C21.5939 23.4026 21.5997 23.4091 21.6054 23.4155C21.5734 23.4214 21.5596 23.4081 21.5302 23.41C21.4957 23.4121 21.478 23.4278 21.4547 23.4297C21.4357 23.4312 21.4098 23.4213 21.3851 23.4238C21.3491 23.4275 21.357 23.4448 21.3376 23.4498C21.3298 23.4516 21.1868 23.4744 21.1787 23.4754C21.1174 23.4818 21.112 23.4548 21.0631 23.4559C20.9273 23.4588 20.788 23.4929 20.6624 23.5133C20.6064 23.5223 20.5479 23.5251 20.492 23.5238C20.58 23.4305 20.3852 23.3704 20.458 23.5072C20.3958 23.4912 20.3517 23.5328 20.2928 23.5306C20.2546 23.5289 20.2283 23.5099 20.1738 23.5138C20.0772 23.5201 19.9715 23.5913 19.9437 23.4774C19.8303 23.5038 19.732 23.4639 19.6911 23.5742C19.6619 23.5829 19.5869 23.522 19.5541 23.5143C19.5231 23.5077 19.2851 23.4866 19.2461 23.4858C19.2072 23.4855 19.139 23.4858 19.1062 23.4976C19.065 23.5117 19.0362 23.6413 18.9628 23.4944C18.8775 23.5095 18.8472 23.5065 18.7678 23.4909C18.7535 23.4881 18.7518 23.4651 18.7434 23.4653C18.7262 23.4657 18.6967 23.4837 18.6659 23.4867C18.6152 23.4917 18.5862 23.4428 18.5919 23.5184C18.5584 23.5322 18.525 23.5461 18.4915 23.5602C18.4798 23.5458 18.468 23.5313 18.4563 23.5168C18.4384 23.5335 18.4205 23.5504 18.4026 23.5674C18.4236 23.4544 18.2978 23.5243 18.3386 23.5882C18.2738 23.5672 18.209 23.5456 18.1441 23.5233C18.1532 23.3913 18.0017 23.511 18.0145 23.584C18.0071 23.5841 17.9996 23.5842 17.9922 23.5844C17.9273 23.5507 17.8676 23.5817 17.7884 23.5596C17.7092 23.5372 17.7167 23.5235 17.6926 23.4605C17.674 23.4645 17.6553 23.4684 17.6367 23.4724C17.5389 23.65 17.5562 23.3445 17.3888 23.4827C17.3353 23.3712 17.2035 23.431 17.1161 23.4671C17.1059 23.4712 17.1057 23.4935 17.0922 23.5005C17.0591 23.5176 16.9745 23.49 16.9774 23.5623C16.9482 23.5419 16.9189 23.5213 16.8897 23.5007C16.8657 23.5142 16.8418 23.5278 16.8179 23.5414C16.818 23.5642 16.8182 23.587 16.8183 23.6098C16.7701 23.5329 16.6945 23.5638 16.6571 23.5457C16.6497 23.542 16.6481 23.5102 16.625 23.5018C16.598 23.4918 16.5477 23.5018 16.5156 23.4921C16.5031 23.5276 16.4906 23.5632 16.4781 23.5988C16.4206 23.6189 16.4004 23.5253 16.3666 23.5183C16.3605 23.5171 16.2496 23.5249 16.2436 23.527C16.1947 23.5434 16.2086 23.624 16.067 23.6082C16.0419 23.6053 16.0215 23.5774 15.9987 23.5765C15.9585 23.5747 15.8372 23.6395 15.8277 23.6988C15.7789 23.6253 15.6483 23.6564 15.6099 23.6352C15.5983 23.6286 15.5956 23.5813 15.56 23.5714C15.531 23.5633 15.4565 23.6015 15.4199 23.5953C15.3809 23.5885 15.367 23.5486 15.3496 23.5458C15.3331 23.5432 15.3179 23.5755 15.2954 23.5753C15.2253 23.5743 15.1618 23.5225 15.1064 23.5216C15.1056 23.5215 15.1047 23.5215 15.1039 23.5215C15.0248 23.5221 14.9547 23.6159 14.8884 23.6576C14.8718 23.6513 14.8554 23.6308 14.8379 23.6306C14.6221 23.627 14.3786 23.6078 14.162 23.5857C14.0615 23.5753 13.8116 23.4465 13.8783 23.6581C13.8433 23.6944 13.5893 23.6056 13.541 23.6037C13.4927 23.6017 13.4544 23.6381 13.4165 23.6379C13.3019 23.6371 13.2212 23.6093 13.0818 23.6376C13.0458 23.6451 13.0072 23.6867 12.9859 23.6856C12.9602 23.6841 12.9325 23.6422 12.8992 23.6388C12.8199 23.6308 12.672 23.6399 12.5959 23.6306C12.582 23.6288 12.5772 23.5936 12.5573 23.5821C12.4799 23.5374 12.3931 23.5393 12.4085 23.6497C12.3093 23.584 12.2175 23.6377 12.1256 23.6372C11.9312 23.6362 11.5771 23.5981 11.4077 23.6305C11.3009 23.6509 11.3037 23.6931 11.1465 23.647C11.1116 23.6369 11.0768 23.6241 11.0345 23.6123C10.9353 23.5838 10.8443 23.5072 10.7686 23.5903C10.6585 23.5616 10.5707 23.5711 10.4889 23.4965C10.4793 23.5129 10.4697 23.5292 10.46 23.5454C10.4465 23.545 10.433 23.5447 10.4195 23.5443C10.4153 23.5282 10.4111 23.5122 10.4068 23.4962C10.3101 23.4879 10.1873 23.5435 10.1054 23.5369C9.96801 23.5269 9.61425 23.4808 9.48401 23.457C9.41487 23.4443 9.41115 23.4688 9.37156 23.4154C9.35609 23.4182 9.34063 23.4209 9.32516 23.4236C9.31548 23.4341 9.30581 23.4444 9.29613 23.4546C9.20742 23.4488 9.1022 23.426 9.01769 23.421C8.8637 23.4128 8.63246 23.4174 8.47781 23.3919C8.43904 23.3857 8.39057 23.3686 8.3526 23.3665C8.29734 23.3634 8.2839 23.3834 8.21377 23.3778C8.0929 23.367 7.86781 23.3322 7.75356 23.3268C7.71963 23.3249 7.7038 23.3276 7.68037 23.3261C7.58212 23.3199 7.50146 23.3138 7.40726 23.3079C7.3061 23.2944 7.31484 23.2928 7.28349 23.2887C7.25974 23.285 7.18689 23.2843 7.17655 23.2856C7.16928 23.2862 7.1964 23.2841 7.18622 23.2847C7.30742 23.2731 7.35833 23.2674 7.45674 23.2655C7.63847 23.2525 7.8202 23.2396 8.00194 23.2268C8.01847 23.2312 8.035 23.236 8.05154 23.241C8.05154 23.241 8.05154 23.241 8.05154 23.241C8.12133 23.2448 8.15091 23.2275 8.18855 23.2211C8.54889 23.1557 9.25813 23.1367 9.65483 23.1346C9.74032 23.1329 10.0184 23.097 10.0771 23.1213C10.0922 23.1277 10.0965 23.1535 10.1126 23.1541C10.257 23.1336 10.4013 23.1116 10.5457 23.0883C10.8425 23.1217 11.1494 23.0741 11.4485 23.0545C12.2577 23.0053 13.0589 22.9501 13.8549 22.9491C14.0087 22.9491 14.2039 22.915 14.3545 22.9343C14.4174 22.9423 14.4436 23.0109 14.5261 22.9591C14.527 22.9777 14.5279 22.9962 14.5287 23.0147C14.6008 22.992 14.6468 22.9495 14.7276 22.9449C14.7956 22.941 14.9756 22.9378 15.0357 22.9449C15.0669 22.9485 15.0553 22.9833 15.0844 22.9831C15.0902 22.983 15.0967 22.9823 15.1039 22.9811C15.1583 22.972 15.2485 22.9345 15.3092 22.9346C15.3714 22.9348 15.4763 22.9752 15.5241 22.9696C15.6963 22.9497 15.884 22.8922 16.0675 22.9102C16.1182 22.9152 16.1835 22.9604 16.1993 22.9593C16.2304 22.9571 16.2396 22.9142 16.2604 22.909C16.3663 22.8827 16.5312 22.9362 16.635 22.9399C16.973 22.9521 17.3312 22.9427 17.6677 22.9602C17.8804 22.9707 18.2338 22.9767 18.4301 23.0112C18.4724 23.0185 18.4612 23.0575 18.4967 23.0586C18.5361 23.0597 18.5575 23.0341 18.5759 23.0326C18.7034 23.0217 18.9849 23.0087 19.1052 23.0389C19.1282 23.0447 19.1448 23.0732 19.1585 23.0736C19.1655 23.0738 19.1812 23.0555 19.203 23.0545C19.3956 23.0456 19.536 23.0634 19.7248 23.0777C20.0862 23.1038 20.5051 23.0994 20.8848 23.1357C20.9675 23.1436 21.0243 23.1796 21.0359 23.1797C21.0614 23.1801 21.0778 23.1591 21.1295 23.1569C21.3014 23.1509 21.5329 23.1859 21.6965 23.1878C21.7772 23.1889 21.8883 23.1797 21.9678 23.1837C22.0313 23.1868 22.1812 23.2057 22.2094 23.2027C22.2265 23.201 22.2344 23.1915 22.2549 23.1926ZM20.1158 23.4922C20.1271 23.4396 20.0082 23.4889 20.0528 23.5151C20.0629 23.5209 20.1129 23.5058 20.1158 23.4922ZM14.549 23.4784C14.5501 23.503 14.5512 23.5276 14.5523 23.5522C14.5679 23.5421 14.5835 23.5319 14.5991 23.5217C14.5904 23.5068 14.5816 23.492 14.5728 23.4772C14.5649 23.4776 14.557 23.478 14.549 23.4784Z" fill="#64E6F4"/>
<g filter="url(#filter2_f_34_287)">
<path d="M22.2549 23.1926C22.2738 23.1937 22.3005 23.2025 22.3228 23.2051C22.4162 23.2166 22.4508 23.2236 22.5353 23.2337C22.6606 23.2469 23.0324 23.288 23.0324 23.2857C23.0324 23.2857 23.0324 23.2857 23.0324 23.2857C23.0324 23.2857 23.0324 23.2857 23.0324 23.2857C23.0324 23.2857 23.0324 23.2857 23.0324 23.2857C23.0324 23.2857 23.0324 23.2857 23.0323 23.2857C23.031 23.2855 22.9994 23.2844 22.9947 23.2849C22.99 23.2854 22.9935 23.2878 22.9486 23.292C22.8835 23.2983 22.7272 23.3047 22.6925 23.3062C22.6687 23.3077 22.6395 23.3122 22.6091 23.3148C22.5112 23.3236 22.46 23.3231 22.3718 23.3421C22.3365 23.3385 22.3012 23.3338 22.2659 23.3282C22.2199 23.3344 22.1501 23.3271 22.1221 23.3287C22.0992 23.3303 22.0857 23.3381 22.0618 23.3397C22.035 23.3417 21.9938 23.3353 21.945 23.3387C21.865 23.3442 21.8508 23.3682 21.8028 23.3746C21.753 23.3814 21.6756 23.372 21.6121 23.3854C21.6042 23.3889 21.5962 23.3925 21.5882 23.3961C21.594 23.4026 21.5997 23.4091 21.6054 23.4155C21.5734 23.4214 21.5596 23.4081 21.5302 23.41C21.4957 23.4121 21.478 23.4278 21.4547 23.4297C21.4357 23.4312 21.4098 23.4213 21.3851 23.4238C21.3491 23.4275 21.357 23.4448 21.3376 23.4498C21.3298 23.4516 21.1868 23.4744 21.1787 23.4754C21.1173 23.4818 21.112 23.4548 21.0631 23.4559C20.9273 23.4588 20.788 23.4929 20.6624 23.5133C20.6064 23.5223 20.5479 23.5251 20.492 23.5238C20.58 23.4305 20.3852 23.3704 20.458 23.5072C20.3958 23.4912 20.3517 23.5328 20.2928 23.5306C20.2546 23.5289 20.2283 23.5099 20.1738 23.5138C20.0772 23.5201 19.9715 23.5913 19.9437 23.4774C19.8303 23.5038 19.732 23.4639 19.6911 23.5742C19.6619 23.5829 19.5869 23.522 19.5541 23.5143C19.5231 23.5077 19.2851 23.4866 19.2461 23.4858C19.2072 23.4855 19.139 23.4858 19.1062 23.4976C19.065 23.5117 19.0362 23.6413 18.9628 23.4944C18.8775 23.5095 18.8472 23.5065 18.7678 23.4909C18.7535 23.4881 18.7518 23.4651 18.7434 23.4653C18.7262 23.4657 18.6968 23.4837 18.6659 23.4867C18.6152 23.4917 18.5862 23.4428 18.5919 23.5184C18.5584 23.5322 18.525 23.5461 18.4915 23.5602C18.4798 23.5458 18.468 23.5313 18.4563 23.5168C18.4384 23.5335 18.4205 23.5504 18.4026 23.5674C18.4236 23.4544 18.2978 23.5243 18.3386 23.5882C18.2738 23.5672 18.209 23.5456 18.1441 23.5233C18.1532 23.3913 18.0017 23.511 18.0145 23.584C18.0071 23.5841 17.9996 23.5842 17.9922 23.5844C17.9273 23.5507 17.8676 23.5817 17.7884 23.5596C17.7092 23.5372 17.7167 23.5235 17.6926 23.4605C17.674 23.4645 17.6553 23.4684 17.6367 23.4724C17.539 23.65 17.5562 23.3445 17.3888 23.4827C17.3353 23.3712 17.2035 23.431 17.1161 23.4671C17.1059 23.4712 17.1057 23.4935 17.0922 23.5005C17.0591 23.5176 16.9745 23.49 16.9774 23.5623C16.9482 23.5419 16.9189 23.5213 16.8897 23.5007C16.8657 23.5142 16.8418 23.5278 16.8179 23.5414C16.818 23.5642 16.8182 23.587 16.8183 23.6098C16.7701 23.5329 16.6945 23.5638 16.6571 23.5457C16.6497 23.542 16.6481 23.5102 16.625 23.5018C16.598 23.4918 16.5477 23.5018 16.5156 23.4921C16.5031 23.5276 16.4906 23.5632 16.4781 23.5988C16.4206 23.6189 16.4004 23.5253 16.3666 23.5183C16.3605 23.5171 16.2496 23.5249 16.2436 23.527C16.1947 23.5434 16.2086 23.624 16.067 23.6082C16.0419 23.6053 16.0215 23.5774 15.9987 23.5765C15.9585 23.5747 15.8372 23.6395 15.8277 23.6988C15.7789 23.6253 15.6483 23.6564 15.6099 23.6352C15.5983 23.6286 15.5956 23.5813 15.56 23.5714C15.531 23.5633 15.4565 23.6015 15.4199 23.5953C15.3809 23.5885 15.367 23.5486 15.3496 23.5458C15.3331 23.5432 15.3179 23.5755 15.2954 23.5753C15.2253 23.5743 15.1618 23.5225 15.1064 23.5216C15.1056 23.5215 15.1047 23.5215 15.1039 23.5215C15.0248 23.5221 14.9547 23.6159 14.8884 23.6576C14.8718 23.6513 14.8554 23.6308 14.8379 23.6306C14.6221 23.627 14.3785 23.6078 14.162 23.5857C14.0615 23.5753 13.8116 23.4465 13.8783 23.6581C13.8433 23.6944 13.5893 23.6056 13.541 23.6037C13.4927 23.6017 13.4544 23.6381 13.4165 23.6379C13.3019 23.6371 13.2212 23.6093 13.0818 23.6376C13.0458 23.6451 13.0072 23.6867 12.9859 23.6856C12.9602 23.6841 12.9325 23.6422 12.8992 23.6388C12.8199 23.6308 12.672 23.6399 12.5959 23.6306C12.582 23.6288 12.5772 23.5936 12.5573 23.5821C12.4799 23.5374 12.3931 23.5393 12.4085 23.6497C12.3093 23.584 12.2175 23.6377 12.1256 23.6372C11.9312 23.6362 11.5771 23.5981 11.4077 23.6305C11.3009 23.6509 11.3037 23.6931 11.1465 23.647C11.1116 23.6369 11.0768 23.6241 11.0345 23.6123C10.9353 23.5838 10.8443 23.5072 10.7686 23.5903C10.6585 23.5616 10.5707 23.5711 10.4889 23.4965C10.4793 23.5129 10.4697 23.5292 10.46 23.5454C10.4465 23.545 10.433 23.5447 10.4195 23.5443C10.4153 23.5282 10.4111 23.5122 10.4069 23.4962C10.3101 23.4879 10.1873 23.5435 10.1054 23.5369C9.96802 23.5269 9.61425 23.4808 9.48401 23.457C9.41487 23.4443 9.41114 23.4688 9.37156 23.4154C9.35609 23.4182 9.34063 23.4209 9.32516 23.4236C9.31548 23.4341 9.30581 23.4444 9.29613 23.4546C9.20742 23.4488 9.1022 23.426 9.01769 23.421C8.8637 23.4128 8.63246 23.4174 8.47781 23.3919C8.43904 23.3857 8.39057 23.3686 8.3526 23.3665C8.29734 23.3634 8.2839 23.3834 8.21377 23.3778C8.0929 23.367 7.86781 23.3322 7.75356 23.3268C7.71963 23.3249 7.7038 23.3276 7.68037 23.3261C7.58212 23.3199 7.50146 23.3138 7.40726 23.3079C7.3061 23.2944 7.31484 23.2928 7.28349 23.2887C7.25974 23.285 7.18689 23.2843 7.17655 23.2856C7.16928 23.2862 7.1964 23.2841 7.18622 23.2847C7.30742 23.2731 7.35833 23.2674 7.45674 23.2655C7.63847 23.2525 7.8202 23.2396 8.00194 23.2268C8.01847 23.2312 8.035 23.236 8.05154 23.241C8.05154 23.241 8.05154 23.241 8.05154 23.241C8.12133 23.2448 8.15091 23.2275 8.18855 23.2211C8.54889 23.1557 9.25813 23.1367 9.65483 23.1346C9.74032 23.1329 10.0184 23.097 10.0771 23.1213C10.0922 23.1277 10.0965 23.1535 10.1126 23.1541C10.257 23.1336 10.4013 23.1116 10.5457 23.0883C10.8425 23.1217 11.1494 23.0741 11.4485 23.0545C12.2577 23.0053 13.0589 22.9501 13.8549 22.9491C14.0087 22.9491 14.2039 22.915 14.3545 22.9343C14.4174 22.9423 14.4436 23.0109 14.5261 22.9591C14.527 22.9777 14.5279 22.9962 14.5287 23.0147C14.6008 22.992 14.6468 22.9495 14.7276 22.9449C14.7956 22.941 14.9756 22.9378 15.0358 22.9449C15.0669 22.9485 15.0553 22.9833 15.0844 22.9831C15.0902 22.983 15.0967 22.9823 15.1039 22.9811C15.1583 22.972 15.2485 22.9345 15.3092 22.9346C15.3714 22.9348 15.4763 22.9752 15.5241 22.9696C15.6963 22.9497 15.884 22.8922 16.0675 22.9102C16.1182 22.9152 16.1835 22.9604 16.1993 22.9593C16.2304 22.9571 16.2396 22.9142 16.2604 22.909C16.3663 22.8827 16.5313 22.9362 16.635 22.9399C16.973 22.9521 17.3312 22.9427 17.6677 22.9602C17.8804 22.9707 18.2338 22.9767 18.4301 23.0112C18.4724 23.0185 18.4612 23.0575 18.4967 23.0586C18.5361 23.0597 18.5575 23.0341 18.5759 23.0326C18.7034 23.0217 18.9849 23.0087 19.1052 23.0389C19.1282 23.0447 19.1448 23.0732 19.1585 23.0736C19.1655 23.0738 19.1812 23.0555 19.203 23.0545C19.3956 23.0456 19.536 23.0634 19.7248 23.0777C20.0862 23.1038 20.5051 23.0994 20.8848 23.1357C20.9675 23.1436 21.0243 23.1796 21.0359 23.1797C21.0614 23.1801 21.0778 23.1591 21.1295 23.1569C21.3014 23.1509 21.5329 23.1859 21.6965 23.1878C21.7772 23.1889 21.8883 23.1797 21.9678 23.1837C22.0313 23.1868 22.1812 23.2057 22.2094 23.2027C22.2265 23.201 22.2344 23.1915 22.2549 23.1926ZM20.1158 23.4922C20.1271 23.4396 20.0082 23.4889 20.0528 23.5151C20.0629 23.5209 20.1129 23.5058 20.1158 23.4922ZM14.549 23.4784C14.5501 23.503 14.5512 23.5276 14.5523 23.5522C14.5679 23.5421 14.5835 23.5319 14.5991 23.5217C14.5904 23.5068 14.5816 23.492 14.5728 23.4772C14.5649 23.4776 14.557 23.478 14.549 23.4784Z" fill="#64E6F4"/>
</g>
</g>
<defs>
<filter id="filter0_f_34_287" x="6.17529" y="8.15833" width="17.8572" height="2.797" filterUnits="userSpaceOnUse" color-interpolation-filters="sRGB">
<feFlood flood-opacity="0" result="BackgroundImageFix"/>
<feBlend mode="normal" in="SourceGraphic" in2="BackgroundImageFix" result="shape"/>
<feGaussianBlur stdDeviation="0.5" result="effect1_foregroundBlur_34_287"/>
</filter>
<filter id="filter1_f_34_287" x="6.17529" y="15.0155" width="17.8572" height="2.797" filterUnits="userSpaceOnUse" color-interpolation-filters="sRGB">
<feFlood flood-opacity="0" result="BackgroundImageFix"/>
<feBlend mode="normal" in="SourceGraphic" in2="BackgroundImageFix" result="shape"/>
<feGaussianBlur stdDeviation="0.5" result="effect1_foregroundBlur_34_287"/>
</filter>
<filter id="filter2_f_34_287" x="6.17529" y="21.9018" width="17.8572" height="2.797" filterUnits="userSpaceOnUse" color-interpolation-filters="sRGB">
<feFlood flood-opacity="0" result="BackgroundImageFix"/>
<feBlend mode="normal" in="SourceGraphic" in2="BackgroundImageFix" result="shape"/>
<feGaussianBlur stdDeviation="0.5" result="effect1_foregroundBlur_34_287"/>
</filter>
</defs>
</svg>
