<svg width="117" height="37" viewBox="0 0 117 37" fill="none" xmlns="http://www.w3.org/2000/svg">
<path opacity="0.7" d="M2.8402 0.0101698C4.50606 -0.015883 6.68974 0.0119737 8.34931 0.0502087C8.86942 0.0620673 8.60605 0.115075 8.96508 0.125648C9.66729 0.146258 10.3215 0.120261 11.0154 0.144813C11.2454 0.153209 10.9591 0.237174 11.2003 0.244056C12.5217 0.281163 13.7718 0.259777 15.1104 0.277625C21.7039 0.365685 28.1853 0.397205 34.8595 0.435461C37.0601 0.448004 39.7353 0.524206 42.0084 0.490881C42.2737 0.486916 42.1156 0.413216 42.166 0.407141C42.9579 0.31415 42.6946 0.462935 43.2116 0.482702C45.2636 0.560754 47.5454 0.567542 49.5202 0.539099C50.3604 0.526782 49.518 0.380395 50.3639 0.462561C50.4227 0.468112 50.2095 0.546377 50.4399 0.554724C50.9624 0.573498 51.9537 0.559509 52.3587 0.56571C53.1391 0.578057 53.2682 0.577269 54.0064 0.578161C55.0155 0.580061 56.2158 0.618966 57.2985 0.601232C57.5296 0.597215 57.2236 0.516985 57.5922 0.503332C57.9611 0.489702 58.937 0.496505 59.266 0.515417C59.5951 0.534339 59.455 0.597399 59.5132 0.611852C59.9924 0.733849 61.1213 0.564884 61.2665 0.560705C63.9147 0.489506 66.1858 0.58576 68.6717 0.585485C70.5589 0.585073 72.5768 0.553296 74.3724 0.557653C76.5117 0.563155 78.3249 0.606631 80.4032 0.599157C80.6225 0.598461 80.3655 0.504129 80.6334 0.503088C83.4795 0.492111 86.3059 0.502394 89.1397 0.566076C89.4239 0.572546 89.0577 0.655368 89.3416 0.666784C91.08 0.734849 93.8307 0.898357 94.8632 0.537756C96.0407 0.551837 97.4704 0.566385 98.5238 0.639074C99.2031 0.685858 98.5434 0.776084 99.3777 0.737585C99.5659 0.729007 99.3212 0.649991 99.6034 0.643102C100.792 0.614176 102.09 0.639861 103.265 0.599035C103.504 0.590545 103.439 0.519744 103.507 0.506994C104.076 0.403741 105.024 0.574425 105.23 0.586828C106.804 0.679315 107.953 0.642919 109.418 0.645178C109.759 0.645741 109.357 0.550639 109.684 0.547766C111.381 0.534136 113.14 0.54231 114.802 0.584509C115.171 0.594124 114.831 0.675134 115.008 0.683874C115.243 0.69519 115.423 0.689199 115.579 0.67621C116.036 0.667162 116.504 0.738203 116.843 1.39956C116.924 1.60486 116.808 1.51501 116.817 1.55403C116.84 1.71484 116.851 1.86259 116.852 2C116.854 2.29401 116.945 2.52548 116.948 2.61001C116.999 4.073 116.822 5.00814 116.847 6.42147C116.85 6.59055 116.938 6.20928 116.942 6.68457C116.966 9.85096 116.942 13.1998 116.872 16.334C116.861 16.8213 116.795 16.4735 116.787 16.5041C116.66 17.0039 116.83 17.3273 116.836 17.4862C116.882 18.7397 116.74 19.9107 116.942 20.7624C116.904 23.6657 116.921 26.5617 116.914 29.4512C116.915 29.8611 116.714 30.2648 116.387 30.5097C114.722 31.768 113.05 33.011 111.353 34.2156C111.298 34.2545 111.343 34.1152 111.234 34.1931C109.927 35.131 110.252 35.0472 109.502 35.8191C109.313 36.0135 108.548 36.3551 108.482 36.3876L108.384 36.463C108.352 36.4217 108.276 36.3226 108.27 36.3146L108.307 36.2867C108.293 36.2949 108.28 36.303 108.268 36.3111C107.981 36.4795 107.851 36.5617 107.649 36.6599C107.464 36.7535 107.249 36.8578 106.754 36.8579C106.724 36.8572 106.853 36.7813 106.77 36.7738C106.514 36.7501 106.26 36.7802 106.009 36.7541C105.436 36.6937 105.231 36.4934 104.355 36.61C104.244 36.6251 104.413 36.8589 103.536 36.8479C103.186 36.8433 101.638 36.8473 101.205 36.8321C100.771 36.817 101.069 36.7416 101.038 36.7384C99.8703 36.6387 100.313 36.5974 99.728 36.4499C99.1431 36.303 99.3053 36.6535 99.0669 36.6926C98.828 36.7316 97.972 36.6494 97.7616 36.6208C97.5514 36.5922 97.8136 36.5443 97.6267 36.5282C96.387 36.4225 97.0826 36.7021 96.6741 36.7578C95.7111 36.8895 94.9611 36.6296 94.0794 36.6041C93.8409 36.5972 94.0356 36.6564 93.8232 36.662C92.9819 36.6831 92.4759 36.602 91.5188 36.6764C91.3622 36.6885 90.5885 36.8448 90.0877 36.7301C90.0167 36.7135 90.2183 36.6488 89.8597 36.6342C89.3241 36.6125 88.3591 36.5983 87.7833 36.62C87.3582 36.636 87.8455 36.7427 87.3104 36.7096C87.0727 36.6948 87.5133 36.6323 87.0666 36.6097C86.6222 36.5871 85.4861 36.5899 85.0537 36.592C84.6222 36.5942 84.8584 36.6752 84.8235 36.6806C84.6124 36.7119 83.7842 36.7509 83.711 36.7508C80.0193 36.7607 76.6149 36.6242 73.0205 36.6694C72.7385 36.6728 72.9264 36.7582 72.8833 36.7596C71.9177 36.7954 72.679 36.5684 72.0044 36.4924C72.1019 36.6657 71.7037 36.6343 71.0235 36.6533C70.6957 36.6626 70.8743 36.7297 70.8443 36.7365C70.3583 36.8384 70.0198 36.7068 69.9326 36.6799C69.6107 36.5809 69.2603 36.6979 69.0412 36.6317C68.8223 36.566 69.3262 36.4686 68.6738 36.4698C68.4909 36.5318 68.9752 36.6939 68.4799 36.7202C66.6111 36.8195 63.1227 36.6924 61.6202 36.6792C60.1206 36.666 59.6362 36.6774 58.7624 36.655C57.184 36.6145 57.7625 36.7347 56.7824 36.7898C55.7994 36.8448 56.2773 36.5489 56.136 36.4853C55.9973 36.4217 55.8458 36.4872 55.6733 36.4522C55.5013 36.4173 55.8736 36.374 55.4692 36.3609C55.0645 36.3478 53.9581 36.4609 53.8146 36.5274C53.5114 36.6683 54.01 36.8162 52.9392 36.7642C52.8776 36.7612 53.0774 36.6834 52.8416 36.6755C50.9687 36.6156 49.0229 36.6119 47.1522 36.5589C46.895 36.5515 47.125 36.465 46.9753 36.4597C45.4161 36.4043 45.9735 36.5503 45.1189 36.7124C45.3108 36.4966 44.8382 36.3646 43.6549 36.3634C42.9435 36.3625 43.066 36.4567 42.6059 36.5232C42.4679 36.5432 41.9645 36.4785 41.8733 36.5228C41.5725 36.6676 42.0467 36.8298 40.8266 36.7652C40.7731 36.7622 40.9435 36.6829 40.7586 36.6781C39.563 36.6466 39.42 36.7981 38.1276 36.8165C37.1146 36.8309 35.3131 36.7385 34.1597 36.7235C34.1839 36.4809 33.0945 36.5365 32.6525 36.7037C31.904 36.6969 31.0955 36.7063 30.372 36.6832C30.123 36.6753 30.2866 36.6051 30.2552 36.5975C29.7737 36.4785 29.4483 36.6412 29.2867 36.6475C27.5356 36.7096 26.1089 36.5862 24.4376 36.7068C24.3783 36.7111 24.2822 36.8796 23.8355 36.7566C23.8066 36.7481 24.3585 36.6714 23.5724 36.6655C22.7861 36.6595 21.3038 36.5692 20.2123 36.6473C19.9481 36.6661 19.2799 36.8029 18.7437 36.696C18.6722 36.6815 18.7504 36.6332 18.6473 36.6063C18.3139 36.5206 18.1319 36.6909 17.7401 36.5462C17.3482 36.4016 16.5332 36.2932 15.4323 36.393C15.3973 36.3959 15.1366 36.5309 14.7905 36.5288C14.2378 36.5252 13.4533 36.4971 12.8762 36.498C12.5999 36.4985 12.7768 36.5823 12.7288 36.5838C10.8711 36.6308 9.54891 36.5561 7.55876 36.5236C7.19395 36.5175 6.14553 36.6318 5.43926 36.5415C4.66374 36.4426 5.46066 36.0311 3.67812 36.1291C3.12225 36.1594 2.45205 36.4783 1.57947 36.4965C1.32493 36.5056 1.04366 36.3692 0.905265 36.1258C0.74214 35.9613 0.647129 35.7321 0.645177 35.5C0.61796 33.2759 0.72139 31.1732 0.635289 28.9122C0.631049 28.7992 0.485357 28.4419 0.48734 28.1762C0.490565 27.7818 0.558659 27.5654 0.563145 27.2838C0.583656 26.1038 0.525397 25.0239 0.534459 23.8862C0.537751 23.4543 0.60816 23.6053 0.612095 23.0901C0.615965 22.5753 0.52325 22.2319 0.568028 21.5342C0.602159 21.0073 0.791666 20.4805 0.813755 19.781C0.626828 19.7544 0.630678 19.274 0.581334 18.4202C0.57176 18.2561 0.506699 18.4321 0.498814 18.3544C0.465282 18.0385 0.519203 17.7461 0.482701 17.4461C0.473934 17.3731 0.410098 17.3696 0.399327 17.31C0.305316 16.8026 0.44891 15.9668 0.473912 15.8233C0.568864 15.2731 0.485837 15.016 0.523228 14.594C0.560615 14.1727 0.607352 14.8026 0.63004 14.3105C0.676966 13.2903 0.666657 11.9796 0.66959 10.9435C0.670367 10.5302 0.585154 10.8122 0.583287 10.753C0.561674 9.89822 0.652316 9.03379 0.482579 8.55982C0.921455 7.96715 0.44001 8.04435 0.527867 6.82249C0.534973 6.72624 0.742514 6.6038 0.772983 6.97332C0.803424 7.34281 0.738549 7.90313 0.786045 8.4158C0.797191 8.53721 0.991671 9.23267 1.00345 9.32756C1.09552 10.0708 0.785379 10.1762 0.768345 10.2155C0.584514 10.6614 0.794029 11.5113 0.808506 11.7351C0.874841 12.7589 0.831225 13.6288 0.878574 14.4851C0.909176 15.0452 1.11233 15.1 1.10611 15.5398C1.08556 17.0017 0.802157 17.512 1.04788 18.8897C1.10029 19.1851 1.32234 18.8915 1.14774 19.95C1.13673 20.0165 0.977006 20.8024 1.07804 21.2564C1.09077 21.3134 1.15549 21.3116 1.16092 21.3868C1.19608 21.8908 1.14453 22.2269 1.16922 22.776C1.19391 23.325 1.23072 23.9852 1.20877 24.612C1.19565 24.9897 1.07508 25.4745 1.04557 25.6553C0.960533 26.1659 1.09995 26.7134 0.996982 27.0297C0.893495 27.3487 0.736334 26.7251 0.669468 27.5616C0.837592 27.5926 1.01015 27.6637 1.17923 27.7136C1.17331 29.5467 1.11895 31.3505 1.12638 33.1898C1.12746 33.4178 1.21785 33.1846 1.22135 33.4291C1.23137 34.149 1.203 34.8054 1.19368 35.5C1.18863 35.6176 1.2451 35.7378 1.35137 35.8072C1.41943 35.8516 1.50002 35.8677 1.57947 35.8552C2.22283 35.8186 2.89364 35.7605 3.5409 35.7425C4.0697 35.9349 5.35431 35.8696 6.28751 35.8872C6.61442 35.8932 6.59257 35.9446 6.82504 35.9614C7.70209 36.0234 7.29111 35.8534 7.53155 35.8266C8.56312 35.7124 8.65144 36.0972 9.86765 36.0877C9.93206 36.0874 10.7197 35.8822 10.8282 35.8695C11.5175 35.7862 10.9422 35.9409 11.3736 35.956C12.1612 35.9837 12.7086 36.0327 13.6326 35.9726C13.9021 35.9548 14.5484 35.827 15.0717 35.9259C15.1405 35.9388 15.1025 36.0066 15.1579 36.0106C16.1608 36.0768 16.1872 35.8637 16.7603 35.7916C17.3335 35.7195 18.2188 35.8665 18.3989 35.9089C18.8703 36.0185 18.0378 35.9558 18.0122 35.9665C17.7124 36.0946 18.3581 36.0725 18.8514 36.0833C18.9229 36.2922 19.6128 36.2797 19.3629 36.0937C19.3344 36.0734 18.9505 36.0929 18.8514 36.0833C19.2845 35.8784 20.0427 35.8522 20.8802 36.0437C21.2722 36.1334 20.9016 36.2381 22.0925 36.1998C22.6329 36.1825 22.4241 36.0387 22.901 35.9995C23.9906 35.91 25.4066 36.0442 26.5299 36.023C26.9376 36.0154 26.5405 35.9366 26.8191 35.9287C27.5586 35.9073 28.2107 35.9664 28.9533 35.9361C29.0206 35.9333 28.8562 35.8509 29.0872 35.8498C30.8379 35.8402 32.3624 35.893 34.1903 35.8945C35.0735 35.8952 36.6525 35.8497 37.5674 35.8589C39.1531 35.8742 41.1039 35.994 42.4585 35.9649C43.342 35.9463 43.1481 35.8639 43.5267 35.8077C44.2573 35.6988 45.5504 35.8938 45.7245 35.924C45.7298 35.925 44.9695 35.9445 45.3752 35.9868C45.6111 36.0749 45.7159 35.9244 45.7245 35.924C45.8388 35.9435 47.3576 35.9623 47.6591 35.9465C47.823 35.9379 47.7313 35.8598 47.8168 35.8568C49.8476 35.7869 51.8819 35.767 53.9416 35.8036C53.9779 35.8051 53.9233 35.8925 54.0086 35.8951C55.201 35.9339 55.9645 35.8271 56.948 35.7636C57.9312 35.7002 58.7111 35.7215 59.2931 35.8714C60.035 35.8525 61.0995 35.9188 61.712 35.9591C62.3245 35.9993 62.41 35.8293 62.4639 35.8259C64.1448 35.7183 65.1166 35.8156 66.8605 35.8308C67.6896 35.8383 69.3343 35.8136 70.232 35.795C70.9414 35.78 71.3689 35.8199 72.0226 35.7944C72.111 35.791 72.0217 35.7153 72.0487 35.7124C72.7783 35.6218 72.4276 35.8069 72.5783 35.8399C73.1244 35.9601 73.4618 36.0242 74.3961 35.9676C74.6116 35.9547 75.2394 35.6882 75.6322 35.6726C76.143 35.6528 75.9502 35.7483 76.485 35.7252C76.5307 35.7233 76.5212 35.6644 76.8513 35.667C78.3834 35.6782 80.0538 35.7125 81.646 35.7066C81.8634 35.7061 81.5846 35.6126 81.8988 35.6102C83.3733 35.5991 84.9894 35.6026 86.4259 35.6463C86.7794 35.6574 86.5578 35.7228 86.6345 35.7423C87.1058 35.8599 87.774 35.689 87.8842 35.6858C90.5143 35.6037 92.5272 35.7583 95.2078 35.6847C95.3537 35.6803 96.4769 35.4972 96.978 35.6543C97.0123 35.6647 97.5081 35.8254 97.9465 35.7155C97.9737 35.7087 97.6648 35.6259 98.2039 35.6344C98.743 35.6428 99.6107 35.5875 100.352 35.6784C100.586 35.7071 101.141 35.8674 101.841 35.7396C101.886 35.7307 102.967 35.4417 103.352 35.6411C103.415 35.6739 103.349 35.8849 104.185 35.7767C104.344 35.7557 104.055 35.7087 104.475 35.6793C105.119 35.634 105.973 35.6905 106.765 35.5965C106.873 35.5834 107.26 35.4922 107.649 35.5065C107.65 35.5103 107.651 35.5224 107.663 35.5432C107.674 35.5568 107.681 35.6314 107.716 35.6238C107.723 35.6218 107.73 35.619 107.737 35.6155C108.659 34.9493 109.576 34.1986 110.518 33.5383C110.867 33.2937 110.763 33.5163 111.134 33.2713C111.506 33.0263 112.235 32.5071 112.573 32.184C112.911 31.8608 112.397 32.0244 112.942 31.5906C113.83 30.8837 114.729 30.1981 115.633 29.5214C115.656 29.5074 115.674 29.4815 115.678 29.4512C115.699 27.8754 115.732 26.3005 115.74 24.719C115.742 24.2708 115.677 24.6424 115.676 23.9819C115.671 21.5468 115.61 17.3425 115.748 15.2295C115.859 13.5364 115.943 15.667 115.988 14.3733C116.009 13.749 115.798 13.0736 115.792 12.9229C115.724 11.4506 115.818 10.4274 115.789 9.10232C115.783 8.82868 115.698 9.09706 115.693 8.86417C115.679 8.0687 115.717 7.23264 115.71 6.47251C115.706 6.13149 115.641 6.19432 115.646 5.88054C115.658 5.12972 115.685 4.46577 115.746 3.73383C115.752 3.66712 115.833 4.11695 115.836 3.56146C115.838 3.08679 115.856 2.55166 115.864 2C115.878 1.85718 115.732 1.71535 115.602 1.74166C115.594 1.74285 115.586 1.74571 115.579 1.74972C115.347 1.78644 115.279 1.89864 114.684 1.8057C114.545 1.78417 114.722 1.60493 113.953 1.7598C113.824 1.78553 112.533 1.99442 111.9 1.85977C111.733 1.82434 111.306 1.67767 110.937 1.70072C110.887 1.70439 111.087 1.78457 110.782 1.79239C109.704 1.81856 108.574 1.81 107.467 1.83512C107.171 1.84198 107.611 1.92495 107.171 1.93253C105.959 1.9535 104.446 1.93237 103.261 1.9064C102.824 1.89667 103.126 1.82795 103.094 1.82047C102.583 1.69882 102.28 1.86302 102.111 1.87259C101.055 1.92992 100.252 1.85279 99.2791 1.8732C99.0106 1.87863 99.201 1.95692 99.1475 1.9639C98.5933 2.03211 99.0062 1.89151 98.6554 1.87601C97.6726 1.83212 96.5771 1.83842 95.5833 1.84842C95.2182 1.85221 95.6285 1.94299 95.3009 1.94534C93.3619 1.96099 91.3462 1.9523 89.4539 1.90225C89.0975 1.89267 89.3217 1.82276 89.2475 1.80679C88.7356 1.69509 87.9855 1.84746 87.8129 1.86197C87.0281 1.92824 86.7233 1.86642 86.0302 1.87796C82.6446 1.93541 78.4642 1.89447 75.2683 1.86917C71.1037 1.83662 67.8722 1.77012 63.9008 1.78739C63.6484 1.7884 63.9029 1.88139 63.6853 1.88345C60.8762 1.90587 58.1106 1.86953 55.2958 1.89639C55.0648 1.89843 55.3978 1.98659 55.027 1.99283C54.2666 2.00624 53.3033 2.00145 52.5344 1.9733C52.1594 1.95974 52.6624 1.88409 52.285 1.87198C51.406 1.84362 50.4639 1.83734 49.561 1.85147C49.1768 1.85768 49.7565 1.94784 49.2571 1.94888C45.8554 1.95783 42.5145 1.97336 39.0769 1.8566C38.8413 1.84858 38.6345 1.66533 38.1334 1.70047C38.0957 1.75133 38.0977 1.81115 38.0813 1.86551C33.1292 1.89479 28.2277 1.83127 23.2618 1.82144C23.0524 1.82105 23.4142 1.91815 23.0089 1.91788C20.6628 1.91644 18.3845 1.94334 15.9847 1.84683C15.7466 1.8374 15.8688 1.66658 15.1671 1.69242C15.0433 1.69713 13.9865 1.71991 13.7133 1.75699C13.6762 1.76258 13.869 1.84231 13.5284 1.84464C11.5494 1.85674 9.47551 1.83854 7.49992 1.78983C7.18108 1.78181 7.52062 1.69691 7.29353 1.69046C5.68262 1.64539 3.93042 1.70993 2.39112 1.63285C1.8182 1.60398 1.68179 1.54579 1.57947 1.47497C1.53447 1.42254 1.49689 1.3431 1.31287 1.34135C1.28379 1.34115 1.16197 1.38917 1.06119 1.47145C0.957965 1.5503 0.881919 1.65799 0.838332 1.65335C0.5971 1.6544 0.571549 1.22422 0.301283 1.24168C0.26662 1.24249 0.110611 1.54319 0.07874 1.77727C0.047585 2.00486 0.0217807 2.15134 2.47359e-05 1.74609C0.000154614 1.71899 0.0289584 1.45068 0.163939 1.1897C0.290937 0.925004 0.525221 0.697949 0.621889 0.612068C0.762176 0.490388 0.421098 0.594371 0.744686 0.366408C0.963319 0.230009 1.2464 0.165415 1.57947 0.171931C1.68117 0.175932 1.79372 0.175528 1.92164 0.160804C2.28081 0.118927 2.12288 0.0216813 2.8402 0.0101698ZM64.47 36.1389C65.0371 36.2205 65.1208 35.9215 64.5074 35.993C64.4777 35.9968 64.4407 36.1349 64.47 36.1389ZM0.893344 31.3402C0.761423 32.0816 0.9554 32.589 1.05728 32.066C1.15906 31.543 0.933335 31.1143 0.893344 31.3402ZM0.797031 23.6515C0.693017 24.518 1.11715 24.6545 1.03141 23.7263C1.02656 23.6723 0.803071 23.6008 0.797031 23.6515ZM3.73381 1.24857C3.72598 1.2446 3.26735 1.24073 3.25639 1.24466C3.01217 1.33965 3.92926 1.34733 3.73381 1.24857ZM0.692173 16.0217C0.634801 16.2922 0.70103 17.0712 0.772373 16.735C0.829766 16.4644 0.763541 15.6848 0.692173 16.0217ZM94.0556 36.4581C94.0646 36.4626 94.3934 36.4666 94.3868 36.4414C94.3644 36.3602 93.9069 36.3831 94.0556 36.4581ZM0.68729 3.05412C0.671326 4.97002 0.320976 6.13166 0.360509 4.04525C0.367662 3.66743 0.472233 4.85956 0.503819 4.37866C0.561364 3.49872 0.341387 2.91444 0.459264 2.01648C0.480839 1.85393 0.68898 2.94482 0.687779 3.05752C0.687616 3.05638 0.687453 3.05525 0.68729 3.05412ZM64.7966 36.4981C64.8079 36.5021 65.2631 36.5058 65.274 36.5019C65.5205 36.407 64.6035 36.3994 64.7966 36.4981ZM112.271 33.412C112.296 33.4034 113.141 32.7691 113.164 32.742C113.508 32.2844 111.8 33.5665 112.271 33.412ZM34.1415 36.717C33.6449 36.8125 33.0507 36.8238 32.6548 36.7038C33.1484 36.7102 33.6452 36.7111 34.1415 36.717Z" fill="#07596E"/>
<path d="M42.3854 22.8022H41.5034C41.3448 22.8022 41.2654 22.7229 41.2654 22.5642V14.0382C41.2654 13.8795 41.3448 13.8002 41.5034 13.8002H45.8994C46.0581 13.8002 46.1374 13.8795 46.1374 14.0382V14.7522C46.1374 14.9109 46.0581 14.9902 45.8994 14.9902H42.7914C42.6794 14.9902 42.6234 15.0369 42.6234 15.1302V17.7762C42.6234 17.8789 42.6794 17.9302 42.7914 17.9302H45.4934C45.6614 17.9302 45.7454 18.0095 45.7454 18.1682V18.8682C45.7454 19.0362 45.6614 19.1202 45.4934 19.1202H42.7914C42.6794 19.1202 42.6234 19.1669 42.6234 19.2602V22.5642C42.6234 22.7229 42.5441 22.8022 42.3854 22.8022ZM49.1909 14.0382V22.5642C49.1909 22.7229 49.1115 22.8022 48.9529 22.8022H48.0709C47.9122 22.8022 47.8329 22.7229 47.8329 22.5642V14.0382C47.8329 13.8795 47.9122 13.8002 48.0709 13.8002H48.9529C49.1115 13.8002 49.1909 13.8795 49.1909 14.0382ZM56.2179 22.8022H51.6819C51.5232 22.8022 51.4439 22.7229 51.4439 22.5642V14.0382C51.4439 13.8795 51.5232 13.8002 51.6819 13.8002H52.5639C52.7225 13.8002 52.8019 13.8795 52.8019 14.0382V21.4442C52.8019 21.5375 52.8579 21.5842 52.9699 21.5842H56.2179C56.3765 21.5842 56.4559 21.6682 56.4559 21.8362V22.5642C56.4559 22.7229 56.3765 22.8022 56.2179 22.8022ZM60.3506 22.8022H59.4686C59.3006 22.8022 59.2166 22.7229 59.2166 22.5642V15.1302C59.2166 15.0369 59.1699 14.9902 59.0766 14.9902H57.3126C57.1446 14.9902 57.0606 14.9109 57.0606 14.7522V14.0382C57.0606 13.8795 57.1446 13.8002 57.3126 13.8002H62.5066C62.6746 13.8002 62.7586 13.8795 62.7586 14.0382V14.7522C62.7586 14.9109 62.6746 14.9902 62.5066 14.9902H60.7426C60.6399 14.9902 60.5886 15.0369 60.5886 15.1302V22.5642C60.5886 22.7229 60.5093 22.8022 60.3506 22.8022ZM68.8149 22.8022H64.3349C64.1763 22.8022 64.0969 22.7229 64.0969 22.5642V14.0382C64.0969 13.8795 64.1763 13.8002 64.3349 13.8002H68.8149C68.9643 13.8002 69.0389 13.8795 69.0389 14.0382V14.7522C69.0389 14.9109 68.9643 14.9902 68.8149 14.9902H65.6229C65.5109 14.9902 65.4549 15.0369 65.4549 15.1302V17.4962C65.4549 17.5895 65.5109 17.6362 65.6229 17.6362H68.3249C68.4929 17.6362 68.5769 17.7155 68.5769 17.8742V18.5882C68.5769 18.7469 68.4929 18.8262 68.3249 18.8262H65.6229C65.5109 18.8262 65.4549 18.8729 65.4549 18.9662V21.4582C65.4549 21.5609 65.5109 21.6122 65.6229 21.6122H68.8149C68.9643 21.6122 69.0389 21.6915 69.0389 21.8502V22.5642C69.0389 22.7229 68.9643 22.8022 68.8149 22.8022ZM72.0835 22.8022H71.2015C71.0428 22.8022 70.9635 22.7229 70.9635 22.5642V14.0382C70.9635 13.8795 71.0428 13.8002 71.2015 13.8002H74.4775C75.1588 13.8002 75.6908 13.9962 76.0735 14.3882C76.4655 14.7709 76.6615 15.3029 76.6615 15.9842V17.1602C76.6615 18.2335 76.2181 18.9102 75.3315 19.1902V19.2462L76.8855 22.5222C76.9881 22.7089 76.9275 22.8022 76.7035 22.8022H75.8355C75.6115 22.8022 75.4668 22.7229 75.4015 22.5642L73.9035 19.3442H72.4895C72.3775 19.3442 72.3215 19.3909 72.3215 19.4842V22.5642C72.3215 22.7229 72.2421 22.8022 72.0835 22.8022ZM72.4755 18.2242H74.2535C74.9441 18.2242 75.2895 17.8835 75.2895 17.2022V16.0262C75.2895 15.3355 74.9441 14.9902 74.2535 14.9902H72.4755C72.3728 14.9902 72.3215 15.0369 72.3215 15.1302V18.0842C72.3215 18.1775 72.3728 18.2242 72.4755 18.2242Z" fill="#64E6F4"/>
<g filter="url(#filter0_f_43_224)">
<path d="M42.3854 22.8022H41.5034C41.3448 22.8022 41.2654 22.7229 41.2654 22.5642V14.0382C41.2654 13.8795 41.3448 13.8002 41.5034 13.8002H45.8994C46.0581 13.8002 46.1374 13.8795 46.1374 14.0382V14.7522C46.1374 14.9109 46.0581 14.9902 45.8994 14.9902H42.7914C42.6794 14.9902 42.6234 15.0369 42.6234 15.1302V17.7762C42.6234 17.8789 42.6794 17.9302 42.7914 17.9302H45.4934C45.6614 17.9302 45.7454 18.0095 45.7454 18.1682V18.8682C45.7454 19.0362 45.6614 19.1202 45.4934 19.1202H42.7914C42.6794 19.1202 42.6234 19.1669 42.6234 19.2602V22.5642C42.6234 22.7229 42.5441 22.8022 42.3854 22.8022ZM49.1909 14.0382V22.5642C49.1909 22.7229 49.1115 22.8022 48.9529 22.8022H48.0709C47.9122 22.8022 47.8329 22.7229 47.8329 22.5642V14.0382C47.8329 13.8795 47.9122 13.8002 48.0709 13.8002H48.9529C49.1115 13.8002 49.1909 13.8795 49.1909 14.0382ZM56.2179 22.8022H51.6819C51.5232 22.8022 51.4439 22.7229 51.4439 22.5642V14.0382C51.4439 13.8795 51.5232 13.8002 51.6819 13.8002H52.5639C52.7225 13.8002 52.8019 13.8795 52.8019 14.0382V21.4442C52.8019 21.5375 52.8579 21.5842 52.9699 21.5842H56.2179C56.3765 21.5842 56.4559 21.6682 56.4559 21.8362V22.5642C56.4559 22.7229 56.3765 22.8022 56.2179 22.8022ZM60.3506 22.8022H59.4686C59.3006 22.8022 59.2166 22.7229 59.2166 22.5642V15.1302C59.2166 15.0369 59.1699 14.9902 59.0766 14.9902H57.3126C57.1446 14.9902 57.0606 14.9109 57.0606 14.7522V14.0382C57.0606 13.8795 57.1446 13.8002 57.3126 13.8002H62.5066C62.6746 13.8002 62.7586 13.8795 62.7586 14.0382V14.7522C62.7586 14.9109 62.6746 14.9902 62.5066 14.9902H60.7426C60.6399 14.9902 60.5886 15.0369 60.5886 15.1302V22.5642C60.5886 22.7229 60.5093 22.8022 60.3506 22.8022ZM68.8149 22.8022H64.3349C64.1763 22.8022 64.0969 22.7229 64.0969 22.5642V14.0382C64.0969 13.8795 64.1763 13.8002 64.3349 13.8002H68.8149C68.9643 13.8002 69.0389 13.8795 69.0389 14.0382V14.7522C69.0389 14.9109 68.9643 14.9902 68.8149 14.9902H65.6229C65.5109 14.9902 65.4549 15.0369 65.4549 15.1302V17.4962C65.4549 17.5895 65.5109 17.6362 65.6229 17.6362H68.3249C68.4929 17.6362 68.5769 17.7155 68.5769 17.8742V18.5882C68.5769 18.7469 68.4929 18.8262 68.3249 18.8262H65.6229C65.5109 18.8262 65.4549 18.8729 65.4549 18.9662V21.4582C65.4549 21.5609 65.5109 21.6122 65.6229 21.6122H68.8149C68.9643 21.6122 69.0389 21.6915 69.0389 21.8502V22.5642C69.0389 22.7229 68.9643 22.8022 68.8149 22.8022ZM72.0835 22.8022H71.2015C71.0428 22.8022 70.9635 22.7229 70.9635 22.5642V14.0382C70.9635 13.8795 71.0428 13.8002 71.2015 13.8002H74.4775C75.1588 13.8002 75.6908 13.9962 76.0735 14.3882C76.4655 14.7709 76.6615 15.3029 76.6615 15.9842V17.1602C76.6615 18.2335 76.2181 18.9102 75.3315 19.1902V19.2462L76.8855 22.5222C76.9881 22.7089 76.9275 22.8022 76.7035 22.8022H75.8355C75.6115 22.8022 75.4668 22.7229 75.4015 22.5642L73.9035 19.3442H72.4895C72.3775 19.3442 72.3215 19.3909 72.3215 19.4842V22.5642C72.3215 22.7229 72.2421 22.8022 72.0835 22.8022ZM72.4755 18.2242H74.2535C74.9441 18.2242 75.2895 17.8835 75.2895 17.2022V16.0262C75.2895 15.3355 74.9441 14.9902 74.2535 14.9902H72.4755C72.3728 14.9902 72.3215 15.0369 72.3215 15.1302V18.0842C72.3215 18.1775 72.3728 18.2242 72.4755 18.2242Z" fill="#64E6F4"/>
</g>
<defs>
<filter id="filter0_f_43_224" x="40.2654" y="12.8002" width="37.774" height="11.002" filterUnits="userSpaceOnUse" color-interpolation-filters="sRGB">
<feFlood flood-opacity="0" result="BackgroundImageFix"/>
<feBlend mode="normal" in="SourceGraphic" in2="BackgroundImageFix" result="shape"/>
<feGaussianBlur stdDeviation="0.5" result="effect1_foregroundBlur_43_224"/>
</filter>
</defs>
</svg>
