<svg width="117" height="37" viewBox="0 0 117 37" fill="none" xmlns="http://www.w3.org/2000/svg">
<path opacity="0.7" d="M2.84008 0.0101698C4.50594 -0.015883 6.68962 0.0119737 8.34918 0.0502087C8.8693 0.0620673 8.60593 0.115075 8.96496 0.125648C9.66716 0.146258 10.3214 0.120261 11.0153 0.144813C11.2453 0.153209 10.959 0.237174 11.2001 0.244056C12.5215 0.281163 13.7717 0.259777 15.1103 0.277625C21.7038 0.365685 28.1851 0.397205 34.8594 0.435461C37.06 0.448004 39.7352 0.524206 42.0083 0.490881C42.2736 0.486916 42.1154 0.413216 42.1659 0.407141C42.9577 0.31415 42.6945 0.462935 43.2115 0.482702C45.2635 0.560754 47.5453 0.567542 49.5201 0.539099C50.3602 0.526782 49.5179 0.380395 50.3638 0.462561C50.4225 0.468112 50.2094 0.546377 50.4398 0.554724C50.9623 0.573498 51.9536 0.559509 52.3585 0.56571C53.139 0.578057 53.2681 0.577269 54.0063 0.578161C55.0154 0.580061 56.2157 0.618966 57.2984 0.601232C57.5295 0.597215 57.2235 0.516985 57.5921 0.503332C57.961 0.489702 58.9369 0.496505 59.2659 0.515417C59.595 0.534339 59.4549 0.597399 59.5131 0.611852C59.9923 0.733849 61.1212 0.564884 61.2663 0.560705C63.9146 0.489506 66.1857 0.58576 68.6715 0.585485C70.5587 0.585073 72.5766 0.553296 74.3723 0.557653C76.5116 0.563155 78.3248 0.606631 80.4031 0.599157C80.6224 0.598461 80.3654 0.504129 80.6333 0.503088C83.4794 0.492111 86.3058 0.502394 89.1396 0.566076C89.4238 0.572546 89.0575 0.655368 89.3415 0.666784C91.0799 0.734849 93.8305 0.898357 94.8631 0.537756C96.0406 0.551837 97.4702 0.566385 98.5237 0.639074C99.2029 0.685858 98.5432 0.776084 99.3776 0.737585C99.5658 0.729007 99.3211 0.649991 99.6033 0.643102C100.791 0.614176 102.09 0.639861 103.265 0.599035C103.504 0.590545 103.439 0.519744 103.507 0.506994C104.076 0.403741 105.024 0.574425 105.23 0.586828C106.804 0.679315 107.953 0.642919 109.418 0.645178C109.758 0.645741 109.356 0.550639 109.684 0.547766C111.381 0.534136 113.139 0.54231 114.802 0.584509C115.171 0.594124 114.831 0.675134 115.008 0.683874C115.243 0.69519 115.422 0.689199 115.579 0.67621C116.036 0.667162 116.504 0.738203 116.843 1.39956C116.924 1.60486 116.808 1.51501 116.816 1.55403C116.84 1.71484 116.851 1.86259 116.852 2C116.854 2.29401 116.945 2.52548 116.948 2.61001C116.999 4.073 116.822 5.00814 116.847 6.42147C116.85 6.59055 116.938 6.20928 116.941 6.68457C116.966 9.85096 116.942 13.1998 116.871 16.334C116.861 16.8213 116.795 16.4735 116.787 16.5041C116.66 17.0039 116.83 17.3273 116.836 17.4862C116.882 18.7397 116.74 19.9107 116.942 20.7624C116.904 23.6657 116.92 26.5617 116.914 29.4512C116.915 29.8611 116.714 30.2648 116.387 30.5097C114.722 31.768 113.05 33.011 111.352 34.2156C111.298 34.2545 111.343 34.1152 111.234 34.1931C109.927 35.131 110.251 35.0472 109.502 35.8191C109.313 36.0135 108.548 36.3551 108.482 36.3876L108.383 36.463C108.352 36.4217 108.276 36.3226 108.27 36.3146L108.307 36.2867C108.293 36.2949 108.28 36.303 108.268 36.3111C107.981 36.4795 107.851 36.5617 107.649 36.6599C107.464 36.7535 107.248 36.8578 106.754 36.8579C106.724 36.8572 106.853 36.7813 106.77 36.7738C106.514 36.7501 106.26 36.7802 106.009 36.7541C105.436 36.6937 105.231 36.4934 104.355 36.61C104.244 36.6251 104.413 36.8589 103.536 36.8479C103.186 36.8433 101.638 36.8473 101.204 36.8321C100.771 36.817 101.069 36.7416 101.038 36.7384C99.8702 36.6387 100.313 36.5974 99.7279 36.4499C99.143 36.303 99.3052 36.6535 99.0668 36.6926C98.8279 36.7316 97.9719 36.6494 97.7615 36.6208C97.5513 36.5922 97.8135 36.5443 97.6266 36.5282C96.3869 36.4225 97.0824 36.7021 96.674 36.7578C95.711 36.8895 94.9609 36.6296 94.0793 36.6041C93.8408 36.5972 94.0354 36.6564 93.823 36.662C92.9818 36.6831 92.4758 36.602 91.5187 36.6764C91.3621 36.6885 90.5884 36.8448 90.0875 36.7301C90.0166 36.7135 90.2182 36.6488 89.8596 36.6342C89.324 36.6125 88.359 36.5983 87.7832 36.62C87.3581 36.636 87.8454 36.7427 87.3103 36.7096C87.0725 36.6948 87.5132 36.6323 87.0665 36.6097C86.6221 36.5871 85.4859 36.5899 85.0536 36.592C84.622 36.5942 84.8582 36.6752 84.8234 36.6806C84.6123 36.7119 83.7841 36.7509 83.7109 36.7508C80.0192 36.7607 76.6148 36.6242 73.0204 36.6694C72.7384 36.6728 72.9262 36.7582 72.8832 36.7596C71.9175 36.7954 72.6789 36.5684 72.0043 36.4924C72.1018 36.6657 71.7036 36.6343 71.0234 36.6533C70.6956 36.6626 70.8741 36.7297 70.8442 36.7365C70.3581 36.8384 70.0196 36.7068 69.9325 36.6799C69.6105 36.5809 69.2602 36.6979 69.0411 36.6317C68.8222 36.566 69.326 36.4686 68.6737 36.4698C68.4908 36.5318 68.9751 36.6939 68.4798 36.7202C66.611 36.8195 63.1226 36.6924 61.62 36.6792C60.1205 36.666 59.6361 36.6774 58.7623 36.655C57.1839 36.6145 57.7623 36.7347 56.7823 36.7898C55.7993 36.8448 56.2772 36.5489 56.1359 36.4853C55.9972 36.4217 55.8457 36.4872 55.6732 36.4522C55.5012 36.4173 55.8735 36.374 55.4691 36.3609C55.0644 36.3478 53.9579 36.4609 53.8145 36.5274C53.5113 36.6683 54.0098 36.8162 52.939 36.7642C52.8775 36.7612 53.0773 36.6834 52.8415 36.6755C50.9685 36.6156 49.0228 36.6119 47.1521 36.5589C46.8949 36.5515 47.1249 36.465 46.9752 36.4597C45.416 36.4043 45.9733 36.5503 45.1188 36.7124C45.3107 36.4966 44.8381 36.3646 43.6548 36.3634C42.9434 36.3625 43.0659 36.4567 42.6058 36.5232C42.4678 36.5432 41.9644 36.4785 41.8732 36.5228C41.5724 36.6676 42.0466 36.8298 40.8265 36.7652C40.773 36.7622 40.9434 36.6829 40.7584 36.6781C39.5629 36.6466 39.4198 36.7981 38.1275 36.8165C37.1145 36.8309 35.313 36.7385 34.1595 36.7235C34.1838 36.4809 33.0943 36.5365 32.6524 36.7037C31.9039 36.6969 31.0954 36.7063 30.3719 36.6832C30.1229 36.6753 30.2865 36.6051 30.2551 36.5975C29.7736 36.4785 29.4482 36.6412 29.2866 36.6475C27.5355 36.7096 26.1087 36.5862 24.4375 36.7068C24.3782 36.7111 24.2821 36.8796 23.8353 36.7566C23.8064 36.7481 24.3584 36.6714 23.5722 36.6655C22.786 36.6595 21.3037 36.5692 20.2121 36.6473C19.948 36.6661 19.2798 36.8029 18.7436 36.696C18.6721 36.6815 18.7503 36.6332 18.6472 36.6063C18.3138 36.5206 18.1318 36.6909 17.7399 36.5462C17.3481 36.4016 16.533 36.2932 15.4322 36.393C15.3971 36.3959 15.1365 36.5309 14.7903 36.5288C14.2377 36.5252 13.4531 36.4971 12.8761 36.498C12.5998 36.4985 12.7766 36.5823 12.7287 36.5838C10.871 36.6308 9.54879 36.5561 7.55864 36.5236C7.19383 36.5175 6.14541 36.6318 5.43914 36.5415C4.66362 36.4426 5.46054 36.0311 3.67799 36.1291C3.12213 36.1594 2.45193 36.4783 1.57935 36.4965C1.3248 36.5056 1.04354 36.3692 0.905143 36.1258C0.742018 35.9613 0.647007 35.7321 0.645055 35.5C0.617838 33.2759 0.721268 31.1732 0.635166 28.9122C0.630927 28.7992 0.485235 28.4419 0.487218 28.1762C0.490443 27.7818 0.558537 27.5654 0.563023 27.2838C0.583534 26.1038 0.525275 25.0239 0.534337 23.8862C0.537629 23.4543 0.608038 23.6053 0.611973 23.0901C0.615843 22.5753 0.523128 22.2319 0.567906 21.5342C0.602037 21.0073 0.791544 20.4805 0.813633 19.781C0.626706 19.7544 0.630556 19.274 0.581212 18.4202C0.571638 18.2561 0.506577 18.4321 0.498692 18.3544C0.46516 18.0385 0.519081 17.7461 0.482579 17.4461C0.473812 17.3731 0.409976 17.3696 0.399205 17.31C0.305194 16.8026 0.448788 15.9668 0.47379 15.8233C0.568742 15.2731 0.485715 15.016 0.523106 14.594C0.560493 14.1727 0.60723 14.8026 0.629917 14.3105C0.676844 13.2903 0.666535 11.9796 0.669468 10.9435C0.670245 10.5302 0.585032 10.8122 0.583165 10.753C0.561552 9.89822 0.652194 9.03379 0.482457 8.55982C0.921333 7.96715 0.439888 8.04435 0.527745 6.82249C0.534851 6.72624 0.742392 6.6038 0.772861 6.97332C0.803302 7.34281 0.738427 7.90313 0.785923 8.4158C0.797069 8.53721 0.991549 9.23267 1.00333 9.32756C1.0954 10.0708 0.785257 10.1762 0.768223 10.2155C0.584392 10.6614 0.793907 11.5113 0.808384 11.7351C0.874719 12.7589 0.831103 13.6288 0.878452 14.4851C0.909054 15.0452 1.11221 15.1 1.10599 15.5398C1.08544 17.0017 0.802035 17.512 1.04776 18.8897C1.10017 19.1851 1.32221 18.8915 1.14762 19.95C1.13661 20.0165 0.976884 20.8024 1.07791 21.2564C1.09065 21.3134 1.15536 21.3116 1.1608 21.3868C1.19596 21.8908 1.14441 22.2269 1.1691 22.776C1.19379 23.325 1.2306 23.9852 1.20865 24.612C1.19553 24.9897 1.07496 25.4745 1.04544 25.6553C0.960411 26.1659 1.09983 26.7134 0.99686 27.0297C0.893373 27.3487 0.736211 26.7251 0.669346 27.5616C0.83747 27.5926 1.01003 27.6637 1.17911 27.7136C1.17319 29.5467 1.11883 31.3505 1.12625 33.1898C1.12734 33.4178 1.21773 33.1846 1.22122 33.4291C1.23125 34.149 1.20287 34.8054 1.19356 35.5C1.18851 35.6176 1.24498 35.7378 1.35125 35.8072C1.41931 35.8516 1.4999 35.8677 1.57935 35.8552C2.2227 35.8186 2.89352 35.7605 3.54078 35.7425C4.06958 35.9349 5.35419 35.8696 6.28739 35.8872C6.6143 35.8932 6.59245 35.9446 6.82492 35.9614C7.70197 36.0234 7.29098 35.8534 7.53142 35.8266C8.563 35.7124 8.65131 36.0972 9.86752 36.0877C9.93194 36.0874 10.7196 35.8822 10.828 35.8695C11.5173 35.7862 10.9421 35.9409 11.3735 35.956C12.1611 35.9837 12.7084 36.0327 13.6325 35.9726C13.902 35.9548 14.5483 35.827 15.0716 35.9259C15.1404 35.9388 15.1024 36.0066 15.1578 36.0106C16.1607 36.0768 16.1871 35.8637 16.7601 35.7916C17.3333 35.7195 18.2186 35.8665 18.3988 35.9089C18.8702 36.0185 18.0376 35.9558 18.0121 35.9665C17.7123 36.0946 18.3579 36.0725 18.8513 36.0833C18.9227 36.2922 19.6126 36.2797 19.3627 36.0937C19.3343 36.0734 18.9504 36.0929 18.8513 36.0833C19.2844 35.8784 20.0426 35.8522 20.8801 36.0437C21.2721 36.1334 20.9015 36.2381 22.0923 36.1998C22.6328 36.1825 22.424 36.0387 22.9009 35.9995C23.9905 35.91 25.4064 36.0442 26.5298 36.023C26.9375 36.0154 26.5403 35.9366 26.819 35.9287C27.5584 35.9073 28.2106 35.9664 28.9532 35.9361C29.0205 35.9333 28.8561 35.8509 29.087 35.8498C30.8378 35.8402 32.3622 35.893 34.1902 35.8945C35.0733 35.8952 36.6524 35.8497 37.5673 35.8589C39.153 35.8742 41.1037 35.994 42.4584 35.9649C43.3419 35.9463 43.148 35.8639 43.5266 35.8077C44.2571 35.6988 45.5502 35.8938 45.7244 35.924C45.7297 35.925 44.9694 35.9445 45.3751 35.9868C45.6109 36.0749 45.7158 35.9244 45.7244 35.924C45.8387 35.9435 47.3574 35.9623 47.659 35.9465C47.8229 35.9379 47.7312 35.8598 47.8166 35.8568C49.8475 35.7869 51.8818 35.767 53.9415 35.8036C53.9778 35.8051 53.9232 35.8925 54.0084 35.8951C55.2009 35.9339 55.9644 35.8271 56.9478 35.7636C57.9311 35.7002 58.7109 35.7215 59.293 35.8714C60.0349 35.8525 61.0994 35.9188 61.7119 35.9591C62.3244 35.9993 62.4099 35.8293 62.4637 35.8259C64.1447 35.7183 65.1164 35.8156 66.8604 35.8308C67.6895 35.8383 69.3341 35.8136 70.2318 35.795C70.9413 35.78 71.3687 35.8199 72.0225 35.7944C72.1109 35.791 72.0216 35.7153 72.0486 35.7124C72.7781 35.6218 72.4275 35.8069 72.5781 35.8399C73.1243 35.9601 73.4617 36.0242 74.396 35.9676C74.6115 35.9547 75.2393 35.6882 75.6321 35.6726C76.1428 35.6528 75.9501 35.7483 76.4849 35.7252C76.5306 35.7233 76.5211 35.6644 76.8512 35.667C78.3833 35.6782 80.0537 35.7125 81.6458 35.7066C81.8633 35.7061 81.5845 35.6126 81.8987 35.6102C83.3732 35.5991 84.9893 35.6026 86.4258 35.6463C86.7793 35.6574 86.5577 35.7228 86.6344 35.7423C87.1056 35.8599 87.7739 35.689 87.8841 35.6858C90.5142 35.6037 92.527 35.7583 95.2077 35.6847C95.3536 35.6803 96.4768 35.4972 96.9779 35.6543C97.0122 35.6647 97.508 35.8254 97.9464 35.7155C97.9736 35.7087 97.6647 35.6259 98.2038 35.6344C98.7429 35.6428 99.6106 35.5875 100.352 35.6784C100.586 35.7071 101.141 35.8674 101.841 35.7396C101.886 35.7307 102.967 35.4417 103.352 35.6411C103.415 35.6739 103.349 35.8849 104.185 35.7767C104.344 35.7557 104.055 35.7087 104.475 35.6793C105.119 35.634 105.973 35.6905 106.765 35.5965C106.873 35.5834 107.26 35.4922 107.649 35.5065C107.65 35.5103 107.651 35.5224 107.663 35.5432C107.674 35.5568 107.681 35.6314 107.716 35.6238C107.723 35.6218 107.73 35.619 107.737 35.6155C108.659 34.9493 109.575 34.1986 110.518 33.5383C110.867 33.2937 110.763 33.5163 111.134 33.2713C111.506 33.0263 112.235 32.5071 112.573 32.184C112.911 31.8608 112.397 32.0244 112.942 31.5906C113.829 30.8837 114.729 30.1981 115.633 29.5214C115.656 29.5074 115.674 29.4815 115.678 29.4512C115.699 27.8754 115.732 26.3005 115.74 24.719C115.742 24.2708 115.677 24.6424 115.676 23.9819C115.671 21.5468 115.61 17.3425 115.748 15.2295C115.859 13.5364 115.943 15.667 115.988 14.3733C116.009 13.749 115.798 13.0736 115.792 12.9229C115.724 11.4506 115.818 10.4274 115.789 9.10232C115.783 8.82868 115.697 9.09706 115.693 8.86417C115.679 8.0687 115.717 7.23264 115.71 6.47251C115.706 6.13149 115.641 6.19432 115.646 5.88054C115.657 5.12972 115.685 4.46577 115.746 3.73383C115.752 3.66712 115.833 4.11695 115.836 3.56146C115.838 3.08679 115.856 2.55166 115.864 2C115.878 1.85718 115.732 1.71535 115.602 1.74166C115.594 1.74285 115.586 1.74571 115.579 1.74972C115.347 1.78644 115.278 1.89864 114.684 1.8057C114.545 1.78417 114.722 1.60493 113.953 1.7598C113.824 1.78553 112.533 1.99442 111.9 1.85977C111.732 1.82434 111.306 1.67767 110.937 1.70072C110.887 1.70439 111.087 1.78457 110.781 1.79239C109.704 1.81856 108.574 1.81 107.467 1.83512C107.171 1.84198 107.611 1.92495 107.171 1.93253C105.959 1.9535 104.446 1.93237 103.261 1.9064C102.824 1.89667 103.126 1.82795 103.094 1.82047C102.583 1.69882 102.28 1.86302 102.111 1.87259C101.055 1.92992 100.252 1.85279 99.279 1.8732C99.0105 1.87863 99.2009 1.95692 99.1474 1.9639C98.5932 2.03211 99.006 1.89151 98.6553 1.87601C97.6725 1.83212 96.577 1.83842 95.5832 1.84842C95.2181 1.85221 95.6284 1.94299 95.3008 1.94534C93.3618 1.96099 91.3461 1.9523 89.4537 1.90225C89.0974 1.89267 89.3216 1.82276 89.2474 1.80679C88.7355 1.69509 87.9854 1.84746 87.8128 1.86197C87.028 1.92824 86.7232 1.86642 86.0301 1.87796C82.6444 1.93541 78.4641 1.89447 75.2682 1.86917C71.1036 1.83662 67.872 1.77012 63.9007 1.78739C63.6483 1.7884 63.9028 1.88139 63.6852 1.88345C60.876 1.90587 58.1105 1.86953 55.2957 1.89639C55.0647 1.89843 55.3977 1.98659 55.0269 1.99283C54.2665 2.00624 53.3032 2.00145 52.5343 1.9733C52.1593 1.95974 52.6623 1.88409 52.2848 1.87198C51.4059 1.84362 50.4637 1.83734 49.5609 1.85147C49.1767 1.85768 49.7564 1.94784 49.257 1.94888C45.8553 1.95783 42.5144 1.97336 39.0768 1.8566C38.8411 1.84858 38.6344 1.66533 38.1333 1.70047C38.0956 1.75133 38.0976 1.81115 38.0811 1.86551C33.1291 1.89479 28.2276 1.83127 23.2617 1.82144C23.0523 1.82105 23.4141 1.91815 23.0088 1.91788C20.6627 1.91644 18.3844 1.94334 15.9846 1.84683C15.7465 1.8374 15.8687 1.66658 15.167 1.69242C15.0432 1.69713 13.9864 1.71991 13.7131 1.75699C13.676 1.76258 13.8688 1.84231 13.5283 1.84464C11.5493 1.85674 9.47538 1.83854 7.4998 1.78983C7.18096 1.78181 7.5205 1.69691 7.29341 1.69046C5.6825 1.64539 3.9303 1.70993 2.391 1.63285C1.81808 1.60398 1.68167 1.54579 1.57934 1.47497C1.53434 1.42254 1.49677 1.3431 1.31275 1.34135C1.28366 1.34115 1.16185 1.38917 1.06107 1.47145C0.957843 1.5503 0.881797 1.65799 0.83821 1.65335C0.596978 1.6544 0.571426 1.22422 0.301161 1.24168C0.266498 1.24249 0.110489 1.54319 0.0786179 1.77727C0.0474629 2.00486 0.0216586 2.15134 -9.73344e-05 1.74609C3.25441e-05 1.71899 0.0288363 1.45068 0.163817 1.1897C0.290815 0.925004 0.525099 0.697949 0.621767 0.612068C0.762054 0.490388 0.420976 0.594371 0.744564 0.366408C0.963197 0.230009 1.24628 0.165415 1.57934 0.171931C1.68105 0.175932 1.7936 0.175528 1.92151 0.160804C2.28069 0.118927 2.12276 0.0216813 2.84008 0.0101698ZM64.4698 36.1389C65.037 36.2205 65.1207 35.9215 64.5073 35.993C64.4776 35.9968 64.4406 36.1349 64.4698 36.1389ZM0.893222 31.3402C0.761301 32.0816 0.955278 32.589 1.05716 32.066C1.15894 31.543 0.933213 31.1143 0.893222 31.3402ZM0.796909 23.6515C0.692895 24.518 1.11702 24.6545 1.03128 23.7263C1.02644 23.6723 0.802949 23.6008 0.796909 23.6515ZM3.73369 1.24857C3.72586 1.2446 3.26723 1.24073 3.25626 1.24466C3.01205 1.33965 3.92913 1.34733 3.73369 1.24857ZM0.692051 16.0217C0.634679 16.2922 0.700908 17.0712 0.772251 16.735C0.829644 16.4644 0.763419 15.6848 0.692051 16.0217ZM94.0555 36.4581C94.0645 36.4626 94.3932 36.4666 94.3866 36.4414C94.3643 36.3602 93.9067 36.3831 94.0555 36.4581ZM0.687168 3.05412C0.671203 4.97002 0.320853 6.13166 0.360387 4.04525C0.36754 3.66743 0.472111 4.85956 0.503697 4.37866C0.561242 3.49872 0.341265 2.91444 0.459142 2.01648C0.480717 1.85393 0.688857 2.94482 0.687657 3.05752C0.687494 3.05638 0.687331 3.05525 0.687168 3.05412ZM64.7964 36.4981C64.8078 36.5021 65.2629 36.5058 65.2739 36.5019C65.5204 36.407 64.6034 36.3994 64.7964 36.4981ZM112.271 33.412C112.296 33.4034 113.141 32.7691 113.164 32.742C113.508 32.2844 111.8 33.5665 112.271 33.412ZM34.1414 36.717C33.6447 36.8125 33.0506 36.8238 32.6547 36.7038C33.1482 36.7102 33.6451 36.7111 34.1414 36.717Z" fill="#07596E"/>
<path d="M38.2412 22.8022H36.7432C36.0525 22.8022 35.5159 22.6109 35.1332 22.2282C34.7599 21.8455 34.5732 21.3135 34.5732 20.6322V15.9702C34.5732 15.2795 34.7599 14.7475 35.1332 14.3742C35.5159 13.9915 36.0525 13.8002 36.7432 13.8002H38.2412C38.9319 13.8002 39.4639 13.9915 39.8372 14.3742C40.2199 14.7475 40.4112 15.2795 40.4112 15.9702V16.4742C40.4112 16.6422 40.3319 16.7262 40.1732 16.7262H39.2912C39.1325 16.7262 39.0532 16.6422 39.0532 16.4742V16.0262C39.0532 15.3355 38.7172 14.9902 38.0452 14.9902H36.9392C36.2672 14.9902 35.9312 15.3355 35.9312 16.0262V20.5762C35.9312 21.2669 36.2672 21.6122 36.9392 21.6122H38.0452C38.7172 21.6122 39.0532 21.2669 39.0532 20.5762V19.3162C39.0532 19.2229 39.0019 19.1762 38.8992 19.1762H37.7652C37.6065 19.1762 37.5272 19.0969 37.5272 18.9382V18.2242C37.5272 18.0655 37.6065 17.9862 37.7652 17.9862H40.1172C40.3132 17.9862 40.4112 18.0842 40.4112 18.2802V20.6322C40.4112 21.3135 40.2199 21.8455 39.8372 22.2282C39.4545 22.6109 38.9225 22.8022 38.2412 22.8022ZM47.1728 22.8022H42.6928C42.5341 22.8022 42.4548 22.7229 42.4548 22.5642V14.0382C42.4548 13.8795 42.5341 13.8002 42.6928 13.8002H47.1728C47.3221 13.8002 47.3968 13.8795 47.3968 14.0382V14.7522C47.3968 14.9109 47.3221 14.9902 47.1728 14.9902H43.9808C43.8688 14.9902 43.8128 15.0369 43.8128 15.1302V17.4962C43.8128 17.5895 43.8688 17.6362 43.9808 17.6362H46.6828C46.8508 17.6362 46.9348 17.7155 46.9348 17.8742V18.5882C46.9348 18.7469 46.8508 18.8262 46.6828 18.8262H43.9808C43.8688 18.8262 43.8128 18.8729 43.8128 18.9662V21.4582C43.8128 21.5609 43.8688 21.6122 43.9808 21.6122H47.1728C47.3221 21.6122 47.3968 21.6915 47.3968 21.8502V22.5642C47.3968 22.7229 47.3221 22.8022 47.1728 22.8022ZM51.7853 22.8022H50.9033C50.7353 22.8022 50.6513 22.7229 50.6513 22.5642V15.1302C50.6513 15.0369 50.6047 14.9902 50.5113 14.9902H48.7473C48.5793 14.9902 48.4953 14.9109 48.4953 14.7522V14.0382C48.4953 13.8795 48.5793 13.8002 48.7473 13.8002H53.9413C54.1093 13.8002 54.1933 13.8795 54.1933 14.0382V14.7522C54.1933 14.9109 54.1093 14.9902 53.9413 14.9902H52.1773C52.0747 14.9902 52.0233 15.0369 52.0233 15.1302V22.5642C52.0233 22.7229 51.944 22.8022 51.7853 22.8022ZM63.7816 22.8022H59.2456C59.0869 22.8022 59.0076 22.7229 59.0076 22.5642V14.0382C59.0076 13.8795 59.0869 13.8002 59.2456 13.8002H60.1276C60.2862 13.8002 60.3656 13.8795 60.3656 14.0382V21.4442C60.3656 21.5375 60.4216 21.5842 60.5336 21.5842H63.7816C63.9402 21.5842 64.0196 21.6682 64.0196 21.8362V22.5642C64.0196 22.7229 63.9402 22.8022 63.7816 22.8022ZM66.8783 14.0382V22.5642C66.8783 22.7229 66.799 22.8022 66.6403 22.8022H65.7583C65.5996 22.8022 65.5203 22.7229 65.5203 22.5642V14.0382C65.5203 13.8795 65.5996 13.8002 65.7583 13.8002H66.6403C66.799 13.8002 66.8783 13.8795 66.8783 14.0382ZM70.2373 22.8022H69.3693C69.2107 22.8022 69.1313 22.7229 69.1313 22.5642V14.0382C69.1313 13.8795 69.2107 13.8002 69.3693 13.8002H70.1533C70.3027 13.8002 70.4053 13.8515 70.4613 13.9542L73.8493 20.0442H73.9053V14.0382C73.9053 13.8795 73.9847 13.8002 74.1433 13.8002H75.0113C75.17 13.8002 75.2493 13.8795 75.2493 14.0382V22.5642C75.2493 22.7229 75.17 22.8022 75.0113 22.8022H74.2553C74.106 22.8022 73.9847 22.7275 73.8913 22.5782L70.5313 16.5582H70.4753V22.5642C70.4753 22.7229 70.396 22.8022 70.2373 22.8022ZM78.5534 22.8022H77.6714C77.5128 22.8022 77.4334 22.7229 77.4334 22.5642V14.0382C77.4334 13.8795 77.5128 13.8002 77.6714 13.8002H78.5534C78.7121 13.8002 78.7914 13.8795 78.7914 14.0382V18.4762H78.8334C78.9268 18.2242 79.0481 17.9909 79.1974 17.7762L81.8714 14.0382C81.9741 13.8795 82.1234 13.8002 82.3194 13.8002H83.3554C83.5514 13.8002 83.5841 13.8889 83.4534 14.0662L80.7234 17.7762L83.8034 22.5222C83.9154 22.7089 83.8594 22.8022 83.6354 22.8022H82.8514C82.5994 22.8022 82.4221 22.7229 82.3194 22.5642L79.8974 18.7702L78.7914 20.0722V22.5642C78.7914 22.7229 78.7121 22.8022 78.5534 22.8022Z" fill="#64E6F4"/>
<g opacity="0.1" filter="url(#filter0_f_43_231)">
<path d="M38.2412 22.8022H36.7432C36.0525 22.8022 35.5159 22.6109 35.1332 22.2282C34.7599 21.8455 34.5732 21.3135 34.5732 20.6322V15.9702C34.5732 15.2795 34.7599 14.7475 35.1332 14.3742C35.5159 13.9915 36.0525 13.8002 36.7432 13.8002H38.2412C38.9319 13.8002 39.4639 13.9915 39.8372 14.3742C40.2199 14.7475 40.4112 15.2795 40.4112 15.9702V16.4742C40.4112 16.6422 40.3319 16.7262 40.1732 16.7262H39.2912C39.1325 16.7262 39.0532 16.6422 39.0532 16.4742V16.0262C39.0532 15.3355 38.7172 14.9902 38.0452 14.9902H36.9392C36.2672 14.9902 35.9312 15.3355 35.9312 16.0262V20.5762C35.9312 21.2669 36.2672 21.6122 36.9392 21.6122H38.0452C38.7172 21.6122 39.0532 21.2669 39.0532 20.5762V19.3162C39.0532 19.2229 39.0019 19.1762 38.8992 19.1762H37.7652C37.6065 19.1762 37.5272 19.0969 37.5272 18.9382V18.2242C37.5272 18.0655 37.6065 17.9862 37.7652 17.9862H40.1172C40.3132 17.9862 40.4112 18.0842 40.4112 18.2802V20.6322C40.4112 21.3135 40.2199 21.8455 39.8372 22.2282C39.4545 22.6109 38.9225 22.8022 38.2412 22.8022ZM47.1728 22.8022H42.6928C42.5341 22.8022 42.4548 22.7229 42.4548 22.5642V14.0382C42.4548 13.8795 42.5341 13.8002 42.6928 13.8002H47.1728C47.3221 13.8002 47.3968 13.8795 47.3968 14.0382V14.7522C47.3968 14.9109 47.3221 14.9902 47.1728 14.9902H43.9808C43.8688 14.9902 43.8128 15.0369 43.8128 15.1302V17.4962C43.8128 17.5895 43.8688 17.6362 43.9808 17.6362H46.6828C46.8508 17.6362 46.9348 17.7155 46.9348 17.8742V18.5882C46.9348 18.7469 46.8508 18.8262 46.6828 18.8262H43.9808C43.8688 18.8262 43.8128 18.8729 43.8128 18.9662V21.4582C43.8128 21.5609 43.8688 21.6122 43.9808 21.6122H47.1728C47.3221 21.6122 47.3968 21.6915 47.3968 21.8502V22.5642C47.3968 22.7229 47.3221 22.8022 47.1728 22.8022ZM51.7853 22.8022H50.9033C50.7353 22.8022 50.6513 22.7229 50.6513 22.5642V15.1302C50.6513 15.0369 50.6047 14.9902 50.5113 14.9902H48.7473C48.5793 14.9902 48.4953 14.9109 48.4953 14.7522V14.0382C48.4953 13.8795 48.5793 13.8002 48.7473 13.8002H53.9413C54.1093 13.8002 54.1933 13.8795 54.1933 14.0382V14.7522C54.1933 14.9109 54.1093 14.9902 53.9413 14.9902H52.1773C52.0747 14.9902 52.0233 15.0369 52.0233 15.1302V22.5642C52.0233 22.7229 51.944 22.8022 51.7853 22.8022ZM63.7816 22.8022H59.2456C59.0869 22.8022 59.0076 22.7229 59.0076 22.5642V14.0382C59.0076 13.8795 59.0869 13.8002 59.2456 13.8002H60.1276C60.2862 13.8002 60.3656 13.8795 60.3656 14.0382V21.4442C60.3656 21.5375 60.4216 21.5842 60.5336 21.5842H63.7816C63.9402 21.5842 64.0196 21.6682 64.0196 21.8362V22.5642C64.0196 22.7229 63.9402 22.8022 63.7816 22.8022ZM66.8783 14.0382V22.5642C66.8783 22.7229 66.799 22.8022 66.6403 22.8022H65.7583C65.5996 22.8022 65.5203 22.7229 65.5203 22.5642V14.0382C65.5203 13.8795 65.5996 13.8002 65.7583 13.8002H66.6403C66.799 13.8002 66.8783 13.8795 66.8783 14.0382ZM70.2373 22.8022H69.3693C69.2107 22.8022 69.1313 22.7229 69.1313 22.5642V14.0382C69.1313 13.8795 69.2107 13.8002 69.3693 13.8002H70.1533C70.3027 13.8002 70.4053 13.8515 70.4613 13.9542L73.8493 20.0442H73.9053V14.0382C73.9053 13.8795 73.9847 13.8002 74.1433 13.8002H75.0113C75.17 13.8002 75.2493 13.8795 75.2493 14.0382V22.5642C75.2493 22.7229 75.17 22.8022 75.0113 22.8022H74.2553C74.106 22.8022 73.9847 22.7275 73.8913 22.5782L70.5313 16.5582H70.4753V22.5642C70.4753 22.7229 70.396 22.8022 70.2373 22.8022ZM78.5534 22.8022H77.6714C77.5128 22.8022 77.4334 22.7229 77.4334 22.5642V14.0382C77.4334 13.8795 77.5128 13.8002 77.6714 13.8002H78.5534C78.7121 13.8002 78.7914 13.8795 78.7914 14.0382V18.4762H78.8334C78.9268 18.2242 79.0481 17.9909 79.1974 17.7762L81.8714 14.0382C81.9741 13.8795 82.1234 13.8002 82.3194 13.8002H83.3554C83.5514 13.8002 83.5841 13.8889 83.4534 14.0662L80.7234 17.7762L83.8034 22.5222C83.9154 22.7089 83.8594 22.8022 83.6354 22.8022H82.8514C82.5994 22.8022 82.4221 22.7229 82.3194 22.5642L79.8974 18.7702L78.7914 20.0722V22.5642C78.7914 22.7229 78.7121 22.8022 78.5534 22.8022Z" fill="#64E6F4"/>
</g>
<defs>
<filter id="filter0_f_43_231" x="33.5732" y="12.8002" width="51.3982" height="11.002" filterUnits="userSpaceOnUse" color-interpolation-filters="sRGB">
<feFlood flood-opacity="0" result="BackgroundImageFix"/>
<feBlend mode="normal" in="SourceGraphic" in2="BackgroundImageFix" result="shape"/>
<feGaussianBlur stdDeviation="0.5" result="effect1_foregroundBlur_43_231"/>
</filter>
</defs>
</svg>
