<svg width="412" height="13" viewBox="0 0 412 13" fill="none" xmlns="http://www.w3.org/2000/svg">
<path opacity="0.75" d="M3.99112 0.0101698C6.33916 -0.015883 9.41705 0.0119737 11.7562 0.0502087C12.4893 0.0620673 12.1181 0.115075 12.6241 0.125648C13.6139 0.146258 14.536 0.120261 15.5141 0.144813C15.8382 0.153209 15.4347 0.237174 15.7746 0.244056C17.6371 0.281163 19.3992 0.259777 21.2859 0.277625C30.3745 0.363742 39.3118 0.395787 48.5 0.432938L48.6781 0.432089L48.8282 0.537557C48.9968 0.658211 49.1654 0.77894 49.3342 0.899749C51.8565 2.70516 54.8874 4.94957 57.5195 6.77662C57.8268 6.98985 57.6876 6.8007 57.7491 6.83692C58.7131 7.40702 58.3244 7.31359 58.9072 7.75146C60.6103 9.03051 62.4788 10.3797 64.2584 11.636L64 11.5536C64.7809 11.5517 65.5455 11.5466 66.28 11.5391C67.4641 11.5268 66.2768 11.3804 67.4692 11.4626C67.552 11.4681 67.2515 11.5464 67.5763 11.5547C68.3127 11.5735 69.71 11.5595 70.2808 11.5657C71.3808 11.5781 71.5628 11.5773 72.6033 11.5782C74.0256 11.5801 75.7174 11.619 77.2435 11.6012C77.5692 11.5972 77.138 11.517 77.6575 11.5033C78.1774 11.4897 79.553 11.4965 80.0167 11.5154C80.4806 11.5343 80.2831 11.5974 80.3652 11.6119C81.0405 11.7338 82.6317 11.5649 82.8363 11.5607C86.5691 11.4895 89.7701 11.5858 93.2739 11.5855C95.9339 11.5851 98.7782 11.5533 101.309 11.5577C104.325 11.5632 106.88 11.6066 109.81 11.5992C110.119 11.5985 109.756 11.5041 110.134 11.5031C114.146 11.4921 118.129 11.5024 122.124 11.5661C122.524 11.5725 122.008 11.6554 122.408 11.6668C124.858 11.7348 128.736 11.8984 130.191 11.5378C131.851 11.5518 133.866 11.5664 135.351 11.6391C136.308 11.6859 135.378 11.7761 136.554 11.7376C136.819 11.729 136.474 11.65 136.872 11.6431C138.547 11.6142 140.377 11.6399 142.033 11.599C142.37 11.5905 142.278 11.5197 142.374 11.507C143.176 11.4037 144.512 11.5744 144.804 11.5868C147.021 11.6793 148.641 11.6429 150.706 11.6452C151.186 11.6457 150.619 11.5506 151.08 11.5478C153.473 11.5341 155.951 11.5423 158.294 11.5845C158.815 11.5941 158.336 11.6751 158.585 11.6839C159.683 11.7214 159.926 11.5684 160.979 11.6015C161.201 11.6082 161.076 11.6776 161.117 11.6852C161.751 11.8048 162.301 11.6354 162.464 11.6316C164.526 11.5805 165.845 11.7574 167.837 11.7323C168.075 11.7292 167.538 11.6414 168.207 11.6379C172.671 11.6136 177.391 11.6377 181.808 11.7079C182.495 11.7187 182.005 11.7846 182.048 11.7928C182.753 11.9197 183.208 11.7496 183.432 11.7432C185.199 11.6971 186.85 11.8397 188.05 11.6371C195.533 11.7074 202.981 11.5937 210.402 11.7752C210.497 11.7773 210.328 11.8611 210.516 11.8649C212.782 11.9119 212.347 11.7817 213.847 11.6225C214.225 11.5825 215.374 11.7748 215.476 11.7889C215.846 11.8408 215.462 11.9654 215.586 11.9755C216.613 12.0545 216.445 11.6423 217.83 11.6421C217.874 11.6428 217.692 11.7187 217.808 11.7262C218.169 11.7499 218.527 11.7198 218.88 11.7459C219.689 11.8063 219.977 12.0066 221.212 11.89C221.369 11.8749 221.13 11.6411 222.366 11.6521C222.859 11.6567 225.041 11.6527 225.653 11.6679C226.264 11.683 225.844 11.7584 225.888 11.7616C227.533 11.8613 226.909 11.9026 227.734 12.0501C228.558 12.197 228.33 11.8465 228.666 11.8074C229.002 11.7684 230.209 11.8506 230.506 11.8792C230.802 11.9078 230.432 11.9557 230.696 11.9718C232.443 12.0775 231.463 11.7979 232.038 11.7422C233.396 11.6105 234.453 11.8704 235.696 11.8959C236.032 11.9028 235.757 11.8436 236.057 11.838C237.243 11.8169 237.956 11.898 239.305 11.8236C239.526 11.8115 240.616 11.6552 241.322 11.7699C241.422 11.7865 241.138 11.8512 241.643 11.8658C242.398 11.8875 243.758 11.9017 244.57 11.88C245.169 11.864 244.482 11.7573 245.237 11.7904C245.572 11.8052 244.951 11.8677 245.58 11.8903C246.207 11.9129 247.808 11.9101 248.417 11.908C249.026 11.9058 248.693 11.8248 248.742 11.8194C249.039 11.7881 250.207 11.7491 250.31 11.7492C255.513 11.7393 260.312 11.8758 265.378 11.8306C265.776 11.8272 265.511 11.7418 265.572 11.7404C266.933 11.7046 265.859 11.9316 266.81 12.0076C266.673 11.8343 267.234 11.8657 268.193 11.8467C268.655 11.8374 268.403 11.7703 268.445 11.7635C269.131 11.6616 269.608 11.7932 269.731 11.8201C270.184 11.9191 270.678 11.8021 270.987 11.8683C271.296 11.934 270.585 12.0314 271.505 12.0302C271.763 11.9682 271.08 11.8061 271.778 11.7798C274.412 11.6805 279.329 11.8076 281.447 11.8208C283.561 11.834 284.243 11.8226 285.475 11.845C287.7 11.8855 286.884 11.7653 288.266 11.7102C289.651 11.6552 288.978 11.9511 289.177 12.0147C289.372 12.0783 289.586 12.0128 289.829 12.0478C290.071 12.0827 289.547 12.126 290.117 12.1391C290.687 12.1522 292.247 12.0391 292.449 11.9726C292.876 11.8317 292.173 11.6838 293.683 11.7358C293.77 11.7388 293.488 11.8166 293.82 11.8245C296.46 11.8844 299.203 11.8881 301.839 11.9411C302.202 11.9485 301.878 12.035 302.089 12.0403C304.287 12.0957 303.501 11.9497 304.705 11.7876C304.435 12.0034 305.101 12.1354 306.769 12.1366C307.772 12.1375 307.599 12.0433 308.248 11.9768C308.442 11.9568 309.152 12.0215 309.28 11.9772C309.704 11.8324 309.036 11.6702 310.755 11.7348C310.831 11.7378 310.591 11.8171 310.851 11.8219C312.536 11.8534 312.738 11.7019 314.56 11.6835C315.987 11.6691 318.527 11.7615 320.152 11.7765C320.118 12.0191 321.654 11.9635 322.277 11.7963C323.332 11.8031 324.471 11.7937 325.491 11.8168C325.842 11.8247 325.612 11.8949 325.656 11.9025C326.334 12.0215 326.793 11.8588 327.021 11.8525C329.489 11.7904 331.5 11.9138 333.856 11.7932C333.939 11.7889 334.075 11.6204 334.704 11.7434C334.745 11.7519 333.967 11.8286 335.075 11.8345C336.184 11.8404 338.273 11.9308 339.811 11.8527C340.184 11.8339 341.125 11.6971 341.881 11.804C341.982 11.8185 341.872 11.8668 342.017 11.8937C342.487 11.9794 342.744 11.8091 343.296 11.9538C343.848 12.0984 344.997 12.2068 346.549 12.107C346.598 12.1041 346.965 11.9691 347.453 11.9712C347.622 11.972 347.807 11.9739 348 11.9764L347.986 11.9808C348.561 11.5841 349.237 11.1256 349.756 10.7564C350.073 10.5307 349.821 10.6066 349.875 10.5662C351.984 9.01247 353.547 7.99485 355.853 6.39784C356.276 6.10523 357.415 5.15679 358.279 4.65434C359.228 4.10238 358.55 5.08802 360.542 3.55397C361.312 2.96154 362.027 1.86467 363.529 1.04083L363.5 1.05007C363.575 1.05874 363.65 1.06873 363.727 1.08011C367.259 1.01309 370.525 1.15151 374.067 1.05582C374.227 1.05158 374.73 0.905889 375.105 0.907872C375.661 0.911098 375.966 0.979192 376.363 0.983677C378.026 1.00419 379.548 0.945929 381.151 0.954991C381.76 0.958284 381.547 1.02869 382.273 1.03263C382.999 1.0365 383.483 0.943782 384.467 0.98856C385.209 1.02269 385.952 1.2122 386.938 1.23429C386.975 1.04736 387.652 1.05121 388.856 1.00187C389.087 0.992292 388.839 0.927231 388.948 0.919347C389.394 0.885814 389.806 0.939735 390.229 0.903233C390.332 0.894467 390.336 0.83063 390.421 0.81986C391.136 0.725848 392.314 0.869442 392.516 0.894444C393.292 0.989396 393.654 0.906369 394.249 0.943761C394.843 0.981147 393.955 1.02788 394.648 1.05057C396.086 1.0975 397.934 1.08719 399.394 1.09012C399.977 1.0909 399.579 1.00569 399.663 1.00382C400.867 0.982207 402.086 1.07285 402.754 0.903111C403.589 1.34199 403.48 0.860543 405.203 0.948399C405.338 0.955505 405.511 1.16305 404.99 1.19352C404.469 1.22396 403.68 1.15908 402.957 1.20658C402.786 1.21772 401.806 1.4122 401.672 1.42398C400.624 1.51605 400.476 1.20591 400.42 1.18888C399.792 1.00505 398.594 1.21456 398.278 1.22904C396.835 1.29537 395.609 1.25176 394.402 1.29911C393.613 1.32971 393.536 1.53286 392.916 1.52664C390.855 1.50609 390.136 1.22269 388.194 1.46842C387.778 1.52083 388.191 1.74287 386.699 1.56827C386.606 1.55726 385.498 1.39754 384.858 1.49857C384.778 1.51131 384.78 1.57602 384.674 1.58145C383.964 1.61662 383.49 1.56506 382.716 1.58975C381.942 1.61445 381.012 1.65125 380.128 1.62931C379.596 1.61618 378.913 1.49562 378.658 1.4661C377.938 1.38107 377.167 1.52048 376.721 1.41751C376.271 1.31403 377.15 1.15687 375.971 1.09C375.927 1.25812 375.827 1.43069 375.757 1.59976C373.173 1.59384 370.631 1.53948 368.038 1.54691C367.717 1.548 368.045 1.63838 367.701 1.64188C366.257 1.65614 364.994 1.59266 363.5 1.61696L363.857 1.50314C363.849 1.50908 363.841 1.51504 363.833 1.521C362.893 2.21285 361.905 3.03146 360.923 3.75731C360.204 4.03178 358.765 5.13296 357.683 5.87988C357.303 6.14159 357.299 6.08187 357.022 6.25784C355.978 6.92273 356.549 6.72611 356.288 6.94406C355.168 7.87868 354.844 7.63692 353.451 8.63678C353.378 8.68965 352.591 9.49941 352.474 9.59832C351.729 10.2285 352.301 9.63317 351.797 9.9727C350.875 10.5926 350.218 10.9991 349.19 11.8019C349.013 11.9405 348.707 12.218 348.35 12.4932L348.19 12.6057L348 12.6048C347.689 12.6171 347.358 12.6145 347.057 12.5741C346.96 12.5612 347.014 12.4934 346.935 12.4894C345.522 12.4232 345.485 12.6363 344.677 12.7084C343.869 12.7805 342.621 12.6335 342.367 12.5911C341.703 12.4815 342.876 12.5442 342.912 12.5335C343.335 12.4054 342.425 12.4275 341.729 12.4167C341.629 12.2078 340.656 12.2203 341.009 12.4063C341.049 12.4266 341.59 12.4071 341.729 12.4167C341.119 12.6216 340.05 12.6478 338.87 12.4563C338.317 12.3666 338.84 12.2619 337.161 12.3002C336.399 12.3175 336.694 12.4613 336.022 12.5005C334.486 12.59 332.49 12.4558 330.907 12.477C330.332 12.4846 330.892 12.5634 330.499 12.5713C329.457 12.5927 328.538 12.5336 327.491 12.5639C327.396 12.5667 327.628 12.6491 327.302 12.6502C324.835 12.6597 322.686 12.607 320.109 12.6055C318.864 12.6048 316.639 12.6503 315.349 12.6411C313.114 12.6258 310.365 12.506 308.455 12.5351C307.21 12.5537 307.483 12.6361 306.95 12.6923C305.92 12.8012 304.097 12.6062 303.852 12.576C303.844 12.575 304.916 12.5555 304.344 12.5132C304.012 12.4251 303.864 12.5756 303.852 12.576C303.691 12.5565 301.55 12.5377 301.125 12.5535C300.894 12.5621 301.023 12.6402 300.903 12.6432C298.04 12.7131 295.173 12.733 292.27 12.6964C292.219 12.6949 292.296 12.6075 292.176 12.6049C290.495 12.5661 289.419 12.6729 288.032 12.7364C286.646 12.7998 285.547 12.7785 284.727 12.6286C283.681 12.6475 282.181 12.5812 281.317 12.5409C280.454 12.5007 280.334 12.6707 280.258 12.6741C277.888 12.7817 276.519 12.6844 274.061 12.6692C272.892 12.6617 270.574 12.6864 269.309 12.705C268.309 12.72 267.706 12.6801 266.785 12.7056C266.66 12.709 266.786 12.7847 266.748 12.7876C265.72 12.8782 266.214 12.6931 266.001 12.6601C265.232 12.5399 264.756 12.4758 263.439 12.5324C263.135 12.5453 262.251 12.8118 261.697 12.8274C260.977 12.8472 261.249 12.7517 260.495 12.7748C260.431 12.7767 260.444 12.8356 259.979 12.833C257.819 12.8218 255.465 12.7875 253.221 12.7934C252.914 12.7939 253.307 12.8874 252.864 12.8898C250.786 12.9009 248.508 12.8974 246.483 12.8537C245.985 12.8426 246.297 12.7772 246.189 12.7577C245.525 12.6401 244.583 12.811 244.428 12.8142C240.721 12.8963 237.884 12.7417 234.105 12.8153C233.9 12.8197 232.316 13.0028 231.61 12.8457C231.562 12.8353 230.863 12.6746 230.245 12.7845C230.207 12.7913 230.642 12.8741 229.882 12.8656C229.122 12.8572 227.899 12.9125 226.855 12.8216C226.524 12.7929 225.742 12.6326 224.756 12.7604C224.692 12.7693 223.169 13.0583 222.625 12.8589C222.537 12.8261 222.63 12.6151 221.452 12.7233C221.227 12.7443 221.636 12.7913 221.043 12.8207C220.135 12.866 218.932 12.8095 217.816 12.9035C217.621 12.9201 216.793 13.0633 216.128 12.9546C216.024 12.9376 216.222 12.8672 215.871 12.8593C214.201 12.8215 212.454 12.8686 210.759 12.8199C210.159 12.8027 210.465 12.6889 209.84 12.6584C209.214 12.6279 207.953 12.5985 207.298 12.6505C206.643 12.7026 207.359 12.8841 206.378 12.8986C202.112 12.9617 197.886 12.8552 193.627 12.8396C192.995 12.8373 193.519 12.9022 192.588 12.9035C189.156 12.9083 183.23 12.9692 180.251 12.8312C177.865 12.7207 180.868 12.6366 179.045 12.5916C178.165 12.5701 177.213 12.7811 177 12.7878C174.925 12.8552 173.483 12.7618 171.615 12.7904C171.23 12.7964 171.608 12.8819 171.28 12.886C170.158 12.9008 168.98 12.8627 167.909 12.8697C167.428 12.873 167.516 12.9383 167.074 12.9333C166.016 12.922 165.08 12.8945 164.048 12.8333C163.954 12.8277 164.588 12.7465 163.805 12.7434C162.538 12.7388 160.965 12.6784 159.507 12.7408C159.075 12.7595 159.058 12.9088 158.128 12.8057C157.933 12.7842 158.182 12.6049 157.099 12.7598C156.916 12.7855 155.097 12.9944 154.204 12.8598C153.968 12.8243 153.367 12.6777 152.847 12.7007C152.776 12.7044 153.059 12.7846 152.628 12.7924C151.109 12.8186 149.516 12.81 147.956 12.8351C147.539 12.842 148.16 12.9249 147.538 12.9325C145.83 12.9535 143.697 12.9324 142.027 12.9064C141.411 12.8967 141.837 12.8279 141.792 12.8205C141.072 12.6988 140.645 12.863 140.406 12.8726C138.919 12.9299 137.786 12.8528 136.415 12.8732C136.037 12.8786 136.305 12.9569 136.23 12.9639C135.449 13.0321 136.03 12.8915 135.536 12.876C134.151 12.8321 132.607 12.8384 131.206 12.8484C130.691 12.8522 131.27 12.943 130.808 12.9453C128.075 12.961 125.234 12.9523 122.566 12.9023C122.064 12.8927 122.38 12.8228 122.276 12.8068C121.554 12.6951 120.497 12.8475 120.254 12.862C119.147 12.9282 118.718 12.8664 117.741 12.878C112.969 12.9354 107.076 12.8945 102.572 12.8692C96.702 12.8366 92.147 12.7701 86.5494 12.7874C86.1936 12.7884 86.5524 12.8814 86.2457 12.8835C82.2862 12.9059 78.3881 12.8695 74.4207 12.8964C74.0951 12.8984 74.5644 12.9866 74.0418 12.9928C72.97 13.0062 71.6123 13.0014 70.5285 12.9733C70 12.9597 70.709 12.8841 70.1769 12.872C68.938 12.8436 67.61 12.8373 66.3375 12.8515C65.796 12.8577 66.613 12.9478 65.9091 12.9489C65.2714 12.9501 64.6352 12.9514 64 12.9525L63.6918 12.951L63.4488 12.7768C60.0679 10.3862 56.7267 8.01283 53.3595 5.49905C53.0933 5.30028 52.9616 4.98215 52.3653 4.60207C52.2925 4.61275 52.2602 4.66321 52.2098 4.6941C50.7992 3.70187 49.3954 2.70753 47.9951 1.71147L48.5 1.87243C43.2638 1.86668 38.0453 1.82884 32.7753 1.82144C32.4802 1.82105 32.9902 1.91815 32.4189 1.91788C29.112 1.91644 25.9009 1.94334 22.5183 1.84683C22.1827 1.8374 22.3549 1.66658 21.3659 1.69242C21.1914 1.69713 19.7018 1.71991 19.3167 1.75699C19.2644 1.76258 19.5361 1.84231 19.0562 1.84464C16.2667 1.85674 13.3436 1.83854 10.559 1.78983C10.1096 1.78181 10.5882 1.69691 10.2681 1.69046C7.99752 1.64539 5.52779 1.70993 3.35815 1.63285C1.90587 1.58094 2.44355 1.43417 1.67183 1.28971C1.56268 1.26932 0.663382 1.26609 0.616876 1.18204C0.497483 0.970681 0.933073 0.739242 0.75434 0.513952C0.716578 0.465427 -0.487809 0.517692 0.225265 0.400427C0.275081 0.392579 1.14827 0.35366 1.36333 0.31388C1.51307 0.286376 1.24324 0.200894 1.54875 0.165687C1.85423 0.130513 2.18992 0.202169 2.69641 0.160804C3.20267 0.118927 2.98006 0.0216813 3.99112 0.0101698ZM277.43 12.3611C276.631 12.2795 276.513 12.5786 277.377 12.507C277.419 12.5032 277.471 12.3651 277.43 12.3611ZM370.645 1.31388C369.6 1.18195 368.885 1.37593 369.622 1.47782C370.359 1.57959 370.963 1.35387 370.645 1.31388ZM381.482 1.21756C380.261 1.11355 380.069 1.53768 381.377 1.45194C381.453 1.44709 381.554 1.2236 381.482 1.21756ZM5.25067 1.24857C5.23963 1.2446 4.59319 1.24073 4.57774 1.24466C4.23352 1.33965 5.52615 1.34733 5.25067 1.24857ZM392.236 1.11271C391.855 1.05533 390.757 1.12156 391.231 1.19291C391.612 1.2503 392.711 1.18407 392.236 1.11271ZM235.729 12.0419C235.717 12.0374 235.253 12.0334 235.262 12.0586C235.294 12.1398 235.939 12.1169 235.729 12.0419ZM410.514 1.10782C407.814 1.09186 406.176 0.741508 409.117 0.781041C409.65 0.788194 407.969 0.892765 408.647 0.924351C409.888 0.981896 410.711 0.761919 411.977 0.879796C412.206 0.901371 410.668 1.10951 410.509 1.10831C410.511 1.10815 410.513 1.10799 410.514 1.10782ZM276.97 12.0019C276.954 11.9979 276.312 11.9942 276.297 11.9981C275.949 12.093 277.242 12.1006 276.97 12.0019ZM208.686 11.857C208.65 11.8485 207.161 11.8407 207.113 11.8484C206.336 12.0037 209.346 12.0201 208.686 11.857ZM320.178 11.783C320.878 11.6875 321.716 11.6762 322.274 11.7962C321.578 11.7898 320.878 11.7889 320.178 11.783Z" fill="url(#paint0_radial_43_234)"/>
<defs>
<radialGradient id="paint0_radial_43_234" cx="0" cy="0" r="1" gradientUnits="userSpaceOnUse" gradientTransform="translate(206 6.99999) rotate(90) scale(185 174.579)">
<stop stop-color="#C9684D"/>
<stop offset="1" stop-color="#E82E5A"/>
</radialGradient>
</defs>
</svg>
