<svg width="132" height="47" viewBox="0 0 132 47" fill="none" xmlns="http://www.w3.org/2000/svg">
<path opacity="0.7" d="M3.28184 0.0101698C5.21161 -0.015883 7.74123 0.0119737 9.66371 0.0502087C10.2662 0.0620673 9.96112 0.115075 10.377 0.125648C11.1905 0.146258 11.9483 0.120261 12.7522 0.144813C13.0186 0.153209 12.687 0.237174 12.9663 0.244056C14.4971 0.281163 15.9452 0.259777 17.4959 0.277625C25.134 0.365685 32.6421 0.397205 40.3736 0.435461C42.9229 0.448004 46.0219 0.524206 48.6551 0.490881C48.9625 0.486916 48.7792 0.413216 48.8377 0.407141C49.755 0.31415 49.45 0.462935 50.0489 0.482702C52.426 0.560754 55.0693 0.567542 57.3569 0.539099C58.3302 0.526782 57.3544 0.380395 58.3343 0.462561C58.4024 0.468112 58.1554 0.546377 58.4223 0.554724C59.0276 0.573498 60.176 0.559509 60.6451 0.56571C61.5491 0.578057 61.6987 0.577269 62.5538 0.578161C63.7228 0.580061 65.1132 0.618966 66.3675 0.601232C66.6352 0.597215 66.2808 0.516985 66.7077 0.503332C67.135 0.489702 68.2656 0.496505 68.6467 0.515417C69.0279 0.534339 68.8656 0.597399 68.9331 0.611852C69.4881 0.733849 70.7959 0.564884 70.964 0.560705C74.0319 0.489506 76.6627 0.58576 79.5424 0.585485C81.7285 0.585073 84.0661 0.553296 86.1462 0.557653C88.6245 0.563155 90.7249 0.606631 93.1324 0.599157C93.3865 0.598461 93.0888 0.504129 93.3991 0.503088C96.6961 0.492111 99.9702 0.502394 103.253 0.566076C103.582 0.572546 103.158 0.655368 103.487 0.666784C105.501 0.734849 108.687 0.898357 109.883 0.537756C111.247 0.551837 112.903 0.566385 114.124 0.639074C114.911 0.685858 114.146 0.776084 115.113 0.737585C115.331 0.729007 115.047 0.649991 115.374 0.643102C116.751 0.614176 118.255 0.639861 119.616 0.599035C119.893 0.590545 119.818 0.519744 119.896 0.506994C120.556 0.403741 121.653 0.574425 121.893 0.586828C123.715 0.679315 125.046 0.642919 126.744 0.645178C127.138 0.645741 126.673 0.550639 127.052 0.547766C127.884 0.541997 128.729 0.540134 129.573 0.543103C130.353 0.526522 131.043 1.23393 131.018 2C131.011 2.61953 131.001 3.23371 130.988 3.83693C130.978 4.26522 130.897 3.87137 130.889 4.07602C130.851 4.97842 131.004 5.17847 130.971 6.04392C130.964 6.22639 130.895 6.12358 130.887 6.1569C130.768 6.67776 130.937 7.13036 130.941 7.26433C130.992 8.95909 130.815 10.0424 130.84 11.6796C130.843 11.8755 130.931 11.4338 130.935 11.9844C130.959 15.6524 130.935 19.5318 130.865 23.1625C130.854 23.727 130.788 23.324 130.78 23.3596C130.653 23.9385 130.823 24.3132 130.829 24.4972C130.875 25.9493 130.733 27.3058 130.935 28.2924C130.9 31.4171 130.911 34.5345 130.908 37.6453C130.909 38.0259 130.737 38.4025 130.449 38.6506C128.391 40.4381 126.326 42.2101 124.225 43.9351C124.165 43.9845 124.215 43.83 124.096 43.9288C122.661 45.1179 123.016 44.9808 122.192 45.9111C122.063 46.0565 121.691 46.2952 121.411 46.4658C121.195 46.608 121 46.6368 120.963 46.6448C120.602 46.6891 120.928 46.4756 120.813 46.4947C120.721 46.5087 120.64 46.5131 120.568 46.515C119.981 46.5297 119.981 46.8578 118.965 46.8579C118.93 46.8572 119.079 46.7813 118.984 46.7738C118.687 46.7501 118.393 46.7802 118.102 46.7541C117.438 46.6937 117.201 46.4934 116.186 46.61C116.057 46.6251 116.253 46.8589 115.237 46.8479C114.832 46.8433 113.039 46.8473 112.536 46.8321C112.034 46.817 112.379 46.7416 112.343 46.7384C110.991 46.6387 111.503 46.5974 110.826 46.4499C110.148 46.303 110.336 46.6535 110.06 46.6926C109.783 46.7316 108.792 46.6494 108.548 46.6208C108.304 46.5922 108.608 46.5443 108.392 46.5282C106.956 46.4225 107.761 46.7021 107.288 46.7578C106.173 46.8895 105.304 46.6296 104.282 46.6041C104.006 46.5972 104.232 46.6564 103.985 46.662C103.011 46.6831 102.425 46.602 101.316 46.6764C101.135 46.6885 100.238 46.8448 99.6582 46.7301C99.576 46.7135 99.8095 46.6488 99.3942 46.6342C98.7737 46.6125 97.6558 46.5983 96.9888 46.62C96.4964 46.636 97.0608 46.7427 96.441 46.7096C96.1656 46.6948 96.6761 46.6323 96.1586 46.6097C95.6438 46.5871 94.3276 46.5899 93.8268 46.592C93.3269 46.5942 93.6005 46.6752 93.5601 46.6806C93.3156 46.7119 92.3562 46.7509 92.2714 46.7508C87.9948 46.7607 84.0511 46.6242 79.8873 46.6694C79.5605 46.6728 79.7782 46.7582 79.7283 46.7596C78.6097 46.7954 79.4917 46.5684 78.7102 46.4924C78.8232 46.6657 78.3619 46.6343 77.5739 46.6533C77.1942 46.6626 77.401 46.7297 77.3663 46.7365C76.8032 46.8384 76.4111 46.7068 76.3101 46.6799C75.9372 46.5809 75.5314 46.6979 75.2776 46.6317C75.024 46.566 75.6077 46.4686 74.852 46.4698C74.64 46.5318 75.2011 46.6939 74.6273 46.7202C72.4625 46.8195 68.4215 46.6924 66.6809 46.6792C64.9437 46.666 64.3826 46.6774 63.3704 46.655C61.5419 46.6145 62.212 46.7347 61.0767 46.7898C59.938 46.8448 60.4916 46.5489 60.3279 46.4853C60.1672 46.4217 59.9918 46.4872 59.7919 46.4522C59.5927 46.4173 60.024 46.374 59.5554 46.3609C59.0866 46.3478 57.8049 46.4609 57.6388 46.5274C57.2875 46.6683 57.8651 46.8162 56.6246 46.7642C56.5533 46.7612 56.7848 46.6834 56.5116 46.6755C54.342 46.6156 52.0879 46.6119 49.9209 46.5589C49.6229 46.5515 49.8894 46.465 49.716 46.4597C47.9097 46.4043 48.5554 46.5503 47.5655 46.7124C47.7878 46.4966 47.2403 46.3646 45.8695 46.3634C45.0455 46.3625 45.1873 46.4567 44.6544 46.5232C44.4944 46.5432 43.9114 46.4785 43.8057 46.5228C43.4573 46.6676 44.0065 46.8298 42.5932 46.7652C42.5312 46.7622 42.7286 46.6829 42.5144 46.6781C41.1294 46.6466 40.9637 46.7981 39.4666 46.8165C38.2932 46.8309 36.2062 46.7385 34.87 46.7235C34.8981 46.4809 33.6361 46.5365 33.1242 46.7037C32.257 46.6969 31.3205 46.7063 30.4824 46.6832C30.1939 46.6753 30.3834 46.6051 30.347 46.5975C29.7893 46.4785 29.4123 46.6412 29.2252 46.6475C27.1966 46.7096 25.5438 46.5862 23.6079 46.7068C23.5392 46.7111 23.4278 46.8796 22.9103 46.7566C22.8768 46.7481 23.5162 46.6714 22.6055 46.6655C21.6947 46.6595 19.9776 46.5692 18.7131 46.6473C18.4071 46.6661 17.6331 46.8029 17.0119 46.696C16.9291 46.6815 17.0197 46.6332 16.9002 46.6063C16.514 46.5206 16.3032 46.6909 15.8492 46.5462C15.3953 46.4016 14.4512 46.2932 13.1759 46.393C13.1353 46.3959 12.8334 46.5309 12.4324 46.5288C11.7921 46.5252 10.8833 46.4971 10.2149 46.498C9.8948 46.4985 10.0997 46.5823 10.0441 46.5838C7.89208 46.6308 6.36044 46.5561 4.05501 46.5236C3.6324 46.5175 2.4179 46.6318 1.59975 46.5415C1.59048 46.5404 1.5814 46.5394 1.57253 46.5383C1.16628 46.4615 1.21203 46.2909 1.17795 46.1769C1.17374 46.0395 1.008 45.9474 0.957593 45.5C0.955865 45.3702 0.951279 45.2237 0.943408 45.0579C0.904199 44.2251 0.382178 43.1706 0.652638 41.6739C0.58562 38.7711 0.72404 36.0866 0.628346 33.1757C0.624106 33.0448 0.478414 32.6308 0.480397 32.3231C0.483623 31.8662 0.551717 31.6155 0.556202 31.2892C0.576713 29.9223 0.518454 28.6714 0.527516 27.3534C0.530809 26.8531 0.601217 27.028 0.605153 26.4312C0.609022 25.8348 0.516307 25.4371 0.561085 24.6289C0.595217 24.0185 0.784723 23.4081 0.806812 22.5979C0.619885 22.567 0.623735 22.0106 0.574391 21.0215C0.564817 20.8314 0.499756 21.0352 0.491872 20.9453C0.458339 20.5793 0.51226 20.2406 0.475758 19.893C0.466992 19.8085 0.403155 19.8045 0.392385 19.7354C0.298373 19.1477 0.441968 18.1795 0.466969 18.0132C0.561921 17.3758 0.478894 17.078 0.516286 16.5891C0.553672 16.1011 0.600409 16.8308 0.623097 16.2607C0.670024 15.079 0.659714 13.5606 0.662647 12.3604C0.663424 11.8815 0.578212 12.2082 0.576344 12.1397C0.554732 11.1495 0.645373 10.1481 0.475636 9.59903C0.914513 8.91247 0.433068 9.00191 0.520924 7.58647C0.52803 7.47497 0.735572 7.33314 0.766041 7.76119C0.796481 8.18923 0.731607 8.8383 0.779102 9.4322C0.790248 9.57285 0.984728 10.3785 0.996509 10.4884C1.08858 11.3494 0.778436 11.4714 0.761402 11.517C0.577571 12.0336 0.787086 13.0181 0.801563 13.2773C0.867898 14.4634 0.824282 15.471 0.871631 16.463C0.902233 17.1118 1.10539 17.1753 1.09917 17.6847C1.07862 19.3783 0.795214 19.9695 1.04094 21.5654C1.09335 21.9076 1.31539 21.5675 1.1408 22.7937C1.12979 22.8707 0.970063 23.781 1.07109 24.307C1.08383 24.3731 1.14854 24.371 1.15398 24.4581C1.18914 25.0419 1.13759 25.4313 1.16228 26.0673C1.18697 26.7033 1.22378 27.4681 1.20183 28.1942C1.18871 28.6318 1.06814 29.1933 1.03862 29.4028C0.953591 29.9943 1.09301 30.6285 0.990039 30.995C0.886552 31.3645 0.729391 30.6421 0.662525 31.6111C0.830649 31.647 1.00321 31.7294 1.17229 31.7871C1.16637 33.9107 1.11201 36.0002 1.11943 38.1309C1.12052 38.395 1.21091 38.1249 1.2144 38.4081C1.22876 39.6028 1.16433 40.6464 1.18999 41.8854C1.2102 42.8445 1.30589 43.8961 1.33 44.899C1.28208 45.0516 1.25014 45.2585 1.22893 45.5C1.17528 45.6564 1.34873 45.8961 1.57253 45.8845C1.92252 45.8839 2.2695 45.8821 2.58238 45.8872C2.96106 45.8932 2.93575 45.9446 3.20506 45.9614C4.22105 46.0234 3.74497 45.8534 4.02349 45.8266C5.21847 45.7124 5.3208 46.0972 6.72967 46.0877C6.80431 46.0874 7.71669 45.8822 7.84236 45.8695C8.64084 45.7862 7.97452 45.9409 8.47425 45.956C9.38663 45.9837 10.0206 46.0327 11.0911 45.9726C11.4033 45.9548 12.152 45.827 12.7582 45.9259C12.8379 45.9388 12.7938 46.0066 12.858 46.0106C14.0198 46.0768 14.0503 45.8637 14.7142 45.7916C15.3783 45.7195 16.4038 45.8665 16.6125 45.9089C17.1585 46.0185 16.1941 45.9558 16.1645 45.9665C15.8172 46.0946 16.5651 46.0725 17.1367 46.0833C17.2194 46.2922 18.0186 46.2797 17.7291 46.0937C17.6962 46.0734 17.2514 46.0929 17.1367 46.0833C17.6383 45.8784 18.5167 45.8522 19.4868 46.0437C19.941 46.1334 19.5116 46.2381 20.8912 46.1998C21.5172 46.1825 21.2753 46.0387 21.8278 45.9995C23.0901 45.91 24.7303 46.0442 26.0316 46.023C26.5039 46.0154 26.0438 45.9366 26.3666 45.9287C27.2232 45.9073 27.9786 45.9664 28.8389 45.9361C28.9169 45.9333 28.7264 45.8509 28.994 45.8498C31.0221 45.8402 32.788 45.893 34.9055 45.8945C35.9286 45.8952 37.7578 45.8497 38.8177 45.8589C40.6546 45.8742 42.9143 45.994 44.4836 45.9649C45.5071 45.9463 45.2825 45.8639 45.7211 45.8077C46.5673 45.6988 48.0653 45.8938 48.267 45.924C48.2731 45.925 47.3924 45.9445 47.8624 45.9868C48.1356 46.0749 48.257 45.9244 48.267 45.924C48.3994 45.9435 50.1588 45.9623 50.5081 45.9465C50.698 45.9379 50.5918 45.8598 50.6907 45.8568C53.0432 45.7869 55.3999 45.767 57.7859 45.8036C57.8279 45.8051 57.7646 45.8925 57.8634 45.8951C59.2448 45.9339 60.1292 45.8271 61.2685 45.7636C62.4076 45.7002 63.3109 45.7215 63.9852 45.8714C64.8446 45.8525 66.0777 45.9188 66.7873 45.9591C67.4968 45.9993 67.5958 45.8293 67.6582 45.8259C69.6055 45.7183 70.7312 45.8156 72.7514 45.8308C73.7118 45.8383 75.617 45.8136 76.657 45.795C77.4788 45.78 77.974 45.8199 78.7313 45.7944C78.8337 45.791 78.7302 45.7153 78.7615 45.7124C79.6066 45.6218 79.2005 45.8069 79.375 45.8399C80.0076 45.9601 80.3985 46.0242 81.4808 45.9676C81.7304 45.9547 82.4576 45.6882 82.9127 45.6726C83.5044 45.6528 83.2811 45.7483 83.9006 45.7252C83.9536 45.7233 83.9426 45.6644 84.3249 45.667C86.0998 45.6782 88.0348 45.7125 89.8792 45.7066C90.1311 45.7061 89.8081 45.6126 90.1721 45.6102C91.8802 45.5991 93.7523 45.6026 95.4163 45.6463C95.8259 45.6574 95.5691 45.7228 95.658 45.7423C96.2039 45.8599 96.978 45.689 97.1057 45.6858C100.152 45.6037 102.484 45.7583 105.589 45.6847C105.759 45.6803 107.06 45.4972 107.64 45.6543C107.68 45.6647 108.254 45.8254 108.762 45.7155C108.794 45.7087 108.436 45.6259 109.06 45.6344C109.685 45.6428 110.69 45.5875 111.548 45.6784C111.82 45.7071 112.463 45.8674 113.273 45.7396C113.326 45.7307 114.578 45.4417 115.024 45.6411C115.097 45.6739 115.021 45.8849 115.989 45.7767C116.173 45.7557 115.838 45.7087 116.325 45.6793C117.071 45.634 118.06 45.6905 118.977 45.5965C119.137 45.5799 119.818 45.4367 120.364 45.5454C120.449 45.5622 120.29 45.6315 120.568 45.6405C120.568 45.6406 120.569 45.6406 120.569 45.6407C120.602 45.6471 120.64 45.6381 120.669 45.6157C121.545 44.8667 122.421 44.0689 123.318 43.3404C123.701 43.029 123.586 43.2806 123.993 42.9656C124.401 42.6504 125.201 41.9914 125.572 41.5984C125.944 41.2053 125.381 41.4551 125.98 40.9141C127.184 39.8246 128.407 38.7672 129.636 37.7184C129.659 37.7028 129.676 37.6758 129.68 37.6453C129.7 36.0574 129.726 34.4695 129.733 32.8759C129.735 32.3567 129.67 32.7871 129.669 32.022C129.664 29.2011 129.603 24.3308 129.741 21.883C129.852 19.9217 129.936 22.3898 129.981 20.8911C130.002 20.1679 129.791 19.3855 129.785 19.211C129.717 17.5055 129.811 16.3202 129.782 14.7852C129.776 14.4682 129.691 14.7791 129.687 14.5093C129.672 13.5878 129.71 12.6193 129.703 11.7387C129.7 11.3437 129.634 11.4165 129.639 11.053C129.651 10.1832 129.678 9.41409 129.739 8.56619C129.745 8.48891 129.826 9.01001 129.829 8.36651C129.834 7.32502 129.894 6.03226 129.832 4.83402C129.813 4.47848 129.664 4.46455 129.767 3.70031C129.788 3.54 129.968 3.74454 129.813 2.8543C129.801 2.78551 129.75 2.4326 129.712 2C129.659 1.92521 129.622 1.93709 129.58 1.85993C129.578 1.8573 129.575 1.85413 129.573 1.85055C129.355 1.8042 128.9 1.67932 128.503 1.70072C128.445 1.70439 128.678 1.78457 128.323 1.79239C127.075 1.81856 125.766 1.81 124.483 1.83512C124.141 1.84198 124.651 1.92495 124.141 1.93253C122.737 1.9535 120.984 1.93237 119.611 1.9064C119.105 1.89667 119.455 1.82795 119.418 1.82047C118.826 1.69882 118.475 1.86302 118.279 1.87259C117.056 1.92992 116.125 1.85279 114.999 1.8732C114.688 1.87863 114.908 1.95692 114.846 1.9639C114.204 2.03211 114.683 1.89151 114.276 1.87601C113.138 1.83212 111.869 1.83842 110.717 1.84842C110.294 1.85221 110.77 1.94299 110.39 1.94534C108.144 1.96099 105.809 1.9523 103.617 1.90225C103.204 1.89267 103.464 1.82276 103.378 1.80679C102.785 1.69509 101.916 1.84746 101.716 1.86197C100.807 1.92824 100.454 1.86642 99.6509 1.87796C95.7289 1.93541 90.8862 1.89447 87.1841 1.86917C82.3598 1.83662 78.6162 1.77012 74.0157 1.78739C73.7233 1.7884 74.0182 1.88139 73.7661 1.88345C70.5119 1.90587 67.3082 1.86953 64.0475 1.89639C63.7799 1.89843 64.1656 1.98659 63.7362 1.99283C62.8552 2.00624 61.7393 2.00145 60.8487 1.9733C60.4143 1.95974 60.997 1.88409 60.5597 1.87198C59.5415 1.84362 58.4501 1.83734 57.4042 1.85147C56.9591 1.85768 57.6306 1.94784 57.0521 1.94888C53.1115 1.95783 49.2414 1.97336 45.2592 1.8566C44.9862 1.84858 44.7467 1.66533 44.1662 1.70047C44.1225 1.75133 44.1249 1.81115 44.1058 1.86551C38.3693 1.89479 32.6913 1.83127 26.9386 1.82144C26.6961 1.82105 27.1152 1.91815 26.6457 1.91788C23.9279 1.91644 21.2887 1.94334 18.5087 1.84683C18.2329 1.8374 18.3744 1.66658 17.5616 1.69242C17.4182 1.69713 16.1939 1.71991 15.8774 1.75699C15.8344 1.76258 16.0578 1.84231 15.6633 1.84464C13.3708 1.85674 10.9683 1.83854 8.67976 1.78983C8.3104 1.78181 8.70374 1.69691 8.44067 1.69046C6.57456 1.64539 4.54477 1.70993 2.76162 1.63285C1.72131 1.5876 1.92342 1.4703 1.57253 1.34527C1.53825 1.32696 1.49351 1.3104 1.43325 1.3033C1.40056 1.29811 1.25131 1.32819 1.12488 1.41037C0.995702 1.48772 0.901137 1.60869 0.857207 1.60292C0.745052 1.5891 0.669771 1.49005 0.61436 1.3697C0.556194 1.25355 0.518637 1.11654 0.363183 1.13625C0.325662 1.13514 0.118029 1.47014 0.0774047 1.74213C0.038168 2.00545 0.00907665 2.17519 2.74181e-06 1.7061C0.00130451 1.67519 0.045127 1.36317 0.22845 1.07615C0.401613 0.783211 0.710158 0.559568 0.838045 0.482006C1.02312 0.372498 0.617592 0.439645 1.03416 0.246195C1.19548 0.183001 1.37761 0.154353 1.57253 0.159541C1.75148 0.168291 1.9571 0.186706 2.21776 0.160804C2.63384 0.118927 2.45088 0.0216813 3.28184 0.0101698ZM69.9821 46.1389C70.6391 46.2205 70.7361 45.9215 70.0255 45.993C69.9911 45.9968 69.9482 46.1349 69.9821 46.1389ZM0.886402 35.9883C0.75448 36.8472 0.948458 37.435 1.05034 36.829C1.15212 36.2232 0.926392 35.7266 0.886402 35.9883ZM0.790088 27.0815C0.686074 28.0854 1.1102 28.2434 1.02446 27.1682C1.01962 27.1057 0.796128 27.0228 0.790088 27.0815ZM4.31702 1.24857C4.30795 1.2446 3.77666 1.24073 3.76396 1.24466C3.48106 1.33965 4.54343 1.34733 4.31702 1.24857ZM0.68523 18.2431C0.627858 18.5564 0.694088 19.4587 0.76543 19.0694C0.822824 18.7559 0.756599 17.8528 0.68523 18.2431ZM104.255 46.4581C104.265 46.4626 104.646 46.4666 104.638 46.4414C104.613 46.3602 104.082 46.3831 104.255 46.4581ZM0.680348 3.22111C0.664383 5.44053 0.314033 6.78619 0.353566 4.36927C0.360719 3.93159 0.46529 5.31257 0.496877 4.75549C0.554421 3.73615 0.334444 3.0593 0.452321 2.01909C0.473896 1.83079 0.682037 3.09451 0.680836 3.22505C0.680673 3.22374 0.68051 3.22243 0.680348 3.22111ZM70.3605 46.4981C70.3736 46.5021 70.9009 46.5058 70.9135 46.5019C71.1991 46.407 70.1368 46.3994 70.3605 46.4981ZM125.235 42.946C125.262 42.9332 126.19 42.1348 126.214 42.1027C126.593 41.5661 124.718 43.1799 125.235 42.946ZM34.849 46.717C34.2737 46.8125 33.5854 46.8238 33.1268 46.7038C33.6985 46.7102 34.2741 46.7111 34.849 46.717Z" fill="#07596E"/>
<path d="M51.1873 29H46.0033C45.822 29 45.7313 28.9093 45.7313 28.728V18.984C45.7313 18.8027 45.822 18.712 46.0033 18.712H47.0113C47.1926 18.712 47.2833 18.8027 47.2833 18.984V27.448C47.2833 27.5547 47.3473 27.608 47.4753 27.608H51.1873C51.3686 27.608 51.4593 27.704 51.4593 27.896V28.728C51.4593 28.9093 51.3686 29 51.1873 29ZM55.6384 27.64H57.0304C57.8091 27.64 58.1984 27.2453 58.1984 26.456V21.256C58.1984 20.4667 57.8091 20.072 57.0304 20.072H55.6384C54.8704 20.072 54.4864 20.4667 54.4864 21.256V26.456C54.4864 27.2453 54.8704 27.64 55.6384 27.64ZM57.2704 29H55.4144C54.6251 29 54.0118 28.7813 53.5744 28.344C53.1478 27.9067 52.9344 27.2987 52.9344 26.52V21.192C52.9344 20.4027 53.1478 19.7947 53.5744 19.368C54.0118 18.9307 54.6251 18.712 55.4144 18.712H57.2704C58.0598 18.712 58.6731 18.9307 59.1104 19.368C59.5478 19.7947 59.7664 20.4027 59.7664 21.192V26.52C59.7664 27.2987 59.5478 27.9067 59.1104 28.344C58.6731 28.7813 58.0598 29 57.2704 29ZM66.1146 29H64.4026C63.6132 29 62.9999 28.7813 62.5626 28.344C62.1359 27.9067 61.9226 27.2987 61.9226 26.52V21.192C61.9226 20.4027 62.1359 19.7947 62.5626 19.368C62.9999 18.9307 63.6132 18.712 64.4026 18.712H66.1146C66.9039 18.712 67.5119 18.9307 67.9386 19.368C68.3759 19.7947 68.5946 20.4027 68.5946 21.192V21.768C68.5946 21.96 68.5039 22.056 68.3226 22.056H67.3146C67.1332 22.056 67.0426 21.96 67.0426 21.768V21.256C67.0426 20.4667 66.6586 20.072 65.8906 20.072H64.6266C63.8586 20.072 63.4746 20.4667 63.4746 21.256V26.456C63.4746 27.2453 63.8586 27.64 64.6266 27.64H65.8906C66.6586 27.64 67.0426 27.2453 67.0426 26.456V25.016C67.0426 24.9093 66.9839 24.856 66.8666 24.856H65.5706C65.3892 24.856 65.2986 24.7653 65.2986 24.584V23.768C65.2986 23.5867 65.3892 23.496 65.5706 23.496H68.2586C68.4826 23.496 68.5946 23.608 68.5946 23.832V26.52C68.5946 27.2987 68.3759 27.9067 67.9386 28.344C67.5012 28.7813 66.8932 29 66.1146 29ZM76.5346 18.984V28.728C76.5346 28.9093 76.4439 29 76.2626 29H75.2546C75.0732 29 74.9826 28.9093 74.9826 28.728V18.984C74.9826 18.8027 75.0732 18.712 75.2546 18.712H76.2626C76.4439 18.712 76.5346 18.8027 76.5346 18.984ZM80.3734 29H79.3814C79.2001 29 79.1094 28.9093 79.1094 28.728V18.984C79.1094 18.8027 79.2001 18.712 79.3814 18.712H80.2774C80.4481 18.712 80.5654 18.7707 80.6294 18.888L84.5014 25.848H84.5654V18.984C84.5654 18.8027 84.6561 18.712 84.8374 18.712H85.8294C86.0108 18.712 86.1014 18.8027 86.1014 18.984V28.728C86.1014 28.9093 86.0108 29 85.8294 29H84.9654C84.7948 29 84.6561 28.9147 84.5494 28.744L80.7094 21.864H80.6454V28.728C80.6454 28.9093 80.5548 29 80.3734 29Z" fill="#64E6F4"/>
<g filter="url(#filter0_f_43_220)">
<path d="M51.1873 29H46.0033C45.822 29 45.7313 28.9093 45.7313 28.728V18.984C45.7313 18.8027 45.822 18.712 46.0033 18.712H47.0113C47.1926 18.712 47.2833 18.8027 47.2833 18.984V27.448C47.2833 27.5547 47.3473 27.608 47.4753 27.608H51.1873C51.3686 27.608 51.4593 27.704 51.4593 27.896V28.728C51.4593 28.9093 51.3686 29 51.1873 29ZM55.6384 27.64H57.0304C57.8091 27.64 58.1984 27.2453 58.1984 26.456V21.256C58.1984 20.4667 57.8091 20.072 57.0304 20.072H55.6384C54.8704 20.072 54.4864 20.4667 54.4864 21.256V26.456C54.4864 27.2453 54.8704 27.64 55.6384 27.64ZM57.2704 29H55.4144C54.6251 29 54.0118 28.7813 53.5744 28.344C53.1478 27.9067 52.9344 27.2987 52.9344 26.52V21.192C52.9344 20.4027 53.1478 19.7947 53.5744 19.368C54.0118 18.9307 54.6251 18.712 55.4144 18.712H57.2704C58.0598 18.712 58.6731 18.9307 59.1104 19.368C59.5478 19.7947 59.7664 20.4027 59.7664 21.192V26.52C59.7664 27.2987 59.5478 27.9067 59.1104 28.344C58.6731 28.7813 58.0598 29 57.2704 29ZM66.1146 29H64.4026C63.6132 29 62.9999 28.7813 62.5626 28.344C62.1359 27.9067 61.9226 27.2987 61.9226 26.52V21.192C61.9226 20.4027 62.1359 19.7947 62.5626 19.368C62.9999 18.9307 63.6132 18.712 64.4026 18.712H66.1146C66.9039 18.712 67.5119 18.9307 67.9386 19.368C68.3759 19.7947 68.5946 20.4027 68.5946 21.192V21.768C68.5946 21.96 68.5039 22.056 68.3226 22.056H67.3146C67.1332 22.056 67.0426 21.96 67.0426 21.768V21.256C67.0426 20.4667 66.6586 20.072 65.8906 20.072H64.6266C63.8586 20.072 63.4746 20.4667 63.4746 21.256V26.456C63.4746 27.2453 63.8586 27.64 64.6266 27.64H65.8906C66.6586 27.64 67.0426 27.2453 67.0426 26.456V25.016C67.0426 24.9093 66.9839 24.856 66.8666 24.856H65.5706C65.3892 24.856 65.2986 24.7653 65.2986 24.584V23.768C65.2986 23.5867 65.3892 23.496 65.5706 23.496H68.2586C68.4826 23.496 68.5946 23.608 68.5946 23.832V26.52C68.5946 27.2987 68.3759 27.9067 67.9386 28.344C67.5012 28.7813 66.8932 29 66.1146 29ZM76.5346 18.984V28.728C76.5346 28.9093 76.4439 29 76.2626 29H75.2546C75.0732 29 74.9826 28.9093 74.9826 28.728V18.984C74.9826 18.8027 75.0732 18.712 75.2546 18.712H76.2626C76.4439 18.712 76.5346 18.8027 76.5346 18.984ZM80.3734 29H79.3814C79.2001 29 79.1094 28.9093 79.1094 28.728V18.984C79.1094 18.8027 79.2001 18.712 79.3814 18.712H80.2774C80.4481 18.712 80.5654 18.7707 80.6294 18.888L84.5014 25.848H84.5654V18.984C84.5654 18.8027 84.6561 18.712 84.8374 18.712H85.8294C86.0108 18.712 86.1014 18.8027 86.1014 18.984V28.728C86.1014 28.9093 86.0108 29 85.8294 29H84.9654C84.7948 29 84.6561 28.9147 84.5494 28.744L80.7094 21.864H80.6454V28.728C80.6454 28.9093 80.5548 29 80.3734 29Z" fill="#64E6F4"/>
</g>
<defs>
<filter id="filter0_f_43_220" x="44.7313" y="17.712" width="42.3701" height="12.288" filterUnits="userSpaceOnUse" color-interpolation-filters="sRGB">
<feFlood flood-opacity="0" result="BackgroundImageFix"/>
<feBlend mode="normal" in="SourceGraphic" in2="BackgroundImageFix" result="shape"/>
<feGaussianBlur stdDeviation="0.5" result="effect1_foregroundBlur_43_220"/>
</filter>
</defs>
</svg>
