<svg width="680" height="356" viewBox="0 0 680 356" fill="none" xmlns="http://www.w3.org/2000/svg">
<path d="M12.7315 309.319C12.7874 316.17 12.8249 322.672 12.8481 328.926C12.8622 330.223 12.0781 331.481 10.9165 332.042C8.42377 333.282 5.97313 334.498 3.5568 335.694C3.72396 335.614 3.83558 335.436 3.83476 335.251C3.83994 339.668 3.8388 343.984 3.83306 348.237C3.83373 348.052 3.72161 347.874 3.55594 347.795C6.20513 349.107 8.82844 350.409 11.4382 351.706C11.3732 351.674 11.3011 351.658 11.2293 351.659C29.4698 351.714 47.1906 351.828 67.712 351.858C155.167 351.988 270.495 351.871 359.941 351.881C427.642 351.888 496.435 351.913 563.728 351.933C567.18 351.934 569.239 351.972 570.804 351.972C585.537 351.977 610.245 351.942 624.861 351.947C631.207 351.949 638.523 351.951 646.385 351.952C646.35 351.952 646.315 351.963 646.287 351.982C655.711 345.713 666.041 338.84 676.243 332.054C676.196 332.085 676.167 332.14 676.167 332.196C676.172 312.394 676.179 293.126 676.197 279.655C676.212 267.697 676.218 255.431 676.309 250.783C676.314 246.414 676.232 244.029 676.227 242.888C676.227 242.875 676.227 242.862 676.227 242.849C676.213 239.174 676.271 229.895 676.268 227.847C676.267 227.541 676.207 229.426 676.225 224.458C676.227 224.015 676.268 224.424 676.268 220.241C676.268 219.152 676.206 205.161 676.202 201.162C676.19 187.856 676.239 156.079 676.238 140.171C676.238 137.737 676.214 136.336 676.214 133.767C676.213 132.44 676.239 130.45 676.239 130.042C676.238 128.252 676.121 120.433 676.352 123.24C676.337 115.076 676.261 117.481 676.211 117.297C676.204 108.435 676.313 104.164 676.198 101.85C676.208 69.0664 676.219 36.2832 676.229 3.50001C676.23 3.55974 676.279 3.60775 676.338 3.60815C666.327 3.60496 656.317 3.60176 646.306 3.59856C646.293 3.61736 646.28 3.63616 646.267 3.65496C633.422 3.57987 629.016 3.70688 621.683 3.59783C617.161 3.62184 612.64 3.64584 608.118 3.66985C491.91 3.59588 375.973 3.6838 261.075 3.68352C256.225 3.68352 255.015 3.64352 247.018 3.64324C238.188 3.64296 225.769 3.68945 214.132 3.68889C203.924 3.68847 188.865 3.65063 177.482 3.6447C174.913 3.64344 173.055 3.66877 172.765 3.66863C171.064 3.66764 170.979 3.62753 169.329 3.62639C167.356 3.62513 164.971 3.65484 162.691 3.65301C154.171 3.64639 144.887 3.65663 143.808 3.65594C138.612 3.65214 137.465 3.61291 137.037 3.61248C131.257 3.60769 133.424 3.6431 131.985 3.64104C124.515 3.63019 119.235 3.54181 109.009 3.62664C109.288 3.59384 109.566 3.56105 109.845 3.52825C102.019 3.5098 107.188 3.59694 105.589 3.61272C104.936 3.61857 88.0908 3.60793 86.7914 3.60638C82.2667 3.60074 82.1453 3.55716 81.7543 3.55657C80.8014 3.55516 69.4178 3.60463 63.5817 3.56658C56.6766 3.5215 64.8044 3.43284 63.0897 3.4162C62.8006 3.41338 55.5715 3.42246 54.6008 3.39471C53.5295 3.36485 59.7809 3.36549 59.6848 3.35297C59.6168 3.34437 49.2372 3.28282 51.2272 3.2414C52.8268 3.19985 66.9085 3.25312 69.8917 3.23358C70.3842 3.23035 69.4556 3.17907 69.8917 3.17719C71.6436 3.17029 104.089 3.16875 105.573 3.17719C103.884 3.20055 102.194 3.2239 100.505 3.24726C102.751 3.24962 104.998 3.25198 107.244 3.25434C104.05 3.27305 100.856 3.29177 97.6621 3.31049C102.409 3.50279 116.706 3.30784 117.295 3.21186C117.55 3.16747 108.811 3.05327 116.944 2.98677C115.707 2.97537 114.471 2.96398 113.234 2.95259C110.686 2.9713 108.137 2.99002 105.589 3.00874C107.286 3.02054 108.983 3.03234 110.68 3.04414C110.056 3.05748 109.431 3.07083 108.806 3.08418C104.042 3.10558 99.2786 3.12698 94.5149 3.14838C92.0657 3.13852 92.5746 3.09912 90.8913 3.0915C69.8957 2.99555 83.5908 3.11765 69.8449 3.10004C67.8822 3.07889 65.9194 3.05773 63.9566 3.03657C64.6489 3.12408 58.5606 3.06913 51.1959 3.10688C52.0758 3.07856 52.9557 3.05024 53.8355 3.02192C43.1672 3.037 21.5411 2.89422 27.3772 3.05048C24.9329 3.03714 22.4884 3.02379 20.0441 3.01045C17.9797 3.036 15.9155 3.06155 13.8512 3.0871C10.9981 3.08418 8.14527 3.08125 5.29208 3.07832C5.27896 3.06448 5.26617 3.05065 5.25305 3.03681C7.52821 3.03673 9.80336 3.03665 12.0785 3.03657C10.3709 2.99442 8.66312 2.95226 6.95553 2.91011C5.74968 2.91513 4.54394 2.92016 3.33809 2.92519C3.15356 2.92613 2.98134 3.01841 2.87597 3.168C3.01337 2.98726 3.19924 2.93723 3.33809 2.94144C5.14297 2.95894 4.6452 2.98003 3.33809 3.00247C3.12268 2.99854 2.85364 3.22268 2.87463 3.5C2.89324 4.8948 2.91201 6.33452 2.92982 7.0538C2.94019 10.0481 2.92696 12.4972 2.91087 14.4449C2.89506 16.3591 2.8765 17.7889 2.87489 18.7758C2.87334 19.7116 3.00079 30.7352 2.86073 26.4134C2.87774 32.0856 2.89474 37.7579 2.91175 43.4302C2.90101 45.648 2.89027 47.8659 2.87953 50.0838C2.81429 45.2705 2.73568 59.2201 2.70863 48.9436C2.68834 41.27 2.74934 39.379 2.74891 35.7379C2.74861 32.4555 2.70753 30.7198 2.7057 27.1475C2.7036 22.7816 2.70213 18.5628 2.70124 14.4449C2.70044 10.7256 2.70011 7.08869 2.70022 3.5C2.69098 3.16006 3.00037 2.85274 3.33809 2.86227C16.7793 2.86338 29.6424 2.87055 43.7457 2.88179C48.2535 2.88544 52.3539 2.8653 55.3818 2.86812C58.8003 2.87137 54.5172 2.92289 58.8727 2.91035C63.4465 2.8971 64.4356 2.85505 65.6434 2.8542C66.3948 2.85372 68.7769 2.89155 70.9694 2.89155C79.9788 2.89155 93.1799 2.85497 94.4602 2.85518C95.9062 2.8556 121.385 2.88974 122.605 2.89595C123.252 2.89933 121.91 3.03903 127.525 2.89009C129.277 2.88732 131.029 2.88456 132.781 2.88179C132.497 2.9097 132.214 2.93761 131.93 2.96553C142.309 2.85971 138.739 2.91891 148.744 2.9106C172.7 2.89059 208.04 2.91411 234.241 2.90425C240.092 2.90199 242.322 2.86857 249.243 2.86616C255.674 2.86405 272.465 2.96378 268.814 2.82564C283.123 2.94525 285.423 2.73899 292.586 2.86763C293.452 2.84891 294.319 2.8302 295.186 2.81148C302.962 2.89179 305.361 2.82121 313.851 2.81148C317.509 2.80725 313.292 2.89267 320.676 2.79756C322.087 2.80464 323.498 2.81172 324.909 2.8188C324.581 2.83947 324.253 2.86014 323.925 2.88081C332.126 2.8639 332.654 2.87467 331.719 2.79732C335.678 2.8114 339.637 2.82548 343.597 2.83955C344.089 2.81416 344.581 2.78877 345.073 2.76338C343.176 2.71496 253.276 2.78799 240.754 2.81123C226.072 2.75376 196.575 2.82561 184.714 2.81197C179.967 2.80647 177.869 2.74905 170.961 2.74214C164.056 2.73525 155.365 2.7874 151.688 2.78926C139.437 2.79574 81.3975 2.78429 120.872 2.71285C119.737 2.68485 118.602 2.65686 117.467 2.62887C101.781 2.72439 107.461 2.66558 94.4446 2.65572C88.9655 2.65151 75.9349 2.71402 76.6625 2.58688C86.8373 2.5632 97.6469 2.60384 106.495 2.60201C107.371 2.60181 117.847 2.54376 123.238 2.55953C128.102 2.57393 124.753 2.69514 135.335 2.55904C143.194 2.69199 147.738 2.57138 149.813 2.55856C153.401 2.53633 153.794 2.60194 157.381 2.60958C161.288 2.61802 163.977 2.57447 164.511 2.57418C169.868 2.5732 197.773 2.56726 199.052 2.59371C197.93 2.60535 196.808 2.61699 195.686 2.62862C202.933 2.64735 201.418 2.58026 203.324 2.57223C204.742 2.57247 206.161 2.57272 207.58 2.57296C207.018 2.58688 206.455 2.60079 205.893 2.61471C214.452 2.61175 207.903 2.56339 220.052 2.56466C227.765 2.56551 235.733 2.61864 236.483 2.61471C236.704 2.61358 234.275 2.57776 237.42 2.57296C242.625 2.56507 251.626 2.56598 252.633 2.61471C255.182 2.60781 254.965 2.56013 255.303 2.55904C256.783 2.5544 282.252 2.53818 286.814 2.53536C299.456 2.52761 313.531 2.53778 327.228 2.52975C328.637 2.52895 327.738 2.55954 329.149 2.55856C331.415 2.55699 343.047 2.50897 344.784 2.50558C349.121 2.49727 360.529 2.51632 362.324 2.50241C362.579 2.50043 358.824 2.45908 363.214 2.44626C368.088 2.43207 365.464 2.48769 365.729 2.48825C375.647 2.50727 381.91 2.46862 388.681 2.46115C390.875 2.45875 394.925 2.50061 398.021 2.48825C398.377 2.48684 397.671 2.44816 398.021 2.44626C402.7 2.42597 407.078 2.49776 409.102 2.50241C414.057 2.51377 411.359 2.46079 411.617 2.46042C414.917 2.45872 419.359 2.47784 424.378 2.47531C446.752 2.46403 465.011 2.4608 488.798 2.46432C491.785 2.46474 495.33 2.50211 495.787 2.50216C497.199 2.50188 496.795 2.45796 500.879 2.45895C509.488 2.4612 517.47 2.45908 525.994 2.45993C527.71 2.4601 528.442 2.50079 529.75 2.50167C534.139 2.50421 549.106 2.39766 549.352 2.53024C558.063 2.41287 563.849 2.51403 570.859 2.5129C587.466 2.51037 613.468 2.48646 630.024 2.50167C633.509 2.50494 635.144 2.5389 637.083 2.54073C640.561 2.54411 660.44 2.52513 661.48 2.53048C663.522 2.54077 662.298 2.69036 672.796 2.56002C674.384 2.55763 675.514 2.55993 676.338 2.56474C676.806 2.57913 677.038 2.86395 677.137 3.04673C677.236 3.24209 677.24 3.38246 677.237 3.50001C677.229 3.74149 677.224 3.94145 677.223 4.30198C677.198 14.2216 677.335 23.872 677.209 22.0685C677.244 33.6182 677.313 41.1038 677.196 45.8169C677.253 45.7556 677.287 51.1874 677.265 57.7341C677.169 51.0309 677.108 51.8606 677.125 35.649C677.125 35.3938 677.167 35.8809 677.167 35.6256C677.17 33.3107 677.149 28.4818 677.151 24.5362C677.154 20.59 677.182 22.781 677.181 21.2016C677.181 19.7554 677.141 19.8036 677.141 17.7108C677.139 12.2232 677.132 7.24607 677.129 3.50001C677.135 3.03766 676.715 2.69556 676.338 2.71063C676.308 2.71064 676.278 2.71065 676.248 2.71065C673.815 2.71106 671.092 2.67623 669.203 2.67623C661.904 2.67651 646.435 2.70371 637.146 2.69991C635.21 2.69902 636.023 2.65994 631.789 2.6567C631.294 2.65632 629.49 2.69708 625.783 2.70552C622.075 2.71398 619.2 2.69374 616.818 2.69796C614.827 2.70148 615.659 2.73768 611.578 2.73995C608.175 2.74178 569.633 2.7157 567.54 2.70992C564.53 2.70159 563.099 2.65074 561.261 2.65694C560.938 2.65827 560.391 2.70738 559.27 2.7109C540.792 2.76893 499.893 2.70193 478.778 2.70235C434.643 2.70306 393.926 2.73195 349.399 2.74337C348.605 2.75191 347.811 2.76045 347.017 2.769C351.518 2.76932 356.019 2.76965 360.52 2.76998C360.549 2.79309 360.577 2.8162 360.606 2.83931C366.691 2.84297 365.884 2.78831 365.713 2.75533C367.965 2.76932 370.217 2.78332 372.468 2.79732C374.411 2.71678 389.428 2.77034 397.17 2.77022C402.205 2.77022 408.197 2.73952 410.852 2.7419C416.461 2.74683 416.315 2.79653 416.756 2.79732C417.504 2.79845 425.336 2.75461 430.984 2.7563C439.336 2.75872 440.239 2.83503 451.672 2.77022C466.321 2.80981 482.552 2.78989 498.341 2.7834C495.335 2.85394 509.484 2.78718 515.865 2.78829C554.794 2.79519 602.641 2.82533 642.081 2.85323C647.15 2.85675 650.979 2.8983 653.803 2.89693C655.335 2.89622 656.003 2.84723 658.13 2.85371C658.503 2.85496 658.763 2.90077 662.722 2.90767C666.024 2.91348 670.978 2.90875 676.338 2.9032C676.652 2.89302 676.945 3.17876 676.937 3.50001C676.948 13.5193 676.956 24.3025 676.902 28.1286C676.915 61.8106 676.929 95.4927 676.942 129.175C676.924 130.021 676.905 130.867 676.886 131.713C676.982 138.112 676.926 163.407 676.93 175.743C676.938 197.453 676.968 225.154 676.971 244.177C676.972 248.31 676.945 251.697 676.945 255.61C676.946 257.293 676.981 259.387 676.981 261.139C676.984 280.808 676.947 307.439 676.948 327.261C676.948 328.91 676.948 330.555 676.948 332.196C676.95 332.397 676.844 332.595 676.676 332.705C666.581 339.423 656.629 346.046 646.723 352.637C646.623 352.704 646.504 352.74 646.385 352.739C616.748 352.739 587.441 352.736 556.669 352.737C403.06 352.743 250.335 352.795 98.036 352.774C95.9943 352.774 96.0962 352.733 94.514 352.733C85.1731 352.731 64.3137 352.764 53.7643 352.762C45.359 352.761 32.018 352.699 29.1255 352.761C58.9864 352.856 90.5346 352.849 121.621 352.875C123.83 352.877 124.105 352.915 124.377 352.916C129.41 352.929 126.232 352.876 133.53 352.874C135.969 352.873 158.499 352.996 155.818 352.874C161.214 352.923 199.247 352.947 206.587 352.931C208.816 352.926 207.238 352.89 207.68 352.888C209.602 352.88 210.469 352.93 212.187 352.931C216.764 352.934 228.405 352.894 230.617 352.894C235.706 352.894 250.964 352.935 257.684 352.925C263.844 352.917 262.691 352.865 268.016 352.86C272.214 352.856 267.641 352.9 277.013 352.913C281.657 352.92 297.905 352.888 301.854 352.888C305.802 352.888 310.193 352.92 315.638 352.917C323.481 352.914 340.543 352.896 348.524 352.886C349 352.886 350.161 352.845 351.335 352.846C353.767 352.848 353.036 352.898 354.873 352.903C356.71 352.908 388.531 352.902 393.936 352.902C397.661 352.903 400.233 352.873 402.292 352.873C403.907 352.874 404.08 352.915 405.728 352.916C406.238 352.916 410.581 352.879 414.92 352.88C419.019 352.881 434.585 352.916 436.388 352.916C437.562 352.916 436.275 352.886 439.746 352.887C442.909 352.888 444.987 352.926 446.79 352.927C450.974 352.928 455.65 352.895 460.089 352.895C472.85 352.895 472.193 352.942 472.959 352.944C475.082 352.948 475.933 352.905 476.63 352.904C479.572 352.9 486.783 352.892 489.406 352.89C492.673 352.888 494.057 352.93 497.528 352.93C500.115 352.93 505.339 352.889 511.241 352.887C524.546 352.883 540.369 352.875 553.436 352.877C557.332 352.877 557.93 352.915 559.121 352.916C565.38 352.921 568.884 352.879 570.671 352.879C583.415 352.883 606.147 352.95 617.973 352.955C621.678 352.957 635.014 352.939 646.385 352.933C646.543 352.934 646.7 352.885 646.83 352.798C649.394 351.09 651.818 349.477 653.904 348.09C655.036 347.337 653.992 348.067 655.25 347.225C658.26 345.209 657.946 345.345 659.477 344.328C660.215 343.838 661.917 342.747 664.069 341.319C668.952 338.079 673.163 335.275 676.782 332.863C677.006 332.716 677.141 332.454 677.138 332.196C677.134 327.299 677.127 323.36 677.128 320.233C677.146 261.567 677.162 201.744 677.167 146.957C677.168 140.849 677.132 133.274 677.167 124.052C677.186 123.768 677.204 123.484 677.223 123.201C677.205 122.878 677.186 122.555 677.168 122.232C677.158 111.787 677.134 107.839 677.157 97.1718C677.159 96.2532 677.245 93.4486 677.139 91.713C677.216 81.1468 677.138 86.9445 677.131 79.1008C677.124 71.258 677.147 63.6363 677.153 56.0317C677.191 51.8631 677.279 69.3549 677.279 70.4948C677.278 72.3315 677.225 74.2396 677.223 76.0082C677.214 81.2466 677.256 86.3134 677.209 87.4881C677.259 94.2583 677.234 85.83 677.279 86.6759C677.26 91.195 677.242 95.7141 677.223 100.233C677.376 102.535 677.177 127.505 677.293 125.77C677.27 127.756 677.246 129.742 677.223 131.729C677.369 140.438 677.266 145.561 677.223 157.18C677.242 156.341 677.26 155.503 677.279 154.665C677.287 154.903 677.317 165.157 677.237 161.49C677.342 172.002 677.167 171.559 677.294 180.983C677.31 186.58 677.237 183.215 677.238 193.236C677.238 199.174 677.277 206.545 677.28 213.181C677.28 214.71 677.238 215.374 677.238 216.734C677.238 218.094 677.279 218.757 677.28 220.405C677.283 223.808 677.253 228.219 677.256 230.346C677.258 232.252 677.295 234.976 677.301 239.569C677.321 255.61 677.269 250.765 677.251 253.298C677.232 256.02 677.301 257.977 677.293 263.403C677.293 263.948 677.25 262.54 677.251 264.309C677.253 265.737 677.299 266.455 677.308 271.182C677.312 273.064 677.322 302.287 677.323 306.738C677.324 312.549 677.295 324.436 677.287 332.196C677.288 332.521 677.112 332.822 676.863 332.985C676.216 333.415 675.616 333.814 675.074 334.175C672.808 335.682 670.408 337.324 668.001 338.926C662.459 342.614 654.601 347.841 646.927 352.945C646.768 353.052 646.576 353.109 646.385 353.109C642.641 353.108 638.949 353.108 635.513 353.107C624.573 353.105 605.369 353.022 599.378 353.097C584.017 353.107 580.286 353.043 579.129 353.042C575.998 353.04 574.548 353.082 570.601 353.084C519.472 353.109 452.144 353.081 403.721 353.084C291.391 353.092 178.449 353.115 65.7284 353.098C65.4264 353.117 65.1244 353.136 64.8225 353.155C78.145 353.167 93.802 353.199 106.954 353.207C124.513 353.217 150.56 353.139 163.44 353.267C158.217 353.278 149.707 353.229 149.859 353.295C159.197 353.3 168.534 353.305 177.872 353.309C177.593 353.279 177.315 353.248 177.036 353.218C186.785 353.209 196.757 353.215 206.54 353.211C208.24 353.21 207.036 353.183 208.516 353.183C210.172 353.182 209.049 353.211 209.36 353.211C213.544 353.211 214.807 353.183 215.318 353.183C216.628 353.184 215.61 353.211 219.387 353.219C226.394 353.233 231.411 353.161 229.766 353.281C232.028 353.281 234.29 353.281 236.552 353.281C237.138 353.248 237.723 353.216 238.309 353.183C252.224 353.315 258.64 353.083 266.329 353.267C268.865 353.239 271.4 353.211 273.936 353.183C275.365 353.216 276.794 353.248 278.223 353.281C278.502 353.253 278.78 353.225 279.059 353.197C292.72 353.218 307.266 353.184 320.332 353.187C329.433 353.189 331.614 353.201 339.676 353.198C357.608 353.194 339.8 353.249 354.701 353.309C353.925 353.275 353.149 353.241 352.374 353.206C354.841 353.194 357.309 353.181 359.777 353.168C361.495 353.196 363.213 353.225 364.931 353.253C372.552 353.107 377.49 353.225 378.528 353.225C379.366 353.224 382.245 353.137 391.265 353.211C387.525 353.091 398.145 353.21 398.996 353.211C399.805 353.211 410.145 353.185 414.342 353.186C417.643 353.187 424.685 353.212 429.601 353.211C433.942 353.21 433.502 353.169 433.818 353.169C439.161 353.165 435.813 353.197 439.675 353.199C443.538 353.2 446.534 353.166 447.368 353.169C447.787 353.17 446.385 353.208 448.305 353.212C453.461 353.222 462.785 353.189 468.687 353.19C470.78 353.19 473.417 353.222 475.747 353.223C479.319 353.224 480.989 353.182 483.065 353.183C483.787 353.184 488.395 353.25 494.123 353.239C495.212 353.237 498.414 353.098 502.666 353.296C502.994 353.268 503.322 353.24 503.65 353.212C522.86 353.143 528.205 353.369 536.747 353.169C550.695 353.191 541.12 353.269 542.651 353.281C543.64 353.289 548.187 353.267 548.687 353.268C549.572 353.271 549.42 353.296 550.39 353.296C568.17 353.291 560.276 353.244 565.907 353.214C579.297 353.142 589.745 353.301 566.454 353.253C566.454 353.267 566.454 353.281 566.454 353.295C572.189 353.282 586.747 353.288 581.885 353.359C578.057 353.415 543.52 353.379 563.08 353.457C567.521 353.475 569.821 353.422 577.512 353.521C582.598 353.526 583.331 353.399 590.218 353.45C589.086 353.405 587.953 353.361 586.821 353.316C596.213 353.258 607.799 353.336 615.013 353.311C617.464 353.303 626.294 353.09 624.236 353.303C627.355 353.293 639.229 353.313 646.385 353.315C646.624 353.315 646.855 353.241 647.041 353.116C648.606 352.075 649.827 351.261 650.459 350.836C651.178 350.351 652.056 349.632 662.528 342.711C663.261 342.239 663.995 341.768 664.729 341.297C655.194 347.691 672.096 336.494 667.572 339.633C665.987 340.63 658.392 345.649 657.158 346.441C655.053 347.792 661.226 343.619 653.33 348.891C648.446 352.356 662.647 342.807 660.564 344.398C670.897 337.426 671.976 336.799 674.328 335.238C675.293 334.597 676.223 333.979 677.126 333.38C677.522 333.12 677.763 332.657 677.76 332.196C677.765 322.764 677.754 315.781 677.771 305.996C677.736 303.223 677.686 323.827 677.701 326.379C677.614 319.824 677.586 325.718 677.601 332.196C677.605 332.61 677.388 333.022 677.04 333.251C675.112 334.544 673.22 335.819 671.815 336.776C671.317 337.063 670.82 337.349 670.322 337.635C672.565 336.149 674.792 334.674 677.008 333.203C677.341 332.986 677.552 332.594 677.549 332.196C677.555 326.575 677.552 320.991 677.533 315.352C677.547 314.779 677.561 314.206 677.575 313.634C677.596 315.607 677.617 317.58 677.638 319.553C677.672 312.238 677.563 316.625 677.659 306.879C677.617 306.577 677.575 306.275 677.532 305.973C677.546 296.627 677.56 287.282 677.574 277.937C677.49 273.071 677.521 255.089 677.631 258.382C677.639 251.124 677.58 260.084 677.554 253.282C677.542 250.322 677.539 244.536 677.568 243.107C677.673 243.722 677.685 252.381 677.757 255.001C677.78 253.411 677.706 213.144 677.828 216.734C677.842 213.519 677.779 214.997 677.763 209.198C677.719 192.949 677.843 167.78 677.687 154.696C677.6 170.06 677.692 174.605 677.696 186.379C677.698 193.899 677.713 239.753 677.603 229.511C677.617 231.195 677.631 232.879 677.645 234.563C677.612 236.266 677.579 237.968 677.546 239.671C677.542 234.873 677.537 230.075 677.532 225.278C677.565 224.132 677.598 222.987 677.63 221.842C677.607 221.313 677.584 220.785 677.56 220.256C677.556 218.236 677.551 216.216 677.546 214.196C677.574 214.764 677.602 215.331 677.631 215.899C677.635 212.785 677.64 209.672 677.645 206.559C677.607 207.397 677.57 208.235 677.532 209.073C677.523 194.411 677.547 199.377 677.617 191.244C677.624 185.173 677.552 195.429 677.533 182.584C677.512 167.646 677.627 177.446 677.602 158.101C677.584 157.822 677.565 157.544 677.546 157.265C677.565 153.012 677.584 148.758 677.602 144.505C677.579 145.067 677.556 145.629 677.532 146.192C677.541 137.412 677.497 125.314 677.588 122.404C677.544 131.303 677.704 131.216 677.733 128.902C677.793 124.124 677.737 53.5602 677.733 39.8818C677.729 26.2722 677.759 15.2486 677.736 3.50001C677.753 2.7593 677.084 2.08751 676.338 2.10747C673.746 2.11424 671.108 2.12384 668.391 2.13718C670.3 2.14853 673.055 2.15623 676.338 2.16148C677.023 2.14246 677.689 2.76165 677.673 3.50001C677.655 19.093 677.68 43.659 677.645 49.3078C677.64 50.0224 677.494 49.8212 677.659 54.4151C677.631 69.2167 677.677 86.9101 677.673 105.403C677.63 104.838 677.588 104.273 677.546 103.708C677.636 92.3424 677.439 81.8219 677.603 83.3022C677.603 81.0401 677.603 78.778 677.603 76.5158C677.575 76.5158 677.546 76.5158 677.518 76.5158C677.518 73.1057 677.518 69.6956 677.518 66.2855C677.546 66.2855 677.575 66.2855 677.603 66.2855C677.603 63.4611 677.603 60.6366 677.603 57.8122C677.575 57.5181 677.547 57.224 677.518 56.9298C677.577 48.4721 677.421 19.639 677.589 32.3144C677.589 28.342 677.589 24.3696 677.589 20.3972C677.568 20.4103 677.547 20.4233 677.527 20.4363C677.524 18.7286 677.521 17.021 677.518 15.3133C677.537 15.8756 677.556 16.4378 677.574 17.0001C677.554 12.2034 677.583 7.55952 677.594 3.50001C677.61 2.80703 676.983 2.22186 676.338 2.24092C674.693 2.24066 673.172 2.24633 671.812 2.2634C673.321 2.26967 674.829 2.27593 676.338 2.2822C676.987 2.26959 677.566 2.85712 677.546 3.50001C677.542 4.59515 677.537 5.69024 677.532 6.78538C677.536 5.7975 677.539 4.68325 677.539 3.50001C677.559 2.88192 676.996 2.2831 676.338 2.29883C670.177 2.30313 663.237 2.33434 662.433 2.33444C659.166 2.33472 657.444 2.2931 653.905 2.29099C650.71 2.28918 651.15 2.32117 650.555 2.32004C633.322 2.28748 639.889 2.11433 631.843 2.31931C630.987 2.29131 630.13 2.26332 629.274 2.23532C628.134 2.25868 626.993 2.28204 625.853 2.30539C620.764 2.30319 615.675 2.301 610.586 2.2988C612.283 2.33379 613.98 2.36878 615.678 2.40378C608.049 2.41939 604.491 2.34923 603.753 2.34763C601.662 2.34354 600.705 2.38758 600.059 2.38766C568.973 2.38386 587.854 2.34508 572.32 2.17966C566.781 2.24458 572.385 2.30966 573.171 2.3757C565.806 2.34472 563.507 2.36301 555.732 2.35934C553.71 2.35835 551.534 2.32272 550.258 2.32224C549.152 2.32181 545.696 2.35968 543.042 2.35983C538.619 2.36011 532.73 2.33754 526.673 2.3381C521.637 2.33867 506.22 2.36541 495.467 2.36569C490.878 2.36569 491.943 2.33402 490.758 2.33395C490.265 2.33395 486.688 2.37189 483.745 2.37204C459.738 2.37288 435.134 2.34888 411.008 2.34958C394.011 2.35 376.739 2.38051 359.708 2.37741C356.084 2.37671 358.002 2.34886 356.42 2.34787C355.876 2.34762 355.222 2.39622 349.618 2.37668C347.593 2.36963 349.922 2.33564 347.931 2.33395C346.962 2.33315 346.55 2.37575 340.887 2.38547C330.594 2.40321 325.062 2.34642 324.144 2.34811C322.411 2.35138 322.917 2.38664 320.622 2.38791C309.394 2.39411 300.02 2.40008 290.001 2.40304C285.322 2.40445 253.061 2.41158 251.289 2.40524C247.326 2.39115 251.015 2.31753 245.932 2.32004C244.508 2.33867 243.084 2.35731 241.66 2.37594C243.922 2.3901 246.185 2.40426 248.447 2.41842C242.219 2.39475 235.158 2.42824 230.547 2.42697C229.696 2.42668 221.856 2.39329 217.857 2.39694C219.557 2.38311 221.257 2.36927 222.957 2.35544C222.355 2.34364 221.754 2.33184 221.153 2.32004C213.157 2.33793 204.698 2.33747 196.498 2.33493C193.541 2.33407 194.541 2.3054 191.547 2.30441C174.11 2.29837 178.514 2.41757 161.739 2.19382C167.403 2.21411 188.067 2.18564 191.071 2.19309C193.164 2.1983 201.28 2.38736 198.302 2.19333C215.045 2.19418 200.502 2.30119 216.139 2.2778C215.827 2.25412 215.514 2.23044 215.202 2.20676C220.661 2.19183 224.693 2.17987 228.009 2.22165C229.122 2.10677 247.669 2.17398 257.841 2.16623C272.542 2.15524 289.15 2.12722 303.714 2.12229C308.732 2.12062 311.574 2.16564 312.203 2.1655C313.123 2.16518 315.708 2.12575 317.545 2.12546C324.402 2.12434 345.264 2.191 350.454 2.08152C309.652 2.08152 268.85 2.08152 228.048 2.08152C233.179 2.13533 191.906 2.14059 189.813 2.13792C187.876 2.13551 189.507 2.09773 188.931 2.09544C184.643 2.07923 180.983 2.13401 179.622 2.13401C178.584 2.134 176.488 2.1083 172.797 2.10886C172.12 2.10894 171.931 2.13612 171.204 2.13621C166.388 2.13621 161.635 2.13582 156.803 2.13596C156.509 2.1357 155.29 2.09599 154.07 2.09592C152.846 2.09592 151.637 2.13559 151.329 2.13572C147.466 2.13544 140.845 2.10963 137.17 2.10935C135.895 2.10936 136.779 2.13844 135.35 2.13816C130.961 2.13745 132.406 2.08054 126.979 2.09519C125.159 2.10013 125.277 2.14365 121.793 2.13792C119.326 2.13383 119.592 2.05626 119.201 2.05345C118.66 2.05004 110.147 2.11129 107.361 2.06052C113.447 1.9265 100.704 2.05353 101.317 2.11008C97.9432 2.09584 94.5696 2.0816 91.1959 2.06736C90.0453 2.08168 88.8947 2.09601 87.7441 2.11033C74.1324 2.04579 65.828 2.08454 52.4377 2.06468C51.7911 2.06369 40.5083 2.03185 41.0359 2.0117C47.7892 1.97704 54.5274 1.97546 58.8492 2.03953C65.9613 1.91737 66.0835 2.01472 77.5684 1.99852C81.4138 1.99302 81.6868 1.95988 82.1291 1.95945C97.0836 1.94297 121.035 1.92871 131.11 2.02561C133.934 1.99941 123.781 1.98901 127.728 1.96971C129.882 1.95914 181.697 1.92819 165.143 2.03977C166.861 2.03668 168.58 2.03359 170.298 2.0305C172.016 1.9251 180.561 1.9492 179.591 2.05418C180.4 2.03269 181.21 2.01121 182.02 1.98973C183.619 1.97155 185.511 1.96181 188.166 1.95604C198.329 1.93406 258.796 1.97062 262.012 1.95555C262.085 1.93065 262.158 1.90574 262.23 1.88084C235.517 1.85266 209.602 1.91454 180.473 1.84325C181.319 1.8666 182.165 1.88996 183.011 1.91331C171.388 1.8806 159.765 1.84789 148.142 1.81517C160.444 1.7729 180.015 1.7374 192.929 1.7722C195.225 1.77841 193.542 1.81098 194.07 1.81493C195.448 1.82517 196.929 1.76866 201.879 1.76317C206.831 1.75768 219.271 1.79774 220.411 1.79662C222.608 1.79429 228.54 1.72964 232.281 1.73046C237.198 1.73158 233.903 1.7716 234.89 1.77245C238.972 1.77638 242.633 1.75655 245.831 1.75951C250.578 1.76391 260.443 1.83428 263.761 1.73095C260.369 1.72623 256.977 1.72151 253.585 1.71679C271.978 1.67973 286.359 1.81182 304.479 1.70995C308.597 1.58483 293.624 1.60174 306.283 1.54833C303.985 1.55012 301.686 1.55191 299.388 1.5537C298.849 1.57991 298.31 1.60611 297.771 1.63232C293.812 1.6136 289.852 1.59488 285.893 1.57616C287.023 1.59952 288.153 1.62288 289.282 1.64623C275.245 1.66384 261.07 1.68779 256.17 1.56225C255.881 1.5926 255.592 1.62296 255.303 1.65331C242.271 1.6164 222.707 1.74506 226.362 1.57616C225.745 1.58512 225.128 1.59407 224.511 1.60302C216.633 1.5685 219.998 1.63834 217.037 1.64623C216.192 1.64845 200.88 1.61239 207.666 1.56225C192.728 1.52393 197.334 1.68178 193.218 1.68871C183.656 1.61051 166.456 1.72781 173.687 1.60424C172.263 1.5996 170.839 1.59496 169.415 1.59032C164.736 1.68755 160.124 1.57754 155.054 1.54077C153.336 1.53857 151.618 1.53637 149.899 1.53417C148.749 1.56689 147.598 1.5996 146.448 1.63232C130.284 1.47662 135.402 1.90243 128.017 1.54467C129.168 1.52327 130.319 1.50187 131.469 1.48046C134.197 1.47029 136.925 1.46012 139.653 1.44995C128.65 1.44051 117.646 1.43107 106.643 1.42163C92.6762 1.32135 84.7283 1.43015 69.2124 1.35083C67.7597 1.36035 66.3072 1.36987 64.8547 1.37939C66.3348 1.29837 71.9706 1.31028 61.4732 1.27393C60.5786 1.21665 67.6677 1.20923 70.8992 1.25318C71.678 1.2639 65.0494 1.30778 72.5001 1.30933C77.5654 1.31043 68.3678 1.24159 83.5426 1.26709C82.9803 1.2531 82.4182 1.2391 81.8558 1.2251C83.501 1.22551 85.1461 1.22592 86.7914 1.22632C88.2543 1.25871 89.7173 1.2911 91.1802 1.32349C94.9404 1.27671 97.0512 1.21115 105.643 1.2251C103.313 1.24539 106.475 1.31043 110.727 1.30933C110.727 1.28589 110.727 1.26245 110.727 1.23902C121.021 1.22394 117.468 1.2927 126.026 1.23902C126.882 1.25765 127.739 1.27629 128.595 1.29492C133.257 1.21813 150.422 1.16589 147.291 1.28101C152.106 1.16913 162.219 1.21961 165.979 1.30908C166.268 1.28581 166.557 1.26254 166.846 1.23926C168.848 1.23454 170.849 1.22982 172.851 1.2251C173.968 1.23918 175.085 1.25326 176.202 1.26734C177.62 1.25326 179.039 1.23918 180.458 1.2251C181.314 1.24846 182.171 1.27181 183.027 1.29517C185.307 1.26717 187.588 1.23918 189.868 1.21119C191.263 1.22982 192.659 1.24846 194.054 1.26709C194.198 1.21838 208.022 1.20753 211.883 1.23951C213.033 1.22535 214.184 1.21119 215.335 1.19703C215.897 1.22022 216.459 1.24341 217.022 1.2666C217.878 1.24805 218.734 1.2295 219.591 1.21094C221.564 1.2295 223.537 1.24805 225.51 1.2666C233.558 1.1529 233.817 1.25266 235.655 1.25196C239.061 1.25065 250.662 1.17945 252.601 1.18311C254.538 1.1868 255.474 1.22761 257.037 1.23145C282.813 1.29556 272.218 1.18604 277.388 1.16871C280.179 1.15927 282.153 1.19734 284.62 1.19312C288.84 1.18607 310.127 1.1357 311.352 1.14063C313.135 1.14775 308.936 1.32728 314.733 1.28101C314.926 1.18461 327.321 1.28191 321.527 1.14747C326.632 1.15927 331.737 1.17107 336.842 1.18287C336.263 1.06859 342.558 1.14209 349.415 1.13575C359.131 1.12686 381.007 1.05173 380.207 1.16895C382.535 1.14201 384.862 1.11508 387.189 1.08814C403.114 1.12504 418.732 1.08638 434.538 1.08497C481.447 1.0806 532.34 1.10605 579.028 1.12916C581.272 1.1303 580.95 1.16859 582.566 1.16944C591.056 1.17367 613.124 1.14658 625.018 1.15504C628.828 1.15771 630.682 1.19507 631.89 1.19678C635.991 1.20284 635.023 1.15363 636.911 1.15504C639.891 1.1573 655.647 1.20298 661.074 1.20777C663.761 1.21014 666.94 1.17103 670.086 1.18311C670.357 1.18409 669.857 1.2244 670.086 1.2251C675.82 1.23003 672.371 1.19519 674.311 1.19703C674.984 1.19766 675.66 1.19827 676.338 1.19885C677.56 1.17031 678.666 2.26934 678.637 3.50001C678.628 16.0531 678.626 29.3079 678.619 42.74C678.617 46.4662 678.588 52.1691 678.586 55.3679C678.585 56.588 678.615 54.3995 678.613 58.6166C678.612 60.0611 678.572 60.5549 678.57 62.1855C678.559 69.2116 678.686 71.5631 678.584 77.6014C678.59 89.2564 678.623 109.544 678.624 120.178C678.624 122.694 678.601 123.919 678.601 126.317C678.601 128.018 678.638 131.012 678.638 133.665C678.639 136.32 678.604 140.509 678.605 145.614C678.606 150.988 678.627 157.67 678.627 158.882C678.627 160.345 678.583 161.027 678.584 162.49C678.585 166.914 678.628 178.758 678.633 184.458C678.638 190.582 678.616 194.259 678.617 196.352C678.617 198.29 678.654 200.55 678.655 201.436C678.655 202.813 678.612 203.138 678.612 204.887C678.613 207.745 678.64 210.691 678.641 214.977C678.648 254.403 678.645 293.435 678.636 332.196C678.641 332.952 678.243 333.695 677.611 334.11C667.605 340.765 657.619 347.406 647.652 354.034C647.28 354.283 646.833 354.418 646.385 354.417C622.178 354.41 598.062 354.401 574.006 354.391C565.635 354.387 560.905 354.417 548.57 354.403C543.569 354.398 545.676 354.353 541.784 354.362C540.048 354.366 540.487 354.401 538.293 354.402C528.595 354.41 517.295 354.377 513.092 354.378C511.425 354.378 509.52 354.418 506.103 354.418C480.632 354.423 450.498 354.411 423.088 354.418C408.575 354.422 386.602 354.442 369.945 354.445C323.921 354.452 274.41 354.443 232.436 354.447C169.056 354.453 105.981 354.49 42.7374 354.446C72.3255 354.542 112.616 354.534 145.556 354.545C240.702 354.575 342.009 354.519 439.519 354.521C473.446 354.522 516.222 354.519 553.365 354.542C555.05 354.543 558.541 354.512 562.182 354.515C562.956 354.516 572.547 354.572 575.778 354.572C572.716 354.473 585.375 354.562 589.289 354.559C594.224 354.556 604.517 354.507 616.067 354.535C626.548 354.56 623.657 354.598 624.236 354.6C627.943 354.616 629.237 354.554 632.077 354.548C634.716 354.543 639.842 354.54 646.385 354.54C646.852 354.54 647.324 354.4 647.72 354.136C656.125 348.542 667.146 341.213 677.678 334.21C678.345 333.773 678.763 332.99 678.757 332.196C678.763 317.407 678.769 303.629 678.77 296.89C678.771 292.586 678.81 292.464 678.81 291.494C678.81 288.926 678.772 285.269 678.772 281.154C678.772 273.736 678.809 265.191 678.81 261.107C678.81 251.341 678.766 232.809 678.766 220.116C678.765 216.546 678.806 216.765 678.806 215.149C678.805 208.035 678.757 189.508 678.757 180.678C678.756 166.335 678.782 151.581 678.769 137C678.787 136.076 678.805 135.152 678.823 134.228C678.804 132.77 678.785 131.312 678.766 129.854C678.781 105.201 678.74 80.1041 678.743 55.5866C678.743 52.7617 678.778 38.7778 678.778 36.4456C678.778 34.5059 678.733 32.5971 678.739 29.7217C678.749 25.6938 678.834 29.4841 678.81 22.9041C678.803 21.1347 678.766 22.8502 678.755 19.2961C678.753 18.603 678.747 10.3753 678.743 3.50001C678.769 2.1715 677.566 1.05997 676.338 1.0968C672.632 1.09884 669.722 1.09999 669.305 1.09913C667.264 1.09486 665.443 1.01635 664.916 1.01466C662.178 1.0058 662.294 1.06605 660.457 1.07154C655.036 1.08799 647.953 1.04746 647.072 1.04835C636.42 1.05948 616.509 1.10757 605.33 1.07911C603.784 1.07514 603.969 1.03028 603.698 1.02882C601.946 1.01952 600.858 1.0706 599.192 1.07179C590.225 1.07756 576.183 1.04317 567.165 1.03443C566.127 1.03348 563.935 1.05805 562.081 1.05567C551.6 1.04186 555 1.00243 554.405 1.00074C552.992 0.996559 550.509 1.04005 546.752 1.04273C537.07 1.04992 518.505 1.04367 508.126 1.04029C500.351 1.03761 500.468 0.987814 499.957 0.986828C498.867 0.985038 495.838 1.0248 490.719 1.02931C480.869 1.03818 481.991 0.999056 477.943 1.00074C477.602 1.00074 478.194 1.03903 473.702 1.04298C465.023 1.05057 445.53 1.01293 436.24 1.0149C432.667 1.01561 431.831 1.05253 428.173 1.05323C422.373 1.05449 409.283 1.01456 408.251 1.01466C407.962 1.01466 407.313 1.05714 405.612 1.05714C403.74 1.05713 401.899 1.03527 400.504 1.03541C392.559 1.036 378.872 1.11013 382.675 0.958508C380.129 0.995942 377.583 1.03338 375.038 1.07081C358.397 1.06334 342.232 1.07834 325.745 1.08595C322.036 1.08763 318.941 1.05892 315.811 1.06031C312.682 1.06172 298.876 1.10922 296.568 1.11011C292.451 1.11166 269.053 1.11667 266.143 1.11329C260.46 1.10681 254.947 1.04415 252.633 1.05641C250.778 1.06627 252.493 1.10158 248.954 1.11158C242.829 1.12888 232.419 1.08353 230.547 1.08424C229.749 1.08452 231.244 1.11204 223.761 1.11402C219.729 1.11515 217.563 1.08483 216.1 1.08497C215.645 1.08513 216.327 1.1343 208.345 1.12769C202.832 1.12304 200.482 1.08511 199.903 1.08497C199.035 1.08472 196.939 1.12519 193.453 1.12379C185.302 1.12025 170.401 1.07385 162.66 1.07032C161.163 1.06962 161.672 1.11852 155.702 1.11402C151.432 1.11078 152.178 1.07188 150.579 1.07032C148.044 1.06793 144.267 1.11556 138.669 1.11402C131.626 1.11205 79.3219 1.06264 76.6157 1.04981C74.7951 1.04122 72.6833 1.04068 71.7816 1.01954C72.5547 0.999278 73.328 0.979015 74.101 0.958752C82.111 1.02986 78.8784 0.948592 81.0046 0.943372C84.0844 0.935904 95.6902 0.946271 98.4977 0.928236C99.4979 0.921722 97.208 0.878469 102.582 0.856216C108.348 0.832427 110.914 0.909428 113.211 0.804216C121.395 0.921026 129.256 0.797047 119.778 0.763934C114.488 0.745471 62.5908 0.703766 51.9925 0.697286C43.3996 0.69208 27.3059 0.723381 16.7408 0.715352C13.5429 0.712885 7.93658 0.710248 3.33809 0.700635C1.75623 0.670614 0.489311 2.10366 0.532826 3.5C0.523417 6.64848 0.509237 8.85404 0.487265 8.60007C0.48022 14.1128 0.53591 8.27866 0.54366 9.43568C0.548273 10.1255 0.548445 12.0172 0.546368 14.4449C0.541161 20.5323 0.521817 29.9896 0.522909 32.3173C0.530236 48.3793 0.59277 68.6476 0.522176 84.2501C0.507203 83.5238 0.492229 82.7975 0.477256 82.0713C0.449779 78.5661 0.48906 62.3001 0.417199 60.4625C0.417199 84.2501 0.417199 108.038 0.417199 131.825C0.478352 131.383 0.47753 160.887 0.449913 162.282C0.420291 161.764 0.39067 161.246 0.361048 160.728C0.473465 144.056 0.324868 145.551 0.403772 134.355C0.404884 129.798 0.355943 131.173 0.346645 128.928C0.254237 106.575 0.447076 128.569 0.403283 111.458C0.332294 116.609 0.306351 102.595 0.29733 96.3157C0.295357 94.8864 0.313349 76.1159 0.312222 73.887C0.305881 61.3644 0.26699 39.8587 0.305874 27.4208C0.308324 22.2584 0.295451 18.3184 0.281008 14.4449C0.268211 11.0126 0.254182 7.63236 0.248489 3.5C0.248415 3.3835 0.254838 3.26675 0.268043 3.1497C0.484159 1.32304 2.1151 0.367892 3.33809 0.408791C7.49667 0.409788 6.3754 0.436903 9.15 0.437284C15.8196 0.43827 18.0148 0.330075 22.2854 0.480984C26.807 0.462186 31.3288 0.443387 35.8504 0.424589C35.8504 0.448026 35.8504 0.471462 35.8504 0.494899C38.6904 0.494899 41.5305 0.494899 44.3705 0.494899C45.2061 0.471544 46.0418 0.448189 46.8773 0.424833C55.8908 0.45682 52.1279 0.513256 53.8121 0.579613C55.7593 0.584171 57.7064 0.588728 59.6536 0.593285C61.1608 0.542343 62.668 0.4914 64.1752 0.440458C72.8697 0.444608 81.5642 0.448758 90.2588 0.452908C90.8212 0.476264 91.3832 0.499619 91.9456 0.522975C91.9638 0.499619 91.982 0.476264 92.0003 0.452908C106.724 0.448107 121.447 0.443306 136.17 0.438505C140.087 0.401037 116.496 0.372645 114.71 0.370391C104.773 0.357996 78.3835 0.395559 78.3494 0.312288C72.1724 0.374419 53.5759 0.358992 47.791 0.284456C56.5715 0.288932 65.3519 0.293408 74.1323 0.297884C73.8485 0.269971 73.5648 0.242059 73.281 0.214146C84.2211 0.326724 85.8221 0.320528 97.0686 0.214146C97.0789 0.25158 97.0894 0.289014 97.0998 0.326447C104.942 0.196281 118.803 0.417084 119.201 0.256381C123.376 0.269402 127.551 0.282422 131.727 0.295443C140.743 0.275853 126.742 0.15226 162.043 0.200719C164.476 0.2041 163.969 0.245037 167.627 0.242221C168.682 0.241376 174.723 0.181824 186.276 0.188024C188.079 0.189014 188.215 0.224529 190.087 0.229038C194.408 0.239745 203.015 0.169505 199.107 0.283968C216.221 0.317351 209.128 0.223409 214.437 0.186071C217.975 0.161291 217.262 0.229015 220.325 0.213658C224.114 0.194613 221.333 0.126339 236.506 0.157751C234.804 0.16239 233.101 0.167029 231.399 0.171667C232.255 0.190221 233.112 0.208775 233.968 0.227329C242.628 0.18281 241.809 0.247859 245.893 0.143592C252.188 0.19009 257.635 0.193792 266.244 0.185338C282.969 0.168853 274.395 0.0564846 293.484 0.207799C296.576 0.186559 299.669 0.16532 302.761 0.14408C307.845 0.188743 303.733 0.244623 311.32 0.255893C305.382 0.145565 321.391 0.185793 324.097 0.0874411C324.38 0.110878 324.664 0.134315 324.948 0.157751C326.643 0.157751 328.337 0.157751 330.032 0.157751C330.037 0.138953 330.042 0.120155 330.047 0.101357C332.304 0.115435 334.561 0.129513 336.818 0.143592C338.516 0.124956 340.213 0.106321 341.91 0.0876852C344.701 0.126991 347.491 0.166296 350.282 0.205602C352.034 0.208287 353.786 0.210972 355.537 0.213658C354.983 0.185664 354.429 0.15767 353.874 0.129676C356.126 0.139035 358.378 0.148393 360.629 0.157751C358.009 0.111817 359.656 0.0579568 366.666 0.0593657C372.451 0.0604959 365.935 0.156368 378.372 0.116493C379.24 0.11365 380.776 0.0452743 392.531 0.0347084C406.629 0.0220392 399.78 0.0715655 402.293 0.0732814C402.786 0.0735632 407.093 0.0391524 411.125 0.0342201C413.414 0.0314124 415.618 0.0591941 415.92 0.0591216C417.332 0.0578538 417.744 0.0185505 419.7 0.0171307C424.667 0.0137498 431.335 0.0330077 436.201 0.0310464C438.413 0.030201 440.494 0.00691485 441.48 0.00663304C443.012 0.00636387 444.954 0.0419291 446.502 0.0417882C452.218 0.0410441 460.895 -0.0769575 463.55 0.0869528C469.045 -0.0637696 480.558 0.118458 479.715 0.0173749C494.401 0.0555242 533.57 -0.0684848 532.421 0.101357C540.739 -0.0438671 539.995 0.0613029 543.479 0.0591216C547.376 0.0567263 545.357 0.0285575 548.454 0.0298257C555.684 0.0327865 562.593 0.0448866 569.789 0.0454502C568.66 0.0687243 567.53 0.0919982 566.4 0.115272C573.954 0.12274 571.353 0.0685771 579.059 0.0581452C593.232 0.0391235 587.26 0.0823386 589.352 0.143348C588.79 0.0844495 605.503 0.0936069 607.204 0.101357C608.219 0.10608 603.772 0.181993 614.006 0.157507C613.447 0.134152 612.887 0.110796 612.327 0.0874411C616.99 0.119385 629.655 0.0788518 631.804 0.0867087C632.791 0.0903721 638.069 0.278724 642.901 0.129676C643.484 0.153032 644.068 0.176387 644.651 0.199742C650.016 0.171667 655.381 0.143592 660.746 0.115516C661.602 0.157589 662.459 0.199661 663.315 0.241733C665.018 0.241733 666.72 0.241733 668.423 0.241733C667.293 0.204381 666.163 0.167029 665.033 0.129676C668.702 0.135576 672.655 0.132242 676.338 0.130757C678.175 0.0920954 679.754 1.74644 679.708 3.50001C679.708 9.33571 679.697 14.1142 679.624 15.3601C679.648 17.6119 679.671 19.8636 679.694 22.1153C679.653 23.5809 679.611 25.0465 679.569 26.512C679.579 36.9387 679.607 37.111 679.652 44.2394C679.619 43.9609 679.587 43.6824 679.554 43.4038C679.6 48.6616 679.643 58.2598 679.648 65.8482C679.651 69.4555 679.606 75.6496 679.61 76.5002C679.614 77.3602 679.791 85.8202 679.638 86.7384C679.706 99.1932 679.637 104.676 679.638 109.729C679.639 113.012 679.676 114.51 679.68 118.218C679.686 123.527 679.668 128.869 679.67 131.932C679.672 133.684 679.708 134.011 679.709 135.219C679.714 140.931 679.678 137.585 679.68 143.607C679.68 144.162 679.724 148.564 679.719 153.525C679.716 156.298 679.666 163.474 679.666 164.106C679.667 166.914 679.766 164.67 679.652 174.267C679.671 173.988 679.689 173.709 679.708 173.431C679.756 185.307 679.672 187.182 679.666 189.581C679.666 189.887 679.698 192.779 679.694 194.509C679.686 197.431 679.642 198.61 679.64 199.257C679.633 201.537 679.653 209.216 679.61 214.235C679.736 213.18 679.78 230.768 679.638 234.665C679.666 237.778 679.694 240.891 679.722 244.005C679.699 245.413 679.675 246.821 679.652 248.23C679.675 249.086 679.699 249.943 679.722 250.799C679.671 255.336 679.619 259.874 679.568 264.411C679.619 264.7 679.671 264.989 679.722 265.278C679.716 266.548 679.711 267.818 679.705 269.089C679.664 270.081 679.623 271.072 679.582 272.064C679.59 273.652 679.598 275.24 679.605 276.828C679.635 277.221 679.665 277.614 679.694 278.007C679.728 286.544 679.446 282.157 679.694 298.421C679.671 300.951 679.648 303.481 679.624 306.012C679.738 308.87 679.669 314.225 679.682 318.546C679.691 321.591 679.736 321.425 679.737 325.574C679.738 329.726 679.695 329.578 679.694 329.901C679.694 330.71 679.696 331.472 679.698 332.196C679.706 333.343 679.096 334.412 678.204 335C676.811 335.938 675.572 336.777 674.344 337.589C674.032 337.795 673.223 338.271 670.588 340.021C667.951 341.772 666.393 342.874 662.464 345.477C660.45 346.81 659.845 347.161 658.06 348.345C654.741 350.544 651.434 352.78 648.247 354.928C647.699 355.296 647.042 355.495 646.385 355.496C640.703 355.527 635.378 355.538 630.936 355.387C629.21 355.42 616.692 355.535 611.335 355.529C603.003 355.518 606.213 355.467 602.901 355.458C602.424 355.456 599.887 355.474 592.897 355.471C591.646 355.47 591.936 355.499 591.756 355.499C583.607 355.499 567.782 355.476 558.832 355.472C558.032 355.471 553.845 355.551 546.751 355.444C536.236 355.523 516.432 355.352 502.565 355.472C500.643 355.475 498.309 355.446 497.457 355.447C490.124 355.456 492.811 355.543 476.239 355.416C477.581 355.46 473.704 355.5 468.227 355.497C459.992 355.492 465.841 355.409 459.222 355.416C459.222 355.439 459.222 355.462 459.222 355.486C443.996 355.423 440.967 355.523 425.689 355.523C420.193 355.523 412.075 355.472 410.765 355.472C410.258 355.472 404.248 355.528 403.674 355.528C400.441 355.53 398.616 355.504 395.825 355.504C386.604 355.503 375.6 355.577 377.59 355.444C375.055 355.472 372.519 355.5 369.984 355.528C360.405 355.386 353.241 355.582 351.234 355.444C349.521 355.472 347.808 355.501 346.095 355.529C305.009 355.515 263.924 355.5 222.839 355.486C221.205 355.53 203.289 355.515 202.37 355.508C198.151 355.476 202.607 355.38 193.998 355.402C193.046 355.444 192.093 355.486 191.14 355.529C180.319 355.543 185.524 355.501 181.253 355.472C179.469 355.477 180.045 355.51 177.63 355.512C164.529 355.525 137.665 355.527 123.339 355.53C120.45 355.53 120.886 355.499 119.988 355.499C117.522 355.5 112.654 355.538 107.704 355.538C79.7613 355.538 41.181 355.52 11.2293 355.492C10.7145 355.492 10.2014 355.372 9.74207 355.145C7.39692 353.985 5.11239 352.855 2.90015 351.761C2.4789 351.553 2.14134 351.384 1.8568 351.24C0.421893 350.449 0.0464122 349.352 0.0169753 348.237C0.0210162 347.971 0.0239072 347.679 0.0243888 347.308C0.0267726 345.351 -0.00287974 340.979 0.000219584 338.92C0.00224602 337.526 0.0172156 336.493 0.02668 335.251C0.0227325 334.186 0.583876 333.01 1.71588 332.373C1.76874 332.343 1.82213 332.315 1.87659 332.288C4.1595 331.166 6.64908 329.938 9.24616 328.655C9.14543 328.704 9.07682 328.812 9.07732 328.926C9.0739 321.467 9.07013 313.371 9.12588 306.476C9.13281 305.622 9.2805 294.98 9.29019 294.739C9.34768 293.327 9.43799 302.784 9.52211 287.25C9.59552 301.134 9.7253 296.796 9.78871 278.761C9.80506 287.807 9.82142 296.853 9.83778 305.899C9.85316 305.912 9.86854 305.925 9.88392 305.938C9.96014 297.703 9.98551 289.533 9.99256 277.011C10.0068 277.402 10.021 277.792 10.0353 278.183C10.1064 289.242 10.1196 302.584 10.2167 311.006C10.2878 298.786 10.3589 286.565 10.4299 274.345C10.4307 274.253 10.4193 274.16 10.396 274.071C10.4224 274.16 10.437 274.252 10.4394 274.345C10.4483 274.831 10.4571 275.316 10.4659 275.801C10.4951 281.722 10.5122 294.656 10.5394 299.573C10.6431 318.353 10.617 283.136 10.6803 288.921C10.6787 302.256 10.6772 315.591 10.6757 328.926C10.6803 329.409 10.3879 329.879 9.95281 330.088C7.49649 331.299 5.04017 332.511 2.58385 333.722C2.01143 333.997 1.62687 334.616 1.63292 335.251C1.63261 337.893 1.63231 340.535 1.63201 343.177C1.64154 343.319 1.65451 340.237 1.67033 335.251C1.66509 334.656 2.02114 334.039 2.60261 333.76C4.77778 332.695 7.2735 331.473 9.98168 330.147C10.4326 329.932 10.7485 329.442 10.7454 328.926C10.8018 308.717 10.8793 279.369 10.9628 274.345C10.9565 273.78 10.7489 273.543 10.798 273.584C10.9237 273.817 10.9905 274.081 10.9905 274.345C10.9995 280.331 11.0086 286.317 11.0177 292.302C11.0534 289.525 11.0891 286.747 11.1248 283.97C11.1362 284.735 11.1475 285.5 11.1588 286.266C11.1865 296.78 11.2143 307.294 11.242 317.808C11.2238 296.957 11.2261 283.387 11.308 274.345C11.3241 273.471 10.6953 272.688 9.91306 272.472C7.19143 271.664 4.94932 270.982 3.08464 270.395C2.66972 270.26 2.44455 269.849 2.47426 269.506C2.47407 269.881 2.74896 270.231 3.10588 270.321C3.31814 270.379 3.5304 270.438 3.74266 270.497C5.00179 270.89 7.16182 271.531 9.94939 272.344C10.7795 272.569 11.4633 273.402 11.4494 274.345C11.3863 287.138 11.4262 309.556 11.4532 322.915C11.5048 319.375 11.4649 304.078 11.4959 300.846C11.5048 299.93 11.5406 303.124 11.5589 301.002C11.6065 295.455 11.6678 271.819 11.7261 275.254C11.7636 277.466 11.8151 315.497 11.8111 322.915C11.8731 306.911 11.8945 290.46 11.9614 274.345C11.9801 273.222 11.1748 272.15 10.0889 271.854C9.37255 271.647 8.65697 271.439 7.94225 271.232C8.6653 271.43 9.38277 271.626 10.0982 271.822C11.2029 272.112 12.0331 273.195 12.0244 274.345C12.1274 283.834 12.2344 293.491 12.2398 311.022C12.2957 316.738 12.3717 280.058 12.4082 274.345C12.4015 273.516 12.1178 273.053 12.0691 272.937C12.2969 273.368 12.4184 273.859 12.4188 274.345C12.4527 281.466 12.4866 288.587 12.5206 295.707C12.5112 289.48 12.5018 283.254 12.4925 277.027C12.5042 277.009 12.5159 276.991 12.5276 276.972C12.582 293.102 12.6819 307.859 12.6751 326.32C12.7371 325.725 12.7309 314.679 12.7315 309.319ZM0.163789 34.871C0.112383 35.2435 0.120811 28.4751 0.121798 24.6641C0.112439 25.2368 0.103081 25.8095 0.0937226 26.3822C0.0976733 23.0773 0.103276 18.6154 0.101842 14.4449C0.100219 9.72163 0.0895692 5.37204 0.0572728 3.5C0.0652422 2.29746 0.605551 1.66667 0.669915 1.53314C1.37466 0.573172 2.46121 0.174485 3.33809 0.184302C7.29939 0.188316 5.3434 0.260605 7.04141 0.269564C7.77306 0.27351 15.3458 0.223022 21.403 0.284456C22.8425 0.284212 24.282 0.283968 25.7216 0.283724C26.0002 0.25101 26.2786 0.218296 26.5572 0.185583C28.5642 0.225295 30.5713 0.265007 32.5783 0.30472C22.8315 0.307971 13.0848 0.311223 3.33809 0.314474C1.63948 0.275677 0.113983 1.80181 0.153334 3.5C0.154551 7.1483 0.155768 10.7966 0.156985 14.4449C0.159253 21.2432 0.161521 28.0415 0.163789 34.8398C0.163789 34.8502 0.163789 34.8606 0.163789 34.871ZM178.724 0.28348C186.364 0.301939 198.066 0.331084 195.702 0.241489C190.875 0.246209 186.049 0.250929 181.223 0.255649C180.39 0.264926 179.557 0.274203 178.724 0.28348ZM679.484 263.521C679.396 269.901 679.472 275.776 679.456 285.645C679.475 285.632 679.493 285.619 679.512 285.606C679.467 281.57 679.497 270.903 679.484 263.521ZM0.500937 224.437C0.49402 225.843 0.487102 227.249 0.480185 228.654C0.380002 222.937 0.450602 221.914 0.44088 215.449C0.440272 215.059 0.41734 215.194 0.417199 215.058C0.415652 213.476 0.443256 212.012 0.442833 210.583C0.441986 207.827 0.414015 205.58 0.415002 200.697C0.415857 196.921 0.459829 196.885 0.458702 195.558C0.457615 194.427 0.336647 183.222 0.38888 176.011C0.488358 162.297 0.510236 220.252 0.500937 224.437ZM0.418175 265.085C0.417769 263.729 0.417362 262.373 0.416955 261.017C0.484544 265.095 0.474272 256.864 0.472861 250.825C0.537678 251.013 0.509952 263.789 0.529256 269.506C0.492229 268.032 0.455202 266.559 0.418175 265.085ZM0.557087 93.5745C0.563693 98.8816 0.482794 97.9972 0.458702 97.776C0.458702 96.0866 0.458702 94.3972 0.458702 92.7077C0.491497 92.9967 0.524292 93.2856 0.557087 93.5745ZM0.585163 133.489C0.53021 131.838 0.506178 120.317 0.501669 114.855C0.50166 114.617 0.531818 116.117 0.529012 112.255C0.528132 111.095 0.418394 99.6859 0.542928 102.196C0.557006 112.622 0.571084 123.047 0.585163 133.473C0.585163 133.478 0.585163 133.483 0.585163 133.489ZM0.552693 145.125C0.535441 142.954 0.518189 140.783 0.500937 138.612C0.526733 137.49 0.55253 136.368 0.578327 135.246C0.584837 137.716 0.591347 140.186 0.597857 142.657C0.582803 143.479 0.567748 144.302 0.552693 145.125ZM199.34 354.841C199.845 354.869 200.35 354.897 200.855 354.924C202.812 354.941 212.324 354.821 209.313 354.798C205.988 354.812 202.664 354.827 199.34 354.841ZM159.168 354.784C157.19 354.77 155.211 354.756 153.233 354.742C150.958 354.789 148.683 354.835 146.408 354.882C156.291 354.914 166.807 354.95 165.111 354.812C167.373 354.812 169.636 354.812 171.898 354.812C169.993 354.869 170.249 354.888 176.169 354.924C177.464 354.845 183.586 354.885 190.593 354.868C185.496 354.863 180.4 354.858 175.303 354.854C175.303 354.84 175.303 354.826 175.303 354.812C186.663 354.817 172.543 354.728 165.143 354.784C164.559 354.765 163.976 354.747 163.393 354.728C161.985 354.746 160.577 354.765 159.168 354.784ZM679.021 36.5628C679.007 37.9711 678.992 39.3794 678.978 40.7877C679.162 46.2454 678.988 35.1338 679.133 27.2227C679.023 29.8362 679.027 17.7762 679.02 17.086C678.983 18.4734 678.946 19.861 678.909 21.2484C678.946 26.3532 678.983 31.458 679.021 36.5628ZM678.894 76.4846C678.986 71.6014 678.991 95.5901 678.971 103.638C678.966 105.595 678.916 109.083 678.922 110.495C678.941 111.351 678.959 112.208 678.978 113.064C678.914 114.078 678.986 129.794 679.02 135.985C678.997 136.568 678.974 137.151 678.95 137.734C678.96 139.991 678.969 142.248 678.978 144.505C678.955 144.221 678.932 143.937 678.908 143.654C678.936 145.361 678.964 147.069 678.992 148.777C679.023 155.48 678.897 151.347 678.936 156.383C678.98 161.981 679.056 152.808 679.105 152.978C679.092 148.435 679.064 138.104 679.062 133.493C679.062 130.846 679.15 133.847 679.049 122.435C679.072 119.934 679.096 117.432 679.119 114.93C679.082 110.338 679.044 105.747 679.007 101.155C679.039 100.298 679.072 99.4418 679.105 98.5853C679.11 98.0951 679.036 87.4753 679.011 88.0426C679.074 83.7409 679.085 74.9089 679.088 65.6061C679.07 64.7106 679.052 63.8151 679.035 62.9196C679.073 71.9174 679.016 65.7827 678.982 68.4643C678.962 70.0126 678.924 74.7491 678.894 76.4846ZM262.026 354.77C246.918 354.849 256.272 354.784 239.941 354.784C241.081 354.826 242.222 354.868 243.362 354.91C251.391 354.833 264.603 354.884 262.042 354.77C262.037 354.77 262.032 354.77 262.026 354.77ZM102.222 354.91C110.864 354.885 106.527 354.819 117.482 354.798C117.487 354.798 117.492 354.798 117.497 354.798C111.833 354.793 106.168 354.789 100.504 354.784C101.076 354.826 101.649 354.868 102.222 354.91ZM607.422 354.859C615.708 354.877 614.077 354.845 621.596 354.91C632.791 354.831 623.314 354.842 623.314 354.77C620.756 354.791 618.196 354.812 615.638 354.833C609.434 354.766 615.317 354.732 615.318 354.725C615.312 354.725 615.307 354.725 615.302 354.725C615.302 354.704 615.503 354.699 613.123 354.686C611.223 354.744 609.322 354.801 607.422 354.859ZM642.885 354.77C640.043 354.818 638.766 354.879 646.235 354.91C646.24 354.91 646.245 354.91 646.251 354.91C646.28 354.905 646.325 354.9 646.385 354.896C646.705 354.882 647.29 354.82 647.902 354.409C649.73 353.151 654.057 350.337 656.245 348.874C656.952 348.39 657.658 347.906 658.365 347.422C654.863 349.729 651.361 352.037 647.859 354.344C647.424 354.632 646.905 354.788 646.385 354.786C645.218 354.781 644.051 354.775 642.885 354.77ZM678.88 249.081C678.999 249.049 679.01 255.318 679.119 246.496C679.117 244.783 679.115 243.07 679.112 241.357C679.086 240.233 679.061 239.108 679.035 237.984C679.249 216.256 678.884 209.778 679.02 246.496C679.021 246.501 679.021 246.506 679.021 246.512C678.974 247.368 678.927 248.225 678.88 249.081ZM678.89 287.347C678.952 287.623 679.014 287.899 679.077 288.175C678.927 292.973 679.07 299.172 678.964 308.581C678.983 309.432 679.002 310.284 679.021 311.135C678.998 313.013 678.985 323.747 678.991 332.196C678.997 333.086 678.524 333.938 677.809 334.406C672.306 338.077 668.43 340.682 671.157 338.917C672.855 337.818 675.76 335.871 677.848 334.466C678.686 333.91 679.069 332.967 679.056 332.196C679.052 331.41 679.049 330.864 679.049 330.713C679.054 328.638 679.107 325.931 679.104 322.427C679.102 320.402 679.039 316.134 679.039 312.002C679.04 302.763 679.208 285.899 679.049 273.751C679.067 272.876 679.086 272.002 679.105 271.127C679.094 262.112 679.034 265.122 679.105 256.734C678.81 250.94 679.119 290.452 678.88 282.224C678.88 282.229 678.88 282.235 678.88 282.24C678.884 283.942 678.887 285.645 678.89 287.347ZM481.362 354.77C480.818 354.717 470.362 354.799 472.819 354.672C469.406 354.716 465.993 354.76 462.581 354.804C462.607 354.816 462.633 354.828 462.659 354.84C466.05 354.83 469.442 354.821 472.834 354.812C472.847 354.831 472.86 354.849 472.873 354.868C477.928 354.8 499.021 354.83 498.379 354.896C499.506 354.868 500.633 354.84 501.76 354.812C511.85 354.888 520.531 354.807 531.522 354.882C532.373 354.858 533.225 354.835 534.076 354.812C534.63 354.831 535.185 354.85 535.739 354.868C539.743 354.871 543.747 354.873 547.75 354.875C560.797 354.8 535.447 354.702 532.373 354.714C531.965 354.715 532.028 354.763 529.476 354.771C524.943 354.784 499.57 354.736 491.725 354.768C491.658 354.736 491.59 354.704 491.522 354.672C488.136 354.704 484.749 354.737 481.362 354.77ZM679.007 200.6C679.039 200.027 679.072 199.455 679.105 198.882C679.072 188.998 679.101 182.775 678.993 185.309C678.993 185.314 678.993 185.32 678.993 185.325C678.997 190.416 679.002 195.508 679.007 200.6ZM141.293 0.803484C141.553 0.868513 146.277 0.892825 152.383 0.846207C152.089 0.827327 151.794 0.808448 151.5 0.789568C148.319 0.844944 144.348 0.748426 134.53 0.761249C134.53 0.793962 134.53 0.826676 134.53 0.85939C136.785 0.840755 139.039 0.822119 141.293 0.803484ZM678.993 209.128C678.954 212.14 679.071 220.595 679.077 215.032C679.081 210.778 679.013 207.512 678.993 209.128ZM68.2274 354.847C70.4609 354.854 72.6944 354.86 74.9279 354.867C76.0915 354.839 77.2551 354.812 78.4187 354.784C78.4135 354.784 78.4083 354.784 78.4031 354.784C75.0112 354.805 71.6193 354.826 68.2274 354.847ZM579.097 354.864C586.672 354.86 594.248 354.856 601.823 354.852C601.898 354.834 601.974 354.816 602.049 354.798C594.461 354.864 591.409 354.793 589.64 354.788C589.648 354.788 589.656 354.788 589.663 354.788C583.982 354.774 578.569 354.763 573.193 354.742C575.161 354.783 577.129 354.823 579.097 354.864ZM553.131 354.75C554.407 354.878 556.073 354.893 567.711 354.803C567.25 354.787 566.79 354.771 566.329 354.755C560.299 354.765 556.781 354.795 557.84 354.728C556.27 354.735 554.701 354.742 553.131 354.75ZM668.248 340.777C667.063 341.517 657.858 347.691 658.371 347.375C658.574 347.25 670.559 339.335 668.248 340.777ZM57.1468 0.831803C59.7005 0.841161 62.2541 0.85052 64.8078 0.859878C61.4106 0.873794 58.0136 0.887709 54.6165 0.901625C55.4599 0.878351 56.3034 0.855077 57.1468 0.831803ZM29.1108 1.01417C27.2905 0.997827 33.2093 0.882544 22.3245 0.852798C30.2459 0.850357 38.1672 0.847916 46.0886 0.845474C42.3739 0.86411 38.6592 0.882746 34.9445 0.901381C35.5927 0.934502 36.2408 0.967622 36.8891 1.00074C34.2964 1.00522 31.7037 1.00969 29.1108 1.01417ZM20.6064 0.9297C24.0714 1.00087 9.90183 1.01858 3.33809 1.01697C1.6102 1.02906 0.789601 2.62068 0.853139 3.5C0.852602 3.80069 0.851972 4.0266 0.851268 4.16431C0.848722 4.63044 0.782295 6.84636 0.768018 7.66294C0.767985 6.27529 0.767952 4.88765 0.767918 3.5C0.735996 2.12982 1.96791 0.897904 3.33809 0.929788C4.55686 0.929759 5.77589 0.92973 6.99452 0.9297C5.85965 0.908786 4.72461 0.887872 3.58961 0.866958C7.55945 0.859797 11.5293 0.852636 15.499 0.845474C13.8018 0.86647 12.1045 0.887465 10.4072 0.908461C13.807 0.915541 17.2067 0.922621 20.6064 0.9297ZM110.727 0.908461C107.887 0.906264 105.047 0.904066 102.207 0.901869C102.775 0.934583 103.342 0.967297 103.91 1.00001C105.61 1.00001 107.309 1.00001 109.009 1.00001C109.582 0.969494 110.154 0.938977 110.727 0.908461ZM52.8594 0.950696C56.9941 0.793185 68.2618 1.13753 55.0928 1.01002C53.7658 0.997057 52.468 0.965914 52.8594 0.950696ZM0.832469 12.5829C0.841379 13.268 0.848071 13.888 0.852871 14.4449C0.900484 19.9693 0.761894 19.2887 0.754456 14.4449C0.752979 13.4832 0.756672 12.3574 0.768018 11.0835C0.771969 10.6643 0.823989 11.9201 0.832469 12.5829ZM0.836131 78.7913C0.835279 79.5066 0.753186 80.7569 0.831249 87.5847C0.82189 88.7119 0.812532 89.839 0.803173 90.9662C0.76503 88.3284 0.742339 65.7636 0.823681 68.8811C0.824949 72.3351 0.838668 75.2182 0.836131 78.7913ZM1.13983 56.9405C1.13755 53.5538 1.13528 50.1671 1.133 46.7804C1.10728 47.8972 1.08157 49.0139 1.05585 50.1307C1.04885 48.4646 1.04185 46.7986 1.03486 45.1326C1.07921 42.2848 1.12356 39.4369 1.16791 36.5891C1.17499 43.9508 1.18207 51.3125 1.18915 58.6742C1.17271 58.0963 1.15627 57.5184 1.13983 56.9405ZM37.5841 1.36523C31.0676 1.33297 23.0833 1.36731 12.5002 1.36182C12.495 1.36173 12.4898 1.36165 12.4846 1.36157C11.9567 1.3612 11.021 1.32587 9.32173 1.32446C8.93013 1.32416 6.55335 1.32678 3.33809 1.32957C2.24955 1.29557 1.14652 2.28143 1.16958 3.5C1.17224 6.95803 1.17447 10.9619 1.17371 14.4449C1.17255 19.7582 1.16444 23.8594 1.14032 22.9616C1.12352 19.4995 1.11997 16.7163 1.11895 14.4449C1.11669 9.46068 1.12657 6.94036 1.0351 5.11706C1.06318 4.57821 1.09125 4.03936 1.11933 3.50051C1.11933 3.50034 1.11933 3.50017 1.11933 3.5C1.10441 2.23887 2.23678 1.25423 3.33809 1.29007C12.1073 1.31506 15.116 1.22989 20.622 1.19703C20.5986 1.21818 20.5752 1.23934 20.5517 1.2605C24.5398 1.26262 28.5278 1.26473 32.5158 1.26685C31.9535 1.25293 31.3913 1.23902 30.8289 1.2251C32.2398 1.2251 33.6508 1.2251 35.0617 1.2251C38.4983 1.2878 42.8559 1.30241 37.5841 1.36523ZM1.10492 72.3016C1.26541 75.4322 1.15548 105.941 1.18915 119.877C1.09251 112.56 1.15911 101.226 1.1601 93.2465C1.16192 77.8207 1.10278 88.4837 1.07685 85.8666C1.06402 84.5736 1.16692 75.8237 1.10492 72.3016ZM61.3873 1.33716C53.6965 1.3242 49.3912 1.36115 42.7383 1.30225C43.2954 1.29053 43.8526 1.27881 44.4096 1.26709C46.688 1.27782 65.2644 1.31167 61.3873 1.33716ZM1.14716 140.298C1.20479 125.444 1.05948 132.771 1.1684 125.047C1.17531 130.131 1.18223 135.214 1.18915 140.298C1.17515 140.298 1.16115 140.298 1.14716 140.298ZM678.389 226.129C678.385 232.389 678.356 239.379 678.416 243.122C678.426 238.869 678.435 234.615 678.445 230.362C678.426 228.951 678.407 227.54 678.389 226.129ZM677.797 47.6209C677.783 49.0502 677.826 54.7021 677.826 55.2976C677.826 56.4042 677.805 56.1019 677.799 56.1176C677.803 63.3602 677.868 56.6784 677.883 62.0372C677.885 62.9534 677.853 75.542 677.855 80.6627C677.859 88.5405 677.855 96.4071 677.856 99.3506C677.858 104.319 677.907 113.543 677.91 121.709C677.911 125.076 677.871 126.251 677.872 129.636C677.879 151.364 677.933 194.138 677.908 213.415C677.902 218.178 677.85 222.72 677.854 225.239C677.873 227.225 677.892 229.211 677.911 231.197C677.742 237.306 677.892 239.349 677.908 245.934C677.918 250.117 677.868 252.073 677.868 252.634C677.869 256.36 677.893 258.198 677.897 261.123C677.901 264.407 677.878 269.125 677.883 270.299C677.885 271.02 677.952 268.718 677.951 281.459C677.949 294.443 677.942 307.262 677.939 320.467C678.14 316.062 678.003 312.27 677.995 306.879C677.993 305.432 678.025 306.349 678.024 305.09C678.02 301.534 677.989 294.726 677.996 291.783C678.005 288.605 678.079 289.691 678.051 285.66C678.05 285.456 678.019 286.101 678.014 285.153C677.964 275.624 678.017 272.506 678.018 260.459C678.019 252.478 677.989 204.005 678.009 202.341C678.116 193.664 678.117 244.741 678.108 250.713C678.105 252.804 678.072 250.612 678.065 252.517C678.063 253.325 678.127 260.586 678.132 267.761C678.139 276.438 678.095 293.877 678.096 302.146C678.098 312.181 678.099 322.196 678.099 332.196C678.103 332.776 677.798 333.345 677.314 333.663C667.315 340.316 657.332 346.958 647.359 353.593C647.072 353.784 646.729 353.888 646.385 353.887C598.471 353.88 550.729 353.862 502.565 353.861C501.051 353.861 499.056 353.9 494.123 353.9C402.039 353.899 306.6 353.869 213.342 353.887C193.011 353.891 172.846 353.927 152.327 353.898C149.781 353.926 147.235 353.955 144.69 353.983C151.202 353.96 163.134 354.024 164.221 354.025C164.612 354.025 167.081 353.994 171.062 353.995C176.66 353.997 179.115 354.025 179.574 354.025C180.998 354.025 180.065 353.996 181.425 353.996C191.566 353.997 199.412 353.989 208.719 353.989C219.233 353.988 224.562 354.043 232.218 353.983C233.085 354.006 233.951 354.03 234.818 354.053C240.539 353.952 274.601 353.963 288.399 353.969C292.752 353.97 291.988 354.011 293.452 354.011C294.386 354.011 294.017 353.958 305.408 353.968C311.142 353.974 312.646 354.013 315.521 354.011C317.083 354.011 316.83 353.972 319.074 353.972C332.056 353.972 342.656 353.984 355.365 353.992C358.938 353.994 358.977 354.026 359.777 354.026C362.721 354.024 367.842 353.969 375.326 353.969C387.644 353.97 412.195 353.97 422.268 353.996C423.748 354 424.975 354.039 426.064 354.039C427.712 354.038 428.359 353.997 428.648 353.997C434.161 353.996 430.845 354.034 434.537 354.025C436.527 354.02 438.603 353.974 443.229 353.968C449.337 353.961 448.135 354.016 450.687 354.011C450.956 354.01 451.037 353.972 453.545 353.971C463.056 353.966 476.853 353.957 485.853 353.957C488.438 353.957 490.361 353.983 493.967 353.984C501.232 353.984 542.528 353.968 545.915 353.983C546.272 353.984 542.6 354.041 548.453 354.039C550.153 354.016 551.853 353.992 553.553 353.969C556.395 354.006 559.238 354.044 562.081 354.081C561.978 353.952 578.702 353.932 578.535 354.064C580.365 354.069 582.195 354.075 584.025 354.08C587.836 353.989 590.373 354.022 597.738 353.969C598.886 353.997 600.034 354.025 601.182 354.053C601.471 354.034 601.76 354.015 602.049 353.997C605.98 354.098 612.426 353.996 613.209 353.996C616.219 353.993 618.482 354.019 619.894 354.018C625.168 354.016 636.584 353.98 642.744 353.997C643.033 353.998 642.749 354.041 644.501 354.046C645.263 354.049 645.859 354.047 646.385 354.043C646.783 354.041 647.145 353.917 647.441 353.717C648.444 353.039 649.368 352.416 651.555 351.017C652.253 350.529 652.951 350.042 653.649 349.555C654.407 349.063 655.164 348.57 655.921 348.078C660.357 345.12 664.793 342.163 669.228 339.205C665.232 341.952 669.9 338.895 674.259 335.925C675.734 334.92 674.391 335.76 674.883 335.425C675.021 335.331 675.96 334.705 677.379 333.761C677.854 333.452 678.221 332.864 678.218 332.196C678.222 324.985 678.24 311.52 678.262 310.346C678.248 309.214 678.234 308.081 678.22 306.949C678.248 306.376 678.276 305.803 678.304 305.231C678.294 304.606 678.284 303.981 678.275 303.357C678.324 297.13 678.21 280.968 678.219 278.038C678.224 276.473 678.344 277.881 678.332 270.377C678.299 270.117 678.266 269.857 678.233 269.596C678.228 267.878 678.224 266.16 678.219 264.442C678.222 261.218 678.279 256.525 678.318 256.375C678.295 255.368 678.271 254.36 678.248 253.353C678.324 250.648 678.297 236.22 678.249 230.416C678.272 228.719 678.295 227.022 678.318 225.325C678.29 223.044 678.262 220.764 678.234 218.484C678.225 213.201 678.272 218.782 678.276 217.656C678.284 215.274 678.205 203.135 678.303 203.935C678.303 202.279 678.304 200.623 678.304 198.968C678.276 198.117 678.248 197.265 678.22 196.414C678.316 193.572 678.282 188.655 678.318 178.57C678.295 177.724 678.273 176.878 678.251 176.031C678.282 172.913 678.314 169.794 678.346 166.676C678.309 166.035 678.272 165.395 678.235 164.755C678.23 163.398 678.225 162.042 678.219 160.686C678.302 157.931 678.213 152.983 678.247 150.463C678.296 146.788 678.355 149.63 678.367 156.453C678.427 155.943 678.399 135.618 678.395 130.932C678.383 131.242 678.372 131.552 678.36 131.861C678.369 136.654 678.378 141.446 678.388 146.238C678.237 150.254 678.277 137.24 678.258 131.268C678.256 130.722 678.199 127.627 678.204 121.608C678.206 119.277 678.29 110.184 678.294 108.449C678.333 94.433 678.213 104.739 678.318 91.0258C678.238 93.8843 678.304 86.0055 678.289 77.8044C678.286 76.4084 678.221 64.5702 678.219 63.7709C678.209 58.7857 678.28 64.2127 678.261 57.0001C678.243 56.1332 678.224 55.2664 678.206 54.3995C678.206 52.7204 678.206 51.0415 678.206 49.3624C678.372 39.1736 678.249 36.8035 678.234 33.1813C678.227 31.718 678.271 33.6019 678.261 29.8076C678.258 28.3789 678.222 26.7946 678.219 22.9509C678.214 14.1672 678.294 9.6205 678.276 3.50001C678.301 2.51072 677.412 1.54907 676.338 1.57404C674.718 1.58534 672.959 1.60401 670.976 1.6328C669.279 1.60953 667.582 1.58626 665.884 1.56298C664.739 1.59089 663.594 1.61881 662.448 1.64672C653.688 1.56572 656.851 1.64868 653.686 1.6477C645.332 1.64516 628.233 1.62928 626.736 1.56249C619.523 1.71591 610.899 1.54284 608.056 1.54882C606.366 1.56746 604.677 1.58609 602.987 1.60473C601.001 1.58601 599.015 1.56729 597.029 1.54858C597.994 1.69923 587.708 1.55108 586.72 1.54882C585.58 1.54657 569.759 1.59115 563.87 1.59032C557.989 1.58948 547.74 1.54866 546.837 1.54858C545.799 1.54858 535.789 1.58953 527.962 1.5891C521.113 1.58866 480.54 1.53049 483.097 1.59765C485.751 1.61625 489.529 1.63237 492.796 1.6411C502.938 1.66788 562.458 1.70217 577.669 1.71288C608.175 1.73415 639.991 1.73021 670.633 1.74486C672.435 1.74571 672.71 1.78475 674.256 1.78563C674.791 1.78589 675.514 1.78406 676.338 1.78109C677.177 1.74497 678.084 2.51933 678.067 3.50001C678.077 5.84856 678.09 8.3605 678.09 9.68268C678.086 18.3259 678.08 28.8425 678.079 33.4702C678.077 43.8135 678.053 50.908 678.049 58.7337C678.048 61.1837 678.097 73.5703 678.076 82.0605C678.065 83.599 678.054 85.1375 678.043 86.6759C678.031 82.3031 677.997 70.8302 677.994 65.5045C677.988 57.5786 678.02 53.4444 678.019 50.5182C678.019 48.0684 677.983 35.5481 677.982 29.8467C677.982 28.077 678.023 27.714 678.022 26.1997C678.022 19.226 678.021 10.3761 677.996 3.50001C678.01 2.5766 677.174 1.82279 676.338 1.85208C675.958 1.85392 675.586 1.85586 675.225 1.85789C678.134 1.84479 659.965 1.81967 659.012 1.81981C657.379 1.81982 655.607 1.85814 652.273 1.85814C645.861 1.85812 646.674 1.77797 638.661 1.85814C636.677 1.83478 634.694 1.81143 632.71 1.78807C632.588 1.89484 607.523 1.74961 600.395 1.87938C600.207 1.89403 632.778 1.93561 635.467 1.93773C647.066 1.94694 662.668 1.93599 676.338 1.93608C677.18 1.91665 677.923 2.67591 677.902 3.50001C677.901 7.9652 677.899 12.1788 677.895 15.9224C677.889 20.6334 677.824 35.4453 677.826 36.5628C677.827 38.365 677.865 36.737 677.866 37.5155C677.894 53.4528 677.819 45.5017 677.797 47.6209ZM20.622 1.43554C25.4638 1.43994 30.3058 1.44433 35.1476 1.44873C34.7961 1.47216 34.4448 1.4956 34.0933 1.51904C31.8754 1.50992 29.6574 1.50081 27.4397 1.49169C25.7345 1.50569 24.0296 1.51969 22.3245 1.53369C21.757 1.50097 21.1895 1.46826 20.622 1.43554ZM8.68921 1.53369C4.52192 1.5454 4.28871 1.49681 3.33809 1.49371C3.32843 1.49369 3.31873 1.49373 3.30898 1.49386C2.21081 1.48825 1.30345 2.47424 1.33091 3.5C1.3339 5.47062 1.34419 7.33832 1.34368 9.36539C1.29141 7.92599 1.27308 5.76241 1.27692 3.5C1.24925 2.40371 2.25226 1.41429 3.33809 1.45029C5.36901 1.46628 7.30475 1.49694 8.68921 1.53369ZM95.413 1.57592C94.4663 1.5703 88.146 1.44392 80.9577 1.56152C75.5796 1.52416 70.2015 1.48681 64.8234 1.44946C73.9602 1.50653 86.6038 1.44721 91.0788 1.44946C92.7781 1.45032 93.1024 1.48911 94.4602 1.48974C102.287 1.49284 109.896 1.40494 110.696 1.53344C103.295 1.4961 96.621 1.58283 95.413 1.57592ZM48.1815 1.53027C46.9294 1.50341 45.6773 1.47656 44.4252 1.4497C48.9495 1.4497 53.4737 1.4497 57.998 1.4497C56.7743 1.47688 55.5511 1.50406 54.3275 1.53124C52.2788 1.53092 50.2303 1.53059 48.1815 1.53027ZM396.24 1.61913C393.45 1.61881 390.659 1.61848 387.869 1.61816C388.022 1.63773 391.214 1.63765 392.39 1.65087C392.385 1.65087 392.38 1.65087 392.375 1.65087C393.685 1.66581 393.124 1.69101 395.506 1.70214C395.751 1.67447 395.996 1.6468 396.24 1.61913ZM141.308 353.899C136.63 353.897 93.4347 353.897 97.1145 353.969C98.9691 354.004 113.743 353.973 118.098 353.974C123.97 353.974 139.828 354.052 141.308 353.899ZM64.8069 353.885C64.0585 353.956 91.0545 353.967 93.694 353.955C93.1335 353.945 92.2698 353.922 91.5229 353.917C87.8819 353.893 70.6266 353.904 64.8069 353.885ZM552.515 1.82445C550.339 1.78848 548.162 1.75251 545.986 1.71654C546.559 1.76333 547.132 1.81013 547.704 1.85692C549.308 1.84609 550.911 1.83527 552.515 1.82445ZM678.065 88.4252C678.063 124.679 678.061 160.933 678.058 197.187C678.039 193.998 678.019 190.81 678 187.621C678.007 156.382 678.027 123.067 677.997 92.9C678.019 91.4084 678.042 89.9168 678.065 88.4252ZM105.628 1.78661C114.917 1.78731 122.675 1.75294 132.781 1.8076C123.151 1.86058 118.383 1.77861 109.025 1.85667C109.02 1.85667 109.014 1.85667 109.009 1.85667C107.882 1.83332 106.755 1.80996 105.628 1.78661ZM313.015 1.80077C310.191 1.83348 307.366 1.8662 304.542 1.89891C307.939 1.89891 311.336 1.89891 314.733 1.89891C314.16 1.8662 313.588 1.83348 313.015 1.80077ZM612.256 353.674C602.54 353.746 577.685 353.617 569.788 353.703C569.278 353.708 573.972 353.744 566.384 353.815C572.116 353.8 576.163 353.786 576.591 353.73C578.293 353.749 579.995 353.768 581.698 353.786C584.522 353.772 587.347 353.758 590.171 353.744C589.865 353.799 590.088 353.796 594.427 353.758C596.406 353.772 598.384 353.786 600.362 353.8C601.201 353.777 602.039 353.754 602.877 353.73C604.59 353.763 606.303 353.795 608.016 353.828C614.692 353.793 610.626 353.73 612.256 353.674ZM646.266 353.688C644.687 353.676 599.64 353.715 620.112 353.825C625.433 353.821 630.754 353.818 636.075 353.814C632.207 353.655 642.905 353.761 646.385 353.791C646.832 353.794 647.148 353.624 647.309 353.519C647.341 353.498 647.367 353.481 647.388 353.467C652.142 350.325 658.164 346.266 661.607 343.977C664.568 342.009 666.345 340.866 668.426 339.48C671.044 337.736 674.222 335.621 677.265 333.59C677.729 333.285 678.015 332.741 678.01 332.196C678.001 326.533 677.983 321.543 677.939 320.467C677.938 324.337 677.938 328.244 677.938 332.196C677.941 332.722 677.665 333.239 677.224 333.528C675.288 334.817 673.338 336.115 671.373 337.423C665.311 341.459 659.942 344.947 648.607 352.607C648.012 353 647.586 353.279 647.28 353.475C646.673 353.822 646.43 353.702 646.385 353.712C646.326 353.7 646.436 353.689 646.266 353.688ZM296.037 1.89134C296.377 1.81591 279.185 1.83395 279.075 1.86375C279.041 1.88123 284.64 1.88081 285.44 1.88743C285.445 1.88743 285.45 1.88743 285.456 1.88743C285.789 1.89033 284.097 1.9192 286.729 1.92723C289.832 1.91527 292.934 1.9033 296.037 1.89134ZM208.493 353.73C206.169 353.688 153.079 353.703 151.515 353.723C151.09 353.729 151.683 353.747 151.515 353.758C163.901 353.698 181.508 353.769 193.264 353.774C196.541 353.775 195.562 353.745 195.748 353.745C195.755 353.745 195.763 353.745 195.771 353.745C197.631 353.744 206.026 353.818 208.493 353.73ZM552.787 353.737C555.044 353.749 557.301 353.761 559.558 353.772C560.131 353.749 560.703 353.726 561.276 353.702C561.271 353.702 561.266 353.702 561.261 353.702C558.436 353.714 555.612 353.725 552.787 353.737ZM474.591 353.66C475.141 353.676 475.69 353.693 476.239 353.709C481.922 353.712 487.604 353.714 493.287 353.716C492.715 353.725 492.142 353.735 491.569 353.744C500.162 353.769 503.72 353.711 508.297 353.719C508.292 353.719 508.286 353.719 508.281 353.719C508.774 353.72 509.37 353.755 511.202 353.756C515.403 353.758 527.443 353.771 528.898 353.737C531.977 353.663 507.747 353.698 503.229 353.695C501.187 353.693 498.731 353.663 497.489 353.663C496.128 353.662 494.274 353.702 490.96 353.701C489.99 353.701 479.238 353.653 474.591 353.66ZM374.287 353.709C376.039 353.746 379.698 353.71 381.042 353.716C381.363 353.718 378.866 353.749 381.893 353.758C382.75 353.737 383.606 353.716 384.463 353.695C381.071 353.7 377.679 353.704 374.287 353.709ZM267.15 1.92698C267.645 1.93494 276.875 1.93203 277.318 1.92698C282.848 1.85935 263.73 1.86668 267.15 1.92698ZM34.2182 2.00437C36.8308 2.06486 18.7628 2.05154 3.33809 2.03355C2.54748 2.0142 1.84957 2.72776 1.86881 3.5C1.86386 7.58379 1.85883 11.3862 1.85509 14.4449C1.8509 17.8711 1.84832 20.3642 1.84928 21.2748C1.81106 21.1239 1.82026 16.4782 1.81275 14.4449C1.80879 13.3738 1.8002 13.0276 1.77758 14.4449C1.77375 14.6854 1.7695 14.9768 1.76481 15.324C1.76693 15.052 1.7689 14.7583 1.77074 14.4449C1.78637 11.7732 1.79205 7.67556 1.79413 3.5C1.77403 2.67663 2.51946 1.93579 3.33809 1.9569C8.64904 1.95813 13.6734 1.95545 15.6006 1.96214C17.9654 1.97032 18.5622 2.02368 18.9196 2.02537C20.3219 2.03138 32.7214 1.96972 34.2182 2.00437ZM1.80729 62.8991C1.81901 58.1119 1.83073 53.3247 1.84245 48.5375C1.84945 54.1864 1.85645 59.8352 1.86344 65.484C1.84473 64.6224 1.82601 63.7607 1.80729 62.8991ZM1.83537 68.9202C1.89525 68.767 1.84963 85.0165 1.86344 89.2872C1.76158 84.4723 1.85762 76.4403 1.83537 68.9202ZM205.924 2.08152C213.411 2.12111 216.628 1.93858 207.525 2.01805C207.248 2.02067 205.612 2.07942 205.924 2.08152ZM609.945 353.418C608.668 353.417 592.792 353.357 591.874 353.387C588.968 353.48 599.386 353.443 602.877 353.478C608.509 353.535 600.226 353.582 613.974 353.548C613.412 353.566 612.85 353.585 612.287 353.604C620.333 353.61 617.7 353.48 619.144 353.464C619.586 353.459 624.616 353.47 625.524 353.461C636.863 353.357 611.128 353.418 609.945 353.418ZM391.25 2.09544C406.155 2.15039 399.742 2.06976 415.038 2.07468C415.548 2.03354 393.19 2.05936 391.25 2.09544ZM677.7 261.842C677.717 277.256 677.663 289.933 677.735 304.309C677.846 303.374 677.729 257.843 677.7 261.842ZM30.8124 353.379C90.788 353.577 159.968 353.512 223.823 353.509C230.782 353.508 231.449 353.553 233.967 353.548C235.617 353.545 235.328 353.509 237.52 353.509C316.758 353.503 392.629 353.457 468.531 353.478C473.312 353.479 496.572 353.556 501.542 353.441C505.3 353.353 488.591 353.421 485.806 353.421C483.713 353.42 483.624 353.379 482.229 353.379C480.749 353.379 481.972 353.407 480.253 353.407C472.971 353.409 465.026 353.398 458.441 353.401C393.871 353.423 331.052 353.417 266.821 353.413C259.047 353.413 260.645 353.38 260.254 353.38C260.248 353.38 260.243 353.38 260.238 353.38C218.552 353.377 170.944 353.45 126.79 353.422C95.6984 353.4 64.6064 353.377 33.5144 353.354C32.6138 353.363 31.7131 353.371 30.8124 353.379ZM642.861 353.534C638.982 353.41 638.115 353.535 624.197 353.484C623.064 353.505 621.932 353.526 620.8 353.548C628.161 353.543 635.523 353.538 642.885 353.534C642.877 353.534 642.869 353.534 642.861 353.534ZM550.937 353.488C548.584 353.321 517.461 353.439 503.447 353.407C500.879 353.491 521.251 353.454 526.056 353.463C528.455 353.467 541.303 353.553 551.069 353.506C551.025 353.5 550.981 353.494 550.937 353.488ZM86.9242 2.25046C89.1889 2.24558 91.4536 2.2407 93.7183 2.23581C88.0512 2.21726 82.3843 2.1987 76.7172 2.18015C85.7579 2.19211 94.7987 2.20408 103.839 2.21604C102.155 2.25079 100.471 2.28553 98.7867 2.32028C94.8324 2.29701 90.8784 2.27373 86.9242 2.25046ZM116.256 2.23264C100.425 2.24572 116.952 2.1527 120.903 2.19407C123.268 2.21886 117.873 2.23123 116.256 2.23264ZM157.436 2.29245C150.052 2.35346 135.13 2.35766 140.434 2.23581C148.414 2.29288 153.558 2.24546 165.128 2.27829C163.438 2.30165 161.749 2.325 160.06 2.34836C160.052 2.34836 160.044 2.34836 160.036 2.34836C159.169 2.32972 158.302 2.31109 157.436 2.29245ZM109.025 2.30637C98.6553 2.23637 128.676 2.2603 119.24 2.30637C118.797 2.30848 109.433 2.30904 109.025 2.30637ZM97.1145 353.253C95.8653 353.293 103.841 353.292 106.494 353.295C117.995 353.306 132.745 353.289 144.705 353.295C143.805 353.281 142.904 353.268 142.003 353.255C127.04 353.254 112.077 353.254 97.1145 353.253ZM182.12 353.295C190.338 353.295 198.556 353.295 206.775 353.295C207.54 353.295 211.133 353.261 208.461 353.252C199.681 353.267 190.901 353.281 182.12 353.295ZM677.504 322.177C677.481 328.479 677.367 310.334 677.49 311.15C677.494 314.826 677.499 318.502 677.504 322.177ZM677.455 263.544C677.466 267.496 677.478 271.447 677.49 275.399C677.476 275.404 677.462 275.409 677.448 275.414C677.45 271.458 677.452 267.501 677.455 263.544ZM64.8069 353.225C68.9925 353.273 78.9779 353.266 85.2051 353.267C80.9161 353.225 70.693 353.245 64.8069 353.225ZM600.331 353.246C600.842 353.278 575.777 353.27 584.455 353.212C589.747 353.223 595.039 353.234 600.331 353.246ZM549.421 353.197C554.798 353.19 558.962 353.201 557.856 353.253C555.005 353.25 552.155 353.248 549.304 353.246C549.343 353.23 549.383 353.213 549.421 353.197ZM185.542 2.39059C194.601 2.38595 203.66 2.38132 212.719 2.37668C212.383 2.39076 212.047 2.40483 211.711 2.41891C202.977 2.42347 194.244 2.42803 185.51 2.43258C185.521 2.41859 185.531 2.40459 185.542 2.39059ZM59.6839 353.098C53.4624 353.108 47.2408 353.117 41.0193 353.126C47.246 353.135 53.4728 353.145 59.6995 353.154C59.6995 353.135 59.6995 353.117 59.6995 353.098C59.6943 353.098 59.6891 353.098 59.6839 353.098ZM61.4419 2.57296C89.1165 2.63862 53.8048 2.70802 46.5024 2.61153C46.4948 2.61161 46.4869 2.6117 46.4791 2.61178C45.8398 2.60325 47.1916 2.56201 46.1277 2.54537C48.9441 2.56401 51.7608 2.58264 54.5775 2.60128C57.1467 2.57809 59.716 2.55489 62.2853 2.5317C63.1314 2.54082 63.9774 2.54993 64.8234 2.55904C63.6962 2.56368 62.5692 2.56832 61.4419 2.57296ZM2.44765 54.7304C2.44004 79.824 2.33692 54.1481 2.41836 41.7277C2.4372 41.817 2.44836 52.4187 2.44765 54.7304ZM15.5147 2.58736C19.4689 2.57801 23.4229 2.56865 27.3772 2.55929C27.8822 2.57109 28.3871 2.58289 28.8922 2.59469C25.8568 2.60641 22.8218 2.61813 19.7864 2.62984C18.3625 2.61568 16.9385 2.60152 15.5147 2.58736ZM145.557 2.76949C151.921 2.78245 160.038 2.65124 139.607 2.68575C139.617 2.69983 139.627 2.71391 139.638 2.72798C140.452 2.72574 142.842 2.71253 142.972 2.71358C143.347 2.7171 142.905 2.76411 145.557 2.76949ZM2.81849 101.197C2.82385 101.911 2.97235 102.3 2.81874 109.732C2.82809 111.979 2.83745 114.225 2.84681 116.472C2.8141 117.052 2.78138 117.633 2.74867 118.213C2.77403 109.519 2.70784 108.597 2.70644 107.967C2.70024 105.077 2.73429 107.216 2.73475 105.351C2.73588 100.537 2.71302 89.5961 2.81019 94.5585C2.845 96.3451 2.81314 100.482 2.81849 101.197ZM2.90296 84.1954C2.89057 85.2499 2.84713 81.8528 2.83485 82.6491C2.82414 83.3466 2.77982 93.8258 2.70644 90.9896C2.70953 89.2689 2.71262 87.5483 2.71571 85.8276C2.73581 85.2445 2.75591 84.6614 2.77601 84.0783C2.75746 82.4123 2.7389 80.7462 2.72035 79.0802C2.76995 76.2727 2.8342 70.2983 2.87464 77.3934C2.87041 74.785 2.86618 72.1767 2.86195 69.5683C2.83819 68.2173 2.81442 66.8663 2.79066 65.5152C2.82687 66.2233 2.86309 66.9314 2.8993 67.6394C2.90052 73.1581 2.90174 78.6767 2.90296 84.1954ZM2.88905 165.054C2.87033 164.737 2.85161 164.419 2.8329 164.102C2.86769 173.681 2.88092 188.599 2.76356 180.127C2.7538 167.15 2.74403 154.173 2.73427 141.196C2.74834 140.335 2.76242 139.473 2.7765 138.612C2.72226 148.293 2.95307 145.301 2.88685 153.723C2.87562 155.143 2.79491 151.022 2.84657 159.947C2.86537 159.629 2.88416 159.312 2.90296 158.994C2.89832 161.014 2.89369 163.034 2.88905 165.054ZM2.86097 247.405C2.88803 231.003 2.95633 249.07 2.89954 252.098C2.89954 252.093 2.89954 252.088 2.89954 252.083C2.74416 260.383 2.81923 242.535 2.81825 241.446C2.81687 239.999 2.70563 236.628 2.86781 228.756C2.86553 234.972 2.86325 241.188 2.86097 247.405ZM2.8888 193.856C2.89247 195.234 2.86422 194.471 2.86463 195.066C2.86463 195.071 2.86463 195.076 2.86463 195.082C2.87069 203.861 2.89599 224.744 2.80482 227.007C2.79721 220.508 2.77751 191.428 2.83949 189.67C2.85593 191.065 2.87236 192.46 2.8888 193.856ZM2.82093 132.075C2.87996 126.685 2.88782 138.819 2.86048 142.001C2.85456 142.601 2.75979 137.659 2.82093 132.075ZM285.862 3.1352C297.721 3.09969 282.139 3.06425 287.533 3.00874C285.268 3.01346 283.003 3.01818 280.739 3.0229C282.446 3.06033 284.154 3.09777 285.862 3.1352ZM676.591 151.346C676.584 154.11 676.618 152.801 676.619 153.041C676.618 154.856 676.59 156.568 676.593 157.265C676.649 170.149 676.677 161.581 676.684 161.451C676.717 161.179 676.757 164.566 676.795 159.874C676.783 157.026 676.771 154.178 676.759 151.33C676.778 149.917 676.797 148.503 676.815 147.09C676.775 141.432 676.764 148.836 676.711 149.675C676.69 149.998 676.665 144.676 676.591 151.346ZM307.111 3.2475C309.034 3.1886 313.746 3.1143 309.118 3.05512C309.113 3.05512 309.108 3.05512 309.103 3.05512C308.247 3.0443 304.761 3.03834 303.691 3.02314C296.056 3.10161 298.981 3.1827 307.111 3.2475ZM676.485 100.264C676.499 95.6724 676.513 91.0804 676.527 86.4885C676.562 86.5666 676.597 86.6447 676.633 86.7228C676.623 89.1802 676.614 91.6375 676.604 94.0949C676.62 94.9565 676.636 95.8182 676.652 96.6798C676.693 93.6289 676.733 90.578 676.773 87.5271C676.759 83.8515 676.745 80.1758 676.731 76.5002C676.712 78.1897 676.694 79.8791 676.675 81.5685C676.654 72.5848 676.74 74.5409 676.773 67.1055C676.74 64.5596 676.708 62.0137 676.675 59.4678C676.708 55.7818 676.741 52.0957 676.774 48.4097C676.758 42.2163 676.733 41.6717 676.696 45.8404C676.653 42.761 676.72 39.3891 676.703 35.6803C676.701 35.3742 676.661 35.9509 676.661 35.6803C676.633 16.5047 676.739 17.5247 676.744 14.462C676.747 12.3008 676.675 3.67274 676.651 3.53666C676.624 3.3973 676.528 15.9885 676.496 3.50001C676.498 3.4269 676.428 3.34285 676.338 3.34694C674.233 3.3503 671.621 3.35233 668.407 3.35272C671.043 3.36898 673.745 3.37928 676.338 3.38448C676.399 3.38306 676.454 3.44297 676.45 3.50001C676.441 14.0489 676.518 21.7261 676.618 13.5796C676.605 18.178 676.638 38.4561 676.634 39.749C676.628 41.6338 676.578 40.9726 676.577 43.3335C676.576 44.7287 676.69 48.4253 676.591 59.4678C676.609 60.8787 676.628 62.2896 676.647 63.7005C676.631 65.023 676.616 66.3454 676.601 67.6677C676.546 64.9449 676.491 62.222 676.436 59.4991C676.496 70.2853 676.384 79.2337 676.478 85.8013C676.467 91.4795 676.456 94.2384 676.408 91.7989C676.408 93.504 676.408 95.209 676.408 96.9141C676.434 98.0308 676.46 99.1476 676.485 100.264ZM341.957 3.16327C347.6 3.21803 349.63 3.0999 348.751 3.09321C343.802 3.05645 339.02 3.13479 341.957 3.16327ZM676.654 141.1C676.684 134.873 676.714 128.646 676.745 122.42C676.708 122.42 676.67 122.42 676.633 122.42C676.64 128.646 676.647 134.873 676.654 141.1ZM284.128 3.21918C283.555 3.19119 282.983 3.16319 282.41 3.1352C275.59 3.23745 268.818 3.09074 265.448 3.12104C264.717 3.12766 266.193 3.17709 267.588 3.18769C268.455 3.19431 282.92 3.22862 284.128 3.21918ZM3.04383 4.28145C3.0419 4.02097 3.03997 3.76048 3.03805 3.5C3.02633 3.34195 3.16977 3.18319 3.33809 3.18254C4.83292 3.17148 6.32767 3.16042 7.82235 3.14936C7.68182 3.18085 7.54112 3.21235 7.40067 3.24384C6.14587 3.2497 4.89122 3.25556 3.6365 3.26142C3.53714 3.2598 3.43745 3.25819 3.33809 3.25658C3.21079 3.23805 3.06502 3.35029 3.05649 3.5C3.05227 3.76048 3.04805 4.02097 3.04383 4.28145ZM29.1108 3.15571C33.6429 3.15823 38.1751 3.16075 42.7071 3.16327C25.4206 3.19216 39.6073 3.20626 29.1108 3.24726C29.1108 3.21674 29.1108 3.18622 29.1108 3.15571ZM74.9835 3.21942C74.4265 3.23822 73.8693 3.25702 73.3123 3.27582C68.7802 3.27582 64.2482 3.27582 59.7161 3.27582C62.5822 3.34108 65.4481 3.40635 68.3142 3.47161C69.9751 3.47178 71.6358 3.47194 73.2967 3.4721C73.8591 3.38788 74.4211 3.30365 74.9835 3.21942ZM676.45 273.767C676.449 276.506 676.506 286.037 676.527 285.629C676.553 281.67 676.579 277.71 676.605 273.751C676.567 273.733 676.53 273.715 676.492 273.696C676.511 273.137 676.53 272.577 676.548 272.017C676.534 269.766 676.52 267.514 676.506 265.262C676.539 264.127 676.572 262.992 676.604 261.857C676.567 260.717 676.53 259.577 676.492 258.437C676.426 269.309 676.492 268.935 676.492 271.197C676.491 272.345 676.468 273.071 676.457 273.478C676.455 273.574 676.452 273.67 676.45 273.767ZM676.415 136.797C676.406 149.779 676.505 157.198 676.422 166.59C676.598 160.566 676.416 121.67 676.563 107.957C676.535 106.533 676.506 105.109 676.478 103.685C676.503 111.152 676.445 116.327 676.437 119.968C676.43 122.86 676.46 122.558 676.459 122.779C676.459 122.789 676.459 122.8 676.459 122.81C676.447 129.581 676.419 131.676 676.415 136.797ZM274.483 3.35687C277.972 3.40136 284.076 3.39691 284.144 3.33197C280.747 3.31317 277.349 3.29437 273.952 3.27558C274.65 3.2922 273.888 3.34926 274.483 3.35687ZM80.2549 3.40082C82.9772 3.42195 89.4085 3.40343 86.6352 3.34735C86.1365 3.3374 79.7308 3.37682 83.488 3.27558C77.2462 3.27714 78.7069 3.38867 80.2549 3.40082ZM590.156 3.28974C587.866 3.29161 585.575 3.29348 583.284 3.29535C582.75 3.32155 582.217 3.34776 581.683 3.37396C584.508 3.34589 587.332 3.31781 590.156 3.28974ZM245.042 3.40179C241.996 3.27355 236.794 3.39835 231.079 3.29291C228.967 3.2921 226.856 3.29128 224.745 3.29047C224.74 3.29047 224.735 3.29047 224.729 3.29047C224.672 3.32546 224.615 3.36045 224.558 3.39544C231.386 3.39756 238.214 3.39968 245.042 3.40179ZM676.485 57.7966C676.501 56.3857 676.518 54.9748 676.534 53.5639C676.515 51.0518 676.496 48.5398 676.477 46.0278C676.463 47.3867 676.45 48.7455 676.436 50.1043C676.453 52.6685 676.469 55.2325 676.485 57.7966ZM207.931 3.41278C215.316 3.42884 218.093 3.31736 208.65 3.31708C204.669 3.31708 200.195 3.39599 207.931 3.41278ZM602.08 352.283C604.611 352.293 607.141 352.302 609.671 352.312C610.533 352.288 611.395 352.265 612.256 352.241C608.864 352.255 605.472 352.269 602.08 352.283ZM45.2374 3.38812C45.5341 3.36468 45.8309 3.34125 46.1277 3.31781C48.3846 3.32253 50.6415 3.32725 52.8984 3.33197C52.3309 3.35524 51.7636 3.37852 51.1959 3.40179C49.2098 3.39724 47.2235 3.39268 45.2374 3.38812ZM619.105 352.298C621.128 352.302 623.15 352.306 625.173 352.311C626.532 352.3 627.891 352.288 629.25 352.277C627.357 352.265 625.465 352.254 623.572 352.243C622.083 352.261 620.594 352.279 619.105 352.298ZM137.935 3.40204C140.777 3.43022 152.126 3.34242 141.903 3.32001C135.388 3.30578 137.509 3.39775 137.935 3.40204ZM122.621 3.43011C133.442 3.4838 125.328 3.21132 112.414 3.38788C125.415 3.36367 121.985 3.42687 122.621 3.43011ZM27.4631 3.57073C27.191 3.57059 26.9666 3.53141 24.7923 3.52996C17.9421 3.52552 9.17278 3.51311 3.33809 3.50848C3.34489 3.50537 3.34328 3.50625 3.3451 3.49929C3.34509 3.49946 3.34507 3.49969 3.34506 3.5C3.34395 6.20998 3.34589 10.0301 3.3488 14.4449C3.36038 32.0449 3.38728 59.0968 3.29675 62.9459C3.27294 63.9498 3.20178 61.6394 3.19812 62.0478C3.1879 63.2457 3.22243 70.1407 3.17004 68.8655C3.17045 62.0999 3.17086 55.3343 3.17126 48.5688C3.20821 50.2296 3.24516 51.8904 3.2821 53.5512C3.26238 36.6935 3.26466 42.2736 3.1842 37.4247C3.21537 34.5716 3.24654 31.7186 3.27771 28.8656C3.25346 24.0587 3.22921 19.2518 3.20497 14.4449C3.19788 13.0407 3.1908 11.6365 3.18372 10.2322C3.207 11.6365 3.23029 13.0407 3.25358 14.4449C3.25365 14.449 3.25371 14.4531 3.25378 14.4571C3.2538 14.4531 3.25382 14.449 3.25384 14.4449C3.29415 5.72059 3.27209 7.4057 3.2229 3.5C3.21995 3.47382 3.22053 3.45548 3.23427 3.42829C3.25387 3.44103 3.2732 3.45416 3.29224 3.46769C3.30481 3.44782 3.3146 3.43875 3.33809 3.43587C11.1599 3.39448 12.8357 3.45714 14.7025 3.45794C18.7513 3.45932 23.9125 3.18298 39.3568 3.45794C45.8691 3.3257 45.7207 3.59473 49.5482 3.45794C60.5704 3.60685 39.6078 3.55296 29.6888 3.54803C29.6835 3.54803 29.6784 3.54803 29.6732 3.54803C28.9247 3.54761 30.1129 3.57268 27.4631 3.57073ZM84.0815 3.43377C77.4089 3.55516 103.77 3.56653 95.0459 3.39129C93.7471 3.3856 92.4479 3.3799 91.1491 3.37421C88.7879 3.39406 86.4269 3.41392 84.0659 3.43377C84.071 3.43377 84.0763 3.43377 84.0815 3.43377ZM331.766 3.51434C356.182 3.46446 342.299 3.39463 334.03 3.46283C332.38 3.47635 331.476 3.4949 331.766 3.51434ZM676.322 155.344C676.337 155.701 676.351 156.058 676.366 156.414C676.352 148.226 676.408 132.394 676.31 132.611C676.314 140.189 676.318 147.767 676.322 155.344ZM676.258 90.5728C676.252 92.3311 676.238 99.515 676.275 98.6478C676.301 95.5344 676.327 92.4211 676.353 89.3077C676.336 87.8578 676.32 86.4078 676.304 84.9578C676.298 86.9827 676.259 90.0967 676.258 90.5728Z" fill="#07596E"/>
</svg>
