<svg width="679" height="355" viewBox="0 0 679 355" fill="none" xmlns="http://www.w3.org/2000/svg">
<path d="M11.7986 282.246C11.8377 293.732 11.7959 308.788 11.7385 320.231C11.7207 323.817 11.6412 322.001 11.6254 324.476C11.6171 325.777 11.6138 327.054 11.6128 328.319C11.6219 329.366 10.9883 330.378 10.0518 330.829C7.60247 332.038 5.18474 333.237 2.67762 334.452C2.65922 334.46 2.64274 334.47 2.62743 334.482C2.54699 334.561 2.53481 334.555 2.50718 334.522C2.49184 334.495 2.43473 334.444 2.40641 334.644C2.40638 334.649 2.40635 334.654 2.40632 334.659C2.37945 339.056 2.37303 343.338 2.37056 347.63C2.3686 347.78 2.45927 347.926 2.59429 347.991C5.20227 349.279 7.82105 350.571 10.4828 351.889C10.5386 351.917 10.601 351.932 10.6637 351.932C11.6024 351.934 12.5465 351.936 13.497 351.939C58.9587 352.071 103.646 352.118 149.664 352.176C164.838 352.195 183.283 352.309 198.955 352.259C200.785 352.253 199.694 352.142 200.042 352.133C205.502 351.994 203.686 352.217 207.251 352.247C221.399 352.364 237.132 352.374 250.748 352.331C256.541 352.313 250.733 352.093 256.565 352.216C256.97 352.225 255.501 352.342 257.089 352.355C260.692 352.383 267.527 352.362 270.319 352.371C275.7 352.39 276.59 352.388 281.68 352.39C288.638 352.393 296.913 352.451 304.378 352.424C305.972 352.418 303.862 352.298 306.404 352.278C308.947 352.257 315.676 352.267 317.944 352.296C320.213 352.324 319.247 352.419 319.649 352.44C322.952 352.623 330.736 352.37 331.737 352.364C349.997 352.257 365.655 352.401 382.795 352.401C395.807 352.4 409.72 352.353 422.101 352.359C436.851 352.367 449.353 352.433 463.682 352.421C465.195 352.42 463.422 352.279 465.269 352.277C484.893 352.261 504.38 352.276 523.919 352.372C525.879 352.381 523.354 352.506 525.311 352.523C537.298 352.625 556.263 352.87 563.382 352.329C571.501 352.35 581.358 352.372 588.622 352.481C593.305 352.551 588.756 352.687 594.509 352.629C595.807 352.616 594.119 352.498 596.065 352.487C604.258 352.444 613.208 352.482 621.313 352.421C622.961 352.408 622.511 352.302 622.978 352.283C626.903 352.128 633.438 352.384 634.863 352.403C638.739 352.452 642.24 352.477 645.602 352.489C645.75 352.49 645.898 352.456 646.031 352.391C651.228 349.847 656.074 347.434 661.679 344.672C663.783 343.635 661.233 344.733 663.255 343.731C667.505 341.626 671.819 339.495 676.133 337.371C676.406 337.24 676.591 336.945 676.588 336.641C676.595 330.142 676.615 323.664 676.649 317.385C676.664 314.836 676.785 317.18 676.798 315.962C676.855 310.591 676.625 309.4 676.675 304.249C676.685 303.163 676.789 303.775 676.8 303.577C676.98 300.477 676.725 297.783 676.72 296.985C676.643 286.898 676.908 280.451 676.871 270.706C676.866 269.54 676.734 272.169 676.729 268.892C676.693 247.06 676.729 223.97 676.834 202.36C676.85 199 676.949 201.399 676.962 201.187C677.152 197.741 676.897 195.512 676.887 194.416C676.818 185.773 677.032 177.699 676.728 171.827C676.834 135.223 676.663 98.7878 676.935 62.4865C676.938 62.025 677.064 62.852 677.07 61.9314C677.14 50.8437 676.945 52.973 676.706 45.6366C676.646 43.7886 676.935 38.1666 676.956 37.6691C677.034 35.8568 677.221 37.7365 677.236 37.1296C677.354 32.1079 676.736 32.9261 676.736 26.1517C676.737 25.9398 676.85 26.8297 676.862 26.2612C676.897 24.4949 676.852 22.7432 676.891 21.0147C676.982 17.0585 677.282 15.6494 677.107 9.60681C677.085 8.84206 676.734 10.0099 676.751 3.96152C676.751 3.6975 676.752 3.33443 676.752 2.89331C676.777 2.48116 676.393 1.9072 675.772 1.91153C671.604 1.90936 665.309 1.90811 663.121 1.89149C660.133 1.86878 662.185 1.75576 661.972 1.75086C653.922 1.6014 656.974 1.53946 652.941 1.31819C648.908 1.09775 650.026 1.62351 648.382 1.6822C646.735 1.74071 640.833 1.6174 639.383 1.57453C637.933 1.53165 639.741 1.45982 638.452 1.43556C629.905 1.27699 634.701 1.69653 631.884 1.77998C625.245 1.97756 620.073 1.58765 613.994 1.54945C612.35 1.53913 613.692 1.62793 612.227 1.63624C606.427 1.66795 602.938 1.54629 596.339 1.65784C595.26 1.67602 589.925 1.91045 586.472 1.73841C585.983 1.7136 587.372 1.61644 584.9 1.59467C581.207 1.56201 574.553 1.54077 570.584 1.57325C567.653 1.59728 571.012 1.75739 567.323 1.70765C565.684 1.68544 568.722 1.59178 565.642 1.55787C562.578 1.52397 554.744 1.52809 551.763 1.53132C548.788 1.53462 550.416 1.65607 550.176 1.66425C548.721 1.71112 543.01 1.76968 542.506 1.76954C517.052 1.78436 493.579 1.57965 468.796 1.64741C466.851 1.65255 468.147 1.78062 467.85 1.78272C461.192 1.83638 466.441 1.49588 461.79 1.38191C462.463 1.64179 459.717 1.59474 455.027 1.62324C452.767 1.63718 453.998 1.73781 453.792 1.74812C450.44 1.90096 448.106 1.70354 447.505 1.66315C445.285 1.51459 442.87 1.69013 441.359 1.59083C439.85 1.49227 443.324 1.34616 438.826 1.34803C437.565 1.44106 440.904 1.68418 437.489 1.72358C424.604 1.87262 400.552 1.68187 390.192 1.66206C379.853 1.64226 376.513 1.65942 370.488 1.6258C359.605 1.56501 363.594 1.74539 356.836 1.82795C350.059 1.9105 353.354 1.46669 352.379 1.37129C351.423 1.27592 350.379 1.37409 349.189 1.32166C348.004 1.26925 350.571 1.20438 347.782 1.1847C344.992 1.16504 337.363 1.3347 336.374 1.43446C334.283 1.6458 337.721 1.86762 330.338 1.78968C329.913 1.78505 331.291 1.66836 329.665 1.65656C316.752 1.56672 303.336 1.56116 290.438 1.4817C288.664 1.47059 290.25 1.34077 289.218 1.33283C278.467 1.2498 282.31 1.46869 276.418 1.71186C277.741 1.38826 274.483 1.19027 266.324 1.18836C261.419 1.1871 262.264 1.32844 259.091 1.42805C258.14 1.45808 254.669 1.36103 254.04 1.4275C251.967 1.64477 255.235 1.88799 246.823 1.79115C246.454 1.78654 247.629 1.66761 246.354 1.66041C238.111 1.61326 237.125 1.84053 228.214 1.86805C221.23 1.88964 208.808 1.75106 200.856 1.72852C201.023 1.3647 193.511 1.44801 190.464 1.69886C185.303 1.68859 179.729 1.70277 174.74 1.6681C173.023 1.65628 174.151 1.55094 173.935 1.53956C170.615 1.36101 168.371 1.60506 167.257 1.61463C155.183 1.70764 145.347 1.52267 133.823 1.70344C133.415 1.70995 132.752 1.96267 129.672 1.77814C129.472 1.76542 133.278 1.65044 127.858 1.64155C122.436 1.63264 112.216 1.49716 104.69 1.61427C102.869 1.64246 98.2618 1.84762 94.5645 1.68732C94.0719 1.66556 94.6108 1.59308 93.8999 1.55274C91.6012 1.42422 90.3461 1.67966 87.6447 1.46266C84.943 1.24565 79.3233 1.08314 71.7331 1.23286C71.4912 1.23721 69.6945 1.43967 67.3075 1.43647C63.4971 1.43119 58.0877 1.38901 54.1091 1.39033C52.204 1.39103 53.4233 1.51675 53.0926 1.51905C40.2839 1.5895 31.1677 1.47742 17.4459 1.42878C14.9305 1.41962 7.70188 1.59105 2.83231 1.45551C2.81213 1.45496 2.79224 1.45439 2.77242 1.45382C2.14294 1.44069 1.72045 1.78268 1.49705 2.0775C1.26842 2.38346 1.19513 2.66829 1.15622 2.89331C0.926822 4.19203 0.605546 3.38166 0.716075 12.62C0.720789 13.0174 0.730157 13.4232 0.743193 13.8382C0.892784 18.6003 1.5254 24.5673 1.15223 32.7617C1.25276 50.0391 1.04513 66.0171 1.18867 83.3426C1.19503 84.1217 1.41357 86.5854 1.41059 88.4172C1.40575 91.1364 1.30361 92.629 1.29688 94.5707C1.26612 102.707 1.35351 110.152 1.33991 117.996C1.33497 120.974 1.22936 119.933 1.22346 123.485C1.21765 127.035 1.35673 129.402 1.28956 134.213C1.23836 137.846 0.954103 141.479 0.920969 146.301C1.20136 146.485 1.19558 149.797 1.2696 155.684C1.28396 156.815 1.38155 155.602 1.39338 156.137C1.44368 158.316 1.3628 160.332 1.41755 162.4C1.4307 162.904 1.52646 162.927 1.54261 163.339C1.68363 166.837 1.46824 172.599 1.43073 173.589C1.28831 177.383 1.41285 179.155 1.35676 182.065C1.30068 184.97 1.23057 180.626 1.19654 184.02C1.12615 191.053 1.14162 200.091 1.13722 207.234C1.13605 210.085 1.26387 208.14 1.26667 208.548C1.29909 214.442 1.16313 220.402 1.41773 223.67C0.759418 227.756 1.48159 227.224 1.3498 235.648C1.33914 236.312 1.02783 237.156 0.982126 234.608C0.936466 232.061 1.03378 228.198 0.962534 224.663C0.945815 223.826 0.654095 219.031 0.636424 218.376C0.498319 213.251 0.963533 212.525 0.989084 212.254C1.26483 209.179 0.950559 203.32 0.928843 201.777C0.82934 194.717 0.894764 188.72 0.823741 182.816C0.777837 178.954 0.473105 178.576 0.482433 175.544C0.513263 165.464 0.938367 161.945 0.569774 152.447C0.491161 150.41 0.158097 152.434 0.419994 145.136C0.436505 144.677 0.676093 139.259 0.524547 136.129C0.50544 135.735 0.408373 135.748 0.400219 135.229C0.347475 131.754 0.424804 129.437 0.387768 125.651C0.350732 121.866 0.295519 117.314 0.328442 112.992C0.348129 110.388 0.528977 107.046 0.573253 105.799C0.700801 102.278 0.491676 98.5033 0.646129 96.3221C0.801359 94.1227 1.0371 98.4226 1.1374 92.655C0.885213 92.4415 0.62637 91.9507 0.372753 91.6073C0.381633 78.9677 0.463179 66.5312 0.452038 53.8495C0.450404 52.2772 0.314828 53.8851 0.309582 52.1997C0.288044 45.0886 0.384691 38.8773 0.346203 31.5028C0.316353 25.8812 0.176679 19.725 0.137903 13.8382C0.137305 13.7474 0.136731 13.6567 0.136182 13.5661C0.311084 11.3563 0.343992 7.23211 0.34865 2.89331C0.317647 1.60735 1.47891 0.43923 2.77242 0.469993C4.82088 0.469134 6.84899 0.466564 8.68088 0.474072C10.9348 0.483184 10.7842 0.560256 12.387 0.5854C18.4342 0.678392 15.6005 0.423383 17.2582 0.383252C24.3709 0.211976 24.9798 0.789174 33.3654 0.774913C33.8096 0.774353 39.2399 0.466681 39.9881 0.447522C44.7405 0.322585 40.7747 0.55461 43.749 0.577343C49.1793 0.618886 52.9531 0.692363 59.3243 0.602245C61.1822 0.575553 65.6387 0.383784 69.2466 0.532116C69.7212 0.551539 69.459 0.653236 69.8409 0.659191C76.7559 0.758466 76.9377 0.438922 80.8891 0.330701C84.8414 0.222503 90.9451 0.443089 92.1875 0.506664C95.4374 0.671131 89.6973 0.576951 89.5212 0.59309C87.454 0.78516 91.9055 0.752092 95.3073 0.768321C95.7997 1.08164 100.557 1.06283 98.8336 0.783885C98.6376 0.753417 95.9903 0.782635 95.3073 0.768321C98.2932 0.460915 103.521 0.421545 109.295 0.708812C111.998 0.84345 109.443 1.00043 117.654 0.943003C121.38 0.917079 119.94 0.701345 123.229 0.642528C130.742 0.508332 140.504 0.709576 148.25 0.677867C151.061 0.666356 148.322 0.548264 150.243 0.536327C155.342 0.50428 159.838 0.592886 164.959 0.547497C165.423 0.543234 164.289 0.419617 165.881 0.418042C177.953 0.403685 188.463 0.482863 201.067 0.485058C207.156 0.486062 218.043 0.417884 224.352 0.431591C235.285 0.454619 248.735 0.634378 258.075 0.59071C264.167 0.562757 262.83 0.439114 265.44 0.35487C270.477 0.191573 279.393 0.484076 280.593 0.529369C280.63 0.530868 275.388 0.560016 278.185 0.623485C279.811 0.755734 280.534 0.529943 280.593 0.529369C281.382 0.558629 291.853 0.586696 293.933 0.563061C295.062 0.550144 294.43 0.432999 295.02 0.428479C309.022 0.323645 323.048 0.293872 337.25 0.348645C337.5 0.351012 337.123 0.482045 337.711 0.485974C345.933 0.544234 351.197 0.383939 357.978 0.28877C364.758 0.193642 370.134 0.225503 374.147 0.450451C379.263 0.422128 386.602 0.521577 390.825 0.581921C395.048 0.642263 395.638 0.387195 396.009 0.382153C407.599 0.22076 414.299 0.366756 426.323 0.389477C432.04 0.400717 443.38 0.36372 449.569 0.335828C454.461 0.313358 457.408 0.373134 461.915 0.334912C462.525 0.329808 461.909 0.216238 462.095 0.211866C467.126 0.0759869 464.708 0.353625 465.747 0.40321C469.512 0.583529 471.839 0.679565 478.281 0.594738C479.766 0.575312 484.095 0.175552 486.803 0.152173C490.325 0.122511 488.996 0.265801 492.683 0.231092C492.999 0.228253 492.933 0.139853 495.209 0.143751C505.772 0.160681 517.29 0.212119 528.267 0.20326C529.767 0.202388 527.844 0.0621734 530.011 0.0586067C540.177 0.0419861 551.32 0.0471753 561.224 0.112806C563.662 0.129401 562.134 0.227576 562.663 0.256726C565.912 0.433103 570.519 0.176832 571.279 0.171949C589.413 0.0487968 603.292 0.28072 621.774 0.170301C622.78 0.163818 630.525 -0.11091 633.98 0.124708C634.216 0.140383 637.635 0.381445 640.657 0.216626C640.845 0.206315 638.715 0.082213 642.432 0.0948615C646.149 0.107483 652.132 0.0246079 657.241 0.160962C658.859 0.203916 662.682 0.444383 667.508 0.252698C667.757 0.242083 672.496 -0.0328605 675.772 0.00319862C677.496 0.00448215 678.524 1.52214 678.537 2.52684C678.547 2.67905 678.532 2.77226 678.509 2.89331C678.409 3.17817 678.226 3.76725 678.357 8.43396C678.389 9.53426 678.459 7.53674 678.503 10.4356C678.571 14.8771 678.487 20.7622 678.628 26.2221C678.653 27.1743 678.867 31.2276 678.704 34.4789C678.679 34.9882 678.573 34.0206 678.561 35.7378C678.505 43.9029 678.575 52.4525 678.502 60.7429C678.477 63.6793 678.306 62.1781 678.26 65.2388C678.214 68.3004 678.17 74.4678 678.248 77.671C678.326 80.8749 678.599 77.3749 678.62 82.1747C678.715 103.041 678.555 123.711 678.532 144.547C678.528 147.637 678.626 145.075 678.628 149.629C678.635 166.419 678.726 195.407 678.519 209.976C678.353 221.649 678.227 206.959 678.16 215.879C678.128 220.184 678.444 224.841 678.454 225.88C678.555 236.031 678.415 243.085 678.458 252.222C678.467 254.108 678.595 252.258 678.601 253.864C678.624 259.348 678.566 265.113 678.577 270.354C678.582 272.705 678.68 272.272 678.672 274.435C678.655 279.612 678.614 284.19 678.522 289.237C678.514 289.697 678.392 286.595 678.388 290.425C678.381 296.624 678.29 304.319 678.384 311.451C678.412 313.567 678.636 313.65 678.481 318.198C678.449 319.152 678.18 317.935 678.412 323.234C678.449 324.076 678.731 332.079 678.591 336.641C678.583 337.135 678.441 337.601 678.218 337.983C678.001 338.361 677.6 338.819 676.984 339.098C675.669 339.655 673.571 340.541 671.769 341.46C671.462 341.618 672.755 341.114 670.869 342.057C664.222 345.38 657.231 348.814 650.4 352.225C648.576 353.136 651.355 351.905 648.635 353.259C648.063 353.544 647.48 353.834 646.887 354.128C646.492 354.324 646.048 354.429 645.602 354.429C637.763 354.446 628.612 354.417 621.281 354.382C618.269 354.368 620.351 354.264 620.132 354.253C616.607 354.071 614.523 354.317 613.353 354.331C606.077 354.417 600.536 354.302 593.829 354.332C591.978 354.341 593.291 354.458 592.922 354.468C589.101 354.571 591.947 354.36 589.529 354.337C582.753 354.271 575.199 354.28 568.347 354.295C565.83 354.301 568.659 354.437 566.4 354.441C553.031 354.464 539.133 354.451 526.085 354.376C523.629 354.362 525.174 354.257 524.662 354.233C521.133 354.065 515.961 354.294 514.771 354.316C509.36 354.415 507.258 354.322 502.48 354.34C479.136 354.426 450.313 354.364 428.278 354.326C399.564 354.277 377.282 354.178 349.9 354.204C348.16 354.205 349.915 354.345 348.415 354.348C329.046 354.381 309.978 354.327 290.57 354.367C288.978 354.37 291.273 354.502 288.717 354.512C283.474 354.532 276.832 354.525 271.531 354.483C268.945 354.462 272.413 354.349 269.811 354.331C263.751 354.288 257.254 354.279 251.03 354.3C248.381 354.309 252.377 354.444 248.934 354.446C225.48 354.459 202.445 354.483 178.743 354.307C177.118 354.295 175.693 354.021 172.238 354.073C171.978 354.15 171.992 354.239 171.878 354.321C137.734 354.365 103.939 354.269 69.6998 354.255C68.2561 354.254 70.751 354.4 67.9561 354.399C51.7799 354.397 36.0718 354.438 19.5254 354.293C17.8837 354.279 18.726 354.022 13.8879 354.061C13.5557 354.064 12.248 354.071 10.6637 354.081C10.2812 354.083 9.88803 353.997 9.5296 353.822C7.41286 352.796 4.96832 351.618 4.01607 351.182C3.78289 351.077 4.92223 351.772 2.81491 350.736C2.39314 350.529 1.9707 350.321 1.54764 350.113C0.619468 349.667 -0.00711381 348.665 0.00212574 347.63C-0.00141406 343.342 -0.000520587 339 0.00481534 334.644C-0.00427651 333.613 0.61994 332.611 1.54911 332.164C4.00715 330.956 6.46891 329.749 8.92538 328.545C9.01055 328.506 9.07023 328.415 9.07082 328.319C9.08506 323.628 9.10448 318.963 9.1291 314.374C9.14112 312.176 9.26848 314.517 9.27814 312.951C9.34575 301.844 9.24894 289.763 9.36457 279.15C9.40421 275.533 9.48075 274.439 9.57493 273.739C9.60963 273.599 9.62244 273.473 9.57968 273.308C9.53292 273.151 9.42823 272.922 9.08915 272.772C8.85151 272.683 8.57331 272.583 8.24211 272.468C7.73696 272.292 3.50742 271.083 3.32316 270.899C2.84829 270.434 4.99267 270.684 4.24435 270.12C4.18677 270.076 3.39217 269.843 2.57193 269.603C2.20138 269.505 2.04762 269.096 2.07091 268.962C2.07498 268.89 2.08831 268.876 2.10679 268.939C2.1291 268.997 2.15682 269.149 2.32681 269.302C2.34545 269.316 2.43571 269.417 2.61257 269.46C3.92444 269.808 6.42307 270.474 7.19166 270.647C7.90742 270.808 6.67308 270.323 8.12486 270.682C8.58864 270.796 9.06244 270.93 9.57079 271.081C10.6143 271.365 11.5637 272.411 11.5545 273.739C11.5502 274.391 11.5525 275.108 11.5726 275.913C11.6354 278.389 11.7813 277.3 11.7986 282.246ZM409.841 0.851634C413.752 0.974127 414.329 0.525485 410.099 0.632824C409.894 0.638544 409.639 0.845625 409.841 0.851634ZM0.801585 66.6022C0.999468 61.4899 0.708501 57.9916 0.555675 61.5981C0.403013 65.2041 0.741599 68.1598 0.801585 66.6022ZM0.946055 119.615C1.10208 113.64 0.465884 112.699 0.594493 119.099C0.601761 119.471 0.936995 119.964 0.946055 119.615ZM9.94098 288.407C9.94694 288.353 9.95275 285.191 9.94684 285.116C9.80436 283.432 9.79284 289.755 9.94098 288.407ZM1.10334 172.221C1.1894 170.356 1.09006 164.985 0.983042 167.303C0.896952 169.168 0.99629 174.544 1.10334 172.221ZM613.83 1.33045C613.892 1.33714 616.159 1.34316 616.113 1.30537C615.959 1.18365 612.805 1.218 613.83 1.33045ZM1.11067 261.631C1.13461 248.421 1.66014 240.412 1.60084 254.797C1.59011 257.402 1.43325 249.183 1.38587 252.498C1.29956 258.565 1.62952 262.594 1.45271 268.785C1.42034 269.906 1.10813 262.384 1.10993 261.607C1.11018 261.615 1.11042 261.623 1.11067 261.631ZM412.093 1.39051C412.171 1.39644 415.309 1.40207 415.385 1.39619C417.084 1.25376 410.762 1.24234 412.093 1.39051ZM677.058 70.8841C677.045 71.0573 677.033 78.3405 677.045 78.578C677.278 82.3773 677.303 67.6528 677.058 70.8841ZM200.73 1.71882C197.306 1.86211 193.21 1.87898 190.48 1.69904C193.883 1.7086 197.309 1.71 200.73 1.71882Z" fill="#07596E"/>
</svg>
