<svg width="744" height="25" viewBox="0 0 744 25" fill="none" xmlns="http://www.w3.org/2000/svg">
<path opacity="0.75" d="M726.972 20.9046C711.115 20.5796 700.292 20.9249 685.582 20.9799C676.523 21.0137 666.656 21.0296 656.417 21.035L657.372 21.3534C648.247 14.5147 638.76 7.38879 629.388 0.345465L628.969 0.0277939L628.427 0.0251369C613.05 0.0131168 597.916 -0.00297737 584.382 0.000555038C559.315 0.00710297 533.843 0.0302906 508.927 0.0488892C507.649 0.0498047 506.886 0.0854263 506.307 0.0858784C500.852 0.0900688 491.703 0.0577946 486.292 0.0625038C474.908 0.0723267 455.1 0.0667782 444.673 0.100174C440.246 0.114315 435.704 0.120211 433.983 0.205011C432.366 0.20933 431.482 0.132708 431.06 0.128538C431.055 0.128614 431.05 0.128691 431.046 0.128765C429.685 0.115831 426.249 0.169554 425.491 0.166208C425.377 0.165684 426.076 0.110186 424.236 0.126951C424.072 0.128391 424.223 0.166124 422.674 0.166662C422.271 0.166792 417.091 0.108929 415.61 0.105392C410.684 0.0938759 398.918 0.139303 393.027 0.138523C392.126 0.138523 391.608 0.116451 390.656 0.116058C390.165 0.115829 389.428 0.13979 389.277 0.139658C388.614 0.138805 385.719 0.0299969 386.758 0.244722C383.736 0.231108 384.626 0.16012 384.558 0.114016C381.277 0.107359 379.695 0.208487 378.839 0.101309C362.703 0.114243 346.567 0.127176 330.431 0.140112C330.426 0.122639 330.421 0.105165 330.417 0.0876923C325.661 0.157484 324.029 0.0394325 321.314 0.140793C319.64 0.118479 317.965 0.0961647 316.291 0.0738506C273.263 0.142607 230.336 0.0608826 187.793 0.0611439C185.998 0.0611439 185.55 0.0983238 182.589 0.0985851C179.319 0.0988464 174.721 0.0556355 170.412 0.0561504C166.633 0.0565434 161.057 0.0917168 156.842 0.0972233C155.891 0.098402 155.203 0.0748539 155.096 0.0749855C154.466 0.0759048 154.434 0.113186 153.823 0.114243C153.093 0.115421 152.21 0.0878048 151.366 0.0895081C148.211 0.0956593 144.773 0.0861397 144.374 0.0867844C142.45 0.0903149 142.025 0.126774 141.867 0.127176C139.727 0.131626 140.529 0.0987186 139.996 0.100628C137.23 0.110712 135.275 0.19286 131.489 0.114016C131.592 0.144499 131.695 0.174982 131.798 0.205465C128.901 0.222618 130.815 0.141619 130.223 0.126951C129.981 0.121515 123.744 0.131407 123.263 0.132851C121.587 0.138088 121.542 0.178596 121.398 0.179142C121.089 0.180286 117.832 0.145323 115.573 0.160082L115.091 0.157719L114.693 0.453407C114.434 0.650795 114.191 0.836525 113.976 1.00368C111.956 2.57154 114.413 0.831425 113.914 1.22481C113.83 1.29117 111.684 2.89078 111.412 3.12708C111.111 3.38737 112.962 1.99778 112.941 2.02843C112.926 2.04995 109.886 4.40211 110.498 3.99073C110.873 3.74609 113.318 1.88515 114.883 0.706053L115.195 0.474075L115.573 0.475927C116.212 0.47452 116.733 0.47489 117.005 0.479361C117.188 0.482367 116.844 0.530031 117.005 0.531778C117.654 0.538195 129.667 0.539627 130.217 0.531778C129.591 0.510071 128.966 0.488361 128.34 0.466652C129.172 0.464458 130.004 0.462265 130.836 0.460072C129.653 0.442675 128.47 0.425278 127.288 0.407879C129.045 0.22913 134.339 0.410336 134.557 0.499556C134.652 0.540812 131.415 0.646959 134.427 0.708778C133.969 0.719368 133.511 0.729958 133.053 0.740547C132.11 0.72315 131.166 0.705751 130.223 0.688354C130.851 0.677387 131.479 0.666418 132.108 0.655451C131.877 0.643045 131.645 0.63064 131.414 0.618237C129.65 0.598343 127.886 0.578449 126.122 0.558556C125.216 0.567724 125.404 0.604347 124.781 0.611427C117.007 0.700617 122.078 0.587124 116.988 0.603485C116.516 0.616251 116.045 0.629015 115.573 0.641781L115.25 0.640196L114.982 0.838718C114.782 0.997295 114.582 1.15587 114.383 1.31445C114.539 1.09554 112.766 2.48926 110.564 4.09768C110.84 3.92323 111.117 3.74877 111.393 3.57431C108.225 5.93368 101.9 10.8453 103.541 9.43233C102.824 9.98541 102.108 10.5385 101.391 11.0916C100.766 11.5313 100.14 11.971 99.5145 12.4107C98.6711 13.0468 97.8278 13.683 96.9844 14.3191C96.9883 14.3323 96.9921 14.3455 96.996 14.3587C97.6699 13.8532 98.3437 13.3477 99.0176 12.8422C98.5354 13.253 98.0531 13.6638 97.5709 14.0746C97.0697 14.4425 96.5685 14.8103 96.0673 15.1782C98.131 13.5836 95.3446 15.5985 94.6478 16.0566C92.8778 17.3606 91.7945 18.2573 91.2066 18.7022C90.9304 18.9113 87.5943 21.266 88.9525 20.4098C88.302 20.8902 87.6516 21.3706 87.0011 21.851L87.5825 21.6572C86.2909 21.6474 84.9993 21.6377 83.7076 21.628C82.8864 21.638 82.0652 21.648 81.244 21.6579C83.0262 21.7186 77.8612 21.7916 81.6662 21.8168C84.5075 21.8357 85.2076 21.779 86.5558 21.7794C86.9426 21.7794 87.2714 21.7834 87.5825 21.7887L87.0801 21.9563C87.6202 21.5654 88.0995 21.2285 88.8215 20.6882C95.9435 15.3583 101.735 11.0041 108.483 5.92053C109.816 4.91613 111.042 4.02001 111.937 3.34507C112.948 2.58308 111.65 3.49645 112.947 2.53798C114.309 1.53149 114.626 1.34296 114.984 1.07521C115.013 1.05317 115.051 1.0243 115.095 0.989649L115.311 0.829185L115.573 0.830467C115.943 0.823753 116.7 0.797277 117.404 0.797277C120.74 0.797285 125.628 0.831285 126.102 0.831089C126.638 0.830696 136.072 0.798967 136.523 0.793192C136.763 0.790049 136.266 0.660202 138.345 0.798639C138.994 0.80121 139.642 0.803782 140.291 0.806355C140.186 0.780409 140.081 0.754465 139.976 0.728519C143.819 0.826876 142.497 0.771851 146.201 0.779577C155.072 0.798172 168.156 0.77631 177.858 0.785477C180.025 0.787577 180.85 0.818642 183.413 0.820877C185.794 0.822842 192.011 0.730146 190.659 0.858545C195.957 0.747364 196.809 0.939091 199.461 0.819515C199.782 0.836912 200.103 0.854311 200.424 0.871708C203.303 0.797058 204.191 0.862665 207.335 0.871708C208.689 0.875637 207.128 0.796236 209.862 0.884642C210.384 0.878061 210.907 0.871481 211.429 0.864901C211.308 0.845688 211.186 0.826475 211.065 0.807262C214.101 0.822977 214.297 0.812967 213.95 0.884869C215.417 0.871782 216.882 0.858698 218.349 0.845612C218.531 0.869211 218.713 0.892811 218.895 0.91641C218.193 0.961426 184.906 0.893541 180.27 0.871935C174.833 0.925352 163.912 0.858568 159.52 0.871254C157.762 0.876362 156.986 0.929735 154.428 0.936153C151.871 0.942566 148.653 0.894089 147.291 0.892357C142.755 0.886333 121.265 0.896982 135.881 0.963385C135.461 0.989405 135.041 1.01542 134.621 1.04144C128.813 0.952656 130.916 1.00732 126.096 1.01648C124.068 1.0204 119.243 0.962292 119.512 1.08047C123.28 1.10248 127.282 1.0647 130.558 1.06641C130.883 1.06659 134.761 1.12055 136.758 1.10589C138.558 1.09251 137.318 0.979843 141.237 1.10634C144.147 0.982773 145.829 1.09488 146.598 1.1068C147.926 1.12746 148.071 1.06647 149.399 1.05937C150.846 1.05153 151.842 1.09201 152.039 1.09228C154.023 1.09319 164.355 1.09871 164.829 1.07412C164.413 1.0633 163.998 1.05249 163.582 1.04167C166.266 1.02427 165.705 1.08663 166.41 1.09409C166.936 1.09386 167.461 1.09364 167.986 1.09341C167.778 1.08047 167.57 1.06754 167.362 1.05461C170.531 1.05736 168.106 1.1023 172.604 1.10113C175.46 1.10033 178.41 1.05095 178.688 1.05461C178.77 1.05565 177.871 1.08895 179.035 1.09341C180.962 1.10074 184.295 1.0999 184.668 1.05461C185.612 1.06102 185.531 1.10534 185.657 1.10634C186.205 1.11067 195.635 1.12573 197.324 1.12836C202.005 1.13556 207.216 1.12611 212.288 1.13358C212.809 1.13432 212.477 1.10588 212.999 1.1068C213.838 1.10826 218.145 1.15289 218.788 1.15604C220.394 1.16376 224.618 1.14606 225.282 1.15899C225.377 1.16082 223.987 1.19926 225.612 1.21118C227.417 1.22437 226.445 1.17267 226.543 1.17215C230.216 1.15447 232.534 1.19039 235.041 1.19734C235.854 1.19957 237.353 1.16066 238.5 1.17215C238.632 1.17346 238.37 1.20941 238.5 1.21118C240.232 1.23004 241.853 1.16331 242.603 1.15899C244.437 1.14843 243.438 1.19767 243.534 1.19802C244.756 1.19959 246.401 1.18183 248.259 1.18418C256.543 1.19466 263.304 1.19766 272.111 1.19439C273.217 1.194 274.53 1.15926 274.699 1.15922C275.222 1.15948 275.073 1.2003 276.584 1.19938C279.772 1.19729 282.728 1.19926 285.884 1.19847C286.519 1.19831 286.79 1.16049 287.275 1.15967C288.9 1.15731 294.441 1.25635 294.532 1.13312C297.758 1.24221 299.9 1.14819 302.496 1.14923C308.644 1.15159 318.272 1.17382 324.402 1.15967C325.693 1.15664 326.298 1.12507 327.016 1.12336C328.304 1.12023 335.664 1.13787 336.049 1.13289C336.805 1.12333 336.352 0.984289 340.239 1.10544C342.518 1.11407 342.249 1.057 342.72 1.05393C346.393 1.03101 349.966 1.15837 349.298 1.04167C353.575 1.07336 356.346 1.13785 358.092 1.02874C358.069 1.08198 360.08 1.11393 362.504 1.09364C360.022 1.00419 360.329 0.947023 354.327 0.963385C354.232 0.963646 354.413 1.00215 354.318 1.00241C353.461 1.00501 351.673 0.985575 350.212 0.987665C348.751 0.989759 349.562 1.01608 348.977 1.01558C348.442 1.01505 348.46 0.978205 347.685 0.97768C345.171 0.976238 342.947 0.966082 341.517 0.965425C340.616 0.965046 339.608 0.997423 338.909 0.997423C336.206 0.997158 330.479 0.971874 327.039 0.97541C326.323 0.976236 326.623 1.01257 325.056 1.01558C324.872 1.01593 324.205 0.978046 322.832 0.970192C321.459 0.962336 320.394 0.981146 319.513 0.977226C318.775 0.973953 319.084 0.9403 317.572 0.938196C316.312 0.936493 302.042 0.960737 301.267 0.966106C300.152 0.973846 299.622 1.02111 298.942 1.01535C298.822 1.01411 298.62 0.968466 298.205 0.965199C291.363 0.911253 276.22 0.97353 268.401 0.973141C252.06 0.972486 236.983 0.945627 220.497 0.935019C220.203 0.927076 219.909 0.919134 219.615 0.911192C221.282 0.910889 222.948 0.910587 224.615 0.910284C224.625 0.888802 224.636 0.867321 224.646 0.845839C226.899 0.842438 226.601 0.893242 226.537 0.923899C227.371 0.910889 228.205 0.897879 229.039 0.884869C229.758 0.959732 235.318 0.909941 238.185 0.910057C240.049 0.910057 242.268 0.938597 243.251 0.93638C245.328 0.931801 245.273 0.885605 245.437 0.884869C245.714 0.883821 248.613 0.924564 250.705 0.922993C253.797 0.920748 254.132 0.849819 258.365 0.910057C263.789 0.873257 269.799 0.891779 275.645 0.897804C274.532 0.832241 279.771 0.894295 282.133 0.893265C296.547 0.886848 314.263 0.858835 328.867 0.832905C330.743 0.829632 332.161 0.791006 333.207 0.792284C333.774 0.79294 334.021 0.838474 334.809 0.832451C334.947 0.831291 335.043 0.788712 336.509 0.782301C340.157 0.766191 349.243 0.83725 351.542 0.755524C364.013 0.768156 376.485 0.780788 388.956 0.793419C389.269 0.776022 389.583 0.758625 389.896 0.741228C392.265 0.830133 401.631 0.777889 406.198 0.782074C414.237 0.789539 424.494 0.817183 431.537 0.820196C433.068 0.82085 434.322 0.79563 435.77 0.796143C436.394 0.796404 437.169 0.829103 437.818 0.829273C445.1 0.831762 454.961 0.79808 462.3 0.798866C478.964 0.800568 494.657 0.79561 511.541 0.79705C550.639 0.800562 589.583 0.824383 628.427 0.832636L628.695 0.833952L628.903 0.991383C638.239 7.99846 647.568 14.999 656.892 21.9932L656.417 21.8349C662.398 21.8342 668.377 21.8329 674.354 21.8309C675.11 21.8306 675.072 21.793 675.658 21.7927C679.117 21.7909 686.84 21.8219 690.746 21.8202C693.858 21.8189 698.798 21.7614 699.869 21.8193C688.813 21.9069 677.132 21.9003 665.622 21.9248C664.803 21.9265 664.702 21.9623 664.601 21.9629C662.737 21.9753 663.914 21.9261 661.212 21.9239C660.763 21.9235 658.481 21.9515 656.417 21.9658L656.814 22.0979C655.132 20.8543 653.639 19.7348 654.073 19.989C652.448 18.8264 641.169 10.3931 639.004 8.75012C638.347 8.25117 638.835 8.57489 638.705 8.47523C638.14 8.0424 637.855 7.8867 637.346 7.50608C635.989 6.49134 632.563 3.87444 631.908 3.38314C631.277 2.90976 630.114 2.04546 628.829 1.09046L628.654 0.957609L628.427 0.956499C626.205 0.966358 623.69 0.976954 622.244 0.971781C619.963 0.963659 620.39 0.915192 618.418 0.910738C616.864 0.907354 618.557 0.948124 615.087 0.960434C613.368 0.966457 607.352 0.937292 605.889 0.937288C604.428 0.937288 602.802 0.966291 600.786 0.964066C597.882 0.96092 591.564 0.944773 588.609 0.935472C588.433 0.934948 588.003 0.897245 587.568 0.898031C586.668 0.899611 586.938 0.946177 586.258 0.950903C585.578 0.955618 573.796 0.949928 571.795 0.950449C570.416 0.950712 569.463 0.922974 568.701 0.92322C568.103 0.923481 568.039 0.962269 567.429 0.962704C567.24 0.962704 565.632 0.929014 564.025 0.9298C562.507 0.93059 556.744 0.962627 556.076 0.962931C555.642 0.96306 556.118 0.935499 554.833 0.936153C553.662 0.936829 552.892 0.972618 552.225 0.973141C550.676 0.974306 548.944 0.943789 547.301 0.943642C542.576 0.943249 542.819 0.987585 542.535 0.989027C541.749 0.993031 541.434 0.952421 541.176 0.951584C540.087 0.948179 537.417 0.94068 536.446 0.939104C535.236 0.93714 534.724 0.975733 533.438 0.975864C532.48 0.975838 530.546 0.938213 528.361 0.93638C523.434 0.932058 517.576 0.924955 512.738 0.926395C511.295 0.926788 511.074 0.962013 510.633 0.962931C508.315 0.967764 507.018 0.928377 506.356 0.928892C501.637 0.932428 493.22 0.994226 488.842 0.999464C487.059 1.00156 479.253 0.973026 474.85 0.978134C474.346 0.978662 474.818 1.00628 474.257 1.00196C472.916 0.991598 473.04 0.935358 472.36 0.937061C472.032 0.938055 471.283 0.969761 470.327 0.972914C465.369 0.989286 461.96 0.964632 459.698 0.966333C437.976 0.982706 415.826 0.997438 395.54 1.00241C393.278 1.00294 390.474 0.969481 387.059 1.00196C386.954 1.01943 386.849 1.03691 386.744 1.05438C386.624 1.03721 386.505 1.02004 386.385 1.00287C382.518 0.993568 381.056 0.97147 377.107 0.993338C376.766 0.995171 375.728 1.07494 375.085 0.975864C371.173 1.04764 373.32 0.975283 370.415 0.968603C367.512 0.961926 364.689 0.984047 361.874 0.989027C360.33 1.02452 366.807 1.10638 367.229 1.10612C367.909 1.1058 368.616 1.05654 369.27 1.05393C371.21 1.04609 373.086 1.08518 373.521 1.04122C376.028 1.0877 372.907 1.06448 373.22 1.10634C374.893 1.08902 376.567 1.0717 378.24 1.05438C379.092 1.19678 388.338 1.01107 387.695 1.11951C388.431 1.0978 389.166 1.07609 389.902 1.05438C393.127 1.19041 395.023 1.09463 399.325 1.05415C399.015 1.07155 398.704 1.08895 398.394 1.10634C398.482 1.11361 402.279 1.14142 400.921 1.06731C404.813 1.16496 404.65 1.00254 408.139 1.11996C410.211 1.13502 408.965 1.06682 412.676 1.068C414.874 1.06865 417.604 1.10431 420.061 1.1068C420.627 1.10726 420.873 1.06777 421.376 1.06777C421.88 1.06778 422.125 1.1065 422.735 1.10748C423.995 1.10958 425.629 1.08239 426.416 1.08501C427.122 1.08725 428.13 1.1214 429.831 1.12677C435.771 1.14575 433.976 1.09698 434.914 1.08047C435.922 1.06293 436.647 1.12718 438.656 1.11973C438.858 1.11895 438.336 1.0789 438.992 1.08047C439.52 1.08171 439.786 1.12523 441.536 1.13335C442.233 1.13662 453.053 1.14595 454.701 1.14674C457.228 1.14791 462.855 1.11107 465.47 1.11134C466.477 1.11134 467.554 1.14629 468.624 1.14606C472.171 1.14527 477.849 1.14231 482.348 1.14061C486.398 1.13903 493.509 1.0619 495.727 1.13153C501.414 1.14057 502.796 1.08106 503.225 1.08025C504.384 1.07802 504.921 1.11744 506.382 1.11928C525.313 1.1422 550.242 1.11614 568.172 1.11928C588.216 1.12294 608.312 1.12984 628.427 1.13422L628.593 1.13503L628.722 1.23262C638.048 8.23234 647.379 15.235 656.71 22.2358L656.417 22.1382C666.386 22.1379 676.353 22.1363 686.316 22.1324C686.428 22.1499 686.54 22.1674 686.652 22.1849C681.719 22.1961 675.922 22.2265 671.052 22.2334C666.773 22.2394 661.133 22.21 656.417 22.2232L656.659 22.3038C654.696 20.8392 652.925 19.5335 651.596 18.5877C653.137 19.7568 655.685 21.6111 655.603 21.6263C652.834 19.5549 650.066 17.4836 647.298 15.4122C647.398 15.4514 647.497 15.4906 647.597 15.5298C644.714 13.3569 641.757 11.1461 638.862 8.96891C638.359 8.59076 638.731 8.83759 638.293 8.50864C637.802 8.14065 638.119 8.41104 638.027 8.34228C636.788 7.4126 636.429 7.1107 636.278 6.99754C635.889 6.70726 636.176 6.9538 635.053 6.12012C632.97 4.57365 631.524 3.4051 631.944 3.86017C631.274 3.3575 630.604 2.85485 629.934 2.35218C629.779 2.19771 629.624 2.04323 629.469 1.88876C629.19 1.68993 628.922 1.49726 628.664 1.31034L628.561 1.23204L628.427 1.23138C623.948 1.30705 621.701 1.12995 619.043 1.28947C618.104 1.26337 617.165 1.23728 616.227 1.21118C615.697 1.24159 615.168 1.272 614.639 1.3024C614.536 1.27631 614.433 1.25021 614.33 1.22412C609.271 1.24336 603.886 1.21203 599.048 1.21504C595.678 1.21714 594.87 1.22744 591.885 1.22548C585.246 1.22103 591.839 1.27281 586.322 1.32873C586.609 1.29673 586.897 1.26474 587.184 1.23274C586.27 1.22102 585.356 1.20929 584.443 1.19757C583.806 1.22366 583.17 1.24976 582.534 1.27586C579.712 1.1405 577.884 1.24976 577.5 1.24976C577.19 1.24952 576.123 1.16804 572.784 1.23705C574.169 1.12565 570.236 1.2364 569.921 1.23705C569.622 1.2375 565.793 1.21263 564.239 1.21368C563.017 1.21447 560.41 1.23845 558.589 1.23728C556.982 1.23623 557.145 1.19841 557.028 1.19802C555.05 1.19488 556.289 1.22426 554.859 1.22571C553.429 1.22714 552.32 1.19491 552.011 1.19779C551.856 1.19933 552.375 1.23456 551.664 1.23796C549.755 1.24724 546.303 1.21639 544.117 1.21731C543.342 1.21759 542.366 1.24748 541.503 1.2484C540.18 1.2497 539.562 1.21 538.794 1.21118C538.526 1.2117 536.82 1.27302 534.699 1.2636C534.296 1.26171 533.11 1.13195 531.536 1.31579C531.414 1.28992 531.293 1.26406 531.171 1.23819C524.059 1.17414 522.08 1.3843 518.917 1.19779C513.753 1.21862 517.298 1.29127 516.731 1.3024C516.365 1.30944 514.681 1.28947 514.496 1.29061C514.168 1.29283 514.225 1.31615 513.865 1.31602C507.282 1.3117 510.205 1.26767 508.12 1.23977C503.162 1.17337 499.294 1.32079 507.918 1.27654C507.918 1.28955 507.918 1.30256 507.918 1.31557C505.794 1.30313 500.404 1.30904 502.204 1.37502C503.621 1.42701 516.409 1.39308 509.167 1.46601C507.522 1.48252 506.671 1.43369 503.823 1.52524C501.94 1.53021 501.669 1.41161 499.119 1.45921C499.538 1.41783 499.957 1.37646 500.376 1.33508C496.899 1.28115 492.609 1.3535 489.938 1.33032C489.03 1.32242 485.761 1.12515 486.523 1.32237C484.997 1.31008 477.81 1.34641 476.475 1.32873C476.154 1.32446 475.735 1.21946 471.088 1.25611C470.765 1.26927 470.442 1.28244 470.119 1.2956C474.37 1.33384 466.863 1.37273 468.902 1.47237C469.595 1.42759 472.965 1.40027 473.508 1.37774C474.434 1.33898 471.676 1.28901 475.191 1.30263C477.407 1.46916 471.071 1.39253 472.039 1.55066C467.424 1.47684 466.963 1.54727 465.918 1.5502C461.451 1.56212 458.641 1.54536 454.427 1.56382C453.4 1.53134 461.029 1.48445 461.974 1.49846C458.496 1.38334 464.482 1.37813 467.008 1.4465C467.22 1.41171 467.432 1.37691 467.644 1.34212C464.355 1.36098 461.148 1.37066 457.891 1.34212C457.679 1.35513 457.467 1.36814 457.255 1.38115C457.985 1.40074 458.716 1.42033 459.446 1.43992C456.738 1.472 458.362 1.37054 454.753 1.45943C454.642 1.42025 454.53 1.38107 454.418 1.34189C450.958 1.3549 447.498 1.36791 444.037 1.38092C442.236 1.30235 435.578 1.33162 436.797 1.43334C434.109 1.44052 437.427 1.38638 434.909 1.36163C433.812 1.35089 431.67 1.34787 431.141 1.37525C431.369 1.47211 434.575 1.48414 435.545 1.55066C434.956 1.57212 420.047 1.50296 421.376 1.61624C420.186 1.62986 420.733 1.5715 418.586 1.55656C412.569 1.51491 403.25 1.63025 398.406 1.48553C404.094 1.40498 405.777 1.4903 410.137 1.4937C412.921 1.49593 429.899 1.50966 426.107 1.40724C426.73 1.42025 427.354 1.43326 427.978 1.44627C428.608 1.41579 429.238 1.38531 429.869 1.35482C428.092 1.35044 426.316 1.34605 424.54 1.34166C424.115 1.37207 423.691 1.40248 423.267 1.43288C423.072 1.41118 422.876 1.38947 422.68 1.36776C421.932 1.36345 421.184 1.35913 420.436 1.35482C420.647 1.38092 420.857 1.40702 421.067 1.43311C419.914 1.43757 418.761 1.44204 417.608 1.4465C417.919 1.41163 418.229 1.37676 418.54 1.34189C413.111 1.33312 414.949 1.35496 411.938 1.42018C409.69 1.42685 413.488 1.35982 408.731 1.3428C403.201 1.32303 406.829 1.42958 399.666 1.40679C399.563 1.38939 399.46 1.37199 399.357 1.3546C397.782 1.37199 396.207 1.38939 394.632 1.40679C394.84 1.38516 395.049 1.36352 395.257 1.34189C392.006 1.35027 387.526 1.30898 386.449 1.39385C389.744 1.35299 389.712 1.50118 388.855 1.52842C387.086 1.58432 360.959 1.53231 355.894 1.52865C349.418 1.52393 344.523 1.5714 338.608 1.49846C342.617 1.43864 356.713 1.48765 359.384 1.44627C359.649 1.44221 359.574 1.30637 361.275 1.45921C366.756 1.43329 373.307 1.47659 380.154 1.47214C379.945 1.43304 379.736 1.39393 379.527 1.35482C375.318 1.43799 371.423 1.25532 371.971 1.40724C371.134 1.40724 370.296 1.40724 369.458 1.40724C369.458 1.38107 369.458 1.3549 369.458 1.32873C368.196 1.32873 366.933 1.32873 365.67 1.32873C365.67 1.3549 365.67 1.38107 365.67 1.40724C364.625 1.40724 363.579 1.40724 362.533 1.40724C362.424 1.38115 362.315 1.35505 362.206 1.32895C359.075 1.38316 348.399 1.23823 353.092 1.39408C351.621 1.39408 350.15 1.39408 348.68 1.39408C348.684 1.37494 348.689 1.35581 348.694 1.33667C348.062 1.3341 347.429 1.33153 346.797 1.32895C347.005 1.34628 347.214 1.3636 347.422 1.38092C344.524 1.34988 341.777 1.44107 339.875 1.38115C341.13 1.36806 342.385 1.35497 343.64 1.34189C341.233 1.36675 336.799 1.31524 336.402 1.31511C335.193 1.31485 334.555 1.35354 333.244 1.3555C332.062 1.35718 332.224 1.32745 332.004 1.3285C325.623 1.35876 328.055 1.5197 325.076 1.32918C324.759 1.3552 324.442 1.38122 324.125 1.40724C323.702 1.38553 323.28 1.36382 322.858 1.34212C320.974 1.34416 319.089 1.3462 317.205 1.34824C317.833 1.31572 318.462 1.28319 319.09 1.25067C316.266 1.23615 314.949 1.30136 314.675 1.30286C313.901 1.30665 313.547 1.26572 313.307 1.26564C301.797 1.26918 308.788 1.30522 303.036 1.45898C300.986 1.39864 303.06 1.33815 303.352 1.27676C300.625 1.30556 299.773 1.28856 296.895 1.29197C296.146 1.29289 295.34 1.32601 294.868 1.32646C294.458 1.32685 293.179 1.29166 292.196 1.29151C290.558 1.29125 288.378 1.31223 286.135 1.31171C284.27 1.31119 278.562 1.28633 274.581 1.28607C272.882 1.28607 273.276 1.3155 272.837 1.31557C272.654 1.31557 271.33 1.28031 270.24 1.28017C261.351 1.27938 252.242 1.3017 243.308 1.30104C237.015 1.30065 230.62 1.27229 224.314 1.27518C222.972 1.27583 223.682 1.30172 223.096 1.30263C222.895 1.30286 222.653 1.25769 220.578 1.27586C219.828 1.2824 220.69 1.314 219.953 1.31557C219.595 1.31632 219.442 1.27672 217.345 1.26769C213.534 1.25119 211.486 1.30398 211.146 1.3024C210.504 1.29937 210.692 1.2666 209.842 1.26542C205.684 1.25965 202.214 1.2541 198.504 1.25135C196.771 1.25004 184.826 1.24341 184.17 1.24931C182.703 1.2624 184.069 1.33083 182.187 1.3285C181.66 1.31118 181.132 1.29386 180.605 1.27654C181.443 1.26337 182.28 1.25021 183.118 1.23705C180.812 1.25905 178.198 1.22793 176.49 1.22911C176.175 1.22938 173.272 1.26041 171.792 1.25702C172.421 1.26988 173.05 1.28274 173.68 1.2956C173.457 1.30657 173.234 1.31753 173.012 1.3285C170.051 1.31187 166.919 1.3123 163.883 1.31466C162.788 1.31546 163.158 1.34211 162.05 1.34302C155.594 1.34864 157.224 1.23785 151.013 1.44582C153.11 1.42697 160.761 1.45342 161.874 1.4465C162.648 1.44165 165.654 1.26593 164.551 1.44627C170.75 1.44549 165.366 1.34602 171.155 1.36776C171.04 1.38977 170.924 1.41178 170.808 1.43379C172.83 1.44767 174.323 1.45879 175.551 1.41995C175.963 1.52674 182.83 1.46426 186.596 1.47146C192.039 1.48168 198.189 1.50772 203.581 1.51231C205.439 1.51386 206.491 1.47201 206.724 1.47214C207.065 1.47244 208.022 1.5091 208.702 1.50936C211.241 1.5104 218.966 1.44844 220.887 1.5502C205.78 1.5502 190.673 1.5502 175.565 1.5502C177.465 1.50019 162.183 1.4953 161.408 1.49779C160.691 1.50002 161.294 1.53514 161.081 1.53727C159.494 1.55233 158.139 1.50142 157.635 1.50142C157.25 1.50142 156.474 1.52531 155.107 1.52479C154.857 1.52471 154.787 1.49945 154.517 1.49937C152.735 1.49937 150.975 1.49973 149.185 1.4996C149.076 1.49985 148.625 1.53675 148.173 1.53682C147.72 1.53682 147.273 1.49994 147.158 1.49983C145.728 1.50009 143.277 1.52407 141.916 1.52433C141.444 1.52432 141.771 1.4973 141.242 1.49756C139.617 1.49821 140.152 1.55112 138.143 1.5375C137.469 1.53291 137.512 1.49245 136.223 1.49779C135.309 1.50158 135.408 1.57368 135.263 1.5763C135.062 1.57947 131.91 1.52253 130.879 1.56972C133.132 1.6943 128.414 1.57622 128.641 1.52365C127.392 1.53689 126.143 1.55013 124.893 1.56337C124.467 1.55005 124.041 1.53674 123.615 1.52343C120.483 1.5607 118.111 1.56091 115.573 1.56015L115.551 1.56004L115.533 1.57332C114.296 2.50077 113.01 3.4646 111.513 4.59665C111.322 4.74107 107.998 7.27184 108.166 7.16961C110.185 5.6947 112.182 4.19865 113.426 3.19065C114.428 2.50438 114.964 2.11317 115.585 1.64241L115.573 1.64653C116.485 1.64181 117.554 1.61923 119.848 1.62736C121.271 1.63247 121.373 1.66327 121.536 1.66366C127.073 1.67899 135.942 1.69224 139.672 1.60217C140.718 1.62653 136.959 1.63619 138.42 1.65413C139.217 1.66396 158.403 1.69273 152.274 1.58901C152.91 1.59188 153.546 1.59476 154.182 1.59763C154.818 1.6956 157.982 1.67319 157.623 1.57562C157.923 1.59559 158.222 1.61556 158.522 1.63553C159.114 1.65242 159.815 1.66147 160.798 1.66684C164.561 1.68727 186.95 1.65328 188.14 1.6673C188.167 1.69044 188.194 1.71359 188.221 1.73673C178.331 1.76293 168.735 1.70541 157.95 1.77168C158.263 1.74997 158.576 1.72826 158.889 1.70655C154.586 1.73696 150.282 1.76737 145.979 1.79778C150.534 1.83707 157.78 1.87006 162.562 1.83771C163.412 1.83194 162.789 1.80167 162.984 1.798C163.494 1.78848 164.043 1.841 165.875 1.84611C167.709 1.85121 172.315 1.81397 172.737 1.81502C173.551 1.81718 175.747 1.87728 177.132 1.87652C178.953 1.87547 177.733 1.83827 178.098 1.83749C179.61 1.83383 180.965 1.85226 182.149 1.84951C183.907 1.84542 187.559 1.78001 188.788 1.87606C187.532 1.88045 186.276 1.88484 185.02 1.88923C191.831 1.92367 197.155 1.80089 203.865 1.89558C205.389 2.01188 199.845 1.99616 204.533 2.0458C203.682 2.04414 202.831 2.04247 201.979 2.04081C201.78 2.01645 201.58 1.9921 201.381 1.96774C199.915 1.98514 198.449 2.00253 196.983 2.01993C197.401 1.99822 197.819 1.97651 198.238 1.95481C193.04 1.93843 187.792 1.91617 185.978 2.03287C185.871 2.00465 185.764 1.97644 185.657 1.94823C180.831 1.98253 173.587 1.86294 174.941 2.01993C174.712 2.01161 174.484 2.00329 174.255 1.99497C171.338 2.02706 172.584 1.96214 171.488 1.95481C171.175 1.95274 165.505 1.98626 168.018 2.03287C162.487 2.06849 164.193 1.92176 162.669 1.91532C159.128 1.98801 152.759 1.87897 155.437 1.99384C154.91 1.99815 154.383 2.00246 153.855 2.00677C152.123 1.9164 150.415 2.01865 148.538 2.05284C147.902 2.05488 147.265 2.05692 146.629 2.05896C146.203 2.02855 145.777 1.99815 145.351 1.96774C139.366 2.11246 141.261 1.71667 138.527 2.0492C138.953 2.0691 139.379 2.08899 139.805 2.10888C140.815 2.11834 141.825 2.12779 142.836 2.13725C138.761 2.14602 134.687 2.1548 130.613 2.16357C125.442 2.25678 122.499 2.15565 116.754 2.22938C116.36 2.2229 115.966 2.21643 115.573 2.20995L115.923 2.0931C115.807 2.17773 115.69 2.26237 115.573 2.34701C115.666 2.29543 115.802 2.20728 115.94 2.1152L115.573 2.23758C116.095 2.26607 116.654 2.27206 115.573 2.28481L115.968 2.15298C115.683 2.37216 115.253 2.70082 114.63 3.17682C114.489 3.32339 115.209 2.80224 116.005 2.20214L115.573 2.34627C116.218 2.34487 116.908 2.33619 117.378 2.32015C117.667 2.31018 115.212 2.2694 117.971 2.26796C119.847 2.26693 116.441 2.33092 122.06 2.30721C121.852 2.32022 121.643 2.33323 121.435 2.34624C122.044 2.34587 122.653 2.34549 123.263 2.34511C123.804 2.31501 124.346 2.2849 124.888 2.2548C126.28 2.29828 127.061 2.35921 130.243 2.34624C129.38 2.32739 130.551 2.26694 132.125 2.26796C132.125 2.28974 132.125 2.31153 132.125 2.33331C135.937 2.34732 134.621 2.28341 137.79 2.33331C138.107 2.31599 138.424 2.29867 138.741 2.28135C140.467 2.35272 146.823 2.40128 145.664 2.29428C147.446 2.39827 151.191 2.35135 152.583 2.26818C152.69 2.28982 152.797 2.31145 152.904 2.33308C153.645 2.33747 154.386 2.34186 155.128 2.34624C155.541 2.33316 155.955 2.32007 156.368 2.30699C156.893 2.32007 157.419 2.33316 157.944 2.34624C158.261 2.32454 158.578 2.30283 158.895 2.28112C159.74 2.30714 160.584 2.33316 161.428 2.35918C161.945 2.34186 162.462 2.32454 162.978 2.30721C163.032 2.3525 168.15 2.36258 169.58 2.33286C170.006 2.34602 170.432 2.35918 170.858 2.37234C171.066 2.35078 171.274 2.32923 171.482 2.30767C171.799 2.32491 172.116 2.34216 172.434 2.35941C173.164 2.34216 173.895 2.32491 174.625 2.30767C177.605 2.41335 177.701 2.32063 178.381 2.32128C179.643 2.3225 183.938 2.38868 184.656 2.38527C185.373 2.38185 185.72 2.34391 186.299 2.34035C195.842 2.28076 191.919 2.38255 193.834 2.39866C194.867 2.40744 195.598 2.37205 196.512 2.37597C198.074 2.38252 205.956 2.42934 206.409 2.42476C207.07 2.41815 205.515 2.25127 207.661 2.29428C207.733 2.38388 212.322 2.29345 210.177 2.41841C212.067 2.40744 213.957 2.39647 215.847 2.3855C215.633 2.49172 217.964 2.4234 220.503 2.4293C224.1 2.43756 232.2 2.5074 231.904 2.39844C232.766 2.42347 233.628 2.44851 234.489 2.47355C240.385 2.43925 246.169 2.47519 252.021 2.4765C269.39 2.48056 288.233 2.45691 305.52 2.43542C306.351 2.43436 306.232 2.39877 306.83 2.39798C309.974 2.39405 318.145 2.41923 322.549 2.41137C323.959 2.40888 324.646 2.37416 325.093 2.37257C326.612 2.36694 326.253 2.41268 326.952 2.41137C328.055 2.40927 333.889 2.36681 335.899 2.36236C336.894 2.36015 338.071 2.3965 339.236 2.38527C339.336 2.38436 339.151 2.3469 339.236 2.34624C341.359 2.34166 340.082 2.37404 340.8 2.37234C345.922 2.36016 351.396 2.35942 356.952 2.35169C358.332 2.34973 360.444 2.32332 361.628 2.32083C362.08 2.31995 361.269 2.34837 362.831 2.34602C363.366 2.34521 363.548 2.30825 364.152 2.30585C366.754 2.29577 367.624 2.41455 369.86 2.31901C374.176 2.3253 381.688 2.3558 385.625 2.35646C386.556 2.35657 387.01 2.33474 387.898 2.33513C388.528 2.33539 389.636 2.36921 390.619 2.36962C391.601 2.37001 393.153 2.3378 395.043 2.33898C397.033 2.34017 399.507 2.3593 399.956 2.35918C400.497 2.35918 400.75 2.3185 401.291 2.31901C402.929 2.32032 407.315 2.3603 409.425 2.36463C411.693 2.36921 413.054 2.34948 413.829 2.34988C414.547 2.35042 415.384 2.38475 415.712 2.38505C416.222 2.38557 416.342 2.34546 416.99 2.34579C418.048 2.34645 419.139 2.37167 420.726 2.37234C449.302 2.38478 477.32 2.36274 505.121 2.33354C508.221 2.33027 509.972 2.3584 514.539 2.34556C516.391 2.34033 515.611 2.29893 517.052 2.30676C517.695 2.3103 517.532 2.34285 518.344 2.34443C521.935 2.35124 526.119 2.32099 527.676 2.32151C528.293 2.32166 528.998 2.35864 530.263 2.35918C539.694 2.36337 550.852 2.35299 561.001 2.35941C566.375 2.36281 574.51 2.38165 580.678 2.38414C596.575 2.39062 613.596 2.3836 628.427 2.3856L627.971 2.2336C628.824 2.87394 629.669 3.50752 630.503 4.13361C639.002 10.513 647.478 16.8832 655.952 23.2464L656.163 23.4028L656.417 23.4016C669.222 23.4072 682.016 23.4074 694.829 23.3853C683.874 23.4747 668.956 23.4673 656.759 23.477C656.645 23.477 656.531 23.4771 656.417 23.4772L656.138 23.4786L655.906 23.3069C646.729 16.4327 637.365 9.40771 627.913 2.3117L628.427 2.48324C604.034 2.47639 579.159 2.4534 554.917 2.45471C542.355 2.45537 526.516 2.45331 512.764 2.474C512.14 2.47492 510.847 2.44648 509.499 2.4495C509.213 2.4502 505.661 2.50207 504.465 2.50259C505.599 2.41039 500.912 2.49257 499.463 2.49034C497.635 2.48744 493.824 2.44136 489.548 2.46742C485.667 2.491 486.737 2.52646 486.523 2.52869C485.15 2.54306 484.671 2.4859 483.62 2.48013C479.323 2.45708 457.223 2.49029 451.055 2.49238C449.461 2.49291 449.416 2.52924 449.057 2.52937C448.106 2.52961 446.752 2.49373 445.229 2.49397C442.482 2.4945 439.318 2.52879 437.806 2.52892C434.19 2.52931 427.328 2.48886 422.628 2.48807C421.307 2.48783 421.388 2.52564 420.789 2.52551C418.155 2.52485 411.295 2.4803 408.026 2.4799C402.715 2.47925 397.252 2.50369 391.853 2.49125C391.511 2.50812 391.169 2.52498 390.827 2.54185C390.287 2.52415 389.747 2.50645 389.208 2.48875C380.079 2.50224 370.787 2.46425 361.709 2.46674C360.663 2.467 355.485 2.49928 354.622 2.49942C353.904 2.49942 353.197 2.45764 352.132 2.46379C350.641 2.47233 352.044 2.5519 349.608 2.52914C348.953 2.52299 349.588 2.48893 348.272 2.47831C347.837 2.47478 339.4 2.46098 338.947 2.46334C338.191 2.46731 337.517 2.54028 337.322 2.54185C336.308 2.55009 336.351 2.49409 335.67 2.48898C333.663 2.47369 331.041 2.51136 330.714 2.51054C326.771 2.50019 319.398 2.45549 315.259 2.48195C314.687 2.48563 314.755 2.52734 314.655 2.52869C314.006 2.53733 313.603 2.48985 312.986 2.48875C309.666 2.48338 304.467 2.51535 301.128 2.52347C300.743 2.52435 299.932 2.50152 299.246 2.50373C295.365 2.51656 296.624 2.55322 296.403 2.55479C295.88 2.55868 294.961 2.51826 293.569 2.51576C289.985 2.50908 283.111 2.51488 279.268 2.51802C276.389 2.52051 276.432 2.5668 276.243 2.56772C275.84 2.56938 274.718 2.53242 272.823 2.52824C269.175 2.51999 269.591 2.55635 268.092 2.55479C267.966 2.55479 268.185 2.5192 266.522 2.51553C263.308 2.50847 256.091 2.54346 252.651 2.54162C251.328 2.54097 251.019 2.50665 249.664 2.506C247.517 2.50482 242.67 2.54195 242.288 2.54185C242.181 2.54185 241.94 2.50237 241.31 2.50237C240.617 2.50237 239.936 2.52269 239.419 2.52256C236.478 2.52202 231.41 2.45311 232.818 2.59404C231.875 2.55925 230.933 2.52445 229.99 2.48966C223.829 2.4966 217.843 2.48266 211.738 2.47559C210.365 2.47402 209.219 2.50071 208.06 2.49942C206.902 2.49811 201.79 2.45395 200.936 2.45312C199.411 2.45168 190.748 2.44703 189.67 2.45018C187.566 2.4562 185.525 2.51444 184.668 2.50305C183.981 2.49388 184.616 2.46106 183.306 2.45176C181.038 2.43568 177.183 2.47783 176.49 2.47718C176.195 2.47691 176.748 2.45133 173.978 2.4495C172.485 2.44845 171.683 2.47663 171.141 2.4765C170.973 2.47635 171.225 2.43065 168.27 2.43679C166.229 2.44111 165.358 2.47637 165.144 2.4765C164.822 2.47673 164.047 2.43911 162.755 2.44042C159.738 2.4437 154.22 2.48684 151.354 2.49011C150.8 2.49077 150.988 2.44531 148.778 2.4495C147.197 2.45251 147.473 2.48867 146.881 2.49011C145.942 2.49234 144.544 2.44806 142.471 2.4495C139.863 2.45133 120.497 2.49726 119.495 2.50917C118.821 2.51716 118.039 2.51767 117.705 2.53731C117.991 2.55615 118.278 2.57498 118.564 2.59382C121.53 2.52772 120.333 2.60326 121.12 2.60811C122.26 2.61506 126.558 2.60542 127.597 2.62218C127.967 2.62824 127.119 2.66844 129.109 2.68912C131.244 2.71124 132.194 2.63966 133.045 2.73746C136.075 2.62888 138.986 2.74412 135.477 2.7749C134 2.78784 122.719 2.81304 115.573 2.82726L116.294 2.58688C114.429 3.99187 112.916 5.1311 112.144 5.71223C109.602 7.62552 104.818 11.1784 101.693 13.532C99.8566 14.9156 95.3296 18.3183 95.5523 18.2163C93.9235 19.4465 95.6204 18.1087 95.2734 18.36C94.5477 18.8856 89.4732 22.7375 88.508 23.4599C88.4442 23.5076 88.3802 23.5555 88.316 23.6036L87.996 23.8461L87.5825 23.8481C81.6745 23.8401 74.2932 23.7844 68.5935 23.8491C68.8624 23.863 69.1313 23.8769 69.4002 23.8909C70.698 23.9164 76.7208 23.8799 77.4012 23.9467C68.5935 23.9467 59.7858 23.9467 50.9781 23.9467C51.1419 23.8898 40.2177 23.8906 39.7011 23.9163C39.8929 23.9438 40.0847 23.9713 40.2765 23.9989C46.4496 23.8944 45.8961 24.0325 50.0413 23.9592C51.7288 23.9581 51.2194 24.0036 52.0509 24.0123C60.3272 24.0982 52.1836 23.9189 58.5193 23.9596C56.6121 24.0256 61.8009 24.0497 64.126 24.0581C64.6552 24.0599 71.6053 24.0432 72.4306 24.0443C76.4354 24.0493 82.9216 24.077 87.5825 24.0612L88.0681 24.0588L88.4438 23.774C89.0305 23.3307 89.5802 22.9138 90.0793 22.5332C92.9791 20.3522 94.6051 19.191 97.2469 17.2226C99.2521 15.7285 98.6589 16.1323 99.6002 15.4255C101.575 13.9427 102.286 13.5354 103.466 12.4742C104.816 11.4834 106.166 10.4927 107.515 9.50189C107.502 9.48446 107.489 9.46704 107.476 9.44961C108.317 8.81853 109.158 8.18745 110 7.55638C110.26 7.38806 110.521 7.21975 110.781 7.05143C113.433 5.02477 112.287 5.81899 112.749 5.39539C113.323 4.95933 113.897 4.52327 114.471 4.08721C114.946 3.79017 115.421 3.49313 115.896 3.19609C116.078 3.05901 116.26 2.92193 116.442 2.78485L115.573 3.07475C118.564 3.07117 121.555 3.06758 124.546 3.064C124.755 3.04229 124.963 3.02058 125.171 2.99887C125.178 3.02058 125.185 3.04229 125.191 3.064C130.643 3.06846 136.094 3.07292 141.546 3.07739C142.996 3.11221 134.261 3.1386 133.6 3.1407C129.921 3.15222 120.149 3.11731 120.137 3.19471C119.186 3.1707 117.441 3.15915 115.573 3.15882L116.493 2.8521C114.391 4.42844 112.107 6.1692 111.13 6.95277C112.928 5.60004 114.726 4.24731 116.525 2.89459L115.573 3.21194C116.574 3.21066 117.575 3.20938 118.575 3.20809C118.47 3.23404 118.365 3.25998 118.26 3.28593C122.311 3.18129 122.904 3.18705 127.068 3.28593C127.072 3.25113 127.076 3.21634 127.079 3.18154C129.983 3.30253 135.115 3.0973 135.263 3.24667C136.809 3.23457 138.355 3.22247 139.901 3.21036C143.239 3.22857 138.055 3.34345 151.126 3.29841C152.027 3.29527 151.839 3.25722 153.193 3.25983C153.584 3.26062 155.821 3.31597 160.098 3.31021C160.766 3.30929 160.816 3.27628 161.509 3.27209C163.109 3.26213 166.296 3.32742 164.849 3.22103C171.186 3.19 168.56 3.27732 170.525 3.31203C171.835 3.33506 171.571 3.27211 172.705 3.28638C174.108 3.30408 173.079 3.36755 178.697 3.33835C178.066 3.33404 177.436 3.32972 176.806 3.32541C177.123 3.30817 177.44 3.29092 177.757 3.27367C180.963 3.31506 180.66 3.25459 182.172 3.35151C184.503 3.30829 186.52 3.30485 189.708 3.3127C195.9 3.32803 192.726 3.43247 199.793 3.29183C200.938 3.31157 202.084 3.33131 203.229 3.35106C205.111 3.30954 203.588 3.2576 206.398 3.24712C204.199 3.34967 210.127 3.31228 211.128 3.4037C211.233 3.38192 211.338 3.36013 211.443 3.33835C212.071 3.33835 212.698 3.33835 213.326 3.33835C213.328 3.35582 213.33 3.37329 213.332 3.39077C214.167 3.37768 215.003 3.36459 215.839 3.35151C216.467 3.36883 217.096 3.38615 217.724 3.40347C218.757 3.36694 219.791 3.3304 220.824 3.29387C221.472 3.29137 222.121 3.28888 222.77 3.28638C222.564 3.3124 222.359 3.33842 222.154 3.36444C222.988 3.35575 223.821 3.34705 224.655 3.33835C223.685 3.38104 224.295 3.43111 226.89 3.4298C229.032 3.42875 226.619 3.33963 231.225 3.3767C231.546 3.37934 232.115 3.44289 236.467 3.45271C241.687 3.46449 239.151 3.41846 240.081 3.41686C240.264 3.4166 241.859 3.44859 243.352 3.45317C244.199 3.45578 245.015 3.42996 245.127 3.43002C245.65 3.4312 245.802 3.46774 246.527 3.46905C248.366 3.4722 250.835 3.4543 252.637 3.45612C253.456 3.45691 254.226 3.47855 254.591 3.47881C255.158 3.47906 255.877 3.446 256.451 3.44613C258.567 3.44683 261.78 3.55651 262.763 3.40415C264.797 3.54425 269.06 3.37487 268.748 3.46883C274.186 3.43337 288.689 3.54863 288.263 3.39077C291.343 3.52575 291.068 3.428 292.358 3.43002C293.801 3.43225 293.053 3.45843 294.2 3.45725C296.877 3.4545 299.435 3.44325 302.1 3.44273C301.681 3.4211 301.263 3.39947 300.845 3.37783C303.642 3.37089 302.679 3.42123 305.532 3.43093C310.779 3.44861 308.568 3.40844 309.343 3.35174C309.135 3.40648 315.323 3.39797 315.953 3.39077C316.329 3.38638 314.682 3.31581 318.472 3.33857C318.264 3.36028 318.057 3.38199 317.85 3.4037C319.576 3.37401 324.266 3.41168 325.061 3.40438C325.427 3.40098 327.381 3.2259 329.17 3.36444C329.386 3.34273 329.602 3.32103 329.818 3.29932C331.805 3.32541 333.791 3.35151 335.777 3.37761C336.095 3.3385 336.412 3.29939 336.729 3.26029C337.359 3.26029 337.99 3.26029 338.62 3.26029C338.202 3.29501 337.783 3.32972 337.365 3.36444C341.257 3.34873 346.013 3.40348 346.815 3.28638C347.648 3.30809 348.482 3.3298 349.316 3.35151C349.858 3.31255 350.401 3.2736 350.944 3.23464C354.804 3.24447 354.868 3.27051 357.508 3.31203C357.404 3.28162 357.301 3.25121 357.198 3.2208C359.145 3.2635 362.699 3.30325 365.508 3.30862C366.844 3.3111 369.138 3.2692 369.453 3.27299C369.771 3.277 372.903 3.44163 373.243 3.29909C377.855 3.36222 379.885 3.29774 381.756 3.29932C382.972 3.30037 383.526 3.33459 384.899 3.33812C386.865 3.34323 388.843 3.32669 389.977 3.32904C390.626 3.33048 390.747 3.36385 391.194 3.3649C393.309 3.36999 392.07 3.33589 394.3 3.33812C394.505 3.3385 396.135 3.3792 397.972 3.37397C398.999 3.37108 401.656 3.3253 401.89 3.32541C402.93 3.3262 402.099 3.41772 405.652 3.31203C405.549 3.32942 405.446 3.34682 405.343 3.36422C409.74 3.40835 410.434 3.33078 411.322 3.32541C411.436 3.32497 412.506 3.35496 413.147 3.35083C414.229 3.34377 414.665 3.30271 414.905 3.30091C415.749 3.29462 418.592 3.31268 420.451 3.27299C420.06 3.38982 426.573 3.43137 428.015 3.29909C429.168 3.32519 430.321 3.35128 431.474 3.37738C431.995 3.35559 432.516 3.33381 433.038 3.31203C433.355 3.33373 433.672 3.35544 433.989 3.37715C435.669 3.32935 437.349 3.28154 439.029 3.23374C439.136 3.28162 439.243 3.3295 439.35 3.37738C439.82 3.37193 440.291 3.36649 440.761 3.36104C441.128 3.32299 441.496 3.28494 441.863 3.2469C442.451 3.25416 443.039 3.26142 443.627 3.26868C443.772 3.29622 443.918 3.32375 444.063 3.35128C447.224 3.38302 445.6 3.12042 451.622 3.35128C452.559 3.32957 453.496 3.30786 454.432 3.28616C455.491 3.39181 457.473 3.32783 459.073 3.33971C460.201 3.34809 460.14 3.39006 461.676 3.39099C463.213 3.39191 463.158 3.35177 463.278 3.35151C464.531 3.34904 465.475 3.38443 466.395 3.37738C466.533 3.37633 466.88 3.32866 468.052 3.32564C469.223 3.32263 469.93 3.37332 471.675 3.36376C472.569 3.35892 472.828 3.31875 473.621 3.3152C477.401 3.29791 481.207 3.50128 484.042 3.26006C484.681 3.29062 489.316 3.3976 491.3 3.39145C494.385 3.38162 493.196 3.3343 494.423 3.32564C494.599 3.32433 495.539 3.34031 498.127 3.33744C498.59 3.33692 498.482 3.36363 498.549 3.36399C501.566 3.36347 507.426 3.34237 510.74 3.33857C511.036 3.33818 512.586 3.41265 515.213 3.31248C519.106 3.38647 526.439 3.2275 531.573 3.33903C532.285 3.34138 533.149 3.31475 533.464 3.31565C536.18 3.32391 535.185 3.40478 541.321 3.28638C540.824 3.32763 542.26 3.36486 544.288 3.36172C547.337 3.357 545.171 3.2801 547.622 3.28638C547.622 3.30809 547.622 3.3298 547.622 3.35151C553.259 3.29312 554.381 3.38593 560.038 3.38645C562.073 3.38659 565.078 3.33848 565.564 3.33835C565.751 3.33849 567.977 3.39083 568.189 3.39122C569.386 3.39279 570.062 3.36866 571.095 3.36853C574.51 3.36802 578.584 3.4361 577.847 3.31248C578.786 3.33857 579.724 3.36467 580.663 3.39077C584.21 3.25875 586.863 3.4407 587.606 3.31248C588.24 3.33895 588.874 3.36543 589.509 3.3919C602.481 3.38048 615.454 3.36907 628.427 3.35765L627.388 3.01114C629.18 4.35365 630.973 5.69615 632.766 7.03866C633.225 7.43462 638.54 11.404 638.816 11.6031C640.083 12.5173 638.817 11.4551 641.355 13.3846C641.613 13.6278 641.872 13.871 642.13 14.1143C645.327 16.529 643.809 15.3411 645.09 16.2687C645.616 16.6691 645.427 16.5655 646.141 17.104C648.361 18.7788 651.924 21.456 655.359 24.0361L655.838 24.3917L656.417 24.3888C659.614 24.3904 662.722 24.3913 664.985 24.3924C666.055 24.3929 665.894 24.3643 666.226 24.3642C667.139 24.3645 668.941 24.4005 670.774 24.4005C682.108 24.4003 698.167 24.3799 709.576 24.3497C710.351 24.3476 710.447 24.3135 710.97 24.3118C711.694 24.3096 713.313 24.3371 714.075 24.3343C714.793 24.3316 715.253 24.3057 716.021 24.3027C719.537 24.2886 724.263 24.3323 728.024 24.256C728.34 24.2495 732.281 24.1123 732.37 24.1033C732.893 24.0498 729.391 23.9659 735.143 23.8877C730.002 23.8194 731.608 23.6988 738.286 23.6399C734.937 23.6247 731.588 23.6095 728.238 23.5943C728.233 23.58 728.229 23.5657 728.224 23.5514C731.273 23.4805 734.298 23.457 738.934 23.4504C738.789 23.4372 738.645 23.4239 738.5 23.4107C734.405 23.3446 729.466 23.3323 726.347 23.2421C730.921 23.1753 735.494 23.1085 740.068 23.0417C739.839 23.0313 739.611 23.0208 739.382 23.0104C737.19 22.9833 732.401 22.9674 730.58 22.9421C723.627 22.8457 736.666 22.87 734.524 22.8112C727.183 22.8133 719.841 22.8154 712.499 22.8175C712.242 22.7742 740.486 22.6546 740.195 22.5239C737.887 22.5151 735.58 22.5063 733.272 22.4976C734.301 22.4644 735.329 22.4311 736.358 22.3979C736.074 22.3874 735.791 22.3769 735.508 22.3664C731.615 22.3406 727.721 22.3148 723.828 22.289C735.665 22.3149 741.165 22.2961 744 22.0346C743.679 22.028 743.358 22.0213 743.037 22.0147C740.473 22.1783 728.37 22.1253 721.937 22.0927C723.248 22.0448 728.912 22.0818 730.109 22.053C730.448 22.0448 729.265 22.0115 730.051 21.9945C732.105 21.9502 740.856 21.8933 739.585 21.839C738.766 21.8042 724.684 21.7564 721.937 21.7601C728.376 21.6975 735.01 21.6793 741.467 21.6033C737.391 21.4972 733.781 21.3673 726.341 21.3616C724.074 21.3059 739.824 21.2288 740.189 21.1984C737.463 21.1658 734.737 21.1332 732.012 21.1006C734.317 21.1093 736.623 21.118 738.928 21.1267C738.935 21.1158 738.942 21.1049 738.948 21.094C732.976 21.0435 727.512 20.9507 720.677 20.957C720.897 20.8994 724.987 20.9051 726.972 20.9046ZM86.8768 24.1822C86.8271 24.1994 87.1206 24.2094 87.5825 24.2151L88.1202 24.2125L88.5363 23.8971C89.1983 23.4131 90.2767 22.5997 90.9984 22.0575C90.834 22.1917 90.6696 22.326 90.5052 22.4602C92.9086 20.6457 97.3816 17.2669 97.6036 17.2163C99.3288 15.9363 98.5207 16.4418 99.0693 16.0187C99.2838 15.8532 101.555 14.208 103.314 12.8164C103.741 12.4967 104.167 12.177 104.594 11.8573C104.695 11.8198 104.795 11.7822 104.896 11.7446C105.468 11.2691 106.041 10.7936 106.613 10.3181C100.581 14.8358 94.5489 19.3536 88.5169 23.8713L88.1093 24.1802L87.5825 24.1828C87.3511 24.1826 87.1198 24.1824 86.8884 24.1822C86.8845 24.1822 86.8806 24.1822 86.8768 24.1822ZM157.302 3.22148C160.131 3.20432 164.464 3.17723 163.588 3.26051C161.801 3.25613 160.014 3.25174 158.227 3.24735C157.919 3.23873 157.61 3.23011 157.302 3.22148ZM438.699 3.1559C441.062 3.07391 443.237 3.14483 446.891 3.13003C446.886 3.14735 446.882 3.16468 446.877 3.182C445.383 3.14041 441.433 3.16808 438.699 3.1559ZM16.6872 23.8688C16.1667 23.8753 15.6462 23.8817 15.1257 23.8881C17.2425 23.9813 17.6214 23.9156 20.0153 23.9247C20.1597 23.9252 20.1096 23.9465 20.1599 23.9467C20.7458 23.9481 21.2876 23.9225 21.8168 23.9229C22.8374 23.9236 23.6695 23.9496 25.4775 23.9487C26.8756 23.9479 26.8888 23.9071 27.3801 23.9081C27.7989 23.9091 31.9476 24.0216 34.6177 23.973C39.6955 23.8805 18.237 23.8602 16.6872 23.8688ZM1.63662 23.9458C2.13879 23.9462 2.64095 23.9465 3.14312 23.9469C1.6331 23.8841 4.68056 23.8936 6.9166 23.8949C6.84729 23.8347 2.1168 23.8605 0 23.8425C0.545554 23.8769 1.09107 23.9114 1.63662 23.9458ZM65.141 23.8167C63.176 23.8105 63.5034 23.8857 63.5853 23.9081C64.2108 23.9081 64.8364 23.9081 65.4619 23.9081C65.3549 23.8776 65.2479 23.8471 65.141 23.8167ZM50.3622 23.7906C50.9733 23.8416 55.2392 23.864 57.2615 23.8682C57.3498 23.8682 56.7943 23.8401 58.2244 23.8427C58.6538 23.8436 62.8781 23.9456 61.9487 23.8298C58.0885 23.8167 54.2282 23.8036 50.368 23.7906C50.3661 23.7906 50.3642 23.7906 50.3622 23.7906ZM46.0538 23.8207C46.8577 23.8368 47.6615 23.8528 48.4654 23.8688C48.8808 23.8449 49.2962 23.8209 49.7116 23.7969C48.7969 23.7909 47.8822 23.7848 46.9675 23.7788C46.663 23.7928 46.3584 23.8067 46.0538 23.8207ZM640.085 11.781C639.92 11.6893 639.755 11.5976 639.59 11.5059C639.001 11.0837 636.251 8.88062 637.156 9.53254C638.132 10.282 639.109 11.0315 640.085 11.781ZM652.015 20.6645C652.609 21.0938 653.203 21.523 653.796 21.9523C654.437 22.487 655.078 23.0217 655.719 23.5564L656.035 23.7911L656.417 23.7892C656.426 23.7897 656.435 23.7901 656.444 23.7906C656.435 23.7906 656.426 23.7907 656.417 23.7908L656.035 23.7926L655.718 23.5577C652.78 21.3896 649.661 19.0916 650.239 19.3651C649.569 18.8625 648.899 18.3598 648.229 17.8572C648.762 18.3229 648.675 18.2799 646.901 16.9913C646.562 16.6445 644.727 15.3143 642.661 13.7442C644.173 14.8733 645.685 16.0025 647.197 17.1316C647.205 17.1212 647.213 17.1108 647.221 17.1004C643.853 14.5797 648.085 17.6513 650.246 19.3372C650.429 19.4529 650.612 19.5686 650.795 19.6843C651.202 20.011 651.608 20.3378 652.015 20.6645ZM354.665 2.7252C355.187 2.71212 355.708 2.69903 356.229 2.68595C358.25 2.85638 354.136 2.69471 351.207 2.82959C352.175 2.72713 347.709 2.73141 347.454 2.72452C347.967 2.69003 348.481 2.65554 348.995 2.62105C350.885 2.65577 352.775 2.69049 354.665 2.7252ZM369.447 2.60766C367.639 2.69266 376.521 2.69787 379.501 2.67914C380.225 2.67453 381.517 2.62786 382.039 2.63375C382.357 2.651 382.674 2.66825 382.991 2.68549C383.366 2.62589 389.185 2.6929 391.478 2.72498C391.693 2.70327 391.909 2.68156 392.125 2.65985C392.961 2.66847 393.797 2.6771 394.632 2.68572C394.527 2.66409 394.422 2.64245 394.317 2.62082C394.949 2.64684 395.582 2.67286 396.214 2.69888C398.696 2.72783 397.165 2.60989 399.03 2.64669C401.103 2.68755 397.707 2.75778 397.77 2.80349C396.087 2.7917 392.262 2.76532 390.555 2.76401C389.575 2.7633 390.686 2.8452 386.461 2.75107C385.534 2.77301 384.608 2.79494 383.682 2.81688C381.982 2.78201 380.281 2.74714 378.581 2.71227C378.264 2.7426 377.947 2.77293 377.63 2.80327C377.448 2.80801 373.516 2.73914 373.726 2.71635C372.133 2.77434 368.863 2.78467 365.419 2.78761C365.087 2.77112 364.756 2.75463 364.424 2.73814C367.756 2.77375 365.484 2.72069 366.477 2.68912C367.05 2.67092 368.804 2.63516 369.447 2.60766ZM620.636 2.68617C626.107 2.75854 622.915 2.70174 628.427 2.6992L627.783 2.48445C627.882 2.559 627.985 2.63624 628.092 2.71627C627.982 2.64854 627.872 2.5808 627.762 2.51306L628.427 2.73497C628.134 2.7622 627.84 2.78943 627.547 2.81665C624.574 2.74507 619.682 2.79267 620.63 2.68617C620.632 2.68617 620.634 2.68617 620.636 2.68617ZM672.804 23.8164C669.604 23.7927 671.21 23.7318 667.154 23.7123C667.152 23.7123 667.15 23.7123 667.148 23.7123C669.246 23.7079 671.343 23.7035 673.44 23.6991C673.228 23.7382 673.016 23.7773 672.804 23.8164ZM492.748 2.769C489.681 2.78603 490.284 2.75554 487.5 2.81643C483.355 2.74256 486.864 2.753 486.864 2.68595C487.812 2.70561 488.759 2.72528 489.707 2.74495C492.004 2.68224 489.825 2.65067 489.825 2.64465C489.827 2.64465 489.829 2.64465 489.831 2.64465C489.831 2.62452 489.757 2.62028 490.638 2.60811C491.341 2.66174 492.045 2.71537 492.748 2.769ZM479.618 2.68617C480.67 2.7307 481.143 2.78788 478.377 2.81643C478.376 2.81643 478.374 2.81643 478.372 2.81643C478.15 2.71691 475.498 2.79724 474.289 2.79056C473.972 2.77974 473.655 2.76892 473.337 2.75811C475.431 2.73413 477.524 2.71015 479.618 2.68617ZM433.353 2.59472C433.341 2.70466 435.663 2.71512 432.396 2.81643C431.762 2.81446 431.127 2.81249 430.493 2.81053C430.077 2.7864 429.66 2.76227 429.244 2.73814C421.199 2.93708 418.801 2.59833 432.396 2.72498C432.398 2.72505 432.4 2.72513 432.402 2.7252C432.719 2.68171 433.036 2.63822 433.353 2.59472ZM447.522 2.60403C447.624 2.66174 447.726 2.71946 447.828 2.77717C449.605 2.63795 451.9 2.77079 455.384 2.67256C455.699 2.69011 456.014 2.70765 456.329 2.7252C457.631 2.68659 470.42 2.67546 467.65 2.76423C466.44 2.803 463.805 2.75035 463.578 2.75153C462.81 2.75588 461.808 2.80547 460.51 2.80259C459.761 2.80085 458.18 2.74257 456.65 2.74268C453.229 2.74294 446.986 2.89941 442.487 2.7513C442.164 2.7687 441.84 2.78609 441.516 2.80349C438.178 2.79288 439.292 2.73775 436.187 2.80349C434.041 2.52936 448.671 2.81701 445.625 2.59472C445.627 2.59472 445.629 2.59472 445.631 2.59472C446.261 2.59783 446.891 2.60093 447.522 2.60403ZM539.424 2.68617C539.625 2.63695 543.497 2.7129 542.587 2.59495C543.851 2.63602 545.115 2.6771 546.378 2.71817C546.369 2.72914 546.359 2.74011 546.349 2.75107C545.093 2.74245 543.837 2.73383 542.582 2.7252C542.577 2.7426 542.572 2.76 542.567 2.7774C540.696 2.71446 532.885 2.74187 533.123 2.80349C532.706 2.77747 532.289 2.75145 531.871 2.72543C528.135 2.79629 524.921 2.72095 520.852 2.7901C520.536 2.76855 520.221 2.74699 519.906 2.72543C519.701 2.74283 519.495 2.76023 519.29 2.77762C517.808 2.77982 516.325 2.78201 514.843 2.7842C510.012 2.71415 519.398 2.62346 520.536 2.63375C520.688 2.63519 520.664 2.68024 521.609 2.68731C523.287 2.69972 532.682 2.65488 535.587 2.68459C535.612 2.65471 535.637 2.62483 535.662 2.59495C536.916 2.62536 538.17 2.65577 539.424 2.68617ZM415.402 2.71227C415.19 2.74268 414.978 2.77308 414.766 2.80349C411.107 2.77312 408.802 2.79967 409.741 2.69911C409.743 2.69911 409.744 2.69911 409.746 2.69911C411.632 2.7035 413.517 2.70788 415.402 2.71227ZM143.443 2.73814C143.539 2.67769 145.288 2.6551 147.549 2.69843C147.44 2.71598 147.331 2.73352 147.222 2.75107C146.044 2.6996 144.574 2.78931 140.939 2.7774C140.939 2.74699 140.939 2.71658 140.939 2.68617C141.773 2.7035 142.608 2.72082 143.443 2.73814ZM418.56 2.69911C419.675 2.66325 422.806 2.77203 420.746 2.7774C419.171 2.78145 417.961 2.71836 418.56 2.69911ZM685.391 23.7577C684.564 23.764 683.737 23.7704 682.91 23.7767C682.479 23.7508 682.048 23.725 681.618 23.6991C681.62 23.6991 681.621 23.6991 681.623 23.6991C682.879 23.7186 684.135 23.7381 685.391 23.7577ZM503.236 2.77399C500.431 2.77021 497.626 2.76643 494.822 2.76265C494.794 2.74578 494.766 2.72891 494.738 2.71204C497.548 2.7736 498.677 2.70725 499.333 2.70319C499.33 2.70319 499.327 2.70319 499.324 2.70319C501.428 2.68984 503.432 2.68001 505.422 2.65985C504.693 2.6979 503.965 2.73594 503.236 2.77399ZM512.851 2.66757C512.378 2.78675 511.761 2.80063 507.452 2.71681C507.623 2.70213 507.793 2.68746 507.964 2.67278C510.197 2.68156 511.499 2.70907 511.107 2.64692C511.688 2.6538 512.269 2.66068 512.851 2.66757ZM468.928 2.70569C469.445 2.66775 473.549 2.70585 473.326 2.72498C473.238 2.73257 467.92 2.78008 468.928 2.70569ZM113.596 4.46691C114.347 3.8925 115.098 3.31809 115.849 2.74368C114.835 3.4882 113.821 4.23272 112.807 4.97724C113.07 4.80713 113.333 4.63702 113.596 4.46691ZM105.19 10.5611C104.66 10.9778 106.478 9.74828 103.27 12.1891C105.618 10.4307 107.965 8.67233 110.313 6.91395C109.202 7.72553 108.092 8.53711 106.981 9.34869C107.155 9.18003 107.328 9.01137 107.502 8.84271C106.731 9.41551 105.961 9.98831 105.19 10.5611ZM102.719 12.5137C103.933 11.5006 97.2768 16.487 96.663 16.96C96.5264 17.0654 95.9071 17.6072 95.6732 17.7993C96.6779 17.0456 97.6825 16.292 98.6872 15.5383C98.3627 15.8061 98.0382 16.0738 97.7137 16.3416C98.8935 15.4648 100.073 14.588 101.253 13.7112C100.739 14.0727 100.224 14.4343 99.7098 14.7958C100.713 14.0351 101.716 13.2744 102.719 12.5137ZM132.125 2.64056C131.074 2.6426 130.022 2.64465 128.971 2.64669C129.181 2.61628 129.391 2.58587 129.601 2.55547C130.23 2.55547 130.86 2.55547 131.489 2.55547C131.701 2.58383 131.913 2.6122 132.125 2.64056ZM112.259 5.3312C113.572 4.52954 116.717 1.76975 112.888 4.79079C112.502 5.09532 112.135 5.40684 112.259 5.3312ZM94.1801 18.8446C91.5007 20.7215 92.2323 20.4671 94.6602 18.5593C94.7821 18.4633 94.3812 18.7036 94.1801 18.8446ZM70.6147 23.5573C70.3498 23.5581 69.8869 23.6344 67.3588 23.5618C66.9414 23.5705 66.5241 23.5792 66.1067 23.5879C67.0834 23.6234 75.4384 23.6445 74.2841 23.5689C73.0052 23.5677 71.9377 23.5549 70.6147 23.5573ZM78.7052 23.275C79.9592 23.2771 81.2132 23.2792 82.4672 23.2813C82.0537 23.3052 81.6402 23.3292 81.2267 23.3531C81.8436 23.3596 82.4604 23.3661 83.0773 23.3726C84.1317 23.3313 85.1862 23.2901 86.2406 23.2489C83.5149 23.2423 80.7891 23.2357 78.0633 23.2292C78.2773 23.2444 78.4913 23.2597 78.7052 23.275ZM107.504 8.41727C105.592 9.8893 103.208 11.6379 100.077 13.9937C100.075 13.9949 100.074 13.9961 100.072 13.9973C99.9161 14.1149 99.6587 14.3491 99.1562 14.7277C98.728 15.0503 90.241 21.3727 90.9345 20.922C94.2398 18.5045 95.4179 17.5258 96.2783 17.035C96.4222 16.8944 96.5661 16.7538 96.7101 16.6131C99.8326 14.214 100.785 13.612 102.574 12.3114C102.555 12.3009 102.537 12.2904 102.518 12.2799C103.698 11.3921 104.878 10.5044 106.058 9.61664C105.899 9.75193 105.74 9.88722 105.582 10.0225C105.999 9.70899 106.417 9.39548 106.835 9.08197C107.818 8.2717 109.1 7.29253 107.504 8.41727ZM73.0176 23.3074C71.8584 23.1583 60.562 23.2604 55.4022 23.2292C58.1112 23.319 62.3079 23.2571 65.2624 23.2562C70.974 23.2545 67.0259 23.3094 67.9949 23.3335C68.4737 23.3455 71.7135 23.2498 73.0176 23.3074ZM114.57 3.14889C112.299 4.86747 111.003 5.7967 109.066 7.31879C109.237 7.20372 109.409 7.08864 109.58 6.97357C110.249 6.45929 115.732 2.30634 114.57 3.14889ZM47.8408 23.2682C53.3407 23.2146 50.6278 23.3497 53.488 23.2484C51.6056 23.242 49.7232 23.2356 47.8408 23.2292C47.8408 23.2422 47.8408 23.2552 47.8408 23.2682ZM424.855 2.13793C427.173 2.13452 429.761 2.1073 431.147 2.16357C429.572 2.17227 427.997 2.18097 426.422 2.18967C425.9 2.17242 425.377 2.15518 424.855 2.13793ZM358.76 1.5881C359.289 1.57461 361.381 1.61442 361.602 1.61442C362.012 1.61442 361.9 1.59481 361.906 1.58969C364.587 1.59324 362.113 1.65407 364.097 1.6673C364.437 1.66948 369.098 1.63941 370.994 1.64188C373.911 1.64568 376.823 1.64174 377.913 1.64279C379.753 1.6445 383.168 1.69013 386.192 1.69248C387.438 1.69338 387.873 1.65685 389.127 1.65776C397.172 1.66392 413.009 1.71408 420.147 1.6909C421.911 1.68513 423.593 1.6373 424.525 1.6412C425.261 1.65867 425.996 1.67615 426.731 1.69362C428.993 1.53633 429.75 1.67623 432.188 1.6909C433.737 1.70016 434.461 1.65356 434.669 1.65368C436.048 1.6546 436.729 1.67678 437.812 1.68046C439.028 1.68452 440.775 1.6635 441.209 1.6673C441.476 1.66984 440.624 1.73178 445.341 1.73061C450.149 1.72939 454.895 1.72284 459.785 1.71994C458.154 1.90695 456.75 1.77896 454.753 1.77213C454.218 1.7703 454.557 1.79999 454.091 1.79868C452.775 1.79514 450.254 1.76597 449.164 1.77304C447.987 1.78067 448.389 1.84949 446.897 1.8241C446.822 1.82279 447.06 1.79437 446.709 1.78961C443.181 1.74259 442.026 1.79202 437.566 1.79346C434.611 1.79451 416.663 1.7663 416.047 1.78484C412.834 1.88438 431.746 1.88506 433.957 1.8772C434.731 1.87444 433.92 1.84306 434.625 1.83703C434.924 1.83463 437.613 1.89446 440.27 1.89944C443.482 1.90546 449.939 1.86464 453.001 1.86608C479.322 1.87852 505.278 1.84236 531.573 1.84157C532.134 1.84157 532.872 1.87742 534.699 1.87742C565.433 1.87683 597.176 1.85381 628.427 1.86165L628.286 1.81449C631.019 3.86657 633.748 5.9154 636.47 7.95988C642.49 12.4807 648.442 16.9884 654.535 21.5265C655.1 21.9757 655.666 22.4249 656.231 22.8741L656.315 22.9367L656.417 22.9362C656.638 22.9423 656.859 22.9484 657.08 22.9546C656.873 22.9528 656.65 22.9516 656.417 22.9509L656.311 22.9514L656.222 22.8859C654.244 21.3925 651.237 19.1979 650.942 18.9778C650.826 18.891 650.112 18.3188 648.932 17.4355C647.273 16.1933 646.531 15.6682 646.395 15.5661C645.973 15.2498 646.265 15.4354 645.863 15.1333C642.858 12.8809 640.539 11.1312 637.783 9.06288C634.669 6.72649 633.06 5.58289 630.826 3.83714C630.557 3.66188 630.287 3.48663 630.017 3.31137C629.7 3.05044 629.064 2.55605 628.217 1.90619L628.427 1.97629C623.985 1.92987 614.99 1.9374 610.871 1.94142C609.259 1.943 609.542 1.98113 609.001 1.98113C608.655 1.98108 608.791 1.93116 604.574 1.94096C602.451 1.94594 601.894 1.98231 600.829 1.98113C600.25 1.98043 600.344 1.94437 599.513 1.94437C594.707 1.94437 590.782 1.95607 586.076 1.96275C584.753 1.96458 584.739 1.99468 584.443 1.99429C583.352 1.99294 581.456 1.94197 578.685 1.9421C574.124 1.94236 565.034 1.94254 561.304 1.96729C560.756 1.97095 560.302 2.00707 559.899 2.00654C559.289 2.00562 559.049 1.96794 558.942 1.96774C556.901 1.96708 558.129 2.00212 556.762 1.99361C556.025 1.98902 555.256 1.94605 553.543 1.94119C551.282 1.93477 551.727 1.98578 550.782 1.98067C550.682 1.97988 550.652 1.94441 549.724 1.94323C546.202 1.93904 541.094 1.93085 537.761 1.93098C536.804 1.93098 536.092 1.95485 534.757 1.95526C532.067 1.95605 516.776 1.94083 515.522 1.95458C515.39 1.95602 516.75 2.00834 514.583 2.00677C513.953 1.98499 513.324 1.9632 512.694 1.94142C511.642 1.97629 510.589 2.01116 509.537 2.04603C509.575 1.92555 503.383 1.90694 503.444 2.03014C502.767 2.03514 502.089 2.04013 501.412 2.04512C500.001 1.96 499.061 1.99142 496.334 1.94142C495.909 1.96751 495.484 1.99361 495.059 2.0197C494.952 2.00231 494.845 1.98491 494.738 1.96751C493.283 2.06179 490.896 1.96713 490.606 1.9666C489.491 1.96451 488.654 1.98848 488.131 1.98771C486.178 1.98522 481.951 1.9522 479.67 1.96751C479.563 1.9683 479.668 2.0086 479.019 2.01358C477.849 2.02257 477.735 1.96356 476.174 2.03287C475.859 2.01547 475.544 1.99807 475.229 1.98067C474.894 1.98968 474.56 1.99868 474.225 2.00768C472.251 2.00306 470.277 1.99845 468.303 1.99384C470.099 2.06207 468.033 2.10018 466.08 2.04648C465.419 2.02827 466.005 1.98674 465.785 1.98045C465.482 1.97193 456.623 1.99308 456.037 2.01993C455.618 2.00685 455.199 1.99376 454.779 1.98067C454.567 2.00685 454.355 2.03302 454.143 2.05919C453.912 2.05004 453.681 2.04088 453.449 2.03173C451.144 2.07783 445.16 1.9721 444.075 1.98045C443.495 1.9849 444.017 2.09645 441.238 2.08506C441.142 2.05442 441.046 2.02379 440.949 1.99315C440.313 1.98877 439.677 1.98438 439.041 1.97999C437.847 1.98273 436.109 2.03582 436.054 2.07212C435.681 2.05034 435.308 2.02855 434.935 2.00677C433.933 2.07775 428.591 2.05259 426.442 2.00768C425.814 2.02908 425.185 2.05049 424.557 2.0719C423.713 2.04588 422.868 2.01986 422.024 1.99384C420.068 1.986 422.134 2.02926 421.717 2.03287C420.835 2.04033 416.341 1.96726 416.637 2.05828C416.024 2.05851 415.411 2.05873 414.798 2.05896C414.483 2.03294 414.168 2.00692 413.852 1.9809C412.8 2.07061 410.979 2.03894 407.245 2.07167C406.932 2.05102 406.619 2.03037 406.305 2.00972C405.151 2.03907 403.996 2.06842 402.841 2.09776C402.604 2.06358 402.367 2.02939 402.13 1.9952C401.628 1.99028 401.126 1.98536 400.624 1.98045C399.603 2.05703 397.771 1.97427 396.838 2.00586C395.478 2.05196 396.53 2.1069 399.056 2.11751C398.867 2.17329 391.342 2.14767 389.607 2.1436C389.721 2.13271 389.836 2.12182 389.951 2.11093C391.725 2.11955 393.5 2.12817 395.274 2.1368C396.761 1.99653 391.942 2.03415 389.731 2.01607C389.529 2.01434 388.383 1.9612 386.154 1.96615C385.291 1.96811 381.924 2.04579 381.282 2.05011C376.092 2.08558 379.908 1.97459 374.831 2.0719C375.889 1.99737 372.972 2.0593 369.935 2.04489C369.419 2.04243 365.035 1.98202 364.739 1.98045C362.894 1.97076 364.903 2.03662 362.232 2.01948C361.911 2.00216 361.59 1.98483 361.269 1.96751C360.648 1.96751 360.026 1.96751 359.404 1.96751C355.632 2.12188 354.754 2.0082 353.413 1.99361C352.871 1.98771 353.569 2.02799 352.164 2.01948C351.635 2.01631 351.048 1.9828 349.625 1.98045C345.172 1.97313 343.66 2.11656 339.565 1.96729C338.937 1.98892 338.309 2.01055 337.68 2.03218C337.256 2.00624 336.832 1.9803 336.408 1.95435C333.164 2.02964 334.335 1.95253 333.164 1.95344C330.07 1.9558 323.739 1.97056 323.185 2.03264C320.514 1.89004 317.321 2.05091 316.268 2.04535C315.643 2.02802 315.017 2.0107 314.392 1.99338C313.656 2.01078 312.921 2.02818 312.185 2.04557C312.543 1.90554 308.734 2.04324 308.368 2.04535C307.946 2.04744 302.089 2.006 299.908 2.00677C297.73 2.00756 293.935 2.0455 293.601 2.04557C293.217 2.04557 289.51 2.00751 286.612 2.0079C284.076 2.00832 269.054 2.06238 270 1.99996C270.983 1.98267 272.382 1.96769 273.592 1.95957C277.347 1.93469 299.385 1.90281 305.017 1.89285C316.312 1.87308 328.093 1.87675 339.438 1.86313C340.106 1.86234 340.207 1.82605 340.78 1.82523C341.649 1.82418 343.856 1.86051 344.712 1.85972C347.913 1.85658 351.807 1.85066 353.52 1.84974C357.35 1.8479 359.977 1.82605 362.874 1.82251C363.781 1.82146 368.368 1.86646 371.511 1.84747C372.081 1.83726 372.651 1.82705 373.22 1.81684C371.601 1.80492 367.353 1.77408 365.381 1.77054C362.447 1.76544 360.916 1.79488 359.832 1.79437C358.925 1.79398 354.289 1.76045 352.178 1.75965C351.523 1.75939 351.389 1.79745 350.828 1.79732C347.785 1.7964 343.778 1.79539 341.138 1.75806C342.216 1.77024 335.488 1.79359 335.136 1.79346C334.531 1.79345 333.875 1.75784 332.64 1.75784C330.266 1.75786 330.567 1.83235 327.6 1.75784C326.866 1.77955 326.131 1.80125 325.397 1.82296C325.352 1.72372 316.071 1.85871 313.432 1.73809C313.362 1.72447 325.422 1.68583 326.418 1.68386C332.389 1.67195 341.227 1.69628 347.023 1.67887C348.767 1.67363 354.251 1.6133 354.665 1.61442C355.332 1.61612 354.73 1.65064 355.018 1.65187C360.919 1.67753 357.975 1.60817 358.76 1.5881ZM102.441 12.1341C103.873 11.0549 105.304 9.97578 106.736 8.89661C106.619 8.95727 106.502 9.01794 106.384 9.0786C105.733 9.57821 105.081 10.0778 104.429 10.5774C103.916 10.9459 103.403 11.3144 102.891 11.6828C102.741 11.8333 102.591 11.9837 102.441 12.1341ZM98.8521 14.7127C97.602 15.6369 97.5688 15.7193 97.2832 15.9364C96.4307 16.5844 95.6788 17.1254 94.8479 17.7496C95.8709 17.1185 97.8803 15.5484 98.8521 14.7127ZM126.455 2.02016C126.104 2.02538 123.764 2.14286 121.103 2.03355C119.259 2.06569 117.416 2.09782 115.573 2.12996L115.875 2.02911C115.758 2.12003 115.642 2.21094 115.525 2.30186C115.64 2.21255 115.757 2.12197 115.876 2.03029L115.573 2.13144C118.91 2.08931 123.265 2.13971 124.85 2.1377C125.479 2.13691 125.599 2.10085 126.102 2.10026C129 2.09738 131.818 2.17909 132.114 2.05964C129.373 2.09435 126.902 2.01374 126.455 2.02016ZM110.551 5.93974C110.195 6.23793 109.839 6.53613 109.483 6.83433C110.823 5.829 112.163 4.82367 113.503 3.81834C113.125 4.07 112.748 4.32166 112.37 4.57332C111.764 5.02879 111.157 5.48426 110.551 5.93974ZM237.841 1.97999C236.807 1.9803 235.774 1.9806 234.741 1.9809C234.797 1.96271 235.98 1.96278 236.415 1.95049C236.413 1.95049 236.411 1.95049 236.409 1.95049C236.894 1.93661 236.687 1.91319 237.569 1.90284C237.659 1.92856 237.75 1.95428 237.841 1.97999ZM658.332 22.8765C660.064 22.8752 676.058 22.8751 674.695 22.9414C674.008 22.9746 668.538 22.9457 666.926 22.9462C664.751 22.9469 658.88 23.0186 658.332 22.8765ZM686.658 22.8636C686.935 22.9297 676.939 22.9402 675.962 22.9287C676.169 22.9193 676.489 22.8983 676.766 22.8935C678.114 22.8707 684.503 22.8817 686.658 22.8636ZM295.703 1.78915C294.898 1.82259 294.092 1.85602 293.286 1.88945C293.498 1.84596 293.71 1.80247 293.922 1.75897C294.516 1.76903 295.11 1.77909 295.703 1.78915ZM373.868 1.83703C387.292 1.83492 400.715 1.8328 414.139 1.83068C412.958 1.8126 411.777 1.79452 410.596 1.77645C399.03 1.78286 386.695 1.80116 375.525 1.77327C374.973 1.79452 374.42 1.81578 373.868 1.83703ZM130.237 1.82433C133.676 1.82368 136.549 1.85562 140.291 1.80481C136.725 1.75556 134.96 1.83176 131.495 1.7592C131.493 1.7592 131.491 1.7592 131.489 1.7592C131.072 1.78091 130.654 1.80262 130.237 1.82433ZM207.025 1.81116C205.979 1.78076 204.934 1.75035 203.888 1.71994C205.146 1.71994 206.404 1.71994 207.661 1.71994C207.449 1.75035 207.237 1.78076 207.025 1.81116ZM490.959 1.66798C494.556 1.73434 503.759 1.61422 506.683 1.69407C506.872 1.69931 505.134 1.73301 507.944 1.79823C505.821 1.78487 504.323 1.77124 504.164 1.71994C503.534 1.73734 502.904 1.75474 502.273 1.77213C501.227 1.75897 500.182 1.74581 499.136 1.73265C499.249 1.78373 499.166 1.78101 497.56 1.74604C496.827 1.75897 496.095 1.77191 495.362 1.78484C495.052 1.76321 494.742 1.74157 494.431 1.71994C493.797 1.7502 493.163 1.78045 492.529 1.81071C490.057 1.77789 491.562 1.71926 490.959 1.66798ZM478.366 1.68046C478.951 1.66921 495.63 1.7059 488.05 1.80776C486.08 1.80451 484.109 1.80125 482.139 1.798C483.771 1.62931 478.402 1.78017 477.961 1.78371C475.851 1.80018 473.162 1.76007 471.631 1.76215C470.315 1.76398 469.533 1.79424 468.607 1.79346C465.453 1.79085 460.47 1.78974 459.785 1.71994C462.237 1.71849 464.727 1.71774 467.277 1.71949C469.973 1.72132 472.344 1.65544 477.409 1.74581C478.661 1.7361 478.215 1.68334 478.366 1.68046ZM200.739 1.72698C200.865 1.79709 194.499 1.78032 194.458 1.75262C194.446 1.73638 196.519 1.73676 196.815 1.73061C196.817 1.73061 196.819 1.73061 196.821 1.73061C196.944 1.72792 196.318 1.70108 197.292 1.69362C198.441 1.70474 199.59 1.71586 200.739 1.72698ZM637.994 8.92098C638.706 9.40591 654.421 21.2142 654.873 21.5768C654.996 21.6753 654.81 21.5575 654.854 21.6027C651.219 18.8062 645.965 14.9463 642.48 12.3373C641.509 11.6101 641.816 11.8054 641.761 11.7637C641.759 11.762 641.756 11.7603 641.754 11.7585C641.203 11.3452 638.676 9.53413 637.994 8.92098ZM512.978 1.72607C512.142 1.73704 511.306 1.748 510.471 1.75897C510.259 1.73726 510.047 1.71555 509.835 1.69385C509.837 1.69385 509.839 1.69385 509.84 1.69385C510.886 1.70459 511.932 1.71533 512.978 1.72607ZM541.931 1.65459C541.728 1.66987 541.524 1.68515 541.321 1.70043C539.217 1.70254 537.113 1.70466 535.009 1.70678C535.221 1.7154 535.433 1.72403 535.645 1.73265C532.463 1.7557 531.146 1.702 529.451 1.70973C529.453 1.70973 529.455 1.70973 529.457 1.70973C529.274 1.71063 529.054 1.74246 528.375 1.74354C526.82 1.74603 522.362 1.75788 521.823 1.72584C520.683 1.65749 529.655 1.68993 531.328 1.68681C532.084 1.68537 532.993 1.65751 533.453 1.65686C533.957 1.65625 534.643 1.69387 535.87 1.69271C536.229 1.69232 540.211 1.64806 541.931 1.65459ZM579.07 1.7002C578.421 1.73464 577.067 1.70137 576.569 1.70701C576.45 1.70834 577.375 1.73717 576.254 1.74581C575.937 1.72614 575.619 1.70648 575.302 1.68681C576.558 1.69127 577.814 1.69574 579.07 1.7002ZM190.043 1.69385C190.226 1.68645 193.644 1.68916 193.808 1.69385C195.855 1.75671 188.777 1.7499 190.043 1.69385ZM106.151 8.68999C107.353 7.67343 92.4874 18.939 91.0386 20.02C91.1453 20.0117 94.66 17.3027 92.8482 18.7605C94.596 17.395 99.5136 13.7343 100.66 12.8584C101.356 12.3268 101.503 12.1545 101.608 12.0739C102.02 11.7578 105.727 9.04833 106.151 8.68999ZM76.499 22.6546C78.2715 22.6437 80.044 22.6328 81.8166 22.6219C79.725 22.6154 77.6334 22.6089 75.5419 22.6024C75.8609 22.6198 76.18 22.6372 76.499 22.6546ZM74.2696 22.6285C74.3263 22.5728 68.3097 22.6152 66.7284 22.6024C68.5112 22.6971 71.4852 22.6078 74.2696 22.6285ZM167.373 1.5502C170.145 1.5134 171.337 1.68307 167.966 1.6092C167.864 1.60676 167.258 1.55215 167.373 1.5502ZM491.814 1.42925C492.287 1.42821 498.165 1.37319 498.506 1.40043C499.581 1.48734 495.724 1.45249 494.431 1.4853C492.346 1.53848 495.413 1.58229 490.322 1.5502C490.531 1.5676 490.739 1.585 490.947 1.6024C487.968 1.60816 488.943 1.48764 488.408 1.47214C488.245 1.46743 486.382 1.47756 486.046 1.46987C481.848 1.37278 491.376 1.43006 491.814 1.42925ZM235.993 1.53727C241.511 1.48619 239.137 1.56114 244.801 1.55656C244.989 1.5948 236.711 1.5708 235.993 1.53727ZM438.078 1.49801C443.785 1.51307 448.479 1.46305 453.802 1.53024C453.456 1.6337 436.597 1.52473 438.078 1.49801ZM699.245 22.3932C685.818 22.5046 671.146 22.5265 656.417 22.5257L656.478 22.5458C648.773 16.7646 641.055 10.9612 633.577 5.34992C631.516 3.80336 631.294 3.6879 630.551 3.12478C630.064 2.75595 630.169 2.79358 629.52 2.30635C629.178 2.04952 628.836 1.79283 628.494 1.5363L628.465 1.51405L628.427 1.51386C599.552 1.50751 571.869 1.46582 544.175 1.4853C542.405 1.48661 533.792 1.55757 531.952 1.45058C530.56 1.36942 536.747 1.4327 537.779 1.43198C538.554 1.43145 538.586 1.39331 539.103 1.39317C539.651 1.39304 539.198 1.4191 539.835 1.4195C542.531 1.42133 545.473 1.41114 547.911 1.41337C571.819 1.43472 595.078 1.42861 618.861 1.42494C621.74 1.42455 621.148 1.39399 621.293 1.39385C621.294 1.39393 621.296 1.39401 621.298 1.39408C623.629 1.39365 626.009 1.39484 628.427 1.39709L628.505 1.39747L628.564 1.44289C637.551 8.19811 647.181 15.4649 656.529 22.4768L656.417 22.4395C658.868 22.4392 661.301 22.4374 663.707 22.4336C675.22 22.4125 686.732 22.3915 698.244 22.3705C698.578 22.378 698.911 22.3856 699.245 22.3932ZM479.627 1.53704C481.063 1.42179 481.384 1.538 486.537 1.49098C486.957 1.51064 487.376 1.53031 487.795 1.54998C485.069 1.54567 482.344 1.54135 479.618 1.53704C479.621 1.53704 479.624 1.53704 479.627 1.53704ZM513.663 1.49506C514.534 1.3394 526.058 1.44941 531.247 1.41972C532.198 1.4979 524.654 1.46278 522.876 1.47101C521.987 1.47507 517.23 1.55547 513.614 1.51095C513.63 1.50565 513.647 1.50036 513.663 1.49506ZM123.312 1.39317C124.15 1.39771 124.989 1.40225 125.827 1.40679C123.729 1.42404 121.631 1.44128 119.533 1.45853C122.88 1.44741 126.227 1.43629 129.575 1.42517C128.951 1.39287 128.328 1.36057 127.704 1.32827C126.24 1.34991 124.776 1.37154 123.312 1.39317ZM134.172 1.40974C128.31 1.39758 134.43 1.48404 135.893 1.44559C136.769 1.42254 134.771 1.41105 134.172 1.40974ZM149.42 1.35414C146.686 1.29744 141.161 1.29354 143.125 1.40679C146.079 1.35375 147.984 1.39782 152.268 1.3673C151.642 1.3456 151.017 1.32389 150.391 1.30218C150.388 1.30218 150.385 1.30218 150.383 1.30218C150.062 1.3195 149.741 1.33682 149.42 1.35414ZM131.495 1.34121C127.655 1.40627 138.771 1.38403 135.277 1.34121C135.113 1.33924 131.646 1.33872 131.495 1.34121ZM674.695 22.2761C675.158 22.3131 672.205 22.3124 671.222 22.3149C666.964 22.3259 661.503 22.3098 657.074 22.3149C657.408 22.3027 657.741 22.2905 658.075 22.2784C663.615 22.2776 669.155 22.2768 674.695 22.2761ZM646.048 14.4575C643.614 12.6314 641.18 10.8052 638.746 8.97911C638.519 8.80898 637.474 7.98529 638.27 8.5727C640.863 10.5343 643.455 12.4959 646.048 14.4575ZM460.418 1.31511C462.751 1.29439 456.033 1.18816 456.335 1.30195C457.696 1.30634 459.057 1.31073 460.418 1.31511ZM438.708 1.26973C440.171 1.28054 441.634 1.29136 443.098 1.30218C443.1 1.28909 443.101 1.27601 443.103 1.26292C441.638 1.26519 440.173 1.26746 438.708 1.26973ZM686.658 22.25C685.108 22.2948 681.411 22.2879 679.105 22.2888C680.693 22.2503 684.478 22.2692 686.658 22.25ZM495.374 1.26927C495.185 1.29979 504.466 1.29211 501.253 1.23841C499.293 1.2487 497.333 1.25899 495.374 1.26927ZM514.224 1.22412C512.234 1.21744 510.692 1.22792 511.101 1.27586C512.157 1.27381 513.212 1.27177 514.267 1.26973C514.253 1.25452 514.239 1.23932 514.224 1.22412ZM159.826 1.26292C163.18 1.26723 166.535 1.27154 169.889 1.27586C169.765 1.26277 169.64 1.24968 169.516 1.2366C166.282 1.23236 163.049 1.22813 159.815 1.22389C159.819 1.2369 159.822 1.24991 159.826 1.26292ZM688.554 22.1324C690.858 22.141 693.162 22.1495 695.465 22.1581C693.16 22.1669 690.854 22.1756 688.549 22.1844C688.549 22.167 688.549 22.1496 688.549 22.1322C688.551 22.1323 688.552 22.1324 688.554 22.1324ZM113.896 2.21792C114.421 1.8194 114.869 1.47873 115.246 1.19056L115.394 1.08076L115.573 1.08164C118.993 1.05348 117.878 1.02674 115.573 1.01708L115.373 1.0161L115.207 1.13892C113.319 2.54377 110.447 4.70795 109.45 5.5089C109.448 5.51058 109.446 5.51225 109.443 5.51393C109.259 5.66232 109.682 5.39258 109.376 5.64139C110.2 5.00166 111.024 4.36193 111.848 3.72221C112.621 3.16853 113.395 2.61485 114.169 2.06118C114.415 1.86641 114.66 1.67164 114.906 1.47687C114.569 1.72389 114.233 1.9709 113.896 2.21792ZM79.5236 22.0594C70.2323 22.0664 79.7392 22.1623 84.338 22.0866C84.3049 22.0691 80.3795 22.0587 79.5236 22.0594ZM100.286 12.4126C101.462 11.5409 102.639 10.6692 103.815 9.79754C103.958 9.67655 104.101 9.55556 104.244 9.43457C103.338 10.1003 102.433 10.7661 101.527 11.4318C101.114 11.7588 100.7 12.0857 100.286 12.4126ZM145.022 0.910738C147.378 0.898689 150.383 1.02065 142.818 0.988573C142.822 0.975487 142.826 0.9624 142.83 0.949314C143.131 0.951405 144.016 0.96368 144.064 0.962704C144.203 0.959429 144.04 0.915731 145.022 0.910738ZM62.3188 21.7147C62.0543 21.7097 61.9102 21.5717 59.1583 21.7145C58.3265 21.7058 57.4947 21.6971 56.6629 21.6884C56.448 21.7188 56.233 21.7492 56.0181 21.7796C59.2374 21.756 59.5787 21.8175 59.8118 21.8188C60.882 21.8246 60.09 21.7929 60.7805 21.7925C62.5631 21.7915 66.614 21.8127 64.7766 21.7224C64.1151 21.69 62.5834 21.7197 62.3188 21.7147ZM68.6137 21.6362C68.2233 21.6477 69.4811 21.6881 69.1862 21.6995C68.928 21.7094 65.0479 21.7506 66.0981 21.8188C66.7352 21.816 67.3723 21.8131 68.0094 21.8102C68.2253 21.7915 68.4412 21.7728 68.6571 21.7542C69.274 21.7714 69.8908 21.7887 70.5077 21.8059C71.5472 21.7598 73.7593 21.7001 71.1323 21.6625C72.098 21.6664 73.0638 21.6704 74.0296 21.6743C74.5298 21.6964 75.0301 21.7185 75.5303 21.7405C75.2682 21.7069 75.006 21.6732 74.7438 21.6396C72.7005 21.6384 70.6571 21.6373 68.6137 21.6362ZM38.6746 21.6491C38.7921 21.6665 38.9097 21.6839 39.0273 21.7013C35.4804 21.6689 29.9569 21.6566 33.0939 21.7657C37.8987 21.7748 42.7035 21.7839 47.5083 21.793C47.8273 21.7799 48.1463 21.7668 48.4654 21.7537C44.8808 21.8041 45.9887 21.5896 42.8702 21.6511C42.3445 21.6616 43.8701 21.7366 40.5656 21.6886C40.6832 21.6711 40.8008 21.6536 40.9184 21.6362C40.1705 21.6405 39.4225 21.6448 38.6746 21.6491ZM8.18311 21.6752C14.2563 21.65 7.56667 21.5866 6.44528 21.6393C6.4472 21.6393 6.44913 21.6393 6.45106 21.6393C3.37779 21.7838 9.98616 21.714 10.3894 21.7149C10.9252 21.7162 12.1733 21.8196 15.0881 21.6688C12.7865 21.671 10.4848 21.6731 8.18311 21.6752ZM28.0105 21.6493C27.5002 21.6459 27.7827 21.6722 27.5623 21.6718C27.5604 21.6718 27.5584 21.6718 27.5565 21.6718C24.3057 21.6662 16.5737 21.6426 15.7358 21.7274C18.1422 21.7345 28.9094 21.7528 29.5604 21.6952C29.0437 21.6799 28.5271 21.6646 28.0105 21.6493ZM50.8856 21.7124C52.8813 21.6575 48.3884 21.6502 47.2104 21.6756C46.988 21.6812 48.818 21.7692 50.8856 21.7124ZM196.971 0.570808C201.362 0.603813 195.593 0.636753 197.59 0.688354C196.752 0.683968 195.913 0.679581 195.074 0.675194C195.707 0.640398 196.339 0.605604 196.971 0.570808ZM397.165 0.466652C398.189 0.460554 397.704 0.492056 397.793 0.492521C398.465 0.491644 399.099 0.465981 399.357 0.468695C404.128 0.5205 400.955 0.546957 400.907 0.55311C400.806 0.584274 402.06 0.620741 400.323 0.656359C399.268 0.645315 398.214 0.634272 397.159 0.623228C396.636 0.640551 396.113 0.657871 395.589 0.675194C393.494 0.638029 396.236 0.627836 396.546 0.578526C396.666 0.559141 394.696 0.535936 397.165 0.466652ZM204.839 0.466425C205.551 0.521172 207.296 0.590231 205.582 0.645239C205.58 0.645239 205.578 0.645239 205.577 0.645239C205.26 0.655302 203.969 0.660837 203.573 0.674967C200.746 0.602032 201.829 0.526659 204.839 0.466425ZM378.252 0.368622C376.551 0.381405 374.851 0.394188 373.151 0.406971C373.18 0.4398 373.209 0.472628 373.238 0.505455C374.147 0.496605 375.057 0.487757 375.967 0.478907C376.286 0.493883 376.605 0.50886 376.924 0.523836C375.795 0.561279 374.665 0.598721 373.535 0.636162C372.174 0.623077 370.813 0.609991 369.453 0.596905C370.078 0.579584 370.704 0.562262 371.329 0.544941C368.003 0.525818 368.727 0.605646 365.974 0.636162C365.031 0.605755 364.089 0.575348 363.146 0.544941C361.781 0.575499 360.416 0.606058 359.052 0.636616C356.758 0.622341 356.557 0.599068 358.1 0.564228C356.96 0.524416 355.712 0.587034 354.338 0.570808C354.225 0.5695 354.439 0.532005 354.338 0.531551C347.238 0.506275 347.616 0.60474 346.482 0.608932C345.682 0.611809 342.487 0.545359 342.437 0.522701C342.375 0.49217 349.02 0.371769 338.614 0.368622C343.994 0.285341 350.11 0.370115 346.155 0.492294C347.858 0.48 355.366 0.510485 355.845 0.506817C356.543 0.501284 356.298 0.454929 357.172 0.453718C357.689 0.453062 359.057 0.559021 363.146 0.466425C363.668 0.483822 364.191 0.501221 364.713 0.518618C365.203 0.504322 365.693 0.490025 366.182 0.475729C365.174 0.424747 364.166 0.373766 363.158 0.322784C367.151 0.378178 370.465 0.274115 372.896 0.361814C374.999 0.351606 376.02 0.341516 375.117 0.296688C375.748 0.296688 376.38 0.296688 377.011 0.296688C377.425 0.320665 377.838 0.344645 378.252 0.368622ZM217.741 0.544714C219.831 0.493814 220.582 0.603624 220.257 0.60984C218.424 0.644011 216.654 0.571194 217.741 0.544714ZM393.371 0.524971C391.066 0.553261 388.76 0.581551 386.455 0.60984C386.455 0.575121 386.455 0.540401 386.455 0.505682C388.76 0.512112 391.066 0.518541 393.371 0.524971ZM196.329 0.492748C196.117 0.518768 195.905 0.544788 195.693 0.570808C193.168 0.475765 190.661 0.612133 189.413 0.583971C189.142 0.577818 189.689 0.531874 190.205 0.52202C190.526 0.515865 195.882 0.483973 196.329 0.492748ZM95.4053 15.3558C96.1682 14.8052 96.9312 14.2546 97.6942 13.7041C97.635 13.7119 97.5758 13.7197 97.5166 13.7275C97.1417 14.002 96.7668 14.2764 96.3919 14.5509C96.063 14.8192 95.7341 15.0875 95.4053 15.3558ZM103.996 8.96886C105.337 7.95992 106.677 6.95098 108.018 5.94204C102.882 9.76178 107.076 6.59887 103.945 8.90079C103.962 8.92348 103.979 8.94617 103.996 8.96886ZM118.891 0.492521C118.684 0.475048 118.478 0.457575 118.272 0.440102C117.372 0.440102 116.472 0.440102 115.573 0.440102L115.183 0.438192L114.861 0.677395C114.238 1.14454 113.616 1.61169 112.993 2.07884C113.589 1.5761 114.185 1.07336 114.781 0.570614L115.139 0.304483L115.573 0.306608C115.856 0.290443 116.138 0.274277 116.421 0.258112C117.036 0.257959 117.651 0.257809 118.266 0.257658C118.474 0.335945 118.682 0.414234 118.891 0.492521ZM442.493 0.336172C443.508 0.335125 447.037 0.388138 446.885 0.407652C445.419 0.431631 443.953 0.455608 442.487 0.479588C442.481 0.444792 442.474 0.409998 442.467 0.375202C442.26 0.392525 442.053 0.409845 441.846 0.427168C441.012 0.414158 440.178 0.401148 439.344 0.388138C438.924 0.418545 438.504 0.448952 438.084 0.479361C437.661 0.444641 437.239 0.409922 436.817 0.375202C440.843 0.313648 440.704 0.375172 441.542 0.374521C441.967 0.374228 442.236 0.352684 442.386 0.341845C442.422 0.339954 442.458 0.338062 442.493 0.336172ZM391.778 0.303495C396.585 0.294851 399.332 0.386456 402.81 0.309849C400.579 0.473032 386.177 0.304478 381.1 0.440556C380.572 0.414385 380.045 0.388212 379.518 0.362041C382.283 0.385347 384.199 0.331444 385.547 0.323692C386.618 0.317535 386.506 0.344961 386.588 0.344568C386.592 0.344568 386.596 0.344568 386.599 0.344568C389.107 0.333305 389.882 0.306904 391.778 0.303495ZM192.758 0.364765C194.05 0.323414 196.31 0.327549 196.335 0.387911C195.077 0.405384 193.819 0.422855 192.562 0.440329C192.82 0.424875 192.538 0.371838 192.758 0.364765ZM120.842 0.323919C121.85 0.304274 124.232 0.321487 123.205 0.373613C123.02 0.382866 120.648 0.346226 122.04 0.440329C119.728 0.438875 120.269 0.335211 120.842 0.323919ZM309.641 0.427168C308.792 0.425428 307.944 0.423689 307.096 0.421949C306.899 0.397593 306.701 0.373236 306.503 0.348879C307.549 0.374975 308.595 0.401072 309.641 0.427168ZM181.857 0.323011C180.729 0.442209 178.803 0.32621 176.687 0.424217C175.905 0.424974 175.124 0.42573 174.342 0.426487C174.34 0.426487 174.338 0.426487 174.336 0.426487C174.315 0.393961 174.294 0.361437 174.273 0.328911C176.801 0.326944 179.329 0.324978 181.857 0.323011ZM362.527 0.368395C362.005 0.383524 361.482 0.398651 360.96 0.41378C360.03 0.396154 359.1 0.378531 358.17 0.360907C358.673 0.348274 359.176 0.335642 359.679 0.323011C360.629 0.338139 361.578 0.353268 362.527 0.368395ZM168.116 0.312799C170.851 0.297869 171.879 0.401491 168.382 0.401752C166.908 0.401752 165.252 0.3284 168.116 0.312799ZM494.726 0.374748C493.789 0.383598 492.853 0.392448 491.916 0.401299C491.597 0.379515 491.278 0.357729 490.959 0.335945C492.214 0.348879 493.47 0.361814 494.726 0.374748ZM108.642 5.21263C108.743 5.16411 108.844 5.11559 108.945 5.06708C109.611 4.56206 110.277 4.05704 110.943 3.55203C110.762 3.66082 110.581 3.76962 110.399 3.87841C109.814 4.32315 109.228 4.76789 108.642 5.21263ZM488.423 0.388138C487.674 0.392298 486.925 0.396458 486.176 0.400618C485.673 0.390028 485.17 0.379438 484.667 0.368849C485.367 0.358335 486.068 0.34782 486.769 0.337307C487.32 0.35425 487.871 0.371193 488.423 0.388138ZM142.199 0.322784C143.251 0.296591 147.454 0.378201 143.668 0.399029C141.256 0.412252 142.042 0.326769 142.199 0.322784ZM136.529 0.296688C140.536 0.246788 137.532 0.500051 132.75 0.335945C137.563 0.358444 136.294 0.299702 136.529 0.296688ZM103.276 9.02644C103.196 9.08701 103.151 9.16597 102.508 9.65023C100.193 11.3931 97.1413 13.7005 95.4847 14.9461C93.6752 16.3067 90.1595 18.9291 86.7335 21.4943L87.5825 21.2112C82.4426 21.2061 77.4557 21.2126 76.4816 21.2701C76.1099 21.2923 76.9654 21.3584 76.8142 21.3618C76.3706 21.3713 73.8177 21.3392 74.2898 21.3879C76.7949 21.3875 79.2999 21.3872 81.805 21.3868C81.1901 21.3524 80.5751 21.3181 79.9602 21.2838C86.202 21.3021 84.1359 21.3 85.9312 21.3747C86.4817 21.3597 87.0321 21.3446 87.5825 21.3295L86.8045 21.5889C87.2008 21.2742 87.5972 20.9594 87.9936 20.6447C89.8507 19.2878 91.7077 17.931 93.5648 16.5741C93.1346 16.8697 92.7045 17.1652 92.2744 17.4608C95.0217 15.3493 94.2675 15.9481 95.8156 14.8524C95.8057 14.8328 95.7958 14.8131 95.7858 14.7934C98.4934 12.8281 98.9756 12.385 99.5597 11.9458C100.758 11.0451 102.441 10.1037 106.862 6.46741C108.864 5.11866 108.67 4.95161 109.88 4.20282C113.062 1.64289 106.883 6.34096 103.948 8.54875C103.947 8.54991 103.945 8.55107 103.943 8.55222C103.722 8.71883 104.06 8.43617 103.276 9.02644ZM122.259 0.293283C119.789 0.180452 129.549 0.169889 126.319 0.332767C125.838 0.338062 125.357 0.343357 124.876 0.348654C124.002 0.330196 123.128 0.311741 122.253 0.293283C122.255 0.293283 122.257 0.293283 122.259 0.293283ZM213.968 0.218399C223.008 0.264763 217.868 0.32967 214.806 0.266281C214.195 0.253708 213.861 0.236471 213.968 0.218399ZM398.646 0.216812C398.778 0.23035 398.91 0.243891 399.042 0.257431C396.01 0.244759 390.148 0.296986 390.228 0.205692C393.034 0.209398 395.84 0.213104 398.646 0.216812ZM374.663 0.157131C375.314 0.151625 377.974 0.138626 377.653 0.172789C376.5 0.196993 375.347 0.221199 374.195 0.245403C373.658 0.230276 373.121 0.215147 372.584 0.20002C373.334 0.194874 374.487 0.158571 374.663 0.157131Z" fill="url(#paint0_radial_61_244)"/>
<defs>
<radialGradient id="paint0_radial_61_244" cx="0" cy="0" r="1" gradientUnits="userSpaceOnUse" gradientTransform="translate(372 11.1714) rotate(-90) scale(353.182 315.26)">
<stop stop-color="#C9684D"/>
<stop offset="1" stop-color="#E82E5A"/>
</radialGradient>
</defs>
</svg>
