<svg width="701" height="701" viewBox="0 0 701 701" fill="none" xmlns="http://www.w3.org/2000/svg">
<g opacity="0.05" filter="url(#filter0_d_38_413)">
<path d="M393.842 294.506C390.595 294.506 387.481 295.796 385.185 298.092L354.787 328.491C350.686 327.648 346.414 327.978 342.468 329.464C337.809 331.219 333.873 334.487 331.29 338.745C328.708 343.002 327.629 348.002 328.225 352.946C328.822 357.889 331.06 362.489 334.58 366.01C338.101 369.531 342.702 371.769 347.645 372.366C352.588 372.962 357.589 371.882 361.846 369.3C366.103 366.718 369.372 362.782 371.127 358.122C372.614 354.176 372.942 349.904 372.099 345.804L402.499 315.407V315.406C404.795 313.11 406.086 309.996 406.085 306.748C406.085 303.501 404.796 300.387 402.499 298.091C400.203 295.795 397.089 294.506 393.842 294.506ZM219.946 282.837C209.138 303.681 203.513 326.822 203.548 350.301L203.554 353.947H258.386L258.381 350.29C258.361 336.3 261.549 322.492 267.7 309.926L271.49 302.185L264.835 304.348L225.012 281.357L221.705 279.447L219.946 282.837ZM475.579 281.355L434.342 305.161L431.39 306.867L432.889 309.928C439.04 322.493 442.229 336.301 442.21 350.29L442.205 353.947H497.038L497.043 350.301C497.077 326.822 491.451 303.681 480.644 282.836L478.886 279.445L475.579 281.355ZM271.144 226.719C253.317 238.165 238.165 253.315 226.718 271.141L224.65 274.362L227.964 276.275L269.195 300.078L272.141 301.781L274.045 298.959C280.677 289.135 289.137 280.678 298.963 274.049L301.785 272.146L300.083 269.198L276.278 227.965L274.364 224.652L271.144 226.719ZM424.331 227.962L400.522 269.201L398.821 272.148L401.641 274.052C411.463 280.681 419.919 289.137 426.548 298.959L428.452 301.78L431.399 300.078L472.636 276.27L475.951 274.357L473.882 271.136C462.438 253.312 447.289 238.161 429.465 226.715L426.246 224.648L424.331 227.962ZM343.517 203.709C322.352 204.655 301.647 210.197 282.84 219.952L279.451 221.71L281.36 225.018L305.164 266.25L306.87 269.203L309.931 267.703C320.566 262.496 332.112 259.406 343.926 258.605L347.33 258.374V203.539L343.517 203.709ZM353.262 258.37L356.665 258.6C368.477 259.4 380.02 262.488 390.653 267.694L393.714 269.193L395.418 266.24L419.228 225.004L421.138 221.697L417.747 219.939C398.941 210.188 378.237 204.647 357.075 203.702L353.262 203.532V258.37ZM319.857 517.375L316.921 516.789C295.22 512.459 274.581 503.905 256.18 491.613L253.689 489.949L229.953 513.685L186.907 470.639L210.642 446.904L208.978 444.412C196.686 426.011 188.131 405.372 183.801 383.67L183.216 380.735H149.666V319.857H183.216L183.802 316.921C188.132 295.22 196.687 274.581 208.979 256.18L210.643 253.69L186.906 229.953L229.953 186.906L253.69 210.643L256.18 208.979C274.581 196.687 295.22 188.132 316.921 183.802L319.857 183.216V149.666H380.735V183.22L383.67 183.806C405.371 188.136 426.01 196.689 444.411 208.982L446.901 210.646L449.019 208.528L470.639 186.907L513.685 229.953L492.065 251.574L489.947 253.692L491.611 256.182C503.903 274.582 512.458 295.22 516.788 316.921L517.373 319.857H550.925V380.735H517.372L516.787 383.67C512.456 405.372 503.902 426.01 491.61 444.411L489.946 446.902L492.065 449.02L513.684 470.638L470.637 513.685L449.02 492.067L446.902 489.949L444.412 491.613C426.011 503.905 405.372 512.459 383.67 516.789L380.735 517.375V550.925H319.857V517.375ZM408.154 425.285C408.147 423.005 407.239 420.82 405.627 419.208C404.016 417.597 401.831 416.688 399.551 416.682H301.04C298.903 416.688 296.85 417.486 295.273 418.914L294.964 419.208C293.352 420.82 292.444 423.005 292.438 425.285V446.064C292.444 448.343 293.353 450.527 294.964 452.139C296.576 453.751 298.761 454.66 301.04 454.666H399.552C401.831 454.66 404.016 453.751 405.627 452.139C407.239 450.527 408.147 448.343 408.154 446.064V425.285Z" stroke="#07596E" stroke-width="7.3008"/>
<g filter="url(#filter1_f_38_413)">
<path d="M393.842 296.331C391.079 296.332 388.429 297.428 386.475 299.382L355.361 330.496C351.314 329.463 347.037 329.694 343.112 331.172C338.835 332.783 335.221 335.783 332.851 339.691C330.481 343.599 329.49 348.189 330.038 352.727C330.585 357.265 332.64 361.488 335.872 364.72C339.103 367.952 343.326 370.006 347.864 370.553C352.401 371.101 356.992 370.11 360.9 367.74C364.808 365.369 367.807 361.756 369.418 357.479C370.897 353.553 371.127 349.276 370.093 345.229L401.209 314.116C403.163 312.162 404.26 309.511 404.26 306.748C404.26 303.985 403.162 301.336 401.208 299.382C399.255 297.429 396.605 296.331 393.842 296.331ZM221.567 283.677C210.894 304.26 205.339 327.113 205.373 350.298L205.376 352.121H256.559L256.556 350.293C256.536 336.024 259.788 321.94 266.061 309.124L267.955 305.253L264.627 306.335L224.099 282.937L222.446 281.982L221.567 283.677ZM476.491 282.935L435.255 306.743L433.779 307.595L434.529 309.126C440.803 321.942 444.055 336.025 444.036 350.293L444.033 352.121H495.215L495.218 350.298C495.251 327.112 489.696 304.26 479.024 283.676L478.145 281.981L476.491 282.935ZM272.13 228.254C254.524 239.558 239.559 254.522 228.254 272.127L227.22 273.738L228.877 274.695L270.107 298.498L271.58 299.349L272.533 297.939C279.295 287.92 287.922 279.295 297.943 272.536L299.353 271.584L298.502 270.11L274.697 228.878L273.74 227.221L272.13 228.254ZM425.913 228.874L402.103 270.114L401.251 271.587L402.663 272.539C412.678 279.299 421.301 287.922 428.061 297.938L429.013 299.348L430.487 298.497L471.724 274.689L473.38 273.733L472.347 272.122C461.044 254.519 446.082 239.556 428.479 228.251L426.869 227.217L425.913 228.874ZM343.598 205.533C322.698 206.466 302.252 211.94 283.681 221.573L281.986 222.452L282.94 224.105L306.746 265.338L307.597 266.815L309.128 266.065C319.976 260.753 331.753 257.601 343.803 256.785L345.504 256.669V205.448L343.598 205.533ZM355.087 256.663L356.788 256.779C368.836 257.595 380.61 260.745 391.455 266.054L392.986 266.803L393.838 265.328L417.647 224.092L418.602 222.438L416.907 221.559C398.336 211.93 377.891 206.459 356.994 205.526L355.087 205.44V256.663ZM318.032 518.872L316.564 518.579C294.628 514.203 273.766 505.555 255.165 493.13L253.92 492.298L252.862 493.358L229.953 516.266L184.325 470.638L207.234 447.731L208.292 446.672L207.46 445.426C195.035 426.826 186.389 405.964 182.012 384.028L181.719 382.56H147.841V318.032H181.719L182.012 316.564C186.389 294.628 195.036 273.766 207.461 255.166L208.293 253.921L207.234 252.863L184.325 229.953L229.953 184.325L252.863 207.234L253.921 208.293L255.166 207.461C273.766 195.036 294.628 186.389 316.564 182.012L318.032 181.719V147.841H382.56V181.723L384.028 182.016C405.963 186.393 426.825 195.039 445.424 207.464L446.669 208.296L447.729 207.238L470.639 184.326L516.266 229.953L493.356 252.864L492.296 253.923L493.128 255.168C505.554 273.768 514.201 294.628 518.578 316.564L518.871 318.032H552.75V382.56H518.87L518.577 384.028C514.2 405.964 505.552 426.825 493.127 445.425L492.296 446.67L493.355 447.73L516.265 470.639L470.637 516.266L447.73 493.358L446.67 492.298L445.425 493.13C426.825 505.555 405.964 514.203 384.028 518.579L382.56 518.872V552.75H318.032V518.872ZM406.329 425.289C406.323 423.492 405.607 421.77 404.336 420.499C403.066 419.229 401.343 418.512 399.546 418.507H301.045C299.248 418.512 297.525 419.228 296.254 420.499C294.984 421.77 294.268 423.492 294.263 425.289V446.059C294.268 447.856 294.985 449.578 296.255 450.849C297.526 452.12 299.248 452.836 301.045 452.841H399.547C401.344 452.836 403.066 452.119 404.336 450.849V450.848C405.607 449.577 406.323 447.856 406.329 446.059V425.289Z" stroke="#07596E" stroke-width="3.6504"/>
</g>
</g>
<defs>
<filter id="filter0_d_38_413" x="90.8741" y="90.8741" width="518.844" height="518.844" filterUnits="userSpaceOnUse" color-interpolation-filters="sRGB">
<feFlood flood-opacity="0" result="BackgroundImageFix"/>
<feColorMatrix in="SourceAlpha" type="matrix" values="0 0 0 0 0 0 0 0 0 0 0 0 0 0 0 0 0 0 127 0" result="hardAlpha"/>
<feMorphology radius="24.336" operator="dilate" in="SourceAlpha" result="effect1_dropShadow_38_413"/>
<feOffset/>
<feGaussianBlur stdDeviation="11.6813"/>
<feComposite in2="hardAlpha" operator="out"/>
<feColorMatrix type="matrix" values="0 0 0 0 0.027451 0 0 0 0 0.34902 0 0 0 0 0.431373 0 0 0 1 0"/>
<feBlend mode="normal" in2="BackgroundImageFix" result="effect1_dropShadow_38_413"/>
<feBlend mode="normal" in="SourceGraphic" in2="effect1_dropShadow_38_413" result="shape"/>
</filter>
<filter id="filter1_f_38_413" x="0" y="-4.57764e-05" width="700.592" height="700.592" filterUnits="userSpaceOnUse" color-interpolation-filters="sRGB">
<feFlood flood-opacity="0" result="BackgroundImageFix"/>
<feBlend mode="normal" in="SourceGraphic" in2="BackgroundImageFix" result="shape"/>
<feGaussianBlur stdDeviation="73.008" result="effect1_foregroundBlur_38_413"/>
</filter>
</defs>
</svg>
