<svg width="744" height="25" viewBox="0 0 744 25" fill="none" xmlns="http://www.w3.org/2000/svg">
<path opacity="0.75" d="M17.0284 0.137599C32.8848 -0.18733 43.7084 0.157912 58.4181 0.212937C67.4771 0.246756 77.3438 0.262592 87.5825 0.26805L88.1052 0.265486L88.5373 0.586401C97.6553 7.43482 107.15 14.5498 116.534 21.5785L115.573 21.2582C130.949 21.2461 146.084 21.2301 159.618 21.2336C184.686 21.2401 210.157 21.2633 235.073 21.2819C236.351 21.2828 237.114 21.3185 237.693 21.3189C243.148 21.3231 252.297 21.2908 257.708 21.2955C269.092 21.3054 288.9 21.2998 299.327 21.3332C303.754 21.3473 308.296 21.3532 310.017 21.438C311.634 21.4424 312.518 21.3657 312.94 21.3616C312.945 21.3616 312.95 21.3617 312.954 21.3618C314.315 21.3489 317.751 21.4026 318.509 21.3992C318.623 21.3987 317.924 21.3432 319.764 21.36C319.928 21.3614 319.777 21.3992 321.326 21.3997C321.729 21.3998 326.909 21.342 328.39 21.3384C333.316 21.3269 345.082 21.3723 350.973 21.3716C351.874 21.3716 352.392 21.3495 353.344 21.3491C353.835 21.3489 354.572 21.3728 354.723 21.3727C355.386 21.3718 358.281 21.263 357.241 21.4778C360.264 21.4641 359.374 21.3932 359.442 21.347C362.723 21.3404 364.305 21.4415 365.161 21.3343C381.297 21.3473 397.433 21.3602 413.569 21.3731C413.574 21.3557 413.579 21.3382 413.583 21.3207C418.339 21.3905 419.971 21.2725 422.686 21.3738C424.36 21.3515 426.035 21.3292 427.709 21.3069C470.737 21.3756 513.664 21.2939 556.207 21.2942C558.002 21.2942 558.45 21.3314 561.411 21.3316C564.681 21.3319 569.279 21.2887 573.588 21.2892C577.367 21.2896 582.943 21.3247 587.158 21.3303C588.109 21.3314 588.797 21.3079 588.904 21.308C589.534 21.3089 589.566 21.3462 590.177 21.3473C590.907 21.3485 591.79 21.3208 592.634 21.3225C595.789 21.3287 599.227 21.3192 599.626 21.3198C601.55 21.3233 601.975 21.3598 602.133 21.3602C604.273 21.3647 603.471 21.3318 604.004 21.3337C606.77 21.3437 608.725 21.4259 612.511 21.347C612.408 21.3775 612.305 21.408 612.201 21.4385C615.099 21.4556 613.185 21.3747 613.777 21.36C614.019 21.3545 620.256 21.3644 620.737 21.3659C622.413 21.3711 622.458 21.4116 622.602 21.4122C622.911 21.4133 626.168 21.3784 628.427 21.3931L627.547 21.6864C627.809 21.4924 628.056 21.3118 628.276 21.1517C630.347 19.6509 627.989 21.5228 628.506 21.1542C628.593 21.092 630.729 19.4789 631.032 19.2839C631.366 19.068 629.514 20.4567 629.55 20.4446C629.575 20.4359 632.683 18.1752 632.117 18.6482C631.777 18.9394 629.306 20.7669 627.737 21.9391L628.427 21.709C627.787 21.7076 627.267 21.7079 626.995 21.7124C626.812 21.7154 627.156 21.7631 626.995 21.7648C626.346 21.7712 614.333 21.7727 613.783 21.7648C614.409 21.7431 615.034 21.7214 615.66 21.6997C614.828 21.6975 613.996 21.6953 613.164 21.6931C614.347 21.6757 615.53 21.6583 616.712 21.6409C614.955 21.4622 609.661 21.6434 609.443 21.7326C609.348 21.7738 612.585 21.88 609.573 21.9418C610.031 21.9524 610.489 21.963 610.947 21.9736C611.89 21.9562 612.834 21.9388 613.777 21.9214C613.149 21.9104 612.521 21.8995 611.892 21.8885C612.123 21.8761 612.355 21.8637 612.586 21.8513C614.35 21.8314 616.114 21.8115 617.878 21.7916C618.784 21.8008 618.596 21.8374 619.219 21.8445C626.993 21.9336 621.922 21.8202 627.012 21.8365C627.484 21.8493 627.955 21.862 628.427 21.8748L627.836 22.0717C628.045 21.9242 628.253 21.7766 628.461 21.6291C628.207 21.7179 630.041 20.4059 632.201 18.7413C631.956 18.9579 631.711 19.1744 631.467 19.391C634.618 17.0092 641.103 12.3099 639.287 13.4905C640.018 12.9573 640.75 12.424 641.481 11.8908C642.078 11.4131 642.676 10.9354 643.273 10.4577C644.119 9.82592 644.966 9.19413 645.813 8.56234C645.824 8.56973 645.836 8.57712 645.847 8.58452C645.173 9.09014 644.5 9.59575 643.826 10.1014C644.355 9.75326 644.884 9.40514 645.414 9.05702C645.907 8.67873 646.401 8.30043 646.894 7.92213C644.786 9.45747 647.499 7.34579 648.134 6.80489C649.881 5.47029 651.045 4.68099 651.637 4.24102C651.915 4.03423 655.108 1.48993 653.907 2.5544C654.55 2.06428 655.193 1.57417 655.836 1.08405L656.09 0.891801L656.417 0.890193C657.709 0.880471 659.001 0.870748 660.292 0.861025C661.114 0.87101 661.935 0.880994 662.756 0.890979C660.974 0.951617 666.139 1.02468 662.334 1.04982C659.493 1.06868 658.792 1.01199 657.444 1.01238C657.057 1.01247 656.729 1.0164 656.417 1.02177L656.134 1.02316L655.915 1.1893C655.389 1.5985 654.931 1.96447 654.21 2.50654C647.101 7.85362 641.301 12.1966 634.533 17.2532C633.196 18.2521 631.993 19.1782 631.095 19.849C630.08 20.6061 631.32 19.6161 630.037 20.5932C628.69 21.6194 628.42 21.8705 628.063 22.1395C628.034 22.1617 627.995 22.1896 627.95 22.2227L628.427 22.0635C628.057 22.0568 627.3 22.0303 626.596 22.0303C623.26 22.0303 618.372 22.0643 617.898 22.0641C617.362 22.0637 607.928 22.032 607.477 22.0262C607.237 22.0231 607.734 21.8932 605.655 22.0317C605.006 22.0342 604.358 22.0368 603.709 22.0394C603.814 22.0134 603.919 21.9875 604.024 21.9616C600.181 22.0599 601.503 22.0049 597.799 22.0126C588.928 22.0312 575.843 22.0093 566.142 22.0185C563.975 22.0206 563.15 22.0517 560.587 22.0539C558.206 22.0559 551.989 21.9632 553.341 22.0916C548.043 21.9804 547.191 22.1721 544.539 22.0525C544.218 22.0699 543.897 22.0873 543.576 22.1047C540.697 22.0301 539.809 22.0957 536.665 22.1047C535.311 22.1087 536.872 22.0293 534.138 22.1177C533.616 22.1111 533.093 22.1045 532.571 22.0979C532.692 22.0787 532.814 22.0595 532.935 22.0403C529.899 22.056 529.703 22.046 530.049 22.1179C528.583 22.1048 527.117 22.0917 525.651 22.0786C525.469 22.1022 525.287 22.1258 525.105 22.1494C525.807 22.1945 559.094 22.1266 563.73 22.105C569.167 22.1584 580.088 22.0916 584.48 22.1043C586.238 22.1094 587.014 22.1628 589.572 22.1692C592.129 22.1756 595.347 22.1271 596.709 22.1254C601.245 22.1194 622.734 22.13 608.119 22.1964C608.539 22.2224 608.959 22.2485 609.379 22.2745C615.187 22.1857 613.084 22.2403 617.904 22.2495C619.932 22.2534 624.757 22.1953 624.488 22.3135C620.72 22.3355 616.718 22.2977 613.442 22.2994C613.117 22.2996 609.239 22.3536 607.242 22.3389C605.442 22.3255 606.682 22.2129 602.763 22.3394C599.853 22.2158 598.171 22.3279 597.402 22.3398C596.074 22.3605 595.929 22.2995 594.601 22.2924C593.154 22.2846 592.158 22.325 591.961 22.3253C589.977 22.3262 579.645 22.3317 579.171 22.3072C579.587 22.2963 580.002 22.2855 580.417 22.2747C577.734 22.2573 578.295 22.3197 577.59 22.3271C577.064 22.3269 576.539 22.3267 576.014 22.3264C576.222 22.3135 576.43 22.3006 576.638 22.2876C573.469 22.2904 575.894 22.3353 571.396 22.3342C568.54 22.3334 565.59 22.284 565.312 22.2876C565.23 22.2887 566.129 22.322 564.965 22.3264C563.038 22.3338 559.705 22.3329 559.332 22.2876C558.388 22.294 558.469 22.3384 558.343 22.3394C557.795 22.3437 548.365 22.3588 546.676 22.3614C541.995 22.3686 536.784 22.3591 531.712 22.3666C531.191 22.3674 531.523 22.3389 531.001 22.3398C530.162 22.3413 525.855 22.3859 525.212 22.3891C523.606 22.3968 519.382 22.3791 518.718 22.392C518.623 22.3939 520.013 22.4323 518.388 22.4442C516.583 22.4574 517.555 22.4057 517.457 22.4052C513.784 22.3875 511.466 22.4234 508.959 22.4304C508.146 22.4326 506.647 22.3937 505.5 22.4052C505.368 22.4065 505.63 22.4424 505.5 22.4442C503.768 22.4631 502.147 22.3963 501.397 22.392C499.563 22.3815 500.562 22.4307 500.466 22.4311C499.244 22.4326 497.599 22.4149 495.741 22.4172C487.457 22.4277 480.696 22.4307 471.889 22.4274C470.783 22.427 469.47 22.3923 469.301 22.3922C468.778 22.3925 468.927 22.4333 467.416 22.4324C464.228 22.4303 461.272 22.4323 458.116 22.4315C457.481 22.4313 457.21 22.3935 456.725 22.3927C455.1 22.3903 449.559 22.4894 449.468 22.3662C446.242 22.4752 444.1 22.3812 441.504 22.3823C435.356 22.3846 425.728 22.4068 419.598 22.3927C418.307 22.3897 417.702 22.3581 416.984 22.3564C415.696 22.3533 408.336 22.3709 407.951 22.3659C407.195 22.3564 407.648 22.2173 403.761 22.3385C401.482 22.3471 401.751 22.29 401.28 22.287C397.607 22.264 394.034 22.3914 394.702 22.2747C390.425 22.3064 387.654 22.3709 385.908 22.2618C385.931 22.315 383.92 22.347 381.496 22.3267C383.978 22.2372 383.671 22.1801 389.673 22.1964C389.768 22.1967 389.587 22.2352 389.682 22.2354C390.539 22.238 392.327 22.2186 393.788 22.2207C395.249 22.2228 394.438 22.2491 395.023 22.2486C395.558 22.2481 395.54 22.2112 396.315 22.2107C398.829 22.2093 401.053 22.1991 402.483 22.1985C403.384 22.1981 404.392 22.2305 405.091 22.2305C407.794 22.2302 413.521 22.2049 416.961 22.2084C417.677 22.2093 417.377 22.2456 418.944 22.2486C419.127 22.249 419.795 22.2111 421.168 22.2032C422.541 22.1954 423.606 22.2142 424.487 22.2103C425.225 22.207 424.917 22.1733 426.428 22.1712C427.688 22.1695 441.958 22.1938 442.733 22.1991C443.848 22.2069 444.378 22.2541 445.058 22.2484C445.178 22.2471 445.38 22.2015 445.795 22.1982C452.637 22.1443 467.78 22.2066 475.599 22.2062C491.94 22.2055 507.017 22.1787 523.503 22.1681C523.797 22.1601 524.091 22.1522 524.385 22.1442C522.718 22.1439 521.052 22.1436 519.385 22.1433C519.375 22.1218 519.364 22.1004 519.354 22.0789C517.101 22.0755 517.399 22.1263 517.463 22.1569C516.629 22.1439 515.795 22.1309 514.961 22.1179C514.242 22.1928 508.682 22.143 505.815 22.1431C503.951 22.1431 501.732 22.1716 500.749 22.1694C498.672 22.1648 498.727 22.1186 498.563 22.1179C498.286 22.1169 495.387 22.1576 493.295 22.156C490.203 22.1538 489.868 22.0828 485.635 22.1431C480.211 22.1063 474.201 22.1248 468.355 22.1308C469.468 22.0653 464.229 22.1273 461.867 22.1263C447.453 22.1199 429.736 22.0919 415.133 22.0659C413.257 22.0627 411.839 22.024 410.793 22.0253C410.226 22.026 409.979 22.0715 409.191 22.0655C409.053 22.0643 408.957 22.0217 407.491 22.0153C403.843 21.9992 394.757 22.0703 392.458 21.9886C379.986 22.0012 367.515 22.0138 355.044 22.0265C354.731 22.0091 354.417 21.9917 354.104 21.9743C351.735 22.0632 342.369 22.0109 337.802 22.0151C329.763 22.0226 319.506 22.0502 312.463 22.0532C310.932 22.0539 309.678 22.0287 308.23 22.0292C307.606 22.0294 306.831 22.0621 306.182 22.0623C298.9 22.0648 289.039 22.0311 281.7 22.0319C265.036 22.0336 249.343 22.0286 232.459 22.0301C193.361 22.0336 154.417 22.0574 115.573 22.0657L116.049 22.2244C106.711 15.2213 97.3802 8.22246 88.0573 1.22621L87.8424 1.06664L87.5825 1.06791C81.6018 1.06724 75.623 1.06595 69.646 1.06389C68.89 1.06363 68.9278 1.02603 68.3419 1.02577C64.8833 1.02394 57.1598 1.05493 53.2538 1.05323C50.1416 1.05192 45.2019 0.994431 44.1309 1.05232C55.1873 1.13994 66.8685 1.13335 78.3785 1.15784C79.1968 1.15956 79.2985 1.19531 79.3992 1.19596C81.2627 1.20838 80.0859 1.15916 82.7881 1.15693C83.2366 1.15656 85.5193 1.18451 87.5825 1.19884L87.7994 1.19777L87.9787 1.33094C89.6432 2.59785 91.1355 3.71814 90.7701 3.37254C92.3409 4.60782 103.592 13.0774 105.775 14.6963C106.438 15.1879 105.991 14.8104 106.123 14.9073C106.696 15.3283 106.925 15.5582 107.433 15.9407C108.787 16.9601 112.257 19.5168 112.912 20.0085C113.543 20.4821 114.698 21.3572 115.975 22.3235L115.573 22.1895C117.795 22.1994 120.31 22.21 121.756 22.2048C124.037 22.1967 123.61 22.1482 125.582 22.1438C127.136 22.1404 125.443 22.1812 128.913 22.1935C130.632 22.1995 136.649 22.1703 138.111 22.1703C139.572 22.1703 141.198 22.1993 143.214 22.1971C146.118 22.194 152.436 22.1778 155.391 22.1685C155.567 22.168 155.997 22.1303 156.432 22.1311C157.332 22.1326 157.062 22.1792 157.742 22.1839C158.422 22.1886 170.204 22.183 172.205 22.1835C173.584 22.1837 174.537 22.156 175.299 22.1562C175.897 22.1565 175.961 22.1953 176.571 22.1957C176.76 22.1957 178.368 22.162 179.975 22.1628C181.493 22.1636 187.256 22.1957 187.924 22.196C188.358 22.1961 187.882 22.1685 189.167 22.1692C190.338 22.1699 191.108 22.2056 191.775 22.2062C193.324 22.2073 195.056 22.1768 196.699 22.1767C201.424 22.1763 201.181 22.2206 201.465 22.2221C202.251 22.2261 202.566 22.1855 202.824 22.1846C203.913 22.1812 206.583 22.1737 207.554 22.1721C208.764 22.1702 209.276 22.2088 210.562 22.2089C211.52 22.2089 213.454 22.1712 215.639 22.1694C220.566 22.1651 226.424 22.158 231.262 22.1594C232.705 22.1598 232.926 22.195 233.367 22.196C235.685 22.2008 236.982 22.1614 237.644 22.1619C242.363 22.1655 250.78 22.2273 255.158 22.2325C256.941 22.2346 264.747 22.2061 269.15 22.2112C269.654 22.2117 269.182 22.2393 269.743 22.235C271.084 22.2246 270.96 22.1684 271.64 22.1701C271.968 22.1711 272.717 22.2028 273.673 22.2059C278.631 22.2223 282.04 22.1977 284.302 22.1994C306.024 22.2157 328.174 22.2305 348.46 22.2354C350.722 22.236 353.526 22.2025 356.941 22.235C357.046 22.2525 357.151 22.2699 357.256 22.2874C357.375 22.2702 357.495 22.2531 357.615 22.2359C361.482 22.2266 362.944 22.2045 366.893 22.2264C367.234 22.2282 368.272 22.308 368.915 22.2089C372.827 22.2807 370.68 22.2083 373.585 22.2016C376.488 22.195 379.311 22.2171 382.126 22.2221C383.67 22.2576 377.193 22.3394 376.771 22.3391C376.091 22.3388 375.384 22.2896 374.73 22.287C372.79 22.2791 370.914 22.3182 370.479 22.2743C367.972 22.3207 371.093 22.2975 370.78 22.3394C369.107 22.3221 367.433 22.3047 365.76 22.2874C364.908 22.4298 355.662 22.2441 356.305 22.3525C355.569 22.3308 354.834 22.3091 354.098 22.2874C350.873 22.4234 348.977 22.3277 344.675 22.2872C344.985 22.3046 345.296 22.322 345.606 22.3394C345.518 22.3466 341.721 22.3745 343.079 22.3003C339.187 22.398 339.35 22.2356 335.861 22.353C333.789 22.3681 335.035 22.2999 331.324 22.301C329.126 22.3017 326.396 22.3373 323.939 22.3398C323.373 22.3403 323.127 22.3008 322.624 22.3008C322.12 22.3008 321.875 22.3395 321.265 22.3405C320.005 22.3426 318.371 22.3154 317.584 22.318C316.878 22.3203 315.87 22.3544 314.169 22.3598C308.229 22.3788 310.024 22.33 309.086 22.3135C308.078 22.296 307.353 22.3602 305.344 22.3528C305.142 22.352 305.664 22.3119 305.008 22.3135C304.48 22.3147 304.214 22.3583 302.464 22.3664C301.767 22.3697 290.947 22.379 289.299 22.3798C286.772 22.3809 281.145 22.3441 278.53 22.3444C277.523 22.3444 276.446 22.3793 275.376 22.3791C271.829 22.3783 266.151 22.3753 261.652 22.3736C257.602 22.3721 250.491 22.2949 248.273 22.3646C242.586 22.3736 241.204 22.3141 240.775 22.3133C239.616 22.3111 239.079 22.3505 237.618 22.3523C218.687 22.3752 193.758 22.3492 175.828 22.3523C155.784 22.356 135.688 22.3629 115.573 22.3673L115.868 22.4657C106.539 15.47 97.2065 8.47 87.8753 1.46881L87.7428 1.37041L87.5825 1.3712C77.6144 1.37096 67.6467 1.36929 57.6836 1.36547C57.5718 1.38295 57.46 1.40042 57.3482 1.41789C62.2811 1.42916 68.0783 1.45951 72.9482 1.46645C77.2269 1.47248 82.8669 1.44302 87.5825 1.45622L87.7149 1.45557L87.8243 1.53682C89.7796 3.01242 91.5286 4.34753 92.8082 5.35863C91.2549 4.20633 88.762 2.27877 88.7703 2.36179C91.5332 4.44016 94.2961 6.51853 97.059 8.5969C96.9935 8.51232 96.928 8.42774 96.8626 8.34316C99.755 10.5029 102.705 12.7236 105.605 14.8943C106.108 15.2714 105.767 14.9834 106.206 15.3121C106.696 15.6799 106.348 15.4515 106.44 15.5206C107.679 16.4507 108.069 16.7101 108.22 16.8239C108.607 17.1159 108.291 16.9097 109.405 17.7547C111.472 19.3223 112.999 20.3836 112.444 20.1072C113.114 20.6099 113.784 21.1125 114.454 21.6152C114.646 21.721 114.838 21.8269 115.029 21.9327C115.298 22.1445 115.558 22.3479 115.81 22.5434L115.573 22.4644C120.052 22.5401 122.299 22.363 124.957 22.5225C125.896 22.4964 126.835 22.4703 127.773 22.4442C128.303 22.4746 128.832 22.505 129.361 22.5354C129.464 22.5093 129.567 22.4832 129.67 22.4571C134.729 22.4764 140.114 22.4451 144.952 22.4481C148.322 22.4502 149.13 22.4605 152.115 22.4585C158.754 22.4541 152.161 22.5058 157.678 22.5618C157.391 22.5298 157.103 22.4978 156.816 22.4658C157.73 22.454 158.644 22.4423 159.557 22.4306C160.194 22.4567 160.83 22.4828 161.466 22.5089C164.288 22.3735 166.116 22.4828 166.5 22.4828C166.81 22.4826 167.877 22.4011 171.216 22.4701C169.831 22.3587 173.764 22.4694 174.079 22.4701C174.378 22.4705 178.207 22.4457 179.761 22.4467C180.983 22.4475 183.59 22.4715 185.411 22.4703C187.018 22.4693 186.855 22.4314 186.972 22.4311C188.95 22.4279 187.711 22.4573 189.141 22.4587C190.571 22.4602 191.68 22.4279 191.989 22.4308C192.144 22.4324 191.625 22.4676 192.336 22.471C194.245 22.4803 197.697 22.4494 199.883 22.4503C200.658 22.4506 201.634 22.4805 202.497 22.4814C203.82 22.4827 204.438 22.443 205.206 22.4442C205.474 22.4447 207.18 22.5061 209.301 22.4966C209.704 22.4947 210.89 22.365 212.464 22.5488C212.586 22.523 212.707 22.4971 212.829 22.4712C219.941 22.4072 221.92 22.6173 225.083 22.4308C230.247 22.4517 226.702 22.5243 227.269 22.5354C227.635 22.5425 229.319 22.5225 229.504 22.5236C229.832 22.5259 229.775 22.5492 230.135 22.5491C236.718 22.5447 233.795 22.5007 235.88 22.4728C240.838 22.4064 244.706 22.5538 236.082 22.5096C236.082 22.5226 236.082 22.5356 236.082 22.5486C238.206 22.5362 243.596 22.5421 241.796 22.6081C240.379 22.66 227.591 22.6261 234.833 22.699C236.478 22.7155 237.329 22.6667 240.177 22.7583C242.06 22.7632 242.331 22.6446 244.881 22.6922C244.462 22.6509 244.043 22.6095 243.624 22.5681C247.101 22.5142 251.391 22.5865 254.062 22.5633C254.97 22.5554 258.239 22.3582 257.477 22.5554C259.003 22.5431 266.19 22.5794 267.525 22.5618C267.846 22.5575 268.265 22.4525 272.912 22.4891C273.235 22.5023 273.558 22.5155 273.881 22.5286C269.63 22.5669 277.137 22.6058 275.098 22.7054C274.405 22.6606 271.035 22.6333 270.492 22.6108C269.566 22.572 272.324 22.522 268.809 22.5357C266.593 22.7022 272.929 22.6256 271.961 22.7837C276.576 22.7099 277.037 22.7803 278.082 22.7832C282.548 22.7952 285.359 22.7784 289.573 22.7969C290.6 22.7644 282.971 22.7175 282.026 22.7315C285.504 22.6164 279.518 22.6112 276.992 22.6795C276.78 22.6447 276.568 22.6099 276.356 22.5751C279.645 22.594 282.852 22.6037 286.109 22.5751C286.321 22.5882 286.533 22.6012 286.745 22.6142C286.015 22.6338 285.284 22.6534 284.554 22.673C287.262 22.705 285.638 22.6036 289.247 22.6925C289.358 22.6533 289.47 22.6141 289.582 22.5749C293.042 22.5879 296.502 22.6009 299.963 22.614C301.764 22.5354 308.422 22.5646 307.203 22.6664C309.891 22.6736 306.573 22.6194 309.091 22.5947C310.188 22.5839 312.33 22.5809 312.859 22.6083C312.631 22.7051 309.425 22.7172 308.455 22.7837C309.044 22.8051 323.953 22.736 322.624 22.8493C323.814 22.8629 323.267 22.8045 325.414 22.7896C331.431 22.7479 340.75 22.8633 345.594 22.7186C339.905 22.638 338.223 22.7233 333.863 22.7267C331.079 22.729 314.101 22.7427 317.893 22.6403C317.27 22.6533 316.646 22.6663 316.022 22.6793C315.392 22.6488 314.762 22.6183 314.131 22.5879C315.908 22.5835 317.684 22.5791 319.46 22.5747C319.885 22.6051 320.309 22.6355 320.733 22.6659C320.928 22.6442 321.124 22.6225 321.32 22.6008C322.068 22.5965 322.816 22.5922 323.564 22.5879C323.353 22.614 323.143 22.64 322.933 22.6661C324.086 22.6706 325.239 22.6751 326.392 22.6795C326.081 22.6447 325.771 22.6098 325.46 22.5749C330.889 22.5662 329.051 22.588 332.062 22.6532C334.31 22.6599 330.512 22.5929 335.269 22.5758C340.799 22.5561 337.171 22.6626 344.334 22.6398C344.437 22.6224 344.54 22.605 344.643 22.5876C346.218 22.605 347.793 22.6224 349.368 22.6398C349.16 22.6182 348.951 22.5966 348.743 22.5749C351.994 22.5833 356.474 22.542 357.551 22.6269C354.256 22.586 354.288 22.7342 355.145 22.7614C356.914 22.8173 383.041 22.7653 388.106 22.7617C394.582 22.757 399.477 22.8044 405.392 22.7315C401.383 22.6717 387.287 22.7207 384.616 22.6793C384.351 22.6752 384.426 22.5394 382.725 22.6922C377.244 22.6663 370.693 22.7096 363.846 22.7052C364.055 22.6661 364.264 22.627 364.473 22.5879C368.682 22.671 372.577 22.4883 372.029 22.6403C372.867 22.6403 373.704 22.6403 374.542 22.6403C374.542 22.6141 374.542 22.5879 374.542 22.5618C375.804 22.5618 377.067 22.5618 378.33 22.5618C378.33 22.5879 378.33 22.6141 378.33 22.6403C379.375 22.6403 380.421 22.6403 381.467 22.6403C381.576 22.6142 381.685 22.5881 381.794 22.562C384.925 22.6162 395.601 22.4713 390.908 22.6271C392.379 22.6271 393.85 22.6271 395.32 22.6271C395.316 22.608 395.311 22.5888 395.306 22.5697C395.938 22.5671 396.57 22.5646 397.203 22.562C396.995 22.5793 396.786 22.5966 396.578 22.614C399.476 22.5829 402.223 22.6741 404.125 22.6142C402.87 22.6011 401.615 22.588 400.36 22.5749C402.767 22.5998 407.201 22.5483 407.598 22.5481C408.807 22.5479 409.445 22.5866 410.756 22.5885C411.938 22.5902 411.776 22.5605 411.996 22.5615C418.377 22.5918 415.945 22.7527 418.924 22.5622C419.241 22.5882 419.558 22.6143 419.875 22.6403C420.298 22.6186 420.72 22.5969 421.142 22.5751C423.026 22.5772 424.911 22.5792 426.795 22.5813C426.167 22.5487 425.538 22.5162 424.91 22.4837C427.734 22.4692 429.052 22.5344 429.325 22.5359C430.099 22.5397 430.453 22.4988 430.693 22.4987C442.203 22.5022 435.212 22.5383 440.964 22.692C443.015 22.6317 440.94 22.5712 440.648 22.5098C443.375 22.5386 444.227 22.5216 447.105 22.525C447.854 22.5259 448.66 22.559 449.132 22.5595C449.542 22.5599 450.821 22.5247 451.804 22.5245C453.442 22.5243 455.622 22.5453 457.865 22.5447C459.73 22.5442 465.438 22.5194 469.419 22.5191C471.118 22.5191 470.724 22.5485 471.163 22.5486C471.346 22.5486 472.67 22.5133 473.76 22.5132C482.649 22.5124 491.758 22.5347 500.692 22.5341C506.985 22.5337 513.38 22.5053 519.686 22.5082C521.028 22.5089 520.318 22.5347 520.904 22.5357C521.105 22.5359 521.347 22.4907 523.422 22.5089C524.172 22.5154 523.31 22.547 524.047 22.5486C524.405 22.5493 524.558 22.5098 526.655 22.5007C530.466 22.4842 532.514 22.537 532.854 22.5354C533.496 22.5324 533.308 22.4996 534.158 22.4984C538.315 22.4927 541.786 22.4871 545.496 22.4844C547.229 22.4831 559.174 22.4764 559.83 22.4823C561.297 22.4954 559.931 22.5639 561.813 22.5615C562.341 22.5442 562.868 22.5269 563.395 22.5096C562.557 22.4964 561.72 22.4832 560.882 22.4701C563.188 22.4921 565.802 22.461 567.51 22.4621C567.825 22.4624 570.728 22.4934 572.208 22.4901C571.579 22.5029 570.95 22.5158 570.32 22.5286C570.543 22.5396 570.766 22.5506 570.988 22.5615C573.949 22.5449 577.081 22.5453 580.117 22.5477C581.212 22.5485 580.842 22.5751 581.95 22.5761C588.406 22.5817 586.776 22.4709 592.987 22.6789C590.89 22.66 583.239 22.6865 582.126 22.6795C581.352 22.6747 578.346 22.499 579.449 22.6793C573.25 22.6785 578.634 22.579 572.845 22.6008C572.96 22.6228 573.076 22.6448 573.192 22.6668C571.17 22.6807 569.677 22.6918 568.449 22.653C568.037 22.7598 561.17 22.6973 557.404 22.7045C551.961 22.7147 545.811 22.7408 540.419 22.7453C538.561 22.7469 537.509 22.705 537.276 22.7052C536.935 22.7055 535.978 22.7421 535.298 22.7424C532.759 22.7434 525.034 22.6815 523.113 22.7832C538.22 22.7832 553.328 22.7832 568.435 22.7832C566.535 22.7332 581.817 22.7283 582.592 22.7308C583.309 22.7331 582.706 22.7682 582.919 22.7703C584.506 22.7854 585.861 22.7344 586.365 22.7344C586.75 22.7345 587.526 22.7583 588.893 22.7578C589.143 22.7577 589.213 22.7325 589.483 22.7324C591.265 22.7324 593.025 22.7328 594.815 22.7326C594.924 22.7329 595.375 22.7698 595.827 22.7698C596.279 22.7698 596.727 22.733 596.842 22.7329C598.272 22.7331 600.723 22.7571 602.084 22.7574C602.556 22.7574 602.229 22.7303 602.758 22.7306C604.383 22.7312 603.848 22.7841 605.857 22.7705C606.531 22.7659 606.487 22.7255 607.777 22.7308C608.691 22.7346 608.593 22.8067 608.737 22.8093C608.938 22.8125 612.09 22.7556 613.121 22.8027C610.868 22.9273 615.586 22.8093 615.359 22.7567C616.608 22.7699 617.857 22.7832 619.107 22.7964C619.533 22.7831 619.958 22.7698 620.385 22.7565C623.516 22.7937 625.889 22.7939 628.427 22.7932L628.388 22.8064C629.624 21.8781 630.909 20.913 632.415 19.7921C632.607 19.6492 635.966 17.1657 635.821 17.2979C633.84 18.8244 631.846 20.3228 630.53 21.2355C629.591 22.0055 629.065 22.4111 628.439 22.8754L628.434 22.8796L628.427 22.8796C627.515 22.8748 626.445 22.8523 624.152 22.8604C622.729 22.8655 622.627 22.8963 622.464 22.8967C616.927 22.912 608.058 22.9253 604.328 22.8352C603.282 22.8596 607.041 22.8692 605.58 22.8872C604.783 22.897 585.597 22.9258 591.726 22.822C591.09 22.8249 590.454 22.8278 589.818 22.8307C589.182 22.9286 586.018 22.9062 586.377 22.8087C586.077 22.8286 585.778 22.8486 585.478 22.8686C584.886 22.8855 584.185 22.8945 583.202 22.8999C579.439 22.9203 557.05 22.8863 555.86 22.9003C555.833 22.9235 555.806 22.9466 555.779 22.9698C565.669 22.996 575.265 22.9384 586.05 23.0047C585.737 22.983 585.424 22.9613 585.111 22.9396C589.414 22.97 593.718 23.0004 598.021 23.0308C593.466 23.0701 586.22 23.1031 581.438 23.0707C580.588 23.065 581.211 23.0347 581.016 23.031C580.506 23.0215 579.957 23.074 578.125 23.0791C576.291 23.0842 571.685 23.047 571.263 23.0481C570.449 23.0502 568.253 23.1103 566.868 23.1095C565.047 23.1085 566.267 23.0713 565.902 23.0705C564.39 23.0669 563.035 23.0853 561.851 23.0825C560.093 23.0785 556.441 23.013 555.212 23.1091C556.468 23.1135 557.724 23.1179 558.98 23.1223C552.169 23.1567 546.845 23.0339 540.135 23.1286C538.611 23.2449 544.155 23.2292 539.467 23.2788C540.318 23.2772 541.169 23.2755 542.021 23.2738C542.22 23.2495 542.42 23.2251 542.619 23.2008C544.085 23.2182 545.551 23.2356 547.017 23.253C546.599 23.2313 546.181 23.2095 545.762 23.1878C550.96 23.1715 556.208 23.1492 558.022 23.2659C558.129 23.2377 558.237 23.2095 558.343 23.1813C563.169 23.2156 570.413 23.096 569.059 23.253C569.288 23.2446 569.516 23.2363 569.745 23.228C572.662 23.2601 571.416 23.1952 572.512 23.1878C572.825 23.1858 578.495 23.2193 575.982 23.2659C581.513 23.3015 579.807 23.1548 581.331 23.1484C584.872 23.221 591.241 23.112 588.563 23.2269C589.09 23.2312 589.618 23.2355 590.145 23.2398C591.877 23.1494 593.585 23.2517 595.462 23.2859C596.098 23.2879 596.735 23.29 597.371 23.292C597.797 23.2616 598.223 23.2312 598.649 23.2008C604.634 23.3455 602.739 22.9497 605.473 23.2822C605.047 23.3021 604.621 23.322 604.195 23.3419C603.185 23.3514 602.174 23.3608 601.164 23.3703C605.239 23.3791 609.313 23.3878 613.387 23.3966C618.558 23.4898 621.501 23.3887 627.246 23.4624C627.64 23.4559 628.033 23.4495 628.427 23.443L628.619 23.4439L628.778 23.3261C628.891 23.2377 629.005 23.1492 629.119 23.0608C629.044 23.1355 628.921 23.2417 628.794 23.3482L628.628 23.4716L628.427 23.4706C627.904 23.4991 627.346 23.5051 628.427 23.5178L628.643 23.5189L628.822 23.386C629.113 23.1736 629.548 22.8529 630.18 22.3878C630.36 22.2929 629.658 22.8385 628.859 23.4352L628.664 23.5805L628.427 23.5793C627.782 23.5779 627.092 23.5692 626.622 23.5532C626.333 23.5432 628.788 23.5024 626.029 23.501C624.154 23.5 627.559 23.5639 621.94 23.5402C622.148 23.5533 622.357 23.5663 622.565 23.5793C621.956 23.5789 621.346 23.5785 620.737 23.5781C620.196 23.548 619.654 23.5179 619.112 23.4878C617.72 23.5313 616.939 23.5922 613.757 23.5793C614.62 23.5604 613.449 23.5 611.875 23.501C611.875 23.5228 611.875 23.5446 611.875 23.5663C608.063 23.5804 609.379 23.5164 606.21 23.5663C605.893 23.549 605.576 23.5317 605.259 23.5144C603.533 23.5858 597.177 23.6343 598.336 23.5273C596.554 23.6313 592.809 23.5844 591.417 23.5012C591.31 23.5228 591.203 23.5445 591.096 23.5661C590.355 23.5705 589.614 23.5749 588.872 23.5793C588.459 23.5662 588.045 23.5531 587.632 23.54C587.107 23.5531 586.581 23.5662 586.056 23.5793C585.739 23.5576 585.422 23.5359 585.105 23.5142C584.26 23.5402 583.416 23.5662 582.572 23.5922C582.055 23.5749 581.539 23.5576 581.022 23.5402C580.968 23.5855 575.85 23.5956 574.42 23.5659C573.994 23.5791 573.568 23.5922 573.142 23.6054C572.934 23.5838 572.726 23.5623 572.518 23.5407C572.201 23.5579 571.884 23.5752 571.566 23.5924C570.836 23.5752 570.105 23.5579 569.375 23.5407C566.395 23.6464 566.299 23.5537 565.619 23.5543C564.357 23.5555 560.062 23.6217 559.344 23.6183C558.627 23.6149 558.28 23.5769 557.701 23.5734C548.158 23.5138 552.081 23.6156 550.166 23.6317C549.133 23.6405 548.402 23.6051 547.489 23.609C545.926 23.6156 538.044 23.6624 537.591 23.6578C536.93 23.6512 538.485 23.4843 536.339 23.5273C536.268 23.6169 531.678 23.5265 533.823 23.6514C531.933 23.6405 530.043 23.6295 528.153 23.6185C528.367 23.7248 526.036 23.6564 523.497 23.6623C519.9 23.6706 511.8 23.7404 512.096 23.6315C511.234 23.6565 510.372 23.6815 509.511 23.7066C503.615 23.6723 497.832 23.7082 491.979 23.7095C474.61 23.7136 455.767 23.6899 438.48 23.6685C437.649 23.6674 437.768 23.6318 437.17 23.631C434.026 23.6271 425.855 23.6523 421.451 23.6444C420.041 23.6419 419.354 23.6072 418.907 23.6056C417.388 23.6 417.747 23.6457 417.048 23.6444C415.945 23.6423 410.111 23.5998 408.101 23.5954C407.106 23.5932 405.929 23.6295 404.764 23.6183C404.664 23.6174 404.849 23.5799 404.764 23.5793C402.641 23.5747 403.918 23.6071 403.2 23.6054C398.078 23.5932 392.604 23.5924 387.048 23.5847C385.668 23.5828 383.556 23.5564 382.372 23.5539C381.92 23.553 382.731 23.5814 381.169 23.5791C380.634 23.5782 380.451 23.5413 379.848 23.5389C377.246 23.5288 376.376 23.6476 374.14 23.552C369.824 23.5583 362.312 23.5888 358.375 23.5895C357.444 23.5896 356.99 23.5678 356.102 23.5682C355.472 23.5684 354.364 23.6022 353.381 23.6026C352.398 23.603 350.847 23.5708 348.957 23.572C346.967 23.5732 344.493 23.5923 344.044 23.5922C343.503 23.5922 343.25 23.5515 342.709 23.552C341.071 23.5534 336.685 23.5933 334.575 23.5977C332.307 23.6022 330.946 23.5825 330.171 23.5829C329.453 23.5835 328.616 23.6178 328.288 23.6181C327.778 23.6186 327.658 23.5785 327.01 23.5788C325.952 23.5795 324.861 23.6047 323.274 23.6054C294.698 23.6178 266.68 23.5958 238.879 23.5666C235.779 23.5633 234.028 23.5914 229.461 23.5786C227.609 23.5734 228.389 23.532 226.948 23.5398C226.305 23.5433 226.468 23.5759 225.655 23.5775C222.065 23.5843 217.881 23.554 216.324 23.5545C215.707 23.5547 215.002 23.5917 213.737 23.5922C204.306 23.5964 193.148 23.586 182.999 23.5924C177.625 23.5958 169.49 23.6147 163.322 23.6172C147.425 23.6236 130.404 23.6166 115.573 23.6186L115.316 23.6174L115.117 23.4666C114.264 22.8265 113.419 22.1933 112.585 21.5676C104.083 15.1921 95.5962 8.83518 87.1171 2.47943L87.5825 2.63463C74.7782 2.64024 61.9839 2.64045 49.1709 2.61831C60.1263 2.70776 75.0445 2.70029 87.2411 2.70998C87.3549 2.71007 87.4687 2.71016 87.5825 2.71025L87.0717 2.53992C96.2382 9.42826 105.602 16.454 115.058 23.5447L115.283 23.7148L115.573 23.7163C139.966 23.7094 164.841 23.6864 189.083 23.6877C201.645 23.6884 217.484 23.6863 231.236 23.707C231.86 23.708 233.153 23.6795 234.501 23.6825C234.787 23.6832 238.339 23.7351 239.535 23.7356C238.401 23.6434 243.088 23.7256 244.537 23.7234C246.365 23.7205 250.176 23.6744 254.452 23.7005C258.333 23.724 257.263 23.7595 257.477 23.7617C258.85 23.7761 259.329 23.7189 260.38 23.7132C264.677 23.6901 286.777 23.7233 292.945 23.7254C294.539 23.7259 294.584 23.7623 294.943 23.7624C295.894 23.7626 297.248 23.7268 298.771 23.727C301.518 23.7275 304.682 23.7618 306.194 23.7619C309.81 23.7623 316.672 23.7219 321.372 23.7211C322.693 23.7209 322.613 23.7587 323.211 23.7585C325.845 23.7579 332.705 23.7133 335.974 23.7129C341.285 23.7123 346.748 23.7367 352.147 23.7243C352.489 23.7411 352.831 23.758 353.173 23.7749C353.713 23.7572 354.253 23.7395 354.792 23.7218C363.921 23.7353 373.213 23.6973 382.291 23.6998C383.337 23.7 388.515 23.7323 389.378 23.7324C390.096 23.7324 390.803 23.6907 391.868 23.6968C393.359 23.7054 391.956 23.7849 394.392 23.7622C395.047 23.756 394.412 23.722 395.728 23.7113C396.163 23.7078 404.6 23.694 405.053 23.6964C405.809 23.7003 406.483 23.7733 406.678 23.7749C407.692 23.7831 407.649 23.7271 408.329 23.722C410.337 23.7067 412.959 23.7444 413.286 23.7436C417.229 23.7332 424.602 23.6885 428.741 23.715C429.313 23.7187 429.245 23.7604 429.345 23.7617C429.994 23.7704 430.397 23.7229 431.014 23.7218C434.334 23.7164 439.533 23.7484 442.872 23.7565C443.257 23.7574 444.068 23.7345 444.754 23.7368C448.635 23.7496 447.376 23.7862 447.597 23.7878C448.12 23.7917 449.039 23.7513 450.431 23.7488C454.015 23.7421 460.889 23.7479 464.732 23.7511C467.611 23.7535 467.568 23.7998 467.757 23.8008C468.16 23.8024 469.282 23.7655 471.177 23.7613C474.825 23.753 474.409 23.7894 475.908 23.7878C476.034 23.7878 475.815 23.7522 477.478 23.7486C480.692 23.7415 487.909 23.7765 491.349 23.7747C492.672 23.774 492.981 23.7397 494.336 23.739C496.483 23.7379 501.33 23.775 501.712 23.7749C501.819 23.7749 502.06 23.7354 502.69 23.7354C503.383 23.7354 504.064 23.7557 504.581 23.7556C507.522 23.755 512.59 23.6861 511.182 23.8271C512.125 23.7923 513.067 23.7575 514.01 23.7227C520.171 23.7296 526.157 23.7157 532.262 23.7086C533.635 23.7071 534.781 23.7337 535.94 23.7324C537.098 23.7311 542.21 23.687 543.064 23.6862C544.589 23.6847 553.252 23.6801 554.33 23.6832C556.434 23.6892 558.475 23.7475 559.332 23.7361C560.019 23.7269 559.384 23.6941 560.694 23.6848C562.962 23.6687 566.817 23.7109 567.51 23.7102C567.805 23.7099 567.252 23.6844 570.022 23.6825C571.515 23.6815 572.317 23.7097 572.859 23.7095C573.027 23.7094 572.775 23.6637 575.73 23.6698C577.771 23.6741 578.642 23.7094 578.856 23.7095C579.178 23.7098 579.953 23.6721 581.245 23.6734C584.262 23.6767 589.78 23.7199 592.646 23.7231C593.2 23.7238 593.012 23.6783 595.222 23.6825C596.803 23.6855 596.527 23.7217 597.119 23.7231C598.058 23.7254 599.456 23.6811 601.529 23.6825C604.137 23.6844 623.503 23.7303 624.505 23.7422C625.179 23.7502 625.961 23.7507 626.295 23.7703C626.009 23.7892 625.722 23.808 625.436 23.8268C622.47 23.7608 623.667 23.8363 622.88 23.8411C621.74 23.8481 617.442 23.8384 616.403 23.8552C616.033 23.8613 616.88 23.9015 614.891 23.9222C612.756 23.9443 611.806 23.8727 610.955 23.9705C607.925 23.8619 605.014 23.9772 608.523 24.0079C610 24.0209 621.28 24.0461 628.427 24.0603L628.822 24.0622L629.148 23.8199C631.019 22.4223 632.535 21.2886 633.309 20.7099C635.857 18.8043 640.606 15.2049 643.74 12.8632C645.582 11.4868 650.115 8.09208 649.955 8.27735C651.591 7.05762 649.832 8.3126 650.171 8.04974C650.878 7.50008 655.996 3.70534 656.959 2.98069C657.023 2.93284 657.087 2.8848 657.151 2.8366L656.417 3.08115C662.325 3.07311 669.707 3.0174 675.406 3.08214C675.138 3.09605 674.869 3.10997 674.6 3.12389C673.302 3.14943 667.279 3.11292 666.599 3.17971C675.406 3.17971 684.214 3.17971 693.022 3.17971C692.858 3.12287 703.782 3.12363 704.299 3.1493C704.107 3.17684 703.915 3.20437 703.724 3.2319C697.55 3.12741 698.104 3.26553 693.959 3.19219C692.271 3.19116 692.781 3.23665 691.949 3.24529C683.673 3.33118 691.816 3.15194 685.481 3.19265C687.388 3.25863 682.199 3.28275 679.874 3.29113C679.345 3.29296 672.395 3.27624 671.569 3.27729C667.565 3.28238 661.078 3.31004 656.417 3.2942L657.279 3.00701C656.689 3.44629 656.135 3.85744 655.63 4.2301C652.725 6.40425 651.156 7.64057 648.527 9.62639C646.531 11.1337 647.085 10.6771 646.143 11.3832C644.167 12.8645 643.577 13.4328 642.228 14.2695C640.9 15.2883 639.571 16.307 638.242 17.3257C638.229 17.3083 638.216 17.2909 638.203 17.2734C637.362 17.9045 636.521 18.5356 635.68 19.1667C635.445 19.3697 635.211 19.5727 634.976 19.7758C632.289 21.7549 633.372 20.8768 632.836 21.2017C632.257 21.631 631.678 22.0602 631.098 22.4895C630.68 22.8623 630.262 23.2351 629.844 23.6079C629.662 23.7446 629.479 23.8812 629.297 24.0179L628.903 24.3101L628.427 24.3078C625.436 24.3042 622.445 24.3006 619.454 24.297C619.245 24.2753 619.037 24.2536 618.829 24.2319C618.822 24.2536 618.815 24.2753 618.809 24.297C613.357 24.3015 607.906 24.306 602.454 24.3104C601.004 24.3452 609.739 24.3716 610.4 24.3737C614.079 24.3853 623.851 24.3503 623.863 24.4277C624.814 24.4037 626.559 24.3922 628.427 24.3919L628.931 24.3943L629.347 24.0851C631.448 22.508 633.758 20.802 634.784 20.0832C632.982 21.4313 631.181 22.7795 629.379 24.1276L628.948 24.4475L628.427 24.445C627.426 24.4437 626.425 24.4424 625.425 24.4411C625.53 24.4671 625.635 24.493 625.74 24.519C621.689 24.4143 621.096 24.4201 616.932 24.519C616.928 24.4842 616.924 24.4494 616.921 24.4146C614.017 24.5356 608.885 24.3303 608.737 24.4797C607.191 24.4676 605.645 24.4555 604.099 24.4434C600.761 24.4616 605.945 24.5765 592.874 24.5314C591.973 24.5283 592.161 24.4902 590.807 24.4929C590.416 24.4937 588.18 24.549 583.902 24.5432C583.234 24.5423 583.184 24.5093 582.491 24.5051C580.891 24.4952 577.704 24.5605 579.151 24.4541C572.814 24.423 575.44 24.5103 573.475 24.5451C572.165 24.5681 572.429 24.5051 571.295 24.5194C569.892 24.5371 570.921 24.6006 565.303 24.5714C565.934 24.5671 566.564 24.5628 567.194 24.5584C566.877 24.5412 566.56 24.524 566.243 24.5067C563.037 24.5481 563.34 24.4876 561.828 24.5845C559.497 24.5413 557.48 24.5379 554.292 24.5457C548.1 24.5611 551.274 24.6655 544.207 24.5249C543.062 24.5446 541.916 24.5643 540.771 24.5841C538.889 24.5426 540.412 24.4906 537.602 24.4802C539.801 24.5827 533.873 24.5453 532.872 24.6367C532.767 24.6149 532.661 24.5932 532.557 24.5714C531.929 24.5714 531.302 24.5714 530.674 24.5714C530.672 24.5889 530.67 24.6063 530.668 24.6238C529.833 24.6107 528.997 24.5976 528.161 24.5845C527.533 24.6019 526.904 24.6192 526.276 24.6365C525.243 24.6 524.21 24.5634 523.176 24.5269C522.528 24.5244 521.879 24.5219 521.23 24.5194C521.436 24.5454 521.641 24.5715 521.846 24.5975C521.012 24.5888 520.179 24.5801 519.345 24.5714C520.315 24.6141 519.705 24.6641 517.11 24.6628C514.968 24.6618 517.381 24.5727 512.775 24.6097C512.454 24.6124 511.885 24.6759 507.533 24.6857C502.313 24.6975 504.849 24.6515 503.919 24.6499C503.736 24.6496 502.141 24.6816 500.648 24.6862C499.801 24.6888 498.985 24.663 498.873 24.6631C498.35 24.6642 498.198 24.7008 497.473 24.7021C495.634 24.7052 493.165 24.6873 491.363 24.6892C490.544 24.6899 489.774 24.7116 489.409 24.7118C488.842 24.7121 488.123 24.679 487.549 24.6792C485.433 24.6799 482.22 24.7895 481.237 24.6372C479.203 24.7773 474.94 24.6079 475.252 24.7019C469.814 24.6664 455.311 24.7817 455.737 24.6238C452.657 24.7588 452.932 24.661 451.642 24.6631C450.199 24.6653 450.947 24.6915 449.8 24.6903C447.123 24.6875 444.565 24.6763 441.9 24.6758C442.319 24.6541 442.737 24.6325 443.155 24.6109C440.358 24.6039 441.321 24.6543 438.468 24.664C433.221 24.6816 435.432 24.6415 434.657 24.5848C434.865 24.6395 428.677 24.631 428.047 24.6238C427.671 24.6194 429.318 24.5488 425.528 24.5716C425.736 24.5933 425.943 24.615 426.15 24.6367C424.424 24.607 419.734 24.6447 418.939 24.6374C418.573 24.634 416.619 24.4589 414.83 24.5975C414.614 24.5758 414.398 24.5541 414.182 24.5323C412.195 24.5584 410.209 24.5845 408.223 24.6106C407.905 24.5715 407.588 24.5324 407.271 24.4933C406.641 24.4933 406.01 24.4933 405.38 24.4933C405.798 24.528 406.217 24.5628 406.635 24.5975C402.743 24.5818 397.987 24.6365 397.185 24.5194C396.352 24.5411 395.518 24.5628 394.684 24.5845C394.142 24.5456 393.599 24.5066 393.056 24.4677C389.196 24.4775 389.132 24.5035 386.492 24.5451C386.596 24.5146 386.699 24.4842 386.802 24.4538C384.855 24.4965 381.301 24.5363 378.492 24.5417C377.156 24.5441 374.862 24.5022 374.547 24.506C374.229 24.51 371.097 24.6747 370.757 24.5321C366.145 24.5952 364.115 24.5308 362.244 24.5323C361.028 24.5334 360.474 24.5676 359.101 24.5712C357.135 24.5763 355.157 24.5597 354.023 24.5621C353.374 24.5635 353.253 24.5969 352.806 24.5979C350.691 24.603 351.93 24.5689 349.7 24.5712C349.495 24.5715 347.865 24.6122 346.028 24.607C345.001 24.6041 342.344 24.5583 342.11 24.5584C341.07 24.5592 341.901 24.6507 338.348 24.5451C338.451 24.5625 338.554 24.5799 338.657 24.5972C334.26 24.6414 333.566 24.5638 332.678 24.5584C332.564 24.558 331.494 24.588 330.853 24.5839C329.771 24.5768 329.335 24.5357 329.095 24.5339C328.251 24.5277 325.408 24.5457 323.549 24.506C323.94 24.6229 317.427 24.6644 315.985 24.5321C314.832 24.5582 313.679 24.5843 312.526 24.6104C312.005 24.5886 311.484 24.5668 310.962 24.5451C310.645 24.5668 310.328 24.5885 310.011 24.6102C308.331 24.5624 306.651 24.5146 304.971 24.4668C304.864 24.5146 304.757 24.5625 304.65 24.6104C304.18 24.605 303.709 24.5995 303.239 24.5941C302.872 24.556 302.504 24.518 302.137 24.4799C301.549 24.4872 300.961 24.4945 300.373 24.5017C300.228 24.5292 300.082 24.5568 299.937 24.5843C296.776 24.6161 298.4 24.3534 292.378 24.5843C291.441 24.5626 290.504 24.5409 289.568 24.5192C288.509 24.6248 286.527 24.5609 284.927 24.5727C283.799 24.5811 283.86 24.6231 282.324 24.624C280.787 24.6249 280.842 24.5848 280.722 24.5845C279.469 24.5821 278.525 24.6175 277.605 24.6104C277.467 24.6094 277.12 24.5617 275.948 24.5587C274.777 24.5557 274.07 24.6064 272.325 24.5968C271.431 24.5919 271.172 24.5518 270.379 24.5482C266.599 24.5309 262.793 24.7343 259.958 24.4931C259.319 24.5237 254.684 24.6306 252.7 24.6245C249.615 24.6147 250.804 24.5673 249.577 24.5587C249.401 24.5574 248.462 24.5733 245.873 24.5705C245.41 24.57 245.518 24.5967 245.451 24.597C242.434 24.5965 236.574 24.5754 233.26 24.5716C232.964 24.5712 231.414 24.6457 228.787 24.5455C224.894 24.6195 217.561 24.4605 212.427 24.5721C211.715 24.5744 210.851 24.5478 210.536 24.5487C207.82 24.5569 208.815 24.6378 202.679 24.5194C203.176 24.5607 201.74 24.5979 199.712 24.5948C196.663 24.59 198.829 24.5131 196.378 24.5194C196.378 24.5411 196.378 24.5628 196.378 24.5845C190.741 24.5261 189.619 24.619 183.962 24.6195C181.927 24.6196 178.921 24.5715 178.436 24.5714C178.249 24.5715 176.023 24.6239 175.811 24.6243C174.614 24.6258 173.938 24.6017 172.905 24.6016C169.49 24.601 165.416 24.6691 166.153 24.5455C165.214 24.5716 164.275 24.5977 163.337 24.6238C159.79 24.4918 157.137 24.6737 156.394 24.5455C155.76 24.572 155.126 24.5985 154.491 24.6249C141.519 24.6135 128.546 24.6021 115.573 24.5907L114.987 24.5878L114.534 24.2442C112.743 22.8985 110.953 21.5529 109.163 20.2073C108.654 19.8773 103.357 15.8844 103.088 15.6751C101.856 14.7144 103.23 15.6327 100.668 13.7361C100.362 13.5559 100.056 13.3757 99.7505 13.1955C96.538 10.8014 98.103 11.9265 96.8542 10.9562C96.3227 10.5635 96.4751 10.716 95.7584 10.1811C93.5294 8.5175 89.9625 5.84573 86.5246 3.26911L87.5825 3.62186C84.3858 3.62345 81.2777 3.62432 79.0146 3.62539C77.945 3.62591 78.1064 3.59732 77.7742 3.59725C76.8609 3.59751 75.0585 3.63354 73.2257 3.63356C61.8925 3.63329 45.8331 3.61298 34.424 3.58273C33.6491 3.58063 33.5531 3.54653 33.0302 3.54483C32.3056 3.54261 30.6869 3.57018 29.9247 3.56729C29.2067 3.56467 28.7469 3.53878 27.9787 3.53575C24.4633 3.52161 19.7369 3.56536 15.9758 3.48901C15.6595 3.48257 11.719 3.34529 11.6298 3.33629C11.1069 3.28285 14.6087 3.1989 8.85683 3.12071C13.9976 3.05248 12.3917 2.93185 5.71371 2.87291C9.0631 2.85771 12.4125 2.84251 15.7619 2.8273C15.7667 2.81301 15.7715 2.79871 15.7763 2.78441C12.7273 2.71356 9.7023 2.68998 5.066 2.68343C5.21058 2.6702 5.35516 2.65696 5.49974 2.64372C9.59469 2.57758 14.5345 2.56536 17.6529 2.47512C13.0795 2.40833 8.50599 2.34154 3.93252 2.27475C4.16095 2.26431 4.38938 2.25387 4.61781 2.24343C6.8102 2.21632 11.599 2.20041 13.4197 2.17513C20.3734 2.07875 7.33371 2.103 9.47563 2.0442C16.8173 2.04631 24.1589 2.04843 31.5006 2.05055C31.758 2.00725 3.51435 1.88764 3.80529 1.75691C6.11275 1.74814 8.42021 1.73936 10.7277 1.73059C9.69924 1.69738 8.67081 1.66418 7.64238 1.63097C7.92575 1.62046 8.20913 1.60994 8.4925 1.59943C12.3855 1.57364 16.2785 1.54784 20.1715 1.52205C8.33542 1.54798 2.83509 1.52916 0 1.26767C0.320963 1.26101 0.641925 1.25436 0.962888 1.2477C3.52697 1.41128 15.6303 1.35837 22.0626 1.32576C20.7516 1.27784 15.0879 1.31486 13.891 1.28605C13.5519 1.27779 14.7346 1.24453 13.9489 1.2275C11.8952 1.18324 3.14362 1.12628 4.4154 1.07206C5.2344 1.03722 19.3158 0.989427 22.0626 0.993094C15.6242 0.930491 8.99032 0.912381 2.533 0.836291C6.60892 0.730206 10.2187 0.600382 17.6587 0.594619C19.9265 0.538957 4.17646 0.461848 3.81107 0.431463C6.53684 0.398861 9.26262 0.36626 11.9884 0.333659C9.68286 0.342358 7.37732 0.351057 5.07179 0.359755C5.06504 0.348863 5.05829 0.337971 5.05155 0.327078C11.0239 0.276524 16.4878 0.183731 23.3233 0.190018C23.1028 0.13239 19.0129 0.138123 17.0284 0.137599ZM657.123 3.41526C657.173 3.43247 656.879 3.44247 656.417 3.44817L657.371 3.13018C656.721 3.63044 655.639 4.4383 654.916 4.97953C655.091 4.85923 655.266 4.73893 655.441 4.61863C653.027 6.41863 648.532 9.76815 648.421 9.9671C646.71 11.2655 647.421 10.631 646.861 11.0394C646.642 11.199 644.428 12.9193 642.599 14.2196C642.173 14.5396 641.747 14.8597 641.321 15.1797C641.257 15.2659 641.192 15.3522 641.128 15.4384C640.511 15.8548 639.895 16.2713 639.278 16.6877C645.303 12.1599 651.327 7.63212 657.352 3.10432L656.417 3.41584C656.649 3.41564 656.88 3.41545 657.112 3.41526C657.115 3.41526 657.119 3.41526 657.123 3.41526ZM586.698 24.4545C583.869 24.4374 579.536 24.4103 580.412 24.4935C582.199 24.4892 583.986 24.4848 585.773 24.4804C586.081 24.4718 586.39 24.4631 586.698 24.4545ZM305.3 24.3889C302.938 24.3069 300.763 24.3779 297.109 24.3631C297.114 24.3804 297.118 24.3977 297.123 24.415C298.617 24.3734 302.567 24.4011 305.3 24.3889ZM727.313 3.10188C727.833 3.10831 728.354 3.11474 728.874 3.12117C726.757 3.21429 726.379 3.14866 723.985 3.1577C723.84 3.15827 723.89 3.17958 723.84 3.17971C723.254 3.18115 722.712 3.15549 722.183 3.15589C721.163 3.15667 720.331 3.18267 718.523 3.18175C717.124 3.18096 717.111 3.14009 716.62 3.14114C716.201 3.14215 712.052 3.25458 709.382 3.20603C704.305 3.11357 725.763 3.09323 727.313 3.10188ZM742.363 3.1788C741.861 3.17918 741.359 3.17956 740.857 3.17994C742.367 3.11711 739.319 3.12666 737.083 3.12797C737.153 3.06773 741.883 3.0935 744 3.07555C743.454 3.10997 742.909 3.14439 742.363 3.1788ZM678.859 3.04969C680.824 3.04355 680.497 3.11874 680.415 3.14114C679.789 3.14114 679.164 3.14114 678.538 3.14114C678.645 3.11065 678.752 3.08017 678.859 3.04969ZM693.638 3.02359C693.027 3.07467 688.761 3.09701 686.739 3.1012C686.65 3.10121 687.206 3.07317 685.776 3.07578C685.346 3.0766 681.122 3.1786 682.051 3.06285C685.912 3.04976 689.772 3.03668 693.632 3.02359C693.634 3.02359 693.636 3.02359 693.638 3.02359ZM697.946 3.05377C697.142 3.06981 696.339 3.08584 695.535 3.10188C695.119 3.0779 694.704 3.05392 694.288 3.02994C695.203 3.02389 696.118 3.01784 697.032 3.01179C697.337 3.02578 697.642 3.03978 697.946 3.05377ZM102.563 14.5065C102.697 14.6392 102.831 14.7719 102.965 14.9047C103.535 15.352 106.42 17.3765 105.541 16.69C104.548 15.9622 103.555 15.2343 102.563 14.5065ZM90.697 5.53698C90.1189 5.08702 89.5407 4.63706 88.9625 4.1871C88.2698 3.72123 87.5771 3.25535 86.8845 2.78947L87.5825 3.02223C87.5738 3.02269 87.565 3.02314 87.5563 3.02359C87.565 3.02366 87.5738 3.02373 87.5825 3.0238L86.8835 2.79073C89.787 5.00573 92.8655 7.35706 92.4413 6.8788C93.1112 7.38146 93.7812 7.88413 94.4512 8.38679C93.8552 8.00591 93.9206 8.07683 95.6539 9.41933C96.0817 9.64803 97.8722 11.0384 99.9574 12.5825C98.4504 11.4465 96.9434 10.3105 95.4364 9.17443C95.4442 9.16402 95.452 9.15361 95.4598 9.14321C98.8218 11.6714 94.6893 8.46783 92.4663 6.86468C92.304 6.72126 92.1417 6.57783 91.9794 6.43441C91.5519 6.13527 91.1245 5.83613 90.697 5.53698ZM389.335 23.9582C388.813 23.9452 388.292 23.9321 387.771 23.919C385.75 24.0894 389.864 23.9277 392.793 24.0626C391.825 23.9602 396.291 23.9644 396.546 23.9576C396.033 23.9231 395.519 23.8886 395.005 23.8541C393.115 23.8888 391.225 23.9235 389.335 23.9582ZM374.553 23.8407C376.361 23.9257 367.479 23.9309 364.499 23.9122C363.775 23.9076 362.483 23.8609 361.961 23.8668C361.643 23.884 361.326 23.9013 361.009 23.9185C360.634 23.8589 354.815 23.9259 352.522 23.958C352.307 23.9363 352.091 23.9146 351.875 23.8929C351.039 23.9015 350.203 23.9101 349.368 23.9188C349.473 23.8971 349.578 23.8755 349.683 23.8539C349.051 23.8799 348.418 23.9059 347.786 23.9319C345.304 23.9609 346.835 23.8429 344.97 23.8797C342.897 23.9206 346.293 23.9908 346.23 24.0365C347.913 24.0247 351.738 23.9984 353.445 23.997C354.425 23.9963 353.314 24.0782 357.539 23.9841C358.466 24.006 359.392 24.028 360.318 24.0499C362.018 24.015 363.719 23.9802 365.419 23.9453C365.736 23.9756 366.053 24.006 366.37 24.0363C366.552 24.041 370.484 23.9722 370.274 23.9494C371.867 24.0074 375.137 24.0177 378.581 24.0206C378.913 24.0042 379.244 23.9877 379.576 23.9712C376.244 24.0068 378.516 23.9537 377.523 23.9222C376.95 23.9039 375.196 23.8682 374.553 23.8407ZM123.364 23.9192C117.893 23.9916 121.085 23.9348 115.573 23.9322L115.21 23.9304L114.929 23.7175C114.829 23.6428 114.726 23.5656 114.62 23.4856C114.716 23.5724 114.811 23.6592 114.907 23.7461L115.198 23.9662L115.573 23.968C115.866 23.9952 116.16 24.0225 116.453 24.0497C119.426 23.9781 124.318 24.0257 123.37 23.9192C123.368 23.9192 123.366 23.9192 123.364 23.9192ZM71.1959 3.04946C74.3957 3.02575 72.79 2.96482 76.846 2.9453C76.8479 2.9453 76.8498 2.9453 76.8518 2.9453C74.7544 2.94091 72.6571 2.93653 70.5597 2.93214C70.7718 2.97125 70.9838 3.01035 71.1959 3.04946ZM251.252 24.002C254.319 24.0191 253.716 23.9886 256.5 24.0495C260.645 23.9756 257.136 23.986 257.136 23.919C256.188 23.9386 255.241 23.9583 254.293 23.978C251.996 23.9153 254.175 23.8837 254.175 23.8777C254.173 23.8777 254.171 23.8777 254.169 23.8777C254.169 23.8575 254.244 23.8533 253.362 23.8411C252.659 23.8948 251.955 23.9484 251.252 24.002ZM264.382 23.9192C263.33 23.9637 262.857 24.0209 265.623 24.0495C265.625 24.0495 265.626 24.0495 265.628 24.0495C265.85 23.9499 268.502 24.0303 269.711 24.0236C270.028 24.0128 270.345 24.002 270.663 23.9911C268.569 23.9672 266.476 23.9432 264.382 23.9192ZM310.647 23.8278C310.659 23.9377 308.337 23.9482 311.604 24.0495C312.238 24.0475 312.872 24.0455 313.507 24.0436C313.923 24.0194 314.339 23.9953 314.756 23.9712C322.801 24.1701 325.199 23.8314 311.604 23.958C311.602 23.9581 311.6 23.9582 311.598 23.9582C311.281 23.9147 310.964 23.8713 310.647 23.8278ZM296.478 23.8371C296.376 23.8948 296.274 23.9525 296.172 24.0102C294.395 23.871 292.1 24.0038 288.616 23.9056C288.301 23.9231 287.986 23.9407 287.671 23.9582C286.369 23.9196 273.58 23.9085 276.35 23.9973C277.56 24.036 280.195 23.9834 280.422 23.9846C281.19 23.9889 282.192 24.0385 283.489 24.0356C284.239 24.0339 285.82 23.9756 287.35 23.9757C290.771 23.976 297.014 24.1324 301.513 23.9843C301.836 24.0017 302.16 24.0191 302.484 24.0365C305.822 24.0259 304.708 23.9708 307.813 24.0365C309.959 23.7624 295.329 24.05 298.375 23.8278C298.373 23.8278 298.371 23.8278 298.369 23.8278C297.739 23.8309 297.109 23.834 296.478 23.8371ZM204.576 23.9192C204.375 23.87 200.503 23.9459 201.413 23.828C200.149 23.8691 198.885 23.9101 197.622 23.9512C197.632 23.9622 197.641 23.9731 197.651 23.9841C198.907 23.9755 200.163 23.9669 201.418 23.9582C201.423 23.9756 201.428 23.993 201.433 24.0104C203.304 23.9475 211.115 23.9749 210.877 24.0365C211.294 24.0105 211.711 23.9845 212.129 23.9585C215.865 24.0293 219.079 23.954 223.149 24.0231C223.464 24.0016 223.779 23.98 224.094 23.9585C224.299 23.9759 224.505 23.9933 224.71 24.0107C226.192 24.0128 227.675 24.015 229.157 24.0172C233.988 23.9472 224.602 23.8565 223.464 23.8668C223.312 23.8682 223.336 23.9133 222.391 23.9203C220.713 23.9328 211.318 23.8879 208.413 23.9176C208.388 23.8877 208.363 23.8579 208.338 23.828C207.084 23.8584 205.83 23.8888 204.576 23.9192ZM328.598 23.9453C328.81 23.9757 329.022 24.0061 329.234 24.0365C332.893 24.0062 335.198 24.0327 334.259 23.9321C334.258 23.9321 334.256 23.9321 334.254 23.9321C332.368 23.9365 330.483 23.9409 328.598 23.9453ZM600.557 23.9712C600.461 23.9107 598.712 23.8881 596.451 23.9315C596.56 23.949 596.669 23.9666 596.778 23.9841C597.956 23.9326 599.426 24.0223 603.061 24.0104C603.061 23.98 603.061 23.9496 603.061 23.9192C602.227 23.9365 601.392 23.9538 600.557 23.9712ZM325.44 23.9321C324.325 23.8963 321.194 24.0051 323.254 24.0104C324.829 24.0145 326.039 23.9514 325.44 23.9321ZM58.6089 2.99069C59.4359 2.99704 60.2629 3.00339 61.0899 3.00975C61.5207 2.98388 61.9516 2.95801 62.3824 2.93214C62.3805 2.93214 62.3786 2.93214 62.3766 2.93214C61.1207 2.95166 59.8648 2.97117 58.6089 2.99069ZM240.764 24.007C243.569 24.0032 246.373 23.9995 249.178 23.9957C249.206 23.9788 249.234 23.9619 249.262 23.9451C246.452 24.0066 245.323 23.9403 244.667 23.9362C244.67 23.9362 244.673 23.9362 244.676 23.9362C242.572 23.9229 240.568 23.913 238.578 23.8929C239.307 23.9309 240.035 23.969 240.764 24.007ZM231.149 23.9006C231.622 24.0198 232.239 24.0337 236.548 23.9498C236.377 23.9352 236.207 23.9205 236.036 23.9058C233.803 23.9146 232.501 23.9421 232.893 23.8799C232.312 23.8868 231.731 23.8937 231.149 23.9006ZM275.072 23.9387C274.555 23.9008 270.451 23.9389 270.674 23.958C270.762 23.9656 276.08 24.0131 275.072 23.9387ZM631.708 21.7551C630.946 22.3156 630.185 22.8761 629.423 23.4366C630.421 22.6714 631.42 21.9062 632.418 21.141C632.181 21.3457 631.945 21.5504 631.708 21.7551ZM639.909 15.3898C640.458 14.9974 638.769 16.3983 642.009 14.0018C639.665 15.7638 637.32 17.5258 634.975 19.2878C636.065 18.4485 637.155 17.6092 638.245 16.7699C638.034 16.8893 637.824 17.0087 637.613 17.1281C638.379 16.5487 639.144 15.9692 639.909 15.3898ZM642.475 13.5628C641.163 14.4456 647.812 9.44942 648.438 8.99237C648.577 8.89069 649.271 8.44768 649.521 8.27685C648.516 9.03061 647.511 9.78438 646.507 10.5381C646.855 10.3015 647.203 10.0648 647.55 9.8282C646.379 10.7156 645.207 11.6031 644.035 12.4905C644.526 12.0978 645.017 11.705 645.508 11.3123C644.497 12.0625 643.486 12.8126 642.475 13.5628ZM611.875 23.8736C612.926 23.8756 613.978 23.8777 615.029 23.8797C614.819 23.8493 614.609 23.8189 614.399 23.7885C613.77 23.7885 613.14 23.7885 612.511 23.7885C612.299 23.8169 612.087 23.8452 611.875 23.8736ZM632.911 20.7141C631.774 21.7499 628.245 23.9977 632.217 21.1663C632.617 20.881 633.019 20.6158 632.911 20.7141ZM650.942 7.13567C653.493 5.08806 653.044 5.7194 650.534 7.51678C650.407 7.60698 650.75 7.28926 650.942 7.13567ZM673.385 2.79031C673.65 2.79111 674.113 2.86741 676.641 2.79485C677.059 2.80355 677.476 2.81225 677.893 2.82095C676.917 2.8564 668.562 2.87749 669.716 2.80189C670.995 2.80071 672.062 2.78796 673.385 2.79031ZM665.295 2.50802C664.041 2.51014 662.787 2.51226 661.533 2.51438C661.946 2.53828 662.36 2.56218 662.773 2.58608C662.156 2.59259 661.54 2.59909 660.923 2.6056C659.868 2.56438 658.814 2.52315 657.759 2.48193C660.485 2.47535 663.211 2.46877 665.937 2.46219C665.723 2.47746 665.509 2.49274 665.295 2.50802ZM637.204 17.0116C639.152 15.5875 641.498 13.7878 644.635 11.4403C644.637 11.4392 644.638 11.4381 644.64 11.437C644.797 11.32 645.093 11.1383 645.597 10.7618C646.027 10.4408 654.471 4.06076 653.844 4.60055C650.599 7.09786 649.329 7.95519 648.618 8.64398C648.442 8.74285 648.267 8.84171 648.092 8.94057C644.915 11.2674 644.071 12.014 642.322 13.3675C642.317 13.3466 642.312 13.3256 642.307 13.3047C641.125 14.1893 639.942 15.0739 638.76 15.9585C638.934 15.8439 639.109 15.7293 639.283 15.6147C638.865 15.9282 638.447 16.2417 638.029 16.5552C636.977 17.2723 635.678 18.2297 637.204 17.0116ZM670.982 2.54047C672.142 2.3913 683.438 2.49348 688.598 2.46219C685.889 2.55201 681.692 2.49011 678.738 2.48919C673.026 2.48749 676.974 2.54247 676.005 2.56657C675.526 2.57849 672.287 2.48285 670.982 2.54047ZM630.17 22.3217C632.455 20.6224 633.709 19.6382 635.713 18.2037C635.554 18.3362 635.396 18.4687 635.237 18.6012C634.557 19.0995 629.036 23.2021 630.17 22.3217ZM696.159 2.50122C690.659 2.44765 693.372 2.58271 690.512 2.48147C692.394 2.47504 694.277 2.46861 696.159 2.46219C696.159 2.4752 696.159 2.48821 696.159 2.50122ZM319.145 23.371C316.827 23.3675 314.239 23.3403 312.853 23.3966C314.428 23.4053 316.003 23.414 317.578 23.4227C318.1 23.4055 318.623 23.3882 319.145 23.371ZM385.24 22.8211C384.711 22.8076 382.619 22.8475 382.398 22.8475C381.988 22.8475 382.1 22.8278 382.094 22.8227C379.413 22.8263 381.887 22.8871 379.903 22.9003C379.563 22.9025 374.902 22.8724 373.006 22.8749C370.089 22.8787 367.177 22.8748 366.087 22.8758C364.247 22.8775 360.832 22.9232 357.808 22.9255C356.562 22.9264 356.127 22.8899 354.873 22.8908C346.828 22.897 330.991 22.9471 323.853 22.9239C322.089 22.9182 320.407 22.8703 319.475 22.8742C318.74 22.8917 318.004 22.9092 317.269 22.9266C315.007 22.7694 314.25 22.9093 311.812 22.9239C310.263 22.9332 309.539 22.8866 309.331 22.8867C307.952 22.8876 307.271 22.9098 306.188 22.9135C304.972 22.9175 303.225 22.8965 302.791 22.9003C302.524 22.9029 303.376 22.9648 298.659 22.9636C293.851 22.9624 289.105 22.9559 284.215 22.953C285.846 23.14 287.25 23.012 289.247 23.0052C289.782 23.0033 289.443 23.033 289.909 23.0317C291.225 23.0282 293.746 22.999 294.836 23.0061C296.013 23.0137 295.611 23.0825 297.103 23.0571C297.178 23.0558 296.94 23.0274 297.291 23.0226C300.819 22.9756 301.974 23.0251 306.434 23.0265C309.389 23.0275 327.337 22.9993 327.953 23.0179C331.166 23.1174 312.254 23.1181 310.043 23.1102C309.269 23.1075 310.08 23.0761 309.375 23.0701C309.076 23.0677 306.387 23.1275 303.73 23.1325C300.518 23.1385 294.061 23.0977 290.999 23.0991C264.678 23.1116 238.722 23.0754 212.427 23.0746C211.866 23.0746 211.128 23.1105 209.301 23.1105C178.567 23.1099 146.824 23.0868 115.573 23.0947L115.493 23.0943L115.431 23.0475C112.697 20.9968 109.966 18.95 107.242 16.9082C101.218 12.3932 95.2258 7.93951 89.1647 3.35867C88.5752 2.9415 87.9858 2.52432 87.3964 2.10715L87.5825 2.16922C87.3618 2.17535 87.141 2.18148 86.9202 2.18761C87.1274 2.18582 87.3495 2.18462 87.5825 2.18393L87.3876 2.11891C89.3746 3.6005 92.3229 5.87441 92.6166 6.09577C92.7324 6.18293 93.4813 6.70795 94.6594 7.59376C96.3161 8.83932 97.0278 9.40533 97.1639 9.5074C97.5855 9.82385 97.3256 9.59477 97.7283 9.89708C100.731 12.1514 103.059 13.8887 105.816 15.9566C108.93 18.2926 110.478 19.5173 112.779 21.174C113.023 21.3839 113.266 21.5939 113.51 21.8039C113.849 22.0357 114.502 22.5073 115.363 23.1392L115.454 23.2087L115.573 23.2093C120.015 23.1629 129.01 23.1704 133.129 23.1744C134.741 23.176 134.458 23.2142 134.999 23.2142C135.345 23.2141 135.209 23.1642 139.426 23.174C141.549 23.179 142.106 23.2153 143.171 23.2142C143.749 23.2135 143.656 23.1774 144.487 23.1774C149.293 23.1774 153.218 23.1891 157.924 23.1958C159.247 23.1976 159.261 23.2277 159.557 23.2273C160.648 23.226 162.544 23.175 165.315 23.1751C169.876 23.1754 178.966 23.1756 182.696 23.2003C183.244 23.204 183.698 23.2401 184.101 23.2396C184.711 23.2387 184.951 23.201 185.058 23.2008C187.099 23.2001 185.871 23.2352 187.238 23.2266C187.975 23.2221 188.744 23.1791 190.457 23.1742C192.718 23.1678 192.273 23.2188 193.218 23.2137C193.318 23.2129 193.348 23.1774 194.276 23.1763C197.798 23.1721 202.906 23.1639 206.239 23.164C207.196 23.164 207.908 23.1879 209.243 23.1883C211.933 23.1891 227.224 23.1739 228.478 23.1876C228.61 23.1891 227.25 23.2414 229.417 23.2398C230.047 23.218 230.676 23.1962 231.306 23.1744C232.358 23.2093 233.411 23.2442 234.463 23.2791C234.425 23.1586 240.617 23.14 240.556 23.2632C241.233 23.2682 241.911 23.2732 242.588 23.2782C243.999 23.193 244.939 23.2245 247.666 23.1744C248.091 23.2005 248.516 23.2266 248.941 23.2527C249.048 23.2353 249.155 23.2179 249.262 23.2005C250.717 23.2948 253.104 23.2002 253.394 23.1996C254.509 23.1975 255.346 23.2215 255.869 23.2207C257.822 23.2183 262.049 23.1852 264.33 23.2005C264.437 23.2013 264.332 23.2416 264.981 23.2466C266.151 23.2556 266.265 23.1966 267.826 23.2659C268.141 23.2485 268.456 23.2311 268.771 23.2137C269.106 23.2227 269.44 23.2317 269.775 23.2407C271.749 23.2361 273.723 23.2315 275.697 23.2269C273.901 23.2951 275.967 23.3332 277.92 23.2795C278.581 23.2613 277.995 23.2198 278.215 23.2135C278.518 23.205 287.377 23.2261 287.963 23.253C288.382 23.2399 288.801 23.2268 289.221 23.2137C289.433 23.2399 289.645 23.266 289.857 23.2922C290.088 23.2831 290.319 23.2739 290.551 23.2648C292.856 23.3109 298.84 23.2051 299.925 23.2135C300.505 23.2179 299.983 23.3295 302.762 23.3181C302.858 23.2875 302.954 23.2568 303.051 23.2262C303.687 23.2218 304.323 23.2174 304.959 23.213C306.153 23.2158 307.891 23.2688 307.946 23.3052C308.319 23.2834 308.692 23.2616 309.065 23.2398C310.067 23.3108 315.409 23.2856 317.558 23.2407C318.186 23.2621 318.815 23.2835 319.443 23.3049C320.287 23.2789 321.132 23.2529 321.976 23.2269C323.932 23.219 321.866 23.2623 322.283 23.2659C323.165 23.2734 327.659 23.2003 327.363 23.2913C327.976 23.2915 328.589 23.2918 329.202 23.292C329.517 23.266 329.832 23.24 330.148 23.2139C331.2 23.3036 333.021 23.272 336.755 23.3047C337.068 23.2841 337.381 23.2634 337.695 23.2428C338.849 23.2721 340.004 23.3014 341.159 23.3308C341.396 23.2966 341.633 23.2624 341.87 23.2282C342.372 23.2233 342.874 23.2184 343.376 23.2135C344.397 23.2901 346.229 23.2073 347.162 23.2389C348.522 23.285 347.47 23.3399 344.944 23.3505C345.133 23.4063 352.658 23.3807 354.393 23.3766C354.279 23.3657 354.164 23.3549 354.049 23.344C352.275 23.3526 350.5 23.3612 348.726 23.3698C347.239 23.2296 352.058 23.2672 354.269 23.2491C354.471 23.2474 355.617 23.1942 357.846 23.1992C358.709 23.2011 362.076 23.2788 362.718 23.2831C367.908 23.3186 364.092 23.2076 369.169 23.3049C368.111 23.2304 371.028 23.2923 374.065 23.2779C374.581 23.2755 378.965 23.2151 379.261 23.2135C381.106 23.2038 379.097 23.2697 381.768 23.2525C382.089 23.2352 382.41 23.2179 382.731 23.2005C383.352 23.2005 383.974 23.2005 384.596 23.2005C388.368 23.3549 389.246 23.2412 390.587 23.2266C391.129 23.2207 390.431 23.261 391.836 23.2525C392.365 23.2493 392.952 23.2158 394.375 23.2135C398.828 23.2062 400.34 23.3496 404.435 23.2003C405.063 23.222 405.691 23.2436 406.32 23.2652C406.744 23.2393 407.168 23.2133 407.592 23.1874C410.836 23.2627 409.665 23.1856 410.836 23.1865C413.93 23.1888 420.261 23.2036 420.815 23.2657C423.486 23.1231 426.679 23.2839 427.732 23.2784C428.357 23.2611 428.983 23.2437 429.608 23.2264C430.344 23.2438 431.079 23.2612 431.815 23.2786C431.457 23.1386 435.266 23.2763 435.632 23.2784C436.054 23.2805 441.911 23.239 444.092 23.2398C446.27 23.2406 450.065 23.2785 450.399 23.2786C450.783 23.2786 454.49 23.2405 457.388 23.2409C459.924 23.2413 474.946 23.2954 474 23.233C473.017 23.2157 471.618 23.2007 470.408 23.1926C466.653 23.1677 444.615 23.1358 438.983 23.1259C427.688 23.1061 415.907 23.1098 404.562 23.0962C403.894 23.0954 403.793 23.0591 403.22 23.0583C402.351 23.0572 400.144 23.0935 399.288 23.0928C396.087 23.0896 392.193 23.0837 390.48 23.0828C386.65 23.0809 384.023 23.0591 381.126 23.0555C380.219 23.0545 375.632 23.0995 372.489 23.0805C371.919 23.0703 371.349 23.0601 370.78 23.0499C372.399 23.038 376.647 23.0071 378.619 23.0036C381.553 22.9985 383.084 23.0279 384.168 23.0274C385.075 23.027 389.711 22.9935 391.822 22.9927C392.477 22.9924 392.611 23.0305 393.172 23.0304C396.215 23.0294 400.222 23.0284 402.862 22.9911C401.784 23.0033 408.512 23.0266 408.864 23.0265C409.469 23.0265 410.125 22.9909 411.36 22.9909C413.734 22.9909 413.433 23.0654 416.4 22.9909C417.134 23.0126 417.869 23.0343 418.603 23.056C418.648 22.9568 427.929 23.0917 430.568 22.9711C430.638 22.9575 418.578 22.9189 417.582 22.9169C411.611 22.905 402.773 22.9293 396.977 22.9119C395.233 22.9067 389.749 22.8463 389.335 22.8475C388.668 22.8492 389.27 22.8837 388.982 22.8849C383.081 22.9106 386.025 22.8412 385.24 22.8211ZM642.189 13.1902C640.752 14.2628 639.316 15.3354 637.879 16.4081C637.97 16.3126 638.061 16.217 638.152 16.1215C638.814 15.6355 639.476 15.1494 640.138 14.6634C640.635 14.2741 641.132 13.8848 641.63 13.4955C641.816 13.3937 642.002 13.292 642.189 13.1902ZM645.668 10.4656C646.905 9.52387 646.993 9.51503 647.282 9.30151C648.142 8.66435 648.872 8.0937 649.704 7.47053C648.812 8.27619 646.742 9.76628 645.668 10.4656ZM617.545 23.2532C617.896 23.2584 620.236 23.3759 622.897 23.2666C624.741 23.2987 626.584 23.3309 628.427 23.363L628.593 23.3638L628.73 23.2621C628.85 23.1753 628.97 23.0885 629.09 23.0017C628.972 23.0874 628.852 23.1747 628.73 23.2633L628.593 23.3653L628.427 23.3645C625.09 23.3223 620.735 23.3727 619.15 23.3707C618.521 23.3699 618.401 23.3339 617.898 23.3333C615 23.3304 612.182 23.4121 611.886 23.2927C614.627 23.3274 617.098 23.2468 617.545 23.2532ZM633.973 19.2437C634.359 18.9854 634.745 18.7272 635.131 18.4689C633.791 19.4742 632.451 20.4796 631.111 21.4849C631.458 21.1928 631.805 20.9007 632.153 20.6087C632.759 20.1537 633.366 19.6987 633.973 19.2437ZM506.159 23.213C507.193 23.2133 508.226 23.2136 509.259 23.2139C509.203 23.1957 508.02 23.1958 507.585 23.1835C507.587 23.1835 507.589 23.1835 507.591 23.1835C507.106 23.1696 507.313 23.1462 506.431 23.1359C506.341 23.1616 506.25 23.1873 506.159 23.213ZM85.6681 2.10955C83.9362 2.10824 67.9423 2.10811 69.3048 2.17445C69.9915 2.20758 75.4616 2.17869 77.0744 2.17921C79.2485 2.17989 85.1201 2.25163 85.6681 2.10955ZM57.3424 2.09661C57.0654 2.16273 67.061 2.17324 68.0383 2.16174C67.8308 2.15231 67.511 2.13133 67.2344 2.12657C65.8863 2.10378 59.4973 2.11469 57.3424 2.09661ZM448.297 23.0222C449.102 23.0556 449.908 23.0891 450.714 23.1225C450.502 23.079 450.29 23.0355 450.078 22.992C449.484 23.0021 448.89 23.0121 448.297 23.0222ZM370.132 23.0701C356.708 23.0679 343.285 23.0658 329.861 23.0637C331.042 23.0456 332.223 23.0276 333.404 23.0095C344.97 23.0159 357.305 23.0342 368.475 23.0063C369.027 23.0276 369.58 23.0488 370.132 23.0701ZM613.763 23.0574C610.324 23.0567 607.451 23.0887 603.709 23.0378C607.275 22.9886 609.04 23.0648 612.505 22.9922C612.507 22.9922 612.509 22.9922 612.511 22.9922C612.928 23.0139 613.346 23.0356 613.763 23.0574ZM536.975 23.0442C538.021 23.0138 539.066 22.9834 540.112 22.953C538.854 22.953 537.596 22.953 536.339 22.953C536.551 22.9834 536.763 23.0138 536.975 23.0442ZM253.041 22.901C249.444 22.9674 240.241 22.8473 237.317 22.9271C237.128 22.9323 238.866 22.966 236.056 23.0313C238.179 23.0179 239.677 23.0043 239.836 22.953C240.466 22.9704 241.096 22.9878 241.727 23.0052C242.773 22.992 243.818 22.9788 244.864 22.9657C244.751 23.0168 244.834 23.014 246.44 22.9791C247.173 22.992 247.905 23.0049 248.638 23.0179C248.948 22.9962 249.258 22.9746 249.569 22.953C250.203 22.9832 250.837 23.0135 251.471 23.0437C253.943 23.0109 252.438 22.9523 253.041 22.901ZM265.634 22.9135C265.049 22.9022 248.37 22.9389 255.95 23.0408C257.92 23.0375 259.891 23.0343 261.861 23.031C260.229 22.8623 265.598 23.0132 266.039 23.0167C268.149 23.0332 270.838 22.9931 272.369 22.9952C273.685 22.997 274.467 23.0273 275.393 23.0265C278.547 23.0239 283.53 23.0228 284.215 22.953C281.763 22.9515 279.273 22.9508 276.723 22.9525C274.027 22.9544 271.656 22.8885 266.591 22.9788C265.339 22.9691 265.785 22.9164 265.634 22.9135ZM543.261 22.96C543.135 23.0301 549.501 23.0134 549.542 22.9856C549.554 22.9694 547.481 22.9698 547.185 22.9636C547.183 22.9636 547.181 22.9636 547.179 22.9636C547.056 22.9609 547.682 22.9341 546.708 22.9266C545.559 22.9378 544.41 22.9489 543.261 22.96ZM105.893 15.714C105.229 15.1661 89.4962 3.38047 89.0218 3.04805C88.8928 2.95786 89.0579 3.10329 89.0023 3.07401C92.7039 5.78177 97.8792 9.74677 101.359 12.3626C102.329 13.0918 102.055 12.8519 102.111 12.8927C102.113 12.8944 102.115 12.8962 102.117 12.8979C102.668 13.3111 105.114 15.2311 105.893 15.714ZM231.022 22.9591C231.858 22.9701 232.694 22.981 233.529 22.992C233.741 22.9703 233.953 22.9486 234.165 22.9269C234.163 22.9269 234.161 22.9269 234.16 22.9269C233.114 22.9376 232.068 22.9484 231.022 22.9591ZM202.069 22.8876C202.272 22.9029 202.476 22.9182 202.679 22.9335C204.783 22.9356 206.887 22.9377 208.991 22.9398C208.779 22.9484 208.567 22.9571 208.355 22.9657C211.537 22.9887 212.854 22.935 214.549 22.9428C214.547 22.9428 214.545 22.9428 214.543 22.9428C214.726 22.9437 214.946 22.9755 215.625 22.9766C217.18 22.9791 221.638 22.9909 222.177 22.9589C223.317 22.8905 214.345 22.923 212.672 22.9198C211.916 22.9184 211.007 22.8905 210.547 22.8899C210.043 22.8893 209.357 22.9269 208.13 22.9257C207.771 22.9253 203.789 22.8811 202.069 22.8876ZM164.93 22.9332C165.579 22.9677 166.933 22.9344 167.431 22.94C167.55 22.9414 166.625 22.9702 167.746 22.9788C168.063 22.9592 168.381 22.9395 168.698 22.9198C167.442 22.9243 166.186 22.9288 164.93 22.9332ZM553.957 22.9269C553.774 22.9195 550.356 22.9222 550.192 22.9269C548.145 22.9897 555.223 22.9829 553.957 22.9269ZM637.844 15.7884C636.532 16.6588 651.506 5.53692 652.949 4.44826C652.911 4.54839 649.327 7.16511 651.234 5.83337C649.434 7.12955 644.544 10.8271 643.382 11.6828C642.677 12.2022 642.471 12.2952 642.364 12.3733C641.945 12.6805 638.307 15.4816 637.844 15.7884ZM667.501 1.88762C665.728 1.87673 663.956 1.86584 662.183 1.85494C664.275 1.84844 666.367 1.84193 668.458 1.83543C668.139 1.85282 667.82 1.87022 667.501 1.88762ZM669.73 1.86152C669.674 1.80586 675.69 1.84826 677.272 1.83543C675.489 1.93011 672.515 1.84084 669.73 1.86152ZM576.627 22.7832C573.855 22.7464 572.663 22.9161 576.034 22.8422C576.136 22.8398 576.742 22.7852 576.627 22.7832ZM252.186 22.6623C251.713 22.6612 245.835 22.6062 245.494 22.6335C244.419 22.7204 248.276 22.6855 249.569 22.7183C251.654 22.7715 248.587 22.8153 253.678 22.7832C253.469 22.8006 253.261 22.818 253.053 22.8354C256.032 22.8412 255.057 22.7207 255.592 22.7052C255.755 22.7005 257.618 22.7106 257.954 22.7029C262.152 22.6058 252.624 22.6631 252.186 22.6623ZM508.007 22.7703C502.489 22.7192 504.863 22.7942 499.199 22.7896C499.011 22.8278 507.289 22.8038 508.007 22.7703ZM305.922 22.731C300.215 22.7461 295.521 22.6961 290.198 22.7633C290.544 22.8667 307.403 22.7578 305.922 22.731ZM44.7555 1.62621C58.1817 1.73761 72.8537 1.75949 87.5825 1.75874L87.6155 1.75857L87.6427 1.7788C95.348 7.55916 103.079 13.3464 110.557 18.9558C112.618 20.502 112.791 20.683 113.54 21.239C114.03 21.6033 113.965 21.5128 114.614 21.9997C114.956 22.2564 115.298 22.513 115.64 22.7693L115.573 22.7469C144.448 22.7405 172.131 22.6988 199.825 22.7183C201.595 22.7196 210.208 22.7906 212.048 22.6836C213.439 22.6025 207.253 22.6657 206.221 22.665C205.447 22.6645 205.414 22.6263 204.897 22.6262C204.349 22.6261 204.802 22.6521 204.165 22.6525C201.469 22.6544 198.527 22.6442 196.089 22.6464C172.181 22.6677 148.921 22.6616 125.139 22.658C122.26 22.6576 122.852 22.627 122.707 22.6269C122.706 22.627 122.704 22.627 122.702 22.6271C120.371 22.6267 117.991 22.6279 115.573 22.6301L115.71 22.6759C106.711 15.9374 97.0411 8.72393 87.6945 1.70985L87.6438 1.67224L87.5825 1.67254C85.1323 1.67226 82.6986 1.67045 80.2927 1.6666C68.7805 1.64557 57.2682 1.62454 45.756 1.60351C45.4225 1.61108 45.089 1.61864 44.7555 1.62621ZM264.373 22.7701C262.937 22.6548 262.616 22.771 257.463 22.724C257.043 22.7437 256.624 22.7633 256.205 22.783C258.931 22.7787 261.656 22.7744 264.382 22.7701C264.379 22.7701 264.376 22.7701 264.373 22.7701ZM230.337 22.7281C229.466 22.5724 217.942 22.6824 212.753 22.6528C211.802 22.7309 219.346 22.6958 221.124 22.704C222.013 22.7081 226.77 22.7885 230.386 22.744C230.37 22.7387 230.353 22.7334 230.337 22.7281ZM620.688 22.6262C619.85 22.6307 619.011 22.6353 618.173 22.6398C620.271 22.6571 622.369 22.6743 624.467 22.6916C621.12 22.6804 617.773 22.6693 614.425 22.6582C615.049 22.6259 615.672 22.5936 616.296 22.5613C617.76 22.5829 619.224 22.6046 620.688 22.6262ZM609.828 22.6428C615.69 22.6306 609.57 22.7171 608.107 22.6786C607.231 22.6556 609.229 22.6441 609.828 22.6428ZM594.58 22.5872C597.314 22.5305 602.839 22.5266 600.875 22.6398C597.921 22.5868 596.016 22.6309 591.732 22.6003C592.358 22.5786 592.983 22.5569 593.609 22.5352C593.612 22.5352 593.615 22.5352 593.617 22.5352C593.938 22.5525 594.259 22.5699 594.58 22.5872ZM612.505 22.5742C616.345 22.6393 605.229 22.6171 608.723 22.5742C608.887 22.5723 612.354 22.5718 612.505 22.5742ZM69.3048 1.50911C68.8423 1.54612 71.7953 1.54543 72.7776 1.54792C77.036 1.55892 82.4974 1.54281 86.9259 1.54792C86.5925 1.53574 86.2589 1.52356 85.9255 1.51138C80.3852 1.51063 74.845 1.50987 69.3048 1.50911ZM98.3253 9.53021C100.759 11.3563 103.193 13.1825 105.627 15.0086C105.854 15.1787 106.937 15.9516 106.151 15.3519C103.542 13.4113 100.934 11.4708 98.3253 9.53021ZM283.582 22.5481C281.249 22.5274 287.967 22.4212 287.665 22.535C286.304 22.5394 284.943 22.5438 283.582 22.5481ZM305.292 22.5028C303.829 22.5136 302.366 22.5244 300.902 22.5352C300.9 22.5221 300.899 22.509 300.897 22.496C302.362 22.4982 303.827 22.5005 305.292 22.5028ZM57.3424 1.48302C58.8922 1.5278 62.5895 1.52091 64.8952 1.52182C63.3071 1.48335 59.5219 1.50226 57.3424 1.48302ZM248.626 22.5023C248.815 22.5328 239.535 22.5251 242.747 22.4714C244.707 22.4817 246.666 22.492 248.626 22.5023ZM229.776 22.4571C231.766 22.4505 233.308 22.461 232.899 22.5089C231.843 22.5068 230.788 22.5048 229.733 22.5028C229.747 22.4876 229.761 22.4724 229.776 22.4571ZM584.174 22.496C580.82 22.5003 577.465 22.5046 574.111 22.5089C574.235 22.4958 574.36 22.4827 574.484 22.4696C577.718 22.4654 580.951 22.4612 584.185 22.4569C584.181 22.4699 584.178 22.4829 584.174 22.496ZM55.4456 1.36547C53.142 1.37402 50.8384 1.38257 48.5348 1.39111C50.8403 1.39989 53.1458 1.40866 55.4514 1.41744C55.4514 1.40004 55.4514 1.38264 55.4514 1.36525C55.4494 1.36532 55.4475 1.3654 55.4456 1.36547ZM629.464 21.415C628.935 21.8073 628.483 22.1417 628.1 22.4236L628.427 22.3147C625.007 22.2865 626.122 22.2598 628.427 22.2501L628.062 22.372C629.939 20.9513 632.82 18.7998 633.867 18.0667C633.87 18.0649 633.872 18.0631 633.874 18.0613C634.068 17.9256 633.691 18.2566 634.015 18.0326C633.171 18.6446 632.326 19.2566 631.482 19.8686C630.734 20.4568 629.986 21.0449 629.238 21.6331C628.982 21.8143 628.726 21.9955 628.471 22.1767C628.802 21.9228 629.133 21.6689 629.464 21.415ZM664.476 1.2924C673.768 1.29948 664.261 1.39533 659.662 1.31963C659.695 1.30212 663.62 1.29175 664.476 1.2924ZM643.059 11.1989C641.893 12.0845 640.727 12.9701 639.561 13.8557C639.405 13.9592 639.249 14.0626 639.093 14.166C639.985 13.4829 640.877 12.7997 641.77 12.1165C642.2 11.8106 642.629 11.5048 643.059 11.1989ZM598.978 22.1438C596.622 22.1317 593.617 22.2537 601.182 22.2216C601.178 22.2085 601.174 22.1954 601.17 22.1823C600.869 22.1844 599.984 22.1967 599.936 22.1957C599.797 22.1925 599.96 22.1488 598.978 22.1438ZM681.681 0.94771C681.946 0.942729 682.09 0.804699 684.842 0.947483C685.673 0.938784 686.505 0.930085 687.337 0.921387C687.552 0.951794 687.767 0.982202 687.982 1.01261C684.763 0.989034 684.421 1.05056 684.188 1.05187C683.118 1.05762 683.91 1.02598 683.219 1.02554C681.437 1.0245 677.386 1.04575 679.223 0.955425C679.885 0.923075 681.417 0.952686 681.681 0.94771ZM675.386 0.869195C675.777 0.880716 674.519 0.921094 674.814 0.932506C675.072 0.942458 678.952 0.983653 677.902 1.05187C677.265 1.04899 676.628 1.04612 675.991 1.04324C675.775 1.02456 675.559 1.00588 675.343 0.987194C674.726 1.00444 674.109 1.02169 673.492 1.03893C672.453 0.99283 670.241 0.933106 672.868 0.895518C671.902 0.899451 670.936 0.903384 669.97 0.907317C669.47 0.929404 668.97 0.951492 668.47 0.973579C668.732 0.939919 668.994 0.906259 669.256 0.872598C671.3 0.871464 673.343 0.870329 675.386 0.869195ZM705.325 0.882129C705.208 0.899526 705.09 0.916924 704.973 0.934321C708.52 0.901978 714.043 0.88968 710.906 0.998767C706.101 1.00784 701.297 1.01692 696.492 1.026C696.173 1.01291 695.854 0.999826 695.535 0.98674C699.119 1.03716 698.011 0.822616 701.13 0.884171C701.656 0.894607 700.13 0.969632 703.434 0.921614C703.317 0.904141 703.199 0.886668 703.082 0.869195C703.83 0.873506 704.577 0.877818 705.325 0.882129ZM735.817 0.908225C729.744 0.883079 736.433 0.81959 737.555 0.872371C737.553 0.872371 737.551 0.872371 737.549 0.872371C740.622 1.0168 734.014 0.94702 733.611 0.947937C733.075 0.949215 731.827 1.05262 728.912 0.901871C731.214 0.903989 733.515 0.906107 735.817 0.908225ZM715.99 0.882356C716.5 0.878951 716.217 0.90521 716.438 0.904821C716.44 0.904821 716.442 0.904821 716.443 0.904821C719.694 0.89919 727.426 0.875679 728.264 0.960417C725.858 0.967489 715.091 0.985799 714.44 0.928194C714.956 0.912915 715.473 0.897635 715.99 0.882356ZM693.114 0.94544C691.119 0.890577 695.612 0.883273 696.79 0.908679C697.012 0.914183 695.182 1.00227 693.114 0.94544ZM547.029 21.8038C542.638 21.8368 548.407 21.8698 546.41 21.9214C547.248 21.917 548.087 21.9126 548.926 21.9082C548.293 21.8734 547.661 21.8386 547.029 21.8038ZM346.835 21.6997C345.811 21.6936 346.296 21.7251 346.207 21.7256C345.535 21.7247 344.901 21.699 344.643 21.7017C339.872 21.7535 343.045 21.78 343.093 21.7861C343.194 21.8173 341.94 21.8538 343.677 21.8894C344.732 21.8783 345.786 21.8673 346.841 21.8563C347.364 21.8736 347.887 21.8909 348.411 21.9082C350.506 21.8711 347.764 21.8609 347.454 21.8116C347.334 21.7922 349.304 21.769 346.835 21.6997ZM539.161 21.6995C538.449 21.7542 536.704 21.8233 538.418 21.8783C538.42 21.8783 538.422 21.8783 538.423 21.8783C538.74 21.8883 540.031 21.8939 540.427 21.908C543.254 21.8351 542.171 21.7597 539.161 21.6995ZM365.748 21.6017C367.449 21.6144 369.149 21.6272 370.849 21.64C370.82 21.6728 370.791 21.7057 370.762 21.7385C369.853 21.7296 368.943 21.7208 368.033 21.7119C367.714 21.7269 367.395 21.7419 367.076 21.7569C368.205 21.7943 369.335 21.8318 370.465 21.8692C371.826 21.8561 373.187 21.843 374.547 21.8299C373.922 21.8126 373.296 21.7953 372.671 21.778C375.997 21.7589 375.273 21.8387 378.026 21.8692C378.969 21.8388 379.911 21.8084 380.854 21.778C382.219 21.8085 383.584 21.8391 384.948 21.8696C387.242 21.8554 387.443 21.8321 385.9 21.7973C387.04 21.7574 388.288 21.8201 389.662 21.8038C389.775 21.8025 389.561 21.765 389.662 21.7646C396.762 21.7393 396.384 21.8378 397.518 21.842C398.318 21.8448 401.513 21.7784 401.563 21.7557C401.625 21.7252 394.98 21.6048 405.386 21.6017C400.006 21.5184 393.89 21.6031 397.845 21.7253C396.142 21.713 388.634 21.7435 388.155 21.7398C387.457 21.7343 387.702 21.688 386.828 21.6867C386.311 21.6861 384.943 21.7921 380.854 21.6995C380.332 21.7169 379.809 21.7343 379.287 21.7516C378.797 21.7374 378.307 21.7231 377.818 21.7088C378.826 21.6578 379.834 21.6068 380.842 21.5558C376.849 21.6112 373.535 21.5071 371.104 21.5948C369.001 21.5846 367.98 21.5745 368.883 21.5297C368.252 21.5297 367.62 21.5297 366.989 21.5297C366.575 21.5537 366.162 21.5777 365.748 21.6017ZM526.259 21.7777C524.169 21.7268 523.418 21.8367 523.743 21.8429C525.576 21.877 527.346 21.8042 526.259 21.7777ZM350.629 21.758C352.934 21.7863 355.24 21.8146 357.545 21.8429C357.545 21.8082 357.545 21.7734 357.545 21.7387C355.24 21.7451 352.934 21.7516 350.629 21.758ZM547.671 21.7258C547.883 21.7518 548.095 21.7778 548.307 21.8038C550.832 21.7088 553.339 21.8452 554.587 21.817C554.858 21.8109 554.311 21.7649 553.795 21.7551C553.474 21.7489 548.118 21.717 547.671 21.7258ZM647.25 7.33616C646.508 7.91469 645.766 8.49323 645.024 9.07176C645.048 9.01711 645.072 8.96245 645.096 8.9078C645.464 8.62464 645.832 8.34148 646.201 8.05831C646.55 7.8176 646.9 7.57688 647.25 7.33616ZM638.715 13.7975C637.371 14.8027 636.028 15.8079 634.684 16.8131C639.788 12.9504 635.578 16.0923 638.664 13.7294C638.681 13.7521 638.698 13.7748 638.715 13.7975ZM625.109 21.7256C625.316 21.7081 625.522 21.6906 625.728 21.6731C626.628 21.6731 627.527 21.6731 628.427 21.6731L627.715 21.9104C628.338 21.4433 628.961 20.9761 629.583 20.5089C628.934 20.9405 628.285 21.3721 627.635 21.8036L628.427 21.5396C628.144 21.5235 627.862 21.5073 627.579 21.4911C626.964 21.491 626.349 21.4908 625.734 21.4907C625.526 21.569 625.318 21.6473 625.109 21.7256ZM301.507 21.5692C300.492 21.5682 296.963 21.6212 297.115 21.6407C298.581 21.6647 300.047 21.6886 301.513 21.7126C301.519 21.6778 301.526 21.643 301.533 21.6082C301.74 21.6256 301.947 21.6429 302.154 21.6602C302.988 21.6472 303.822 21.6342 304.656 21.6212C305.076 21.6516 305.496 21.682 305.916 21.7124C306.339 21.6777 306.761 21.643 307.183 21.6082C303.157 21.5467 303.296 21.6082 302.458 21.6076C302.033 21.6073 301.764 21.5857 301.614 21.5749C301.578 21.573 301.542 21.5711 301.507 21.5692ZM352.222 21.5365C347.415 21.5279 344.668 21.6195 341.19 21.5429C343.421 21.7061 357.823 21.5375 362.9 21.6736C363.427 21.6474 363.955 21.6212 364.482 21.5951C361.717 21.6184 359.801 21.5645 358.453 21.5567C357.382 21.5506 357.494 21.578 357.412 21.5776C357.408 21.5776 357.404 21.5776 357.401 21.5776C354.893 21.5663 354.118 21.5399 352.222 21.5365ZM551.242 21.5978C549.95 21.5564 547.69 21.5606 547.665 21.6209C548.923 21.6384 550.18 21.6559 551.438 21.6734C551.18 21.6579 551.462 21.6049 551.242 21.5978ZM623.158 21.5569C622.15 21.5373 619.768 21.5545 620.795 21.6066C620.98 21.6159 623.352 21.5793 621.961 21.6734C624.272 21.6719 623.731 21.5682 623.158 21.5569ZM434.359 21.6602C435.208 21.6585 436.056 21.6567 436.904 21.655C437.101 21.6306 437.299 21.6063 437.497 21.5819C436.451 21.608 435.405 21.6341 434.359 21.6602ZM562.143 21.556C563.271 21.6752 565.197 21.5592 567.313 21.6572C568.095 21.658 568.876 21.6588 569.658 21.6595C569.66 21.6595 569.662 21.6595 569.664 21.6595C569.685 21.627 569.706 21.5945 569.727 21.5619C567.199 21.56 564.671 21.558 562.143 21.556ZM381.473 21.6014C381.995 21.6166 382.518 21.6317 383.04 21.6468C383.97 21.6292 384.9 21.6116 385.83 21.5939C385.327 21.5813 384.824 21.5687 384.321 21.556C383.371 21.5712 382.422 21.5863 381.473 21.6014ZM575.884 21.5458C573.149 21.5309 572.121 21.6345 575.617 21.6348C577.092 21.6348 578.748 21.5614 575.884 21.5458ZM249.274 21.6078C250.211 21.6166 251.147 21.6255 252.084 21.6343C252.403 21.6125 252.722 21.5908 253.041 21.569C251.786 21.5819 250.53 21.5948 249.274 21.6078ZM633.809 17.2081C633.734 17.2915 633.659 17.3749 633.585 17.4582C632.913 17.9562 632.242 18.4542 631.571 18.9522C631.726 18.8088 631.881 18.6654 632.037 18.522C632.627 18.0841 633.218 17.6461 633.809 17.2081ZM255.577 21.6212C256.326 21.6253 257.075 21.6295 257.824 21.6336C258.327 21.6231 258.83 21.6125 259.333 21.6019C258.633 21.5914 257.932 21.5809 257.231 21.5703C256.68 21.5873 256.129 21.6042 255.577 21.6212ZM601.801 21.5558C600.749 21.5296 596.546 21.6112 600.332 21.6321C602.744 21.6453 601.958 21.5598 601.801 21.5558ZM607.471 21.5297C603.464 21.4798 606.469 21.7331 611.25 21.569C606.437 21.5915 607.706 21.5327 607.471 21.5297ZM638.971 13.1228C639.052 13.0624 639.14 13.0417 639.785 12.5596C642.106 10.8243 645.175 8.53997 646.834 7.29785C648.646 5.94115 652.147 3.29916 655.568 0.727304L655.939 0.446549L656.417 0.444201C661.557 0.439134 666.544 0.445662 667.518 0.50317C667.89 0.525304 667.035 0.591441 667.186 0.594846C667.629 0.604344 670.182 0.572254 669.71 0.620942C667.205 0.620564 664.7 0.620186 662.195 0.619808C662.81 0.585467 663.425 0.551126 664.04 0.516785C657.798 0.535117 659.864 0.533001 658.069 0.607781C657.518 0.592685 656.968 0.577589 656.417 0.562493L655.979 0.564644L655.639 0.821925C655.226 1.11444 654.813 1.40696 654.4 1.69949C652.578 3.10293 650.756 4.50639 648.934 5.90984C649.338 5.57954 649.742 5.24924 650.146 4.91894C647.351 6.96609 648.136 6.40951 646.651 7.58939C646.635 7.57434 646.619 7.55929 646.603 7.54424C643.959 9.59416 643.399 9.93319 642.814 10.3711C641.614 11.2698 640.239 12.6221 635.512 15.8495C633.657 17.3949 633.551 17.1619 632.493 18.1141C629.146 20.4526 635.384 15.8347 638.325 13.6342C638.326 13.6331 638.328 13.6319 638.33 13.6308C638.551 13.4648 638.185 13.7102 638.971 13.1228ZM621.741 21.5263C624.211 21.4135 614.451 21.4029 617.681 21.5658C618.162 21.5711 618.643 21.5764 619.124 21.5817C619.998 21.5632 620.872 21.5448 621.747 21.5263C621.745 21.5263 621.743 21.5263 621.741 21.5263ZM530.032 21.4514C520.992 21.4978 526.132 21.5627 529.194 21.4993C529.805 21.4867 530.139 21.4695 530.032 21.4514ZM345.354 21.4498C345.222 21.4634 345.09 21.4769 344.958 21.4905C347.99 21.4778 353.852 21.53 353.772 21.4387C350.966 21.4424 348.16 21.4461 345.354 21.4498ZM369.337 21.3902C368.686 21.3847 366.026 21.3717 366.347 21.4058C367.5 21.43 368.653 21.4542 369.805 21.4784C370.342 21.4633 370.879 21.4482 371.416 21.4331C370.666 21.4279 369.513 21.3916 369.337 21.3902Z" fill="url(#paint0_radial_61_243)"/>
<defs>
<radialGradient id="paint0_radial_61_243" cx="0" cy="0" r="1" gradientUnits="userSpaceOnUse" gradientTransform="translate(372 13.3135) rotate(90) scale(353.182 315.26)">
<stop stop-color="#C9684D"/>
<stop offset="1" stop-color="#E82E5A"/>
</radialGradient>
</defs>
</svg>
