<svg width="578" height="131" viewBox="0 0 578 131" fill="none" xmlns="http://www.w3.org/2000/svg">
<g filter="url(#filter0_f_61_248)">
<path d="M140.928 44.4578C139.681 44.5234 138.631 44.9992 137.778 45.8852C136.958 46.7711 136.367 47.7883 136.006 48.9367C135.646 50.0523 135.465 51.2008 135.465 52.382C135.465 53.5633 135.629 54.7281 135.957 55.8766C136.318 57.025 136.925 58.0422 137.778 58.9281C138.631 59.7813 139.681 60.2406 140.928 60.3063H157.171C159.238 60.5031 160.37 61.6352 160.567 63.7023C160.534 64.6211 160.189 65.3922 159.533 66.0156C158.877 66.6063 158.089 66.9016 157.171 66.9016H141.47H139.206C136.909 66.7703 135.022 65.9008 133.546 64.293C132.069 62.6523 131.003 60.7984 130.346 58.7313C129.723 56.6641 129.411 54.5477 129.411 52.382C129.411 50.7742 129.592 49.1828 129.953 47.6078C130.314 46.0328 130.871 44.5398 131.626 43.1289C132.414 41.6852 133.447 40.4547 134.727 39.4375C136.039 38.4203 137.532 37.8953 139.206 37.8625H140.141H157.171C159.238 38.0594 160.37 39.1914 160.567 41.2586C160.567 42.1773 160.222 42.9484 159.533 43.5719C158.877 44.1625 158.089 44.4578 157.171 44.4578H140.928ZM168.896 37.075C169.815 37.075 170.603 37.3867 171.259 38.0102C171.915 38.6008 172.26 39.3555 172.293 40.2742V41.2094C172.26 42.5547 172.342 43.8016 172.539 44.95C172.768 46.0656 173.293 47.0664 174.114 47.9523C174.934 48.8383 175.968 49.3141 177.214 49.3797H191.045V40.3727C191.045 39.4539 191.373 38.6992 192.029 38.1086C192.718 37.4852 193.522 37.1734 194.441 37.1734C196.41 37.3375 197.493 38.4039 197.689 40.3727V51.7914C197.689 54.4164 197.328 56.8938 196.607 59.2234C195.95 61.2906 194.868 63.0461 193.358 64.4898C191.882 65.9008 189.995 66.6719 187.698 66.8031H169.979C169.093 66.7703 168.339 66.4586 167.715 65.868C167.125 65.2445 166.813 64.4898 166.78 63.6039C166.78 62.6852 167.075 61.8977 167.666 61.2414C168.289 60.5852 169.06 60.2406 169.979 60.2078H186.025C187.271 60.1422 188.305 59.6664 189.125 58.7805C189.88 57.9602 190.389 57.025 190.651 55.975H175.541C173.244 55.8438 171.341 55.0727 169.832 53.6617C168.355 52.218 167.289 50.4625 166.632 48.3953C166.009 46.3281 165.681 44.1297 165.648 41.8V40.2742C165.681 39.3883 166.009 38.65 166.632 38.0594C167.256 37.4359 168.01 37.1078 168.896 37.075ZM237.47 53.9078C238.093 55.2203 238.405 56.5492 238.405 57.8945C238.405 59.207 238.077 60.5195 237.421 61.832C236.765 63.1117 235.698 64.2602 234.222 65.2773C232.745 66.2617 230.858 66.7539 228.561 66.7539H228.266C228.069 66.7867 227.872 66.8031 227.675 66.8031H207.89C207.004 66.7703 206.249 66.4586 205.625 65.868C205.035 65.2445 204.723 64.4898 204.69 63.6039V41.0617C204.723 40.1758 205.035 39.4375 205.625 38.8469C206.249 38.2234 207.004 37.8953 207.89 37.8625H224.821C225.018 37.8625 225.215 37.8789 225.411 37.9117H225.707C228.004 37.9773 229.89 38.5023 231.367 39.4867C232.843 40.4711 233.91 41.6031 234.566 42.8828C235.222 44.1297 235.55 45.393 235.55 46.6727C235.55 47.9852 235.239 49.2648 234.615 50.5117C234.582 50.5773 234.55 50.6266 234.517 50.6594C235.862 51.6109 236.847 52.6938 237.47 53.9078ZM228.857 60.2078C229.48 60.2406 229.989 60.1258 230.382 59.8633C230.809 59.6008 231.121 59.3055 231.318 58.9773C231.515 58.6164 231.613 58.2555 231.613 57.8945C231.613 57.6648 231.515 57.3531 231.318 56.9594C231.121 56.5328 230.809 56.1883 230.382 55.9258C229.989 55.6633 229.48 55.5156 228.857 55.4828H225.707H211.335V58.8789C211.335 59.7648 211.794 60.2078 212.713 60.2078H213.107H228.857ZM227.577 48.4445C227.971 48.2148 228.266 47.9523 228.463 47.657C228.66 47.3289 228.758 47.0008 228.758 46.6727C228.758 46.3445 228.66 46.0328 228.463 45.7375C228.266 45.4094 227.954 45.1305 227.528 44.9008C227.134 44.6383 226.625 44.4906 226.002 44.4578H212.713C211.794 44.4578 211.335 44.9008 211.335 45.7867V48.8875H226.002C226.625 48.8547 227.15 48.707 227.577 48.4445ZM253.133 37.8625H255.397H272.132C273.051 37.8953 273.805 38.2398 274.396 38.8961C275.019 39.5523 275.331 40.3398 275.331 41.2586C275.167 43.2273 274.101 44.2938 272.132 44.4578H254.807C253.56 44.5234 252.526 44.9992 251.706 45.8852C250.886 46.7711 250.279 47.7883 249.885 48.9367C249.524 50.0523 249.343 51.2008 249.343 52.382C249.343 53.5633 249.524 54.7281 249.885 55.8766C250.279 56.9922 250.886 57.993 251.706 58.8789C252.526 59.7648 253.56 60.2406 254.807 60.3063H272.132C273.051 60.3391 273.805 60.6836 274.396 61.3398C275.019 61.9961 275.331 62.7836 275.331 63.7023C275.298 64.5883 274.97 65.343 274.347 65.9664C273.756 66.557 273.018 66.8688 272.132 66.9016H254.068H253.133C250.836 66.7703 248.933 65.9008 247.424 64.293C245.947 62.6523 244.881 60.7984 244.225 58.7313C243.601 56.6641 243.29 54.5477 243.29 52.382C243.29 50.2164 243.618 48.1 244.274 46.0328C244.93 43.9656 245.997 42.1281 247.473 40.5203C248.95 38.8797 250.836 37.9938 253.133 37.8625ZM275.233 52.1852C275.233 53.1039 274.904 53.875 274.248 54.4984C273.625 55.1547 272.854 55.4828 271.935 55.4828H257.071C256.152 55.4828 255.365 55.1711 254.708 54.5477C254.085 53.8914 253.773 53.1039 253.773 52.1852C253.773 51.2664 254.085 50.4789 254.708 49.8227C255.365 49.1992 256.152 48.8875 257.071 48.8875H271.935C272.854 48.8875 273.625 49.2156 274.248 49.8719C274.904 50.4953 275.233 51.2664 275.233 52.1852ZM287.401 64.3914C287.205 66.3602 286.122 67.4266 284.153 67.5906C283.234 67.5906 282.43 67.2953 281.741 66.7047C281.085 66.0813 280.757 65.3102 280.757 64.3914V41.0617C280.79 40.143 281.134 39.3883 281.79 38.7977C282.447 38.1742 283.234 37.8625 284.153 37.8625H286.565H292.619H304.776C304.972 37.8625 305.169 37.8789 305.366 37.9117H305.662C307.958 37.9773 309.845 38.5023 311.322 39.4867C312.798 40.4711 313.865 41.6031 314.521 42.8828C315.177 44.1297 315.505 45.393 315.505 46.6727C315.505 47.9852 315.177 49.2813 314.521 50.5609C313.897 51.8078 312.831 52.9234 311.322 53.9078C309.845 54.8922 307.958 55.4172 305.662 55.4828H296.999C297.262 57.1234 297.803 58.3375 298.623 59.125C299.411 59.9125 300.412 60.3063 301.626 60.3063H312.257C313.176 60.3391 313.93 60.6836 314.521 61.3398C315.144 61.9961 315.456 62.7836 315.456 63.7023C315.423 64.5883 315.095 65.343 314.472 65.9664C313.881 66.557 313.143 66.8688 312.257 66.9016H300.74C298.312 66.9344 296.113 65.9828 294.144 64.0469C292.176 62.1109 290.978 59.8141 290.551 57.1563C289.961 54.2031 289.665 52.5461 289.665 52.1852C289.665 51.2664 289.977 50.4953 290.601 49.8719C291.257 49.2156 292.044 48.8875 292.963 48.8875H305.957C306.58 48.8547 307.089 48.7234 307.483 48.4938C307.909 48.2313 308.221 47.9523 308.418 47.657C308.615 47.3289 308.713 47.0008 308.713 46.6727C308.713 46.3445 308.615 46.0328 308.418 45.7375C308.221 45.4094 307.909 45.1305 307.483 44.9008C307.089 44.6383 306.58 44.4906 305.957 44.4578H292.619H288.681C287.828 44.4906 287.401 44.9172 287.401 45.7375V64.3914ZM337.026 36.5336C338.732 36.5336 340.405 36.7305 342.046 37.1242C343.719 37.518 345.311 38.1086 346.82 38.8961C348.33 39.6508 349.659 40.668 350.807 41.9477C351.988 43.2273 352.628 44.7531 352.726 46.525V48.5922V64.293C352.53 66.2617 351.447 67.3281 349.478 67.4922C348.559 67.4922 347.755 67.1969 347.066 66.6063C346.41 65.9828 346.082 65.2117 346.082 64.293V48.0508C346.016 47.0336 345.623 46.1969 344.901 45.5406C344.212 44.8516 343.424 44.3102 342.538 43.9164C341.685 43.5227 340.783 43.2273 339.831 43.0305C338.912 42.8336 337.977 42.7352 337.026 42.7352C336.074 42.7352 335.123 42.8336 334.171 43.0305C333.252 43.2273 332.35 43.5227 331.464 43.9164C330.611 44.3102 329.823 44.8516 329.101 45.5406C328.412 46.1969 328.035 47.0336 327.969 48.0508V64.293C327.805 66.2617 326.739 67.3281 324.77 67.4922C323.851 67.4922 323.048 67.1969 322.359 66.6063C321.702 65.9828 321.374 65.2117 321.374 64.293V48.5922V46.525C321.473 44.7531 322.096 43.2273 323.244 41.9477C324.393 40.668 325.722 39.6508 327.231 38.8961C328.741 38.1086 330.316 37.518 331.956 37.1242C333.63 36.7305 335.319 36.5336 337.026 36.5336ZM385.863 37.8625C387.536 37.8953 389.029 38.4203 390.341 39.4375C391.654 40.4547 392.704 41.6688 393.491 43.0797C394.312 44.4906 394.919 45.9836 395.313 47.5586C395.706 49.1336 395.903 50.7414 395.903 52.382C395.903 54.5477 395.559 56.6805 394.87 58.7805C394.213 60.8477 393.114 62.6852 391.572 64.293C390.063 65.9008 388.159 66.7703 385.863 66.9016H368.685C366.388 66.8031 364.469 65.95 362.927 64.3422C361.384 62.7344 360.285 60.8805 359.629 58.7805C359.005 56.6805 358.694 54.5477 358.694 52.382C358.694 50.2164 359.022 48.1 359.678 46.0328C360.334 43.9328 361.417 42.0789 362.927 40.4711C364.469 38.8305 366.388 37.9609 368.685 37.8625H369.62H384.927H385.863ZM384.189 60.3063C385.436 60.2406 386.47 59.7813 387.29 58.9281C388.143 58.0422 388.75 57.025 389.111 55.8766C389.472 54.7281 389.652 53.5633 389.652 52.382C389.652 51.2008 389.455 50.0523 389.062 48.9367C388.701 47.7883 388.11 46.7711 387.29 45.8852C386.47 44.9992 385.436 44.5234 384.189 44.4578H370.211C368.964 44.5234 367.93 44.9992 367.11 45.8852C366.29 46.7711 365.683 47.7883 365.289 48.9367C364.928 50.0523 364.748 51.2008 364.748 52.382C364.748 53.5633 364.928 54.7281 365.289 55.8766C365.65 57.025 366.241 58.0422 367.061 58.9281C367.914 59.7813 368.964 60.2406 370.211 60.3063H384.189ZM400.837 41.1602C400.837 40.2414 401.149 39.4703 401.772 38.8469C402.428 38.1906 403.216 37.8625 404.134 37.8625H432.78C433.699 37.8625 434.486 38.1742 435.142 38.7977C435.766 39.4539 436.077 40.2414 436.077 41.1602C436.077 42.0789 435.749 42.8664 435.093 43.5227C434.47 44.1461 433.699 44.4578 432.78 44.4578H421.804V64.3914C421.607 66.3602 420.524 67.4266 418.556 67.5906C417.637 67.5906 416.833 67.2953 416.144 66.7047C415.488 66.0813 415.159 65.3102 415.159 64.3914V44.4578H404.134C403.216 44.4578 402.445 44.1297 401.821 43.4734C401.165 42.85 400.837 42.0789 400.837 41.1602ZM450.904 37.8625H453.168H469.903C470.821 37.8953 471.576 38.2398 472.167 38.8961C472.79 39.5523 473.102 40.3398 473.102 41.2586C472.938 43.2273 471.871 44.2938 469.903 44.4578H452.578C451.331 44.5234 450.297 44.9992 449.477 45.8852C448.656 46.7711 448.049 47.7883 447.656 48.9367C447.295 50.0523 447.114 51.2008 447.114 52.382C447.114 53.5633 447.295 54.7281 447.656 55.8766C448.049 56.9922 448.656 57.993 449.477 58.8789C450.297 59.7648 451.331 60.2406 452.578 60.3063H469.903C470.821 60.3391 471.576 60.6836 472.167 61.3398C472.79 61.9961 473.102 62.7836 473.102 63.7023C473.069 64.5883 472.741 65.343 472.117 65.9664C471.527 66.557 470.788 66.8688 469.903 66.9016H451.839H450.904C448.607 66.7703 446.704 65.9008 445.195 64.293C443.718 62.6523 442.652 60.7984 441.995 58.7313C441.372 56.6641 441.06 54.5477 441.06 52.382C441.06 50.2164 441.388 48.1 442.045 46.0328C442.701 43.9656 443.767 42.1281 445.244 40.5203C446.72 38.8797 448.607 37.9938 450.904 37.8625ZM473.003 52.1852C473.003 53.1039 472.675 53.875 472.019 54.4984C471.395 55.1547 470.624 55.4828 469.706 55.4828H454.842C453.923 55.4828 453.135 55.1711 452.479 54.5477C451.856 53.8914 451.544 53.1039 451.544 52.1852C451.544 51.2664 451.856 50.4789 452.479 49.8227C453.135 49.1992 453.923 48.8875 454.842 48.8875H469.706C470.624 48.8875 471.395 49.2156 472.019 49.8719C472.675 50.4953 473.003 51.2664 473.003 52.1852ZM510.372 41.1602C510.372 42.0789 510.044 42.85 509.388 43.4734C508.764 44.1297 507.993 44.4578 507.075 44.4578H487.387C486.764 44.4906 486.239 44.6383 485.812 44.9008C485.418 45.1305 485.123 45.4094 484.926 45.7375C484.729 46.0328 484.631 46.3445 484.631 46.6727C484.631 47.0008 484.729 47.3289 484.926 47.657C485.123 47.9523 485.418 48.2313 485.812 48.4938C486.239 48.7234 486.764 48.8547 487.387 48.8875H501.365C503.662 48.9531 505.549 49.4945 507.025 50.5117C508.535 51.4961 509.601 52.6445 510.225 53.957C510.881 55.2367 511.209 56.5492 511.209 57.8945C511.209 59.207 510.881 60.5195 510.225 61.832C509.568 63.1117 508.502 64.2602 507.025 65.2773C505.549 66.2617 503.662 66.7539 501.365 66.7539H501.07C500.873 66.7867 500.676 66.8031 500.479 66.8031H481.875C480.956 66.8031 480.168 66.4914 479.512 65.868C478.889 65.2117 478.577 64.4242 478.577 63.5055C478.577 62.5867 478.905 61.8156 479.561 61.1922C480.185 60.5359 480.956 60.2078 481.875 60.2078H501.66C502.284 60.2406 502.792 60.1258 503.186 59.8633C503.613 59.6008 503.925 59.3055 504.121 58.9773C504.318 58.6164 504.417 58.2555 504.417 57.8945C504.417 57.6648 504.318 57.3531 504.121 56.9594C503.925 56.5328 503.613 56.1883 503.186 55.9258C502.792 55.6633 502.284 55.5156 501.66 55.4828H487.682C485.385 55.4172 483.482 54.8922 481.973 53.9078C480.496 52.9234 479.43 51.8078 478.774 50.5609C478.15 49.2813 477.839 47.9852 477.839 46.6727C477.839 45.393 478.167 44.1297 478.823 42.8828C479.479 41.6031 480.546 40.4711 482.022 39.4867C483.499 38.5023 485.385 37.9773 487.682 37.9117H487.978C488.175 37.8789 488.371 37.8625 488.568 37.8625H507.075C507.993 37.8625 508.764 38.1906 509.388 38.8469C510.044 39.4703 510.372 40.2414 510.372 41.1602Z" fill="#07596E"/>
</g>
<path d="M138.795 44.1895C137.534 44.2559 136.471 44.7373 135.608 45.6338C134.778 46.5303 134.18 47.5596 133.815 48.7217C133.45 49.8506 133.267 51.0127 133.267 52.208C133.267 53.4033 133.433 54.582 133.765 55.7441C134.13 56.9062 134.745 57.9355 135.608 58.832C136.471 59.6953 137.534 60.1602 138.795 60.2266H155.231C157.323 60.4258 158.468 61.5713 158.667 63.6631C158.634 64.5928 158.286 65.373 157.621 66.0039C156.957 66.6016 156.161 66.9004 155.231 66.9004H139.343H137.052C134.728 66.7676 132.819 65.8877 131.325 64.2607C129.83 62.6006 128.751 60.7246 128.087 58.6328C127.456 56.541 127.141 54.3994 127.141 52.208C127.141 50.5811 127.324 48.9707 127.689 47.377C128.054 45.7832 128.619 44.2725 129.382 42.8447C130.179 41.3838 131.225 40.1387 132.52 39.1094C133.848 38.0801 135.359 37.5488 137.052 37.5156H137.998H155.231C157.323 37.7148 158.468 38.8604 158.667 40.9521C158.667 41.8818 158.319 42.6621 157.621 43.293C156.957 43.8906 156.161 44.1895 155.231 44.1895H138.795ZM167.096 36.7188C168.026 36.7188 168.823 37.0342 169.487 37.665C170.151 38.2627 170.5 39.0264 170.533 39.9561V40.9023C170.5 42.2637 170.583 43.5254 170.782 44.6875C171.014 45.8164 171.546 46.8291 172.376 47.7256C173.206 48.6221 174.252 49.1035 175.513 49.1699H189.508V40.0557C189.508 39.126 189.84 38.3623 190.505 37.7646C191.202 37.1338 192.015 36.8184 192.945 36.8184C194.937 36.9844 196.033 38.0635 196.232 40.0557V51.6104C196.232 54.2666 195.867 56.7734 195.136 59.1309C194.472 61.2227 193.377 62.999 191.849 64.46C190.355 65.8877 188.446 66.668 186.122 66.8008H168.192C167.296 66.7676 166.532 66.4521 165.901 65.8545C165.303 65.2236 164.988 64.46 164.955 63.5635C164.955 62.6338 165.254 61.8369 165.851 61.1729C166.482 60.5088 167.262 60.1602 168.192 60.127H184.428C185.69 60.0605 186.736 59.5791 187.566 58.6826C188.33 57.8525 188.844 56.9062 189.11 55.8438H173.82C171.496 55.7109 169.57 54.9307 168.043 53.5029C166.548 52.042 165.469 50.2656 164.805 48.1738C164.174 46.082 163.842 43.8574 163.809 41.5V39.9561C163.842 39.0596 164.174 38.3125 164.805 37.7148C165.436 37.084 166.2 36.752 167.096 36.7188ZM236.486 53.752C237.117 55.0801 237.432 56.4248 237.432 57.7861C237.432 59.1143 237.1 60.4424 236.436 61.7705C235.772 63.0654 234.693 64.2275 233.199 65.2568C231.705 66.2529 229.796 66.751 227.472 66.751H227.173C226.974 66.7842 226.774 66.8008 226.575 66.8008H206.554C205.657 66.7676 204.893 66.4521 204.263 65.8545C203.665 65.2236 203.349 64.46 203.316 63.5635V40.7529C203.349 39.8564 203.665 39.1094 204.263 38.5117C204.893 37.8809 205.657 37.5488 206.554 37.5156H223.686C223.886 37.5156 224.085 37.5322 224.284 37.5654H224.583C226.907 37.6318 228.816 38.1631 230.31 39.1592C231.805 40.1553 232.884 41.3008 233.548 42.5957C234.212 43.8574 234.544 45.1357 234.544 46.4307C234.544 47.7588 234.228 49.0537 233.598 50.3154C233.564 50.3818 233.531 50.4316 233.498 50.4648C234.859 51.4277 235.855 52.5234 236.486 53.752ZM227.77 60.127C228.401 60.1602 228.916 60.0439 229.314 59.7783C229.746 59.5127 230.061 59.2139 230.261 58.8818C230.46 58.5166 230.559 58.1514 230.559 57.7861C230.559 57.5537 230.46 57.2383 230.261 56.8398C230.061 56.4082 229.746 56.0596 229.314 55.7939C228.916 55.5283 228.401 55.3789 227.77 55.3457H224.583H210.04V58.7822C210.04 59.6787 210.505 60.127 211.434 60.127H211.833H227.77ZM226.475 48.2236C226.874 47.9912 227.173 47.7256 227.372 47.4268C227.571 47.0947 227.671 46.7627 227.671 46.4307C227.671 46.0986 227.571 45.7832 227.372 45.4844C227.173 45.1523 226.857 44.8701 226.426 44.6377C226.027 44.3721 225.513 44.2227 224.882 44.1895H211.434C210.505 44.1895 210.04 44.6377 210.04 45.5342V48.6719H224.882C225.513 48.6387 226.044 48.4893 226.475 48.2236ZM252.336 37.5156H254.627H271.561C272.49 37.5488 273.254 37.8975 273.852 38.5615C274.483 39.2256 274.798 40.0225 274.798 40.9521C274.632 42.9443 273.553 44.0234 271.561 44.1895H254.029C252.768 44.2559 251.722 44.7373 250.892 45.6338C250.062 46.5303 249.447 47.5596 249.049 48.7217C248.684 49.8506 248.501 51.0127 248.501 52.208C248.501 53.4033 248.684 54.582 249.049 55.7441C249.447 56.873 250.062 57.8857 250.892 58.7822C251.722 59.6787 252.768 60.1602 254.029 60.2266H271.561C272.49 60.2598 273.254 60.6084 273.852 61.2725C274.483 61.9365 274.798 62.7334 274.798 63.6631C274.765 64.5596 274.433 65.3232 273.802 65.9541C273.204 66.5518 272.457 66.8672 271.561 66.9004H253.282H252.336C250.012 66.7676 248.086 65.8877 246.559 64.2607C245.065 62.6006 243.985 60.7246 243.321 58.6328C242.691 56.541 242.375 54.3994 242.375 52.208C242.375 50.0166 242.707 47.875 243.371 45.7832C244.035 43.6914 245.114 41.832 246.609 40.2051C248.103 38.5449 250.012 37.6484 252.336 37.5156ZM274.698 52.0088C274.698 52.9385 274.366 53.7188 273.702 54.3496C273.071 55.0137 272.291 55.3457 271.361 55.3457H256.32C255.391 55.3457 254.594 55.0303 253.93 54.3994C253.299 53.7354 252.984 52.9385 252.984 52.0088C252.984 51.0791 253.299 50.2822 253.93 49.6182C254.594 48.9873 255.391 48.6719 256.32 48.6719H271.361C272.291 48.6719 273.071 49.0039 273.702 49.668C274.366 50.2988 274.698 51.0791 274.698 52.0088ZM287.012 64.3604C286.813 66.3525 285.717 67.4316 283.725 67.5977C282.795 67.5977 281.982 67.2988 281.285 66.7012C280.62 66.0703 280.288 65.29 280.288 64.3604V40.7529C280.322 39.8232 280.67 39.0596 281.334 38.4619C281.998 37.8311 282.795 37.5156 283.725 37.5156H286.165H292.291H304.593C304.792 37.5156 304.992 37.5322 305.191 37.5654H305.49C307.814 37.6318 309.723 38.1631 311.217 39.1592C312.711 40.1553 313.79 41.3008 314.454 42.5957C315.118 43.8574 315.451 45.1357 315.451 46.4307C315.451 47.7588 315.118 49.0703 314.454 50.3652C313.824 51.627 312.744 52.7559 311.217 53.752C309.723 54.748 307.814 55.2793 305.49 55.3457H296.724C296.99 57.0059 297.537 58.2344 298.368 59.0312C299.164 59.8281 300.177 60.2266 301.406 60.2266H312.163C313.093 60.2598 313.857 60.6084 314.454 61.2725C315.085 61.9365 315.401 62.7334 315.401 63.6631C315.368 64.5596 315.035 65.3232 314.405 65.9541C313.807 66.5518 313.06 66.8672 312.163 66.9004H300.509C298.052 66.9336 295.827 65.9707 293.835 64.0117C291.843 62.0527 290.631 59.7285 290.2 57.0391C289.602 54.0508 289.303 52.374 289.303 52.0088C289.303 51.0791 289.618 50.2988 290.249 49.668C290.913 49.0039 291.71 48.6719 292.64 48.6719H305.788C306.419 48.6387 306.934 48.5059 307.332 48.2734C307.764 48.0078 308.079 47.7256 308.279 47.4268C308.478 47.0947 308.577 46.7627 308.577 46.4307C308.577 46.0986 308.478 45.7832 308.279 45.4844C308.079 45.1523 307.764 44.8701 307.332 44.6377C306.934 44.3721 306.419 44.2227 305.788 44.1895H292.291H288.307C287.444 44.2227 287.012 44.6543 287.012 45.4844V64.3604ZM337.227 36.1709C338.954 36.1709 340.647 36.3701 342.307 36.7686C344.001 37.167 345.611 37.7646 347.138 38.5615C348.666 39.3252 350.01 40.3545 351.172 41.6494C352.368 42.9443 353.015 44.4883 353.115 46.2812V48.373V64.2607C352.916 66.2529 351.82 67.332 349.828 67.498C348.898 67.498 348.085 67.1992 347.387 66.6016C346.723 65.9707 346.391 65.1904 346.391 64.2607V47.8252C346.325 46.7959 345.926 45.9492 345.196 45.2852C344.499 44.5879 343.702 44.04 342.805 43.6416C341.942 43.2432 341.029 42.9443 340.066 42.7451C339.136 42.5459 338.19 42.4463 337.227 42.4463C336.264 42.4463 335.301 42.5459 334.338 42.7451C333.409 42.9443 332.496 43.2432 331.599 43.6416C330.736 44.04 329.939 44.5879 329.209 45.2852C328.511 45.9492 328.129 46.7959 328.063 47.8252V64.2607C327.897 66.2529 326.818 67.332 324.826 67.498C323.896 67.498 323.083 67.1992 322.385 66.6016C321.721 65.9707 321.389 65.1904 321.389 64.2607V48.373V46.2812C321.489 44.4883 322.12 42.9443 323.282 41.6494C324.444 40.3545 325.789 39.3252 327.316 38.5615C328.843 37.7646 330.437 37.167 332.097 36.7686C333.791 36.3701 335.501 36.1709 337.227 36.1709ZM386.645 37.5156C388.339 37.5488 389.849 38.0801 391.178 39.1094C392.506 40.1387 393.568 41.3672 394.365 42.7949C395.195 44.2227 395.809 45.7334 396.208 47.3271C396.606 48.9209 396.806 50.5479 396.806 52.208C396.806 54.3994 396.457 56.5576 395.76 58.6826C395.096 60.7744 393.983 62.6338 392.423 64.2607C390.895 65.8877 388.97 66.7676 386.645 66.9004H369.264C366.939 66.8008 364.997 65.9375 363.436 64.3105C361.876 62.6836 360.764 60.8076 360.099 58.6826C359.469 56.5576 359.153 54.3994 359.153 52.208C359.153 50.0166 359.485 47.875 360.149 45.7832C360.813 43.6582 361.909 41.7822 363.436 40.1553C364.997 38.4951 366.939 37.6152 369.264 37.5156H370.21H385.699H386.645ZM384.952 60.2266C386.214 60.1602 387.26 59.6953 388.09 58.832C388.953 57.9355 389.567 56.9062 389.932 55.7441C390.298 54.582 390.48 53.4033 390.48 52.208C390.48 51.0127 390.281 49.8506 389.883 48.7217C389.517 47.5596 388.92 46.5303 388.09 45.6338C387.26 44.7373 386.214 44.2559 384.952 44.1895H370.807C369.546 44.2559 368.5 44.7373 367.67 45.6338C366.84 46.5303 366.225 47.5596 365.827 48.7217C365.462 49.8506 365.279 51.0127 365.279 52.208C365.279 53.4033 365.462 54.582 365.827 55.7441C366.192 56.9062 366.79 57.9355 367.62 58.832C368.483 59.6953 369.546 60.1602 370.807 60.2266H384.952ZM401.798 40.8525C401.798 39.9229 402.113 39.1426 402.744 38.5117C403.408 37.8477 404.205 37.5156 405.135 37.5156H434.121C435.051 37.5156 435.848 37.8311 436.512 38.4619C437.143 39.126 437.458 39.9229 437.458 40.8525C437.458 41.7822 437.126 42.5791 436.462 43.2432C435.831 43.874 435.051 44.1895 434.121 44.1895H423.015V64.3604C422.816 66.3525 421.72 67.4316 419.728 67.5977C418.798 67.5977 417.984 67.2988 417.287 66.7012C416.623 66.0703 416.291 65.29 416.291 64.3604V44.1895H405.135C404.205 44.1895 403.425 43.8574 402.794 43.1934C402.13 42.5625 401.798 41.7822 401.798 40.8525ZM452.461 37.5156H454.752H471.686C472.616 37.5488 473.379 37.8975 473.977 38.5615C474.608 39.2256 474.923 40.0225 474.923 40.9521C474.757 42.9443 473.678 44.0234 471.686 44.1895H454.155C452.893 44.2559 451.847 44.7373 451.017 45.6338C450.187 46.5303 449.573 47.5596 449.174 48.7217C448.809 49.8506 448.626 51.0127 448.626 52.208C448.626 53.4033 448.809 54.582 449.174 55.7441C449.573 56.873 450.187 57.8857 451.017 58.7822C451.847 59.6787 452.893 60.1602 454.155 60.2266H471.686C472.616 60.2598 473.379 60.6084 473.977 61.2725C474.608 61.9365 474.923 62.7334 474.923 63.6631C474.89 64.5596 474.558 65.3232 473.927 65.9541C473.329 66.5518 472.582 66.8672 471.686 66.9004H453.408H452.461C450.137 66.7676 448.211 65.8877 446.684 64.2607C445.19 62.6006 444.111 60.7246 443.447 58.6328C442.816 56.541 442.5 54.3994 442.5 52.208C442.5 50.0166 442.832 47.875 443.496 45.7832C444.16 43.6914 445.24 41.832 446.734 40.2051C448.228 38.5449 450.137 37.6484 452.461 37.5156ZM474.824 52.0088C474.824 52.9385 474.491 53.7188 473.827 54.3496C473.197 55.0137 472.416 55.3457 471.487 55.3457H456.446C455.516 55.3457 454.719 55.0303 454.055 54.3994C453.424 53.7354 453.109 52.9385 453.109 52.0088C453.109 51.0791 453.424 50.2822 454.055 49.6182C454.719 48.9873 455.516 48.6719 456.446 48.6719H471.487C472.416 48.6719 473.197 49.0039 473.827 49.668C474.491 50.2988 474.824 51.0791 474.824 52.0088ZM512.637 40.8525C512.637 41.7822 512.305 42.5625 511.641 43.1934C511.01 43.8574 510.23 44.1895 509.3 44.1895H489.378C488.748 44.2227 488.216 44.3721 487.785 44.6377C487.386 44.8701 487.087 45.1523 486.888 45.4844C486.689 45.7832 486.589 46.0986 486.589 46.4307C486.589 46.7627 486.689 47.0947 486.888 47.4268C487.087 47.7256 487.386 48.0078 487.785 48.2734C488.216 48.5059 488.748 48.6387 489.378 48.6719H503.523C505.847 48.7383 507.756 49.2861 509.251 50.3154C510.778 51.3115 511.857 52.4736 512.488 53.8018C513.152 55.0967 513.484 56.4248 513.484 57.7861C513.484 59.1143 513.152 60.4424 512.488 61.7705C511.824 63.0654 510.745 64.2275 509.251 65.2568C507.756 66.2529 505.847 66.751 503.523 66.751H503.224C503.025 66.7842 502.826 66.8008 502.626 66.8008H483.8C482.871 66.8008 482.074 66.4854 481.41 65.8545C480.779 65.1904 480.463 64.3936 480.463 63.4639C480.463 62.5342 480.795 61.7539 481.46 61.123C482.09 60.459 482.871 60.127 483.8 60.127H503.822C504.453 60.1602 504.967 60.0439 505.366 59.7783C505.797 59.5127 506.113 59.2139 506.312 58.8818C506.511 58.5166 506.611 58.1514 506.611 57.7861C506.611 57.5537 506.511 57.2383 506.312 56.8398C506.113 56.4082 505.797 56.0596 505.366 55.7939C504.967 55.5283 504.453 55.3789 503.822 55.3457H489.677C487.353 55.2793 485.427 54.748 483.9 53.752C482.406 52.7559 481.327 51.627 480.663 50.3652C480.032 49.0703 479.716 47.7588 479.716 46.4307C479.716 45.1357 480.048 43.8574 480.712 42.5957C481.376 41.3008 482.456 40.1553 483.95 39.1592C485.444 38.1631 487.353 37.6318 489.677 37.5654H489.976C490.175 37.5322 490.375 37.5156 490.574 37.5156H509.3C510.23 37.5156 511.01 37.8477 511.641 38.5117C512.305 39.1426 512.637 39.9229 512.637 40.8525Z" fill="#07596E"/>
<g opacity="0.67" filter="url(#filter1_f_61_248)">
<path d="M75.6218 20.96C75.0861 22.2534 74.5503 23.5469 74.0146 24.8403C77.0685 26.0674 80.1225 27.2945 83.1764 28.5216C87.7574 30.3623 92.3383 32.2029 96.9192 34.0436L95.9248 33.0491C99.1542 40.617 102.384 48.185 105.613 55.7529V54.5474C102.545 62.1823 99.4776 69.8172 96.4098 77.4521L97.1201 76.7417C89.5522 79.9712 81.9843 83.2006 74.4164 86.4301H75.22C67.5851 83.3623 59.9503 80.2945 52.3154 77.2268L52.7416 77.653C49.5121 70.0851 46.2827 62.5172 43.0532 54.9492V55.3511C46.121 47.7162 49.1888 40.0813 52.2565 32.4464L52.1145 32.5885C56.6552 30.6508 61.196 28.7131 65.7367 26.7755C68.7639 25.4837 71.791 24.1919 74.8182 22.9001C71.7643 24.1273 68.7103 25.3544 65.6563 26.5815C61.0754 28.4221 56.4945 30.2628 51.9136 32.1034L51.811 32.1472L51.7715 32.2455C48.5421 39.8134 45.3126 47.3813 42.0832 54.9492L42 55.1562L42.0832 55.3511C45.1509 62.9859 48.2187 70.6208 51.2865 78.2557L51.4178 78.5634L51.7127 78.6819C59.2806 81.9113 66.8485 85.1408 74.4164 88.3702L74.8303 88.5365L75.22 88.3702C82.8549 85.3025 90.4898 82.2347 98.1247 79.1669L98.6375 78.9481L98.835 78.4566C102.064 70.8887 105.294 63.3208 108.523 55.7529L108.773 55.132L108.523 54.5474C105.456 46.9125 102.388 39.2777 99.32 31.6428L99.0136 30.9248L98.3256 30.6483C93.7848 28.7107 89.2441 26.773 84.7033 24.8353C81.6762 23.5436 78.649 22.2518 75.6218 20.96ZM74.0146 24.8403L75.6218 20.96L77.5496 21.7346L74.8182 22.9001L74.0146 24.8403Z" fill="#07596E"/>
</g>
<path opacity="0.67" d="M75.6218 20.96C75.0861 22.2534 74.5503 23.5469 74.0146 24.8403C77.0685 26.0674 80.1225 27.2945 83.1764 28.5216C87.7574 30.3623 92.3383 32.2029 96.9192 34.0436L95.9248 33.0491C99.1542 40.617 102.384 48.185 105.613 55.7529V54.5474C102.545 62.1823 99.4776 69.8172 96.4098 77.4521L97.1201 76.7417C89.5522 79.9712 81.9843 83.2006 74.4164 86.4301H75.22C67.5851 83.3623 59.9503 80.2945 52.3154 77.2268L52.7416 77.653C49.5121 70.0851 46.2827 62.5172 43.0532 54.9492V55.3511C46.121 47.7162 49.1888 40.0813 52.2565 32.4464L52.1145 32.5885C56.6552 30.6508 61.196 28.7131 65.7367 26.7755C68.7639 25.4837 71.791 24.1919 74.8182 22.9001C71.7643 24.1273 68.7103 25.3544 65.6563 26.5815C61.0754 28.4221 56.4945 30.2628 51.9136 32.1034L51.811 32.1472L51.7715 32.2455C48.5421 39.8134 45.3126 47.3813 42.0832 54.9492L42 55.1562L42.0832 55.3511C45.1509 62.9859 48.2187 70.6208 51.2865 78.2557L51.4178 78.5634L51.7127 78.6819C59.2806 81.9113 66.8485 85.1408 74.4164 88.3702L74.8303 88.5365L75.22 88.3702C82.8549 85.3025 90.4898 82.2347 98.1247 79.1669L98.6375 78.9481L98.835 78.4566C102.064 70.8887 105.294 63.3208 108.523 55.7529L108.773 55.132L108.523 54.5474C105.456 46.9125 102.388 39.2777 99.32 31.6428L99.0136 30.9248L98.3256 30.6483C93.7848 28.7107 89.2441 26.773 84.7033 24.8353C81.6762 23.5436 78.649 22.2518 75.6218 20.96ZM74.0146 24.8403L75.6218 20.96L77.5496 21.7346L74.8182 22.9001L74.0146 24.8403Z" fill="#07596E"/>
<g filter="url(#filter2_f_61_248)">
<path d="M76.1084 39.1737C77.8146 39.1737 79.488 39.3706 81.1287 39.7644C82.8021 40.1581 84.3935 40.7487 85.9029 41.5362C87.4123 42.2909 88.7412 43.3081 89.8896 44.5878C91.0709 45.8675 91.7107 47.3933 91.8091 49.1651V51.2323V66.9331C91.6123 68.9019 90.5294 69.9683 88.5607 70.1323C87.6419 70.1323 86.838 69.837 86.149 69.2464C85.4927 68.6229 85.1646 67.8519 85.1646 66.9331V50.6909C85.099 49.6737 84.7052 48.837 83.9834 48.1808C83.2943 47.4917 82.5068 46.9503 81.6209 46.5565C80.7677 46.1628 79.8654 45.8675 78.9138 45.6706C77.9951 45.4737 77.0599 45.3753 76.1084 45.3753C75.1568 45.3753 74.2052 45.4737 73.2537 45.6706C72.3349 45.8675 71.4326 46.1628 70.5466 46.5565C69.6935 46.9503 68.906 47.4917 68.1841 48.1808C67.4951 48.837 67.1177 49.6737 67.0521 50.6909V66.9331C66.888 68.9019 65.8216 69.9683 63.8529 70.1323C62.9341 70.1323 62.1302 69.837 61.4412 69.2464C60.7849 68.6229 60.4568 67.8519 60.4568 66.9331V51.2323V49.1651C60.5552 47.3933 61.1787 45.8675 62.3271 44.5878C63.4755 43.3081 64.8044 42.2909 66.3138 41.5362C67.8232 40.7487 69.3982 40.1581 71.0388 39.7644C72.7123 39.3706 74.4021 39.1737 76.1084 39.1737Z" fill="#07596E"/>
</g>
<path d="M76.1084 38.811C77.835 38.811 79.5284 39.0103 81.1885 39.4087C82.8819 39.8071 84.4922 40.4048 86.0196 41.2017C87.5469 41.9653 88.8916 42.9946 90.0538 44.2896C91.2491 45.5845 91.8965 47.1284 91.9961 48.9214V51.0132V66.9009C91.7969 68.8931 90.7012 69.9722 88.709 70.1382C87.7793 70.1382 86.9659 69.8394 86.2686 69.2417C85.6045 68.6108 85.2725 67.8306 85.2725 66.9009V50.4653C85.2061 49.436 84.8077 48.5894 84.0772 47.9253C83.3799 47.228 82.5831 46.6802 81.6866 46.2817C80.8233 45.8833 79.9102 45.5845 78.9473 45.3853C78.0176 45.186 77.0713 45.0864 76.1084 45.0864C75.1456 45.0864 74.1827 45.186 73.2198 45.3853C72.2901 45.5845 71.377 45.8833 70.4805 46.2817C69.6172 46.6802 68.8204 47.228 68.0899 47.9253C67.3926 48.5894 67.0108 49.436 66.9444 50.4653V66.9009C66.7784 68.8931 65.6993 69.9722 63.7071 70.1382C62.7774 70.1382 61.9639 69.8394 61.2666 69.2417C60.6026 68.6108 60.2706 67.8306 60.2706 66.9009V51.0132V48.9214C60.3702 47.1284 61.001 45.5845 62.1631 44.2896C63.3252 42.9946 64.67 41.9653 66.1973 41.2017C67.7247 40.4048 69.3184 39.8071 70.9786 39.4087C72.6719 39.0103 74.3819 38.811 76.1084 38.811Z" fill="#07596E"/>
<defs>
<filter id="filter0_f_61_248" x="87.4112" y="-5.46631" width="465.798" height="115.057" filterUnits="userSpaceOnUse" color-interpolation-filters="sRGB">
<feFlood flood-opacity="0" result="BackgroundImageFix"/>
<feBlend mode="normal" in="SourceGraphic" in2="BackgroundImageFix" result="shape"/>
<feGaussianBlur stdDeviation="21" result="effect1_foregroundBlur_61_248"/>
</filter>
<filter id="filter1_f_61_248" x="0" y="-21.04" width="150.773" height="151.577" filterUnits="userSpaceOnUse" color-interpolation-filters="sRGB">
<feFlood flood-opacity="0" result="BackgroundImageFix"/>
<feBlend mode="normal" in="SourceGraphic" in2="BackgroundImageFix" result="shape"/>
<feGaussianBlur stdDeviation="21" result="effect1_foregroundBlur_61_248"/>
</filter>
<filter id="filter2_f_61_248" x="18.4568" y="-2.82617" width="115.352" height="114.958" filterUnits="userSpaceOnUse" color-interpolation-filters="sRGB">
<feFlood flood-opacity="0" result="BackgroundImageFix"/>
<feBlend mode="normal" in="SourceGraphic" in2="BackgroundImageFix" result="shape"/>
<feGaussianBlur stdDeviation="21" result="effect1_foregroundBlur_61_248"/>
</filter>
</defs>
</svg>
