<svg width="188" height="71" viewBox="0 0 188 71" fill="none" xmlns="http://www.w3.org/2000/svg">
<path opacity="0.7" d="M5.64167 14.8736C6.16603 24.9989 5.60889 31.9103 5.52009 41.3033C5.44769 48.9777 5.42636 57.5598 5.42745 66.4C5.44464 65.566 4.70115 64.8192 3.86371 64.8358C18.3655 64.8299 33.4544 64.7685 46.2893 64.7769C62.2963 64.7875 78.5613 64.8249 94.4718 64.8549C95.2877 64.8564 95.7747 64.9139 96.1446 64.9146C99.6282 64.9214 105.47 64.8693 108.926 64.8769C116.195 64.8928 128.843 64.8838 135.501 64.9377C138.328 64.9605 141.228 64.97 142.327 65.1069C143.36 65.1139 143.924 64.9902 144.194 64.9835C144.197 64.9836 144.2 64.9837 144.203 64.9838C145.072 64.963 147.266 65.0497 147.75 65.0443C147.823 65.0434 147.377 64.9539 148.552 64.9809C148.656 64.9832 148.56 65.0441 149.549 65.045C149.806 65.0452 153.114 64.9518 154.06 64.9461C157.206 64.9275 164.719 65.0009 168.48 64.9996C169.055 64.9996 169.387 64.964 169.994 64.9633C170.308 64.963 170.778 65.0016 170.875 65.0014C170.909 65.0013 170.953 65 171.004 64.998C170.754 64.9848 170.352 65.0663 170.054 65.3228C170.484 64.914 170.928 64.5369 170.759 64.978C172.192 63.685 171.689 63.9751 171.673 63.8905C173.237 62.4966 174.103 61.951 174.398 61.4594C177.237 58.9667 180.075 56.4739 182.913 53.9812C182.607 54.2496 182.426 54.6527 182.428 55.0593C182.441 48.8158 182.453 42.5722 182.466 36.3286C182.438 36.3255 182.409 36.3224 182.381 36.3193C182.494 33.2824 182.303 32.2406 182.467 30.5068C182.431 29.4377 182.395 28.3686 182.359 27.2996C182.39 19.5265 182.402 11.7586 182.403 4C182.388 4.78059 183.083 5.47608 183.864 5.46036C164.724 5.46141 145.643 5.52558 126.681 5.52528C125.534 5.52528 125.248 5.46528 123.357 5.46486C121.27 5.46444 118.333 5.53417 115.582 5.53334C113.169 5.53271 109.608 5.47594 106.917 5.46706C106.309 5.46516 105.87 5.50316 105.802 5.50294C105.399 5.50146 105.379 5.4413 104.989 5.43959C104.522 5.43769 103.959 5.48226 103.42 5.47951C101.405 5.46958 99.2101 5.48494 98.955 5.4839C97.7264 5.47821 97.4552 5.41937 97.3541 5.41872C95.9874 5.41154 96.4999 5.46464 96.1595 5.46156C94.3934 5.44529 93.1451 5.31272 90.7273 5.43996C90.7932 5.39077 90.859 5.34157 90.9249 5.29238C89.0746 5.2647 90.2967 5.39541 89.9186 5.41909C89.7643 5.42786 85.7815 5.41189 85.4743 5.40956C84.4044 5.40111 84.3758 5.33574 84.2833 5.33486C84.058 5.33275 81.3665 5.40694 79.9867 5.34987C78.3541 5.28225 80.2758 5.14927 79.8704 5.12429C79.802 5.12007 78.0928 5.1337 77.8633 5.09207C77.61 5.04728 79.088 5.04823 79.0653 5.02945C79.0492 5.01656 76.5951 4.92423 77.0656 4.8621C77.4438 4.79977 80.7733 4.87968 81.4786 4.85038C81.595 4.84553 81.3755 4.76861 81.4786 4.76578C81.8928 4.75543 89.5639 4.75312 89.9149 4.76578C89.5154 4.80082 89.116 4.83585 88.7166 4.87088C89.2477 4.87442 89.7789 4.87796 90.31 4.8815C89.5548 4.90958 88.7997 4.93765 88.0445 4.96573C89.1667 5.25419 92.5471 4.96177 92.6864 4.81779C92.7467 4.75121 90.6804 4.57991 92.6033 4.48015C92.3109 4.46306 92.0186 4.44597 91.7262 4.42888C91.1237 4.45696 90.5211 4.48503 89.9186 4.51311C90.3199 4.53081 90.7212 4.54851 91.1225 4.56621C90.9747 4.58623 90.827 4.60624 90.6793 4.62626C89.553 4.65837 88.4267 4.69047 87.3004 4.72257C86.7213 4.70778 86.8416 4.64868 86.4436 4.63725C81.4796 4.49332 84.7175 4.67647 81.4675 4.65007C81.0034 4.61833 80.5394 4.58659 80.0753 4.55485C80.239 4.68611 78.7995 4.6037 77.0583 4.66032C77.2663 4.61784 77.4743 4.57536 77.6823 4.53288C75.16 4.5555 70.0468 4.34133 71.4267 4.57573C70.8487 4.55571 70.2708 4.53569 69.6929 4.51567C69.2048 4.554 68.7167 4.59233 68.2287 4.63066C67.5541 4.62626 66.8795 4.62187 66.205 4.61747C66.2019 4.59672 66.1988 4.57597 66.1957 4.55522C66.7337 4.5551 67.2716 4.55498 67.8095 4.55485C67.4058 4.49162 67.002 4.42839 66.5983 4.36516C66.2013 4.37566 65.8043 4.38616 65.4073 4.39666C67.0725 4.45646 64.8771 4.55414 64.3456 4.63762C62.9419 4.66847 62.0448 4.5601 61.5741 4.55522C61.3529 4.5529 58.7465 4.74407 59.7683 4.53398C58.4272 4.55949 57.0861 4.585 55.745 4.61052C55.2206 4.5944 54.6962 4.57829 54.1718 4.56218C55.3098 4.46432 52.0117 4.34642 54.4414 4.30584C56.2557 4.2754 56.7028 4.3669 57.5637 4.36626C58.3398 4.36581 58.7501 4.30419 59.5948 4.30144C65.2751 4.28411 69.9021 4.29542 75.2968 4.32268C76.3626 4.32816 77.332 4.29795 78.0479 4.30218C78.8561 4.30705 77.8435 4.38434 78.8733 4.36553C79.9547 4.34564 80.1886 4.28257 80.4741 4.2813C80.6518 4.28059 81.215 4.33733 81.7334 4.33733C83.8635 4.33732 86.9847 4.28245 87.2874 4.28277C87.6293 4.2834 93.6535 4.3346 93.9419 4.34392C94.0948 4.349 93.7776 4.55854 95.1052 4.33513C95.5194 4.33098 95.9336 4.32683 96.3478 4.32268C96.2807 4.36455 96.2137 4.40642 96.1466 4.44829C98.6005 4.28957 97.7565 4.37836 100.122 4.36589C105.786 4.33589 114.142 4.37117 120.337 4.35637C121.72 4.35299 122.247 4.30285 123.884 4.29925C125.404 4.29608 129.374 4.44567 128.511 4.23846C131.894 4.41788 132.438 4.10848 134.131 4.30144C134.336 4.27337 134.541 4.24529 134.746 4.21722C136.584 4.33769 137.152 4.23181 139.159 4.21722C140.024 4.21088 139.027 4.33901 140.773 4.19634C141.106 4.20696 141.44 4.21758 141.774 4.2282C141.696 4.25921 141.618 4.29021 141.541 4.32122C143.48 4.29586 143.605 4.31201 143.384 4.19598C144.32 4.2171 145.256 4.23821 146.192 4.25933C146.308 4.22125 146.425 4.18316 146.541 4.14508C146.093 4.07243 124.837 4.18198 121.877 4.21685C118.405 4.13065 111.431 4.23842 108.627 4.21795C107.504 4.20971 107.008 4.12357 105.375 4.11322C103.742 4.10287 101.687 4.1811 100.818 4.18389C97.9216 4.19362 84.1989 4.17643 93.532 4.06927C93.2637 4.02728 92.9953 3.98529 92.727 3.9433C89.0182 4.08659 90.3612 3.99838 87.2837 3.98358C85.9883 3.97727 82.9074 4.07104 83.0794 3.88031C85.4851 3.84481 88.0409 3.90577 90.1328 3.90302C90.3401 3.90272 92.8169 3.81564 94.0915 3.8393C95.2414 3.8609 94.4497 4.04271 96.9516 3.83857C98.8098 4.03798 99.8841 3.85707 100.375 3.83783C101.223 3.80449 101.316 3.90291 102.164 3.91437C103.088 3.92703 103.724 3.8617 103.85 3.86127C105.117 3.85979 111.714 3.85089 112.017 3.89057C111.751 3.90802 111.486 3.92548 111.221 3.94293C112.934 3.97103 112.576 3.87039 113.027 3.85834C113.362 3.85871 113.697 3.85907 114.033 3.85944C113.9 3.88031 113.767 3.90119 113.634 3.92206C115.658 3.91762 114.109 3.84509 116.982 3.84699C118.805 3.84827 120.689 3.92795 120.867 3.92206C120.919 3.92037 120.345 3.86665 121.088 3.85944C122.319 3.84761 124.447 3.84897 124.685 3.92206C125.288 3.91172 125.236 3.8402 125.316 3.83857C125.666 3.83159 131.688 3.80728 132.767 3.80305C135.756 3.79142 139.084 3.80667 142.322 3.79462C142.655 3.79342 142.442 3.83931 142.776 3.83783C143.312 3.83548 146.062 3.76346 146.473 3.75837C147.498 3.74591 150.195 3.77448 150.62 3.75361C150.68 3.75065 149.792 3.68862 150.83 3.66938C151.983 3.6481 151.362 3.73154 151.425 3.73237C153.77 3.7609 155.251 3.70293 156.851 3.69172C157.37 3.68813 158.328 3.75092 159.06 3.73237C159.144 3.73026 158.977 3.67224 159.06 3.66938C160.166 3.63895 161.201 3.74663 161.68 3.75361C162.851 3.77066 162.213 3.69119 162.274 3.69062C163.055 3.68809 164.105 3.71676 165.291 3.71296C170.582 3.69605 174.899 3.6912 180.523 3.69648C181.229 3.69712 182.067 3.75317 182.175 3.75324C182.509 3.75282 182.414 3.68695 183.379 3.68843C183.541 3.6887 183.703 3.68892 183.864 3.68912C184.031 3.68526 184.179 3.83773 184.174 4C184.174 5.2911 184.175 6.5592 184.174 7.88257C184.174 8.28832 184.113 8.46134 184.111 8.7707C184.107 9.80833 184.267 13.3471 184.068 13.4052C184.244 15.4648 184.093 16.8329 184.094 18.4903C184.098 22.4166 184.134 28.5645 184.111 32.4788C184.106 33.3029 184.055 33.6895 184.053 34.1479C184.048 34.9701 184.076 39.6704 184.068 39.9162C184.053 40.3989 183.828 40.1095 184.024 42.5916C184.038 44.0468 183.946 43.8749 183.941 44.1759C183.904 46.5212 184.109 48.8029 183.921 48.3765C183.972 51.1073 184.076 52.8771 183.9 53.9915C183.949 53.9831 183.987 54.4048 184.005 55.0593C184.012 55.0945 183.999 55.1416 183.964 55.1725C183.75 55.3602 183.521 55.5585 183.281 55.7615C183.539 55.4882 183.725 55.2829 183.896 55.0955C183.886 55.064 183.857 55.0503 183.837 55.0593C183.798 54.4305 183.781 53.5223 183.794 51.5874C183.795 51.5271 183.857 51.6422 183.857 51.5819C183.862 51.0346 183.83 49.8928 183.834 48.96C183.837 48.0269 183.879 48.545 183.879 48.1715C183.878 47.8296 183.818 47.841 183.818 47.3462C183.815 45.7412 183.799 44.3209 183.798 43.4078C183.797 42.8326 183.849 42.1887 183.849 41.7423C183.849 40.0163 183.808 36.3591 183.814 34.1627C183.815 33.7051 183.874 33.8972 183.879 32.8961C183.879 32.7791 183.818 32.3527 183.805 31.4762C183.793 30.5994 183.823 29.9196 183.817 29.3565C183.811 28.8859 183.757 29.0825 183.754 28.1175C183.751 27.3129 183.79 18.2004 183.799 17.7055C183.811 16.9937 183.888 16.6554 183.878 16.221C183.876 16.1445 183.803 16.0151 183.797 15.7502C183.744 13.0642 183.761 8.37449 183.782 4C183.786 4.04533 183.824 4.076 183.864 4.07358C181.708 4.0629 179.705 4.05333 178.154 4.05353C167.719 4.05458 158.092 4.09793 147.564 4.11505C147.376 4.12786 147.189 4.14068 147.001 4.1535C148.065 4.15399 149.129 4.15448 150.193 4.15496C150.2 4.18963 150.207 4.2243 150.214 4.25896C151.652 4.26445 151.462 4.18247 151.421 4.13299C151.954 4.15399 152.486 4.17498 153.018 4.19598C153.478 4.07517 157.028 4.15552 158.859 4.15533C160.049 4.15533 161.466 4.10927 162.093 4.11285C163.42 4.12024 163.385 4.19479 163.489 4.19598C163.666 4.19767 165.518 4.13192 166.854 4.13446C168.828 4.13808 169.042 4.25254 171.745 4.15533C175.208 4.21472 179.046 4.18483 182.779 4.1751C182.443 4.22504 183.012 4.2291 183.864 4.21964C183.757 4.21803 183.655 4.11096 183.667 4C183.675 4.55205 183.682 5.08527 183.681 5.48775C183.671 14.6919 183.626 26.0047 183.584 35.3297C183.579 36.528 183.516 37.4334 183.518 38.1011C183.519 38.4632 183.593 38.6212 183.583 39.1241C183.581 39.2124 183.513 39.2738 183.502 40.2098C183.476 42.539 183.591 48.341 183.459 49.8093C183.463 51.5593 183.468 53.3093 183.472 55.0593C183.473 54.9485 183.523 54.8396 183.606 54.7675C179.33 58.5587 175.053 62.3499 170.776 66.1411C170.832 66.0921 170.904 66.0624 170.978 66.0574C170.987 66.0532 170.995 66.0494 171.004 66.0458C170.829 66.0213 170.655 65.9968 170.48 65.9722C168.967 66.1157 162.986 66.0314 160.07 66.0381C154.937 66.0502 148.387 66.0948 143.889 66.0997C142.912 66.1007 142.111 66.06 141.186 66.0608C140.788 66.0613 140.293 66.114 139.879 66.1143C135.229 66.1183 128.932 66.064 124.245 66.0652C113.605 66.068 103.584 66.06 92.8026 66.0623C63.0357 66.0691 33.4094 66.1224 3.86371 66.1242C4.01197 66.1223 4.14138 66.2518 4.13945 66.4C4.13946 60.4212 4.14165 54.4457 4.14684 48.473C4.14726 47.9902 4.20794 48.0143 4.20836 47.6402C4.21132 45.4317 4.16131 40.4998 4.16405 38.0056C4.16617 36.0183 4.25894 32.864 4.16552 32.1801C4.02412 39.2403 4.03476 46.6994 3.99524 54.0492C3.99245 54.5717 3.93477 54.6366 3.93371 54.701C3.91367 55.8909 3.99311 55.1394 3.9967 56.865C3.9979 57.4417 3.81377 62.7684 3.99707 62.1347C3.96779 62.644 3.94436 64.3834 3.92832 66.4C3.92353 66.3652 3.89379 66.3435 3.86371 66.3461C6.48606 66.3614 9.16416 66.3645 10.0311 66.3523C10.5581 66.3449 10.185 66.2906 10.2896 66.2879C10.7438 66.2759 10.949 66.3508 11.355 66.3527C12.4371 66.3573 15.1896 66.2966 15.7126 66.297C16.9158 66.2977 20.5233 66.3586 22.1123 66.3443C23.5685 66.3312 23.2959 66.253 24.5551 66.2458C25.5475 66.2403 24.4665 66.3061 26.6822 66.326C27.7803 66.3357 31.6219 66.2886 32.5556 66.2886C33.4889 66.2886 34.5273 66.3354 35.8146 66.3318C37.6689 66.3268 41.7028 66.3007 43.5899 66.2857C43.7025 66.2848 43.977 66.224 44.2546 66.2253C44.8295 66.2278 44.6569 66.303 45.091 66.3106C45.5254 66.3182 53.0489 66.309 54.3268 66.3099C55.2076 66.3103 55.8158 66.2655 56.3025 66.2659C56.6845 66.2663 56.7253 66.3289 57.1149 66.3296C57.2356 66.3296 58.2623 66.2753 59.2882 66.2765C60.2574 66.2778 63.9377 66.3295 64.364 66.33C64.6416 66.3302 64.3373 66.2857 65.1579 66.2868C65.9058 66.2879 66.3971 66.3456 66.8234 66.3465C67.8126 66.3484 68.9184 66.2991 69.9679 66.2989C72.985 66.2982 72.8297 66.3698 73.0108 66.3721C73.5127 66.3786 73.7138 66.313 73.8786 66.3117C74.5743 66.3062 76.2792 66.2941 76.8994 66.2915C77.6717 66.2884 77.999 66.3507 78.8196 66.3509C79.4313 66.3508 80.6665 66.2901 82.062 66.2872C85.2077 66.2802 88.9488 66.2687 92.0382 66.271C92.9594 66.2717 93.1008 66.3285 93.3824 66.33C94.8623 66.3378 95.6908 66.2742 96.1132 66.2751C99.1264 66.2808 104.501 66.3805 107.297 66.389C108.436 66.3923 113.42 66.3463 116.232 66.3545C116.554 66.3554 116.252 66.4 116.61 66.393C117.467 66.3763 117.387 66.2855 117.822 66.2882C118.031 66.2899 118.509 66.341 119.12 66.3461C122.286 66.3725 124.463 66.3327 125.907 66.3355C139.778 66.3619 153.922 66.3857 166.876 66.3937C168.025 66.3944 169.394 66.3603 171.004 66.3728C170.998 66.3746 170.993 66.38 170.992 66.3862C171.133 66.266 171.276 66.1445 171.423 66.0216C171.492 65.9983 171.561 65.9751 171.63 65.9519C171.669 65.8806 171.707 65.8094 171.746 65.7381C173.589 64.0933 174.265 63.4492 176.18 61.8075C176.345 61.6661 176.927 61.324 177.13 60.9327C179.08 59.3672 177.974 60.1863 179.358 58.9515C180.742 57.717 182.117 56.5518 183.471 55.3686C184.248 54.7596 181.234 57.5942 181.031 57.7721C180.705 58.059 180.314 58.2978 179.998 58.5712C179.06 59.3809 178.204 60.2206 177.948 60.3511C176.798 61.4661 178.267 60.1199 178.162 60.3029C177.342 60.9886 176.522 61.6744 175.702 62.3601C175.446 62.8925 170.82 66.5727 171.244 66.4325C171.201 66.4644 171.159 66.4963 171.117 66.5282C171.074 66.5421 171.032 66.5351 171.004 66.517C170.828 66.5038 170.652 66.4907 170.476 66.4776C168.417 66.6971 167.206 66.5425 164.459 66.4772C164.657 66.5053 164.855 66.5334 165.053 66.5614C164.997 66.5732 162.573 66.618 163.439 66.4984C160.954 66.656 161.059 66.3939 158.831 66.5834C157.507 66.6077 158.303 66.4976 155.934 66.4995C154.53 66.5006 152.787 66.5582 151.218 66.5622C150.857 66.5629 150.699 66.4992 150.378 66.4992C150.056 66.4992 149.899 66.5617 149.51 66.5633C148.705 66.5666 147.662 66.5228 147.159 66.527C146.709 66.5306 146.065 66.5857 144.979 66.5944C141.186 66.625 142.332 66.5463 141.733 66.5197C141.089 66.4914 140.627 66.5951 139.344 66.583C139.215 66.5818 139.548 66.5172 139.129 66.5197C138.792 66.5217 138.622 66.5919 137.505 66.605C137.059 66.6103 130.15 66.6253 129.098 66.6266C127.485 66.6285 123.891 66.5691 122.222 66.5695C121.578 66.5695 120.891 66.6259 120.207 66.6255C117.942 66.6243 114.316 66.6195 111.444 66.6167C108.858 66.6142 104.317 66.4897 102.901 66.6021C99.2688 66.6167 98.3867 66.5206 98.1129 66.5193C97.3727 66.5157 97.0299 66.5793 96.0966 66.5823C84.0079 66.6193 68.0893 66.5772 56.6404 66.5823C39.0924 66.5904 21.4813 66.6083 3.86371 66.6121C3.75156 66.616 3.64761 66.5123 3.65128 66.4C3.64987 57.8771 3.65192 49.353 3.66016 40.8343C3.63197 40.7629 3.60377 40.6915 3.57557 40.6201C3.55739 43.77 3.50841 47.4719 3.4972 50.5816C3.48242 54.7331 3.59985 60.8915 3.40712 63.9368C3.39022 62.7018 3.46411 60.6898 3.36501 60.7258C3.35894 62.6172 3.35287 64.5086 3.34681 66.4C3.34468 66.5653 3.42619 66.7254 3.5611 66.8229C3.55989 66.7657 3.56794 66.7109 3.58401 66.6611C3.65796 66.7377 3.7577 66.78 3.86371 66.7788C5.90605 66.7714 7.98036 66.7785 10.02 66.7727C10.4218 66.7717 10.1373 66.7301 10.4872 66.7299C10.8786 66.7297 10.6132 66.772 10.6866 66.7724C11.676 66.7728 11.9747 66.73 12.0954 66.7306C12.4052 66.7323 12.1643 66.773 13.0574 66.7845C14.7141 66.8058 15.9004 66.6976 15.5113 66.8778C16.0461 66.8778 16.581 66.8778 17.1158 66.8778C17.2543 66.8288 17.3928 66.7797 17.5313 66.7306C20.8212 66.9287 22.3382 66.5812 24.1562 66.857C24.7557 66.8148 25.3552 66.7727 25.9547 66.7306C26.2926 66.7797 26.6305 66.8288 26.9684 66.8778C27.0342 66.8357 27.1001 66.7936 27.1659 66.7515C30.3959 66.7825 33.8351 66.732 36.9243 66.7368C39.0762 66.7402 39.5917 66.7569 41.4979 66.7537C45.7378 66.7465 41.5273 66.8301 45.0504 66.9203C44.867 66.8687 44.6836 66.817 44.5001 66.7654C45.0836 66.7465 45.6671 66.7276 46.2506 66.7086C46.6568 66.7508 47.063 66.7929 47.4692 66.835C49.2711 66.6166 50.4385 66.7929 50.6838 66.7929C50.882 66.7925 51.5628 66.661 53.6953 66.7724C52.811 66.5926 55.3222 66.7713 55.5233 66.7724C55.7145 66.7731 58.1593 66.733 59.1515 66.7346C59.9321 66.7359 61.597 66.7746 62.7594 66.7727C63.7857 66.771 63.6816 66.71 63.7565 66.7094C65.0197 66.7043 64.2281 66.7517 65.1413 66.7541C66.0544 66.7564 66.7629 66.7044 66.9601 66.709C67.0593 66.7115 66.7277 66.7683 67.1816 66.7738C68.4007 66.7888 70.6051 66.739 72.0008 66.7405C72.4955 66.741 73.119 66.7892 73.67 66.7907C74.5146 66.7928 74.9093 66.7287 75.4001 66.7306C75.5707 66.7315 76.6603 66.8304 78.0146 66.8152C78.2722 66.8122 79.0291 66.6028 80.0346 66.8994C80.1122 66.8577 80.1897 66.8159 80.2672 66.7742C84.8091 66.6708 86.0729 67.01 88.0924 66.709C91.3902 66.7426 89.1263 66.8599 89.4883 66.8778C89.7221 66.8892 90.7974 66.8569 90.9156 66.8588C91.1248 66.8624 91.0888 66.9 91.3181 66.8998C95.5219 66.8928 93.6554 66.8218 94.9869 66.7768C98.1528 66.6696 100.623 66.9075 95.1162 66.8361C95.1162 66.8571 95.1162 66.8781 95.1162 66.8991C96.4721 66.879 99.9141 66.8885 98.7647 66.995C97.8596 67.0789 89.6937 67.0242 94.3185 67.1419C95.3685 67.1685 95.9124 67.0897 97.7307 67.2374C98.9332 67.2455 99.1065 67.0541 100.735 67.1309C100.467 67.0641 100.199 66.9973 99.9316 66.9306C102.152 66.8435 104.892 66.9603 106.597 66.9229C107.177 66.9101 109.265 66.5918 108.778 66.9101C109.752 66.8902 114.341 66.9488 115.194 66.9203C115.399 66.9134 115.666 66.744 118.634 66.8031C118.84 66.8244 119.046 66.8456 119.253 66.8668C116.538 66.9286 121.332 66.9913 120.03 67.1521C119.588 67.0798 117.435 67.0358 117.089 66.9994C116.497 66.9368 118.259 66.8562 116.014 66.8782C114.599 67.1469 118.645 67.0233 118.027 67.2785C120.974 67.1593 121.268 67.273 121.935 67.2777C124.787 67.297 126.582 67.2699 129.273 67.2997C129.929 67.2473 125.057 67.1716 124.454 67.1942C126.675 67.0084 122.853 67 121.239 67.1104C121.104 67.0542 120.969 66.9981 120.833 66.9419C122.933 66.9724 124.981 66.988 127.061 66.9419C127.197 66.9629 127.332 66.9839 127.467 67.0049C127.001 67.0365 126.534 67.0681 126.068 67.0997C127.797 67.1515 126.76 66.9878 129.065 67.1312C129.136 67.068 129.207 67.0048 129.279 66.9416C131.488 66.9625 133.698 66.9835 135.907 67.0045C137.058 66.8777 141.309 66.925 140.531 67.0891C142.247 67.1007 140.128 67.0134 141.737 66.9734C142.437 66.9561 143.804 66.9512 144.142 66.9954C143.997 67.1517 141.95 67.1711 141.33 67.2785C141.706 67.3131 151.227 67.2015 150.378 67.3843C151.138 67.4063 150.788 67.3121 152.16 67.288C156.001 67.2208 161.952 67.4069 165.046 67.1734C161.413 67.0434 160.339 67.181 157.555 67.1865C155.777 67.1901 144.935 67.2123 147.357 67.047C146.959 67.068 146.561 67.089 146.162 67.11C145.76 67.0608 145.357 67.0116 144.955 66.9624C146.089 66.9553 147.223 66.9483 148.358 66.9412C148.629 66.9903 148.899 67.0393 149.17 67.0884C149.295 67.0534 149.42 67.0183 149.545 66.9833C150.023 66.9763 150.5 66.9694 150.978 66.9624C150.844 67.0045 150.71 67.0466 150.575 67.0888C151.311 67.096 152.048 67.1032 152.784 67.1104C152.586 67.0541 152.387 66.9978 152.189 66.9416C155.656 66.9274 154.482 66.9626 156.405 67.0679C157.84 67.0787 155.415 66.9705 158.452 66.943C161.984 66.9111 159.667 67.0831 164.241 67.0463C164.307 67.0182 164.372 66.9901 164.438 66.9621C165.444 66.9901 166.45 67.0182 167.455 67.0463C167.322 67.0114 167.189 66.9765 167.057 66.9416C168.303 66.9497 169.832 66.9289 171.004 66.9406C171.146 66.9436 171.276 66.8908 171.371 66.8155C171.705 66.5379 171.972 66.3319 172.133 66.2382C171.836 66.4846 171.598 66.6913 171.412 66.8626C171.252 67.0106 171.096 67.0442 171.004 67.0724C170.748 67.1216 170.802 67.1895 171.004 67.2252C171.038 67.2325 171.078 67.2363 171.122 67.2343C171.198 67.2297 171.38 67.2074 171.574 67.0461C173.489 65.4179 180.431 59.2506 184.428 55.6997C184.618 55.5321 184.717 55.2883 184.714 55.0593C184.711 53.9699 184.708 53.1064 184.707 52.5882C184.699 48.4529 184.776 45.3274 184.658 41.5503C184.561 44.11 184.64 53.1111 184.574 54.8168C184.571 54.8978 184.519 54.9291 184.492 55.0593C184.453 55.1415 184.499 55.2767 184.33 55.5882C184.307 55.619 184.284 55.6511 184.259 55.6849C181.607 57.9682 178.516 60.7876 175.232 63.6742C175.29 63.5386 175.348 63.4029 175.407 63.2672C177.511 61.5905 179.182 59.7241 179.081 60.1395C179.483 59.7857 179.884 59.432 180.285 59.0782C180.257 59.0465 180.229 59.0148 180.201 58.9832C180.806 58.4499 181.41 57.9166 182.015 57.3833C182.043 57.415 182.071 57.4466 182.099 57.4783C182.6 57.0366 183.101 56.5949 183.602 56.1532C183.626 56.0757 183.65 55.9981 183.674 55.9205C183.827 55.7975 184.012 55.6417 184.219 55.4628C184.326 55.3745 184.406 55.2249 184.405 55.0593C184.401 52.3846 184.286 48.371 184.489 50.799C184.489 49.8598 184.489 48.9206 184.489 47.9814C184.459 47.9844 184.428 47.9875 184.397 47.9906C184.393 47.5868 184.389 47.1831 184.384 46.7793C184.412 46.9123 184.44 47.0452 184.468 47.1782C184.418 45.3279 184.565 43.5739 184.469 42.359C184.447 43.1603 184.426 43.9617 184.405 44.763C184.445 43.2261 184.362 40.3948 184.362 40.1414C184.362 39.3691 184.424 38.9619 184.427 38.1251C184.43 37.3698 184.382 37.4738 184.384 37.333C184.432 33.2586 184.692 34.8114 184.385 32.909C184.427 32.7065 184.469 32.504 184.511 32.3015C184.476 32.0319 184.441 31.7624 184.406 31.4928C184.409 30.2895 184.412 29.0863 184.416 27.883C184.363 28.2843 184.311 28.6856 184.258 29.0869C184.235 27.2833 184.34 26.4421 184.342 26.2674C184.348 25.7731 184.282 25.5469 184.282 25.3941C184.288 18.0442 184.346 22.5084 184.594 18.8356C184.497 17.5259 184.399 18.8509 184.3 19.0368C184.347 17.2955 184.319 16.7519 184.325 14.9137C184.326 14.4355 184.38 13.9212 184.38 13.6194C184.381 13.358 184.324 12.5408 184.324 11.9133C184.324 10.8674 184.357 9.47525 184.357 8.0432C184.356 7.32633 184.341 5.71985 184.33 4C184.333 3.75328 184.104 3.53334 183.864 3.54351C183.248 3.54651 182.648 3.54845 182.099 3.54854C181.015 3.54853 181.266 3.50103 180.986 3.50093C180.869 3.50093 180.024 3.55784 179.328 3.55806C173.652 3.55933 167.835 3.52331 162.13 3.52437C158.112 3.525 154.028 3.57076 150.001 3.56611C149.144 3.56506 149.598 3.52328 149.224 3.5218C149.095 3.52143 148.941 3.59433 147.616 3.56502C147.137 3.55445 147.688 3.50347 147.217 3.50093C146.988 3.49972 146.89 3.56362 145.551 3.5782C143.118 3.60482 141.81 3.51963 141.593 3.52217C141.183 3.52708 141.303 3.57996 140.76 3.58186C138.105 3.59116 135.889 3.60013 133.52 3.60457C132.414 3.60668 124.786 3.61737 124.367 3.60786C123.43 3.58673 124.302 3.4763 123.101 3.48006C122.764 3.50801 122.427 3.53596 122.091 3.56392C122.626 3.58516 123.16 3.6064 123.695 3.62764C122.223 3.59213 120.553 3.64236 119.463 3.64045C119.262 3.64002 117.408 3.58994 116.463 3.59541C116.865 3.57466 117.267 3.55391 117.668 3.53316C117.526 3.51546 117.384 3.49776 117.242 3.48006C115.351 3.50689 113.352 3.5062 111.413 3.5024C110.714 3.5011 110.95 3.4581 110.242 3.45662C106.12 3.44755 107.161 3.62635 103.194 3.29073C104.534 3.32116 109.419 3.27847 110.13 3.28963C110.624 3.29745 112.543 3.58104 111.839 3.29C115.798 3.29127 112.36 3.45179 116.057 3.41671C115.983 3.38118 115.909 3.34566 115.835 3.31014C117.126 3.28775 118.079 3.2698 118.863 3.33248C119.126 3.16015 123.511 3.26097 125.916 3.24935C129.392 3.23286 133.319 3.19083 136.762 3.18344C137.949 3.18093 138.621 3.24846 138.769 3.24825C138.987 3.24777 139.598 3.18862 140.032 3.1882C141.654 3.18651 146.586 3.2865 147.813 3.12228C138.166 3.12228 128.519 3.12228 118.872 3.12228C120.085 3.203 110.327 3.21089 109.832 3.20687C109.374 3.20326 109.76 3.14659 109.624 3.14315C108.61 3.11885 107.745 3.20101 107.423 3.20101C107.177 3.201 106.682 3.16245 105.809 3.1633C105.649 3.16341 105.604 3.20419 105.432 3.20431C104.294 3.20431 103.17 3.20373 102.027 3.20394C101.958 3.20355 101.67 3.14399 101.381 3.14389C101.092 3.14389 100.806 3.20339 100.733 3.20358C99.8199 3.20315 98.2545 3.16445 97.3855 3.16403C97.0841 3.16404 97.2931 3.20766 96.9553 3.20724C95.9174 3.20618 96.2592 3.12081 94.976 3.14279C94.5458 3.15019 94.5736 3.21548 93.7499 3.20687C93.1666 3.20074 93.2295 3.08439 93.1369 3.08017C93.0092 3.07506 90.9962 3.16694 90.3377 3.09079C91.7766 2.88974 88.7638 3.0803 88.9086 3.16513C88.1109 3.14376 87.3133 3.1224 86.5156 3.10104C86.2436 3.12252 85.9715 3.14401 85.6995 3.16549C82.4812 3.06869 80.5178 3.12681 77.3518 3.09701C77.199 3.09553 74.5313 3.04777 74.6561 3.01755C76.2528 2.96556 77.8459 2.96319 78.8677 3.05929C80.5493 2.87605 80.5782 3.02208 83.2936 2.99777C84.2028 2.98953 84.2674 2.93982 84.3719 2.93918C87.9077 2.91446 93.5707 2.89306 95.9527 3.03842C96.6205 2.99911 94.2199 2.98352 95.1532 2.95456C95.6623 2.9387 107.913 2.89228 103.999 3.05966C104.406 3.05502 104.812 3.05038 105.218 3.04574C105.624 2.88765 107.645 2.92381 107.415 3.08127C107.607 3.04904 107.798 3.01682 107.99 2.98459C108.368 2.95732 108.815 2.94272 109.443 2.93405C111.846 2.9011 126.142 2.95594 126.902 2.93332C126.92 2.89597 126.937 2.85862 126.954 2.82126C120.638 2.77899 114.511 2.87181 107.624 2.76487C107.824 2.7999 108.024 2.83494 108.224 2.86997C105.476 2.8209 102.728 2.77183 99.9798 2.72276C102.888 2.65935 107.516 2.6061 110.569 2.65831C111.112 2.66762 110.714 2.71647 110.839 2.72239C111.164 2.73776 111.515 2.653 112.685 2.64476C113.856 2.63653 116.797 2.69662 117.067 2.69493C117.586 2.69144 118.989 2.59446 119.873 2.59569C121.036 2.59738 120.257 2.6574 120.49 2.65867C121.455 2.66457 122.321 2.63483 123.077 2.63926C124.199 2.64586 126.531 2.75142 127.316 2.59642C126.514 2.58934 125.712 2.58226 124.91 2.57518C129.259 2.51959 132.659 2.71774 136.943 2.56492C137.917 2.37724 134.377 2.40261 137.37 2.3225C136.826 2.32519 136.283 2.32787 135.739 2.33056C135.612 2.36986 135.485 2.40917 135.357 2.44847C134.421 2.4204 133.485 2.39232 132.549 2.36425C132.816 2.39928 133.083 2.43431 133.35 2.46935C130.031 2.49577 126.68 2.53169 125.521 2.34337C125.453 2.3889 125.385 2.43444 125.316 2.47997C122.235 2.42461 117.609 2.61759 118.474 2.36425C118.328 2.37767 118.182 2.3911 118.036 2.40453C116.173 2.35275 116.969 2.45751 116.269 2.46935C116.069 2.47268 112.449 2.41859 114.053 2.34337C110.521 2.28589 111.61 2.52267 110.637 2.53307C108.376 2.41576 104.31 2.59172 106.019 2.40636C105.683 2.3994 105.346 2.39244 105.009 2.38549C103.903 2.53132 102.813 2.36632 101.614 2.31115C101.208 2.30785 100.801 2.30456 100.395 2.30126C100.123 2.35033 99.8511 2.3994 99.5791 2.44847C95.7573 2.21492 96.9675 2.85364 95.2215 2.31701C95.4936 2.2849 95.7656 2.2528 96.0376 2.2207C96.6827 2.20544 97.3277 2.19018 97.9727 2.17492C95.3711 2.16076 92.7695 2.1466 90.1679 2.13244C86.8656 1.98203 84.9865 2.14523 81.3179 2.02625C80.9745 2.04053 80.6311 2.05481 80.2876 2.06909C80.6376 1.94756 81.9701 1.96542 79.4881 1.91089C79.2766 1.82497 80.9528 1.81385 81.7168 1.87977C81.9009 1.89585 80.3337 1.96167 82.0953 1.96399C83.2929 1.96565 81.1183 1.86239 84.7061 1.90064C84.5732 1.87964 84.4403 1.85865 84.3073 1.83765C84.6963 1.83826 85.0853 1.83887 85.4743 1.83948C85.8201 1.88807 86.166 1.93665 86.5119 1.98523C87.4009 1.91506 87.9 1.81673 89.9315 1.83765C89.3805 1.86808 90.1281 1.96564 91.1335 1.96399C91.1335 1.92884 91.1335 1.89368 91.1335 1.85853C93.5674 1.83591 92.7272 1.93905 94.7507 1.85853C94.9532 1.88648 95.1557 1.91443 95.3582 1.94239C96.4604 1.8272 100.519 1.74883 99.7785 1.92151C100.917 1.75369 103.308 1.82941 104.197 1.96362C104.265 1.92871 104.334 1.8938 104.402 1.85889C104.875 1.85181 105.349 1.84473 105.822 1.83765C106.086 1.85877 106.35 1.87989 106.614 1.901C106.949 1.87989 107.285 1.85877 107.62 1.83765C107.823 1.87269 108.025 1.90772 108.228 1.94275C108.767 1.90076 109.306 1.85877 109.845 1.81678C110.175 1.84473 110.505 1.87269 110.835 1.90064C110.869 1.82756 114.137 1.81129 115.05 1.85926C115.322 1.83802 115.594 1.81678 115.866 1.79554C115.999 1.83033 116.132 1.86512 116.265 1.89991C116.468 1.87208 116.67 1.84424 116.873 1.81641C117.339 1.84424 117.806 1.87208 118.272 1.89991C120.175 1.72935 120.236 1.87899 120.671 1.87793C121.476 1.87598 124.219 1.76917 124.678 1.77467C125.136 1.7802 125.357 1.84142 125.726 1.84717C131.821 1.94334 129.315 1.77907 130.538 1.75306C131.198 1.7389 131.665 1.79601 132.248 1.78968C133.246 1.77911 138.279 1.70355 138.568 1.71095C138.99 1.72162 137.997 1.99091 139.368 1.92151C139.413 1.77691 142.344 1.92286 140.974 1.7212C142.181 1.7389 143.388 1.7566 144.595 1.7743C144.458 1.60289 145.946 1.71313 147.568 1.70362C149.865 1.69029 155.037 1.57759 154.848 1.75343C155.398 1.71302 155.949 1.67262 156.499 1.63221C160.264 1.68757 163.957 1.62957 167.694 1.62745C172.941 1.62435 178.4 1.63127 183.864 1.64308C185.121 1.61549 186.247 2.74526 186.217 4C186.204 9.56026 186.187 15.1062 186.17 20.4216C186.168 20.9523 186.111 20.876 186.11 21.2581C186.103 23.2655 186.144 28.4832 186.131 31.2952C186.127 32.196 186.071 32.6345 186.069 32.9201C186.059 33.8896 186.133 33.6608 186.131 34.1073C186.128 34.8117 186.059 38.537 186.052 39.8202C186.049 40.4554 186.107 41.2071 186.089 41.9509C186.088 42.015 186.027 41.8968 186.026 41.9509C186.019 43.3066 186.071 42.4912 186.068 42.9498C186.049 46.2203 186.047 49.716 186.035 53.264C186.033 53.7743 186.018 54.4413 186.005 55.0593C186.002 55.7121 185.68 56.3032 185.269 56.6531C185.175 56.7334 185.088 56.8085 185.01 56.8767C184.793 57.0665 185.211 56.7586 184.461 57.4153C184.204 57.6402 184.077 57.6727 183.785 57.9248C182.529 59.0113 182.238 59.5228 181.066 60.3515C179.006 62.1818 175.44 65.3914 173.555 67.0552C173.109 67.4488 172.869 67.6139 172.444 67.9893C172.437 67.9956 172.43 68.0019 172.423 68.0084C172.122 68.2808 171.615 68.5605 171.004 68.5707C170.69 68.5849 170.343 68.5997 170.018 68.6001C169.391 68.6007 168.4 68.5487 167.193 68.5506C165.923 68.5525 164.343 68.5834 164.056 68.5832C163.71 68.5832 163.549 68.5176 163.203 68.5184C162.157 68.5205 159.357 68.585 158.009 68.592C156.561 68.5994 155.692 68.5676 155.197 68.5682C154.739 68.5691 154.204 68.6245 153.995 68.625C153.669 68.6258 153.592 68.5611 153.179 68.5616C152.503 68.5627 151.807 68.6034 150.793 68.6045C132.545 68.6245 114.655 68.589 96.9017 68.5418C94.9226 68.5366 93.8042 68.582 90.8879 68.5612C89.7055 68.5528 90.2035 68.486 89.2833 68.4986C88.873 68.5043 88.9768 68.5569 88.458 68.5594C86.1649 68.5704 83.4932 68.5216 82.4995 68.5224C82.1055 68.5227 81.6551 68.5824 80.847 68.5832C74.825 68.59 67.7002 68.5732 61.2195 68.5836C57.788 68.5891 52.593 68.6195 48.6546 68.6235C37.773 68.6347 26.0669 68.6209 16.1428 68.6268C12.0451 68.6292 7.95287 68.635 3.86371 68.6409C2.66867 68.6692 1.59386 67.5961 1.62051 66.4C1.60567 56.0605 1.59321 45.739 1.63837 35.3984C1.49402 42.3941 1.50607 51.9202 1.49043 59.7085C1.48601 61.9256 1.48285 64.1568 1.48072 66.4C1.45092 67.6689 2.59038 68.8128 3.86371 68.7843C23.9059 68.799 44.8514 68.7346 65.1044 68.7374C73.1259 68.7384 83.2397 68.7351 92.0216 68.7685C92.4198 68.77 93.2453 68.7241 94.1062 68.729C94.2891 68.7301 96.5568 68.8138 97.3208 68.8147C96.5967 68.6659 99.5899 68.7985 100.515 68.7949C101.682 68.7902 104.116 68.7159 106.846 68.7579C109.325 68.7959 108.641 68.8532 108.778 68.8568C109.654 68.88 109.96 68.7877 110.632 68.7784C113.375 68.7412 127.488 68.7948 131.426 68.7982C132.444 68.799 132.473 68.8577 132.702 68.8579C133.309 68.8583 134.174 68.8004 135.147 68.8007C136.901 68.8016 138.921 68.8569 139.886 68.8571C142.196 68.8578 146.577 68.7925 149.578 68.7912C150.422 68.7908 150.371 68.8519 150.753 68.8516C152.435 68.8506 156.815 68.7787 158.903 68.778C162.294 68.777 165.782 68.8164 169.23 68.7963C169.448 68.8236 169.667 68.8508 169.885 68.878C170.23 68.8494 170.575 68.8209 170.919 68.7923C170.948 68.7924 170.976 68.7925 171.004 68.7926C171.581 68.7951 172.156 68.5791 172.588 68.1961C176.774 64.5231 180.978 60.7419 185.127 57.0875C185.194 57.0288 185.296 56.9399 185.424 56.829C185.834 56.4797 186.232 55.8368 186.233 55.0593C186.249 53.8293 186.273 52.1541 186.273 51.7758C186.273 51.3172 186.206 50.8658 186.216 50.186C186.23 49.2337 186.358 50.1298 186.321 48.5741C186.311 48.1557 186.256 48.5613 186.239 47.721C186.233 47.4434 186.211 42.056 186.215 41.7663C186.221 41.2837 186.339 40.8533 186.342 40.7286C186.355 40.0811 186.265 40.1087 186.256 39.6743C186.232 38.3926 186.293 36.7179 186.291 36.5095C186.274 33.9912 186.202 29.2834 186.245 26.6404C186.251 26.2749 186.318 26.3187 186.32 26.2545C186.334 25.8404 186.258 25.583 186.256 25.1891C186.247 23.069 186.299 19.749 186.312 17.6169C186.313 17.3714 186.277 16.853 186.28 16.4149C186.301 13.9368 186.36 14.7407 186.363 14.5999C186.369 14.2659 186.304 13.6788 186.3 12.7904C186.289 10.6042 186.297 6.50202 186.303 4C186.303 3.71607 186.253 3.43603 186.162 3.18159C185.649 1.84443 184.486 1.54344 183.864 1.54073C183.257 1.51726 183.245 1.48126 183.161 1.48024C182.903 1.47756 182.187 1.5372 180.977 1.54396C178.648 1.55727 178.913 1.49858 177.956 1.50111C177.876 1.50111 178.016 1.55855 176.953 1.56447C174.902 1.57586 170.293 1.5194 168.096 1.52235C167.251 1.52341 167.054 1.57879 166.189 1.57985C164.818 1.58174 161.723 1.52184 161.479 1.52199C161.41 1.52199 161.257 1.58571 160.855 1.58571C160.412 1.5857 159.977 1.5529 159.647 1.55312C157.768 1.554 154.532 1.66519 155.432 1.43776C154.83 1.49391 154.228 1.55006 153.626 1.60621C149.691 1.59501 145.869 1.61751 141.971 1.62892C141.094 1.63145 140.362 1.58838 139.622 1.59047C138.883 1.59258 135.618 1.66383 135.073 1.66517C134.099 1.6675 128.567 1.675 127.879 1.66993C126.536 1.66021 125.232 1.56622 124.685 1.58461C124.246 1.5994 124.652 1.65236 123.815 1.66737C122.367 1.69333 119.906 1.6253 119.463 1.62636C119.274 1.62679 119.628 1.66807 117.859 1.67103C116.905 1.67272 116.393 1.62724 116.047 1.62745C115.94 1.62769 116.101 1.70144 114.214 1.69154C112.91 1.68456 112.355 1.62766 112.218 1.62745C112.013 1.62708 111.517 1.68779 110.693 1.68568C108.766 1.68038 105.243 1.61077 103.412 1.60548C103.058 1.60442 103.179 1.67778 101.767 1.67103C100.757 1.66617 100.934 1.60782 100.556 1.60548C99.9565 1.60189 99.0634 1.67334 97.74 1.67103C96.0746 1.66807 83.7082 1.59396 83.0684 1.57472C82.6379 1.56183 82.1386 1.56102 81.9254 1.52931C82.1082 1.49892 82.291 1.46852 82.4738 1.43813C84.3676 1.54479 83.6034 1.42289 84.106 1.41506C84.8342 1.40386 87.5783 1.41941 88.242 1.39235C88.4785 1.38258 87.9371 1.3177 89.2077 1.28432C90.5711 1.24864 91.1777 1.36414 91.7207 1.20632C93.6557 1.38154 95.5143 1.19557 93.2735 1.1459C92.0226 1.11821 79.7524 1.05565 77.2466 1.04593C75.2149 1.03812 71.4098 1.08507 68.9118 1.07303C67.4435 1.06584 63.8271 1.0577 63.98 0.973787C62.6766 0.963219 64.056 1.04675 63.7825 1.05838C63.2104 1.08265 59.1423 1.02496 58.3724 1.02725C54.5749 1.03824 49.7827 1.13204 46.0937 1.02615C46.2654 1.00369 46.4371 0.981233 46.6089 0.958773C47.4376 0.917558 51.2835 0.97648 51.7179 0.868688C46.0937 0.868688 40.4695 0.868688 34.8453 0.868688C34.9499 0.960417 27.9741 0.959185 27.6443 0.917759C27.7667 0.873326 27.8892 0.828894 28.0117 0.784462C31.9536 0.953087 31.6001 0.730192 34.2471 0.848547C35.3246 0.850216 34.9994 0.776803 35.5303 0.762856C40.8152 0.624245 35.6151 0.913504 39.6608 0.847815C38.443 0.74133 41.7563 0.702416 43.241 0.688884C43.5789 0.685925 48.0169 0.712913 48.5439 0.711222C51.5047 0.70171 56.5894 0.643374 59.5302 0.701701C61.8472 0.708675 63.1226 0.632827 65.2264 0.615278C66.8232 0.601965 66.3654 0.655271 67.1171 0.655926C68.6941 0.657405 69.2131 0.495112 70.2228 0.721476C71.2919 0.693278 72.3609 0.665081 73.43 0.636883C73.43 0.672039 73.43 0.707194 73.43 0.742349C74.1015 0.742349 74.773 0.742349 75.4445 0.742349C75.642 0.707316 75.8396 0.672283 76.0372 0.63725C78.1683 0.685231 77.2786 0.769883 77.6768 0.86942C78.1372 0.876256 78.5976 0.883092 79.0579 0.889927C79.4143 0.813514 79.7707 0.7371 80.127 0.660686C82.1827 0.666912 84.2384 0.673137 86.2941 0.679363C86.427 0.714396 86.5599 0.749429 86.6929 0.784462C86.6972 0.749429 86.7015 0.714396 86.7058 0.679363C90.1869 0.672161 93.6681 0.664959 97.1492 0.657757C98.0751 0.601556 92.4975 0.558968 92.0752 0.555587C89.7256 0.536994 83.4863 0.593338 83.4783 0.468431C82.0178 0.561628 77.6209 0.538489 76.2532 0.426685C78.3292 0.433398 80.4052 0.440112 82.4812 0.446826C82.4141 0.404957 82.347 0.363088 82.2799 0.321219C84.8665 0.490085 85.2451 0.480792 87.9041 0.321219C87.9066 0.37737 87.9091 0.433521 87.9115 0.489671C89.7657 0.294422 93.0429 0.625626 93.1369 0.384572C94.1241 0.404103 95.1114 0.423633 96.0986 0.443164C98.2303 0.413779 94.9201 0.22839 103.266 0.301078C103.842 0.306151 103.722 0.367556 104.587 0.363332C104.836 0.362064 106.264 0.272736 108.996 0.282036C109.422 0.283521 109.454 0.336794 109.897 0.343558C110.919 0.359618 112.953 0.254257 112.03 0.425952C116.076 0.476027 114.399 0.335114 115.654 0.279106C116.491 0.241937 116.322 0.343523 117.046 0.320487C117.942 0.291919 117.285 0.189508 120.872 0.236627C120.47 0.243585 120.067 0.250543 119.664 0.257501C119.867 0.285332 120.069 0.313163 120.272 0.340994C122.319 0.274215 122.126 0.371788 123.091 0.215388C124.58 0.285134 125.868 0.290689 127.903 0.278008C131.858 0.25328 129.83 0.0847268 134.344 0.311698C135.075 0.279839 135.806 0.247979 136.537 0.21612C137.739 0.283114 136.767 0.366934 138.561 0.383839C137.157 0.218347 140.942 0.278689 141.582 0.131162C141.649 0.166317 141.716 0.201472 141.783 0.236627C142.183 0.236627 142.584 0.236627 142.985 0.236627C142.986 0.20843 142.987 0.180233 142.989 0.152035C143.522 0.173152 144.056 0.19427 144.589 0.215388C144.991 0.187434 145.392 0.159481 145.793 0.131528C146.453 0.190486 147.113 0.249444 147.773 0.308402C148.187 0.312431 148.601 0.316459 149.015 0.320487C148.884 0.278496 148.753 0.236505 148.622 0.194514C149.154 0.208552 149.687 0.222589 150.219 0.236627C149.6 0.167725 149.989 0.0869353 151.646 0.0890486C153.014 0.0907438 151.473 0.234553 154.414 0.174739C154.619 0.170475 154.982 0.0679114 157.762 0.0520625C161.095 0.0330586 159.476 0.107348 160.07 0.109922C160.186 0.110345 161.205 0.0587285 162.158 0.0513301C162.699 0.0471184 163.22 0.0887911 163.292 0.0886824C163.626 0.0867808 163.723 0.0278258 164.185 0.025696C165.36 0.0206249 166.936 0.0495117 168.087 0.0465696C168.61 0.0453014 169.102 0.0103722 169.335 0.00994945C169.697 0.0095458 170.156 0.0628936 170.522 0.0626824C171.874 0.0615661 173.925 -0.115436 174.553 0.130429C175.852 -0.0956542 178.574 0.177686 178.375 0.0260623C179.667 0.0473466 181.759 0.0349805 183.864 0.0241609C186.004 -0.0283291 187.899 1.9072 187.847 4C187.858 6.96498 187.848 9.54747 187.712 9.40217C187.93 11.3687 187.772 11.193 187.775 12.0167C187.779 12.938 187.821 12.4607 187.819 13.1929C187.815 14.9024 187.796 16.5359 187.796 18.2373C187.761 17.9702 187.726 17.7031 187.691 17.436C187.68 19.222 187.761 18.6071 187.776 20.429C187.805 23.78 187.74 22.3679 187.649 22.8626C187.737 22.7298 187.723 26.6812 187.712 27.0835C187.705 27.3234 187.591 26.2721 187.627 28.6918C187.662 28.5594 187.698 28.4271 187.733 28.2948C187.685 29.3972 187.745 32.3916 187.734 32.8998C187.728 33.1331 187.446 34.3811 187.669 35.5235C187.634 35.6614 187.599 35.7993 187.564 35.9371C187.606 37.2056 187.648 38.4741 187.69 39.7426C187.627 39.9451 187.564 40.1476 187.501 40.3501C187.501 40.7526 187.501 41.1551 187.501 41.5576C187.557 41.2905 187.613 41.0234 187.669 40.7563C187.644 43.2418 187.732 46.2783 187.543 46.7904C187.578 47.3228 187.613 47.8552 187.648 48.3876C187.585 48.7341 187.523 49.0806 187.46 49.4271C187.476 51.8923 187.518 51.9331 187.585 53.6185C187.536 53.5526 187.486 53.4868 187.437 53.4209C187.462 53.8608 187.486 54.4291 187.507 55.0593C187.522 56.0531 187.091 57.1001 186.29 57.8105C185.605 58.4482 184.867 59.123 184.206 59.7113C183.569 60.2784 182.426 61.1963 182.279 61.334C182.131 61.4733 180.806 62.9955 180.491 62.9666C178.35 64.9908 177.309 65.7702 176.415 66.5623C175.834 67.077 175.605 67.3526 174.951 67.9368C174.448 68.3858 173.938 68.8287 173.489 69.2172C172.756 69.8634 171.829 70.1554 171.004 70.1498C170.788 70.1482 170.594 70.1475 170.428 70.1484C170.014 70.1507 169.936 70.2045 169.651 70.2062C168.3 70.2144 169.091 70.1594 167.668 70.163C167.536 70.1636 166.496 70.2293 165.323 70.2209C164.667 70.2162 162.97 70.1423 162.821 70.1425C162.157 70.1438 162.688 70.2915 160.419 70.1209C160.484 70.149 160.55 70.177 160.616 70.2051C157.808 70.2764 157.365 70.1512 156.798 70.1425C156.725 70.1418 156.042 70.1902 155.633 70.1835C154.942 70.1721 154.663 70.1059 154.51 70.103C153.971 70.0928 152.155 70.1219 150.969 70.0579C151.218 70.2464 147.06 70.3135 146.138 70.1C145.402 70.1421 144.666 70.1842 143.93 70.2264C143.597 70.1912 143.264 70.1561 142.931 70.1209C142.729 70.1559 142.526 70.191 142.324 70.226C141.251 70.1488 140.178 70.0717 139.105 69.9946C139.037 70.0718 138.969 70.1491 138.9 70.2264C138.6 70.2176 138.3 70.2088 137.999 70.2C137.765 70.1386 137.53 70.0772 137.296 70.0158C136.92 70.0275 136.545 70.0392 136.17 70.0509C136.077 70.0954 135.984 70.1398 135.891 70.1842C133.872 70.2355 134.91 69.8117 131.064 70.1842C130.466 70.1492 129.868 70.1142 129.269 70.0791C128.594 70.2496 127.328 70.1464 126.306 70.1656C125.586 70.1791 125.625 70.2468 124.644 70.2483C123.663 70.2498 123.698 70.185 123.621 70.1846C122.821 70.1806 122.218 70.2377 121.631 70.2264C121.542 70.2247 121.321 70.1478 120.573 70.1429C119.825 70.138 119.374 70.2198 118.259 70.2044C117.688 70.1966 117.523 70.1318 117.017 70.126C114.603 70.0981 112.172 70.4263 110.362 70.037C109.954 70.0864 106.994 70.259 105.728 70.2491C103.758 70.2332 104.517 70.1569 103.733 70.1429C103.621 70.1408 103.021 70.1665 101.368 70.1619C101.072 70.1611 101.141 70.2042 101.099 70.2048C99.1718 70.2039 95.4302 70.1699 93.3141 70.1637C93.125 70.1631 92.135 70.2833 90.4576 70.1216C87.9717 70.241 83.2892 69.9845 80.0106 70.1645C79.5561 70.1683 79.0042 70.1253 78.803 70.1268C77.0692 70.1401 77.7046 70.2706 73.7863 70.0795C74.1035 70.1461 73.1868 70.2062 71.8918 70.2011C69.9448 70.1935 71.3278 70.0694 69.7629 70.0795C69.7629 70.1145 69.7629 70.1496 69.7629 70.1846C66.163 70.0904 65.4467 70.2402 61.8344 70.241C60.535 70.2412 58.6156 70.1636 58.3059 70.1634C58.186 70.1636 56.765 70.2481 56.6293 70.2487C55.865 70.2512 55.4334 70.2123 54.7737 70.2121C52.5934 70.2113 49.9916 70.3211 50.4623 70.1216C49.8628 70.1637 49.2633 70.2059 48.6638 70.248C46.399 70.0349 44.7053 70.3285 44.2306 70.1216C43.8256 70.1644 43.4206 70.2071 43.0156 70.2498C33.3016 70.2282 23.5875 70.2066 13.8735 70.185C13.4873 70.2516 9.25127 70.2279 9.03404 70.2176C8.03659 70.1706 9.09016 70.0255 7.05467 70.0586C6.82941 70.1222 6.60414 70.1858 6.37888 70.2494C3.82049 70.2701 5.05103 70.2069 4.04131 70.1637C3.96716 70.1651 3.91025 70.1678 3.86371 70.1712C3.45719 70.1739 3.2567 70.152 2.94357 70.0901C2.63933 70.0136 2.17289 69.9264 1.46016 69.3749C0.649943 68.7359 0.028373 67.626 0.0343692 66.4C0.0191019 63.0963 0.0168412 57.5438 0.01318 54.4554C0.0123358 53.7723 0.0584717 53.8754 0.058589 53.6633C0.0581663 53.0801 2.69413e-05 51.9292 -3.09944e-06 50.7588C0.000419617 43.5219 0.0332046 33.2671 0.0820258 25.9817C0.0854073 25.4869 0.140434 25.4256 0.143181 25.0917C0.146757 24.629 0.102278 23.5953 0.106927 23.1086C0.111155 22.6502 0.152949 22.3565 0.157829 21.866C0.180656 19.6212 0.110045 16.6032 0.233266 14.2015C0.24366 13.9995 0.465188 11.4833 0.479718 11.4263C0.565952 11.0924 0.701428 13.3285 0.827608 9.6556C0.937725 12.9383 1.13239 11.9128 1.2275 7.64853C1.25203 9.78731 1.27657 11.9261 1.3011 14.0649C1.32418 14.0679 1.34725 14.071 1.37032 14.0741C1.48465 12.1271 1.5227 10.1955 1.53328 7.23493C1.55464 7.32726 1.576 7.41958 1.59736 7.5119C1.70409 10.1268 1.72382 13.2811 1.86945 15.2724C1.97723 12.352 2.08502 9.43156 2.1928 6.51114C2.20965 6.657 2.22649 6.80287 2.24334 6.94874C2.28709 8.3487 2.31277 11.4066 2.35356 12.5693C2.5091 17.0096 2.46996 8.68299 2.56486 10.0507C2.56144 14.7388 2.55802 19.4269 2.55461 24.1149C2.62449 24.2793 2.81751 6.24412 3.02847 6.42989C3.04263 7.90334 3.05679 9.37679 3.07095 10.8502C3.12453 10.1935 3.17812 9.53681 3.23171 8.8801C3.24868 9.06105 3.26564 9.242 3.28261 9.42295C3.32424 11.9088 3.36586 14.3948 3.40749 16.8807C3.36564 9.32264 3.39602 5.81037 3.81799 4C3.82874 4.20495 3.83948 4.40991 3.85022 4.61486C3.58624 6.25217 3.67162 13.9809 3.72425 18.0882C3.80158 17.2511 3.74184 13.6345 3.78833 12.8702C3.80166 12.6536 3.85534 13.4089 3.88281 12.9071C3.95425 11.5957 4.04616 6.00738 4.13366 6.81949C4.18988 7.34246 4.26701 16.3342 4.2611 18.0882C4.36212 13.9769 4.39135 9.74083 4.51414 5.61747C4.68534 8.22018 4.89484 10.5252 4.90414 15.2761C4.99397 16.7242 5.11841 6.66691 5.16744 6.43359C5.22005 8.17415 5.27266 9.91471 5.32527 11.6553C5.31124 10.1831 5.2972 8.71084 5.28316 7.23863C5.30074 7.23432 5.31832 7.23001 5.33589 7.2257C5.41748 11.0394 5.56722 14.5284 5.55708 18.8933C5.65007 18.7525 5.64082 16.1408 5.64167 14.8736ZM57.7687 0.488573C57.6806 0.411463 59.2809 0.424106 60.1819 0.425586C60.0465 0.411549 59.9111 0.397511 59.7757 0.383473C61.6987 0.398057 65.2782 0.427649 65.411 0.278008C66.7827 0.259409 66.1762 0.389539 66.6186 0.404347C66.7916 0.410264 68.582 0.334533 70.0141 0.426685C70.3545 0.426319 70.6948 0.425952 71.0352 0.425586C71.1011 0.376515 71.1669 0.327445 71.2328 0.278374C71.7073 0.337942 72.1818 0.397511 72.6564 0.457079C67.6963 0.467577 62.7362 0.478075 57.776 0.488573C57.7736 0.488573 57.7711 0.488573 57.7687 0.488573ZM107.21 0.42522C109.017 0.452908 111.783 0.496625 111.224 0.362234C110.083 0.369313 108.942 0.376393 107.801 0.383473C107.604 0.397389 107.407 0.411304 107.21 0.42522ZM139.316 69.8689C137.807 69.7366 136.418 69.8511 134.085 69.8272C134.088 69.8552 134.091 69.8831 134.094 69.9111C135.048 69.8439 137.571 69.8886 139.316 69.8689ZM12.9486 0.994294C12.6162 0.983919 12.2839 0.973543 11.9515 0.963167C13.3032 0.812892 13.5451 0.918793 15.0738 0.904209C15.166 0.903297 15.134 0.868899 15.1661 0.868688C15.5402 0.866367 15.8862 0.907773 16.2241 0.907139C16.8758 0.905869 17.4072 0.863913 18.5617 0.865392C19.4545 0.866675 19.4629 0.932633 19.7766 0.930942C20.0441 0.929312 22.6932 0.74786 24.3982 0.826209C27.6407 0.975427 13.9382 1.00824 12.9486 0.994294ZM2.29113 1.29372C2.76441 1.01639 3.32158 0.86792 3.8637 0.869152C4.00913 0.868875 4.15448 0.868598 4.29991 0.868322C3.33568 0.969706 5.28164 0.954297 6.70949 0.952181C6.67873 1.01975 5.21033 1.02027 3.8637 1.02403C2.00833 0.990954 0.801944 2.7911 0.900482 4C0.833618 2.96898 1.37157 1.8822 2.29113 1.29372ZM43.8891 1.07852C42.6344 1.08843 42.8434 0.96708 42.8957 0.930942C43.2952 0.930942 43.6946 0.930942 44.094 0.930942C44.0257 0.980135 43.9574 1.02933 43.8891 1.07852ZM34.452 1.12063C34.8423 1.0382 37.5662 1.00216 38.8576 0.995393C38.9139 0.99538 38.5593 1.04062 39.4724 1.03641C39.7466 1.03509 42.4441 0.870481 41.8506 1.05728C39.3857 1.0784 36.9207 1.09952 34.4557 1.12063C34.4545 1.12063 34.4533 1.12063 34.452 1.12063ZM31.7008 1.07193C32.2141 1.04605 32.7275 1.02017 33.2408 0.994294C33.506 1.03299 33.7713 1.07168 34.0366 1.11038C33.4525 1.12014 32.8684 1.12991 32.2843 1.13968C32.0898 1.11709 31.8953 1.09451 31.7008 1.07193ZM8.31763 69.2182C8.43703 69.2596 8.55643 69.301 8.67583 69.3424C9.13846 69.3677 11.3876 69.1875 10.6755 69.1527C9.88955 69.1745 9.10359 69.1964 8.31763 69.2182ZM1.13229 62.9268C1.15316 62.459 1.17403 61.9913 1.19491 61.5235C1.12472 60.9856 1.05453 60.4476 0.984342 59.9097C0.937008 62.2465 0.88247 64.7328 1.08944 64.3319C1.08944 64.8667 1.08944 65.4016 1.08944 65.9364C1.01682 65.5542 0.985518 65.54 0.944511 66.4C0.936407 66.8394 1.03196 67.3919 1.35059 67.9305C1.58249 68.215 2.32667 69.249 3.86371 69.2665C4.49294 69.2603 5.3397 69.2721 6.24963 69.2578C5.45432 69.2532 4.65902 69.2486 3.86371 69.244C2.69052 69.2563 1.56844 68.4607 1.19038 67.3502C1.21017 67.3431 1.22995 67.3361 1.24973 67.3291C1.69632 68.4994 2.52124 68.8462 2.88716 68.9902C3.2835 69.1223 3.34861 69.1058 3.15288 69.0553C2.81833 68.9998 1.15857 68.2522 1.1557 66.4C1.16372 65.7318 1.16065 64.9415 1.13192 64.3393C1.15987 64.2014 1.18783 64.0635 1.21578 63.9257C1.18795 63.5927 1.16012 63.2597 1.13229 62.9268ZM186.638 51.8035C186.617 52.1364 186.595 52.4694 186.574 52.8024C186.849 54.0928 186.588 51.4656 186.806 49.5951C186.641 50.213 186.648 47.3616 186.637 47.1985C186.581 47.5265 186.525 47.8546 186.47 48.1826C186.526 49.3896 186.582 50.5965 186.638 51.8035ZM181.572 60.5262C182.528 59.8654 178.28 63.6232 176.833 64.8591C176.481 65.1596 175.813 65.6485 175.569 65.8765C175.435 66.0313 175.302 66.1861 175.168 66.3409C175.015 66.3954 173.879 67.4243 172.794 68.4297C172.303 68.8746 171.645 69.1214 171.004 69.1253C170.406 69.1421 169.858 69.1598 169.47 69.1735C169.332 69.1385 169.194 69.1035 169.056 69.0684C168.523 69.0824 167.989 69.0963 167.455 69.1102C167.522 69.0753 167.59 69.0404 167.657 69.0054C167.253 69.0474 166.849 69.0894 166.445 69.1314C164.86 69.1781 165.838 68.9878 164.647 69.0472C163.323 69.1131 165.492 69.2265 165.452 69.3002C166.526 69.2812 168.969 69.2386 170.059 69.2365C170.491 69.2357 170.287 69.2984 171.004 69.2875C171.506 69.283 172.224 69.1513 172.899 68.548C173.084 68.3693 173.307 68.1518 173.576 67.8858C174.043 67.5211 174.51 67.1565 174.977 66.7918C175.755 66.0315 176.532 65.2712 177.309 64.5109C177.493 64.4136 177.677 64.3164 177.861 64.2192C177.953 64.1483 179.763 62.4041 179.638 62.4653C180.463 61.8627 182.04 60.4941 183.693 59.0428C183.834 58.8828 183.975 58.7228 184.116 58.5628C182.559 60.013 183.59 58.9894 183.081 59.3706C182.787 59.5907 181.909 60.2881 181.572 60.5262ZM23.1389 69.1109C19.5667 69.2303 21.7784 69.1318 17.9172 69.1318C18.1868 69.195 18.4563 69.2582 18.7259 69.3215C20.6243 69.206 23.748 69.2828 23.1426 69.1109C23.1413 69.1109 23.1401 69.1109 23.1389 69.1109ZM0.942595 49.4627C0.98085 51.5059 1.07918 50.4806 1.11068 53.0706C1.11068 53.0718 1.11068 53.073 1.11068 53.0743C1.11776 51.735 1.12484 50.3957 1.13192 49.0564C1.06881 49.1918 1.0057 49.3272 0.942595 49.4627ZM104.803 69.2446C106.762 69.2721 106.376 69.2229 108.154 69.3211C110.801 69.2019 108.56 69.2188 108.56 69.1105C107.955 69.1423 107.35 69.174 106.745 69.2058C105.278 69.1046 106.669 69.0536 106.669 69.0439C106.668 69.0439 106.667 69.0439 106.666 69.0439C106.666 69.0114 106.713 69.0046 106.15 68.9849C105.701 69.0715 105.252 69.158 104.803 69.2446ZM113.187 69.1109C112.515 69.1828 112.213 69.275 113.979 69.3211C113.98 69.3211 113.982 69.3211 113.983 69.3211C114.125 69.1605 115.818 69.2901 116.59 69.2794C116.793 69.2619 116.995 69.2445 117.198 69.227C115.861 69.1883 114.524 69.1496 113.187 69.1109ZM142.73 68.9633C142.737 69.1408 141.255 69.1576 143.341 69.3211C143.746 69.3179 144.151 69.3148 144.556 69.3116C144.822 69.2727 145.088 69.2337 145.354 69.1948C150.491 69.5158 152.022 68.9692 143.341 69.1735C143.34 69.1737 143.339 69.1738 143.337 69.1739C143.135 69.1037 142.932 69.0335 142.73 68.9633ZM133.682 68.9784C133.617 69.0715 133.552 69.1646 133.487 69.2578C132.352 69.0331 130.887 69.2475 128.662 69.0889C128.461 69.1173 128.259 69.1456 128.058 69.1739C127.227 69.1116 119.06 69.0936 120.829 69.2369C121.602 69.2995 123.284 69.2145 123.429 69.2164C123.92 69.2234 124.56 69.3034 125.388 69.2988C125.867 69.296 126.876 69.2019 127.853 69.2021C130.038 69.2025 134.025 69.455 136.897 69.216C137.104 69.2441 137.311 69.2722 137.517 69.3002C139.649 69.2831 138.937 69.1942 140.92 69.3002C142.29 68.8579 132.948 69.3221 134.894 68.9633C134.892 68.9633 134.891 68.9633 134.89 68.9633C134.487 68.9683 134.085 68.9734 133.682 68.9784ZM74.9975 69.1109C74.8689 69.0315 72.3966 69.1541 72.9775 68.9637C72.1707 69.03 71.3638 69.0963 70.5569 69.1626C70.563 69.1803 70.5692 69.198 70.5754 69.2157C71.3773 69.2017 72.1793 69.1878 72.9812 69.1739C72.9843 69.202 72.9874 69.2301 72.9905 69.2581C74.1855 69.1566 79.1728 69.2008 79.0209 69.3002C79.2874 69.2582 79.5539 69.2163 79.8204 69.1743C82.206 69.2886 84.2583 69.167 86.8571 69.2786C87.0584 69.2439 87.2597 69.2091 87.4609 69.1743C87.592 69.2023 87.7231 69.2304 87.8542 69.2585C88.8008 69.262 89.7474 69.2656 90.694 69.2691C93.7787 69.1561 87.7851 69.0097 87.0584 69.0263C86.9618 69.0286 86.9768 69.1013 86.3734 69.1127C85.3016 69.1328 79.3026 69.0604 77.4477 69.1084C77.4317 69.0601 77.4157 69.0119 77.3997 68.9637C76.599 69.0128 75.7983 69.0618 74.9975 69.1109ZM154.193 69.153C154.328 69.2021 154.463 69.2512 154.599 69.3002C156.936 69.2512 158.407 69.2941 157.808 69.1318C157.807 69.1318 157.805 69.1318 157.804 69.1318C156.6 69.1389 155.396 69.146 154.193 69.153ZM98.3604 1.20523C98.4217 1.30277 99.5388 1.33924 100.982 1.26931C100.913 1.24099 100.843 1.21267 100.774 1.18435C100.021 1.26742 99.0827 1.12264 96.7614 1.14187C96.7614 1.19094 96.7614 1.24001 96.7614 1.28909C97.2944 1.26113 97.8274 1.23318 98.3604 1.20523ZM152.176 69.1318C151.464 69.0739 149.465 69.2495 150.78 69.2581C151.786 69.2647 152.558 69.1629 152.176 69.1318ZM1.03744 41.4252C1.02719 41.9532 1.01693 42.4813 1.00668 43.0094C1.04843 43.2845 1.09017 43.5596 1.13192 43.8348C1.13192 43.8335 1.13192 43.8323 1.13192 43.8311C1.10043 43.0291 1.06893 42.2271 1.03744 41.4252ZM98.1055 69.2526C99.8966 69.2465 101.688 69.2404 103.479 69.2343C103.496 69.2071 103.514 69.1799 103.532 69.1527C101.738 69.252 101.017 69.1449 100.598 69.1384C100.6 69.1384 100.602 69.1384 100.604 69.1384C99.2604 69.1168 97.9806 69.101 96.7096 69.0684C97.1749 69.1298 97.6402 69.1912 98.1055 69.2526ZM91.9662 69.0809C92.2679 69.2732 92.6619 69.2956 95.4135 69.1604C95.3045 69.1367 95.1956 69.113 95.0866 69.0893C93.6609 69.1035 92.8292 69.1479 93.0796 69.0476C92.7085 69.0587 92.3373 69.0698 91.9662 69.0809ZM120.013 69.1424C119.683 69.0812 117.063 69.1427 117.205 69.1735C117.261 69.1858 120.657 69.2625 120.013 69.1424ZM78.4652 1.2477C79.069 1.26174 79.6728 1.27578 80.2766 1.28982C79.4734 1.31069 78.6702 1.33156 77.867 1.35244C78.0664 1.31753 78.2658 1.28262 78.4652 1.2477ZM71.8366 1.52126C71.4062 1.49674 72.8055 1.32382 70.232 1.2792C72.1049 1.27554 73.9778 1.27187 75.8507 1.26821C74.9724 1.29616 74.0941 1.32412 73.2158 1.35207C73.3691 1.40175 73.5224 1.45143 73.6756 1.50111C73.0626 1.50783 72.4496 1.51454 71.8366 1.52126ZM69.8258 1.39455C70.8344 1.52598 65.5236 1.53585 65.0288 1.51979C64.9186 1.51597 64.3947 1.41633 64.2016 1.39492C65.0035 1.39479 65.8055 1.39467 66.6075 1.39455C66.3392 1.36318 66.0708 1.33181 65.8024 1.30044C66.741 1.2897 67.6796 1.27895 68.6182 1.26821C68.217 1.2997 67.8157 1.3312 67.4144 1.36269C68.2182 1.37331 69.022 1.38393 69.8258 1.39455ZM91.1335 1.36269C90.4621 1.3594 89.7906 1.3561 89.1191 1.3528C89.2533 1.40187 89.3874 1.45095 89.5216 1.50002C89.9235 1.50002 90.3254 1.50002 90.7273 1.50002C90.8627 1.45424 90.9981 1.40847 91.1335 1.36269ZM77.4515 1.42604C78.4291 1.18978 81.0932 1.7063 77.9796 1.51503C77.6659 1.49559 77.359 1.44887 77.4515 1.42604ZM63.0384 1.49159C60.9505 1.66385 61.4217 1.28353 63.3929 1.39492C63.492 1.40084 63.1951 1.47887 63.0384 1.49159ZM47.3844 1.49709C47.2152 1.49581 46.9196 1.37267 45.3053 1.48976C45.0388 1.47572 44.7723 1.46169 44.5058 1.44765C45.1295 1.39043 50.4646 1.3564 49.7275 1.47841C48.9109 1.48031 48.2291 1.50089 47.3844 1.49709ZM52.5507 1.95264C53.3514 1.94922 54.1521 1.9458 54.9529 1.94239C54.6888 1.90381 54.4248 1.86524 54.1607 1.82667C54.5547 1.81617 54.9485 1.80567 55.3425 1.79517C56.0158 1.8617 56.6891 1.92823 57.3624 1.99475C55.6219 2.00537 53.8813 2.01599 52.1408 2.02661C52.2774 2.00195 52.414 1.9773 52.5507 1.95264ZM73.8399 2.04785C72.2992 1.99945 70.4114 2.05097 67.9092 2.04272C67.908 2.0426 67.9068 2.04248 67.9055 2.04236C67.7807 2.0418 67.5595 1.98881 67.1577 1.9867C66.8153 1.98501 60.0575 2.0432 60.5845 1.95337C63.1992 1.87286 64.176 1.99527 64.8035 1.79554C64.9309 1.83765 65.0583 1.87977 65.1857 1.92188C67.7001 1.9948 68.4175 1.84901 69.8295 1.79554C69.824 1.82728 69.8184 1.85901 69.8129 1.89075C70.7558 1.89392 71.6987 1.8971 72.6416 1.90027C72.5087 1.8794 72.3757 1.85853 72.2428 1.83765C72.5764 1.83765 72.9099 1.83765 73.2435 1.83765C74.0561 1.9317 75.0864 1.95361 73.8399 2.04785ZM48.9187 1.90027C48.1785 2.141 40.9652 1.97611 37.6703 2.02661C39.4002 1.88166 42.08 1.98155 43.9666 1.98303C47.6138 1.98577 45.0928 1.89705 45.7115 1.85816C46.0172 1.83893 48.086 1.99327 48.9187 1.90027ZM79.4678 2.00574C77.6495 1.98629 76.6315 2.04172 75.0586 1.95337C75.1903 1.93579 75.322 1.91822 75.4537 1.90064C75.9924 1.91673 80.3845 1.9675 79.4678 2.00574ZM32.8419 1.96362C36.3539 2.05007 34.6216 1.83211 36.448 1.99548C35.246 2.00586 34.0439 2.01624 32.8419 2.02661C32.8419 2.00562 32.8419 1.98462 32.8419 1.96362ZM148.157 68.2262C146.677 68.2207 145.024 68.1767 144.139 68.2676C145.144 68.2816 146.15 68.2956 147.156 68.3097C147.489 68.2818 147.823 68.254 148.157 68.2262ZM184.803 54.418C184.795 54.5383 184.798 54.785 184.805 55.0593C184.82 55.3361 184.676 55.6345 184.506 55.7872C184.385 55.9016 184.297 55.9859 184.269 56.0107C184.072 56.1838 184.105 56.1128 184.097 56.109C182.816 57.246 184.066 56.2747 183.13 57.1287C182.97 57.2746 180.705 59.2069 179.8 60.0107C178.407 61.2473 177.008 62.4727 176.487 62.9343C175.608 63.7134 174.021 65.2111 172.575 66.491C172.21 66.8139 171.976 66.9915 171.712 67.2024C171.54 67.3379 171.314 67.4481 171.004 67.4513C170.993 67.4513 170.982 67.4513 170.971 67.4513C165.834 67.4612 155.72 67.5422 151.163 67.5048C150.036 67.4955 148.963 67.4183 148.367 67.4246C147.897 67.4528 147.428 67.481 146.958 67.5092C145.514 67.2553 145.031 67.4811 143.474 67.5048C142.485 67.5197 142.023 67.4445 141.89 67.4447C141.009 67.4462 140.574 67.482 139.883 67.4879C139.106 67.4945 137.991 67.4605 137.713 67.4667C137.543 67.4708 138.087 67.5707 135.075 67.5688C132.005 67.5669 128.974 67.5563 125.852 67.5516C126.893 67.8534 127.79 67.6469 129.065 67.6359C129.406 67.6329 129.19 67.6808 129.487 67.6787C130.328 67.673 131.938 67.6259 132.634 67.6373C133.385 67.6496 133.128 67.7607 134.081 67.7197C134.129 67.7176 133.977 67.6717 134.201 67.6641C136.454 67.5882 137.191 67.668 140.04 67.6703C141.927 67.672 153.387 67.6265 153.781 67.6564C155.832 67.817 143.756 67.8181 142.344 67.8054C141.85 67.801 142.368 67.7503 141.917 67.7406C141.727 67.7367 140.01 67.8333 138.313 67.8413C136.262 67.851 132.139 67.7852 130.183 67.7875C113.376 67.8075 96.8018 67.7492 80.0106 67.7479C79.6525 67.7479 79.1811 67.8058 78.0146 67.8058C56.2428 67.8047 33.6777 67.7591 11.6283 67.7864C9.03502 67.7896 6.45329 67.8069 3.86371 67.8154C3.11008 67.8351 2.42754 67.1573 2.44447 66.4C2.44186 64.7099 2.44497 63.0148 2.46013 61.3093C2.41789 60.7074 2.37566 60.1054 2.33342 59.5035C2.367 61.0432 2.27147 63.8645 2.27007 64.1214C2.26965 64.2139 2.31727 64.7977 2.31475 65.7389C2.31412 65.9842 2.31219 66.204 2.30946 66.4C2.31046 67.0827 2.69592 67.5025 2.96516 67.6978C3.24843 67.8992 3.45117 67.9376 3.51732 67.9558C3.76529 68.005 3.82307 67.9807 3.86371 67.9738C3.89331 67.9623 3.91123 67.95 4.08193 67.9501C6.47956 67.952 8.33467 67.9395 10.5352 67.9391C13.021 67.9387 14.2809 68.0205 16.0911 67.9307C16.296 67.9657 16.501 68.0007 16.7059 68.0358C18.0584 67.8842 26.1119 67.901 29.3742 67.909C30.4036 67.9116 30.223 67.9731 30.5689 67.9731C30.7897 67.9731 30.7026 67.8925 33.3958 67.9083C34.7515 67.9164 35.107 67.975 35.7869 67.9731C36.1563 67.972 36.0963 67.9138 36.627 67.9138C39.6963 67.9138 42.2025 67.9327 45.2073 67.9435C46.0521 67.9464 46.0615 67.995 46.2506 67.9944C46.9467 67.9922 48.1574 67.9099 49.9268 67.9101C52.8393 67.9106 58.644 67.9109 61.0256 67.9508C61.3756 67.9567 61.6656 68.015 61.923 68.0141C62.3128 68.0127 62.4657 67.9519 62.5342 67.9515C63.8376 67.9505 63.0534 68.007 63.9264 67.9933C64.397 67.9859 64.8877 67.9165 65.9814 67.9087C67.4257 67.8983 67.1413 67.9806 67.7448 67.9724C67.8085 67.9711 67.8275 67.9139 68.4206 67.912C70.6693 67.9052 73.9314 67.892 76.0592 67.8922C76.6706 67.8922 77.1252 67.9307 77.9777 67.9314C79.6954 67.9327 89.4593 67.9081 90.2601 67.9303C90.3446 67.9326 89.4763 68.0171 90.8602 68.0145C91.2621 67.9794 91.664 67.9442 92.0659 67.909C92.738 67.9653 93.4101 68.0216 94.0822 68.0779C94.0581 67.8834 98.012 67.8534 97.9726 68.0522C98.4053 68.0603 98.8379 68.0683 99.2706 68.0764C100.172 67.939 100.772 67.9897 102.513 67.909C102.784 67.9512 103.056 67.9933 103.327 68.0354C103.396 68.0073 103.464 67.9792 103.532 67.9512C104.461 68.1033 105.986 67.9505 106.171 67.9497C106.882 67.9463 107.417 67.985 107.751 67.9838C108.998 67.9797 111.698 67.9265 113.154 67.9512C113.222 67.9524 113.155 68.0175 113.569 68.0255C114.317 68.04 114.39 67.9448 115.386 68.0566C115.587 68.0285 115.789 68.0005 115.99 67.9724C116.204 67.9869 116.417 68.0015 116.631 68.016C117.891 68.0085 119.152 68.0011 120.412 67.9936C119.266 68.1038 120.585 68.1653 121.832 68.0786C122.254 68.0492 121.88 67.9822 122.02 67.972C122.214 67.9583 127.871 67.9924 128.245 68.0358C128.512 68.0146 128.78 67.9935 129.048 67.9724C129.183 68.0146 129.319 68.0569 129.454 68.0991C129.602 68.0843 129.75 68.0696 129.897 68.0548C131.369 68.1292 135.191 67.9586 135.883 67.972C136.253 67.9792 135.921 68.1592 137.695 68.1409C137.756 68.0914 137.818 68.042 137.879 67.9925C138.286 67.9855 138.692 67.9784 139.098 67.9713C139.86 67.9757 140.97 68.0614 141.005 68.12C141.244 68.0848 141.482 68.0497 141.72 68.0145C142.359 68.1291 145.771 68.0885 147.143 68.016C147.544 68.0505 147.945 68.0851 148.347 68.1196C148.886 68.0776 149.425 68.0356 149.964 67.9936C151.213 67.981 149.894 68.0508 150.16 68.0566C150.723 68.0687 153.593 67.9508 153.404 68.0976C153.796 68.098 154.187 68.0984 154.578 68.0987C154.78 68.0567 154.981 68.0148 155.182 67.9728C155.854 68.1175 157.017 68.0664 159.401 68.1192C159.601 68.0859 159.801 68.0526 160.001 68.0193C160.739 68.0666 161.476 68.114 162.213 68.1614C162.365 68.1062 162.516 68.051 162.668 67.9958C162.988 67.9879 163.309 67.98 163.63 67.972C164.281 68.0956 165.451 67.9621 166.047 68.013C166.916 68.0874 166.244 68.1761 164.63 68.1932C164.751 68.2832 169.556 68.2419 170.664 68.2353C170.591 68.2178 170.518 68.2002 170.445 68.1826C169.312 68.1965 168.179 68.2104 167.045 68.2243C166.096 67.998 169.173 68.0587 170.585 68.0295C170.635 68.0285 170.773 68.0152 171.004 67.9997C171.292 67.988 171.689 67.8929 172.039 67.5729C172.267 67.3573 172.547 67.101 172.885 66.8063C173.301 66.4442 174.996 65.1163 175.308 64.8501C177.832 62.7012 175.886 64.1785 178.421 62.1518C177.835 62.5086 179.298 61.3515 180.737 60.0515C180.982 59.8302 183.017 57.9058 183.157 57.7788C184.03 56.9875 183.138 57.9159 184.399 56.7672C184.534 56.6107 184.669 56.4542 184.805 56.2977C184.833 56.2727 184.861 56.2477 184.89 56.2227C185.22 55.9337 185.417 55.4986 185.415 55.0593C185.415 54.9828 185.415 54.9063 185.415 54.8297C185.664 52.4208 185.481 51.8604 185.457 51.004C185.447 50.658 185.512 51.1034 185.499 50.2063C185.494 49.8685 185.44 49.4939 185.436 48.5851C185.424 45.7414 185.655 44.776 185.415 42.1614C185.449 41.7601 185.484 41.3588 185.519 40.9576C185.477 40.6867 185.436 40.4159 185.394 40.1451C185.515 38.0738 185.391 38.8217 185.392 38.0734C185.396 36.0981 185.42 32.0554 185.52 31.7014C185.29 29.9961 185.549 27.957 185.54 27.2848C185.513 26.8853 185.485 26.4859 185.457 26.0865C185.485 25.6169 185.513 25.1472 185.541 24.6776C185.315 24.9059 185.537 22.4738 185.54 22.2404C185.544 21.9709 185.477 18.2302 185.478 16.8377C185.479 15.4472 185.541 13.024 185.541 12.8107C185.541 12.5653 185.479 10.1984 185.48 8.34786C185.48 7.72775 185.493 5.9383 185.503 4C185.53 3.13201 184.739 2.33194 183.864 2.35288C181.251 2.34258 178.864 2.34465 179.175 2.39647C179.802 2.42437 180.696 2.44855 181.468 2.46166C181.912 2.4691 182.758 2.47693 183.864 2.48485C184.591 2.46168 185.384 3.12293 185.369 4C185.337 9.16791 185.306 17.4592 185.294 20.1004C185.262 27.313 185.268 34.8354 185.246 42.0802C185.245 42.5064 185.187 42.5713 185.185 42.9369C185.184 43.4921 185.242 44.9009 185.241 45.4481C185.236 47.4916 185.226 49.9781 185.225 51.0723C185.223 52.6325 185.208 53.8801 185.196 55.0593C185.194 55.4405 185.021 55.809 184.739 56.0523C184.454 56.2997 184.17 56.5469 183.881 56.8C183.446 57.1818 181.297 59.1734 179.772 60.4781C179.488 60.7064 179.204 60.9346 178.92 61.1628C179.683 60.4646 181.685 58.633 182.625 57.7959C183.561 56.9631 184.213 56.4141 184.697 56.0047C185 55.7444 185.122 55.4036 185.134 55.1149C185.135 55.0979 185.135 55.0794 185.135 55.0593C185.132 54.3886 185.081 51.5325 185.079 50.2155C185.079 49.7971 185.14 49.7113 185.14 49.3532C185.139 47.4103 185.137 44.8513 185.077 43.1659C185.097 43.8538 185.134 39.558 185.134 39.3327C185.134 38.9466 185.077 38.5276 185.077 37.7392C185.077 36.2232 185.197 36.4155 185.077 34.5209C185.112 34.0519 185.147 33.5829 185.182 33.1139C185.021 33.0851 185.239 27.1589 185.045 25.4734C185.023 25.4292 184.96 33.1301 184.957 33.7657C184.938 37.5792 184.977 43.2225 184.949 46.9234C184.941 48.0372 184.843 51.5392 184.845 51.8035C184.848 52.2296 184.904 51.8447 184.905 52.0287C184.947 55.7969 184.835 53.9169 184.803 54.418ZM69.8295 2.15332C70.9743 2.15991 72.1191 2.1665 73.2638 2.17309C73.1807 2.20825 73.0977 2.2434 73.0146 2.27856C72.4902 2.26489 71.9658 2.25121 71.4414 2.23754C71.0383 2.25854 70.6351 2.27953 70.232 2.30053C70.0979 2.25146 69.9637 2.20239 69.8295 2.15332ZM67.0082 2.30053C66.0154 2.31823 65.9669 2.2441 65.7378 2.24047C65.0541 2.22948 64.4627 2.25946 63.7991 2.25842C64.5634 2.08232 66.1915 2.16302 67.0082 2.30053ZM87.5127 2.36388C87.2889 2.35546 85.7946 2.16587 84.095 2.34228C82.8234 2.28625 81.5518 2.23022 80.2803 2.17419C82.4406 2.25979 85.4299 2.17081 86.4879 2.17419C86.8897 2.17548 86.9664 2.23367 87.2874 2.23461C89.1379 2.23926 90.9371 2.1074 91.1261 2.30016C89.3762 2.24415 87.7983 2.37424 87.5127 2.36388ZM76.3455 2.2954C76.0495 2.25512 75.7535 2.21484 75.4574 2.17456C76.5271 2.17456 77.5968 2.17456 78.6665 2.17456C78.3772 2.21533 78.088 2.2561 77.7987 2.29687C77.3143 2.29638 76.8299 2.29589 76.3455 2.2954ZM158.639 2.4287C157.979 2.42821 157.319 2.42772 156.659 2.42723C156.696 2.45659 157.45 2.45648 157.729 2.4763C157.727 2.4763 157.726 2.4763 157.725 2.4763C158.035 2.49871 157.902 2.53651 158.465 2.55321C158.523 2.5117 158.581 2.4702 158.639 2.4287ZM2.45939 58.704C2.46151 57.598 2.46172 47.385 2.35466 48.2551C2.30119 48.6936 2.34782 52.1866 2.34697 53.2164C2.34589 54.6047 2.2301 58.3541 2.45939 58.704ZM2.48027 40.6164C2.37358 40.4395 2.35661 46.8223 2.37517 47.4464C2.39038 47.3138 2.42425 47.1096 2.43193 46.933C2.4687 46.0722 2.45111 41.9924 2.48027 40.6164ZM185.127 14.153C185.181 13.6385 185.235 13.124 185.289 12.6094C185.219 12.7448 185.149 12.8802 185.078 13.0156C185.095 13.3948 185.111 13.7739 185.127 14.153ZM178.632 61.4608C176.384 63.4415 174.136 65.4221 171.889 67.4028C171.647 67.6166 171.327 67.7377 171.004 67.7367C165.669 67.7346 160.334 67.7325 154.999 67.7303C155.753 67.7012 156.507 67.672 157.261 67.6428C161.753 67.6491 166.427 67.6625 171.004 67.6619C171.309 67.6627 171.612 67.548 171.839 67.3463C173.864 65.5587 175.856 63.7928 177.77 62.0835C178.057 61.8759 178.345 61.6684 178.632 61.4608ZM89.9278 2.67991C92.1241 2.68096 93.9585 2.62941 96.3478 2.7114C94.0709 2.79088 92.9436 2.66792 90.731 2.78501C90.7298 2.78501 90.7286 2.78501 90.7273 2.78501C90.4608 2.74998 90.1943 2.71494 89.9278 2.67991ZM138.961 2.70115C138.294 2.75022 137.626 2.79929 136.958 2.84836C137.761 2.84836 138.564 2.84836 139.368 2.84836C139.232 2.79929 139.097 2.75022 138.961 2.70115ZM105.945 67.4678C103.648 67.5749 97.7716 67.381 95.9046 67.5099C95.7839 67.5183 96.8938 67.5727 95.0995 67.678C96.4549 67.6564 97.4118 67.6344 97.5128 67.5516C97.9154 67.5797 98.3179 67.6078 98.7204 67.6359C99.3882 67.6146 100.056 67.5934 100.724 67.5721C100.651 67.6546 100.704 67.6502 101.73 67.5938C102.198 67.6146 102.666 67.6355 103.133 67.6564C103.332 67.6215 103.53 67.5865 103.728 67.5516C104.133 67.6005 104.538 67.6493 104.943 67.6981C106.521 67.6451 105.56 67.5505 105.945 67.4678ZM113.987 67.4879C113.613 67.4698 102.963 67.529 107.803 67.6934C109.061 67.6881 110.319 67.6829 111.577 67.6776C110.535 67.4054 113.964 67.6488 114.245 67.6545C115.592 67.6811 117.309 67.6164 118.287 67.6198C119.128 67.6227 119.627 67.6715 120.218 67.6703C122.232 67.6661 125.414 67.6643 125.852 67.5516C124.286 67.5493 122.696 67.5481 121.068 67.5509C119.346 67.5539 117.832 67.4475 114.598 67.5934C113.798 67.5777 114.083 67.4926 113.987 67.4879ZM134.947 2.83701C135.028 2.72386 130.963 2.75092 130.937 2.79563C130.929 2.82184 132.253 2.82122 132.442 2.83115C132.443 2.83115 132.444 2.83115 132.445 2.83115C132.524 2.83549 132.124 2.8788 132.746 2.89084C133.48 2.8729 134.214 2.85496 134.947 2.83701ZM10.4816 67.5513C10.2121 67.5201 7.05471 67.5098 3.86371 67.5109C3.26653 67.5258 2.7361 66.9834 2.75141 66.4C2.74736 63.6708 2.73572 61.2757 2.72269 61.1173C2.71425 61.0169 2.6864 61.1569 2.67033 61.1173C2.7176 62.6626 2.7104 64.5518 2.69203 66.4C2.67148 67.0334 3.24214 67.5997 3.86371 67.5892C4.9543 67.6021 5.98895 67.6146 6.88111 67.6168C7.65596 67.6187 7.42439 67.5737 7.46827 67.5729C7.47012 67.5729 7.47196 67.5729 7.47381 67.5729C7.9135 67.5728 9.89852 67.6827 10.4816 67.5513ZM91.8849 67.5615C92.4186 67.5792 92.9522 67.5969 93.4858 67.6146C93.6212 67.5796 93.7566 67.5446 93.892 67.5095C93.8908 67.5095 93.8895 67.5095 93.8883 67.5095C93.2205 67.5269 92.5527 67.5442 91.8849 67.5615ZM73.3967 67.4462C73.5265 67.4708 73.6564 67.4955 73.7863 67.5201C75.1299 67.5236 76.4734 67.527 77.817 67.5304C77.6816 67.5443 77.5462 67.5582 77.4108 67.5721C79.4424 67.6093 80.2837 67.5227 81.3659 67.5352C81.3646 67.5352 81.3634 67.5352 81.3622 67.5352C81.4787 67.5366 81.6196 67.588 82.0527 67.5897C83.0459 67.5937 85.8927 67.6129 86.2367 67.5612C86.9647 67.4509 81.2358 67.5032 80.1675 67.4982C79.6848 67.4958 79.1041 67.4509 78.8104 67.4498C78.4887 67.4489 78.0504 67.5096 77.2668 67.5077C77.0375 67.5071 74.4952 67.4356 73.3967 67.4462ZM49.6812 67.5198C50.0956 67.5754 50.9606 67.5217 51.2784 67.5308C51.3543 67.5329 50.7638 67.5794 51.4796 67.5934C51.6821 67.5616 51.8846 67.5299 52.0871 67.4982C51.2851 67.5054 50.4832 67.5126 49.6812 67.5198ZM128.117 2.89048C128.234 2.9024 130.417 2.89804 130.521 2.89048C131.829 2.78903 127.309 2.80002 128.117 2.89048ZM73.0441 3.00656C74.048 3.15402 62.1376 3.00905 60.9833 3.01682C61.041 2.92414 63.8743 3.01732 62.3903 2.89011C63.8063 2.96007 67.721 2.92292 68.6423 2.94321C69.2013 2.95547 69.3425 3.03552 69.427 3.03805C69.7585 3.04707 72.6902 2.95459 73.0441 3.00656ZM51.1418 2.95383C52.2737 2.97141 53.4055 2.98898 54.5374 3.00656C53.2019 3.01706 51.8662 3.02756 50.5307 3.03805C50.7344 3.00998 50.9381 2.9819 51.1418 2.95383ZM49.7182 2.99594C49.7545 3.08577 45.9125 3.01734 44.9028 3.03805C46.0412 2.88525 47.9402 3.02931 49.7182 2.99594ZM113.641 3.12228C115.412 3.18167 116.172 2.90786 114.02 3.02707C113.955 3.03101 113.568 3.11913 113.641 3.12228ZM105.399 67.0825C105.097 67.0808 101.343 66.9921 101.126 67.036C100.439 67.1763 102.903 67.12 103.728 67.173C105.059 67.2588 103.101 67.3295 106.352 67.2777C106.219 67.3058 106.086 67.3339 105.953 67.3619C107.855 67.3712 107.233 67.1768 107.574 67.1517C107.679 67.1441 108.868 67.1605 109.083 67.1481C111.763 66.9914 105.679 67.0838 105.399 67.0825ZM157.459 3.14315C160.983 3.22558 159.467 3.10464 163.083 3.11203C163.204 3.05031 157.918 3.08905 157.459 3.14315ZM139.713 67.1935C136.068 67.2178 133.071 67.1371 129.672 67.2455C129.893 67.4125 140.658 67.2366 139.713 67.1935ZM3.2394 32.5789C3.01834 43.1204 3.01571 54.8645 3.03083 66.4C3.02061 66.844 3.42196 67.2426 3.86371 67.2307C7.31504 67.2258 10.7419 67.2202 14.1062 67.2191C15.7515 67.2187 15.9093 67.2849 16.5047 67.2777C16.8947 67.2731 16.8265 67.2197 17.3448 67.2195C36.0793 67.2108 54.0178 67.1411 71.9639 67.173C73.0943 67.1751 78.5937 67.2896 79.7687 67.117C80.6573 66.986 76.7066 67.0881 76.0481 67.0869C75.5534 67.0861 75.5323 67.0245 75.2025 67.0243C74.8525 67.0241 75.1416 67.0662 74.7353 67.0668C73.0137 67.0697 71.135 67.0533 69.5783 67.0569C54.3115 67.0914 39.4589 67.0815 24.2726 67.0756C22.4343 67.0749 22.8123 67.0256 22.7197 67.0254C22.7185 67.0255 22.7173 67.0257 22.716 67.0258C16.7785 67.023 10.3328 67.062 3.86371 67.0843C3.49974 67.0955 3.16674 66.767 3.17441 66.4C3.16333 62.6538 3.15947 58.913 3.17422 55.2715C3.20815 47.9203 3.24208 40.569 3.27602 33.2178C3.26381 33.0049 3.25161 32.7919 3.2394 32.5789ZM113.182 67.2565C112.264 67.0705 112.059 67.258 108.769 67.1821C108.501 67.2139 108.233 67.2456 107.965 67.2774C109.706 67.2704 111.447 67.2634 113.187 67.2565C113.185 67.2565 113.183 67.2565 113.182 67.2565ZM91.4473 67.1887C90.8912 66.9375 83.5326 67.1151 80.2192 67.0672C79.6119 67.1933 84.4287 67.1366 85.5646 67.1499C86.1318 67.1565 89.1696 67.2862 91.4787 67.2144C91.4683 67.2058 91.4578 67.1973 91.4473 67.1887ZM85.5056 3.37569C86.0411 3.36837 86.5766 3.36104 87.112 3.35372C85.7721 3.32589 84.4323 3.29806 83.0924 3.27023C85.2299 3.28817 87.3675 3.30611 89.505 3.32406C89.1068 3.37618 88.7086 3.4283 88.3104 3.48042C87.3754 3.44551 86.4406 3.4106 85.5056 3.37569ZM92.4408 3.34896C88.6976 3.36859 92.6052 3.22905 93.5394 3.2911C94.0986 3.3283 92.823 3.34684 92.4408 3.34896ZM102.177 3.43868C100.431 3.53019 96.9033 3.53649 98.1573 3.35372C100.044 3.43932 101.26 3.36819 103.996 3.41744C103.596 3.45247 103.197 3.4875 102.797 3.52254C102.796 3.52254 102.794 3.52254 102.792 3.52254C102.587 3.49458 102.382 3.46663 102.177 3.43868ZM90.731 3.45955C88.2793 3.35455 95.3772 3.39045 93.1461 3.45955C93.0415 3.46272 90.8276 3.46357 90.731 3.45955ZM3.42836 48.2551C3.36864 47.9597 3.36975 49.8454 3.36574 50.4726C3.34799 53.1919 3.37398 56.6793 3.36574 59.5072C3.38539 59.2943 3.40504 59.0813 3.4247 58.8683C3.42592 55.3306 3.42714 51.7928 3.42836 48.2551ZM4.24626 66.8983C6.18931 66.8983 8.13237 66.8983 10.0754 66.8983C10.2565 66.8983 11.1058 66.8471 10.4742 66.8346C8.39825 66.8559 6.32226 66.8771 4.24626 66.8983ZM125.447 66.8983C123.958 66.8649 128.248 66.6935 128.055 66.8771C127.185 66.8842 126.316 66.8913 125.447 66.8983ZM139.31 66.8251C138.376 66.8426 137.442 66.86 136.507 66.8775C136.506 66.8563 136.505 66.8352 136.504 66.8141C137.439 66.8178 138.375 66.8214 139.31 66.8251ZM3.47047 40.6164C3.39821 41.6061 3.40933 43.967 3.40785 45.4393C3.46994 44.4252 3.43941 42.0081 3.47047 40.6164ZM103.126 66.8244C103.247 66.8736 97.3205 66.8612 99.3722 66.7746C100.623 66.7912 101.875 66.8078 103.126 66.8244ZM91.0891 66.7515C92.3602 66.7407 93.3447 66.7576 93.0833 66.835C92.4093 66.8317 91.7354 66.8284 91.0614 66.8251C91.0707 66.8006 91.0799 66.776 91.0891 66.7515ZM108.822 3.58589C110.964 3.57893 113.106 3.57197 115.248 3.56502C115.168 3.58613 115.089 3.60725 115.01 3.62837C112.945 3.6352 110.88 3.64204 108.815 3.64888C108.817 3.62788 108.82 3.60688 108.822 3.58589ZM3.66016 39.4052C3.64637 37.9342 3.63258 36.4632 3.61878 34.9922C3.60462 36.4644 3.59046 37.9367 3.5763 39.4089C3.60438 39.4089 3.63245 39.4089 3.66053 39.4089C3.66041 39.4076 3.66028 39.4064 3.66016 39.4052ZM79.4808 3.85944C86.024 3.95792 77.6751 4.06203 75.9485 3.9173C75.9467 3.91742 75.9449 3.91754 75.943 3.91767C75.7919 3.90488 76.1115 3.84302 75.8599 3.81806C76.5259 3.84601 77.1918 3.87397 77.8577 3.90192C78.4652 3.86713 79.0727 3.83234 79.6802 3.79755C79.8802 3.81122 80.0802 3.8249 80.2803 3.83857C80.0137 3.84553 79.7473 3.85248 79.4808 3.85944ZM53.0732 3.91437C47.1402 3.90295 53.2109 3.74827 56.1475 3.87043C56.1264 3.8987 53.6198 3.91543 53.0732 3.91437ZM68.6219 3.88105C69.5568 3.86701 70.4918 3.85297 71.4267 3.83893C71.5461 3.85663 71.6655 3.87433 71.7849 3.89203C71.0672 3.90961 70.3496 3.92719 69.6319 3.94477C69.2953 3.92353 68.9586 3.90229 68.6219 3.88105ZM99.3686 4.15423C100.873 4.17368 102.792 3.97687 97.9616 4.02862C97.9641 4.04974 97.9665 4.07086 97.969 4.09198C98.1616 4.0886 98.7265 4.0688 98.7574 4.07037C98.8459 4.07565 98.7415 4.14617 99.3686 4.15423ZM42.087 4.47063C41.9181 4.47866 41.826 4.70141 40.0688 4.47099C39.5377 4.48503 39.0065 4.49907 38.4754 4.51311C38.3381 4.46404 38.2009 4.41497 38.0636 4.36589C40.1193 4.40394 40.3373 4.30466 40.4861 4.30254C41.1695 4.29325 40.6638 4.34432 41.1047 4.34502C42.243 4.34671 44.8297 4.31242 43.6564 4.45818C43.234 4.51038 42.2559 4.4626 42.087 4.47063ZM46.1066 4.59733C45.8573 4.57874 46.6605 4.51358 46.4722 4.49516C46.3073 4.4791 43.8297 4.41262 44.5003 4.30254C44.9071 4.30718 45.3139 4.31182 45.7207 4.31646C45.8586 4.34661 45.9965 4.37676 46.1343 4.40691C46.5282 4.37908 46.9222 4.35125 47.316 4.32342C47.9799 4.39781 49.3924 4.49419 47.7149 4.55485C48.3316 4.54851 48.9483 4.54216 49.565 4.53581C49.8844 4.50017 50.2039 4.46452 50.5233 4.42888C50.3559 4.4832 50.1885 4.53752 50.0211 4.59184C48.7162 4.59367 47.4115 4.5955 46.1066 4.59733ZM26.9888 4.57646C27.0639 4.54838 27.1389 4.52031 27.214 4.49223C24.9491 4.54443 21.422 4.56427 23.4252 4.38823C26.4933 4.37358 29.5615 4.35894 32.6296 4.34429C32.8333 4.36541 33.037 4.38652 33.2408 4.40764C30.9519 4.32628 31.6592 4.6725 29.6679 4.57316C29.3322 4.55632 30.3064 4.43525 28.1963 4.51274C28.2714 4.54094 28.3465 4.56914 28.4216 4.59733C27.944 4.59038 27.4664 4.58342 26.9888 4.57646ZM7.51822 4.53435C11.3963 4.57493 7.12457 4.67738 6.40853 4.59221C6.40976 4.59221 6.41098 4.59221 6.41223 4.59221C4.44977 4.35913 8.66959 4.47174 8.92704 4.47026C9.26925 4.4682 10.0662 4.30133 11.9275 4.5446C10.4577 4.54118 8.98797 4.53776 7.51822 4.53435ZM20.1792 4.57609C19.8533 4.58159 20.0337 4.53921 19.893 4.53984C19.8917 4.53984 19.8905 4.53984 19.8893 4.53984C17.8135 4.54893 12.8761 4.58687 12.3411 4.45012C13.8777 4.43871 20.7531 4.40916 21.1688 4.50212C20.8389 4.52678 20.5091 4.55144 20.1792 4.57609ZM34.7862 4.47429C36.0606 4.56283 33.1916 4.57461 32.4394 4.53361C32.2974 4.52473 33.466 4.38258 34.7862 4.47429ZM132.541 4.7028C135.345 4.64954 131.661 4.59638 132.937 4.51311C132.401 4.52019 131.866 4.52727 131.33 4.53435C131.734 4.5905 132.138 4.64665 132.541 4.7028ZM165.838 65.5291C165.184 65.5193 165.494 65.5701 165.437 65.5709C165.008 65.5694 164.603 65.528 164.438 65.5324C161.392 65.616 163.418 65.6587 163.449 65.6686C163.513 65.7189 162.712 65.7778 163.822 65.8353C164.495 65.8174 165.168 65.7996 165.842 65.7818C166.176 65.8097 166.51 65.8377 166.844 65.8657C168.182 65.8057 166.431 65.7892 166.233 65.7097C166.157 65.6784 167.415 65.6409 165.838 65.5291ZM137.566 4.87125C138.02 4.7829 139.134 4.67146 138.04 4.58269C138.039 4.58269 138.038 4.58269 138.036 4.58269C137.834 4.56645 137.01 4.55751 136.757 4.53471C134.952 4.65241 135.643 4.77405 137.566 4.87125ZM174.965 61.535C175.793 60.8324 176.621 60.1297 177.449 59.4271C177.47 59.479 177.491 59.531 177.512 59.5829C177.067 59.9565 176.622 60.3301 176.177 60.7037C176.04 60.8566 175.903 61.0094 175.766 61.1623C176.347 60.7305 176.928 60.2987 177.509 59.8669C178.147 59.2763 178.785 58.6856 179.423 58.095C179.105 58.3382 178.787 58.5814 178.468 58.8247C180.041 57.3966 179.779 57.7991 181.131 56.6733C181.55 56.2383 181.969 55.8034 182.388 55.3685C182.732 55.0978 183.076 54.8272 183.42 54.5566C183.288 54.6939 183.225 54.8833 183.241 55.0593C183.25 54.9077 183.259 54.7561 183.267 54.6045C183.244 53.1401 183.207 53.0114 183.15 53.997C183.086 53.2689 183.187 52.4717 183.161 51.5948C183.159 51.5224 183.098 51.6588 183.098 51.5948C183.057 47.061 183.216 47.3022 183.222 46.5781C183.227 46.0671 183.12 44.0271 183.083 43.9949C183.034 43.9556 182.84 48.1984 182.835 41.554C182.7 44.9892 182.837 48.8947 183.034 46.3694C183.014 47.4567 183.064 52.2511 183.058 52.5568C183.049 53.0024 182.974 52.8461 182.972 53.4043C182.971 53.6183 183.043 54.0614 183.053 55.0593C183.054 54.8604 183.13 54.6265 183.323 54.4463C183.033 54.691 182.696 54.9657 182.304 55.2734C182.072 55.5151 181.84 55.7568 181.609 55.9985C181.359 56.188 181.109 56.3775 180.86 56.567C181.288 56.0795 181.716 55.592 182.145 55.1045C180.291 56.8583 178.593 58.1318 177.522 59.265C176.505 60.1406 176.005 60.5598 176.389 60.1241C176.087 60.3907 175.785 60.6574 175.482 60.924C175.31 61.1277 175.137 61.3313 174.965 61.535ZM145.804 4.74491C147.139 4.82705 147.618 4.64984 147.411 4.63981C146.24 4.58467 145.11 4.70218 145.804 4.74491ZM168.26 65.6232C169.175 65.6516 170.09 65.68 171.004 65.7083C170.837 65.7154 170.677 65.7854 170.562 65.898C170.806 65.6959 171.05 65.4938 171.294 65.2917C171.257 65.2497 171.22 65.2077 171.182 65.1657C170.946 65.3768 170.71 65.5879 170.474 65.7991C170.62 65.6721 170.812 65.6017 171.004 65.6039C170.09 65.6103 169.175 65.6168 168.26 65.6232ZM132.132 4.82877C131.996 4.78678 131.861 4.74479 131.725 4.7028C130.113 4.85618 128.512 4.63611 127.715 4.68156C127.542 4.69149 127.891 4.76563 128.221 4.78153C128.426 4.79147 131.846 4.84293 132.132 4.82877ZM65.0011 4.80863C65.6018 4.78043 66.2025 4.75224 66.8032 4.72404C66.77 4.77128 66.7367 4.81852 66.7035 4.86576C66.4068 4.87455 66.1102 4.88334 65.8135 4.89212C65.5427 4.86429 65.2719 4.83646 65.0011 4.80863ZM71.8366 4.73356C72.9081 4.73734 73.9796 4.74113 75.0512 4.74491C70.964 4.78824 74.3183 4.80938 71.8366 4.87088C71.8366 4.82511 71.8366 4.77933 71.8366 4.73356ZM82.6825 4.82914C82.5507 4.85733 82.419 4.88553 82.2873 4.91373C81.2158 4.91373 80.1442 4.91373 79.0727 4.91373C79.7503 5.01163 80.428 5.10952 81.1056 5.20742C81.4983 5.20767 81.891 5.20791 82.2836 5.20815C82.4166 5.08182 82.5495 4.95548 82.6825 4.82914ZM136.893 65.3186C136.246 65.3169 133.992 65.4024 134.089 65.4339C135.025 65.4726 135.961 65.5113 136.897 65.55C136.901 65.4938 136.906 65.4377 136.91 65.3815C137.042 65.4095 137.175 65.4374 137.307 65.4654C137.839 65.4444 138.372 65.4234 138.904 65.4024C139.172 65.4515 139.441 65.5006 139.709 65.5496C139.979 65.4936 140.248 65.4376 140.518 65.3815C137.947 65.2822 138.036 65.3815 137.501 65.3804C137.23 65.38 137.058 65.3452 136.962 65.3277C136.939 65.3247 136.916 65.3216 136.893 65.3186ZM169.278 65.2658C166.208 65.2519 164.454 65.3997 162.234 65.2761C163.152 65.4459 167.303 65.3931 171.004 65.3931C170.759 65.3924 170.518 65.4857 170.339 65.6453C171.661 64.4848 172.872 63.4443 173.678 62.825C173.902 62.5707 174.127 62.3163 174.351 62.062C173.052 63.2579 172.077 64.0019 171.423 64.5619C170.904 65.0068 170.986 64.9927 170.947 65.0268C170.945 65.0285 170.943 65.0301 170.941 65.0317C170.694 65.2451 170.48 65.4273 170.289 65.5888C170.506 65.391 170.765 65.3066 171.004 65.3005C170.434 65.2844 169.975 65.269 169.278 65.2658ZM129.851 5.03531C130.676 5.10204 132.119 5.09536 132.135 4.99796C131.332 4.96976 130.529 4.94156 129.726 4.91336C129.891 4.9383 129.71 5.02389 129.851 5.03531ZM83.9288 5.10122C84.5724 5.13293 86.0931 5.10515 85.4373 5.02103C85.3194 5.0061 83.8049 5.06523 84.6932 4.91336C83.2174 4.91571 83.5628 5.083 83.9288 5.10122ZM182.929 23.0528C182.926 22.5112 182.923 21.9696 182.921 21.4279C182.881 21.3018 182.842 21.1756 182.803 21.0494C182.845 21.7172 182.887 22.385 182.929 23.0528ZM122.89 5.10269C122.17 4.91033 120.94 5.09752 119.589 4.93936C119.09 4.93814 118.59 4.93692 118.091 4.9357C118.09 4.9357 118.089 4.9357 118.088 4.9357C118.074 4.98819 118.061 5.04068 118.047 5.09317C119.661 5.09634 121.276 5.09951 122.89 5.10269ZM182.495 54.8934C182.739 54.7081 182.983 54.5228 183.227 54.3376C183.208 54.3569 183.19 54.3771 183.173 54.3979C182.995 54.5651 182.882 54.806 182.871 55.0593C182.855 54.72 182.838 54.3807 182.822 54.0413C182.802 54.3626 182.781 54.6839 182.761 55.0052C182.762 55.0232 182.762 55.0413 182.763 55.0593C182.773 54.7474 182.924 54.4497 183.158 54.2596C182.937 54.4709 182.716 54.6821 182.495 54.8934ZM114.116 5.11917C115.862 5.14326 116.519 4.97604 114.286 4.97562C113.345 4.97562 112.287 5.09399 114.116 5.11917ZM103.54 65.3808C104.138 65.3951 104.736 65.4094 105.334 65.4237C105.538 65.3885 105.742 65.3533 105.945 65.3182C105.143 65.3391 104.342 65.3599 103.54 65.3808ZM75.6494 5.08218C75.7196 5.04703 75.7897 5.01187 75.8599 4.97672C76.3935 4.9838 76.9272 4.99088 77.4608 4.99796C77.3266 5.03287 77.1924 5.06778 77.0583 5.10269C76.5886 5.09585 76.119 5.08902 75.6494 5.08218ZM107.565 65.4024C108.043 65.4091 108.521 65.4158 108.999 65.4226C109.321 65.4055 109.642 65.3884 109.963 65.3713C109.516 65.3543 109.068 65.3373 108.621 65.3204C108.269 65.3477 107.917 65.3751 107.565 65.4024ZM97.5665 5.10306C98.2383 5.14532 100.922 5.01362 98.5045 4.98001C96.9642 4.95867 97.4657 5.09662 97.5665 5.10306ZM93.9456 5.14517C96.5042 5.22569 94.5857 4.81698 91.5324 5.08182C94.6061 5.04551 93.7953 5.14031 93.9456 5.14517ZM71.447 5.3561C71.3826 5.35589 71.3296 5.29712 70.8155 5.29494C68.965 5.28733 66.5222 5.26411 65.1987 5.26052C62.0169 5.25186 52.2706 5.35809 51.1308 5.18801C50.8934 5.15229 51.4397 5.04556 51.3431 5.04007C51.0599 5.02474 49.4297 5.07653 49.7312 4.99796C51.3308 4.99857 52.9304 4.99918 54.53 4.99979C54.1374 5.0552 53.7447 5.11062 53.352 5.16604C57.3377 5.13646 56.0184 5.13987 57.1649 5.0192C57.8394 5.06595 58.514 5.1127 59.1886 5.15945C60.6571 5.11245 62.1256 5.06546 63.5941 5.01846C63.2612 5.0535 62.9282 5.08853 62.5952 5.12356C64.8076 5.18844 64.193 5.1459 65.4036 5.06094C65.4061 5.09597 65.4085 5.13101 65.411 5.16604C67.5471 5.08065 67.9632 5.18565 68.4299 5.18691C69.3873 5.18898 70.6074 4.77447 74.2591 5.18691C75.7988 4.98855 75.7637 5.3921 76.6687 5.18691C79.2747 5.41028 74.3185 5.32944 71.9732 5.32204C71.9719 5.32204 71.9707 5.32204 71.9695 5.32204C71.7925 5.32141 72.0735 5.35902 71.447 5.3561ZM84.8335 5.15066C83.2559 5.33275 89.4886 5.34979 87.4259 5.08694C87.1188 5.0784 86.8117 5.06985 86.5046 5.06131C85.9463 5.09109 85.3881 5.12088 84.8298 5.15066C84.8311 5.15066 84.8323 5.15066 84.8335 5.15066ZM143.395 5.27151C149.168 5.19669 145.885 5.09194 143.93 5.19424C143.54 5.21453 143.326 5.24234 143.395 5.27151ZM164.893 65.1259C164.808 65.1478 164.724 65.1696 164.64 65.1915C166.575 65.171 170.319 65.2553 170.267 65.108C168.476 65.114 166.684 65.1199 164.893 65.1259ZM176.458 59.7634C176.14 60.0317 174.852 61.1395 175.043 61.0452C175.62 60.5876 176.198 60.13 176.776 59.6724C177.017 59.4274 177.258 59.1823 177.499 58.9372C177.135 59.2477 176.544 59.6907 176.458 59.7634Z" fill="#07596E"/>
</svg>
