<svg width="101" height="27" viewBox="0 0 101 27" fill="none" xmlns="http://www.w3.org/2000/svg">
<path d="M8.17578 0.0740131C13.2918 -0.100774 16.784 0.0849403 21.53 0.114539C31.9777 0.179566 45.7553 0.120999 56.4409 0.125647C64.5288 0.12917 72.7471 0.141643 80.7862 0.151647C81.1985 0.15214 81.4445 0.171302 81.6315 0.171544C83.3916 0.173799 86.3433 0.156438 88.0893 0.158971C90.6223 0.162615 94.4476 0.162326 97.6816 0.167688C99.3743 0.145271 100.57 1.70956 100.506 3C100.505 3.24308 100.504 3.47491 100.502 3.69392C100.495 5.12248 100.492 6.58777 100.446 7.14303C100.444 7.66502 100.485 7.94993 100.487 8.08624C100.487 8.0878 100.487 8.08935 100.487 8.09091C100.494 8.5299 100.465 9.63848 100.467 9.8831C100.467 9.91969 100.497 9.69447 100.488 10.288C100.487 10.3408 100.467 10.292 100.467 10.7918C100.467 10.9219 100.498 12.5933 100.5 13.071C100.506 14.6606 100.481 18.4568 100.482 20.3573C100.482 20.648 100.494 20.8154 100.494 21.1223C100.494 21.2809 100.481 21.5186 100.481 21.5674C100.482 21.7812 100.54 22.7152 100.425 22.3799C100.432 23.3552 100.47 23.0679 100.495 23.0899C100.496 23.4538 100.491 23.7529 100.485 24C100.466 24.663 100.273 25.0283 100.199 25.272C99.7369 26.204 98.7219 26.8295 97.6816 26.8172C93.211 26.8112 88.7403 26.8053 84.2696 26.7993C84.268 26.8087 84.2665 26.8181 84.2649 26.8275C82.7304 26.7899 82.204 26.8534 81.328 26.7989C80.7878 26.8109 80.2476 26.8229 79.7075 26.8349C65.8247 26.7979 51.9744 26.8419 38.2481 26.8418C37.6688 26.8418 37.5242 26.8218 36.5688 26.8216C35.514 26.8215 34.0304 26.8447 32.6402 26.8444C31.4207 26.8442 29.6217 26.8253 28.2619 26.8224C27.9549 26.8217 27.7329 26.8344 27.6984 26.8343C27.4952 26.8338 27.4849 26.8138 27.2879 26.8132C27.0521 26.8126 26.7672 26.8274 26.4949 26.8265C25.477 26.8232 24.3679 26.8283 24.239 26.828C23.6182 26.8261 23.4812 26.8065 23.4301 26.8062C22.7396 26.8038 22.9985 26.8215 22.8265 26.8205C21.9342 26.8151 21.3034 26.7709 20.0818 26.8133C20.115 26.7969 20.1483 26.7805 20.1816 26.7641C19.2467 26.7549 19.8642 26.7985 19.6731 26.8064C19.5952 26.8093 17.5828 26.804 17.4275 26.8032C16.887 26.8004 16.8725 26.7786 16.8258 26.7783C16.712 26.7776 15.352 26.8023 14.6548 26.7833C13.8299 26.7607 14.8009 26.7164 14.596 26.7081C14.5615 26.7067 13.6979 26.7112 13.5819 26.6974C13.4539 26.6824 14.2008 26.6827 14.1893 26.6765C14.1811 26.6722 12.9412 26.6414 13.1789 26.6207C13.37 26.5999 15.0522 26.6266 15.4086 26.6168C15.4675 26.6152 15.3565 26.5895 15.4086 26.5886C15.6179 26.5851 19.494 26.5844 19.6713 26.5886C19.4694 26.6003 19.2676 26.6119 19.0658 26.6236C19.3342 26.6248 19.6026 26.626 19.8709 26.6272C19.4894 26.6365 19.1078 26.6459 18.7262 26.6552C19.2932 26.7514 21.0013 26.6539 21.0716 26.6059C21.1021 26.5837 20.058 26.5266 21.0297 26.4934C20.8819 26.4877 20.7342 26.482 20.5865 26.4763C20.2821 26.4857 19.9776 26.495 19.6731 26.5044C19.8759 26.5103 20.0787 26.5162 20.2814 26.5221C20.2068 26.5287 20.1322 26.5354 20.0575 26.5421C19.4884 26.5528 18.9193 26.5635 18.3502 26.5742C18.0576 26.5693 18.1184 26.5496 17.9173 26.5457C15.4091 26.4978 17.0452 26.5588 15.403 26.55C15.1686 26.5394 14.9341 26.5289 14.6996 26.5183C14.7823 26.562 14.055 26.5346 13.1752 26.5534C13.2803 26.5393 13.3854 26.5251 13.4905 26.511C12.216 26.5185 9.63246 26.4471 10.3297 26.5252C10.0377 26.5186 9.74565 26.5119 9.45363 26.5052C9.20701 26.518 8.96041 26.5308 8.7138 26.5436C8.37296 26.5421 8.03213 26.5406 7.69128 26.5392C7.68973 26.5322 7.68818 26.5253 7.68662 26.5184C7.95843 26.5184 8.23022 26.5183 8.50203 26.5183C8.29801 26.4972 8.094 26.4761 7.89001 26.4551C7.68942 26.4586 7.48884 26.4621 7.28825 26.4656C8.12963 26.4855 7.02037 26.518 6.75181 26.5459C6.04252 26.5562 5.58931 26.52 5.35145 26.5184C5.23966 26.5176 3.92274 26.5814 4.43903 26.5113C3.85324 26.5187 3.26744 26.526 2.68164 26.5334C2.56537 26.5345 2.44973 26.5279 2.33378 26.5131C2.00137 26.4623 1.67975 26.3437 1.39555 26.1683C1.72227 26.3258 1.41905 26.1588 1.23861 26.0059C1.06804 25.8377 0.938975 25.7994 1.58461 26.1747C2.06407 26.4048 2.41663 26.4306 2.68164 26.4407C2.92552 26.4472 3.09641 26.4555 3.32509 26.4554C3.71722 26.4553 3.92455 26.4347 4.35134 26.4338C7.22142 26.428 9.55936 26.4318 12.2851 26.4409C12.8237 26.4427 13.3135 26.4326 13.6752 26.4341C14.0836 26.4357 13.5719 26.4614 14.0922 26.4552C14.6387 26.4485 14.7568 26.4275 14.9011 26.4271C14.9909 26.4269 15.2755 26.4458 15.5374 26.4458C16.6137 26.4458 18.1907 26.4275 18.3437 26.4276C18.5164 26.4278 21.5603 26.4449 21.706 26.448C21.7833 26.4497 21.623 26.5195 22.2938 26.445C22.5031 26.4437 22.7124 26.4423 22.9217 26.4409C22.8878 26.4549 22.8539 26.4688 22.82 26.4828C24.0599 26.4299 23.6334 26.4595 24.8286 26.4553C27.6906 26.4453 31.9124 26.4571 35.0425 26.4521C35.7415 26.451 36.0079 26.4343 36.8347 26.4331C37.603 26.432 39.609 26.4819 39.1727 26.4128C40.8821 26.4726 41.1569 26.3695 42.0126 26.4338C42.1162 26.4245 42.2197 26.4151 42.3233 26.4057C43.2521 26.4459 43.5389 26.4106 44.553 26.4057C44.99 26.4036 44.4862 26.4463 45.3684 26.3988C45.537 26.4023 45.7055 26.4059 45.8741 26.4094C45.8349 26.4197 45.7957 26.4301 45.7565 26.4404C46.7362 26.432 46.7994 26.4373 46.6876 26.3987C47.1606 26.4057 47.6336 26.4127 48.1066 26.4198C48.1654 26.4071 48.2242 26.3944 48.2829 26.3817C48.0563 26.3575 37.3164 26.394 35.8206 26.4056C34.0666 26.3769 30.5428 26.4128 29.1258 26.406C28.5587 26.4032 28.3081 26.3745 27.4829 26.3711C26.6579 26.3676 25.6196 26.3937 25.1803 26.3946C23.7168 26.3979 16.7832 26.3921 21.4989 26.3564C21.3633 26.3424 21.2277 26.3284 21.0922 26.3144C19.2182 26.3622 19.8968 26.3328 18.3418 26.3279C17.6873 26.3258 16.1306 26.357 16.2175 26.2934C17.433 26.2816 18.7244 26.3019 19.7814 26.301C19.8861 26.3009 21.1376 26.2719 21.7816 26.2798C22.3626 26.287 21.9626 26.3476 23.2267 26.2795C24.1656 26.346 24.7085 26.2857 24.9564 26.2793C25.385 26.2682 25.432 26.301 25.8605 26.3048C26.3272 26.309 26.6485 26.2872 26.7122 26.2871C27.3523 26.2866 30.6858 26.2836 30.8387 26.2969C30.7046 26.3027 30.5706 26.3085 30.4366 26.3143C31.3023 26.3237 31.1214 26.2901 31.349 26.2861C31.5185 26.2862 31.688 26.2864 31.8575 26.2865C31.7903 26.2934 31.7231 26.3004 31.6559 26.3074C32.6784 26.3059 31.896 26.2817 33.3474 26.2823C34.2689 26.2828 35.2207 26.3093 35.3103 26.3074C35.3367 26.3068 35.0466 26.2889 35.4223 26.2865C36.0441 26.2825 37.1194 26.283 37.2396 26.3074C37.5442 26.3039 37.5182 26.2801 37.5587 26.2795C37.7355 26.2772 40.7781 26.2691 41.3232 26.2677C42.8334 26.2638 44.5149 26.2689 46.1512 26.2649C46.3194 26.2645 46.2121 26.2798 46.3807 26.2793C46.6514 26.2785 48.0409 26.2545 48.2484 26.2528C48.7665 26.2486 50.1294 26.2582 50.3438 26.2512C50.3743 26.2502 49.9258 26.2295 50.4502 26.2231C51.0324 26.216 50.719 26.2438 50.7506 26.2441C51.9355 26.2536 52.6836 26.2343 53.4925 26.2306C53.7547 26.2294 54.2384 26.2503 54.6083 26.2441C54.6509 26.2434 54.5665 26.2241 54.6083 26.2231C55.1673 26.213 55.6903 26.2489 55.9322 26.2512C56.524 26.2569 56.2017 26.2304 56.2326 26.2302C56.6269 26.2294 57.1575 26.2389 57.757 26.2377C60.43 26.232 62.6113 26.2304 65.4529 26.2322C65.8098 26.2324 66.2333 26.2511 66.2879 26.2511C66.4566 26.2509 66.4084 26.229 66.8962 26.2295C67.9247 26.2306 68.8782 26.2295 69.8966 26.23C70.1016 26.2301 70.189 26.2504 70.3453 26.2508C70.8696 26.2521 72.6577 26.1988 72.687 26.2651C73.7277 26.2064 74.4189 26.257 75.2564 26.2565C77.2402 26.2552 80.3466 26.2432 82.3244 26.2508C82.7408 26.2525 82.9361 26.2695 83.1678 26.2704C83.5832 26.2721 85.9581 26.2626 86.0823 26.2652C86.3262 26.2704 86.18 26.3452 87.4341 26.28C88.1694 26.2754 88.0826 26.3061 88.2346 26.3077C89.4196 26.32 90.5725 26.2515 90.3571 26.3143C91.7368 26.2973 92.6311 26.2626 93.1942 26.3213C93.1868 26.2926 93.8357 26.2754 94.6178 26.2864C93.817 26.3345 93.9162 26.3652 91.9795 26.3564C91.949 26.3563 92.0072 26.3356 91.9767 26.3354C91.7001 26.334 91.1232 26.3445 90.6519 26.3434C90.1804 26.3422 90.4422 26.3281 90.2535 26.3283C90.0807 26.3286 90.0865 26.3485 89.8365 26.3487C89.0255 26.3495 88.3079 26.355 87.8465 26.3553C87.5559 26.3555 87.2306 26.3381 87.005 26.3381C86.1329 26.3383 84.285 26.3519 83.1752 26.35C82.944 26.3495 83.0411 26.33 82.5352 26.3283C82.4761 26.3282 82.2607 26.3485 81.8178 26.3528C81.3748 26.357 81.0313 26.3469 80.7468 26.349C80.509 26.3507 80.6083 26.3688 80.1208 26.37C79.7142 26.3709 75.1099 26.3578 74.8599 26.355C74.5002 26.3508 74.3293 26.3254 74.1098 26.3285C74.0711 26.3291 74.0057 26.3537 73.8719 26.3554C71.6644 26.3845 66.7785 26.351 64.256 26.3512C58.9834 26.3515 54.1191 26.366 48.7998 26.3717C48.7049 26.376 48.6101 26.3802 48.5153 26.3845C49.0529 26.3847 49.5906 26.3848 50.1283 26.385C50.1317 26.3965 50.1352 26.4081 50.1386 26.4197C50.8655 26.4215 50.7692 26.3942 50.7487 26.3777C51.0177 26.3847 51.2867 26.3917 51.5557 26.3987C51.7878 26.3584 53.5818 26.3852 54.5066 26.3851C55.1082 26.3851 55.824 26.3698 56.1412 26.371C56.8113 26.3734 56.7938 26.3983 56.8465 26.3987C56.9359 26.3992 57.8715 26.3773 58.5463 26.3782C59.544 26.3794 59.6519 26.4175 61.0177 26.3851C62.7677 26.4049 64.7068 26.3949 66.593 26.3917C66.2339 26.427 67.9242 26.3936 68.6865 26.3941C73.3372 26.3976 79.0532 26.4127 83.7648 26.4266C84.3703 26.4284 84.8278 26.4492 85.1652 26.4485C85.3481 26.4481 85.428 26.4236 85.6821 26.4269C85.7267 26.4275 85.7577 26.4504 86.2306 26.4538C87.4075 26.4625 90.3391 26.4243 91.081 26.4682C93.2812 26.4645 95.4814 26.4608 97.6816 26.4571C98.9911 26.4864 100.167 25.3063 100.133 24C100.132 23.2236 100.131 22.4473 100.129 21.6709C100.139 21.5698 100.148 21.4688 100.158 21.3677C100.11 20.6033 100.138 17.5814 100.136 16.1077C100.132 13.5141 100.117 10.2048 100.115 7.93231C100.115 7.43848 100.128 7.03386 100.128 6.56647C100.128 6.36536 100.11 6.11523 100.11 5.90594C100.11 5.02526 100.112 4.02774 100.115 3C100.157 1.69753 98.9479 0.51764 97.6816 0.55752C97.032 0.555972 96.4069 0.554974 95.83 0.555077C90.4537 0.555993 85.3903 0.553326 79.9428 0.554101C61.592 0.556848 43.3469 0.582716 25.1526 0.572289C24.9087 0.572148 24.9209 0.551923 24.7319 0.551782C23.616 0.550795 21.124 0.567467 19.8638 0.566552C18.8596 0.565847 17.2659 0.534923 16.9203 0.566063C20.4876 0.613196 24.2565 0.60965 27.9701 0.622824C28.2342 0.623752 28.267 0.642979 28.2995 0.643332C28.9007 0.650012 28.521 0.623534 29.3929 0.622336C29.6843 0.621935 32.3758 0.683314 32.0555 0.622214C32.7001 0.646656 37.2438 0.658873 38.1206 0.650778C38.3869 0.648312 38.1984 0.63021 38.2512 0.629294C38.4807 0.625296 38.5844 0.650255 38.7896 0.6509C39.3363 0.65245 40.7271 0.632205 40.9913 0.632346C41.5993 0.632562 43.4221 0.65288 44.2249 0.648092C44.9607 0.643724 44.823 0.617652 45.4592 0.615256C45.9606 0.613436 45.4144 0.635367 46.534 0.641989C47.0888 0.645229 49.0299 0.629541 49.5017 0.629538C49.9732 0.629538 50.4979 0.64514 51.1483 0.643942C52.0853 0.642251 54.1235 0.633564 55.077 0.628561C55.1339 0.62828 55.2726 0.607998 55.4128 0.60842C55.7033 0.609271 55.6161 0.634319 55.8355 0.636862C56.0549 0.639398 59.8564 0.636338 60.5021 0.636618C60.9471 0.636759 61.2544 0.621838 61.5003 0.62197C61.6933 0.622111 61.7139 0.642976 61.9108 0.643209C61.9718 0.643209 62.4906 0.625087 63.0089 0.62551C63.4986 0.625935 65.3582 0.643169 65.5736 0.643332C65.7138 0.643402 65.5601 0.628575 65.9747 0.628928C66.3526 0.629291 66.6009 0.648543 66.8163 0.648825C67.3161 0.649451 67.8748 0.633034 68.4051 0.632956C69.9295 0.632744 69.8511 0.656594 69.9426 0.657369C70.1962 0.659523 70.2978 0.637679 70.3811 0.637228C70.7326 0.635397 71.594 0.631362 71.9074 0.630515C72.2976 0.629458 72.463 0.650219 72.8776 0.650289C73.1867 0.650275 73.8108 0.630036 74.5159 0.62905C76.1054 0.626725 77.9956 0.622904 79.5566 0.623679C80.0221 0.62389 80.0935 0.642838 80.2358 0.643332C80.9836 0.645932 81.4022 0.624744 81.6156 0.625022C83.1381 0.626924 85.8538 0.660166 87.2665 0.662984C87.8418 0.664111 90.3602 0.648762 91.781 0.65151C91.9436 0.651795 91.7914 0.666652 91.9723 0.664327C92.405 0.658752 92.3648 0.6285 92.5843 0.629416C92.6902 0.629951 92.9317 0.647006 93.2402 0.648702C94.8399 0.657509 95.9399 0.644247 96.6697 0.645163C97.0067 0.645586 97.344 0.646007 97.6816 0.646426C98.9339 0.617418 100.063 1.747 100.031 3C100.025 8.64809 100.019 14.2913 100.017 19.5466C100.017 20.2763 100.035 21.1812 100.017 22.2829C100.008 22.3168 99.9985 22.3507 99.9891 22.3846C99.9984 22.4232 100.008 22.4617 100.017 22.5003C100.019 23.1303 100.024 23.5625 100.026 24C100.021 24.4945 99.8987 25.0418 99.3987 25.5902C99.3134 25.6903 98.9953 25.9098 98.8038 26.0648C98.3444 26.2889 98.0956 26.2928 97.9626 26.316C97.8263 26.3314 97.7892 26.3371 97.6816 26.3433C97.5978 26.3479 97.4642 26.3525 97.1704 26.3536C96.2335 26.3572 95.3229 26.3453 94.4145 26.3426C93.9165 26.3235 96.0061 26.2795 96.1423 26.2796C96.3617 26.2798 96.5897 26.3063 96.8009 26.3077C97.1193 26.3099 97.4324 26.3055 97.6816 26.3038C97.9591 26.3021 98.1637 26.2533 98.2438 26.2457C99.1198 25.923 98.0264 26.3159 98.1273 26.2359C98.7348 26.1274 99.2916 25.7567 99.6316 25.2342C99.6698 25.1249 99.9637 24.6337 99.9597 24C99.965 23.0748 99.9907 21.9475 99.9541 22.0777C99.9658 21.8404 99.9774 21.6031 99.9891 21.3658C99.9159 20.3253 99.9675 19.7133 99.9892 18.3254C99.9799 18.4255 99.9705 18.5256 99.9612 18.6258C99.9573 18.5974 99.9423 17.3724 99.9822 17.8104C99.9296 16.5546 100.017 16.6075 99.9538 15.4817C99.9457 14.813 99.9824 15.2151 99.9818 14.0179C99.9814 13.3085 99.9623 12.4279 99.9609 11.6352C99.9607 11.4526 99.9819 11.3732 99.9819 11.2107C99.9819 11.0483 99.9611 10.969 99.9606 10.7722C99.9594 10.3657 99.974 9.83864 99.9726 9.58456C99.9714 9.3569 99.9531 9.03149 99.9502 8.48275C99.94 6.56642 99.9662 7.14528 99.9751 6.84262C99.9845 6.51742 99.95 6.28367 99.954 5.63539C99.9544 5.57034 99.9759 5.73856 99.9751 5.52716C99.9744 5.35664 99.951 5.27089 99.9466 4.70617C99.9458 4.60554 99.9444 3.85086 99.943 3C100.006 1.71033 98.6603 0.855563 98.3491 0.842569C98.1718 0.787605 97.9416 0.741334 97.6816 0.740419C96.7728 0.735648 95.4807 0.723051 94.8075 0.723163C94.4825 0.723167 94.135 0.741965 93.7897 0.741839C92.6453 0.741417 90.8132 0.739825 89.3619 0.73891C88.055 0.738059 85.7608 0.696567 85.0451 0.734027C83.21 0.738887 82.7643 0.706876 82.626 0.70644C82.252 0.705242 82.0788 0.726449 81.6072 0.727435C75.4991 0.739763 67.4559 0.725745 61.671 0.727435C48.2517 0.731522 34.7591 0.74311 21.293 0.734515C21.257 0.743914 21.2209 0.753313 21.1848 0.762713C22.7764 0.768772 24.6468 0.785101 26.2181 0.788835C28.3157 0.793762 31.4274 0.75462 32.9661 0.818863C32.3421 0.824497 31.3255 0.799865 31.3437 0.832901C32.4592 0.835261 33.5747 0.837621 34.6902 0.839981C34.6569 0.824722 34.6236 0.809464 34.5903 0.794206C35.755 0.789768 36.9463 0.793094 38.115 0.79091C38.318 0.79055 38.1743 0.776699 38.3511 0.776628C38.5489 0.776578 38.4148 0.790676 38.4518 0.790788C38.9518 0.790929 39.1027 0.776667 39.1637 0.776872C39.3202 0.777436 39.1985 0.791012 39.6497 0.794816C40.4868 0.801922 41.0862 0.765856 40.8896 0.825943C41.1599 0.825943 41.4301 0.825943 41.7003 0.825943C41.7703 0.809586 41.8403 0.793229 41.9103 0.776872C43.5726 0.84291 44.3391 0.72707 45.2577 0.818985C45.5606 0.804948 45.8635 0.79091 46.1664 0.776872C46.3371 0.793229 46.5078 0.809586 46.6786 0.825943C46.7118 0.811905 46.7451 0.797868 46.7784 0.78383C48.4104 0.794181 50.1481 0.777329 51.709 0.778947C52.7963 0.780075 53.0568 0.785617 54.0199 0.784563C56.1622 0.782167 54.0348 0.810021 55.8149 0.840103C55.7223 0.822891 55.6296 0.80568 55.5369 0.788469C55.8317 0.782162 56.1265 0.775855 56.4213 0.769548C56.6266 0.783586 56.8318 0.797624 57.0371 0.811661C57.9476 0.73885 58.5374 0.797624 58.6614 0.797624C58.7615 0.797496 59.1055 0.753663 60.183 0.790788C59.7362 0.73086 61.005 0.790436 61.1066 0.790788C61.2032 0.791031 62.4385 0.777652 62.9399 0.778215C63.3342 0.778642 64.1755 0.791542 64.7628 0.79091C65.2814 0.790348 65.2288 0.770004 65.2666 0.769792C65.9049 0.768102 65.5049 0.78391 65.9663 0.784685C66.4277 0.785458 66.7857 0.768121 66.8853 0.76967C66.9354 0.770496 66.7679 0.789447 66.9972 0.791276C67.6132 0.796268 68.7271 0.779675 69.4322 0.780168C69.6822 0.780321 69.9973 0.796398 70.2756 0.796891C70.7024 0.797592 70.9018 0.776238 71.1498 0.776872C71.236 0.777151 71.7866 0.810137 72.4709 0.80507C72.601 0.804053 72.9834 0.734252 73.4915 0.833145C73.5307 0.819229 73.5699 0.805314 73.6091 0.791398C75.9039 0.756947 76.5425 0.869995 77.5629 0.76967C79.2292 0.780875 78.0853 0.819955 78.2682 0.825943C78.3864 0.829727 78.9296 0.818983 78.9894 0.819596C79.0951 0.820793 79.0769 0.833337 79.1928 0.833267C81.3168 0.830942 80.3738 0.807259 81.0465 0.792253C82.6462 0.756534 83.8942 0.835834 81.1118 0.812028C81.1118 0.819026 81.1118 0.826024 81.1118 0.833023C81.7969 0.826334 83.5361 0.829511 82.9553 0.865004C82.498 0.892973 78.372 0.874719 80.7088 0.913953C81.2393 0.92283 81.5141 0.896566 82.4329 0.945812C83.0405 0.948484 83.128 0.884685 83.9508 0.910291C83.8155 0.888034 83.6802 0.865777 83.545 0.843521C84.6669 0.814509 86.0511 0.853426 86.9129 0.840957C87.2057 0.836708 88.2606 0.730596 88.0147 0.836685C88.507 0.83007 90.8258 0.849613 91.2567 0.840103C91.3604 0.837806 91.4953 0.781323 92.9948 0.801042C93.099 0.808121 93.2032 0.815201 93.3073 0.822281C91.9359 0.84285 94.3579 0.863772 93.7001 0.917371C93.4765 0.89328 92.389 0.878586 92.2139 0.866469C91.9151 0.845615 92.8052 0.818738 91.6709 0.826065C90.9559 0.915646 93.0003 0.874424 92.6879 0.959484C94.1769 0.919778 94.3258 0.957663 94.6629 0.95924C95.8473 0.964509 96.6709 0.959356 97.6816 0.962868C97.9048 0.963651 98.1369 1.00062 98.3684 1.08546C98.5028 1.13751 98.1771 0.951404 97.6816 0.943523C97.0191 0.933718 96.1127 0.927025 95.9354 0.931409C97.0575 0.869481 95.1263 0.866679 94.3112 0.903455C94.2428 0.884738 94.1744 0.866022 94.1059 0.847305C95.167 0.85745 96.2019 0.862662 97.2528 0.847305C97.3212 0.854303 97.3896 0.861302 97.458 0.8683C97.2223 0.878839 96.9866 0.889377 96.7508 0.899915C97.4182 0.913094 97.2703 0.88438 97.6816 0.891367C97.8149 0.894836 98.0092 0.906157 98.2827 0.998175C98.3248 0.988783 98.3679 0.980803 98.4115 0.974108C99.2456 1.26993 99.8365 2.12111 99.8191 3C99.8172 3.29972 99.8153 3.59945 99.8135 3.89917C99.8557 4.48041 99.84 6.62866 99.7853 6.23527C99.7814 7.10239 99.8105 6.03192 99.8238 6.84449C99.8296 7.19817 99.8312 7.88938 99.8165 8.06012C99.7644 7.98659 99.7579 6.95221 99.7222 6.63924C99.7106 6.82915 99.7478 11.6395 99.6869 11.2107C99.6796 11.5948 99.7109 11.4182 99.719 12.111C99.7414 14.0522 99.6793 17.0589 99.7572 18.622C99.8005 16.7865 99.7546 16.2436 99.7528 14.8371C99.7516 13.9386 99.7442 8.46076 99.7993 9.68438C99.7923 9.48318 99.7853 9.28197 99.7783 9.08077C99.7947 8.87738 99.8111 8.674 99.8275 8.47062C99.8299 9.04376 99.8322 9.6169 99.8346 10.19C99.8182 10.3269 99.8019 10.4637 99.7855 10.6005C99.7972 10.6637 99.8089 10.7268 99.8205 10.7899C99.8229 11.0312 99.8252 11.2726 99.8275 11.5139C99.8135 11.4461 99.7994 11.3783 99.7854 11.3105C99.783 11.6824 99.7806 12.0544 99.7782 12.4263C99.7969 12.3262 99.8157 12.226 99.8345 12.1259C99.8392 13.8775 99.8274 13.2843 99.7923 14.2558C99.7888 14.9812 99.8248 13.7559 99.834 15.2905C99.8446 17.0749 99.7873 15.9042 99.7995 18.2153C99.8089 18.2485 99.8183 18.2818 99.8276 18.3151C99.8183 18.8232 99.8089 19.3314 99.7995 19.8395C99.8112 19.7724 99.8228 19.7052 99.8345 19.638C99.8299 20.6869 99.8522 22.1322 99.8065 22.4798C99.8285 21.4167 99.7488 21.4271 99.7341 21.7036C99.725 21.8775 99.7212 22.7812 99.7204 24C99.7704 24.9502 98.8557 26.0701 97.6816 26.0412C95.4624 26.0449 93.2429 26.0514 92.4851 26.0524C90.3957 26.0549 88.8165 26.0294 86.908 26.0686C88.2013 26.1008 92.7493 26.0744 93.6112 26.0967C93.6965 26.0989 93.6725 26.1719 94.2213 26.0897C95.2705 26.098 96.4414 26.0931 97.6816 26.0883C98.5748 26.1025 99.4691 25.4453 99.6973 24.5263C99.6999 24.5997 99.6986 24.6742 99.693 24.7493C99.2191 25.9855 97.8365 26.2127 97.6816 26.1428C97.6512 26.1376 97.6467 26.1295 97.6723 26.1177C97.4021 26.1177 97.1318 26.1177 96.8616 26.1177C96.8616 26.1317 96.8616 26.1458 96.8616 26.1599C96.4542 26.1599 96.0468 26.1599 95.6394 26.1599C95.6394 26.1458 95.6394 26.1317 95.6394 26.1177C95.302 26.1177 94.9646 26.1177 94.6272 26.1177C94.592 26.1317 94.5569 26.1457 94.5217 26.1598C93.5113 26.1306 90.0668 26.2086 91.5811 26.1247C91.1065 26.1247 90.632 26.1247 90.1574 26.1247C90.159 26.135 90.1605 26.1453 90.1621 26.1556C89.9581 26.157 89.7541 26.1584 89.5501 26.1598C89.6172 26.1505 89.6844 26.1411 89.7516 26.1318C88.8167 26.1485 87.9304 26.0995 87.3166 26.1317C87.7215 26.1387 88.1264 26.1458 88.5313 26.1528C87.7547 26.1394 86.3241 26.1672 86.1961 26.1672C85.8059 26.1674 85.6001 26.1465 85.1773 26.1455C84.7957 26.1446 84.8482 26.1606 84.7771 26.16C82.7184 26.1437 83.503 26.0572 82.5417 26.1597C82.4394 26.1457 82.3371 26.1317 82.2348 26.1177C82.0986 26.1293 81.9624 26.141 81.8262 26.1527C81.2182 26.1516 80.6102 26.1505 80.0023 26.1494C80.205 26.1669 80.4078 26.1844 80.6105 26.2019C79.6992 26.2097 79.2742 26.1746 79.1859 26.1738C78.9362 26.1718 78.8219 26.1938 78.7447 26.1938C75.031 26.1919 77.2866 26.1725 75.4308 26.0898C74.7691 26.1223 75.4386 26.1548 75.5325 26.1879C74.6526 26.1724 74.378 26.1815 73.4492 26.1797C73.2076 26.1792 72.9477 26.1614 72.7952 26.1611C72.6631 26.1609 72.2503 26.1798 71.9332 26.1799C71.4047 26.1801 70.7013 26.1688 69.9777 26.1691C69.3761 26.1693 67.5343 26.1827 66.2497 26.1828C65.7015 26.1828 65.8287 26.167 65.6871 26.167C65.6282 26.167 65.2009 26.1859 64.8493 26.186C61.9813 26.1864 59.0421 26.1744 56.1598 26.1748C54.1292 26.175 52.0659 26.1903 50.0313 26.1887C49.5983 26.1884 49.8276 26.1744 49.6385 26.1739C49.5735 26.1738 49.4954 26.1981 48.8259 26.1883C48.584 26.1848 48.8622 26.1678 48.6244 26.167C48.5087 26.1666 48.4595 26.1879 47.7829 26.1927C46.5533 26.2016 45.8924 26.1732 45.7826 26.1741C45.5757 26.1757 45.6362 26.1933 45.3619 26.194C44.0206 26.1971 42.9008 26.2 41.7038 26.2015C41.1448 26.2022 37.2908 26.2058 37.0792 26.2026C36.6057 26.1956 37.0464 26.1588 36.4392 26.16C36.2691 26.1693 36.0989 26.1787 35.9288 26.188C36.1991 26.1951 36.4693 26.2021 36.7396 26.2092C35.9956 26.1974 35.1521 26.2141 34.6013 26.2135C34.4995 26.2133 33.5629 26.1966 33.0852 26.1985C33.2883 26.1916 33.4913 26.1846 33.6944 26.1777C33.6226 26.1718 33.5508 26.1659 33.4789 26.16C32.5237 26.169 31.5132 26.1687 30.5336 26.1675C30.1804 26.167 30.2997 26.1527 29.9421 26.1522C27.859 26.1492 28.3851 26.2088 26.381 26.0969C27.0577 26.1071 29.5264 26.0928 29.8852 26.0965C30.1352 26.0992 31.1048 26.1937 30.7491 26.0967C32.7492 26.0971 31.012 26.1506 32.88 26.1389C32.8427 26.1271 32.8053 26.1152 32.768 26.1034C33.4202 26.0959 33.9018 26.0899 34.298 26.1108C34.431 26.0534 36.6466 26.087 37.8619 26.0831C39.6181 26.0776 41.6022 26.0636 43.3421 26.0611C43.9415 26.0603 44.281 26.0828 44.3562 26.0828C44.4661 26.0826 44.7749 26.0629 44.9943 26.0627C45.8135 26.0622 48.3058 26.0955 48.9257 26.0408C44.0514 26.0408 39.1771 26.0408 34.3027 26.0408C34.9156 26.0677 29.985 26.0703 29.735 26.069C29.5036 26.0678 29.6983 26.0489 29.6296 26.0477C29.1173 26.0396 28.6801 26.067 28.5175 26.067C28.3935 26.067 28.1431 26.0541 27.7021 26.0544C27.6212 26.0545 27.5987 26.0681 27.5118 26.0681C26.9365 26.0681 26.3687 26.0679 25.7914 26.068C25.7563 26.0679 25.6106 26.048 25.4649 26.048C25.3188 26.048 25.1743 26.0678 25.1374 26.0679C24.676 26.0677 23.885 26.0548 23.446 26.0547C23.2937 26.0547 23.3993 26.0692 23.2286 26.0691C22.7042 26.0687 22.8769 26.0403 22.2285 26.0476C22.0111 26.0501 22.0252 26.0718 21.609 26.069C21.3143 26.0669 21.346 26.0281 21.2993 26.0267C21.2347 26.025 20.2176 26.0556 19.8849 26.0303C20.6119 25.9632 19.0896 26.0268 19.1628 26.055C18.7598 26.0479 18.3568 26.0408 17.9537 26.0337C17.8163 26.0408 17.6788 26.048 17.5414 26.0552C15.9152 26.0229 14.9232 26.0423 13.3235 26.0323C13.2463 26.0318 11.8984 26.0159 11.9614 26.0058C12.7682 25.9885 13.5731 25.9877 14.0895 26.0198C14.9391 25.9587 14.9537 26.0074 16.3257 25.9993C16.7851 25.9965 16.8177 25.9799 16.8706 25.9797C18.6571 25.9715 21.5185 25.9644 22.722 26.0128C23.0594 25.9997 21.8465 25.9945 22.3181 25.9849C22.5753 25.9796 28.7654 25.9641 26.7878 26.0199C26.9931 26.0183 27.1983 26.0168 27.4036 26.0152C27.6088 25.9625 28.6296 25.9746 28.5138 26.0271C28.6105 26.0163 28.7072 26.0056 28.8039 25.9949C28.995 25.9858 29.221 25.9809 29.5381 25.978C30.7523 25.967 37.976 25.9853 38.3601 25.9778C38.3688 25.9653 38.3775 25.9529 38.3862 25.9404C35.195 25.9263 32.0991 25.9573 28.6192 25.9216C28.7203 25.9333 28.8213 25.945 28.9224 25.9567C27.5339 25.9403 26.1453 25.9239 24.7568 25.9076C26.2264 25.8864 28.5645 25.8687 30.1072 25.8861C30.3815 25.8892 30.1804 25.9055 30.2435 25.9075C30.4081 25.9126 30.5851 25.8843 31.1764 25.8816C31.768 25.8788 33.2541 25.8989 33.3903 25.8983C33.6528 25.8971 34.3614 25.8648 34.8084 25.8652C35.3958 25.8658 35.0021 25.8858 35.12 25.8862C35.6077 25.8882 36.045 25.8783 36.427 25.8798C36.9942 25.882 38.1727 25.9171 38.5691 25.8655C38.1639 25.8631 37.7587 25.8608 37.3535 25.8584C39.5508 25.8399 41.2687 25.9059 43.4335 25.855C43.9254 25.7924 42.1367 25.8009 43.649 25.7742C43.3744 25.7751 43.0998 25.776 42.8252 25.7769C42.7608 25.79 42.6964 25.8031 42.6321 25.8162C42.1591 25.8068 41.6861 25.7974 41.2131 25.7881C41.348 25.7998 41.483 25.8114 41.618 25.8231C39.9411 25.8319 38.2476 25.8439 37.6623 25.7811C37.6277 25.7963 37.5932 25.8115 37.5587 25.8267C36.0018 25.8082 33.6645 25.8725 34.1012 25.7881C34.0275 25.7926 33.9538 25.797 33.8801 25.8015C32.939 25.7842 33.3409 25.8192 32.9873 25.8231C32.8863 25.8242 31.057 25.8062 31.8677 25.7811C30.0832 25.762 30.6335 25.8409 30.1418 25.8444C28.9994 25.8053 26.9446 25.8639 27.8085 25.8021C27.6384 25.7998 27.4682 25.7975 27.2981 25.7952C26.7392 25.8438 26.1882 25.7888 25.5824 25.7704C25.3772 25.7693 25.1719 25.7682 24.9667 25.7671C24.8292 25.7834 24.6918 25.7998 24.5543 25.8162C22.6233 25.7383 23.2348 25.9512 22.3526 25.7723C22.49 25.7616 22.6275 25.7509 22.7649 25.7402C23.0908 25.7351 23.4168 25.7301 23.7427 25.725C22.4281 25.7203 21.1136 25.7155 19.7991 25.7108C18.1305 25.6607 17.1811 25.7151 15.3275 25.6754C15.154 25.6802 14.9804 25.6849 14.8069 25.6897C14.9837 25.6492 15.657 25.6551 14.4029 25.637C14.296 25.6083 15.143 25.6046 15.529 25.6266C15.622 25.632 14.8301 25.6539 15.7202 25.6547C16.3254 25.6552 15.2266 25.6208 17.0394 25.6335C16.9723 25.6265 16.9051 25.6195 16.8379 25.6126C17.0345 25.6128 17.231 25.613 17.4275 25.6132C17.6023 25.6294 17.7771 25.6455 17.9519 25.6617C18.4011 25.6384 18.6532 25.6056 19.6797 25.6126C19.4013 25.6227 19.779 25.6552 20.287 25.6547C20.287 25.6429 20.287 25.6312 20.287 25.6195C21.5168 25.612 21.0923 25.6464 22.1147 25.6195C22.217 25.6288 22.3193 25.6381 22.4216 25.6475C22.9786 25.6091 25.0291 25.5829 24.6551 25.6405C25.2303 25.5846 26.4384 25.6098 26.8876 25.6545C26.9222 25.6429 26.9567 25.6313 26.9912 25.6196C27.2303 25.6173 27.4695 25.6149 27.7086 25.6126C27.8421 25.6196 27.9755 25.6266 28.1089 25.6337C28.2784 25.6266 28.4478 25.6196 28.6173 25.6126C28.7197 25.6242 28.8219 25.6359 28.9243 25.6476C29.1967 25.6336 29.4691 25.6196 29.7415 25.6056C29.9082 25.6149 30.0749 25.6242 30.2416 25.6335C30.2588 25.6092 31.9102 25.6038 32.3715 25.6198C32.509 25.6127 32.6464 25.6056 32.7839 25.5985C32.851 25.6101 32.9182 25.6217 32.9854 25.6333C33.0877 25.624 33.19 25.6147 33.2923 25.6055C33.5281 25.6147 33.7638 25.624 33.9995 25.6333C34.9609 25.5765 34.9919 25.6263 35.2114 25.626C35.6184 25.6253 37.0042 25.5897 37.2359 25.5916C37.4673 25.5934 37.5791 25.6138 37.7658 25.6157C40.8452 25.6478 39.5793 25.593 40.1971 25.5844C40.5304 25.5796 40.7663 25.5987 41.061 25.5966C41.5651 25.593 44.1081 25.5679 44.2545 25.5703C44.4675 25.5739 43.9659 25.6636 44.6584 25.6405C44.6814 25.5923 46.1623 25.641 45.4701 25.5737C46.0799 25.5796 46.6898 25.5855 47.2996 25.5914C47.2305 25.5343 47.9825 25.571 48.8017 25.5679C49.9624 25.5634 52.5758 25.5259 52.4803 25.5845C52.7583 25.571 53.0363 25.5575 53.3143 25.5441C55.2167 25.5625 57.0826 25.5432 58.9708 25.5425C64.5748 25.5403 70.6546 25.553 76.2322 25.5646C76.5004 25.5651 76.4618 25.5843 76.6548 25.5847C77.6691 25.5868 80.3055 25.5733 81.7264 25.5775C82.1815 25.5789 82.403 25.5975 82.5473 25.5984C83.0372 25.6014 82.9216 25.5768 83.1472 25.5775C83.5031 25.5786 85.3854 25.6015 86.0338 25.6039C86.3548 25.6051 86.7346 25.5855 87.1104 25.5916C87.1427 25.592 87.083 25.6122 87.1104 25.6126C87.7954 25.615 87.3834 25.5976 87.6151 25.5985C89.2676 25.6051 91.0339 25.6055 92.8266 25.6096C93.2717 25.6107 93.953 25.6249 94.3352 25.6262C94.4809 25.6267 94.2195 25.6114 94.7233 25.6127C94.8958 25.6131 94.9548 25.633 95.1496 25.6343C95.989 25.6397 96.2699 25.5758 96.9913 25.6272C97.2006 25.6267 97.4332 25.6259 97.6816 25.6249C98.4794 25.6729 99.345 24.8357 99.292 24C99.2901 23.5255 99.2888 23.0926 99.2887 22.7457C99.2886 22.4451 99.3004 22.2988 99.3002 22.0124C99.3 21.8092 99.2818 21.4515 99.2816 21.1345C99.2814 20.8174 99.2987 20.3168 99.2981 19.7071C99.2975 19.065 99.2872 18.2667 99.2872 18.122C99.2872 17.9472 99.3091 17.8657 99.3088 17.6909C99.3081 17.1625 99.2866 15.7475 99.2843 15.0666C99.2818 14.3349 99.2924 13.8957 99.2922 13.6457C99.2919 13.4142 99.2735 13.1441 99.2733 13.0383C99.273 12.8738 99.2946 12.8349 99.2944 12.626C99.2941 12.2846 99.2805 11.9326 99.2802 11.4206C99.2781 8.59789 99.2778 5.79208 99.2788 3C99.3002 2.14797 98.5311 1.3806 97.6816 1.40117C92.4215 1.39751 87.206 1.38971 82.014 1.38061C81.014 1.37885 80.4489 1.39399 78.9754 1.38708C78.3779 1.38427 78.6296 1.362 78.1646 1.36621C77.9573 1.36811 78.0097 1.38562 77.7476 1.38647C76.589 1.39014 75.2391 1.37386 74.737 1.37414C74.5379 1.37423 74.3103 1.39412 73.902 1.39441C70.8592 1.39666 67.2593 1.39108 63.9848 1.39453C62.2509 1.39636 59.626 1.4065 57.636 1.40783C52.1379 1.41157 46.2231 1.40696 41.2087 1.40893C33.6371 1.41182 26.1018 1.43021 18.5464 1.40844C22.0812 1.45656 26.8945 1.45255 30.8296 1.45776C42.1961 1.4727 54.2986 1.44474 65.9477 1.4458C70.0007 1.44615 75.111 1.44504 79.5482 1.45617C79.7494 1.45667 80.1665 1.44137 80.6015 1.44299C80.6939 1.44337 81.8397 1.47127 82.2258 1.47155C81.8599 1.42195 83.3723 1.46616 83.8398 1.46496C84.4294 1.4634 85.659 1.43862 87.0388 1.45263C88.2909 1.46531 87.9456 1.48439 88.0147 1.48559C88.4576 1.49332 88.6121 1.46258 88.9514 1.45947C90.0537 1.44961 94.7878 1.45888 97.6816 1.46366C98.2666 1.46353 98.6826 1.79215 98.8722 2.03265C99.1075 2.35124 99.0601 2.38928 99.0991 2.46622C99.1507 2.60308 99.2035 2.78458 99.209 3C99.2122 3.16176 99.2148 3.3346 99.2147 3.51479C99.2144 4.40103 99.196 5.42184 99.1959 5.90967C99.1957 7.07643 99.2175 9.29038 99.2179 10.8067C99.218 11.2331 99.1977 11.207 99.1978 11.4001C99.1981 12.2499 99.2221 14.4633 99.2223 15.5181C99.2226 17.2316 99.2095 18.9942 99.2162 20.7361C99.2071 20.8465 99.198 20.9569 99.189 21.0673C99.1985 21.2414 99.208 21.4156 99.2175 21.5897C99.2156 22.3901 99.2156 23.1943 99.2168 24C99.2392 24.8164 98.5024 25.5603 97.6816 25.5427C96.5694 25.5457 95.4605 25.5482 94.3613 25.5477C94.0238 25.5476 92.3532 25.5302 92.0746 25.5302C91.8429 25.5302 91.6149 25.5526 91.2714 25.5493C90.7902 25.5447 91.243 25.5019 90.4569 25.5142C90.2455 25.5175 90.4505 25.5358 90.0259 25.5415C89.8856 25.5434 87.1635 25.5508 87.0171 25.5496C86.7733 25.5474 86.5558 25.5082 86.4928 25.5073C86.1656 25.5029 86.1796 25.533 85.9601 25.5358C85.3124 25.544 84.4663 25.5237 84.361 25.5242C83.0886 25.5297 80.7099 25.5538 79.3744 25.5396C79.1897 25.5376 79.2118 25.5151 79.1794 25.5144C78.9702 25.5098 78.8401 25.5353 78.6411 25.5359C77.5699 25.5388 75.8924 25.5216 74.8151 25.5172C74.691 25.5167 74.4291 25.529 74.2077 25.5278C72.9556 25.5209 73.3618 25.5012 73.2906 25.5004C73.1219 25.4983 72.8253 25.52 72.3763 25.5214C71.2198 25.525 69.0019 25.5218 67.762 25.5201C66.8331 25.5188 66.8471 25.4939 66.7861 25.4934C66.6559 25.4925 66.294 25.5124 65.6824 25.5147C64.5057 25.5191 64.6398 25.4995 64.1561 25.5004C64.1155 25.5004 64.1862 25.5195 63.6495 25.5215C62.6127 25.5253 60.2839 25.5065 59.1742 25.5075C58.7473 25.5078 58.6475 25.5263 58.2105 25.5266C57.5176 25.5272 55.9538 25.5073 55.8305 25.5073C55.796 25.5073 55.7184 25.5286 55.5152 25.5286C55.2916 25.5286 55.0717 25.5176 54.905 25.5177C53.9559 25.518 52.3207 25.5551 52.7751 25.4793C52.471 25.498 52.1668 25.5167 51.8627 25.5354C49.8747 25.5317 47.9435 25.5392 45.9739 25.543C45.5309 25.5438 45.1611 25.5295 44.7872 25.5302C44.4134 25.5309 42.7641 25.5546 42.4884 25.5551C41.9965 25.5558 39.2013 25.5583 38.8536 25.5566C38.1747 25.5534 37.5161 25.5221 37.2396 25.5282C37.0181 25.5331 37.223 25.5508 36.8002 25.5558C36.0684 25.5644 34.8248 25.5418 34.6013 25.5421C34.5058 25.5423 34.6845 25.556 33.7905 25.557C33.3088 25.5576 33.0501 25.5424 32.8753 25.5425C32.821 25.5426 32.9025 25.5671 31.9489 25.5638C31.2903 25.5615 31.0095 25.5426 30.9404 25.5425C30.8366 25.5424 30.5863 25.5626 30.1697 25.5619C29.1961 25.5601 27.4159 25.5369 26.4911 25.5352C26.3123 25.5348 26.3731 25.5593 25.6599 25.557C25.1497 25.5554 25.2388 25.5359 25.0479 25.5352C24.745 25.534 24.2938 25.5578 23.6251 25.557C22.7836 25.556 16.5352 25.5313 16.2119 25.5249C15.9944 25.5206 15.7421 25.5203 15.6344 25.5098C15.7268 25.4996 15.8191 25.4895 15.9115 25.4794C16.8684 25.5149 16.4822 25.4743 16.7362 25.4717C17.1042 25.468 18.4906 25.4731 18.826 25.4641C18.9455 25.4609 18.6719 25.4392 19.314 25.4281C20.0029 25.4162 20.3093 25.4547 20.5837 25.4021C21.5614 25.4605 22.5005 25.3985 21.3683 25.382C20.7363 25.3727 14.5364 25.3519 13.2703 25.3486C12.2438 25.346 10.3211 25.3617 9.05899 25.3577C8.31707 25.3553 6.48985 25.3526 6.56709 25.3246C5.90851 25.3211 6.60549 25.3489 6.46726 25.3528C6.17823 25.3609 4.12269 25.3417 3.73372 25.3424C3.39662 25.3431 3.04402 25.3446 2.68164 25.3464C1.9881 25.3793 1.29779 24.7245 1.32299 24C1.32345 23.2941 1.32782 22.611 1.33959 21.9897C1.34708 22.0765 1.35456 22.1632 1.36205 22.25C1.37051 22.5079 1.36631 23.3444 1.37023 24C1.3713 24.2727 1.46739 24.4778 1.5013 24.5206C1.42917 24.3576 1.392 24.1807 1.39208 24C1.39208 21.4354 1.39208 18.8708 1.39208 16.3062C1.3615 16.359 1.36191 12.8343 1.37572 12.6677C1.39053 12.7296 1.40534 12.7914 1.42015 12.8533C1.36395 14.8451 1.43824 14.6665 1.39879 16.0039C1.39824 16.5484 1.42271 16.384 1.42736 16.6523C1.47356 19.3226 1.37714 16.6951 1.39904 18.7393C1.43453 18.124 1.4475 19.7981 1.45201 20.5483C1.453 20.719 1.444 22.9614 1.44457 23.2277C1.44506 23.4616 1.44596 23.7218 1.44704 24C1.41488 24.5975 2.02346 25.2562 2.68164 25.2254C3.2889 25.2256 3.85626 25.2278 4.31868 25.2339C5.48941 25.2362 6.13389 25.2109 7.19682 25.2051C8.00362 25.2007 7.77238 25.2184 8.15216 25.2186C8.94897 25.2191 9.21118 25.165 9.72138 25.2405C10.2616 25.2311 10.8017 25.2217 11.3419 25.2123C11.3419 25.224 11.3419 25.2357 11.3419 25.2474C11.6812 25.2474 12.0205 25.2474 12.3598 25.2474C12.4596 25.2358 12.5594 25.2241 12.6592 25.2124C13.736 25.2284 13.2865 25.2566 13.4877 25.2898C13.7203 25.2921 13.9529 25.2944 14.1855 25.2966C14.3656 25.2712 14.5457 25.2457 14.7257 25.2202C15.7644 25.2223 16.8031 25.2244 17.8418 25.2265C17.9089 25.2381 17.9761 25.2498 18.0433 25.2615C18.0455 25.2498 18.0476 25.2381 18.0498 25.2265C19.8087 25.2241 21.5677 25.2217 23.3266 25.2193C23.7944 25.2005 20.9762 25.1863 20.7628 25.1852C19.5756 25.179 16.4231 25.1978 16.419 25.1561C15.6811 25.1872 13.4595 25.1795 12.7684 25.1422C13.8173 25.1445 14.8663 25.1467 15.9152 25.1489C15.8813 25.135 15.8474 25.121 15.8135 25.1071C17.1205 25.1634 17.3117 25.1603 18.6553 25.1071C18.6566 25.1258 18.6578 25.1445 18.659 25.1632C19.5959 25.0981 21.2518 25.2085 21.2993 25.1282C21.7981 25.1347 22.2969 25.1412 22.7957 25.1477C23.8728 25.1379 22.2003 25.0761 26.4174 25.1004C26.7081 25.1021 26.6475 25.1225 27.0845 25.1211C27.2105 25.1207 27.9322 25.0909 29.3124 25.094C29.5278 25.0945 29.5441 25.1123 29.7676 25.1145C30.2838 25.1199 31.3121 25.0848 30.8452 25.142C32.8897 25.1587 32.0424 25.1117 32.6766 25.093C33.0992 25.0806 33.0142 25.1145 33.38 25.1068C33.8327 25.0973 33.5005 25.0632 35.3131 25.0789C35.1097 25.0812 34.9063 25.0835 34.7029 25.0858C34.8053 25.0951 34.9076 25.1044 35.0099 25.1137C36.0444 25.0914 35.9467 25.1239 36.4345 25.0718C37.1866 25.095 37.8373 25.0969 38.8658 25.0927C40.8638 25.0844 39.8395 25.0282 42.1199 25.1039C42.4893 25.0933 42.8588 25.0827 43.2282 25.072C43.8355 25.0944 43.3443 25.1223 44.2507 25.1279C43.5414 25.0728 45.4539 25.0929 45.7771 25.0437C45.8109 25.0554 45.8448 25.0672 45.8787 25.0789C46.0812 25.0789 46.2836 25.0789 46.4861 25.0789C46.4867 25.0695 46.4873 25.0601 46.488 25.0507C46.7576 25.0577 47.0272 25.0648 47.2968 25.0718C47.4996 25.0625 47.7023 25.0532 47.9051 25.0438C48.2385 25.0635 48.5718 25.0831 48.9052 25.1028C49.1145 25.1041 49.3238 25.1055 49.5331 25.1068C49.4669 25.0928 49.4006 25.0788 49.3344 25.0648C49.6034 25.0695 49.8724 25.0742 50.1414 25.0789C49.8284 25.0559 50.0251 25.029 50.8625 25.0297C51.5536 25.0302 50.7752 25.0782 52.261 25.0582C52.3647 25.0568 52.5482 25.0226 53.9525 25.0174C55.6367 25.011 54.8185 25.0358 55.1187 25.0366C55.1776 25.0368 55.6921 25.0196 56.1738 25.0171C56.4472 25.0157 56.7105 25.0296 56.7467 25.0296C56.9153 25.0289 56.9645 25.0093 57.1982 25.0086C57.7916 25.0069 58.5882 25.0165 59.1695 25.0155C59.4338 25.0151 59.6823 25.0035 59.8002 25.0033C59.9831 25.0032 60.2151 25.021 60.4001 25.0209C61.083 25.0205 62.1196 24.9615 62.4367 25.0435C63.0932 24.9681 64.4686 25.0592 64.3679 25.0087C66.1223 25.0278 70.8016 24.9658 70.6644 25.0507C71.658 24.9781 71.5692 25.0307 71.9854 25.0296C72.4509 25.0284 72.2098 25.0143 72.5797 25.0149C73.4435 25.0164 74.2688 25.0224 75.1285 25.0227C74.9936 25.0344 74.8586 25.046 74.7236 25.0576C75.6261 25.0614 75.3154 25.0343 76.236 25.0291C77.9291 25.0196 77.2156 25.0412 77.4656 25.0717C77.3985 25.0422 79.395 25.0468 79.5983 25.0507C79.7195 25.053 79.1883 25.091 80.4109 25.0788C80.344 25.0671 80.2772 25.0554 80.2103 25.0437C80.7673 25.0597 82.2803 25.0394 82.5371 25.0434C82.655 25.0452 83.2855 25.1394 83.8628 25.0648C83.9325 25.0765 84.0021 25.0882 84.0718 25.0999C84.7127 25.0858 85.3537 25.0718 85.9946 25.0578C86.0969 25.0788 86.1992 25.0998 86.3015 25.1209C86.5049 25.1209 86.7083 25.1209 86.9117 25.1209C86.7767 25.1022 86.6418 25.0835 86.5068 25.0648C87.7626 25.0733 89.2969 25.0438 89.5557 25.1068C89.8247 25.0952 90.0937 25.0835 90.3627 25.0718C90.5377 25.0928 90.7128 25.1137 90.8879 25.1347C92.1335 25.1294 92.1541 25.1154 93.0057 25.093C92.9724 25.1094 92.9392 25.1257 92.9059 25.1421C93.534 25.1191 94.6806 25.0978 95.5872 25.0949C96.0181 25.0935 96.7581 25.1161 96.8597 25.114C96.9244 25.1127 97.3487 25.0771 97.6816 25.07C97.7886 25.0661 97.8741 25.0547 97.9018 25.0781C98.688 24.8159 98.7628 24.2993 98.7815 24C98.7815 23.998 98.7815 23.996 98.7815 23.9939C98.7809 23.6018 98.7625 23.4229 98.7606 22.9798C98.7579 22.3457 98.7668 21.7075 98.7655 21.3416C98.7647 21.1322 98.7468 21.0931 98.7462 20.9488C98.7435 20.2664 98.7618 20.6662 98.7606 19.9468C98.7604 19.8805 98.7385 19.3546 98.7413 18.762C98.7429 18.4306 98.7675 17.5733 98.7675 17.4978C98.7671 17.1624 98.7178 17.4305 98.7747 16.2841C98.7653 16.3173 98.756 16.3506 98.7466 16.3839C98.7229 14.9651 98.7646 14.7412 98.7675 14.4545C98.7677 14.418 98.7516 14.0725 98.7538 13.8659C98.7576 13.5167 98.7797 13.3759 98.7807 13.2986C98.784 13.0263 98.7743 12.1089 98.7957 11.5092C98.7328 11.6353 98.7105 9.53411 98.7816 9.06864C98.7676 8.6967 98.7536 8.32477 98.7395 7.95283C98.7512 7.78459 98.763 7.61635 98.7747 7.44811C98.763 7.34579 98.7513 7.24348 98.7396 7.14117C98.7654 6.59912 98.7911 6.05708 98.8168 5.51504C98.791 5.48052 98.7653 5.446 98.7395 5.41148C98.7424 5.25972 98.7454 5.10796 98.7483 4.9562C98.7688 4.83772 98.7892 4.71923 98.8097 4.60075C98.8058 4.41105 98.8019 4.22135 98.798 4.03165C98.7832 3.98469 98.7684 3.93773 98.7536 3.89077C98.7448 3.36853 98.7776 3.25114 98.795 3C98.7995 2.87925 98.8409 2.60315 98.4483 2.25082C98.3428 2.12601 98.2071 2.02401 98.0546 1.95718C97.9563 1.95206 97.8288 1.9268 97.6816 1.92636C97.4156 1.9256 97.1281 1.91868 96.8712 1.92186C96.5074 1.92636 96.5272 1.94894 96.0315 1.94944C95.5356 1.94994 95.5533 1.92835 95.5147 1.9282C95.1104 1.92688 94.8056 1.94591 94.509 1.94212C94.4643 1.94156 94.3523 1.91592 93.9744 1.91429C93.5963 1.91267 93.3684 1.93994 92.8054 1.9348C92.5169 1.93219 92.4335 1.91059 92.1775 1.90867C90.9579 1.89937 89.7299 2.00877 88.8152 1.87901C88.609 1.89545 87.1135 1.953 86.4735 1.94969C85.4781 1.9444 85.8616 1.91895 85.4659 1.91429C85.409 1.91358 85.1059 1.92218 84.2708 1.92064C84.1214 1.92036 84.156 1.93473 84.1346 1.93492C83.161 1.93464 81.2705 1.92329 80.2013 1.92125C80.1057 1.92103 79.6055 1.96109 78.758 1.90721C77.5019 1.94701 75.136 1.8615 73.4794 1.92149C73.2497 1.92276 72.9709 1.90843 72.8692 1.90892C71.9932 1.91336 72.3142 1.95686 70.3344 1.89317C70.4947 1.91536 70.0315 1.93538 69.3772 1.9337C68.3934 1.93116 69.0922 1.88979 68.3015 1.89317C68.3015 1.90485 68.3015 1.91653 68.3015 1.9282C66.4826 1.89679 66.1207 1.94672 64.2954 1.947C63.6389 1.94707 62.6691 1.92119 62.5126 1.92112C62.452 1.9212 61.734 1.94935 61.6654 1.94957C61.2792 1.95041 61.0612 1.93743 60.7278 1.93736C59.6262 1.93708 58.3116 1.97371 58.5494 1.90721C58.2465 1.92125 57.9436 1.93528 57.6407 1.94932C56.4963 1.87831 55.6405 1.97618 55.4007 1.90721C55.1961 1.92145 54.9914 1.93569 54.7868 1.94993C49.8786 1.94273 44.9703 1.93553 40.0621 1.92833C39.867 1.95052 37.7266 1.94264 37.6168 1.93919C37.1128 1.92355 37.6452 1.87515 36.6167 1.88621C36.5029 1.90741 36.3891 1.92861 36.2753 1.94981C34.9826 1.95671 35.6043 1.93562 35.0941 1.92125C34.881 1.92386 34.9498 1.94031 34.6613 1.94151C33.0961 1.94806 29.8869 1.94884 28.1754 1.95018C27.8303 1.95046 27.8824 1.93508 27.7752 1.93504C27.4805 1.93518 26.899 1.95456 26.3076 1.95457C22.651 1.95443 17.4695 1.9435 13.7884 1.92723C13.5384 1.9261 13.5074 1.90776 13.3387 1.90684C13.1049 1.90565 12.5826 1.92048 12.3367 1.91893C12.1051 1.91752 11.9567 1.90359 11.7089 1.90196C10.5746 1.89435 9.04967 1.91789 7.83618 1.87681C7.73413 1.87335 6.46273 1.79951 6.43396 1.79466C6.26525 1.76592 7.39508 1.72076 5.53926 1.6787C7.19791 1.64199 6.67976 1.57711 4.52515 1.5454C5.60581 1.53722 6.68648 1.52905 7.76714 1.52087C7.7687 1.51318 7.77025 1.50549 7.77181 1.4978C6.78806 1.45968 5.81205 1.447 4.31617 1.44348C4.36281 1.43636 4.40946 1.42924 4.45611 1.42212C5.77733 1.38654 7.37114 1.37996 8.37729 1.33142C6.90168 1.29549 5.42606 1.25956 3.95045 1.22364C4.02415 1.21802 4.09786 1.21241 4.17156 1.20679C4.87892 1.19221 6.42402 1.18365 7.01146 1.17005C9.25503 1.1182 5.04783 1.13125 5.73891 1.09962C8.10767 1.10076 10.4764 1.10189 12.8452 1.10303C12.9282 1.07974 3.81553 1.0154 3.9094 0.94508C4.65389 0.94036 5.39839 0.93564 6.14288 0.93092C5.81106 0.913058 5.47924 0.895196 5.14742 0.877333C5.23885 0.871677 5.33028 0.866022 5.42171 0.860366C6.67777 0.846491 7.93383 0.832616 9.18989 0.818741C5.37103 0.832688 3.59637 0.822564 2.68164 0.681905C2.7852 0.678324 2.88876 0.674743 2.99231 0.671163C3.8196 0.759158 7.7247 0.730696 9.80004 0.713154C9.37705 0.687378 7.5497 0.70729 7.16353 0.691792C7.0541 0.687349 7.43571 0.669458 7.18218 0.660299C6.51956 0.636487 3.69592 0.605849 4.10625 0.576683C4.3705 0.557943 8.9138 0.532231 9.80004 0.534204C7.72271 0.500529 5.58233 0.490786 3.4989 0.449856C4.81398 0.392791 5.97867 0.322955 8.37916 0.319855C9.11084 0.289913 4.02916 0.248434 3.91127 0.232089C4.79073 0.214552 5.67019 0.197015 6.54965 0.179479C5.80577 0.184158 5.0619 0.188837 4.31803 0.193516C4.31586 0.187657 4.31368 0.181798 4.3115 0.175939C6.23846 0.148744 8.00138 0.0988287 10.2068 0.10221C10.1357 0.0712114 8.81606 0.0742949 8.17578 0.0740131ZM3.42864 25.1629C3.38414 25.1372 4.19274 25.1414 4.64801 25.1419C4.57959 25.1372 4.51118 25.1325 4.44276 25.1278C5.41438 25.1327 7.22304 25.1425 7.29012 25.0927C7.98323 25.0865 7.67675 25.1298 7.90027 25.1348C7.98768 25.1368 8.89233 25.1115 9.61596 25.1422C9.78794 25.1421 9.9599 25.142 10.1319 25.1419C10.1652 25.1255 10.1984 25.1091 10.2317 25.0928C10.4715 25.1126 10.7112 25.1325 10.951 25.1524C8.44479 25.1559 5.9386 25.1594 3.43237 25.1629C3.43114 25.1629 3.4299 25.1629 3.42864 25.1629ZM28.4102 25.1417C29.3228 25.151 30.7209 25.1655 30.4384 25.1207C29.8619 25.1231 29.2853 25.1255 28.7088 25.1278C28.6092 25.1325 28.5097 25.1371 28.4102 25.1417ZM98.8587 5.62139C98.9025 4.86382 98.8651 4.16591 98.8724 3C98.8725 2.99563 98.8725 2.99125 98.8725 2.98687C98.8632 2.98791 98.8539 2.98893 98.8446 2.98993C98.8449 2.99322 98.8451 2.99657 98.8454 3C98.8667 3.49442 98.8522 4.74966 98.8587 5.62139ZM1.35021 5.24233C1.35367 5.0744 1.35713 4.90647 1.36058 4.73854C1.41068 5.42151 1.37538 5.54374 1.38024 6.31615C1.38054 6.36273 1.39201 6.34656 1.39208 6.3628C1.39285 6.55182 1.37905 6.72665 1.37926 6.89738C1.37968 7.22667 1.39367 7.49514 1.39318 8.07849C1.39275 8.52959 1.37076 8.53384 1.37133 8.69237C1.37187 8.82748 1.43235 10.1661 1.40624 11.0275C1.3565 12.6659 1.34556 5.74236 1.35021 5.24233ZM2.3444 1.75429C2.24394 1.78159 2.14704 1.82118 2.0559 1.87215C2.33785 1.70229 1.68861 1.95463 1.49767 2.42128C1.48627 2.41088 1.58939 2.16073 1.8375 1.95919C2.07956 1.74957 2.44984 1.65102 2.68164 1.65441C2.56178 1.67292 2.44882 1.70695 2.3444 1.75429ZM1.32213 20.8757C1.31883 20.2418 1.35928 20.3474 1.37133 20.3738C1.37133 20.5756 1.37133 20.7775 1.37133 20.9793C1.35493 20.9448 1.33853 20.9103 1.32213 20.8757ZM1.3081 16.1074C1.33557 16.3046 1.34759 17.681 1.34984 18.3335C1.34985 18.3619 1.33477 18.1827 1.33617 18.6441C1.33661 18.7827 1.39148 20.1457 1.32921 19.8458C1.32217 18.6003 1.31514 17.3548 1.3081 16.1093C1.3081 16.1087 1.3081 16.1081 1.3081 16.1074ZM1.32433 14.7174C1.33296 14.9767 1.34158 15.2361 1.35021 15.4954C1.33731 15.6295 1.32441 15.7635 1.31151 15.8975C1.30826 15.6024 1.305 15.3073 1.30175 15.0122C1.30928 14.9139 1.3168 14.8156 1.32433 14.7174ZM37.2548 1.60607C37.3152 1.61986 37.3755 1.63366 37.4358 1.64745C37.6696 1.65591 38.806 1.59585 38.4462 1.58422C38.0491 1.5915 37.652 1.59879 37.2548 1.60607ZM32.4558 1.57714C32.2194 1.57018 31.9831 1.56323 31.7467 1.55627C31.4749 1.57966 31.2031 1.60306 30.9313 1.62646C32.112 1.64223 33.3683 1.66041 33.1657 1.59142C33.436 1.59142 33.7062 1.59142 33.9765 1.59142C33.7489 1.61995 33.7795 1.62935 34.4868 1.64745C34.6415 1.60776 35.3728 1.62798 36.2099 1.61925C35.601 1.61693 34.9921 1.61462 34.3832 1.6123C34.3832 1.6053 34.3832 1.5983 34.3832 1.5913C35.7405 1.59383 34.0536 1.54944 33.1695 1.57726C33.0998 1.56795 33.0301 1.55863 32.9605 1.54931C32.7922 1.55859 32.624 1.56786 32.4558 1.57714ZM92.0886 25.4087C92.2569 25.4157 92.4251 25.4228 92.5933 25.4298C93.2453 25.3381 91.9179 25.4251 90.9728 25.3525C91.285 25.4077 89.8443 25.4054 89.7618 25.4091C89.9276 25.4276 90.0933 25.4462 90.2591 25.4647C90.8689 25.4461 91.4788 25.4274 92.0886 25.4087ZM96.8578 25.4719C96.5948 25.4513 97.033 25.4394 97.6816 25.4335C98.2783 25.4744 98.929 24.8785 99.0234 24.5062C99.0787 24.3774 99.1394 24.1478 99.1391 24C99.1398 23.9624 99.14 23.9293 99.1395 23.9025C99.1303 23.8002 99.121 23.6979 99.1117 23.5956C99.1438 23.4744 99.1077 21.597 99.0905 20.8574C99.1021 20.7877 99.1138 20.7181 99.1255 20.6484C99.1209 20.3788 99.1162 20.1092 99.1116 19.8395C99.1232 19.8734 99.1349 19.9073 99.1465 19.9412C99.1325 19.7372 99.1185 19.5332 99.1045 19.3292C99.0889 18.5283 99.1524 19.0222 99.1326 18.4205C99.1106 17.7518 99.0728 18.8476 99.0482 18.8273C99.0546 19.3701 99.0688 20.6042 99.0695 21.155C99.0698 21.4713 99.0258 21.1128 99.0764 22.476C99.0646 22.7749 99.0528 23.0738 99.041 23.3726C99.0482 23.5817 99.0553 23.7909 99.0625 24C99.0743 24.2366 99.0257 24.4743 98.9183 24.6897C98.8688 24.7449 98.8155 24.7953 98.7595 24.8405C98.7476 24.8555 98.6101 25.0415 98.428 25.1664C98.2501 25.2965 98.0454 25.3596 98.0707 25.3594C97.9695 25.3791 97.8379 25.3978 97.6816 25.3926C97.1215 25.3794 96.3543 25.3763 95.5583 25.3751C95.4513 25.384 95.3443 25.3929 95.2373 25.4017C96.3122 25.3826 95.5793 25.4111 95.8997 25.4281C96.0847 25.4379 96.6505 25.4571 96.8578 25.4719ZM44.7436 1.5703C42.9387 1.61011 44.0562 1.57727 42.1052 1.57726C42.2415 1.59834 42.3777 1.61942 42.5139 1.64049C43.4731 1.60198 45.0514 1.62759 44.7455 1.5703C44.7449 1.5703 44.7443 1.5703 44.7436 1.5703ZM25.6527 1.64037C26.6851 1.62762 26.167 1.59484 27.4757 1.58434C27.4763 1.58434 27.4769 1.58434 27.4775 1.58434C26.8008 1.58198 26.1241 1.57962 25.4475 1.57726C25.5159 1.5983 25.5843 1.61934 25.6527 1.64037ZM86.0061 1.61486C86.9959 1.62402 86.8011 1.60762 87.6994 1.64037C89.0368 1.60064 87.9046 1.60625 87.9046 1.57018C87.5989 1.58076 87.2932 1.59134 86.9875 1.60192C86.2464 1.56819 86.9493 1.55121 86.9493 1.54797C86.9487 1.54797 86.948 1.54797 86.9474 1.54797C86.9474 1.53714 86.9714 1.53486 86.6871 1.52831C86.4601 1.55716 86.2331 1.58601 86.0061 1.61486ZM90.2426 1.5703C89.9031 1.59426 89.7505 1.62501 90.6428 1.64037C90.6434 1.64037 90.6441 1.64037 90.6447 1.64037C90.7163 1.58684 91.5719 1.63005 91.962 1.62646C92.0643 1.62064 92.1666 1.61482 92.269 1.609C91.5935 1.5961 90.9181 1.5832 90.2426 1.5703ZM99.1605 7.34641C99.1014 7.3502 99.0958 6.60127 99.0413 7.65522C99.0423 7.85985 99.0434 8.06447 99.0444 8.2691C99.0574 8.40345 99.0704 8.53779 99.0834 8.67213C98.9764 11.2678 99.1586 12.0417 99.0905 7.65522C99.0904 7.6546 99.0904 7.65398 99.0903 7.65335C99.1137 7.55104 99.1371 7.44873 99.1605 7.34641ZM99.1463 2.83378C99.1127 2.81296 99.0788 2.79406 99.0445 2.7765C99.0535 2.38528 98.7332 1.80985 97.9538 1.58861C97.8802 1.58416 97.8073 1.58551 97.7349 1.59228C97.722 1.59091 97.7042 1.58953 97.6816 1.58868C96.9878 1.57011 93.249 1.56661 94.1041 1.6123C94.4943 1.63315 95.3445 1.60483 95.4177 1.60546C95.6656 1.6078 95.9889 1.63447 96.4075 1.63293C96.6494 1.63199 97.1593 1.60064 97.653 1.6007C97.6625 1.6007 97.672 1.60071 97.6816 1.60072C98.2325 1.54888 99.0755 2.17656 99.0422 3C99.0435 3.49028 99.0527 3.96945 99.0763 4.39923C99.0669 4.50372 99.0576 4.60821 99.0482 4.7127C99.0539 5.78962 99.0836 5.43012 99.0482 6.43213C99.1957 7.12437 99.041 2.40407 99.1605 3.38698C99.1605 3.38636 99.1605 3.38574 99.1605 3.38511C99.1595 3.25674 99.1584 3.12837 99.1574 3C99.1568 2.944 99.1531 2.88868 99.1463 2.83378ZM70.9464 1.5703C70.8814 1.54382 69.6323 1.58468 69.9258 1.52123C69.5181 1.54333 69.1104 1.56542 68.7027 1.58752C68.7058 1.59342 68.7089 1.59932 68.712 1.60522C69.1172 1.60058 69.5224 1.59594 69.9276 1.5913C69.9292 1.60066 69.9307 1.61002 69.9323 1.61938C70.5361 1.58552 73.0561 1.60027 72.9793 1.63341C73.114 1.61942 73.2486 1.60542 73.3833 1.59142C74.5886 1.62954 75.6256 1.58901 76.9388 1.62621C77.0404 1.61462 77.1421 1.60302 77.2438 1.59142C77.3101 1.60078 77.3763 1.61014 77.4425 1.6195C77.9208 1.62068 78.3991 1.62186 78.8774 1.62304C80.4361 1.58536 77.4076 1.53657 77.0404 1.54211C76.9917 1.54288 76.9992 1.56711 76.6943 1.57092C76.1528 1.57759 73.1217 1.55347 72.1844 1.56945C72.1764 1.55338 72.1683 1.53731 72.1602 1.52123C71.7556 1.53759 71.351 1.55395 70.9464 1.5703ZM99.0973 13.1382C99.0809 13.2066 99.0646 13.275 99.0482 13.3434C99.0646 14.5241 99.0503 15.2676 99.1044 14.9649C99.1044 14.9642 99.1044 14.9636 99.1044 14.963C99.102 14.3547 99.0997 13.7464 99.0973 13.1382ZM23.9386 25.4017C23.9696 25.4343 24.534 25.4464 25.2634 25.4231C25.2282 25.4137 25.1931 25.4042 25.158 25.3948C24.7778 25.4225 24.3035 25.3742 23.1307 25.3806C23.1307 25.397 23.1307 25.4133 23.1307 25.4297C23.4 25.4204 23.6693 25.4111 23.9386 25.4017ZM99.1044 12.1194C99.1237 11.7595 99.0652 10.7495 99.0623 11.4141C99.0601 11.9222 99.094 12.3125 99.1044 12.1194ZM21.5916 1.60876C21.8584 1.61217 22.1252 1.61559 22.392 1.61901C22.5311 1.60509 22.6701 1.59118 22.8091 1.57726C22.8085 1.57726 22.8078 1.57726 22.8072 1.57726C22.402 1.58776 21.9968 1.59826 21.5916 1.60876ZM82.6223 1.61754C83.5272 1.61551 84.4322 1.61348 85.3372 1.61144C85.3462 1.60237 85.3552 1.59329 85.3642 1.58422C84.4576 1.61733 84.0931 1.58164 83.8818 1.57946C83.8827 1.57946 83.8836 1.57946 83.8846 1.57946C83.2058 1.57228 82.5592 1.56699 81.917 1.55615C82.1521 1.57661 82.3872 1.59708 82.6223 1.61754ZM79.5202 1.5603C79.6727 1.62441 79.8717 1.63187 81.262 1.58678C81.207 1.57889 81.1519 1.571 81.0969 1.5631C80.3765 1.56782 79.9563 1.58262 80.0828 1.54919C79.8953 1.55289 79.7077 1.55659 79.5202 1.5603ZM93.6917 1.5808C93.5248 1.56039 92.2008 1.58089 92.2727 1.59118C92.3012 1.59526 94.0169 1.62082 93.6917 1.5808ZM13.8861 25.4159C14.1911 25.4206 14.4962 25.4253 14.8013 25.4299C14.3954 25.4369 13.9896 25.4439 13.5838 25.4508C13.6845 25.4392 13.7853 25.4275 13.8861 25.4159ZM10.5368 25.5071C10.3193 25.4989 11.0264 25.4413 9.72605 25.4264C10.6724 25.4252 11.6187 25.424 12.565 25.4227C12.1212 25.4321 11.6775 25.4414 11.2337 25.4507C11.3111 25.4673 11.3886 25.4838 11.466 25.5004C11.1563 25.5026 10.8465 25.5048 10.5368 25.5071ZM9.5208 25.4648C10.0304 25.5087 7.34698 25.512 7.097 25.5066C7.04132 25.5053 6.77658 25.4721 6.67904 25.465C7.08426 25.4649 7.48946 25.4649 7.89467 25.4648C7.75909 25.4544 7.62349 25.4439 7.4879 25.4335C7.96216 25.4299 8.43639 25.4263 8.91066 25.4227C8.7079 25.4332 8.50513 25.4437 8.30237 25.4542C8.7085 25.4578 9.11467 25.4613 9.5208 25.4648ZM20.287 25.4542C19.9477 25.4531 19.6085 25.452 19.2692 25.4509C19.337 25.4673 19.4048 25.4836 19.4726 25.5C19.6756 25.5 19.8787 25.5 20.0818 25.5C20.1502 25.4847 20.2186 25.4695 20.287 25.4542ZM13.3739 25.4753C13.8678 25.3966 15.2139 25.5688 13.6407 25.505C13.4822 25.4985 13.3271 25.483 13.3739 25.4753ZM6.09128 25.4972C5.03632 25.5546 5.27442 25.4278 6.27041 25.465C6.32047 25.4669 6.17047 25.493 6.09128 25.4972ZM1.18261 22.6418C1.18304 22.5564 1.22408 22.407 1.18505 21.5913C1.18973 21.4567 1.19441 21.322 1.19909 21.1874C1.21816 21.5025 1.22951 24.1982 1.18884 23.8257C1.1882 23.4131 1.18134 23.0687 1.18261 22.6418ZM1.34359 24.9672C1.54026 25.2376 1.82087 25.4462 2.13534 25.5548C2.03609 25.5063 1.94294 25.4482 1.85744 25.3821C1.99663 25.4613 2.147 25.5191 2.30209 25.5532C2.42333 25.5934 2.55082 25.6192 2.68164 25.6296C2.86221 25.6414 3.04283 25.6531 3.2234 25.6649C3.04283 25.6656 2.86221 25.6664 2.68164 25.6671C2.09594 25.6757 1.52218 25.3461 1.22924 24.8361C1.26525 24.8821 1.30347 24.9258 1.34359 24.9672ZM11.549 25.6826C10.7705 25.6665 9.81671 25.6837 8.5524 25.6809C8.55179 25.6809 8.55114 25.6808 8.55053 25.6808C8.48749 25.6806 8.37567 25.6629 8.17269 25.6622C7.9997 25.6617 4.58512 25.6811 4.85139 25.6511C6.17256 25.6243 6.66609 25.6651 6.98318 25.5985C7.04754 25.6126 7.11194 25.6266 7.1763 25.6406C8.44673 25.6649 8.8092 25.6163 9.52267 25.5985C9.51987 25.6091 9.51707 25.6197 9.51427 25.6303C9.9907 25.6313 10.4671 25.6324 10.9435 25.6334C10.8764 25.6265 10.8092 25.6195 10.742 25.6126C10.9106 25.6126 11.0791 25.6126 11.2477 25.6126C11.6583 25.6439 12.1788 25.6512 11.549 25.6826ZM1.04822 23.4171C0.967973 23.0431 1.02294 19.3984 1.0061 17.7336C1.05442 18.6076 1.02112 19.9617 1.02063 20.9149C1.01972 22.7578 1.04929 21.4839 1.06225 21.7966C1.06867 21.951 1.01722 22.9963 1.04822 23.4171ZM14.3927 25.6686C13.4739 25.6621 12.9595 25.6806 12.1648 25.6511C12.2313 25.6453 12.2979 25.6394 12.3644 25.6335C12.6366 25.6389 14.8558 25.6558 14.3927 25.6686ZM1.0271 15.2939C0.998284 17.0684 1.07094 16.1931 1.01648 17.116C1.01302 16.5086 1.00956 15.9013 1.0061 15.2939C1.0131 15.2939 1.0201 15.2939 1.0271 15.2939ZM99.4062 10.0884C99.4081 9.34054 99.4227 8.50541 99.3925 8.05825C99.3878 8.5664 99.3831 9.07455 99.3784 9.58269C99.3877 9.75125 99.397 9.9198 99.4062 10.0884ZM93.4097 26.0204C93.5804 26.0276 94.2556 26.0062 94.3268 26.0062C94.4589 26.0062 94.4228 26.0168 94.4247 26.0195C95.29 26.0176 94.4917 25.9849 95.1319 25.9778C95.2414 25.9766 96.7453 25.9928 97.357 25.9914C97.4655 25.9912 97.574 25.991 97.6816 25.9909C98.5324 26.0057 99.1505 25.4031 99.3058 25.1519C99.4829 24.9074 99.6686 24.4867 99.6588 24C99.6526 23.5395 99.6465 23.0363 99.6459 22.5628C99.6454 22.1606 99.665 22.0202 99.6645 21.6159C99.6612 19.0202 99.6342 13.9102 99.6467 11.6072C99.6498 11.0382 99.6756 10.4956 99.6735 10.1947C99.6641 9.95743 99.6547 9.72015 99.6453 9.48287C99.7299 8.75315 99.6546 8.50902 99.6467 7.72239C99.6417 7.22268 99.6668 6.98903 99.6667 6.92192C99.6662 6.47686 99.6543 6.2573 99.6523 5.90781C99.6502 5.5155 99.6615 4.95185 99.6594 4.81159C99.658 4.72551 99.6247 5.00044 99.6254 3.47841C99.6254 3.31875 99.6255 3.15931 99.6256 3C99.6506 1.96716 98.727 1.03041 97.6816 1.05181C97.3368 1.05133 96.9903 1.05089 96.6417 1.05055C96.9947 1.11803 97.3147 1.10926 97.6816 1.09507C97.8533 1.08822 98.0386 1.10204 98.2344 1.1593C98.3924 1.2099 98.2882 1.19007 98.4218 1.24183C98.8197 1.3629 99.3802 1.95504 99.4678 2.29183C99.576 2.63908 99.5283 2.52599 99.5749 2.97761C99.5757 2.99763 99.5867 2.94572 99.5919 3C99.5927 3.00919 99.5933 3.0213 99.5936 3.03712C99.6189 4.17541 99.5923 4.54799 99.5915 5.98711C99.591 6.94065 99.6062 12.7314 99.5962 12.9301C99.5426 13.9668 99.5423 7.86489 99.5465 7.15143C99.548 6.90168 99.5649 7.16353 99.5681 6.93592C99.5694 6.83945 99.5372 5.97203 99.5345 5.1148C99.5329 4.58697 99.5378 3.78778 99.5429 3C99.5626 2.27592 99.0836 1.65744 98.6981 1.42907C98.3973 1.23364 98.0402 1.12893 97.6816 1.12991C89.5822 1.13413 81.5807 1.11638 73.4794 1.11597C73.2985 1.11597 73.0603 1.13526 72.4709 1.13526C61.4701 1.13491 50.0686 1.1197 38.9276 1.12879C36.4987 1.13076 34.0898 1.1489 31.6385 1.13453C31.3344 1.14861 31.0302 1.16268 30.7261 1.17676C31.504 1.16557 32.9295 1.19741 33.0594 1.19788C33.1061 1.19802 33.4011 1.18215 33.8766 1.18299C34.5454 1.18411 34.8387 1.19788 34.8936 1.19788C35.0637 1.19792 34.9522 1.18328 35.1147 1.18335C36.3261 1.18399 37.2635 1.17983 38.3753 1.17969C39.6313 1.17956 40.2679 1.20682 41.1826 1.17688C41.2861 1.18856 41.3897 1.20024 41.4932 1.21192C42.1766 1.16141 46.2458 1.16701 47.8942 1.16968C48.4143 1.17053 48.323 1.19104 48.4978 1.19104C48.6094 1.19102 48.5654 1.16416 49.9262 1.16944C50.6111 1.17212 50.7908 1.19168 51.1343 1.19104C51.321 1.19067 51.2907 1.17127 51.5588 1.17127C53.1096 1.17127 54.3759 1.17756 55.8942 1.18116C56.3211 1.18214 56.3258 1.19834 56.4213 1.19812C56.7731 1.1974 57.3848 1.16998 58.2788 1.17005C59.7505 1.17019 62.6834 1.17028 63.8868 1.1836C64.0636 1.18557 64.2101 1.205 64.3402 1.20472C64.5372 1.20422 64.6144 1.18395 64.649 1.18384C65.3076 1.18349 64.9114 1.20234 65.3525 1.19776C65.5902 1.19529 65.8382 1.17217 66.3908 1.16956C67.1206 1.16611 66.9769 1.19355 67.2818 1.1908C67.314 1.19037 67.3236 1.17129 67.6233 1.17066C68.7595 1.1684 70.4077 1.164 71.4829 1.16407C71.7918 1.16407 72.0215 1.17691 72.4522 1.17713C73.3201 1.17755 78.2536 1.16937 78.6582 1.17676C78.7009 1.17754 78.2622 1.20568 78.9614 1.20484C79.1645 1.19312 79.3675 1.1814 79.5706 1.16968C79.9102 1.18844 80.2498 1.2072 80.5894 1.22596C80.5772 1.16115 82.575 1.15114 82.5551 1.21741C82.7737 1.2201 82.9923 1.22278 83.211 1.22547C83.6662 1.17968 83.9693 1.19658 84.8492 1.16968C84.9864 1.18372 85.1235 1.19776 85.2607 1.2118C85.2952 1.20244 85.3297 1.19308 85.3642 1.18372C85.8338 1.23444 86.6039 1.18351 86.6974 1.18323C87.057 1.18211 87.3273 1.195 87.496 1.19458C88.1261 1.19325 89.4899 1.17548 90.2258 1.18372C90.2603 1.18414 90.2263 1.20582 90.4357 1.2085C90.8134 1.21333 90.8502 1.18159 91.3537 1.21888C91.4554 1.20952 91.5571 1.20016 91.6588 1.1908C91.7667 1.19564 91.8746 1.20048 91.9825 1.20533C92.6194 1.20284 93.2563 1.20036 93.8932 1.19788C93.3139 1.23459 93.9805 1.25508 94.6107 1.2262C94.8239 1.2164 94.6347 1.19406 94.7058 1.19068C94.7919 1.18664 97.0264 1.19502 97.6816 1.20696C97.7606 1.20864 97.8133 1.21497 97.8331 1.21823C97.9542 1.2213 98.0756 1.2367 98.1949 1.26459C98.2502 1.29559 98.3032 1.32927 98.3537 1.36527C98.4165 1.3858 98.4785 1.40999 98.539 1.4377C98.9178 1.61687 99.5049 2.32458 99.4782 3C99.486 3.41736 99.4926 3.75862 99.491 3.88704C99.4886 4.07405 99.4286 3.90586 99.4347 4.80226C99.4512 4.83336 99.4677 4.86446 99.4841 4.89556C99.4865 5.10081 99.4888 5.30606 99.4912 5.5113C99.4897 5.89646 99.4612 6.4571 99.4417 6.47504C99.4534 6.59539 99.4651 6.71574 99.4768 6.83609C99.4386 7.15925 99.4522 8.88286 99.4763 9.57616C99.4648 9.77892 99.4533 9.98168 99.4418 10.1844C99.4558 10.4569 99.4698 10.7293 99.4838 11.0017C99.488 11.6328 99.4647 10.9661 99.4628 11.1006C99.4587 11.3852 99.4981 12.8353 99.4491 12.7398C99.449 12.9376 99.4489 13.1354 99.4487 13.3331C99.4627 13.4348 99.4767 13.5365 99.4907 13.6382C99.4425 13.9777 99.4595 14.5651 99.4419 15.77C99.453 15.8711 99.4641 15.9721 99.4752 16.0732C99.4594 16.4458 99.4436 16.8183 99.4279 17.1909C99.4462 17.2674 99.4646 17.3439 99.483 17.4204C99.4857 17.5824 99.4883 17.7444 99.491 17.9065C99.4498 18.2356 99.4943 18.8267 99.4773 19.1277C99.4525 19.5667 99.4229 19.2272 99.4172 18.4121C99.3872 18.4731 99.401 20.9011 99.4032 21.461C99.4091 21.424 99.4149 21.387 99.4208 21.35C99.4161 20.7775 99.4115 20.2049 99.4069 19.6324C99.4823 19.1527 99.4621 20.7074 99.4718 21.4209C99.4727 21.4861 99.5013 21.8559 99.4986 22.5749C99.4978 22.8116 99.4674 23.6319 99.4569 24C99.4551 24.0582 99.4511 24.1028 99.4488 24.1304C99.3362 24.8657 99.1717 24.9156 99.1492 25.005C99.0864 25.0644 99.1001 25.2398 98.4578 25.5803C98.6751 25.4806 98.3002 25.7745 97.6816 25.7745C97.4724 25.7733 97.245 25.7728 97.0155 25.7747C96.8487 25.776 95.4345 25.8085 95.339 25.8093C94.7435 25.8145 95.3918 25.7791 94.5301 25.7883C94.4266 25.7976 94.323 25.807 94.2195 25.8163C94.0189 25.8163 93.8183 25.8163 93.6177 25.8163C92.4005 25.7332 92.1174 25.7944 91.6846 25.8022C91.5098 25.8054 91.7349 25.7837 91.2816 25.7883C91.1109 25.79 90.9217 25.8081 90.4625 25.8093C89.0256 25.8133 88.5378 25.7361 87.2168 25.8164C87.014 25.8048 86.8112 25.7931 86.6085 25.7815C86.4716 25.7954 86.3348 25.8094 86.198 25.8234C85.1514 25.7829 85.5293 25.8243 85.1512 25.8238C84.1531 25.8226 82.1105 25.8146 81.9316 25.7812C81.0699 25.858 80.0397 25.7714 79.7 25.7744C79.4982 25.7837 79.2963 25.793 79.0945 25.8024C78.8572 25.793 78.6199 25.7836 78.3827 25.7743C78.498 25.8496 77.2691 25.7755 77.1512 25.7744C77.015 25.7733 75.125 25.7956 74.4214 25.7952C73.7188 25.7947 72.4944 25.7743 72.3866 25.7743C72.2626 25.7743 71.0667 25.7948 70.1317 25.7946C69.3135 25.7943 64.4665 25.7652 64.7719 25.7988C65.089 25.8081 65.5403 25.8162 65.9306 25.8206C67.1421 25.8339 74.2527 25.8511 76.0699 25.8564C79.7142 25.8671 83.5151 25.8651 87.1757 25.8724C87.3911 25.8729 87.4238 25.8924 87.6086 25.8928C87.8891 25.8934 88.601 25.8738 88.8774 25.8743C89.91 25.876 91.1663 25.8791 91.7192 25.8796C92.9548 25.8806 93.8024 25.8924 94.7373 25.8943C95.0299 25.8948 96.5097 25.8706 97.524 25.8809C97.5765 25.8824 97.6291 25.884 97.6816 25.8856C97.8056 25.8895 97.9301 25.8814 98.053 25.861C97.9578 25.8812 97.8303 25.9003 97.6816 25.9021C97.0432 25.9097 96.0575 25.9207 95.5461 25.9222C94.5993 25.925 94.1054 25.9091 93.7558 25.9094C93.4631 25.9096 91.9674 25.9277 91.2863 25.9281C91.0749 25.9282 91.0315 25.9078 90.8506 25.9078C89.8689 25.9083 88.5759 25.9089 87.7243 25.9289C88.0719 25.9224 85.9013 25.9098 85.7875 25.9099C85.5924 25.9099 85.3807 25.9291 84.9823 25.9291C84.2163 25.9291 84.3135 25.889 83.3562 25.9291C83.1192 25.9174 82.8823 25.9057 82.6453 25.894C82.6307 25.9474 79.6364 25.8748 78.7848 25.9397C78.7624 25.947 82.6535 25.9678 82.9746 25.9689C84.9015 25.9753 87.7529 25.9622 89.6228 25.9715C90.1856 25.9744 91.9551 26.0068 92.0886 26.0062C92.3039 26.0053 92.1094 25.9867 92.2024 25.9861C94.1064 25.9723 93.1565 26.0096 93.4097 26.0204ZM9.52267 25.7178C10.1011 25.72 10.6795 25.7222 11.258 25.7244C11.216 25.7361 11.174 25.7478 11.132 25.7595C10.867 25.755 10.6021 25.7504 10.3371 25.7458C10.1334 25.7528 9.92973 25.7598 9.72605 25.7668C9.65826 25.7505 9.59046 25.7341 9.52267 25.7178ZM8.09712 25.7668C7.59551 25.7727 7.571 25.748 7.45526 25.7468C7.10977 25.7432 6.81096 25.7532 6.47565 25.7528C6.86187 25.6941 7.68448 25.721 8.09712 25.7668ZM18.4575 25.788C18.3444 25.7852 17.5894 25.722 16.7306 25.7808C16.0881 25.7621 15.4456 25.7434 14.8032 25.7247C15.8947 25.7533 17.4051 25.7236 17.9397 25.7247C18.1427 25.7252 18.1815 25.7446 18.3437 25.7449C19.2787 25.7464 20.1878 25.7025 20.2833 25.7667C19.3991 25.7481 18.6018 25.7914 18.4575 25.788ZM12.815 25.7651C12.6654 25.7517 12.5159 25.7383 12.3663 25.7249C12.9068 25.7249 13.4473 25.7249 13.9878 25.7249C13.8416 25.7384 13.6954 25.752 13.5493 25.7656C13.3045 25.7655 13.0598 25.7653 12.815 25.7651ZM54.3956 25.8096C54.0623 25.8094 53.7289 25.8092 53.3955 25.8091C53.4138 25.8189 53.7952 25.8188 53.9357 25.8254C53.9351 25.8254 53.9344 25.8254 53.9338 25.8254C54.0903 25.8329 54.0233 25.8455 54.3079 25.8511C54.3372 25.8372 54.3664 25.8234 54.3956 25.8096ZM30.3221 1.13477C29.7633 1.13407 24.6029 1.134 25.0426 1.16968C25.2641 1.18751 27.029 1.17196 27.5494 1.17225C28.2509 1.17261 30.1453 1.2112 30.3221 1.13477ZM21.1829 1.12781C21.0935 1.16338 24.3186 1.16903 24.6339 1.16285C24.567 1.15778 24.4638 1.14649 24.3746 1.14393C23.9396 1.13167 21.8782 1.13753 21.1829 1.12781ZM73.0649 25.9122C72.8049 25.8942 72.5449 25.8763 72.2849 25.8583C72.3533 25.8817 72.4217 25.9051 72.4902 25.9285C72.6817 25.923 72.8733 25.9176 73.0649 25.9122ZM98.2417 25.802C99.0123 25.5731 99.5808 24.8053 99.5688 24C99.5697 20.5153 99.5706 17.0306 99.5715 13.5459C99.5813 13.9268 99.591 14.3078 99.6007 14.6887C99.5979 17.7404 99.5908 20.9579 99.5965 24C99.6034 24.6527 99.2493 25.2797 98.716 25.6188C98.5656 25.7015 98.4057 25.7631 98.2417 25.802ZM19.6778 25.8933C20.7875 25.8937 21.7144 25.8765 22.9217 25.9038C21.7712 25.9303 21.2016 25.8893 20.0836 25.9283C20.083 25.9283 20.0824 25.9283 20.0818 25.9283C19.9471 25.9167 19.8125 25.905 19.6778 25.8933ZM44.4532 25.9004C44.1158 25.9167 43.7784 25.9331 43.4409 25.9495C43.8468 25.9495 44.2526 25.9495 44.6584 25.9495C44.59 25.9331 44.5216 25.9167 44.4532 25.9004ZM86.5836 1.02259C85.4229 1.05829 82.4536 0.993678 81.5102 1.03663C81.4492 1.03945 82.01 1.05757 81.1034 1.09266C81.7882 1.08547 82.2717 1.07814 82.3228 1.05055C82.5262 1.0599 82.7296 1.06926 82.9329 1.07862C83.2704 1.07154 83.6078 1.06446 83.9452 1.05738C83.9086 1.08486 83.9353 1.08339 84.4537 1.06458C84.69 1.07154 84.9263 1.0785 85.1627 1.08546C85.2628 1.07382 85.363 1.06218 85.4631 1.05055C85.6677 1.06682 85.8723 1.0831 86.077 1.09937C86.8746 1.08172 86.3888 1.05018 86.5836 1.02259ZM90.6466 1.02931C90.4579 1.02326 85.0764 1.04299 87.5221 1.09779C88.1578 1.09604 88.7934 1.09429 89.4291 1.09254C88.9026 1.00179 90.6349 1.08294 90.7772 1.08485C91.4579 1.09371 92.3255 1.07213 92.8194 1.07325C93.2442 1.07424 93.4965 1.09051 93.7953 1.0901C94.8129 1.08869 96.4205 1.08809 96.6417 1.05055C95.8506 1.04976 95.0471 1.04936 94.2244 1.0503C93.3545 1.05129 92.5896 1.01585 90.9554 1.06446C90.5513 1.05924 90.6953 1.03086 90.6466 1.02931ZM42.425 25.9457C42.4656 25.908 40.4117 25.917 40.3986 25.9319C40.3945 25.9406 41.0634 25.9404 41.159 25.9437C41.1596 25.9437 41.1602 25.9437 41.1608 25.9437C41.2006 25.9452 40.9986 25.9596 41.3129 25.9636C41.6836 25.9576 42.0543 25.9517 42.425 25.9457ZM38.3483 1.05042C38.0706 1.02926 31.7283 1.03687 31.5415 1.04701C31.4907 1.04982 31.5615 1.0591 31.5415 1.06446C33.0211 1.0346 35.1245 1.06994 36.529 1.07227C36.9205 1.0729 36.8035 1.05791 36.8257 1.05763C36.8266 1.05763 36.8276 1.05763 36.8285 1.05763C37.0506 1.05759 38.0536 1.09422 38.3483 1.05042ZM79.4792 1.05384C79.7488 1.05974 80.0184 1.06564 80.288 1.07154C80.3565 1.05986 80.4249 1.04819 80.4933 1.03651C80.4927 1.03651 80.492 1.03651 80.4914 1.03651C80.154 1.04229 79.8166 1.04806 79.4792 1.05384ZM70.1376 1.01539C70.2032 1.02361 70.2688 1.03183 70.3344 1.04005C71.0133 1.04119 71.6922 1.04233 72.371 1.04347C72.3026 1.0481 72.2342 1.05274 72.1658 1.05738C73.1923 1.06978 73.6174 1.0409 74.1642 1.04505C74.1636 1.04505 74.1629 1.04505 74.1623 1.04505C74.2212 1.04554 74.2924 1.06266 74.5112 1.06324C75.0131 1.06458 76.4515 1.07095 76.6253 1.05372C76.9931 1.01695 74.0984 1.0344 73.5587 1.03272C73.3148 1.03195 73.0213 1.01696 72.873 1.01661C72.7104 1.01628 72.489 1.03652 72.093 1.0359C71.9772 1.03569 70.6926 1.01188 70.1376 1.01539ZM58.1548 1.03993C58.3641 1.05845 58.8012 1.04056 58.9618 1.04359C59.0001 1.0443 58.7018 1.05981 59.0634 1.06446C59.1658 1.05388 59.2681 1.0433 59.3704 1.03272C58.9652 1.03512 58.56 1.03753 58.1548 1.03993ZM38.974 25.9635C39.0331 25.9675 40.1357 25.966 40.1887 25.9635C40.8493 25.9297 38.5654 25.9333 38.974 25.9635ZM11.1469 26.0022C11.6542 26.0513 5.63613 26.003 5.05291 26.0056C5.08205 25.9747 6.51368 26.0058 5.76382 25.9634C6.47932 25.9867 8.45731 25.9743 8.92278 25.9811C9.2053 25.9852 9.2766 26.0118 9.31929 26.0127C9.48682 26.0157 10.9681 25.9849 11.1469 26.0022ZM0.768561 24.5299C0.912015 25.0799 1.30719 25.56 1.82355 25.8095C1.20841 25.5259 0.758561 24.91 0.682255 24.2326C0.70336 24.3343 0.732342 24.434 0.768561 24.5299ZM0.682993 23.8211C0.653051 23.8394 0.67586 21.8981 0.668956 21.3879C0.71989 21.9631 0.67187 22.9227 0.682993 23.8211ZM31.6597 26.0408C32.554 26.0606 32.9384 25.9693 31.8509 26.009C31.8178 26.0103 31.6224 26.0397 31.6597 26.0408ZM86.3074 0.894178C86.155 0.893615 84.2583 0.864022 84.1486 0.878676C83.8014 0.925424 85.0461 0.906676 85.4631 0.924329C86.1359 0.952932 85.1465 0.976501 86.7888 0.95924C86.7216 0.968598 86.6545 0.977957 86.5873 0.987315C87.5485 0.990414 87.2339 0.925586 87.4064 0.917249C87.4592 0.914715 88.0602 0.920165 88.1687 0.916028C89.5232 0.8638 86.4489 0.894614 86.3074 0.894178ZM53.7995 26.0477C55.58 26.0752 54.814 26.0349 56.6412 26.0373C56.7022 26.0168 54.0312 26.0297 53.7995 26.0477ZM99.7505 5.82198C99.746 4.8121 99.7521 3.90059 99.7526 3C99.7603 2.23067 99.2962 1.47526 98.5652 1.14801C98.5701 1.15297 99.7255 1.75299 99.7124 3C99.7202 4.47787 99.7424 6.09145 99.7505 5.82198ZM17.1218 0.87477C24.2868 0.973892 32.5513 0.94126 40.1796 0.939709C41.011 0.939568 41.0907 0.961635 41.3915 0.95924C41.5886 0.957688 41.5542 0.939915 41.816 0.939831C51.2821 0.936943 60.3459 0.913691 69.4136 0.924329C69.9847 0.925033 72.7635 0.963202 73.3572 0.905653C73.8062 0.861992 71.81 0.896034 71.4773 0.895643C71.2273 0.895361 71.2166 0.874842 71.05 0.87477C70.8731 0.874699 71.0192 0.888718 70.8139 0.888929C69.944 0.889915 68.9948 0.884436 68.2082 0.885634C60.4943 0.897117 52.9897 0.893832 45.3165 0.891859C44.3876 0.891647 44.5786 0.875206 44.5318 0.875136C44.5312 0.875177 44.5306 0.875217 44.53 0.875258C39.55 0.873708 33.8625 0.910588 28.5878 0.896498C24.8734 0.885186 21.159 0.873875 17.4446 0.862563C17.337 0.866632 17.2294 0.870701 17.1218 0.87477ZM90.2398 0.95216C89.7764 0.890163 89.6727 0.952673 88.01 0.92738C87.8748 0.93796 87.7395 0.948539 87.6042 0.959118C88.4837 0.956798 89.3631 0.954479 90.2426 0.95216C90.2417 0.95216 90.2407 0.95216 90.2398 0.95216ZM79.2581 0.929578C78.9771 0.845845 75.259 0.905021 73.5848 0.889052C73.2779 0.931102 75.7118 0.912212 76.2857 0.916639C76.5723 0.918823 78.1072 0.962071 79.2739 0.938122C79.2686 0.935274 79.2633 0.932426 79.2581 0.929578ZM17.4434 26.1252C17.714 26.1228 17.9845 26.1203 18.2551 26.1179C17.5781 26.1086 16.901 26.0994 16.224 26.0901C17.3041 26.0961 18.3841 26.102 19.4642 26.108C19.263 26.1254 19.0618 26.1428 18.8605 26.1601C18.3882 26.1485 17.9158 26.1369 17.4434 26.1252ZM20.9476 26.1163C19.0562 26.1229 21.0306 26.0764 21.5027 26.097C21.7852 26.1094 21.1407 26.1156 20.9476 26.1163ZM25.867 26.1462C24.9849 26.1767 23.2023 26.1788 23.836 26.1179C24.7893 26.1464 25.4037 26.1227 26.7859 26.1391C26.5841 26.1508 26.3823 26.1625 26.1805 26.1742C26.1795 26.1742 26.1786 26.1742 26.1777 26.1742C26.0741 26.1649 25.9705 26.1555 25.867 26.1462ZM20.0836 26.1532C18.8449 26.1182 22.4313 26.1302 21.3039 26.1532C21.2511 26.1542 20.1324 26.1545 20.0836 26.1532ZM25.0426 0.811783C24.8933 0.831691 25.8461 0.831319 26.163 0.832657C27.537 0.838573 29.2991 0.829911 30.7279 0.832657C30.6203 0.826106 30.5127 0.819555 30.4051 0.813004C28.6176 0.812597 26.8301 0.81219 25.0426 0.811783ZM35.1977 0.832779C36.1795 0.832779 37.1612 0.832779 38.143 0.832779C38.2345 0.832779 38.6637 0.815696 38.3445 0.811539C37.2956 0.818619 36.2466 0.825699 35.1977 0.832779ZM96.4374 0.832779C95.7871 0.823149 97.3161 0.779197 97.6816 0.806863C97.7451 0.811364 97.7757 0.819496 97.7611 0.827125C97.7347 0.826308 97.7082 0.825961 97.6816 0.826092C97.2669 0.828321 96.8521 0.83055 96.4374 0.832779ZM99.8733 5.61859C99.8675 5.14652 99.8616 4.67445 99.8558 4.20238C99.8629 4.20176 99.8699 4.20113 99.8769 4.20051C99.8757 4.67321 99.8745 5.1459 99.8733 5.61859ZM21.1829 0.797746C21.683 0.821834 22.8759 0.818127 23.6198 0.818619C23.1074 0.797923 21.8861 0.808098 21.1829 0.797746ZM85.159 0.808121C85.2199 0.824537 82.2256 0.820406 83.2623 0.79152C83.8945 0.797054 84.5267 0.802588 85.159 0.808121ZM79.0771 0.78383C79.7193 0.780239 80.2168 0.785878 80.0846 0.811661C79.7441 0.810563 79.4036 0.809464 79.0631 0.808366C79.0677 0.800187 79.0724 0.792009 79.0771 0.78383ZM29.2247 26.1953C30.3069 26.193 31.3891 26.1907 32.4713 26.1883C32.4312 26.1954 32.3911 26.2024 32.351 26.2095C31.3076 26.2117 30.2643 26.214 29.2209 26.2163C29.2222 26.2093 29.2234 26.2023 29.2247 26.1953ZM20.5709 0.734515C19.8277 0.739113 19.0844 0.743711 18.3412 0.748309C19.0851 0.753029 19.8289 0.757749 20.5728 0.762468C20.5728 0.75311 20.5728 0.743752 20.5728 0.734393C20.5722 0.734434 20.5716 0.734475 20.5709 0.734515ZM14.3992 26.2865C17.7053 26.3193 13.4868 26.354 12.6145 26.3058C12.6135 26.3058 12.6126 26.3058 12.6117 26.3059C12.5353 26.3016 12.6968 26.281 12.5697 26.2727C12.9062 26.282 13.2426 26.2913 13.5791 26.3006C13.8861 26.289 14.193 26.2774 14.5 26.2659C14.601 26.2704 14.7021 26.275 14.8032 26.2795C14.6685 26.2818 14.5338 26.2842 14.3992 26.2865ZM1.00804 25.5847C0.426056 24.9318 0.437404 24.4377 0.409542 24.3264C0.402502 24.1987 0.406648 24.3727 0.5064 24.6875C0.637299 25.356 1.70432 26.3206 2.59911 26.2887C2.59492 26.2926 2.21976 26.2934 1.83933 26.142C1.4544 26.002 1.11218 25.703 1.00804 25.5847ZM8.91251 26.2937C9.38489 26.289 9.85729 26.2843 10.3297 26.2796C10.39 26.2855 10.4503 26.2914 10.5107 26.2973C10.148 26.3032 9.78546 26.3091 9.42284 26.3149C9.25274 26.3078 9.08263 26.3008 8.91251 26.2937ZM24.448 26.3847C25.2082 26.3912 26.1779 26.3256 23.7371 26.3429C23.7383 26.3499 23.7396 26.357 23.7408 26.364C23.8381 26.3629 24.1236 26.3563 24.1392 26.3568C24.1839 26.3586 24.1311 26.3821 24.448 26.3847ZM0.191431 19.9652C0.188752 19.8798 0.114502 19.8334 0.191309 18.9455C0.18663 18.6771 0.181951 18.4087 0.177272 18.1403C0.193628 18.071 0.209985 18.0016 0.226342 17.9323C0.213661 18.971 0.246755 19.0811 0.24746 19.1563C0.250557 19.5016 0.233534 19.2461 0.2333 19.4689C0.232737 20.044 0.244167 21.351 0.195582 20.7582C0.17818 20.5448 0.194108 20.0506 0.191431 19.9652ZM0.149196 21.9962C0.155394 21.8702 0.177114 22.2761 0.183253 22.1809C0.188606 22.0976 0.210766 20.8457 0.24746 21.1846C0.245914 21.3901 0.244368 21.5957 0.242821 21.8012C0.232771 21.8709 0.222721 21.9406 0.212671 22.0102C0.221948 22.2092 0.231225 22.4083 0.240502 22.6073C0.215703 22.9427 0.183576 23.6564 0.163356 22.8088C0.165472 23.1204 0.167588 23.432 0.169703 23.7436C0.175994 23.8291 0.182285 23.9145 0.188575 24C0.19417 24.0947 0.205038 24.1883 0.221162 24.281C0.194439 24.1895 0.172838 24.0958 0.156578 24C0.154728 23.9914 0.152877 23.9827 0.151027 23.9741C0.150417 23.3148 0.149807 22.6555 0.149196 21.9962ZM0.156154 12.3365C0.165513 12.3744 0.174871 12.4124 0.184229 12.4503C0.166831 11.3059 0.160216 9.52375 0.218896 10.5359C0.223779 12.0861 0.228662 13.6364 0.233544 15.1866C0.226505 15.2896 0.219466 15.3925 0.212427 15.4954C0.239548 14.3389 0.12414 14.6963 0.157253 13.6902C0.162866 13.5206 0.203224 14.0128 0.177394 12.9466C0.167994 12.9846 0.158595 13.0225 0.149196 13.0604C0.151516 12.8191 0.153835 12.5778 0.156154 12.3365ZM0.248171 2.37709C0.180795 2.6371 0.16744 2.84586 0.165143 3C0.157787 3.48906 0.148274 3.33025 0.143303 3C0.112278 2.54922 0.364512 1.88101 0.49944 1.71772C0.49904 1.7184 0.498642 1.71908 0.498243 1.71976C1.15543 0.901167 0.0651933 2.25559 0.193793 3C0.192459 3.11035 0.191471 3.18854 0.191553 3.21037C0.192241 3.38327 0.247863 3.78594 0.166774 4.72641C0.167657 4.15094 0.16854 3.57547 0.169422 3C0.169622 2.79072 0.195886 2.58058 0.248171 2.37709ZM0.156276 8.89576C0.154445 8.73112 0.16857 8.82226 0.168361 8.75115C0.168361 8.75053 0.168361 8.7499 0.168361 8.74928C0.165331 7.70043 0.152684 5.20573 0.198267 4.93539C0.202071 5.71178 0.21192 9.18577 0.180934 9.39582C0.172714 9.22913 0.164495 9.06244 0.156276 8.89576ZM0.190211 16.2763C0.160699 16.9202 0.156769 15.4706 0.170436 15.0905C0.173397 15.0188 0.220782 15.6092 0.190211 16.2763ZM41.2093 26.5676C42.6261 26.5498 40.7646 26.5321 41.409 26.5044C41.1384 26.5067 40.8679 26.5091 40.5973 26.5114C40.8013 26.5302 41.0053 26.5489 41.2093 26.5676ZM100.305 19.0223C100.309 18.692 100.292 18.8485 100.291 18.8198C100.292 18.6029 100.306 18.3984 100.304 18.3151C100.276 16.7759 100.262 17.7995 100.259 17.815C100.242 17.8475 100.222 17.443 100.203 18.0035C100.209 18.3437 100.215 18.6839 100.221 19.0241C100.212 19.193 100.202 19.3619 100.193 19.5307C100.213 20.2066 100.219 19.3221 100.245 19.2219C100.256 19.1833 100.268 19.8191 100.305 19.0223ZM43.7479 26.6238C43.9776 26.5943 44.5405 26.5572 43.9877 26.5276C43.987 26.5276 43.9864 26.5276 43.9858 26.5276C43.8835 26.5221 43.4672 26.5192 43.3393 26.5116C42.4272 26.5508 42.7766 26.5913 43.7479 26.6238ZM99.9458 25.4276C99.55 26.046 98.8922 26.4859 98.1713 26.6106C98.1803 26.5909 98.1889 26.5713 98.1973 26.5516C98.5736 26.481 98.9346 26.3248 99.2449 26.099C99.348 26.0121 99.4438 25.9176 99.5314 25.8169C99.1868 26.1398 98.756 26.3627 98.3023 26.4557C98.1 26.5095 97.8907 26.5378 97.6816 26.5404C97.4077 26.5448 97.1337 26.5492 96.8597 26.5536C97.0615 26.5629 97.2634 26.5722 97.4652 26.5815C96.392 26.5918 96.6256 26.5489 95.7374 26.5324C95.4332 26.5488 95.1291 26.5652 94.825 26.5815C94.3846 26.5651 93.9443 26.5486 93.5039 26.5322C92.764 26.5399 92.699 26.5524 93.197 26.5711C92.8291 26.5926 92.4263 26.5589 91.9832 26.5676C91.9466 26.5683 92.0155 26.5885 91.9832 26.5887C89.6924 26.6023 89.8142 26.5493 89.4484 26.5471C89.1902 26.5455 88.1594 26.5813 88.1432 26.5935C88.1233 26.6099 90.2671 26.6747 86.9098 26.6764C88.6456 26.7212 90.6189 26.6756 89.3429 26.6098C89.8923 26.6164 92.3148 26.6 92.4693 26.602C92.6944 26.605 92.6154 26.6299 92.8975 26.6306C93.0642 26.6309 93.5058 26.5739 94.825 26.6238C94.9935 26.6144 95.1621 26.605 95.3306 26.5957C95.4886 26.6034 95.6466 26.6111 95.8046 26.6187C95.4793 26.6462 95.154 26.6736 94.8287 26.701C95.9653 26.6747 96.9312 26.7152 97.6816 26.6927C97.8163 26.6897 97.9451 26.6756 98.0671 26.6524C98.9727 26.4976 99.3078 26.1262 98.9908 26.379C99.2332 26.2455 99.4543 26.075 99.645 25.8753C99.7606 25.7357 99.8614 25.5854 99.9458 25.4276ZM47.9107 26.5816C48.5849 26.609 48.8273 26.5499 48.7224 26.5466C48.1311 26.5282 47.5599 26.5674 47.9107 26.5816ZM100.274 20.2463C100.259 20.9902 100.243 21.734 100.228 22.4779C100.247 22.4779 100.266 22.4779 100.284 22.4779C100.281 21.734 100.277 20.9902 100.274 20.2463ZM41.0022 26.6096C40.9338 26.5956 40.8654 26.5816 40.797 26.5676C39.9822 26.6187 39.1732 26.5454 38.7706 26.5605C38.6832 26.5638 38.8596 26.5885 39.0262 26.5938C39.1299 26.5972 40.8579 26.6143 41.0022 26.6096ZM7.083 26.6029C7.38654 26.5935 7.69005 26.5841 7.99356 26.5747C7.97677 26.5904 7.95998 26.6062 7.94319 26.6219C7.79329 26.6248 7.6434 26.6278 7.4935 26.6307C7.35667 26.6214 7.21985 26.6122 7.083 26.6029ZM10.5368 26.5779C11.0782 26.5791 11.6196 26.5804 12.161 26.5816C10.0959 26.5961 11.7907 26.6031 10.5368 26.6236C10.5368 26.6084 10.5368 26.5931 10.5368 26.5779ZM16.0169 26.6097C15.9504 26.6191 15.8838 26.6285 15.8173 26.6379C15.2758 26.6379 14.7344 26.6379 14.193 26.6379C14.5354 26.6705 14.8778 26.7032 15.2202 26.7358C15.4186 26.7359 15.617 26.736 15.8154 26.7361C15.8826 26.6939 15.9497 26.6518 16.0169 26.6097ZM100.375 4.39736C100.376 4.10334 100.353 3.15434 100.341 3C100.339 2.9768 100.338 2.96717 100.337 2.97374C100.337 2.98249 100.337 2.99124 100.336 3C100.324 3.46641 100.311 3.93282 100.298 4.39923C100.317 4.40141 100.336 4.40358 100.354 4.40576C100.345 4.47262 100.336 4.53948 100.327 4.60634C100.334 4.87534 100.341 5.14434 100.348 5.41334C100.331 5.54893 100.315 5.68452 100.298 5.82011C100.317 5.95632 100.336 6.09253 100.354 6.22874C100.388 4.92992 100.354 4.97461 100.355 4.7043C100.355 4.56722 100.367 4.4805 100.372 4.43188C100.373 4.42038 100.374 4.40887 100.375 4.39736ZM100.393 20.7603C100.398 19.2095 100.348 18.3231 100.39 17.2011C100.305 17.8926 100.386 22.2098 100.327 24C100.325 24.0963 100.317 24.1866 100.306 24.2701C100.297 24.4948 100.259 24.7205 100.192 24.9394C100.312 24.609 100.358 24.2886 100.36 24C100.364 23.4774 100.379 23.0783 100.382 22.7709C100.385 22.4253 100.371 22.4614 100.371 22.435C100.371 22.4337 100.371 22.4325 100.371 22.4313C100.377 21.6223 100.391 21.3721 100.393 20.7603ZM39.85 26.6784C40.2668 26.7007 40.996 26.6985 41.0041 26.666C40.5983 26.6566 40.1924 26.6472 39.7866 26.6378C39.8699 26.6461 39.7789 26.6746 39.85 26.6784ZM16.6467 26.7004C16.9719 26.711 17.7402 26.7017 17.4089 26.6737C17.3493 26.6687 16.5841 26.6884 17.0329 26.6378C16.2872 26.6386 16.4617 26.6943 16.6467 26.7004ZM77.5617 26.6449C77.288 26.6458 77.0143 26.6467 76.7407 26.6477C76.6769 26.6608 76.6132 26.6739 76.5494 26.687C76.8868 26.6729 77.2243 26.6589 77.5617 26.6449ZM36.3328 26.7009C35.969 26.6368 35.3474 26.6992 34.6647 26.6465C34.4125 26.646 34.1603 26.6456 33.9081 26.6452C33.9075 26.6452 33.9068 26.6452 33.9062 26.6452C33.8994 26.6627 33.8925 26.6802 33.8857 26.6977C34.7014 26.6988 35.5171 26.6998 36.3328 26.7009ZM94.6253 26.6765C94.4567 26.6683 94.2882 26.6602 94.1196 26.6521C93.8195 26.6616 93.5194 26.671 93.2193 26.6805C93.3817 26.6873 93.544 26.6941 93.7063 26.7009C94.0127 26.6928 94.319 26.6846 94.6253 26.6765ZM31.8994 26.7064C32.7816 26.7144 33.1134 26.6587 31.9853 26.6585C31.5097 26.6585 30.9752 26.698 31.8994 26.7064ZM85.3679 0.326935C85.6702 0.331696 85.9725 0.336456 86.2748 0.341217C86.3777 0.329498 86.4806 0.31778 86.5836 0.306062C86.1784 0.313019 85.7732 0.319977 85.3679 0.326935ZM12.4633 26.6941C12.4988 26.6823 12.5342 26.6706 12.5697 26.6589C12.8393 26.6613 13.1089 26.6636 13.3785 26.666C13.3108 26.6776 13.243 26.6893 13.1752 26.7009C12.9379 26.6986 12.7006 26.6963 12.4633 26.6941ZM87.4018 0.334137C87.6434 0.336375 87.885 0.338613 88.1267 0.340851C88.289 0.335154 88.4513 0.329458 88.6137 0.323761C88.3876 0.318105 88.1615 0.31245 87.9354 0.306794C87.7575 0.315908 87.5797 0.325023 87.4018 0.334137ZM23.5374 26.701C23.8769 26.7151 25.2327 26.6712 24.0114 26.66C23.2331 26.6529 23.4865 26.6989 23.5374 26.701ZM21.7079 26.7151C23.0007 26.7419 22.0313 26.6057 20.4885 26.6939C22.0417 26.6818 21.6319 26.7134 21.7079 26.7151ZM10.3399 26.7854C10.3074 26.7853 10.2806 26.7657 10.0209 26.765C9.08587 26.7624 7.85158 26.7547 7.18283 26.7535C6.27775 26.7519 4.32146 26.7624 2.68164 26.7618C0.784416 26.7571 0.0451609 24.9989 0.0487131 24.7209C0.0165804 24.5609 0.153474 24.9109 0.138008 24.8458C0.0969589 24.737 -0.0109183 24.2928 0.000913024 24C0.00177538 23.8587 0.00535458 23.7677 0.0156555 23.8276C0.015641 23.8851 0.0156265 23.9425 0.015612 24C0.00402522 25.0056 0.623125 25.9828 1.53396 26.4075C1.28689 26.3101 1.05262 26.1745 0.841514 26.0058C1.88229 26.8536 2.48917 26.6748 2.68164 26.7095C2.85762 26.7036 2.82412 26.6939 3.12357 26.6731C3.4644 26.6886 3.80526 26.7042 4.14608 26.7198C4.88808 26.7042 5.6301 26.6885 6.37209 26.6728C6.20388 26.6845 6.03561 26.6962 5.86737 26.7079C6.98526 26.7295 6.67471 26.7153 7.28639 26.687C7.28764 26.6987 7.28888 26.7103 7.29012 26.722C8.36946 26.6936 8.5797 26.7285 8.81549 26.729C9.29921 26.7297 9.91573 26.5915 11.7608 26.729C12.5388 26.6629 12.5211 26.7974 12.9783 26.729C14.2951 26.8034 11.7908 26.7765 10.6058 26.774C10.6052 26.774 10.6046 26.774 10.604 26.774C10.5145 26.7738 10.6565 26.7863 10.3399 26.7854ZM17.1038 26.7169C16.3067 26.7776 19.4559 26.7833 18.4137 26.6956C18.2585 26.6928 18.1033 26.69 17.9481 26.6871C17.6661 26.697 17.384 26.707 17.1019 26.7169C17.1026 26.7169 17.1032 26.7169 17.1038 26.7169ZM46.6932 26.7572C49.6101 26.7322 47.9516 26.6973 46.9638 26.7314C46.7667 26.7382 46.6587 26.7474 46.6932 26.7572ZM100.44 18.5446C100.432 18.502 100.425 18.4594 100.418 18.4168C100.425 19.3949 100.397 21.2864 100.446 21.2604C100.444 20.3551 100.442 19.4499 100.44 18.5446ZM98.8444 26.5368C98.9796 26.4806 99.31 26.2994 99.5441 26.0826C99.7823 25.8707 99.9307 25.6502 99.8808 25.7035C99.5543 26.1041 99.1172 26.4083 98.6328 26.573C98.4125 26.6632 98.1787 26.7247 97.9412 26.755C98.2772 26.7404 98.7754 26.5772 98.8444 26.5368Z" fill="#E85D5A"/>
</svg>
