<svg width="158" height="31" viewBox="0 0 158 31" fill="none" xmlns="http://www.w3.org/2000/svg">
<path d="M157.358 0.639648L157.266 25.3359L154.778 28.4053L153.103 30.3604H0.639648V0.639648H157.358Z" stroke="#FBC706" stroke-opacity="0.3" stroke-width="1.28"/>
<path d="M27.9087 12.9394C27.5525 12.9581 27.2525 13.0941 27.0087 13.3472C26.7743 13.6003 26.6056 13.8909 26.5025 14.2191C26.3993 14.5378 26.3478 14.8659 26.3478 15.2034C26.3478 15.5409 26.3946 15.8738 26.4884 16.2019C26.5915 16.53 26.765 16.8206 27.0087 17.0738C27.2525 17.3175 27.5525 17.4488 27.9087 17.4675H32.5493C33.14 17.5238 33.4634 17.8472 33.5196 18.4378C33.5103 18.7003 33.4118 18.9206 33.2243 19.0988C33.0368 19.2675 32.8118 19.3519 32.5493 19.3519H28.0634H27.4165C26.7603 19.3144 26.2212 19.0659 25.7993 18.6066C25.3775 18.1378 25.0728 17.6081 24.8853 17.0175C24.7071 16.4269 24.6181 15.8222 24.6181 15.2034C24.6181 14.7441 24.6696 14.2894 24.7728 13.8394C24.8759 13.3894 25.0353 12.9628 25.2509 12.5597C25.4759 12.1472 25.7712 11.7956 26.1368 11.505C26.5118 11.2144 26.9384 11.0644 27.4165 11.055H27.6837H32.5493C33.14 11.1113 33.4634 11.4347 33.5196 12.0253C33.5196 12.2878 33.4212 12.5081 33.2243 12.6863C33.0368 12.855 32.8118 12.9394 32.5493 12.9394H27.9087ZM36.1358 18.6347C36.0796 19.1972 35.7702 19.5019 35.2077 19.5488C34.9452 19.5488 34.7155 19.4644 34.5186 19.2956C34.3311 19.1175 34.2374 18.8972 34.2374 18.6347V11.9691C34.2468 11.7066 34.3452 11.4909 34.5327 11.3222C34.7202 11.1441 34.9452 11.055 35.2077 11.055H35.8968H37.6265H41.0999C41.1561 11.055 41.2124 11.0597 41.2686 11.0691H41.353C42.0093 11.0878 42.5483 11.2378 42.9702 11.5191C43.3921 11.8003 43.6968 12.1238 43.8843 12.4894C44.0718 12.8456 44.1655 13.2066 44.1655 13.5722C44.1655 13.9472 44.0718 14.3175 43.8843 14.6831C43.7061 15.0394 43.4015 15.3581 42.9702 15.6394C42.5483 15.9206 42.0093 16.0706 41.353 16.0894H38.878C38.953 16.5581 39.1077 16.905 39.3421 17.13C39.5671 17.355 39.853 17.4675 40.1999 17.4675H43.2374C43.4999 17.4769 43.7155 17.5753 43.8843 17.7628C44.0624 17.9503 44.1515 18.1753 44.1515 18.4378C44.1421 18.6909 44.0483 18.9066 43.8702 19.0847C43.7015 19.2534 43.4905 19.3425 43.2374 19.3519H39.9468C39.253 19.3613 38.6249 19.0894 38.0624 18.5363C37.4999 17.9831 37.1577 17.3269 37.0358 16.5675C36.8671 15.7238 36.7827 15.2503 36.7827 15.1472C36.7827 14.8847 36.8718 14.6644 37.0499 14.4863C37.2374 14.2988 37.4624 14.205 37.7249 14.205H41.4374C41.6155 14.1956 41.7608 14.1581 41.8733 14.0925C41.9952 14.0175 42.0843 13.9378 42.1405 13.8534C42.1968 13.7597 42.2249 13.6659 42.2249 13.5722C42.2249 13.4784 42.1968 13.3894 42.1405 13.305C42.0843 13.2113 41.9952 13.1316 41.8733 13.0659C41.7608 12.9909 41.6155 12.9488 41.4374 12.9394H37.6265H36.5015C36.2577 12.9488 36.1358 13.0706 36.1358 13.305V18.6347ZM47.7239 11.055H48.3708H53.152C53.4145 11.0644 53.6301 11.1628 53.7989 11.3503C53.977 11.5378 54.0661 11.7628 54.0661 12.0253C54.0192 12.5878 53.7145 12.8925 53.152 12.9394H48.202C47.8458 12.9581 47.5505 13.0941 47.3161 13.3472C47.0817 13.6003 46.9083 13.8909 46.7958 14.2191C46.6926 14.5378 46.6411 14.8659 46.6411 15.2034C46.6411 15.5409 46.6926 15.8738 46.7958 16.2019C46.9083 16.5206 47.0817 16.8066 47.3161 17.0597C47.5505 17.3128 47.8458 17.4488 48.202 17.4675H53.152C53.4145 17.4769 53.6301 17.5753 53.7989 17.7628C53.977 17.9503 54.0661 18.1753 54.0661 18.4378C54.0567 18.6909 53.963 18.9066 53.7848 19.0847C53.6161 19.2534 53.4051 19.3425 53.152 19.3519H47.9911H47.7239C47.0676 19.3144 46.5239 19.0659 46.0926 18.6066C45.6708 18.1378 45.3661 17.6081 45.1786 17.0175C45.0005 16.4269 44.9114 15.8222 44.9114 15.2034C44.9114 14.5847 45.0051 13.98 45.1926 13.3894C45.3801 12.7988 45.6848 12.2738 46.1067 11.8144C46.5286 11.3456 47.0676 11.0925 47.7239 11.055ZM54.038 15.1472C54.038 15.4097 53.9442 15.63 53.7567 15.8081C53.5786 15.9956 53.3583 16.0894 53.0958 16.0894H48.8489C48.5864 16.0894 48.3614 16.0003 48.1739 15.8222C47.9958 15.6347 47.9067 15.4097 47.9067 15.1472C47.9067 14.8847 47.9958 14.6597 48.1739 14.4722C48.3614 14.2941 48.5864 14.205 48.8489 14.205H53.0958C53.3583 14.205 53.5786 14.2988 53.7567 14.4863C53.9442 14.6644 54.038 14.8847 54.038 15.1472ZM58.0604 17.1722C58.0604 16.9097 58.1495 16.6894 58.3276 16.5113C58.5151 16.3238 58.7401 16.23 59.0026 16.23H61.1541L60.7885 15.1894C60.6385 14.805 60.4885 14.4441 60.3385 14.1066C60.1979 13.7597 60.0338 13.4456 59.8463 13.1644C59.6776 12.8831 59.4854 12.7331 59.2698 12.7144C59.0448 12.7331 58.8432 12.8831 58.6651 13.1644C58.487 13.4456 58.3229 13.7597 58.1729 14.1066C58.0323 14.4441 57.887 14.805 57.737 15.1894L56.401 18.8456C56.3073 19.0425 56.1854 19.2066 56.0354 19.3378C55.8948 19.4597 55.6791 19.5206 55.3885 19.5206C55.1166 19.5206 54.8916 19.4269 54.7135 19.2394C54.5448 19.0519 54.4698 18.8269 54.4885 18.5644C54.4979 18.4425 54.526 18.33 54.5729 18.2269L56.1198 14.2331C56.551 13.1831 56.9823 12.3347 57.4135 11.6878C57.8354 11.0503 58.4541 10.7269 59.2698 10.7175C60.076 10.7269 60.6901 11.0503 61.112 11.6878C61.5432 12.3159 61.9745 13.1644 62.4057 14.2331L63.9526 18.2269C63.9995 18.33 64.0276 18.4425 64.037 18.5644C64.0557 18.8269 63.976 19.0519 63.7979 19.2394C63.6291 19.4269 63.4088 19.5206 63.137 19.5206C62.8276 19.5206 62.5979 19.4597 62.4479 19.3378C62.3073 19.2066 62.1901 19.0425 62.0963 18.8456L61.8291 18.1144H59.0026C58.7401 18.1144 58.5198 18.0206 58.3416 17.8331C58.1541 17.655 58.0604 17.4347 58.0604 17.1722ZM64.6 11.9972C64.6 11.7347 64.6891 11.5144 64.8672 11.3363C65.0547 11.1488 65.2797 11.055 65.5422 11.055H73.7266C73.9891 11.055 74.2141 11.1441 74.4016 11.3222C74.5797 11.5097 74.6688 11.7347 74.6688 11.9972C74.6688 12.2597 74.575 12.4847 74.3875 12.6722C74.2094 12.8503 73.9891 12.9394 73.7266 12.9394H70.5906V18.6347C70.5344 19.1972 70.225 19.5019 69.6625 19.5488C69.4 19.5488 69.1703 19.4644 68.9735 19.2956C68.786 19.1175 68.6922 18.8972 68.6922 18.6347V12.9394H65.5422C65.2797 12.9394 65.0594 12.8456 64.8813 12.6581C64.6938 12.48 64.6 12.2597 64.6 11.9972ZM78.185 11.055H78.8318H83.6131C83.8756 11.0644 84.0912 11.1628 84.26 11.3503C84.4381 11.5378 84.5271 11.7628 84.5271 12.0253C84.4803 12.5878 84.1756 12.8925 83.6131 12.9394H78.6631C78.3068 12.9581 78.0115 13.0941 77.7771 13.3472C77.5428 13.6003 77.3693 13.8909 77.2568 14.2191C77.1537 14.5378 77.1021 14.8659 77.1021 15.2034C77.1021 15.5409 77.1537 15.8738 77.2568 16.2019C77.3693 16.5206 77.5428 16.8066 77.7771 17.0597C78.0115 17.3128 78.3068 17.4488 78.6631 17.4675H83.6131C83.8756 17.4769 84.0912 17.5753 84.26 17.7628C84.4381 17.9503 84.5271 18.1753 84.5271 18.4378C84.5178 18.6909 84.424 18.9066 84.2459 19.0847C84.0771 19.2534 83.8662 19.3425 83.6131 19.3519H78.4521H78.185C77.5287 19.3144 76.985 19.0659 76.5537 18.6066C76.1318 18.1378 75.8271 17.6081 75.6396 17.0175C75.4615 16.4269 75.3725 15.8222 75.3725 15.2034C75.3725 14.5847 75.4662 13.98 75.6537 13.3894C75.8412 12.7988 76.1459 12.2738 76.5678 11.8144C76.9896 11.3456 77.5287 11.0925 78.185 11.055ZM84.499 15.1472C84.499 15.4097 84.4053 15.63 84.2178 15.8081C84.0396 15.9956 83.8193 16.0894 83.5568 16.0894H79.31C79.0475 16.0894 78.8225 16.0003 78.635 15.8222C78.4568 15.6347 78.3678 15.4097 78.3678 15.1472C78.3678 14.8847 78.4568 14.6597 78.635 14.4722C78.8225 14.2941 79.0475 14.205 79.31 14.205H83.5568C83.8193 14.205 84.0396 14.2988 84.2178 14.4863C84.4053 14.6644 84.499 14.8847 84.499 15.1472ZM96.4673 10.6753C96.9548 10.6753 97.433 10.7316 97.9017 10.8441C98.3798 10.9566 98.8345 11.1253 99.2658 11.3503C99.697 11.5659 100.077 11.8566 100.405 12.2222C100.742 12.5878 100.925 13.0238 100.953 13.53V14.1206V18.6066C100.897 19.1691 100.588 19.4738 100.025 19.5206C99.7626 19.5206 99.533 19.4363 99.3361 19.2675C99.1486 19.0894 99.0548 18.8691 99.0548 18.6066V13.9659C99.0361 13.6753 98.9236 13.4363 98.7173 13.2488C98.5205 13.0519 98.2955 12.8972 98.0423 12.7847C97.7986 12.6722 97.5408 12.5878 97.2689 12.5316C97.0064 12.4753 96.7392 12.4472 96.4673 12.4472C96.1955 12.4472 95.9236 12.4753 95.6517 12.5316C95.3892 12.5878 95.1314 12.6722 94.8783 12.7847C94.6345 12.8972 94.4095 13.0519 94.2033 13.2488C94.0064 13.4363 93.8986 13.6753 93.8798 13.9659V18.6066C93.833 19.1691 93.5283 19.4738 92.9658 19.5206C92.7033 19.5206 92.4736 19.4363 92.2767 19.2675C92.0892 19.0894 91.9955 18.8691 91.9955 18.6066V14.1206V13.53C92.0236 13.0238 92.2017 12.5878 92.5298 12.2222C92.858 11.8566 93.2376 11.5659 93.6689 11.3503C94.1001 11.1253 94.5501 10.9566 95.0189 10.8441C95.497 10.7316 95.9798 10.6753 96.4673 10.6753ZM109.701 11.055C110.179 11.0644 110.605 11.2144 110.98 11.505C111.355 11.7956 111.655 12.1425 111.88 12.5456C112.115 12.9488 112.288 13.3753 112.401 13.8253C112.513 14.2753 112.569 14.7347 112.569 15.2034C112.569 15.8222 112.471 16.4316 112.274 17.0316C112.087 17.6222 111.773 18.1472 111.332 18.6066C110.901 19.0659 110.357 19.3144 109.701 19.3519H104.793C104.137 19.3238 103.588 19.08 103.148 18.6206C102.707 18.1613 102.393 17.6316 102.205 17.0316C102.027 16.4316 101.938 15.8222 101.938 15.2034C101.938 14.5847 102.032 13.98 102.219 13.3894C102.407 12.7894 102.716 12.2597 103.148 11.8003C103.588 11.3316 104.137 11.0831 104.793 11.055H105.06H109.434H109.701ZM109.223 17.4675C109.579 17.4488 109.874 17.3175 110.109 17.0738C110.352 16.8206 110.526 16.53 110.629 16.2019C110.732 15.8738 110.784 15.5409 110.784 15.2034C110.784 14.8659 110.727 14.5378 110.615 14.2191C110.512 13.8909 110.343 13.6003 110.109 13.3472C109.874 13.0941 109.579 12.9581 109.223 12.9394H105.229C104.873 12.9581 104.577 13.0941 104.343 13.3472C104.109 13.6003 103.935 13.8909 103.823 14.2191C103.719 14.5378 103.668 14.8659 103.668 15.2034C103.668 15.5409 103.719 15.8738 103.823 16.2019C103.926 16.53 104.094 16.8206 104.329 17.0738C104.573 17.3175 104.873 17.4488 105.229 17.4675H109.223ZM113.259 11.9972C113.259 11.7347 113.348 11.5144 113.526 11.3363C113.714 11.1488 113.939 11.055 114.201 11.055H122.386C122.648 11.055 122.873 11.1441 123.061 11.3222C123.239 11.5097 123.328 11.7347 123.328 11.9972C123.328 12.2597 123.234 12.4847 123.047 12.6722C122.868 12.8503 122.648 12.9394 122.386 12.9394H119.25V18.6347C119.193 19.1972 118.884 19.5019 118.322 19.5488C118.059 19.5488 117.829 19.4644 117.633 19.2956C117.445 19.1175 117.351 18.8972 117.351 18.6347V12.9394H114.201C113.939 12.9394 113.718 12.8456 113.54 12.6581C113.353 12.48 113.259 12.2597 113.259 11.9972ZM126.844 11.055H127.491H132.272C132.535 11.0644 132.75 11.1628 132.919 11.3503C133.097 11.5378 133.186 11.7628 133.186 12.0253C133.139 12.5878 132.835 12.8925 132.272 12.9394H127.322C126.966 12.9581 126.671 13.0941 126.436 13.3472C126.202 13.6003 126.028 13.8909 125.916 14.2191C125.813 14.5378 125.761 14.8659 125.761 15.2034C125.761 15.5409 125.813 15.8738 125.916 16.2019C126.028 16.5206 126.202 16.8066 126.436 17.0597C126.671 17.3128 126.966 17.4488 127.322 17.4675H132.272C132.535 17.4769 132.75 17.5753 132.919 17.7628C133.097 17.9503 133.186 18.1753 133.186 18.4378C133.177 18.6909 133.083 18.9066 132.905 19.0847C132.736 19.2534 132.525 19.3425 132.272 19.3519H127.111H126.844C126.188 19.3144 125.644 19.0659 125.213 18.6066C124.791 18.1378 124.486 17.6081 124.299 17.0175C124.121 16.4269 124.032 15.8222 124.032 15.2034C124.032 14.5847 124.125 13.98 124.313 13.3894C124.5 12.7988 124.805 12.2738 125.227 11.8144C125.649 11.3456 126.188 11.0925 126.844 11.055ZM133.158 15.1472C133.158 15.4097 133.064 15.63 132.877 15.8081C132.699 15.9956 132.478 16.0894 132.216 16.0894H127.969C127.707 16.0894 127.482 16.0003 127.294 15.8222C127.116 15.6347 127.027 15.4097 127.027 15.1472C127.027 14.8847 127.116 14.6597 127.294 14.4722C127.482 14.2941 127.707 14.205 127.969 14.205H132.216C132.478 14.205 132.699 14.2988 132.877 14.4863C133.064 14.6644 133.158 14.8847 133.158 15.1472Z" fill="#FBC706"/>
</svg>
