<svg width="116" height="31" viewBox="0 0 116 31" fill="none" xmlns="http://www.w3.org/2000/svg">
<path d="M114.518 0.639648L114.451 25.0234L112.625 28.0713L111.453 29.9199H0.639648V0.639648H114.518Z" stroke="#FBC706" stroke-opacity="0.3" stroke-width="1.28"/>
<path d="M23.7283 10.45C23.9908 10.45 24.2158 10.5391 24.4033 10.7172C24.5908 10.8859 24.6893 11.1016 24.6987 11.3641V14.7531C24.6893 15.1375 24.7127 15.4937 24.769 15.8219C24.8346 16.1406 24.9846 16.4266 25.219 16.6797C25.4533 16.9328 25.7487 17.0687 26.1049 17.0875H30.6049C30.8674 17.0969 31.083 17.1953 31.2518 17.3828C31.4299 17.5703 31.519 17.7953 31.519 18.0578C31.5096 18.3109 31.4158 18.5266 31.2377 18.7047C31.069 18.8734 30.858 18.9625 30.6049 18.9719H25.6268C24.9705 18.9344 24.4268 18.7141 23.9955 18.3109C23.5737 17.8984 23.269 17.3969 23.0815 16.8062C22.9033 16.2156 22.8096 15.5875 22.8002 14.9219V11.3641C22.8096 11.1109 22.9033 10.9 23.0815 10.7312C23.2596 10.5531 23.4752 10.4594 23.7283 10.45ZM39.8305 10.675C40.3086 10.6844 40.7352 10.8344 41.1102 11.125C41.4852 11.4156 41.7852 11.7625 42.0102 12.1656C42.2445 12.5687 42.418 12.9953 42.5305 13.4453C42.643 13.8953 42.6992 14.3547 42.6992 14.8234C42.6992 15.4422 42.6008 16.0516 42.4039 16.6516C42.2164 17.2422 41.9023 17.7672 41.4617 18.2266C41.0305 18.6859 40.4867 18.9344 39.8305 18.9719H34.9227C34.2664 18.9437 33.718 18.7 33.2773 18.2406C32.8367 17.7812 32.5227 17.2516 32.3352 16.6516C32.157 16.0516 32.068 15.4422 32.068 14.8234C32.068 14.2047 32.1617 13.6 32.3492 13.0094C32.5367 12.4094 32.8461 11.8797 33.2773 11.4203C33.718 10.9516 34.2664 10.7031 34.9227 10.675H35.1898H39.5633H39.8305ZM39.3523 17.0875C39.7086 17.0687 40.0039 16.9375 40.2383 16.6937C40.482 16.4406 40.6555 16.15 40.7586 15.8219C40.8617 15.4937 40.9133 15.1609 40.9133 14.8234C40.9133 14.4859 40.857 14.1578 40.7445 13.8391C40.6414 13.5109 40.4727 13.2203 40.2383 12.9672C40.0039 12.7141 39.7086 12.5781 39.3523 12.5594H35.3586C35.0023 12.5781 34.707 12.7141 34.4727 12.9672C34.2383 13.2203 34.0648 13.5109 33.9523 13.8391C33.8492 14.1578 33.7977 14.4859 33.7977 14.8234C33.7977 15.1609 33.8492 15.4937 33.9523 15.8219C34.0555 16.15 34.2242 16.4406 34.4586 16.6937C34.7023 16.9375 35.0023 17.0687 35.3586 17.0875H39.3523ZM46.3279 10.675H52.2623C52.5248 10.6844 52.7404 10.7828 52.9092 10.9703C53.0873 11.1578 53.1763 11.3828 53.1763 11.6453C53.1295 12.2078 52.8248 12.5125 52.2623 12.5594H46.806C46.4498 12.5781 46.1545 12.7141 45.9201 12.9672C45.6857 13.2203 45.5123 13.5109 45.3998 13.8391C45.2967 14.1578 45.2451 14.4859 45.2451 14.8234C45.2451 15.1609 45.2967 15.4937 45.3998 15.8219C45.5123 16.1406 45.6857 16.4266 45.9201 16.6797C46.1545 16.9328 46.4498 17.0687 46.806 17.0875H51.081C51.2498 17.0781 51.3388 16.9844 51.3482 16.8062V15.9906C51.3388 15.8031 51.2498 15.7094 51.081 15.7094H47.481C47.2185 15.7094 46.9935 15.6203 46.806 15.4422C46.6279 15.2547 46.5388 15.0297 46.5388 14.7672C46.5388 14.5047 46.6279 14.2797 46.806 14.0922C46.9935 13.9141 47.2185 13.825 47.481 13.825H52.2904C52.5529 13.825 52.7779 13.9141 52.9654 14.0922C53.1342 14.2703 53.2232 14.4859 53.2326 14.7391V14.7672V18.0578C53.2232 18.3109 53.1342 18.5219 52.9654 18.6906C52.7873 18.8687 52.5717 18.9625 52.3185 18.9719H46.3279C45.6717 18.9344 45.1279 18.6859 44.6967 18.2266C44.2748 17.7578 43.9701 17.2281 43.7826 16.6375C43.6045 16.0469 43.5154 15.4422 43.5154 14.8234C43.5154 14.2047 43.6092 13.6 43.7967 13.0094C43.9842 12.4187 44.2888 11.8937 44.7107 11.4344C45.1326 10.9656 45.6717 10.7125 46.3279 10.675ZM68.5759 10.675C69.054 10.6844 69.4806 10.8344 69.8556 11.125C70.2306 11.4156 70.5306 11.7625 70.7556 12.1656C70.99 12.5687 71.1634 12.9953 71.2759 13.4453C71.3884 13.8953 71.4447 14.3547 71.4447 14.8234C71.4447 15.4422 71.3462 16.0516 71.1494 16.6516C70.9619 17.2422 70.6478 17.7672 70.2072 18.2266C69.7759 18.6859 69.2322 18.9344 68.5759 18.9719H63.6681C63.0119 18.9437 62.4634 18.7 62.0228 18.2406C61.5822 17.7812 61.2681 17.2516 61.0806 16.6516C60.9025 16.0516 60.8134 15.4422 60.8134 14.8234C60.8134 14.2047 60.9072 13.6 61.0947 13.0094C61.2822 12.4094 61.5915 11.8797 62.0228 11.4203C62.4634 10.9516 63.0119 10.7031 63.6681 10.675H63.9353H68.3087H68.5759ZM68.0978 17.0875C68.454 17.0687 68.7494 16.9375 68.9837 16.6937C69.2275 16.4406 69.4009 16.15 69.504 15.8219C69.6072 15.4937 69.6587 15.1609 69.6587 14.8234C69.6587 14.4859 69.6025 14.1578 69.49 13.8391C69.3869 13.5109 69.2181 13.2203 68.9837 12.9672C68.7494 12.7141 68.454 12.5781 68.0978 12.5594H64.104C63.7478 12.5781 63.4525 12.7141 63.2181 12.9672C62.9837 13.2203 62.8103 13.5109 62.6978 13.8391C62.5947 14.1578 62.5431 14.4859 62.5431 14.8234C62.5431 15.1609 62.5947 15.4937 62.6978 15.8219C62.8009 16.15 62.9697 16.4406 63.204 16.6937C63.4478 16.9375 63.7478 17.0687 64.104 17.0875H68.0978ZM76.8874 19.2953C76.3999 19.2953 75.9171 19.2391 75.439 19.1266C74.9702 19.0141 74.5202 18.85 74.089 18.6344C73.6577 18.4094 73.278 18.1141 72.9499 17.7484C72.6218 17.3828 72.4437 16.9469 72.4155 16.4406V15.85V11.3641C72.4155 11.1016 72.5093 10.8859 72.6968 10.7172C72.8937 10.5391 73.1233 10.45 73.3858 10.45C73.9483 10.4969 74.253 10.8016 74.2999 11.3641V16.0047C74.3187 16.2953 74.4265 16.5391 74.6233 16.7359C74.8296 16.9234 75.0546 17.0734 75.2983 17.1859C75.5515 17.2984 75.8093 17.3828 76.0718 17.4391C76.3437 17.4953 76.6155 17.5234 76.8874 17.5234C77.1593 17.5234 77.4265 17.4953 77.689 17.4391C77.9608 17.3828 78.2187 17.2984 78.4624 17.1859C78.7155 17.0734 78.9405 16.9234 79.1374 16.7359C79.3437 16.5391 79.4562 16.2953 79.4749 16.0047V11.3641C79.4749 11.1016 79.5687 10.8859 79.7562 10.7172C79.953 10.5391 80.1827 10.45 80.4452 10.45C81.0077 10.4969 81.3171 10.8016 81.3733 11.3641V15.85V16.4406C81.3452 16.9469 81.1624 17.3828 80.8249 17.7484C80.4968 18.1141 80.1171 18.4094 79.6858 18.6344C79.2546 18.85 78.7999 19.0141 78.3218 19.1266C77.853 19.2391 77.3749 19.2953 76.8874 19.2953ZM82.4005 11.6172C82.4005 11.3547 82.4895 11.1344 82.6677 10.9562C82.8552 10.7687 83.0802 10.675 83.3427 10.675H91.527C91.7895 10.675 92.0145 10.7641 92.202 10.9422C92.3802 11.1297 92.4692 11.3547 92.4692 11.6172C92.4692 11.8797 92.3755 12.1047 92.188 12.2922C92.0098 12.4703 91.7895 12.5594 91.527 12.5594H88.3911V18.2547C88.3348 18.8172 88.0255 19.1219 87.463 19.1688C87.2005 19.1688 86.9708 19.0844 86.7739 18.9156C86.5864 18.7375 86.4927 18.5172 86.4927 18.2547V12.5594H83.3427C83.0802 12.5594 82.8598 12.4656 82.6817 12.2781C82.4942 12.1 82.4005 11.8797 82.4005 11.6172Z" fill="#FBC706"/>
</svg>
