<svg width="103" height="31" viewBox="0 0 103 31" fill="none" xmlns="http://www.w3.org/2000/svg">
<path d="M101.518 0.639648L101.459 25.04L99.833 28.0996L98.8096 29.9199H0.639648V0.639648H101.518Z" stroke="#FBC706" stroke-opacity="0.3" stroke-width="1.28"/>
<path d="M16.1495 10.2953C16.637 10.2953 17.1151 10.3516 17.5839 10.4641C18.062 10.5766 18.5167 10.7453 18.9479 10.9703C19.3792 11.1859 19.7589 11.4766 20.087 11.8422C20.4245 12.2078 20.6073 12.6437 20.6354 13.15V13.7406V18.2266C20.5792 18.7891 20.2698 19.0938 19.7073 19.1406C19.4448 19.1406 19.2151 19.0563 19.0183 18.8875C18.8308 18.7094 18.737 18.4891 18.737 18.2266V13.5859C18.7183 13.2953 18.6058 13.0562 18.3995 12.8687C18.2026 12.6719 17.9776 12.5172 17.7245 12.4047C17.4808 12.2922 17.2229 12.2078 16.9511 12.1516C16.6886 12.0953 16.4214 12.0672 16.1495 12.0672C15.8776 12.0672 15.6058 12.0953 15.3339 12.1516C15.0714 12.2078 14.8136 12.2922 14.5604 12.4047C14.3167 12.5172 14.0917 12.6719 13.8854 12.8687C13.6886 13.0562 13.5808 13.2953 13.562 13.5859V18.2266C13.5151 18.7891 13.2104 19.0938 12.6479 19.1406C12.3854 19.1406 12.1558 19.0563 11.9589 18.8875C11.7714 18.7094 11.6776 18.4891 11.6776 18.2266V13.7406V13.15C11.7058 12.6437 11.8839 12.2078 12.212 11.8422C12.5401 11.4766 12.9198 11.1859 13.3511 10.9703C13.7823 10.7453 14.2323 10.5766 14.7011 10.4641C15.1792 10.3516 15.662 10.2953 16.1495 10.2953ZM24.4469 10.675H25.0938H29.8751C30.1376 10.6844 30.3532 10.7828 30.5219 10.9703C30.7001 11.1578 30.7891 11.3828 30.7891 11.6453C30.7423 12.2078 30.4376 12.5125 29.8751 12.5594H24.9251C24.5688 12.5781 24.2735 12.7141 24.0391 12.9672C23.8048 13.2203 23.6313 13.5109 23.5188 13.8391C23.4157 14.1578 23.3641 14.4859 23.3641 14.8234C23.3641 15.1609 23.4157 15.4937 23.5188 15.8219C23.6313 16.1406 23.8048 16.4266 24.0391 16.6797C24.2735 16.9328 24.5688 17.0687 24.9251 17.0875H29.8751C30.1376 17.0969 30.3532 17.1953 30.5219 17.3828C30.7001 17.5703 30.7891 17.7953 30.7891 18.0578C30.7798 18.3109 30.686 18.5266 30.5079 18.7047C30.3391 18.8734 30.1282 18.9625 29.8751 18.9719H24.7141H24.4469C23.7907 18.9344 23.2469 18.6859 22.8157 18.2266C22.3938 17.7578 22.0891 17.2281 21.9016 16.6375C21.7235 16.0469 21.6344 15.4422 21.6344 14.8234C21.6344 14.2047 21.7282 13.6 21.9157 13.0094C22.1032 12.4187 22.4079 11.8937 22.8298 11.4344C23.2516 10.9656 23.7907 10.7125 24.4469 10.675ZM30.761 14.7672C30.761 15.0297 30.6673 15.25 30.4798 15.4281C30.3016 15.6156 30.0813 15.7094 29.8188 15.7094H25.5719C25.3094 15.7094 25.0844 15.6203 24.8969 15.4422C24.7188 15.2547 24.6298 15.0297 24.6298 14.7672C24.6298 14.5047 24.7188 14.2797 24.8969 14.0922C25.0844 13.9141 25.3094 13.825 25.5719 13.825H29.8188C30.0813 13.825 30.3016 13.9187 30.4798 14.1062C30.6673 14.2844 30.761 14.5047 30.761 14.7672ZM34.6006 19.2953C34.2819 19.2953 33.9631 19.2391 33.6444 19.1266C33.335 19.0141 33.035 18.85 32.7444 18.6344C32.4538 18.4094 32.2006 18.1141 31.985 17.7484C31.7694 17.3828 31.6522 16.9469 31.6334 16.4406V11.3641C31.6334 11.1016 31.7272 10.8859 31.9147 10.7172C32.1116 10.5391 32.3413 10.45 32.6038 10.45C33.1663 10.4969 33.4709 10.8016 33.5178 11.3641V16.3281C33.5272 16.5531 33.5741 16.7453 33.6584 16.9047C33.7428 17.0547 33.8366 17.1766 33.9397 17.2703C34.0428 17.3547 34.1459 17.4203 34.2491 17.4672C34.3616 17.5047 34.4741 17.5234 34.5866 17.5234C34.6991 17.5234 34.8116 17.5047 34.9241 17.4672C35.0366 17.4203 35.1444 17.3547 35.2475 17.2703C35.3506 17.1766 35.4444 17.0547 35.5288 16.9047C35.6131 16.7453 35.6553 16.5531 35.6553 16.3281V11.3641C35.6553 11.1016 35.7491 10.8859 35.9366 10.7172C36.1334 10.5391 36.3631 10.45 36.6256 10.45C37.1881 10.4969 37.4975 10.8016 37.5538 11.3641V16.3281C37.5631 16.5531 37.61 16.7406 37.6944 16.8906C37.7788 17.05 37.8725 17.1766 37.9756 17.2703C38.0788 17.3547 38.1819 17.4203 38.285 17.4672C38.3975 17.5047 38.51 17.5234 38.6225 17.5234C38.735 17.5234 38.8475 17.5047 38.96 17.4672C39.0725 17.4203 39.1803 17.3547 39.2834 17.2703C39.3866 17.1766 39.4803 17.0547 39.5647 16.9047C39.6491 16.7453 39.6913 16.5531 39.6913 16.3281V11.3641C39.6913 11.1016 39.785 10.8859 39.9725 10.7172C40.1694 10.5391 40.3991 10.45 40.6616 10.45C41.2241 10.4969 41.5334 10.8016 41.5897 11.3641V16.4406C41.5897 16.9469 41.4772 17.3828 41.2522 17.7484C41.0366 18.1141 40.7834 18.4094 40.4928 18.6344C40.2116 18.85 39.9116 19.0141 39.5928 19.1266C39.2834 19.2391 38.9647 19.2953 38.6366 19.2953C38.3178 19.2953 37.9991 19.2391 37.6803 19.1266C37.3709 19.0141 37.0709 18.8453 36.7803 18.6203C36.7241 18.5828 36.6725 18.5406 36.6256 18.4937C36.5694 18.5406 36.5178 18.5828 36.4709 18.6203C36.1803 18.8453 35.8756 19.0141 35.5569 19.1266C35.2475 19.2391 34.9288 19.2953 34.6006 19.2953ZM53.9658 10.2953C54.4533 10.2953 54.9314 10.3516 55.4002 10.4641C55.8783 10.5766 56.333 10.7453 56.7643 10.9703C57.1955 11.1859 57.5752 11.4766 57.9033 11.8422C58.2408 12.2078 58.4236 12.6437 58.4518 13.15V13.7406V18.2266C58.3955 18.7891 58.0861 19.0938 57.5236 19.1406C57.2611 19.1406 57.0314 19.0563 56.8346 18.8875C56.6471 18.7094 56.5533 18.4891 56.5533 18.2266V13.5859C56.5346 13.2953 56.4221 13.0562 56.2158 12.8687C56.0189 12.6719 55.7939 12.5172 55.5408 12.4047C55.2971 12.2922 55.0393 12.2078 54.7674 12.1516C54.5049 12.0953 54.2377 12.0672 53.9658 12.0672C53.6939 12.0672 53.4221 12.0953 53.1502 12.1516C52.8877 12.2078 52.6299 12.2922 52.3768 12.4047C52.133 12.5172 51.908 12.6719 51.7018 12.8687C51.5049 13.0562 51.3971 13.2953 51.3783 13.5859V18.2266C51.3314 18.7891 51.0268 19.0938 50.4643 19.1406C50.2018 19.1406 49.9721 19.0563 49.7752 18.8875C49.5877 18.7094 49.4939 18.4891 49.4939 18.2266V13.7406V13.15C49.5221 12.6437 49.7002 12.2078 50.0283 11.8422C50.3564 11.4766 50.7361 11.1859 51.1674 10.9703C51.5986 10.7453 52.0486 10.5766 52.5174 10.4641C52.9955 10.3516 53.4783 10.2953 53.9658 10.2953ZM67.1992 10.675C67.6773 10.6844 68.1039 10.8344 68.4789 11.125C68.8539 11.4156 69.1539 11.7625 69.3789 12.1656C69.6133 12.5687 69.7867 12.9953 69.8992 13.4453C70.0117 13.8953 70.068 14.3547 70.068 14.8234C70.068 15.4422 69.9695 16.0516 69.7726 16.6516C69.5851 17.2422 69.2711 17.7672 68.8305 18.2266C68.3992 18.6859 67.8555 18.9344 67.1992 18.9719H62.2914C61.6351 18.9437 61.0867 18.7 60.6461 18.2406C60.2054 17.7812 59.8914 17.2516 59.7039 16.6516C59.5258 16.0516 59.4367 15.4422 59.4367 14.8234C59.4367 14.2047 59.5304 13.6 59.7179 13.0094C59.9054 12.4094 60.2148 11.8797 60.6461 11.4203C61.0867 10.9516 61.6351 10.7031 62.2914 10.675H62.5586H66.932H67.1992ZM66.7211 17.0875C67.0773 17.0687 67.3726 16.9375 67.607 16.6937C67.8508 16.4406 68.0242 16.15 68.1273 15.8219C68.2305 15.4937 68.282 15.1609 68.282 14.8234C68.282 14.4859 68.2258 14.1578 68.1133 13.8391C68.0101 13.5109 67.8414 13.2203 67.607 12.9672C67.3726 12.7141 67.0773 12.5781 66.7211 12.5594H62.7273C62.3711 12.5781 62.0758 12.7141 61.8414 12.9672C61.607 13.2203 61.4336 13.5109 61.3211 13.8391C61.2179 14.1578 61.1664 14.4859 61.1664 14.8234C61.1664 15.1609 61.2179 15.4937 61.3211 15.8219C61.4242 16.15 61.5929 16.4406 61.8273 16.6937C62.0711 16.9375 62.3711 17.0687 62.7273 17.0875H66.7211ZM70.7576 11.6172C70.7576 11.3547 70.8466 11.1344 71.0248 10.9562C71.2123 10.7687 71.4373 10.675 71.6998 10.675H79.8841C80.1466 10.675 80.3716 10.7641 80.5591 10.9422C80.7373 11.1297 80.8263 11.3547 80.8263 11.6172C80.8263 11.8797 80.7326 12.1047 80.5451 12.2922C80.3669 12.4703 80.1466 12.5594 79.8841 12.5594H76.7482V18.2547C76.6919 18.8172 76.3826 19.1219 75.8201 19.1688C75.5576 19.1688 75.3279 19.0844 75.131 18.9156C74.9435 18.7375 74.8498 18.5172 74.8498 18.2547V12.5594H71.6998C71.4373 12.5594 71.2169 12.4656 71.0388 12.2781C70.8513 12.1 70.7576 11.8797 70.7576 11.6172ZM84.3425 10.675H84.9894H89.7706C90.0331 10.6844 90.2488 10.7828 90.4175 10.9703C90.5956 11.1578 90.6847 11.3828 90.6847 11.6453C90.6378 12.2078 90.3331 12.5125 89.7706 12.5594H84.8206C84.4644 12.5781 84.1691 12.7141 83.9347 12.9672C83.7003 13.2203 83.5269 13.5109 83.4144 13.8391C83.3113 14.1578 83.2597 14.4859 83.2597 14.8234C83.2597 15.1609 83.3113 15.4937 83.4144 15.8219C83.5269 16.1406 83.7003 16.4266 83.9347 16.6797C84.1691 16.9328 84.4644 17.0687 84.8206 17.0875H89.7706C90.0331 17.0969 90.2488 17.1953 90.4175 17.3828C90.5956 17.5703 90.6847 17.7953 90.6847 18.0578C90.6753 18.3109 90.5816 18.5266 90.4035 18.7047C90.2347 18.8734 90.0238 18.9625 89.7706 18.9719H84.6097H84.3425C83.6863 18.9344 83.1425 18.6859 82.7113 18.2266C82.2894 17.7578 81.9847 17.2281 81.7972 16.6375C81.6191 16.0469 81.53 15.4422 81.53 14.8234C81.53 14.2047 81.6238 13.6 81.8113 13.0094C81.9988 12.4187 82.3035 11.8937 82.7253 11.4344C83.1472 10.9656 83.6863 10.7125 84.3425 10.675ZM90.6566 14.7672C90.6566 15.0297 90.5628 15.25 90.3753 15.4281C90.1972 15.6156 89.9769 15.7094 89.7144 15.7094H85.4675C85.205 15.7094 84.98 15.6203 84.7925 15.4422C84.6144 15.2547 84.5253 15.0297 84.5253 14.7672C84.5253 14.5047 84.6144 14.2797 84.7925 14.0922C84.98 13.9141 85.205 13.825 85.4675 13.825H89.7144C89.9769 13.825 90.1972 13.9187 90.3753 14.1062C90.5628 14.2844 90.6566 14.5047 90.6566 14.7672Z" fill="#FBC706"/>
</svg>
