<svg width="116" height="31" viewBox="0 0 116 31" fill="none" xmlns="http://www.w3.org/2000/svg">
<path d="M114.518 0.639648L114.451 25.0234L112.625 28.0713L111.453 29.9199H0.639648V0.639648H114.518Z" stroke="#FBC706" stroke-opacity="0.3" stroke-width="1.28"/>
<path d="M22.6382 10.2953C23.1257 10.2953 23.6039 10.3516 24.0726 10.4641C24.5507 10.5766 25.0054 10.7453 25.4367 10.9703C25.8679 11.1859 26.2476 11.4766 26.5757 11.8422C26.9132 12.2078 27.096 12.6437 27.1242 13.15V13.7406V18.2266C27.0679 18.7891 26.7585 19.0938 26.196 19.1406C25.9335 19.1406 25.7039 19.0563 25.507 18.8875C25.3195 18.7094 25.2257 18.4891 25.2257 18.2266V13.5859C25.207 13.2953 25.0945 13.0562 24.8882 12.8687C24.6914 12.6719 24.4664 12.5172 24.2132 12.4047C23.9695 12.2922 23.7117 12.2078 23.4398 12.1516C23.1773 12.0953 22.9101 12.0672 22.6382 12.0672C22.3663 12.0672 22.0945 12.0953 21.8226 12.1516C21.5601 12.2078 21.3023 12.2922 21.0492 12.4047C20.8054 12.5172 20.5804 12.6719 20.3742 12.8687C20.1773 13.0562 20.0695 13.2953 20.0507 13.5859V18.2266C20.0038 18.7891 19.6992 19.0938 19.1367 19.1406C18.8742 19.1406 18.6445 19.0563 18.4476 18.8875C18.2601 18.7094 18.1663 18.4891 18.1663 18.2266V13.7406V13.15C18.1945 12.6437 18.3726 12.2078 18.7007 11.8422C19.0288 11.4766 19.4085 11.1859 19.8398 10.9703C20.271 10.7453 20.721 10.5766 21.1898 10.4641C21.6679 10.3516 22.1507 10.2953 22.6382 10.2953ZM30.9357 10.675H31.5825H36.3638C36.6263 10.6844 36.8419 10.7828 37.0107 10.9703C37.1888 11.1578 37.2779 11.3828 37.2779 11.6453C37.231 12.2078 36.9263 12.5125 36.3638 12.5594H31.4138C31.0575 12.5781 30.7622 12.7141 30.5279 12.9672C30.2935 13.2203 30.12 13.5109 30.0075 13.8391C29.9044 14.1578 29.8529 14.4859 29.8529 14.8234C29.8529 15.1609 29.9044 15.4937 30.0075 15.8219C30.12 16.1406 30.2935 16.4266 30.5279 16.6797C30.7622 16.9328 31.0575 17.0687 31.4138 17.0875H36.3638C36.6263 17.0969 36.8419 17.1953 37.0107 17.3828C37.1888 17.5703 37.2779 17.7953 37.2779 18.0578C37.2685 18.3109 37.1747 18.5266 36.9966 18.7047C36.8279 18.8734 36.6169 18.9625 36.3638 18.9719H31.2029H30.9357C30.2794 18.9344 29.7357 18.6859 29.3044 18.2266C28.8825 17.7578 28.5779 17.2281 28.3904 16.6375C28.2122 16.0469 28.1232 15.4422 28.1232 14.8234C28.1232 14.2047 28.2169 13.6 28.4044 13.0094C28.5919 12.4187 28.8966 11.8937 29.3185 11.4344C29.7404 10.9656 30.2794 10.7125 30.9357 10.675ZM37.2497 14.7672C37.2497 15.0297 37.156 15.25 36.9685 15.4281C36.7904 15.6156 36.57 15.7094 36.3075 15.7094H32.0607C31.7982 15.7094 31.5732 15.6203 31.3857 15.4422C31.2075 15.2547 31.1185 15.0297 31.1185 14.7672C31.1185 14.5047 31.2075 14.2797 31.3857 14.0922C31.5732 13.9141 31.7982 13.825 32.0607 13.825H36.3075C36.57 13.825 36.7904 13.9187 36.9685 14.1062C37.156 14.2844 37.2497 14.5047 37.2497 14.7672ZM41.0894 19.2953C40.7706 19.2953 40.4519 19.2391 40.1331 19.1266C39.8237 19.0141 39.5237 18.85 39.2331 18.6344C38.9425 18.4094 38.6894 18.1141 38.4737 17.7484C38.2581 17.3828 38.1409 16.9469 38.1222 16.4406V11.3641C38.1222 11.1016 38.2159 10.8859 38.4034 10.7172C38.6003 10.5391 38.83 10.45 39.0925 10.45C39.655 10.4969 39.9597 10.8016 40.0065 11.3641V16.3281C40.0159 16.5531 40.0628 16.7453 40.1472 16.9047C40.2315 17.0547 40.3253 17.1766 40.4284 17.2703C40.5315 17.3547 40.6347 17.4203 40.7378 17.4672C40.8503 17.5047 40.9628 17.5234 41.0753 17.5234C41.1878 17.5234 41.3003 17.5047 41.4128 17.4672C41.5253 17.4203 41.6331 17.3547 41.7362 17.2703C41.8394 17.1766 41.9331 17.0547 42.0175 16.9047C42.1019 16.7453 42.144 16.5531 42.144 16.3281V11.3641C42.144 11.1016 42.2378 10.8859 42.4253 10.7172C42.6222 10.5391 42.8519 10.45 43.1144 10.45C43.6769 10.4969 43.9862 10.8016 44.0425 11.3641V16.3281C44.0519 16.5531 44.0987 16.7406 44.1831 16.8906C44.2675 17.05 44.3612 17.1766 44.4644 17.2703C44.5675 17.3547 44.6706 17.4203 44.7737 17.4672C44.8862 17.5047 44.9987 17.5234 45.1112 17.5234C45.2237 17.5234 45.3362 17.5047 45.4487 17.4672C45.5612 17.4203 45.669 17.3547 45.7722 17.2703C45.8753 17.1766 45.969 17.0547 46.0534 16.9047C46.1378 16.7453 46.18 16.5531 46.18 16.3281V11.3641C46.18 11.1016 46.2737 10.8859 46.4612 10.7172C46.6581 10.5391 46.8878 10.45 47.1503 10.45C47.7128 10.4969 48.0222 10.8016 48.0784 11.3641V16.4406C48.0784 16.9469 47.9659 17.3828 47.7409 17.7484C47.5253 18.1141 47.2722 18.4094 46.9815 18.6344C46.7003 18.85 46.4003 19.0141 46.0815 19.1266C45.7722 19.2391 45.4534 19.2953 45.1253 19.2953C44.8065 19.2953 44.4878 19.2391 44.169 19.1266C43.8597 19.0141 43.5597 18.8453 43.269 18.6203C43.2128 18.5828 43.1612 18.5406 43.1144 18.4937C43.0581 18.5406 43.0065 18.5828 42.9597 18.6203C42.669 18.8453 42.3644 19.0141 42.0456 19.1266C41.7362 19.2391 41.4175 19.2953 41.0894 19.2953ZM60.4545 10.2953C60.942 10.2953 61.4202 10.3516 61.8889 10.4641C62.367 10.5766 62.8217 10.7453 63.253 10.9703C63.6842 11.1859 64.0639 11.4766 64.392 11.8422C64.7295 12.2078 64.9124 12.6437 64.9405 13.15V13.7406V18.2266C64.8842 18.7891 64.5749 19.0938 64.0124 19.1406C63.7499 19.1406 63.5202 19.0563 63.3233 18.8875C63.1358 18.7094 63.042 18.4891 63.042 18.2266V13.5859C63.0233 13.2953 62.9108 13.0562 62.7045 12.8687C62.5077 12.6719 62.2827 12.5172 62.0295 12.4047C61.7858 12.2922 61.528 12.2078 61.2561 12.1516C60.9936 12.0953 60.7264 12.0672 60.4545 12.0672C60.1827 12.0672 59.9108 12.0953 59.6389 12.1516C59.3764 12.2078 59.1186 12.2922 58.8655 12.4047C58.6217 12.5172 58.3967 12.6719 58.1905 12.8687C57.9936 13.0562 57.8858 13.2953 57.867 13.5859V18.2266C57.8202 18.7891 57.5155 19.0938 56.953 19.1406C56.6905 19.1406 56.4608 19.0563 56.2639 18.8875C56.0764 18.7094 55.9827 18.4891 55.9827 18.2266V13.7406V13.15C56.0108 12.6437 56.1889 12.2078 56.517 11.8422C56.8452 11.4766 57.2249 11.1859 57.6561 10.9703C58.0874 10.7453 58.5374 10.5766 59.0061 10.4641C59.4842 10.3516 59.967 10.2953 60.4545 10.2953ZM73.6879 10.675C74.166 10.6844 74.5926 10.8344 74.9676 11.125C75.3426 11.4156 75.6426 11.7625 75.8676 12.1656C76.102 12.5687 76.2754 12.9953 76.3879 13.4453C76.5004 13.8953 76.5567 14.3547 76.5567 14.8234C76.5567 15.4422 76.4582 16.0516 76.2613 16.6516C76.0738 17.2422 75.7598 17.7672 75.3192 18.2266C74.8879 18.6859 74.3442 18.9344 73.6879 18.9719H68.7801C68.1238 18.9437 67.5754 18.7 67.1348 18.2406C66.6942 17.7812 66.3801 17.2516 66.1926 16.6516C66.0145 16.0516 65.9254 15.4422 65.9254 14.8234C65.9254 14.2047 66.0192 13.6 66.2067 13.0094C66.3942 12.4094 66.7035 11.8797 67.1348 11.4203C67.5754 10.9516 68.1238 10.7031 68.7801 10.675H69.0473H73.4207H73.6879ZM73.2098 17.0875C73.566 17.0687 73.8613 16.9375 74.0957 16.6937C74.3395 16.4406 74.5129 16.15 74.616 15.8219C74.7192 15.4937 74.7707 15.1609 74.7707 14.8234C74.7707 14.4859 74.7145 14.1578 74.602 13.8391C74.4988 13.5109 74.3301 13.2203 74.0957 12.9672C73.8613 12.7141 73.566 12.5781 73.2098 12.5594H69.216C68.8598 12.5781 68.5645 12.7141 68.3301 12.9672C68.0957 13.2203 67.9223 13.5109 67.8098 13.8391C67.7067 14.1578 67.6551 14.4859 67.6551 14.8234C67.6551 15.1609 67.7067 15.4937 67.8098 15.8219C67.9129 16.15 68.0817 16.4406 68.316 16.6937C68.5598 16.9375 68.8598 17.0687 69.216 17.0875H73.2098ZM77.2463 11.6172C77.2463 11.3547 77.3354 11.1344 77.5135 10.9562C77.701 10.7687 77.926 10.675 78.1885 10.675H86.3729C86.6354 10.675 86.8604 10.7641 87.0479 10.9422C87.226 11.1297 87.315 11.3547 87.315 11.6172C87.315 11.8797 87.2213 12.1047 87.0338 12.2922C86.8557 12.4703 86.6354 12.5594 86.3729 12.5594H83.2369V18.2547C83.1807 18.8172 82.8713 19.1219 82.3088 19.1688C82.0463 19.1688 81.8166 19.0844 81.6197 18.9156C81.4322 18.7375 81.3385 18.5172 81.3385 18.2547V12.5594H78.1885C77.926 12.5594 77.7057 12.4656 77.5275 12.2781C77.34 12.1 77.2463 11.8797 77.2463 11.6172ZM90.8312 10.675H91.4781H96.2594C96.5219 10.6844 96.7375 10.7828 96.9062 10.9703C97.0844 11.1578 97.1734 11.3828 97.1734 11.6453C97.1265 12.2078 96.8219 12.5125 96.2594 12.5594H91.3094C90.9531 12.5781 90.6578 12.7141 90.4234 12.9672C90.189 13.2203 90.0156 13.5109 89.9031 13.8391C89.8 14.1578 89.7484 14.4859 89.7484 14.8234C89.7484 15.1609 89.8 15.4937 89.9031 15.8219C90.0156 16.1406 90.189 16.4266 90.4234 16.6797C90.6578 16.9328 90.9531 17.0687 91.3094 17.0875H96.2594C96.5219 17.0969 96.7375 17.1953 96.9062 17.3828C97.0844 17.5703 97.1734 17.7953 97.1734 18.0578C97.164 18.3109 97.0703 18.5266 96.8922 18.7047C96.7234 18.8734 96.5125 18.9625 96.2594 18.9719H91.0984H90.8312C90.175 18.9344 89.6312 18.6859 89.2 18.2266C88.7781 17.7578 88.4734 17.2281 88.2859 16.6375C88.1078 16.0469 88.0187 15.4422 88.0187 14.8234C88.0187 14.2047 88.1125 13.6 88.3 13.0094C88.4875 12.4187 88.7922 11.8937 89.214 11.4344C89.6359 10.9656 90.175 10.7125 90.8312 10.675ZM97.1453 14.7672C97.1453 15.0297 97.0515 15.25 96.864 15.4281C96.6859 15.6156 96.4656 15.7094 96.2031 15.7094H91.9562C91.6937 15.7094 91.4687 15.6203 91.2812 15.4422C91.1031 15.2547 91.014 15.0297 91.014 14.7672C91.014 14.5047 91.1031 14.2797 91.2812 14.0922C91.4687 13.9141 91.6937 13.825 91.9562 13.825H96.2031C96.4656 13.825 96.6859 13.9187 96.864 14.1062C97.0515 14.2844 97.1453 14.5047 97.1453 14.7672Z" fill="#FBC706"/>
</svg>
