<svg width="93" height="31" viewBox="0 0 93 31" fill="none" xmlns="http://www.w3.org/2000/svg">
<path d="M91.5186 0.639648L91.4648 25.0537L90 28.1104L89.082 29.9199H0.639648V0.639648H91.5186Z" stroke="#FBC706" stroke-opacity="0.3" stroke-width="1.28"/>
<path d="M25.6583 11.9972C25.6583 12.2597 25.5645 12.48 25.377 12.6581C25.1989 12.8456 24.9786 12.9394 24.7161 12.9394H19.0911C18.9129 12.9488 18.7629 12.9909 18.6411 13.0659C18.5286 13.1316 18.4442 13.2113 18.3879 13.305C18.3317 13.3894 18.3036 13.4784 18.3036 13.5722C18.3036 13.6659 18.3317 13.7597 18.3879 13.8534C18.4442 13.9378 18.5286 14.0175 18.6411 14.0925C18.7629 14.1581 18.9129 14.1956 19.0911 14.205H23.0848C23.7411 14.2238 24.2801 14.3784 24.702 14.6691C25.1333 14.9503 25.4379 15.2784 25.6161 15.6534C25.8036 16.0191 25.8973 16.3941 25.8973 16.7784C25.8973 17.1534 25.8036 17.5284 25.6161 17.9034C25.4286 18.2691 25.1239 18.5972 24.702 18.8878C24.2801 19.1691 23.7411 19.3097 23.0848 19.3097H23.0004C22.9442 19.3191 22.8879 19.3238 22.8317 19.3238H17.5161C17.2536 19.3238 17.0286 19.2347 16.8411 19.0566C16.6629 18.8691 16.5739 18.6441 16.5739 18.3816C16.5739 18.1191 16.6676 17.8988 16.8551 17.7206C17.0333 17.5331 17.2536 17.4394 17.5161 17.4394H23.1692C23.3473 17.4488 23.4926 17.4159 23.6051 17.3409C23.727 17.2659 23.8161 17.1816 23.8723 17.0878C23.9286 16.9847 23.9567 16.8816 23.9567 16.7784C23.9567 16.7128 23.9286 16.6238 23.8723 16.5113C23.8161 16.3894 23.727 16.2909 23.6051 16.2159C23.4926 16.1409 23.3473 16.0988 23.1692 16.0894H19.1754C18.5192 16.0706 17.9754 15.9206 17.5442 15.6394C17.1223 15.3581 16.8176 15.0394 16.6301 14.6831C16.452 14.3175 16.3629 13.9472 16.3629 13.5722C16.3629 13.2066 16.4567 12.8456 16.6442 12.4894C16.8317 12.1238 17.1364 11.8003 17.5583 11.5191C17.9801 11.2378 18.5192 11.0878 19.1754 11.0691H19.2598C19.3161 11.0597 19.3723 11.055 19.4286 11.055H24.7161C24.9786 11.055 25.1989 11.1488 25.377 11.3363C25.5645 11.5144 25.6583 11.7347 25.6583 11.9972ZM29.5119 11.055H30.1588H34.9401C35.2026 11.0644 35.4182 11.1628 35.5869 11.3503C35.7651 11.5378 35.8541 11.7628 35.8541 12.0253C35.8073 12.5878 35.5026 12.8925 34.9401 12.9394H29.9901C29.6338 12.9581 29.3385 13.0941 29.1041 13.3472C28.8698 13.6003 28.6963 13.8909 28.5838 14.2191C28.4807 14.5378 28.4291 14.8659 28.4291 15.2034C28.4291 15.5409 28.4807 15.8738 28.5838 16.2019C28.6963 16.5206 28.8698 16.8066 29.1041 17.0597C29.3385 17.3128 29.6338 17.4488 29.9901 17.4675H34.9401C35.2026 17.4769 35.4182 17.5753 35.5869 17.7628C35.7651 17.9503 35.8541 18.1753 35.8541 18.4378C35.8448 18.6909 35.751 18.9066 35.5729 19.0847C35.4041 19.2534 35.1932 19.3425 34.9401 19.3519H29.7791H29.5119C28.8557 19.3144 28.3119 19.0659 27.8807 18.6066C27.4588 18.1378 27.1541 17.6081 26.9666 17.0175C26.7885 16.4269 26.6994 15.8222 26.6994 15.2034C26.6994 14.5847 26.7932 13.98 26.9807 13.3894C27.1682 12.7988 27.4729 12.2738 27.8948 11.8144C28.3166 11.3456 28.8557 11.0925 29.5119 11.055ZM35.826 15.1472C35.826 15.4097 35.7323 15.63 35.5448 15.8081C35.3666 15.9956 35.1463 16.0894 34.8838 16.0894H30.6369C30.3744 16.0894 30.1494 16.0003 29.9619 15.8222C29.7838 15.6347 29.6948 15.4097 29.6948 15.1472C29.6948 14.8847 29.7838 14.6597 29.9619 14.4722C30.1494 14.2941 30.3744 14.205 30.6369 14.205H34.8838C35.1463 14.205 35.3666 14.2988 35.5448 14.4863C35.7323 14.6644 35.826 14.8847 35.826 15.1472ZM39.8484 17.1722C39.8484 16.9097 39.9375 16.6894 40.1156 16.5113C40.3031 16.3238 40.5281 16.23 40.7906 16.23H42.9422L42.5766 15.1894C42.4266 14.805 42.2766 14.4441 42.1266 14.1066C41.9859 13.7597 41.8219 13.4456 41.6344 13.1644C41.4656 12.8831 41.2734 12.7331 41.0578 12.7144C40.8328 12.7331 40.6313 12.8831 40.4531 13.1644C40.275 13.4456 40.1109 13.7597 39.9609 14.1066C39.8203 14.4441 39.675 14.805 39.525 15.1894L38.1891 18.8456C38.0953 19.0425 37.9734 19.2066 37.8234 19.3378C37.6828 19.4597 37.4672 19.5206 37.1766 19.5206C36.9047 19.5206 36.6797 19.4269 36.5016 19.2394C36.3328 19.0519 36.2578 18.8269 36.2766 18.5644C36.2859 18.4425 36.3141 18.33 36.3609 18.2269L37.9078 14.2331C38.3391 13.1831 38.7703 12.3347 39.2016 11.6878C39.6234 11.0503 40.2422 10.7269 41.0578 10.7175C41.8641 10.7269 42.4781 11.0503 42.9 11.6878C43.3313 12.3159 43.7625 13.1644 44.1938 14.2331L45.7406 18.2269C45.7875 18.33 45.8156 18.4425 45.825 18.5644C45.8438 18.8269 45.7641 19.0519 45.5859 19.2394C45.4172 19.4269 45.1969 19.5206 44.925 19.5206C44.6156 19.5206 44.3859 19.4597 44.2359 19.3378C44.0953 19.2066 43.9781 19.0425 43.8844 18.8456L43.6172 18.1144H40.7906C40.5281 18.1144 40.3078 18.0206 40.1297 17.8331C39.9422 17.655 39.8484 17.4347 39.8484 17.1722ZM48.5537 18.6347C48.4974 19.1972 48.1881 19.5019 47.6256 19.5488C47.3631 19.5488 47.1334 19.4644 46.9365 19.2956C46.749 19.1175 46.6553 18.8972 46.6553 18.6347V11.9691C46.6646 11.7066 46.7631 11.4909 46.9506 11.3222C47.1381 11.1441 47.3631 11.055 47.6256 11.055H48.3146H50.0443H53.5178C53.574 11.055 53.6303 11.0597 53.6865 11.0691H53.7709C54.4271 11.0878 54.9662 11.2378 55.3881 11.5191C55.8099 11.8003 56.1146 12.1238 56.3021 12.4894C56.4896 12.8456 56.5834 13.2066 56.5834 13.5722C56.5834 13.9472 56.4896 14.3175 56.3021 14.6831C56.124 15.0394 55.8193 15.3581 55.3881 15.6394C54.9662 15.9206 54.4271 16.0706 53.7709 16.0894H51.2959C51.3709 16.5581 51.5256 16.905 51.7599 17.13C51.9849 17.355 52.2709 17.4675 52.6178 17.4675H55.6553C55.9178 17.4769 56.1334 17.5753 56.3021 17.7628C56.4803 17.9503 56.5693 18.1753 56.5693 18.4378C56.5599 18.6909 56.4662 18.9066 56.2881 19.0847C56.1193 19.2534 55.9084 19.3425 55.6553 19.3519H52.3646C51.6709 19.3613 51.0428 19.0894 50.4803 18.5363C49.9178 17.9831 49.5756 17.3269 49.4537 16.5675C49.2849 15.7238 49.2006 15.2503 49.2006 15.1472C49.2006 14.8847 49.2896 14.6644 49.4678 14.4863C49.6553 14.2988 49.8803 14.205 50.1428 14.205H53.8553C54.0334 14.1956 54.1787 14.1581 54.2912 14.0925C54.4131 14.0175 54.5021 13.9378 54.5584 13.8534C54.6146 13.7597 54.6428 13.6659 54.6428 13.5722C54.6428 13.4784 54.6146 13.3894 54.5584 13.305C54.5021 13.2113 54.4131 13.1316 54.2912 13.0659C54.1787 12.9909 54.0334 12.9488 53.8553 12.9394H50.0443H48.9193C48.6756 12.9488 48.5537 13.0706 48.5537 13.305V18.6347ZM60.7324 12.9394C60.3761 12.9581 60.0761 13.0941 59.8324 13.3472C59.598 13.6003 59.4293 13.8909 59.3261 14.2191C59.223 14.5378 59.1714 14.8659 59.1714 15.2034C59.1714 15.5409 59.2183 15.8738 59.3121 16.2019C59.4152 16.53 59.5886 16.8206 59.8324 17.0738C60.0761 17.3175 60.3761 17.4488 60.7324 17.4675H65.373C65.9636 17.5238 66.2871 17.8472 66.3433 18.4378C66.3339 18.7003 66.2355 18.9206 66.048 19.0988C65.8605 19.2675 65.6355 19.3519 65.373 19.3519H60.8871H60.2402C59.5839 19.3144 59.0449 19.0659 58.623 18.6066C58.2011 18.1378 57.8964 17.6081 57.7089 17.0175C57.5308 16.4269 57.4418 15.8222 57.4418 15.2034C57.4418 14.7441 57.4933 14.2894 57.5964 13.8394C57.6996 13.3894 57.8589 12.9628 58.0746 12.5597C58.2996 12.1472 58.5949 11.7956 58.9605 11.505C59.3355 11.2144 59.7621 11.0644 60.2402 11.055H60.5074H65.373C65.9636 11.1113 66.2871 11.4347 66.3433 12.0253C66.3433 12.2878 66.2449 12.5081 66.048 12.6863C65.8605 12.855 65.6355 12.9394 65.373 12.9394H60.7324ZM68.0314 10.83C68.2845 10.8394 68.5001 10.9331 68.6783 11.1113C68.8564 11.28 68.9501 11.4909 68.9595 11.7441V14.0925H73.5298V11.7441C73.5392 11.4816 73.6376 11.2659 73.8251 11.0972C74.0126 10.9191 74.2376 10.83 74.5001 10.83C74.7533 10.8394 74.9689 10.9331 75.147 11.1113C75.3251 11.28 75.4189 11.4909 75.4283 11.7441V18.6347C75.372 19.1972 75.0626 19.5019 74.5001 19.5488C74.2376 19.5488 74.0079 19.4644 73.8111 19.2956C73.6236 19.1175 73.5298 18.8972 73.5298 18.6347V15.9769H68.9595V18.6347C68.9033 19.1972 68.5939 19.5019 68.0314 19.5488C67.7689 19.5488 67.5392 19.4644 67.3423 19.2956C67.1548 19.1175 67.0611 18.8972 67.0611 18.6347V11.7441C67.0704 11.4816 67.1689 11.2659 67.3564 11.0972C67.5439 10.9191 67.7689 10.83 68.0314 10.83Z" fill="#FBC706"/>
</svg>
