<svg width="127" height="23" viewBox="0 0 127 23" fill="none" xmlns="http://www.w3.org/2000/svg">
<path d="M6.79492 3.90625C7.43294 3.94271 7.95703 4.1888 8.36719 4.64453C8.77734 5.09115 9.07357 5.60156 9.25586 6.17578C9.43815 6.75 9.5293 7.33789 9.5293 7.93945C9.5293 8.54102 9.43815 9.12891 9.25586 9.70312C9.08268 10.2773 8.78646 10.7923 8.36719 11.248C7.95703 11.6947 7.43294 11.9362 6.79492 11.9727H1.76367C1.51758 11.9635 1.30794 11.877 1.13477 11.7129C0.970703 11.5397 0.884115 11.3301 0.875 11.084V7.69336C0.884115 7.43815 0.979818 7.22852 1.16211 7.06445C1.3444 6.89128 1.56315 6.80469 1.81836 6.80469C2.06445 6.8138 2.27409 6.90495 2.44727 7.07812C2.62044 7.24219 2.71159 7.44727 2.7207 7.69336V9.77148C2.7207 10.0176 2.84831 10.1406 3.10352 10.1406H6.33008C6.67643 10.1224 6.96354 9.99023 7.19141 9.74414C7.41927 9.49805 7.58333 9.22005 7.68359 8.91016C7.79297 8.59115 7.84766 8.26758 7.84766 7.93945C7.84766 7.61133 7.79297 7.29232 7.68359 6.98242C7.58333 6.66341 7.41927 6.38086 7.19141 6.13477C6.96354 5.88867 6.67643 5.75651 6.33008 5.73828H1.76367C1.2168 5.69271 0.920573 5.39648 0.875 4.84961C0.875 4.5944 0.957031 4.37565 1.12109 4.19336C1.29427 4.01107 1.50846 3.91536 1.76367 3.90625H6.79492ZM10.1724 11.0566C10.1724 10.8014 10.259 10.5872 10.4322 10.4141C10.6145 10.2318 10.8332 10.1406 11.0884 10.1406H13.7134V5.73828H11.0884C10.8332 5.73828 10.619 5.64714 10.4459 5.46484C10.2636 5.29167 10.1724 5.07747 10.1724 4.82227C10.1724 4.56706 10.259 4.35286 10.4322 4.17969C10.6145 3.9974 10.8332 3.90625 11.0884 3.90625H18.1705C18.4257 3.90625 18.6444 3.99284 18.8267 4.16602C18.9999 4.34831 19.0865 4.56706 19.0865 4.82227C19.0865 5.07747 18.9953 5.29622 18.813 5.47852C18.6399 5.65169 18.4257 5.73828 18.1705 5.73828H15.5591V10.1406H18.1705C18.4257 10.1406 18.6444 10.2272 18.8267 10.4004C18.9999 10.5827 19.0865 10.8014 19.0865 11.0566C19.0865 11.3118 18.9953 11.5306 18.813 11.7129C18.6399 11.8861 18.4257 11.9727 18.1705 11.9727H11.0884C10.8332 11.9727 10.619 11.8815 10.4459 11.6992C10.2636 11.526 10.1724 11.3118 10.1724 11.0566ZM22.5323 3.90625H28.3019C28.5571 3.91536 28.7667 4.01107 28.9308 4.19336C29.104 4.37565 29.1905 4.5944 29.1905 4.84961C29.145 5.39648 28.8487 5.69271 28.3019 5.73828H22.9972C22.6508 5.75651 22.3637 5.88867 22.1359 6.13477C21.908 6.38086 21.7394 6.66341 21.63 6.98242C21.5297 7.29232 21.4796 7.61133 21.4796 7.93945C21.4796 8.26758 21.5297 8.59115 21.63 8.91016C21.7394 9.22005 21.908 9.49805 22.1359 9.74414C22.3637 9.99023 22.6508 10.1224 22.9972 10.1406H27.1534C27.3175 10.1315 27.4041 10.0404 27.4132 9.86719V9.07422C27.4041 8.89193 27.3175 8.80078 27.1534 8.80078H23.6534C23.3982 8.80078 23.1795 8.71419 22.9972 8.54102C22.824 8.35872 22.7374 8.13997 22.7374 7.88477C22.7374 7.62956 22.824 7.41081 22.9972 7.22852C23.1795 7.05534 23.3982 6.96875 23.6534 6.96875H28.3292C28.5844 6.96875 28.8032 7.05534 28.9855 7.22852C29.1495 7.40169 29.2361 7.61133 29.2452 7.85742V7.88477V11.084C29.2361 11.3301 29.1495 11.5352 28.9855 11.6992C28.8123 11.8724 28.6027 11.9635 28.3566 11.9727H22.5323C21.8943 11.9362 21.3657 11.6947 20.9464 11.248C20.5362 10.7923 20.24 10.2773 20.0577 9.70312C19.8846 9.12891 19.798 8.54102 19.798 7.93945C19.798 7.33789 19.8891 6.75 20.0714 6.17578C20.2537 5.60156 20.5499 5.09115 20.9601 4.64453C21.3702 4.1888 21.8943 3.94271 22.5323 3.90625ZM30.0934 11.0566C30.0934 10.8014 30.18 10.5872 30.3532 10.4141C30.5355 10.2318 30.7542 10.1406 31.0095 10.1406H33.6345V5.73828H31.0095C30.7542 5.73828 30.5401 5.64714 30.3669 5.46484C30.1846 5.29167 30.0934 5.07747 30.0934 4.82227C30.0934 4.56706 30.18 4.35286 30.3532 4.17969C30.5355 3.9974 30.7542 3.90625 31.0095 3.90625H38.0915C38.3467 3.90625 38.5654 3.99284 38.7477 4.16602C38.9209 4.34831 39.0075 4.56706 39.0075 4.82227C39.0075 5.07747 38.9164 5.29622 38.7341 5.47852C38.5609 5.65169 38.3467 5.73828 38.0915 5.73828H35.4802V10.1406H38.0915C38.3467 10.1406 38.5654 10.2272 38.7477 10.4004C38.9209 10.5827 39.0075 10.8014 39.0075 11.0566C39.0075 11.3118 38.9164 11.5306 38.7341 11.7129C38.5609 11.8861 38.3467 11.9727 38.0915 11.9727H31.0095C30.7542 11.9727 30.5401 11.8815 30.3669 11.6992C30.1846 11.526 30.0934 11.3118 30.0934 11.0566ZM39.5959 4.82227C39.5959 4.56706 39.6825 4.35286 39.8557 4.17969C40.038 3.9974 40.2567 3.90625 40.512 3.90625H48.469C48.7242 3.90625 48.9429 3.99284 49.1252 4.16602C49.2984 4.34831 49.385 4.56706 49.385 4.82227C49.385 5.07747 49.2939 5.29622 49.1116 5.47852C48.9384 5.65169 48.7242 5.73828 48.469 5.73828H45.4202V11.2754C45.3655 11.8223 45.0647 12.1185 44.5178 12.1641C44.2626 12.1641 44.0393 12.082 43.8479 11.918C43.6656 11.7448 43.5745 11.5306 43.5745 11.2754V5.73828H40.512C40.2567 5.73828 40.0426 5.64714 39.8694 5.46484C39.6871 5.29167 39.5959 5.07747 39.5959 4.82227ZM53.3367 9.85352C53.3367 9.59831 53.4233 9.38411 53.5965 9.21094C53.7788 9.02865 53.9975 8.9375 54.2527 8.9375H56.3445L55.9891 7.92578C55.8432 7.55208 55.6974 7.20117 55.5516 6.87305C55.4148 6.53581 55.2553 6.23047 55.073 5.95703C54.909 5.68359 54.7221 5.53776 54.5125 5.51953C54.2938 5.53776 54.0978 5.68359 53.9246 5.95703C53.7514 6.23047 53.5919 6.53581 53.4461 6.87305C53.3094 7.20117 53.1681 7.55208 53.0223 7.92578L51.7234 11.4805C51.6323 11.6719 51.5138 11.8314 51.368 11.959C51.2313 12.0775 51.0216 12.1367 50.7391 12.1367C50.4747 12.1367 50.256 12.0456 50.0828 11.8633C49.9188 11.681 49.8458 11.4622 49.8641 11.207C49.8732 11.0885 49.9005 10.9792 49.9461 10.8789L51.45 6.99609C51.8693 5.97526 52.2885 5.15039 52.7078 4.52148C53.118 3.90169 53.7195 3.58724 54.5125 3.57812C55.2964 3.58724 55.8934 3.90169 56.3035 4.52148C56.7228 5.13216 57.1421 5.95703 57.5613 6.99609L59.0652 10.8789C59.1108 10.9792 59.1382 11.0885 59.1473 11.207C59.1655 11.4622 59.088 11.681 58.9148 11.8633C58.7508 12.0456 58.5366 12.1367 58.2723 12.1367C57.9715 12.1367 57.7482 12.0775 57.6023 11.959C57.4656 11.8314 57.3517 11.6719 57.2605 11.4805L57.0008 10.7695H54.2527C53.9975 10.7695 53.7833 10.6784 53.6102 10.4961C53.4279 10.3229 53.3367 10.1087 53.3367 9.85352ZM60.8705 3.6875C61.1257 3.6875 61.3444 3.77409 61.5267 3.94727C61.709 4.11133 61.8047 4.32096 61.8138 4.57617V7.87109C61.8047 8.24479 61.8275 8.59115 61.8822 8.91016C61.946 9.22005 62.0918 9.49805 62.3197 9.74414C62.5476 9.99023 62.8347 10.1224 63.181 10.1406H67.556C67.8112 10.1497 68.0209 10.2454 68.1849 10.4277C68.3581 10.61 68.4447 10.8288 68.4447 11.084C68.4356 11.3301 68.3444 11.5397 68.1712 11.7129C68.0072 11.877 67.8021 11.9635 67.556 11.9727H62.7162C62.0782 11.9362 61.5495 11.722 61.1302 11.3301C60.7201 10.929 60.4239 10.4414 60.2416 9.86719C60.0684 9.29297 59.9772 8.68229 59.9681 8.03516V4.57617C59.9772 4.33008 60.0684 4.125 60.2416 3.96094C60.4147 3.78776 60.6244 3.69661 60.8705 3.6875ZM79.9848 3.53711C80.4588 3.53711 80.9236 3.5918 81.3794 3.70117C81.8442 3.81055 82.2863 3.97461 82.7055 4.19336C83.1248 4.40299 83.494 4.68555 83.813 5.04102C84.1411 5.39648 84.3188 5.82031 84.3462 6.3125V6.88672V11.248C84.2915 11.7949 83.9907 12.0911 83.4438 12.1367C83.1886 12.1367 82.9653 12.0547 82.7739 11.8906C82.5916 11.7174 82.5005 11.5033 82.5005 11.248V6.73633C82.4822 6.45378 82.3729 6.22135 82.1723 6.03906C81.9809 5.84766 81.7622 5.69727 81.5161 5.58789C81.2791 5.47852 81.0285 5.39648 80.7641 5.3418C80.5089 5.28711 80.2492 5.25977 79.9848 5.25977C79.7205 5.25977 79.4562 5.28711 79.1919 5.3418C78.9367 5.39648 78.686 5.47852 78.4399 5.58789C78.2029 5.69727 77.9842 5.84766 77.7837 6.03906C77.5923 6.22135 77.4874 6.45378 77.4692 6.73633V11.248C77.4236 11.7949 77.1274 12.0911 76.5805 12.1367C76.3253 12.1367 76.102 12.0547 75.9106 11.8906C75.7283 11.7174 75.6372 11.5033 75.6372 11.248V6.88672V6.3125C75.6645 5.82031 75.8377 5.39648 76.1567 5.04102C76.4757 4.68555 76.8449 4.40299 77.2641 4.19336C77.6834 3.97461 78.1209 3.81055 78.5766 3.70117C79.0415 3.5918 79.5109 3.53711 79.9848 3.53711ZM92.8506 3.90625C93.3155 3.91536 93.7302 4.0612 94.0948 4.34375C94.4593 4.6263 94.751 4.96354 94.9698 5.35547C95.1976 5.7474 95.3662 6.16211 95.4756 6.59961C95.585 7.03711 95.6397 7.48372 95.6397 7.93945C95.6397 8.54102 95.544 9.13346 95.3526 9.7168C95.1703 10.291 94.8649 10.8014 94.4366 11.248C94.0173 11.6947 93.4886 11.9362 92.8506 11.9727H88.0791C87.4411 11.9453 86.9079 11.7083 86.4795 11.2617C86.0511 10.8151 85.7458 10.3001 85.5635 9.7168C85.3903 9.13346 85.3037 8.54102 85.3037 7.93945C85.3037 7.33789 85.3949 6.75 85.5772 6.17578C85.7595 5.59245 86.0603 5.07747 86.4795 4.63086C86.9079 4.17513 87.4411 3.93359 88.0791 3.90625H88.3389H92.5909H92.8506ZM92.3858 10.1406C92.7321 10.1224 93.0192 9.99479 93.2471 9.75781C93.4841 9.51172 93.6527 9.22917 93.753 8.91016C93.8532 8.59115 93.9034 8.26758 93.9034 7.93945C93.9034 7.61133 93.8487 7.29232 93.7393 6.98242C93.639 6.66341 93.475 6.38086 93.2471 6.13477C93.0192 5.88867 92.7321 5.75651 92.3858 5.73828H88.503C88.1566 5.75651 87.8695 5.88867 87.6416 6.13477C87.4138 6.38086 87.2452 6.66341 87.1358 6.98242C87.0355 7.29232 86.9854 7.61133 86.9854 7.93945C86.9854 8.26758 87.0355 8.59115 87.1358 8.91016C87.236 9.22917 87.4001 9.51172 87.628 9.75781C87.8649 9.99479 88.1566 10.1224 88.503 10.1406H92.3858ZM96.3102 4.82227C96.3102 4.56706 96.3967 4.35286 96.5699 4.17969C96.7522 3.9974 96.971 3.90625 97.2262 3.90625H105.183C105.438 3.90625 105.657 3.99284 105.839 4.16602C106.013 4.34831 106.099 4.56706 106.099 4.82227C106.099 5.07747 106.008 5.29622 105.826 5.47852C105.653 5.65169 105.438 5.73828 105.183 5.73828H102.134V11.2754C102.08 11.8223 101.779 12.1185 101.232 12.1641C100.977 12.1641 100.754 12.082 100.562 11.918C100.38 11.7448 100.289 11.5306 100.289 11.2754V5.73828H97.2262C96.971 5.73828 96.7568 5.64714 96.5836 5.46484C96.4013 5.29167 96.3102 5.07747 96.3102 4.82227ZM109.518 3.90625H110.147H114.795C115.05 3.91536 115.26 4.01107 115.424 4.19336C115.597 4.37565 115.684 4.5944 115.684 4.84961C115.638 5.39648 115.342 5.69271 114.795 5.73828H109.983C109.636 5.75651 109.349 5.88867 109.121 6.13477C108.893 6.38086 108.725 6.66341 108.615 6.98242C108.515 7.29232 108.465 7.61133 108.465 7.93945C108.465 8.26758 108.515 8.59115 108.615 8.91016C108.725 9.22005 108.893 9.49805 109.121 9.74414C109.349 9.99023 109.636 10.1224 109.983 10.1406H114.795C115.05 10.1497 115.26 10.2454 115.424 10.4277C115.597 10.61 115.684 10.8288 115.684 11.084C115.675 11.3301 115.583 11.5397 115.41 11.7129C115.246 11.877 115.041 11.9635 114.795 11.9727H109.777H109.518C108.88 11.9362 108.351 11.6947 107.932 11.248C107.522 10.7923 107.225 10.2773 107.043 9.70312C106.87 9.12891 106.783 8.54102 106.783 7.93945C106.783 7.33789 106.875 6.75 107.057 6.17578C107.239 5.60156 107.535 5.09115 107.945 4.64453C108.356 4.1888 108.88 3.94271 109.518 3.90625ZM115.656 7.88477C115.656 8.13997 115.565 8.35417 115.383 8.52734C115.21 8.70964 114.996 8.80078 114.74 8.80078H110.611C110.356 8.80078 110.138 8.71419 109.955 8.54102C109.782 8.35872 109.695 8.13997 109.695 7.88477C109.695 7.62956 109.782 7.41081 109.955 7.22852C110.138 7.05534 110.356 6.96875 110.611 6.96875H114.74C114.996 6.96875 115.21 7.0599 115.383 7.24219C115.565 7.41536 115.656 7.62956 115.656 7.88477ZM125.337 4.82227C125.337 5.07747 125.245 5.29167 125.063 5.46484C124.89 5.64714 124.676 5.73828 124.421 5.73828H118.952C118.779 5.7474 118.633 5.78841 118.514 5.86133C118.405 5.92513 118.323 6.0026 118.268 6.09375C118.214 6.17578 118.186 6.26237 118.186 6.35352C118.186 6.44466 118.214 6.53581 118.268 6.62695C118.323 6.70898 118.405 6.78646 118.514 6.85938C118.633 6.92318 118.779 6.95964 118.952 6.96875H122.835C123.473 6.98698 123.997 7.13737 124.407 7.41992C124.826 7.69336 125.122 8.01237 125.296 8.37695C125.478 8.73242 125.569 9.09701 125.569 9.4707C125.569 9.83529 125.478 10.1999 125.296 10.5645C125.113 10.9199 124.817 11.2389 124.407 11.5215C123.997 11.7949 123.473 11.9316 122.835 11.9316H122.753C122.698 11.9408 122.643 11.9453 122.589 11.9453H117.421C117.165 11.9453 116.947 11.8587 116.764 11.6855C116.591 11.5033 116.505 11.2845 116.505 11.0293C116.505 10.7741 116.596 10.5599 116.778 10.3867C116.951 10.2044 117.165 10.1133 117.421 10.1133H122.917C123.09 10.1224 123.231 10.0905 123.341 10.0176C123.459 9.94466 123.546 9.86263 123.6 9.77148C123.655 9.67122 123.682 9.57096 123.682 9.4707C123.682 9.4069 123.655 9.32031 123.6 9.21094C123.546 9.09245 123.459 8.99674 123.341 8.92383C123.231 8.85091 123.09 8.8099 122.917 8.80078H119.034C118.396 8.78255 117.867 8.63672 117.448 8.36328C117.038 8.08984 116.742 7.77995 116.559 7.43359C116.386 7.07812 116.3 6.7181 116.3 6.35352C116.3 5.99805 116.391 5.64714 116.573 5.30078C116.755 4.94531 117.051 4.63086 117.462 4.35742C117.872 4.08398 118.396 3.93815 119.034 3.91992H119.116C119.171 3.91081 119.225 3.90625 119.28 3.90625H124.421C124.676 3.90625 124.89 3.9974 125.063 4.17969C125.245 4.35286 125.337 4.56706 125.337 4.82227Z" fill="#FBC706"/>
<rect x="45" y="21" width="19" height="2" fill="#FBC706"/>
<rect x="67" y="21" width="1" height="2" fill="#FBC706"/>
<rect x="69" y="21" width="1" height="2" fill="#FBC706"/>
<rect x="76" y="21" width="1" height="2" fill="#FBC706"/>
<rect x="81" y="21" width="1" height="2" fill="#FBC706"/>
<rect opacity="0.5" x="1" y="21" width="56" height="2" fill="#FBC706"/>
</svg>
