<svg width="114" height="39" viewBox="0 0 114 39" fill="none" xmlns="http://www.w3.org/2000/svg">
<g filter="url(#filter0_d_187_10)">
<path d="M109.358 0.639648L109.297 25.3994L107.617 28.4902L106.542 30.3604H4.63965V0.639648H109.358Z" stroke="#F75049" stroke-opacity="0.3" stroke-width="1.28"/>
<path d="M33.8253 11.055C34.4816 11.0925 35.0206 11.3456 35.4425 11.8144C35.8644 12.2738 36.1691 12.7988 36.3566 13.3894C36.5441 13.98 36.6378 14.5847 36.6378 15.2034C36.6378 15.8222 36.5441 16.4269 36.3566 17.0175C36.1784 17.6081 35.8738 18.1378 35.4425 18.6066C35.0206 19.0659 34.4816 19.3144 33.8253 19.3519H28.6503C28.3972 19.3425 28.1816 19.2534 28.0034 19.0847C27.8347 18.9066 27.7456 18.6909 27.7363 18.4378V14.9503C27.7456 14.6878 27.8441 14.4722 28.0316 14.3034C28.2191 14.1253 28.4441 14.0363 28.7066 14.0363C28.9597 14.0456 29.1753 14.1394 29.3534 14.3175C29.5316 14.4863 29.6253 14.6972 29.6347 14.9503V17.0878C29.6347 17.3409 29.7659 17.4675 30.0284 17.4675H33.3472C33.7034 17.4488 33.9988 17.3128 34.2331 17.0597C34.4675 16.8066 34.6363 16.5206 34.7394 16.2019C34.8519 15.8738 34.9081 15.5409 34.9081 15.2034C34.9081 14.8659 34.8519 14.5378 34.7394 14.2191C34.6363 13.8909 34.4675 13.6003 34.2331 13.3472C33.9988 13.0941 33.7034 12.9581 33.3472 12.9394H28.6503C28.0878 12.8925 27.7831 12.5878 27.7363 12.0253C27.7363 11.7628 27.8206 11.5378 27.9894 11.3503C28.1675 11.1628 28.3878 11.0644 28.6503 11.055H33.8253ZM40.2103 11.055H40.8571H45.6384C45.9009 11.0644 46.1165 11.1628 46.2853 11.3503C46.4634 11.5378 46.5524 11.7628 46.5524 12.0253C46.5056 12.5878 46.2009 12.8925 45.6384 12.9394H40.6884C40.3321 12.9581 40.0368 13.0941 39.8024 13.3472C39.5681 13.6003 39.3946 13.8909 39.2821 14.2191C39.179 14.5378 39.1274 14.8659 39.1274 15.2034C39.1274 15.5409 39.179 15.8738 39.2821 16.2019C39.3946 16.5206 39.5681 16.8066 39.8024 17.0597C40.0368 17.3128 40.3321 17.4488 40.6884 17.4675H45.6384C45.9009 17.4769 46.1165 17.5753 46.2853 17.7628C46.4634 17.9503 46.5524 18.1753 46.5524 18.4378C46.5431 18.6909 46.4493 18.9066 46.2712 19.0847C46.1024 19.2534 45.8915 19.3425 45.6384 19.3519H40.4774H40.2103C39.554 19.3144 39.0103 19.0659 38.579 18.6066C38.1571 18.1378 37.8524 17.6081 37.6649 17.0175C37.4868 16.4269 37.3978 15.8222 37.3978 15.2034C37.3978 14.5847 37.4915 13.98 37.679 13.3894C37.8665 12.7988 38.1712 12.2738 38.5931 11.8144C39.0149 11.3456 39.554 11.0925 40.2103 11.055ZM46.5243 15.1472C46.5243 15.4097 46.4306 15.63 46.2431 15.8081C46.0649 15.9956 45.8446 16.0894 45.5821 16.0894H41.3353C41.0728 16.0894 40.8478 16.0003 40.6603 15.8222C40.4821 15.6347 40.3931 15.4097 40.3931 15.1472C40.3931 14.8847 40.4821 14.6597 40.6603 14.4722C40.8478 14.2941 41.0728 14.205 41.3353 14.205H45.5821C45.8446 14.205 46.0649 14.2988 46.2431 14.4863C46.4306 14.6644 46.5243 14.8847 46.5243 15.1472ZM48.3249 10.83C48.5874 10.83 48.8124 10.9191 48.9999 11.0972C49.1874 11.2659 49.2858 11.4816 49.2952 11.7441V15.1331C49.2858 15.5175 49.3093 15.8738 49.3655 16.2019C49.4311 16.5206 49.5811 16.8066 49.8155 17.0597C50.0499 17.3128 50.3452 17.4488 50.7014 17.4675H55.2014C55.4639 17.4769 55.6796 17.5753 55.8483 17.7628C56.0264 17.9503 56.1155 18.1753 56.1155 18.4378C56.1061 18.6909 56.0124 18.9066 55.8343 19.0847C55.6655 19.2534 55.4546 19.3425 55.2014 19.3519H50.2233C49.5671 19.3144 49.0233 19.0941 48.5921 18.6909C48.1702 18.2784 47.8655 17.7769 47.678 17.1863C47.4999 16.5956 47.4061 15.9675 47.3968 15.3019V11.7441C47.4061 11.4909 47.4999 11.28 47.678 11.1113C47.8561 10.9331 48.0718 10.8394 48.3249 10.83ZM59.4911 11.055H60.1379H64.9192C65.1817 11.0644 65.3973 11.1628 65.5661 11.3503C65.7442 11.5378 65.8333 11.7628 65.8333 12.0253C65.7864 12.5878 65.4817 12.8925 64.9192 12.9394H59.9692C59.6129 12.9581 59.3176 13.0941 59.0833 13.3472C58.8489 13.6003 58.6754 13.8909 58.5629 14.2191C58.4598 14.5378 58.4083 14.8659 58.4083 15.2034C58.4083 15.5409 58.4598 15.8738 58.5629 16.2019C58.6754 16.5206 58.8489 16.8066 59.0833 17.0597C59.3176 17.3128 59.6129 17.4488 59.9692 17.4675H64.9192C65.1817 17.4769 65.3973 17.5753 65.5661 17.7628C65.7442 17.9503 65.8333 18.1753 65.8333 18.4378C65.8239 18.6909 65.7301 18.9066 65.552 19.0847C65.3833 19.2534 65.1723 19.3425 64.9192 19.3519H59.7583H59.4911C58.8348 19.3144 58.2911 19.0659 57.8598 18.6066C57.4379 18.1378 57.1333 17.6081 56.9458 17.0175C56.7676 16.4269 56.6786 15.8222 56.6786 15.2034C56.6786 14.5847 56.7723 13.98 56.9598 13.3894C57.1473 12.7988 57.452 12.2738 57.8739 11.8144C58.2958 11.3456 58.8348 11.0925 59.4911 11.055ZM65.8051 15.1472C65.8051 15.4097 65.7114 15.63 65.5239 15.8081C65.3458 15.9956 65.1254 16.0894 64.8629 16.0894H60.6161C60.3536 16.0894 60.1286 16.0003 59.9411 15.8222C59.7629 15.6347 59.6739 15.4097 59.6739 15.1472C59.6739 14.8847 59.7629 14.6597 59.9411 14.4722C60.1286 14.2941 60.3536 14.205 60.6161 14.205H64.8629C65.1254 14.205 65.3458 14.2988 65.5239 14.4863C65.7114 14.6644 65.8051 14.8847 65.8051 15.1472ZM66.3963 11.9972C66.3963 11.7347 66.4854 11.5144 66.6635 11.3363C66.851 11.1488 67.076 11.055 67.3385 11.055H75.5229C75.7854 11.055 76.0104 11.1441 76.1979 11.3222C76.376 11.5097 76.4651 11.7347 76.4651 11.9972C76.4651 12.2597 76.3713 12.4847 76.1838 12.6722C76.0057 12.8503 75.7854 12.9394 75.5229 12.9394H72.3869V18.6347C72.3307 19.1972 72.0213 19.5019 71.4588 19.5488C71.1963 19.5488 70.9666 19.4644 70.7698 19.2956C70.5823 19.1175 70.4885 18.8972 70.4885 18.6347V12.9394H67.3385C67.076 12.9394 66.8557 12.8456 66.6776 12.6581C66.4901 12.48 66.3963 12.2597 66.3963 11.9972ZM79.9813 11.055H80.6281H85.4094C85.6719 11.0644 85.8875 11.1628 86.0563 11.3503C86.2344 11.5378 86.3234 11.7628 86.3234 12.0253C86.2766 12.5878 85.9719 12.8925 85.4094 12.9394H80.4594C80.1031 12.9581 79.8078 13.0941 79.5734 13.3472C79.3391 13.6003 79.1656 13.8909 79.0531 14.2191C78.95 14.5378 78.8984 14.8659 78.8984 15.2034C78.8984 15.5409 78.95 15.8738 79.0531 16.2019C79.1656 16.5206 79.3391 16.8066 79.5734 17.0597C79.8078 17.3128 80.1031 17.4488 80.4594 17.4675H85.4094C85.6719 17.4769 85.8875 17.5753 86.0563 17.7628C86.2344 17.9503 86.3234 18.1753 86.3234 18.4378C86.3141 18.6909 86.2203 18.9066 86.0422 19.0847C85.8734 19.2534 85.6625 19.3425 85.4094 19.3519H80.2484H79.9813C79.325 19.3144 78.7813 19.0659 78.35 18.6066C77.9281 18.1378 77.6234 17.6081 77.4359 17.0175C77.2578 16.4269 77.1688 15.8222 77.1688 15.2034C77.1688 14.5847 77.2625 13.98 77.45 13.3894C77.6375 12.7988 77.9422 12.2738 78.3641 11.8144C78.7859 11.3456 79.325 11.0925 79.9813 11.055ZM86.2953 15.1472C86.2953 15.4097 86.2016 15.63 86.0141 15.8081C85.8359 15.9956 85.6156 16.0894 85.3531 16.0894H81.1063C80.8438 16.0894 80.6188 16.0003 80.4313 15.8222C80.2531 15.6347 80.1641 15.4097 80.1641 15.1472C80.1641 14.8847 80.2531 14.6597 80.4313 14.4722C80.6188 14.2941 80.8438 14.205 81.1063 14.205H85.3531C85.6156 14.205 85.8359 14.2988 86.0141 14.4863C86.2016 14.6644 86.2953 14.8847 86.2953 15.1472Z" fill="#F75049"/>
</g>
<defs>
<filter id="filter0_d_187_10" x="0" y="0" width="114" height="39" filterUnits="userSpaceOnUse" color-interpolation-filters="sRGB">
<feFlood flood-opacity="0" result="BackgroundImageFix"/>
<feColorMatrix in="SourceAlpha" type="matrix" values="0 0 0 0 0 0 0 0 0 0 0 0 0 0 0 0 0 0 127 0" result="hardAlpha"/>
<feOffset dy="4"/>
<feGaussianBlur stdDeviation="2"/>
<feComposite in2="hardAlpha" operator="out"/>
<feColorMatrix type="matrix" values="0 0 0 0 0 0 0 0 0 0 0 0 0 0 0 0 0 0 0.25 0"/>
<feBlend mode="normal" in2="BackgroundImageFix" result="effect1_dropShadow_187_10"/>
<feBlend mode="normal" in="SourceGraphic" in2="effect1_dropShadow_187_10" result="shape"/>
</filter>
</defs>
</svg>
