<svg width="106" height="31" viewBox="0 0 106 31" fill="none" xmlns="http://www.w3.org/2000/svg">
<path d="M105.358 0.639648L105.297 25.3994L103.617 28.4902L102.542 30.3604H0.639648V0.639648H105.358Z" stroke="#FBC706" stroke-opacity="0.3" stroke-width="1.28"/>
<path d="M35.9993 11.055H36.6462H41.4274C41.6899 11.0644 41.9056 11.1628 42.0743 11.3503C42.2524 11.5378 42.3415 11.7628 42.3415 12.0253C42.2946 12.5878 41.9899 12.8925 41.4274 12.9394H36.4774C36.1212 12.9581 35.8259 13.0941 35.5915 13.3472C35.3571 13.6003 35.1837 13.8909 35.0712 14.2191C34.9681 14.5378 34.9165 14.8659 34.9165 15.2034C34.9165 15.5409 34.9681 15.8738 35.0712 16.2019C35.1837 16.5206 35.3571 16.8066 35.5915 17.0597C35.8259 17.3128 36.1212 17.4488 36.4774 17.4675H41.4274C41.6899 17.4769 41.9056 17.5753 42.0743 17.7628C42.2524 17.9503 42.3415 18.1753 42.3415 18.4378C42.3321 18.6909 42.2384 18.9066 42.0603 19.0847C41.8915 19.2534 41.6806 19.3425 41.4274 19.3519H36.2665H35.9993C35.3431 19.3144 34.7993 19.0659 34.3681 18.6066C33.9462 18.1378 33.6415 17.6081 33.454 17.0175C33.2759 16.4269 33.1868 15.8222 33.1868 15.2034C33.1868 14.5847 33.2806 13.98 33.4681 13.3894C33.6556 12.7988 33.9603 12.2738 34.3821 11.8144C34.804 11.3456 35.3431 11.0925 35.9993 11.055ZM42.3134 15.1472C42.3134 15.4097 42.2196 15.63 42.0321 15.8081C41.854 15.9956 41.6337 16.0894 41.3712 16.0894H37.1243C36.8618 16.0894 36.6368 16.0003 36.4493 15.8222C36.2712 15.6347 36.1821 15.4097 36.1821 15.1472C36.1821 14.8847 36.2712 14.6597 36.4493 14.4722C36.6368 14.2941 36.8618 14.205 37.1243 14.205H41.3712C41.6337 14.205 41.854 14.2988 42.0321 14.4863C42.2196 14.6644 42.3134 14.8847 42.3134 15.1472ZM49.2749 11.055C49.9311 11.0925 50.4702 11.3456 50.8921 11.8144C51.3139 12.2738 51.6186 12.7988 51.8061 13.3894C51.9936 13.98 52.0874 14.5847 52.0874 15.2034C52.0874 15.8222 51.9936 16.4269 51.8061 17.0175C51.628 17.6081 51.3233 18.1378 50.8921 18.6066C50.4702 19.0659 49.9311 19.3144 49.2749 19.3519H44.0999C43.8468 19.3425 43.6311 19.2534 43.453 19.0847C43.2843 18.9066 43.1952 18.6909 43.1858 18.4378V14.9503C43.1952 14.6878 43.2936 14.4722 43.4811 14.3034C43.6686 14.1253 43.8936 14.0363 44.1561 14.0363C44.4093 14.0456 44.6249 14.1394 44.803 14.3175C44.9811 14.4863 45.0749 14.6972 45.0843 14.9503V17.0878C45.0843 17.3409 45.2155 17.4675 45.478 17.4675H48.7968C49.153 17.4488 49.4483 17.3128 49.6827 17.0597C49.9171 16.8066 50.0858 16.5206 50.1889 16.2019C50.3014 15.8738 50.3577 15.5409 50.3577 15.2034C50.3577 14.8659 50.3014 14.5378 50.1889 14.2191C50.0858 13.8909 49.9171 13.6003 49.6827 13.3472C49.4483 13.0941 49.153 12.9581 48.7968 12.9394H44.0999C43.5374 12.8925 43.2327 12.5878 43.1858 12.0253C43.1858 11.7628 43.2702 11.5378 43.4389 11.3503C43.6171 11.1628 43.8374 11.0644 44.0999 11.055H49.2749ZM52.7489 18.4097C52.7489 18.1472 52.8379 17.9269 53.0161 17.7488C53.2036 17.5613 53.4286 17.4675 53.6911 17.4675H56.3911V12.9394H53.6911C53.4286 12.9394 53.2083 12.8456 53.0301 12.6581C52.8426 12.48 52.7489 12.2597 52.7489 11.9972C52.7489 11.7347 52.8379 11.5144 53.0161 11.3363C53.2036 11.1488 53.4286 11.055 53.6911 11.055H60.9754C61.2379 11.055 61.4629 11.1441 61.6504 11.3222C61.8286 11.5097 61.9176 11.7347 61.9176 11.9972C61.9176 12.2597 61.8239 12.4847 61.6364 12.6722C61.4583 12.8503 61.2379 12.9394 60.9754 12.9394H58.2895V17.4675H60.9754C61.2379 17.4675 61.4629 17.5566 61.6504 17.7347C61.8286 17.9222 61.9176 18.1472 61.9176 18.4097C61.9176 18.6722 61.8239 18.8972 61.6364 19.0847C61.4583 19.2628 61.2379 19.3519 60.9754 19.3519H53.6911C53.4286 19.3519 53.2083 19.2581 53.0301 19.0706C52.8426 18.8925 52.7489 18.6722 52.7489 18.4097ZM62.5229 11.9972C62.5229 11.7347 62.6119 11.5144 62.7901 11.3363C62.9776 11.1488 63.2026 11.055 63.4651 11.055H71.6494C71.9119 11.055 72.1369 11.1441 72.3244 11.3222C72.5026 11.5097 72.5916 11.7347 72.5916 11.9972C72.5916 12.2597 72.4979 12.4847 72.3104 12.6722C72.1323 12.8503 71.9119 12.9394 71.6494 12.9394H68.5135V18.6347C68.4573 19.1972 68.1479 19.5019 67.5854 19.5488C67.3229 19.5488 67.0932 19.4644 66.8963 19.2956C66.7088 19.1175 66.6151 18.8972 66.6151 18.6347V12.9394H63.4651C63.2026 12.9394 62.9823 12.8456 62.8041 12.6581C62.6166 12.48 62.5229 12.2597 62.5229 11.9972Z" fill="#FBC706"/>
</svg>
