<svg width="106" height="31" viewBox="0 0 106 31" fill="none" xmlns="http://www.w3.org/2000/svg">
<g clip-path="url(#clip0_192_23)">
<path d="M105.358 0.639648L105.297 25.3994L103.617 28.4902L102.542 30.3604H0.639648V0.639648H105.358Z" stroke="#FBC706" stroke-opacity="0.3" stroke-width="1.28"/>
<path d="M18.9382 19.2266C18.8819 19.7891 18.5725 20.0937 18.01 20.1406C17.7475 20.1406 17.5178 20.0562 17.321 19.8875C17.1335 19.7094 17.0397 19.4891 17.0397 19.2266V12.5891C17.0491 12.3266 17.1475 12.1109 17.335 11.9422C17.5225 11.7641 17.7475 11.675 18.01 11.675H23.9163C24.7413 11.7031 25.3647 11.8859 25.7866 12.2234C26.2085 12.5516 26.5132 12.9266 26.7007 13.3484C26.8882 13.7703 26.9819 14.1969 26.9819 14.6281C26.9819 15.0781 26.8882 15.5141 26.7007 15.9359C26.5225 16.3578 26.2178 16.7375 25.7866 17.075C25.3647 17.4031 24.8257 17.5625 24.1694 17.5531H20.6257C20.3632 17.5531 20.1428 17.4594 19.9647 17.2719C19.7772 17.0938 19.6835 16.8734 19.6835 16.6109C19.6835 16.3484 19.7725 16.1281 19.9507 15.95C20.1382 15.7625 20.3632 15.6688 20.6257 15.6688H24.2538C24.4319 15.6688 24.5772 15.6125 24.6897 15.5C24.8116 15.3781 24.9007 15.2422 24.9569 15.0922C25.0132 14.9328 25.0413 14.7734 25.0413 14.6141C25.0413 14.4641 25.0132 14.3141 24.9569 14.1641C24.9007 14.0047 24.8116 13.8688 24.6897 13.7563C24.5772 13.6344 24.4319 13.5688 24.2538 13.5594H19.3038C19.06 13.5688 18.9382 13.6906 18.9382 13.925V19.2266ZM29.795 19.2547C29.7387 19.8172 29.4293 20.1219 28.8668 20.1687C28.6043 20.1687 28.3747 20.0844 28.1778 19.9156C27.9903 19.7375 27.8965 19.5172 27.8965 19.2547V12.5891C27.9059 12.3266 28.0043 12.1109 28.1918 11.9422C28.3793 11.7641 28.6043 11.675 28.8668 11.675H29.5559H31.2856H34.759C34.8153 11.675 34.8715 11.6797 34.9278 11.6891H35.0122C35.6684 11.7078 36.2075 11.8578 36.6293 12.1391C37.0512 12.4203 37.3559 12.7438 37.5434 13.1094C37.7309 13.4656 37.8247 13.8266 37.8247 14.1922C37.8247 14.5672 37.7309 14.9375 37.5434 15.3031C37.3653 15.6594 37.0606 15.9781 36.6293 16.2594C36.2075 16.5406 35.6684 16.6906 35.0122 16.7094H32.5372C32.6122 17.1781 32.7668 17.525 33.0012 17.75C33.2262 17.975 33.5122 18.0875 33.859 18.0875H36.8965C37.159 18.0969 37.3747 18.1953 37.5434 18.3828C37.7215 18.5703 37.8106 18.7953 37.8106 19.0578C37.8012 19.3109 37.7075 19.5266 37.5293 19.7047C37.3606 19.8734 37.1497 19.9625 36.8965 19.9719H33.6059C32.9122 19.9813 32.284 19.7094 31.7215 19.1563C31.159 18.6031 30.8168 17.9469 30.695 17.1875C30.5262 16.3438 30.4418 15.8703 30.4418 15.7672C30.4418 15.5047 30.5309 15.2844 30.709 15.1063C30.8965 14.9188 31.1215 14.825 31.384 14.825H35.0965C35.2747 14.8156 35.42 14.7781 35.5325 14.7125C35.6543 14.6375 35.7434 14.5578 35.7997 14.4734C35.8559 14.3797 35.884 14.2859 35.884 14.1922C35.884 14.0984 35.8559 14.0094 35.7997 13.925C35.7434 13.8313 35.6543 13.7516 35.5325 13.6859C35.42 13.6109 35.2747 13.5688 35.0965 13.5594H31.2856H30.1606C29.9168 13.5688 29.795 13.6906 29.795 13.925V19.2547ZM38.4721 19.0297C38.4721 18.7672 38.5612 18.5469 38.7393 18.3688C38.9268 18.1813 39.1518 18.0875 39.4143 18.0875H42.1143V13.5594H39.4143C39.1518 13.5594 38.9315 13.4656 38.7533 13.2781C38.5658 13.1 38.4721 12.8797 38.4721 12.6172C38.4721 12.3547 38.5612 12.1344 38.7393 11.9563C38.9268 11.7688 39.1518 11.675 39.4143 11.675H46.6987C46.9612 11.675 47.1862 11.7641 47.3737 11.9422C47.5518 12.1297 47.6408 12.3547 47.6408 12.6172C47.6408 12.8797 47.5471 13.1047 47.3596 13.2922C47.1815 13.4703 46.9612 13.5594 46.6987 13.5594H44.0127V18.0875H46.6987C46.9612 18.0875 47.1862 18.1766 47.3737 18.3547C47.5518 18.5422 47.6408 18.7672 47.6408 19.0297C47.6408 19.2922 47.5471 19.5172 47.3596 19.7047C47.1815 19.8828 46.9612 19.9719 46.6987 19.9719H39.4143C39.1518 19.9719 38.9315 19.8781 38.7533 19.6906C38.5658 19.5125 38.4721 19.2922 38.4721 19.0297ZM51.1992 19.2266C50.768 18.5797 50.3367 17.7313 49.9055 16.6813L48.3586 12.6875C48.3117 12.5844 48.2836 12.4719 48.2742 12.35C48.2555 12.0875 48.3305 11.8625 48.4992 11.675C48.6773 11.4875 48.9023 11.3938 49.1742 11.3938C49.4648 11.3938 49.6805 11.4594 49.8211 11.5906C49.9711 11.7125 50.093 11.8719 50.1867 12.0688L51.5227 15.725C51.6727 16.1094 51.818 16.475 51.9586 16.8219C52.1086 17.1594 52.2727 17.4688 52.4508 17.75C52.6289 18.0313 52.8305 18.1813 53.0555 18.2C53.2711 18.1813 53.4633 18.0313 53.632 17.75C53.8195 17.4688 53.9836 17.1594 54.1242 16.8219C54.2742 16.475 54.4242 16.1094 54.5742 15.725L55.882 12.0688C55.9758 11.8719 56.093 11.7125 56.2336 11.5906C56.3836 11.4594 56.6133 11.3938 56.9227 11.3938C57.1945 11.3938 57.4148 11.4875 57.5836 11.675C57.7617 11.8625 57.8414 12.0875 57.8227 12.35C57.8133 12.4719 57.7852 12.5844 57.7383 12.6875L56.1914 16.6813C55.7602 17.75 55.3289 18.6031 54.8977 19.2406C54.4758 19.8688 53.8617 20.1875 53.0555 20.1969C52.2398 20.1875 51.6211 19.8641 51.1992 19.2266ZM61.8592 17.7922C61.8592 17.5297 61.9482 17.3094 62.1263 17.1313C62.3138 16.9438 62.5388 16.85 62.8013 16.85H64.9529L64.5873 15.8094C64.4373 15.425 64.2873 15.0641 64.1373 14.7266C63.9967 14.3797 63.8326 14.0656 63.6451 13.7844C63.4763 13.5031 63.2842 13.3531 63.0685 13.3344C62.8435 13.3531 62.642 13.5031 62.4638 13.7844C62.2857 14.0656 62.1217 14.3797 61.9717 14.7266C61.831 15.0641 61.6857 15.425 61.5357 15.8094L60.1998 19.4656C60.106 19.6625 59.9842 19.8266 59.8342 19.9578C59.6935 20.0797 59.4779 20.1406 59.1873 20.1406C58.9154 20.1406 58.6904 20.0469 58.5123 19.8594C58.3435 19.6719 58.2685 19.4469 58.2873 19.1844C58.2967 19.0625 58.3248 18.95 58.3717 18.8469L59.9185 14.8531C60.3498 13.8031 60.781 12.9547 61.2123 12.3078C61.6342 11.6703 62.2529 11.3469 63.0685 11.3375C63.8748 11.3469 64.4888 11.6703 64.9107 12.3078C65.342 12.9359 65.7732 13.7844 66.2045 14.8531L67.7513 18.8469C67.7982 18.95 67.8263 19.0625 67.8357 19.1844C67.8545 19.4469 67.7748 19.6719 67.5967 19.8594C67.4279 20.0469 67.2076 20.1406 66.9357 20.1406C66.6263 20.1406 66.3967 20.0797 66.2467 19.9578C66.106 19.8266 65.9888 19.6625 65.8951 19.4656L65.6279 18.7344H62.8013C62.5388 18.7344 62.3185 18.6406 62.1404 18.4531C61.9529 18.275 61.8592 18.0547 61.8592 17.7922ZM68.3988 12.6172C68.3988 12.3547 68.4878 12.1344 68.666 11.9563C68.8535 11.7688 69.0785 11.675 69.341 11.675H77.5253C77.7878 11.675 78.0128 11.7641 78.2003 11.9422C78.3785 12.1297 78.4675 12.3547 78.4675 12.6172C78.4675 12.8797 78.3738 13.1047 78.1863 13.2922C78.0082 13.4703 77.7878 13.5594 77.5253 13.5594H74.3894V19.2547C74.3332 19.8172 74.0238 20.1219 73.4613 20.1687C73.1988 20.1687 72.9691 20.0844 72.7722 19.9156C72.5847 19.7375 72.491 19.5172 72.491 19.2547V13.5594H69.341C69.0785 13.5594 68.8582 13.4656 68.68 13.2781C68.4925 13.1 68.3988 12.8797 68.3988 12.6172ZM81.9837 11.675H82.6306H87.4118C87.6743 11.6844 87.89 11.7828 88.0587 11.9703C88.2368 12.1578 88.3259 12.3828 88.3259 12.6453C88.279 13.2078 87.9743 13.5125 87.4118 13.5594H82.4618C82.1056 13.5781 81.8103 13.7141 81.5759 13.9672C81.3415 14.2203 81.1681 14.5109 81.0556 14.8391C80.9525 15.1578 80.9009 15.4859 80.9009 15.8234C80.9009 16.1609 80.9525 16.4938 81.0556 16.8219C81.1681 17.1406 81.3415 17.4266 81.5759 17.6797C81.8103 17.9328 82.1056 18.0688 82.4618 18.0875H87.4118C87.6743 18.0969 87.89 18.1953 88.0587 18.3828C88.2368 18.5703 88.3259 18.7953 88.3259 19.0578C88.3165 19.3109 88.2228 19.5266 88.0447 19.7047C87.8759 19.8734 87.665 19.9625 87.4118 19.9719H82.2509H81.9837C81.3275 19.9344 80.7837 19.6859 80.3525 19.2266C79.9306 18.7578 79.6259 18.2281 79.4384 17.6375C79.2603 17.0469 79.1712 16.4422 79.1712 15.8234C79.1712 15.2047 79.265 14.6 79.4525 14.0094C79.64 13.4188 79.9447 12.8938 80.3665 12.4344C80.7884 11.9656 81.3275 11.7125 81.9837 11.675ZM88.2978 15.7672C88.2978 16.0297 88.204 16.25 88.0165 16.4281C87.8384 16.6156 87.6181 16.7094 87.3556 16.7094H83.1087C82.8462 16.7094 82.6212 16.6203 82.4337 16.4422C82.2556 16.2547 82.1665 16.0297 82.1665 15.7672C82.1665 15.5047 82.2556 15.2797 82.4337 15.0922C82.6212 14.9141 82.8462 14.825 83.1087 14.825H87.3556C87.6181 14.825 87.8384 14.9188 88.0165 15.1063C88.204 15.2844 88.2978 15.5047 88.2978 15.7672Z" fill="#FBC706"/>
</g>
<defs>
<clipPath id="clip0_192_23">
<rect width="106" height="31" fill="white"/>
</clipPath>
</defs>
</svg>
