<svg width="106" height="31" viewBox="0 0 106 31" fill="none" xmlns="http://www.w3.org/2000/svg">
<g clip-path="url(#clip0_193_11)">
<mask id="mask0_193_11" style="mask-type:luminance" maskUnits="userSpaceOnUse" x="0" y="0" width="106" height="31">
<path d="M106 0H0V31H106V0Z" fill="white"/>
</mask>
<g mask="url(#mask0_193_11)">
<path d="M105.358 0.639648L105.297 25.3994L103.617 28.4902L102.542 30.3604H0.639648V0.639648H105.358Z" stroke="#1DED83" stroke-opacity="0.3" stroke-width="1.28"/>
<path d="M42.1577 12.6172C42.1577 12.8797 42.064 13.1 41.8765 13.2781C41.6984 13.4656 41.4781 13.5594 41.2156 13.5594H35.5906C35.4124 13.5687 35.2624 13.6109 35.1406 13.6859C35.0281 13.7516 34.9437 13.8312 34.8874 13.925C34.8312 14.0094 34.8031 14.0984 34.8031 14.1922C34.8031 14.2859 34.8312 14.3797 34.8874 14.4734C34.9437 14.5578 35.0281 14.6375 35.1406 14.7125C35.2624 14.7781 35.4124 14.8156 35.5906 14.825H39.5843C40.2406 14.8437 40.7796 14.9984 41.2015 15.2891C41.6327 15.5703 41.9374 15.8984 42.1156 16.2734C42.3031 16.6391 42.3968 17.0141 42.3968 17.3984C42.3968 17.7734 42.3031 18.1484 42.1156 18.5234C41.9281 18.8891 41.6234 19.2172 41.2015 19.5078C40.7796 19.7891 40.2406 19.9297 39.5843 19.9297H39.4999C39.4437 19.9391 39.3874 19.9437 39.3312 19.9437H34.0156C33.7531 19.9437 33.5281 19.8547 33.3406 19.6766C33.1624 19.4891 33.0734 19.2641 33.0734 19.0016C33.0734 18.7391 33.1671 18.5187 33.3546 18.3406C33.5327 18.1531 33.7531 18.0594 34.0156 18.0594H39.6687C39.8468 18.0687 39.9921 18.0359 40.1046 17.9609C40.2265 17.8859 40.3156 17.8016 40.3718 17.7078C40.4281 17.6047 40.4562 17.5016 40.4562 17.3984C40.4562 17.3328 40.4281 17.2437 40.3718 17.1312C40.3156 17.0094 40.2265 16.9109 40.1046 16.8359C39.9921 16.7609 39.8468 16.7187 39.6687 16.7094H35.6749C35.0187 16.6906 34.4749 16.5406 34.0437 16.2594C33.6218 15.9781 33.3171 15.6594 33.1296 15.3031C32.9515 14.9375 32.8624 14.5672 32.8624 14.1922C32.8624 13.8266 32.9562 13.4656 33.1437 13.1094C33.3312 12.7437 33.6359 12.4203 34.0577 12.1391C34.4796 11.8578 35.0187 11.7078 35.6749 11.6891H35.7593C35.8156 11.6797 35.8718 11.675 35.9281 11.675H41.2156C41.4781 11.675 41.6984 11.7687 41.8765 11.9562C42.064 12.1344 42.1577 12.3547 42.1577 12.6172ZM46.5599 17.7922C46.5599 17.5297 46.6489 17.3094 46.8271 17.1312C47.0146 16.9437 47.2396 16.85 47.5021 16.85H49.6536L49.288 15.8094C49.138 15.425 48.988 15.0641 48.838 14.7266C48.6974 14.3797 48.5333 14.0656 48.3458 13.7844C48.1771 13.5031 47.9849 13.3531 47.7692 13.3344C47.5442 13.3531 47.3427 13.5031 47.1646 13.7844C46.9864 14.0656 46.8224 14.3797 46.6724 14.7266C46.5317 15.0641 46.3864 15.425 46.2364 15.8094L44.9005 19.4656C44.8067 19.6625 44.6849 19.8266 44.5349 19.9578C44.3942 20.0797 44.1786 20.1406 43.888 20.1406C43.6161 20.1406 43.3911 20.0469 43.213 19.8594C43.0442 19.6719 42.9692 19.4469 42.988 19.1844C42.9974 19.0625 43.0255 18.95 43.0724 18.8469L44.6192 14.8531C45.0505 13.8031 45.4817 12.9547 45.913 12.3078C46.3349 11.6703 46.9536 11.3469 47.7692 11.3375C48.5755 11.3469 49.1896 11.6703 49.6114 12.3078C50.0427 12.9359 50.4739 13.7844 50.9052 14.8531L52.4521 18.8469C52.4989 18.95 52.5271 19.0625 52.5364 19.1844C52.5552 19.4469 52.4755 19.6719 52.2974 19.8594C52.1286 20.0469 51.9083 20.1406 51.6364 20.1406C51.3271 20.1406 51.0974 20.0797 50.9474 19.9578C50.8067 19.8266 50.6896 19.6625 50.5958 19.4656L50.3286 18.7344H47.5021C47.2396 18.7344 47.0192 18.6406 46.8411 18.4531C46.6536 18.275 46.5599 18.0547 46.5599 17.7922ZM56.0526 19.2266C55.6214 18.5797 55.1901 17.7312 54.7589 16.6812L53.212 12.6875C53.1651 12.5844 53.137 12.4719 53.1276 12.35C53.1089 12.0875 53.1839 11.8625 53.3526 11.675C53.5307 11.4875 53.7557 11.3937 54.0276 11.3937C54.3182 11.3937 54.5339 11.4594 54.6745 11.5906C54.8245 11.7125 54.9464 11.8719 55.0401 12.0687L56.3761 15.725C56.5261 16.1094 56.6714 16.475 56.812 16.8219C56.962 17.1594 57.1261 17.4687 57.3042 17.75C57.4823 18.0312 57.6839 18.1812 57.9089 18.2C58.1245 18.1812 58.3167 18.0312 58.4854 17.75C58.6729 17.4687 58.837 17.1594 58.9776 16.8219C59.1276 16.475 59.2776 16.1094 59.4276 15.725L60.7354 12.0687C60.8292 11.8719 60.9464 11.7125 61.087 11.5906C61.237 11.4594 61.4667 11.3937 61.7761 11.3937C62.0479 11.3937 62.2682 11.4875 62.437 11.675C62.6151 11.8625 62.6948 12.0875 62.6761 12.35C62.6667 12.4719 62.6386 12.5844 62.5917 12.6875L61.0448 16.6812C60.6136 17.75 60.1823 18.6031 59.7511 19.2406C59.3292 19.8687 58.7151 20.1875 57.9089 20.1969C57.0932 20.1875 56.4745 19.8641 56.0526 19.2266ZM66.1641 11.675H66.811H71.5922C71.8547 11.6844 72.0704 11.7828 72.2391 11.9703C72.4172 12.1578 72.5063 12.3828 72.5063 12.6453C72.4594 13.2078 72.1547 13.5125 71.5922 13.5594H66.6422C66.286 13.5781 65.9907 13.7141 65.7563 13.9672C65.5219 14.2203 65.3485 14.5109 65.236 14.8391C65.1329 15.1578 65.0813 15.4859 65.0813 15.8234C65.0813 16.1609 65.1329 16.4937 65.236 16.8219C65.3485 17.1406 65.5219 17.4266 65.7563 17.6797C65.9907 17.9328 66.286 18.0687 66.6422 18.0875H71.5922C71.8547 18.0969 72.0704 18.1953 72.2391 18.3828C72.4172 18.5703 72.5063 18.7953 72.5063 19.0578C72.4969 19.3109 72.4032 19.5266 72.2251 19.7047C72.0563 19.8734 71.8454 19.9625 71.5922 19.9719H66.4313H66.1641C65.5079 19.9344 64.9641 19.6859 64.5329 19.2266C64.111 18.7578 63.8063 18.2281 63.6188 17.6375C63.4407 17.0469 63.3516 16.4422 63.3516 15.8234C63.3516 15.2047 63.4454 14.6 63.6329 14.0094C63.8204 13.4187 64.1251 12.8937 64.5469 12.4344C64.9688 11.9656 65.5079 11.7125 66.1641 11.675ZM72.4782 15.7672C72.4782 16.0297 72.3844 16.25 72.1969 16.4281C72.0188 16.6156 71.7985 16.7094 71.536 16.7094H67.2891C67.0266 16.7094 66.8016 16.6203 66.6141 16.4422C66.436 16.2547 66.3469 16.0297 66.3469 15.7672C66.3469 15.5047 66.436 15.2797 66.6141 15.0922C66.8016 14.9141 67.0266 14.825 67.2891 14.825H71.536C71.7985 14.825 72.0188 14.9187 72.1969 15.1062C72.3844 15.2844 72.4782 15.5047 72.4782 15.7672Z" fill="#1DED83"/>
</g>
</g>
<defs>
<clipPath id="clip0_193_11">
<rect width="106" height="31" fill="white"/>
</clipPath>
</defs>
</svg>
