<svg width="116" height="31" viewBox="0 0 116 31" fill="none" xmlns="http://www.w3.org/2000/svg">
<path d="M114.518 0.639648L114.451 25.0234L112.625 28.0713L111.453 29.9199H0.639648V0.639648H114.518Z" stroke="#FBC706" stroke-opacity="0.3" stroke-width="1.28"/>
<path d="M37.1583 11.6172C37.1583 11.8797 37.0646 12.1 36.8771 12.2781C36.6989 12.4656 36.4786 12.5594 36.2161 12.5594H30.5911C30.413 12.5687 30.263 12.6109 30.1411 12.6859C30.0286 12.7516 29.9443 12.8312 29.888 12.925C29.8318 13.0094 29.8036 13.0984 29.8036 13.1922C29.8036 13.2859 29.8318 13.3797 29.888 13.4734C29.9443 13.5578 30.0286 13.6375 30.1411 13.7125C30.263 13.7781 30.413 13.8156 30.5911 13.825H34.5849C35.2411 13.8437 35.7802 13.9984 36.2021 14.2891C36.6333 14.5703 36.938 14.8984 37.1161 15.2734C37.3036 15.6391 37.3974 16.0141 37.3974 16.3984C37.3974 16.7734 37.3036 17.1484 37.1161 17.5234C36.9286 17.8891 36.6239 18.2172 36.2021 18.5078C35.7802 18.7891 35.2411 18.9297 34.5849 18.9297H34.5005C34.4443 18.9391 34.388 18.9437 34.3318 18.9437H29.0161C28.7536 18.9437 28.5286 18.8547 28.3411 18.6766C28.163 18.4891 28.0739 18.2641 28.0739 18.0016C28.0739 17.7391 28.1677 17.5187 28.3552 17.3406C28.5333 17.1531 28.7536 17.0594 29.0161 17.0594H34.6693C34.8474 17.0687 34.9927 17.0359 35.1052 16.9609C35.2271 16.8859 35.3161 16.8016 35.3724 16.7078C35.4286 16.6047 35.4568 16.5016 35.4568 16.3984C35.4568 16.3328 35.4286 16.2437 35.3724 16.1312C35.3161 16.0094 35.2271 15.9109 35.1052 15.8359C34.9927 15.7609 34.8474 15.7187 34.6693 15.7094H30.6755C30.0193 15.6906 29.4755 15.5406 29.0443 15.2594C28.6224 14.9781 28.3177 14.6594 28.1302 14.3031C27.9521 13.9375 27.863 13.5672 27.863 13.1922C27.863 12.8266 27.9568 12.4656 28.1443 12.1094C28.3318 11.7437 28.6364 11.4203 29.0583 11.1391C29.4802 10.8578 30.0193 10.7078 30.6755 10.6891H30.7599C30.8161 10.6797 30.8724 10.675 30.9286 10.675H36.2161C36.4786 10.675 36.6989 10.7687 36.8771 10.9562C37.0646 11.1344 37.1583 11.3547 37.1583 11.6172ZM41.012 10.675H41.6589H46.4401C46.7026 10.6844 46.9183 10.7828 47.087 10.9703C47.2651 11.1578 47.3542 11.3828 47.3542 11.6453C47.3073 12.2078 47.0026 12.5125 46.4401 12.5594H41.4901C41.1339 12.5781 40.8386 12.7141 40.6042 12.9672C40.3698 13.2203 40.1964 13.5109 40.0839 13.8391C39.9808 14.1578 39.9292 14.4859 39.9292 14.8234C39.9292 15.1609 39.9808 15.4937 40.0839 15.8219C40.1964 16.1406 40.3698 16.4266 40.6042 16.6797C40.8386 16.9328 41.1339 17.0687 41.4901 17.0875H46.4401C46.7026 17.0969 46.9183 17.1953 47.087 17.3828C47.2651 17.5703 47.3542 17.7953 47.3542 18.0578C47.3448 18.3109 47.2511 18.5266 47.0729 18.7047C46.9042 18.8734 46.6933 18.9625 46.4401 18.9719H41.2792H41.012C40.3558 18.9344 39.812 18.6859 39.3808 18.2266C38.9589 17.7578 38.6542 17.2281 38.4667 16.6375C38.2886 16.0469 38.1995 15.4422 38.1995 14.8234C38.1995 14.2047 38.2933 13.6 38.4808 13.0094C38.6683 12.4187 38.9729 11.8937 39.3948 11.4344C39.8167 10.9656 40.3558 10.7125 41.012 10.675ZM47.3261 14.7672C47.3261 15.0297 47.2323 15.25 47.0448 15.4281C46.8667 15.6156 46.6464 15.7094 46.3839 15.7094H42.137C41.8745 15.7094 41.6495 15.6203 41.462 15.4422C41.2839 15.2547 41.1948 15.0297 41.1948 14.7672C41.1948 14.5047 41.2839 14.2797 41.462 14.0922C41.6495 13.9141 41.8745 13.825 42.137 13.825H46.3839C46.6464 13.825 46.8667 13.9187 47.0448 14.1062C47.2323 14.2844 47.3261 14.5047 47.3261 14.7672ZM51.3485 16.7922C51.3485 16.5297 51.4376 16.3094 51.6157 16.1312C51.8032 15.9437 52.0282 15.85 52.2907 15.85H54.4423L54.0766 14.8094C53.9266 14.425 53.7766 14.0641 53.6266 13.7266C53.486 13.3797 53.3219 13.0656 53.1344 12.7844C52.9657 12.5031 52.7735 12.3531 52.5579 12.3344C52.3329 12.3531 52.1313 12.5031 51.9532 12.7844C51.7751 13.0656 51.611 13.3797 51.461 13.7266C51.3204 14.0641 51.1751 14.425 51.0251 14.8094L49.6891 18.4656C49.5954 18.6625 49.4735 18.8266 49.3235 18.9578C49.1829 19.0797 48.9673 19.1406 48.6766 19.1406C48.4048 19.1406 48.1798 19.0469 48.0016 18.8594C47.8329 18.6719 47.7579 18.4469 47.7766 18.1844C47.786 18.0625 47.8141 17.95 47.861 17.8469L49.4079 13.8531C49.8391 12.8031 50.2704 11.9547 50.7016 11.3078C51.1235 10.6703 51.7423 10.3469 52.5579 10.3375C53.3641 10.3469 53.9782 10.6703 54.4001 11.3078C54.8313 11.9359 55.2626 12.7844 55.6938 13.8531L57.2407 17.8469C57.2876 17.95 57.3157 18.0625 57.3251 18.1844C57.3438 18.4469 57.2641 18.6719 57.086 18.8594C56.9173 19.0469 56.6969 19.1406 56.4251 19.1406C56.1157 19.1406 55.886 19.0797 55.736 18.9578C55.5954 18.8266 55.4782 18.6625 55.3844 18.4656L55.1173 17.7344H52.2907C52.0282 17.7344 51.8079 17.6406 51.6298 17.4531C51.4423 17.275 51.3485 17.0547 51.3485 16.7922ZM60.0538 18.2547C59.9975 18.8172 59.6881 19.1219 59.1256 19.1688C58.8631 19.1688 58.6334 19.0844 58.4366 18.9156C58.2491 18.7375 58.1553 18.5172 58.1553 18.2547V11.5891C58.1647 11.3266 58.2631 11.1109 58.4506 10.9422C58.6381 10.7641 58.8631 10.675 59.1256 10.675H59.8147H61.5444H65.0178C65.0741 10.675 65.1303 10.6797 65.1866 10.6891H65.2709C65.9272 10.7078 66.4663 10.8578 66.8881 11.1391C67.31 11.4203 67.6147 11.7437 67.8022 12.1094C67.9897 12.4656 68.0834 12.8266 68.0834 13.1922C68.0834 13.5672 67.9897 13.9375 67.8022 14.3031C67.6241 14.6594 67.3194 14.9781 66.8881 15.2594C66.4663 15.5406 65.9272 15.6906 65.2709 15.7094H62.7959C62.8709 16.1781 63.0256 16.525 63.26 16.75C63.485 16.975 63.7709 17.0875 64.1178 17.0875H67.1553C67.4178 17.0969 67.6334 17.1953 67.8022 17.3828C67.9803 17.5703 68.0694 17.7953 68.0694 18.0578C68.06 18.3109 67.9663 18.5266 67.7881 18.7047C67.6194 18.8734 67.4084 18.9625 67.1553 18.9719H63.8647C63.1709 18.9812 62.5428 18.7094 61.9803 18.1562C61.4178 17.6031 61.0756 16.9469 60.9538 16.1875C60.785 15.3437 60.7006 14.8703 60.7006 14.7672C60.7006 14.5047 60.7897 14.2844 60.9678 14.1062C61.1553 13.9187 61.3803 13.825 61.6428 13.825H65.3553C65.5334 13.8156 65.6788 13.7781 65.7913 13.7125C65.9131 13.6375 66.0022 13.5578 66.0584 13.4734C66.1147 13.3797 66.1428 13.2859 66.1428 13.1922C66.1428 13.0984 66.1147 13.0094 66.0584 12.925C66.0022 12.8312 65.9131 12.7516 65.7913 12.6859C65.6788 12.6109 65.5334 12.5687 65.3553 12.5594H61.5444H60.4194C60.1756 12.5687 60.0538 12.6906 60.0538 12.925V18.2547ZM72.2324 12.5594C71.8762 12.5781 71.5762 12.7141 71.3324 12.9672C71.0981 13.2203 70.9293 13.5109 70.8262 13.8391C70.7231 14.1578 70.6715 14.4859 70.6715 14.8234C70.6715 15.1609 70.7184 15.4937 70.8121 15.8219C70.9153 16.15 71.0887 16.4406 71.3324 16.6937C71.5762 16.9375 71.8762 17.0687 72.2324 17.0875H76.8731C77.4637 17.1437 77.7871 17.4672 77.8434 18.0578C77.834 18.3203 77.7356 18.5406 77.5481 18.7187C77.3606 18.8875 77.1356 18.9719 76.8731 18.9719H72.3871H71.7403C71.084 18.9344 70.5449 18.6859 70.1231 18.2266C69.7012 17.7578 69.3965 17.2281 69.209 16.6375C69.0309 16.0469 68.9418 15.4422 68.9418 14.8234C68.9418 14.3641 68.9934 13.9094 69.0965 13.4594C69.1996 13.0094 69.359 12.5828 69.5746 12.1797C69.7996 11.7672 70.0949 11.4156 70.4606 11.125C70.8356 10.8344 71.2621 10.6844 71.7403 10.675H72.0074H76.8731C77.4637 10.7312 77.7871 11.0547 77.8434 11.6453C77.8434 11.9078 77.7449 12.1281 77.5481 12.3062C77.3606 12.475 77.1356 12.5594 76.8731 12.5594H72.2324ZM79.5314 10.45C79.7846 10.4594 80.0002 10.5531 80.1783 10.7312C80.3564 10.9 80.4502 11.1109 80.4596 11.3641V13.7125H85.0299V11.3641C85.0393 11.1016 85.1377 10.8859 85.3252 10.7172C85.5127 10.5391 85.7377 10.45 86.0002 10.45C86.2533 10.4594 86.4689 10.5531 86.6471 10.7312C86.8252 10.9 86.9189 11.1109 86.9283 11.3641V18.2547C86.8721 18.8172 86.5627 19.1219 86.0002 19.1688C85.7377 19.1688 85.508 19.0844 85.3111 18.9156C85.1236 18.7375 85.0299 18.5172 85.0299 18.2547V15.5969H80.4596V18.2547C80.4033 18.8172 80.0939 19.1219 79.5314 19.1688C79.2689 19.1688 79.0393 19.0844 78.8424 18.9156C78.6549 18.7375 78.5611 18.5172 78.5611 18.2547V11.3641C78.5705 11.1016 78.6689 10.8859 78.8564 10.7172C79.0439 10.5391 79.2689 10.45 79.5314 10.45Z" fill="#FBC706"/>
</svg>
