<svg width="93" height="31" viewBox="0 0 93 31" fill="none" xmlns="http://www.w3.org/2000/svg">
<path d="M92.16 0H0V30.56H89.4752L90.571 28.4L92.1052 25.2L92.16 0Z" fill="#FBC706" fill-opacity="0.1"/>
<path d="M91.5186 0.639648L91.4648 25.0537L90 28.1104L89.082 29.9199H0.639648V0.639648H91.5186Z" stroke="#FBC706" stroke-opacity="0.3" stroke-width="1.28"/>
<path d="M20.8056 11.9972C20.8056 12.2597 20.7119 12.48 20.5244 12.6581C20.3463 12.8456 20.126 12.9394 19.8635 12.9394H14.2384C14.0603 12.9488 13.9103 12.9909 13.7884 13.0659C13.6759 13.1316 13.5916 13.2113 13.5353 13.305C13.4791 13.3894 13.4509 13.4784 13.4509 13.5722C13.4509 13.6659 13.4791 13.7597 13.5353 13.8534C13.5916 13.9378 13.6759 14.0175 13.7884 14.0925C13.9103 14.1581 14.0603 14.1956 14.2384 14.205H18.2322C18.8885 14.2238 19.4275 14.3784 19.8494 14.6691C20.2806 14.9503 20.5853 15.2784 20.7635 15.6534C20.951 16.0191 21.0447 16.3941 21.0447 16.7784C21.0447 17.1534 20.951 17.5284 20.7635 17.9034C20.576 18.2691 20.2713 18.5972 19.8494 18.8878C19.4275 19.1691 18.8885 19.3097 18.2322 19.3097H18.1478C18.0916 19.3191 18.0353 19.3238 17.9791 19.3238H12.6634C12.4009 19.3238 12.1759 19.2347 11.9884 19.0566C11.8103 18.8691 11.7213 18.6441 11.7213 18.3816C11.7213 18.1191 11.815 17.8988 12.0025 17.7206C12.1806 17.5331 12.4009 17.4394 12.6634 17.4394H18.3166C18.4947 17.4488 18.64 17.4159 18.7525 17.3409C18.8744 17.2659 18.9635 17.1816 19.0197 17.0878C19.076 16.9847 19.1041 16.8816 19.1041 16.7784C19.1041 16.7128 19.076 16.6238 19.0197 16.5113C18.9635 16.3894 18.8744 16.2909 18.7525 16.2159C18.64 16.1409 18.4947 16.0988 18.3166 16.0894H14.3228C13.6666 16.0706 13.1228 15.9206 12.6916 15.6394C12.2697 15.3581 11.965 15.0394 11.7775 14.6831C11.5994 14.3175 11.5103 13.9472 11.5103 13.5722C11.5103 13.2066 11.6041 12.8456 11.7916 12.4894C11.9791 12.1238 12.2838 11.8003 12.7056 11.5191C13.1275 11.2378 13.6666 11.0878 14.3228 11.0691H14.4072C14.4635 11.0597 14.5197 11.055 14.576 11.055H19.8635C20.126 11.055 20.3463 11.1488 20.5244 11.3363C20.7119 11.5144 20.8056 11.7347 20.8056 11.9972ZM21.7484 18.4097C21.7484 18.1472 21.8375 17.9269 22.0156 17.7488C22.2031 17.5613 22.4281 17.4675 22.6906 17.4675H25.3906V12.9394H22.6906C22.4281 12.9394 22.2078 12.8456 22.0296 12.6581C21.8421 12.48 21.7484 12.2597 21.7484 11.9972C21.7484 11.7347 21.8375 11.5144 22.0156 11.3363C22.2031 11.1488 22.4281 11.055 22.6906 11.055H29.975C30.2375 11.055 30.4625 11.1441 30.65 11.3222C30.8281 11.5097 30.9171 11.7347 30.9171 11.9972C30.9171 12.2597 30.8234 12.4847 30.6359 12.6722C30.4578 12.8503 30.2375 12.9394 29.975 12.9394H27.289V17.4675H29.975C30.2375 17.4675 30.4625 17.5566 30.65 17.7347C30.8281 17.9222 30.9171 18.1472 30.9171 18.4097C30.9171 18.6722 30.8234 18.8972 30.6359 19.0847C30.4578 19.2628 30.2375 19.3519 29.975 19.3519H22.6906C22.4281 19.3519 22.2078 19.2581 22.0296 19.0706C21.8421 18.8925 21.7484 18.6722 21.7484 18.4097ZM34.4615 11.055H40.3958C40.6583 11.0644 40.874 11.1628 41.0427 11.3503C41.2208 11.5378 41.3099 11.7628 41.3099 12.0253C41.263 12.5878 40.9583 12.8925 40.3958 12.9394H34.9396C34.5833 12.9581 34.288 13.0941 34.0536 13.3472C33.8193 13.6003 33.6458 13.8909 33.5333 14.2191C33.4302 14.5378 33.3786 14.8659 33.3786 15.2034C33.3786 15.5409 33.4302 15.8738 33.5333 16.2019C33.6458 16.5206 33.8193 16.8066 34.0536 17.0597C34.288 17.3128 34.5833 17.4488 34.9396 17.4675H39.2146C39.3833 17.4581 39.4724 17.3644 39.4818 17.1863V16.3706C39.4724 16.1831 39.3833 16.0894 39.2146 16.0894H35.6146C35.3521 16.0894 35.1271 16.0003 34.9396 15.8222C34.7615 15.6347 34.6724 15.4097 34.6724 15.1472C34.6724 14.8847 34.7615 14.6597 34.9396 14.4722C35.1271 14.2941 35.3521 14.205 35.6146 14.205H40.424C40.6865 14.205 40.9115 14.2941 41.099 14.4722C41.2677 14.6503 41.3568 14.8659 41.3661 15.1191V15.1472V18.4378C41.3568 18.6909 41.2677 18.9019 41.099 19.0706C40.9208 19.2488 40.7052 19.3425 40.4521 19.3519H34.4615C33.8052 19.3144 33.2615 19.0659 32.8302 18.6066C32.4083 18.1378 32.1036 17.6081 31.9161 17.0175C31.738 16.4269 31.649 15.8222 31.649 15.2034C31.649 14.5847 31.7427 13.98 31.9302 13.3894C32.1177 12.7988 32.4224 12.2738 32.8443 11.8144C33.2661 11.3456 33.8052 11.0925 34.4615 11.055ZM47.0198 10.6753C47.5073 10.6753 47.9855 10.7316 48.4542 10.8441C48.9323 10.9566 49.387 11.1253 49.8183 11.3503C50.2495 11.5659 50.6292 11.8566 50.9573 12.2222C51.2948 12.5878 51.4776 13.0238 51.5058 13.53V14.1206V18.6066C51.4495 19.1691 51.1401 19.4738 50.5776 19.5206C50.3151 19.5206 50.0855 19.4363 49.8886 19.2675C49.7011 19.0894 49.6073 18.8691 49.6073 18.6066V13.9659C49.5886 13.6753 49.4761 13.4363 49.2698 13.2488C49.073 13.0519 48.848 12.8972 48.5948 12.7847C48.3511 12.6722 48.0933 12.5878 47.8214 12.5316C47.5589 12.4753 47.2917 12.4472 47.0198 12.4472C46.748 12.4472 46.4761 12.4753 46.2042 12.5316C45.9417 12.5878 45.6839 12.6722 45.4308 12.7847C45.187 12.8972 44.962 13.0519 44.7558 13.2488C44.5589 13.4363 44.4511 13.6753 44.4323 13.9659V18.6066C44.3855 19.1691 44.0808 19.4738 43.5183 19.5206C43.2558 19.5206 43.0261 19.4363 42.8292 19.2675C42.6417 19.0894 42.548 18.8691 42.548 18.6066V14.1206V13.53C42.5761 13.0238 42.7542 12.5878 43.0823 12.2222C43.4105 11.8566 43.7901 11.5659 44.2214 11.3503C44.6526 11.1253 45.1026 10.9566 45.5714 10.8441C46.0495 10.7316 46.5323 10.6753 47.0198 10.6753ZM63.8116 19.6753C63.3241 19.6753 62.8413 19.6191 62.3631 19.5066C61.8944 19.3941 61.4444 19.23 61.0131 19.0144C60.5819 18.7894 60.2022 18.4941 59.8741 18.1284C59.546 17.7628 59.3678 17.3269 59.3397 16.8206V16.23V11.7441C59.3397 11.4816 59.4335 11.2659 59.621 11.0972C59.8178 10.9191 60.0475 10.83 60.31 10.83C60.8725 10.8769 61.1772 11.1816 61.2241 11.7441V16.3847C61.2428 16.6753 61.3506 16.9191 61.5475 17.1159C61.7538 17.3034 61.9788 17.4534 62.2225 17.5659C62.4756 17.6784 62.7335 17.7628 62.996 17.8191C63.2678 17.8753 63.5397 17.9034 63.8116 17.9034C64.0835 17.9034 64.3506 17.8753 64.6131 17.8191C64.885 17.7628 65.1428 17.6784 65.3866 17.5659C65.6397 17.4534 65.8647 17.3034 66.0616 17.1159C66.2678 16.9191 66.3803 16.6753 66.3991 16.3847V11.7441C66.3991 11.4816 66.4928 11.2659 66.6803 11.0972C66.8772 10.9191 67.1069 10.83 67.3694 10.83C67.9319 10.8769 68.2413 11.1816 68.2975 11.7441V16.23V16.8206C68.2694 17.3269 68.0866 17.7628 67.7491 18.1284C67.421 18.4941 67.0413 18.7894 66.61 19.0144C66.1788 19.23 65.7241 19.3941 65.246 19.5066C64.7772 19.6191 64.2991 19.6753 63.8116 19.6753ZM71.4903 18.6066C71.434 19.1691 71.1246 19.4738 70.5621 19.5206C70.2996 19.5206 70.07 19.4363 69.8731 19.2675C69.6856 19.0894 69.5918 18.8691 69.5918 18.6066V11.9691C69.6012 11.7066 69.6996 11.4909 69.8871 11.3222C70.0746 11.1441 70.2996 11.055 70.5621 11.055H76.4684C77.2934 11.0831 77.9168 11.2659 78.3387 11.6034C78.7606 11.9316 79.0653 12.3066 79.2528 12.7284C79.4403 13.1503 79.534 13.5769 79.534 14.0081C79.534 14.4581 79.4403 14.8941 79.2528 15.3159C79.0746 15.7378 78.77 16.1175 78.3387 16.455C77.9168 16.7831 77.3778 16.9425 76.7215 16.9331H73.1778C72.9153 16.9331 72.695 16.8394 72.5168 16.6519C72.3293 16.4738 72.2356 16.2534 72.2356 15.9909C72.2356 15.7284 72.3246 15.5081 72.5028 15.33C72.6903 15.1425 72.9153 15.0488 73.1778 15.0488H76.8059C76.984 15.0488 77.1293 14.9925 77.2418 14.88C77.3637 14.7581 77.4528 14.6222 77.509 14.4722C77.5653 14.3128 77.5934 14.1534 77.5934 13.9941C77.5934 13.8441 77.5653 13.6941 77.509 13.5441C77.4528 13.3847 77.3637 13.2488 77.2418 13.1363C77.1293 13.0144 76.984 12.9488 76.8059 12.9394H71.8559C71.6121 12.9488 71.4903 13.0706 71.4903 13.305V18.6066Z" fill="#FBC706"/>
</svg>
