<svg width="116" height="31" viewBox="0 0 116 31" fill="none" xmlns="http://www.w3.org/2000/svg">
<path d="M114.518 0.639648L114.451 25.0234L112.625 28.0713L111.453 29.9199H0.639648V0.639648H114.518Z" stroke="#FBC706" stroke-opacity="0.3" stroke-width="1.28"/>
<path d="M8.04782 10.45C8.31032 10.45 8.53532 10.5391 8.72282 10.7172C8.91032 10.8859 9.00875 11.1016 9.01813 11.3641V11.6312C9.00875 12.0156 9.03219 12.3719 9.08844 12.7C9.15407 13.0187 9.30407 13.3047 9.53844 13.5578C9.77282 13.8109 10.0681 13.9469 10.4244 13.9656H14.3759V11.3922C14.3759 11.1297 14.4697 10.9141 14.6572 10.7453C14.8541 10.5672 15.0838 10.4781 15.3463 10.4781C15.9088 10.525 16.2181 10.8297 16.2744 11.3922V14.6547C16.2744 15.4047 16.1713 16.1125 15.965 16.7781C15.7775 17.3687 15.4681 17.8703 15.0369 18.2828C14.615 18.6859 14.0759 18.9062 13.4197 18.9437H8.35719C8.10407 18.9344 7.88844 18.8453 7.71032 18.6766C7.54157 18.4984 7.4525 18.2828 7.44313 18.0297C7.44313 17.7672 7.5275 17.5422 7.69625 17.3547C7.87438 17.1672 8.09469 17.0687 8.35719 17.0594H12.9416C13.2978 17.0406 13.5931 16.9047 13.8275 16.6516C14.0431 16.4172 14.1884 16.15 14.2634 15.85H9.94625C9.29 15.8125 8.74625 15.5922 8.315 15.1891C7.89313 14.7766 7.58844 14.275 7.40094 13.6844C7.22282 13.0937 7.12907 12.4656 7.11969 11.8V11.3641C7.12907 11.1109 7.22282 10.9 7.40094 10.7312C7.57907 10.5531 7.79469 10.4594 8.04782 10.45ZM25.0921 10.675C25.5703 10.6844 25.9968 10.8344 26.3718 11.125C26.7468 11.4156 27.0468 11.7625 27.2718 12.1656C27.5062 12.5687 27.6796 12.9953 27.7921 13.4453C27.9046 13.8953 27.9609 14.3547 27.9609 14.8234C27.9609 15.4422 27.8624 16.0516 27.6656 16.6516C27.4781 17.2422 27.164 17.7672 26.7234 18.2266C26.2921 18.6859 25.7484 18.9344 25.0921 18.9719H20.1843C19.5281 18.9437 18.9796 18.7 18.539 18.2406C18.0984 17.7812 17.7843 17.2516 17.5968 16.6516C17.4187 16.0516 17.3296 15.4422 17.3296 14.8234C17.3296 14.2047 17.4234 13.6 17.6109 13.0094C17.7984 12.4094 18.1078 11.8797 18.539 11.4203C18.9796 10.9516 19.5281 10.7031 20.1843 10.675H20.4515H24.8249H25.0921ZM24.614 17.0875C24.9703 17.0687 25.2656 16.9375 25.4999 16.6937C25.7437 16.4406 25.9171 16.15 26.0203 15.8219C26.1234 15.4937 26.1749 15.1609 26.1749 14.8234C26.1749 14.4859 26.1187 14.1578 26.0062 13.8391C25.9031 13.5109 25.7343 13.2203 25.4999 12.9672C25.2656 12.7141 24.9703 12.5781 24.614 12.5594H20.6203C20.264 12.5781 19.9687 12.7141 19.7343 12.9672C19.4999 13.2203 19.3265 13.5109 19.214 13.8391C19.1109 14.1578 19.0593 14.4859 19.0593 14.8234C19.0593 15.1609 19.1109 15.4937 19.214 15.8219C19.3171 16.15 19.4859 16.4406 19.7203 16.6937C19.964 16.9375 20.264 17.0687 20.6203 17.0875H24.614ZM33.4036 19.2953C32.9161 19.2953 32.4333 19.2391 31.9552 19.1266C31.4864 19.0141 31.0364 18.85 30.6052 18.6344C30.1739 18.4094 29.7943 18.1141 29.4661 17.7484C29.138 17.3828 28.9599 16.9469 28.9318 16.4406V15.85V11.3641C28.9318 11.1016 29.0255 10.8859 29.213 10.7172C29.4099 10.5391 29.6396 10.45 29.9021 10.45C30.4646 10.4969 30.7693 10.8016 30.8161 11.3641V16.0047C30.8349 16.2953 30.9427 16.5391 31.1396 16.7359C31.3458 16.9234 31.5708 17.0734 31.8146 17.1859C32.0677 17.2984 32.3255 17.3828 32.588 17.4391C32.8599 17.4953 33.1318 17.5234 33.4036 17.5234C33.6755 17.5234 33.9427 17.4953 34.2052 17.4391C34.4771 17.3828 34.7349 17.2984 34.9786 17.1859C35.2318 17.0734 35.4568 16.9234 35.6536 16.7359C35.8599 16.5391 35.9724 16.2953 35.9911 16.0047V11.3641C35.9911 11.1016 36.0849 10.8859 36.2724 10.7172C36.4693 10.5391 36.6989 10.45 36.9614 10.45C37.5239 10.4969 37.8333 10.8016 37.8896 11.3641V15.85V16.4406C37.8614 16.9469 37.6786 17.3828 37.3411 17.7484C37.013 18.1141 36.6333 18.4094 36.2021 18.6344C35.7708 18.85 35.3161 19.0141 34.838 19.1266C34.3693 19.2391 33.8911 19.2953 33.4036 19.2953ZM41.0823 18.2547C41.0261 18.8172 40.7167 19.1219 40.1542 19.1688C39.8917 19.1688 39.662 19.0844 39.4651 18.9156C39.2776 18.7375 39.1839 18.5172 39.1839 18.2547V11.5891C39.1933 11.3266 39.2917 11.1109 39.4792 10.9422C39.6667 10.7641 39.8917 10.675 40.1542 10.675H40.8433H42.5729H46.0464C46.1026 10.675 46.1589 10.6797 46.2151 10.6891H46.2995C46.9558 10.7078 47.4948 10.8578 47.9167 11.1391C48.3386 11.4203 48.6433 11.7437 48.8308 12.1094C49.0183 12.4656 49.112 12.8266 49.112 13.1922C49.112 13.5672 49.0183 13.9375 48.8308 14.3031C48.6526 14.6594 48.3479 14.9781 47.9167 15.2594C47.4948 15.5406 46.9558 15.6906 46.2995 15.7094H43.8245C43.8995 16.1781 44.0542 16.525 44.2886 16.75C44.5136 16.975 44.7995 17.0875 45.1464 17.0875H48.1839C48.4464 17.0969 48.662 17.1953 48.8308 17.3828C49.0089 17.5703 49.0979 17.7953 49.0979 18.0578C49.0886 18.3109 48.9948 18.5266 48.8167 18.7047C48.6479 18.8734 48.437 18.9625 48.1839 18.9719H44.8933C44.1995 18.9812 43.5714 18.7094 43.0089 18.1562C42.4464 17.6031 42.1042 16.9469 41.9823 16.1875C41.8136 15.3437 41.7292 14.8703 41.7292 14.7672C41.7292 14.5047 41.8183 14.2844 41.9964 14.1062C42.1839 13.9187 42.4089 13.825 42.6714 13.825H46.3839C46.562 13.8156 46.7073 13.7781 46.8198 13.7125C46.9417 13.6375 47.0308 13.5578 47.087 13.4734C47.1433 13.3797 47.1714 13.2859 47.1714 13.1922C47.1714 13.0984 47.1433 13.0094 47.087 12.925C47.0308 12.8312 46.9417 12.7516 46.8198 12.6859C46.7073 12.6109 46.562 12.5687 46.3839 12.5594H42.5729H41.4479C41.2042 12.5687 41.0823 12.6906 41.0823 12.925V18.2547ZM61.1647 10.2953C61.6522 10.2953 62.1303 10.3516 62.5991 10.4641C63.0772 10.5766 63.5319 10.7453 63.9631 10.9703C64.3944 11.1859 64.7741 11.4766 65.1022 11.8422C65.4397 12.2078 65.6225 12.6437 65.6506 13.15V13.7406V18.2266C65.5944 18.7891 65.285 19.0938 64.7225 19.1406C64.46 19.1406 64.2303 19.0563 64.0334 18.8875C63.8459 18.7094 63.7522 18.4891 63.7522 18.2266V13.5859C63.7334 13.2953 63.6209 13.0562 63.4147 12.8687C63.2178 12.6719 62.9928 12.5172 62.7397 12.4047C62.4959 12.2922 62.2381 12.2078 61.9663 12.1516C61.7038 12.0953 61.4366 12.0672 61.1647 12.0672C60.8928 12.0672 60.6209 12.0953 60.3491 12.1516C60.0866 12.2078 59.8288 12.2922 59.5756 12.4047C59.3319 12.5172 59.1069 12.6719 58.9006 12.8687C58.7038 13.0562 58.5959 13.2953 58.5772 13.5859V18.2266C58.5303 18.7891 58.2256 19.0938 57.6631 19.1406C57.4006 19.1406 57.1709 19.0563 56.9741 18.8875C56.7866 18.7094 56.6928 18.4891 56.6928 18.2266V13.7406V13.15C56.7209 12.6437 56.8991 12.2078 57.2272 11.8422C57.5553 11.4766 57.935 11.1859 58.3663 10.9703C58.7975 10.7453 59.2475 10.5766 59.7163 10.4641C60.1944 10.3516 60.6772 10.2953 61.1647 10.2953ZM74.3981 10.675C74.8762 10.6844 75.3028 10.8344 75.6778 11.125C76.0528 11.4156 76.3528 11.7625 76.5778 12.1656C76.8121 12.5687 76.9856 12.9953 77.0981 13.4453C77.2106 13.8953 77.2668 14.3547 77.2668 14.8234C77.2668 15.4422 77.1684 16.0516 76.9715 16.6516C76.784 17.2422 76.4699 17.7672 76.0293 18.2266C75.5981 18.6859 75.0543 18.9344 74.3981 18.9719H69.4903C68.834 18.9437 68.2856 18.7 67.8449 18.2406C67.4043 17.7812 67.0903 17.2516 66.9028 16.6516C66.7246 16.0516 66.6356 15.4422 66.6356 14.8234C66.6356 14.2047 66.7293 13.6 66.9168 13.0094C67.1043 12.4094 67.4137 11.8797 67.8449 11.4203C68.2856 10.9516 68.834 10.7031 69.4903 10.675H69.7574H74.1309H74.3981ZM73.9199 17.0875C74.2762 17.0687 74.5715 16.9375 74.8059 16.6937C75.0496 16.4406 75.2231 16.15 75.3262 15.8219C75.4293 15.4937 75.4809 15.1609 75.4809 14.8234C75.4809 14.4859 75.4246 14.1578 75.3121 13.8391C75.209 13.5109 75.0403 13.2203 74.8059 12.9672C74.5715 12.7141 74.2762 12.5781 73.9199 12.5594H69.9262C69.5699 12.5781 69.2746 12.7141 69.0403 12.9672C68.8059 13.2203 68.6324 13.5109 68.5199 13.8391C68.4168 14.1578 68.3653 14.4859 68.3653 14.8234C68.3653 15.1609 68.4168 15.4937 68.5199 15.8219C68.6231 16.15 68.7918 16.4406 69.0262 16.6937C69.2699 16.9375 69.5699 17.0687 69.9262 17.0875H73.9199ZM77.9564 11.6172C77.9564 11.3547 78.0455 11.1344 78.2236 10.9562C78.4111 10.7687 78.6361 10.675 78.8986 10.675H87.083C87.3455 10.675 87.5705 10.7641 87.758 10.9422C87.9361 11.1297 88.0252 11.3547 88.0252 11.6172C88.0252 11.8797 87.9314 12.1047 87.7439 12.2922C87.5658 12.4703 87.3455 12.5594 87.083 12.5594H83.9471V18.2547C83.8908 18.8172 83.5814 19.1219 83.0189 19.1688C82.7564 19.1688 82.5268 19.0844 82.3299 18.9156C82.1424 18.7375 82.0486 18.5172 82.0486 18.2547V12.5594H78.8986C78.6361 12.5594 78.4158 12.4656 78.2377 12.2781C78.0502 12.1 77.9564 11.8797 77.9564 11.6172ZM91.5414 10.675H92.1883H96.9695C97.232 10.6844 97.4476 10.7828 97.6164 10.9703C97.7945 11.1578 97.8836 11.3828 97.8836 11.6453C97.8367 12.2078 97.532 12.5125 96.9695 12.5594H92.0195C91.6633 12.5781 91.368 12.7141 91.1336 12.9672C90.8992 13.2203 90.7258 13.5109 90.6133 13.8391C90.5101 14.1578 90.4586 14.4859 90.4586 14.8234C90.4586 15.1609 90.5101 15.4937 90.6133 15.8219C90.7258 16.1406 90.8992 16.4266 91.1336 16.6797C91.368 16.9328 91.6633 17.0687 92.0195 17.0875H96.9695C97.232 17.0969 97.4476 17.1953 97.6164 17.3828C97.7945 17.5703 97.8836 17.7953 97.8836 18.0578C97.8742 18.3109 97.7805 18.5266 97.6023 18.7047C97.4336 18.8734 97.2226 18.9625 96.9695 18.9719H91.8086H91.5414C90.8851 18.9344 90.3414 18.6859 89.9101 18.2266C89.4883 17.7578 89.1836 17.2281 88.9961 16.6375C88.818 16.0469 88.7289 15.4422 88.7289 14.8234C88.7289 14.2047 88.8226 13.6 89.0101 13.0094C89.1976 12.4187 89.5023 11.8937 89.9242 11.4344C90.3461 10.9656 90.8851 10.7125 91.5414 10.675ZM97.8555 14.7672C97.8555 15.0297 97.7617 15.25 97.5742 15.4281C97.3961 15.6156 97.1758 15.7094 96.9133 15.7094H92.6664C92.4039 15.7094 92.1789 15.6203 91.9914 15.4422C91.8133 15.2547 91.7242 15.0297 91.7242 14.7672C91.7242 14.5047 91.8133 14.2797 91.9914 14.0922C92.1789 13.9141 92.4039 13.825 92.6664 13.825H96.9133C97.1758 13.825 97.3961 13.9187 97.5742 14.1062C97.7617 14.2844 97.8555 14.5047 97.8555 14.7672ZM107.812 11.6172C107.812 11.8797 107.719 12.1 107.531 12.2781C107.353 12.4656 107.133 12.5594 106.87 12.5594H101.245C101.067 12.5687 100.917 12.6109 100.795 12.6859C100.683 12.7516 100.598 12.8312 100.542 12.925C100.486 13.0094 100.458 13.0984 100.458 13.1922C100.458 13.2859 100.486 13.3797 100.542 13.4734C100.598 13.5578 100.683 13.6375 100.795 13.7125C100.917 13.7781 101.067 13.8156 101.245 13.825H105.239C105.895 13.8437 106.434 13.9984 106.856 14.2891C107.287 14.5703 107.592 14.8984 107.77 15.2734C107.958 15.6391 108.051 16.0141 108.051 16.3984C108.051 16.7734 107.958 17.1484 107.77 17.5234C107.583 17.8891 107.278 18.2172 106.856 18.5078C106.434 18.7891 105.895 18.9297 105.239 18.9297H105.154C105.098 18.9391 105.042 18.9437 104.986 18.9437H99.6701C99.4076 18.9437 99.1826 18.8547 98.9951 18.6766C98.8169 18.4891 98.7279 18.2641 98.7279 18.0016C98.7279 17.7391 98.8216 17.5187 99.0091 17.3406C99.1873 17.1531 99.4076 17.0594 99.6701 17.0594H105.323C105.501 17.0687 105.647 17.0359 105.759 16.9609C105.881 16.8859 105.97 16.8016 106.026 16.7078C106.083 16.6047 106.111 16.5016 106.111 16.3984C106.111 16.3328 106.083 16.2437 106.026 16.1312C105.97 16.0094 105.881 15.9109 105.759 15.8359C105.647 15.7609 105.501 15.7187 105.323 15.7094H101.329C100.673 15.6906 100.129 15.5406 99.6982 15.2594C99.2763 14.9781 98.9716 14.6594 98.7841 14.3031C98.606 13.9375 98.5169 13.5672 98.5169 13.1922C98.5169 12.8266 98.6107 12.4656 98.7982 12.1094C98.9857 11.7437 99.2904 11.4203 99.7123 11.1391C100.134 10.8578 100.673 10.7078 101.329 10.6891H101.414C101.47 10.6797 101.526 10.675 101.583 10.675H106.87C107.133 10.675 107.353 10.7687 107.531 10.9562C107.719 11.1344 107.812 11.3547 107.812 11.6172Z" fill="#FBC706"/>
</svg>
