<svg width="180" height="65" viewBox="0 0 180 65" fill="none" xmlns="http://www.w3.org/2000/svg">
<path opacity="0.7" d="M4.72759 0.0140233C7.38555 -0.0217211 10.8697 0.0164983 13.5176 0.0689567C14.3475 0.0852267 13.9273 0.157954 14.5001 0.172459C15.6205 0.200737 16.6643 0.165068 17.7715 0.198754C18.1384 0.210273 17.6817 0.325473 18.0664 0.334915C20.1748 0.385826 22.1694 0.356484 24.3052 0.380972C34.8256 0.50179 45.1668 0.545035 55.8158 0.597523C59.3271 0.614732 63.5955 0.71928 67.2223 0.673559C67.6456 0.668119 67.3932 0.567002 67.4738 0.558668C68.7372 0.431084 68.3171 0.635217 69.142 0.662338C72.4161 0.769424 76.0568 0.778738 79.2077 0.739714C80.5482 0.722816 79.2042 0.521972 80.5539 0.634704C80.6476 0.642321 80.3075 0.749699 80.6751 0.761151C81.5088 0.78691 83.0905 0.767717 83.7366 0.776224C84.9818 0.793164 85.1878 0.792084 86.3656 0.793307C87.9757 0.795915 89.8908 0.849292 91.6183 0.824961C91.9871 0.819449 91.4989 0.709374 92.087 0.690642C92.6756 0.671941 94.2327 0.681275 94.7576 0.707223C95.2827 0.733184 95.0591 0.819701 95.1521 0.839532C95.9165 1.00691 97.7177 0.775091 97.9494 0.769358C102.175 0.671673 105.798 0.803733 109.765 0.803356C112.776 0.80279 115.995 0.759193 118.861 0.765171C122.274 0.77272 125.167 0.832368 128.483 0.822114C128.833 0.821159 128.423 0.691736 128.85 0.690307C133.391 0.675247 137.901 0.689355 142.422 0.776727C142.876 0.785603 142.292 0.899236 142.745 0.914898C145.518 1.00828 149.907 1.23262 151.555 0.737872C153.433 0.757191 155.714 0.777151 157.395 0.87688C158.479 0.941067 157.426 1.06486 158.758 1.01204C159.058 1.00027 158.668 0.891857 159.118 0.882407C161.014 0.842719 163.085 0.877959 164.96 0.821947C165.342 0.810299 165.238 0.713159 165.346 0.695667C166.254 0.554003 167.766 0.788182 168.096 0.805199C170.606 0.932091 172.44 0.882156 174.778 0.885254C175.321 0.886027 174.679 0.755547 175.201 0.751605C176.172 0.7449 177.156 0.742041 178.141 0.7438C179.01 0.724239 179.787 1.50932 179.762 2.37207C179.753 3.6066 179.737 4.83288 179.711 6.02796C179.697 6.61786 179.586 6.07539 179.574 6.35727C179.523 7.60019 179.733 7.87572 179.687 9.06775C179.678 9.31907 179.583 9.17747 179.572 9.22336C179.408 9.94076 179.641 10.5641 179.646 10.7487C179.716 13.0829 179.473 14.575 179.508 16.83C179.512 17.0998 179.633 16.4915 179.637 17.2498C179.671 22.302 179.638 27.6452 179.541 32.646C179.526 33.4235 179.436 32.8685 179.425 32.9174C179.251 33.7148 179.484 34.2308 179.493 34.4843C179.556 36.4844 179.36 38.3527 179.638 39.7116C179.59 43.9442 179.605 48.1671 179.601 52.3812C179.602 52.7948 179.417 53.2041 179.106 53.4757C176.15 56.0739 173.185 58.651 170.167 61.1575C170.085 61.2259 170.153 61.0131 169.989 61.1501C168.022 62.7988 168.51 62.6069 167.381 63.8937C167.231 64.0644 166.841 64.3291 166.491 64.5504C166.087 64.8361 165.657 64.7954 165.551 64.7772C165.543 64.7757 165.536 64.7745 165.532 64.7738C165.112 64.7025 165.547 64.5315 165.407 64.5177C164.245 64.4093 164.434 64.9749 162.866 64.9751C162.817 64.9741 163.023 64.87 162.892 64.8597C162.483 64.8272 162.078 64.8686 161.678 64.8327C160.762 64.7498 160.436 64.475 159.038 64.6349C158.861 64.6557 159.131 64.9765 157.731 64.9613C157.173 64.955 154.703 64.9605 154.011 64.9397C153.32 64.919 153.795 64.8156 153.745 64.8111C151.882 64.6744 152.589 64.6177 151.655 64.4154C150.722 64.2137 150.981 64.6946 150.601 64.7483C150.219 64.8018 148.854 64.689 148.518 64.6498C148.182 64.6106 148.601 64.5449 148.303 64.5227C146.325 64.3777 147.434 64.7614 146.783 64.8377C145.246 65.0185 144.049 64.6618 142.643 64.6269C142.262 64.6174 142.573 64.6987 142.234 64.7063C140.892 64.7353 140.084 64.624 138.557 64.726C138.307 64.7427 137.073 64.9571 136.274 64.7997C136.161 64.777 136.482 64.6882 135.91 64.6683C135.055 64.6384 133.516 64.6189 132.597 64.6487C131.919 64.6706 132.696 64.8171 131.843 64.7716C131.463 64.7513 132.166 64.6656 131.454 64.6346C130.745 64.6036 128.932 64.6073 128.242 64.6103C127.553 64.6133 127.93 64.7244 127.875 64.7319C127.538 64.7748 126.216 64.8283 126.1 64.8282C120.209 64.8418 114.777 64.6545 109.042 64.7165C108.592 64.7212 108.892 64.8383 108.823 64.8403C107.283 64.8893 108.497 64.5779 107.421 64.4736C107.577 64.7113 106.941 64.6683 105.856 64.6944C105.333 64.7071 105.618 64.7992 105.57 64.8086C104.795 64.9484 104.254 64.7678 104.115 64.7309C103.602 64.595 103.043 64.7556 102.693 64.6647C102.344 64.5746 103.148 64.4409 102.107 64.4427C101.815 64.5277 102.588 64.7501 101.798 64.7862C98.8158 64.9225 93.25 64.748 90.8525 64.7299C88.4599 64.7118 87.6871 64.7275 86.2928 64.6967C83.7744 64.6411 84.6974 64.8061 83.1336 64.8816C81.5653 64.9571 82.3277 64.5512 82.1023 64.4639C81.881 64.3767 81.6393 64.4665 81.3641 64.4185C81.0897 64.3706 81.6837 64.3113 81.0384 64.2933C80.3926 64.2753 78.6273 64.4305 78.3985 64.5217C77.9146 64.715 78.7101 64.9179 77.0016 64.8466C76.9034 64.8424 77.2222 64.7356 76.846 64.7249C73.8576 64.6427 70.753 64.6376 67.7683 64.5649C67.3579 64.5548 67.7248 64.436 67.486 64.4288C64.9982 64.3528 65.8875 64.553 64.524 64.7754C64.8302 64.4795 64.0762 64.2984 62.1881 64.2966C61.0531 64.2955 61.2485 64.4247 60.5144 64.5158C60.2942 64.5433 59.491 64.4545 59.3455 64.5153C58.8656 64.7141 59.6221 64.9365 57.6755 64.848C57.5901 64.8438 57.862 64.735 57.5669 64.7284C55.6593 64.6853 55.4311 64.8931 53.3691 64.9183C51.7529 64.9381 48.8783 64.8113 47.038 64.7907C47.0767 64.4579 45.3385 64.5341 44.6333 64.7635C43.439 64.7542 42.149 64.7671 40.9946 64.7354C40.5974 64.7246 40.8584 64.6283 40.8083 64.6178C40.0401 64.4545 39.5209 64.6778 39.2631 64.6865C36.469 64.7716 34.1926 64.6024 31.5261 64.7677C31.4315 64.7737 31.2781 65.0048 30.5653 64.8361C30.5192 64.8244 31.3999 64.7193 30.1455 64.7111C28.891 64.703 26.526 64.5791 24.7843 64.6862C24.3628 64.712 23.2967 64.8996 22.4411 64.753C22.3271 64.7331 22.4519 64.6668 22.2873 64.6299C21.7554 64.5123 21.465 64.746 20.8398 64.5475C20.2146 64.349 18.9142 64.2004 17.1577 64.3373C17.1018 64.3413 16.686 64.5265 16.1336 64.5236C15.2518 64.5187 14 64.4801 13.0793 64.4813C12.6385 64.482 12.9206 64.597 12.8441 64.5991C9.88002 64.6635 7.77042 64.561 4.59508 64.5165C4.10477 64.5095 2.84047 64.6196 1.78052 64.5804C1.56278 64.5739 1.35961 64.4936 1.21259 64.3756C0.896811 64.0989 0.954176 63.8918 1.00133 63.7908C1.06022 63.6818 1.13895 63.613 1.20737 63.4841C1.29272 63.2241 1.33939 62.7356 1.28937 61.6777C1.23557 60.5306 0.519361 59.0783 0.890432 57.0167C0.798483 53.0186 0.988396 49.3211 0.857104 45.3118C0.851287 45.1315 0.651397 44.5613 0.654118 44.1375C0.658544 43.5082 0.751969 43.1628 0.758123 42.7135C0.786264 40.8307 0.706333 39.1078 0.718765 37.2925C0.723283 36.6034 0.819883 36.8443 0.825283 36.0223C0.830592 35.2008 0.703387 34.6531 0.764822 33.5398C0.811651 32.6991 1.07165 31.8585 1.10196 30.7425C0.845495 30.7 0.850778 29.9335 0.783078 28.5713C0.769942 28.3094 0.680679 28.5902 0.669861 28.4663C0.623855 27.9622 0.697834 27.4956 0.647754 27.017C0.635726 26.9005 0.548142 26.895 0.533365 26.7999C0.404381 25.9904 0.601393 24.6568 0.635695 24.4277C0.765969 23.5499 0.652056 23.1397 0.703357 22.4664C0.754652 21.7941 0.818775 22.7993 0.849902 22.014C0.914286 20.3863 0.900141 18.295 0.904166 16.6419C0.905231 15.9823 0.78832 16.4323 0.785757 16.3379C0.756105 14.974 0.880465 13.5948 0.647586 12.8386C1.24972 11.8929 0.589182 12.0161 0.709721 10.0666C0.719471 9.913 1.00422 9.71764 1.04602 10.3072C1.08779 10.8968 0.998778 11.7908 1.06394 12.6088C1.07923 12.8025 1.34606 13.9121 1.36222 14.0635C1.48854 15.2495 1.06303 15.4175 1.03966 15.4803C0.787441 16.1918 1.07489 17.5478 1.09476 17.9049C1.18577 19.5384 1.12593 20.9263 1.19089 22.2927C1.23288 23.1863 1.51161 23.2737 1.50307 23.9754C1.47487 26.308 1.08605 27.1222 1.42319 29.3203C1.49509 29.7917 1.79973 29.3233 1.56018 31.0121C1.54508 31.1182 1.32594 32.3721 1.46455 33.0965C1.48203 33.1875 1.57081 33.1846 1.57827 33.3046C1.62652 34.1088 1.55579 34.6451 1.58966 35.5211C1.62354 36.3971 1.67404 37.4504 1.64392 38.4505C1.62592 39.0533 1.4605 39.8266 1.42 40.1152C1.30334 40.9299 1.49462 41.8034 1.35335 42.3082C1.21136 42.8172 0.995737 41.8221 0.903998 43.1568C1.13466 43.2062 1.37142 43.3198 1.60339 43.3992C1.59527 46.3242 1.52069 49.2021 1.53088 52.1368C1.53237 52.5006 1.65638 52.1285 1.66117 52.5186C1.68088 54.1642 1.59247 55.6015 1.62768 57.3081C1.6554 58.629 1.7867 60.0775 1.81978 61.4588C1.68366 61.8939 1.64157 62.6498 1.62942 63.4841C1.61783 63.5639 1.70073 63.6438 1.78052 63.6385C2.05276 63.6384 2.31762 63.6392 2.56674 63.6433C3.08834 63.6516 3.05344 63.7221 3.4244 63.7451C4.82375 63.8302 4.16803 63.5969 4.55165 63.5602C6.19754 63.4035 6.33851 63.9315 8.27899 63.9184C8.38181 63.9179 9.63846 63.6365 9.81156 63.619C10.9113 63.5047 9.99359 63.7169 10.6819 63.7377C11.9385 63.7757 12.8118 63.8429 14.2862 63.7605C14.7161 63.7361 15.7474 63.5607 16.5823 63.6964C16.6922 63.7141 16.6315 63.8072 16.7198 63.8126C18.32 63.9034 18.3621 63.6111 19.2765 63.5121C20.1911 63.4132 21.6036 63.6149 21.8911 63.6731C22.6431 63.8235 21.3148 63.7374 21.2741 63.7521C20.7957 63.9278 21.8258 63.8976 22.613 63.9124C22.727 64.199 23.8278 64.1818 23.4291 63.9267C23.3837 63.8988 22.7711 63.9255 22.613 63.9124C23.304 63.6312 24.5138 63.5952 25.85 63.858C26.4755 63.9811 25.8842 64.1247 27.7843 64.0722C28.6466 64.0485 28.3134 63.8512 29.0744 63.7974C30.8129 63.6746 33.0721 63.8587 34.8644 63.8297C35.515 63.8192 34.8813 63.7111 35.3258 63.7002C36.5057 63.6709 37.5462 63.752 38.7311 63.7104C38.8385 63.7065 38.5762 63.5935 38.9446 63.592C41.738 63.5789 44.1703 63.6513 47.0869 63.6533C48.4961 63.6542 51.0155 63.5919 52.4753 63.6044C55.0053 63.6255 58.1178 63.7899 60.2792 63.75C61.6889 63.7244 61.3796 63.6113 61.9836 63.5342C63.1492 63.3849 65.2124 63.6524 65.4902 63.6939C65.4987 63.6952 64.2857 63.7219 64.9329 63.7799C65.3093 63.9009 65.4765 63.6944 65.4902 63.6939C65.6727 63.7206 68.0959 63.7463 68.577 63.7247C68.8385 63.7129 68.6923 63.6057 68.8286 63.6016C72.0688 63.5057 75.3147 63.4785 78.6011 63.5286C78.6589 63.5307 78.5718 63.6506 78.7078 63.6542C80.6104 63.7075 81.8287 63.5608 83.3978 63.4738C84.9667 63.3868 86.2109 63.4159 87.1396 63.6217C88.3234 63.5958 90.0217 63.6867 90.9991 63.7419C91.9763 63.7971 92.1127 63.5638 92.1987 63.5592C94.8807 63.4116 96.4312 63.5451 99.2137 63.5659C100.537 63.5762 103.161 63.5423 104.593 63.5168C105.725 63.4963 106.407 63.5509 107.45 63.516C107.591 63.5113 107.449 63.4074 107.492 63.4034C108.656 63.2792 108.096 63.5331 108.337 63.5785C109.208 63.7434 109.746 63.8312 111.237 63.7536C111.581 63.7359 112.583 63.3702 113.209 63.3488C114.024 63.3217 113.717 63.4528 114.57 63.421C114.643 63.4184 114.628 63.3376 115.154 63.3411C117.599 63.3566 120.264 63.4037 122.805 63.3956C123.152 63.3948 122.707 63.2665 123.208 63.2633C125.561 63.2481 128.139 63.2528 130.431 63.3128C130.995 63.328 130.642 63.4178 130.764 63.4445C131.516 63.6058 132.582 63.3714 132.758 63.3669C136.954 63.2543 140.166 63.4664 144.443 63.3654C144.676 63.3595 146.468 63.1082 147.268 63.3237C147.322 63.3381 148.113 63.5586 148.813 63.4078C148.856 63.3984 148.363 63.2849 149.224 63.2964C150.084 63.308 151.468 63.2322 152.651 63.3569C153.025 63.3962 153.91 63.6161 155.026 63.4408C155.099 63.4286 156.823 63.0321 157.438 63.3056C157.538 63.3507 157.434 63.6401 158.766 63.4917C159.021 63.4629 158.559 63.3984 159.23 63.3581C160.257 63.2959 161.619 63.3734 162.883 63.2445C163.103 63.2217 164.041 63.0252 164.793 63.1743C164.911 63.1977 164.687 63.2943 165.085 63.3051C165.239 63.3094 165.395 63.3129 165.551 63.3157C165.51 63.32 165.473 63.3375 165.445 63.3645C166.593 62.3669 167.742 61.3148 168.916 60.3494C169.442 59.9175 169.284 60.2645 169.843 59.8274C170.402 59.3902 171.499 58.4764 172.008 57.9325C172.517 57.3886 171.745 57.7376 172.565 56.988C174.349 55.3565 176.164 53.7762 177.987 52.2066C177.939 52.2526 177.914 52.3183 177.918 52.3812C177.946 50.265 177.979 48.1485 177.989 46.0246C177.992 45.3095 177.903 45.9024 177.901 44.8485C177.894 40.9631 177.811 34.2551 178 30.8836C178.152 28.1823 178.267 31.5817 178.329 29.5175C178.358 28.5214 178.069 27.4438 178.06 27.2033C177.967 24.8543 178.095 23.2217 178.056 21.1075C178.048 20.6709 177.931 21.0991 177.925 20.7275C177.905 19.4583 177.957 18.1243 177.947 16.9115C177.943 16.3674 177.853 16.4676 177.86 15.967C177.876 14.769 177.913 13.7096 177.997 12.5418C178.005 12.4353 178.116 13.1531 178.121 12.2668C178.127 10.8323 178.21 9.05169 178.124 7.4013C178.098 6.9116 177.894 6.8924 178.035 5.83979C178.065 5.61899 178.311 5.9007 178.098 4.67454C178.072 4.52316 177.911 3.37296 177.9 2.37207C177.893 2.45926 177.972 2.53891 178.039 2.51998C178.069 2.51515 178.133 2.47482 178.141 2.42227C177.852 2.36549 177.513 2.31667 177.201 2.33345C177.121 2.3385 177.441 2.4485 176.953 2.45923C175.233 2.49513 173.431 2.48339 171.664 2.51785C171.192 2.52727 171.895 2.6411 171.192 2.6515C169.258 2.68027 166.844 2.65129 164.953 2.61566C164.256 2.6023 164.738 2.50801 164.687 2.49775C163.871 2.33085 163.389 2.55613 163.118 2.56926C161.434 2.64792 160.152 2.5421 158.6 2.5701C158.172 2.57754 158.476 2.68496 158.39 2.69454C157.506 2.78812 158.165 2.59522 157.605 2.57395C156.037 2.51374 154.289 2.52238 152.703 2.5361C152.121 2.5413 152.776 2.66586 152.253 2.66908C149.159 2.69055 145.943 2.67863 142.924 2.60996C142.355 2.59681 142.713 2.5009 142.594 2.47899C141.778 2.32573 140.581 2.53478 140.305 2.55469C139.053 2.64562 138.567 2.5608 137.461 2.57663C132.059 2.65545 125.389 2.59928 120.29 2.56458C113.645 2.51991 108.489 2.42867 102.153 2.45236C101.75 2.45375 102.156 2.58134 101.809 2.58417C97.3267 2.61493 92.914 2.56507 88.4229 2.60192C88.0544 2.60472 88.5856 2.72568 87.9941 2.73423C86.7808 2.75263 85.2438 2.74606 84.0171 2.70744C83.4187 2.68883 84.2213 2.58504 83.619 2.56843C82.2166 2.52951 80.7133 2.5209 79.2728 2.54029C78.6598 2.54881 79.5847 2.67251 78.7879 2.67394C73.3603 2.68621 68.0298 2.70752 62.545 2.54732C62.169 2.53632 61.839 2.2849 61.0396 2.33312C60.9793 2.40289 60.9826 2.48497 60.9563 2.55955C53.0551 2.59973 45.2346 2.51257 37.3112 2.49909C36.9771 2.49855 37.5544 2.63177 36.9077 2.6314C33.1643 2.62943 29.5293 2.66633 25.7003 2.53393C25.3204 2.52098 25.5153 2.28662 24.3957 2.32206C24.1982 2.32853 22.512 2.35979 22.0761 2.41066C22.0168 2.41833 22.3245 2.52772 21.7811 2.53091C18.6235 2.54752 15.3145 2.52255 12.1624 2.45571C11.6537 2.44472 12.1954 2.32823 11.8331 2.31938C9.26281 2.25755 6.46709 2.3461 4.01107 2.24033C2.3671 2.16912 2.97575 1.96776 2.10216 1.76955C2.06351 1.7608 1.93731 1.75435 1.78052 1.7461C1.55368 1.70661 1.27672 1.90742 1.20576 1.88983C1.06066 1.84003 0.97892 1.69124 0.944583 1.50921C0.903522 1.33381 0.913036 1.12838 0.685071 1.1157C0.630134 1.09952 0.202406 1.54738 0.118077 1.9733C0.0635175 2.17728 0.0582748 2.34273 0.0407562 2.36855C0.0305304 2.3942 -0.0282642 2.282 0.0164662 1.9128C0.0210879 1.86666 0.131879 1.37128 0.519904 0.996871C0.890232 0.603983 1.49693 0.450224 1.72734 0.431435C1.7487 0.428378 1.76625 0.425416 1.78052 0.42229C1.88513 0.377869 1.63972 0.272524 1.96284 0.227393C2.30864 0.179134 2.68864 0.277446 3.26198 0.220694C3.83507 0.163239 3.58308 0.0298171 4.72759 0.0140233ZM95.3995 63.9886C96.3045 64.1007 96.438 63.6903 95.4592 63.7885C95.4119 63.7937 95.3528 63.9831 95.3995 63.9886ZM1.21116 49.1857C1.03016 50.3687 1.2963 51.1783 1.43608 50.3437C1.57572 49.5092 1.26602 48.8252 1.21116 49.1857ZM1.07901 36.918C0.936307 38.3007 1.51821 38.5183 1.40058 37.0374C1.39393 36.9513 1.0873 36.8372 1.07901 36.918ZM6.15339 1.71311C6.1409 1.70766 5.40913 1.70235 5.39164 1.70775C5.00198 1.83808 6.46523 1.84861 6.15339 1.71311ZM0.935149 24.7444C0.856434 25.176 0.947301 26.4188 1.04518 25.8825C1.12393 25.4507 1.03307 24.2068 0.935149 24.7444ZM142.605 64.4266C142.619 64.4327 143.144 64.4382 143.133 64.4036C143.098 64.2923 142.367 64.3237 142.605 64.4266ZM0.92845 4.05396C0.906546 7.11087 0.425866 8.96432 0.480106 5.63537C0.48992 5.03253 0.633392 6.93463 0.676728 6.16733C0.755679 4.76336 0.453871 3.83109 0.615598 2.39837C0.645199 2.13899 0.930768 3.87958 0.92912 4.05939C0.928897 4.05758 0.928673 4.05577 0.92845 4.05396ZM95.9206 64.4815C95.9387 64.4869 96.665 64.4921 96.6824 64.4867C97.0757 64.3564 95.6126 64.346 95.9206 64.4815ZM171.55 59.788C171.588 59.7701 172.859 58.6635 172.893 58.6191C173.412 57.8778 170.842 60.1147 171.55 59.788ZM47.0091 64.7818C46.2166 64.9129 45.2687 64.9283 44.637 64.7637C45.4245 64.7725 46.2172 64.7737 47.0091 64.7818Z" fill="#07596E"/>
<path d="M33.5101 40.2429H30.7261C29.5421 40.2429 28.6221 39.9149 27.9661 39.2589C27.3261 38.6029 27.0061 37.6909 27.0061 36.5229V28.5309C27.0061 27.3469 27.3261 26.4349 27.9661 25.7949C28.6221 25.1389 29.5421 24.8109 30.7261 24.8109H33.5101C34.6781 24.8109 35.5901 25.1389 36.2461 25.7949C36.9021 26.4349 37.2301 27.3469 37.2301 28.5309V29.6829C37.2301 29.9709 37.0861 30.1149 36.7981 30.1149H35.2861C35.0141 30.1149 34.8781 29.9709 34.8781 29.6829V28.6269C34.8781 27.4429 34.3021 26.8509 33.1501 26.8509H31.0621C29.9101 26.8509 29.3341 27.4429 29.3341 28.6269V36.4269C29.3341 37.6109 29.9101 38.2029 31.0621 38.2029H33.1501C34.3021 38.2029 34.8781 37.6109 34.8781 36.4269V35.3709C34.8781 35.0829 35.0141 34.9389 35.2861 34.9389H36.7981C37.0861 34.9389 37.2301 35.0829 37.2301 35.3709V36.5229C37.2301 37.6909 36.9021 38.6029 36.2461 39.2589C35.5901 39.9149 34.6781 40.2429 33.5101 40.2429ZM42.367 40.2429H40.855C40.583 40.2429 40.447 40.1069 40.447 39.8349V25.2189C40.447 24.9469 40.583 24.8109 40.855 24.8109H46.471C47.639 24.8109 48.551 25.1469 49.207 25.8189C49.879 26.4749 50.215 27.3869 50.215 28.5549V30.5709C50.215 32.4109 49.455 33.5709 47.935 34.0509V34.1469L50.599 39.7629C50.775 40.0829 50.671 40.2429 50.287 40.2429H48.799C48.415 40.2429 48.167 40.1069 48.055 39.8349L45.487 34.3149H43.063C42.871 34.3149 42.775 34.3949 42.775 34.5549V39.8349C42.775 40.1069 42.639 40.2429 42.367 40.2429ZM43.039 32.3949H46.087C47.271 32.3949 47.863 31.8109 47.863 30.6429V28.6269C47.863 27.4429 47.271 26.8509 46.087 26.8509H43.039C42.863 26.8509 42.775 26.9309 42.775 27.0909V32.1549C42.775 32.3149 42.863 32.3949 43.039 32.3949ZM61.7829 40.2429H54.1029C53.8309 40.2429 53.6949 40.1069 53.6949 39.8349V25.2189C53.6949 24.9469 53.8309 24.8109 54.1029 24.8109H61.7829C62.0389 24.8109 62.1669 24.9469 62.1669 25.2189V26.4429C62.1669 26.7149 62.0389 26.8509 61.7829 26.8509H56.3109C56.1189 26.8509 56.0229 26.9309 56.0229 27.0909V31.1469C56.0229 31.3069 56.1189 31.3869 56.3109 31.3869H60.9429C61.2309 31.3869 61.3749 31.5229 61.3749 31.7949V33.0189C61.3749 33.2909 61.2309 33.4269 60.9429 33.4269H56.3109C56.1189 33.4269 56.0229 33.5069 56.0229 33.6669V37.9389C56.0229 38.1149 56.1189 38.2029 56.3109 38.2029H61.7829C62.0389 38.2029 62.1669 38.3389 62.1669 38.6109V39.8349C62.1669 40.1069 62.0389 40.2429 61.7829 40.2429ZM66.3061 40.2429H64.5781C64.3541 40.2429 64.2741 40.1069 64.3381 39.8349L68.5141 25.2189C68.5941 24.9469 68.7861 24.8109 69.0901 24.8109H71.4901C71.8101 24.8109 72.0021 24.9469 72.0661 25.2189L76.2421 39.8349C76.3061 40.1069 76.2181 40.2429 75.9781 40.2429H74.2741C74.1301 40.2429 74.0261 40.2189 73.9621 40.1709C73.9141 40.1069 73.8741 39.9949 73.8421 39.8349L72.9301 36.7149H67.6501L66.7381 39.8349C66.6741 40.1069 66.5301 40.2429 66.3061 40.2429ZM70.2421 27.1149L68.1301 34.7949H72.4741L70.3381 27.1149H70.2421ZM83.0785 40.2429H81.5665C81.2785 40.2429 81.1345 40.1069 81.1345 39.8349V27.0909C81.1345 26.9309 81.0545 26.8509 80.8945 26.8509H77.8705C77.5825 26.8509 77.4385 26.7149 77.4385 26.4429V25.2189C77.4385 24.9469 77.5825 24.8109 77.8705 24.8109H86.7745C87.0625 24.8109 87.2065 24.9469 87.2065 25.2189V26.4429C87.2065 26.7149 87.0625 26.8509 86.7745 26.8509H83.7505C83.5745 26.8509 83.4865 26.9309 83.4865 27.0909V39.8349C83.4865 40.1069 83.3505 40.2429 83.0785 40.2429ZM97.5888 40.2429H89.9088C89.6368 40.2429 89.5008 40.1069 89.5008 39.8349V25.2189C89.5008 24.9469 89.6368 24.8109 89.9088 24.8109H97.5888C97.8448 24.8109 97.9728 24.9469 97.9728 25.2189V26.4429C97.9728 26.7149 97.8448 26.8509 97.5888 26.8509H92.1168C91.9248 26.8509 91.8288 26.9309 91.8288 27.0909V31.1469C91.8288 31.3069 91.9248 31.3869 92.1168 31.3869H96.7488C97.0368 31.3869 97.1808 31.5229 97.1808 31.7949V33.0189C97.1808 33.2909 97.0368 33.4269 96.7488 33.4269H92.1168C91.9248 33.4269 91.8288 33.5069 91.8288 33.6669V37.9389C91.8288 38.1149 91.9248 38.2029 92.1168 38.2029H97.5888C97.8448 38.2029 97.9728 38.3389 97.9728 38.6109V39.8349C97.9728 40.1069 97.8448 40.2429 97.5888 40.2429ZM109.127 40.2429H107.639C107.367 40.2429 107.231 40.1069 107.231 39.8349V25.2189C107.231 24.9469 107.367 24.8109 107.639 24.8109H108.983C109.239 24.8109 109.415 24.8989 109.511 25.0749L115.319 35.5149H115.415V25.2189C115.415 24.9469 115.551 24.8109 115.823 24.8109H117.311C117.583 24.8109 117.719 24.9469 117.719 25.2189V39.8349C117.719 40.1069 117.583 40.2429 117.311 40.2429H116.015C115.759 40.2429 115.551 40.1149 115.391 39.8589L109.631 29.5389H109.535V39.8349C109.535 40.1069 109.399 40.2429 109.127 40.2429ZM125.279 38.2029H127.367C128.535 38.2029 129.119 37.6109 129.119 36.4269V28.6269C129.119 27.4429 128.535 26.8509 127.367 26.8509H125.279C124.127 26.8509 123.551 27.4429 123.551 28.6269V36.4269C123.551 37.6109 124.127 38.2029 125.279 38.2029ZM127.727 40.2429H124.943C123.759 40.2429 122.839 39.9149 122.183 39.2589C121.543 38.6029 121.223 37.6909 121.223 36.5229V28.5309C121.223 27.3469 121.543 26.4349 122.183 25.7949C122.839 25.1389 123.759 24.8109 124.943 24.8109H127.727C128.911 24.8109 129.831 25.1389 130.487 25.7949C131.143 26.4349 131.471 27.3469 131.471 28.5309V36.5229C131.471 37.6909 131.143 38.6029 130.487 39.2589C129.831 39.9149 128.911 40.2429 127.727 40.2429ZM139.169 40.2429H137.657C137.369 40.2429 137.225 40.1069 137.225 39.8349V27.0909C137.225 26.9309 137.145 26.8509 136.985 26.8509H133.961C133.673 26.8509 133.529 26.7149 133.529 26.4429V25.2189C133.529 24.9469 133.673 24.8109 133.961 24.8109H142.865C143.153 24.8109 143.297 24.9469 143.297 25.2189V26.4429C143.297 26.7149 143.153 26.8509 142.865 26.8509H139.841C139.665 26.8509 139.577 26.9309 139.577 27.0909V39.8349C139.577 40.1069 139.441 40.2429 139.169 40.2429ZM153.679 40.2429H145.999C145.727 40.2429 145.591 40.1069 145.591 39.8349V25.2189C145.591 24.9469 145.727 24.8109 145.999 24.8109H153.679C153.935 24.8109 154.063 24.9469 154.063 25.2189V26.4429C154.063 26.7149 153.935 26.8509 153.679 26.8509H148.207C148.015 26.8509 147.919 26.9309 147.919 27.0909V31.1469C147.919 31.3069 148.015 31.3869 148.207 31.3869H152.839C153.127 31.3869 153.271 31.5229 153.271 31.7949V33.0189C153.271 33.2909 153.127 33.4269 152.839 33.4269H148.207C148.015 33.4269 147.919 33.5069 147.919 33.6669V37.9389C147.919 38.1149 148.015 38.2029 148.207 38.2029H153.679C153.935 38.2029 154.063 38.3389 154.063 38.6109V39.8349C154.063 40.1069 153.935 40.2429 153.679 40.2429Z" fill="#64E6F4"/>
<g filter="url(#filter0_f_61_235)">
<path d="M33.5101 40.2429H30.7261C29.5421 40.2429 28.6221 39.9149 27.9661 39.2589C27.3261 38.6029 27.0061 37.6909 27.0061 36.5229V28.5309C27.0061 27.3469 27.3261 26.4349 27.9661 25.7949C28.6221 25.1389 29.5421 24.8109 30.7261 24.8109H33.5101C34.6781 24.8109 35.5901 25.1389 36.2461 25.7949C36.9021 26.4349 37.2301 27.3469 37.2301 28.5309V29.6829C37.2301 29.9709 37.0861 30.1149 36.7981 30.1149H35.2861C35.0141 30.1149 34.8781 29.9709 34.8781 29.6829V28.6269C34.8781 27.4429 34.3021 26.8509 33.1501 26.8509H31.0621C29.9101 26.8509 29.3341 27.4429 29.3341 28.6269V36.4269C29.3341 37.6109 29.9101 38.2029 31.0621 38.2029H33.1501C34.3021 38.2029 34.8781 37.6109 34.8781 36.4269V35.3709C34.8781 35.0829 35.0141 34.9389 35.2861 34.9389H36.7981C37.0861 34.9389 37.2301 35.0829 37.2301 35.3709V36.5229C37.2301 37.6909 36.9021 38.6029 36.2461 39.2589C35.5901 39.9149 34.6781 40.2429 33.5101 40.2429ZM42.367 40.2429H40.855C40.583 40.2429 40.447 40.1069 40.447 39.8349V25.2189C40.447 24.9469 40.583 24.8109 40.855 24.8109H46.471C47.639 24.8109 48.551 25.1469 49.207 25.8189C49.879 26.4749 50.215 27.3869 50.215 28.5549V30.5709C50.215 32.4109 49.455 33.5709 47.935 34.0509V34.1469L50.599 39.7629C50.775 40.0829 50.671 40.2429 50.287 40.2429H48.799C48.415 40.2429 48.167 40.1069 48.055 39.8349L45.487 34.3149H43.063C42.871 34.3149 42.775 34.3949 42.775 34.5549V39.8349C42.775 40.1069 42.639 40.2429 42.367 40.2429ZM43.039 32.3949H46.087C47.271 32.3949 47.863 31.8109 47.863 30.6429V28.6269C47.863 27.4429 47.271 26.8509 46.087 26.8509H43.039C42.863 26.8509 42.775 26.9309 42.775 27.0909V32.1549C42.775 32.3149 42.863 32.3949 43.039 32.3949ZM61.7829 40.2429H54.1029C53.8309 40.2429 53.6949 40.1069 53.6949 39.8349V25.2189C53.6949 24.9469 53.8309 24.8109 54.1029 24.8109H61.7829C62.0389 24.8109 62.1669 24.9469 62.1669 25.2189V26.4429C62.1669 26.7149 62.0389 26.8509 61.7829 26.8509H56.3109C56.1189 26.8509 56.0229 26.9309 56.0229 27.0909V31.1469C56.0229 31.3069 56.1189 31.3869 56.3109 31.3869H60.9429C61.2309 31.3869 61.3749 31.5229 61.3749 31.7949V33.0189C61.3749 33.2909 61.2309 33.4269 60.9429 33.4269H56.3109C56.1189 33.4269 56.0229 33.5069 56.0229 33.6669V37.9389C56.0229 38.1149 56.1189 38.2029 56.3109 38.2029H61.7829C62.0389 38.2029 62.1669 38.3389 62.1669 38.6109V39.8349C62.1669 40.1069 62.0389 40.2429 61.7829 40.2429ZM66.3061 40.2429H64.5781C64.3541 40.2429 64.2741 40.1069 64.3381 39.8349L68.5141 25.2189C68.5941 24.9469 68.7861 24.8109 69.0901 24.8109H71.4901C71.8101 24.8109 72.0021 24.9469 72.0661 25.2189L76.2421 39.8349C76.3061 40.1069 76.2181 40.2429 75.9781 40.2429H74.2741C74.1301 40.2429 74.0261 40.2189 73.9621 40.1709C73.9141 40.1069 73.8741 39.9949 73.8421 39.8349L72.9301 36.7149H67.6501L66.7381 39.8349C66.6741 40.1069 66.5301 40.2429 66.3061 40.2429ZM70.2421 27.1149L68.1301 34.7949H72.4741L70.3381 27.1149H70.2421ZM83.0785 40.2429H81.5665C81.2785 40.2429 81.1345 40.1069 81.1345 39.8349V27.0909C81.1345 26.9309 81.0545 26.8509 80.8945 26.8509H77.8705C77.5825 26.8509 77.4385 26.7149 77.4385 26.4429V25.2189C77.4385 24.9469 77.5825 24.8109 77.8705 24.8109H86.7745C87.0625 24.8109 87.2065 24.9469 87.2065 25.2189V26.4429C87.2065 26.7149 87.0625 26.8509 86.7745 26.8509H83.7505C83.5745 26.8509 83.4865 26.9309 83.4865 27.0909V39.8349C83.4865 40.1069 83.3505 40.2429 83.0785 40.2429ZM97.5888 40.2429H89.9088C89.6368 40.2429 89.5008 40.1069 89.5008 39.8349V25.2189C89.5008 24.9469 89.6368 24.8109 89.9088 24.8109H97.5888C97.8448 24.8109 97.9728 24.9469 97.9728 25.2189V26.4429C97.9728 26.7149 97.8448 26.8509 97.5888 26.8509H92.1168C91.9248 26.8509 91.8288 26.9309 91.8288 27.0909V31.1469C91.8288 31.3069 91.9248 31.3869 92.1168 31.3869H96.7488C97.0368 31.3869 97.1808 31.5229 97.1808 31.7949V33.0189C97.1808 33.2909 97.0368 33.4269 96.7488 33.4269H92.1168C91.9248 33.4269 91.8288 33.5069 91.8288 33.6669V37.9389C91.8288 38.1149 91.9248 38.2029 92.1168 38.2029H97.5888C97.8448 38.2029 97.9728 38.3389 97.9728 38.6109V39.8349C97.9728 40.1069 97.8448 40.2429 97.5888 40.2429ZM109.127 40.2429H107.639C107.367 40.2429 107.231 40.1069 107.231 39.8349V25.2189C107.231 24.9469 107.367 24.8109 107.639 24.8109H108.983C109.239 24.8109 109.415 24.8989 109.511 25.0749L115.319 35.5149H115.415V25.2189C115.415 24.9469 115.551 24.8109 115.823 24.8109H117.311C117.583 24.8109 117.719 24.9469 117.719 25.2189V39.8349C117.719 40.1069 117.583 40.2429 117.311 40.2429H116.015C115.759 40.2429 115.551 40.1149 115.391 39.8589L109.631 29.5389H109.535V39.8349C109.535 40.1069 109.399 40.2429 109.127 40.2429ZM125.279 38.2029H127.367C128.535 38.2029 129.119 37.6109 129.119 36.4269V28.6269C129.119 27.4429 128.535 26.8509 127.367 26.8509H125.279C124.127 26.8509 123.551 27.4429 123.551 28.6269V36.4269C123.551 37.6109 124.127 38.2029 125.279 38.2029ZM127.727 40.2429H124.943C123.759 40.2429 122.839 39.9149 122.183 39.2589C121.543 38.6029 121.223 37.6909 121.223 36.5229V28.5309C121.223 27.3469 121.543 26.4349 122.183 25.7949C122.839 25.1389 123.759 24.8109 124.943 24.8109H127.727C128.911 24.8109 129.831 25.1389 130.487 25.7949C131.143 26.4349 131.471 27.3469 131.471 28.5309V36.5229C131.471 37.6909 131.143 38.6029 130.487 39.2589C129.831 39.9149 128.911 40.2429 127.727 40.2429ZM139.169 40.2429H137.657C137.369 40.2429 137.225 40.1069 137.225 39.8349V27.0909C137.225 26.9309 137.145 26.8509 136.985 26.8509H133.961C133.673 26.8509 133.529 26.7149 133.529 26.4429V25.2189C133.529 24.9469 133.673 24.8109 133.961 24.8109H142.865C143.153 24.8109 143.297 24.9469 143.297 25.2189V26.4429C143.297 26.7149 143.153 26.8509 142.865 26.8509H139.841C139.665 26.8509 139.577 26.9309 139.577 27.0909V39.8349C139.577 40.1069 139.441 40.2429 139.169 40.2429ZM153.679 40.2429H145.999C145.727 40.2429 145.591 40.1069 145.591 39.8349V25.2189C145.591 24.9469 145.727 24.8109 145.999 24.8109H153.679C153.935 24.8109 154.063 24.9469 154.063 25.2189V26.4429C154.063 26.7149 153.935 26.8509 153.679 26.8509H148.207C148.015 26.8509 147.919 26.9309 147.919 27.0909V31.1469C147.919 31.3069 148.015 31.3869 148.207 31.3869H152.839C153.127 31.3869 153.271 31.5229 153.271 31.7949V33.0189C153.271 33.2909 153.127 33.4269 152.839 33.4269H148.207C148.015 33.4269 147.919 33.5069 147.919 33.6669V37.9389C147.919 38.1149 148.015 38.2029 148.207 38.2029H153.679C153.935 38.2029 154.063 38.3389 154.063 38.6109V39.8349C154.063 40.1069 153.935 40.2429 153.679 40.2429Z" fill="#64E6F4"/>
</g>
<defs>
<filter id="filter0_f_61_235" x="26.0261" y="23.831" width="129.017" height="17.3919" filterUnits="userSpaceOnUse" color-interpolation-filters="sRGB">
<feFlood flood-opacity="0" result="BackgroundImageFix"/>
<feBlend mode="normal" in="SourceGraphic" in2="BackgroundImageFix" result="shape"/>
<feGaussianBlur stdDeviation="0.49" result="effect1_foregroundBlur_61_235"/>
</filter>
</defs>
</svg>
