<svg width="180" height="65" viewBox="0 0 180 65" fill="none" xmlns="http://www.w3.org/2000/svg">
<path opacity="0.7" d="M4.71517 0.0140233C7.36569 -0.0217211 10.8401 0.0164983 13.4806 0.0689567C14.3081 0.0852267 13.8891 0.157954 14.4603 0.172459C15.5776 0.200737 16.6185 0.165068 17.7225 0.198754C18.0884 0.210273 17.633 0.325473 18.0166 0.334915C20.1191 0.385826 22.1081 0.356484 24.238 0.380972C34.7288 0.50179 45.041 0.545035 55.6603 0.597523C59.1617 0.614732 63.4181 0.71928 67.0347 0.673559C67.4569 0.668119 67.2052 0.567002 67.2855 0.558668C68.5454 0.431084 68.1265 0.635217 68.9491 0.662338C72.214 0.769424 75.8445 0.778738 78.9865 0.739714C80.3233 0.722816 78.983 0.521972 80.329 0.634704C80.4224 0.642321 80.0833 0.749699 80.4499 0.761151C81.2812 0.78691 82.8585 0.767717 83.5028 0.776224C84.7445 0.793164 84.9499 0.792084 86.1245 0.793307C87.73 0.795915 89.6397 0.849292 91.3624 0.824961C91.7301 0.819449 91.2433 0.709374 91.8297 0.690642C92.4167 0.671941 93.9694 0.681275 94.4929 0.707223C95.0165 0.733184 94.7936 0.819701 94.8863 0.839532C95.6486 1.00691 97.4447 0.775091 97.6757 0.769358C101.889 0.671673 105.503 0.803733 109.458 0.803356C112.461 0.80279 115.671 0.759193 118.528 0.765171C121.932 0.77272 124.817 0.832368 128.124 0.822114C128.473 0.821159 128.064 0.691736 128.49 0.690307C133.018 0.675247 137.515 0.689355 142.024 0.776727C142.476 0.785603 141.894 0.899236 142.345 0.914898C145.111 1.00828 149.488 1.23262 151.131 0.737872C153.004 0.757191 155.279 0.777151 156.955 0.87688C158.036 0.941067 156.986 1.06486 158.314 1.01204C158.613 1.00027 158.224 0.891857 158.673 0.882407C160.563 0.842719 162.629 0.877959 164.499 0.821947C164.879 0.810299 164.775 0.713159 164.883 0.695667C165.789 0.554003 167.297 0.788182 167.626 0.805199C170.129 0.932091 171.957 0.882156 174.289 0.885254C174.83 0.886027 174.191 0.755547 174.711 0.751605C175.844 0.743765 176.993 0.741183 178.141 0.745094C179.01 0.726566 179.784 1.5126 179.758 2.37207C179.749 3.43299 179.733 4.48544 179.711 5.51469C179.698 6.10293 179.586 5.56199 179.574 5.84308C179.523 7.08251 179.733 7.35727 179.688 8.54596C179.678 8.79657 179.583 8.65537 179.573 8.70113C179.409 9.41653 179.641 10.0382 179.646 10.2222C179.716 12.5499 179.474 14.0378 179.508 16.2865C179.512 16.5555 179.633 15.9489 179.638 16.7051C179.671 21.7431 179.638 27.0713 179.541 32.0581C179.527 32.8334 179.436 32.28 179.425 32.3287C179.251 33.1239 179.484 33.6385 179.493 33.8913C179.556 35.8858 179.361 37.7488 179.639 39.104C179.59 43.3516 179.605 47.5895 179.601 51.8186C179.603 52.2348 179.415 52.6466 179.1 52.9181C176.16 55.4734 173.212 58.0075 170.211 60.4717C170.129 60.5396 170.198 60.3275 170.034 60.4632C168.063 62.0965 168.551 61.9081 167.419 63.1856C167.262 63.3623 166.844 63.6392 166.483 63.8631C166.069 64.1491 165.65 64.0931 165.592 64.0872C165.579 64.0858 165.566 64.0842 165.554 64.0823C165.186 64.0082 165.595 63.8451 165.459 63.8317C164.3 63.7233 164.489 64.2889 162.926 64.2891C162.877 64.2881 163.082 64.184 162.951 64.1737C162.543 64.1412 162.139 64.1825 161.74 64.1467C160.827 64.0638 160.502 63.789 159.108 63.9489C158.931 63.9697 159.201 64.2905 157.805 64.2753C157.248 64.269 154.786 64.2745 154.095 64.2537C153.406 64.233 153.879 64.1296 153.83 64.1251C151.972 63.9884 152.677 63.9317 151.746 63.7294C150.815 63.5277 151.073 64.0086 150.694 64.0623C150.314 64.1158 148.952 64.003 148.617 63.9638C148.283 63.9246 148.7 63.8589 148.403 63.8367C146.43 63.6917 147.537 64.0754 146.887 64.1517C145.355 64.3325 144.161 63.9758 142.759 63.9409C142.379 63.9314 142.689 64.0127 142.351 64.0203C141.012 64.0493 140.207 63.938 138.684 64.04C138.435 64.0567 137.204 64.2711 136.407 64.1137C136.295 64.091 136.615 64.0022 136.045 63.9823C135.193 63.9524 133.657 63.9329 132.741 63.9627C132.065 63.9846 132.84 64.1311 131.989 64.0856C131.61 64.0653 132.311 63.9796 131.601 63.9486C130.894 63.9176 129.086 63.9213 128.398 63.9243C127.711 63.9273 128.087 64.0384 128.032 64.0459C127.696 64.0888 126.378 64.1423 126.262 64.1422C120.388 64.1558 114.971 63.9685 109.252 64.0305C108.804 64.0352 109.103 64.1523 109.034 64.1543C107.498 64.2033 108.709 63.8919 107.636 63.7876C107.791 64.0253 107.157 63.9823 106.075 64.0084C105.553 64.0211 105.837 64.1132 105.79 64.1226C105.016 64.2624 104.478 64.0818 104.339 64.0449C103.827 63.909 103.27 64.0696 102.921 63.9787C102.573 63.8886 103.374 63.7549 102.336 63.7567C102.045 63.8417 102.816 64.0641 102.028 64.1002C99.0545 64.2365 93.5042 64.062 91.1135 64.0439C88.7275 64.0258 87.9569 64.0415 86.5666 64.0107C84.0553 63.9551 84.9756 64.1201 83.4162 64.1956C81.8523 64.2711 82.6126 63.8652 82.3878 63.7779C82.1671 63.6907 81.9261 63.7805 81.6516 63.7325C81.378 63.6846 81.9704 63.6253 81.3268 63.6073C80.683 63.5893 78.9225 63.7445 78.6943 63.8357C78.2118 64.029 79.0051 64.2319 77.3014 64.1606C77.2034 64.1564 77.5214 64.0496 77.1462 64.0389C74.1662 63.9567 71.0703 63.9516 68.0939 63.8789C67.6847 63.8688 68.0506 63.75 67.8125 63.7428C65.3316 63.6668 66.2185 63.867 64.8588 64.0894C65.1641 63.7934 64.4122 63.6124 62.5294 63.6106C61.3976 63.6095 61.5924 63.7387 60.8604 63.8298C60.6408 63.8573 59.8399 63.7685 59.6948 63.8293C59.2163 64.0281 59.9706 64.2505 58.0294 64.162C57.9443 64.1577 58.2154 64.049 57.9212 64.0424C56.0189 63.9993 55.7913 64.2071 53.7351 64.2323C52.1234 64.252 49.257 64.1253 47.4218 64.1047C47.4604 63.7719 45.727 63.8481 45.0238 64.0775C43.8329 64.0682 42.5465 64.0811 41.3953 64.0494C40.9992 64.0386 41.2595 63.9422 41.2095 63.9318C40.4434 63.7685 39.9257 63.9918 39.6686 64.0005C36.8824 64.0856 34.6124 63.9164 31.9533 64.0817C31.859 64.0877 31.706 64.3188 30.9952 64.1501C30.9493 64.1384 31.8274 64.0333 30.5766 64.0251C29.3256 64.017 26.9672 63.8931 25.2304 64.0002C24.8102 64.026 23.747 64.2136 22.8938 64.067C22.7802 64.0471 22.9045 63.9808 22.7404 63.9439C22.21 63.8263 21.9204 64.06 21.297 63.8615C20.6735 63.663 19.3768 63.5144 17.6252 63.6513C17.5694 63.6553 17.1548 63.8405 16.6039 63.8375C15.7246 63.8327 14.4763 63.7941 13.5582 63.7953C13.1186 63.796 13.4 63.911 13.3237 63.9131C10.3679 63.9775 8.26422 63.875 5.09778 63.8305C4.52674 63.8223 2.90321 63.9739 1.78076 63.8608C1.76093 63.8589 1.74154 63.8564 1.7224 63.8534C1.20665 63.7289 1.24987 63.4795 1.25777 63.3535C1.28754 63.2058 1.2685 63.074 1.29371 62.7981C1.31537 62.5045 1.31727 62.0948 1.28961 61.5115C1.23582 60.3676 0.519606 58.9193 0.890676 56.8636C0.798727 52.8766 0.98864 49.1895 0.857348 45.1914C0.851531 45.0117 0.651642 44.4431 0.654362 44.0204C0.658788 43.3929 0.752213 43.0485 0.758367 42.6004C0.786508 40.7229 0.706577 39.0049 0.719009 37.1947C0.723527 36.5074 0.820127 36.7477 0.825527 35.928C0.830836 35.1088 0.703631 34.5626 0.765066 33.4525C0.811895 32.6141 1.0719 31.7759 1.1022 30.663C0.84574 30.6206 0.851022 29.8563 0.783322 28.4978C0.770186 28.2367 0.680923 28.5167 0.670105 28.3932C0.624099 27.8905 0.698079 27.4252 0.647998 26.9479C0.63597 26.8318 0.548386 26.8263 0.533609 26.7314C0.404625 25.9242 0.601637 24.5943 0.635939 24.3659C0.766213 23.4906 0.6523 23.0815 0.703601 22.41C0.754896 21.7397 0.819019 22.742 0.850146 21.959C0.91453 20.3359 0.900385 18.2504 0.90441 16.6019C0.905475 15.9442 0.788564 16.3929 0.786001 16.2988C0.756349 14.9387 0.880709 13.5634 0.64783 12.8092C1.24997 11.8663 0.589426 11.9891 0.709966 10.045C0.719715 9.89187 1.00446 9.69706 1.04627 10.285C1.08803 10.8729 0.999022 11.7644 1.06419 12.5801C1.07948 12.7733 1.3463 13.8798 1.36247 14.0308C1.48879 15.2134 1.06327 15.381 1.0399 15.4436C0.787685 16.1531 1.07514 17.5053 1.095 17.8613C1.18601 19.4903 1.12617 20.8743 1.19114 22.2368C1.23312 23.1279 1.51185 23.2151 1.50332 23.9148C1.47512 26.2409 1.08629 27.0529 1.42343 29.2448C1.49534 29.7148 1.79998 29.2477 1.56043 30.9319C1.54533 31.0377 1.32618 32.288 1.4648 33.0104C1.48227 33.1012 1.57106 33.0983 1.57852 33.2179C1.62676 34.0199 1.55603 34.5547 1.58991 35.4282C1.62378 36.3017 1.67428 37.3521 1.64417 38.3494C1.62616 38.9505 1.46075 39.7217 1.42025 40.0094C1.30358 40.8218 1.49486 41.6929 1.35359 42.1963C1.21161 42.7038 0.995981 41.7115 0.904242 43.0425C1.13491 43.0918 1.37166 43.205 1.60364 43.2843C1.59552 46.201 1.52093 49.0709 1.53112 51.9973C1.53261 52.3602 1.65662 51.9891 1.66142 52.3781C1.68112 54.019 1.59272 55.4523 1.62792 57.1541C1.65565 58.4714 1.78694 59.9158 1.82002 61.2932C1.71267 61.6354 1.6638 62.1765 1.64198 62.7981C1.61912 62.8683 1.69614 62.9597 1.78076 62.9534C2.22989 62.9525 2.67304 62.9507 3.07512 62.9573C3.59527 62.9656 3.56049 63.0361 3.93037 63.0591C5.3258 63.1442 4.67194 62.9109 5.05448 62.8742C6.69577 62.7175 6.8363 63.2455 8.77138 63.2324C8.8739 63.2319 10.127 62.9505 10.2996 62.933C11.3963 62.8187 10.4812 63.0309 11.1675 63.0517C12.4207 63.0897 13.2915 63.1569 14.7617 63.0745C15.1905 63.0501 16.2188 62.8747 17.0514 63.0104C17.1609 63.0281 17.1004 63.1211 17.1885 63.1266C18.7842 63.2174 18.8262 62.9251 19.7381 62.8261C20.6501 62.7272 22.0586 62.9289 22.3453 62.9871C23.0952 63.1375 21.7706 63.0514 21.73 63.0661C21.253 63.2418 22.2802 63.2116 23.0652 63.2264C23.1789 63.513 24.2766 63.4958 23.879 63.2407C23.8337 63.2128 23.2228 63.2395 23.0652 63.2264C23.7543 62.9452 24.9607 62.9092 26.2932 63.172C26.9169 63.2951 26.3272 63.4387 28.222 63.3862C29.0819 63.3625 28.7496 63.1651 29.5085 63.1114C31.2421 62.9886 33.495 63.1727 35.2823 63.1437C35.931 63.1331 35.2991 63.0251 35.7424 63.0142C36.9189 62.9849 37.9565 63.0659 39.1381 63.0244C39.2452 63.0205 38.9836 62.9075 39.3511 62.906C42.1366 62.8929 44.5621 62.9653 47.4705 62.9673C48.8757 62.9682 51.3881 62.9059 52.8438 62.9184C55.3668 62.9395 58.4705 63.1039 60.6258 63.064C62.0316 63.0384 61.7232 62.9253 62.3255 62.8482C63.4878 62.6989 65.5452 62.9664 65.8223 63.0079C65.8307 63.0092 64.6211 63.0359 65.2666 63.0939C65.6418 63.2149 65.8087 63.0084 65.8223 63.0079C66.0042 63.0346 68.4207 63.0603 68.9005 63.0387C69.1612 63.0269 69.0154 62.9197 69.1513 62.9156C72.3824 62.8197 75.6192 62.7924 78.8964 62.8425C78.9541 62.8447 78.8672 62.9646 79.0029 62.9682C80.9001 63.0214 82.1149 62.8748 83.6797 62.7878C85.2442 62.7008 86.4849 62.7299 87.411 62.9357C88.5915 62.9098 90.2851 63.0007 91.2596 63.0559C92.2342 63.1111 92.3702 62.8778 92.4559 62.8732C95.1304 62.7256 96.6765 62.8591 99.4513 62.8799C100.77 62.8902 103.387 62.8563 104.816 62.8308C105.944 62.8103 106.624 62.8649 107.665 62.83C107.805 62.8253 107.663 62.7214 107.706 62.7174C108.867 62.5932 108.309 62.8471 108.549 62.8925C109.418 63.0574 109.954 63.1452 111.441 63.0676C111.784 63.0499 112.783 62.6842 113.408 62.6628C114.22 62.6357 113.914 62.7668 114.765 62.735C114.837 62.7324 114.822 62.6516 115.347 62.6551C117.785 62.6706 120.443 62.7177 122.976 62.7096C123.322 62.7088 122.878 62.5805 123.378 62.5773C125.724 62.5621 128.296 62.5668 130.581 62.6268C131.144 62.642 130.791 62.7318 130.913 62.7585C131.663 62.9198 132.726 62.6854 132.902 62.6809C137.086 62.5683 140.289 62.7804 144.554 62.6794C144.786 62.6735 146.573 62.4222 147.37 62.6377C147.425 62.6521 148.214 62.8726 148.911 62.7218C148.955 62.7124 148.463 62.5989 149.321 62.6104C150.179 62.622 151.559 62.5462 152.738 62.6709C153.112 62.7102 153.994 62.9301 155.107 62.7548C155.18 62.7425 156.899 62.3461 157.513 62.6196C157.612 62.6647 157.508 62.9541 158.837 62.8057C159.091 62.7769 158.63 62.7124 159.299 62.6721C160.324 62.6099 161.682 62.6874 162.942 62.5585C163.162 62.5357 164.097 62.3392 164.847 62.4883C164.965 62.5117 164.741 62.6083 165.138 62.6191C165.276 62.6229 165.415 62.6261 165.554 62.6288C165.514 62.6333 165.477 62.6509 165.449 62.6776C166.612 61.6791 167.776 60.6232 168.966 59.6561C169.492 59.2284 169.334 59.5738 169.893 59.1411C170.453 58.7082 171.552 57.803 172.062 57.2633C172.573 56.7235 171.8 57.0668 172.622 56.3237C174.388 54.7262 176.184 53.1788 177.987 51.6424C177.939 51.6886 177.914 51.7549 177.917 51.8186C177.945 49.6815 177.979 47.5442 177.989 45.3993C177.992 44.6862 177.903 45.2773 177.901 44.2265C177.895 40.352 177.811 33.6627 178 30.3007C178.152 27.6069 178.267 30.9969 178.329 28.9384C178.359 27.9451 178.069 26.8705 178.06 26.6307C177.967 24.2882 178.096 22.6603 178.056 20.5519C178.048 20.1165 177.931 20.5436 177.925 20.173C177.905 18.9074 177.957 17.5771 177.948 16.3677C177.943 15.8251 177.853 15.9251 177.86 15.4258C177.876 14.2312 177.914 13.1748 177.997 12.0103C178.005 11.9041 178.117 12.6198 178.121 11.736C178.127 10.3055 178.21 8.52994 178.124 6.88417C178.099 6.39585 177.894 6.37671 178.035 5.32704C178.065 5.10686 178.311 5.38778 178.098 4.16506C178.077 4.03911 177.961 3.21977 177.917 2.37207C177.879 2.50299 178.04 2.62691 178.125 2.55091C178.13 2.54632 178.136 2.53987 178.141 2.5319C177.83 2.46358 177.231 2.30513 176.705 2.33345C176.625 2.3385 176.945 2.4485 176.458 2.45923C174.743 2.49513 172.946 2.48339 171.184 2.51785C170.713 2.52727 171.414 2.6411 170.713 2.6515C168.785 2.68027 166.377 2.65129 164.492 2.61566C163.796 2.6023 164.277 2.50801 164.226 2.49775C163.413 2.33085 162.932 2.55613 162.662 2.56926C160.983 2.64792 159.704 2.5421 158.157 2.5701C157.73 2.57754 158.032 2.68496 157.947 2.69454C157.066 2.78812 157.722 2.59522 157.164 2.57395C155.601 2.51374 153.858 2.52238 152.276 2.5361C151.696 2.5413 152.348 2.66586 151.827 2.66908C148.742 2.69055 145.535 2.67863 142.524 2.60996C141.957 2.59681 142.314 2.5009 142.196 2.47899C141.381 2.32573 140.188 2.53478 139.913 2.55469C138.664 2.64562 138.179 2.5608 137.077 2.57663C131.69 2.65545 125.039 2.59928 119.954 2.56458C113.328 2.51991 108.186 2.42867 101.867 2.45236C101.466 2.45375 101.871 2.58134 101.524 2.58417C97.0548 2.61493 92.6545 2.56507 88.176 2.60192C87.8085 2.60472 88.3382 2.72568 87.7483 2.73423C86.5384 2.75263 85.0058 2.74606 83.7824 2.70744C83.1858 2.68883 83.9861 2.58504 83.3855 2.56843C81.987 2.52951 80.488 2.5209 79.0515 2.54029C78.4402 2.54881 79.3625 2.67251 78.5679 2.67394C73.1555 2.68621 67.84 2.70752 62.3705 2.54732C61.9956 2.53632 61.6666 2.2849 60.8693 2.33312C60.8093 2.40289 60.8125 2.48497 60.7863 2.55955C52.9073 2.59973 45.1086 2.51257 37.2074 2.49909C36.8743 2.49855 37.45 2.63177 36.8051 2.6314C33.0722 2.62943 29.4474 2.66633 25.6291 2.53393C25.2502 2.52098 25.4446 2.28662 24.3282 2.32206C24.1313 2.32853 22.4498 2.35979 22.015 2.41066C21.956 2.41833 22.2628 2.52772 21.7209 2.53091C18.5722 2.54752 15.2724 2.52255 12.1291 2.45571C11.6218 2.44472 12.1621 2.32823 11.8008 2.31938C9.23769 2.25755 6.4498 2.3461 4.00066 2.24033C2.3613 2.16912 2.96824 1.96776 2.0971 1.76955C2.05892 1.76088 1.93507 1.75448 1.78076 1.74633C1.5544 1.70656 1.27624 1.90836 1.20506 1.89096C1.05996 1.84131 0.97784 1.69284 0.942894 1.51109C0.901256 1.33596 0.909949 1.13074 0.682319 1.11832C0.627459 1.10228 0.20194 1.54971 0.118058 1.9744C0.0637751 2.17783 0.0585157 2.34281 0.0410003 2.36856C0.0307367 2.39413 -0.0278715 2.28227 0.0163811 1.91407C0.0209605 1.86802 0.130978 1.37406 0.516965 0.999797C0.885288 0.607208 1.48942 0.451529 1.71926 0.431678C1.74502 0.427874 1.76519 0.424216 1.78076 0.42028C1.87357 0.374767 1.64072 0.271856 1.95817 0.227393C2.30301 0.179134 2.68194 0.277446 3.25367 0.220694C3.82515 0.163239 3.57387 0.0298171 4.71517 0.0140233ZM95.6478 63.3026C96.5501 63.4147 96.6833 63.0043 95.7073 63.1025C95.6601 63.1077 95.6012 63.2971 95.6478 63.3026ZM1.2114 49.0545C1.0304 50.2342 1.29654 51.0415 1.43633 50.2093C1.57596 49.3771 1.26627 48.6951 1.2114 49.0545ZM1.07926 36.8212C0.936551 38.2 1.51845 38.417 1.40082 36.9403C1.39417 36.8544 1.08755 36.7406 1.07926 36.8212ZM6.13698 1.71311C6.12452 1.70766 5.3948 1.70235 5.37736 1.70775C4.9888 1.83808 6.44795 1.84861 6.13698 1.71311ZM0.935393 24.6817C0.856678 25.1121 0.947546 26.3514 1.04543 25.8166C1.12417 25.3861 1.03331 24.1456 0.935393 24.6817ZM142.721 63.7406C142.735 63.7467 143.258 63.7522 143.248 63.7176C143.212 63.6063 142.484 63.6377 142.721 63.7406ZM0.928694 4.04925C0.906791 7.09759 0.42611 8.94584 0.480351 5.62623C0.490164 5.02507 0.633636 6.92185 0.676972 6.15669C0.755923 4.75665 0.454115 3.82701 0.615842 2.39829C0.645443 2.13965 0.931012 3.87535 0.929364 4.05466C0.929141 4.05286 0.928918 4.05105 0.928694 4.04925ZM96.1674 63.7955C96.1854 63.8009 96.9097 63.8061 96.927 63.8007C97.3192 63.6704 95.8603 63.66 96.1674 63.7955ZM171.598 59.1133C171.636 59.0958 172.909 57.9991 172.944 57.955C173.464 57.2182 170.889 59.4348 171.598 59.1133ZM47.3929 64.0958C46.6027 64.2269 45.6574 64.2423 45.0275 64.0777C45.8128 64.0864 46.6033 64.0877 47.3929 64.0958Z" fill="#07596E"/>
<path d="M59.6178 38.052H63.0018C64.1538 38.052 64.7298 37.46 64.7298 36.276V28.476C64.7298 27.292 64.1538 26.7 63.0018 26.7H59.6178C59.4418 26.7 59.3538 26.78 59.3538 26.94V37.788C59.3538 37.964 59.4418 38.052 59.6178 38.052ZM57.0258 39.684V25.068C57.0258 24.796 57.1618 24.66 57.4338 24.66H63.3378C64.5058 24.66 65.4178 24.988 66.0738 25.644C66.7458 26.284 67.0818 27.196 67.0818 28.38V36.372C67.0818 37.54 66.7458 38.452 66.0738 39.108C65.4178 39.764 64.5058 40.092 63.3378 40.092H57.4338C57.1618 40.092 57.0258 39.956 57.0258 39.684ZM78.6663 40.092H70.9863C70.7143 40.092 70.5783 39.956 70.5783 39.684V25.068C70.5783 24.796 70.7143 24.66 70.9863 24.66H78.6663C78.9223 24.66 79.0503 24.796 79.0503 25.068V26.292C79.0503 26.564 78.9223 26.7 78.6663 26.7H73.1943C73.0023 26.7 72.9063 26.78 72.9063 26.94V30.996C72.9063 31.156 73.0023 31.236 73.1943 31.236H77.8263C78.1143 31.236 78.2583 31.372 78.2583 31.644V32.868C78.2583 33.14 78.1143 33.276 77.8263 33.276H73.1943C73.0023 33.276 72.9063 33.356 72.9063 33.516V37.788C72.9063 37.964 73.0023 38.052 73.1943 38.052H78.6663C78.9223 38.052 79.0503 38.188 79.0503 38.46V39.684C79.0503 39.956 78.9223 40.092 78.6663 40.092ZM90.5335 40.092H82.7575C82.4855 40.092 82.3495 39.956 82.3495 39.684V25.068C82.3495 24.796 82.4855 24.66 82.7575 24.66H84.2695C84.5415 24.66 84.6775 24.796 84.6775 25.068V37.764C84.6775 37.924 84.7735 38.004 84.9655 38.004H90.5335C90.8055 38.004 90.9415 38.148 90.9415 38.436V39.684C90.9415 39.956 90.8055 40.092 90.5335 40.092ZM101.482 40.092H93.8022C93.5302 40.092 93.3942 39.956 93.3942 39.684V25.068C93.3942 24.796 93.5302 24.66 93.8022 24.66H101.482C101.738 24.66 101.866 24.796 101.866 25.068V26.292C101.866 26.564 101.738 26.7 101.482 26.7H96.0102C95.8182 26.7 95.7222 26.78 95.7222 26.94V30.996C95.7222 31.156 95.8182 31.236 96.0102 31.236H100.642C100.93 31.236 101.074 31.372 101.074 31.644V32.868C101.074 33.14 100.93 33.276 100.642 33.276H96.0102C95.8182 33.276 95.7222 33.356 95.7222 33.516V37.788C95.7222 37.964 95.8182 38.052 96.0102 38.052H101.482C101.738 38.052 101.866 38.188 101.866 38.46V39.684C101.866 39.956 101.738 40.092 101.482 40.092ZM109.389 40.092H107.877C107.589 40.092 107.445 39.956 107.445 39.684V26.94C107.445 26.78 107.365 26.7 107.205 26.7H104.181C103.893 26.7 103.749 26.564 103.749 26.292V25.068C103.749 24.796 103.893 24.66 104.181 24.66H113.085C113.373 24.66 113.517 24.796 113.517 25.068V26.292C113.517 26.564 113.373 26.7 113.085 26.7H110.061C109.885 26.7 109.797 26.78 109.797 26.94V39.684C109.797 39.956 109.661 40.092 109.389 40.092ZM123.9 40.092H116.22C115.948 40.092 115.812 39.956 115.812 39.684V25.068C115.812 24.796 115.948 24.66 116.22 24.66H123.9C124.156 24.66 124.284 24.796 124.284 25.068V26.292C124.284 26.564 124.156 26.7 123.9 26.7H118.428C118.236 26.7 118.14 26.78 118.14 26.94V30.996C118.14 31.156 118.236 31.236 118.428 31.236H123.06C123.348 31.236 123.492 31.372 123.492 31.644V32.868C123.492 33.14 123.348 33.276 123.06 33.276H118.428C118.236 33.276 118.14 33.356 118.14 33.516V37.788C118.14 37.964 118.236 38.052 118.428 38.052H123.9C124.156 38.052 124.284 38.188 124.284 38.46V39.684C124.284 39.956 124.156 40.092 123.9 40.092Z" fill="#E85D5A"/>
<g filter="url(#filter0_f_61_241)">
<path d="M59.6178 38.052H63.0018C64.1538 38.052 64.7298 37.46 64.7298 36.276V28.476C64.7298 27.292 64.1538 26.7 63.0018 26.7H59.6178C59.4418 26.7 59.3538 26.78 59.3538 26.94V37.788C59.3538 37.964 59.4418 38.052 59.6178 38.052ZM57.0258 39.684V25.068C57.0258 24.796 57.1618 24.66 57.4338 24.66H63.3378C64.5058 24.66 65.4178 24.988 66.0738 25.644C66.7458 26.284 67.0818 27.196 67.0818 28.38V36.372C67.0818 37.54 66.7458 38.452 66.0738 39.108C65.4178 39.764 64.5058 40.092 63.3378 40.092H57.4338C57.1618 40.092 57.0258 39.956 57.0258 39.684ZM78.6663 40.092H70.9863C70.7143 40.092 70.5783 39.956 70.5783 39.684V25.068C70.5783 24.796 70.7143 24.66 70.9863 24.66H78.6663C78.9223 24.66 79.0503 24.796 79.0503 25.068V26.292C79.0503 26.564 78.9223 26.7 78.6663 26.7H73.1943C73.0023 26.7 72.9063 26.78 72.9063 26.94V30.996C72.9063 31.156 73.0023 31.236 73.1943 31.236H77.8263C78.1143 31.236 78.2583 31.372 78.2583 31.644V32.868C78.2583 33.14 78.1143 33.276 77.8263 33.276H73.1943C73.0023 33.276 72.9063 33.356 72.9063 33.516V37.788C72.9063 37.964 73.0023 38.052 73.1943 38.052H78.6663C78.9223 38.052 79.0503 38.188 79.0503 38.46V39.684C79.0503 39.956 78.9223 40.092 78.6663 40.092ZM90.5335 40.092H82.7575C82.4855 40.092 82.3495 39.956 82.3495 39.684V25.068C82.3495 24.796 82.4855 24.66 82.7575 24.66H84.2695C84.5415 24.66 84.6775 24.796 84.6775 25.068V37.764C84.6775 37.924 84.7735 38.004 84.9655 38.004H90.5335C90.8055 38.004 90.9415 38.148 90.9415 38.436V39.684C90.9415 39.956 90.8055 40.092 90.5335 40.092ZM101.482 40.092H93.8022C93.5302 40.092 93.3942 39.956 93.3942 39.684V25.068C93.3942 24.796 93.5302 24.66 93.8022 24.66H101.482C101.738 24.66 101.866 24.796 101.866 25.068V26.292C101.866 26.564 101.738 26.7 101.482 26.7H96.0102C95.8182 26.7 95.7222 26.78 95.7222 26.94V30.996C95.7222 31.156 95.8182 31.236 96.0102 31.236H100.642C100.93 31.236 101.074 31.372 101.074 31.644V32.868C101.074 33.14 100.93 33.276 100.642 33.276H96.0102C95.8182 33.276 95.7222 33.356 95.7222 33.516V37.788C95.7222 37.964 95.8182 38.052 96.0102 38.052H101.482C101.738 38.052 101.866 38.188 101.866 38.46V39.684C101.866 39.956 101.738 40.092 101.482 40.092ZM109.389 40.092H107.877C107.589 40.092 107.445 39.956 107.445 39.684V26.94C107.445 26.78 107.365 26.7 107.205 26.7H104.181C103.893 26.7 103.749 26.564 103.749 26.292V25.068C103.749 24.796 103.893 24.66 104.181 24.66H113.085C113.373 24.66 113.517 24.796 113.517 25.068V26.292C113.517 26.564 113.373 26.7 113.085 26.7H110.061C109.885 26.7 109.797 26.78 109.797 26.94V39.684C109.797 39.956 109.661 40.092 109.389 40.092ZM123.9 40.092H116.22C115.948 40.092 115.812 39.956 115.812 39.684V25.068C115.812 24.796 115.948 24.66 116.22 24.66H123.9C124.156 24.66 124.284 24.796 124.284 25.068V26.292C124.284 26.564 124.156 26.7 123.9 26.7H118.428C118.236 26.7 118.14 26.78 118.14 26.94V30.996C118.14 31.156 118.236 31.236 118.428 31.236H123.06C123.348 31.236 123.492 31.372 123.492 31.644V32.868C123.492 33.14 123.348 33.276 123.06 33.276H118.428C118.236 33.276 118.14 33.356 118.14 33.516V37.788C118.14 37.964 118.236 38.052 118.428 38.052H123.9C124.156 38.052 124.284 38.188 124.284 38.46V39.684C124.284 39.956 124.156 40.092 123.9 40.092Z" fill="#E85D5A"/>
</g>
<defs>
<filter id="filter0_f_61_241" x="56.0459" y="23.6802" width="69.2178" height="17.3919" filterUnits="userSpaceOnUse" color-interpolation-filters="sRGB">
<feFlood flood-opacity="0" result="BackgroundImageFix"/>
<feBlend mode="normal" in="SourceGraphic" in2="BackgroundImageFix" result="shape"/>
<feGaussianBlur stdDeviation="0.49" result="effect1_foregroundBlur_61_241"/>
</filter>
</defs>
</svg>
