<svg width="180" height="65" viewBox="0 0 180 65" fill="none" xmlns="http://www.w3.org/2000/svg">
<path opacity="0.7" d="M4.72771 0.0140233C7.38568 -0.0217211 10.8698 0.0164983 13.5178 0.0689567C14.3476 0.0852267 13.9274 0.157954 14.5003 0.172459C15.6206 0.200737 16.6644 0.165068 17.7716 0.198754C18.1386 0.210273 17.6818 0.325473 18.0666 0.334915C20.1749 0.385826 22.1695 0.356484 24.3054 0.380972C34.8257 0.50179 45.1669 0.545035 55.816 0.597523C59.3272 0.614732 63.5956 0.71928 67.2224 0.673559C67.6458 0.668119 67.3934 0.567002 67.4739 0.558668C68.7373 0.431084 68.3172 0.635217 69.1421 0.662338C72.4162 0.769424 76.057 0.778738 79.2078 0.739714C80.5483 0.722816 79.2043 0.521972 80.554 0.634704C80.6477 0.642321 80.3076 0.749699 80.6752 0.761151C81.5089 0.78691 83.0906 0.767717 83.7367 0.776224C84.982 0.793164 85.188 0.792084 86.3658 0.793307C87.9759 0.795915 89.8909 0.849292 91.6184 0.824961C91.9872 0.819449 91.499 0.709374 92.0871 0.690642C92.6757 0.671941 94.2328 0.681275 94.7577 0.707223C95.2829 0.733184 95.0592 0.819701 95.1522 0.839532C95.9167 1.00691 97.7178 0.775091 97.9495 0.769358C102.175 0.671673 105.799 0.803733 109.765 0.803356C112.776 0.80279 115.996 0.759193 118.861 0.765171C122.274 0.77272 125.167 0.832368 128.483 0.822114C128.833 0.821159 128.423 0.691736 128.85 0.690307C133.391 0.675247 137.901 0.689355 142.423 0.776727C142.876 0.785603 142.292 0.899236 142.745 0.914898C145.518 1.00828 149.907 1.23262 151.555 0.737872C153.434 0.757191 155.714 0.777151 157.395 0.87688C158.479 0.941067 157.427 1.06486 158.758 1.01204C159.058 1.00027 158.668 0.891857 159.118 0.882407C161.014 0.842719 163.085 0.877959 164.96 0.821947C165.342 0.810299 165.238 0.713159 165.346 0.695667C166.254 0.554003 167.766 0.788182 168.096 0.805199C170.606 0.932091 172.44 0.882156 174.778 0.885254C175.321 0.886027 174.679 0.755547 175.202 0.751605C176.173 0.7449 177.156 0.742041 178.141 0.7438C179.01 0.724239 179.787 1.50932 179.762 2.37207C179.753 3.6066 179.737 4.83288 179.711 6.02796C179.698 6.61786 179.586 6.07539 179.574 6.35727C179.523 7.60019 179.733 7.87572 179.687 9.06775C179.678 9.31907 179.583 9.17747 179.573 9.22336C179.408 9.94076 179.641 10.5641 179.646 10.7487C179.716 13.0829 179.474 14.575 179.508 16.83C179.512 17.0998 179.633 16.4915 179.638 17.2498C179.671 22.302 179.638 27.6452 179.541 32.646C179.527 33.4235 179.436 32.8685 179.425 32.9174C179.251 33.7148 179.484 34.2308 179.493 34.4843C179.556 36.4844 179.361 38.3527 179.639 39.7116C179.59 43.9442 179.605 48.1671 179.601 52.3812C179.603 52.7948 179.417 53.2041 179.106 53.4757C176.15 56.0739 173.185 58.651 170.167 61.1575C170.085 61.2259 170.153 61.0131 169.989 61.1501C168.022 62.7988 168.51 62.6069 167.381 63.8937C167.232 64.0644 166.841 64.3291 166.491 64.5504C166.087 64.8361 165.658 64.7954 165.551 64.7772C165.543 64.7757 165.536 64.7745 165.532 64.7738C165.112 64.7025 165.547 64.5315 165.407 64.5177C164.245 64.4093 164.434 64.9749 162.867 64.9751C162.817 64.9741 163.023 64.87 162.892 64.8597C162.483 64.8272 162.078 64.8686 161.678 64.8327C160.762 64.7498 160.436 64.475 159.038 64.6349C158.861 64.6557 159.131 64.9765 157.731 64.9613C157.173 64.955 154.704 64.9605 154.011 64.9397C153.32 64.919 153.795 64.8156 153.745 64.8111C151.882 64.6744 152.589 64.6177 151.656 64.4154C150.722 64.2137 150.981 64.6946 150.601 64.7483C150.22 64.8018 148.854 64.689 148.518 64.6498C148.183 64.6106 148.601 64.5449 148.303 64.5227C146.325 64.3777 147.435 64.7614 146.783 64.8377C145.246 65.0185 144.05 64.6618 142.643 64.6269C142.262 64.6174 142.573 64.6987 142.234 64.7063C140.892 64.7353 140.084 64.624 138.557 64.726C138.307 64.7427 137.073 64.9571 136.274 64.7997C136.161 64.777 136.482 64.6882 135.91 64.6683C135.056 64.6384 133.516 64.6189 132.597 64.6487C131.919 64.6706 132.696 64.8171 131.843 64.7716C131.463 64.7513 132.166 64.6656 131.454 64.6346C130.745 64.6036 128.932 64.6073 128.242 64.6103C127.553 64.6133 127.93 64.7244 127.875 64.7319C127.538 64.7748 126.216 64.8283 126.1 64.8282C120.209 64.8418 114.777 64.6545 109.042 64.7165C108.592 64.7212 108.892 64.8383 108.824 64.8403C107.283 64.8893 108.498 64.5779 107.421 64.4736C107.577 64.7113 106.941 64.6683 105.856 64.6944C105.333 64.7071 105.618 64.7992 105.57 64.8086C104.795 64.9484 104.255 64.7678 104.115 64.7309C103.602 64.595 103.043 64.7556 102.693 64.6647C102.344 64.5746 103.148 64.4409 102.107 64.4427C101.815 64.5277 102.588 64.7501 101.798 64.7862C98.8159 64.9225 93.2501 64.748 90.8526 64.7299C88.46 64.7118 87.6872 64.7275 86.293 64.6967C83.7746 64.6411 84.6975 64.8061 83.1338 64.8816C81.5654 64.9571 82.3278 64.5512 82.1024 64.4639C81.8811 64.3767 81.6395 64.4665 81.3642 64.4185C81.0898 64.3706 81.6838 64.3113 81.0385 64.2933C80.3928 64.2753 78.6274 64.4305 78.3986 64.5217C77.9147 64.715 78.7102 64.9179 77.0017 64.8466C76.9035 64.8424 77.2224 64.7356 76.8461 64.7249C73.8577 64.6427 70.7531 64.6376 67.7684 64.5649C67.358 64.5548 67.725 64.436 67.4861 64.4288C64.9983 64.3528 65.8876 64.553 64.5241 64.7754C64.8303 64.4795 64.0763 64.2984 62.1882 64.2966C61.0532 64.2955 61.2486 64.4247 60.5145 64.5158C60.2943 64.5433 59.4912 64.4545 59.3456 64.5153C58.8657 64.7141 59.6222 64.9365 57.6756 64.848C57.5902 64.8438 57.8621 64.735 57.567 64.7284C55.6594 64.6853 55.4312 64.8931 53.3692 64.9183C51.753 64.9381 48.8785 64.8113 47.0382 64.7907C47.0769 64.4579 45.3386 64.5341 44.6335 64.7635C43.4391 64.7542 42.1491 64.7671 40.9948 64.7354C40.5975 64.7246 40.8585 64.6283 40.8084 64.6178C40.0402 64.4545 39.521 64.6778 39.2632 64.6865C36.4691 64.7716 34.1927 64.6024 31.5262 64.7677C31.4316 64.7737 31.2782 65.0048 30.5654 64.8361C30.5193 64.8244 31.4 64.7193 30.1456 64.7111C28.8911 64.703 26.5261 64.5791 24.7844 64.6862C24.363 64.712 23.2968 64.8996 22.4413 64.753C22.3273 64.7331 22.452 64.6668 22.2874 64.6299C21.7555 64.5123 21.4651 64.746 20.8399 64.5475C20.2147 64.349 18.9143 64.2004 17.1578 64.3373C17.1019 64.3413 16.6861 64.5265 16.1337 64.5236C15.2519 64.5187 14.0002 64.4801 13.0794 64.4813C12.6386 64.482 12.9208 64.597 12.8442 64.5991C9.88015 64.6635 7.77055 64.561 4.5952 64.5165C4.10489 64.5095 2.84059 64.6196 1.78064 64.5804C1.5629 64.5739 1.35973 64.4936 1.21271 64.3756C0.896933 64.0989 0.954298 63.8918 1.00145 63.7908C1.06034 63.6818 1.13907 63.613 1.20749 63.4841C1.29284 63.2241 1.33952 62.7356 1.28949 61.6777C1.2357 60.5306 0.519484 59.0783 0.890554 57.0167C0.798605 53.0186 0.988518 49.3211 0.857226 45.3118C0.851409 45.1315 0.65152 44.5613 0.65424 44.1375C0.658666 43.5082 0.752091 43.1628 0.758245 42.7135C0.786386 40.8307 0.706455 39.1078 0.718887 37.2925C0.723405 36.6034 0.820005 36.8443 0.825405 36.0223C0.830714 35.2008 0.703509 34.6531 0.764944 33.5398C0.811773 32.6991 1.07178 31.8585 1.10208 30.7425C0.845617 30.7 0.8509 29.9335 0.7832 28.5713C0.770064 28.3094 0.680801 28.5902 0.669983 28.4663C0.623977 27.9622 0.697956 27.4956 0.647876 27.017C0.635848 26.9005 0.548264 26.895 0.533487 26.7999C0.404503 25.9904 0.601515 24.6568 0.635817 24.4277C0.766091 23.5499 0.652178 23.1397 0.703479 22.4664C0.754774 21.7941 0.818897 22.7993 0.850024 22.014C0.914408 20.3863 0.900263 18.295 0.904288 16.6419C0.905353 15.9823 0.788442 16.4323 0.785879 16.3379C0.756227 14.974 0.880587 13.5948 0.647708 12.8386C1.24985 11.8929 0.589304 12.0161 0.709843 10.0666C0.719593 9.913 1.00434 9.71764 1.04614 10.3072C1.08791 10.8968 0.9989 11.7908 1.06406 12.6088C1.07936 12.8025 1.34618 13.9121 1.36235 14.0635C1.48867 15.2495 1.06315 15.4175 1.03978 15.4803C0.787563 16.1918 1.07502 17.5478 1.09488 17.9049C1.18589 19.5384 1.12605 20.9263 1.19101 22.2927C1.233 23.1863 1.51173 23.2737 1.5032 23.9754C1.475 26.308 1.08617 27.1222 1.42331 29.3203C1.49521 29.7917 1.79985 29.3233 1.56031 31.0121C1.5452 31.1182 1.32606 32.3721 1.46468 33.0965C1.48215 33.1875 1.57094 33.1846 1.57839 33.3046C1.62664 34.1088 1.55591 34.6451 1.58978 35.5211C1.62366 36.3971 1.67416 37.4504 1.64405 38.4505C1.62604 39.0533 1.46062 39.8266 1.42013 40.1152C1.30346 40.9299 1.49474 41.8034 1.35347 42.3082C1.21148 42.8172 0.995859 41.8221 0.90412 43.1568C1.13479 43.2062 1.37154 43.3198 1.60352 43.3992C1.59539 46.3242 1.52081 49.2021 1.531 52.1368C1.53249 52.5006 1.6565 52.1285 1.6613 52.5186C1.681 54.1642 1.5926 55.6015 1.6278 57.3081C1.65553 58.629 1.78682 60.0775 1.8199 61.4588C1.68378 61.8939 1.64169 62.6498 1.62954 63.4841C1.61796 63.5639 1.70085 63.6438 1.78064 63.6385C2.05288 63.6384 2.31774 63.6392 2.56687 63.6433C3.08847 63.6516 3.05357 63.7221 3.42452 63.7451C4.82387 63.8302 4.16815 63.5969 4.55177 63.5602C6.19767 63.4035 6.33864 63.9315 8.27911 63.9184C8.38194 63.9179 9.63859 63.6365 9.81168 63.619C10.9114 63.5047 9.99372 63.7169 10.682 63.7377C11.9387 63.7757 12.8119 63.8429 14.2863 63.7605C14.7162 63.7361 15.7476 63.5607 16.5824 63.6964C16.6923 63.7141 16.6316 63.8072 16.7199 63.8126C18.3201 63.9034 18.3622 63.6111 19.2766 63.5121C20.1912 63.4132 21.6037 63.6149 21.8912 63.6731C22.6432 63.8235 21.3149 63.7374 21.2742 63.7521C20.7958 63.9278 21.8259 63.8976 22.6131 63.9124C22.7271 64.199 23.8279 64.1818 23.4292 63.9267C23.3838 63.8988 22.7712 63.9255 22.6131 63.9124C23.3041 63.6312 24.5139 63.5952 25.8501 63.858C26.4756 63.9811 25.8843 64.1247 27.7844 64.0722C28.6467 64.0485 28.3135 63.8512 29.0745 63.7974C30.813 63.6746 33.0722 63.8587 34.8645 63.8297C35.5151 63.8192 34.8814 63.7111 35.3259 63.7002C36.5058 63.6709 37.5463 63.752 38.7312 63.7104C38.8386 63.7065 38.5763 63.5935 38.9447 63.592C41.7382 63.5789 44.1704 63.6513 47.087 63.6533C48.4962 63.6542 51.0156 63.5919 52.4754 63.6044C55.0055 63.6255 58.1179 63.7899 60.2793 63.75C61.689 63.7244 61.3797 63.6113 61.9837 63.5342C63.1494 63.3849 65.2125 63.6524 65.4904 63.6939C65.4988 63.6952 64.2858 63.7219 64.9331 63.7799C65.3094 63.9009 65.4767 63.6944 65.4904 63.6939C65.6728 63.7206 68.096 63.7463 68.5772 63.7247C68.8387 63.7129 68.6924 63.6057 68.8287 63.6016C72.0689 63.5057 75.3149 63.4785 78.6012 63.5286C78.6591 63.5307 78.572 63.6506 78.708 63.6542C80.6106 63.7075 81.8288 63.5608 83.3979 63.4738C84.9668 63.3868 86.211 63.4159 87.1398 63.6217C88.3235 63.5958 90.0219 63.6867 90.9992 63.7419C91.9764 63.7971 92.1129 63.5638 92.1988 63.5592C94.8809 63.4116 96.4313 63.5451 99.2138 63.5659C100.537 63.5762 103.161 63.5423 104.593 63.5168C105.725 63.4963 106.407 63.5509 107.45 63.516C107.591 63.5113 107.449 63.4074 107.492 63.4034C108.656 63.2792 108.096 63.5331 108.337 63.5785C109.208 63.7434 109.747 63.8312 111.237 63.7536C111.581 63.7359 112.583 63.3702 113.21 63.3488C114.024 63.3217 113.717 63.4528 114.57 63.421C114.643 63.4184 114.628 63.3376 115.155 63.3411C117.599 63.3566 120.264 63.4037 122.805 63.3956C123.152 63.3948 122.707 63.2665 123.208 63.2633C125.561 63.2481 128.139 63.2528 130.431 63.3128C130.995 63.328 130.642 63.4178 130.764 63.4445C131.516 63.6058 132.582 63.3714 132.758 63.3669C136.955 63.2543 140.166 63.4664 144.443 63.3654C144.676 63.3595 146.468 63.1082 147.268 63.3237C147.322 63.3381 148.114 63.5586 148.813 63.4078C148.856 63.3984 148.363 63.2849 149.224 63.2964C150.084 63.308 151.468 63.2322 152.651 63.3569C153.025 63.3962 153.91 63.6161 155.026 63.4408C155.099 63.4286 156.823 63.0321 157.438 63.3056C157.538 63.3507 157.434 63.6401 158.766 63.4917C159.021 63.4629 158.559 63.3984 159.23 63.3581C160.257 63.2959 161.619 63.3734 162.883 63.2445C163.103 63.2217 164.041 63.0252 164.794 63.1743C164.911 63.1977 164.687 63.2943 165.085 63.3051C165.24 63.3094 165.395 63.3129 165.551 63.3157C165.51 63.32 165.473 63.3375 165.445 63.3645C166.593 62.3669 167.742 61.3148 168.917 60.3494C169.442 59.9175 169.285 60.2645 169.843 59.8274C170.403 59.3902 171.5 58.4764 172.008 57.9325C172.517 57.3886 171.745 57.7376 172.565 56.988C174.349 55.3565 176.164 53.7762 177.987 52.2066C177.939 52.2526 177.914 52.3183 177.918 52.3812C177.946 50.265 177.979 48.1485 177.989 46.0246C177.992 45.3095 177.903 45.9024 177.901 44.8485C177.894 40.9631 177.811 34.2551 178 30.8836C178.152 28.1823 178.267 31.5817 178.329 29.5175C178.358 28.5214 178.069 27.4438 178.06 27.2033C177.967 24.8543 178.096 23.2217 178.056 21.1075C178.048 20.6709 177.931 21.0991 177.925 20.7275C177.905 19.4583 177.957 18.1243 177.947 16.9115C177.943 16.3674 177.853 16.4676 177.86 15.967C177.876 14.769 177.913 13.7096 177.997 12.5418C178.005 12.4353 178.117 13.1531 178.121 12.2668C178.127 10.8323 178.21 9.05169 178.124 7.4013C178.099 6.9116 177.894 6.8924 178.035 5.83979C178.065 5.61899 178.311 5.9007 178.098 4.67454C178.072 4.52316 177.911 3.37296 177.9 2.37207C177.893 2.45926 177.972 2.53891 178.039 2.51998C178.069 2.51515 178.133 2.47482 178.141 2.42227C177.852 2.36549 177.514 2.31667 177.201 2.33345C177.121 2.3385 177.441 2.4485 176.953 2.45923C175.233 2.49513 173.431 2.48339 171.664 2.51785C171.192 2.52727 171.895 2.6411 171.192 2.6515C169.258 2.68027 166.844 2.65129 164.953 2.61566C164.256 2.6023 164.738 2.50801 164.687 2.49775C163.872 2.33085 163.389 2.55613 163.118 2.56926C161.435 2.64792 160.153 2.5421 158.6 2.5701C158.172 2.57754 158.476 2.68496 158.391 2.69454C157.506 2.78812 158.165 2.59522 157.605 2.57395C156.037 2.51374 154.289 2.52238 152.704 2.5361C152.121 2.5413 152.776 2.66586 152.253 2.66908C149.159 2.69055 145.943 2.67863 142.924 2.60996C142.355 2.59681 142.713 2.5009 142.594 2.47899C141.778 2.32573 140.581 2.53478 140.306 2.55469C139.053 2.64562 138.567 2.5608 137.461 2.57663C132.059 2.65545 125.389 2.59928 120.29 2.56458C113.645 2.51991 108.489 2.42867 102.153 2.45236C101.75 2.45375 102.156 2.58134 101.809 2.58417C97.3268 2.61493 92.9142 2.56507 88.4231 2.60192C88.0545 2.60472 88.5858 2.72568 87.9942 2.73423C86.7809 2.75263 85.2439 2.74606 84.0172 2.70744C83.4188 2.68883 84.2214 2.58504 83.6191 2.56843C82.2167 2.52951 80.7134 2.5209 79.2729 2.54029C78.6599 2.54881 79.5848 2.67251 78.788 2.67394C73.3604 2.68621 68.0299 2.70752 62.5451 2.54732C62.1691 2.53632 61.8392 2.2849 61.0397 2.33312C60.9795 2.40289 60.9827 2.48497 60.9564 2.55955C53.0552 2.59973 45.2347 2.51257 37.3113 2.49909C36.9772 2.49855 37.5546 2.63177 36.9078 2.6314C33.1644 2.62943 29.5294 2.66633 25.7004 2.53393C25.3205 2.52098 25.5154 2.28662 24.3958 2.32206C24.1984 2.32853 22.5121 2.35979 22.0762 2.41066C22.017 2.41833 22.3246 2.52772 21.7813 2.53091C18.6236 2.54752 15.3147 2.52255 12.1625 2.45571C11.6538 2.44472 12.1955 2.32823 11.8332 2.31938C9.26293 2.25755 6.46721 2.3461 4.01119 2.24033C2.36722 2.16912 2.97587 1.96776 2.10228 1.76955C2.06363 1.7608 1.93743 1.75435 1.78064 1.7461C1.55381 1.70661 1.27685 1.90742 1.20589 1.88983C1.06078 1.84003 0.979042 1.69124 0.944705 1.50921C0.903644 1.33381 0.913158 1.12838 0.685193 1.1157C0.630256 1.09952 0.202528 1.54738 0.118199 1.9733C0.0636395 2.17728 0.0583969 2.34273 0.0408782 2.36855C0.0306525 2.3942 -0.0281421 2.282 0.0165883 1.9128C0.02121 1.86666 0.132001 1.37128 0.520026 0.996871C0.890354 0.603983 1.49705 0.450224 1.72746 0.431435C1.74883 0.428378 1.76637 0.425416 1.78064 0.42229C1.88525 0.377869 1.63984 0.272524 1.96296 0.227393C2.30877 0.179134 2.68876 0.277446 3.2621 0.220694C3.83519 0.163239 3.5832 0.0298171 4.72771 0.0140233ZM95.3996 63.9886C96.3046 64.1007 96.4381 63.6903 95.4593 63.7885C95.412 63.7937 95.353 63.9831 95.3996 63.9886ZM1.21128 49.1857C1.03028 50.3687 1.29642 51.1783 1.4362 50.3437C1.57584 49.5092 1.26615 48.8252 1.21128 49.1857ZM1.07914 36.918C0.936429 38.3007 1.51833 38.5183 1.4007 37.0374C1.39405 36.9513 1.08742 36.8372 1.07914 36.918ZM6.15352 1.71311C6.14102 1.70766 5.40925 1.70235 5.39176 1.70775C5.00211 1.83808 6.46536 1.84861 6.15352 1.71311ZM0.935271 24.7444C0.856556 25.176 0.947424 26.4188 1.04531 25.8825C1.12405 25.4507 1.03319 24.2068 0.935271 24.7444ZM142.605 64.4266C142.619 64.4327 143.144 64.4382 143.133 64.4036C143.098 64.2923 142.368 64.3237 142.605 64.4266ZM0.928572 4.05396C0.906668 7.11087 0.425988 8.96432 0.480228 5.63537C0.490042 5.03253 0.633514 6.93463 0.67685 6.16733C0.755801 4.76336 0.453993 3.83109 0.61572 2.39837C0.645321 2.13899 0.93089 3.87958 0.929242 4.05939C0.929019 4.05758 0.928796 4.05577 0.928572 4.05396ZM95.9207 64.4815C95.9388 64.4869 96.6651 64.4921 96.6825 64.4867C97.0758 64.3564 95.6127 64.346 95.9207 64.4815ZM171.551 59.788C171.588 59.7701 172.859 58.6635 172.894 58.6191C173.412 57.8778 170.842 60.1147 171.551 59.788ZM47.0092 64.7818C46.2168 64.9129 45.2688 64.9283 44.6371 64.7637C45.4246 64.7725 46.2174 64.7737 47.0092 64.7818Z" fill="#07596E"/>
<path d="M46.1474 38.2029H49.5314C50.6834 38.2029 51.2594 37.6109 51.2594 36.4269V28.6269C51.2594 27.4429 50.6834 26.8509 49.5314 26.8509H46.1474C45.9714 26.8509 45.8834 26.9309 45.8834 27.0909V37.9389C45.8834 38.1149 45.9714 38.2029 46.1474 38.2029ZM43.5554 39.8349V25.2189C43.5554 24.9469 43.6914 24.8109 43.9634 24.8109H49.8674C51.0354 24.8109 51.9474 25.1389 52.6034 25.7949C53.2754 26.4349 53.6114 27.3469 53.6114 28.5309V36.5229C53.6114 37.6909 53.2754 38.6029 52.6034 39.2589C51.9474 39.9149 51.0354 40.2429 49.8674 40.2429H43.9634C43.6914 40.2429 43.5554 40.1069 43.5554 39.8349ZM59.5559 25.2189V39.8349C59.5559 40.1069 59.4199 40.2429 59.1479 40.2429H57.6359C57.3639 40.2429 57.2279 40.1069 57.2279 39.8349V25.2189C57.2279 24.9469 57.3639 24.8109 57.6359 24.8109H59.1479C59.4199 24.8109 59.5559 24.9469 59.5559 25.2189ZM63.1303 36.4989V35.8749C63.1303 35.6029 63.2663 35.4669 63.5383 35.4669H65.0743C65.3463 35.4669 65.4823 35.6029 65.4823 35.8749V36.3069C65.4823 36.9789 65.6263 37.4669 65.9143 37.7709C66.2183 38.0589 66.7143 38.2029 67.4023 38.2029H69.0583C69.7463 38.2029 70.2423 38.0509 70.5463 37.7469C70.8503 37.4269 71.0023 36.9149 71.0023 36.2109V35.6589C71.0023 35.1469 70.8023 34.7469 70.4023 34.4589C70.0183 34.1549 69.5383 33.9629 68.9623 33.8829C68.3863 33.7869 67.7543 33.6589 67.0663 33.4989C66.3783 33.3389 65.7463 33.1549 65.1703 32.9469C64.5943 32.7389 64.1063 32.3469 63.7063 31.7709C63.3223 31.1949 63.1303 30.4589 63.1303 29.5629V28.5549C63.1303 27.3869 63.4583 26.4749 64.1143 25.8189C64.7863 25.1469 65.7063 24.8109 66.8743 24.8109H69.4183C70.6023 24.8109 71.5223 25.1469 72.1783 25.8189C72.8503 26.4749 73.1863 27.3869 73.1863 28.5549V29.0829C73.1863 29.3549 73.0503 29.4909 72.7783 29.4909H71.2423C70.9703 29.4909 70.8343 29.3549 70.8343 29.0829V28.7709C70.8343 28.0829 70.6823 27.5949 70.3783 27.3069C70.0903 27.0029 69.6023 26.8509 68.9143 26.8509H67.4023C66.7143 26.8509 66.2183 27.0109 65.9143 27.3309C65.6263 27.6349 65.4823 28.1629 65.4823 28.9149V29.6589C65.4823 30.3789 66.0023 30.8669 67.0423 31.1229C67.5063 31.2349 68.0103 31.3309 68.5543 31.4109C69.1143 31.4909 69.6743 31.6109 70.2343 31.7709C70.7943 31.9309 71.3063 32.1469 71.7703 32.4189C72.2343 32.6749 72.6103 33.0749 72.8983 33.6189C73.1863 34.1469 73.3303 34.7949 73.3303 35.5629V36.4989C73.3303 37.6669 72.9943 38.5869 72.3223 39.2589C71.6663 39.9149 70.7543 40.2429 69.5863 40.2429H66.8983C65.7303 40.2429 64.8103 39.9149 64.1383 39.2589C63.4663 38.5869 63.1303 37.6669 63.1303 36.4989ZM83.0707 40.2429H80.2867C79.1027 40.2429 78.1827 39.9149 77.5267 39.2589C76.8867 38.6029 76.5667 37.6909 76.5667 36.5229V28.5309C76.5667 27.3469 76.8867 26.4349 77.5267 25.7949C78.1827 25.1389 79.1027 24.8109 80.2867 24.8109H83.0707C84.2387 24.8109 85.1507 25.1389 85.8067 25.7949C86.4627 26.4349 86.7907 27.3469 86.7907 28.5309V29.6829C86.7907 29.9709 86.6467 30.1149 86.3587 30.1149H84.8467C84.5747 30.1149 84.4387 29.9709 84.4387 29.6829V28.6269C84.4387 27.4429 83.8627 26.8509 82.7107 26.8509H80.6227C79.4707 26.8509 78.8947 27.4429 78.8947 28.6269V36.4269C78.8947 37.6109 79.4707 38.2029 80.6227 38.2029H82.7107C83.8627 38.2029 84.4387 37.6109 84.4387 36.4269V35.3709C84.4387 35.0829 84.5747 34.9389 84.8467 34.9389H86.3587C86.6467 34.9389 86.7907 35.0829 86.7907 35.3709V36.5229C86.7907 37.6909 86.4627 38.6029 85.8067 39.2589C85.1507 39.9149 84.2387 40.2429 83.0707 40.2429ZM93.8236 38.2029H95.9116C97.0796 38.2029 97.6636 37.6109 97.6636 36.4269V28.6269C97.6636 27.4429 97.0796 26.8509 95.9116 26.8509H93.8236C92.6716 26.8509 92.0956 27.4429 92.0956 28.6269V36.4269C92.0956 37.6109 92.6716 38.2029 93.8236 38.2029ZM96.2716 40.2429H93.4876C92.3036 40.2429 91.3836 39.9149 90.7276 39.2589C90.0876 38.6029 89.7676 37.6909 89.7676 36.5229V28.5309C89.7676 27.3469 90.0876 26.4349 90.7276 25.7949C91.3836 25.1389 92.3036 24.8109 93.4876 24.8109H96.2716C97.4556 24.8109 98.3756 25.1389 99.0316 25.7949C99.6876 26.4349 100.016 27.3469 100.016 28.5309V36.5229C100.016 37.6909 99.6876 38.6029 99.0316 39.2589C98.3756 39.9149 97.4556 40.2429 96.2716 40.2429ZM109.106 40.2429H106.73C106.458 40.2429 106.29 40.1069 106.226 39.8349L102.242 25.2669C102.146 24.9629 102.266 24.8109 102.602 24.8109H104.306C104.562 24.8109 104.714 24.9469 104.762 25.2189L107.858 37.7469H107.954L111.026 25.2189C111.09 24.9469 111.25 24.8109 111.506 24.8109H113.186C113.522 24.8109 113.65 24.9629 113.57 25.2669L109.562 39.8349C109.498 40.1069 109.346 40.2429 109.106 40.2429ZM124.123 40.2429H116.443C116.171 40.2429 116.035 40.1069 116.035 39.8349V25.2189C116.035 24.9469 116.171 24.8109 116.443 24.8109H124.123C124.379 24.8109 124.507 24.9469 124.507 25.2189V26.4429C124.507 26.7149 124.379 26.8509 124.123 26.8509H118.651C118.459 26.8509 118.363 26.9309 118.363 27.0909V31.1469C118.363 31.3069 118.459 31.3869 118.651 31.3869H123.283C123.571 31.3869 123.715 31.5229 123.715 31.7949V33.0189C123.715 33.2909 123.571 33.4269 123.283 33.4269H118.651C118.459 33.4269 118.363 33.5069 118.363 33.6669V37.9389C118.363 38.1149 118.459 38.2029 118.651 38.2029H124.123C124.379 38.2029 124.507 38.3389 124.507 38.6109V39.8349C124.507 40.1069 124.379 40.2429 124.123 40.2429ZM129.726 40.2429H128.214C127.942 40.2429 127.806 40.1069 127.806 39.8349V25.2189C127.806 24.9469 127.942 24.8109 128.214 24.8109H133.83C134.998 24.8109 135.91 25.1469 136.566 25.8189C137.238 26.4749 137.574 27.3869 137.574 28.5549V30.5709C137.574 32.4109 136.814 33.5709 135.294 34.0509V34.1469L137.958 39.7629C138.134 40.0829 138.03 40.2429 137.646 40.2429H136.158C135.774 40.2429 135.526 40.1069 135.414 39.8349L132.846 34.3149H130.422C130.23 34.3149 130.134 34.3949 130.134 34.5549V39.8349C130.134 40.1069 129.998 40.2429 129.726 40.2429ZM130.398 32.3949H133.446C134.63 32.3949 135.222 31.8109 135.222 30.6429V28.6269C135.222 27.4429 134.63 26.8509 133.446 26.8509H130.398C130.222 26.8509 130.134 26.9309 130.134 27.0909V32.1549C130.134 32.3149 130.222 32.3949 130.398 32.3949Z" fill="#64E6F4"/>
<g filter="url(#filter0_f_61_231)">
<path d="M46.1474 38.2029H49.5314C50.6834 38.2029 51.2594 37.6109 51.2594 36.4269V28.6269C51.2594 27.4429 50.6834 26.8509 49.5314 26.8509H46.1474C45.9714 26.8509 45.8834 26.9309 45.8834 27.0909V37.9389C45.8834 38.1149 45.9714 38.2029 46.1474 38.2029ZM43.5554 39.8349V25.2189C43.5554 24.9469 43.6914 24.8109 43.9634 24.8109H49.8674C51.0354 24.8109 51.9474 25.1389 52.6034 25.7949C53.2754 26.4349 53.6114 27.3469 53.6114 28.5309V36.5229C53.6114 37.6909 53.2754 38.6029 52.6034 39.2589C51.9474 39.9149 51.0354 40.2429 49.8674 40.2429H43.9634C43.6914 40.2429 43.5554 40.1069 43.5554 39.8349ZM59.5559 25.2189V39.8349C59.5559 40.1069 59.4199 40.2429 59.1479 40.2429H57.6359C57.3639 40.2429 57.2279 40.1069 57.2279 39.8349V25.2189C57.2279 24.9469 57.3639 24.8109 57.6359 24.8109H59.1479C59.4199 24.8109 59.5559 24.9469 59.5559 25.2189ZM63.1303 36.4989V35.8749C63.1303 35.6029 63.2663 35.4669 63.5383 35.4669H65.0743C65.3463 35.4669 65.4823 35.6029 65.4823 35.8749V36.3069C65.4823 36.9789 65.6263 37.4669 65.9143 37.7709C66.2183 38.0589 66.7143 38.2029 67.4023 38.2029H69.0583C69.7463 38.2029 70.2423 38.0509 70.5463 37.7469C70.8503 37.4269 71.0023 36.9149 71.0023 36.2109V35.6589C71.0023 35.1469 70.8023 34.7469 70.4023 34.4589C70.0183 34.1549 69.5383 33.9629 68.9623 33.8829C68.3863 33.7869 67.7543 33.6589 67.0663 33.4989C66.3783 33.3389 65.7463 33.1549 65.1703 32.9469C64.5943 32.7389 64.1063 32.3469 63.7063 31.7709C63.3223 31.1949 63.1303 30.4589 63.1303 29.5629V28.5549C63.1303 27.3869 63.4583 26.4749 64.1143 25.8189C64.7863 25.1469 65.7063 24.8109 66.8743 24.8109H69.4183C70.6023 24.8109 71.5223 25.1469 72.1783 25.8189C72.8503 26.4749 73.1863 27.3869 73.1863 28.5549V29.0829C73.1863 29.3549 73.0503 29.4909 72.7783 29.4909H71.2423C70.9703 29.4909 70.8343 29.3549 70.8343 29.0829V28.7709C70.8343 28.0829 70.6823 27.5949 70.3783 27.3069C70.0903 27.0029 69.6023 26.8509 68.9143 26.8509H67.4023C66.7143 26.8509 66.2183 27.0109 65.9143 27.3309C65.6263 27.6349 65.4823 28.1629 65.4823 28.9149V29.6589C65.4823 30.3789 66.0023 30.8669 67.0423 31.1229C67.5063 31.2349 68.0103 31.3309 68.5543 31.4109C69.1143 31.4909 69.6743 31.6109 70.2343 31.7709C70.7943 31.9309 71.3063 32.1469 71.7703 32.4189C72.2343 32.6749 72.6103 33.0749 72.8983 33.6189C73.1863 34.1469 73.3303 34.7949 73.3303 35.5629V36.4989C73.3303 37.6669 72.9943 38.5869 72.3223 39.2589C71.6663 39.9149 70.7543 40.2429 69.5863 40.2429H66.8983C65.7303 40.2429 64.8103 39.9149 64.1383 39.2589C63.4663 38.5869 63.1303 37.6669 63.1303 36.4989ZM83.0707 40.2429H80.2867C79.1027 40.2429 78.1827 39.9149 77.5267 39.2589C76.8867 38.6029 76.5667 37.6909 76.5667 36.5229V28.5309C76.5667 27.3469 76.8867 26.4349 77.5267 25.7949C78.1827 25.1389 79.1027 24.8109 80.2867 24.8109H83.0707C84.2387 24.8109 85.1507 25.1389 85.8067 25.7949C86.4627 26.4349 86.7907 27.3469 86.7907 28.5309V29.6829C86.7907 29.9709 86.6467 30.1149 86.3587 30.1149H84.8467C84.5747 30.1149 84.4387 29.9709 84.4387 29.6829V28.6269C84.4387 27.4429 83.8627 26.8509 82.7107 26.8509H80.6227C79.4707 26.8509 78.8947 27.4429 78.8947 28.6269V36.4269C78.8947 37.6109 79.4707 38.2029 80.6227 38.2029H82.7107C83.8627 38.2029 84.4387 37.6109 84.4387 36.4269V35.3709C84.4387 35.0829 84.5747 34.9389 84.8467 34.9389H86.3587C86.6467 34.9389 86.7907 35.0829 86.7907 35.3709V36.5229C86.7907 37.6909 86.4627 38.6029 85.8067 39.2589C85.1507 39.9149 84.2387 40.2429 83.0707 40.2429ZM93.8236 38.2029H95.9116C97.0796 38.2029 97.6636 37.6109 97.6636 36.4269V28.6269C97.6636 27.4429 97.0796 26.8509 95.9116 26.8509H93.8236C92.6716 26.8509 92.0956 27.4429 92.0956 28.6269V36.4269C92.0956 37.6109 92.6716 38.2029 93.8236 38.2029ZM96.2716 40.2429H93.4876C92.3036 40.2429 91.3836 39.9149 90.7276 39.2589C90.0876 38.6029 89.7676 37.6909 89.7676 36.5229V28.5309C89.7676 27.3469 90.0876 26.4349 90.7276 25.7949C91.3836 25.1389 92.3036 24.8109 93.4876 24.8109H96.2716C97.4556 24.8109 98.3756 25.1389 99.0316 25.7949C99.6876 26.4349 100.016 27.3469 100.016 28.5309V36.5229C100.016 37.6909 99.6876 38.6029 99.0316 39.2589C98.3756 39.9149 97.4556 40.2429 96.2716 40.2429ZM109.106 40.2429H106.73C106.458 40.2429 106.29 40.1069 106.226 39.8349L102.242 25.2669C102.146 24.9629 102.266 24.8109 102.602 24.8109H104.306C104.562 24.8109 104.714 24.9469 104.762 25.2189L107.858 37.7469H107.954L111.026 25.2189C111.09 24.9469 111.25 24.8109 111.506 24.8109H113.186C113.522 24.8109 113.65 24.9629 113.57 25.2669L109.562 39.8349C109.498 40.1069 109.346 40.2429 109.106 40.2429ZM124.123 40.2429H116.443C116.171 40.2429 116.035 40.1069 116.035 39.8349V25.2189C116.035 24.9469 116.171 24.8109 116.443 24.8109H124.123C124.379 24.8109 124.507 24.9469 124.507 25.2189V26.4429C124.507 26.7149 124.379 26.8509 124.123 26.8509H118.651C118.459 26.8509 118.363 26.9309 118.363 27.0909V31.1469C118.363 31.3069 118.459 31.3869 118.651 31.3869H123.283C123.571 31.3869 123.715 31.5229 123.715 31.7949V33.0189C123.715 33.2909 123.571 33.4269 123.283 33.4269H118.651C118.459 33.4269 118.363 33.5069 118.363 33.6669V37.9389C118.363 38.1149 118.459 38.2029 118.651 38.2029H124.123C124.379 38.2029 124.507 38.3389 124.507 38.6109V39.8349C124.507 40.1069 124.379 40.2429 124.123 40.2429ZM129.726 40.2429H128.214C127.942 40.2429 127.806 40.1069 127.806 39.8349V25.2189C127.806 24.9469 127.942 24.8109 128.214 24.8109H133.83C134.998 24.8109 135.91 25.1469 136.566 25.8189C137.238 26.4749 137.574 27.3869 137.574 28.5549V30.5709C137.574 32.4109 136.814 33.5709 135.294 34.0509V34.1469L137.958 39.7629C138.134 40.0829 138.03 40.2429 137.646 40.2429H136.158C135.774 40.2429 135.526 40.1069 135.414 39.8349L132.846 34.3149H130.422C130.23 34.3149 130.134 34.3949 130.134 34.5549V39.8349C130.134 40.1069 129.998 40.2429 129.726 40.2429ZM130.398 32.3949H133.446C134.63 32.3949 135.222 31.8109 135.222 30.6429V28.6269C135.222 27.4429 134.63 26.8509 133.446 26.8509H130.398C130.222 26.8509 130.134 26.9309 130.134 27.0909V32.1549C130.134 32.3149 130.222 32.3949 130.398 32.3949Z" fill="#64E6F4"/>
</g>
<defs>
<filter id="filter0_f_61_231" x="42.5754" y="23.831" width="96.6264" height="17.3919" filterUnits="userSpaceOnUse" color-interpolation-filters="sRGB">
<feFlood flood-opacity="0" result="BackgroundImageFix"/>
<feBlend mode="normal" in="SourceGraphic" in2="BackgroundImageFix" result="shape"/>
<feGaussianBlur stdDeviation="0.49" result="effect1_foregroundBlur_61_231"/>
</filter>
</defs>
</svg>
