<svg width="180" height="65" viewBox="0 0 180 65" fill="none" xmlns="http://www.w3.org/2000/svg">
<path opacity="0.7" d="M4.71511 0.0140233C7.36563 -0.0217211 10.84 0.0164983 13.4805 0.0689567C14.308 0.0852267 13.889 0.157954 14.4603 0.172459C15.5775 0.200737 16.6184 0.165068 17.7225 0.198754C18.0884 0.210273 17.6329 0.325473 18.0166 0.334915C20.1191 0.385826 22.1081 0.356484 24.2379 0.380972C34.7288 0.50179 45.041 0.545035 55.6602 0.597523C59.1616 0.614732 63.418 0.71928 67.0346 0.673559C67.4568 0.668119 67.2051 0.567002 67.2854 0.558668C68.5453 0.431084 68.1264 0.635217 68.949 0.662338C72.2139 0.769424 75.8444 0.778738 78.9865 0.739714C80.3232 0.722816 78.983 0.521972 80.3289 0.634704C80.4224 0.642321 80.0832 0.749699 80.4498 0.761151C81.2811 0.78691 82.8584 0.767717 83.5027 0.776224C84.7444 0.793164 84.9499 0.792084 86.1244 0.793307C87.73 0.795915 89.6397 0.849292 91.3623 0.824961C91.73 0.819449 91.2432 0.709374 91.8297 0.690642C92.4166 0.671941 93.9694 0.681275 94.4928 0.707223C95.0165 0.733184 94.7935 0.819701 94.8862 0.839532C95.6485 1.00691 97.4447 0.775091 97.6757 0.769358C101.889 0.671673 105.503 0.803733 109.458 0.803356C112.461 0.80279 115.671 0.759193 118.528 0.765171C121.932 0.77272 124.817 0.832368 128.124 0.822114C128.473 0.821159 128.064 0.691736 128.49 0.690307C133.018 0.675247 137.515 0.689355 142.024 0.776727C142.476 0.785603 141.894 0.899236 142.345 0.914898C145.111 1.00828 149.488 1.23262 151.131 0.737872C153.004 0.757191 155.279 0.777151 156.955 0.87688C158.036 0.941067 156.986 1.06486 158.314 1.01204C158.613 1.00027 158.224 0.891857 158.673 0.882407C160.563 0.842719 162.629 0.877959 164.499 0.821947C164.879 0.810299 164.775 0.713159 164.883 0.695667C165.789 0.554003 167.297 0.788182 167.626 0.805199C170.129 0.932091 171.957 0.882156 174.289 0.885254C174.83 0.886027 174.191 0.755547 174.711 0.751605C175.844 0.743765 176.993 0.741183 178.141 0.745094C179.01 0.726566 179.784 1.5126 179.758 2.37207C179.749 3.43299 179.733 4.48544 179.711 5.51469C179.698 6.10293 179.586 5.56199 179.574 5.84308C179.523 7.08251 179.733 7.35727 179.687 8.54596C179.678 8.79657 179.583 8.65537 179.573 8.70113C179.409 9.41653 179.641 10.0382 179.646 10.2222C179.716 12.5499 179.474 14.0378 179.508 16.2865C179.512 16.5555 179.633 15.9489 179.638 16.7051C179.671 21.7431 179.638 27.0713 179.541 32.0581C179.527 32.8334 179.436 32.28 179.425 32.3287C179.251 33.1239 179.484 33.6385 179.493 33.8913C179.556 35.8858 179.361 37.7488 179.639 39.104C179.59 43.3516 179.605 47.5895 179.601 51.8186C179.603 52.2348 179.415 52.6466 179.1 52.9181C176.16 55.4734 173.212 58.0075 170.211 60.4717C170.129 60.5396 170.197 60.3275 170.034 60.4632C168.063 62.0965 168.551 61.9081 167.419 63.1856C167.262 63.3623 166.844 63.6392 166.483 63.8631C166.069 64.1491 165.65 64.0931 165.592 64.0872C165.578 64.0858 165.566 64.0842 165.554 64.0823C165.186 64.0082 165.595 63.8451 165.459 63.8317C164.3 63.7233 164.489 64.2889 162.926 64.2891C162.877 64.2881 163.082 64.184 162.951 64.1737C162.543 64.1412 162.139 64.1825 161.74 64.1467C160.827 64.0638 160.502 63.789 159.108 63.9489C158.931 63.9697 159.201 64.2905 157.805 64.2753C157.248 64.269 154.785 64.2745 154.095 64.2537C153.406 64.233 153.879 64.1296 153.83 64.1251C151.972 63.9884 152.677 63.9317 151.746 63.7294C150.815 63.5277 151.073 64.0086 150.694 64.0623C150.314 64.1158 148.952 64.003 148.617 63.9638C148.283 63.9246 148.7 63.8589 148.403 63.8367C146.43 63.6917 147.537 64.0754 146.887 64.1517C145.355 64.3325 144.161 63.9758 142.759 63.9409C142.379 63.9314 142.689 64.0127 142.351 64.0203C141.012 64.0493 140.207 63.938 138.684 64.04C138.435 64.0567 137.204 64.2711 136.407 64.1137C136.295 64.091 136.615 64.0022 136.045 63.9823C135.193 63.9524 133.657 63.9329 132.741 63.9627C132.065 63.9846 132.84 64.1311 131.989 64.0856C131.61 64.0653 132.311 63.9796 131.601 63.9486C130.894 63.9176 129.086 63.9213 128.398 63.9243C127.711 63.9273 128.087 64.0384 128.032 64.0459C127.696 64.0888 126.378 64.1423 126.262 64.1422C120.388 64.1558 114.971 63.9685 109.252 64.0305C108.803 64.0352 109.102 64.1523 109.034 64.1543C107.498 64.2033 108.709 63.8919 107.636 63.7876C107.791 64.0253 107.157 63.9823 106.075 64.0084C105.553 64.0211 105.837 64.1132 105.79 64.1226C105.016 64.2624 104.478 64.0818 104.339 64.0449C103.827 63.909 103.269 64.0696 102.921 63.9787C102.573 63.8886 103.374 63.7549 102.336 63.7567C102.045 63.8417 102.816 64.0641 102.028 64.1002C99.0544 64.2365 93.5042 64.062 91.1134 64.0439C88.7275 64.0258 87.9568 64.0415 86.5665 64.0107C84.0552 63.9551 84.9755 64.1201 83.4162 64.1956C81.8523 64.2711 82.6125 63.8652 82.3877 63.7779C82.167 63.6907 81.926 63.7805 81.6516 63.7325C81.3779 63.6846 81.9703 63.6253 81.3268 63.6073C80.6829 63.5893 78.9225 63.7445 78.6943 63.8357C78.2118 64.029 79.0051 64.2319 77.3013 64.1606C77.2034 64.1564 77.5214 64.0496 77.1461 64.0389C74.1661 63.9567 71.0703 63.9516 68.0939 63.8789C67.6846 63.8688 68.0506 63.75 67.8124 63.7428C65.3316 63.6668 66.2184 63.867 64.8587 64.0894C65.164 63.7934 64.4121 63.6124 62.5293 63.6106C61.3975 63.6095 61.5924 63.7387 60.8603 63.8298C60.6407 63.8573 59.8399 63.7685 59.6947 63.8293C59.2162 64.0281 59.9705 64.2505 58.0294 64.162C57.9442 64.1577 58.2154 64.049 57.9211 64.0424C56.0188 63.9993 55.7913 64.2071 53.7351 64.2323C52.1233 64.252 49.2569 64.1253 47.4217 64.1047C47.4603 63.7719 45.7269 63.8481 45.0238 64.0775C43.8328 64.0682 42.5464 64.0811 41.3953 64.0494C40.9991 64.0386 41.2594 63.9422 41.2094 63.9318C40.4434 63.7685 39.9256 63.9918 39.6685 64.0005C36.8824 64.0856 34.6123 63.9164 31.9533 64.0817C31.8589 64.0877 31.706 64.3188 30.9952 64.1501C30.9492 64.1384 31.8274 64.0333 30.5766 64.0251C29.3255 64.017 26.9672 63.8931 25.2303 64.0002C24.8101 64.026 23.747 64.2136 22.8938 64.067C22.7801 64.0471 22.9044 63.9808 22.7404 63.9439C22.21 63.8263 21.9203 64.06 21.2969 63.8615C20.6735 63.663 19.3767 63.5144 17.6251 63.6513C17.5693 63.6553 17.1547 63.8405 16.6039 63.8375C15.7246 63.8327 14.4763 63.7941 13.5582 63.7953C13.1186 63.796 13.3999 63.911 13.3236 63.9131C10.3679 63.9775 8.26416 63.875 5.09772 63.8305C4.52668 63.8223 2.90315 63.9739 1.7807 63.8608C1.76087 63.8589 1.74148 63.8564 1.72234 63.8534C1.20659 63.7289 1.24981 63.4795 1.25771 63.3535C1.28748 63.2058 1.26843 63.074 1.29365 62.7981C1.31531 62.5045 1.31721 62.0948 1.28955 61.5115C1.23576 60.3676 0.519545 58.9193 0.890615 56.8636C0.798666 52.8766 0.988579 49.1895 0.857287 45.1914C0.85147 45.0117 0.651581 44.4431 0.654301 44.0204C0.658727 43.3929 0.752152 43.0485 0.758306 42.6004C0.786447 40.7229 0.706516 39.0049 0.718948 37.1947C0.723466 36.5074 0.820066 36.7477 0.825466 35.928C0.830775 35.1088 0.70357 34.5626 0.765005 33.4525C0.811834 32.6141 1.07184 31.7759 1.10214 30.663C0.845679 30.6206 0.850961 29.8563 0.783261 28.4978C0.770125 28.2367 0.680862 28.5167 0.670044 28.3932C0.624038 27.8905 0.698017 27.4252 0.647937 26.9479C0.635909 26.8318 0.548325 26.8263 0.533548 26.7314C0.404564 25.9242 0.601576 24.5943 0.635878 24.3659C0.766152 23.4906 0.652239 23.0815 0.70354 22.41C0.754835 21.7397 0.818958 22.742 0.850085 21.959C0.914469 20.3359 0.900324 18.2504 0.904349 16.6019C0.905414 15.9442 0.788503 16.3929 0.78594 16.2988C0.756288 14.9387 0.880648 13.5634 0.647769 12.8092C1.24991 11.8663 0.589365 11.9891 0.709904 10.045C0.719654 9.89187 1.0044 9.69706 1.0462 10.285C1.08797 10.8729 0.998961 11.7644 1.06412 12.5801C1.07942 12.7733 1.34624 13.8798 1.36241 14.0308C1.48873 15.2134 1.06321 15.381 1.03984 15.4436C0.787624 16.1531 1.07508 17.5053 1.09494 17.8613C1.18595 19.4903 1.12611 20.8743 1.19107 22.2368C1.23306 23.1279 1.51179 23.2151 1.50326 23.9148C1.47506 26.2409 1.08623 27.0529 1.42337 29.2448C1.49527 29.7148 1.79992 29.2477 1.56037 30.9319C1.54527 31.0377 1.32612 32.288 1.46474 33.0104C1.48221 33.1012 1.571 33.0983 1.57846 33.2179C1.6267 34.0199 1.55597 34.5547 1.58984 35.4282C1.62372 36.3017 1.67422 37.3521 1.64411 38.3494C1.6261 38.9505 1.46068 39.7217 1.42019 40.0094C1.30352 40.8218 1.4948 41.6929 1.35353 42.1963C1.21155 42.7038 0.99592 41.7115 0.904181 43.0425C1.13485 43.0918 1.3716 43.205 1.60358 43.2843C1.59546 46.201 1.52087 49.0709 1.53106 51.9973C1.53255 52.3602 1.65656 51.9891 1.66136 52.3781C1.68106 54.019 1.59266 55.4523 1.62786 57.1541C1.65559 58.4714 1.78688 59.9158 1.81996 61.2932C1.71261 61.6354 1.66374 62.1765 1.64192 62.7981C1.61906 62.8683 1.69608 62.9597 1.7807 62.9534C2.22983 62.9525 2.67298 62.9507 3.07506 62.9573C3.59521 62.9656 3.56043 63.0361 3.93031 63.0591C5.32574 63.1442 4.67188 62.9109 5.05442 62.8742C6.69571 62.7175 6.83624 63.2455 8.77132 63.2324C8.87384 63.2319 10.127 62.9505 10.2996 62.933C11.3963 62.8187 10.4811 63.0309 11.1675 63.0517C12.4206 63.0897 13.2914 63.1569 14.7617 63.0745C15.1904 63.0501 16.2188 62.8747 17.0514 63.0104C17.1609 63.0281 17.1004 63.1211 17.1885 63.1266C18.7842 63.2174 18.8262 62.9251 19.738 62.8261C20.65 62.7272 22.0586 62.9289 22.3452 62.9871C23.0952 63.1375 21.7706 63.0514 21.73 63.0661C21.2529 63.2418 22.2802 63.2116 23.0652 63.2264C23.1788 63.513 24.2766 63.4958 23.8789 63.2407C23.8336 63.2128 23.2228 63.2395 23.0652 63.2264C23.7542 62.9452 24.9606 62.9092 26.2931 63.172C26.9168 63.2951 26.3272 63.4387 28.2219 63.3862C29.0818 63.3625 28.7495 63.1651 29.5084 63.1114C31.2421 62.9886 33.4949 63.1727 35.2822 63.1437C35.9309 63.1331 35.299 63.0251 35.7423 63.0142C36.9189 62.9849 37.9565 63.0659 39.1381 63.0244C39.2451 63.0205 38.9835 62.9075 39.351 62.906C42.1366 62.8929 44.5621 62.9653 47.4704 62.9673C48.8757 62.9682 51.388 62.9059 52.8437 62.9184C55.3667 62.9395 58.4705 63.1039 60.6258 63.064C62.0315 63.0384 61.7231 62.9253 62.3255 62.8482C63.4878 62.6989 65.5452 62.9664 65.8222 63.0079C65.8307 63.0092 64.621 63.0359 65.2665 63.0939C65.6417 63.2149 65.8086 63.0084 65.8222 63.0079C66.0041 63.0346 68.4206 63.0603 68.9004 63.0387C69.1611 63.0269 69.0153 62.9197 69.1512 62.9156C72.3824 62.8197 75.6192 62.7924 78.8964 62.8425C78.954 62.8447 78.8671 62.9646 79.0028 62.9682C80.9 63.0214 82.1149 62.8748 83.6796 62.7878C85.2441 62.7008 86.4848 62.7299 87.411 62.9357C88.5914 62.9098 90.285 63.0007 91.2596 63.0559C92.2341 63.1111 92.3701 62.8778 92.4558 62.8732C95.1304 62.7256 96.6765 62.8591 99.4512 62.8799C100.77 62.8902 103.387 62.8563 104.815 62.8308C105.944 62.8103 106.624 62.8649 107.664 62.83C107.805 62.8253 107.663 62.7214 107.706 62.7174C108.867 62.5932 108.309 62.8471 108.549 62.8925C109.418 63.0574 109.954 63.1452 111.441 63.0676C111.784 63.0499 112.783 62.6842 113.408 62.6628C114.22 62.6357 113.914 62.7668 114.765 62.735C114.837 62.7324 114.822 62.6516 115.347 62.6551C117.785 62.6706 120.443 62.7177 122.976 62.7096C123.322 62.7088 122.878 62.5805 123.378 62.5773C125.724 62.5621 128.296 62.5668 130.581 62.6268C131.144 62.642 130.791 62.7318 130.913 62.7585C131.663 62.9198 132.726 62.6854 132.902 62.6809C137.086 62.5683 140.289 62.7804 144.554 62.6794C144.786 62.6735 146.573 62.4222 147.37 62.6377C147.425 62.6521 148.214 62.8726 148.911 62.7218C148.955 62.7124 148.463 62.5989 149.321 62.6104C150.179 62.622 151.559 62.5462 152.738 62.6709C153.112 62.7102 153.994 62.9301 155.107 62.7548C155.18 62.7425 156.899 62.3461 157.513 62.6196C157.612 62.6647 157.508 62.9541 158.837 62.8057C159.091 62.7769 158.63 62.7124 159.299 62.6721C160.324 62.6099 161.682 62.6874 162.942 62.5585C163.161 62.5357 164.097 62.3392 164.847 62.4883C164.965 62.5117 164.741 62.6083 165.138 62.6191C165.276 62.6229 165.415 62.6261 165.554 62.6288C165.514 62.6333 165.477 62.6509 165.449 62.6776C166.612 61.6791 167.776 60.6232 168.966 59.6561C169.492 59.2284 169.334 59.5738 169.893 59.1411C170.453 58.7082 171.552 57.803 172.062 57.2633C172.573 56.7235 171.8 57.0668 172.622 56.3237C174.388 54.7262 176.183 53.1788 177.987 51.6424C177.939 51.6886 177.913 51.7549 177.917 51.8186C177.945 49.6815 177.979 47.5442 177.989 45.3993C177.992 44.6862 177.903 45.2773 177.901 44.2265C177.895 40.352 177.811 33.6627 178 30.3007C178.152 27.6069 178.267 30.9969 178.329 28.9384C178.358 27.9451 178.069 26.8705 178.06 26.6307C177.967 24.2882 178.096 22.6603 178.056 20.5519C178.048 20.1165 177.931 20.5436 177.925 20.173C177.905 18.9074 177.957 17.5771 177.948 16.3677C177.943 15.8251 177.853 15.9251 177.86 15.4258C177.876 14.2312 177.913 13.1748 177.997 12.0103C178.005 11.9041 178.117 12.6198 178.121 11.736C178.127 10.3055 178.21 8.52994 178.124 6.88417C178.099 6.39585 177.894 6.37671 178.035 5.32704C178.065 5.10686 178.311 5.38778 178.098 4.16506C178.077 4.03911 177.961 3.21977 177.917 2.37207C177.879 2.50299 178.04 2.62691 178.125 2.55091C178.13 2.54632 178.136 2.53987 178.141 2.5319C177.83 2.46358 177.231 2.30513 176.705 2.33345C176.625 2.3385 176.944 2.4485 176.458 2.45923C174.743 2.49513 172.946 2.48339 171.184 2.51785C170.713 2.52727 171.414 2.6411 170.713 2.6515C168.785 2.68027 166.377 2.65129 164.492 2.61566C163.796 2.6023 164.277 2.50801 164.226 2.49775C163.413 2.33085 162.932 2.55613 162.662 2.56926C160.983 2.64792 159.704 2.5421 158.157 2.5701C157.729 2.57754 158.032 2.68496 157.947 2.69454C157.066 2.78812 157.722 2.59522 157.164 2.57395C155.601 2.51374 153.858 2.52238 152.276 2.5361C151.695 2.5413 152.348 2.66586 151.827 2.66908C148.742 2.69055 145.535 2.67863 142.524 2.60996C141.957 2.59681 142.314 2.5009 142.196 2.47899C141.381 2.32573 140.188 2.53478 139.913 2.55469C138.664 2.64562 138.179 2.5608 137.077 2.57663C131.69 2.65545 125.039 2.59928 119.954 2.56458C113.328 2.51991 108.186 2.42867 101.867 2.45236C101.466 2.45375 101.87 2.58134 101.524 2.58417C97.0547 2.61493 92.6544 2.56507 88.1759 2.60192C87.8084 2.60472 88.3381 2.72568 87.7483 2.73423C86.5384 2.75263 85.0057 2.74606 83.7824 2.70744C83.1857 2.68883 83.986 2.58504 83.3854 2.56843C81.987 2.52951 80.4879 2.5209 79.0514 2.54029C78.4401 2.54881 79.3624 2.67251 78.5679 2.67394C73.1555 2.68621 67.8399 2.70752 62.3705 2.54732C61.9955 2.53632 61.6665 2.2849 60.8693 2.33312C60.8092 2.40289 60.8125 2.48497 60.7863 2.55955C52.9072 2.59973 45.1086 2.51257 37.2074 2.49909C36.8742 2.49855 37.45 2.63177 36.805 2.6314C33.0722 2.62943 29.4473 2.66633 25.629 2.53393C25.2502 2.52098 25.4445 2.28662 24.3281 2.32206C24.1312 2.32853 22.4497 2.35979 22.015 2.41066C21.9559 2.41833 22.2627 2.52772 21.7209 2.53091C18.5721 2.54752 15.2724 2.52255 12.1291 2.45571C11.6218 2.44472 12.162 2.32823 11.8007 2.31938C9.23763 2.25755 6.44974 2.3461 4.0006 2.24033C2.36124 2.16912 2.96818 1.96776 2.09704 1.76955C2.05886 1.76088 1.93501 1.75448 1.7807 1.74633C1.55434 1.70656 1.27617 1.90836 1.205 1.89096C1.0599 1.84131 0.977779 1.69284 0.942833 1.51109C0.901195 1.33596 0.909888 1.13074 0.682258 1.11832C0.627398 1.10228 0.201879 1.54971 0.117997 1.9744C0.063714 2.17783 0.0584546 2.34281 0.0409393 2.36856C0.0306756 2.39413 -0.0279325 2.28227 0.01632 1.91407C0.0208995 1.86802 0.130917 1.37406 0.516904 0.999797C0.885227 0.607208 1.48936 0.451529 1.7192 0.431678C1.74496 0.427874 1.76513 0.424216 1.7807 0.42028C1.87351 0.374767 1.64066 0.271856 1.95811 0.227393C2.30294 0.179134 2.68188 0.277446 3.25361 0.220694C3.82509 0.163239 3.57381 0.0298171 4.71511 0.0140233ZM95.6477 63.3026C96.5501 63.4147 96.6832 63.0043 95.7072 63.1025C95.66 63.1077 95.6011 63.2971 95.6477 63.3026ZM1.21134 49.0545C1.03034 50.2342 1.29648 51.0415 1.43626 50.2093C1.5759 49.3771 1.26621 48.6951 1.21134 49.0545ZM1.0792 36.8212C0.93649 38.2 1.51839 38.417 1.40076 36.9403C1.39411 36.8544 1.08748 36.7406 1.0792 36.8212ZM6.13692 1.71311C6.12446 1.70766 5.39474 1.70235 5.3773 1.70775C4.98874 1.83808 6.44789 1.84861 6.13692 1.71311ZM0.935332 24.6817C0.856617 25.1121 0.947485 26.3514 1.04537 25.8166C1.12411 25.3861 1.03325 24.1456 0.935332 24.6817ZM142.721 63.7406C142.735 63.7467 143.258 63.7522 143.248 63.7176C143.212 63.6063 142.484 63.6377 142.721 63.7406ZM0.928633 4.04925C0.90673 7.09759 0.426049 8.94584 0.480289 5.62623C0.490103 5.02507 0.633575 6.92185 0.676911 6.15669C0.755862 4.75665 0.454054 3.82701 0.615781 2.39829C0.645382 2.13965 0.930951 3.87535 0.929303 4.05466C0.92908 4.05286 0.928857 4.05105 0.928633 4.04925ZM96.1673 63.7955C96.1854 63.8009 96.9096 63.8061 96.927 63.8007C97.3191 63.6704 95.8602 63.66 96.1673 63.7955ZM171.598 59.1133C171.636 59.0958 172.909 57.9991 172.944 57.955C173.464 57.2182 170.889 59.4348 171.598 59.1133ZM47.3929 64.0958C46.6026 64.2269 45.6573 64.2423 45.0274 64.0777C45.8127 64.0864 46.6032 64.0877 47.3929 64.0958Z" fill="#07596E"/>
<path d="M68.3389 40.092H60.5629C60.2909 40.092 60.1549 39.956 60.1549 39.684V25.068C60.1549 24.796 60.2909 24.66 60.5629 24.66H62.0749C62.3469 24.66 62.4829 24.796 62.4829 25.068V37.764C62.4829 37.924 62.5789 38.004 62.7709 38.004H68.3389C68.6109 38.004 68.7469 38.148 68.7469 38.436V39.684C68.7469 39.956 68.6109 40.092 68.3389 40.092ZM75.0155 38.052H77.1035C78.2715 38.052 78.8555 37.46 78.8555 36.276V28.476C78.8555 27.292 78.2715 26.7 77.1035 26.7H75.0155C73.8635 26.7 73.2875 27.292 73.2875 28.476V36.276C73.2875 37.46 73.8635 38.052 75.0155 38.052ZM77.4635 40.092H74.6795C73.4955 40.092 72.5755 39.764 71.9195 39.108C71.2795 38.452 70.9595 37.54 70.9595 36.372V28.38C70.9595 27.196 71.2795 26.284 71.9195 25.644C72.5755 24.988 73.4955 24.66 74.6795 24.66H77.4635C78.6475 24.66 79.5675 24.988 80.2235 25.644C80.8795 26.284 81.2075 27.196 81.2075 28.38V36.372C81.2075 37.54 80.8795 38.452 80.2235 39.108C79.5675 39.764 78.6475 40.092 77.4635 40.092ZM90.7297 40.092H88.1617C86.9777 40.092 86.0577 39.764 85.4017 39.108C84.7617 38.452 84.4417 37.54 84.4417 36.372V28.38C84.4417 27.196 84.7617 26.284 85.4017 25.644C86.0577 24.988 86.9777 24.66 88.1617 24.66H90.7297C91.9137 24.66 92.8257 24.988 93.4657 25.644C94.1217 26.284 94.4497 27.196 94.4497 28.38V29.244C94.4497 29.532 94.3137 29.676 94.0417 29.676H92.5297C92.2577 29.676 92.1217 29.532 92.1217 29.244V28.476C92.1217 27.292 91.5457 26.7 90.3937 26.7H88.4977C87.3457 26.7 86.7697 27.292 86.7697 28.476V36.276C86.7697 37.46 87.3457 38.052 88.4977 38.052H90.3937C91.5457 38.052 92.1217 37.46 92.1217 36.276V34.116C92.1217 33.956 92.0337 33.876 91.8577 33.876H89.9137C89.6417 33.876 89.5057 33.74 89.5057 33.468V32.244C89.5057 31.972 89.6417 31.836 89.9137 31.836H93.9457C94.2817 31.836 94.4497 32.004 94.4497 32.34V36.372C94.4497 37.54 94.1217 38.452 93.4657 39.108C92.8097 39.764 91.8977 40.092 90.7297 40.092ZM106.36 25.068V39.684C106.36 39.956 106.224 40.092 105.952 40.092H104.44C104.168 40.092 104.032 39.956 104.032 39.684V25.068C104.032 24.796 104.168 24.66 104.44 24.66H105.952C106.224 24.66 106.36 24.796 106.36 25.068ZM112.118 40.092H110.63C110.358 40.092 110.222 39.956 110.222 39.684V25.068C110.222 24.796 110.358 24.66 110.63 24.66H111.974C112.23 24.66 112.406 24.748 112.502 24.924L118.31 35.364H118.406V25.068C118.406 24.796 118.542 24.66 118.814 24.66H120.302C120.574 24.66 120.71 24.796 120.71 25.068V39.684C120.71 39.956 120.574 40.092 120.302 40.092H119.006C118.75 40.092 118.542 39.964 118.382 39.708L112.622 29.388H112.526V39.684C112.526 39.956 112.39 40.092 112.118 40.092Z" fill="#64E6F4"/>
<g filter="url(#filter0_f_61_229)">
<path d="M68.3389 40.092H60.5629C60.2909 40.092 60.1549 39.956 60.1549 39.684V25.068C60.1549 24.796 60.2909 24.66 60.5629 24.66H62.0749C62.3469 24.66 62.4829 24.796 62.4829 25.068V37.764C62.4829 37.924 62.5789 38.004 62.7709 38.004H68.3389C68.6109 38.004 68.7469 38.148 68.7469 38.436V39.684C68.7469 39.956 68.6109 40.092 68.3389 40.092ZM75.0155 38.052H77.1035C78.2715 38.052 78.8555 37.46 78.8555 36.276V28.476C78.8555 27.292 78.2715 26.7 77.1035 26.7H75.0155C73.8635 26.7 73.2875 27.292 73.2875 28.476V36.276C73.2875 37.46 73.8635 38.052 75.0155 38.052ZM77.4635 40.092H74.6795C73.4955 40.092 72.5755 39.764 71.9195 39.108C71.2795 38.452 70.9595 37.54 70.9595 36.372V28.38C70.9595 27.196 71.2795 26.284 71.9195 25.644C72.5755 24.988 73.4955 24.66 74.6795 24.66H77.4635C78.6475 24.66 79.5675 24.988 80.2235 25.644C80.8795 26.284 81.2075 27.196 81.2075 28.38V36.372C81.2075 37.54 80.8795 38.452 80.2235 39.108C79.5675 39.764 78.6475 40.092 77.4635 40.092ZM90.7297 40.092H88.1617C86.9777 40.092 86.0577 39.764 85.4017 39.108C84.7617 38.452 84.4417 37.54 84.4417 36.372V28.38C84.4417 27.196 84.7617 26.284 85.4017 25.644C86.0577 24.988 86.9777 24.66 88.1617 24.66H90.7297C91.9137 24.66 92.8257 24.988 93.4657 25.644C94.1217 26.284 94.4497 27.196 94.4497 28.38V29.244C94.4497 29.532 94.3137 29.676 94.0417 29.676H92.5297C92.2577 29.676 92.1217 29.532 92.1217 29.244V28.476C92.1217 27.292 91.5457 26.7 90.3937 26.7H88.4977C87.3457 26.7 86.7697 27.292 86.7697 28.476V36.276C86.7697 37.46 87.3457 38.052 88.4977 38.052H90.3937C91.5457 38.052 92.1217 37.46 92.1217 36.276V34.116C92.1217 33.956 92.0337 33.876 91.8577 33.876H89.9137C89.6417 33.876 89.5057 33.74 89.5057 33.468V32.244C89.5057 31.972 89.6417 31.836 89.9137 31.836H93.9457C94.2817 31.836 94.4497 32.004 94.4497 32.34V36.372C94.4497 37.54 94.1217 38.452 93.4657 39.108C92.8097 39.764 91.8977 40.092 90.7297 40.092ZM106.36 25.068V39.684C106.36 39.956 106.224 40.092 105.952 40.092H104.44C104.168 40.092 104.032 39.956 104.032 39.684V25.068C104.032 24.796 104.168 24.66 104.44 24.66H105.952C106.224 24.66 106.36 24.796 106.36 25.068ZM112.118 40.092H110.63C110.358 40.092 110.222 39.956 110.222 39.684V25.068C110.222 24.796 110.358 24.66 110.63 24.66H111.974C112.23 24.66 112.406 24.748 112.502 24.924L118.31 35.364H118.406V25.068C118.406 24.796 118.542 24.66 118.814 24.66H120.302C120.574 24.66 120.71 24.796 120.71 25.068V39.684C120.71 39.956 120.574 40.092 120.302 40.092H119.006C118.75 40.092 118.542 39.964 118.382 39.708L112.622 29.388H112.526V39.684C112.526 39.956 112.39 40.092 112.118 40.092Z" fill="#64E6F4"/>
</g>
<defs>
<filter id="filter0_f_61_229" x="59.1748" y="23.6802" width="62.5152" height="17.3919" filterUnits="userSpaceOnUse" color-interpolation-filters="sRGB">
<feFlood flood-opacity="0" result="BackgroundImageFix"/>
<feBlend mode="normal" in="SourceGraphic" in2="BackgroundImageFix" result="shape"/>
<feGaussianBlur stdDeviation="0.49" result="effect1_foregroundBlur_61_229"/>
</filter>
</defs>
</svg>
