<svg width="116" height="31" viewBox="0 0 116 31" fill="none" xmlns="http://www.w3.org/2000/svg">
<path d="M91.5186 0.639648L91.4648 25.0537L90 28.1104L89.082 29.9199H0.639648V0.639648H91.5186Z" stroke="#F75049" stroke-opacity="0.3" stroke-width="1.28"/>
<path d="M12.2483 11.45C12.5108 11.45 12.7358 11.5391 12.9233 11.7172C13.1108 11.8859 13.2092 12.1016 13.2186 12.3641V15.7531C13.2092 16.1375 13.2327 16.4937 13.2889 16.8219C13.3546 17.1406 13.5046 17.4266 13.7389 17.6797C13.9733 17.9328 14.2686 18.0687 14.6249 18.0875H19.1249C19.3874 18.0969 19.603 18.1953 19.7717 18.3828C19.9499 18.5703 20.0389 18.7953 20.0389 19.0578C20.0296 19.3109 19.9358 19.5266 19.7577 19.7047C19.5889 19.8734 19.378 19.9625 19.1249 19.9719H14.1467C13.4905 19.9344 12.9467 19.7141 12.5155 19.3109C12.0936 18.8984 11.7889 18.3969 11.6014 17.8062C11.4233 17.2156 11.3296 16.5875 11.3202 15.9219V12.3641C11.3296 12.1109 11.4233 11.9 11.6014 11.7312C11.7796 11.5531 11.9952 11.4594 12.2483 11.45ZM28.3504 11.675C28.8286 11.6844 29.2551 11.8344 29.6301 12.125C30.0051 12.4156 30.3051 12.7625 30.5301 13.1656C30.7645 13.5687 30.9379 13.9953 31.0504 14.4453C31.1629 14.8953 31.2192 15.3547 31.2192 15.8234C31.2192 16.4422 31.1207 17.0516 30.9239 17.6516C30.7364 18.2422 30.4223 18.7672 29.9817 19.2266C29.5504 19.6859 29.0067 19.9344 28.3504 19.9719H23.4426C22.7864 19.9437 22.2379 19.7 21.7973 19.2406C21.3567 18.7812 21.0426 18.2516 20.8551 17.6516C20.677 17.0516 20.5879 16.4422 20.5879 15.8234C20.5879 15.2047 20.6817 14.6 20.8692 14.0094C21.0567 13.4094 21.3661 12.8797 21.7973 12.4203C22.2379 11.9516 22.7864 11.7031 23.4426 11.675H23.7098H28.0832H28.3504ZM27.8723 18.0875C28.2286 18.0687 28.5239 17.9375 28.7582 17.6937C29.002 17.4406 29.1754 17.15 29.2786 16.8219C29.3817 16.4937 29.4332 16.1609 29.4332 15.8234C29.4332 15.4859 29.377 15.1578 29.2645 14.8391C29.1614 14.5109 28.9926 14.2203 28.7582 13.9672C28.5239 13.7141 28.2286 13.5781 27.8723 13.5594H23.8786C23.5223 13.5781 23.227 13.7141 22.9926 13.9672C22.7582 14.2203 22.5848 14.5109 22.4723 14.8391C22.3692 15.1578 22.3176 15.4859 22.3176 15.8234C22.3176 16.1609 22.3692 16.4937 22.4723 16.8219C22.5754 17.15 22.7442 17.4406 22.9786 17.6937C23.2223 17.9375 23.5223 18.0687 23.8786 18.0875H27.8723ZM34.8479 11.675H40.7822C41.0447 11.6844 41.2604 11.7828 41.4291 11.9703C41.6072 12.1578 41.6963 12.3828 41.6963 12.6453C41.6494 13.2078 41.3447 13.5125 40.7822 13.5594H35.326C34.9697 13.5781 34.6744 13.7141 34.4401 13.9672C34.2057 14.2203 34.0322 14.5109 33.9197 14.8391C33.8166 15.1578 33.7651 15.4859 33.7651 15.8234C33.7651 16.1609 33.8166 16.4937 33.9197 16.8219C34.0322 17.1406 34.2057 17.4266 34.4401 17.6797C34.6744 17.9328 34.9697 18.0687 35.326 18.0875H39.601C39.7697 18.0781 39.8588 17.9844 39.8682 17.8062V16.9906C39.8588 16.8031 39.7697 16.7094 39.601 16.7094H36.001C35.7385 16.7094 35.5135 16.6203 35.326 16.4422C35.1479 16.2547 35.0588 16.0297 35.0588 15.7672C35.0588 15.5047 35.1479 15.2797 35.326 15.0922C35.5135 14.9141 35.7385 14.825 36.001 14.825H40.8104C41.0729 14.825 41.2979 14.9141 41.4854 15.0922C41.6541 15.2703 41.7432 15.4859 41.7526 15.7391V15.7672V19.0578C41.7432 19.3109 41.6541 19.5219 41.4854 19.6906C41.3072 19.8687 41.0916 19.9625 40.8385 19.9719H34.8479C34.1916 19.9344 33.6479 19.6859 33.2166 19.2266C32.7947 18.7578 32.4901 18.2281 32.3026 17.6375C32.1244 17.0469 32.0354 16.4422 32.0354 15.8234C32.0354 15.2047 32.1291 14.6 32.3166 14.0094C32.5041 13.4187 32.8088 12.8937 33.2307 12.4344C33.6526 11.9656 34.1916 11.7125 34.8479 11.675ZM57.0959 11.675C57.574 11.6844 58.0006 11.8344 58.3756 12.125C58.7506 12.4156 59.0506 12.7625 59.2756 13.1656C59.5099 13.5687 59.6834 13.9953 59.7959 14.4453C59.9084 14.8953 59.9646 15.3547 59.9646 15.8234C59.9646 16.4422 59.8662 17.0516 59.6693 17.6516C59.4818 18.2422 59.1678 18.7672 58.7271 19.2266C58.2959 19.6859 57.7521 19.9344 57.0959 19.9719H52.1881C51.5318 19.9437 50.9834 19.7 50.5427 19.2406C50.1021 18.7812 49.7881 18.2516 49.6006 17.6516C49.4224 17.0516 49.3334 16.4422 49.3334 15.8234C49.3334 15.2047 49.4271 14.6 49.6146 14.0094C49.8021 13.4094 50.1115 12.8797 50.5427 12.4203C50.9834 11.9516 51.5318 11.7031 52.1881 11.675H52.4552H56.8287H57.0959ZM56.6178 18.0875C56.974 18.0687 57.2693 17.9375 57.5037 17.6937C57.7474 17.4406 57.9209 17.15 58.024 16.8219C58.1271 16.4937 58.1787 16.1609 58.1787 15.8234C58.1787 15.4859 58.1224 15.1578 58.0099 14.8391C57.9068 14.5109 57.7381 14.2203 57.5037 13.9672C57.2693 13.7141 56.974 13.5781 56.6178 13.5594H52.624C52.2677 13.5781 51.9724 13.7141 51.7381 13.9672C51.5037 14.2203 51.3302 14.5109 51.2177 14.8391C51.1146 15.1578 51.0631 15.4859 51.0631 15.8234C51.0631 16.1609 51.1146 16.4937 51.2177 16.8219C51.3209 17.15 51.4896 17.4406 51.724 17.6937C51.9677 17.9375 52.2677 18.0687 52.624 18.0875H56.6178ZM65.4074 20.2953C64.9199 20.2953 64.4371 20.2391 63.9589 20.1266C63.4902 20.0141 63.0402 19.85 62.6089 19.6344C62.1777 19.4094 61.798 19.1141 61.4699 18.7484C61.1417 18.3828 60.9636 17.9469 60.9355 17.4406V16.85V12.3641C60.9355 12.1016 61.0292 11.8859 61.2167 11.7172C61.4136 11.5391 61.6433 11.45 61.9058 11.45C62.4683 11.4969 62.773 11.8016 62.8199 12.3641V17.0047C62.8386 17.2953 62.9464 17.5391 63.1433 17.7359C63.3496 17.9234 63.5746 18.0734 63.8183 18.1859C64.0714 18.2984 64.3292 18.3828 64.5917 18.4391C64.8636 18.4953 65.1355 18.5234 65.4074 18.5234C65.6792 18.5234 65.9464 18.4953 66.2089 18.4391C66.4808 18.3828 66.7386 18.2984 66.9824 18.1859C67.2355 18.0734 67.4605 17.9234 67.6574 17.7359C67.8636 17.5391 67.9761 17.2953 67.9949 17.0047V12.3641C67.9949 12.1016 68.0886 11.8859 68.2761 11.7172C68.473 11.5391 68.7027 11.45 68.9652 11.45C69.5277 11.4969 69.8371 11.8016 69.8933 12.3641V16.85V17.4406C69.8652 17.9469 69.6824 18.3828 69.3449 18.7484C69.0167 19.1141 68.6371 19.4094 68.2058 19.6344C67.7746 19.85 67.3199 20.0141 66.8417 20.1266C66.373 20.2391 65.8949 20.2953 65.4074 20.2953ZM70.9204 12.6172C70.9204 12.3547 71.0095 12.1344 71.1876 11.9562C71.3751 11.7687 71.6001 11.675 71.8626 11.675H80.047C80.3095 11.675 80.5345 11.7641 80.722 11.9422C80.9001 12.1297 80.9892 12.3547 80.9892 12.6172C80.9892 12.8797 80.8954 13.1047 80.7079 13.2922C80.5298 13.4703 80.3095 13.5594 80.047 13.5594H76.9111V19.2547C76.8548 19.8172 76.5454 20.1219 75.9829 20.1688C75.7204 20.1688 75.4907 20.0844 75.2939 19.9156C75.1064 19.7375 75.0126 19.5172 75.0126 19.2547V13.5594H71.8626C71.6001 13.5594 71.3798 13.4656 71.2017 13.2781C71.0142 13.1 70.9204 12.8797 70.9204 12.6172Z" fill="#F75049"/>
</svg>
