<svg width="39" height="39" viewBox="0 0 39 39" fill="none" xmlns="http://www.w3.org/2000/svg">
<rect x="19.0918" y="0.707107" width="26" height="26" transform="rotate(45 19.0918 0.707107)" stroke="#1DED83"/>
<path d="M19 10.4922C19.8125 10.4922 20.6094 10.5859 21.3906 10.7734C22.1875 10.9609 22.9453 11.2422 23.6641 11.6172C24.3828 11.9766 25.0156 12.4609 25.5625 13.0703C26.125 13.6797 26.4297 14.4062 26.4766 15.25V16.2344V23.7109C26.3828 24.6484 25.8672 25.1562 24.9297 25.2344C24.4922 25.2344 24.1094 25.0938 23.7812 24.8125C23.4688 24.5156 23.3125 24.1484 23.3125 23.7109V15.9766C23.2812 15.4922 23.0938 15.0938 22.75 14.7812C22.4219 14.4531 22.0469 14.1953 21.625 14.0078C21.2188 13.8203 20.7891 13.6797 20.3359 13.5859C19.8984 13.4922 19.4531 13.4453 19 13.4453C18.5469 13.4453 18.0938 13.4922 17.6406 13.5859C17.2031 13.6797 16.7734 13.8203 16.3516 14.0078C15.9453 14.1953 15.5703 14.4531 15.2266 14.7812C14.8984 15.0938 14.7188 15.4922 14.6875 15.9766V23.7109C14.6094 24.6484 14.1016 25.1562 13.1641 25.2344C12.7266 25.2344 12.3438 25.0938 12.0156 24.8125C11.7031 24.5156 11.5469 24.1484 11.5469 23.7109V16.2344V15.25C11.5938 14.4062 11.8906 13.6797 12.4375 13.0703C12.9844 12.4609 13.6172 11.9766 14.3359 11.6172C15.0547 11.2422 15.8047 10.9609 16.5859 10.7734C17.3828 10.5859 18.1875 10.4922 19 10.4922Z" fill="#1DED83"/>
</svg>
