<svg width="116" height="31" viewBox="0 0 116 31" fill="none" xmlns="http://www.w3.org/2000/svg">
<path d="M115.16 0H0V30.56H111.805L113.174 28.4L115.092 25.2L115.16 0Z" fill="#5EF6FF" fill-opacity="0.1"/>
<path d="M114.518 0.639648L114.451 25.0234L112.625 28.0713L111.453 29.9199H0.639648V0.639648H114.518Z" stroke="#F75049" stroke-opacity="0.3" stroke-width="1.28"/>
<path d="M32.8057 11.6172C32.8057 11.8797 32.7119 12.1 32.5244 12.2781C32.3463 12.4656 32.126 12.5594 31.8635 12.5594H26.2385C26.0604 12.5687 25.9104 12.6109 25.7885 12.6859C25.676 12.7516 25.5916 12.8312 25.5354 12.925C25.4791 13.0094 25.451 13.0984 25.451 13.1922C25.451 13.2859 25.4791 13.3797 25.5354 13.4734C25.5916 13.5578 25.676 13.6375 25.7885 13.7125C25.9104 13.7781 26.0604 13.8156 26.2385 13.825H30.2323C30.8885 13.8437 31.4276 13.9984 31.8494 14.2891C32.2807 14.5703 32.5854 14.8984 32.7635 15.2734C32.951 15.6391 33.0448 16.0141 33.0448 16.3984C33.0448 16.7734 32.951 17.1484 32.7635 17.5234C32.576 17.8891 32.2713 18.2172 31.8494 18.5078C31.4276 18.7891 30.8885 18.9297 30.2323 18.9297H30.1479C30.0916 18.9391 30.0354 18.9437 29.9791 18.9437H24.6635C24.401 18.9437 24.176 18.8547 23.9885 18.6766C23.8104 18.4891 23.7213 18.2641 23.7213 18.0016C23.7213 17.7391 23.8151 17.5187 24.0026 17.3406C24.1807 17.1531 24.401 17.0594 24.6635 17.0594H30.3166C30.4948 17.0687 30.6401 17.0359 30.7526 16.9609C30.8744 16.8859 30.9635 16.8016 31.0198 16.7078C31.076 16.6047 31.1041 16.5016 31.1041 16.3984C31.1041 16.3328 31.076 16.2437 31.0198 16.1312C30.9635 16.0094 30.8744 15.9109 30.7526 15.8359C30.6401 15.7609 30.4948 15.7187 30.3166 15.7094H26.3229C25.6666 15.6906 25.1229 15.5406 24.6916 15.2594C24.2698 14.9781 23.9651 14.6594 23.7776 14.3031C23.5994 13.9375 23.5104 13.5672 23.5104 13.1922C23.5104 12.8266 23.6041 12.4656 23.7916 12.1094C23.9791 11.7437 24.2838 11.4203 24.7057 11.1391C25.1276 10.8578 25.6666 10.7078 26.3229 10.6891H26.4073C26.4635 10.6797 26.5198 10.675 26.576 10.675H31.8635C32.126 10.675 32.3463 10.7687 32.5244 10.9562C32.7119 11.1344 32.8057 11.3547 32.8057 11.6172ZM33.7484 18.0297C33.7484 17.7672 33.8375 17.5469 34.0156 17.3687C34.2031 17.1812 34.4281 17.0875 34.6906 17.0875H37.3906V12.5594H34.6906C34.4281 12.5594 34.2078 12.4656 34.0297 12.2781C33.8422 12.1 33.7484 11.8797 33.7484 11.6172C33.7484 11.3547 33.8375 11.1344 34.0156 10.9562C34.2031 10.7687 34.4281 10.675 34.6906 10.675H41.975C42.2375 10.675 42.4625 10.7641 42.65 10.9422C42.8281 11.1297 42.9172 11.3547 42.9172 11.6172C42.9172 11.8797 42.8234 12.1047 42.6359 12.2922C42.4578 12.4703 42.2375 12.5594 41.975 12.5594H39.2891V17.0875H41.975C42.2375 17.0875 42.4625 17.1766 42.65 17.3547C42.8281 17.5422 42.9172 17.7672 42.9172 18.0297C42.9172 18.2922 42.8234 18.5172 42.6359 18.7047C42.4578 18.8828 42.2375 18.9719 41.975 18.9719H34.6906C34.4281 18.9719 34.2078 18.8781 34.0297 18.6906C33.8422 18.5125 33.7484 18.2922 33.7484 18.0297ZM46.4615 10.675H52.3959C52.6584 10.6844 52.874 10.7828 53.0428 10.9703C53.2209 11.1578 53.3099 11.3828 53.3099 11.6453C53.2631 12.2078 52.9584 12.5125 52.3959 12.5594H46.9396C46.5834 12.5781 46.2881 12.7141 46.0537 12.9672C45.8193 13.2203 45.6459 13.5109 45.5334 13.8391C45.4303 14.1578 45.3787 14.4859 45.3787 14.8234C45.3787 15.1609 45.4303 15.4937 45.5334 15.8219C45.6459 16.1406 45.8193 16.4266 46.0537 16.6797C46.2881 16.9328 46.5834 17.0687 46.9396 17.0875H51.2146C51.3834 17.0781 51.4724 16.9844 51.4818 16.8062V15.9906C51.4724 15.8031 51.3834 15.7094 51.2146 15.7094H47.6146C47.3521 15.7094 47.1271 15.6203 46.9396 15.4422C46.7615 15.2547 46.6724 15.0297 46.6724 14.7672C46.6724 14.5047 46.7615 14.2797 46.9396 14.0922C47.1271 13.9141 47.3521 13.825 47.6146 13.825H52.424C52.6865 13.825 52.9115 13.9141 53.099 14.0922C53.2678 14.2703 53.3568 14.4859 53.3662 14.7391V14.7672V18.0578C53.3568 18.3109 53.2678 18.5219 53.099 18.6906C52.9209 18.8687 52.7053 18.9625 52.4521 18.9719H46.4615C45.8053 18.9344 45.2615 18.6859 44.8303 18.2266C44.4084 17.7578 44.1037 17.2281 43.9162 16.6375C43.7381 16.0469 43.649 15.4422 43.649 14.8234C43.649 14.2047 43.7428 13.6 43.9303 13.0094C44.1178 12.4187 44.4224 11.8937 44.8443 11.4344C45.2662 10.9656 45.8053 10.7125 46.4615 10.675ZM59.0199 10.2953C59.5074 10.2953 59.9855 10.3516 60.4543 10.4641C60.9324 10.5766 61.3871 10.7453 61.8183 10.9703C62.2496 11.1859 62.6293 11.4766 62.9574 11.8422C63.2949 12.2078 63.4777 12.6437 63.5058 13.15V13.7406V18.2266C63.4496 18.7891 63.1402 19.0938 62.5777 19.1406C62.3152 19.1406 62.0855 19.0563 61.8886 18.8875C61.7011 18.7094 61.6074 18.4891 61.6074 18.2266V13.5859C61.5886 13.2953 61.4761 13.0562 61.2699 12.8687C61.073 12.6719 60.848 12.5172 60.5949 12.4047C60.3511 12.2922 60.0933 12.2078 59.8214 12.1516C59.5589 12.0953 59.2918 12.0672 59.0199 12.0672C58.748 12.0672 58.4761 12.0953 58.2043 12.1516C57.9418 12.2078 57.6839 12.2922 57.4308 12.4047C57.1871 12.5172 56.9621 12.6719 56.7558 12.8687C56.5589 13.0562 56.4511 13.2953 56.4324 13.5859V18.2266C56.3855 18.7891 56.0808 19.0938 55.5183 19.1406C55.2558 19.1406 55.0261 19.0563 54.8293 18.8875C54.6418 18.7094 54.548 18.4891 54.548 18.2266V13.7406V13.15C54.5761 12.6437 54.7543 12.2078 55.0824 11.8422C55.4105 11.4766 55.7902 11.1859 56.2214 10.9703C56.6527 10.7453 57.1027 10.5766 57.5714 10.4641C58.0496 10.3516 58.5324 10.2953 59.0199 10.2953ZM75.8116 19.2953C75.3241 19.2953 74.8413 19.2391 74.3632 19.1266C73.8944 19.0141 73.4444 18.85 73.0132 18.6344C72.5819 18.4094 72.2023 18.1141 71.8741 17.7484C71.546 17.3828 71.3679 16.9469 71.3398 16.4406V15.85V11.3641C71.3398 11.1016 71.4335 10.8859 71.621 10.7172C71.8179 10.5391 72.0476 10.45 72.3101 10.45C72.8726 10.4969 73.1773 10.8016 73.2241 11.3641V16.0047C73.2429 16.2953 73.3507 16.5391 73.5476 16.7359C73.7538 16.9234 73.9788 17.0734 74.2226 17.1859C74.4757 17.2984 74.7335 17.3828 74.996 17.4391C75.2679 17.4953 75.5398 17.5234 75.8116 17.5234C76.0835 17.5234 76.3507 17.4953 76.6132 17.4391C76.8851 17.3828 77.1429 17.2984 77.3866 17.1859C77.6398 17.0734 77.8648 16.9234 78.0616 16.7359C78.2679 16.5391 78.3804 16.2953 78.3991 16.0047V11.3641C78.3991 11.1016 78.4929 10.8859 78.6804 10.7172C78.8773 10.5391 79.1069 10.45 79.3694 10.45C79.9319 10.4969 80.2413 10.8016 80.2976 11.3641V15.85V16.4406C80.2694 16.9469 80.0866 17.3828 79.7491 17.7484C79.421 18.1141 79.0413 18.4094 78.6101 18.6344C78.1788 18.85 77.7241 19.0141 77.246 19.1266C76.7773 19.2391 76.2991 19.2953 75.8116 19.2953ZM83.4903 18.2266C83.4341 18.7891 83.1247 19.0938 82.5622 19.1406C82.2997 19.1406 82.07 19.0563 81.8731 18.8875C81.6856 18.7094 81.5919 18.4891 81.5919 18.2266V11.5891C81.6013 11.3266 81.6997 11.1109 81.8872 10.9422C82.0747 10.7641 82.2997 10.675 82.5622 10.675H88.4684C89.2934 10.7031 89.9169 10.8859 90.3388 11.2234C90.7606 11.5516 91.0653 11.9266 91.2528 12.3484C91.4403 12.7703 91.5341 13.1969 91.5341 13.6281C91.5341 14.0781 91.4403 14.5141 91.2528 14.9359C91.0747 15.3578 90.77 15.7375 90.3388 16.075C89.9169 16.4031 89.3778 16.5625 88.7216 16.5531H85.1778C84.9153 16.5531 84.695 16.4594 84.5169 16.2719C84.3294 16.0937 84.2356 15.8734 84.2356 15.6109C84.2356 15.3484 84.3247 15.1281 84.5028 14.95C84.6903 14.7625 84.9153 14.6687 85.1778 14.6687H88.8059C88.9841 14.6687 89.1294 14.6125 89.2419 14.5C89.3638 14.3781 89.4528 14.2422 89.5091 14.0922C89.5653 13.9328 89.5934 13.7734 89.5934 13.6141C89.5934 13.4641 89.5653 13.3141 89.5091 13.1641C89.4528 13.0047 89.3638 12.8687 89.2419 12.7562C89.1294 12.6344 88.9841 12.5687 88.8059 12.5594H83.8559C83.6122 12.5687 83.4903 12.6906 83.4903 12.925V18.2266Z" fill="#5EF6FF"/>
</svg>
