<svg width="955" height="303" viewBox="0 0 955 303" fill="none" xmlns="http://www.w3.org/2000/svg">
<path d="M15.4733 243.113C15.5037 254.058 15.4851 267.654 15.4482 279.743C15.4632 281.027 14.5475 282.232 13.3335 282.573C10.7088 283.347 8.17116 284.095 5.76903 284.801C3.54452 285.456 3.08524 285.565 2.71648 285.649C2.69182 285.642 2.60169 285.61 2.56771 285.78C2.56752 285.813 2.56733 285.847 2.56714 285.882C2.54869 289.414 2.55514 292.802 2.55552 296.204C2.5539 296.289 2.61552 296.373 2.69819 296.396C4.29182 296.873 5.89436 297.356 7.52224 297.854C9.37606 298.42 7.02794 297.851 8.97262 298.442C10.6934 298.965 12.3997 299.481 14.097 299.993C14.1328 300.005 14.1702 300.01 14.2077 300.011C23.2609 300.035 32.0649 300.017 41.3771 300.039C96.9547 300.171 151.586 300.219 207.844 300.276C226.393 300.295 248.942 300.409 268.102 300.359C270.339 300.353 269.005 300.243 269.431 300.234C276.105 300.094 273.886 300.317 278.244 300.347C295.541 300.464 314.774 300.474 331.42 300.431C338.501 300.413 331.401 300.193 338.531 300.317C339.027 300.325 337.23 300.442 339.172 300.455C343.576 300.483 351.932 300.462 355.345 300.471C361.924 300.49 363.012 300.489 369.234 300.49C377.74 300.493 387.857 300.551 396.983 300.525C398.931 300.519 396.353 300.398 399.459 300.378C402.569 300.357 410.795 300.368 413.568 300.396C416.342 300.424 415.161 300.519 415.652 300.541C419.69 300.724 429.206 300.47 430.43 300.464C452.752 300.357 471.895 300.501 492.849 300.501C508.756 300.5 525.765 300.453 540.901 300.459C558.933 300.468 574.216 300.533 591.734 300.522C593.583 300.52 591.417 300.379 593.675 300.377C617.665 300.361 641.489 300.376 665.375 300.472C667.771 300.482 664.684 300.606 667.077 300.623C681.73 300.725 704.916 300.97 713.619 300.429C723.544 300.451 735.595 300.472 744.474 300.581C750.2 300.652 744.639 300.787 751.672 300.729C753.258 300.716 751.196 300.598 753.574 300.587C763.59 300.544 774.532 300.583 784.44 300.521C786.455 300.509 785.905 300.402 786.476 300.383C791.275 300.228 799.263 300.484 801.005 300.503C814.267 300.642 823.952 300.587 836.306 300.591C839.173 300.591 835.784 300.449 838.543 300.444C852.85 300.424 867.672 300.436 881.681 300.5C884.798 300.514 881.932 300.635 883.421 300.649C889.987 300.705 891.443 300.475 897.74 300.525C899.068 300.535 898.32 300.639 898.562 300.651C902.352 300.83 905.645 300.576 906.62 300.57C907.407 300.565 908.176 300.562 908.928 300.56C909.019 300.559 909.11 300.545 909.196 300.519C919.549 297.401 926.862 295.451 937.398 292.269C938.763 291.857 935.646 292.65 939.483 291.499C943.629 290.255 947.815 289.001 952.026 287.742C952.416 287.631 952.706 287.243 952.7 286.837C952.692 264.735 952.732 242.025 952.818 220.515C952.834 216.408 952.933 219.34 952.945 219.082C953.135 214.869 952.88 212.143 952.87 210.804C952.801 200.238 953.015 190.367 952.711 183.188C952.817 138.44 952.646 93.8967 952.918 49.518C952.922 48.9537 953.047 49.9649 953.053 48.8393C953.124 35.2845 952.928 37.8876 952.689 28.9188C952.629 26.6594 952.918 19.7865 952.939 19.1784C953.017 16.9628 953.204 19.2608 953.219 18.5188C953.337 12.3796 952.719 13.38 952.719 5.09826C952.72 4.8391 952.834 5.92706 952.845 5.23208C952.858 4.44989 952.86 3.6703 952.86 2.89331C952.873 2.3023 952.339 1.77791 951.756 1.79101C951.181 1.78949 950.608 1.78507 950.037 1.77448C945.2 1.68383 943.478 1.38337 936.09 1.55824C935.155 1.58093 936.583 1.93168 929.189 1.91511C926.241 1.9082 913.193 1.91422 909.536 1.89149C905.884 1.86878 908.391 1.75576 908.131 1.75086C898.29 1.6014 902.021 1.53946 897.091 1.31819C892.16 1.09775 893.528 1.62351 891.518 1.6822C889.504 1.74071 882.289 1.6174 880.516 1.57453C878.743 1.53165 880.954 1.45982 879.378 1.43556C868.929 1.27699 874.792 1.69653 871.349 1.77998C863.231 1.97756 856.909 1.58765 849.478 1.54945C847.468 1.53913 849.108 1.62793 847.318 1.63624C840.227 1.66795 835.962 1.54629 827.894 1.65784C826.575 1.67602 820.053 1.91045 815.831 1.73841C815.233 1.7136 816.932 1.61644 813.91 1.59467C809.395 1.56201 801.261 1.54077 796.408 1.57325C792.825 1.59728 796.932 1.75739 792.422 1.70765C790.418 1.68544 794.132 1.59178 790.367 1.55787C786.621 1.52397 777.044 1.52809 773.4 1.53132C769.762 1.53462 771.753 1.65607 771.459 1.66425C769.68 1.71112 762.699 1.76968 762.082 1.76954C730.964 1.78436 702.269 1.57965 671.971 1.64741C669.594 1.65255 671.177 1.78062 670.815 1.78272C662.675 1.83638 669.093 1.49588 663.407 1.38191C664.228 1.64179 660.872 1.59474 655.138 1.62324C652.375 1.63718 653.88 1.73781 653.628 1.74812C649.531 1.90096 646.678 1.70354 645.943 1.66315C643.229 1.51459 640.276 1.69013 638.43 1.59083C636.584 1.49227 640.831 1.34616 635.332 1.34803C633.791 1.44106 637.873 1.68418 633.698 1.72358C617.946 1.87262 588.542 1.68187 575.877 1.66206C563.237 1.64226 559.154 1.65942 551.789 1.6258C538.484 1.56501 543.36 1.74539 535.099 1.82795C526.814 1.9105 530.841 1.46669 529.65 1.37129C528.481 1.27592 527.205 1.37409 525.75 1.32166C524.301 1.26925 527.439 1.20438 524.03 1.1847C520.619 1.16504 511.293 1.3347 510.084 1.43446C507.527 1.6458 511.73 1.86762 502.704 1.78968C502.185 1.78505 503.87 1.66836 501.882 1.65656C486.095 1.56672 469.694 1.56116 453.926 1.4817C451.758 1.47059 453.696 1.34077 452.434 1.33283C439.292 1.2498 443.99 1.46869 436.787 1.71186C438.404 1.38826 434.421 1.19027 424.446 1.18836C418.45 1.1871 419.482 1.32844 415.604 1.42805C414.441 1.45808 410.198 1.36103 409.429 1.4275C406.894 1.64477 410.89 1.88799 400.607 1.79115C400.156 1.78654 401.592 1.66761 400.033 1.66041C389.956 1.61326 388.75 1.84053 377.857 1.86805C369.318 1.88964 354.133 1.75106 344.41 1.72852C344.615 1.3647 335.432 1.44801 331.707 1.69886C325.397 1.68859 318.582 1.70277 312.484 1.6681C310.385 1.65628 311.764 1.55094 311.5 1.53956C307.441 1.36101 304.698 1.60506 303.336 1.61463C288.576 1.70764 276.55 1.52267 262.463 1.70344C261.963 1.70995 261.153 1.96267 257.387 1.77814C257.144 1.76542 261.796 1.65044 255.17 1.64155C248.542 1.63264 236.048 1.49716 226.847 1.61427C224.62 1.64246 218.988 1.84762 214.468 1.68732C213.866 1.66556 214.525 1.59308 213.656 1.55274C210.846 1.42422 209.311 1.67966 206.009 1.46266C202.706 1.24565 195.836 1.08314 186.556 1.23286C186.261 1.23721 184.064 1.43967 181.146 1.43647C176.488 1.43119 169.875 1.38901 165.011 1.39033C162.682 1.39103 164.173 1.51675 163.768 1.51905C148.11 1.5895 136.965 1.47742 120.19 1.42878C117.115 1.41962 108.278 1.59105 102.324 1.45551C95.7876 1.30714 102.505 0.689941 87.4796 0.836986C81.4191 0.8958 73.7469 1.67883 62.8561 1.27314C42.3123 1.37092 23.2713 1.17717 2.75563 1.29857C2.13821 1.29444 1.54395 1.68926 1.3053 2.25614C1.24004 2.40649 1.17945 2.62747 1.19016 2.89331C1.24386 4.19026 1.39629 6.60335 1.39381 8.47607C1.39179 9.86247 1.37285 10.988 1.35096 12.0014C1.32037 13.4179 1.28402 14.6151 1.2801 15.9988C1.24933 25.9452 1.33672 35.0471 1.32313 44.637C1.31819 48.2779 1.21258 47.0047 1.20667 51.3473C1.20087 55.6871 1.33994 58.5809 1.27277 64.4619C1.22158 68.9035 0.937318 73.3443 0.904185 79.2399C1.18458 79.4646 1.1788 83.5137 1.25282 90.7104C1.26718 92.0937 1.36477 90.6103 1.3766 91.2648C1.42689 93.928 1.34601 96.3927 1.40077 98.9214C1.41392 99.5366 1.50967 99.5656 1.52583 100.068C1.66684 104.345 1.45145 111.39 1.41395 112.6C1.27152 117.238 1.39606 119.405 1.33997 122.962C1.28389 126.513 1.21379 121.203 1.17976 125.351C1.10937 133.95 1.12483 144.999 1.12043 153.732C1.11927 157.216 1.24709 154.839 1.24989 155.337C1.28231 162.543 1.14634 169.829 1.40095 173.824C0.742634 178.82 1.4648 178.169 1.33302 188.468C1.32236 189.28 1.01105 190.312 0.965342 187.197C0.919681 184.082 1.01699 179.359 0.945749 175.038C0.92903 174.015 0.637311 168.153 0.61964 167.353C0.481535 161.088 0.946748 160.2 0.9723 159.868C1.24805 156.109 0.933774 148.946 0.912058 147.06C0.812555 138.43 0.87798 131.098 0.806956 123.879C0.761053 119.159 0.45632 118.697 0.465648 114.99C0.496478 102.667 0.921582 98.3654 0.55299 86.7531C0.474376 84.2632 0.141313 86.7375 0.40321 77.8156C0.41972 77.2551 0.659308 70.631 0.507763 66.8039C0.488655 66.3232 0.391589 66.3385 0.383434 65.7046C0.33069 61.4563 0.408019 58.623 0.370983 53.9951C0.333947 49.3676 0.278735 43.803 0.311657 38.5194C0.331344 35.3352 0.512193 31.2496 0.556469 29.7253C0.684017 25.4213 0.474891 20.8065 0.629344 18.14C0.784575 15.4512 1.02032 20.7079 1.12061 13.6569C0.868429 13.3959 0.609585 12.7959 0.355969 12.3761C0.35604 12.2511 0.356117 12.1262 0.356198 12.0014C0.358177 8.95727 0.362926 5.92265 0.369179 2.89331C0.341232 1.62041 1.487 0.480313 2.75563 0.512022C14.1803 0.538249 25.5452 0.581235 37.076 0.572948C38.9981 0.571315 37.0324 0.435739 39.0929 0.430493C47.7863 0.408954 55.3797 0.505602 64.395 0.467114C71.3737 0.436803 79.0257 0.293257 86.323 0.257092C90.78 0.545664 101.608 0.447701 109.474 0.474072C112.23 0.483184 112.046 0.560256 114.005 0.5854C121.398 0.678392 117.934 0.423383 119.96 0.383252C128.656 0.211976 129.4 0.789174 139.651 0.774913C140.195 0.774353 146.834 0.466681 147.748 0.447522C153.558 0.322585 148.709 0.55461 152.346 0.577343C158.984 0.618886 163.598 0.692363 171.387 0.602245C173.658 0.575553 179.106 0.383784 183.517 0.532116C184.097 0.551539 183.776 0.653236 184.243 0.659191C192.697 0.758466 192.919 0.438922 197.75 0.330701C202.581 0.222503 210.044 0.443089 211.562 0.506664C215.535 0.671131 208.518 0.576951 208.303 0.59309C205.775 0.78516 211.218 0.752092 215.376 0.768321C215.978 1.08164 221.794 1.06283 219.687 0.783885C219.448 0.753417 216.211 0.782635 215.376 0.768321C219.026 0.460915 225.418 0.421545 232.477 0.708812C235.781 0.84345 232.658 1.00043 242.695 0.943003C247.251 0.917079 245.49 0.701345 249.511 0.642528C258.695 0.508332 270.63 0.709576 280.099 0.677867C283.535 0.666356 280.188 0.548264 282.536 0.536327C288.769 0.50428 294.266 0.592886 300.526 0.547497C301.093 0.543234 299.707 0.419617 301.654 0.418042C316.411 0.403685 329.261 0.482863 344.669 0.485058C352.113 0.486062 365.423 0.417884 373.135 0.431591C386.501 0.454619 402.943 0.634378 414.362 0.59071C421.809 0.562757 420.175 0.439114 423.366 0.35487C429.524 0.191573 440.423 0.484076 441.891 0.529369C441.936 0.530868 435.527 0.560016 438.947 0.623485C440.935 0.755734 441.819 0.529943 441.891 0.529369C442.855 0.558629 455.656 0.586696 458.198 0.563061C459.58 0.550144 458.807 0.432999 459.527 0.428479C476.645 0.323645 493.793 0.293872 511.154 0.348645C511.46 0.351012 510.999 0.482045 511.718 0.485974C521.769 0.544234 528.205 0.383939 536.494 0.28877C544.783 0.193642 551.356 0.225503 556.262 0.450451C562.516 0.422128 571.488 0.521577 576.651 0.581921C581.814 0.642263 582.534 0.387195 582.988 0.382153C597.157 0.22076 605.348 0.366756 620.048 0.389477C627.037 0.400717 640.899 0.36372 648.466 0.335828C654.446 0.313358 658.049 0.373134 663.56 0.334912C664.305 0.329808 663.552 0.216238 663.779 0.211866C669.929 0.0759869 666.974 0.353625 668.243 0.40321C672.847 0.583529 675.691 0.679565 683.566 0.594738C685.383 0.575312 690.674 0.175552 693.985 0.152173C698.29 0.122511 696.666 0.265801 701.173 0.231092C701.559 0.228253 701.479 0.139853 704.261 0.143751C717.175 0.160681 731.255 0.212119 744.676 0.20326C746.509 0.202388 744.158 0.0621734 746.807 0.0586067C759.235 0.0419861 772.858 0.0471753 784.966 0.112806C787.946 0.129401 786.078 0.227576 786.725 0.256726C790.696 0.433103 796.329 0.176832 797.258 0.171949C819.427 0.0487968 836.394 0.28072 858.989 0.170301C860.219 0.163818 869.687 -0.11091 873.91 0.124708C874.2 0.140383 878.379 0.381445 882.074 0.216626C882.303 0.206315 879.699 0.082213 884.244 0.0948615C888.788 0.107483 896.101 0.0246079 902.348 0.160962C904.326 0.203916 909 0.444383 914.899 0.252698C915.283 0.239316 924.39 -0.19411 927.64 0.104932C928.167 0.154158 927.616 0.470613 934.657 0.308362C936.002 0.276907 933.56 0.20632 937.104 0.162244C941.288 0.109894 946.521 0.148223 951.756 0.10404C953.245 0.0624454 954.595 1.39658 954.571 2.89331C954.582 3.66142 954.595 4.42622 954.611 5.18429C954.636 6.3484 954.851 11.3035 954.688 15.2784C954.662 15.9009 954.556 14.7181 954.545 16.8174C954.488 26.7992 954.558 37.2514 954.485 47.3864C954.46 50.9761 954.289 49.1409 954.243 52.8827C954.197 56.6255 954.153 64.1652 954.231 68.0812C954.31 71.998 954.582 67.7193 954.604 73.587C954.698 99.0962 954.538 124.366 954.515 149.838C954.512 153.616 954.609 150.484 954.611 156.051C954.618 176.577 954.709 212.015 954.502 229.826C954.337 244.096 954.21 226.138 954.143 237.043C954.111 242.305 954.427 247.998 954.437 249.268C954.538 261.678 954.398 270.302 954.441 281.472C954.45 283.778 954.578 281.516 954.585 283.479C954.588 284.59 954.59 285.711 954.59 286.837C954.607 288.054 953.742 289.219 952.566 289.551C947.729 290.988 942.841 292.417 938.299 293.781C935.546 294.608 936.081 294.55 933.545 295.3C927.476 297.094 922.101 298.656 916.163 300.333C915.622 300.485 919.221 299.284 914.733 300.619C913.124 301.098 911.428 301.598 909.672 302.115C909.432 302.187 909.18 302.223 908.928 302.222C902.605 302.198 895.572 302.163 888.937 302.234C886.35 302.262 886.248 302.486 880.687 302.331C879.521 302.299 881.009 302.03 874.531 302.262C873.442 302.301 862.561 302.614 857.221 302.412C855.811 302.359 852.216 302.139 849.105 302.174C848.683 302.179 850.373 302.3 847.795 302.311C838.71 302.351 829.189 302.338 819.855 302.375C817.363 302.386 821.075 302.51 817.36 302.522C807.145 302.553 794.391 302.521 784.401 302.482C780.719 302.468 783.264 302.365 782.996 302.353C778.687 302.171 776.139 302.417 774.709 302.432C765.813 302.518 759.04 302.402 750.841 302.433C748.578 302.441 750.182 302.558 749.732 302.569C745.06 302.671 748.54 302.46 745.583 302.437C737.3 302.371 728.065 302.38 719.688 302.395C716.611 302.401 720.07 302.537 717.308 302.541C700.964 302.564 683.974 302.551 668.023 302.476C665.02 302.462 666.909 302.357 666.283 302.333C661.969 302.165 655.647 302.394 654.192 302.416C647.577 302.515 645.007 302.422 639.165 302.44C610.627 302.526 575.391 302.465 548.452 302.427C513.349 302.378 486.11 302.278 452.635 302.304C450.507 302.305 452.653 302.445 450.819 302.448C427.14 302.482 403.829 302.427 380.103 302.467C378.156 302.47 380.962 302.603 377.837 302.612C371.427 302.632 363.308 302.625 356.827 302.583C353.666 302.562 357.906 302.449 354.724 302.431C347.315 302.388 339.374 302.379 331.764 302.4C328.525 302.409 333.411 302.545 329.202 302.546C300.529 302.56 272.368 302.583 243.393 302.408C241.406 302.396 239.663 302.121 235.44 302.173C235.122 302.25 235.139 302.34 235 302.421C193.259 302.465 151.944 302.37 110.086 302.355C108.321 302.354 111.371 302.5 107.954 302.5C88.1785 302.497 68.9752 302.538 48.747 302.393C46.7399 302.379 47.7696 302.123 41.8551 302.161C40.8119 302.168 31.9038 302.203 29.6007 302.258C29.2879 302.267 30.9131 302.386 28.0426 302.39C23.4797 302.395 18.8569 302.396 14.2077 302.394C13.9397 302.394 13.6717 302.355 13.4148 302.278C9.60914 301.14 5.78637 299.995 1.96641 298.847C0.823892 298.522 -0.0173506 297.39 0.000311852 296.204C0.00689077 292.72 0.0153706 289.241 0.0257539 285.78C0.0115749 284.603 0.849005 283.487 1.97637 283.17C5.30237 282.188 8.60901 281.215 11.8829 280.253C12.1813 280.165 12.409 280.1 12.5811 280.053C12.7228 280.012 12.7103 280.038 12.6975 280.087C12.6768 280.12 12.6915 280.204 12.8705 280.007C12.9254 279.93 12.9558 279.839 12.9571 279.743C13.0162 266.416 12.9262 252.014 13.0393 239.328C13.0656 236.393 13.1081 234.818 13.1613 233.839C13.1738 233.345 12.9766 233.132 12.6384 232.969C12.1556 232.826 11.4967 232.65 10.2099 232.365C9.57185 232.224 4.27289 231.306 4.02024 231.135C3.37048 230.701 5.9965 230.801 5.00057 230.287C4.9172 230.243 3.74792 230.036 2.63155 229.837C2.18742 229.765 2.02654 229.295 2.05604 229.17C2.06195 229.1 2.07295 229.097 2.0941 229.178C2.11911 229.253 2.16092 229.438 2.38167 229.587C2.40286 229.6 2.49228 229.673 2.65581 229.696C4.19557 229.938 7.63036 230.483 8.64053 230.609C9.52997 230.721 7.96157 230.32 9.77099 230.579C10.7432 230.718 11.7589 230.911 12.9555 231.13C14.1161 231.311 15.2338 232.413 15.2284 233.839C15.2306 234.32 15.2362 234.829 15.2473 235.37C15.3101 238.398 15.456 237.067 15.4733 243.113ZM599.898 0.851634C604.679 0.974127 605.384 0.525485 600.213 0.632824C599.963 0.638544 599.651 0.845625 599.898 0.851634ZM21.4856 0.922496C27.7354 1.12038 32.0122 0.829412 27.6033 0.676586C23.1948 0.523924 19.5815 0.86251 21.4856 0.922496ZM0.92927 46.6157C1.08529 39.3113 0.449099 38.1614 0.577709 45.9848C0.584976 46.4397 0.920211 47.0427 0.92927 46.6157ZM13.6157 250.645C13.6216 250.579 13.6274 246.714 13.6215 246.621C13.479 244.563 13.4675 252.293 13.6157 250.645ZM1.08656 110.927C1.17262 108.647 1.07327 102.081 0.966257 104.915C0.880167 107.196 0.979505 113.767 1.08656 110.927ZM849.277 1.33045C849.353 1.33714 852.124 1.34316 852.069 1.30537C851.88 1.18365 848.023 1.218 849.277 1.33045ZM1.09388 220.232C1.11783 204.083 1.64335 194.291 1.58405 211.878C1.57332 215.062 1.41647 205.014 1.36909 209.067C1.28277 216.484 1.61274 221.409 1.43592 228.978C1.40356 230.349 1.09135 221.153 1.09315 220.203C1.09339 220.213 1.09364 220.223 1.09388 220.232ZM602.651 1.39051C602.747 1.39644 606.583 1.40207 606.675 1.39619C608.753 1.25376 601.024 1.24234 602.651 1.39051ZM953.041 59.7841C953.028 59.9959 953.017 68.8997 953.028 69.19C953.261 73.8348 953.286 55.8338 953.041 59.7841ZM344.258 1.71882C340.071 1.86211 335.063 1.87898 331.726 1.69904C335.886 1.7086 340.074 1.71 344.258 1.71882Z" fill="#07596E"/>
</svg>
