<svg width="957" height="305" viewBox="0 0 957 305" fill="none" xmlns="http://www.w3.org/2000/svg">
<path d="M7.2495 284.271C6.2699 285.201 5.29801 286.124 4.33349 287.039C4.50606 286.883 4.60942 286.654 4.61157 286.42C4.63902 290.129 4.66193 293.755 4.6808 297.31C4.68899 296.91 4.40855 296.527 4.02276 296.414C7.92808 297.559 11.7441 298.683 15.4878 299.79C15.3969 299.762 15.3021 299.748 15.2072 299.748C52.0549 299.653 82.3229 299.957 120.613 300.016C226.899 300.178 367.06 300.032 475.766 300.044C558.045 300.052 641.651 300.084 723.434 300.109C727.628 300.11 730.131 300.158 732.032 300.158C749.939 300.164 779.966 300.121 797.729 300.127C832.295 300.139 890.522 300.134 926.146 300.168C926.001 300.168 925.858 300.228 925.756 300.328C927.523 298.614 929.209 296.979 930.803 295.434C938.926 287.559 947.207 279.521 952.426 274.527C952.334 274.621 952.289 274.748 952.293 274.866C952.307 273.342 952.324 272.053 952.344 271.055C952.35 265.744 952.247 262.846 952.241 261.459C952.241 261.443 952.242 261.428 952.242 261.412C952.224 256.946 952.297 245.668 952.292 243.18C952.291 242.807 952.217 245.099 952.239 239.061C952.241 238.523 952.292 239.019 952.293 233.935C952.293 232.612 952.215 215.608 952.21 210.749C952.195 194.578 952.256 155.959 952.255 136.624C952.255 133.667 952.225 131.964 952.225 128.842C952.224 127.229 952.256 124.81 952.256 124.314C952.255 122.139 952.109 112.637 952.398 116.048C952.379 106.127 952.284 109.05 952.222 108.825C952.213 98.0553 952.349 92.8643 952.205 90.052C952.214 61.368 952.224 32.684 952.233 3.99999C952.229 4.28028 952.475 4.52579 952.755 4.52135C929.262 4.51364 905.768 4.50592 882.275 4.4982C882.259 4.5217 882.243 4.5452 882.227 4.5687C866.617 4.47484 861.262 4.6336 852.35 4.49729C846.854 4.5273 841.359 4.55731 835.864 4.58731C694.633 4.49485 553.733 4.60475 414.094 4.6044C408.2 4.6044 406.729 4.5544 397.01 4.55405C386.279 4.5537 371.186 4.61181 357.043 4.61112C344.638 4.61059 326.335 4.56329 312.502 4.55588C309.38 4.5543 307.121 4.58596 306.77 4.58579C304.702 4.58455 304.599 4.53442 302.594 4.53299C300.195 4.53141 297.297 4.56855 294.526 4.56626C284.172 4.55799 272.888 4.57079 271.577 4.56992C265.262 4.56517 263.868 4.51614 263.348 4.5156C256.323 4.50962 258.957 4.55387 257.208 4.5513C248.13 4.53774 241.713 4.42727 229.285 4.5333C229.624 4.4923 229.962 4.45131 230.301 4.41032C220.79 4.38725 227.072 4.49618 225.128 4.5159C224.335 4.52321 203.862 4.50991 202.283 4.50797C196.784 4.50093 196.637 4.44645 196.162 4.44572C195.003 4.44395 181.169 4.50578 174.076 4.45823C165.684 4.40187 175.562 4.29106 173.478 4.27025C173.127 4.26672 164.341 4.27808 163.161 4.24339C161.859 4.20607 169.457 4.20686 169.34 4.19121C169.257 4.18046 156.643 4.10353 159.061 4.05175C161.005 3.99981 178.119 4.0664 181.745 4.04198C182.343 4.03794 181.215 3.97384 181.745 3.97149C183.874 3.96286 223.305 3.96093 225.109 3.97149C223.056 4.00068 221.003 4.02988 218.95 4.05907C221.68 4.06202 224.41 4.06497 227.14 4.06792C223.258 4.09132 219.377 4.11471 215.495 4.13811C221.263 4.37849 238.639 4.13481 239.355 4.01482C239.665 3.95934 229.044 3.81659 238.928 3.73346C237.425 3.71922 235.922 3.70498 234.42 3.69073C231.322 3.71413 228.225 3.73753 225.128 3.76092C227.191 3.77567 229.253 3.79042 231.316 3.80517C230.557 3.82185 229.798 3.83854 229.038 3.85522C223.249 3.88197 217.459 3.90872 211.67 3.93548C208.693 3.92315 209.312 3.8739 207.266 3.86437C181.75 3.74443 198.393 3.89706 181.688 3.87505C179.302 3.84861 176.917 3.82216 174.532 3.79571C175.373 3.90509 167.974 3.83641 159.023 3.8836C160.093 3.8482 161.162 3.8128 162.231 3.7774C149.266 3.79625 122.983 3.61778 130.076 3.81311C127.105 3.79642 124.135 3.77974 121.164 3.76306C118.655 3.795 116.146 3.82694 113.637 3.85888C110.17 3.85522 106.703 3.85156 103.235 3.8479C103.219 3.8306 103.204 3.81331 103.188 3.79602C105.953 3.79592 108.718 3.79581 111.483 3.79571C109.408 3.74302 107.332 3.69033 105.257 3.63764C103.216 3.64638 101.176 3.65513 99.1352 3.66388C107.695 3.71372 96.41 3.79512 93.6779 3.86468C86.4622 3.89039 81.8515 3.80009 79.4319 3.79602C78.2945 3.79408 64.8973 3.95339 70.1497 3.77832C63.2562 3.79958 56.3624 3.82084 49.4688 3.8421C46.7734 3.82867 44.0781 3.81524 41.3825 3.80181C47.2322 3.72027 30.279 3.62201 42.7682 3.5882C52.0941 3.56284 54.3922 3.63908 58.8175 3.63855C62.8067 3.63818 64.9159 3.58683 69.2576 3.58454C98.4554 3.57009 122.239 3.57952 149.969 3.60224C155.447 3.6068 160.43 3.58162 164.11 3.58515C168.265 3.58921 163.06 3.65361 168.353 3.63794C173.912 3.62137 175.114 3.56881 176.582 3.56775C177.495 3.56716 180.39 3.61444 183.054 3.61444C194.004 3.61443 210.047 3.56871 211.603 3.56897C213.361 3.5695 244.326 3.61217 245.809 3.61994C246.595 3.62416 244.964 3.79878 251.788 3.61261C253.917 3.60915 256.047 3.60569 258.176 3.60224C257.831 3.63713 257.486 3.67202 257.141 3.70691C269.755 3.57464 265.417 3.64864 277.575 3.63825C306.69 3.61324 349.639 3.64264 381.483 3.63031C388.594 3.62749 391.303 3.58571 399.715 3.58271C407.53 3.58006 427.937 3.70472 423.499 3.53205C440.889 3.68157 443.684 3.42373 452.39 3.58454C453.443 3.56114 454.497 3.53774 455.55 3.51435C465 3.61474 467.916 3.52651 478.234 3.51435C482.68 3.50906 477.554 3.61584 486.529 3.49695C488.244 3.5058 489.958 3.51465 491.673 3.5235C491.274 3.54934 490.876 3.57518 490.477 3.60102C500.444 3.57988 501.086 3.59334 499.949 3.49665C504.761 3.51425 509.573 3.53184 514.385 3.54944C514.983 3.5177 515.581 3.48597 516.179 3.45423C513.873 3.39369 404.615 3.48499 389.398 3.51404C371.554 3.44221 335.706 3.53202 321.291 3.51496C315.522 3.50809 312.972 3.43631 304.577 3.42768C296.184 3.41906 285.622 3.48425 281.153 3.48658C266.265 3.49468 195.728 3.48036 243.702 3.39106C242.323 3.35607 240.943 3.32108 239.564 3.28608C220.5 3.40549 227.403 3.33198 211.584 3.31965C204.925 3.31439 189.089 3.39253 189.973 3.2336C202.339 3.20401 215.476 3.2548 226.229 3.25252C227.295 3.25227 240.026 3.1797 246.578 3.19942C252.488 3.21741 248.419 3.36893 261.279 3.19881C270.831 3.36499 276.353 3.21422 278.876 3.1982C283.236 3.17041 283.713 3.25242 288.072 3.26198C292.82 3.27253 296.089 3.21808 296.738 3.21773C303.249 3.21649 337.162 3.20907 338.716 3.24214C337.353 3.25669 335.989 3.27123 334.626 3.28578C343.433 3.30919 341.592 3.22532 343.908 3.21529C345.632 3.21559 347.356 3.2159 349.08 3.2162C348.397 3.2336 347.714 3.25099 347.03 3.26838C357.432 3.26469 349.473 3.20424 364.238 3.20582C373.612 3.20689 383.295 3.27329 384.207 3.26838C384.475 3.26698 381.524 3.2222 385.345 3.2162C391.672 3.20634 402.61 3.20748 403.834 3.26838C406.932 3.25976 406.668 3.20016 407.08 3.19881C408.879 3.19299 439.831 3.17273 445.376 3.1692C460.74 3.15952 477.846 3.17223 494.492 3.16219C496.203 3.16118 495.111 3.19943 496.827 3.1982C499.58 3.19624 513.716 3.13621 515.828 3.13197C521.098 3.12159 534.963 3.1454 537.144 3.12801C537.455 3.12554 532.891 3.07385 538.226 3.05782C544.149 3.04009 540.961 3.10961 541.282 3.11031C553.337 3.13408 560.947 3.08578 569.176 3.07643C571.843 3.07344 576.765 3.12577 580.528 3.11031C580.961 3.10855 580.102 3.0602 580.528 3.05782C586.214 3.03246 591.535 3.1222 593.995 3.12801C600.016 3.14222 596.738 3.07599 597.052 3.07552C601.063 3.07341 606.461 3.0973 612.56 3.09413C639.752 3.08004 661.943 3.076 690.851 3.0804C694.481 3.08093 698.79 3.12764 699.345 3.1277C701.062 3.12735 700.571 3.07245 705.534 3.07369C715.996 3.07651 725.697 3.07385 736.057 3.07491C738.142 3.07513 739.031 3.12599 740.622 3.12709C745.955 3.13026 764.145 2.99708 764.444 3.1628C775.031 3.01609 782.063 3.14253 790.582 3.14113C810.764 3.13796 842.366 3.10807 862.486 3.12709C866.722 3.13117 868.709 3.17363 871.066 3.17592C875.292 3.18013 899.452 3.15641 900.716 3.1631C903.197 3.17596 901.71 3.36295 914.468 3.20003C921.948 3.18842 921.065 3.26516 922.611 3.2693C934.667 3.30012 946.395 3.12885 944.203 3.28578C947.287 3.27642 950.132 3.26493 952.755 3.25425C953.164 3.24125 953.519 3.61049 953.51 3.99999C953.543 12.0758 953.557 17.871 953.452 21.9541C953.524 21.8795 953.567 28.481 953.539 36.4374C953.419 28.2907 953.342 29.2991 953.364 9.59686C953.364 9.28662 953.416 9.87861 953.417 9.56838C953.418 8.24506 953.413 6.24562 953.408 3.99999C953.417 3.66425 953.108 3.34165 952.755 3.35261C950.897 3.35653 948.976 3.35945 947.203 3.35841C942.407 3.35559 945.069 3.32019 943.15 3.32087C941.392 3.32158 941.451 3.37113 938.907 3.37184C930.657 3.37377 923.357 3.38743 918.663 3.38831C915.707 3.38883 912.397 3.34529 910.102 3.34529C901.231 3.34564 882.431 3.37964 871.142 3.37489C868.79 3.37378 869.777 3.32492 864.631 3.32087C864.03 3.3204 861.838 3.37134 857.332 3.38191C852.826 3.39247 849.331 3.36717 846.437 3.37245C844.018 3.37685 845.029 3.4221 840.068 3.42493C835.933 3.42722 789.092 3.39462 786.549 3.3874C782.89 3.37699 781.151 3.31343 778.918 3.32118C778.525 3.32284 777.86 3.38423 776.498 3.38862C754.04 3.46117 704.336 3.37742 678.674 3.37794C625.036 3.37882 575.551 3.41494 521.437 3.42921C520.472 3.43989 519.507 3.45057 518.542 3.46125C524.012 3.46166 529.482 3.46206 534.952 3.46247C534.987 3.49136 535.022 3.52025 535.056 3.54914C542.451 3.55371 541.472 3.48539 541.263 3.44416C544 3.46166 546.737 3.47915 549.473 3.49665C551.834 3.39597 570.084 3.46293 579.493 3.46277C585.613 3.46277 592.895 3.4244 596.121 3.42738C602.939 3.43353 602.761 3.49566 603.297 3.49665C604.206 3.49806 613.724 3.44327 620.589 3.44538C630.739 3.4484 631.837 3.54378 645.731 3.46277C663.534 3.51226 683.26 3.48736 702.449 3.47925C698.795 3.56742 715.992 3.48397 723.747 3.48536C771.058 3.49399 829.208 3.53166 877.14 3.56653C883.3 3.57093 887.954 3.62288 891.386 3.62116C893.247 3.62028 894.059 3.55904 896.644 3.56714C897.098 3.5687 897.414 3.62596 902.225 3.63458C914.198 3.65625 944.021 3.56069 951.568 3.67059C951.964 3.67043 952.36 3.67026 952.755 3.6701C952.93 3.66397 953.091 3.82496 953.086 3.99999C953.102 43.7536 953.119 83.5073 953.135 123.261C953.112 124.289 953.089 125.317 953.065 126.346C953.185 134.122 953.115 164.863 953.12 179.856C953.13 206.241 953.167 239.907 953.172 263.025C953.172 267.313 953.148 270.939 953.141 274.866C953.141 274.968 953.098 275.07 953.023 275.142C952.82 275.339 952.616 275.537 952.41 275.737C950.943 277.163 949.149 278.968 947.623 280.453C941.205 286.692 933.932 293.754 926.437 301.028C926.36 301.103 926.253 301.146 926.146 301.146C909.047 301.133 891.213 301.117 876.476 301.117C821.782 301.119 770.272 301.113 714.854 301.115C528.169 301.122 342.559 301.186 157.467 301.16C154.986 301.16 155.109 301.109 153.187 301.109C141.834 301.106 116.483 301.148 103.663 301.146C93.4474 301.144 77.2338 301.067 73.7185 301.145C110.009 301.262 148.35 301.254 186.13 301.287C188.816 301.289 189.149 301.337 189.48 301.338C195.596 301.355 191.734 301.288 200.604 301.285C203.568 301.284 230.949 301.438 227.691 301.285C234.248 301.346 280.472 301.377 289.392 301.356C292.101 301.35 290.183 301.305 290.72 301.303C293.055 301.293 294.11 301.355 296.197 301.357C301.759 301.361 315.907 301.31 318.595 301.31C324.781 301.311 343.324 301.362 351.491 301.35C358.977 301.339 357.575 301.274 364.048 301.268C369.149 301.263 363.592 301.318 374.981 301.334C380.626 301.343 400.373 301.303 405.172 301.303C409.97 301.303 415.307 301.342 421.924 301.339C431.456 301.335 452.191 301.313 461.89 301.301C462.469 301.3 463.88 301.249 465.307 301.251C468.263 301.253 467.375 301.315 469.607 301.322C471.839 301.328 510.512 301.32 517.081 301.321C521.608 301.321 524.734 301.284 527.236 301.284C529.199 301.285 529.409 301.337 531.412 301.338C532.032 301.338 537.31 301.292 542.583 301.293C547.565 301.294 566.482 301.337 568.674 301.338C570.101 301.338 568.536 301.301 572.755 301.302C576.599 301.303 579.124 301.351 581.316 301.352C586.4 301.353 592.084 301.312 597.479 301.312C612.988 301.311 612.189 301.371 613.12 301.373C615.7 301.378 616.734 301.324 617.581 301.323C621.157 301.318 629.92 301.308 633.108 301.306C637.078 301.303 638.76 301.355 642.979 301.355C646.123 301.355 652.472 301.305 659.645 301.302C675.815 301.296 695.044 301.287 710.924 301.289C715.66 301.289 716.386 301.337 717.834 301.338C725.441 301.344 729.7 301.291 731.871 301.292C747.359 301.297 774.987 301.38 789.358 301.387C795.21 301.39 820.831 301.351 835.285 301.358C836.938 301.359 835.391 301.396 837.231 301.39C841.632 301.376 841.224 301.301 843.457 301.303C844.534 301.304 846.991 301.347 850.129 301.351C866.403 301.373 877.594 301.34 885.018 301.342C898.693 301.347 912.421 301.351 926.146 301.355C926.307 301.355 926.467 301.291 926.582 301.178C935.465 292.549 944.347 283.921 953.198 275.322C953.321 275.204 953.392 275.036 953.391 274.866C953.403 230.37 953.412 186.429 953.417 144.872C953.417 137.448 953.372 128.243 953.416 117.035C953.439 116.69 953.463 116.345 953.486 116C953.463 115.608 953.44 115.216 953.417 114.823C953.405 102.129 953.375 97.3309 953.404 84.3669C953.407 83.2504 953.514 79.842 953.381 77.7327C953.477 64.8914 953.38 71.9374 953.371 62.4047C953.362 52.8733 953.392 43.6103 953.399 34.3683C953.446 29.3021 953.556 50.5602 953.556 51.9456C953.556 54.1778 953.489 56.4969 953.486 58.6463C953.475 65.0127 953.528 71.1704 953.469 72.598C953.531 80.826 953.5 70.5828 953.556 71.611C953.533 77.1031 953.51 82.5952 953.486 88.0873C953.678 90.8851 953.428 121.232 953.574 119.123C953.545 121.537 953.516 123.951 953.486 126.364C953.669 136.95 953.541 143.175 953.486 157.296C953.51 156.277 953.533 155.258 953.556 154.24C953.566 154.528 953.604 166.99 953.504 162.535C953.635 175.31 953.417 174.772 953.575 186.224C953.595 193.027 953.503 188.937 953.505 201.116C953.506 208.332 953.554 217.291 953.557 225.356C953.558 227.213 953.504 228.021 953.504 229.674C953.504 231.326 953.557 232.133 953.558 234.135C953.561 238.27 953.524 243.632 953.528 246.217C953.531 248.533 953.577 251.843 953.584 257.426C953.609 276.921 953.544 271.032 953.522 274.111C953.52 274.367 953.519 274.618 953.518 274.866C953.517 275.072 953.432 275.272 953.288 275.414C951.501 277.164 949.69 278.999 945.921 282.651C945.446 283.112 946.635 281.88 945.095 283.381C943.852 284.591 943.267 285.241 939.155 289.253C938.423 289.967 932.932 295.309 926.736 301.337C926.581 301.488 926.365 301.577 926.146 301.576C915.745 301.581 904.303 301.584 901.418 301.585C893.126 301.587 874.655 301.537 866.074 301.537C862.767 301.537 859.233 301.584 855.719 301.584C844.077 301.583 825.439 301.579 810.675 301.577C797.38 301.575 774.041 301.471 766.76 301.565C748.091 301.577 743.557 301.497 742.15 301.496C738.345 301.493 736.583 301.546 731.786 301.548C669.648 301.579 587.822 301.544 528.973 301.548C392.456 301.558 255.195 301.587 118.203 301.566C117.836 301.589 117.469 301.613 117.102 301.636C133.293 301.651 152.321 301.692 168.306 301.702C189.645 301.714 221.301 301.616 236.954 301.777C230.606 301.791 220.264 301.729 220.449 301.812C231.797 301.818 243.145 301.824 254.493 301.829C254.155 301.791 253.816 301.753 253.478 301.715C265.326 301.704 277.445 301.712 289.335 301.707C291.4 301.706 289.937 301.671 291.736 301.671C293.748 301.671 292.384 301.706 292.761 301.706C297.847 301.707 299.382 301.671 300.003 301.672C301.595 301.673 300.357 301.707 304.947 301.717C313.463 301.734 319.561 301.644 317.561 301.794C320.31 301.794 323.059 301.794 325.809 301.794C326.52 301.753 327.232 301.713 327.944 301.672C344.855 301.837 352.652 301.547 361.998 301.777C365.079 301.742 368.161 301.707 371.242 301.672C372.979 301.713 374.716 301.753 376.453 301.794C376.791 301.759 377.13 301.724 377.468 301.689C394.071 301.715 411.749 301.673 427.628 301.677C438.689 301.68 441.339 301.694 451.137 301.691C472.931 301.685 451.288 301.755 469.398 301.83C468.455 301.787 467.512 301.744 466.569 301.701C469.569 301.685 472.568 301.669 475.567 301.653C477.655 301.688 479.743 301.724 481.831 301.759C491.093 301.577 497.093 301.724 498.355 301.724C499.374 301.723 502.873 301.614 513.835 301.706C509.289 301.557 522.197 301.706 523.231 301.706C524.213 301.707 536.78 301.674 541.881 301.675C545.893 301.676 554.451 301.708 560.426 301.707C565.701 301.705 565.166 301.655 565.551 301.654C572.044 301.65 567.975 301.689 572.669 301.691C577.363 301.693 581.005 301.65 582.018 301.654C582.528 301.656 580.823 301.703 583.157 301.708C589.423 301.72 600.754 301.679 607.928 301.68C610.471 301.68 613.676 301.72 616.508 301.722C620.85 301.723 622.879 301.67 625.401 301.672C626.279 301.672 631.879 301.755 638.84 301.742C640.165 301.74 644.055 301.565 649.224 301.812C649.622 301.778 650.021 301.743 650.419 301.708C673.766 301.622 680.262 301.904 690.642 301.654C707.594 301.682 695.957 301.779 697.817 301.794C699.02 301.804 704.546 301.777 705.154 301.778C706.229 301.781 706.044 301.813 707.223 301.813C728.832 301.807 719.237 301.748 726.082 301.71C742.355 301.621 755.052 301.819 726.746 301.76C726.746 301.777 726.746 301.795 726.746 301.812C733.716 301.795 751.408 301.803 745.5 301.892C740.848 301.962 698.874 301.916 722.646 302.014C728.043 302.037 730.839 301.971 740.185 302.094C746.366 302.101 747.257 301.941 755.627 302.005C754.251 301.95 752.875 301.894 751.498 301.838C762.913 301.766 776.994 301.863 785.761 301.832C788.74 301.821 799.472 301.556 796.97 301.821C801.978 301.805 825.568 301.854 829.951 301.83C831.005 301.824 832.378 301.683 847.633 301.732C848.693 301.75 849.752 301.767 850.812 301.785C836.86 301.837 861.5 301.889 854.808 302.023C852.534 301.963 841.47 301.926 839.689 301.896C836.649 301.844 845.703 301.776 834.165 301.795C826.891 302.019 847.688 301.916 844.51 302.128C859.659 302.029 861.173 302.124 864.603 302.128C879.262 302.144 888.488 302.121 902.32 302.146C905.69 302.102 880.65 302.039 877.548 302.058C888.963 301.903 869.316 301.896 861.025 301.988C860.328 301.941 859.633 301.895 858.937 301.848C869.73 301.873 880.259 301.886 890.95 301.848C891.646 301.865 892.342 301.883 893.038 301.9C890.639 301.927 888.242 301.953 885.843 301.979C894.734 302.022 889.402 301.886 901.247 302.006C901.614 301.953 901.981 301.9 902.348 301.847C910.281 301.86 918.214 301.872 926.146 301.884C926.443 301.886 926.739 301.766 926.952 301.559C929.135 299.444 931.318 297.329 933.5 295.214C937.667 291.017 953.366 275.813 950.591 278.7C956.277 273.185 950.52 278.7 953.561 275.695C953.737 275.521 953.904 275.236 953.903 274.866C953.902 274.629 953.901 274.371 953.9 274.092C953.885 270.494 953.881 263.462 953.918 261.725C954.034 262.39 954.059 270.773 954.126 274.866C954.135 275.29 953.945 275.647 953.728 275.867C953.701 275.895 953.674 275.922 953.648 275.949C953.669 275.929 953.696 275.903 953.731 275.87C953.868 275.737 954.152 275.415 954.159 274.866C954.169 266.763 954.102 225.66 954.242 229.674C954.26 225.766 954.182 227.563 954.162 220.515C954.106 200.767 954.261 170.179 954.066 154.277C953.958 172.95 954.073 178.473 954.077 192.782C954.08 201.922 954.099 257.649 953.961 245.201C953.978 247.248 953.996 249.295 954.013 251.342C953.972 253.411 953.931 255.48 953.891 257.549C953.885 251.718 953.879 245.888 953.873 240.057C953.914 238.665 953.955 237.273 953.995 235.881C953.966 235.239 953.937 234.597 953.908 233.954C953.902 231.499 953.896 229.044 953.891 226.589C953.926 227.279 953.961 227.969 953.996 228.658C954.002 224.875 954.008 221.091 954.014 217.307C953.967 218.326 953.92 219.345 953.873 220.363C953.861 202.544 953.891 208.579 953.978 198.695C953.987 191.316 953.897 203.781 953.874 188.17C953.848 170.016 953.991 181.926 953.96 158.416C953.937 158.077 953.914 157.739 953.89 157.4C953.914 152.231 953.937 147.061 953.96 141.892C953.931 142.575 953.902 143.258 953.873 143.942C953.884 133.272 953.829 118.568 953.943 115.032C953.888 125.847 954.087 125.741 954.124 122.929C954.199 117.123 954.129 31.3647 954.124 14.741C954.123 11.0166 954.124 7.45161 954.126 3.99999C954.144 3.26365 953.48 2.60964 952.755 2.62754C937.521 2.61724 924.349 2.59452 909.115 2.67148C916.922 2.71921 936.385 2.71542 952.755 2.71607C953.447 2.69986 954.057 3.32484 954.039 3.99999C954.038 14.2139 954.034 22.8832 954.013 26.1966C954.008 27.065 953.825 26.8206 954.031 32.4037C953.996 50.3923 954.054 71.8956 954.048 94.3704C953.996 93.6839 953.943 92.9973 953.891 92.3108C954.002 78.4976 953.757 65.7119 953.961 67.5109C953.961 64.7616 953.961 62.0124 953.961 59.2632C953.926 59.2632 953.891 59.2632 953.855 59.2632C953.855 55.1188 953.855 50.9744 953.855 46.83C953.891 46.83 953.926 46.83 953.961 46.83C953.961 43.3974 953.961 39.9649 953.961 36.5323C953.926 36.1748 953.891 35.8173 953.856 35.4598C953.905 28.5475 953.833 10.4371 953.844 3.99999C953.844 3.48361 953.504 3.15103 953.256 3.02521C952.998 2.89301 952.819 2.90156 952.793 2.89097C952.763 2.89006 952.884 2.85528 953.155 2.93993C953.404 3.02015 953.893 3.31978 953.921 3.99999C953.928 4.44433 953.935 4.9578 953.943 5.54419C953.943 5.02944 953.943 4.51471 953.943 3.99999C953.959 3.36744 953.388 2.79607 952.755 2.81186C949.228 2.81186 945.7 2.81186 942.172 2.81186C942.188 2.83759 942.204 2.86333 942.22 2.88906C940.144 2.89252 938.069 2.89598 935.994 2.89944C936.677 2.87614 937.36 2.85285 938.044 2.82955C928.533 2.87129 919.517 2.74866 913.272 2.82925C917.391 2.84685 921.51 2.86445 925.63 2.88204C917.73 2.84861 903.176 2.91788 901.874 2.91805C897.904 2.9184 895.81 2.86638 891.509 2.86373C887.627 2.86148 888.161 2.90146 887.438 2.90005C866.494 2.85935 874.476 2.64292 864.697 2.89913C863.657 2.86414 862.616 2.82915 861.575 2.79416C860.189 2.82335 858.803 2.85254 857.418 2.88174C851.233 2.87899 845.048 2.87625 838.863 2.8735C840.926 2.91724 842.988 2.96098 845.051 3.00472C835.78 3.02424 831.456 2.93654 830.558 2.93453C828.017 2.92943 826.855 2.98448 826.069 2.98458C788.29 2.97982 811.236 2.93136 792.357 2.72458C785.625 2.80572 792.436 2.88707 793.392 2.96963C784.441 2.9309 781.647 2.95376 772.198 2.94918C769.74 2.94793 767.096 2.9034 765.545 2.90279C764.201 2.90227 760.001 2.9496 756.775 2.94979C751.399 2.95014 744.243 2.92193 736.882 2.92263C730.761 2.92333 712.025 2.95676 698.956 2.95711C693.379 2.95711 694.673 2.91753 693.233 2.91744C692.634 2.91744 688.288 2.96486 684.71 2.96505C655.534 2.96611 625.632 2.93609 596.311 2.93697C575.654 2.9375 554.664 2.97564 533.965 2.97176C529.56 2.97088 531.892 2.93607 529.969 2.93484C529.308 2.93453 528.513 2.99527 521.703 2.97085C519.242 2.96204 522.072 2.91956 519.652 2.91744C518.475 2.91643 517.975 2.96969 511.092 2.98183C498.582 3.00401 491.859 2.93303 490.743 2.93514C488.637 2.93923 489.253 2.9833 486.462 2.98488C472.818 2.99263 461.426 3.00011 449.248 3.0038C443.562 3.00557 404.355 3.01448 402.201 3.00655C397.384 2.98894 401.868 2.89691 395.691 2.90005C393.96 2.92334 392.23 2.94664 390.499 2.96993C393.248 2.98763 395.997 3.00533 398.747 3.02303C391.178 2.99344 382.597 3.0353 376.993 3.03371C375.958 3.03335 366.43 2.99162 361.571 2.99618C363.636 2.97888 365.702 2.96159 367.768 2.9443C367.037 2.92955 366.306 2.9148 365.576 2.90005C355.858 2.92241 345.579 2.92183 335.613 2.91866C332.019 2.91758 333.233 2.88175 329.595 2.88052C308.404 2.87296 313.756 3.02196 293.368 2.74228C300.252 2.76763 325.366 2.73205 329.016 2.74136C331.56 2.74788 341.424 2.9842 337.805 2.74167C358.153 2.74272 340.479 2.87649 359.483 2.84725C359.103 2.81765 358.723 2.78805 358.344 2.75845C364.978 2.73979 369.878 2.72483 373.909 2.77707C375.261 2.63346 397.801 2.71748 410.164 2.70779C428.03 2.69405 448.215 2.65903 465.914 2.65286C472.012 2.65077 475.466 2.70705 476.231 2.70688C477.349 2.70647 480.491 2.65718 482.723 2.65683C491.057 2.65543 516.411 2.73875 522.718 2.6019C473.131 2.6019 423.544 2.6019 373.956 2.6019C380.191 2.66917 330.032 2.67574 327.488 2.67239C325.134 2.66939 327.116 2.62216 326.416 2.6193C321.205 2.59904 316.757 2.66751 315.103 2.66751C313.841 2.6675 311.294 2.63537 306.808 2.63608C305.985 2.63618 305.756 2.67016 304.871 2.67026C299.019 2.67026 293.243 2.66978 287.37 2.66995C287.013 2.66962 285.531 2.61999 284.048 2.61991C282.562 2.61991 281.092 2.66949 280.717 2.66965C276.023 2.6693 267.976 2.63704 263.51 2.63669C261.96 2.6367 263.035 2.67305 261.298 2.6727C255.963 2.67182 257.72 2.60067 251.124 2.61899C248.913 2.62516 249.056 2.67957 244.822 2.67239C241.823 2.66729 242.146 2.57033 241.671 2.56681C241.014 2.56255 230.667 2.63912 227.283 2.57566C234.679 2.40812 219.192 2.56691 219.937 2.6376C215.836 2.6198 211.736 2.602 207.636 2.5842C206.238 2.6021 204.84 2.62001 203.441 2.63791C186.898 2.55724 176.806 2.60568 160.532 2.58084C159.747 2.57961 146.034 2.53981 146.676 2.51462C154.883 2.4713 163.072 2.46932 168.325 2.54941C176.968 2.39671 177.116 2.5184 191.074 2.49814C195.748 2.49127 196.08 2.44985 196.617 2.44932C214.792 2.42871 243.901 2.41089 256.145 2.53202C259.577 2.49926 247.238 2.48626 252.035 2.46213C254.652 2.44892 317.624 2.41024 297.506 2.54972C299.594 2.54585 301.682 2.54199 303.77 2.53812C305.859 2.40637 316.243 2.4365 315.065 2.56772C316.049 2.54087 317.032 2.51401 318.016 2.48716C319.96 2.46444 322.26 2.45227 325.486 2.44505C337.838 2.41758 411.325 2.46328 415.233 2.44443C415.321 2.41331 415.41 2.38218 415.498 2.35105C383.033 2.31583 351.538 2.39318 316.137 2.30406C317.165 2.33325 318.194 2.36245 319.222 2.39164C305.096 2.35075 290.97 2.30986 276.844 2.26896C291.795 2.21612 315.58 2.17175 331.275 2.21525C334.065 2.22301 332.02 2.26373 332.661 2.26866C334.336 2.28147 336.136 2.21083 342.152 2.20396C348.17 2.1971 363.289 2.24718 364.674 2.24577C367.345 2.24286 374.554 2.16205 379.1 2.16307C385.077 2.16448 381.071 2.2145 382.27 2.21556C387.232 2.22048 391.681 2.19569 395.567 2.19939C401.337 2.20489 413.326 2.29285 417.359 2.16368C413.236 2.15778 409.114 2.15188 404.992 2.14598C427.345 2.09966 444.822 2.26478 466.845 2.13744C471.849 1.98103 453.652 2.00217 469.037 1.93542C466.243 1.93766 463.45 1.93989 460.657 1.94213C460.002 1.97489 459.347 2.00764 458.692 2.04039C453.88 2.017 449.068 1.9936 444.256 1.97021C445.629 1.9994 447.002 2.02859 448.375 2.05779C431.316 2.07981 414.089 2.10974 408.133 1.95281C407.782 1.99075 407.431 2.0287 407.08 2.06664C391.241 2.02051 367.464 2.18132 371.906 1.97021C371.156 1.9814 370.407 1.99259 369.657 2.00377C360.083 1.96062 364.172 2.04793 360.574 2.05779C359.547 2.06057 340.938 2.01549 349.185 1.95281C331.031 1.90491 336.628 2.10223 331.626 2.11089C320.005 2.01314 299.101 2.15977 307.89 2.0053C306.159 1.9995 304.429 1.9937 302.698 1.98791C297.012 2.10943 291.406 1.97193 285.244 1.92596C283.156 1.92321 281.068 1.92046 278.98 1.91772C277.582 1.95861 276.183 1.9995 274.785 2.04039C255.141 1.84577 261.361 2.37804 252.386 1.93084C253.785 1.90409 255.183 1.87733 256.581 1.85058C259.897 1.83787 263.212 1.82515 266.528 1.81244C253.155 1.80064 239.782 1.78884 226.409 1.77704C209.435 1.65169 199.776 1.78769 180.919 1.68854C179.154 1.70044 177.388 1.71234 175.623 1.72424C177.422 1.62297 184.271 1.63785 171.514 1.59241C170.426 1.52081 179.042 1.51154 182.969 1.56647C183.916 1.57987 175.86 1.63472 184.915 1.63666C191.071 1.63804 179.893 1.55199 198.335 1.58387C197.652 1.56637 196.968 1.54887 196.285 1.53138C198.284 1.53189 200.284 1.53239 202.283 1.5329C204.061 1.57339 205.839 1.61387 207.617 1.65436C212.187 1.59588 214.752 1.51394 225.195 1.53138C222.362 1.55673 226.205 1.63803 231.373 1.63666C231.373 1.60736 231.373 1.57807 231.373 1.54877C243.884 1.52993 239.565 1.61588 249.966 1.54877C251.007 1.57207 252.048 1.59536 253.089 1.61865C258.754 1.52266 279.615 1.45736 275.81 1.60126C281.662 1.46141 293.952 1.52451 298.522 1.63635C298.873 1.60726 299.224 1.57817 299.575 1.54908C302.008 1.54318 304.441 1.53728 306.874 1.53138C308.231 1.54897 309.588 1.56657 310.946 1.58417C312.67 1.56657 314.394 1.54897 316.118 1.53138C317.159 1.56057 318.2 1.58977 319.241 1.61896C322.012 1.58397 324.783 1.54897 327.555 1.51398C329.25 1.53728 330.946 1.56057 332.642 1.58387C332.817 1.52297 349.617 1.50941 354.31 1.54938C355.708 1.53168 357.107 1.51398 358.505 1.49628C359.188 1.52527 359.872 1.55426 360.555 1.58326C361.596 1.56006 362.637 1.53687 363.678 1.51368C366.076 1.53687 368.474 1.56006 370.872 1.58326C380.652 1.44113 380.967 1.56583 383.201 1.56495C387.34 1.56331 401.439 1.47431 403.796 1.47889C406.15 1.4835 407.287 1.53451 409.187 1.53931C440.513 1.61945 427.636 1.48256 433.92 1.46088C437.311 1.44908 439.711 1.49667 442.709 1.4914C447.837 1.48259 473.708 1.41962 475.197 1.42579C477.364 1.43468 472.261 1.65909 479.306 1.60126C479.54 1.48076 494.605 1.60238 487.563 1.43433C493.767 1.44908 499.971 1.46383 506.175 1.47858C505.472 1.33574 513.122 1.42761 521.456 1.41969C533.264 1.40858 559.851 1.31466 558.879 1.46119C561.707 1.42752 564.535 1.39385 567.364 1.36018C586.717 1.40631 605.699 1.35797 624.908 1.35621C681.918 1.35075 743.768 1.38256 800.51 1.41145C803.238 1.41287 802.845 1.46074 804.809 1.4618C815.128 1.46708 841.948 1.43323 856.402 1.44379C861.032 1.44714 863.286 1.49383 864.754 1.49598C869.738 1.50355 868.562 1.44203 870.857 1.44379C874.478 1.44662 893.626 1.50372 900.222 1.50971C903.488 1.51267 907.352 1.46379 911.175 1.47889C911.504 1.48011 910.896 1.5305 911.175 1.53138C918.143 1.53754 913.952 1.49399 916.309 1.49628C927.998 1.50767 940.246 1.51162 952.755 1.51647C954.077 1.4857 955.269 2.67464 955.238 3.99999C955.236 8.7094 955.234 13.4528 955.231 18.2147C955.228 22.7432 955.193 29.674 955.19 33.5616C955.188 35.0444 955.227 32.3847 955.223 37.5098C955.222 39.2654 955.173 39.8655 955.169 41.8472C955.156 50.3862 955.316 53.244 955.187 60.5824C955.196 74.7471 955.237 99.4033 955.237 112.327C955.238 115.385 955.208 116.873 955.209 119.787C955.209 121.854 955.255 125.493 955.255 128.718C955.256 131.944 955.212 137.036 955.214 143.239C955.216 149.771 955.241 157.892 955.241 159.365C955.241 161.143 955.186 161.972 955.187 163.749C955.189 169.126 955.243 183.52 955.248 190.448C955.255 197.891 955.228 202.359 955.229 204.902C955.229 207.258 955.276 210.005 955.276 211.081C955.277 212.755 955.223 213.15 955.223 215.276C955.224 218.749 955.258 222.33 955.259 227.538C955.262 243.365 955.263 259.139 955.264 274.866C955.266 275.536 954.985 276.2 954.503 276.665C945.614 285.306 936.745 293.926 927.894 302.527C927.432 302.979 926.791 303.239 926.146 303.236C862.155 303.231 798.871 303.208 735.924 303.181C725.751 303.177 720.002 303.214 705.012 303.197C698.934 303.19 701.494 303.134 696.764 303.145C694.655 303.15 695.188 303.194 692.521 303.196C680.735 303.205 667.002 303.164 661.894 303.165C659.869 303.165 657.553 303.215 653.4 303.216C622.445 303.221 585.822 303.207 552.51 303.216C534.872 303.22 508.169 303.246 487.924 303.249C431.991 303.258 371.819 303.247 320.807 303.252C243.78 303.259 167.123 303.305 90.2613 303.251C126.22 303.371 175.187 303.361 215.22 303.374C330.852 303.411 453.973 303.341 572.479 303.344C613.712 303.345 665.699 303.342 710.839 303.37C712.886 303.371 717.129 303.333 721.554 303.337C722.494 303.338 734.151 303.408 738.078 303.408C734.356 303.284 749.742 303.395 754.498 303.392C760.496 303.388 773.004 303.326 787.042 303.361C799.78 303.393 796.267 303.44 796.97 303.443C801.475 303.463 803.047 303.386 806.499 303.378C820.601 303.347 893.141 303.392 913.386 303.395C918.618 303.395 918.766 303.444 919.945 303.444C921.656 303.445 923.766 303.43 926.146 303.417C926.825 303.418 927.514 303.145 928.015 302.652C929.184 301.506 930.433 300.283 931.74 299.012C938.205 292.729 945.684 285.524 949.243 282.065C950.811 280.541 952.638 278.763 954.644 276.809C955.157 276.313 955.466 275.598 955.463 274.866C955.449 262.574 955.415 245.966 955.414 233.784C955.414 229.446 955.465 229.711 955.465 227.747C955.464 219.102 955.404 196.585 955.404 185.854C955.403 168.423 955.435 150.492 955.419 132.771C955.441 131.648 955.464 130.525 955.487 129.402C955.463 127.63 955.439 125.858 955.415 124.087C955.434 94.1243 955.382 63.6242 955.386 33.8273C955.386 30.3943 955.43 13.3993 955.43 10.5649C955.43 8.58844 955.39 6.63833 955.382 3.99999C955.391 3.11261 954.889 2.16789 954.015 1.6946C953.584 1.45833 953.139 1.37114 952.755 1.37044C949.094 1.35005 952.759 1.25656 945.219 1.28541C943.069 1.29369 945.154 1.3395 940.834 1.35377C939.407 1.35853 911.715 1.37708 910.226 1.37391C907.745 1.36857 905.533 1.27044 904.892 1.26832C901.564 1.25725 901.705 1.33256 899.472 1.33943C892.884 1.35999 884.276 1.30933 883.205 1.31044C870.26 1.32435 846.061 1.38447 832.476 1.34889C830.597 1.34393 830.822 1.28784 830.492 1.28602C828.363 1.2744 827.04 1.33826 825.016 1.33973C814.118 1.34695 797.053 1.30396 786.093 1.29304C784.831 1.29185 782.167 1.32257 779.914 1.31959C767.176 1.30233 771.308 1.25304 770.585 1.25093C768.868 1.2457 765.85 1.30006 761.284 1.30342C749.518 1.3124 726.955 1.30459 714.341 1.30037C704.891 1.29702 705.034 1.23477 704.414 1.23353C703.089 1.2313 699.407 1.281 693.186 1.28663C681.215 1.29772 682.579 1.24882 677.659 1.25093C677.245 1.25093 677.964 1.29879 672.505 1.30372C661.957 1.31322 638.266 1.26617 626.977 1.26863C622.634 1.26951 621.618 1.31566 617.172 1.31654C610.124 1.31812 594.215 1.2682 592.961 1.26832C592.609 1.26832 591.821 1.32142 589.753 1.32142C587.479 1.32141 585.241 1.29409 583.546 1.29426C573.89 1.295 557.255 1.38766 561.878 1.19814C558.784 1.24493 555.69 1.29172 552.596 1.33851C532.372 1.32918 512.726 1.34792 492.689 1.35743C488.182 1.35954 484.42 1.32365 480.616 1.32539C476.813 1.32715 460.035 1.38653 457.23 1.38764C452.226 1.38958 423.79 1.39584 420.253 1.39161C413.347 1.38351 406.646 1.30518 403.834 1.32051C401.58 1.33284 403.665 1.37697 399.364 1.38947C391.919 1.41111 379.268 1.35442 376.993 1.3553C376.022 1.35566 377.84 1.39005 368.746 1.39253C363.845 1.39394 361.213 1.35604 359.435 1.35621C358.882 1.35641 359.712 1.41787 350.01 1.40962C343.311 1.4038 340.454 1.35639 339.751 1.35621C338.695 1.3559 336.149 1.40649 331.911 1.40473C322.006 1.40032 303.896 1.34231 294.488 1.3379C292.669 1.33702 293.287 1.39815 286.032 1.39253C280.842 1.38848 281.749 1.33985 279.806 1.3379C276.725 1.33491 272.134 1.39445 265.332 1.39253C256.771 1.39006 193.206 1.3283 189.917 1.31227C187.704 1.30152 185.138 1.30085 184.042 1.27443C184.981 1.2491 185.921 1.22377 186.86 1.19844C196.595 1.28732 192.667 1.18574 195.25 1.17921C198.993 1.16988 213.098 1.18284 216.51 1.16029C217.726 1.15215 214.943 1.09809 221.474 1.07027C228.482 1.04053 231.6 1.13679 234.391 1.00527C244.338 1.15128 253.891 0.996308 242.373 0.954918C235.943 0.931838 172.872 0.879708 159.991 0.871607C149.548 0.8651 129.989 0.904227 117.149 0.894189C109.602 0.888201 91.0128 0.881413 91.7987 0.811489C85.0989 0.802683 92.1893 0.872295 90.7831 0.881983C87.8426 0.902209 66.9317 0.854134 62.9745 0.856044C44.7656 0.864587 22.1085 0.933177 3.75514 0.870733C2.06607 0.831288 0.579886 2.34768 0.617007 4C0.614874 4.51708 0.612624 5.03029 0.610255 5.5394C0.599374 5.02627 0.588493 4.51313 0.577612 4C0.565377 3.22216 0.863488 2.4261 1.38949 1.84353C1.8452 1.33005 2.68116 0.792544 3.75514 0.792416C9.71315 0.771381 26.7081 0.806803 28.769 0.723907C20.4311 0.723907 12.0931 0.723907 3.75514 0.723907C2.00822 0.68377 0.438902 2.25302 0.479033 4C0.479033 7.03602 0.479033 10.072 0.479033 13.1081C0.479033 29.8582 0.479033 46.6084 0.479033 63.3585C0.555474 62.8209 0.554447 98.6777 0.519926 100.373C0.482899 99.7438 0.445872 99.1142 0.408845 98.4847C0.549366 78.2224 0.36362 80.0394 0.462249 66.4336C0.46364 60.8947 0.402463 62.5664 0.39084 59.8374C0.275331 32.6718 0.51638 59.4017 0.461639 38.606C0.372902 44.8659 0.340474 27.8346 0.329197 20.203C0.328385 19.6313 0.330277 16.7771 0.33313 13.1081C0.335292 10.3271 0.338007 7.07806 0.340515 4C0.301805 2.13559 1.98561 0.538431 3.75514 0.587291C7.96607 0.590651 11.4882 0.593187 12.454 0.592685C27.6729 0.584759 53.8094 0.536145 68.9254 0.584751C80.8355 0.590563 87.3915 0.527356 98.2051 0.512731C106.413 0.501637 104.06 0.546059 107.924 0.546605C116.03 0.547838 118.697 0.412594 123.888 0.60123C129.383 0.577732 134.878 0.554234 140.374 0.530736C140.374 0.560032 140.374 0.589328 140.374 0.618624C143.825 0.618624 147.277 0.618624 150.728 0.618624C151.744 0.58943 152.759 0.560236 153.775 0.531041C164.729 0.571026 160.156 0.641569 162.203 0.724517C164.569 0.730213 166.936 0.73591 169.302 0.741606C171.134 0.677928 172.966 0.61425 174.797 0.550572C185.364 0.55576 195.931 0.560948 206.497 0.566136C207.181 0.59533 207.864 0.624524 208.547 0.653718C208.569 0.624524 208.592 0.59533 208.614 0.566136C226.507 0.560134 244.401 0.554132 262.295 0.548131C267.054 0.501297 238.384 0.465807 236.214 0.462989C224.136 0.447495 192.065 0.494449 192.024 0.39036C184.516 0.468024 161.916 0.448741 154.885 0.355571C165.556 0.361165 176.227 0.36676 186.898 0.372355C186.553 0.337464 186.209 0.302573 185.864 0.267683C199.16 0.408404 201.105 0.40066 214.773 0.267683C214.786 0.314475 214.799 0.361267 214.811 0.408059C224.342 0.245351 241.188 0.521355 241.671 0.320477C246.745 0.336752 251.82 0.353028 256.894 0.369303C267.852 0.344816 250.837 0.190325 293.738 0.250899C296.695 0.255126 296.079 0.306296 300.525 0.302777C301.807 0.30172 309.148 0.22728 323.189 0.23503C325.381 0.236268 325.546 0.280662 327.821 0.286298C333.072 0.299681 343.532 0.211881 338.783 0.35496C359.582 0.396689 350.962 0.279262 357.414 0.232589C361.713 0.201614 360.848 0.286269 364.57 0.267072C369.175 0.243266 365.795 0.157923 384.235 0.197189C382.166 0.202987 380.097 0.208786 378.028 0.214584C379.069 0.237777 380.11 0.260969 381.15 0.284162C391.675 0.228512 390.681 0.309824 395.643 0.17949C403.294 0.237612 409.914 0.24224 420.377 0.231673C440.703 0.211066 430.282 0.0706058 453.481 0.259748C457.24 0.233199 460.998 0.20665 464.757 0.1801C470.935 0.235929 465.938 0.305778 475.159 0.319866C467.942 0.181956 487.398 0.232241 490.686 0.109301C491.031 0.138597 491.376 0.167893 491.72 0.197189C493.78 0.197189 495.84 0.197189 497.899 0.197189C497.906 0.173692 497.912 0.150194 497.918 0.126696C500.661 0.144294 503.404 0.161892 506.147 0.17949C508.21 0.156195 510.272 0.132901 512.335 0.109607C515.726 0.158738 519.118 0.20787 522.509 0.257002C524.638 0.260359 526.768 0.263716 528.897 0.267072C528.223 0.23208 527.549 0.197088 526.875 0.162095C529.612 0.173793 532.348 0.185491 535.085 0.197189C531.9 0.139771 533.902 0.0724459 542.421 0.0742073C549.452 0.0756199 541.533 0.195461 556.648 0.145616C557.703 0.142063 559.569 0.0565927 573.856 0.0433855C590.989 0.027549 582.666 0.089457 585.719 0.0916016C586.319 0.091954 591.553 0.0489404 596.454 0.0427752C599.235 0.0392654 601.914 0.0739927 602.281 0.0739021C603.997 0.0723171 604.497 0.0231881 606.875 0.0214136C612.911 0.0171874 621.015 0.0412598 626.929 0.0388079C629.617 0.0377512 632.146 0.00864363 633.345 0.00829124C635.206 0.00795484 637.566 0.0524113 639.448 0.0522354C646.395 0.0513051 656.94 -0.0961969 660.167 0.108691C666.845 -0.0797119 680.837 0.148072 679.813 0.0217185C697.66 0.0694053 745.264 -0.0856061 743.868 0.126696C753.976 -0.0548337 753.073 0.0766287 757.307 0.0739021C762.042 0.0709078 759.589 0.035697 763.353 0.037282C772.14 0.0409832 780.536 0.0561082 789.282 0.0568128C787.909 0.0859053 786.536 0.114998 785.163 0.14409C794.344 0.153425 791.183 0.0857213 800.548 0.0726814C817.772 0.0489044 810.514 0.102923 813.057 0.179184C812.375 0.105562 832.685 0.117009 834.753 0.126696C835.986 0.1326 830.582 0.227491 843.02 0.196884C842.34 0.16769 841.66 0.138496 840.979 0.109301C846.646 0.149231 862.038 0.0985649 864.65 0.108386C865.849 0.112965 872.264 0.348405 878.137 0.162095C878.845 0.191289 879.554 0.220484 880.263 0.249678C886.783 0.214584 893.303 0.17949 899.824 0.144396C900.864 0.196986 901.905 0.249576 902.946 0.302166C905.015 0.302166 907.084 0.302166 909.153 0.302166C907.78 0.255476 906.407 0.208786 905.034 0.162095C917.81 0.183225 933.418 0.1096 936.051 0.267072C938.787 0.237878 941.524 0.208684 944.26 0.17949C946.042 0.231877 947.823 0.284263 949.604 0.33665C950.751 0.335454 951.797 0.334079 952.755 0.332525C954.898 0.308226 956.483 2.22218 956.427 3.99999C956.444 11.4824 956.476 12.8537 956.523 20.0369C956.482 19.6984 956.441 19.3599 956.4 19.0214C956.457 25.4112 956.511 37.0762 956.518 46.2985C956.521 50.6826 956.465 58.2104 956.47 59.2442C956.475 60.2894 956.697 70.571 956.505 71.6869C956.59 86.8234 956.503 93.4869 956.505 99.6284C956.507 103.618 956.553 105.438 956.558 109.945C956.565 116.396 956.542 122.889 956.545 126.611C956.547 128.741 956.592 129.139 956.594 130.607C956.6 137.549 956.555 133.482 956.558 140.8C956.558 141.475 956.613 146.825 956.606 152.854C956.602 156.225 956.54 164.946 956.541 165.714C956.542 169.126 956.665 166.399 956.523 178.062C956.546 177.723 956.569 177.385 956.593 177.046C956.652 191.48 956.548 193.758 956.541 196.674C956.54 197.046 956.58 200.56 956.575 202.663C956.565 206.214 956.51 207.647 956.508 208.433C956.499 211.204 956.523 220.537 956.47 226.637C956.627 225.355 956.683 246.73 956.505 251.465C956.54 255.249 956.575 259.033 956.61 262.816C956.581 264.528 956.552 266.24 956.523 267.951C956.552 268.992 956.581 270.033 956.61 271.074C956.595 272.338 956.581 273.602 956.566 274.866C956.565 275.883 956.134 276.889 955.401 277.589C952.609 280.24 949.817 282.892 947.025 285.543C946.818 285.834 946.611 286.125 946.404 286.416C945.292 287.487 944.18 288.557 943.067 289.628C942.167 290.432 941.267 291.235 940.367 292.039C938.99 293.391 937.613 294.743 936.236 296.095C935.919 296.454 935.603 296.814 935.286 297.173C931.506 300.878 930.585 301.66 928.737 303.395C928.107 304.002 927.192 304.435 926.146 304.431C923.675 304.406 919.798 304.42 911.526 304.55C908.451 304.521 905.376 304.491 902.301 304.462C898.828 304.604 892.319 304.518 887.068 304.534C883.367 304.545 883.569 304.602 878.526 304.603C873.48 304.604 873.661 304.55 873.268 304.55C869.155 304.547 866.054 304.594 863.037 304.585C862.582 304.583 861.443 304.519 857.598 304.515C853.752 304.511 851.434 304.579 845.706 304.566C842.771 304.56 841.922 304.506 839.319 304.501C826.912 304.478 814.418 304.751 805.113 304.427C803.015 304.468 787.802 304.612 781.291 304.604C771.164 304.59 775.066 304.527 771.04 304.515C770.462 304.513 767.378 304.535 758.883 304.531C757.362 304.53 757.715 304.566 757.497 304.567C747.593 304.566 728.36 304.538 717.483 304.533C716.511 304.532 711.422 304.632 702.8 304.498C690.022 304.597 665.953 304.383 649.1 304.533C646.764 304.536 643.928 304.501 642.893 304.502C633.981 304.513 637.247 304.622 617.106 304.462C618.737 304.518 614.025 304.568 607.368 304.564C597.36 304.557 604.469 304.454 596.425 304.462C596.425 304.492 596.425 304.521 596.425 304.55C577.921 304.471 574.239 304.596 555.671 304.597C548.992 304.597 539.126 304.532 537.534 304.532C536.918 304.533 529.613 304.603 528.916 304.603C524.987 304.606 522.769 304.573 519.377 304.573C508.17 304.572 494.797 304.664 497.216 304.498C494.135 304.533 491.053 304.568 487.972 304.603C476.33 304.425 467.624 304.67 465.184 304.498C463.102 304.533 461.02 304.569 458.939 304.604C409.007 304.586 359.075 304.568 309.142 304.55C307.157 304.606 285.383 304.586 284.267 304.577C279.139 304.538 284.555 304.417 274.092 304.445C272.934 304.498 271.776 304.551 270.619 304.604C257.468 304.621 263.793 304.569 258.603 304.533C256.434 304.539 257.135 304.58 254.199 304.583C238.277 304.6 205.629 304.602 188.218 304.605C184.707 304.606 185.237 304.567 184.146 304.567C181.149 304.567 175.233 304.616 169.217 304.616C132.017 304.616 79.3056 304.588 41.8572 304.548C39.3138 304.545 38.9989 304.499 37.2826 304.497C34.9039 304.494 29.5909 304.531 27.0892 304.527C24.7326 304.523 23.2233 304.488 20.7018 304.484C18.9532 304.482 17.1134 304.48 15.2072 304.48C14.8454 304.48 14.4826 304.428 14.1342 304.323C10.4977 303.238 6.61766 302.083 2.68096 300.908C1.12877 300.468 -0.021842 298.93 0.000328302 297.31C0.000821114 293.659 0.00443721 289.984 0.0156736 286.42C0.0129247 285.393 0.457785 284.381 1.20515 283.691C2.94519 282.077 4.64623 280.505 6.27956 279.003C6.21635 279.064 6.1649 279.137 6.12937 279.216C6.11027 279.26 6.06733 279.362 6.07085 279.512C6.10758 276.631 6.25759 266.172 6.26847 265.909C6.34033 264.192 6.45323 275.686 6.55838 256.807C6.65014 273.68 6.81236 268.409 6.89162 246.49C6.91206 257.484 6.93251 268.478 6.95296 279.471C6.96934 279.485 6.98571 279.498 7.00209 279.512C7.00494 279.512 7.00779 279.513 7.01063 279.513C7.01065 279.513 7.01068 279.512 7.0107 279.512C7.10593 269.506 7.13763 259.578 7.14643 244.364C7.16423 244.839 7.18203 245.313 7.19984 245.788C7.2725 256.769 7.29678 269.601 7.3694 279.512C7.37314 279.682 7.30211 279.851 7.18089 279.967C5.90508 281.179 4.70612 282.32 3.60548 283.373C4.81488 282.257 6.02428 281.14 7.23368 280.024C7.37595 279.896 7.46181 279.706 7.46347 279.512C7.54099 266.556 7.61852 253.6 7.69604 240.644C7.71007 241.394 7.72411 242.143 7.73815 242.893C7.77461 250.089 7.79601 265.808 7.83001 271.784C7.95962 294.608 7.92701 251.808 8.00609 258.838C8.00527 265.729 8.00446 272.621 8.00364 279.512C8.00499 279.853 7.85783 280.192 7.60736 280.424C5.9245 281.996 4.24163 283.568 2.55877 285.14C2.20717 285.465 2.00065 285.941 2.00254 286.42C2.00211 290.05 2.00168 293.68 2.00125 297.31C1.99053 298.065 2.527 298.785 3.25332 298.991C7.07053 300.131 10.8877 301.271 14.705 302.412C14.8676 302.46 15.0374 302.485 15.2072 302.485C20.8921 302.486 26.5769 302.486 32.2618 302.487C32.4974 302.471 25.4597 302.447 15.2072 302.416C15.0448 302.416 14.8817 302.392 14.725 302.345C11.2306 301.29 7.35954 300.122 3.28278 298.893C2.60494 298.699 2.09783 298.024 2.1095 297.31C2.11964 293.774 2.13021 290.111 2.14118 286.42C2.1406 285.979 2.33173 285.542 2.65582 285.243C4.34404 283.676 6.03731 282.103 7.71827 280.543C8.0026 280.281 8.17012 279.898 8.16983 279.512C8.23541 258.78 8.31237 239.791 8.39243 240.226C8.40423 247.8 8.41603 255.374 8.42783 262.948C8.47248 259.572 8.51714 256.196 8.56179 252.821C8.57593 253.751 8.59007 254.681 8.60421 255.611C8.62584 263.578 8.64747 271.545 8.66909 279.512C8.67233 280.035 8.44792 280.556 8.06403 280.913C6.38562 282.489 4.70721 284.066 3.0288 285.643C2.81612 285.841 2.69221 286.13 2.69452 286.42C2.6991 288.109 2.70369 289.798 2.70827 291.487C2.70672 289.757 2.70529 288.069 2.704 286.42C2.70252 286.131 2.8274 285.846 3.0369 285.651C4.78021 284.02 6.46107 282.448 8.08199 280.932C8.47457 280.568 8.70055 280.039 8.69818 279.512C8.68937 258.629 8.71765 245.192 8.84732 236.289C8.85876 235.58 8.48699 234.905 7.92825 234.529C6.17191 233.315 4.65429 232.253 3.33616 231.313C3.12719 231.156 3.03062 230.904 3.05037 230.685C3.05295 230.916 3.17889 231.14 3.37122 231.261C3.84157 231.568 4.31191 231.876 4.78226 232.184C5.55025 232.725 6.64479 233.48 8.00788 234.41C8.59216 234.798 9.00815 235.512 8.99971 236.289C8.91648 245.799 8.91625 263.477 8.93644 279.512C8.93935 280.11 8.6816 280.702 8.24535 281.107C6.52691 282.717 4.83895 284.298 3.20443 285.831C3.04204 285.982 2.9489 286.202 2.95055 286.42C2.95735 290.359 2.96469 294.049 2.97145 297.31C2.97171 297.378 2.98062 297.445 2.99762 297.509C2.98387 297.449 2.97569 297.383 2.97727 297.31C3.00094 295.257 3.00673 290.983 3.00816 286.42C3.0074 286.217 3.09501 286.014 3.24539 285.874C4.96961 284.264 6.71554 282.632 8.29378 281.159C8.75682 280.729 9.01207 280.113 9.00944 279.512C9.01083 276.717 9.01471 274.44 9.02565 273.331C9.03676 272.217 9.08148 276.1 9.10438 273.521C9.16391 266.78 9.2405 238.054 9.31342 242.229C9.34328 243.942 9.38021 263.335 9.4018 279.512C9.40523 280.24 9.09091 280.957 8.56306 281.447C6.80282 283.096 5.1046 284.686 3.52065 286.169C3.45104 286.234 3.4121 286.328 3.41296 286.42C3.41788 291.214 3.42045 295.125 3.41978 297.31C3.41976 297.342 3.42374 297.369 3.43044 297.395C3.4238 297.368 3.42065 297.34 3.42114 297.31C3.43541 293.697 3.44795 290.065 3.45946 286.42C3.4604 286.339 3.49651 286.26 3.5559 286.207C5.2404 284.643 6.92804 283.075 8.61784 281.506C9.16589 280.999 9.48897 280.259 9.48712 279.512C9.52745 265.092 9.56084 250.56 9.62934 236.289C9.62972 236.137 9.61793 235.984 9.59402 235.833C9.61917 235.984 9.6322 236.137 9.63304 236.289C9.7626 248.39 9.91736 259.305 9.94967 279.512C9.95395 280.377 9.58426 281.247 8.9372 281.847C7.77414 282.937 6.56896 284.065 5.31804 285.234C3.84061 286.643 5.614 285.017 8.98513 281.899C9.61592 281.318 10.0287 280.442 10.0276 279.512C10.0865 266.833 10.1462 241.087 10.1749 240.245C10.2187 249.192 10.2626 258.139 10.3064 267.086C10.2947 259.518 10.283 251.951 10.2713 244.383C10.286 244.361 10.3006 244.339 10.3153 244.317C10.3565 256.203 10.4186 267.477 10.4592 279.512C10.4647 280.523 10.0314 281.529 9.28662 282.221C7.63204 283.777 5.95605 285.352 4.25178 286.952C4.39799 286.817 4.48525 286.621 4.4854 286.42C4.493 289.951 4.49803 293.571 4.49953 297.31C4.50361 296.991 4.27922 296.686 3.96822 296.597C4.79265 296.843 5.62322 297.091 6.46027 297.341C6.29309 297.271 5.36963 296.981 3.98055 296.555C4.26979 296.631 4.55243 296.927 4.55341 297.31C4.56606 294.246 4.56911 290.107 4.56982 286.42C4.57074 286.647 4.47197 286.867 4.31142 287.016C5.39682 286.002 6.40293 285.061 7.2495 284.271ZM59.871 0.407144C59.4182 0.342886 67.6441 0.353421 72.2757 0.354655C71.5797 0.342957 70.8836 0.331259 70.1877 0.319561C80.072 0.331714 98.4718 0.356374 99.1542 0.231673C106.205 0.216175 103.087 0.324615 105.361 0.336956C106.25 0.341887 115.454 0.278778 122.815 0.355571C124.565 0.355266 126.314 0.35496 128.064 0.354655C128.402 0.313763 128.741 0.272871 129.079 0.231978C131.518 0.281619 133.958 0.331259 136.397 0.380899C110.901 0.389647 85.4049 0.398396 59.909 0.407144C59.8963 0.407144 59.8835 0.407144 59.871 0.407144ZM314.011 0.35435C323.296 0.377423 337.518 0.413855 334.645 0.301861C328.779 0.307761 322.914 0.313661 317.048 0.319561C316.036 0.331157 315.024 0.342754 314.011 0.35435ZM947.728 284.714C942.129 290.003 937.107 295.014 928.602 303.256C928.462 303.392 928.31 303.516 928.149 303.627C928.193 303.625 928.237 303.623 928.281 303.619C928.408 303.524 928.531 303.419 928.649 303.304C932.233 299.746 941.392 290.895 947.728 284.714ZM0.583706 175.912C0.575059 177.621 0.566413 179.329 0.557766 181.037C0.432537 174.089 0.520788 172.846 0.508635 164.988C0.507874 164.514 0.479209 164.679 0.479033 164.513C0.4771 162.591 0.511604 160.812 0.511076 159.075C0.510018 155.725 0.475054 152.994 0.476287 147.06C0.477356 142.471 0.532321 142.427 0.530912 140.814C0.529553 139.44 0.378344 125.823 0.443634 117.059C0.567983 100.392 0.59533 170.825 0.583706 175.912ZM0.480254 225.313C0.479746 223.664 0.479237 222.016 0.478728 220.368C0.563215 225.324 0.550375 215.322 0.548611 207.982C0.629632 208.21 0.594975 223.737 0.619105 230.685C0.572821 228.894 0.526538 227.103 0.480254 225.313ZM0.653894 16.8716C0.662151 23.3214 0.561027 22.2467 0.530912 21.9778C0.530912 19.9246 0.530912 17.8714 0.530912 15.8181C0.571906 16.1693 0.6129 16.5205 0.653894 16.8716ZM0.688988 65.3801C0.620297 63.3742 0.590257 49.3724 0.584621 42.7346C0.58461 42.4448 0.622307 44.2678 0.6188 39.5741C0.6177 38.1645 0.480528 24.2989 0.636194 27.3497C0.653792 40.0202 0.67139 52.6906 0.688988 65.3611C0.688988 65.3674 0.688988 65.3738 0.688988 65.3801ZM0.648401 79.5217C0.626836 76.8832 0.605271 74.2447 0.583706 71.6062C0.615952 70.2427 0.648197 68.8791 0.680443 67.5156C0.688581 70.5179 0.696719 73.5202 0.704857 76.5225C0.686038 77.5222 0.667219 78.5219 0.648401 79.5217ZM280.584 303.745C281.198 303.779 281.812 303.814 282.425 303.848C284.803 303.869 296.364 303.719 292.704 303.69C288.664 303.708 284.624 303.726 280.584 303.745ZM231.762 303.672C229.358 303.655 226.954 303.638 224.549 303.62C221.784 303.679 219.019 303.737 216.254 303.796C228.266 303.835 241.046 303.881 238.985 303.708C241.734 303.708 244.484 303.708 247.233 303.708C244.918 303.779 245.229 303.803 252.424 303.848C253.998 303.749 261.438 303.799 269.954 303.778C263.76 303.772 257.565 303.766 251.371 303.76C251.371 303.743 251.371 303.725 251.371 303.708C265.178 303.714 248.017 303.603 239.023 303.673C238.314 303.649 237.606 303.626 236.897 303.603C235.186 303.626 233.474 303.649 231.762 303.672ZM955.733 10.7073C955.716 12.4189 955.698 14.1303 955.681 15.8419C955.874 21.4505 955.749 12.6612 955.815 3.99999C955.86 2.35608 954.38 0.885883 952.755 0.916671C951.977 0.907026 951.211 0.89539 950.467 0.881372C953.644 1.01917 938.987 1.01341 938.148 1.02266C939.834 1.06905 941.521 1.11544 943.207 1.16182C946.39 1.13787 949.572 1.11391 952.755 1.08996C954.306 1.04769 955.713 2.43848 955.683 3.99999C955.7 6.23575 955.717 8.47155 955.733 10.7073ZM955.575 59.2252C955.69 53.2905 955.697 82.4445 955.671 92.2254C955.665 94.6038 955.602 98.8426 955.61 100.558C955.634 101.599 955.657 102.64 955.68 103.681C955.6 104.914 955.69 124.013 955.733 131.537C955.704 132.246 955.675 132.954 955.646 133.663C955.657 136.406 955.669 139.149 955.68 141.892C955.651 141.547 955.622 141.202 955.593 140.857C955.628 142.933 955.663 145.008 955.698 147.083C955.737 155.231 955.578 150.207 955.628 156.328C955.683 163.131 955.777 151.983 955.839 152.189C955.823 146.668 955.787 134.113 955.786 128.509C955.785 125.292 955.895 128.939 955.768 115.07C955.798 112.03 955.827 108.99 955.857 105.949C955.81 100.369 955.763 94.788 955.716 89.2073C955.757 88.1664 955.798 87.1255 955.838 86.0847C955.845 85.4889 955.752 72.5825 955.721 73.2719C955.799 68.0439 955.813 57.3103 955.817 46.0043C955.795 44.916 955.773 43.8277 955.751 42.7394C955.799 53.6746 955.727 46.2189 955.685 49.478C955.66 51.3597 955.612 57.116 955.575 59.2252ZM356.768 303.655C338.407 303.755 349.775 303.673 329.928 303.673C331.313 303.725 332.699 303.778 334.085 303.831C343.843 303.734 359.899 303.798 356.787 303.655C356.781 303.655 356.775 303.655 356.768 303.655ZM162.554 303.83C173.057 303.799 167.786 303.717 181.1 303.69C181.106 303.69 181.112 303.69 181.118 303.69C174.234 303.684 167.35 303.679 160.466 303.673C161.162 303.725 161.858 303.778 162.554 303.83ZM776.536 303.767C786.606 303.79 784.624 303.749 793.762 303.83C807.368 303.731 795.85 303.745 795.85 303.655C792.74 303.681 789.63 303.708 786.52 303.734C778.981 303.65 786.131 303.608 786.131 303.599C786.125 303.599 786.118 303.599 786.112 303.599C786.113 303.572 786.356 303.567 783.464 303.55C781.155 303.622 778.845 303.695 776.536 303.767ZM819.634 303.655C816.181 303.715 814.628 303.792 823.706 303.83C823.712 303.83 823.719 303.83 823.725 303.83C824.454 303.697 833.157 303.805 837.126 303.796C838.167 303.781 839.208 303.767 840.249 303.752C833.377 303.72 826.506 303.688 819.634 303.655ZM955.558 268.986C955.706 268.947 955.72 276.566 955.856 265.844C955.853 263.762 955.851 261.681 955.848 259.599C955.816 258.232 955.783 256.866 955.751 255.499C956.018 229.093 955.563 221.22 955.733 265.844C955.733 265.85 955.733 265.857 955.733 265.863C955.675 266.904 955.616 267.945 955.558 268.986ZM924.984 303.545C924.649 303.622 924.314 303.7 923.978 303.778C918.147 303.59 910.613 303.769 899.178 303.637C898.144 303.661 897.109 303.684 896.075 303.708C891.801 303.656 849.824 303.641 858.918 303.76C862.888 303.812 871.536 303.742 872.281 303.743C874.803 303.749 878.093 303.816 882.351 303.812C884.812 303.809 889.999 303.731 895.021 303.731C902.674 303.731 914.632 303.829 926.146 303.829C926.945 303.831 927.737 303.509 928.306 302.951C931.873 299.48 935.345 296.073 938.433 292.99C939.211 292.265 939.99 291.541 940.768 290.817C948.615 283.171 945.94 285.667 953.312 278.625C958.104 273.453 923.94 307.2 930.902 300.016C930.897 300.02 930.893 300.025 930.888 300.029C929.96 300.934 929.033 301.84 928.105 302.745C927.589 303.251 926.87 303.544 926.146 303.542C925.759 303.543 925.372 303.544 924.984 303.545ZM623.332 303.655C622.671 303.589 609.963 303.691 612.949 303.533C608.802 303.588 604.654 303.643 600.506 303.698C600.538 303.713 600.57 303.728 600.601 303.743C604.723 303.731 608.846 303.719 612.968 303.708C612.984 303.731 613 303.755 613.015 303.778C619.158 303.693 644.794 303.73 644.013 303.813C645.383 303.778 646.753 303.743 648.123 303.708C660.385 303.803 670.935 303.702 684.293 303.795C685.327 303.766 686.362 303.737 687.396 303.708C688.07 303.731 688.744 303.755 689.418 303.778C694.284 303.781 699.149 303.784 704.015 303.787C719.871 303.693 689.063 303.571 685.327 303.585C684.831 303.587 684.908 303.647 681.806 303.657C676.297 303.673 645.461 303.613 635.927 303.653C635.845 303.613 635.762 303.573 635.68 303.533C631.564 303.573 627.448 303.614 623.332 303.655ZM955.716 210.066C955.757 209.37 955.798 208.674 955.839 207.978C955.798 195.966 955.833 188.402 955.698 191.482C955.698 191.488 955.698 191.495 955.698 191.501C955.704 197.689 955.71 203.877 955.716 210.066ZM268.521 1.00435C268.836 1.08564 274.578 1.11603 281.998 1.05776C281.641 1.03416 281.283 1.01056 280.926 0.98696C277.059 1.05618 272.233 0.935533 260.302 0.951561C260.302 0.992453 260.302 1.03335 260.302 1.07424C263.042 1.05094 265.781 1.02765 268.521 1.00435ZM955.698 220.43C955.65 224.091 955.796 234.366 955.804 227.605C955.809 222.435 955.724 218.465 955.698 220.43ZM121.24 303.751C123.954 303.76 126.669 303.768 129.383 303.777C130.797 303.742 132.211 303.707 133.626 303.673C133.619 303.673 133.613 303.673 133.607 303.673C129.484 303.699 125.362 303.725 121.24 303.751ZM742.112 303.773C751.318 303.768 760.524 303.763 769.731 303.758C769.822 303.735 769.914 303.713 770.006 303.69C760.783 303.773 757.075 303.684 754.925 303.678C754.934 303.678 754.944 303.678 754.953 303.678C748.048 303.66 741.47 303.647 734.937 303.62C737.329 303.671 739.72 303.722 742.112 303.773ZM710.554 303.63C712.105 303.79 714.131 303.809 728.274 303.696C727.714 303.677 727.154 303.657 726.594 303.637C719.265 303.649 714.991 303.686 716.277 303.602C714.37 303.612 712.462 303.621 710.554 303.63ZM854.723 303.681C853.025 303.63 839.555 303.682 840.287 303.707C840.576 303.718 858.031 303.782 854.723 303.681ZM166.255 1.03975C169.359 1.05145 172.463 1.06315 175.566 1.07485C171.438 1.09224 167.309 1.10964 163.18 1.12703C164.205 1.09794 165.231 1.06885 166.255 1.03975ZM132.183 1.26771C129.97 1.24728 137.164 1.10318 123.935 1.066C133.562 1.06295 143.189 1.05989 152.816 1.05684C148.302 1.08014 143.787 1.10343 139.273 1.12673C140.06 1.16813 140.848 1.20953 141.636 1.25093C138.485 1.25652 135.334 1.26212 132.183 1.26771ZM121.847 1.16213C127.031 1.27165 99.7329 1.27988 97.1895 1.26649C96.623 1.26331 93.9299 1.18028 92.9376 1.16243C97.0598 1.16233 101.182 1.16223 105.304 1.16213C103.925 1.13598 102.546 1.10984 101.166 1.0837C105.991 1.07475 110.815 1.06579 115.64 1.05684C113.577 1.08309 111.515 1.10933 109.452 1.13558C113.584 1.14443 117.715 1.15328 121.847 1.16213ZM231.373 1.13558C227.922 1.13283 224.47 1.13008 221.019 1.12734C221.708 1.16823 222.398 1.20912 223.088 1.25001C225.153 1.25001 227.219 1.25001 229.285 1.25001C229.981 1.21187 230.677 1.17372 231.373 1.13558ZM161.045 1.18837C166.07 0.991481 179.764 1.42192 163.759 1.26253C162.146 1.24632 160.569 1.20739 161.045 1.18837ZM86.9582 1.24299C76.2263 1.38654 78.648 1.06961 88.7805 1.16243C89.2899 1.16737 87.7638 1.23239 86.9582 1.24299ZM6.49367 1.24757C6.04225 1.24702 5.4154 1.21908 3.75514 1.20601C2.63192 1.14888 0.974227 2.11954 0.954952 4C0.957197 5.40663 0.968739 7.22312 0.996596 9.59205C0.986587 10.7641 0.976579 11.9361 0.966571 13.1081C0.964881 13.3059 0.963191 13.5038 0.961502 13.7017C0.9593 13.5536 0.957139 13.3539 0.955031 13.1081C0.941373 11.5154 0.929901 7.98486 0.923578 4C0.883103 2.51938 2.22008 1.13202 3.75514 1.16538C11.9448 1.15697 20.7987 1.17133 18.5377 1.23201C14.34 1.23359 10.836 1.25074 6.49367 1.24757ZM33.0494 1.6272C37.1653 1.62435 41.2813 1.6215 45.3973 1.61865C44.04 1.58651 42.6828 1.55437 41.3256 1.52222C43.3503 1.51347 45.375 1.50473 47.3998 1.49598C50.861 1.55142 54.3218 1.60685 57.783 1.66229C48.8362 1.67114 39.8892 1.67999 30.9425 1.68884C31.6448 1.66829 32.347 1.64775 33.0494 1.6272ZM142.481 1.70654C134.561 1.66621 124.857 1.70914 111.996 1.70227C111.989 1.70217 111.983 1.70207 111.977 1.70196C111.335 1.7015 110.198 1.65734 108.133 1.65558C106.373 1.65417 71.636 1.70266 74.3447 1.62781C87.7849 1.56071 92.8061 1.66272 96.0316 1.49628C96.6865 1.53138 97.3415 1.56647 97.9963 1.60157C110.92 1.66233 114.608 1.54084 121.866 1.49628C121.838 1.52273 121.809 1.54918 121.781 1.57563C126.627 1.57827 131.474 1.58092 136.321 1.58356C135.637 1.56617 134.954 1.54877 134.271 1.53138C135.986 1.53138 137.7 1.53138 139.415 1.53138C143.592 1.60975 148.887 1.62801 142.481 1.70654ZM14.3806 1.58356C13.2621 1.64254 9.26779 1.6723 3.75514 1.68599C2.57201 1.65423 1.4201 2.72036 1.44589 4C1.45039 6.78687 1.45171 9.87045 1.45124 13.1081C1.44945 25.4011 1.4218 39.9145 1.44397 48.8373C1.32318 39.9456 1.40642 26.1706 1.40765 16.473C1.40781 15.213 1.40762 14.0962 1.40712 13.1081C1.40018 -0.605277 1.33383 10.4708 1.30359 7.50404C1.29873 7.0271 1.30719 5.71544 1.31916 4C1.28071 2.81625 2.36489 1.55062 3.75514 1.58035C7.46244 1.60507 11.9479 1.62761 14.3806 1.58356ZM171.409 1.67145C162.062 1.65524 156.83 1.70143 148.745 1.62781C149.422 1.61316 150.099 1.59851 150.776 1.58387C153.545 1.59727 176.121 1.63958 171.409 1.67145ZM1.39148 73.6562C1.46352 55.6039 1.28188 64.5084 1.41803 55.1203C1.42668 61.299 1.43532 67.4776 1.44397 73.6562C1.42647 73.6562 1.40898 73.6562 1.39148 73.6562ZM954.944 241.092C954.939 248.699 954.902 257.195 954.978 261.744C954.99 256.575 955.001 251.405 955.013 246.236C954.99 244.521 954.967 242.806 954.944 241.092ZM954.204 24.1465C954.186 25.8835 954.24 32.7525 954.24 33.4762C954.24 34.821 954.213 34.4535 954.206 34.4727C954.211 43.2749 954.293 35.1543 954.311 41.6669C954.314 42.7804 954.273 58.0798 954.276 64.3029C954.282 73.877 954.276 83.4375 954.278 87.0148C954.28 93.0535 954.341 104.263 954.345 114.188C954.346 118.279 954.297 119.707 954.298 123.821C954.306 150.227 954.374 202.212 954.342 225.64C954.335 231.429 954.27 236.949 954.276 240.01C954.299 242.423 954.323 244.837 954.346 247.251C954.135 254.675 954.323 257.158 954.342 265.161C954.355 270.244 954.292 272.621 954.292 273.304C954.293 273.857 954.293 274.375 954.294 274.866C954.296 275.297 954.112 275.698 953.83 275.972C951.797 277.96 950.404 279.34 948.434 281.26C945.576 284.046 941.444 288.022 940.425 289.02C939.799 289.633 941.863 287.743 930.759 298.534C929.601 299.659 928.445 300.783 927.289 301.905C926.988 302.201 926.568 302.371 926.146 302.369C912.402 302.366 898.747 302.359 884.733 302.356C890.086 302.607 894.695 302.435 901.247 302.426C903.005 302.424 901.891 302.464 903.421 302.462C907.743 302.457 916.016 302.418 919.593 302.427C923.202 302.437 922.287 302.518 926.146 302.501C926.466 302.5 926.818 302.409 927.132 302.195C927.334 302.044 926.794 302.423 927.348 301.966C927.411 301.902 927.492 301.822 927.595 301.72C935.854 293.604 938.619 291.01 949.118 280.807C950.1 279.853 951.784 278.215 953.957 276.102C954.278 275.792 954.48 275.339 954.478 274.866C954.471 255.796 954.448 213.882 954.469 212.182C954.603 201.636 954.604 263.711 954.593 270.969C954.589 273.51 954.547 270.846 954.539 273.162C954.538 273.378 954.542 273.974 954.547 274.866C954.552 275.288 954.392 275.782 954.01 276.157C951.516 278.613 947.18 282.884 942.854 287.094C939.011 290.835 933.182 296.484 927.434 302.054C927.093 302.386 926.62 302.577 926.146 302.575C918.813 302.563 911.691 302.551 906.999 302.552C820.606 302.569 735.411 302.52 649.1 302.519C647.26 302.519 644.837 302.568 638.84 302.568C526.929 302.567 410.94 302.529 297.601 302.551C272.892 302.556 248.385 302.602 223.448 302.566C220.354 302.601 217.26 302.636 214.166 302.671C222.08 302.643 236.582 302.723 237.903 302.724C238.379 302.725 241.379 302.685 246.217 302.687C253.02 302.69 256.004 302.724 256.562 302.724C258.293 302.724 257.159 302.688 258.812 302.688C271.136 302.689 280.672 302.679 291.983 302.679C304.76 302.678 311.236 302.747 320.541 302.672C321.595 302.701 322.648 302.73 323.702 302.759C330.654 302.633 372.05 302.647 388.819 302.654C394.11 302.656 393.182 302.707 394.96 302.707C396.095 302.707 395.647 302.64 409.491 302.653C416.459 302.66 418.287 302.709 421.782 302.707C423.68 302.706 423.372 302.658 426.1 302.658C441.877 302.658 454.759 302.673 470.205 302.682C474.547 302.685 474.595 302.725 475.567 302.725C479.145 302.723 485.368 302.654 494.464 302.655C509.435 302.655 539.272 302.655 551.514 302.688C553.313 302.693 554.803 302.742 556.126 302.741C558.13 302.74 558.916 302.689 559.268 302.689C565.968 302.688 561.937 302.735 566.424 302.724C568.843 302.718 571.365 302.66 576.988 302.653C584.411 302.645 582.95 302.713 586.052 302.706C586.379 302.705 586.477 302.658 589.525 302.656C601.084 302.651 617.852 302.639 628.79 302.64C631.932 302.64 634.269 302.672 638.651 302.672C647.48 302.673 697.669 302.653 701.785 302.671C702.219 302.673 697.756 302.744 704.869 302.742C706.935 302.712 709.001 302.683 711.067 302.654C714.521 302.701 717.976 302.747 721.431 302.794C721.307 302.632 741.631 302.607 741.429 302.773C743.653 302.78 745.877 302.786 748.101 302.793C752.732 302.679 755.816 302.721 764.767 302.654C766.162 302.689 767.557 302.724 768.952 302.759C769.304 302.736 769.655 302.712 770.006 302.689C774.783 302.816 782.617 302.688 783.569 302.688C787.227 302.685 789.977 302.717 791.693 302.716C798.102 302.713 811.977 302.668 819.464 302.689C819.815 302.69 819.469 302.744 821.599 302.751C825.441 302.763 825.815 302.683 830.938 302.777C831.973 302.753 833.007 302.73 834.042 302.706C835.139 302.719 836.237 302.731 837.335 302.743C843.814 302.737 850.294 302.73 856.773 302.724C850.879 302.816 857.661 302.867 864.071 302.795C866.24 302.771 864.316 302.715 865.039 302.706C866.032 302.695 895.11 302.723 897.033 302.759C898.41 302.742 899.786 302.724 901.162 302.706C901.858 302.742 902.554 302.777 903.25 302.812C904.009 302.8 904.768 302.787 905.528 302.775C910.076 302.812 918.987 302.776 926.146 302.743C926.672 302.743 927.184 302.527 927.546 302.17C930.568 299.206 933.036 296.783 933.974 295.878C935.342 294.556 934.22 295.856 940.748 289.489C940.947 289.239 941.145 288.989 941.343 288.739C942.836 287.28 944.329 285.82 945.822 284.36C948.635 281.632 952.774 277.708 952.939 277.616C953.356 277.191 953.772 276.766 954.189 276.341C954.578 275.953 954.795 275.407 954.784 274.866C954.778 274.637 954.773 274.407 954.767 274.177C954.863 270.89 954.829 253.355 954.768 246.302C954.797 244.239 954.826 242.177 954.855 240.114C954.82 237.343 954.785 234.571 954.75 231.8C954.739 225.38 954.797 232.162 954.802 230.794C954.812 227.899 954.714 213.146 954.836 214.118C954.837 212.106 954.837 210.094 954.837 208.082C954.802 207.047 954.767 206.013 954.732 204.978C954.853 201.524 954.81 195.549 954.854 183.291C954.827 182.263 954.799 181.235 954.771 180.207C954.811 176.417 954.85 172.627 954.89 168.837C954.844 168.058 954.798 167.28 954.752 166.502C954.745 164.854 954.738 163.205 954.732 161.557C954.835 158.209 954.724 152.195 954.766 149.133C954.828 144.667 954.902 148.121 954.916 156.413C954.991 155.793 954.957 131.092 954.951 125.396C954.937 125.773 954.922 126.149 954.907 126.526C954.919 132.35 954.93 138.174 954.942 143.999C954.753 148.879 954.804 133.063 954.78 125.805C954.777 125.141 954.706 121.379 954.713 114.064C954.715 111.231 954.82 100.181 954.826 98.0719C954.873 81.0383 954.724 93.563 954.855 76.8974C954.755 80.3715 954.838 70.7962 954.818 60.8292C954.815 59.1325 954.734 44.7454 954.732 43.7739C954.719 37.7154 954.807 44.3109 954.784 35.5452C954.761 34.4917 954.738 33.4382 954.714 32.3847C954.714 30.3442 954.714 28.3036 954.714 26.263C954.922 13.8804 954.769 10.9999 954.75 6.5977C954.743 5.05638 954.782 6.57068 954.786 3.99999C954.792 3.4774 954.558 2.74892 953.849 2.29089C953.535 2.08953 953.154 1.97269 952.755 1.97562C951.19 1.98836 949.204 2.02064 945.276 2.02331C930.658 2.03315 925.696 1.84026 912.257 2.041C910.194 2.01191 908.131 1.98282 906.069 1.95373C904.677 1.98862 903.285 2.02351 901.893 2.0584C891.246 1.95715 895.09 2.06085 891.244 2.05962C881.09 2.05645 860.31 2.0366 858.49 1.95312C849.724 2.14488 839.243 1.92855 835.788 1.93603C833.735 1.95932 831.681 1.98262 829.628 2.00591C827.214 1.98251 824.8 1.95912 822.387 1.93572C823.56 2.12404 811.058 1.93886 809.858 1.93603C808.473 1.93321 789.246 1.98894 782.088 1.98791C774.94 1.98685 762.485 1.93582 761.388 1.93572C760.127 1.93572 747.96 1.98691 738.448 1.98638C730.125 1.98583 680.816 1.91312 683.922 1.99706C687.148 2.02031 691.74 2.04046 695.71 2.05138C708.035 2.08485 780.372 2.12771 798.858 2.1411C835.933 2.16769 874.599 2.16276 911.839 2.18108C914.03 2.18213 914.363 2.23094 916.243 2.23204C919.097 2.23345 926.338 2.1846 929.151 2.18565C937.073 2.18884 946.29 2.19416 952.755 2.19711C953.786 2.18115 954.587 3.11332 954.557 3.99999C954.557 5.12022 954.556 6.11348 954.556 6.94887C954.554 19.5193 954.524 28.1414 954.519 37.6522C954.518 40.6298 954.579 55.6833 954.553 66.0018C954.539 67.8715 954.526 69.7413 954.512 71.611C954.496 66.2966 954.454 52.3533 954.45 45.8809C954.443 36.2483 954.482 31.224 954.482 27.6677C954.481 24.8846 954.442 11.4058 954.436 3.99999C954.439 3.41697 954.123 2.8956 953.705 2.61441C953.391 2.39918 953.052 2.31874 952.755 2.31696C951.332 2.30573 950.775 2.26943 949.224 2.26957C939.237 2.27081 926.083 2.27218 917.42 2.32237C920.956 2.30599 898.875 2.27459 897.717 2.27476C895.732 2.27478 893.578 2.32267 889.526 2.32267C881.733 2.32265 882.721 2.22247 872.983 2.32267C870.572 2.29348 868.162 2.26428 865.751 2.23509C865.603 2.36856 835.141 2.18702 826.477 2.34922C826.25 2.36754 865.834 2.41952 869.101 2.42216C888.703 2.43818 917.711 2.40546 936.734 2.42887C939.928 2.4328 946.941 2.45978 952.755 2.48262C953.598 2.46896 954.29 3.23525 954.263 3.99999C954.249 7.51168 954.239 10.2127 954.24 10.7073C954.242 12.8977 954.288 10.919 954.29 11.8652C954.324 31.2342 954.231 21.5709 954.204 24.1465ZM121.866 1.79443C127.751 1.79992 133.635 1.80542 139.519 1.81091C139.092 1.84021 138.665 1.8695 138.238 1.8988C135.543 1.8874 132.847 1.87601 130.152 1.86462C128.08 1.88211 126.007 1.89961 123.935 1.91711C123.246 1.87621 122.556 1.83532 121.866 1.79443ZM107.364 1.91711C102.261 1.93186 102.012 1.87008 100.834 1.86706C97.3195 1.8579 94.2796 1.88288 90.8686 1.88201C94.7975 1.73526 103.166 1.80252 107.364 1.91711ZM212.761 1.9699C211.611 1.96288 203.93 1.8049 195.193 1.9519C188.657 1.90521 182.121 1.85852 175.585 1.81182C186.689 1.88316 202.055 1.80901 207.494 1.81182C209.559 1.8129 209.953 1.86139 211.603 1.86218C221.116 1.86605 230.363 1.75617 231.335 1.9168C222.34 1.87013 214.23 1.97853 212.761 1.9699ZM155.36 1.91283C153.838 1.87927 152.316 1.8457 150.795 1.81213C156.293 1.81213 161.791 1.81213 167.29 1.81213C165.803 1.84611 164.316 1.88008 162.829 1.91406C160.339 1.91365 157.85 1.91324 155.36 1.91283ZM578.364 2.02392C574.972 2.02351 571.581 2.0231 568.189 2.02269C568.375 2.04716 572.255 2.04706 573.685 2.06359C573.678 2.06359 573.672 2.06359 573.666 2.06359C575.258 2.08226 574.577 2.11376 577.472 2.12767C577.769 2.09309 578.066 2.0585 578.364 2.02392ZM210.057 302.566C204.372 302.565 151.875 302.564 156.347 302.654C158.601 302.698 176.556 302.659 181.849 302.66C188.985 302.661 208.258 302.758 210.057 302.566ZM117.083 302.549C116.173 302.638 148.982 302.652 152.19 302.637C151.509 302.624 150.459 302.596 149.551 302.589C145.126 302.559 124.156 302.573 117.083 302.549ZM768.288 2.28056C765.643 2.2356 762.998 2.19064 760.353 2.14568C761.049 2.20417 761.745 2.26266 762.441 2.32115C764.39 2.30762 766.339 2.29409 768.288 2.28056ZM954.539 73.737C954.536 117.797 954.533 161.858 954.53 205.918C954.506 202.042 954.482 198.167 954.457 194.292C954.466 156.326 954.491 115.838 954.453 79.1753C954.482 77.3625 954.51 75.5497 954.539 73.737ZM225.176 2.23326C236.465 2.23413 245.894 2.19117 258.176 2.2595C246.472 2.32573 240.677 2.22327 229.304 2.32084C229.298 2.32084 229.291 2.32084 229.285 2.32084C227.915 2.29165 226.546 2.26245 225.176 2.23326ZM477.218 2.25096C473.786 2.29185 470.353 2.33274 466.921 2.37364C471.049 2.37364 475.178 2.37364 479.306 2.37364C478.61 2.33274 477.914 2.29185 477.218 2.25096ZM782.411 302.286C770.603 302.375 740.395 302.214 730.799 302.321C730.178 302.328 735.883 302.373 726.661 302.461C733.627 302.443 738.546 302.425 739.065 302.356C741.134 302.379 743.203 302.403 745.272 302.426C748.705 302.408 752.138 302.391 755.57 302.373C755.198 302.442 755.47 302.438 760.743 302.391C763.147 302.408 765.552 302.426 767.956 302.443C768.975 302.414 769.993 302.385 771.012 302.356C773.094 302.397 775.175 302.437 777.257 302.478C785.371 302.434 780.43 302.355 782.411 302.286ZM823.744 302.303C821.824 302.288 767.078 302.337 791.959 302.474C798.425 302.47 804.892 302.465 811.358 302.461C806.003 302.234 823.625 302.437 825.073 302.442C831.998 302.464 840.824 302.41 845.848 302.413C850.17 302.415 852.737 302.456 855.776 302.455C866.129 302.451 882.483 302.45 884.733 302.356C876.685 302.354 868.511 302.353 860.142 302.355C851.291 302.358 843.511 302.269 826.885 302.391C822.774 302.378 824.24 302.307 823.744 302.303ZM456.585 2.36418C456.998 2.26989 436.104 2.29243 435.97 2.32969C435.929 2.35153 442.734 2.35102 443.706 2.35929C443.712 2.35929 443.718 2.35929 443.725 2.35929C444.13 2.36291 442.074 2.399 445.272 2.40904C449.043 2.39408 452.814 2.37913 456.585 2.36418ZM291.708 302.356C288.883 302.303 224.362 302.322 222.461 302.347C221.945 302.354 222.665 302.377 222.461 302.391C237.514 302.316 258.912 302.404 273.2 302.41C277.183 302.412 275.993 302.374 276.218 302.374C276.228 302.374 276.237 302.374 276.247 302.374C278.507 302.373 288.71 302.465 291.708 302.356ZM710.137 302.364C712.88 302.379 715.623 302.394 718.365 302.408C719.061 302.379 719.757 302.35 720.453 302.321C720.447 302.321 720.441 302.321 720.435 302.321C717.002 302.335 713.569 302.35 710.137 302.364ZM615.104 302.268C615.771 302.289 616.438 302.309 617.106 302.33C624.012 302.332 630.919 302.335 637.825 302.338C637.129 302.35 636.433 302.361 635.737 302.373C646.18 302.404 650.504 302.332 656.067 302.342C656.06 302.342 656.054 302.342 656.048 302.342C656.646 302.343 657.371 302.386 659.597 302.388C664.703 302.391 679.336 302.407 681.104 302.364C684.846 302.272 655.398 302.315 649.907 302.311C647.426 302.309 644.441 302.272 642.931 302.271C641.277 302.27 639.025 302.321 634.997 302.319C633.818 302.319 620.75 302.259 615.104 302.268ZM493.201 302.329C495.331 302.376 499.777 302.331 501.411 302.338C501.801 302.34 498.766 302.379 502.445 302.391C503.486 302.364 504.527 302.338 505.568 302.311C501.446 302.317 497.323 302.323 493.201 302.329ZM421.478 2.40873C422.079 2.41867 433.296 2.41503 433.835 2.40873C440.555 2.32419 417.321 2.33335 421.478 2.40873ZM138.39 2.50547C143.55 2.62835 82.3281 2.50754 76.3948 2.51401C76.6913 2.43679 91.2554 2.51443 83.6269 2.40843C90.9059 2.46672 111.028 2.43577 115.763 2.45267C118.637 2.46289 119.363 2.5296 119.797 2.53171C121.501 2.53923 136.571 2.46215 138.39 2.50547ZM25.8078 2.46152C31.6258 2.47617 37.4438 2.49082 43.2618 2.50547C36.3966 2.51422 29.5314 2.52296 22.6663 2.53171C23.7135 2.50832 24.7606 2.48492 25.8078 2.46152ZM18.4903 2.49662C18.6075 2.54372 10.8306 2.53861 3.75514 2.53264C2.9576 2.51351 2.26473 3.23655 2.28579 4C2.28317 7.24232 2.28167 10.1055 2.28684 11.6611C2.24083 9.54663 2.22712 6.92166 2.22706 4C2.20483 3.20882 2.92058 2.45473 3.75514 2.47437C8.36477 2.48313 13.5194 2.51174 18.4903 2.49662ZM347.068 2.6019C356.167 2.65139 360.077 2.42322 349.014 2.52256C348.677 2.52584 346.689 2.59928 347.068 2.6019ZM779.601 301.965C778.05 301.964 758.756 301.89 757.639 301.926C754.108 302.043 766.769 301.996 771.012 302.04C777.856 302.112 767.791 302.171 784.499 302.128C783.815 302.151 783.132 302.174 782.449 302.198C792.227 302.206 789.027 302.043 790.782 302.023C791.319 302.016 797.432 302.03 798.536 302.02C812.316 301.889 781.04 301.966 779.601 301.965ZM572.299 2.6193C590.413 2.68798 582.62 2.5872 601.209 2.59336C601.829 2.54193 574.656 2.57421 572.299 2.6193ZM947.637 281.693C940.285 288.854 933.632 295.3 927.068 301.678C926.825 301.916 926.486 302.053 926.146 302.052C918.984 302.052 911.867 302.062 904.37 302.101C904.849 302.159 914.968 302.167 926.146 302.154C926.512 302.155 926.876 302.007 927.138 301.75C937.9 291.263 949.616 279.798 947.637 281.693ZM75.7685 301.916C148.658 302.164 232.734 302.083 310.338 302.079C318.796 302.078 319.607 302.134 322.667 302.128C324.672 302.124 324.321 302.079 326.986 302.079C423.285 302.072 515.492 302.014 607.738 302.04C613.549 302.042 641.817 302.138 647.857 301.994C652.425 301.884 632.117 301.97 628.733 301.969C626.189 301.968 626.081 301.917 624.386 301.916C622.587 301.916 624.073 301.951 621.984 301.952C613.135 301.954 603.478 301.941 595.476 301.944C517.002 301.972 440.656 301.964 362.596 301.959C353.147 301.959 355.089 301.918 354.614 301.917C354.608 301.917 354.601 301.918 354.595 301.918C303.933 301.914 246.073 302.006 192.413 301.971C154.626 301.942 116.839 301.914 79.0524 301.886C77.9578 301.896 76.8631 301.906 75.7685 301.916ZM819.606 302.11C814.891 301.955 813.837 302.111 796.922 302.048C795.546 302.074 794.17 302.101 792.794 302.127C801.74 302.121 810.688 302.116 819.634 302.11C819.625 302.11 819.615 302.11 819.606 302.11ZM707.887 302.053C705.029 301.844 667.204 301.992 650.173 301.952C647.051 302.057 671.81 302.01 677.649 302.021C680.565 302.027 696.179 302.135 708.049 302.075C707.995 302.068 707.941 302.061 707.887 302.053ZM202.445 2.81308C205.197 2.80697 207.949 2.80087 210.702 2.79477C203.815 2.77157 196.927 2.74838 190.04 2.72519C201.027 2.74014 212.015 2.75509 223.002 2.77005C220.955 2.81348 218.908 2.85692 216.861 2.90035C212.056 2.87126 207.25 2.84217 202.445 2.81308ZM238.093 2.7908C218.852 2.80716 238.938 2.69088 243.74 2.74258C246.614 2.77358 240.057 2.78904 238.093 2.7908ZM288.139 2.86556C279.165 2.94182 261.031 2.94707 267.477 2.79477C277.175 2.8661 283.426 2.80683 297.487 2.84786C295.434 2.87706 293.381 2.90625 291.328 2.93545C291.318 2.93545 291.309 2.93545 291.299 2.93545C290.246 2.91215 289.192 2.88886 288.139 2.86556ZM229.304 2.88296C216.702 2.79546 253.187 2.82538 241.718 2.88296C241.181 2.8856 229.8 2.88631 229.304 2.88296ZM156.347 301.759C154.829 301.809 164.521 301.808 167.746 301.811C181.723 301.826 199.649 301.804 214.185 301.811C213.09 301.795 211.996 301.778 210.901 301.762C192.716 301.761 174.532 301.76 156.347 301.759ZM259.656 301.811C269.644 301.811 279.632 301.811 289.619 301.811C290.55 301.811 294.916 301.769 291.67 301.758C280.998 301.776 270.327 301.794 259.656 301.811ZM882.654 301.811C874.996 301.784 897.048 301.641 896.056 301.794C891.589 301.8 887.122 301.806 882.654 301.811ZM945.939 282.915C942.506 286.272 939.072 289.63 935.638 292.988C935.622 292.98 935.605 292.971 935.588 292.963C939.038 289.614 942.489 286.264 945.939 282.915ZM117.083 301.724C122.17 301.784 134.305 301.775 141.873 301.776C136.661 301.724 124.236 301.75 117.083 301.724ZM767.918 301.75C768.538 301.791 738.077 301.781 748.623 301.708C755.054 301.722 761.486 301.736 767.918 301.75ZM706.046 301.689C712.58 301.68 717.64 301.694 716.297 301.759C712.832 301.756 709.368 301.753 705.904 301.75C705.951 301.73 705.999 301.71 706.046 301.689ZM322.297 2.98824C333.307 2.98244 344.316 2.97664 355.326 2.97085C354.917 2.98844 354.509 3.00604 354.101 3.02364C343.487 3.02934 332.873 3.03503 322.259 3.04073C322.272 3.02323 322.284 3.00574 322.297 2.98824ZM110.857 301.566C103.296 301.577 95.7344 301.589 88.1732 301.6C95.7407 301.612 103.308 301.624 110.876 301.636C110.876 301.612 110.876 301.589 110.876 301.565C110.869 301.566 110.863 301.566 110.857 301.566ZM171.476 3.2162C205.109 3.29827 162.194 3.38502 153.319 3.26442C153.31 3.26452 153.3 3.26462 153.291 3.26472C152.514 3.25406 154.157 3.20251 152.864 3.18172C156.287 3.20501 159.71 3.22831 163.133 3.2516C166.256 3.22261 169.378 3.19362 172.501 3.16463C173.529 3.17602 174.557 3.18741 175.585 3.19881C174.215 3.2046 172.845 3.2104 171.476 3.2162ZM35.7354 3.26198C5.23862 3.25246 36.4431 3.12355 51.5379 3.22536C51.4294 3.24891 38.5449 3.26286 35.7354 3.26198ZM115.659 3.23421C120.465 3.22251 125.27 3.21081 130.076 3.19911C130.69 3.21386 131.303 3.22861 131.917 3.24336C128.228 3.25801 124.539 3.27266 120.851 3.2873C119.12 3.2696 117.39 3.2519 115.659 3.23421ZM273.703 3.46186C281.436 3.47806 291.301 3.31406 266.471 3.35719C266.483 3.37479 266.496 3.39238 266.509 3.40998C267.499 3.40717 270.403 3.39066 270.561 3.39198C271.016 3.39638 270.48 3.45514 273.703 3.46186ZM3.48065 26.1348C3.48735 27.0031 3.67297 27.476 3.48096 36.5085C3.49265 39.2387 3.50435 41.969 3.51605 44.6992C3.47516 45.4047 3.43426 46.1102 3.39337 46.8157C3.42508 36.249 3.34234 35.1286 3.34058 34.3635C3.33284 30.851 3.37539 33.4505 3.37598 31.1841C3.37739 25.333 3.34881 12.0366 3.47027 18.0675C3.51378 20.2387 3.47396 25.2664 3.48065 26.1348ZM3.58624 5.47296C3.57617 6.306 3.5497 4.8532 3.52819 4C3.51817 3.92617 3.53504 3.88178 3.51018 3.93126C3.50642 3.94168 3.49895 3.96245 3.49717 4C3.48497 5.55473 3.45722 10.731 3.41522 13.1081C3.39394 14.3124 3.369 14.7982 3.34058 13.7301C3.34096 13.5228 3.34135 13.3154 3.34173 13.1081C3.34521 11.2242 3.34869 9.3404 3.35218 7.45658C3.3773 6.74792 3.40243 6.03926 3.42755 5.3306C3.42247 4.88707 3.41739 4.44353 3.41231 4C3.39665 3.81937 3.55862 3.63368 3.75514 3.63019C4.55102 3.62108 5.34669 3.61196 6.14246 3.60285C9.55446 3.66484 16.8155 3.74516 8.19254 3.79571C11.3625 3.79042 14.5325 3.78513 17.7026 3.77984C19.3444 3.75014 20.9864 3.72044 22.6283 3.69073C21.7678 3.736 20.9073 3.78127 20.0468 3.82653C14.6162 3.82777 9.18579 3.829 3.75514 3.83024C3.66611 3.82652 3.5818 3.91131 3.5859 4C3.58601 4.49099 3.58613 4.98198 3.58624 5.47296ZM3.56884 103.743C3.54545 103.357 3.52205 102.971 3.49866 102.585C3.54215 114.227 3.55869 132.357 3.41199 122.06C3.39978 106.289 3.38757 90.5186 3.37537 74.7477C3.39297 73.7005 3.41056 72.6534 3.42816 71.6062C3.36036 83.3717 3.64888 79.7355 3.5661 89.9712C3.55206 91.6968 3.45117 86.6893 3.51574 97.5356C3.53924 97.1496 3.56274 96.7636 3.58624 96.3777C3.58044 98.8327 3.57464 101.288 3.56884 103.743ZM3.53375 203.825C3.56757 183.891 3.65295 205.848 3.58197 209.529C3.58197 209.523 3.58197 209.517 3.58197 209.51C3.38773 219.598 3.48158 197.907 3.48035 196.584C3.47863 194.825 3.33957 190.728 3.54229 181.161C3.53945 188.716 3.5366 196.27 3.53375 203.825ZM3.56854 138.745C3.57312 140.42 3.5378 139.493 3.53833 140.217C3.53833 140.223 3.53833 140.229 3.53833 140.236C3.5459 150.906 3.57752 176.285 3.46356 179.035C3.45405 171.136 3.42943 135.795 3.50689 133.658C3.52744 135.354 3.54799 137.05 3.56854 138.745ZM3.4837 63.6622C3.55748 57.1117 3.56731 71.8587 3.53314 75.7253C3.52574 76.4552 3.40727 70.4487 3.4837 63.6622ZM444.218 3.919C458.631 3.87461 439.694 3.83032 446.249 3.76092C443.497 3.76682 440.744 3.77272 437.992 3.77862C440.067 3.82541 442.143 3.87221 444.218 3.919ZM952.696 150.206C952.688 153.565 952.73 151.974 952.731 152.265C952.73 154.472 952.695 156.553 952.699 157.4C952.768 173.058 952.804 162.645 952.812 162.487C952.854 162.156 952.903 166.272 952.951 160.57C952.936 157.109 952.921 153.648 952.907 150.187C952.93 148.469 952.953 146.751 952.977 145.033C952.927 138.157 952.913 147.155 952.846 148.175C952.82 148.568 952.789 142.1 952.696 150.206ZM470.043 4.05938C472.38 3.98575 478.107 3.89288 472.482 3.8189C472.476 3.8189 472.47 3.8189 472.463 3.8189C471.423 3.80537 467.187 3.79793 465.886 3.77893C456.608 3.87701 460.162 3.97837 470.043 4.05938ZM952.564 88.1253C952.581 82.5446 952.599 76.9639 952.616 71.3832C952.66 71.4781 952.704 71.573 952.748 71.6679C952.736 74.6544 952.724 77.6409 952.713 80.6274C952.733 81.6746 952.753 82.7218 952.773 83.7689C952.823 80.0611 952.874 76.3533 952.924 72.6455C952.906 68.1784 952.889 63.7113 952.871 59.2442C952.848 61.2974 952.825 63.3507 952.801 65.4039C952.776 54.4857 952.883 56.863 952.924 47.8266C952.883 44.7324 952.842 41.6385 952.801 38.5444C952.842 34.0646 952.884 29.5849 952.925 25.1051C952.905 17.5782 952.874 16.9163 952.827 21.9826C952.774 18.2401 952.858 14.1423 952.836 9.63481C952.834 9.26288 952.784 9.96372 952.783 9.63481C952.78 7.57082 952.779 5.69938 952.778 3.99999C952.78 3.98896 952.765 3.97527 952.755 3.97724C937.682 3.97314 938.192 3.87263 934.959 3.86773C932.333 3.86386 921.847 3.95322 921.681 3.98369C921.479 4.02475 943.288 4.18667 909.134 4.1909C926.792 4.3029 946.867 4.18889 933.887 4.02459C936.875 4.03343 945.311 4.02582 952.755 4.01758C952.744 4.01488 952.741 4.00915 952.74 3.99999C952.746 9.45921 952.752 13.9388 952.75 14.5796C952.743 16.8702 952.68 16.0668 952.679 18.936C952.678 20.6316 952.82 25.1241 952.696 38.5444C952.719 40.2591 952.743 41.9738 952.766 43.6885C952.747 45.2956 952.727 46.9028 952.708 48.5099C952.64 45.2007 952.571 41.8916 952.503 38.5823C952.577 51.691 952.437 62.5664 952.555 70.548C952.541 77.4489 952.528 80.8019 952.467 77.8371C952.467 79.9092 952.467 81.9815 952.467 84.0537C952.5 85.4109 952.532 86.7681 952.564 88.1253ZM512.392 3.95409C519.251 4.02254 521.717 3.87487 520.649 3.86651C514.634 3.82056 508.823 3.91848 512.392 3.95409ZM952.774 137.754C952.812 130.186 952.851 122.619 952.889 115.051C952.842 115.051 952.795 115.051 952.749 115.051C952.757 122.619 952.766 130.186 952.774 137.754ZM442.111 4.02398C441.415 3.98898 440.719 3.95399 440.023 3.919C431.734 4.04682 423.504 3.86343 419.409 3.9013C418.52 3.90957 420.314 3.97136 422.009 3.98461C423.064 3.99289 440.643 4.03578 442.111 4.02398ZM97.0472 4.00719C100.135 3.98369 103.223 3.9602 106.31 3.9367C106.14 3.97606 105.969 4.01543 105.798 4.0548C104.273 4.06212 102.748 4.06945 101.223 4.07677C99.8312 4.05358 98.4393 4.03038 97.0472 4.00719ZM132.183 3.94463C137.691 3.94779 143.199 3.95094 148.707 3.95409C127.698 3.9902 144.939 4.00782 132.183 4.05907C132.183 4.02092 132.183 3.98278 132.183 3.94463ZM187.933 4.02428C187.256 4.04778 186.579 4.07128 185.902 4.09477C180.394 4.09477 174.886 4.09477 169.378 4.09477C172.861 4.17636 176.344 4.25794 179.828 4.33952C181.846 4.33972 183.864 4.33993 185.883 4.34013C186.566 4.23485 187.249 4.12956 187.933 4.02428ZM936.155 290.674C934.023 292.745 927.21 299.446 926.043 300.623C926.06 300.612 926.069 300.612 926.066 300.617C926.061 300.621 926.055 300.626 926.051 300.631C929.468 297.354 932.886 294.076 936.303 290.799C936.287 290.75 936.27 290.701 936.253 290.652C936.757 290.194 937.261 289.737 937.765 289.28C939.715 287.36 941.665 285.44 943.616 283.52C944.633 282.588 945.651 281.656 946.668 280.724C947.63 279.724 948.591 278.725 949.552 277.726C940.019 286.876 940.403 286.618 938.43 288.534C937.43 289.506 936.777 290.1 936.413 290.434C936.327 290.514 936.241 290.594 936.155 290.674ZM952.477 132.524C952.465 148.301 952.588 157.318 952.485 168.732C952.705 161.412 952.478 114.141 952.661 97.4739C952.626 95.7434 952.591 94.0129 952.555 92.2823C952.587 101.358 952.514 107.646 952.504 112.071C952.496 115.586 952.532 115.219 952.532 115.488C952.532 115.5 952.532 115.513 952.532 115.526C952.517 123.755 952.481 126.301 952.477 132.524ZM430.39 4.19609C434.629 4.2517 442.047 4.24614 442.13 4.16496C438.002 4.14147 433.873 4.11797 429.744 4.09447C430.592 4.11525 429.666 4.18658 430.39 4.19609ZM194.339 4.25102C197.648 4.27744 205.464 4.25429 202.093 4.18419C201.487 4.17175 193.702 4.22102 198.269 4.09447C190.683 4.09643 192.458 4.23583 194.339 4.25102ZM814.035 4.11217C811.25 4.11451 808.466 4.11685 805.682 4.11919C805.034 4.15194 804.385 4.1847 803.737 4.21745C807.169 4.18236 810.602 4.14726 814.035 4.11217ZM394.609 4.25224C390.907 4.09194 384.584 4.24794 377.639 4.11614C375.073 4.11512 372.507 4.1141 369.942 4.11308C369.935 4.11308 369.929 4.11308 369.923 4.11308C369.853 4.15683 369.783 4.20057 369.714 4.24431C378.012 4.24695 386.31 4.2496 394.609 4.25224ZM952.564 36.5133C952.584 34.7986 952.605 33.0839 952.625 31.3692C952.601 28.3162 952.578 25.2633 952.554 22.2104C952.537 23.8618 952.52 25.5132 952.503 27.1647C952.523 30.2809 952.544 33.3971 952.564 36.5133ZM349.508 4.26597C358.482 4.28605 361.857 4.1467 350.381 4.14635C345.543 4.14635 340.105 4.24499 349.508 4.26597ZM770.044 300.547C773.119 300.559 776.194 300.571 779.269 300.583C780.316 300.553 781.364 300.524 782.411 300.495C778.288 300.512 774.166 300.529 770.044 300.547ZM151.782 4.23515C152.142 4.20586 152.503 4.17656 152.864 4.14726C155.607 4.15316 158.35 4.15906 161.092 4.16496C160.403 4.19406 159.713 4.22315 159.023 4.25224C156.609 4.24654 154.196 4.24085 151.782 4.23515ZM790.734 300.565C793.192 300.57 795.651 300.576 798.109 300.582C799.76 300.567 801.411 300.553 803.063 300.539C800.763 300.525 798.463 300.511 796.163 300.496C794.354 300.519 792.544 300.542 790.734 300.565ZM264.44 4.25255C267.893 4.28777 281.686 4.17802 269.261 4.15001C261.344 4.13223 263.922 4.24719 264.44 4.25255ZM245.828 4.28764C258.979 4.35475 249.118 4.01415 233.423 4.23485C249.223 4.20459 245.055 4.28359 245.828 4.28764ZM130.18 4.46342C129.85 4.46324 129.577 4.41427 126.934 4.41245C117.422 4.40611 104.866 4.38676 98.0627 4.38377C81.7075 4.37655 31.61 4.46508 25.7509 4.32334C24.5309 4.29358 27.3386 4.20464 26.8423 4.20006C25.3866 4.18728 17.0067 4.23044 18.5567 4.16496C26.7791 4.16547 35.0014 4.16598 43.2237 4.16649C41.2054 4.21267 39.1869 4.25885 37.1685 4.30503C57.6561 4.28038 50.8744 4.28323 56.7674 4.18266C60.2347 4.22162 63.7021 4.26058 67.1696 4.29954C74.718 4.26038 82.2666 4.22122 89.815 4.18205C88.1035 4.21125 86.3919 4.24044 84.6804 4.26964C96.0528 4.3237 92.8934 4.28825 99.1162 4.21745C99.1288 4.24665 99.1415 4.27584 99.1542 4.30503C110.134 4.23388 112.273 4.32137 114.672 4.32243C119.593 4.32415 125.865 3.97873 144.635 4.32243C152.549 4.15713 152.369 4.49341 157.021 4.32243C170.416 4.50857 144.94 4.4412 132.885 4.43504C132.879 4.43504 132.873 4.43504 132.866 4.43504C131.957 4.43451 133.401 4.46585 130.18 4.46342ZM198.99 4.29222C190.881 4.44395 222.918 4.45816 212.315 4.23912C210.737 4.232 209.158 4.22488 207.579 4.21776C204.71 4.24258 201.84 4.2674 198.971 4.29222C198.977 4.29222 198.984 4.29222 198.99 4.29222ZM500.006 4.39292C529.68 4.33057 512.808 4.24328 502.759 4.32853C500.753 4.34544 499.655 4.36862 500.006 4.39292ZM952.36 155.065C952.378 155.499 952.396 155.932 952.415 156.366C952.398 146.415 952.468 127.173 952.345 127.437C952.35 136.646 952.355 145.856 952.36 155.065ZM952.28 76.347C952.272 78.4839 952.255 87.2146 952.301 86.1607C952.333 82.3769 952.366 78.5932 952.398 74.8094C952.378 73.0472 952.358 71.2851 952.337 69.523C952.331 71.9838 952.282 75.7684 952.28 76.347Z" fill="#07596E"/>
</svg>
