<svg width="955" height="303" viewBox="0 0 955 303" fill="none" xmlns="http://www.w3.org/2000/svg">
<path d="M8.70643 250.373C8.73012 258.807 8.72409 268.831 8.70288 278.505C8.70524 279.322 8.35208 280.129 7.75498 280.681C6.0433 282.273 4.34959 283.847 2.69418 285.384C2.68524 285.39 2.67877 285.401 2.67754 285.413C2.66805 288.371 2.6575 291.226 2.64637 293.917C2.64131 295.151 2.63128 295.857 2.61915 296.304C2.60792 296.366 2.55344 296.4 2.66995 296.477C2.88279 296.544 3.14323 296.624 3.46761 296.723C7.11051 297.832 10.5998 298.863 14.1165 299.914C14.135 299.92 14.1543 299.923 14.1737 299.923C16.0116 299.924 17.8594 299.928 19.7423 299.94C21.6626 299.952 19.2722 300.078 21.2858 300.089C32.3198 300.144 42.7584 300.112 53.9361 300.139C108.993 300.271 163.114 300.318 218.845 300.376C237.221 300.395 259.559 300.509 278.539 300.459C280.755 300.453 279.434 300.342 279.856 300.333C286.468 300.194 284.269 300.417 288.586 300.447C305.721 300.564 324.774 300.574 341.264 300.531C348.28 300.513 341.246 300.293 348.309 300.417C348.8 300.425 347.02 300.542 348.944 300.555C353.307 300.583 361.585 300.562 364.966 300.571C371.483 300.59 372.561 300.589 378.725 300.59C387.151 300.593 397.174 300.651 406.214 300.625C408.144 300.618 405.589 300.498 408.667 300.478C411.747 300.457 419.897 300.467 422.644 300.496C425.392 300.524 424.222 300.619 424.708 300.64C428.709 300.823 438.135 300.57 439.348 300.564C461.461 300.457 480.425 300.601 501.182 300.601C516.941 300.6 533.791 300.553 548.785 300.559C566.648 300.567 581.789 300.633 599.143 300.621C600.974 300.62 598.828 300.479 601.065 300.477C624.831 300.461 648.431 300.476 672.095 300.572C674.468 300.581 671.409 300.706 673.78 300.723C688.296 300.825 711.265 301.07 719.886 300.529C729.719 300.55 741.657 300.572 750.453 300.681C756.125 300.751 750.617 300.887 757.584 300.829C759.155 300.816 757.112 300.698 759.468 300.687C769.39 300.644 780.23 300.682 790.045 300.621C792.041 300.608 791.496 300.502 792.062 300.483C796.816 300.328 804.73 300.584 806.455 300.603C819.593 300.742 829.187 300.687 841.425 300.69C844.266 300.691 840.908 300.549 843.641 300.544C857.815 300.524 872.498 300.536 886.376 300.599C889.463 300.614 886.625 300.735 888.1 300.748C894.604 300.805 896.046 300.575 902.285 300.625C903.6 300.635 902.859 300.739 903.099 300.75C906.854 300.93 910.116 300.676 911.082 300.67C913.194 300.657 915.175 300.654 917.068 300.658C917.327 300.66 917.582 300.548 917.755 300.361C923.54 294.177 928.301 289.283 934.617 282.439C935.574 281.401 933.311 283.644 936.008 280.732C941.398 274.911 946.887 268.994 952.413 263.046C952.574 262.874 952.666 262.64 952.666 262.404C952.672 243.831 952.711 225.032 952.784 207.075C952.8 203.006 952.899 205.911 952.911 205.655C953.101 201.482 952.846 198.781 952.836 197.454C952.767 186.987 952.981 177.209 952.677 170.098C952.783 125.768 952.612 81.6416 952.884 37.6782C952.888 37.1192 953.013 38.1209 953.019 37.0059C953.09 23.5779 952.894 26.1567 952.655 17.2718C952.595 15.0336 952.884 8.22501 952.905 7.62253C952.983 5.42774 953.17 7.7042 953.185 6.96914C953.22 5.16127 953.19 3.97839 953.131 2.99316C953.073 2.1906 952.381 1.70204 951.722 1.77848C950.273 1.90516 948.443 2.02989 944.759 2.02998C944.502 2.02894 945.58 1.91513 944.892 1.90382C942.752 1.86829 940.631 1.91351 938.538 1.87434C933.746 1.78368 932.04 1.48323 924.722 1.65809C923.796 1.68078 925.21 2.03153 917.885 2.01496C914.965 2.00806 902.039 2.01407 898.416 1.99134C894.798 1.96864 897.282 1.85561 897.024 1.85072C887.275 1.70126 890.971 1.63931 886.087 1.41804C881.203 1.1976 882.557 1.72337 880.566 1.78205C878.572 1.84057 871.424 1.71725 869.667 1.67439C867.912 1.6315 870.101 1.55968 868.54 1.53541C858.189 1.37685 863.997 1.79638 860.586 1.87983C852.545 2.07742 846.282 1.68751 838.92 1.6493C836.928 1.63898 838.554 1.72779 836.78 1.73609C829.755 1.76781 825.53 1.64614 817.538 1.7577C816.231 1.77588 809.77 2.0103 805.588 1.83826C804.996 1.81346 806.679 1.71629 803.685 1.69453C799.213 1.66186 791.154 1.64063 786.346 1.6731C782.797 1.69713 786.865 1.85724 782.398 1.8075C780.412 1.78529 784.092 1.69163 780.362 1.65772C776.651 1.62382 767.164 1.62794 763.554 1.63117C759.95 1.63448 761.923 1.75593 761.631 1.76411C759.869 1.81097 752.953 1.86954 752.342 1.86939C721.515 1.88422 693.088 1.67951 663.075 1.74726C660.719 1.7524 662.288 1.88047 661.929 1.88258C653.865 1.93623 660.223 1.59573 654.59 1.48176C655.404 1.74165 652.079 1.69459 646.399 1.72309C643.662 1.73704 645.153 1.83767 644.903 1.84797C640.844 2.00081 638.017 1.80339 637.289 1.76301C634.601 1.61445 631.676 1.78998 629.847 1.69068C628.018 1.59212 632.226 1.44601 626.779 1.44788C625.251 1.54092 629.295 1.78403 625.159 1.82343C609.555 1.97247 580.426 1.78172 567.879 1.76191C555.358 1.74211 551.313 1.75928 544.017 1.72566C530.837 1.66486 535.667 1.84524 527.483 1.9278C519.275 2.01036 523.265 1.56655 522.086 1.47114C520.928 1.37578 519.663 1.47394 518.222 1.42152C516.786 1.36911 519.895 1.30424 516.518 1.28456C513.138 1.26489 503.899 1.43455 502.702 1.53431C500.17 1.74566 504.333 1.96747 495.391 1.88953C494.877 1.88491 496.546 1.76821 494.577 1.75642C478.937 1.66658 462.69 1.66101 447.069 1.58155C444.922 1.57044 446.842 1.44062 445.592 1.43269C432.573 1.34965 437.227 1.56855 430.091 1.81171C431.693 1.48811 427.747 1.29013 417.866 1.28822C411.926 1.28696 412.949 1.42829 409.107 1.5279C407.954 1.55793 403.751 1.46089 402.99 1.52735C400.478 1.74462 404.437 1.98785 394.249 1.891C393.803 1.8864 395.226 1.76746 393.681 1.76026C383.698 1.71312 382.504 1.94038 371.712 1.9679C363.254 1.9895 348.21 1.85092 338.579 1.82838C338.782 1.46455 329.685 1.54786 325.994 1.79871C319.744 1.78844 312.993 1.80263 306.952 1.76795C304.873 1.75613 306.238 1.65079 305.976 1.63941C301.956 1.46087 299.239 1.70492 297.889 1.71449C283.267 1.80749 271.354 1.62252 257.399 1.80329C256.903 1.8098 256.101 2.06253 252.37 1.878C252.129 1.86528 256.738 1.75029 250.173 1.7414C243.608 1.73249 231.231 1.59701 222.116 1.71412C219.91 1.74231 214.331 1.94747 209.853 1.78718C209.256 1.76541 209.909 1.69293 209.048 1.6526C206.264 1.52408 204.745 1.77952 201.473 1.56251C198.201 1.34551 191.395 1.18299 182.203 1.33271C181.91 1.33706 179.734 1.53953 176.843 1.53632C172.228 1.53104 165.677 1.48886 160.859 1.49018C158.552 1.49089 160.028 1.61661 159.628 1.6189C144.115 1.68935 133.075 1.57728 116.457 1.52863C113.411 1.51947 104.656 1.6909 98.7587 1.55537C92.2831 1.407 98.9374 0.789795 84.0529 0.936839C78.0491 0.995654 70.4487 1.77868 59.6598 1.37299C40.1788 1.46659 22.0616 1.29307 2.7217 1.38453C1.86699 1.36755 1.10018 2.14043 1.1255 2.99316C1.12932 3.64588 1.13346 4.30009 1.13795 4.95589C1.14431 5.89943 1.36285 8.88316 1.35987 11.1015C1.35936 11.4506 1.35775 11.7831 1.35528 12.1012C1.33445 14.7841 1.25218 16.4517 1.24616 18.5539C1.2154 28.4072 1.30279 37.4239 1.28919 46.924C1.28425 50.5308 1.17864 49.2696 1.17274 53.5715C1.16693 57.8707 1.30601 60.7374 1.23884 66.5634C1.18764 70.9634 0.903383 75.3626 0.870249 81.203C1.15064 81.4257 1.14486 85.4368 1.21888 92.5662C1.23324 93.9366 1.33083 92.4671 1.34266 93.1154C1.39296 95.7537 1.31208 98.1953 1.36683 100.7C1.37998 101.31 1.47573 101.339 1.49189 101.837C1.63291 106.073 1.41752 113.052 1.38001 114.251C1.23759 118.845 1.36213 120.992 1.30604 124.516C1.24996 128.034 1.17985 122.774 1.14582 126.883C1.07543 135.401 1.0909 146.346 1.0865 154.998C1.08533 158.449 1.21315 156.094 1.21595 156.588C1.24837 163.726 1.11241 170.944 1.36701 174.902C0.708698 179.851 1.43087 179.206 1.29908 189.409C1.28842 190.213 0.97711 191.235 0.931406 188.15C0.885746 185.064 0.983057 180.386 0.911814 176.105C0.895095 175.091 0.603375 169.284 0.585704 168.491C0.447599 162.285 0.912813 161.405 0.938364 161.077C1.21411 157.353 0.899838 150.257 0.878123 148.388C0.77862 139.839 0.844044 132.575 0.77302 125.425C0.727117 120.748 0.422385 120.291 0.431713 116.618C0.462543 104.411 0.887646 100.15 0.519054 88.6459C0.44044 86.1793 0.107377 88.6305 0.369274 79.7921C0.385785 79.2368 0.625373 72.6747 0.473827 68.8834C0.454719 68.4073 0.357653 68.4224 0.349499 67.7944C0.296754 63.5859 0.374084 60.7791 0.337048 56.1945C0.300012 51.6103 0.244799 46.0978 0.277722 40.8636C0.297408 37.7093 0.478257 33.6619 0.522533 32.1518C0.650081 27.8881 0.440956 23.3165 0.595409 20.675C0.750639 18.0113 0.986381 23.2188 1.08668 16.2339C0.834493 15.9752 0.57565 15.3809 0.322033 14.965C0.322587 14.0095 0.323425 13.0549 0.324505 12.1012C0.327952 9.05821 0.333872 6.02363 0.340958 2.99316C0.313299 1.72345 1.45629 0.586366 2.7217 0.618167C13.1653 0.644387 23.5731 0.680453 34.121 0.672802C36.0251 0.671168 34.0779 0.535592 36.119 0.530346C44.7311 0.508808 52.2533 0.605456 61.1844 0.566967C68.0977 0.536656 75.6781 0.39311 82.9071 0.356946C87.3225 0.645518 98.0494 0.547554 105.842 0.573925C108.571 0.583037 108.389 0.660109 110.33 0.685253C117.654 0.778245 114.222 0.523237 116.23 0.483105C124.843 0.31183 125.581 0.889028 135.736 0.874767C136.275 0.874206 142.851 0.566535 143.757 0.547375C149.513 0.422439 144.71 0.654464 148.312 0.677196C154.888 0.718739 159.459 0.792216 167.175 0.702099C169.425 0.675406 174.822 0.483638 179.191 0.63197C179.766 0.651393 179.448 0.753089 179.911 0.759044C188.285 0.85832 188.506 0.538776 193.291 0.430554C198.078 0.322356 205.47 0.542942 206.974 0.606518C210.91 0.770984 203.958 0.676805 203.745 0.692943C201.242 0.885013 206.633 0.851945 210.753 0.868175C211.349 1.18149 217.11 1.16269 215.023 0.883739C214.786 0.85327 211.58 0.882489 210.753 0.868175C214.369 0.560768 220.7 0.521399 227.693 0.808666C230.967 0.943303 227.872 1.10028 237.816 1.04286C242.329 1.01693 240.585 0.801198 244.568 0.742382C253.666 0.608185 265.489 0.809429 274.87 0.777721C278.274 0.766209 274.957 0.648118 277.284 0.636181C283.459 0.604134 288.904 0.69274 295.105 0.64735C295.667 0.643088 294.294 0.519471 296.223 0.517895C310.842 0.503539 323.571 0.582717 338.835 0.584912C346.21 0.585916 359.395 0.517738 367.035 0.531445C380.275 0.554472 396.565 0.734232 407.876 0.690563C415.253 0.66261 413.635 0.538967 416.796 0.454724C422.896 0.291426 433.694 0.58393 435.148 0.629223C435.192 0.630722 428.844 0.65987 432.231 0.723339C434.201 0.855588 435.076 0.629796 435.148 0.629223C436.102 0.658482 448.784 0.68655 451.302 0.662914C452.671 0.649998 451.905 0.532853 452.618 0.528332C469.576 0.423499 486.563 0.393725 503.762 0.448498C504.065 0.450865 503.609 0.581899 504.321 0.585827C514.278 0.644088 520.654 0.483793 528.866 0.388623C537.076 0.293496 543.588 0.325357 548.448 0.550305C554.643 0.521982 563.531 0.621431 568.646 0.681774C573.761 0.742116 574.475 0.487049 574.924 0.482007C588.961 0.320613 597.075 0.466609 611.637 0.489331C618.56 0.50057 632.294 0.463573 639.789 0.435681C645.714 0.413211 649.283 0.472987 654.742 0.434766C655.48 0.429661 654.734 0.316092 654.959 0.311719C661.052 0.17584 658.124 0.453478 659.381 0.503064C663.942 0.683382 666.759 0.779418 674.561 0.694591C676.36 0.675165 681.602 0.275406 684.882 0.252027C689.147 0.222364 687.538 0.365654 692.003 0.330945C692.385 0.328106 692.306 0.239706 695.062 0.243604C707.855 0.260534 721.804 0.311972 735.098 0.303113C736.914 0.302242 734.586 0.162027 737.21 0.15846C749.522 0.14184 763.017 0.147029 775.012 0.212659C777.964 0.229255 776.113 0.32743 776.754 0.35658C780.689 0.532957 786.269 0.276685 787.189 0.271802C809.151 0.14865 825.958 0.380573 848.342 0.270154C849.561 0.263672 858.94 -0.0110568 863.124 0.224561C863.41 0.240237 867.55 0.481298 871.211 0.31648C871.438 0.306169 868.858 0.182067 873.36 0.194715C877.862 0.207336 885.107 0.124461 891.295 0.260816C893.254 0.30377 897.885 0.544236 903.728 0.352551C904.109 0.33917 913.131 -0.0942564 916.351 0.204786C916.873 0.254011 916.327 0.570466 923.301 0.408215C924.634 0.37676 922.215 0.306174 925.726 0.262098C931.105 0.194166 938.232 0.278924 944.844 0.137953C945.703 0.119357 948.648 -0.0046277 951.722 0.000808716C953.329 -0.0397338 954.749 1.44243 954.68 2.99316C954.673 3.25158 954.664 3.50731 954.654 3.75903C954.628 4.37579 954.522 3.20401 954.511 5.28359C954.454 15.1721 954.525 25.5264 954.451 35.5666C954.426 39.1227 954.255 37.3046 954.209 41.0114C954.163 44.7192 954.119 52.1884 954.198 56.0677C954.276 59.9479 954.548 55.7092 954.57 61.522C954.664 86.7924 954.504 111.826 954.481 137.059C954.478 140.802 954.575 137.699 954.577 143.214C954.584 163.548 954.675 198.654 954.469 216.298C954.303 230.436 954.177 212.645 954.109 223.448C954.077 228.661 954.393 234.301 954.403 235.559C954.489 245.92 954.402 253.617 954.399 262.404C954.401 263.069 954.143 263.734 953.684 264.226C952.812 265.166 951.924 266.126 951.012 267.115C949.464 268.795 951.083 267.24 949.764 268.67C945.261 273.552 940.468 278.629 936.157 283.287C934.223 285.377 934.652 285.059 932.863 286.974C928.585 291.557 924.782 295.591 920.556 300.008C920.171 300.41 922.637 297.575 919.478 300.971C919.314 301.146 919.149 301.323 918.983 301.502C918.503 302.023 917.793 302.338 917.068 302.334C909.935 302.317 901.464 302.248 893.563 302.334C891.001 302.362 890.9 302.586 885.391 302.431C884.236 302.399 885.71 302.13 879.293 302.362C878.214 302.401 867.434 302.714 862.144 302.512C860.749 302.459 857.187 302.239 854.105 302.274C853.687 302.279 855.361 302.4 852.807 302.411C843.807 302.451 834.375 302.438 825.129 302.475C822.66 302.486 826.337 302.61 822.657 302.621C812.537 302.653 799.903 302.621 790.007 302.582C786.358 302.568 788.88 302.465 788.615 302.453C784.346 302.271 781.822 302.517 780.405 302.532C771.593 302.618 764.883 302.502 756.76 302.532C754.518 302.541 756.108 302.658 755.661 302.669C751.034 302.771 754.481 302.56 751.552 302.537C743.346 302.471 734.198 302.48 725.899 302.495C722.851 302.501 726.277 302.637 723.542 302.641C707.351 302.664 690.519 302.651 674.718 302.576C671.742 302.562 673.614 302.457 672.994 302.433C668.72 302.265 662.457 302.494 661.015 302.516C654.462 302.615 651.917 302.522 646.13 302.54C617.859 302.626 582.952 302.564 556.266 302.526C521.491 302.478 494.506 302.378 461.345 302.404C459.237 302.405 461.362 302.545 459.546 302.548C436.089 302.581 412.996 302.527 389.492 302.567C387.563 302.57 390.343 302.703 387.247 302.712C380.898 302.732 372.854 302.725 366.434 302.683C363.302 302.662 367.503 302.549 364.35 302.531C357.011 302.488 349.144 302.479 341.605 302.5C338.397 302.509 343.237 302.644 339.067 302.646C310.662 302.659 282.766 302.683 254.061 302.508C252.093 302.496 250.367 302.221 246.183 302.273C245.867 302.35 245.885 302.439 245.747 302.521C204.397 302.565 163.468 302.47 122.002 302.455C120.253 302.454 123.275 302.6 119.89 302.599C100.299 302.597 81.2758 302.638 61.2369 302.493C59.2487 302.479 60.2688 302.223 54.4095 302.261C53.3761 302.268 44.5514 302.303 42.2698 302.358C41.96 302.367 43.57 302.486 40.7263 302.49C32.0168 302.499 23.0872 302.496 14.1737 302.48C13.907 302.48 13.6404 302.441 13.385 302.364C9.55911 301.215 5.73777 300.064 1.94137 298.917C0.810808 298.594 -0.0182402 297.473 0.000249624 296.304C0.0108292 293.122 0.0230583 289.958 0.0369388 286.825C0.0481818 284.335 0.160298 286.653 0.182688 285.413C0.184381 285.268 0.19722 285.093 0.240573 284.89C0.347727 284.385 0.614111 283.915 0.993588 283.564C2.66356 282.017 4.35361 280.446 6.05461 278.861C6.15268 278.771 6.21096 278.639 6.21078 278.505C6.22119 267.731 6.18232 256.638 6.27241 246.624C6.35027 238.02 6.57042 241.205 6.78712 236.633C6.79535 236.459 6.80172 235.946 6.80909 235.282C6.81933 234.962 6.65476 234.581 6.33418 234.363C5.02242 233.465 3.64024 232.504 3.55252 232.362C3.13978 231.706 5.47963 232.849 4.78595 231.98C4.7175 231.893 3.36292 230.99 2.31881 230.282C2.02147 230.079 2.0065 229.745 2.02731 229.692C2.06955 229.608 1.97782 229.853 2.3434 230.144C2.35067 230.149 2.36621 230.16 2.39041 230.175C2.99808 230.563 5.59798 232.25 7.10693 233.204C7.70494 233.589 7.99922 234.138 8.12421 234.492C8.41336 235.737 8.23049 233.964 8.44345 235.282C8.45478 235.421 8.46489 235.621 8.47315 235.904C8.52591 237.714 8.41843 239.703 8.48047 242.703C8.54329 245.702 8.68916 244.384 8.70643 250.373ZM591.676 0.951488C596.411 1.07398 597.11 0.625339 591.988 0.732677C591.74 0.738398 591.431 0.945478 591.676 0.951488ZM18.6765 1.02235C24.8678 1.22023 29.1046 0.929265 24.7369 0.776439C20.3699 0.623778 16.7901 0.962364 18.6765 1.02235ZM0.895335 48.8842C1.05136 41.6481 0.415164 40.509 0.543773 48.2592C0.551041 48.7099 0.886275 49.3072 0.895335 48.8842ZM6.84883 257.835C6.85478 257.77 6.86059 253.94 6.85469 253.849C6.7122 251.809 6.70069 259.467 6.84883 257.835ZM1.05262 112.594C1.13868 110.335 1.03934 103.831 0.932322 106.638C0.846232 108.897 0.945569 115.407 1.05262 112.594ZM838.721 1.43031C838.796 1.43699 841.542 1.44301 841.486 1.40522C841.3 1.28351 837.479 1.31786 838.721 1.43031ZM1.05995 220.876C1.08389 204.878 1.60942 195.178 1.55012 212.6C1.53939 215.754 1.38253 205.8 1.33515 209.816C1.24884 217.163 1.5788 222.042 1.40199 229.54C1.36962 230.898 1.05741 221.788 1.05921 220.847C1.05946 220.857 1.0597 220.866 1.05995 220.876ZM594.403 1.49037C594.497 1.4963 598.298 1.50192 598.39 1.49604C600.448 1.35361 592.791 1.34219 594.403 1.49037ZM953.007 47.8483C952.995 48.0581 952.983 56.8785 952.994 57.1661C953.227 61.7675 953.252 43.935 953.007 47.8483ZM338.428 1.81867C334.28 1.96196 329.319 1.97883 326.013 1.7989C330.135 1.80845 334.284 1.80986 338.428 1.81867Z" fill="#07596E"/>
</svg>
