<svg width="1440" height="24" viewBox="0 0 1440 24" fill="none" xmlns="http://www.w3.org/2000/svg">
<path d="M1407.31 17.8458C1376.87 17.3215 1356.09 17.8786 1327.86 17.9674C1324.62 17.9775 1321.34 17.9867 1318 17.9949L1319.86 18.7649C1314.03 12.9673 1308 6.95872 1301.83 0.796783L1301.08 0.0444736L1300 0.0400181C1244.2 0.10531 1179.72 -0.0107117 1127.6 0.000720978C1079.48 0.0112896 1030.58 0.048708 982.751 0.078722C980.298 0.0802002 978.834 0.137684 977.722 0.138412C967.249 0.145174 949.688 0.093092 939.299 0.100693C917.446 0.116545 879.421 0.107588 859.406 0.161482C850.906 0.184303 842.188 0.193817 838.884 0.330667C835.779 0.337637 834.083 0.213987 833.272 0.207258C833.263 0.20738 833.254 0.207502 833.245 0.207624C830.633 0.18675 824.037 0.273445 822.582 0.268047C822.364 0.2672 823.704 0.177641 820.172 0.204695C819.858 0.207018 820.149 0.267912 817.175 0.26878C816.401 0.26899 806.456 0.175611 803.614 0.169905C794.156 0.151321 771.57 0.224628 760.262 0.22337C758.533 0.22337 757.537 0.18775 755.711 0.187117C754.767 0.186749 753.353 0.225412 753.063 0.225201C751.791 0.223825 746.233 0.048233 748.228 0.394753C742.426 0.37278 744.135 0.258221 744.004 0.183821C737.705 0.173077 734.669 0.336275 733.024 0.163313C702.049 0.184187 671.073 0.205061 640.098 0.225933C640.089 0.197737 640.079 0.169538 640.07 0.141342C630.94 0.253967 627.808 0.0634613 622.596 0.227032C619.382 0.191023 616.168 0.155012 612.954 0.119003C530.355 0.229958 447.949 0.0980759 366.28 0.0984955C362.834 0.0984955 361.973 0.158497 356.289 0.158918C350.013 0.15934 341.186 0.0896091 332.914 0.0904408C325.659 0.091074 314.955 0.147835 306.864 0.156721C305.038 0.158625 303.717 0.120623 303.512 0.120834C302.303 0.122318 302.242 0.18248 301.069 0.184187C299.666 0.186089 297.971 0.141523 296.351 0.144272C290.295 0.154196 283.696 0.138836 282.929 0.139877C279.235 0.145573 278.42 0.204411 278.116 0.205061C274.008 0.21224 275.548 0.159134 274.525 0.162214C269.216 0.17849 265.463 0.311058 258.194 0.183821C258.392 0.233013 258.59 0.282206 258.788 0.3314C253.226 0.359079 256.9 0.228365 255.763 0.204695C255.299 0.195925 243.326 0.211887 242.402 0.214216C239.186 0.222668 239.1 0.288038 238.822 0.288919C238.145 0.291033 230.053 0.216839 225.905 0.273907C220.997 0.341532 226.774 0.474512 225.556 0.499485C225.35 0.503712 220.212 0.490082 219.522 0.53171C218.76 0.576496 223.204 0.575548 223.135 0.59433C223.087 0.607224 215.709 0.699545 217.124 0.761684C218.261 0.824007 228.27 0.744097 230.39 0.773401C230.741 0.778254 230.08 0.855173 230.39 0.857994C231.636 0.868347 254.697 0.870661 255.752 0.857994C254.551 0.822962 253.35 0.787928 252.15 0.752895C253.746 0.749355 255.343 0.745815 256.94 0.742275C254.67 0.714199 252.399 0.686125 250.129 0.658049C253.503 0.369587 263.665 0.662012 264.084 0.805994C264.265 0.872572 258.053 1.04387 263.834 1.14363C262.955 1.16072 262.076 1.17781 261.198 1.1949C259.386 1.16682 257.575 1.13875 255.763 1.11067C256.97 1.09297 258.176 1.07527 259.382 1.05757C258.938 1.03755 258.494 1.01754 258.05 0.997517C254.664 0.965412 251.278 0.93331 247.892 0.901205C246.151 0.916002 246.513 0.975103 245.317 0.98653C230.393 1.13046 240.127 0.947308 230.357 0.973713C228.962 1.00545 227.567 1.03719 226.172 1.06893C226.664 0.937666 222.336 1.02008 217.102 0.963459C217.727 1.00594 218.353 1.04842 218.978 1.0909C211.395 1.06828 196.023 1.28245 200.172 1.04805C198.434 1.06807 196.696 1.08809 194.959 1.10811C193.492 1.06978 192.025 1.03145 190.558 0.993122C188.529 0.997517 186.502 1.00191 184.474 1.00631C184.464 1.02706 184.455 1.04781 184.446 1.06856C186.063 1.06868 187.68 1.0688 189.298 1.06893C188.084 1.13216 186.87 1.19539 185.656 1.25862C184.463 1.24812 183.269 1.23762 182.076 1.22712C187.082 1.16732 180.482 1.06964 178.884 0.986164C174.664 0.955315 171.967 1.06367 170.552 1.06856C169.887 1.07088 162.052 0.879709 165.124 1.0898C161.092 1.06429 157.06 1.03877 153.028 1.01326C151.452 1.02938 149.875 1.04549 148.299 1.0616C151.72 1.15946 141.805 1.27736 149.109 1.31794C154.564 1.34838 155.908 1.25688 158.496 1.25752C160.829 1.25797 162.062 1.31959 164.602 1.32234C181.678 1.33967 195.588 1.32836 211.806 1.3011C215.01 1.29562 217.925 1.32583 220.077 1.3216C222.507 1.31673 219.462 1.23944 222.558 1.25825C225.809 1.27814 226.513 1.34121 227.371 1.34248C227.905 1.34319 229.598 1.28645 231.156 1.28645C237.56 1.28646 246.943 1.34133 247.853 1.34101C248.881 1.34038 266.991 1.28918 267.859 1.27986C268.318 1.27478 267.365 1.06524 271.355 1.28864C272.601 1.2928 273.846 1.29695 275.091 1.3011C274.89 1.25923 274.688 1.21736 274.486 1.17549C281.863 1.33421 279.326 1.24541 286.437 1.25788C303.465 1.28789 328.584 1.25261 347.208 1.26741C351.367 1.27079 352.951 1.32092 357.871 1.32453C362.442 1.3277 374.377 1.17811 371.781 1.38532C381.952 1.2059 383.587 1.5153 388.678 1.32234C389.294 1.35041 389.91 1.37849 390.526 1.40656C396.053 1.28609 397.759 1.39197 403.793 1.40656C406.393 1.4129 403.396 1.28477 408.644 1.42743C409.647 1.41681 410.65 1.40619 411.653 1.39558C411.42 1.36457 411.187 1.33357 410.954 1.30256C416.783 1.32792 417.159 1.31177 416.493 1.4278C419.308 1.40668 422.122 1.38557 424.936 1.36445C425.286 1.40253 425.635 1.44062 425.985 1.4787C424.637 1.55135 360.737 1.4418 351.837 1.40693C341.401 1.49313 320.435 1.38536 312.004 1.40583C308.63 1.41407 307.139 1.50021 302.229 1.51056C297.321 1.52091 291.143 1.44268 288.53 1.43989C279.822 1.43016 238.569 1.44735 266.626 1.55451C265.819 1.5965 265.013 1.63849 264.206 1.68048C253.056 1.53719 257.094 1.6254 247.842 1.6402C243.947 1.64651 234.686 1.55274 235.203 1.74347C242.435 1.77897 250.118 1.71801 256.407 1.72076C257.03 1.72106 264.476 1.80814 268.308 1.78448C271.765 1.76288 269.385 1.58107 276.906 1.78521C282.492 1.58579 285.722 1.76671 287.198 1.78594C289.748 1.81929 290.027 1.72087 292.576 1.70941C295.353 1.69675 297.265 1.76208 297.644 1.76251C301.452 1.76399 321.287 1.77289 322.196 1.73321C321.398 1.71576 320.601 1.6983 319.803 1.68085C324.954 1.65275 323.877 1.75339 325.232 1.76544C326.24 1.76507 327.249 1.76471 328.257 1.76434C327.857 1.74347 327.458 1.72259 327.058 1.70172C333.141 1.70616 328.487 1.77869 337.122 1.77679C342.605 1.77551 348.268 1.69583 348.801 1.70172C348.958 1.70341 347.232 1.75713 349.467 1.76434C353.167 1.77617 359.564 1.77481 360.28 1.70172C362.092 1.71206 361.937 1.78358 362.178 1.78521C363.23 1.79219 381.333 1.8165 384.576 1.82073C393.562 1.83236 403.566 1.81711 413.302 1.82916C414.303 1.83036 413.664 1.78447 414.667 1.78594C416.277 1.7883 424.545 1.86032 425.78 1.86541C428.862 1.87787 436.971 1.8493 438.247 1.87017C438.428 1.87313 435.76 1.93516 438.88 1.9544C442.344 1.97567 440.479 1.89224 440.667 1.89141C447.717 1.86288 452.168 1.92085 456.981 1.93206C458.541 1.93565 461.419 1.87286 463.62 1.89141C463.873 1.89352 463.371 1.95154 463.62 1.9544C466.946 1.98483 470.057 1.87715 471.497 1.87017C475.018 1.85312 473.1 1.93259 473.284 1.93316C475.63 1.93569 478.787 1.90702 482.354 1.91082C498.257 1.92773 511.236 1.93258 528.143 1.9273C530.266 1.92666 532.786 1.87061 533.111 1.87054C534.115 1.87096 533.828 1.93683 536.73 1.93535C542.849 1.93197 548.523 1.93516 554.581 1.93389C555.801 1.93362 556.321 1.87259 557.252 1.87127C560.371 1.86747 571.009 2.02728 571.184 1.82842C577.376 2.00447 581.488 1.85274 586.471 1.85442C598.275 1.85823 616.757 1.8941 628.524 1.87127C631.001 1.86638 632.164 1.81542 633.542 1.81268C636.014 1.80762 650.144 1.83608 650.883 1.82806C652.334 1.81263 651.464 1.58824 658.926 1.78375C663.301 1.79768 662.784 1.70559 663.689 1.70062C670.739 1.66363 677.599 1.86916 676.317 1.68085C684.526 1.73198 689.847 1.83605 693.197 1.65997C693.153 1.7459 697.014 1.79745 701.668 1.76471C696.903 1.62036 697.493 1.5281 685.97 1.55451C685.788 1.55493 686.135 1.61707 685.953 1.61749C684.308 1.62169 680.875 1.59032 678.071 1.59369C675.266 1.59707 676.823 1.63955 675.701 1.63873C674.673 1.63789 674.707 1.57842 673.22 1.57758C668.395 1.57525 664.125 1.55886 661.38 1.5578C659.65 1.55719 657.715 1.60944 656.373 1.60944C651.184 1.60901 640.189 1.56821 633.587 1.57392C632.211 1.57525 632.788 1.63387 629.779 1.63873C629.427 1.6393 628.145 1.57817 625.51 1.56549C622.874 1.55282 620.831 1.58317 619.138 1.57685C617.723 1.57156 618.314 1.51725 615.413 1.51386C612.994 1.51111 585.599 1.55024 584.112 1.5589C581.972 1.57139 580.955 1.64766 579.649 1.63837C579.419 1.63637 579.03 1.56271 578.234 1.55744C565.099 1.47038 536.029 1.57088 521.021 1.57025C489.651 1.5692 460.709 1.52585 429.06 1.50873C428.496 1.49591 427.932 1.4831 427.367 1.47028C430.567 1.46979 433.766 1.4693 436.965 1.46881C436.985 1.43415 437.006 1.39948 437.026 1.36481C441.351 1.35933 440.778 1.44131 440.656 1.49079C442.257 1.46979 443.857 1.4488 445.458 1.4278C446.838 1.54861 457.512 1.46826 463.015 1.46845C466.594 1.46845 470.853 1.5145 472.74 1.51093C476.727 1.50354 476.623 1.42899 476.936 1.4278C477.469 1.42611 483.035 1.49186 487.05 1.48932C492.986 1.4857 493.628 1.37124 501.754 1.46845C512.166 1.40906 523.703 1.43895 534.926 1.44868C532.789 1.34287 542.847 1.44301 547.382 1.44135C575.052 1.43099 609.061 1.38579 637.095 1.34394C640.697 1.33866 643.419 1.27633 645.427 1.27839C646.515 1.27945 646.99 1.35293 648.502 1.34321C648.767 1.34134 648.952 1.27263 651.766 1.26228C658.768 1.23628 676.21 1.35095 680.624 1.21907C704.565 1.23945 728.506 1.25984 752.447 1.28022C753.048 1.25215 753.649 1.22407 754.251 1.196C758.799 1.33947 776.778 1.25516 785.546 1.26191C800.978 1.27396 820.667 1.31857 834.188 1.32343C837.127 1.32449 839.534 1.28379 842.315 1.28462C843.511 1.28504 845 1.33781 846.245 1.33808C860.225 1.3421 879.154 1.28774 893.244 1.28901C925.232 1.29176 955.358 1.28376 987.769 1.28608C1092.33 1.29398 1196.31 1.36548 1300 1.34405L1300.54 1.34626L1300.91 1.71887C1304.15 4.96147 1307.39 8.20354 1310.64 11.4451C1311.66 12.471 1311.65 12.3768 1312.45 13.1718C1314.08 14.7961 1316.39 17.1186 1318.94 19.6812L1318 19.2907C1324.83 19.3045 1332.87 19.3252 1337.77 19.3234C1343.74 19.3213 1353.23 19.2285 1355.28 19.322C1343.15 19.4028 1330.63 19.4339 1318 19.4532L1318.83 19.796C1312.83 13.8187 1306.81 7.80382 1300.8 1.82008L1300.48 1.48913L1300 1.48717C1299 1.48877 1298 1.49046 1296.99 1.49225C1295.42 1.49504 1295.23 1.55272 1295.04 1.55377C1291.46 1.57381 1293.72 1.49438 1288.53 1.49079C1286.8 1.48958 1270.78 1.67372 1272.69 1.49042C1268.85 1.56375 1241.82 1.6004 1236.6 1.57611C1235.02 1.56871 1236.14 1.51441 1235.82 1.51166C1234.46 1.49967 1233.84 1.57454 1232.62 1.57648C1229.37 1.58113 1221.09 1.52039 1219.52 1.52082C1215.9 1.52147 1205.06 1.58242 1200.28 1.56806C1195.9 1.55495 1196.72 1.47673 1192.94 1.46955C1189.96 1.46409 1193.21 1.52988 1186.54 1.54975C1183.24 1.55947 1171.69 1.5124 1168.89 1.51239C1166.08 1.51239 1162.96 1.5592 1159.09 1.5556C1153.52 1.55053 1141.39 1.52447 1135.72 1.50946C1135.38 1.50862 1134.55 1.44777 1133.72 1.44904C1131.99 1.45159 1132.51 1.52674 1131.2 1.53436C1129.9 1.54197 1107.28 1.53279 1103.44 1.53363C1100.79 1.53406 1098.96 1.48929 1097.5 1.48969C1096.35 1.49011 1096.23 1.55271 1095.06 1.55341C1094.69 1.55341 1091.61 1.49904 1088.52 1.50031C1085.61 1.50159 1074.54 1.55329 1073.26 1.55377C1072.43 1.55399 1073.34 1.50951 1070.88 1.51056C1068.63 1.51165 1067.15 1.56941 1065.87 1.57025C1062.9 1.57213 1059.57 1.52288 1056.42 1.52265C1047.35 1.52201 1047.81 1.59356 1047.27 1.59589C1045.76 1.60235 1045.15 1.53682 1044.66 1.53546C1042.57 1.52997 1037.44 1.51787 1035.58 1.51532C1033.26 1.51215 1032.27 1.57444 1029.81 1.57465C1027.97 1.57461 1024.25 1.51389 1020.06 1.51093C1010.6 1.50395 999.355 1.49249 990.067 1.49482C987.298 1.49545 986.873 1.55229 986.026 1.55377C981.577 1.56157 979.086 1.49801 977.816 1.49884C968.758 1.50455 952.6 1.60428 944.195 1.61273C940.772 1.61611 925.788 1.57007 917.334 1.57831C916.367 1.57916 917.273 1.62373 916.196 1.61676C913.622 1.60004 913.861 1.50928 912.555 1.51203C911.925 1.51363 910.488 1.5648 908.653 1.56989C899.135 1.59631 892.59 1.55652 888.248 1.55927C846.549 1.58569 804.028 1.60946 765.086 1.61749C760.744 1.61834 755.36 1.56434 748.805 1.61676C748.604 1.64496 748.402 1.67315 748.2 1.70135C747.971 1.67364 747.742 1.64593 747.512 1.61823C740.087 1.60322 737.281 1.56755 729.699 1.60284C729.046 1.6058 727.053 1.73453 725.819 1.57465C718.309 1.69047 722.43 1.57371 716.855 1.56293C711.28 1.55215 705.863 1.58785 700.458 1.59589C697.495 1.65316 709.928 1.78527 710.738 1.78485C712.043 1.78434 713.4 1.70485 714.657 1.70062C718.38 1.68798 721.981 1.75106 722.816 1.68011C727.629 1.75513 721.638 1.71765 722.239 1.78521C725.451 1.75726 728.663 1.72931 731.875 1.70135C733.512 1.93116 751.26 1.63147 750.026 1.80645C751.438 1.77142 752.85 1.73639 754.262 1.70135C760.453 1.92088 764.094 1.7663 772.352 1.70099C771.756 1.72906 771.16 1.75714 770.565 1.78521C770.734 1.79693 778.022 1.84182 775.416 1.72223C782.888 1.87981 782.573 1.61769 789.271 1.80718C793.25 1.83149 790.857 1.72143 797.98 1.72332C802.201 1.72438 807.44 1.78193 812.157 1.78594C813.244 1.78669 813.716 1.72296 814.683 1.72296C815.649 1.72298 816.121 1.78547 817.292 1.78704C819.71 1.79042 822.846 1.74656 824.358 1.75079C825.712 1.7544 827.648 1.80951 830.913 1.81817C842.315 1.8488 838.871 1.7701 840.672 1.74347C842.607 1.71515 843.997 1.81884 847.854 1.80682C848.241 1.80555 847.241 1.74093 848.498 1.74347C849.513 1.74545 850.023 1.81569 853.383 1.82879C854.721 1.83408 875.492 1.84912 878.656 1.8504C883.506 1.8523 894.308 1.79285 899.327 1.79327C901.262 1.79328 903.328 1.84967 905.383 1.8493C912.192 1.84803 923.093 1.84326 931.728 1.84051C939.504 1.83796 953.153 1.71348 957.411 1.82586C968.33 1.84044 970.982 1.74441 971.805 1.7431C974.03 1.73951 975.06 1.80313 977.866 1.80609C1014.21 1.84307 1062.06 1.80101 1096.48 1.80609C1164.13 1.81647 1232.09 1.84301 1300 1.8352L1300.33 1.83656L1300.56 2.06617C1306.56 8.06617 1312.56 14.0653 1318.56 20.0629L1318 19.8306C1321.76 19.8296 1325.51 19.8285 1329.27 19.8273C1329.48 19.8555 1329.7 19.8837 1329.91 19.9119C1326.13 19.9192 1322.09 19.9313 1318 19.944L1318.48 20.1431C1314.11 15.8027 1309.67 11.3899 1305.69 7.42206C1304.07 5.79745 1302.3 4.02474 1300.45 2.17404L1300.27 1.98885L1300 1.98775C1288.43 1.97231 1274.74 1.92316 1267.27 2.08037C1270.98 2.09727 1277.03 2.02337 1276.92 2.12248C1270.29 2.12956 1263.65 2.13664 1257.01 2.14372C1257.21 2.09795 1257.41 2.05217 1257.61 2.0064C1250.68 1.99308 1243.59 2.00306 1236.64 1.99651C1235.43 1.99543 1236.28 1.95387 1235.23 1.95366C1234.05 1.95351 1234.85 1.99581 1234.63 1.99614C1231.66 1.99656 1230.76 1.95378 1230.4 1.9544C1229.46 1.95609 1230.19 1.99681 1227.5 2.00823C1222.52 2.02955 1218.96 1.92135 1220.13 2.10161C1218.52 2.10161 1216.91 2.10161 1215.3 2.10161C1214.89 2.05254 1214.47 2.00347 1214.05 1.9544C1204.16 2.15251 1199.6 1.80499 1194.14 2.08074C1192.34 2.03862 1190.53 1.99651 1188.73 1.9544C1187.72 2.00347 1186.7 2.05254 1185.68 2.10161C1185.49 2.0595 1185.29 2.01738 1185.09 1.97527C1175.38 2.00632 1165.04 1.95577 1155.75 1.96062C1149.28 1.964 1147.73 1.98063 1142 1.97747C1129.26 1.97028 1141.92 2.05384 1131.32 2.14409C1131.88 2.09245 1132.43 2.04082 1132.98 1.98919C1131.22 1.97026 1129.47 1.95135 1127.72 1.93242C1126.5 1.97454 1125.27 2.01665 1124.05 2.05876C1118.64 1.84033 1115.13 2.01665 1114.39 2.01665C1113.79 2.01627 1111.75 1.88477 1105.34 1.99614C1107.99 1.81636 1100.44 1.99509 1099.84 1.99614C1099.27 1.99687 1091.92 1.95674 1088.93 1.95842C1086.59 1.95971 1081.58 1.99841 1078.09 1.99651C1075 1.99482 1075.31 1.93379 1075.09 1.93316C1071.29 1.92808 1073.67 1.97551 1070.93 1.97783C1068.18 1.98015 1066.05 1.92814 1065.46 1.93279C1065.16 1.93527 1066.16 1.99212 1064.79 1.99761C1061.13 2.01258 1054.5 1.9628 1050.3 1.96428C1048.82 1.96474 1046.94 2.01297 1045.29 2.01445C1042.75 2.01655 1041.56 1.95249 1040.09 1.9544C1039.57 1.95523 1036.3 2.05419 1032.23 2.03899C1031.45 2.03594 1029.18 1.82653 1026.15 2.12321C1025.92 2.08147 1025.69 2.03972 1025.45 1.99797C1011.8 1.89462 1008 2.23376 1001.93 1.93279C992.015 1.96641 998.821 2.08364 997.733 2.10161C997.03 2.11296 993.797 2.08073 993.442 2.08257C992.813 2.08616 992.921 2.12379 992.232 2.12358C979.594 2.11661 985.205 2.04556 981.202 2.00054C971.685 1.89338 964.259 2.13128 980.814 2.05986C980.814 2.08086 980.814 2.10185 980.814 2.12285C976.737 2.10278 966.39 2.11231 969.845 2.21879C972.566 2.3027 997.115 2.24794 983.212 2.36564C980.055 2.39227 978.42 2.31348 972.954 2.46122C969.339 2.46923 968.818 2.27783 963.923 2.35465C964.727 2.28788 965.532 2.22111 966.337 2.15434C959.662 2.06731 951.426 2.18406 946.299 2.14665C944.556 2.1339 938.28 1.81557 939.743 2.13383C936.814 2.11399 923.017 2.17262 920.454 2.14409C919.837 2.1372 919.034 1.96775 910.113 2.0269C909.493 2.04814 908.873 2.06938 908.253 2.09062C916.413 2.15233 902.003 2.2151 905.916 2.37589C907.246 2.30362 913.717 2.25954 914.759 2.22319C916.536 2.16063 911.241 2.07999 917.989 2.10197C922.243 2.37072 910.08 2.24705 911.939 2.50223C903.079 2.38311 902.194 2.49677 900.188 2.5015C891.614 2.52073 886.218 2.49368 878.129 2.52347C876.157 2.47105 890.802 2.39539 892.616 2.418C885.941 2.23222 897.431 2.22382 902.28 2.33414C902.688 2.27799 903.095 2.22184 903.502 2.16569C897.189 2.19613 891.031 2.21177 884.779 2.16569C884.372 2.18669 883.965 2.20768 883.557 2.22868C884.96 2.2603 886.363 2.29191 887.765 2.32353C882.565 2.3753 885.684 2.21156 878.756 2.35502C878.541 2.29179 878.327 2.22856 878.112 2.16533C871.47 2.18632 864.827 2.20732 858.185 2.22831C854.726 2.10152 841.945 2.14875 844.285 2.31291C839.126 2.3245 845.495 2.23713 840.661 2.19719C838.556 2.17986 834.444 2.17499 833.428 2.21916C833.865 2.37548 840.02 2.39488 841.882 2.50223C840.752 2.53686 812.131 2.42526 814.683 2.60806C812.397 2.63004 813.448 2.53586 809.326 2.51175C797.777 2.44454 779.887 2.63068 770.587 2.39713C781.508 2.26715 784.738 2.40482 793.107 2.41031C798.452 2.41391 831.044 2.43607 823.764 2.27079C824.961 2.29179 826.158 2.31278 827.355 2.33378C828.565 2.28459 829.775 2.23539 830.986 2.1862C827.575 2.17912 824.165 2.17204 820.755 2.16496C819.941 2.21403 819.127 2.2631 818.313 2.31217C817.937 2.27714 817.562 2.24211 817.186 2.20707C815.75 2.20012 814.315 2.19316 812.879 2.1862C813.282 2.22831 813.685 2.27043 814.089 2.31254C811.876 2.31974 809.663 2.32694 807.45 2.33414C808.046 2.27787 808.642 2.2216 809.237 2.16533C798.816 2.15118 802.345 2.18642 796.565 2.29167C792.249 2.30243 799.539 2.19427 790.409 2.16679C779.792 2.13489 786.757 2.30683 773.007 2.27006C772.809 2.24199 772.611 2.21391 772.413 2.18583C769.39 2.21391 766.366 2.24199 763.343 2.27006C763.743 2.23515 764.142 2.20024 764.542 2.16533C758.302 2.17885 749.702 2.11223 747.634 2.24919C753.959 2.18324 753.897 2.42238 752.252 2.46634C748.857 2.55655 698.701 2.47263 688.978 2.46671C676.547 2.4591 667.151 2.5357 655.796 2.418C663.491 2.32147 690.551 2.40055 695.678 2.33378C696.186 2.32723 696.043 2.10801 699.308 2.35465C709.829 2.31282 722.405 2.3827 735.55 2.37553C735.148 2.31242 734.747 2.24931 734.345 2.1862C726.267 2.32041 718.789 2.02562 719.841 2.27079C718.233 2.27079 716.625 2.27079 715.017 2.27079C715.017 2.22856 715.017 2.18632 715.017 2.14409C712.593 2.14409 710.17 2.14409 707.746 2.14409C707.746 2.18632 707.746 2.22856 707.746 2.27079C705.738 2.27079 703.731 2.27079 701.723 2.27079C701.514 2.22868 701.305 2.18657 701.096 2.14445C695.084 2.23192 674.59 1.99805 683.6 2.24955C680.776 2.24955 677.953 2.24955 675.129 2.24955C675.138 2.21867 675.147 2.18779 675.157 2.1569C673.943 2.15275 672.729 2.1486 671.516 2.14445C671.915 2.17241 672.315 2.20036 672.714 2.22831C667.152 2.17823 661.879 2.32539 658.227 2.22868C660.636 2.20756 663.045 2.18645 665.454 2.16533C660.834 2.20544 652.322 2.12233 651.56 2.12212C649.238 2.1217 648.014 2.18413 645.499 2.1873C643.228 2.19001 643.541 2.14203 643.117 2.14372C630.868 2.19256 635.537 2.45228 629.818 2.14482C629.209 2.18681 628.6 2.2288 627.991 2.27079C627.181 2.23576 626.37 2.20073 625.56 2.16569C621.943 2.16899 618.326 2.17229 614.708 2.17558C615.915 2.12309 617.121 2.0706 618.327 2.01812C612.905 1.99469 610.376 2.09993 609.851 2.10234C608.365 2.10847 607.685 2.04241 607.226 2.04228C585.13 2.04799 598.551 2.10615 587.509 2.35429C583.572 2.25691 587.555 2.15929 588.114 2.06023C582.879 2.1067 581.245 2.07927 575.719 2.08476C574.281 2.08626 572.735 2.1397 571.828 2.14043C571.042 2.14106 568.585 2.08426 566.699 2.08403C563.555 2.08361 559.369 2.11746 555.064 2.11662C551.484 2.11578 540.527 2.07566 532.883 2.07524C529.622 2.07524 530.378 2.12275 529.536 2.12285C529.185 2.12285 526.644 2.06594 524.552 2.06572C507.487 2.06445 490 2.10047 472.851 2.09941C460.769 2.09878 448.493 2.05302 436.388 2.05766C433.812 2.05872 435.175 2.10049 434.051 2.10197C433.664 2.10235 433.199 2.02945 429.216 2.05876C427.777 2.06933 429.432 2.12031 428.017 2.12285C427.328 2.12406 427.035 2.06016 423.01 2.04558C415.694 2.01896 411.762 2.10415 411.109 2.10161C409.877 2.0967 410.237 2.04382 408.606 2.04192C400.625 2.03262 393.963 2.02365 386.841 2.01921C383.515 2.0171 360.585 2.00641 359.325 2.01592C356.508 2.03705 359.13 2.14748 355.517 2.14372C354.505 2.11577 353.493 2.08781 352.481 2.05986C354.089 2.03862 355.697 2.01738 357.305 1.99614C352.878 2.03165 347.86 1.98142 344.582 1.98333C343.976 1.98376 338.405 2.03384 335.562 2.02837C336.77 2.04912 337.979 2.06987 339.187 2.09062C338.759 2.10832 338.332 2.12602 337.905 2.14372C332.221 2.11689 326.209 2.11758 320.381 2.12138C318.279 2.12268 318.989 2.16568 316.861 2.16716C304.467 2.17623 307.598 1.99743 295.674 2.33305C299.7 2.30262 314.388 2.34531 316.523 2.33414C318.01 2.32632 323.779 2.04274 321.663 2.33378C333.563 2.33251 323.227 2.17199 334.341 2.20707C334.119 2.2426 333.897 2.27812 333.675 2.31364C337.555 2.33603 340.421 2.35398 342.778 2.2913C343.569 2.46362 356.752 2.3628 363.982 2.37443C374.431 2.39091 386.236 2.43295 396.588 2.44034C400.154 2.44285 402.174 2.37531 402.622 2.37553C403.276 2.37601 405.113 2.43516 406.419 2.43558C411.293 2.43727 426.121 2.33728 429.81 2.5015C400.809 2.5015 371.807 2.5015 342.806 2.5015C346.452 2.42078 317.117 2.41289 315.629 2.41691C314.252 2.42052 315.411 2.47719 315.002 2.48063C311.954 2.50493 309.353 2.42277 308.385 2.42277C307.647 2.42278 306.158 2.46133 303.534 2.46048C303.053 2.46037 302.919 2.41959 302.401 2.41947C298.979 2.41947 295.6 2.42005 292.166 2.41984C291.957 2.42023 291.09 2.47979 290.223 2.47989C289.353 2.47989 288.494 2.42039 288.274 2.4202C285.529 2.42063 280.823 2.45933 278.211 2.45975C277.305 2.45973 277.933 2.41612 276.917 2.41654C273.797 2.4176 274.825 2.50297 270.967 2.48099C269.674 2.47359 269.757 2.4083 267.281 2.41691C265.528 2.42304 265.716 2.53938 265.438 2.54361C265.054 2.54872 259.003 2.45684 257.023 2.53299C261.349 2.73404 252.291 2.54348 252.727 2.45865C250.329 2.48001 247.931 2.50138 245.533 2.52274C244.715 2.50126 243.897 2.47977 243.079 2.45829C233.404 2.55509 227.502 2.49697 217.984 2.52677C217.525 2.52825 209.505 2.57601 209.88 2.60623C214.68 2.65821 219.47 2.66059 222.541 2.56449C227.597 2.74773 227.684 2.6017 235.847 2.62601C238.58 2.63425 238.774 2.68396 239.089 2.6846C249.718 2.70932 266.742 2.73072 273.903 2.58536C275.911 2.62467 268.694 2.64026 271.5 2.66922C273.03 2.68507 309.86 2.7315 298.094 2.56412C299.315 2.56876 300.536 2.5734 301.757 2.57804C302.979 2.73613 309.052 2.69997 308.363 2.54251C308.938 2.57474 309.514 2.60696 310.089 2.63919C311.226 2.66645 312.571 2.68106 314.458 2.68973C321.682 2.72268 364.661 2.66784 366.947 2.69046C366.998 2.72781 367.05 2.76516 367.102 2.80252C348.115 2.84479 329.695 2.75196 308.99 2.85891C309.592 2.82388 310.193 2.78884 310.794 2.75381C302.533 2.80288 294.271 2.85195 286.01 2.90102C294.754 2.96443 308.665 3.01768 317.844 2.96547C319.475 2.95616 318.279 2.9073 318.654 2.90139C319.633 2.88602 320.687 2.97078 324.205 2.97902C327.725 2.98726 336.567 2.92716 337.377 2.92885C338.939 2.93234 343.155 3.02932 345.814 3.02809C349.31 3.0264 346.967 2.96638 347.668 2.96511C350.57 2.95921 353.172 2.98895 355.445 2.98452C358.82 2.97792 365.831 2.87236 368.19 3.02736C365.779 3.03444 363.368 3.04152 360.957 3.0486C374.031 3.10419 384.252 2.90604 397.132 3.05886C400.059 3.24654 389.416 3.22117 398.414 3.30128C396.78 3.29859 395.147 3.29591 393.513 3.29322C393.13 3.25392 392.747 3.21461 392.364 3.17531C389.549 3.20338 386.735 3.23146 383.921 3.25953C384.724 3.2245 385.527 3.18947 386.33 3.15443C376.353 3.12801 366.277 3.09209 362.794 3.28041C362.589 3.23487 362.384 3.18934 362.178 3.14381C352.915 3.19917 339.009 3.00619 341.607 3.25953C341.169 3.24611 340.73 3.23268 340.291 3.21925C334.692 3.27103 337.083 3.16627 334.979 3.15443C334.378 3.1511 323.495 3.20519 328.318 3.28041C317.701 3.33789 320.975 3.10111 318.049 3.09071C311.252 3.20802 299.027 3.03206 304.167 3.21742C303.154 3.22438 302.142 3.23133 301.13 3.23829C297.804 3.09246 294.526 3.25746 290.922 3.31263C289.701 3.31593 288.48 3.31922 287.259 3.32252C286.441 3.27345 285.623 3.22438 284.805 3.17531C273.316 3.40886 276.954 2.77014 271.705 3.30677C272.523 3.33887 273.341 3.37098 274.159 3.40308C276.098 3.41834 278.037 3.4336 279.976 3.44886C272.155 3.46302 264.334 3.47718 256.513 3.49134C246.585 3.64175 240.936 3.47855 229.907 3.59753C228.875 3.58325 227.842 3.56897 226.81 3.55469C227.862 3.67622 231.868 3.65836 224.407 3.71289C223.771 3.79881 228.81 3.80993 231.106 3.74401C231.66 3.72793 226.949 3.66211 232.244 3.65979C235.845 3.65813 229.307 3.76139 240.093 3.72314C239.694 3.74414 239.294 3.76513 238.894 3.78613C240.064 3.78552 241.233 3.78491 242.402 3.7843C243.442 3.73571 244.482 3.68713 245.522 3.63855C248.195 3.70872 249.695 3.80705 255.802 3.78613C254.146 3.7557 256.393 3.65814 259.416 3.65979C259.416 3.69494 259.416 3.7301 259.416 3.76525C266.732 3.78787 264.207 3.68473 270.29 3.76525C270.899 3.7373 271.507 3.70935 272.116 3.68139C275.43 3.79658 287.63 3.87495 285.405 3.70227C288.827 3.87008 296.015 3.79437 298.688 3.66015C298.893 3.69506 299.099 3.72998 299.304 3.76489C300.727 3.77197 302.15 3.77905 303.573 3.78613C304.366 3.76501 305.16 3.74389 305.954 3.72277C306.962 3.74389 307.971 3.76501 308.979 3.78613C309.588 3.75109 310.197 3.71606 310.805 3.68103C312.426 3.72302 314.047 3.76501 315.668 3.807C316.659 3.77905 317.652 3.75109 318.643 3.72314C318.746 3.79622 328.571 3.81248 331.316 3.76452C332.133 3.78576 332.951 3.807 333.769 3.82824C334.169 3.79345 334.568 3.75866 334.968 3.72387C335.577 3.75171 336.186 3.77954 336.794 3.80737C338.197 3.77954 339.599 3.75171 341.002 3.72387C346.722 3.89443 346.906 3.74479 348.212 3.74585C350.634 3.7478 358.879 3.85461 360.258 3.84911C361.635 3.84358 362.299 3.78236 363.411 3.77661C381.732 3.68044 374.201 3.84471 377.876 3.87072C379.859 3.88488 381.263 3.82777 383.016 3.8341C386.016 3.84467 401.146 3.92023 402.017 3.91283C403.284 3.90216 400.3 3.63287 404.42 3.70227C404.557 3.84687 413.368 3.70092 409.25 3.90258C412.878 3.88488 416.506 3.86718 420.135 3.84948C419.723 4.02089 424.198 3.91064 429.072 3.92016C435.978 3.93349 451.527 4.04619 450.958 3.87035C452.613 3.91076 454.267 3.95116 455.921 3.99157C467.24 3.93621 478.341 3.99421 489.576 3.99633C522.918 4.00288 559.092 3.96471 592.277 3.93004C593.873 3.92833 593.643 3.87089 594.792 3.86962C600.827 3.86328 616.513 3.90391 624.966 3.89123C627.674 3.88721 628.992 3.83118 629.851 3.82861C632.766 3.81952 632.078 3.89334 633.42 3.89123C635.538 3.88784 646.737 3.81931 650.594 3.81213C652.504 3.80857 654.764 3.86723 657 3.84911C657.192 3.84764 656.837 3.78718 657 3.78613C661.076 3.77873 658.624 3.83099 660.003 3.82824C669.835 3.80859 680.344 3.80738 691.01 3.79492C693.659 3.79175 697.712 3.74913 699.986 3.74511C700.853 3.74369 699.297 3.78956 702.295 3.78576C703.322 3.78446 703.672 3.72481 704.832 3.72094C709.826 3.70467 711.497 3.89635 715.789 3.74218C724.073 3.75233 738.493 3.80155 746.052 3.80261C747.84 3.80278 748.711 3.76755 750.415 3.76818C751.624 3.76861 753.752 3.82318 755.638 3.82384C757.525 3.82448 760.503 3.77251 764.131 3.77441C767.951 3.77632 772.701 3.80719 773.562 3.807C774.602 3.807 775.087 3.74135 776.127 3.74218C779.271 3.7443 787.69 3.80882 791.741 3.81579C796.094 3.82318 798.707 3.79135 800.195 3.79199C801.573 3.79287 803.179 3.84826 803.809 3.84875C804.787 3.84959 805.019 3.78485 806.262 3.78539C808.293 3.78645 810.388 3.82716 813.434 3.82824C868.291 3.84832 922.076 3.81275 975.446 3.76562C981.396 3.76034 984.758 3.80574 993.525 3.78503C997.08 3.77658 995.582 3.70977 998.349 3.72241C999.582 3.72812 999.27 3.78065 1000.83 3.7832C1007.72 3.79419 1015.76 3.74537 1018.74 3.74621C1019.93 3.74646 1021.28 3.80613 1023.71 3.807C1041.81 3.81376 1063.23 3.79701 1082.72 3.80737C1093.03 3.81286 1108.65 3.84327 1120.49 3.84728C1153.2 3.85848 1188.39 3.84466 1218.23 3.85058C1245.54 3.85583 1272.77 3.87818 1300 3.88041L1299.11 3.51235C1305.11 9.51263 1311.11 15.5112 1317.12 21.5089L1317.49 21.8776L1318 21.8755C1327.2 21.8708 1336.4 21.8625 1345.61 21.8491C1337.32 21.906 1327.86 21.9386 1318 21.9581L1317.45 21.9604L1317.06 21.5673C1311.13 15.6677 1305.02 9.56021 1299.04 3.58753L1300 3.98673C1293.11 3.9906 1286.35 3.9928 1279.98 3.99706C1212.35 4.04186 1140.35 3.958 1071.04 3.96117C1046.92 3.96223 1016.52 3.95891 990.117 3.9923C988.92 3.99378 986.438 3.94789 983.85 3.95275C983.3 3.95388 976.483 4.03759 974.186 4.03844C976.363 3.88964 967.365 4.02226 964.583 4.01866C961.075 4.01399 953.759 3.93963 945.549 3.98168C938.1 4.01972 940.154 4.07696 939.743 4.08055C937.108 4.10375 936.189 4.01151 934.17 4.00218C925.922 3.96499 883.497 4.01858 871.656 4.02196C868.597 4.0228 868.51 4.08144 867.821 4.08165C865.995 4.08204 863.397 4.02413 860.472 4.02452C855.199 4.02537 849.125 4.08071 846.223 4.08092C839.281 4.08155 826.108 4.01627 817.086 4.015C814.549 4.01462 814.704 4.07564 813.556 4.07542C808.5 4.07435 795.331 4.00245 789.055 4.00182C778.86 4.00076 768.373 4.04021 758.009 4.02013C757.352 4.04735 756.695 4.07457 756.038 4.10179C755.002 4.07323 753.966 4.04466 752.93 4.0161C735.406 4.03787 717.568 3.97656 700.141 3.98058C698.133 3.981 688.194 4.03309 686.536 4.03331C685.157 4.03331 683.801 3.96589 681.757 3.97582C678.894 3.9896 681.588 4.11801 676.911 4.08128C675.653 4.07135 676.873 4.01638 674.346 3.99926C673.512 3.99355 657.316 3.97128 656.445 3.97509C654.994 3.98149 653.7 4.09926 653.325 4.10179C651.379 4.11508 651.462 4.02471 650.156 4.01647C646.303 3.99179 641.268 4.05259 640.642 4.05126C633.071 4.03456 618.918 3.96242 610.973 4.00511C609.874 4.01107 610.005 4.07837 609.812 4.08055C608.567 4.09449 607.794 4.01787 606.609 4.0161C600.236 4.00743 590.255 4.05902 583.846 4.07213C583.107 4.07355 581.549 4.0367 580.232 4.04027C572.782 4.06098 575.199 4.12013 574.775 4.12267C573.772 4.12894 572.006 4.06371 569.336 4.05968C562.454 4.0489 549.259 4.05827 541.881 4.06334C536.355 4.06736 536.438 4.14206 536.075 4.14354C535.3 4.14622 533.147 4.08658 529.508 4.07982C522.507 4.06651 523.305 4.12519 520.427 4.12267C520.185 4.12267 520.606 4.06523 517.413 4.05931C511.244 4.04792 497.388 4.10438 490.786 4.10143C488.246 4.10037 487.652 4.04499 485.052 4.04393C480.929 4.04204 471.625 4.10194 470.891 4.10179C470.686 4.10179 470.225 4.03807 469.015 4.03807C467.685 4.03808 466.377 4.07088 465.385 4.07066C459.738 4.06978 450.009 3.95859 452.712 4.18602C450.903 4.12987 449.093 4.07372 447.284 4.01756C435.456 4.02877 423.966 4.00627 412.247 3.99486C409.611 3.99233 407.411 4.0354 405.186 4.03331C402.962 4.0312 393.149 3.95995 391.509 3.95861C388.582 3.95628 371.951 3.94877 369.883 3.95385C365.844 3.96357 361.925 4.05756 360.28 4.03917C358.962 4.02438 360.181 3.97142 357.665 3.95641C353.311 3.93045 345.912 3.99848 344.582 3.99743C344.014 3.99699 345.077 3.95571 339.759 3.95275C336.892 3.95106 335.353 3.99654 334.313 3.99633C333.99 3.99609 334.475 3.92233 328.801 3.93224C324.883 3.93922 323.212 3.99611 322.801 3.99633C322.184 3.9967 320.694 3.93599 318.216 3.9381C312.422 3.9434 301.831 4.01301 296.329 4.0183C295.265 4.01935 295.626 3.946 291.383 3.95275C288.348 3.95761 288.878 4.01596 287.742 4.0183C285.94 4.02189 283.255 3.95044 279.277 3.95275C274.27 3.95571 237.093 4.02982 235.17 4.04906C233.876 4.06195 232.375 4.06276 231.734 4.09447C232.283 4.12486 232.833 4.15526 233.382 4.18565C239.076 4.07899 236.778 4.20089 238.289 4.20872C240.478 4.21992 248.728 4.20437 250.723 4.23143C251.434 4.2412 249.806 4.30608 253.626 4.33945C257.725 4.37514 259.548 4.25964 261.181 4.41746C266.998 4.24224 272.585 4.42821 265.849 4.47788C262.089 4.50557 225.201 4.56813 217.668 4.57785C211.56 4.58566 200.121 4.53871 192.611 4.55075C188.197 4.55794 177.325 4.56608 177.785 4.64999C173.867 4.66056 178.014 4.57702 177.191 4.5654C175.471 4.54113 163.242 4.59882 160.927 4.59653C154.521 4.59036 147.174 4.55812 140 4.54972L141.362 3.98562C137.389 7.9493 133.501 11.8486 130.092 15.3233C130.473 14.9741 130.854 14.625 131.235 14.2758C132.803 12.7581 139.24 6.26413 141.484 4.10757L140 4.72218C140.44 4.73093 140.76 4.74173 140.922 4.75509C140.615 4.75509 140.307 4.75509 140 4.75509L141.507 4.13085C135.34 10.2975 129.174 16.4642 123.007 22.6308L122.392 23.2514L121.5 23.2551C113.62 23.2551 105.741 23.2551 97.8613 23.2551C98.1757 23.1634 77.2047 23.1646 76.213 23.206C76.5812 23.2505 76.9494 23.2949 77.3176 23.3393C89.1681 23.1707 88.1054 23.3936 96.0628 23.2752C99.3022 23.2736 98.3245 23.347 99.9206 23.3609C115.809 23.4995 100.175 23.2103 112.338 23.276C109.069 23.371 116.659 23.4122 121.5 23.4296L122.465 23.4256L123.13 22.7543C123.543 22.3448 123.927 21.9632 124.266 21.6259C124.987 20.9097 134.402 11.4565 135.523 10.3375C137.273 8.5911 139.374 6.49907 141.63 4.25328L140 4.92824C148.275 4.94547 158.023 4.9642 164.408 4.92208C171.373 4.9151 175.207 4.99095 181.532 5.0085C186.332 5.02181 184.956 4.96851 187.216 4.96785C191.957 4.96637 193.517 5.12867 196.552 4.9023C199.767 4.9305 202.98 4.9587 206.194 4.9869C206.194 4.95174 206.194 4.91659 206.194 4.88143C208.213 4.88143 210.232 4.88143 212.25 4.88143C212.844 4.91646 213.438 4.9515 214.032 4.98653C220.439 4.93855 217.764 4.8539 218.961 4.75436C220.345 4.74752 221.729 4.74069 223.113 4.73385C224.185 4.81026 225.256 4.88668 226.327 4.96309C232.507 4.95687 238.687 4.95064 244.867 4.94442C245.267 4.90938 245.666 4.87435 246.066 4.83932C246.079 4.87435 246.092 4.90938 246.105 4.94442C256.57 4.95162 267.035 4.95882 277.5 4.96602C280.284 5.02222 263.516 5.06481 262.247 5.06819C255.183 5.08678 236.426 5.03044 236.402 5.15535C232.011 5.06215 218.793 5.08529 214.681 5.19709C220.922 5.19038 227.163 5.18367 233.404 5.17695C233.203 5.21882 233.001 5.26069 232.799 5.30256C240.575 5.13369 241.713 5.14299 249.707 5.30256C249.714 5.24641 249.722 5.19026 249.729 5.13411C255.304 5.32936 265.156 4.99815 265.438 5.23921C268.406 5.21968 271.374 5.20015 274.342 5.18062C280.751 5.21 270.799 5.39539 295.89 5.3227C297.619 5.31763 297.259 5.25622 299.859 5.26045C300.609 5.26171 304.903 5.35104 313.114 5.34174C314.396 5.34026 314.493 5.28699 315.823 5.28022C318.894 5.26416 325.012 5.36952 322.234 5.19783C334.399 5.14775 329.358 5.28867 333.131 5.34467C335.646 5.38184 335.139 5.28026 337.316 5.30329C340.009 5.33186 338.033 5.43427 348.818 5.38715C347.607 5.38019 346.397 5.37324 345.187 5.36628C345.796 5.33845 346.405 5.31062 347.013 5.28279C353.169 5.34956 352.587 5.25199 355.49 5.40839C359.964 5.33864 363.836 5.33309 369.955 5.34577C381.843 5.3705 375.749 5.53905 389.316 5.31208C391.515 5.34394 393.712 5.3758 395.911 5.40766C399.524 5.34066 396.602 5.25685 401.995 5.23994C397.774 5.40543 409.153 5.34509 411.076 5.49262C411.277 5.45746 411.479 5.42231 411.681 5.38715C412.885 5.38715 414.09 5.38715 415.294 5.38715C415.298 5.41535 415.302 5.44355 415.305 5.47174C416.91 5.45063 418.514 5.42951 420.118 5.40839C421.324 5.43635 422.531 5.4643 423.737 5.49225C425.721 5.43329 427.704 5.37434 429.688 5.31538C430.933 5.31135 432.178 5.30732 433.423 5.30329C433.029 5.34528 432.635 5.38727 432.241 5.42927C433.842 5.41523 435.442 5.40119 437.042 5.38715C435.18 5.45605 436.351 5.53684 441.333 5.53473C445.445 5.53304 440.813 5.38923 449.654 5.44904C450.271 5.4533 451.363 5.55587 459.718 5.57172C469.738 5.59072 464.871 5.51643 466.656 5.51386C467.007 5.51343 470.068 5.56505 472.934 5.57245C474.561 5.57666 476.127 5.53499 476.342 5.5351C477.346 5.537 477.639 5.59595 479.029 5.59808C482.56 5.60315 487.299 5.57427 490.758 5.57721C492.33 5.57848 493.809 5.61341 494.51 5.61383C495.599 5.61423 496.979 5.56089 498.079 5.5611C502.143 5.56221 508.31 5.73922 510.197 5.49335C514.103 5.71943 522.286 5.44609 521.687 5.59772C532.125 5.54049 559.966 5.72651 559.15 5.47174C565.062 5.68958 564.534 5.53183 567.01 5.5351C569.779 5.53869 568.345 5.58094 570.546 5.57904C575.685 5.5746 580.596 5.55645 585.711 5.5556C584.908 5.52069 584.105 5.48578 583.302 5.45087C588.671 5.43967 586.822 5.52091 592.299 5.53656C602.373 5.56509 598.128 5.50027 599.615 5.40876C599.216 5.4971 611.095 5.48337 612.305 5.47174C613.026 5.46466 609.865 5.35079 617.139 5.38752C616.742 5.42255 616.344 5.45758 615.946 5.49262C619.26 5.4447 628.262 5.5055 629.79 5.49372C630.491 5.48822 634.243 5.20569 637.678 5.42927C638.092 5.39423 638.507 5.3592 638.921 5.32417C642.734 5.36628 646.548 5.40839 650.361 5.4505C650.97 5.3874 651.579 5.32429 652.187 5.26118C653.397 5.26118 654.608 5.26118 655.818 5.26118C655.015 5.31721 654.212 5.37324 653.409 5.42927C660.881 5.40391 670.009 5.49226 671.549 5.30329C673.149 5.33833 674.75 5.37336 676.35 5.40839C677.392 5.34553 678.434 5.28266 679.475 5.2198C686.886 5.23565 687.009 5.27768 692.076 5.34467C691.878 5.2956 691.68 5.24653 691.482 5.19746C695.219 5.26636 702.041 5.33051 707.435 5.33918C709.999 5.34318 714.402 5.27556 715.006 5.28169C715.618 5.28815 721.631 5.55382 722.283 5.3238C731.136 5.42567 735.033 5.32163 738.625 5.32417C740.958 5.32587 742.023 5.38108 744.659 5.38679C748.432 5.39503 752.229 5.36834 754.406 5.37214C755.652 5.37446 755.884 5.42831 756.743 5.43C760.803 5.43821 758.424 5.38319 762.705 5.38679C763.099 5.38741 766.228 5.45309 769.754 5.44465C771.726 5.43998 776.826 5.3661 777.276 5.36628C779.271 5.36755 777.676 5.51524 784.497 5.34467C784.299 5.37275 784.101 5.40082 783.903 5.4289C792.345 5.50013 793.677 5.37494 795.382 5.36628C795.6 5.36557 797.655 5.41396 798.885 5.40729C800.962 5.3959 801.8 5.32965 802.26 5.32673C803.88 5.31658 809.339 5.34573 812.906 5.28169C812.157 5.47022 824.658 5.53727 827.427 5.3238C829.64 5.36591 831.853 5.40803 834.066 5.45014C835.067 5.41498 836.068 5.37983 837.069 5.34467C837.678 5.37971 838.287 5.41474 838.895 5.44977C842.12 5.37263 845.345 5.29548 848.571 5.21833C848.776 5.2956 848.981 5.37287 849.187 5.45014C850.09 5.44135 850.993 5.43256 851.896 5.42377C852.601 5.36237 853.305 5.30097 854.01 5.23957C855.139 5.25129 856.268 5.26301 857.396 5.27473C857.676 5.31916 857.955 5.36359 858.235 5.40803C864.302 5.45924 861.185 5.03546 872.744 5.40803C874.543 5.37299 876.341 5.33796 878.14 5.30293C880.171 5.47343 883.978 5.37019 887.049 5.38935C889.213 5.40287 889.096 5.47061 892.045 5.47211C894.996 5.47359 894.89 5.40881 895.12 5.40839C897.525 5.40441 899.339 5.46152 901.104 5.45014C901.37 5.44845 902.036 5.37153 904.284 5.36664C906.534 5.36178 907.889 5.4436 911.24 5.42817C912.956 5.42035 913.452 5.35553 914.975 5.3498C922.231 5.3219 929.538 5.65009 934.98 5.26081C936.207 5.31013 945.105 5.48277 948.913 5.47284C954.835 5.45699 952.554 5.38063 954.908 5.36664C955.247 5.36453 957.05 5.39033 962.019 5.38569C962.908 5.38485 962.701 5.42796 962.829 5.42853C968.621 5.42769 979.87 5.39365 986.231 5.38752C986.8 5.38688 989.776 5.50706 994.819 5.34541C1002.29 5.46481 1016.37 5.20827 1026.23 5.38825C1027.59 5.39205 1029.25 5.34907 1029.86 5.35053C1035.07 5.36385 1033.16 5.49436 1044.94 5.30329C1043.98 5.36985 1046.74 5.42993 1050.63 5.42487C1056.49 5.41726 1052.33 5.29315 1057.03 5.30329C1057.03 5.33833 1057.03 5.37336 1057.03 5.40839C1067.85 5.31416 1070.01 5.46394 1080.87 5.46479C1084.77 5.465 1090.54 5.38736 1091.48 5.38715C1091.84 5.38738 1096.11 5.47184 1096.52 5.47248C1098.81 5.47501 1100.11 5.43607 1102.09 5.43586C1108.65 5.43503 1116.47 5.54491 1115.06 5.34541C1116.86 5.38752 1118.66 5.42963 1120.46 5.47174C1127.27 5.2587 1132.36 5.55232 1133.79 5.34541C1135.01 5.38813 1136.22 5.43085 1137.44 5.47358C1166.64 5.45197 1195.85 5.43036 1225.05 5.40876C1226.21 5.47534 1238.95 5.45171 1239.6 5.44135C1242.6 5.39442 1239.43 5.24924 1245.55 5.28242C1246.23 5.34602 1246.9 5.40961 1247.58 5.47321C1255.27 5.49392 1251.57 5.43063 1254.61 5.38752C1255.88 5.39536 1255.47 5.44472 1257.18 5.44831C1266.5 5.46796 1285.59 5.47029 1295.77 5.47431C1297.83 5.47515 1297.52 5.42902 1298.16 5.4289C1298.65 5.42902 1299.27 5.43369 1300 5.44035L1298.01 4.6154C1299.31 5.94032 1301.06 7.72918 1302.84 9.51815C1306.86 13.5333 1311.31 17.984 1315.98 22.644L1316.83 23.4857L1318 23.4808C1336.67 23.4689 1357.73 23.4415 1373.92 23.4055C1375.41 23.4021 1375.59 23.3471 1376.59 23.3443C1377.98 23.3407 1381.09 23.3852 1382.55 23.3806C1383.93 23.3763 1384.82 23.3345 1386.29 23.3297C1393.04 23.3068 1402.11 23.3774 1409.33 23.2542C1409.94 23.2438 1417.5 23.0223 1417.67 23.0078C1418.68 22.9215 1411.96 22.7861 1423 22.6599C1413.13 22.5498 1416.21 22.3551 1429.03 22.26C1422.6 22.2355 1416.17 22.2109 1409.74 22.1864C1409.73 22.1633 1409.72 22.1402 1409.71 22.1172C1415.57 22.0028 1421.38 21.9648 1430.28 21.9542C1430 21.9329 1429.72 21.9115 1429.44 21.8901C1421.58 21.7834 1412.1 21.7637 1406.11 21.618C1414.89 21.5103 1423.67 21.4025 1432.45 21.2947C1432.01 21.2778 1431.57 21.261 1431.14 21.2442C1426.93 21.2004 1417.73 21.1747 1414.24 21.1339C1400.89 20.9784 1425.92 21.0175 1421.81 20.9226C1407.72 20.926 1393.62 20.9295 1379.53 20.9329C1379.04 20.863 1433.25 20.67 1432.7 20.459C1428.27 20.4449 1423.84 20.4307 1419.41 20.4165C1421.38 20.363 1423.36 20.3094 1425.33 20.2558C1424.79 20.2388 1424.24 20.2218 1423.7 20.2049C1416.22 20.1633 1408.75 20.1216 1401.28 20.08C1424 20.1218 1434.56 20.0915 1440 19.6695C1439.38 19.6588 1438.77 19.648 1438.15 19.6373C1433.23 19.9013 1410 19.8159 1397.65 19.7632C1400.16 19.6859 1411.04 19.7456 1413.33 19.6992C1413.99 19.6858 1411.71 19.6322 1413.22 19.6047C1417.17 19.5332 1433.97 19.4413 1431.52 19.3538C1429.95 19.2976 1402.92 19.2205 1397.65 19.2264C1410.01 19.1254 1422.74 19.0961 1435.14 18.9733C1427.31 18.8022 1420.38 18.5926 1406.1 18.5833C1401.75 18.4935 1431.98 18.3691 1432.68 18.32C1427.45 18.2674 1422.22 18.2148 1416.99 18.1622C1421.41 18.1763 1425.84 18.1903 1430.26 18.2043C1430.28 18.1868 1430.29 18.1692 1430.3 18.1516C1418.84 18.07 1408.35 17.9203 1395.23 17.9304C1395.65 17.8374 1403.5 17.8467 1407.31 17.8458ZM159.112 5.13521C158.847 5.21232 163.658 5.19967 166.367 5.19819C165.96 5.21223 165.553 5.22627 165.146 5.24031C170.926 5.22572 181.688 5.19613 182.087 5.34577C186.211 5.36437 184.387 5.23424 185.717 5.21943C186.237 5.21352 191.62 5.28925 195.925 5.19709C196.948 5.19746 197.971 5.19783 198.995 5.19819C199.193 5.24726 199.391 5.29633 199.589 5.34541C201.015 5.28584 202.442 5.22627 203.868 5.1667C188.957 5.1562 174.046 5.1457 159.134 5.13521C159.127 5.13521 159.119 5.13521 159.112 5.13521ZM307.747 5.19856C313.177 5.17087 321.495 5.12715 319.814 5.26155C316.384 5.25447 312.953 5.24739 309.523 5.24031C308.931 5.22639 308.339 5.21247 307.747 5.19856ZM847.938 5.09273C852.473 4.96042 856.649 5.07486 863.663 5.05098C863.654 5.07893 863.645 5.10689 863.636 5.13484C860.767 5.06772 853.185 5.11238 847.938 5.09273ZM32.0339 23.1295C31.0347 23.1399 30.0356 23.1502 29.0364 23.1606C33.1 23.3109 33.8272 23.205 38.4229 23.2196C38.7 23.2205 38.6038 23.2549 38.7004 23.2551C39.8251 23.2574 40.8653 23.216 41.8811 23.2166C43.8403 23.2179 45.4376 23.2599 48.9084 23.2584C51.5924 23.2571 51.6177 23.1911 52.5609 23.1928C53.3647 23.1945 61.329 23.3759 66.4546 23.2976C76.2023 23.1484 35.009 23.1155 32.0339 23.1295ZM3.14177 23.2536C4.10576 23.2542 5.06979 23.2548 6.03376 23.2555C3.135 23.1541 8.98518 23.1695 13.2776 23.1716C13.1446 23.0744 4.06356 23.116 0 23.087C1.04727 23.1425 2.09452 23.1981 3.14177 23.2536ZM125.368 19.9727C122.694 22.633 123.224 22.2744 123.361 22.1888C124.21 21.3396 125.059 20.4905 125.908 19.6414C125.728 19.7519 125.548 19.8623 125.368 19.9727ZM96.679 23.0031C97.8521 23.0856 106.041 23.1216 109.923 23.1284C110.093 23.1284 109.027 23.0832 111.772 23.0874C112.596 23.0887 120.705 23.2533 118.921 23.0665C111.511 23.0454 104.1 23.0243 96.6901 23.0031C96.6864 23.0031 96.6827 23.0031 96.679 23.0031ZM88.4082 23.0519C89.9513 23.0777 91.4945 23.1036 93.0376 23.1295C93.8351 23.0908 94.6326 23.0521 95.43 23.0134C93.6741 23.0036 91.9182 22.9939 90.1623 22.9841C89.5776 23.0067 88.9929 23.0293 88.4082 23.0519ZM1241.75 4.44199C1241.39 4.48337 1241.04 4.52475 1240.68 4.56613C1239.29 4.5915 1232.52 4.41132 1234.66 4.37644C1237.03 4.39829 1239.39 4.42014 1241.75 4.44199ZM1270.31 4.3552C1271.71 4.33433 1273.12 4.31345 1274.53 4.29258C1276.14 4.36277 1277.76 4.43296 1279.38 4.50315C1272.35 4.55048 1264.88 4.60502 1266.08 4.39805C1264.47 4.39805 1262.87 4.39805 1261.26 4.39805C1262.61 4.48363 1262.43 4.51182 1258.22 4.56613C1257.3 4.44705 1252.95 4.50772 1247.97 4.48154C1251.59 4.47458 1255.22 4.46762 1258.84 4.46067C1258.84 4.43967 1258.84 4.41868 1258.84 4.39768C1250.76 4.40527 1260.8 4.27209 1266.06 4.35557C1266.47 4.32761 1266.89 4.29966 1267.3 4.27171C1268.3 4.29954 1269.31 4.32737 1270.31 4.3552ZM686.619 4.39768C687.62 4.37656 688.621 4.35545 689.622 4.33433C693.502 4.60938 685.604 4.34846 679.98 4.56613C681.838 4.40078 673.266 4.40769 672.776 4.39658C673.762 4.34092 674.748 4.28526 675.734 4.2296C679.363 4.28562 682.991 4.34165 686.619 4.39768ZM714.995 4.20799C711.524 4.34516 728.575 4.35357 734.295 4.32334C735.686 4.31591 738.166 4.24059 739.169 4.2501C739.778 4.27793 740.387 4.30577 740.995 4.3336C741.716 4.23741 752.887 4.34555 757.287 4.39731C757.701 4.36228 758.116 4.32725 758.53 4.29222C760.135 4.30613 761.739 4.32005 763.343 4.33396C763.141 4.29905 762.94 4.26414 762.738 4.22923C763.952 4.27122 765.165 4.31321 766.379 4.3552C771.144 4.40191 768.206 4.21158 771.786 4.27098C775.765 4.33692 769.245 4.45026 769.366 4.52402C766.136 4.505 758.794 4.46241 755.516 4.4603C753.634 4.45916 755.767 4.59132 747.656 4.43943C745.878 4.47483 744.1 4.51023 742.322 4.54563C739.058 4.48935 735.794 4.43308 732.53 4.37681C731.922 4.42576 731.313 4.4747 730.704 4.52365C730.356 4.53131 722.807 4.42017 723.21 4.3834C720.153 4.47697 713.875 4.49365 707.263 4.49839C706.626 4.47178 705.99 4.44516 705.353 4.41855C711.749 4.47602 707.388 4.3904 709.294 4.33945C710.395 4.31008 713.761 4.25237 714.995 4.20799ZM1197.2 4.33469C1207.94 4.45411 1201.29 4.35558 1212.89 4.35557C1212.08 4.4188 1211.27 4.48203 1210.46 4.54526C1204.76 4.42973 1195.37 4.50656 1197.19 4.33469C1197.19 4.33469 1197.19 4.33469 1197.2 4.33469ZM1306.27 11.607C1301.96 7.24834 1304.19 9.33518 1298.76 3.86354L1300 4.37707C1299.98 4.37698 1299.96 4.37689 1299.94 4.37681C1299.93 4.37681 1299.93 4.37681 1299.93 4.37681C1299.95 4.37676 1299.98 4.37672 1300 4.37668L1298.76 3.86326C1301.6 6.68773 1304.43 9.51219 1307.26 12.3366C1306.93 12.0934 1306.6 11.8502 1306.27 11.607ZM951.694 4.46836C945.805 4.49583 946.964 4.44663 941.619 4.54489C933.662 4.42569 940.398 4.44254 940.398 4.33433C942.217 4.36607 944.036 4.3978 945.855 4.42954C950.264 4.32834 946.082 4.2774 946.082 4.26768C946.086 4.26768 946.09 4.26768 946.093 4.26768C946.093 4.2352 945.95 4.22836 947.642 4.20872C948.993 4.29527 950.343 4.38181 951.694 4.46836ZM926.488 4.33469C928.507 4.40656 929.416 4.49882 924.106 4.54489C924.103 4.54489 924.099 4.54489 924.095 4.54489C923.669 4.38429 918.579 4.51392 916.258 4.50315C915.649 4.48569 915.04 4.46824 914.431 4.45078C918.45 4.41208 922.469 4.37339 926.488 4.33469ZM837.674 4.18712C837.652 4.36453 842.108 4.38141 835.837 4.54489C834.619 4.54172 833.402 4.53855 832.185 4.53537C831.385 4.49643 830.586 4.45749 829.786 4.41855C814.343 4.7396 809.739 4.19293 835.837 4.39731C835.841 4.39744 835.844 4.39756 835.848 4.39768C836.457 4.32749 837.066 4.2573 837.674 4.18712ZM864.873 4.20213C865.069 4.29527 865.266 4.3884 865.462 4.48154C868.872 4.25687 873.278 4.47124 879.966 4.31272C880.571 4.34104 881.176 4.36936 881.781 4.39768C884.281 4.33536 908.831 4.31741 903.513 4.46067C901.191 4.52323 896.133 4.43826 895.697 4.44016C894.222 4.44719 892.298 4.5272 889.808 4.52255C888.368 4.51976 885.335 4.42571 882.397 4.42588C875.831 4.4263 863.844 4.67881 855.209 4.43979C854.588 4.46787 853.966 4.49594 853.344 4.52402C846.937 4.50689 849.076 4.41793 843.114 4.52402C838.995 4.08163 867.08 4.54584 861.232 4.18712C861.236 4.18712 861.239 4.18712 861.243 4.18712C862.453 4.19212 863.663 4.19712 864.873 4.20213ZM1041.3 4.33469C1041.68 4.25525 1049.11 4.37783 1047.37 4.18748C1049.79 4.25376 1052.22 4.32005 1054.65 4.38633C1054.63 4.40403 1054.61 4.42173 1054.59 4.43943C1052.18 4.42551 1049.77 4.4116 1047.36 4.39768C1047.35 4.42576 1047.34 4.45383 1047.33 4.48191C1043.74 4.38034 1028.74 4.42458 1029.2 4.52402C1028.4 4.48203 1027.6 4.44004 1026.8 4.39805C1019.63 4.51239 1013.46 4.39082 1005.64 4.50241C1005.04 4.46762 1004.43 4.43284 1003.83 4.39805C1003.43 4.42612 1003.04 4.4542 1002.65 4.48227C999.8 4.48581 996.954 4.48935 994.108 4.49289C984.834 4.37985 1002.85 4.23349 1005.04 4.2501C1005.33 4.25243 1005.28 4.32511 1007.1 4.33652C1010.32 4.35656 1028.35 4.28419 1033.93 4.33213C1033.98 4.28391 1034.03 4.2357 1034.07 4.18748C1036.48 4.23655 1038.89 4.28562 1041.3 4.33469ZM803.215 4.37681C802.808 4.42588 802.401 4.47495 801.993 4.52402C794.968 4.47501 790.545 4.51785 792.346 4.35557C792.35 4.35557 792.353 4.35557 792.357 4.35557C795.976 4.36265 799.595 4.36973 803.215 4.37681ZM281.142 4.41855C281.326 4.32101 284.684 4.28454 289.024 4.35447C288.815 4.38279 288.606 4.41111 288.397 4.43943C286.135 4.35636 283.313 4.50114 276.335 4.48191C276.335 4.43284 276.335 4.38376 276.335 4.33469C277.937 4.36265 279.539 4.3906 281.142 4.41855ZM809.276 4.35557C811.417 4.29771 817.427 4.47324 813.473 4.48191C810.449 4.48845 808.127 4.38664 809.276 4.35557ZM1327.49 22.45C1325.9 22.4603 1324.32 22.4706 1322.73 22.4808C1321.9 22.4391 1321.07 22.3973 1320.25 22.3556C1320.25 22.3556 1320.25 22.3556 1320.26 22.3556C1322.67 22.3871 1325.08 22.4186 1327.49 22.45ZM971.827 4.47641C966.443 4.47031 961.058 4.46421 955.674 4.4581C955.62 4.43088 955.567 4.40366 955.513 4.37644C960.907 4.47578 963.076 4.36871 964.333 4.36216C964.328 4.36216 964.322 4.36216 964.317 4.36216C968.355 4.3406 972.203 4.32475 976.023 4.29222C974.625 4.35361 973.226 4.41501 971.827 4.47641ZM990.284 4.30467C989.376 4.497 988.192 4.51939 979.92 4.38413C980.248 4.36045 980.575 4.33677 980.903 4.31309C985.189 4.32724 987.689 4.37165 986.936 4.27134C988.052 4.28245 989.168 4.29356 990.284 4.30467ZM905.966 4.36619C906.959 4.30496 914.837 4.36645 914.409 4.39731C914.24 4.40957 904.031 4.48624 905.966 4.36619ZM221.331 4.37607C223.146 4.36204 224.962 4.348 226.777 4.33396C224.362 4.31309 221.948 4.29222 219.533 4.27134C220.132 4.30625 220.732 4.34116 221.331 4.37607ZM201.404 4.10252C200.11 4.12704 204.317 4.29996 196.58 4.34458C202.211 4.34824 207.841 4.35191 213.471 4.35557C210.831 4.32761 208.191 4.29966 205.55 4.27171C206.011 4.22203 206.472 4.17235 206.932 4.12267C205.089 4.11595 203.247 4.10924 201.404 4.10252ZM195.359 4.22923C198.391 4.0978 182.425 4.08793 180.938 4.10399C180.607 4.10781 179.032 4.20745 178.451 4.22886C180.862 4.22898 183.273 4.22911 185.684 4.22923C184.877 4.2606 184.071 4.29197 183.264 4.32334C186.085 4.33408 188.907 4.34483 191.729 4.35557C190.522 4.32407 189.316 4.29258 188.11 4.26109C190.526 4.25047 192.943 4.23985 195.359 4.22923ZM259.416 4.26109C257.397 4.26438 255.378 4.26768 253.36 4.27098C253.763 4.2219 254.166 4.17283 254.57 4.12376C255.778 4.12376 256.986 4.12376 258.194 4.12376C258.602 4.16954 259.009 4.21531 259.416 4.26109ZM218.284 4.19773C221.223 4.434 229.232 3.91748 219.871 4.10875C218.928 4.12819 218.006 4.17491 218.284 4.19773ZM174.954 4.13218C168.677 3.95993 170.094 4.34025 176.02 4.22886C176.318 4.22294 175.425 4.14491 174.954 4.13218ZM132.503 12.2467C132.144 12.6071 131.603 13.3226 128.088 16.6714C127.532 17.2479 126.975 17.8243 126.418 18.4008C127.785 17.1155 139.15 5.79841 137.497 7.27902C135.759 9.01365 134.296 10.4482 132.503 12.2467ZM143.425 3.67114C145.833 3.67456 148.24 3.67798 150.647 3.68139C149.853 3.71997 149.059 3.75854 148.266 3.79711C149.45 3.80761 150.634 3.81811 151.818 3.82861C153.842 3.76208 155.867 3.69555 157.891 3.62903C152.658 3.61841 147.426 3.60779 142.193 3.59717C142.604 3.62183 143.014 3.64648 143.425 3.67114ZM207.427 3.57593C202.795 3.62433 197.12 3.57281 189.597 3.58105C189.593 3.58118 189.59 3.5813 189.586 3.58142C189.211 3.58198 188.546 3.63497 187.338 3.63708C186.309 3.63877 165.993 3.58058 167.577 3.67041C175.438 3.75092 178.374 3.62851 180.261 3.82824C180.644 3.78613 181.027 3.74401 181.41 3.7019C188.968 3.62898 191.125 3.77477 195.37 3.82824C195.353 3.7965 195.337 3.76476 195.32 3.73303C198.155 3.72985 200.989 3.72668 203.824 3.72351C203.424 3.74438 203.025 3.76525 202.625 3.78613C203.628 3.78613 204.631 3.78613 205.634 3.78613C208.077 3.69208 211.174 3.67017 207.427 3.57593ZM135.479 8.69989C134.417 9.55472 128.354 15.6227 122.187 21.8104L121.906 22.0931L121.5 22.0948C115.895 22.1037 110.225 22.1169 106.354 22.0972C110.478 22.2121 116.398 22.1731 121.5 22.1513L121.93 22.1495L122.227 21.8503C123.164 20.9044 124.064 19.9987 124.894 19.1683C132.645 11.4133 127.348 16.8353 128.691 15.5474C129.355 14.9111 133.643 10.4043 135.479 8.69989ZM224.345 3.61804C218.879 3.63749 215.819 3.58206 211.09 3.67041C211.486 3.68799 211.882 3.70556 212.278 3.72314C213.898 3.70705 227.101 3.65628 224.345 3.61804ZM91.8386 22.1602C102.397 22.0737 97.1888 22.2917 102.679 22.1283C99.0658 22.1179 95.4522 22.1075 91.8386 22.0972C91.8386 22.1182 91.8386 22.1392 91.8386 22.1602ZM821.36 3.44995C825.81 3.44445 830.779 3.40052 833.439 3.49134C830.416 3.50537 827.392 3.51941 824.369 3.53345C823.366 3.50562 822.363 3.47779 821.36 3.44995ZM694.479 2.56265C695.495 2.54088 699.513 2.60513 699.936 2.60513C700.722 2.60513 700.507 2.57348 700.519 2.56522C705.667 2.57095 700.917 2.66911 704.726 2.69046C705.378 2.69398 714.325 2.64546 717.965 2.64944C723.564 2.65557 729.156 2.64922 731.248 2.65091C734.78 2.65367 741.336 2.7273 747.14 2.73111C749.533 2.73255 750.368 2.6736 752.774 2.67508C768.218 2.68501 798.621 2.76595 812.324 2.72854C815.709 2.71925 818.937 2.64205 820.728 2.64834C822.139 2.67654 823.551 2.70474 824.963 2.73294C829.305 2.47911 830.757 2.70487 835.437 2.72854C838.411 2.7435 839.801 2.6683 840.2 2.66849C842.848 2.66996 844.154 2.70577 846.234 2.7117C848.568 2.71825 851.921 2.68433 852.756 2.69046C853.268 2.69457 851.632 2.79453 860.688 2.79263C869.917 2.79066 879.028 2.78009 888.414 2.77542C885.284 3.0772 882.588 2.87066 878.756 2.85964C877.728 2.85668 878.38 2.9046 877.485 2.90249C874.957 2.89677 870.118 2.8497 868.026 2.86111C865.767 2.87342 866.539 2.98447 863.674 2.9435C863.529 2.94139 863.988 2.89552 863.314 2.88784C856.541 2.81196 854.324 2.89174 845.762 2.89406C840.089 2.89575 805.635 2.85023 804.453 2.88015C798.285 3.04078 834.589 3.04187 838.834 3.02919C840.32 3.02474 838.762 2.97409 840.117 2.96437C840.691 2.96049 845.852 3.05705 850.952 3.06508C857.12 3.0748 869.514 3.00893 875.392 3.01125C925.92 3.03133 975.746 2.97297 1026.23 2.9717C1027.3 2.9717 1028.72 3.02955 1032.23 3.02956C1097.68 3.0285 1165.51 2.98289 1231.8 3.01015C1246.25 3.01607 1260.58 3.07048 1275.17 3.02736C1276.98 3.0696 1278.79 3.11183 1280.6 3.15407C1275.97 3.12049 1267.49 3.21602 1266.72 3.21742C1266.44 3.21784 1264.68 3.17022 1261.85 3.17274C1257.87 3.17612 1256.13 3.21742 1255.8 3.21742C1254.79 3.21755 1255.45 3.17363 1254.49 3.17384C1247.28 3.17574 1241.7 3.16328 1235.09 3.16286C1227.61 3.16245 1223.83 3.24425 1218.38 3.15443C1217.77 3.18947 1217.15 3.2245 1216.54 3.25953C1212.47 3.10802 1188.26 3.1248 1178.45 3.13283C1175.36 3.13538 1175.9 3.19691 1174.86 3.19691C1174.2 3.19684 1174.46 3.11627 1166.36 3.13209C1162.29 3.14013 1161.22 3.19881 1159.17 3.19691C1158.06 3.19579 1158.24 3.13759 1156.65 3.13759C1147.42 3.13759 1139.89 3.15647 1130.85 3.16725C1128.31 3.17021 1128.29 3.21879 1127.72 3.21815C1125.62 3.21598 1121.98 3.13371 1116.66 3.13392C1107.91 3.13435 1090.46 3.13463 1083.3 3.17457C1082.25 3.18049 1081.38 3.23877 1080.6 3.23793C1079.43 3.23644 1078.97 3.17563 1078.76 3.17531C1074.85 3.17425 1077.2 3.23079 1074.58 3.21705C1073.16 3.20965 1071.69 3.1403 1068.4 3.13246C1064.06 3.1221 1064.91 3.20442 1063.1 3.19618C1062.91 3.19489 1062.85 3.13765 1061.07 3.13576C1054.31 3.12899 1044.5 3.11577 1038.1 3.11598C1036.27 3.11598 1034.9 3.15451 1032.34 3.15516C1027.17 3.15643 997.82 3.13188 995.412 3.15407C995.159 3.15639 997.769 3.24083 993.608 3.23829C992.4 3.20314 991.192 3.16798 989.984 3.13283C987.963 3.1891 985.943 3.24537 983.922 3.30165C983.995 3.10722 972.108 3.07719 972.227 3.27601C970.926 3.28407 969.625 3.29212 968.324 3.30018C965.616 3.16281 963.812 3.21352 958.577 3.13283C957.761 3.17494 956.945 3.21705 956.129 3.25916C955.924 3.23109 955.718 3.20301 955.513 3.17494C952.719 3.32709 948.137 3.17432 947.581 3.17348C945.441 3.1701 943.833 3.20877 942.829 3.20753C939.081 3.20352 930.966 3.15023 926.588 3.17494C926.382 3.17621 926.584 3.24125 925.339 3.24928C923.092 3.26378 922.873 3.16856 919.877 3.28041C919.272 3.25233 918.667 3.22425 918.061 3.19618C917.419 3.2107 916.777 3.22523 916.135 3.23976C912.346 3.23231 908.557 3.22486 904.767 3.21742C908.214 3.32754 904.248 3.38903 900.499 3.30238C899.23 3.27299 900.355 3.20596 899.932 3.19581C899.352 3.18208 882.345 3.2162 881.221 3.25953C880.416 3.23841 879.611 3.2173 878.806 3.19618C878.399 3.23841 877.992 3.28065 877.585 3.32288C877.141 3.30812 876.697 3.29334 876.253 3.27857C871.827 3.35296 860.339 3.18233 858.257 3.19581C857.144 3.203 858.145 3.38302 852.811 3.36463C852.626 3.3152 852.441 3.26576 852.256 3.21632C851.035 3.20924 849.814 3.20216 848.593 3.19508C846.301 3.19949 842.966 3.28517 842.859 3.34376C842.143 3.3086 841.427 3.27345 840.711 3.23829C838.788 3.35283 828.533 3.31224 824.408 3.23976C823.201 3.2743 821.995 3.30885 820.789 3.34339C819.168 3.3014 817.547 3.25941 815.926 3.21742C812.171 3.20477 816.138 3.27458 815.338 3.28041C813.645 3.29245 805.016 3.17453 805.585 3.32142C804.408 3.32178 803.231 3.32215 802.055 3.32252C801.449 3.28053 800.844 3.23854 800.239 3.19654C798.219 3.34132 794.724 3.29021 787.556 3.34303C786.954 3.3097 786.353 3.27638 785.752 3.24305C783.535 3.29041 781.318 3.33778 779.102 3.38514C778.647 3.32996 778.191 3.27479 777.736 3.21962C776.772 3.21168 775.808 3.20375 774.844 3.19581C772.886 3.31941 769.369 3.18585 767.578 3.23683C764.966 3.31123 766.986 3.39988 771.836 3.417C771.473 3.50701 757.027 3.46568 753.696 3.45911C753.916 3.44153 754.136 3.42396 754.356 3.40638C757.763 3.42029 761.169 3.43421 764.575 3.44812C767.429 3.22176 758.179 3.28247 753.934 3.25331C753.546 3.25051 751.346 3.16475 747.068 3.17274C745.411 3.17591 738.948 3.30126 737.715 3.30824C727.753 3.36548 735.078 3.18637 725.331 3.34339C727.363 3.22313 721.762 3.32306 715.933 3.29981C714.941 3.29584 706.527 3.19835 705.958 3.19581C702.415 3.18017 706.272 3.28647 701.146 3.2588C700.53 3.23085 699.914 3.20289 699.297 3.17494C698.104 3.17494 696.911 3.17494 695.717 3.17494C688.475 3.42406 686.79 3.2406 684.216 3.21705C683.176 3.20754 684.515 3.27254 681.818 3.2588C680.802 3.25369 679.676 3.19962 676.944 3.19581C668.395 3.184 665.493 3.41547 657.633 3.17457C656.426 3.20948 655.22 3.2444 654.014 3.27931C653.2 3.23744 652.385 3.19557 651.571 3.1537C645.344 3.27519 647.593 3.15076 645.343 3.15224C639.405 3.15604 627.251 3.17986 626.187 3.28004C621.061 3.04992 614.931 3.30952 612.91 3.30055C611.709 3.27259 610.508 3.24464 609.307 3.21669C607.895 3.24476 606.484 3.27284 605.072 3.30091C605.758 3.07493 598.447 3.29715 597.745 3.30055C596.935 3.30393 585.689 3.23705 581.503 3.23829C577.323 3.23956 570.038 3.30079 569.397 3.30091C568.659 3.30091 561.544 3.23949 555.98 3.24012C551.112 3.24079 522.274 3.32804 524.091 3.22731C525.977 3.19941 528.663 3.17523 530.985 3.16212C538.193 3.12197 580.5 3.07052 591.311 3.05446C612.995 3.02255 635.609 3.02847 657.389 3.00649C658.67 3.00522 658.865 2.94665 659.964 2.94533C661.633 2.94364 665.869 3.00226 667.513 3.001C673.657 2.99592 681.132 2.98636 684.421 2.98488C691.773 2.98192 696.816 2.94665 702.378 2.94094C704.12 2.93925 712.924 3.01186 718.958 2.98122C720.052 2.96474 721.146 2.94826 722.239 2.93178C719.131 2.91255 710.976 2.86279 707.191 2.85708C701.557 2.84885 698.619 2.89635 696.539 2.89553C694.797 2.8949 685.898 2.84079 681.846 2.8395C680.588 2.83908 680.33 2.9005 679.253 2.90029C673.412 2.89881 665.719 2.89717 660.652 2.83694C662.72 2.85659 649.806 2.89428 649.129 2.89406C647.968 2.89405 646.708 2.83657 644.339 2.83657C639.781 2.8366 640.359 2.95682 634.663 2.83657C633.253 2.8716 631.844 2.90664 630.434 2.94167C630.347 2.78151 612.532 2.99936 607.464 2.80471C607.331 2.78273 630.482 2.72036 632.393 2.71719C643.857 2.69796 660.823 2.73723 671.948 2.70913C675.297 2.70068 685.825 2.60332 686.619 2.60513C687.9 2.60788 686.743 2.66357 687.297 2.66556C698.624 2.70697 692.973 2.59504 694.479 2.56265ZM195.37 3.47046C198.811 3.46387 202.253 3.45728 205.695 3.45069C205.445 3.41553 205.195 3.38038 204.945 3.34522C203.369 3.35889 201.793 3.37257 200.216 3.38624C199.004 3.36524 197.792 3.34425 196.58 3.32325C196.177 3.37232 195.773 3.42139 195.37 3.47046ZM186.888 3.32325C183.904 3.30555 183.758 3.37968 183.069 3.38331C181.014 3.39429 179.236 3.36432 177.241 3.36536C179.539 3.54146 184.433 3.46076 186.888 3.32325ZM248.53 3.2599C247.857 3.26832 243.365 3.4579 238.256 3.2815C234.433 3.33753 230.61 3.39356 226.788 3.44959C233.282 3.36399 242.269 3.45297 245.45 3.44959C246.658 3.44831 246.888 3.39011 247.853 3.38917C253.417 3.38452 258.825 3.51637 259.393 3.32362C254.133 3.37963 249.389 3.24954 248.53 3.2599ZM214.959 3.32838C214.069 3.36866 213.179 3.40894 212.289 3.44922C215.505 3.44922 218.721 3.44922 221.936 3.44922C221.067 3.40845 220.197 3.36768 219.328 3.32691C217.871 3.3274 216.415 3.32789 214.959 3.32838ZM462.354 3.19508C460.371 3.19557 458.387 3.19606 456.404 3.19654C456.513 3.16719 458.782 3.1673 459.618 3.14747C459.614 3.14747 459.611 3.14747 459.607 3.14747C460.538 3.12507 460.139 3.08727 461.833 3.07057C462.006 3.11208 462.181 3.15358 462.354 3.19508ZM1283 3.02809C1284.6 3.02708 1292.5 3.0265 1300 3.03802L1299.71 2.91669C1305.44 8.67015 1310.83 14.0979 1309.83 13.1755C1308.91 12.3246 1302.17 5.53217 1299.63 2.98931L1300 3.14071C1299.82 3.14055 1299.65 3.14048 1299.5 3.14052C1295.32 3.1416 1284.05 3.25739 1283 3.02809ZM1329.92 21.0072C1330.23 21.0697 1323.78 21.1014 1318 21.1132L1317.8 21.1141L1317.65 20.9699C1314.76 18.0864 1312.11 15.4351 1311.57 14.8802C1311.86 15.1511 1312.32 15.5613 1312.7 15.9312C1313.48 16.6893 1315.46 18.6626 1317.71 20.9114L1317.83 21.0312L1318 21.0305C1322.39 21.0253 1327.52 21.0241 1329.92 21.0072ZM573.432 2.88711C571.885 2.94106 570.339 2.99501 568.792 3.04897C569.199 2.97878 569.606 2.90859 570.013 2.8384C571.153 2.85464 572.292 2.87087 573.432 2.88711ZM723.482 2.96437C749.251 2.96096 775.02 2.95754 800.789 2.95412C798.522 2.92495 796.256 2.89577 793.989 2.8666C771.785 2.87696 748.105 2.90649 726.663 2.86147C725.603 2.89577 724.543 2.93007 723.482 2.96437ZM255.791 2.94387C262.394 2.94282 267.908 2.99437 275.091 2.91237C268.246 2.8329 264.857 2.95586 258.206 2.83877C258.202 2.83877 258.198 2.83877 258.194 2.83877C257.393 2.8738 256.592 2.90883 255.791 2.94387ZM403.199 2.92263C401.191 2.87356 399.184 2.82449 397.176 2.77542C399.591 2.77542 402.006 2.77542 404.42 2.77542C404.013 2.82449 403.606 2.87356 403.199 2.92263ZM948.258 2.69156C955.164 2.79866 972.831 2.60481 978.444 2.73367C978.806 2.74212 975.47 2.7965 980.864 2.90175C976.789 2.8802 973.912 2.85821 973.609 2.77542C972.399 2.80349 971.189 2.83157 969.979 2.85964C967.971 2.8384 965.963 2.81716 963.956 2.79592C964.174 2.87835 964.015 2.87396 960.931 2.81753C959.524 2.8384 958.118 2.85928 956.712 2.88015C956.116 2.84524 955.52 2.81033 954.925 2.77542C953.707 2.82424 952.49 2.87307 951.272 2.9219C946.527 2.86893 949.417 2.77432 948.258 2.69156ZM924.084 2.7117C925.207 2.69355 957.226 2.75275 942.674 2.91714C938.892 2.91189 935.11 2.90664 931.328 2.90139C934.46 2.62916 924.154 2.87261 923.307 2.87832C919.257 2.90491 914.095 2.84017 911.156 2.84353C908.629 2.84649 907.128 2.89532 905.35 2.89406C899.295 2.88984 889.731 2.88806 888.414 2.77542C893.121 2.77307 897.902 2.77186 902.797 2.77468C907.973 2.77764 912.523 2.67133 922.247 2.81716C924.651 2.80149 923.794 2.71634 924.084 2.7117ZM391.131 2.78677C391.373 2.89992 379.153 2.87286 379.075 2.82815C379.051 2.80194 383.031 2.80256 383.599 2.79263C383.603 2.79263 383.606 2.79263 383.61 2.79263C383.847 2.78829 382.645 2.74498 384.515 2.73294C386.72 2.75088 388.926 2.76882 391.131 2.78677ZM1235.25 2.77505C1236.9 2.71156 1274.63 2.73439 1275.75 2.7648C1276.05 2.77324 1275.63 2.80109 1275.75 2.81716C1266.94 2.72758 1254.43 2.83361 1246.07 2.8406C1243.74 2.84249 1244.44 2.79751 1244.31 2.79666C1244.3 2.79666 1244.3 2.79666 1244.29 2.79666C1242.97 2.79655 1237 2.90644 1235.25 2.77505ZM990.528 2.7853C988.924 2.803 987.319 2.8207 985.715 2.8384C985.308 2.80337 984.901 2.76834 984.494 2.7333C984.498 2.7333 984.501 2.7333 984.505 2.7333C986.513 2.75064 988.52 2.76797 990.528 2.7853ZM1046.11 2.66995C1045.72 2.69461 1045.33 2.71926 1044.94 2.74392C1040.9 2.74734 1036.86 2.75076 1032.82 2.75418C1033.23 2.76809 1033.63 2.78201 1034.04 2.79592C1027.93 2.83312 1025.4 2.74647 1022.15 2.75894C1022.15 2.75894 1022.16 2.75894 1022.16 2.75894C1021.81 2.76039 1021.39 2.81176 1020.09 2.8135C1017.1 2.81751 1008.54 2.83663 1007.51 2.78494C1005.32 2.67464 1022.54 2.72699 1025.75 2.72195C1027.2 2.71963 1028.95 2.67467 1029.83 2.67361C1030.8 2.67263 1032.12 2.73334 1034.47 2.73147C1035.16 2.73084 1042.81 2.65941 1046.11 2.66995ZM1117.4 2.74356C1116.16 2.79914 1113.56 2.74545 1112.6 2.75454C1112.37 2.75669 1114.15 2.80322 1112 2.81716C1111.39 2.78543 1110.78 2.75369 1110.17 2.72195C1112.58 2.72915 1114.99 2.73635 1117.4 2.74356ZM370.599 2.7333C370.95 2.72137 377.511 2.72574 377.826 2.7333C381.757 2.83475 368.168 2.82376 370.599 2.7333ZM205.034 2.61722C208.052 2.46976 172.246 2.61473 168.776 2.60696C168.949 2.69964 177.467 2.60646 173.006 2.73367C177.263 2.66371 189.031 2.70086 191.801 2.68057C193.482 2.66831 193.906 2.58826 194.16 2.58572C195.156 2.57671 203.97 2.66919 205.034 2.61722ZM139.46 3.22917C139.65 3.03727 139.84 2.84537 140.03 2.65347L140 2.66577C143.133 2.64958 146.265 2.6334 149.398 2.61722C146.265 2.60903 143.133 2.60084 140 2.59265L139.987 2.59259L139.978 2.60176C139.352 3.22411 138.727 3.84645 138.101 4.4688C138.554 4.05559 139.007 3.64238 139.46 3.22917ZM136.404 6.22559C136.417 6.08511 128.299 14.3005 126.138 16.4323C128.666 14.1204 132.601 9.98162 136.404 6.22559ZM327.08 2.5015C332.402 2.44211 334.688 2.71592 328.218 2.59671C328.021 2.59277 326.858 2.50465 327.08 2.5015ZM949.901 2.30631C950.808 2.30462 962.093 2.21585 962.746 2.25981C964.811 2.40005 957.406 2.34381 954.925 2.39676C950.922 2.48258 956.809 2.55328 947.037 2.5015C947.437 2.52957 947.836 2.55765 948.236 2.58572C942.517 2.59502 944.389 2.40054 943.362 2.37553C943.048 2.36792 939.473 2.38428 938.827 2.37186C930.768 2.21518 949.06 2.30762 949.901 2.30631ZM458.807 2.48063C469.401 2.3982 464.844 2.51914 475.715 2.51175C476.078 2.57347 460.186 2.53473 458.807 2.48063ZM846.744 2.41727C857.701 2.44157 866.711 2.36085 876.93 2.46927C876.265 2.63625 843.902 2.46039 846.744 2.41727ZM1354.08 20.2481C1342.47 20.3291 1330.37 20.3808 1318 20.413L1318.15 20.4747C1312.21 14.5646 1306.18 8.55844 1300.12 2.50425L1300.07 2.45503L1300 2.45474C1274.77 2.47547 1249 2.44543 1224.35 2.44291C1219.4 2.44248 1218.93 2.50868 1217.14 2.5015C1215.97 2.49685 1216.17 2.44352 1214.62 2.44327C1158.29 2.43461 1104.37 2.36485 1050.42 2.39676C1047.02 2.39888 1030.48 2.51339 1026.95 2.34074C1024.28 2.20975 1036.16 2.31188 1038.14 2.31071C1039.62 2.30986 1039.69 2.24831 1040.68 2.24809C1041.73 2.24788 1040.86 2.28993 1042.08 2.29057C1047.26 2.29352 1052.91 2.27709 1057.59 2.28068C1103.48 2.31513 1148.13 2.30527 1193.79 2.29936C1199.31 2.29872 1198.18 2.2494 1198.46 2.24919C1198.46 2.24931 1198.46 2.24943 1198.47 2.24955C1228.1 2.2449 1261.94 2.35554 1293.32 2.31327C1295.55 2.30985 1297.77 2.30643 1300 2.30301L1300.13 2.30357L1300.23 2.39697C1306.24 8.38775 1312.25 14.3785 1318.25 20.3693L1318 20.2639C1329.39 20.2464 1340.78 20.229 1352.16 20.2115C1352.8 20.2237 1353.44 20.2359 1354.08 20.2481ZM926.504 2.48026C929.262 2.29427 929.878 2.4818 939.771 2.40592C940.576 2.43766 941.381 2.46939 942.185 2.50113C936.953 2.49417 931.72 2.48722 926.488 2.48026C926.493 2.48026 926.499 2.48026 926.504 2.48026ZM991.843 2.41251C993.515 2.16132 1015.64 2.33884 1025.6 2.29093C1027.42 2.41709 1012.94 2.36041 1009.53 2.3737C1007.82 2.38025 998.691 2.50999 991.749 2.43815C991.78 2.4296 991.812 2.42106 991.843 2.41251ZM242.497 2.24809C244.106 2.25541 245.716 2.26274 247.326 2.27006C243.298 2.29789 239.27 2.32572 235.242 2.35355C241.668 2.33561 248.094 2.31767 254.52 2.29972C253.323 2.2476 252.126 2.19548 250.928 2.14335C248.118 2.17827 245.307 2.21318 242.497 2.24809ZM263.346 2.27482C252.093 2.25519 263.84 2.39473 266.648 2.33268C268.329 2.29548 264.495 2.27693 263.346 2.27482ZM292.615 2.1851C287.367 2.09359 276.761 2.08729 280.531 2.27006C286.203 2.18446 289.859 2.25559 298.083 2.20634C296.882 2.17131 295.681 2.13628 294.48 2.10124C294.475 2.10124 294.469 2.10124 294.464 2.10124C293.848 2.1292 293.231 2.15715 292.615 2.1851ZM258.206 2.16423C250.835 2.26923 272.173 2.23333 265.466 2.16423C265.152 2.16106 258.496 2.16021 258.206 2.16423ZM1310.59 12.4163C1311.18 13.0864 1307.17 9.07714 1305.83 7.7466C1304.12 6.041 1302.27 4.18991 1300.35 2.27324L1300.21 2.12889L1300 2.12804C1293.55 2.12712 1286.57 2.11595 1280.59 2.12175C1281.23 2.1021 1281.87 2.08244 1282.51 2.06279C1288.34 2.06212 1294.17 2.06145 1300 2.06078L1300.24 2.06175L1300.4 2.22568C1303.8 5.62255 1307.19 9.01942 1310.59 12.4163ZM1253.99 2.12212C1248.15 2.12212 1242.31 2.12212 1236.47 2.12212C1235.92 2.12212 1233.37 2.07087 1235.27 2.0584C1241.51 2.07964 1247.75 2.10088 1253.99 2.12212ZM889.63 2.12212C894.109 2.08867 881.212 1.91724 881.792 2.10088C884.405 2.10796 887.018 2.11504 889.63 2.12212ZM847.954 2.04888C850.763 2.06633 853.572 2.08379 856.381 2.10124C856.384 2.08013 856.388 2.05901 856.392 2.03789C853.579 2.04155 850.767 2.04521 847.954 2.04888ZM1329.92 20.017C1327.48 20.0764 1322.24 20.0795 1318 20.0795L1318.39 20.2389C1317.74 19.5897 1317.12 18.973 1316.56 18.4165C1317.05 18.8858 1317.68 19.5057 1318.41 20.2182L1318 20.0503C1321.55 20.0281 1326.67 20.0412 1329.92 20.017ZM956.734 2.04814C956.372 2.09739 974.187 2.085 968.019 1.99834C964.257 2.01494 960.496 2.03154 956.734 2.04814ZM992.92 1.97527C989.099 1.9645 986.139 1.98141 986.925 2.05876C988.951 2.05547 990.977 2.05217 993.003 2.04888C992.976 2.02434 992.948 1.99981 992.92 1.97527ZM312.593 2.03789C319.032 2.04485 325.471 2.05181 331.91 2.05876C331.671 2.03765 331.432 2.01653 331.194 1.99541C324.986 1.98857 318.778 1.98174 312.571 1.9749C312.578 1.9959 312.585 2.0169 312.593 2.03789ZM1333.56 19.8273C1337.99 19.8411 1342.41 19.8549 1346.83 19.8687C1342.4 19.8829 1337.98 19.897 1333.55 19.9112C1333.55 19.8831 1333.55 19.855 1333.55 19.827C1333.56 19.8271 1333.56 19.8272 1333.56 19.8273ZM224.384 1.76434C244.055 1.66586 218.956 1.56175 213.766 1.70648C213.76 1.70636 213.754 1.70624 213.749 1.70611C213.295 1.7189 214.255 1.78076 213.499 1.80572C215.501 1.77777 217.503 1.74981 219.505 1.72186C221.331 1.75665 223.158 1.79144 224.984 1.82623C225.585 1.81256 226.186 1.79888 226.788 1.78521C225.987 1.77825 225.186 1.7713 224.384 1.76434ZM144.996 1.70941C142.822 1.7108 141.184 1.71432 140 1.71921L139.629 1.71768L139.36 1.98415C136.651 4.71587 137.339 4.07111 139.406 2.03002L139.656 1.78266L140 1.78407C143.537 1.8068 149.982 1.81224 154.238 1.75335C154.175 1.72508 146.639 1.70835 144.996 1.70941ZM191.74 1.74273C194.551 1.75677 197.361 1.77081 200.172 1.78485C200.531 1.76715 200.889 1.74945 201.248 1.73175C199.091 1.71417 196.933 1.69659 194.776 1.67901C193.764 1.70025 192.752 1.72149 191.74 1.74273ZM284.172 1.46955C288.695 1.4501 294.465 1.64691 279.943 1.59515C279.95 1.57404 279.957 1.55292 279.965 1.5318C280.544 1.53518 282.242 1.55498 282.335 1.55341C282.601 1.54812 282.287 1.47761 284.172 1.46955ZM119.632 19.6532C119.124 19.6451 118.847 19.4224 113.565 19.6528C111.968 19.6387 110.371 19.6247 108.774 19.6107C108.362 19.6597 107.949 19.7088 107.536 19.7579C113.716 19.7198 114.372 19.8191 114.819 19.8212C116.873 19.8305 115.353 19.7795 116.679 19.7788C117.952 19.7781 119.828 19.7825 121.5 19.7807L120.55 20.1741C122.544 18.1762 124.115 16.5761 122.484 18.0775C121.983 18.539 121.163 19.3602 120.454 20.0773L121.5 19.6438C120.627 19.6486 119.867 19.6569 119.632 19.6532ZM127.594 12.7706C127.077 13.3137 128.831 11.6524 128.444 12.0657C128.104 12.4276 122.885 17.7414 124.388 16.3938C125.249 15.5257 126.111 14.6576 126.972 13.7895C127.244 13.4752 127.516 13.1608 127.788 12.8464C128.645 12.0287 129.502 11.2111 130.359 10.3934C131.717 8.92973 134.652 5.85881 131.043 9.38193C132.358 8.07546 133.674 6.76899 134.989 5.46251C135.694 4.80869 136.398 4.15486 137.102 3.50104C136.708 3.81849 136.313 4.13595 135.919 4.45341C133.144 7.22581 130.369 9.9982 127.594 12.7706ZM74.2425 19.5473C74.4682 19.5754 74.6939 19.6035 74.9197 19.6315C68.1108 19.5794 57.5074 19.5595 63.5294 19.7355C72.753 19.7502 81.9766 19.7648 91.2003 19.7795C91.8127 19.7584 92.4252 19.7373 93.0376 19.7161C86.1565 19.7975 88.2831 19.4513 82.2967 19.5506C81.2875 19.5675 84.2162 19.6885 77.8727 19.611C78.0984 19.5828 78.3242 19.5546 78.5499 19.5264C77.1141 19.5334 75.6783 19.5404 74.2425 19.5473ZM15.7089 19.5894C27.3674 19.5489 14.5255 19.4464 12.3728 19.5316C12.3765 19.5316 12.3802 19.5316 12.3839 19.5316C6.48425 19.7647 19.1702 19.652 19.9442 19.6535C20.9729 19.6556 23.3687 19.8224 28.9643 19.5792C24.5458 19.5826 20.1274 19.586 15.7089 19.5894ZM53.771 19.5477C52.7914 19.5422 53.3337 19.5846 52.9106 19.5839C52.9069 19.5839 52.9032 19.5839 52.8995 19.5839C46.659 19.5749 31.8161 19.5369 30.2077 19.6737C34.827 19.6851 55.4965 19.7146 56.7462 19.6217C55.7545 19.597 54.7627 19.5723 53.771 19.5477ZM97.6837 19.6495C101.515 19.561 92.8899 19.5492 90.6285 19.5902C90.2017 19.599 93.7146 19.7412 97.6837 19.6495ZM383.899 0.92098C392.328 0.974243 381.253 1.0274 385.087 1.11067C383.477 1.10359 381.867 1.09651 380.257 1.08943C381.471 1.03328 382.685 0.977131 383.899 0.92098ZM768.206 0.752895C770.17 0.743055 769.24 0.793892 769.41 0.794641C770.701 0.793224 771.918 0.751812 772.413 0.756191C781.571 0.839794 775.481 0.882488 775.388 0.892418C775.195 0.942711 777.602 1.00156 774.267 1.05904C772.243 1.04122 770.219 1.02339 768.194 1.00557C767.19 1.03353 766.185 1.06148 765.18 1.08943C761.159 1.02946 766.421 1.01301 767.018 0.933432C767.247 0.902151 763.465 0.864702 768.206 0.752895ZM399.003 0.752529C400.369 0.840876 403.719 0.952324 400.429 1.04109C400.426 1.04109 400.422 1.04109 400.418 1.04109C399.81 1.05733 397.332 1.06627 396.571 1.08907C391.145 0.971367 393.224 0.849733 399.003 0.752529ZM731.897 0.594696C728.634 0.615326 725.37 0.635956 722.106 0.656584C722.161 0.709562 722.217 0.762539 722.272 0.815516C724.019 0.801233 725.766 0.786951 727.512 0.772671C728.125 0.796839 728.737 0.821009 729.35 0.845177C727.181 0.9056 725.013 0.966022 722.844 1.02645C720.231 1.00533 717.619 0.984211 715.006 0.963093C716.207 0.935141 717.408 0.907187 718.609 0.879234C712.223 0.848375 713.614 0.9772 708.329 1.02645C706.519 0.977375 704.71 0.928305 702.9 0.879234C700.28 0.928549 697.66 0.977863 695.04 1.02718C690.638 1.00414 690.251 0.966581 693.214 0.91036C691.025 0.846113 688.628 0.947165 685.992 0.92098C685.774 0.918869 686.184 0.858358 685.992 0.857628C672.362 0.816835 673.087 0.975739 670.91 0.982502C669.374 0.987144 663.241 0.87991 663.145 0.843346C663.027 0.794075 675.782 0.599777 655.807 0.594696C666.134 0.460302 677.875 0.597107 670.283 0.794275C673.552 0.774433 687.965 0.823629 688.884 0.817713C690.224 0.808783 689.754 0.733976 691.432 0.732021C692.424 0.730965 695.051 0.901958 702.9 0.752529C703.903 0.780603 704.906 0.80868 705.908 0.836754C706.848 0.813684 707.788 0.790613 708.728 0.767544C706.793 0.68527 704.858 0.602997 702.922 0.520725C710.589 0.610119 716.949 0.442183 721.617 0.583712C725.653 0.567238 727.614 0.550955 725.88 0.478611C727.092 0.478611 728.304 0.478611 729.516 0.478611C730.31 0.517307 731.104 0.556002 731.897 0.594696ZM423.77 0.878868C427.782 0.796728 429.224 0.973936 428.6 0.983967C425.082 1.03911 421.683 0.9216 423.77 0.878868ZM760.923 0.847008C756.497 0.892662 752.071 0.938314 747.645 0.983967C747.645 0.927938 747.645 0.87191 747.645 0.815882C752.071 0.826258 756.497 0.836632 760.923 0.847008ZM382.666 0.795008C382.259 0.836998 381.852 0.87899 381.445 0.92098C376.597 0.767601 371.784 0.987667 369.389 0.942221C368.869 0.932291 369.918 0.858147 370.91 0.842247C371.527 0.832314 381.808 0.780848 382.666 0.795008ZM180.855 0.815149C182.66 0.843346 184.467 0.871544 186.272 0.89974C186.172 0.852501 186.072 0.805262 185.973 0.758022C185.081 0.749233 184.189 0.740444 183.297 0.731655C182.483 0.759487 181.669 0.787317 180.855 0.815149ZM201.404 0.890221C204.625 0.886436 207.847 0.882652 211.068 0.878868C198.781 0.835541 208.865 0.814396 201.404 0.752895C201.404 0.79867 201.404 0.844444 201.404 0.890221ZM234.009 0.794641C233.614 0.766445 233.218 0.738247 232.822 0.710051C229.6 0.710051 226.379 0.710051 223.158 0.710051C225.195 0.612152 227.232 0.514256 229.269 0.416357C230.45 0.416113 231.63 0.415869 232.81 0.415625C233.21 0.541964 233.61 0.668303 234.009 0.794641ZM855.22 0.54233C857.168 0.54064 863.942 0.62619 863.652 0.657682C860.838 0.696379 858.024 0.735073 855.209 0.773767C855.196 0.717617 855.183 0.661467 855.171 0.605316C854.773 0.63327 854.375 0.661222 853.977 0.689177C852.377 0.66818 850.776 0.647186 849.176 0.62619C848.369 0.675261 847.562 0.724331 846.755 0.773401C845.945 0.717373 845.135 0.661345 844.324 0.605316C852.052 0.505983 851.786 0.605267 853.394 0.604218C854.21 0.603743 854.726 0.568977 855.015 0.551485C855.083 0.548433 855.152 0.545382 855.22 0.54233ZM757.864 0.489597C767.092 0.475649 772.365 0.623476 779.041 0.499851C774.759 0.763191 747.113 0.491184 737.365 0.710781C736.353 0.668547 735.341 0.626312 734.329 0.584078C739.636 0.621687 743.314 0.5347 745.902 0.52219C747.958 0.512255 747.743 0.556513 747.901 0.55588C747.908 0.55588 747.915 0.55588 747.923 0.55588C752.736 0.537704 754.225 0.495098 757.864 0.489597ZM375.811 0.58847C378.291 0.521742 382.629 0.528416 382.678 0.625824C380.263 0.65402 377.848 0.682219 375.434 0.710417C375.93 0.685476 375.388 0.599884 375.811 0.58847ZM237.756 0.522556C239.691 0.490852 244.263 0.518633 242.291 0.602753C241.937 0.617683 237.384 0.558554 240.054 0.710417C235.618 0.708069 236.656 0.540777 237.756 0.522556ZM600.187 0.689177C598.559 0.686369 596.931 0.683561 595.302 0.680754C594.923 0.641449 594.544 0.602142 594.164 0.562838C596.172 0.60495 598.18 0.647064 600.187 0.689177ZM354.885 0.521091C352.72 0.713449 349.022 0.526255 344.96 0.684416C343.459 0.685637 341.958 0.686857 340.458 0.688078C340.454 0.688078 340.45 0.688078 340.447 0.688078C340.406 0.63559 340.365 0.583101 340.325 0.530611C345.178 0.527437 350.031 0.524263 354.885 0.521091ZM701.712 0.59433C700.709 0.618744 699.706 0.643158 698.703 0.66757C696.918 0.63913 695.132 0.610687 693.347 0.582247C694.313 0.561861 695.279 0.541475 696.244 0.521091C698.067 0.545504 699.889 0.569918 701.712 0.59433ZM328.507 0.504612C333.756 0.480516 335.73 0.647739 329.018 0.648163C326.188 0.648163 323.008 0.529789 328.507 0.504612ZM955.491 0.604584C953.692 0.618866 951.894 0.633148 950.095 0.64743C949.483 0.612274 948.871 0.57712 948.258 0.541964C950.669 0.562838 953.08 0.583712 955.491 0.604584ZM212.866 0.541597C213.077 0.576754 213.288 0.611908 213.499 0.647064C215.103 0.639984 216.708 0.632904 218.312 0.625824C217.908 0.590912 217.505 0.556002 217.102 0.521091C215.69 0.527925 214.278 0.534761 212.866 0.541597ZM943.39 0.62619C941.952 0.632904 940.515 0.639618 939.077 0.646332C938.111 0.629242 937.145 0.612152 936.179 0.595062C937.525 0.578096 938.87 0.561129 940.215 0.544161C941.273 0.571505 942.332 0.598846 943.39 0.62619ZM278.755 0.520725C280.774 0.478455 288.841 0.610155 281.575 0.643768C276.944 0.665108 278.452 0.527155 278.755 0.520725ZM267.87 0.478611C275.561 0.398085 269.794 0.806795 260.615 0.541964C269.855 0.578274 267.418 0.483475 267.87 0.478611ZM200.233 0.267681C200.039 0.267891 199.88 0.326658 198.334 0.328836C192.771 0.336445 185.428 0.359665 181.449 0.363258C172.435 0.371424 145.9 0.277569 140 0.409L139.092 0.405254L138.434 1.05769C138.184 1.31898 137.99 1.5261 137.857 1.67291C137.377 2.20272 138.614 1.11699 138.413 1.32615C137.821 1.93905 134.319 5.36786 135.016 4.78248C136.206 3.59184 137.396 2.4012 138.587 1.21056L139.18 0.621803L140 0.625183C143.125 0.624786 146.251 0.62439 149.376 0.623993C148.195 0.568575 147.015 0.513157 145.834 0.457739C157.816 0.487322 153.85 0.483908 157.297 0.604584C159.325 0.557833 161.353 0.511082 163.381 0.464329C167.795 0.511326 172.21 0.558321 176.625 0.605316C175.624 0.570284 174.623 0.53525 173.622 0.500217C180.273 0.435335 178.425 0.477882 182.065 0.562838C182.072 0.527803 182.079 0.492771 182.087 0.457739C188.509 0.543127 189.76 0.438133 191.163 0.436865C194.04 0.434801 197.709 0.849304 208.687 0.436865C213.315 0.635227 213.21 0.231684 215.93 0.436865C223.765 0.213497 208.865 0.29434 201.815 0.301737C201.811 0.301737 201.807 0.301737 201.804 0.301737C201.272 0.30237 202.116 0.264757 200.233 0.267681ZM240.476 0.473118C235.733 0.291035 254.47 0.273989 248.27 0.536837C247.346 0.545382 246.423 0.553926 245.5 0.562471C243.822 0.532686 242.143 0.502903 240.465 0.473118C240.469 0.473118 240.472 0.473118 240.476 0.473118ZM416.527 0.352272C433.881 0.427094 424.014 0.531837 418.136 0.429541C416.964 0.409252 416.321 0.381435 416.527 0.352272ZM771.048 0.349709C771.301 0.371559 771.554 0.39341 771.808 0.415258C765.988 0.39481 754.734 0.479094 754.889 0.331766C760.275 0.337748 765.661 0.343727 771.048 0.349709ZM725.009 0.253399C726.259 0.244513 731.365 0.223537 730.748 0.278666C728.536 0.317728 726.323 0.356789 724.11 0.395851C723.079 0.371437 722.048 0.347023 721.018 0.322611C722.457 0.314308 724.67 0.255722 725.009 0.253399Z" fill="url(#paint0_radial_81_281)"/>
<defs>
<radialGradient id="paint0_radial_81_281" cx="0" cy="0" r="1" gradientUnits="userSpaceOnUse" gradientTransform="translate(720 0.221257) rotate(-90) scale(644.497 610.18)">
<stop stop-color="#C9684D"/>
<stop offset="1" stop-color="#E82E5A"/>
</radialGradient>
</defs>
</svg>
