<svg width="1051" height="1024" viewBox="0 0 1051 1024" fill="none" xmlns="http://www.w3.org/2000/svg">
<g opacity="0.05" filter="url(#filter0_d_41_220)">
<path d="M590.762 428.038C585.892 428.038 581.221 429.974 577.777 433.418L532.178 479.016C526.028 477.753 519.621 478.246 513.703 480.475C506.713 483.108 500.81 488.01 496.936 494.396C493.063 500.782 491.444 508.283 492.339 515.698C493.233 523.113 496.59 530.013 501.871 535.295C507.152 540.576 514.052 543.933 521.467 544.828C528.883 545.723 536.384 544.104 542.77 540.23C549.156 536.357 554.057 530.452 556.69 523.463C558.92 517.543 559.413 511.136 558.149 504.985L603.75 459.388C607.194 455.944 609.129 451.273 609.129 446.402C609.128 441.532 607.193 436.861 603.749 433.417C600.304 429.973 595.633 428.038 590.762 428.038ZM329.919 410.536C313.707 441.801 305.27 476.513 305.323 511.731L305.332 517.199H387.58L387.572 511.716C387.542 490.73 392.324 470.018 401.55 451.17L407.274 439.476L397.24 442.794L337.518 408.314L332.556 405.45L329.919 410.536ZM713.367 408.311L651.514 444.022L647.086 446.579L649.334 451.173C658.561 470.02 663.343 490.731 663.315 511.716L663.308 517.199H745.557L745.564 511.731C745.614 476.512 737.177 441.799 720.966 410.533L718.329 405.447L713.367 408.311ZM406.715 326.357C379.975 343.525 357.247 366.252 340.077 392.991L336.975 397.822L341.947 400.692L403.792 436.398L408.213 438.95L411.068 434.719C421.015 419.982 433.705 407.296 448.445 397.353L452.677 394.498L450.125 390.076L414.417 328.227L411.547 323.257L406.715 326.357ZM636.498 328.222L600.783 390.081L598.23 394.502L602.462 397.357C617.195 407.301 629.878 419.985 639.822 434.718L642.677 438.949L647.098 436.396L708.955 400.684L713.925 397.814L710.824 392.984C693.657 366.247 670.933 343.522 644.198 326.353L639.368 323.251L636.498 328.222ZM515.275 291.844C483.528 293.261 452.47 301.576 424.26 316.208L419.175 318.844L422.04 323.805L457.747 385.655L460.303 390.085L464.897 387.836C480.849 380.024 498.168 375.388 515.889 374.187L520.995 373.842V291.589L515.275 291.844ZM529.892 373.833L534.999 374.178C552.715 375.378 570.03 380.011 585.979 387.819L590.571 390.068L593.129 385.639L628.841 323.786L631.707 318.825L626.62 316.187C598.411 301.561 567.356 293.251 535.613 291.833L529.892 291.577V373.833ZM479.786 762.343L475.381 761.464C442.829 754.969 411.871 742.136 384.269 723.698L380.534 721.203L377.356 724.38L344.928 756.806L280.36 692.238L315.964 656.635L313.467 652.898C295.029 625.296 282.197 594.338 275.703 561.786L274.824 557.382H224.5V466.065H274.825L275.704 461.661C282.198 429.109 295.03 398.152 313.468 370.551L315.964 366.814L312.788 363.636L280.359 331.208L344.928 266.638L377.357 299.067L380.535 302.244L384.271 299.748C411.872 281.31 442.83 268.478 475.381 261.983L479.786 261.104V210.779H571.102V261.109L575.506 261.988C608.058 268.483 639.014 281.314 666.615 299.753L670.352 302.249L673.529 299.071L705.959 266.639L770.527 331.209L738.097 363.639L734.921 366.816L737.417 370.552C755.855 398.153 768.687 429.11 775.181 461.661L776.06 466.065H826.388V557.382H776.059L775.18 561.785C768.685 594.337 755.854 625.295 737.416 652.896L734.92 656.633L738.096 659.809L770.526 692.238L705.956 756.806L673.53 724.38L670.353 721.203L666.617 723.698C639.015 742.136 608.057 754.969 575.505 761.464L571.102 762.343V812.668H479.786V762.343ZM612.231 624.206C612.221 620.787 610.859 617.51 608.441 615.093C606.023 612.675 602.747 611.312 599.328 611.302H451.561C448.142 611.312 444.864 612.674 442.446 615.093C440.028 617.511 438.666 620.787 438.657 624.207V655.375C438.666 658.794 440.029 662.071 442.447 664.489C444.865 666.907 448.141 668.268 451.56 668.278L451.568 668.279H599.32L599.329 668.278C602.747 668.268 606.024 666.905 608.441 664.488C610.858 662.071 612.221 658.794 612.231 655.376V624.206Z" stroke="#07596E" stroke-width="10.9512"/>
<g filter="url(#filter1_f_41_220)">
<path d="M590.762 430.776C586.618 430.776 582.643 432.423 579.713 435.353L533.043 482.024C526.972 480.474 520.556 480.82 514.668 483.038C508.252 485.455 502.833 489.954 499.277 495.816C495.721 501.678 494.235 508.563 495.056 515.37C495.878 522.177 498.958 528.511 503.806 533.359C508.654 538.207 514.989 541.288 521.796 542.109C528.602 542.93 535.488 541.445 541.35 537.889C547.212 534.334 551.712 528.914 554.129 522.498C556.347 516.609 556.691 510.194 555.14 504.123L601.813 457.453H601.814C604.745 454.522 606.39 450.547 606.39 446.402C606.39 442.258 604.744 438.283 601.813 435.352C598.882 432.422 594.907 430.776 590.762 430.776ZM332.349 411.796C316.34 442.67 308.009 476.949 308.061 511.727L308.065 514.461H384.839L384.835 511.719C384.804 490.316 389.681 469.19 399.091 449.966L401.953 444.119L396.934 445.778L336.149 410.685L333.669 409.253L332.349 411.796ZM714.736 410.682L652.882 446.393L650.669 447.672L651.793 449.969C661.204 469.192 666.082 490.316 666.053 511.719L666.049 514.461H742.823L742.827 511.727C742.876 476.948 734.544 442.67 718.536 411.794L717.217 409.25L714.736 410.682ZM408.195 328.662C381.786 345.618 359.338 368.063 342.38 394.47L340.83 396.885L343.316 398.321L405.161 434.027L407.371 435.302L408.798 433.187C418.942 418.159 431.883 405.223 446.914 395.084L449.03 393.656L447.754 391.445L412.046 329.596L410.61 327.111L408.195 328.662ZM638.869 329.592L603.154 391.45L601.878 393.66L603.993 395.088C619.017 405.228 631.951 418.162 642.091 433.186L643.519 435.302L645.729 434.025L707.586 398.313L710.071 396.879L708.52 394.464C691.566 368.058 669.123 345.613 642.718 328.657L640.303 327.105L638.869 329.592ZM515.397 294.579C484.047 295.979 453.378 304.188 425.521 318.637L422.978 319.957L424.411 322.437L460.118 384.287L461.396 386.501L463.693 385.377C479.964 377.409 497.629 372.681 515.705 371.456L518.257 371.283V294.451L515.397 294.579ZM532.63 371.274L535.183 371.447C553.254 372.671 570.915 377.396 587.182 385.36L589.479 386.485L590.757 384.27L626.47 322.417L627.903 319.936L625.36 318.618C597.504 304.174 566.838 295.967 535.491 294.567L532.63 294.44V371.274ZM477.047 764.588L474.845 764.148C441.941 757.583 410.649 744.613 382.749 725.975L380.88 724.727L379.292 726.315L344.928 760.678L276.488 692.237L310.85 657.876L312.439 656.288L311.191 654.42C292.553 626.519 279.582 595.226 273.017 562.321L272.578 560.119H221.762V463.327H272.58L273.019 461.125C279.584 428.221 292.554 396.929 311.192 369.029L312.44 367.162L310.851 365.573L276.488 331.208L344.928 262.767L379.294 297.131L380.882 298.719L382.75 297.471C410.649 278.834 441.942 265.864 474.845 259.299L477.047 258.859V208.042H573.839V258.864L576.042 259.303C608.945 265.868 640.237 278.838 668.136 297.476L670.005 298.724L671.593 297.135L705.958 262.767L774.399 331.209L740.034 365.575L738.445 367.164L739.693 369.032C758.331 396.931 771.301 428.222 777.866 461.125L778.305 463.327H829.126V560.119H778.304L777.865 562.321C771.299 595.225 758.329 626.517 739.692 654.417L738.444 656.285L740.033 657.874L774.399 692.237L705.956 760.678L671.594 726.315L670.005 724.727L668.137 725.975C640.237 744.613 608.945 757.583 576.042 764.148L573.839 764.588V815.405H477.047V764.588ZM609.493 624.214C609.485 621.518 608.412 618.934 606.505 617.028C604.599 615.122 602.016 614.047 599.32 614.04H451.568C448.872 614.047 446.289 615.122 444.382 617.028C442.476 618.935 441.401 621.519 441.394 624.215V655.367C441.402 658.063 442.476 660.646 444.382 662.552C446.17 664.34 448.552 665.396 451.064 665.527L451.568 665.541H599.32C602.015 665.533 604.598 664.458 606.505 662.552C608.411 660.646 609.485 658.063 609.493 655.368V624.214Z" stroke="#07596E" stroke-width="5.4756"/>
</g>
</g>
<defs>
<filter id="filter0_d_41_220" x="136.311" y="122.591" width="778.265" height="778.265" filterUnits="userSpaceOnUse" color-interpolation-filters="sRGB">
<feFlood flood-opacity="0" result="BackgroundImageFix"/>
<feColorMatrix in="SourceAlpha" type="matrix" values="0 0 0 0 0 0 0 0 0 0 0 0 0 0 0 0 0 0 127 0" result="hardAlpha"/>
<feMorphology radius="36.504" operator="dilate" in="SourceAlpha" result="effect1_dropShadow_41_220"/>
<feOffset/>
<feGaussianBlur stdDeviation="17.5219"/>
<feComposite in2="hardAlpha" operator="out"/>
<feColorMatrix type="matrix" values="0 0 0 0 0.027451 0 0 0 0 0.34902 0 0 0 0 0.431373 0 0 0 1 0"/>
<feBlend mode="normal" in2="BackgroundImageFix" result="effect1_dropShadow_41_220"/>
<feBlend mode="normal" in="SourceGraphic" in2="effect1_dropShadow_41_220" result="shape"/>
</filter>
<filter id="filter1_f_41_220" x="0" y="-13.7206" width="1050.89" height="1050.89" filterUnits="userSpaceOnUse" color-interpolation-filters="sRGB">
<feFlood flood-opacity="0" result="BackgroundImageFix"/>
<feBlend mode="normal" in="SourceGraphic" in2="BackgroundImageFix" result="shape"/>
<feGaussianBlur stdDeviation="109.512" result="effect1_foregroundBlur_41_220"/>
</filter>
</defs>
</svg>
