<svg width="1440" height="25" viewBox="0 0 1440 25" fill="none" xmlns="http://www.w3.org/2000/svg">
<path d="M32.6889 0.222039C63.1281 -0.302321 83.9058 0.254821 112.144 0.343617C115.216 0.353258 118.336 0.361993 121.5 0.36989L122.579 0.365443L123.36 1.14023C129.312 7.12224 135.489 13.3202 141.827 19.6732L140 18.9165C195.749 18.9812 260.137 18.8655 312.193 18.8769C360.314 18.8875 409.211 18.9249 457.042 18.9549C459.495 18.9564 460.959 19.0139 462.071 19.0146C472.544 19.0214 490.105 18.9693 500.494 18.9769C522.347 18.9928 560.372 18.9838 580.387 19.0377C588.887 19.0605 597.605 19.07 600.909 19.2069C604.015 19.2139 605.71 19.0902 606.521 19.0835C606.53 19.0836 606.539 19.0837 606.548 19.0838C609.16 19.063 615.756 19.1497 617.212 19.1443C617.429 19.1434 616.089 19.0539 619.621 19.0809C619.935 19.0832 619.645 19.1441 622.618 19.145C623.392 19.1452 633.337 19.0518 636.179 19.0461C645.637 19.0275 668.223 19.1008 679.531 19.0996C681.26 19.0996 682.256 19.064 684.083 19.0633C685.026 19.063 686.44 19.1016 686.73 19.1014C688.002 19.1 693.56 18.9245 691.565 19.271C697.368 19.249 695.658 19.1344 695.789 19.06C702.088 19.0493 705.124 19.2125 706.769 19.0395C737.744 19.0604 768.72 19.0813 799.695 19.1022C799.705 19.074 799.714 19.0458 799.723 19.0176C808.853 19.1302 811.985 18.9397 817.197 19.1033C820.411 19.0672 823.625 19.0312 826.839 18.9952C909.439 19.1062 991.844 18.9743 1073.51 18.9747C1076.96 18.9747 1077.82 19.0347 1083.5 19.0351C1089.78 19.0356 1098.61 18.9658 1106.88 18.9667C1114.13 18.9673 1124.84 19.0241 1132.93 19.0329C1134.76 19.0348 1136.08 18.9968 1136.28 18.9971C1137.49 18.9985 1137.55 19.0587 1138.72 19.0604C1140.13 19.0623 1141.82 19.0177 1143.44 19.0205C1149.5 19.0304 1156.1 19.0151 1156.86 19.0161C1160.56 19.0218 1161.37 19.0806 1161.68 19.0813C1165.79 19.0885 1164.24 19.0354 1165.27 19.0384C1170.58 19.0547 1174.33 19.1873 1181.6 19.06C1181.4 19.1092 1181.2 19.1584 1181 19.2076C1186.57 19.2353 1182.89 19.1046 1184.03 19.0809C1184.49 19.0721 1196.47 19.0881 1197.39 19.0904C1200.61 19.0989 1200.69 19.1643 1200.97 19.1651C1201.65 19.1673 1209.74 19.0931 1213.89 19.1501C1218.8 19.2178 1213.02 19.3507 1214.24 19.3757C1214.44 19.3799 1219.58 19.3663 1220.27 19.4079C1221.03 19.4527 1216.59 19.4518 1216.66 19.4706C1216.71 19.4834 1224.08 19.5758 1222.67 19.6379C1221.53 19.7002 1211.52 19.6203 1209.4 19.6496C1209.05 19.6545 1209.71 19.7314 1209.4 19.7342C1208.16 19.7446 1185.1 19.7469 1184.04 19.7342C1185.24 19.6992 1186.44 19.6641 1187.64 19.6291C1186.05 19.6256 1184.45 19.622 1182.85 19.6185C1185.12 19.5904 1187.39 19.5623 1189.66 19.5343C1186.29 19.2458 1176.13 19.5382 1175.71 19.6822C1175.53 19.7488 1181.74 19.9201 1175.96 20.0199C1176.84 20.0369 1177.72 20.054 1178.6 20.0711C1180.41 20.043 1182.22 20.015 1184.03 19.9869C1182.82 19.9692 1181.62 19.9515 1180.41 19.9338C1180.86 19.9138 1181.3 19.8938 1181.74 19.8737C1185.13 19.8416 1188.52 19.8095 1191.9 19.7774C1193.64 19.7922 1193.28 19.8513 1194.48 19.8628C1209.4 20.0067 1199.67 19.8235 1209.44 19.8499C1210.83 19.8817 1212.23 19.9134 1213.62 19.9451C1213.13 19.8139 1217.46 19.8963 1222.69 19.8397C1222.07 19.8822 1221.44 19.9246 1220.82 19.9671C1228.4 19.9445 1243.77 20.1587 1239.62 19.9243C1241.36 19.9443 1243.1 19.9643 1244.83 19.9843C1246.3 19.946 1247.77 19.9077 1249.24 19.8693C1251.26 19.8737 1253.29 19.8781 1255.32 19.8825C1255.33 19.9033 1255.34 19.924 1255.35 19.9448C1253.73 19.9449 1252.11 19.945 1250.5 19.9451C1251.71 20.0084 1252.92 20.0716 1254.14 20.1348C1255.33 20.1243 1256.52 20.1138 1257.72 20.1033C1252.71 20.0435 1259.31 19.9459 1260.91 19.8624C1265.13 19.8315 1267.83 19.9399 1269.24 19.9448C1269.91 19.9471 1277.74 19.7559 1274.67 19.966C1278.7 19.9405 1282.73 19.915 1286.76 19.8895C1288.34 19.9056 1289.92 19.9217 1291.49 19.9378C1288.07 20.0357 1297.99 20.1536 1290.68 20.1942C1285.23 20.2246 1283.89 20.1331 1281.3 20.1337C1278.96 20.1342 1277.73 20.1958 1275.19 20.1986C1258.11 20.2159 1244.2 20.2046 1227.99 20.1773C1224.78 20.1718 1221.87 20.2021 1219.72 20.1978C1217.29 20.1929 1220.33 20.1157 1217.24 20.1345C1213.98 20.1544 1213.28 20.2174 1212.42 20.2187C1211.89 20.2194 1210.2 20.1627 1208.64 20.1627C1202.23 20.1627 1192.85 20.2176 1191.94 20.2172C1190.91 20.2166 1172.8 20.1654 1171.93 20.1561C1171.48 20.151 1172.43 19.9415 1168.44 20.1649C1167.19 20.169 1165.95 20.1732 1164.7 20.1773C1164.9 20.1354 1165.11 20.0936 1165.31 20.0517C1157.93 20.2104 1160.47 20.1216 1153.36 20.1341C1136.33 20.1641 1111.21 20.1288 1092.59 20.1436C1088.43 20.147 1086.84 20.1971 1081.92 20.2008C1077.35 20.2039 1065.42 20.0543 1068.01 20.2615C1057.84 20.0821 1056.21 20.3915 1051.12 20.1986C1050.5 20.2266 1049.88 20.2547 1049.27 20.2828C1043.74 20.1623 1042.03 20.2682 1036 20.2828C1033.4 20.2891 1036.4 20.161 1031.15 20.3037C1030.15 20.293 1029.14 20.2824 1028.14 20.2718C1028.37 20.2408 1028.61 20.2098 1028.84 20.1788C1023.01 20.2041 1022.63 20.188 1023.3 20.304C1020.49 20.2829 1017.67 20.2618 1014.86 20.2407C1014.51 20.2788 1014.16 20.3168 1013.81 20.3549C1015.16 20.4276 1079.06 20.318 1087.96 20.2831C1098.39 20.3694 1119.36 20.2616 1127.79 20.282C1131.16 20.2903 1132.65 20.3764 1137.56 20.3868C1142.47 20.3971 1148.65 20.3189 1151.26 20.3161C1159.97 20.3064 1201.22 20.3236 1173.17 20.4307C1173.97 20.4727 1174.78 20.5147 1175.59 20.5567C1186.74 20.4134 1182.7 20.5016 1191.95 20.5164C1195.85 20.5227 1205.11 20.429 1204.59 20.6197C1197.36 20.6552 1189.68 20.5942 1183.39 20.597C1182.76 20.5973 1175.32 20.6844 1171.48 20.6607C1168.03 20.6391 1170.41 20.4573 1162.89 20.6614C1157.3 20.462 1154.07 20.6429 1152.6 20.6622C1150.05 20.6955 1149.77 20.5971 1147.22 20.5856C1144.44 20.573 1142.53 20.6383 1142.15 20.6387C1138.34 20.6402 1118.51 20.6491 1117.6 20.6094C1118.4 20.592 1119.19 20.5745 1119.99 20.5571C1114.84 20.529 1115.92 20.6296 1114.56 20.6417C1113.55 20.6413 1112.54 20.6409 1111.54 20.6406C1111.94 20.6197 1112.34 20.5988 1112.73 20.5779C1106.65 20.5824 1111.31 20.6549 1102.67 20.653C1097.19 20.6517 1091.53 20.572 1090.99 20.5779C1090.84 20.5796 1092.56 20.6334 1090.33 20.6406C1086.63 20.6524 1080.23 20.651 1079.51 20.5779C1077.7 20.5883 1077.86 20.6598 1077.61 20.6614C1076.56 20.6684 1058.46 20.6927 1055.22 20.697C1046.23 20.7086 1036.23 20.6933 1026.49 20.7054C1025.49 20.7066 1026.13 20.6607 1025.13 20.6622C1023.52 20.6645 1015.25 20.7365 1014.01 20.7416C1010.93 20.7541 1002.82 20.7255 1001.55 20.7464C1001.36 20.7493 1004.03 20.8114 1000.91 20.8306C997.449 20.8519 999.314 20.7685 999.126 20.7676C992.076 20.7391 987.625 20.7971 982.812 20.8083C981.252 20.8119 978.374 20.7491 976.173 20.7676C975.92 20.7697 976.422 20.8278 976.173 20.8306C972.847 20.8611 969.736 20.7534 968.297 20.7464C964.775 20.7293 966.693 20.8088 966.509 20.8094C964.163 20.8119 961.006 20.7832 957.439 20.787C941.536 20.8039 928.558 20.8088 911.65 20.8035C909.527 20.8029 907.007 20.7468 906.682 20.7468C905.679 20.7472 905.966 20.8131 903.063 20.8116C896.944 20.8082 891.271 20.8114 885.212 20.8101C883.992 20.8098 883.472 20.7488 882.542 20.7475C879.422 20.7437 868.784 20.9035 868.609 20.7046C862.417 20.8807 858.305 20.729 853.322 20.7306C841.518 20.7344 823.036 20.7703 811.269 20.7475C808.792 20.7426 807.629 20.6916 806.251 20.6889C803.779 20.6838 789.649 20.7123 788.91 20.7043C787.459 20.6888 788.329 20.4645 780.867 20.66C776.492 20.6739 777.009 20.5818 776.104 20.5768C769.054 20.5399 762.194 20.7454 763.476 20.5571C755.267 20.6082 749.946 20.7123 746.596 20.5362C746.64 20.6221 742.779 20.6737 738.125 20.6409C742.89 20.4966 742.3 20.4043 753.823 20.4307C754.005 20.4312 753.659 20.4933 753.84 20.4937C755.485 20.4979 758.918 20.4665 761.722 20.4699C764.527 20.4733 762.97 20.5158 764.092 20.515C765.12 20.5141 765.086 20.4546 766.574 20.4538C771.399 20.4515 775.668 20.4351 778.414 20.434C780.143 20.4334 782.078 20.4857 783.42 20.4857C788.609 20.4852 799.604 20.4444 806.207 20.4501C807.582 20.4515 807.005 20.5101 810.014 20.515C810.366 20.5155 811.648 20.4544 814.283 20.4417C816.919 20.429 818.962 20.4594 820.655 20.4531C822.07 20.4478 821.479 20.3935 824.38 20.3901C826.799 20.3873 854.194 20.4265 855.681 20.4351C857.821 20.4476 858.838 20.5239 860.144 20.5146C860.374 20.5126 860.763 20.4389 861.56 20.4337C874.694 20.3466 903.764 20.4471 918.772 20.4465C950.143 20.4454 979.084 20.4021 1010.73 20.385C1011.3 20.3721 1011.86 20.3593 1012.43 20.3465C1009.23 20.346 1006.03 20.3455 1002.83 20.345C1002.81 20.3104 1002.79 20.2757 1002.77 20.241C998.442 20.2355 999.015 20.3175 999.137 20.367C997.537 20.346 995.936 20.325 994.336 20.304C992.955 20.4248 982.281 20.3445 976.778 20.3447C973.199 20.3447 968.94 20.3907 967.053 20.3871C963.066 20.3798 963.17 20.3052 962.857 20.304C962.325 20.3023 956.758 20.3681 952.743 20.3655C946.807 20.3619 946.165 20.2475 938.039 20.3447C927.627 20.2853 916.09 20.3152 904.867 20.3249C907.004 20.2191 896.947 20.3192 892.411 20.3176C864.741 20.3072 830.732 20.262 802.698 20.2202C799.096 20.2149 796.374 20.1525 794.367 20.1546C793.278 20.1557 792.803 20.2292 791.292 20.2194C791.026 20.2176 790.841 20.1488 788.028 20.1385C781.025 20.1125 763.583 20.2272 759.169 20.0953C735.228 20.1157 711.287 20.1361 687.346 20.1564C686.745 20.1284 686.144 20.1003 685.542 20.0722C680.994 20.2157 663.015 20.1314 654.247 20.1381C638.816 20.1502 619.126 20.1948 605.605 20.1997C602.667 20.2007 600.259 20.16 597.478 20.1608C596.282 20.1613 594.794 20.214 593.548 20.2143C579.568 20.2183 560.639 20.164 546.549 20.1652C514.561 20.168 484.436 20.16 452.024 20.1623C347.536 20.1702 243.623 20.2416 140 20.2203L140.905 20.5951C137.613 17.3023 134.323 14.0099 131.032 10.7176C130.006 9.69115 130.101 9.69948 129.306 8.90393C127.607 7.20351 125.144 4.74922 122.442 2.05809L122.046 1.66569L121.5 1.66794C114.78 1.68168 107.013 1.70141 102.23 1.69965C96.2554 1.69754 86.7728 1.60477 84.7169 1.69819C96.6878 1.77794 109.04 1.80933 121.5 1.82863L121.98 1.82664L122.328 2.17171C128.47 8.33288 134.654 14.5269 140.803 20.6965L140 20.3637C140.933 20.3652 141.866 20.3668 142.798 20.3685C144.369 20.3713 144.564 20.4289 144.758 20.43C148.335 20.45 146.076 20.3706 151.263 20.367C152.997 20.3658 169.01 20.5499 167.105 20.3666C170.94 20.44 197.974 20.4766 203.191 20.4523C204.776 20.4449 203.654 20.3906 203.968 20.3879C205.334 20.3759 205.951 20.4508 207.171 20.4527C210.424 20.4573 218.699 20.3966 220.271 20.397C223.889 20.3977 234.734 20.4586 239.51 20.4443C243.888 20.4312 243.069 20.353 246.854 20.3458C249.838 20.3403 246.588 20.4061 253.249 20.426C256.55 20.4357 268.099 20.3886 270.906 20.3886C273.712 20.3886 276.833 20.4354 280.703 20.4318C286.278 20.4268 298.405 20.4007 304.078 20.3857C304.416 20.3848 305.242 20.324 306.076 20.3253C307.805 20.3278 307.285 20.403 308.591 20.4106C309.896 20.4182 332.514 20.409 336.356 20.4099C339.004 20.4103 340.832 20.3655 342.295 20.3659C343.444 20.3663 343.566 20.4289 344.738 20.4296C345.1 20.4296 348.187 20.3753 351.271 20.3765C354.185 20.3778 365.249 20.4295 366.53 20.43C367.365 20.4302 366.45 20.3857 368.917 20.3868C371.165 20.3879 372.642 20.4456 373.924 20.4465C376.898 20.4484 380.222 20.3991 383.377 20.3989C392.447 20.3982 391.981 20.4698 392.525 20.4721C394.034 20.4786 394.638 20.413 395.134 20.4117C397.225 20.4062 402.351 20.3941 404.215 20.3915C406.537 20.3884 407.521 20.4507 409.988 20.4509C411.827 20.4508 415.54 20.3901 419.735 20.3871C429.192 20.3802 440.439 20.3687 449.726 20.371C452.496 20.3717 452.921 20.4285 453.767 20.43C458.216 20.4378 460.707 20.3742 461.977 20.3751C471.035 20.3808 487.193 20.4805 495.598 20.489C499.021 20.4923 514.005 20.4463 522.459 20.4545C523.426 20.4554 522.52 20.5 523.597 20.493C526.171 20.4763 525.932 20.3855 527.238 20.3882C527.868 20.3899 529.305 20.441 531.14 20.4461C540.658 20.4725 547.204 20.4327 551.545 20.4355C593.244 20.4619 635.766 20.4857 674.707 20.4937C679.049 20.4946 684.433 20.4406 690.988 20.493C691.189 20.5212 691.391 20.5494 691.593 20.5776C691.822 20.5499 692.052 20.5222 692.281 20.4944C699.706 20.4794 702.512 20.4438 710.094 20.4791C710.747 20.482 712.74 20.6107 713.974 20.4509C721.484 20.5667 717.363 20.4499 722.938 20.4391C728.513 20.4284 733.93 20.4641 739.336 20.4721C742.299 20.5294 729.866 20.6615 729.055 20.6611C727.75 20.6606 726.394 20.5811 725.137 20.5768C721.413 20.5642 717.812 20.6273 716.977 20.5563C712.165 20.6313 718.156 20.5939 717.554 20.6614C714.342 20.6335 711.13 20.6055 707.918 20.5776C706.281 20.8074 688.533 20.5077 689.767 20.6827C688.355 20.6476 686.943 20.6126 685.531 20.5776C679.341 20.7971 675.699 20.6425 667.441 20.5772C668.037 20.6053 668.633 20.6334 669.229 20.6614C669.06 20.6732 661.771 20.718 664.377 20.5984C656.906 20.756 657.22 20.4939 650.522 20.6834C646.543 20.7077 648.936 20.5976 641.813 20.5995C637.592 20.6006 632.353 20.6581 627.636 20.6622C626.549 20.6629 626.077 20.5992 625.11 20.5992C624.144 20.5992 623.672 20.6617 622.502 20.6633C620.083 20.6666 616.947 20.6228 615.435 20.627C614.081 20.6306 612.145 20.6857 608.88 20.6944C597.478 20.725 600.922 20.6463 599.121 20.6197C597.187 20.5914 595.796 20.6951 591.939 20.683C591.552 20.6818 592.552 20.6171 591.295 20.6197C590.28 20.6217 589.77 20.6919 586.41 20.705C585.072 20.7103 564.301 20.7253 561.137 20.7266C556.287 20.7285 545.485 20.6691 540.466 20.6695C538.532 20.6695 536.465 20.7259 534.41 20.7255C527.601 20.7242 516.701 20.7195 508.065 20.7167C500.29 20.7142 486.64 20.5897 482.382 20.7021C471.463 20.7167 468.811 20.6206 467.988 20.6193C465.763 20.6157 464.733 20.6793 461.927 20.6823C425.585 20.7193 377.729 20.6772 343.311 20.6823C275.733 20.6927 207.843 20.7192 140 20.7114L140.558 20.9424C134.391 14.7743 128.225 8.60635 122.061 2.43902L121.825 2.20531L121.5 2.20665C117.911 2.20573 114.322 2.2047 110.734 2.20355C110.519 2.23174 110.304 2.25994 110.09 2.28814C113.714 2.2951 117.582 2.30657 121.5 2.31871L121.779 2.31755L121.982 2.51825C126.435 6.9995 130.98 11.5743 135.055 15.6594C136.723 17.3308 138.546 19.1515 140.45 21.0501L140 20.8637C151.524 20.848 165.1 20.8003 172.523 20.9566C168.81 20.9735 162.762 20.8996 162.87 20.9987C169.507 21.0058 176.144 21.0129 182.781 21.0199C182.583 20.9742 182.385 20.9284 182.187 20.8826C189.116 20.8693 196.204 20.8793 203.158 20.8727C204.366 20.8717 203.51 20.8301 204.562 20.8299C205.739 20.8297 204.941 20.872 205.162 20.8724C208.136 20.8728 209.034 20.83 209.397 20.8306C210.328 20.8323 209.604 20.873 212.289 20.8844C217.27 20.9058 220.836 20.7976 219.666 20.9778C221.274 20.9778 222.882 20.9778 224.49 20.9778C224.906 20.9288 225.322 20.8797 225.739 20.8306C235.629 21.0287 240.19 20.6812 245.655 20.957C247.457 20.9148 249.259 20.8727 251.062 20.8306C252.077 20.8797 253.093 20.9288 254.109 20.9778C254.307 20.9357 254.505 20.8936 254.703 20.8515C264.413 20.8825 274.752 20.832 284.039 20.8368C290.508 20.8402 292.058 20.8569 297.789 20.8537C310.535 20.8465 297.877 20.9301 308.468 21.0203C307.917 20.9687 307.366 20.917 306.814 20.8654C308.568 20.8465 310.322 20.8276 312.076 20.8086C313.298 20.8508 314.519 20.8929 315.74 20.935C321.157 20.7166 324.666 20.8929 325.404 20.8929C326 20.8925 328.046 20.761 334.457 20.8724C331.799 20.6926 339.348 20.8713 339.953 20.8724C340.528 20.8731 347.877 20.833 350.86 20.8346C353.207 20.8359 358.212 20.8746 361.707 20.8727C364.792 20.871 364.479 20.81 364.704 20.8094C368.501 20.8043 366.122 20.8517 368.867 20.8541C371.612 20.8564 373.742 20.8044 374.335 20.809C374.633 20.8115 373.636 20.8683 375.001 20.8738C378.666 20.8888 385.293 20.839 389.488 20.8405C390.976 20.841 392.85 20.8892 394.506 20.8907C397.046 20.8928 398.232 20.8287 399.708 20.8306C400.221 20.8315 403.496 20.9304 407.568 20.9152C408.342 20.9122 410.617 20.7028 413.64 20.9994C413.873 20.9577 414.106 20.9159 414.34 20.8742C427.993 20.7708 431.793 21.11 437.864 20.809C447.778 20.8426 440.972 20.9599 442.06 20.9778C442.764 20.9892 445.996 20.9569 446.351 20.9588C446.98 20.9624 446.872 21 447.561 20.9998C460.199 20.9928 454.588 20.9218 458.591 20.8768C468.108 20.7696 475.534 21.0075 458.979 20.9361C458.979 20.9571 458.979 20.9781 458.979 20.9991C463.056 20.979 473.403 20.9885 469.948 21.095C467.227 21.1789 442.678 21.1242 456.581 21.2419C459.738 21.2685 461.373 21.1897 466.839 21.3374C470.454 21.3455 470.975 21.1541 475.871 21.2309C475.066 21.1641 474.261 21.0973 473.456 21.0306C480.132 20.9435 488.367 21.0603 493.495 21.0229C495.237 21.0101 501.513 20.6918 500.05 21.0101C502.979 20.9902 516.776 21.0488 519.339 21.0203C519.956 21.0134 520.759 20.844 529.68 20.9031C530.3 20.9244 530.92 20.9456 531.54 20.9668C523.38 21.0285 537.791 21.0913 533.877 21.2521C532.547 21.1798 526.076 21.1358 525.034 21.0994C523.257 21.0368 528.552 20.9562 521.804 20.9782C517.55 21.2469 529.713 21.1233 527.854 21.3785C536.714 21.2593 537.599 21.373 539.605 21.3777C548.179 21.397 553.575 21.3699 561.664 21.3997C563.636 21.3473 548.991 21.2716 547.177 21.2942C553.852 21.1084 542.362 21.1 537.513 21.2104C537.106 21.1542 536.699 21.0981 536.292 21.0419C542.604 21.0723 548.762 21.088 555.014 21.0419C555.422 21.0629 555.829 21.0839 556.236 21.1049C554.833 21.1365 553.431 21.1681 552.028 21.1997C557.228 21.2515 554.109 21.0878 561.037 21.2312C561.252 21.168 561.466 21.1048 561.681 21.0415C568.324 21.0625 574.966 21.0835 581.609 21.1045C585.067 20.9777 597.849 21.025 595.508 21.1891C600.667 21.2007 594.298 21.1134 599.133 21.0734C601.237 21.0561 605.349 21.0512 606.365 21.0954C605.928 21.2517 599.773 21.2711 597.911 21.3785C599.041 21.4131 627.662 21.3015 625.11 21.4843C627.396 21.5063 626.345 21.4121 630.467 21.388C642.017 21.3208 659.906 21.5069 669.206 21.2734C658.286 21.1434 655.055 21.281 646.687 21.2865C641.341 21.2901 608.749 21.3123 616.029 21.147C614.832 21.168 613.635 21.189 612.438 21.21C611.228 21.1608 610.018 21.1116 608.808 21.0624C612.218 21.0553 615.628 21.0483 619.038 21.0412C619.852 21.0903 620.666 21.1393 621.48 21.1884C621.856 21.1534 622.231 21.1183 622.607 21.0833C624.043 21.0763 625.479 21.0694 626.914 21.0624C626.511 21.1045 626.108 21.1466 625.704 21.1888C627.917 21.196 630.13 21.2032 632.343 21.2104C631.747 21.1541 631.152 21.0978 630.556 21.0415C640.978 21.0274 637.448 21.0626 643.228 21.1679C647.544 21.1786 640.254 21.0705 649.384 21.043C660.001 21.0111 653.036 21.1831 666.786 21.1463C666.984 21.1182 667.182 21.0901 667.38 21.0621C670.403 21.0901 673.427 21.1182 676.45 21.1463C676.051 21.1114 675.651 21.0765 675.251 21.0415C681.492 21.0551 690.091 20.9884 692.159 21.1254C685.834 21.0595 685.896 21.2986 687.541 21.3426C690.936 21.4328 741.092 21.3488 750.815 21.3429C763.246 21.3353 772.643 21.4119 783.998 21.2942C776.303 21.1977 749.243 21.2768 744.115 21.21C743.607 21.2034 743.75 20.9842 740.485 21.2309C729.964 21.189 717.388 21.2589 704.243 21.2517C704.645 21.1886 705.046 21.1255 705.448 21.0624C713.526 21.1966 721.004 20.9018 719.952 21.147C721.56 21.147 723.168 21.147 724.776 21.147C724.776 21.1048 724.776 21.0625 724.776 21.0203C727.2 21.0203 729.623 21.0203 732.047 21.0203C732.047 21.0625 732.047 21.1048 732.047 21.147C734.055 21.147 736.062 21.147 738.07 21.147C738.279 21.1049 738.488 21.0628 738.697 21.0207C744.709 21.1081 765.203 20.8743 756.194 21.1258C759.017 21.1258 761.841 21.1258 764.664 21.1258C764.655 21.0949 764.646 21.064 764.636 21.0331C765.85 21.029 767.064 21.0248 768.278 21.0207C767.878 21.0486 767.478 21.0766 767.079 21.1045C772.641 21.0545 777.914 21.2016 781.566 21.1049C779.157 21.0838 776.748 21.0627 774.339 21.0415C778.96 21.0817 787.471 20.9985 788.233 20.9983C790.555 20.9979 791.779 21.0604 794.294 21.0635C796.565 21.0662 796.253 21.0183 796.676 21.0199C808.925 21.0688 804.256 21.3285 809.976 21.021C810.584 21.063 811.193 21.105 811.802 21.147C812.612 21.112 813.423 21.0769 814.233 21.0419C817.85 21.0452 821.468 21.0485 825.085 21.0518C823.879 20.9993 822.672 20.9468 821.466 20.8943C826.888 20.8709 829.417 20.9761 829.942 20.9786C831.428 20.9847 832.108 20.9186 832.568 20.9185C854.663 20.9242 841.243 20.9824 852.284 21.2305C856.221 21.1331 852.238 21.0355 851.679 20.9364C856.914 20.9829 858.548 20.9555 864.074 20.961C865.512 20.9625 867.058 21.0159 867.965 21.0166C868.751 21.0173 871.208 20.9605 873.094 20.9603C876.238 20.9598 880.424 20.9937 884.729 20.9928C888.308 20.992 899.267 20.9519 906.91 20.9515C910.172 20.9515 909.415 20.999 910.257 20.9991C910.608 20.9991 913.15 20.9422 915.242 20.9419C932.306 20.9407 949.794 20.9767 966.942 20.9756C979.024 20.975 991.3 20.9292 1003.41 20.9339C1005.98 20.9349 1004.62 20.9767 1005.74 20.9782C1006.13 20.9786 1006.59 20.9057 1010.58 20.935C1012.02 20.9456 1010.36 20.9965 1011.78 20.9991C1012.47 21.0003 1012.76 20.9364 1016.78 20.9218C1024.1 20.8952 1028.03 20.9804 1028.68 20.9778C1029.92 20.9729 1029.56 20.92 1031.19 20.9181C1039.17 20.9088 1045.83 20.8999 1052.95 20.8954C1056.28 20.8933 1079.21 20.8826 1080.47 20.8921C1083.29 20.9133 1080.66 21.0237 1084.28 21.0199C1085.29 20.992 1086.3 20.964 1087.31 20.9361C1085.7 20.9148 1084.1 20.8936 1082.49 20.8724C1086.91 20.9079 1091.93 20.8576 1095.21 20.8595C1095.82 20.86 1101.39 20.9101 1104.23 20.9046C1103.02 20.9253 1101.81 20.9461 1100.61 20.9668C1101.03 20.9845 1101.46 21.0022 1101.89 21.0199C1107.57 20.9931 1113.58 20.9938 1119.41 20.9976C1121.51 20.9989 1120.8 21.0419 1122.93 21.0434C1135.33 21.0524 1132.2 20.8737 1144.12 21.2093C1140.09 21.1788 1125.41 21.2215 1123.27 21.2104C1121.78 21.2025 1116.01 20.919 1118.13 21.21C1106.23 21.2087 1116.57 21.0482 1105.45 21.0833C1105.67 21.1188 1105.9 21.1543 1106.12 21.1899C1102.24 21.2123 1099.37 21.2302 1097.02 21.1675C1096.22 21.3398 1083.04 21.239 1075.81 21.2506C1065.36 21.2671 1053.56 21.3092 1043.21 21.3166C1039.64 21.3191 1037.62 21.2515 1037.17 21.2517C1036.52 21.2522 1034.68 21.3114 1033.37 21.3118C1028.5 21.3135 1013.67 21.2135 1009.98 21.3777C1038.98 21.3777 1067.99 21.3777 1096.99 21.3777C1093.34 21.297 1122.68 21.2891 1124.16 21.2931C1125.54 21.2967 1124.38 21.3534 1124.79 21.3568C1127.84 21.3812 1130.44 21.299 1131.41 21.299C1132.15 21.299 1133.64 21.3376 1136.26 21.3367C1136.74 21.3366 1136.87 21.2958 1137.39 21.2957C1140.81 21.2957 1144.19 21.2963 1147.63 21.2961C1147.84 21.2965 1148.7 21.356 1149.57 21.3561C1150.44 21.3561 1151.3 21.2966 1151.52 21.2964C1154.26 21.2968 1158.97 21.3356 1161.58 21.336C1162.49 21.336 1161.86 21.2923 1162.88 21.2928C1166 21.2938 1164.97 21.3792 1168.83 21.3572C1170.12 21.3498 1170.04 21.2845 1172.51 21.2931C1174.27 21.2993 1174.08 21.4156 1174.35 21.4198C1174.74 21.4249 1180.79 21.3331 1182.77 21.4092C1178.44 21.6103 1187.5 21.4197 1187.07 21.3349C1189.46 21.3562 1191.86 21.3776 1194.26 21.399C1195.08 21.3775 1195.9 21.356 1196.71 21.3345C1206.39 21.4313 1212.29 21.3732 1221.81 21.403C1222.27 21.4045 1230.29 21.4522 1229.91 21.4825C1225.11 21.5344 1220.32 21.5368 1217.25 21.4407C1212.2 21.624 1212.11 21.4779 1203.95 21.5022C1201.21 21.5105 1201.02 21.5602 1200.7 21.5608C1190.08 21.5855 1173.05 21.6069 1165.89 21.4616C1163.88 21.5009 1171.1 21.5165 1168.29 21.5454C1166.76 21.5613 1129.93 21.6077 1141.7 21.4403C1140.48 21.445 1139.26 21.4496 1138.04 21.4543C1136.81 21.6124 1130.74 21.5762 1131.43 21.4187C1130.85 21.451 1130.28 21.4832 1129.7 21.5154C1128.57 21.5427 1127.22 21.5573 1125.34 21.5659C1118.11 21.5989 1075.13 21.5441 1072.85 21.5667C1072.8 21.604 1072.74 21.6414 1072.69 21.6787C1091.68 21.721 1110.1 21.6282 1130.8 21.7351C1130.2 21.7001 1129.6 21.6651 1129 21.63C1137.26 21.6791 1145.52 21.7282 1153.78 21.7772C1145.04 21.8407 1131.13 21.8939 1121.95 21.8417C1120.32 21.8324 1121.51 21.7835 1121.14 21.7776C1120.16 21.7622 1119.11 21.847 1115.59 21.8552C1112.07 21.8635 1103.23 21.8034 1102.42 21.8051C1100.85 21.8086 1096.64 21.9055 1093.98 21.9043C1090.48 21.9026 1092.83 21.8426 1092.12 21.8413C1089.22 21.8354 1086.62 21.8652 1084.35 21.8607C1080.97 21.8541 1073.96 21.7486 1071.6 21.9036C1074.01 21.9107 1076.43 21.9177 1078.84 21.9248C1065.76 21.9804 1055.54 21.7823 1042.66 21.9351C1039.73 22.1228 1050.38 22.0974 1041.38 22.1775C1043.01 22.1748 1044.65 22.1721 1046.28 22.1694C1046.66 22.1301 1047.05 22.0908 1047.43 22.0515C1050.24 22.0796 1053.06 22.1077 1055.87 22.1358C1055.07 22.1007 1054.27 22.0657 1053.46 22.0307C1063.44 22.0042 1073.52 21.9683 1077 22.1566C1077.2 22.1111 1077.41 22.0656 1077.61 22.02C1086.88 22.0754 1100.78 21.8824 1098.19 22.1358C1098.62 22.1223 1099.06 22.1089 1099.5 22.0955C1105.1 22.1473 1102.71 22.0425 1104.81 22.0307C1105.41 22.0273 1116.3 22.0814 1111.47 22.1566C1122.09 22.2141 1118.82 21.9773 1121.74 21.9669C1128.54 22.0842 1140.77 21.9083 1135.63 22.0936C1136.64 22.1006 1137.65 22.1076 1138.66 22.1145C1141.99 21.9687 1145.27 22.1337 1148.87 22.1889C1150.09 22.1921 1151.31 22.1954 1152.53 22.1987C1153.35 22.1497 1154.17 22.1006 1154.99 22.0515C1166.48 22.2851 1162.84 21.6464 1168.09 22.183C1167.27 22.2151 1166.45 22.2472 1165.63 22.2793C1163.7 22.2946 1161.76 22.3098 1159.82 22.3251C1167.64 22.3392 1175.46 22.3534 1183.28 22.3676C1193.21 22.518 1198.86 22.3548 1209.89 22.4738C1210.92 22.4595 1211.95 22.4452 1212.98 22.4309C1211.93 22.5524 1207.93 22.5346 1215.39 22.5891C1216.02 22.675 1210.98 22.6861 1208.69 22.6202C1208.13 22.6042 1212.84 22.5383 1207.55 22.536C1203.95 22.5344 1210.49 22.6376 1199.7 22.5994C1200.1 22.6204 1200.5 22.6414 1200.9 22.6623C1199.73 22.6617 1198.56 22.6611 1197.39 22.6605C1196.35 22.6119 1195.31 22.5634 1194.27 22.5148C1191.6 22.5849 1190.1 22.6833 1183.99 22.6623C1185.65 22.6319 1183.4 22.5344 1180.38 22.536C1180.38 22.5712 1180.38 22.6063 1180.38 22.6415C1173.06 22.6641 1175.59 22.5609 1169.5 22.6415C1168.89 22.6135 1168.29 22.5856 1167.68 22.5576C1164.36 22.6728 1152.16 22.7512 1154.39 22.5785C1150.97 22.7463 1143.78 22.6706 1141.11 22.5364C1140.9 22.5713 1140.69 22.6062 1140.49 22.6411C1139.07 22.6482 1137.64 22.6553 1136.22 22.6623C1135.43 22.6412 1134.63 22.6201 1133.84 22.599C1132.83 22.6201 1131.82 22.6412 1130.81 22.6623C1130.21 22.6273 1129.6 22.5923 1128.99 22.5572C1127.37 22.5992 1125.75 22.6412 1124.13 22.6832C1123.13 22.6553 1122.14 22.6273 1121.15 22.5994C1121.05 22.6724 1111.22 22.6887 1108.48 22.6407C1107.66 22.662 1106.84 22.6832 1106.02 22.7045C1105.62 22.6697 1105.22 22.6349 1104.82 22.6001C1104.22 22.6279 1103.61 22.6558 1103 22.6836C1101.6 22.6558 1100.19 22.6279 1098.79 22.6001C1093.07 22.7706 1092.89 22.621 1091.58 22.6221C1089.16 22.624 1080.91 22.7308 1079.54 22.7253C1078.16 22.7198 1077.49 22.6586 1076.38 22.6528C1058.06 22.5567 1065.59 22.7209 1061.92 22.7469C1059.93 22.7611 1058.53 22.704 1056.78 22.7103C1053.78 22.7209 1038.65 22.7964 1037.78 22.7891C1036.51 22.7784 1039.49 22.5091 1035.37 22.5785C1035.24 22.7231 1026.43 22.5771 1030.54 22.7788C1026.92 22.7611 1023.29 22.7434 1019.66 22.7257C1020.07 22.8971 1015.6 22.7869 1010.72 22.7964C1003.82 22.8097 988.266 22.9224 988.835 22.7466C987.181 22.787 985.526 22.8274 983.872 22.8678C972.553 22.8124 961.452 22.8704 950.218 22.8725C916.875 22.8791 880.701 22.8409 847.516 22.8063C845.921 22.8046 846.15 22.7471 845.001 22.7458C838.966 22.7395 823.281 22.7801 814.827 22.7674C812.119 22.7634 810.801 22.7074 809.942 22.7048C807.028 22.6957 807.716 22.7696 806.373 22.7674C804.256 22.7641 793.056 22.6955 789.199 22.6883C787.289 22.6848 785.029 22.7434 782.793 22.7253C782.601 22.7239 782.956 22.6634 782.793 22.6623C778.717 22.6549 781.169 22.7072 779.79 22.7045C769.958 22.6848 759.449 22.6836 748.783 22.6711C746.135 22.668 742.081 22.6253 739.807 22.6213C738.94 22.6199 740.496 22.6658 737.498 22.662C736.471 22.6607 736.121 22.601 734.962 22.5972C729.967 22.5809 728.296 22.7726 724.004 22.6184C715.72 22.6285 701.3 22.6778 693.741 22.6788C691.953 22.679 691.082 22.6438 689.378 22.6444C688.169 22.6448 686.041 22.6994 684.155 22.7001C682.268 22.7007 679.29 22.6487 675.662 22.6506C671.842 22.6525 667.092 22.6834 666.231 22.6832C665.191 22.6832 664.706 22.6176 663.667 22.6184C660.522 22.6205 652.103 22.685 648.052 22.692C643.699 22.6994 641.086 22.6676 639.598 22.6682C638.221 22.6691 636.614 22.7245 635.985 22.725C635.006 22.7258 634.774 22.6611 633.531 22.6616C631.5 22.6627 629.406 22.7034 626.359 22.7045C571.502 22.7245 517.717 22.689 464.347 22.6418C458.397 22.6366 455.035 22.682 446.268 22.6612C442.713 22.6528 444.211 22.586 441.444 22.5986C440.211 22.6043 440.523 22.6569 438.963 22.6594C432.07 22.6704 424.038 22.6216 421.051 22.6224C419.866 22.6227 418.512 22.6824 416.083 22.6832C397.979 22.69 376.56 22.6732 357.077 22.6836C346.761 22.6891 331.143 22.7195 319.304 22.7235C286.591 22.7347 251.399 22.7209 221.564 22.7268C194.322 22.732 167.159 22.7543 140 22.7566L139.474 22.7544L139.111 22.3886C132.944 16.2227 126.779 10.0556 120.615 3.88493L121.5 4.25148C112.467 4.24673 103.432 4.23847 94.392 4.22533C102.536 4.28123 111.82 4.31368 121.5 4.33336L120.557 3.94283C126.614 10.0243 132.898 16.3187 139.036 22.4638L139.43 22.8607L140 22.8631C146.816 22.8669 153.503 22.8691 159.811 22.8733C227.44 22.9181 299.447 22.8342 368.756 22.8374C392.871 22.8384 423.276 22.8351 449.676 22.8685C450.874 22.87 453.355 22.8241 455.943 22.829C456.493 22.8301 463.31 22.9138 465.607 22.9147C463.43 22.7659 472.428 22.8985 475.21 22.8949C478.718 22.8902 486.034 22.8158 494.244 22.8579C501.694 22.8959 499.639 22.9532 500.05 22.9568C502.685 22.98 503.604 22.8877 505.623 22.8784C513.871 22.8412 556.296 22.8948 568.137 22.8982C571.196 22.899 571.283 22.9577 571.972 22.9579C573.798 22.9583 576.397 22.9004 579.322 22.9007C584.595 22.9016 590.668 22.9569 593.571 22.9571C600.513 22.9578 613.685 22.8925 622.707 22.8912C625.244 22.8908 625.089 22.9519 626.237 22.9516C631.294 22.9506 644.463 22.8787 650.739 22.878C660.933 22.877 671.42 22.9164 681.784 22.8963C682.441 22.9236 683.098 22.9508 683.755 22.978C684.791 22.9494 685.827 22.9209 686.864 22.8923C704.387 22.9141 722.225 22.8528 739.652 22.8568C741.66 22.8572 751.599 22.9093 753.257 22.9095C754.636 22.9095 755.992 22.8421 758.036 22.852C760.899 22.8658 758.205 22.9942 762.882 22.9575C764.14 22.9476 762.921 22.8926 765.447 22.8755C766.281 22.8698 782.477 22.8475 783.348 22.8513C784.799 22.8577 786.093 22.9755 786.468 22.978C788.414 22.9913 788.331 22.9009 789.637 22.8927C793.49 22.868 798.525 22.9288 799.151 22.9275C806.722 22.9108 820.875 22.8386 828.821 22.8813C829.92 22.8873 829.788 22.9546 829.981 22.9568C831.226 22.9707 832 22.8941 833.184 22.8923C839.557 22.8837 849.538 22.9352 855.948 22.9483C856.686 22.9498 858.244 22.9129 859.561 22.9165C867.011 22.9372 864.594 22.9963 865.018 22.9989C866.021 23.0052 867.787 22.9399 870.458 22.9359C877.339 22.9251 890.535 22.9345 897.912 22.9396C903.439 22.9436 903.355 23.0183 903.718 23.0198C904.493 23.0224 906.646 22.9628 910.285 22.956C917.286 22.9427 916.488 23.0014 919.366 22.9989C919.608 22.9989 919.187 22.9415 922.38 22.9355C928.549 22.9241 942.405 22.9806 949.007 22.9776C951.547 22.9766 952.141 22.9212 954.741 22.9202C958.864 22.9183 968.168 22.9782 968.902 22.978C969.107 22.978 969.568 22.9143 970.778 22.9143C972.108 22.9143 973.417 22.9471 974.408 22.9469C980.055 22.946 989.784 22.8348 987.081 23.0622C988.89 23.0061 990.7 22.9499 992.509 22.8938C1004.34 22.905 1015.83 22.8825 1027.55 22.8711C1030.18 22.8686 1032.38 22.9116 1034.61 22.9095C1036.83 22.9074 1046.64 22.8362 1048.28 22.8348C1051.21 22.8325 1067.84 22.825 1069.91 22.8301C1073.95 22.8398 1077.87 22.9338 1079.51 22.9154C1080.83 22.9006 1079.61 22.8476 1082.13 22.8326C1086.48 22.8067 1093.88 22.8747 1095.21 22.8736C1095.78 22.8732 1094.72 22.8319 1100.03 22.829C1102.9 22.8273 1104.44 22.8728 1105.48 22.8725C1105.8 22.8723 1105.32 22.7986 1110.99 22.8085C1114.91 22.8154 1116.58 22.8723 1116.99 22.8725C1117.61 22.8729 1119.1 22.8122 1121.58 22.8143C1127.37 22.8196 1137.96 22.8892 1143.46 22.8945C1144.53 22.8956 1144.17 22.8222 1148.41 22.829C1151.45 22.8338 1150.92 22.8922 1152.05 22.8945C1153.85 22.8981 1156.54 22.8267 1160.52 22.829C1165.52 22.8319 1202.7 22.906 1204.62 22.9253C1205.92 22.9382 1207.42 22.939 1208.06 22.9707C1207.51 23.0011 1206.96 23.0315 1206.41 23.0619C1200.72 22.9552 1203.02 23.0771 1201.5 23.0849C1199.31 23.0961 1191.07 23.0806 1189.07 23.1076C1188.36 23.1174 1189.99 23.1823 1186.17 23.2157C1182.07 23.2514 1180.24 23.1359 1178.61 23.2937C1172.8 23.1185 1167.21 23.3044 1173.94 23.3541C1177.7 23.3818 1214.59 23.4444 1222.13 23.4541C1228.23 23.4619 1239.67 23.4149 1247.18 23.427C1251.6 23.4342 1262.47 23.4423 1262.01 23.5262C1265.93 23.5368 1261.78 23.4532 1262.6 23.4416C1264.32 23.4173 1276.55 23.475 1278.87 23.4727C1285.33 23.4665 1292.76 23.4337 1300 23.4257L1300.79 23.429L1301.36 22.8617C1305.28 18.9397 1309.12 15.1054 1312.55 11.7384C1312.2 12.1193 1311.85 12.5002 1311.51 12.8811C1310.02 14.4165 1303.77 20.614 1301.48 22.9811L1300.86 23.5981L1300 23.5946C1299.45 23.604 1299.06 23.6159 1298.87 23.6313C1299.25 23.6313 1299.62 23.6313 1300 23.6313L1300.87 23.6349L1301.51 23.0071C1307.51 17.0071 1313.51 11.0071 1319.51 5.00707L1318 5.63131C1326.05 5.63131 1334.09 5.63131 1342.14 5.63131C1341.82 5.53958 1362.8 5.54082 1363.79 5.58224C1363.42 5.62667 1363.05 5.67111 1362.68 5.71554C1350.83 5.54691 1351.89 5.76981 1343.94 5.65145C1340.7 5.64978 1341.68 5.7232 1340.08 5.73714C1324.19 5.87575 1339.82 5.5865 1327.66 5.65219C1331.05 5.7506 1322.79 5.7913 1318 5.80758L1319.63 5.13171C1319.35 5.41055 1319.09 5.67283 1318.86 5.9127C1318.14 6.63313 1308.69 16.0481 1307.57 17.1696C1305.86 18.8817 1303.82 20.9297 1301.63 23.1292L1300.95 23.8079L1300 23.804C1291.68 23.8214 1281.82 23.8408 1275.39 23.7983C1268.42 23.7913 1264.59 23.8672 1258.26 23.8847C1253.46 23.898 1254.84 23.8447 1252.58 23.8441C1247.84 23.8426 1246.28 24.0049 1243.24 23.7785C1240.03 23.8067 1236.81 23.8349 1233.6 23.8631C1233.6 23.828 1233.6 23.7928 1233.6 23.7577C1231.58 23.7577 1229.56 23.7577 1227.54 23.7577C1226.95 23.7927 1226.35 23.8277 1225.76 23.8628C1219.35 23.8148 1222.03 23.7301 1220.83 23.6306C1219.45 23.6237 1218.06 23.6169 1216.68 23.6101C1215.61 23.6865 1214.54 23.7629 1213.47 23.8393C1207.29 23.8331 1201.11 23.8269 1194.93 23.8206C1194.53 23.7856 1194.13 23.7506 1193.73 23.7155C1193.71 23.7506 1193.7 23.7856 1193.69 23.8206C1183.22 23.8278 1172.76 23.835 1162.29 23.8422C1159.51 23.8984 1176.28 23.941 1177.55 23.9444C1184.61 23.963 1203.37 23.9067 1203.39 24.0316C1207.78 23.9384 1221 23.9615 1225.11 24.0733C1218.87 24.0666 1212.63 24.0599 1206.39 24.0532C1206.59 24.095 1206.79 24.1369 1206.99 24.1788C1199.22 24.0099 1198.08 24.0192 1190.09 24.1788C1190.08 24.1226 1190.07 24.0665 1190.06 24.0103C1184.49 24.2056 1174.64 23.8744 1174.35 24.1154C1171.39 24.0959 1168.42 24.0764 1165.45 24.0568C1159.04 24.0862 1168.99 24.2716 1143.9 24.1989C1142.17 24.1938 1142.53 24.1324 1139.93 24.1367C1139.18 24.1379 1134.89 24.2273 1126.68 24.218C1125.4 24.2165 1125.3 24.1632 1123.97 24.1564C1120.9 24.1404 1114.78 24.2457 1117.56 24.074C1105.39 24.024 1110.44 24.1649 1106.66 24.2209C1104.15 24.2581 1104.65 24.1565 1102.48 24.1795C1099.78 24.2081 1101.76 24.3105 1090.98 24.2634C1092.19 24.2564 1093.4 24.2495 1094.61 24.2425C1094 24.2147 1093.39 24.1868 1092.78 24.159C1086.62 24.2258 1087.21 24.1282 1084.3 24.2846C1079.83 24.2149 1075.96 24.2093 1069.84 24.222C1057.95 24.2467 1064.04 24.4153 1050.48 24.1883C1048.28 24.2202 1046.08 24.252 1043.88 24.2839C1040.27 24.2169 1043.19 24.1331 1037.8 24.1162C1042.02 24.2817 1030.64 24.2213 1028.72 24.3688C1028.52 24.3337 1028.31 24.2985 1028.11 24.2634C1026.91 24.2634 1025.7 24.2634 1024.5 24.2634C1024.49 24.2916 1024.49 24.3198 1024.49 24.348C1022.88 24.3268 1021.28 24.3057 1019.68 24.2846C1018.47 24.3126 1017.26 24.3405 1016.06 24.3685C1014.07 24.3095 1012.09 24.2506 1010.11 24.1916C1008.86 24.1876 1007.62 24.1835 1006.37 24.1795C1006.76 24.2215 1007.16 24.2635 1007.55 24.3055C1005.95 24.2914 1004.35 24.2774 1002.75 24.2634C1004.61 24.3323 1003.44 24.4131 998.46 24.411C994.348 24.4093 998.98 24.2654 990.139 24.3253C989.522 24.3295 988.431 24.4321 980.076 24.4479C970.055 24.4669 974.923 24.3927 973.137 24.3901C972.786 24.3897 969.725 24.4413 966.859 24.4487C965.232 24.4529 963.666 24.4112 963.451 24.4113C962.447 24.4132 962.154 24.4722 960.764 24.4743C957.234 24.4794 952.494 24.4505 949.035 24.4534C947.463 24.4547 945.984 24.4896 945.283 24.4901C944.194 24.4905 942.814 24.4371 941.714 24.4373C937.65 24.4384 931.483 24.6154 929.596 24.3696C925.69 24.5957 917.507 24.3223 918.106 24.4739C907.668 24.4167 879.827 24.6027 880.643 24.348C874.731 24.5658 875.26 24.408 872.783 24.4113C870.014 24.4149 871.449 24.4572 869.247 24.4553C864.108 24.4508 859.198 24.4327 854.083 24.4318C854.886 24.3969 855.689 24.362 856.492 24.3271C851.122 24.3159 852.971 24.3971 847.494 24.4128C837.42 24.4413 841.665 24.3765 840.178 24.285C840.577 24.3733 828.698 24.3596 827.488 24.348C826.768 24.3409 829.928 24.227 822.654 24.2637C823.051 24.2988 823.449 24.3338 823.847 24.3688C820.533 24.3209 811.531 24.3817 810.003 24.3699C809.302 24.3644 805.55 24.0819 802.116 24.3055C801.701 24.2705 801.287 24.2354 800.872 24.2004C797.059 24.2425 793.245 24.2846 789.432 24.3267C788.823 24.2636 788.214 24.2005 787.606 24.1374C786.396 24.1374 785.185 24.1374 783.976 24.1374C784.778 24.1934 785.581 24.2495 786.385 24.3055C778.912 24.2801 769.784 24.3685 768.244 24.1795C766.644 24.2145 765.043 24.2496 763.443 24.2846C762.401 24.2217 761.36 24.1589 760.318 24.096C752.907 24.1119 752.784 24.1539 747.717 24.2209C747.915 24.1718 748.113 24.1228 748.311 24.0737C744.574 24.1426 737.752 24.2067 732.358 24.2154C729.794 24.2194 725.391 24.1518 724.787 24.1579C724.176 24.1644 718.162 24.43 717.51 24.2C708.657 24.3019 704.76 24.1979 701.168 24.2004C698.835 24.2021 697.77 24.2573 695.134 24.263C691.361 24.2712 687.564 24.2446 685.387 24.2484C684.141 24.2507 683.909 24.3045 683.05 24.3062C678.99 24.3144 681.369 24.2594 677.089 24.263C676.694 24.2636 673.565 24.3293 670.039 24.3209C668.068 24.3162 662.967 24.2423 662.518 24.2425C660.522 24.2438 662.117 24.3915 655.296 24.2209C655.494 24.249 655.692 24.277 655.89 24.3051C647.448 24.3763 646.116 24.2512 644.411 24.2425C644.193 24.2418 642.138 24.2902 640.908 24.2835C638.831 24.2721 637.993 24.2059 637.533 24.2029C635.913 24.1928 630.454 24.2219 626.887 24.1579C627.637 24.3464 615.135 24.4135 612.366 24.2C610.153 24.2421 607.94 24.2842 605.727 24.3264C604.726 24.2912 603.725 24.256 602.724 24.2209C602.115 24.2559 601.506 24.291 600.898 24.326C597.673 24.2488 594.448 24.1717 591.223 24.0946C591.017 24.1718 590.812 24.2491 590.606 24.3264C589.704 24.3176 588.801 24.3088 587.898 24.3C587.193 24.2386 586.488 24.1772 585.783 24.1158C584.654 24.1275 583.525 24.1392 582.397 24.1509C582.117 24.1954 581.838 24.2398 581.559 24.2842C575.491 24.3355 578.609 23.9117 567.049 24.2842C565.25 24.2492 563.452 24.2142 561.653 24.1791C559.622 24.3497 555.816 24.2464 552.744 24.2656C550.58 24.2791 550.698 24.3468 547.748 24.3483C544.798 24.3498 544.903 24.285 544.673 24.2846C542.268 24.2806 540.454 24.3377 538.689 24.3264C538.424 24.3247 537.757 24.2477 535.509 24.2429C533.259 24.238 531.904 24.3198 528.554 24.3044C526.837 24.2966 526.341 24.2318 524.818 24.226C517.562 24.1981 510.255 24.5263 504.813 24.137C503.586 24.1864 494.688 24.359 490.88 24.3491C484.958 24.3332 487.24 24.2568 484.885 24.2429C484.547 24.2408 482.743 24.2665 477.775 24.2619C476.886 24.2611 477.092 24.3042 476.964 24.3048C471.172 24.3039 459.923 24.2699 453.562 24.2637C452.993 24.2631 450.017 24.3833 444.975 24.2216C437.501 24.341 423.424 24.0845 413.568 24.2645C412.202 24.2683 410.543 24.2253 409.938 24.2268C404.725 24.2401 406.635 24.3706 394.856 24.1795C395.81 24.2461 393.054 24.3062 389.161 24.3011C383.308 24.2935 387.465 24.1694 382.761 24.1795C382.761 24.2145 382.761 24.2496 382.761 24.2846C371.938 24.1904 369.785 24.3402 358.926 24.341C355.019 24.3412 349.249 24.2636 348.318 24.2634C347.958 24.2636 343.686 24.3481 343.278 24.3487C340.98 24.3512 339.683 24.3123 337.699 24.3121C331.145 24.3113 323.323 24.4211 324.738 24.2216C322.936 24.2637 321.134 24.3059 319.331 24.348C312.523 24.1349 307.431 24.4285 306.004 24.2216C304.786 24.2643 303.569 24.3071 302.351 24.3498C273.148 24.3282 243.945 24.3066 214.743 24.285C213.581 24.3516 200.847 24.3279 200.194 24.3176C197.195 24.2706 200.362 24.1255 194.243 24.1586C193.566 24.2222 192.889 24.2858 192.212 24.3494C184.52 24.3701 188.22 24.3069 185.184 24.2637C183.916 24.2716 184.326 24.3209 182.609 24.3245C173.297 24.3442 154.202 24.3465 144.019 24.3505C141.966 24.3514 142.276 24.3052 141.638 24.3051C141.193 24.3052 140.638 24.3091 140 24.3147L138.823 24.3098L138.01 23.4903C136.672 22.1759 134.816 20.3654 132.959 18.5091C128.843 14.3924 124.268 9.81465 119.48 5.02002L121.5 5.85673C102.953 5.84459 82.1238 5.81744 66.0827 5.78168C64.5952 5.7783 64.411 5.72327 63.4072 5.72053C62.0161 5.71695 58.9087 5.76143 57.4456 5.75678C56.0674 5.75255 55.1846 5.71076 53.7099 5.70588C46.9616 5.68305 37.8884 5.75366 30.6684 5.63044C30.0612 5.62005 22.4966 5.39852 22.3255 5.38399C21.3217 5.29776 28.0439 5.16228 17.0022 5.0361C26.8708 4.92598 23.7879 4.73132 10.9685 4.63621C17.3982 4.61167 23.8279 4.58714 30.2576 4.5626C30.2669 4.53953 30.2761 4.51646 30.2854 4.49339C24.4323 4.37906 18.6252 4.341 9.72507 4.33043C10.0026 4.30907 10.2802 4.28771 10.5577 4.26635C18.4187 4.15962 27.9015 4.13989 33.8879 3.99426C25.1083 3.88648 16.3287 3.77869 7.54914 3.67091C7.98766 3.65406 8.42617 3.63722 8.86469 3.62037C13.0733 3.57662 22.2663 3.55094 25.7614 3.51015C39.1102 3.3546 14.0783 3.39375 18.1901 3.29885C32.2837 3.30227 46.3773 3.30568 60.4708 3.3091C60.965 3.23922 6.7464 3.0462 7.3049 2.83524C11.7345 2.82108 16.164 2.80692 20.5936 2.79276C18.6194 2.73917 16.6451 2.68559 14.6709 2.632C15.2148 2.61503 15.7588 2.59806 16.3028 2.5811C23.7761 2.53947 31.2494 2.49785 38.7227 2.45622C16.0013 2.49806 5.44244 2.46769 0 2.04571C0.616143 2.03497 1.23229 2.02423 1.84843 2.01349C6.77062 2.27747 30.0051 2.19209 42.3529 2.13946C39.8362 2.06213 28.9639 2.12187 26.6662 2.07538C26.0151 2.06205 28.2857 2.00837 26.7772 1.9809C22.8348 1.90946 6.03471 1.81755 8.47613 1.73005C10.0483 1.67383 37.08 1.59669 42.3529 1.60261C29.9933 1.50159 17.2585 1.47236 4.86253 1.34957C12.687 1.17837 19.6166 0.968865 33.899 0.959565C38.2523 0.869739 8.01744 0.745302 7.31601 0.696268C12.5486 0.643657 17.7812 0.591046 23.0138 0.538436C18.5879 0.552473 14.162 0.566511 9.73617 0.580549C9.72322 0.562971 9.71027 0.545393 9.69732 0.527816C21.1623 0.446232 31.6512 0.296486 44.7731 0.306631C44.3498 0.213634 36.4985 0.222884 32.6889 0.222039ZM1280.68 24.0114C1280.95 24.0885 1276.14 24.0759 1273.43 24.0744C1273.83 24.0885 1274.24 24.1025 1274.65 24.1165C1268.87 24.1019 1258.11 24.0724 1257.71 24.222C1253.58 24.2406 1255.41 24.1105 1254.08 24.0957C1253.56 24.0897 1248.17 24.1655 1243.87 24.0733C1242.84 24.0737 1241.82 24.074 1240.8 24.0744C1240.6 24.1235 1240.4 24.1726 1240.2 24.2216C1238.78 24.1621 1237.35 24.1025 1235.92 24.0429C1250.84 24.0324 1265.75 24.0219 1280.66 24.0114C1280.67 24.0114 1280.67 24.0114 1280.68 24.0114ZM1132.05 24.0748C1126.62 24.0471 1118.3 24.0034 1119.98 24.1378C1123.41 24.1307 1126.84 24.1236 1130.27 24.1165C1130.86 24.1026 1131.45 24.0887 1132.05 24.0748ZM591.855 23.9689C587.32 23.8366 583.144 23.9511 576.13 23.9272C576.139 23.9552 576.148 23.9831 576.158 24.0111C579.026 23.9439 586.608 23.9886 591.855 23.9689ZM1407.97 5.50571C1408.97 5.51608 1409.96 5.52646 1410.96 5.53683C1406.9 5.68711 1406.17 5.58121 1401.58 5.59579C1401.3 5.5967 1401.4 5.6311 1401.3 5.63131C1400.18 5.63363 1399.14 5.59223 1398.12 5.59286C1396.16 5.59413 1394.56 5.63609 1391.09 5.63461C1388.41 5.63333 1388.38 5.56737 1387.44 5.56906C1386.64 5.57069 1378.67 5.75214 1373.55 5.67379C1363.8 5.52457 1404.99 5.49176 1407.97 5.50571ZM1436.86 5.62985C1435.89 5.63046 1434.93 5.63107 1433.97 5.63168C1436.87 5.53029 1431.02 5.5457 1426.72 5.54782C1426.86 5.45059 1435.94 5.49218 1440 5.46323C1438.95 5.51877 1437.91 5.57431 1436.86 5.62985ZM1317.2 7.01487C1318.68 5.52516 1319.23 5.02982 1319.41 4.90692L1318 5.48969C1318.13 5.51267 1318.07 5.53682 1318 5.55422L1319.45 4.95255C1319.44 4.97245 1319.43 4.99241 1319.42 5.00755C1318.57 5.85667 1317.72 6.70579 1316.87 7.5549C1316.98 7.37489 1317.09 7.19488 1317.2 7.01487ZM1343.32 5.37937C1342.15 5.4618 1333.96 5.49784 1330.08 5.50461C1329.91 5.50462 1330.97 5.45938 1328.23 5.46359C1327.4 5.46491 1319.29 5.62952 1321.08 5.44272C1328.49 5.4216 1335.9 5.40048 1343.31 5.37937C1343.31 5.37937 1343.32 5.37937 1343.32 5.37937ZM1351.59 5.42807C1350.05 5.45395 1348.51 5.47983 1346.96 5.50571C1346.17 5.46701 1345.37 5.42832 1344.57 5.38962C1346.33 5.37985 1348.08 5.37009 1349.84 5.36032C1350.42 5.38291 1351.01 5.40549 1351.59 5.42807ZM198.04 23.3182C198.399 23.3596 198.758 23.401 199.117 23.4424C200.508 23.4677 207.269 23.2875 205.128 23.2527C202.766 23.2745 200.403 23.2964 198.04 23.3182ZM169.487 23.2314C168.08 23.2105 166.674 23.1897 165.268 23.1688C163.651 23.239 162.034 23.3092 160.416 23.3794C167.441 23.4267 174.916 23.4812 173.711 23.2743C175.319 23.2743 176.927 23.2743 178.534 23.2743C177.18 23.3598 177.363 23.388 181.571 23.4424C182.491 23.3233 186.842 23.3839 191.823 23.3578C188.2 23.3508 184.577 23.3438 180.955 23.3369C180.955 23.3159 180.955 23.2949 180.955 23.2739C189.03 23.2815 178.993 23.1483 173.733 23.2318C173.318 23.2038 172.904 23.1759 172.49 23.1479C171.489 23.1758 170.488 23.2036 169.487 23.2314ZM753.174 23.2739C752.173 23.2528 751.172 23.2317 750.171 23.2105C746.292 23.4856 754.19 23.2247 759.813 23.4424C757.955 23.277 766.527 23.2839 767.018 23.2728C766.031 23.2171 765.045 23.1615 764.059 23.1058C760.431 23.1618 756.802 23.2179 753.174 23.2739ZM724.798 23.0842C728.269 23.2214 711.218 23.2298 705.498 23.1996C704.107 23.1921 701.628 23.1168 700.624 23.1263C700.015 23.1542 699.407 23.182 698.798 23.2098C698.077 23.1136 686.907 23.2218 682.506 23.2735C682.092 23.2385 681.677 23.2035 681.263 23.1684C679.659 23.1824 678.054 23.1963 676.45 23.2102C676.652 23.1753 676.854 23.1404 677.055 23.1054C675.841 23.1474 674.628 23.1894 673.414 23.2314C668.649 23.2781 671.587 23.0878 668.007 23.1472C664.028 23.2131 670.548 23.3265 670.427 23.4002C673.657 23.3812 681 23.3386 684.277 23.3365C686.159 23.3354 684.026 23.4675 692.137 23.3156C693.915 23.351 695.693 23.3864 697.471 23.4218C700.735 23.3656 703.999 23.3093 707.263 23.253C707.872 23.302 708.48 23.3509 709.089 23.3999C709.438 23.4075 716.986 23.2964 716.583 23.2596C719.64 23.3532 725.918 23.3699 732.53 23.3746C733.167 23.348 733.803 23.3214 734.44 23.2948C728.044 23.3522 732.405 23.2666 730.499 23.2157C729.398 23.1863 726.032 23.1286 724.798 23.0842ZM242.597 23.2109C231.858 23.3303 238.507 23.2318 226.899 23.2318C227.709 23.295 228.52 23.3582 229.33 23.4215C235.037 23.306 244.428 23.3828 242.608 23.2109C242.604 23.2109 242.6 23.2109 242.597 23.2109ZM130.87 15.0872C135.241 19.4036 133.131 17.1544 138.659 22.6378C138.661 22.6405 138.664 22.6431 138.667 22.6457C135.825 19.7937 132.983 16.9418 130.141 14.0898C130.384 14.4223 130.627 14.7547 130.87 15.0872ZM488.099 23.3446C493.988 23.3721 492.829 23.3229 498.174 23.4211C506.131 23.3019 499.395 23.3188 499.395 23.2105C497.576 23.2423 495.757 23.274 493.939 23.3058C489.529 23.2046 493.711 23.1536 493.711 23.1439C493.707 23.1439 493.704 23.1439 493.7 23.1439C493.7 23.1114 493.843 23.1046 492.151 23.0849C490.801 23.1715 489.45 23.258 488.099 23.3446ZM513.305 23.2109C511.286 23.2828 510.378 23.375 515.687 23.4211C515.691 23.4211 515.694 23.4211 515.698 23.4211C516.124 23.2605 521.214 23.3901 523.536 23.3794C524.144 23.3619 524.753 23.3445 525.362 23.327C521.343 23.2883 517.324 23.2496 513.305 23.2109ZM602.119 23.0633C602.141 23.2408 597.685 23.2576 603.956 23.4211C605.174 23.4179 606.391 23.4148 607.609 23.4116C608.408 23.3727 609.207 23.3337 610.007 23.2948C625.45 23.6158 630.055 23.0692 603.956 23.2735C603.953 23.2737 603.949 23.2738 603.945 23.2739C603.336 23.2037 602.728 23.1335 602.119 23.0633ZM574.92 23.0784C574.724 23.1715 574.528 23.2646 574.331 23.3578C570.921 23.1331 566.515 23.3475 559.827 23.1889C559.222 23.2173 558.617 23.2456 558.012 23.2739C555.513 23.2116 530.962 23.1936 536.28 23.3369C538.602 23.3995 543.661 23.3145 544.096 23.3164C545.571 23.3234 547.495 23.4034 549.985 23.3988C551.425 23.396 554.458 23.3019 557.396 23.3021C563.963 23.3025 575.949 23.555 584.584 23.316C585.205 23.3441 585.827 23.3722 586.449 23.4002C592.856 23.3831 590.717 23.2941 596.679 23.4002C600.798 22.9579 572.713 23.4221 578.561 23.0633C578.557 23.0633 578.554 23.0633 578.55 23.0633C577.34 23.0683 576.13 23.0733 574.92 23.0784ZM398.497 23.2109C398.111 23.1315 390.678 23.2541 392.425 23.0637C389.999 23.13 387.573 23.1963 385.148 23.2625C385.166 23.2802 385.185 23.2979 385.203 23.3156C387.614 23.3017 390.025 23.2878 392.436 23.2739C392.445 23.302 392.454 23.3301 392.464 23.3581C396.056 23.2566 411.049 23.3008 410.593 23.4002C411.394 23.3582 412.195 23.3163 412.996 23.2743C420.168 23.3886 426.338 23.267 434.151 23.3786C434.756 23.3438 435.361 23.3091 435.966 23.2743C436.36 23.3023 436.754 23.3304 437.148 23.3585C439.994 23.362 442.839 23.3656 445.685 23.3691C454.959 23.2561 436.94 23.1097 434.756 23.1263C434.465 23.1286 434.51 23.2013 432.696 23.2127C429.474 23.2328 411.44 23.1604 405.863 23.2084C405.815 23.1601 405.767 23.1119 405.719 23.0637C403.312 23.1128 400.905 23.1618 398.497 23.2109ZM636.578 23.253C636.986 23.3021 637.393 23.3512 637.8 23.4002C644.825 23.3512 649.248 23.3941 647.447 23.2318C647.443 23.2318 647.44 23.2318 647.436 23.2318C643.817 23.2389 640.198 23.2459 636.578 23.253ZM1158.65 23.2948C1158.47 23.1972 1155.11 23.1608 1150.77 23.2307C1150.98 23.259 1151.19 23.2873 1151.4 23.3156C1153.66 23.2326 1156.48 23.3774 1163.46 23.3581C1163.46 23.3091 1163.46 23.26 1163.46 23.2109C1161.86 23.2389 1160.25 23.2668 1158.65 23.2948ZM630.517 23.2318C628.376 23.1739 622.366 23.3495 626.321 23.3581C629.344 23.3647 631.666 23.2629 630.517 23.2318ZM112.51 4.82627C114.097 4.83652 115.685 4.84677 117.273 4.85703C118.1 4.81528 118.927 4.77354 119.754 4.73179C119.75 4.73179 119.746 4.73179 119.743 4.73179C117.332 4.76328 114.921 4.79477 112.51 4.82627ZM467.966 23.3526C473.351 23.3465 478.735 23.3404 484.119 23.3343C484.173 23.3071 484.226 23.2799 484.28 23.2527C478.886 23.352 476.718 23.2449 475.46 23.2384C475.465 23.2384 475.471 23.2384 475.477 23.2384C471.438 23.2168 467.591 23.201 463.77 23.1684C465.169 23.2298 466.567 23.2912 467.966 23.3526ZM449.51 23.1809C450.417 23.3732 451.601 23.3956 459.873 23.2604C459.546 23.2367 459.218 23.213 458.891 23.1893C454.604 23.2035 452.104 23.2479 452.857 23.1476C451.741 23.1587 450.625 23.1698 449.51 23.1809ZM533.827 23.2424C532.834 23.1812 524.956 23.2427 525.384 23.2735C525.554 23.2858 535.762 23.3625 533.827 23.2424ZM1218.46 23.2523C1216.65 23.2383 1214.83 23.2242 1213.02 23.2102C1215.43 23.1893 1217.85 23.1684 1220.26 23.1476C1219.66 23.1825 1219.06 23.2174 1218.46 23.2523ZM1238.39 22.9787C1239.68 23.0033 1235.48 23.1762 1243.21 23.2208C1237.58 23.2245 1231.95 23.2281 1226.32 23.2318C1228.96 23.2038 1231.6 23.1759 1234.24 23.1479C1233.78 23.0982 1233.32 23.0486 1232.86 22.9989C1234.7 22.9922 1236.55 22.9855 1238.39 22.9787ZM1244.43 23.1054C1241.4 22.974 1257.37 22.9641 1258.86 22.9802C1259.19 22.984 1260.76 23.0837 1261.34 23.1051C1258.93 23.1052 1256.52 23.1053 1254.11 23.1054C1254.92 23.1368 1255.72 23.1682 1256.53 23.1996C1253.71 23.2103 1250.89 23.221 1248.06 23.2318C1249.27 23.2003 1250.48 23.1688 1251.68 23.1373C1249.27 23.1267 1246.85 23.1161 1244.43 23.1054ZM1180.38 23.1373C1182.4 23.1406 1184.41 23.1439 1186.43 23.1472C1186.03 23.0981 1185.63 23.0491 1185.22 23C1184.01 23 1182.81 23 1181.6 23C1181.19 23.0458 1180.78 23.0915 1180.38 23.1373ZM1221.51 23.074C1218.57 23.3102 1210.56 22.7937 1219.92 22.985C1220.87 23.0044 1221.79 23.0511 1221.51 23.074ZM1264.84 23.0084C1271.12 22.8362 1269.7 23.2165 1263.77 23.1051C1263.48 23.0992 1264.37 23.0211 1264.84 23.0084ZM1309.48 14.149C1309.84 13.7904 1310.55 13.249 1313.9 9.73458C1314.48 9.17799 1315.05 8.6214 1315.63 8.06482C1314.35 9.43102 1303.03 20.7962 1304.51 19.1431C1306.24 17.4058 1307.68 15.9421 1309.48 14.149ZM1296.37 22.5474C1293.96 22.5508 1291.55 22.5542 1289.15 22.5576C1289.94 22.5962 1290.73 22.6348 1291.53 22.6733C1290.34 22.6838 1289.16 22.6943 1287.97 22.7048C1285.95 22.6383 1283.93 22.5718 1281.9 22.5052C1287.14 22.4946 1292.37 22.484 1297.6 22.4734C1297.19 22.498 1296.78 22.5227 1296.37 22.5474ZM1232.37 22.4521C1237 22.5005 1242.67 22.449 1250.2 22.4573C1250.2 22.4574 1250.2 22.4575 1250.21 22.4576C1250.58 22.4582 1251.25 22.5112 1252.46 22.5133C1253.48 22.515 1273.8 22.4568 1272.22 22.5466C1264.36 22.6271 1261.42 22.5047 1259.53 22.7045C1259.15 22.6623 1258.77 22.6202 1258.38 22.5781C1250.82 22.5052 1248.67 22.651 1244.42 22.7045C1244.44 22.6727 1244.46 22.641 1244.47 22.6092C1241.64 22.6061 1238.8 22.6029 1235.97 22.5997C1236.37 22.6206 1236.77 22.6415 1237.17 22.6623C1236.17 22.6623 1235.16 22.6623 1234.16 22.6623C1231.72 22.5683 1228.62 22.5464 1232.37 22.4521ZM1305.93 17.1256C1306.77 16.0836 1312.62 10.2305 1318.69 4.18602L1318 4.47018C1323.77 4.47915 1329.66 4.49371 1333.65 4.47339C1329.39 4.59211 1323.21 4.54658 1318 4.5254L1318.73 4.22507C1317.91 5.03602 1317.12 5.81455 1316.4 6.54013C1308.64 14.2912 1314.07 8.99477 1312.78 10.3376C1312.14 11.0011 1307.63 15.2896 1305.93 17.1256ZM1215.45 22.4943C1220.91 22.5137 1223.97 22.4583 1228.7 22.5466C1228.31 22.5642 1227.91 22.5818 1227.52 22.5994C1225.9 22.5833 1212.69 22.5325 1215.45 22.4943ZM1348.16 4.53638C1337.6 4.44993 1342.81 4.66789 1337.32 4.50452C1340.93 4.49414 1344.55 4.48376 1348.16 4.47339C1348.16 4.49438 1348.16 4.51538 1348.16 4.53638ZM618.433 22.3262C613.984 22.3207 609.015 22.2767 606.354 22.3676C609.378 22.3816 612.401 22.3956 615.424 22.4097C616.427 22.3818 617.43 22.354 618.433 22.3262ZM745.314 21.4389C744.298 21.4171 740.281 21.4814 739.857 21.4814C739.071 21.4814 739.286 21.4497 739.275 21.4414C734.127 21.4472 738.876 21.5453 735.067 21.5667C734.416 21.5702 725.468 21.5217 721.828 21.5257C716.229 21.5318 710.637 21.5254 708.545 21.5271C705.013 21.5299 698.457 21.6035 692.653 21.6073C690.26 21.6088 689.425 21.5498 687.019 21.5513C671.575 21.5612 641.172 21.6422 627.47 21.6048C624.084 21.5955 620.856 21.5183 619.066 21.5246C617.654 21.5528 616.242 21.581 614.83 21.6092C610.489 21.3553 609.036 21.5811 604.356 21.6048C601.383 21.6197 599.993 21.5445 599.593 21.5447C596.945 21.5462 595.639 21.582 593.56 21.5879C591.225 21.5945 587.872 21.5605 587.037 21.5667C586.525 21.5708 588.161 21.6707 579.105 21.6688C569.876 21.6669 560.765 21.6563 551.379 21.6516C554.509 21.9534 557.205 21.7469 561.037 21.7359C562.065 21.7329 561.413 21.7808 562.308 21.7787C564.836 21.773 569.675 21.7259 571.767 21.7373C574.026 21.7496 573.254 21.8607 576.119 21.8197C576.264 21.8176 575.805 21.7717 576.48 21.7641C583.252 21.6882 585.469 21.768 594.031 21.7703C599.705 21.772 634.158 21.7265 635.341 21.7564C641.509 21.917 605.204 21.9181 600.959 21.9054C599.473 21.901 601.031 21.8503 599.677 21.8406C599.103 21.8367 593.942 21.9333 588.841 21.9413C582.674 21.951 570.279 21.8852 564.401 21.8875C513.874 21.9075 464.047 21.8492 413.568 21.8479C412.492 21.8479 411.074 21.9058 407.568 21.9058C342.116 21.9047 274.279 21.8591 207.993 21.8864C193.541 21.8923 179.209 21.9467 164.624 21.9036C162.814 21.9458 161.005 21.9881 159.195 22.0303C163.824 21.9967 172.305 22.0922 173.078 22.0936C173.356 22.0941 175.111 22.0464 177.94 22.049C181.919 22.0523 183.664 22.0936 183.991 22.0936C185.003 22.0938 184.34 22.0499 185.306 22.0501C192.514 22.052 198.091 22.0395 204.707 22.0391C212.179 22.0387 215.967 22.1205 221.409 22.0307C222.025 22.0657 222.641 22.1007 223.257 22.1358C227.323 21.9842 251.534 22.001 261.342 22.009C264.436 22.0116 263.893 22.0731 264.933 22.0731C265.597 22.0731 265.335 21.9925 273.432 22.0083C277.507 22.0163 278.576 22.075 280.62 22.0731C281.73 22.072 281.55 22.0138 283.145 22.0138C292.373 22.0138 299.907 22.0327 308.94 22.0435C311.48 22.0464 311.508 22.095 312.076 22.0944C314.169 22.0922 317.809 22.0099 323.128 22.0101C331.884 22.0106 349.335 22.0109 356.494 22.0508C357.546 22.0567 358.418 22.115 359.192 22.1141C360.364 22.1127 360.823 22.0519 361.029 22.0515C364.948 22.0505 362.59 22.107 365.215 22.0933C366.629 22.0859 368.105 22.0165 371.393 22.0087C375.734 21.9983 374.88 22.0806 376.694 22.0724C376.885 22.0711 376.943 22.0139 378.725 22.012C385.486 22.0052 395.292 21.992 401.689 21.9922C403.527 21.9922 404.894 22.0307 407.457 22.0314C412.621 22.0327 441.973 22.0081 444.381 22.0303C444.635 22.0326 442.024 22.117 446.185 22.1145C447.393 22.0794 448.601 22.0442 449.809 22.009C451.83 22.0653 453.85 22.1216 455.871 22.1779C455.798 21.9834 467.685 21.9534 467.567 22.1522C468.867 22.1603 470.168 22.1683 471.469 22.1764C474.177 22.039 475.981 22.0897 481.216 22.009C482.032 22.0512 482.848 22.0933 483.664 22.1354C483.869 22.1073 484.075 22.0792 484.28 22.0512C487.074 22.2033 491.656 22.0505 492.212 22.0497C494.352 22.0463 495.96 22.085 496.964 22.0838C500.713 22.0797 508.827 22.0264 513.206 22.0512C513.411 22.0524 513.209 22.1175 514.454 22.1255C516.701 22.14 516.92 22.0448 519.917 22.1566C520.521 22.1286 521.127 22.1005 521.732 22.0724C522.374 22.0869 523.016 22.1015 523.658 22.116C527.447 22.1085 531.236 22.1011 535.026 22.0936C531.579 22.2038 535.545 22.2653 539.294 22.1786C540.563 22.1492 539.438 22.0822 539.861 22.072C540.441 22.0583 557.448 22.0924 558.573 22.1358C559.377 22.1146 560.182 22.0935 560.987 22.0724C561.394 22.1146 561.801 22.1569 562.208 22.1991C562.652 22.1843 563.096 22.1696 563.541 22.1548C567.966 22.2292 579.454 22.0586 581.536 22.072C582.649 22.0792 581.648 22.2592 586.982 22.2409C587.167 22.1914 587.352 22.142 587.537 22.0925C588.758 22.0855 589.979 22.0784 591.2 22.0713C593.492 22.0757 596.828 22.1614 596.934 22.22C597.651 22.1848 598.366 22.1497 599.083 22.1145C601.005 22.2291 611.26 22.1885 615.385 22.116C616.592 22.1505 617.798 22.1851 619.005 22.2196C620.625 22.1776 622.246 22.1356 623.867 22.0936C627.622 22.081 623.655 22.1508 624.455 22.1566C626.149 22.1687 634.777 22.0507 634.208 22.1976C635.385 22.198 636.562 22.1984 637.739 22.1987C638.344 22.1567 638.949 22.1148 639.554 22.0728C641.574 22.2175 645.069 22.1664 652.237 22.2192C652.839 22.1859 653.44 22.1526 654.041 22.1193C656.258 22.1666 658.475 22.214 660.691 22.2614C661.147 22.2062 661.602 22.151 662.057 22.0958C663.021 22.0879 663.985 22.08 664.949 22.072C666.907 22.1956 670.424 22.0621 672.215 22.113C674.827 22.1874 672.807 22.2761 667.957 22.2932C668.32 22.3832 682.766 22.3419 686.097 22.3353C685.877 22.3178 685.657 22.3002 685.437 22.2826C682.031 22.2965 678.624 22.3104 675.218 22.3243C672.364 22.098 681.614 22.1587 685.859 22.1295C686.247 22.1267 688.447 22.041 692.725 22.049C694.382 22.0521 700.845 22.1775 702.078 22.1845C712.041 22.2417 704.715 22.0626 714.462 22.2196C712.431 22.0993 718.031 22.1993 723.86 22.176C724.852 22.1721 733.267 22.0746 733.835 22.072C737.378 22.0564 733.521 22.1627 738.647 22.135C739.263 22.1071 739.88 22.0791 740.496 22.0512C741.689 22.0512 742.883 22.0512 744.076 22.0512C751.318 22.3003 753.003 22.1168 755.577 22.0933C756.617 22.0838 755.278 22.1488 757.975 22.135C758.991 22.1299 760.117 22.0758 762.849 22.072C771.398 22.0602 774.3 22.2917 782.16 22.0508C783.367 22.0857 784.573 22.1206 785.779 22.1555C786.594 22.1137 787.408 22.0718 788.222 22.0299C794.449 22.1514 792.201 22.027 794.45 22.0285C800.388 22.0323 812.542 22.0561 813.606 22.1563C818.732 21.9261 824.863 22.1857 826.883 22.1768C828.084 22.1488 829.285 22.1209 830.486 22.0929C831.898 22.121 833.31 22.1491 834.721 22.1771C834.035 21.9512 841.347 22.1734 842.048 22.1768C842.859 22.1801 854.104 22.1133 858.29 22.1145C862.47 22.1158 869.755 22.177 870.396 22.1771C871.134 22.1771 878.25 22.1157 883.813 22.1163C888.681 22.117 917.52 22.2043 915.702 22.1035C913.816 22.0756 911.13 22.0514 908.808 22.0383C901.6 21.9982 859.294 21.9467 848.482 21.9307C826.799 21.8988 804.184 21.9047 782.405 21.8827C781.123 21.8814 780.928 21.8229 779.829 21.8216C778.16 21.8199 773.925 21.8785 772.28 21.8772C766.136 21.8721 758.661 21.8626 755.372 21.8611C748.02 21.8581 742.977 21.8229 737.415 21.8172C735.673 21.8155 726.87 21.8881 720.835 21.8574C719.741 21.841 718.648 21.8245 717.554 21.808C720.662 21.7888 728.817 21.739 732.602 21.7333C738.236 21.7251 741.175 21.7726 743.255 21.7717C744.996 21.7711 753.895 21.717 757.948 21.7157C759.206 21.7153 759.463 21.7767 760.54 21.7765C766.381 21.775 774.074 21.7734 779.141 21.7132C777.073 21.7328 789.987 21.7705 790.664 21.7703C791.825 21.7703 793.084 21.7128 795.455 21.7128C800.012 21.7128 799.434 21.833 805.13 21.7128C806.54 21.7478 807.949 21.7829 809.359 21.8179C809.446 21.6577 827.262 21.8756 832.329 21.6809C832.462 21.659 809.311 21.5966 807.4 21.5934C795.936 21.5742 778.971 21.6135 767.845 21.5854C764.496 21.5769 753.968 21.4795 753.174 21.4814C751.893 21.4841 753.05 21.5398 752.497 21.5418C741.169 21.5832 746.82 21.4713 745.314 21.4389ZM1244.42 22.3467C1240.98 22.3401 1237.54 22.3335 1234.1 22.3269C1234.35 22.2918 1234.6 22.2566 1234.85 22.2214C1236.42 22.2351 1238 22.2488 1239.58 22.2625C1240.79 22.2415 1242 22.2205 1243.21 22.1995C1243.62 22.2485 1244.02 22.2976 1244.42 22.3467ZM1252.9 22.1995C1255.89 22.1818 1256.03 22.2559 1256.72 22.2595C1258.78 22.2705 1260.56 22.2405 1262.55 22.2416C1260.25 22.4177 1255.36 22.337 1252.9 22.1995ZM1191.26 22.1361C1191.94 22.1445 1196.43 22.3341 1201.54 22.1577C1205.36 22.2138 1209.18 22.2698 1213.01 22.3258C1206.51 22.2402 1197.52 22.3292 1194.34 22.3258C1193.14 22.3245 1192.9 22.2663 1191.94 22.2654C1186.38 22.2607 1180.97 22.3926 1180.4 22.1998C1185.66 22.2558 1190.4 22.1258 1191.26 22.1361ZM1224.83 22.2046C1225.72 22.2449 1226.61 22.2852 1227.5 22.3254C1224.29 22.3254 1221.07 22.3254 1217.86 22.3254C1218.73 22.2847 1219.6 22.2439 1220.47 22.2031C1221.92 22.2036 1223.38 22.2041 1224.83 22.2046ZM977.439 22.0713C979.422 22.0718 981.406 22.0723 983.389 22.0728C983.281 22.0434 981.011 22.0435 980.175 22.0237C980.179 22.0237 980.183 22.0237 980.186 22.0237C979.255 22.0013 979.654 21.9635 977.961 21.9468C977.787 21.9883 977.613 22.0298 977.439 22.0713ZM156.792 21.9043C155.211 21.9033 147.437 21.9027 140 21.9139L139.827 21.9132L139.707 21.7927C133.9 16.0027 128.372 10.5121 129.302 11.5217C130.17 12.4629 137.218 19.451 139.635 21.8654L139.784 22.0159L140 22.0168C140.104 22.0167 140.203 22.0167 140.295 22.0167C144.468 22.0178 155.74 22.1336 156.792 21.9043ZM110.079 3.38344C109.776 3.44414 115.856 3.4758 121.5 3.4884L121.155 3.34535C124.172 6.37604 127.02 9.22185 127.597 9.78806C127.326 9.4956 126.916 9.03757 126.546 8.65677C125.749 7.83624 123.606 5.68579 121.213 3.28719L121.5 3.40615C117.224 3.40143 112.386 3.39971 110.079 3.38344ZM866.361 21.7633C867.908 21.8173 869.455 21.8712 871.002 21.9252C870.594 21.855 870.188 21.7848 869.78 21.7146C868.641 21.7309 867.501 21.7471 866.361 21.7633ZM716.311 21.8406C690.542 21.8372 664.773 21.8338 639.004 21.8303C641.271 21.8012 643.537 21.772 645.804 21.7428C668.008 21.7532 691.688 21.7827 713.13 21.7377C714.19 21.772 715.251 21.8063 716.311 21.8406ZM1184 21.8201C1177.4 21.819 1171.88 21.8706 1164.7 21.7886C1171.55 21.7091 1174.94 21.8321 1181.59 21.715C1181.59 21.715 1181.6 21.715 1181.6 21.715C1182.4 21.75 1183.2 21.7851 1184 21.8201ZM1036.59 21.7988C1038.6 21.7498 1040.61 21.7007 1042.62 21.6516C1040.2 21.6516 1037.79 21.6516 1035.37 21.6516C1035.78 21.7007 1036.19 21.7498 1036.59 21.7988ZM491.535 21.5678C484.629 21.6749 466.962 21.481 461.35 21.6099C460.987 21.6183 464.323 21.6727 458.929 21.778C463.004 21.7564 465.881 21.7344 466.184 21.6516C467.394 21.6797 468.605 21.7078 469.815 21.7359C471.822 21.7146 473.83 21.6934 475.837 21.6721C475.62 21.7546 475.779 21.7502 478.863 21.6938C480.269 21.7146 481.675 21.7355 483.081 21.7564C483.677 21.7215 484.273 21.6865 484.869 21.6516C486.086 21.7005 487.303 21.7493 488.521 21.7981C493.267 21.7451 490.376 21.6505 491.535 21.5678ZM515.709 21.5879C514.586 21.5698 482.568 21.629 497.119 21.7934C500.901 21.7881 504.683 21.7829 508.465 21.7776C505.333 21.5054 515.64 21.7488 516.486 21.7545C520.536 21.7811 525.698 21.7164 528.637 21.7197C531.164 21.7227 532.665 21.7715 534.443 21.7703C540.498 21.7661 550.062 21.7643 551.379 21.6516C546.672 21.6493 541.891 21.6481 536.996 21.6509C531.82 21.6539 527.27 21.5475 517.546 21.6934C515.142 21.6777 515.999 21.5926 515.709 21.5879ZM1048.66 21.663C1048.42 21.7761 1060.64 21.7491 1060.72 21.7044C1060.74 21.6782 1056.76 21.6788 1056.19 21.6688C1056.19 21.6688 1056.19 21.6688 1056.18 21.6688C1055.95 21.6645 1057.15 21.6212 1055.28 21.6092C1053.07 21.6271 1050.87 21.645 1048.66 21.663ZM204.546 21.6513C202.894 21.5878 165.158 21.6106 164.047 21.641C163.745 21.6495 164.166 21.6773 164.047 21.6934C172.85 21.6038 185.365 21.7098 193.721 21.7168C196.051 21.7187 195.355 21.6737 195.487 21.6729C195.492 21.6729 195.498 21.6729 195.503 21.6729C196.825 21.6728 202.793 21.7827 204.546 21.6513ZM449.265 21.6615C450.87 21.6792 452.474 21.6969 454.078 21.7146C454.485 21.6796 454.892 21.6446 455.299 21.6095C455.295 21.6095 455.292 21.6095 455.288 21.6095C453.281 21.6269 451.273 21.6442 449.265 21.6615ZM393.685 21.5462C394.075 21.5708 394.466 21.5955 394.856 21.6201C398.895 21.6236 402.934 21.627 406.974 21.6304C406.567 21.6443 406.159 21.6582 405.752 21.6721C411.86 21.7093 414.389 21.6227 417.642 21.6352C417.639 21.6352 417.635 21.6352 417.631 21.6352C417.981 21.6366 418.405 21.688 419.707 21.6897C422.693 21.6937 431.251 21.7129 432.285 21.6612C434.474 21.5509 417.251 21.6032 414.04 21.5982C412.589 21.5958 410.843 21.5509 409.96 21.5498C408.993 21.5488 407.675 21.6096 405.319 21.6077C404.63 21.6071 396.987 21.5356 393.685 21.5462ZM322.39 21.6198C323.636 21.6754 326.236 21.6217 327.191 21.6308C327.42 21.6329 325.644 21.6794 327.796 21.6934C328.405 21.6616 329.014 21.6299 329.623 21.5982C327.212 21.6054 324.801 21.6126 322.39 21.6198ZM1069.19 21.6095C1068.84 21.5976 1062.28 21.602 1061.97 21.6095C1058.04 21.711 1071.62 21.7 1069.19 21.6095ZM1234.76 21.4934C1231.74 21.346 1267.55 21.4909 1271.02 21.4832C1270.84 21.5759 1262.33 21.4827 1266.79 21.6099C1262.53 21.5399 1250.76 21.5771 1247.99 21.5568C1246.31 21.5445 1245.89 21.4645 1245.63 21.4619C1244.64 21.4529 1235.82 21.5454 1234.76 21.4934ZM1300.46 21.1064C1300.32 21.2477 1300.17 21.3891 1300.03 21.5304L1300.02 21.5431L1300 21.5431C1296.8 21.5265 1293.6 21.51 1290.4 21.4934C1293.6 21.4851 1296.8 21.4767 1300 21.4683L1299.98 21.4776C1300.55 20.9009 1301.13 20.3243 1301.7 19.7476C1301.29 20.2005 1300.87 20.6535 1300.46 21.1064ZM1303.46 18.0504C1303.32 18.0638 1311.53 9.9452 1313.66 7.78411C1311.35 10.3121 1307.21 14.2472 1303.46 18.0504ZM1112.71 21.3777C1107.39 21.3183 1105.1 21.5921 1111.57 21.4729C1111.77 21.469 1112.93 21.3809 1112.71 21.3777ZM489.892 21.1825C488.985 21.1808 477.7 21.0921 477.047 21.136C474.982 21.2763 482.387 21.22 484.869 21.273C488.872 21.3588 482.984 21.4295 492.756 21.3777C492.357 21.4058 491.957 21.4339 491.557 21.4619C497.276 21.4712 495.404 21.2768 496.431 21.2517C496.745 21.2441 500.321 21.2605 500.966 21.2481C509.025 21.0914 490.734 21.1838 489.892 21.1825ZM980.986 21.3568C970.392 21.2744 974.95 21.3954 964.078 21.388C963.715 21.4497 979.607 21.411 980.986 21.3568ZM593.049 21.2935C582.092 21.3178 573.082 21.2371 562.863 21.3455C563.529 21.5125 595.891 21.3366 593.049 21.2935ZM85.9159 2.62431C97.3716 2.70422 109.3 2.75559 121.5 2.78789L121.587 2.78753L121.65 2.85001C127.721 8.95362 133.895 15.1463 140.119 21.3806L140 21.3311C165.164 21.3515 190.858 21.3216 215.442 21.3191C220.388 21.3187 220.863 21.3849 222.652 21.3777C223.825 21.3731 223.62 21.3197 225.178 21.3195C281.499 21.3108 335.427 21.2411 389.377 21.273C392.776 21.2751 409.309 21.3896 412.841 21.217C415.512 21.086 403.635 21.1881 401.656 21.1869C400.168 21.1861 400.105 21.1245 399.114 21.1243C398.061 21.1241 398.931 21.1662 397.709 21.1668C392.533 21.1697 386.886 21.1533 382.206 21.1569C336.31 21.1914 291.659 21.1815 246.005 21.1756C240.479 21.1749 241.615 21.1256 241.337 21.1254C241.333 21.1255 241.329 21.1257 241.325 21.1258C211.696 21.1211 177.856 21.2318 146.473 21.1895C144.315 21.1862 142.158 21.1829 140 21.1796L140.227 21.2734C134.069 15.0973 127.912 8.92114 121.755 2.745L121.648 2.63877L121.5 2.63938C110.279 2.62215 99.0576 2.60492 87.8365 2.58769C87.1963 2.5999 86.5561 2.6121 85.9159 2.62431ZM513.289 21.3565C510.531 21.1705 509.915 21.358 500.022 21.2821C499.217 21.3139 498.413 21.3456 497.608 21.3774C502.84 21.3704 508.073 21.3634 513.305 21.3565C513.3 21.3565 513.294 21.3565 513.289 21.3565ZM447.95 21.2887C446.278 21.0375 424.156 21.2151 414.195 21.1672C412.369 21.2933 426.85 21.2366 430.265 21.2499C431.97 21.2565 441.102 21.3862 448.044 21.3144C448.013 21.3058 447.981 21.2973 447.95 21.2887ZM1197.3 21.1243C1195.69 21.1316 1194.08 21.139 1192.47 21.1463C1196.5 21.1741 1200.52 21.2019 1204.55 21.2298C1198.13 21.2118 1191.7 21.1939 1185.27 21.1759C1186.47 21.1238 1187.67 21.0717 1188.86 21.0196C1191.68 21.0545 1194.49 21.0894 1197.3 21.1243ZM1176.45 21.151C1187.7 21.1314 1175.95 21.2709 1173.14 21.2089C1171.46 21.1717 1175.3 21.1532 1176.45 21.151ZM1147.18 21.0613C1152.43 20.9698 1163.03 20.9635 1159.26 21.1463C1153.59 21.0607 1149.93 21.1318 1141.71 21.0826C1142.91 21.0475 1144.11 21.0125 1145.31 20.9775C1145.32 20.9775 1145.32 20.9775 1145.33 20.9775C1145.95 21.0054 1146.56 21.0334 1147.18 21.0613ZM1181.59 21.0404C1188.96 21.1454 1167.62 21.1095 1174.33 21.0404C1174.64 21.0373 1181.3 21.0364 1181.59 21.0404ZM130.061 10.7625C129.391 10.1769 133.4 14.1845 134.731 15.5208C136.48 17.2774 138.382 19.1813 140.351 21.1494L140 21.0042C146.397 21.0031 153.283 20.9922 159.206 20.998C158.566 20.9783 157.926 20.9587 157.286 20.939C151.524 20.9384 145.762 20.9377 140 20.937L140.398 21.1019C136.952 17.6554 133.507 14.209 130.061 10.7625ZM185.8 20.9983C191.642 20.9983 197.483 20.9983 203.324 20.9983C203.869 20.9983 206.422 20.9471 204.523 20.9346C198.282 20.9559 192.041 20.9771 185.8 20.9983ZM550.163 20.9983C545.684 20.9649 558.581 20.7935 558.001 20.9771C555.388 20.9842 552.776 20.9913 550.163 20.9983ZM591.839 20.9251C589.03 20.9426 586.221 20.96 583.413 20.9775C583.409 20.9563 583.405 20.9352 583.401 20.9141C586.214 20.9178 589.026 20.9214 591.839 20.9251ZM110.079 2.39324C112.429 2.45033 117.353 2.45538 121.5 2.4557L121.723 2.45478L121.885 2.61512C122.664 3.39416 123.404 4.13416 124.061 4.79134C123.516 4.2237 122.768 3.46179 121.908 2.59245L121.736 2.42267L121.5 2.42364C117.984 2.40542 113.183 2.41628 110.079 2.39324ZM483.059 20.9244C483.422 20.9736 465.606 20.9612 471.774 20.8746C475.536 20.8912 479.297 20.9078 483.059 20.9244ZM446.873 20.8515C450.694 20.8407 453.654 20.8576 452.868 20.935C450.842 20.9317 448.816 20.9284 446.79 20.9251C446.817 20.9006 446.845 20.876 446.873 20.8515ZM1127.2 20.9141C1120.76 20.9211 1114.32 20.928 1107.88 20.935C1108.12 20.9139 1108.36 20.8927 1108.6 20.8716C1114.81 20.8648 1121.01 20.858 1127.22 20.8511C1127.22 20.8721 1127.21 20.8931 1127.2 20.9141ZM106.437 2.20355C102.015 2.21734 97.593 2.23113 93.1708 2.24493C97.5967 2.25909 102.023 2.27325 106.448 2.28741C106.448 2.25933 106.448 2.23125 106.448 2.20318C106.445 2.2033 106.441 2.20342 106.437 2.20355ZM1215.41 20.6406C1195.74 20.5421 1220.84 20.438 1226.03 20.5827C1226.03 20.5826 1226.04 20.5825 1226.04 20.5823C1226.5 20.5951 1225.54 20.657 1226.29 20.6819C1224.29 20.654 1222.29 20.626 1220.29 20.5981C1218.46 20.6329 1216.64 20.6677 1214.81 20.7024C1214.21 20.6888 1213.61 20.6751 1213.01 20.6614C1213.81 20.6545 1214.61 20.6475 1215.41 20.6406ZM1294.8 20.5856C1297.1 20.5871 1298.8 20.591 1300 20.5963L1299.36 20.861C1301.86 18.3858 1301.29 18.9907 1299.41 20.9053L1300 20.6589C1296.51 20.6828 1289.9 20.6896 1285.55 20.6296C1285.62 20.6013 1293.15 20.5846 1294.8 20.5856ZM1248.05 20.619C1245.24 20.633 1242.43 20.647 1239.62 20.6611C1239.26 20.6434 1238.9 20.6257 1238.54 20.608C1240.7 20.5904 1242.86 20.5728 1245.02 20.5552C1246.03 20.5765 1247.04 20.5977 1248.05 20.619ZM1155.62 20.3458C1151.1 20.3263 1145.33 20.5231 1159.85 20.4714C1159.84 20.4503 1159.84 20.4291 1159.83 20.408C1159.25 20.4114 1157.55 20.4312 1157.46 20.4296C1157.19 20.4243 1157.51 20.3538 1155.62 20.3458ZM1320.37 2.02937C1320.88 2.02134 1321.15 1.79859 1326.44 2.02901C1328.03 2.01497 1329.63 2.00093 1331.23 1.98689C1331.64 2.03596 1332.05 2.08503 1332.46 2.13411C1326.28 2.09606 1325.63 2.19534 1325.18 2.19746C1323.13 2.20675 1324.65 2.15568 1323.32 2.15498C1321.92 2.15429 1319.79 2.15963 1318 2.15616L1317.44 2.15848L1317.05 2.54976C1315.23 4.36706 1313.9 5.66376 1315.31 4.13054C1315.69 3.71073 1316.33 3.06695 1316.95 2.45198L1317.38 2.02043L1318 2.01788C1319.07 2.02128 1320.09 2.0338 1320.37 2.02937ZM1310 9.24066C1310.54 8.7238 1308.88 10.4773 1309.3 10.0901C1309.66 9.75086 1314.97 4.53103 1313.62 6.03433C1312.76 6.89586 1311.89 7.7574 1311.02 8.61894C1310.71 8.89069 1310.39 9.16243 1310.08 9.43419C1309.26 10.2912 1308.44 11.1482 1307.62 12.0052C1306.16 13.3637 1303.09 16.2983 1306.61 12.6894C1305.31 14.0049 1304 15.3203 1302.69 16.6358C1302.04 17.34 1301.38 18.0442 1300.73 18.7485C1301.05 18.3542 1301.37 17.9599 1301.68 17.5656C1304.46 14.7906 1307.23 12.0156 1310 9.24066ZM1365.76 1.92354C1365.53 1.95162 1365.31 1.97969 1365.08 2.00777C1371.89 1.95557 1382.49 1.93573 1376.47 2.11177C1367.25 2.12642 1358.02 2.14106 1348.8 2.15571C1348.19 2.13459 1347.58 2.11348 1346.96 2.09236C1353.84 2.17372 1351.72 1.8275 1357.7 1.92684C1358.71 1.94368 1355.78 2.06475 1362.13 1.98726C1361.9 1.95906 1361.68 1.93086 1361.45 1.90267C1362.89 1.90962 1364.32 1.91658 1365.76 1.92354ZM1424.29 1.96565C1412.63 1.92507 1425.47 1.82262 1427.63 1.90779C1427.62 1.90779 1427.62 1.90779 1427.62 1.90779C1433.52 2.14087 1420.83 2.02826 1420.06 2.02974C1419.03 2.0318 1416.63 2.19867 1411.04 1.9554C1415.45 1.95882 1419.87 1.96224 1424.29 1.96565ZM1386.23 1.92391C1387.21 1.91841 1386.67 1.96079 1387.09 1.96016C1387.09 1.96016 1387.1 1.96016 1387.1 1.96016C1393.34 1.95107 1408.18 1.91313 1409.79 2.04988C1405.17 2.06129 1384.5 2.09084 1383.25 1.99788C1384.25 1.97322 1385.24 1.94856 1386.23 1.92391ZM1342.32 2.02571C1338.49 1.93717 1347.11 1.92539 1349.37 1.96639C1349.8 1.97527 1346.29 2.11742 1342.32 2.02571ZM1055.89 19.7972C1047.46 19.8505 1058.54 19.9036 1054.71 19.9869C1056.32 19.9798 1057.93 19.9727 1059.54 19.9657C1058.32 19.9095 1057.11 19.8534 1055.89 19.7972ZM671.588 19.6291C669.623 19.6193 670.554 19.6701 670.383 19.6709C669.092 19.6694 667.875 19.628 667.38 19.6324C658.222 19.716 664.312 19.7587 664.405 19.7686C664.598 19.8189 662.191 19.8778 665.526 19.9353C667.55 19.9174 669.575 19.8996 671.599 19.8818C672.603 19.9097 673.608 19.9377 674.613 19.9657C678.634 19.9057 673.372 19.8892 672.776 19.8097C672.546 19.7784 676.328 19.7409 671.588 19.6291ZM1040.79 19.6287C1039.42 19.7171 1036.07 19.8285 1039.36 19.9173C1039.37 19.9173 1039.37 19.9173 1039.38 19.9173C1039.98 19.9336 1042.46 19.9425 1043.22 19.9653C1048.65 19.8476 1046.57 19.726 1040.79 19.6287ZM707.896 19.4709C711.16 19.4915 714.423 19.5122 717.687 19.5328C717.632 19.5858 717.576 19.6388 717.521 19.6917C715.774 19.6775 714.027 19.6632 712.281 19.6489C711.668 19.6731 711.056 19.6972 710.443 19.7214C712.612 19.7818 714.781 19.8422 716.949 19.9027C719.562 19.8815 722.174 19.8604 724.787 19.8393C723.586 19.8114 722.385 19.7834 721.184 19.7555C727.57 19.7246 726.18 19.8534 731.464 19.9027C733.274 19.8536 735.084 19.8045 736.893 19.7555C739.513 19.8048 742.133 19.8541 744.753 19.9034C749.155 19.8804 749.542 19.8428 746.579 19.7866C748.768 19.7223 751.165 19.8234 753.801 19.7972C754.019 19.7951 753.609 19.7346 753.801 19.7338C767.431 19.6931 766.706 19.852 768.883 19.8587C770.419 19.8634 776.552 19.7561 776.648 19.7196C776.767 19.6703 764.011 19.476 783.987 19.4709C773.659 19.3365 761.918 19.4733 769.51 19.6705C766.242 19.6507 751.828 19.6999 750.909 19.6939C749.569 19.685 750.039 19.6102 748.361 19.6082C747.37 19.6072 744.742 19.7782 736.893 19.6287C735.89 19.6568 734.888 19.6849 733.885 19.713C732.945 19.6899 732.005 19.6668 731.065 19.6438C733 19.5615 734.936 19.4792 736.871 19.3969C729.204 19.4863 722.844 19.3184 718.176 19.4599C714.14 19.4435 712.179 19.4272 713.913 19.3548C712.701 19.3548 711.489 19.3548 710.277 19.3548C709.483 19.3935 708.689 19.4322 707.896 19.4709ZM1016.02 19.7551C1012.01 19.6729 1010.57 19.8502 1011.19 19.8602C1014.71 19.9153 1018.11 19.7978 1016.02 19.7551ZM678.87 19.7232C683.296 19.7689 687.722 19.8145 692.148 19.8602C692.148 19.8042 692.148 19.7481 692.148 19.6921C687.722 19.7025 683.296 19.7129 678.87 19.7232ZM1057.13 19.6712C1057.53 19.7132 1057.94 19.7552 1058.35 19.7972C1063.2 19.6438 1068.01 19.8639 1070.4 19.8184C1070.92 19.8085 1069.87 19.7344 1068.88 19.7185C1068.27 19.7085 1057.99 19.6571 1057.13 19.6712ZM1258.94 19.6914C1257.13 19.7196 1255.33 19.7478 1253.52 19.776C1253.62 19.7287 1253.72 19.6815 1253.82 19.6342C1254.71 19.6255 1255.6 19.6167 1256.5 19.6079C1257.31 19.6357 1258.12 19.6635 1258.94 19.6914ZM1238.39 19.7664C1235.17 19.7627 1231.95 19.7589 1228.73 19.7551C1241.01 19.7118 1230.93 19.6906 1238.39 19.6291C1238.39 19.6749 1238.39 19.7207 1238.39 19.7664ZM1205.78 19.6709C1206.18 19.6427 1206.58 19.6145 1206.97 19.5863C1210.19 19.5863 1213.41 19.5863 1216.64 19.5863C1214.6 19.4884 1212.56 19.3905 1210.52 19.2926C1209.34 19.2923 1208.16 19.2921 1206.98 19.2918C1206.58 19.4182 1206.18 19.5445 1205.78 19.6709ZM584.573 19.4186C582.626 19.4169 575.851 19.5024 576.141 19.5339C578.955 19.5726 581.77 19.6113 584.584 19.65C584.597 19.5938 584.61 19.5377 584.623 19.4815C585.02 19.5095 585.418 19.5374 585.816 19.5654C587.417 19.5444 589.017 19.5234 590.618 19.5024C591.424 19.5515 592.231 19.6006 593.038 19.6496C593.848 19.5936 594.659 19.5376 595.469 19.4815C587.741 19.3822 588.007 19.4815 586.399 19.4804C585.583 19.48 585.067 19.4452 584.778 19.4277C584.71 19.4247 584.641 19.4216 584.573 19.4186ZM681.929 19.3658C672.701 19.3519 667.428 19.4997 660.752 19.3761C665.034 19.6394 692.68 19.3674 702.428 19.587C703.44 19.5448 704.452 19.5025 705.464 19.4603C700.157 19.4979 696.479 19.4109 693.891 19.3984C691.835 19.3885 692.05 19.4327 691.893 19.4321C691.885 19.4321 691.878 19.4321 691.87 19.4321C687.057 19.4139 685.568 19.3713 681.929 19.3658ZM1063.98 19.4647C1061.5 19.398 1057.16 19.4046 1057.12 19.502C1059.53 19.5302 1061.94 19.5584 1064.36 19.5866C1063.86 19.5617 1064.41 19.4761 1063.98 19.4647ZM1202.04 19.3988C1200.1 19.3671 1195.53 19.3949 1197.5 19.479C1197.86 19.4939 1202.41 19.4348 1199.74 19.5866C1204.18 19.5843 1203.14 19.417 1202.04 19.3988ZM839.606 19.5654C841.234 19.5626 842.862 19.5598 844.491 19.557C844.87 19.5177 845.249 19.4784 845.629 19.4391C843.621 19.4812 841.614 19.5233 839.606 19.5654ZM1084.91 19.3973C1087.07 19.5897 1090.77 19.4025 1094.83 19.5606C1096.33 19.5619 1097.83 19.5631 1099.34 19.5643C1099.34 19.5643 1099.34 19.5643 1099.35 19.5643C1099.39 19.5118 1099.43 19.4593 1099.47 19.4068C1094.62 19.4037 1089.76 19.4005 1084.91 19.3973ZM738.081 19.4706C739.084 19.495 740.087 19.5194 741.09 19.5438C742.875 19.5154 744.661 19.4869 746.446 19.4585C745.48 19.4381 744.514 19.4177 743.549 19.3973C741.726 19.4217 739.904 19.4461 738.081 19.4706ZM1111.29 19.3808C1106.04 19.3567 1104.06 19.524 1110.78 19.5244C1113.6 19.5244 1116.79 19.406 1111.29 19.3808ZM484.302 19.4808C486.101 19.4951 487.899 19.5094 489.698 19.5237C490.31 19.4885 490.923 19.4533 491.535 19.4182C489.124 19.4391 486.713 19.4599 484.302 19.4808ZM1226.93 19.4178C1226.72 19.453 1226.51 19.4881 1226.29 19.5233C1224.69 19.5162 1223.09 19.5091 1221.48 19.502C1221.88 19.4671 1222.29 19.4322 1222.69 19.3973C1224.1 19.4041 1225.52 19.411 1226.93 19.4178ZM496.403 19.5024C497.841 19.5091 499.278 19.5158 500.716 19.5226C501.682 19.5055 502.648 19.4884 503.614 19.4713C502.269 19.4543 500.923 19.4373 499.578 19.4204C498.52 19.4477 497.461 19.4751 496.403 19.5024ZM1161.04 19.3969C1159.02 19.3547 1150.95 19.4864 1158.22 19.52C1162.85 19.5413 1161.34 19.4034 1161.04 19.3969ZM1171.92 19.3548C1164.23 19.2743 1170 19.683 1179.18 19.4182C1169.94 19.4545 1172.38 19.3597 1171.92 19.3548ZM1239.56 19.1439C1239.75 19.1441 1239.91 19.2029 1241.46 19.2051C1247.02 19.2127 1254.37 19.2359 1258.34 19.2395C1267.47 19.2477 1294.54 19.1515 1300 19.2901L1298.44 19.9374C1298.63 19.7553 1298.79 19.6094 1298.9 19.503C1299.34 19.1076 1298.68 19.88 1298.55 20.0495L1300 19.4487C1299.96 19.4549 1299.95 19.459 1300 19.4599C1300 19.4599 1300 19.46 1300 19.46L1298.56 20.0575C1299.17 19.4618 1302.6 15.9663 1302.01 16.6622C1300.87 17.8037 1299.73 18.9453 1298.59 20.0868L1300 19.5014C1296.81 19.501 1293.61 19.5006 1290.42 19.5002C1291.6 19.4448 1292.78 19.3894 1293.96 19.334C1281.98 19.3635 1285.94 19.3601 1282.5 19.4808C1280.47 19.4341 1278.44 19.3873 1276.41 19.3405C1272 19.3875 1267.58 19.4345 1263.17 19.4815C1264.17 19.4465 1265.17 19.4115 1266.17 19.3764C1259.52 19.3116 1261.37 19.3541 1257.73 19.4391C1257.72 19.404 1257.71 19.369 1257.71 19.334C1251.28 19.4193 1250.03 19.3144 1248.63 19.3131C1245.75 19.311 1242.08 19.7255 1231.11 19.3131C1226.48 19.5114 1226.58 19.1079 1223.86 19.3131C1216.03 19.0897 1230.93 19.1706 1237.98 19.178C1237.98 19.178 1237.99 19.178 1237.99 19.178C1238.52 19.1786 1237.68 19.141 1239.56 19.1439ZM1199.32 19.3493C1204.06 19.1673 1185.32 19.1502 1191.52 19.4131C1192.45 19.4216 1193.37 19.4301 1194.29 19.4387C1195.97 19.4089 1197.65 19.3791 1199.33 19.3493C1199.32 19.3493 1199.32 19.3493 1199.32 19.3493ZM1023.27 19.2285C1005.91 19.3033 1015.78 19.4081 1021.66 19.3058C1022.83 19.2855 1023.47 19.2577 1023.27 19.2285ZM668.746 19.2259C668.492 19.2478 668.239 19.2696 667.985 19.2915C673.805 19.271 685.059 19.3553 684.904 19.208C679.518 19.214 674.132 19.2199 668.746 19.2259ZM714.784 19.1296C713.534 19.1207 708.428 19.0998 709.045 19.1549C711.258 19.1939 713.471 19.233 715.683 19.2721C716.714 19.2477 717.745 19.2232 718.775 19.1988C717.336 19.1905 715.123 19.1319 714.784 19.1296Z" fill="url(#paint0_radial_81_278)"/>
<defs>
<radialGradient id="paint0_radial_81_278" cx="0" cy="0" r="1" gradientUnits="userSpaceOnUse" gradientTransform="translate(720 23.9025) rotate(90) scale(644.497 610.18)">
<stop stop-color="#C9684D"/>
<stop offset="1" stop-color="#E82E5A"/>
</radialGradient>
</defs>
</svg>
