<svg width="383" height="239" viewBox="0 0 383 239" fill="none" xmlns="http://www.w3.org/2000/svg">
<path d="M7.86628 205.389C7.9227 210.914 7.95408 216.061 7.96814 220.974C7.97579 221.843 7.48974 222.69 6.74269 223.123C5.35945 223.942 3.99615 224.747 2.64851 225.542C2.79947 225.454 2.8961 225.284 2.89482 225.111C2.89444 228.107 2.88856 231.036 2.87916 233.935C2.87919 233.766 2.78399 233.604 2.63883 233.521C4.09285 234.384 5.53883 235.244 6.98327 236.104C6.91256 236.063 6.83106 236.042 6.74988 236.043C16.0653 236.087 25.3629 236.152 35.8898 236.172C88.3126 236.269 157.443 236.182 211.06 236.188C251.642 236.194 292.878 236.212 333.215 236.227C335.284 236.228 336.518 236.257 337.456 236.257C344.397 236.26 355.029 236.244 363.516 236.24C363.47 236.239 363.423 236.252 363.384 236.275C365.203 235.203 366.898 234.204 368.391 233.326C371.872 231.278 375.916 228.897 380.264 226.338C380.187 226.383 380.137 226.47 380.137 226.56C380.141 208.764 380.143 186.927 380.164 173.999C380.175 166.831 380.18 159.479 380.248 156.693C380.252 154.074 380.19 152.644 380.187 151.96C380.187 151.952 380.187 151.945 380.187 151.937C380.176 149.734 380.22 144.172 380.217 142.944C380.217 142.761 380.172 143.891 380.185 140.913C380.186 140.647 380.217 140.892 380.217 138.385C380.217 137.732 380.171 129.345 380.168 126.949C380.159 118.973 380.195 99.9248 380.195 90.3886C380.195 88.9301 380.177 88.09 380.177 86.55C380.176 85.7544 380.196 84.5617 380.196 84.3171C380.195 83.2443 380.107 78.5574 380.28 80.2398C380.269 75.3465 380.212 76.7881 380.175 76.6774C380.169 71.3654 380.251 68.8051 380.165 67.418C380.173 45.7787 380.182 24.1393 380.191 2.5C380.19 2.61012 380.285 2.70498 380.395 2.70367C376.435 2.70209 372.476 2.7005 368.516 2.69892C368.508 2.71302 368.5 2.72712 368.493 2.74122C360.793 2.68491 358.152 2.78016 353.756 2.69837C351.046 2.71638 348.335 2.73438 345.625 2.75239C275.967 2.69691 206.471 2.76285 137.598 2.76264C134.691 2.76264 133.965 2.73264 129.172 2.73243C123.879 2.73222 116.435 2.76709 109.459 2.76667C103.341 2.76635 94.3135 2.73797 87.4906 2.73353C85.9506 2.73258 84.8364 2.75158 84.6632 2.75147C83.6435 2.75073 83.5923 2.72065 82.6034 2.7198C81.4203 2.71885 79.9911 2.74113 78.6244 2.73975C73.5173 2.73479 67.952 2.74247 67.3053 2.74195C64.1905 2.7391 63.5029 2.70968 63.2467 2.70936C59.7817 2.70577 61.0809 2.73232 60.218 2.73078C55.7406 2.72264 52.5757 2.65636 46.446 2.71998C46.613 2.69538 46.7798 2.67079 46.9469 2.64619C42.2558 2.63235 45.3543 2.69771 44.3956 2.70954C44.0045 2.71393 33.9069 2.70595 33.128 2.70478C30.4158 2.70056 30.3431 2.66787 30.1086 2.66743C29.5374 2.66637 22.7139 2.70347 19.2155 2.67494C15.0765 2.64112 19.9484 2.57463 18.9206 2.56215C18.7472 2.56003 14.414 2.56685 13.8322 2.54603C13.1899 2.52364 16.9373 2.52412 16.8796 2.51472C16.8389 2.50828 10.617 2.46212 11.8099 2.43105C12.7687 2.39989 21.2097 2.43984 22.9979 2.42519C23.2931 2.42276 22.7366 2.3843 22.9979 2.38289C24.0481 2.37772 43.4965 2.37656 44.3863 2.38289C43.3736 2.40041 42.3608 2.41793 41.3482 2.43544C42.6947 2.43721 44.0414 2.43898 45.388 2.44075C43.4734 2.45479 41.5588 2.46883 39.6442 2.48286C42.4894 2.6271 51.0596 2.48088 51.4127 2.40889C51.5657 2.3756 46.3269 2.28995 51.2021 2.24007C50.4608 2.23153 49.7197 2.22299 48.9785 2.21444C47.4509 2.22848 45.9232 2.24252 44.3956 2.25655C45.4129 2.2654 46.4304 2.27425 47.4478 2.2831C47.0733 2.29311 46.6988 2.30312 46.3242 2.31313C43.4688 2.32918 40.6132 2.34523 37.7577 2.36129C36.2896 2.35389 36.5947 2.32434 35.5856 2.31862C23.0003 2.24666 31.2095 2.33824 22.9699 2.32503C21.7933 2.30916 20.6168 2.2933 19.4402 2.27743C19.8553 2.34306 16.2058 2.30185 11.7912 2.33016C12.3186 2.30892 12.846 2.28768 13.3734 2.26644C10.3678 2.27176 5.91128 2.25092 2.39485 2.2395C2.24884 2.23384 2.12574 2.3683 2.12982 2.5C2.12244 5.57357 2.12919 7.40752 2.1827 5.8104C2.1735 7.15778 2.16429 8.50516 2.15509 9.85253C2.15428 9.97037 2.15348 10.0882 2.15267 10.206C2.17184 11.4434 2.191 12.6808 2.21017 13.9182C2.20797 15.6284 2.20577 17.3386 2.20357 19.0488C2.1932 19.0566 2.18282 19.0644 2.17245 19.0722C2.17239 17.7084 2.17232 16.3446 2.17226 14.9808C2.14065 16.0045 2.10903 17.0281 2.07742 18.0517C2.08267 19.0582 2.08792 20.0646 2.09316 21.0711C2.12307 16.8494 2.17191 22.4152 2.21364 23.7627C2.22907 27.3217 2.17489 29.5958 2.17245 30.7892C2.17128 31.3501 2.26687 37.958 2.16183 35.3674C2.17458 38.7675 2.18734 42.1676 2.20009 45.5677C2.19204 46.8971 2.18398 48.2266 2.17593 49.5561C2.127 46.6708 2.06804 55.0326 2.04776 48.8726C2.03254 44.2728 2.07828 43.1393 2.07797 40.9567C2.07774 38.9892 2.04693 37.9488 2.04556 35.8074C2.03993 26.4506 2.04034 18.221 2.04506 9.85253C2.04643 7.42371 2.04816 4.98319 2.05022 2.5C2.0453 2.31791 2.21189 2.15101 2.39485 2.15672C4.01491 2.15813 5.65571 2.15968 7.32532 2.16134C10.0275 2.16408 12.4852 2.14897 14.3003 2.15109C16.3493 2.15352 13.7821 2.19217 16.3928 2.18276C19.1345 2.17282 19.7274 2.14129 20.4514 2.14065C20.9018 2.14029 22.3297 2.16867 23.6439 2.16867C29.0443 2.16866 36.9574 2.14123 37.7249 2.14138C38.5916 2.1417 53.8646 2.1673 54.5959 2.17196C54.9835 2.1745 54.1794 2.27927 57.545 2.16757C58.5952 2.16549 59.6453 2.16342 60.6955 2.16134C60.5255 2.18228 60.3553 2.20321 60.1852 2.22414C66.4066 2.14478 64.2667 2.18918 70.2638 2.18295C84.6241 2.16794 105.807 2.18558 121.513 2.17819C125.021 2.17649 126.357 2.15143 130.506 2.14962C134.361 2.14804 144.426 2.22283 142.237 2.11923C150.814 2.20894 152.193 2.05424 156.487 2.15072C157.006 2.13668 157.526 2.12265 158.045 2.10861C162.706 2.16884 164.145 2.1159 169.233 2.10861C171.426 2.10544 168.898 2.16951 173.325 2.09817C174.17 2.10348 175.016 2.10879 175.862 2.1141C175.665 2.1296 175.469 2.14511 175.272 2.16061C180.188 2.14793 180.505 2.15601 179.944 2.09799C182.317 2.10855 184.691 2.11911 187.064 2.12967C187.359 2.11062 187.654 2.09158 187.949 2.07254C186.812 2.03622 132.923 2.09099 125.418 2.10843C116.616 2.06532 98.9354 2.11921 91.8254 2.10898C88.9798 2.10485 87.7226 2.06179 83.5818 2.05661C79.4423 2.05143 74.2327 2.09055 72.0286 2.09195C64.6853 2.09681 29.8948 2.08822 53.5567 2.03464C52.8764 2.01364 52.196 1.99265 51.5157 1.97165C42.113 2.04329 45.5177 1.99919 37.7156 1.99179C34.4313 1.98863 26.6204 2.03552 27.0565 1.94016C33.1556 1.9224 39.6351 1.95288 44.9386 1.95151C45.4642 1.95136 51.7436 1.90782 54.9751 1.91965C57.8904 1.93045 55.8832 2.02136 62.2262 1.91928C66.9372 2.01899 69.661 1.92853 70.9052 1.91892C73.0557 1.90224 73.2913 1.95145 75.4412 1.95719C77.7831 1.96352 79.3953 1.93085 79.7151 1.93064C82.9266 1.9299 99.6532 1.92544 100.42 1.94528C99.7475 1.95401 99.0749 1.96274 98.4024 1.97147C102.746 1.98551 101.838 1.93519 102.981 1.92917C103.831 1.92935 104.681 1.92954 105.532 1.92972C105.195 1.94016 104.858 1.95059 104.521 1.96103C109.651 1.95881 105.726 1.92254 113.008 1.92349C117.632 1.92413 122.408 1.96398 122.857 1.96103C122.989 1.96019 121.534 1.93332 123.419 1.92972C126.539 1.9238 131.934 1.92449 132.538 1.96103C134.066 1.95586 133.936 1.9201 134.139 1.91928C135.026 1.9158 150.292 1.90364 153.027 1.90152C160.605 1.89571 169.042 1.90334 177.252 1.89731C178.096 1.89671 177.558 1.91966 178.404 1.91892C179.762 1.91774 186.734 1.88173 187.776 1.87918C190.375 1.87295 197.214 1.88724 198.289 1.8768C198.443 1.87532 196.192 1.84431 198.823 1.83469C201.745 1.82405 200.172 1.86577 200.33 1.86618C206.276 1.88045 210.03 1.85147 214.089 1.84586C215.404 1.84406 217.831 1.87546 219.687 1.86618C219.901 1.86513 219.477 1.83612 219.687 1.83469C222.492 1.81947 225.116 1.87332 226.33 1.8768C229.299 1.88533 227.682 1.84559 227.837 1.84531C229.816 1.84404 232.478 1.85838 235.486 1.85648C248.898 1.84803 259.843 1.8456 274.101 1.84824C275.892 1.84856 278.017 1.87658 278.291 1.87662C279.137 1.87641 278.895 1.84347 281.343 1.84421C286.504 1.8459 291.288 1.84431 296.398 1.84495C297.426 1.84508 297.865 1.8756 298.649 1.87626C301.28 1.87816 310.252 1.79825 310.399 1.89768C315.621 1.80966 319.089 1.88552 323.291 1.88468C333.245 1.88278 348.832 1.86484 358.756 1.87626C360.845 1.8787 361.825 1.90418 362.988 1.90555C365.072 1.90808 376.988 1.89385 377.612 1.89786C378.47 1.90327 378.365 1.96003 380.395 1.9598C380.615 1.94958 380.934 2.13783 380.944 2.5C380.95 3.16636 380.96 3.96522 380.975 4.9289C380.982 8.61808 380.936 8.1824 380.933 8.94534C380.915 14.8914 381.018 20.6761 380.923 19.595C380.949 26.5183 381.001 31.0053 380.913 33.8305C380.956 33.7937 380.982 37.0497 380.965 40.974C380.893 36.9559 380.847 37.4533 380.86 27.7356C380.86 27.5826 380.891 27.8746 380.892 27.7216C380.894 26.334 380.878 23.4394 380.88 21.0743C380.881 18.7088 380.903 20.0222 380.902 19.0754C380.902 18.2085 380.872 18.2374 380.872 16.9829C380.871 12.9138 380.862 9.31303 380.862 6.99797C380.862 5.53971 380.888 3.90744 380.888 2.77554C380.888 2.68571 380.888 2.59387 380.888 2.5C380.897 2.26567 380.683 2.00303 380.395 2.00811C375.613 2.01211 367.9 2.02743 363.025 2.02493C361.865 2.02427 362.352 1.99495 359.814 1.99252C359.517 1.99224 358.436 2.02281 356.214 2.02914C353.991 2.03548 352.268 2.0203 350.84 2.02347C349.647 2.02611 350.145 2.05326 347.699 2.05496C345.659 2.05633 322.556 2.03677 321.302 2.03244C319.497 2.02619 318.639 1.98806 317.538 1.99271C317.344 1.9937 317.016 2.03054 316.344 2.03317C305.268 2.0767 280.752 2.02645 268.095 2.02676C241.64 2.02729 217.232 2.04896 190.542 2.05752C190.066 2.06393 189.59 2.07034 189.114 2.07675C191.812 2.07699 194.51 2.07724 197.208 2.07748C197.225 2.09482 197.242 2.11215 197.26 2.12948C200.907 2.13223 200.424 2.09123 200.321 2.0665C201.671 2.07699 203.021 2.08749 204.37 2.09799C205.535 2.03758 214.536 2.07776 219.177 2.07766C222.195 2.07766 225.787 2.05464 227.378 2.05643C230.741 2.06012 230.653 2.0974 230.917 2.09799C231.366 2.09883 236.06 2.06596 239.446 2.06723C244.452 2.06904 244.994 2.12627 251.847 2.07766C260.628 2.10736 270.357 2.09241 279.822 2.08755C278.02 2.14045 286.501 2.09038 290.326 2.09121C313.661 2.09639 342.342 2.11899 365.983 2.13992C369.022 2.14256 371.317 2.17373 373.01 2.17269C373.928 2.17217 374.328 2.13542 375.603 2.14029C375.827 2.14122 375.983 2.17558 378.356 2.18075C378.952 2.18206 379.639 2.18266 380.395 2.18274C380.553 2.17681 380.716 2.32163 380.713 2.5C380.717 9.40908 380.747 20.1277 380.692 23.2276C380.703 43.4176 380.713 63.6075 380.723 83.7975C380.709 84.3046 380.695 84.8117 380.681 85.3188C380.753 89.1544 380.711 104.317 380.714 111.711C380.72 124.725 380.742 141.33 380.745 152.733C380.745 155.21 380.725 157.241 380.725 159.586C380.725 160.595 380.752 161.85 380.752 162.9C380.754 174.69 380.727 190.654 380.727 202.536C380.728 210.654 380.728 218.63 380.728 226.56C380.729 226.675 380.664 226.789 380.564 226.846C374.928 230.165 369.317 233.469 363.684 236.786C363.634 236.816 363.575 236.832 363.516 236.832C352.176 236.831 340.759 236.831 328.983 236.831C236.906 236.835 145.359 236.874 54.0669 236.858C52.843 236.858 52.9041 236.828 51.9557 236.828C46.3565 236.826 33.8528 236.851 27.5292 236.85C22.4909 236.849 14.494 236.802 12.7601 236.849C30.6595 236.92 49.5703 236.914 68.204 236.934C69.5287 236.936 69.6934 236.964 69.8565 236.965C72.8732 236.975 70.9682 236.935 75.3428 236.934C76.805 236.933 90.3097 237.025 88.7029 236.933C91.9372 236.97 114.736 236.988 119.135 236.976C120.471 236.972 119.525 236.945 119.791 236.944C120.942 236.938 121.462 236.975 122.492 236.976C125.235 236.979 132.213 236.948 133.539 236.949C136.59 236.949 145.736 236.979 149.764 236.972C153.456 236.966 152.765 236.926 155.957 236.923C158.474 236.92 155.733 236.953 161.35 236.963C164.134 236.968 173.874 236.944 176.241 236.944C178.607 236.944 181.24 236.968 184.503 236.966C189.205 236.963 199.432 236.95 204.216 236.943C204.501 236.942 205.197 236.912 205.901 236.913C207.359 236.914 206.921 236.951 208.022 236.955C209.123 236.959 228.197 236.955 231.437 236.955C233.67 236.955 235.212 236.933 236.446 236.933C237.414 236.933 237.518 236.964 238.505 236.965C238.811 236.965 241.414 236.938 244.015 236.938C246.473 236.939 255.803 236.965 256.884 236.965C257.588 236.965 256.816 236.943 258.897 236.943C260.793 236.944 262.038 236.973 263.119 236.973C265.627 236.974 268.43 236.95 271.091 236.949C278.74 236.949 278.347 236.985 278.806 236.986C280.078 236.989 280.588 236.957 281.006 236.956C282.77 236.953 287.092 236.947 288.664 236.946C290.623 236.944 291.452 236.975 293.533 236.975C295.084 236.975 298.215 236.945 301.753 236.944C309.728 236.94 319.213 236.934 327.045 236.936C329.381 236.936 329.739 236.964 330.453 236.965C334.205 236.969 336.306 236.937 337.377 236.938C344.281 236.94 356.078 236.981 363.516 236.992C363.605 236.992 363.692 236.968 363.766 236.925C364.278 236.624 364.763 236.339 365.217 236.072C367.214 234.898 374.616 230.522 380.637 226.971C380.783 226.887 380.874 226.723 380.872 226.56C380.871 225.227 380.871 223.972 380.872 222.852C380.873 222.036 380.895 222.8 380.891 221.892C380.883 219.721 380.838 219.923 380.839 218.821C380.84 218.29 380.865 217.078 380.868 215.531C380.881 207.504 380.861 201.984 380.863 198.323C380.876 163.157 380.888 127.297 380.892 94.4565C380.892 90.795 380.865 86.2545 380.891 80.7266C380.905 80.5565 380.92 80.3864 380.934 80.2164C380.92 80.0228 380.906 79.8294 380.892 79.6359C380.885 73.3744 380.867 71.0081 380.884 64.614C380.886 64.0633 380.95 62.3822 380.87 61.3418C380.928 55.0082 380.87 58.4835 380.864 53.7817C380.859 49.0806 380.877 44.5119 380.881 39.9535C380.91 37.4547 380.976 47.9398 380.975 48.623C380.975 49.724 380.935 50.8678 380.933 51.928C380.927 55.068 380.958 58.1052 380.923 58.8093C380.961 62.8675 380.942 57.8154 380.976 58.3224C380.962 61.0313 380.948 63.7401 380.934 66.449C381.049 67.8289 380.899 82.7966 380.986 81.7565C380.969 82.9471 380.951 84.1376 380.934 85.3282C381.043 90.5491 380.966 93.6198 380.933 100.584C380.947 100.082 380.962 99.5793 380.976 99.0768C380.981 99.2194 381.004 105.366 380.944 103.168C381.023 109.469 380.892 109.204 380.987 114.852C380.999 118.208 380.944 116.19 380.945 122.197C380.945 125.757 380.974 130.175 380.976 134.153C380.976 135.069 380.944 135.468 380.944 136.283C380.944 137.098 380.976 137.496 380.976 138.483C380.978 140.523 380.956 143.167 380.958 144.442C380.96 145.584 380.988 147.217 380.992 149.971C381.007 159.586 380.968 156.682 380.955 158.2C380.941 159.832 380.992 161.005 380.986 164.258C380.986 164.584 380.953 163.74 380.955 164.801C380.956 165.656 380.991 166.087 380.997 168.92C381 170.048 381.008 187.565 381.008 190.234C381.009 194.323 380.979 203.434 380.98 207.666C380.98 209.297 381.008 211.04 381.008 212.773C381.007 216.431 381.006 221.488 381.005 226.56C381.007 226.772 380.888 226.979 380.704 227.085C378.513 228.375 376.34 229.655 374.334 230.835C371.451 232.532 367.448 234.87 363.812 237.002C363.722 237.055 363.619 237.082 363.516 237.082C359.684 237.074 356.266 237.075 354.585 237.101C345.377 237.108 343.141 237.06 342.446 237.06C340.57 237.058 339.701 237.09 337.335 237.091C306.687 237.11 266.328 237.089 237.302 237.091C169.969 237.097 102.269 237.115 34.7008 237.102C34.5198 237.116 34.3388 237.13 34.1578 237.144C42.1437 237.153 51.5289 237.178 59.4128 237.183C69.938 237.191 85.5513 237.132 93.2718 237.228C90.1407 237.237 85.0398 237.2 85.1312 237.249C90.7283 237.253 96.3255 237.256 101.923 237.26C101.756 237.237 101.589 237.214 101.422 237.191C107.266 237.185 113.243 237.19 119.107 237.186C120.126 237.186 119.404 237.165 120.292 237.165C121.284 237.165 120.611 237.186 120.797 237.186C123.306 237.186 124.063 237.165 124.369 237.165C125.154 237.166 124.544 237.187 126.808 237.192C131.008 237.203 134.016 237.149 133.029 237.239C134.385 237.239 135.741 237.239 137.097 237.239C137.448 237.214 137.799 237.19 138.15 237.165C146.491 237.264 150.337 237.091 154.946 237.228C156.466 237.207 157.986 237.186 159.506 237.165C160.362 237.19 161.219 237.214 162.076 237.239C162.243 237.218 162.41 237.197 162.577 237.176C170.766 237.191 179.485 237.166 187.317 237.168C192.772 237.17 194.079 237.178 198.912 237.177C209.661 237.173 198.987 237.215 207.919 237.26C207.454 237.234 206.989 237.209 206.524 237.183C208.003 237.173 209.482 237.164 210.961 237.154C211.991 237.175 213.021 237.196 214.051 237.217C218.619 237.108 221.579 237.196 222.201 237.196C222.703 237.196 224.429 237.13 229.836 237.186C227.594 237.096 233.96 237.186 234.47 237.186C234.955 237.187 241.153 237.166 243.669 237.167C245.648 237.168 249.869 237.187 252.816 237.186C255.418 237.186 255.154 237.155 255.344 237.155C258.546 237.152 256.539 237.176 258.855 237.177C261.17 237.178 262.966 237.152 263.466 237.155C263.717 237.156 262.876 237.184 264.027 237.187C267.118 237.194 272.707 237.17 276.245 237.17C277.499 237.17 279.08 237.195 280.477 237.195C282.618 237.196 283.619 237.164 284.863 237.165C285.296 237.166 288.058 237.215 291.492 237.208C292.145 237.206 294.064 237.101 296.613 237.25C296.81 237.229 297.006 237.208 297.203 237.187C308.718 237.135 311.922 237.305 317.042 237.155C325.403 237.171 319.663 237.23 320.581 237.239C321.174 237.245 323.899 237.228 324.199 237.229C324.73 237.231 324.638 237.25 325.22 237.25C335.878 237.246 331.145 237.211 334.521 237.188C342.548 237.135 348.81 237.254 334.849 237.218C334.849 237.229 334.849 237.239 334.849 237.25C338.287 237.24 347.013 237.244 344.099 237.298C341.804 237.339 321.102 237.312 332.827 237.371C335.489 237.384 336.867 237.345 341.477 237.419C344.526 237.423 344.965 237.327 349.094 237.365C348.415 237.332 347.736 237.299 347.057 237.265C352.5 237.223 359.172 237.276 363.516 237.263C363.63 237.263 363.742 237.236 363.841 237.189C363.861 237.179 363.881 237.168 363.902 237.156C365.262 236.341 369.547 233.644 368.584 234.392C370.306 233.368 377.235 229.308 380.783 227.218C381.038 227.069 381.162 226.792 381.158 226.56C381.158 226.097 381.157 225.729 381.155 225.483C381.152 224.963 381.067 224.286 381.096 216.762C381.107 216.239 381.118 215.716 381.128 215.194C381.159 222.075 381.19 209.922 381.271 213.223C381.235 214.345 381.213 219.801 381.195 220.68C381.163 222.179 381.123 217.713 381.134 223.404C381.268 226.992 381.206 216.734 381.334 218.302C381.275 210.83 381.331 210.083 381.334 208.392C381.343 201.161 381.33 196.611 381.345 189.789C381.318 188.126 381.281 200.477 381.292 202.007C381.199 196.377 381.195 206.067 381.25 210.157C381.222 210.5 381.194 210.843 381.166 211.186C381.181 205.863 381.189 200.67 381.166 195.397C381.176 195.054 381.187 194.71 381.197 194.367C381.213 195.55 381.229 196.733 381.245 197.915C381.271 193.53 381.189 196.16 381.26 190.318C381.229 190.137 381.197 189.956 381.166 189.775C381.176 184.173 381.187 178.571 381.197 172.969C381.134 170.053 381.157 159.274 381.239 161.248C381.245 156.897 381.202 162.268 381.182 158.191C381.173 156.416 381.17 152.948 381.193 152.091C381.271 152.46 381.28 157.65 381.334 159.221C381.351 158.268 381.296 134.131 381.387 136.283C381.398 134.356 381.351 135.242 381.339 131.766C381.305 122.025 381.398 106.939 381.282 99.0956C381.217 108.305 381.285 111.029 381.288 118.087C381.29 122.595 381.301 150.081 381.218 143.941C381.229 144.951 381.239 145.96 381.25 146.97C381.225 147.991 381.201 149.011 381.176 150.032C381.173 147.156 381.169 144.28 381.165 141.404C381.19 140.718 381.215 140.031 381.239 139.344C381.222 139.028 381.204 138.711 381.186 138.394C381.183 137.183 381.18 135.972 381.176 134.762C381.197 135.102 381.218 135.442 381.239 135.782C381.243 133.916 381.246 132.05 381.25 130.183C381.222 130.686 381.194 131.188 381.166 131.691C381.159 122.902 381.176 125.878 381.229 121.004C381.234 117.364 381.18 123.512 381.166 115.812C381.15 106.858 381.236 112.732 381.218 101.137C381.204 100.97 381.19 100.803 381.176 100.636C381.19 98.086 381.204 95.5363 381.218 92.9866C381.201 93.3237 381.183 93.6607 381.166 93.9977C381.172 88.735 381.139 81.4829 381.208 79.7389C381.175 85.073 381.294 85.0207 381.316 83.6336C381.361 80.7701 381.319 38.472 381.316 30.2728C381.313 19.8661 381.35 11.9817 381.293 2.5C381.293 2.43664 381.286 2.37343 381.272 2.31168C381.285 2.37196 381.291 2.43512 381.29 2.5C381.245 9.25876 381.283 31.6443 381.25 35.923C381.247 36.3514 381.137 36.2308 381.26 38.9845C381.239 47.8569 381.274 58.4628 381.271 69.5479C381.239 69.2093 381.208 68.8707 381.176 68.5321C381.243 61.7191 381.096 55.4129 381.218 56.3002C381.218 54.9442 381.218 53.5882 381.218 52.2323C381.197 52.2323 381.176 52.2323 381.155 52.2323C381.155 50.1881 381.155 48.144 381.155 46.0999C381.176 46.0999 381.197 46.0999 381.218 46.0999C381.218 44.4069 381.218 42.7138 381.218 41.0208C381.197 40.8445 381.176 40.6681 381.155 40.4918C381.199 35.422 381.082 18.1388 381.208 25.7367C381.208 23.3556 381.208 20.9745 381.208 18.5933C381.192 18.6011 381.177 18.6088 381.161 18.6167C381.159 17.5931 381.157 16.5694 381.155 15.5458C381.169 15.8829 381.183 16.2199 381.197 16.557C381.172 11.8661 381.246 7.41915 381.197 4.33907C381.187 6.37068 381.176 8.40231 381.166 10.434C381.177 8.24484 381.169 5.01983 381.159 2.5C381.164 2.05351 380.755 1.72494 380.395 1.74176C379.22 1.74673 378.383 1.7508 378.183 1.75083C376.225 1.75104 375.192 1.71983 373.071 1.71824C371.156 1.71689 371.419 1.74087 371.063 1.74003C360.733 1.71561 364.67 1.58575 359.846 1.73948C359.333 1.71848 358.82 1.69749 358.306 1.67649C357.623 1.69401 356.939 1.71153 356.256 1.72904C353.205 1.72739 350.155 1.72575 347.104 1.7241C348.122 1.75034 349.139 1.77659 350.156 1.80283C345.584 1.81455 343.451 1.76193 343.008 1.76072C341.755 1.75766 341.182 1.79069 340.794 1.79075C322.16 1.78789 333.478 1.75881 324.167 1.63475C320.846 1.68343 324.205 1.73224 324.677 1.78178C320.262 1.75854 318.884 1.77226 314.224 1.76951C313.011 1.76876 311.707 1.74204 310.942 1.74168C310.279 1.74136 308.208 1.76976 306.617 1.76987C303.965 1.77009 300.436 1.75316 296.805 1.75358C293.786 1.754 284.545 1.77406 278.099 1.77427C275.348 1.77427 275.987 1.75052 275.276 1.75047C274.98 1.75047 272.837 1.77892 271.073 1.77903C256.682 1.77966 241.934 1.76166 227.472 1.76218C217.283 1.7625 206.93 1.78538 196.721 1.78306C194.549 1.78253 195.699 1.76164 194.751 1.7609C194.424 1.76072 194.032 1.79716 190.673 1.78251C189.46 1.77722 190.855 1.75173 189.662 1.75047C189.081 1.74986 188.835 1.78181 185.44 1.7891C179.27 1.80241 175.954 1.75982 175.403 1.76109C174.365 1.76354 174.668 1.78998 173.292 1.79093C166.562 1.79558 160.943 1.80006 154.937 1.80228C152.132 1.80334 132.795 1.80869 131.732 1.80393C129.357 1.79336 131.568 1.73815 128.521 1.74003C127.668 1.75401 126.814 1.76798 125.961 1.78196C127.317 1.79258 128.672 1.8032 130.029 1.81382C126.296 1.79606 122.063 1.82118 119.299 1.82023C118.789 1.82001 114.089 1.79497 111.692 1.79771C112.711 1.78733 113.73 1.77695 114.749 1.76658C114.389 1.75773 114.028 1.74888 113.668 1.74003C108.875 1.75345 103.805 1.7531 98.8893 1.7512C97.1168 1.75055 97.7158 1.72905 95.9214 1.72831C85.4693 1.72378 88.1091 1.81317 78.0533 1.64537C81.4486 1.66058 93.8354 1.63923 95.6358 1.64482C96.8904 1.64873 101.755 1.79052 99.9706 1.645C110.006 1.64563 101.289 1.7259 110.662 1.70835C110.475 1.69059 110.288 1.67283 110.101 1.65507C113.373 1.64387 115.79 1.6349 117.778 1.66624C118.445 1.58008 129.562 1.63049 135.66 1.62468C144.472 1.61643 154.427 1.59542 163.157 1.59172C166.165 1.59046 167.868 1.62423 168.246 1.62413C168.797 1.62388 170.347 1.59431 171.448 1.5941C175.558 1.59326 188.063 1.64325 191.174 1.56114C166.716 1.56114 142.259 1.56114 117.801 1.56114C120.876 1.6015 96.1366 1.60544 94.8822 1.60344C93.721 1.60163 94.6983 1.5733 94.3532 1.57158C91.783 1.55942 89.5892 1.60051 88.7732 1.60051C88.1509 1.6005 86.8948 1.58122 84.6819 1.58165C84.276 1.58171 84.1632 1.60209 83.7269 1.60215C80.8406 1.60215 77.9914 1.60187 75.0948 1.60197C74.9185 1.60177 74.1876 1.572 73.4564 1.57194C72.7232 1.57194 71.9983 1.6017 71.8133 1.60179C69.4981 1.60158 65.5294 1.58223 63.3263 1.58201C62.5622 1.58202 63.0919 1.60383 62.2356 1.60362C59.6043 1.60309 60.4709 1.5604 57.2174 1.57139C56.1268 1.5751 56.1974 1.60774 54.1091 1.60344C52.6301 1.60037 52.7896 1.5422 52.5549 1.54008C52.2311 1.53753 47.1276 1.58347 45.4583 1.54539C49.1061 1.44487 41.4678 1.54015 41.835 1.58256C39.8127 1.57188 37.7905 1.5612 35.7682 1.55052C35.0785 1.56126 34.3888 1.572 33.6991 1.58275C25.5399 1.53435 20.562 1.56341 12.5355 1.54851C12.1479 1.54777 5.38482 1.52389 5.70096 1.50877C9.74922 1.48278 13.7881 1.48159 16.3787 1.52965C20.642 1.43802 20.7152 1.51104 27.5995 1.49889C29.9046 1.49476 30.0682 1.46991 30.3333 1.46959C39.2974 1.45723 53.6547 1.44653 59.6937 1.51921C61.3867 1.49955 55.3006 1.49176 57.6668 1.47728C58.9575 1.46935 90.0171 1.44614 80.0943 1.52983C81.1241 1.52751 82.1541 1.52519 83.1839 1.52287C84.214 1.44382 89.3359 1.4619 88.7545 1.54063C89.2398 1.52452 89.725 1.50841 90.2104 1.49229C91.169 1.47866 92.3034 1.47136 93.8944 1.46703C99.9866 1.45055 136.232 1.47797 138.16 1.46666C138.203 1.44798 138.247 1.42931 138.291 1.41063C122.278 1.3895 106.744 1.43591 89.2835 1.38243C89.7906 1.39995 90.2977 1.41747 90.8049 1.43498C83.8377 1.41045 76.8705 1.38591 69.9034 1.36138C77.2773 1.32967 89.0088 1.30305 96.75 1.32915C98.1259 1.33381 97.1173 1.35824 97.4334 1.3612C98.2594 1.36888 99.1474 1.3265 102.115 1.32238C105.083 1.31826 112.54 1.34831 113.223 1.34746C114.54 1.34572 118.096 1.29723 120.338 1.29784C123.286 1.29869 121.31 1.3287 121.902 1.32934C124.349 1.33229 126.543 1.31741 128.46 1.31963C131.306 1.32293 137.219 1.37571 139.208 1.29821C137.175 1.29467 135.142 1.29113 133.109 1.28759C144.134 1.2598 152.754 1.35887 163.616 1.28246C166.084 1.18862 157.109 1.2013 164.697 1.16125C163.32 1.16259 161.942 1.16394 160.564 1.16528C160.241 1.18493 159.918 1.20458 159.595 1.22424C157.222 1.2102 154.848 1.19616 152.475 1.18212C153.152 1.19964 153.829 1.21716 154.506 1.23467C146.092 1.24788 137.596 1.26584 134.658 1.17169C134.485 1.19445 134.312 1.21722 134.139 1.23998C126.327 1.2123 114.599 1.30879 116.79 1.18212C116.42 1.18884 116.05 1.19555 115.681 1.20226C110.959 1.17637 112.975 1.22876 111.201 1.23467C110.694 1.23634 101.516 1.20929 105.583 1.17169C96.6293 1.14294 99.3903 1.26134 96.9232 1.26653C91.1913 1.20788 80.8809 1.29586 85.2155 1.20318C84.362 1.1997 83.5085 1.19622 82.6549 1.19274C79.8503 1.26566 77.0855 1.18316 74.0462 1.15557C73.0163 1.15393 71.9865 1.15228 70.9566 1.15063C70.267 1.17517 69.5772 1.1997 68.8876 1.22424C59.1985 1.10746 62.2664 1.42682 57.84 1.1585C58.5297 1.14245 59.2193 1.1264 59.9091 1.11035C61.5444 1.10272 63.1797 1.09509 64.815 1.08746C58.2192 1.08038 51.6233 1.0733 45.0276 1.06622C36.6556 0.991013 31.8913 1.07261 22.5907 1.01312C21.7199 1.02026 20.8493 1.0274 19.9786 1.03455C20.8659 0.973781 24.244 0.982709 17.9516 0.955446C17.4153 0.912485 21.6648 0.906925 23.6018 0.939883C24.0687 0.947924 20.0953 0.980833 24.5614 0.981996C27.5977 0.982825 22.0845 0.931194 31.1806 0.950319C30.8436 0.939822 30.5065 0.929324 30.1695 0.918826C31.1557 0.919131 32.1418 0.919436 33.128 0.919742C34.005 0.944033 34.8819 0.968324 35.7588 0.992615C38.0127 0.95753 39.278 0.908364 44.4284 0.918826C43.0314 0.934041 44.9269 0.98282 47.4758 0.981996C47.4758 0.964418 47.4758 0.94684 47.4758 0.929263C53.6462 0.917955 51.5162 0.969526 56.6463 0.929263C57.1596 0.943239 57.6731 0.957216 58.1864 0.971193C60.9809 0.913598 71.2697 0.874417 69.3931 0.960756C72.2795 0.876847 78.3413 0.914707 80.5952 0.981812C80.7685 0.964357 80.9415 0.946901 81.1148 0.929446C82.3148 0.925906 83.5147 0.922366 84.7146 0.918826C85.3841 0.929385 86.0534 0.939944 86.7229 0.950502C87.5733 0.939944 88.4237 0.929385 89.2741 0.918826C89.7875 0.936343 90.3009 0.953859 90.8142 0.971376C92.1811 0.95038 93.548 0.929385 94.9149 0.908389C95.7513 0.922366 96.5877 0.936343 97.424 0.950319C97.5105 0.913782 105.797 0.905647 108.111 0.929629C108.801 0.919009 109.491 0.908389 110.18 0.89777C110.517 0.915164 110.854 0.932559 111.191 0.949953C111.705 0.936038 112.218 0.922122 112.732 0.908206C113.914 0.922122 115.097 0.936038 116.28 0.949953C121.104 0.864676 121.259 0.939496 122.361 0.938967C124.403 0.937988 131.356 0.884586 132.519 0.887333C133.68 0.890101 134.241 0.920709 135.178 0.923587C150.629 0.971668 144.277 0.889534 147.377 0.87653C149.049 0.86945 150.233 0.898003 151.712 0.89484C154.241 0.889556 167.001 0.851775 167.735 0.855474C168.804 0.86081 166.288 0.995457 169.762 0.960756C169.878 0.888456 177.308 0.961429 173.835 0.8606C176.895 0.86945 179.955 0.8783 183.015 0.88715C182.668 0.801445 186.441 0.856567 190.551 0.851812C196.376 0.845147 209.489 0.788795 209.009 0.876713C210.404 0.856511 211.799 0.836309 213.194 0.816107C222.74 0.843783 232.102 0.814784 241.576 0.813727C269.695 0.810451 300.201 0.829537 328.188 0.846868C329.533 0.847724 329.34 0.876444 330.308 0.877079C335.398 0.88025 348.626 0.859936 355.755 0.866276C358.039 0.868284 359.15 0.8963 359.875 0.897587C362.333 0.902131 361.752 0.86522 362.885 0.866276C364.67 0.867971 374.115 0.902233 377.368 0.905826C378.299 0.906854 379.328 0.897496 380.395 0.891158C381.24 0.865624 382.029 1.63002 382.009 2.5C382.009 2.76797 382.009 3.03646 382.008 3.30452C382.007 3.4668 381.977 3.16717 381.976 3.30452C381.972 6.74161 381.998 4.67434 381.997 5.83704C381.987 14.1285 381.987 22.991 381.98 31.9861C381.979 34.2197 381.958 37.6382 381.956 39.5556C381.955 40.287 381.978 38.9752 381.976 41.503C381.975 42.3689 381.945 42.6648 381.943 43.6423C381.935 47.8539 382.031 49.2634 381.954 52.8829C381.959 59.8693 381.984 72.0303 381.984 78.4047C381.984 79.9126 381.967 80.6469 381.967 82.0841C381.967 83.1038 381.995 84.8984 381.995 86.4892C381.995 88.0802 381.969 90.5916 381.97 93.6513C381.971 96.8728 381.987 100.878 381.986 101.605C381.986 102.482 381.954 102.891 381.954 103.767C381.955 106.419 381.987 113.519 381.991 116.936C381.995 120.607 381.979 122.811 381.979 124.065C381.979 125.227 382.007 126.582 382.007 127.112C382.008 127.938 381.975 128.133 381.976 129.182C381.976 130.894 381.997 132.661 381.997 135.23C382.004 166.019 381.998 196.408 381.987 226.56C381.991 227.113 381.681 227.654 381.202 227.931C375.566 231.248 369.939 234.558 364.319 237.864C364.077 238.007 363.797 238.083 363.516 238.083C355.456 238.079 347.41 238.075 339.376 238.071C334.358 238.068 331.523 238.091 324.129 238.081C321.131 238.076 322.394 238.043 320.061 238.049C319.021 238.052 319.284 238.078 317.969 238.08C312.155 238.085 305.382 238.061 302.862 238.061C301.863 238.061 300.721 238.091 298.673 238.092C283.405 238.095 265.342 238.087 248.912 238.092C240.212 238.095 227.041 238.11 217.056 238.112C189.469 238.117 159.79 238.11 134.63 238.113C96.6384 238.118 58.8294 238.145 20.9194 238.113C38.6553 238.185 62.8066 238.179 82.5519 238.187C139.585 238.209 200.31 238.167 258.761 238.169C279.098 238.169 304.739 238.168 327.003 238.184C328.013 238.185 330.106 238.162 332.288 238.164C332.752 238.165 338.501 238.207 340.438 238.207C338.602 238.133 346.191 238.199 348.537 238.197C351.341 238.195 357.032 238.162 363.516 238.176C363.813 238.177 364.11 238.097 364.367 237.945C364.522 237.855 364.678 237.764 364.833 237.673C370.257 234.501 368.778 235.405 369.078 235.23C370.998 234.113 371.643 233.68 373.108 232.812C374.568 231.946 377.51 230.211 381.249 228.01C381.746 227.722 382.082 227.154 382.078 226.56C382.078 213.043 382.093 191.687 382.094 184.331C382.094 181.75 382.124 181.677 382.124 181.096C382.124 179.556 382.095 177.365 382.095 174.898C382.096 170.451 382.123 165.329 382.123 162.881C382.124 157.027 382.091 145.918 382.09 138.31C382.09 136.17 382.121 136.301 382.121 135.333C382.12 131.068 382.084 119.963 382.084 114.67C382.083 106.072 382.103 97.2284 382.093 88.488C382.107 87.9341 382.12 87.3802 382.134 86.8262C382.12 85.9524 382.105 85.0785 382.091 84.2047C382.102 69.4266 382.071 54.3832 382.073 39.6867C382.073 37.9934 382.099 29.6111 382.1 28.2131C382.1 27.0504 382.066 25.9062 382.071 24.1826C382.078 21.7682 382.142 24.0402 382.124 20.0959C382.119 19.0353 382.091 20.0637 382.083 17.9332C382.08 17.2295 382.069 3.57077 382.07 2.8364C382.071 2.72296 382.072 2.61066 382.073 2.5C382.093 1.44721 381.111 0.754756 380.395 0.783386C380.055 0.771486 379.799 0.761508 379.671 0.760994C378.03 0.754348 378.1 0.799535 376.998 0.803656C373.749 0.815992 369.503 0.785596 368.975 0.786262C362.59 0.79461 350.655 0.830679 343.954 0.809332C343.027 0.806356 343.138 0.772707 342.975 0.771614C341.926 0.764643 341.273 0.802953 340.274 0.803839C334.9 0.808172 326.482 0.782377 321.077 0.775825C320.454 0.775112 319.14 0.79354 318.029 0.791755C311.747 0.781398 313.785 0.751825 313.428 0.750557C312.581 0.747419 311.093 0.780034 308.84 0.782051C303.037 0.78744 291.909 0.782756 285.687 0.78022C281.026 0.778211 281.097 0.74086 280.791 0.740121C280.137 0.738779 278.321 0.7686 275.253 0.77198C269.349 0.778634 270.021 0.749292 267.594 0.750557C267.39 0.750557 267.745 0.779275 265.053 0.782234C259.85 0.787931 248.165 0.759701 242.597 0.761177C240.455 0.761706 239.954 0.789395 237.761 0.789924C234.285 0.790871 226.438 0.760918 225.82 0.760994C225.646 0.760994 225.257 0.792853 224.237 0.792853C223.116 0.792849 222.012 0.776452 221.176 0.776558C216.413 0.776998 208.209 0.832596 210.489 0.718881C208.963 0.746956 207.437 0.775032 205.91 0.803107C195.936 0.797506 186.246 0.808753 176.363 0.814459C174.14 0.815724 172.284 0.794188 170.408 0.795234C168.533 0.79629 160.257 0.831917 158.874 0.832586C156.406 0.833749 142.38 0.837502 140.636 0.834966C137.23 0.830105 133.925 0.78311 132.538 0.792304C131.426 0.799702 132.454 0.826182 130.333 0.833685C126.661 0.846664 120.421 0.812649 119.299 0.813178C118.82 0.813393 119.717 0.834033 115.231 0.835516C112.814 0.836361 111.516 0.813621 110.639 0.813727C110.366 0.813846 110.775 0.850722 105.991 0.845769C102.686 0.842282 101.277 0.813832 100.93 0.813727C100.41 0.813538 99.1537 0.843896 97.0636 0.84284C92.1781 0.84019 83.246 0.805385 78.6057 0.802741C77.7083 0.802212 78.0135 0.838889 74.4348 0.835516C71.8751 0.833085 72.3223 0.803908 71.3639 0.802741C69.8444 0.800945 67.5801 0.836672 64.2251 0.835516C60.0028 0.834036 28.6507 0.796978 27.0284 0.78736C25.9372 0.780914 24.6713 0.780508 24.1308 0.764656C24.5943 0.749459 25.0576 0.734261 25.5211 0.719064C30.3224 0.772395 28.3849 0.711444 29.6593 0.707529C31.5053 0.701928 38.4622 0.709704 40.1451 0.696177C40.7447 0.691292 39.372 0.658852 42.5934 0.642162C46.0499 0.62432 47.5878 0.682071 48.9644 0.603162C53.8702 0.69077 58.5823 0.597785 52.9013 0.57295C49.7299 0.559103 18.6216 0.527825 12.2687 0.522964C9.74871 0.521054 6.15259 0.525698 2.39485 0.530234C1.34964 0.505823 0.402047 1.44697 0.426934 2.5C0.429857 5.02599 0.43232 7.56745 0.432344 9.85253C0.432352 10.6671 0.432051 11.4491 0.43135 12.1862C0.427757 15.9088 0.423684 25.0772 0.38173 24.6896C0.376446 27.9941 0.418214 24.497 0.424026 25.1905C0.436162 26.6408 0.407317 36.9546 0.408463 38.9064C0.413958 48.5343 0.460858 60.6837 0.407913 70.0362C0.396683 69.6009 0.385453 69.1655 0.374223 68.7302C0.353616 66.6291 0.383076 56.8788 0.32918 55.7773C0.32918 70.0362 0.32918 84.2951 0.32918 98.554C0.375045 98.2888 0.374429 115.974 0.353716 116.811C0.3315 116.5 0.309283 116.19 0.287067 115.879C0.37138 105.885 0.259932 106.781 0.31911 100.071C0.319944 97.3388 0.283238 98.1633 0.276265 96.8173C0.206959 83.4186 0.351588 96.6024 0.318744 86.3455C0.265501 89.433 0.246044 81.0328 0.239278 77.2687C0.237799 76.4119 0.251293 65.1604 0.250447 63.8243C0.245692 56.3179 0.216524 43.4269 0.245687 35.9713C0.249174 30.097 0.21125 26.8633 0.202475 21.5298C0.195819 17.4815 0.222472 18.642 0.222799 16.7363C0.223438 13.2847 0.163045 11.8323 0.21935 9.85253C0.228265 9.53909 0.240104 9.21244 0.255574 8.86254C0.244542 6.74169 0.23351 4.62085 0.222478 2.5C0.192913 1.34182 1.23189 0.295698 2.39485 0.319471C2.46075 0.319128 2.52668 0.318785 2.59266 0.318442C2.59266 0.336019 2.59266 0.353597 2.59266 0.371174C4.29504 0.371174 5.99743 0.371174 7.69985 0.371174C8.20065 0.353658 8.70161 0.336141 9.2025 0.318625C14.6054 0.342615 12.3498 0.384942 13.3594 0.43471C14.5265 0.438128 15.6937 0.441546 16.8609 0.444964C17.7643 0.406757 18.6679 0.36855 19.5713 0.330343C24.783 0.333456 29.9948 0.336569 35.2065 0.339681C35.5435 0.357198 35.8806 0.374714 36.2176 0.392231C36.2285 0.374714 36.2394 0.357198 36.2504 0.339681C45.0759 0.33608 53.9016 0.332479 62.7271 0.328878C65.0747 0.300778 50.9339 0.279484 49.8632 0.277794C43.9064 0.268497 28.0881 0.296669 28.0677 0.234216C24.365 0.280814 13.2177 0.269244 9.75019 0.213342C15.0133 0.216699 20.2766 0.220056 25.5398 0.223413C25.3697 0.202479 25.1997 0.181544 25.0296 0.16061C31.5873 0.245043 32.547 0.240396 39.2884 0.16061C39.2947 0.188685 39.301 0.21676 39.3072 0.244836C44.0079 0.147211 52.3166 0.312813 52.5549 0.192286C55.0578 0.202051 57.5607 0.211817 60.0635 0.221582C65.4681 0.206889 57.0757 0.114195 78.2359 0.150539C79.6943 0.153075 79.3903 0.183778 81.5829 0.181666C82.2153 0.181032 85.8364 0.136368 92.7616 0.141018C93.8425 0.141761 93.9241 0.168397 95.046 0.171779C97.6361 0.179809 102.795 0.127129 100.453 0.212976C110.712 0.238014 106.46 0.167557 109.642 0.139553C111.763 0.120969 111.336 0.171761 113.172 0.160243C115.443 0.145959 113.776 0.0947541 122.871 0.118314C121.85 0.121792 120.83 0.125271 119.809 0.12875C120.323 0.142666 120.836 0.156581 121.35 0.170497C126.54 0.137107 126.05 0.185894 128.498 0.107694C132.271 0.142567 135.536 0.145344 140.697 0.139004C150.722 0.12664 145.583 0.0423634 157.025 0.155849C158.879 0.139919 160.732 0.12399 162.586 0.10806C165.633 0.141557 163.169 0.183467 167.717 0.19192C164.157 0.109173 173.753 0.139344 175.375 0.0655808C175.545 0.0831584 175.715 0.100736 175.885 0.118314C176.901 0.118314 177.917 0.118314 178.933 0.118314C178.936 0.104215 178.939 0.0901163 178.942 0.0760175C180.295 0.0865762 181.648 0.0971351 183.001 0.107694C184.018 0.0937172 185.036 0.0797405 186.053 0.065764C187.726 0.095243 189.398 0.124722 191.071 0.154201C192.121 0.156215 193.171 0.158229 194.222 0.160243C193.889 0.139248 193.557 0.118253 193.224 0.0972571C194.574 0.104276 195.924 0.111295 197.274 0.118314C195.703 0.0838624 196.69 0.0434676 200.892 0.0445243C204.36 0.0453719 200.454 0.117276 207.909 0.0873697C208.429 0.0852377 209.35 0.0339557 216.396 0.0260313C224.847 0.0165293 220.742 0.0536741 222.248 0.0549611C222.544 0.0551724 225.125 0.0293642 227.542 0.025665C228.914 0.0235592 230.235 0.0443956 230.416 0.0443412C231.263 0.0433904 231.51 0.0139129 232.682 0.012848C235.66 0.0103124 239.657 0.0247558 242.573 0.0232848C243.899 0.0226507 245.146 0.00518608 245.738 0.00497472C246.656 0.0047729 247.82 0.0314468 248.748 0.0313412C252.175 0.0307831 257.376 -0.0577182 258.967 0.0652146C262.261 -0.0478271 269.162 0.0888432 268.657 0.0130311C277.46 0.0416433 300.939 -0.0513637 300.25 0.0760175C305.236 -0.0329002 304.79 0.0459771 306.879 0.0443412C309.215 0.0425447 308.005 0.0214182 309.861 0.0223693C314.195 0.0245899 318.336 0.0336649 322.65 0.0340877C321.973 0.0515431 321.295 0.0689987 320.618 0.0864542C325.146 0.0920548 323.587 0.0514327 328.206 0.0436089C336.702 0.0293427 333.122 0.061754 334.376 0.107511C334.04 0.0633371 344.057 0.0702052 345.077 0.0760175C345.685 0.0795603 343.02 0.136495 349.155 0.11813C348.819 0.100614 348.484 0.0830973 348.148 0.0655808C350.943 0.0895387 358.535 0.0591389 359.823 0.0650315C360.415 0.0677791 363.579 0.209043 366.475 0.0972571C366.825 0.114774 367.174 0.13229 367.524 0.149807C370.74 0.12875 373.956 0.107694 377.172 0.0866373C377.685 0.118191 378.198 0.149746 378.712 0.1813C379.273 0.1813 379.834 0.1813 380.395 0.1813C381.472 0.164037 382.48 0.992118 382.671 2.05753C382.5 0.98941 381.5 0.126553 380.395 0.124284C380.177 0.115275 379.959 0.106266 379.741 0.0972571C379.958 0.0976921 380.176 0.0980603 380.395 0.0983694C381.659 0.0675977 382.824 1.20599 382.795 2.5C382.793 8.26789 382.818 14.4253 382.735 15.5739C382.752 16.9236 382.77 18.2734 382.787 19.6231C382.756 20.5016 382.724 21.3801 382.693 22.2586C382.701 28.5087 382.722 28.6119 382.755 32.8849C382.731 32.718 382.706 32.551 382.682 32.384C382.716 35.5357 382.748 41.2891 382.753 45.8377C382.755 48.0001 382.721 51.713 382.724 52.2229C382.727 52.7384 382.86 57.8095 382.745 58.3599C382.796 65.8256 382.744 69.1122 382.745 72.1413C382.746 74.109 382.773 75.0067 382.776 77.2298C382.78 80.4117 382.767 83.614 382.769 85.4499C382.77 86.5004 382.797 86.6966 382.798 87.4207C382.802 90.8446 382.775 88.8386 382.776 92.4483C382.777 92.7812 382.809 95.4198 382.805 98.3934C382.803 100.056 382.766 104.357 382.766 104.736C382.767 106.419 382.841 105.074 382.755 110.827C382.769 110.66 382.783 110.493 382.797 110.326C382.833 117.445 382.77 118.568 382.766 120.006C382.766 120.19 382.79 121.923 382.787 122.96C382.781 124.712 382.748 125.418 382.746 125.806C382.741 127.173 382.756 131.776 382.724 134.785C382.818 134.153 382.852 144.695 382.745 147.031C382.766 148.897 382.787 150.763 382.808 152.63C382.79 153.474 382.773 154.318 382.755 155.162C382.773 155.675 382.79 156.189 382.808 156.702C382.769 159.422 382.731 162.142 382.692 164.861C382.731 165.035 382.769 165.208 382.808 165.381C382.804 166.143 382.799 166.904 382.795 167.666C382.764 168.26 382.733 168.855 382.703 169.449C382.709 170.401 382.714 171.353 382.72 172.305C382.743 172.54 382.765 172.776 382.787 173.011C382.813 178.128 382.601 175.499 382.787 185.248C382.769 186.765 382.752 188.281 382.734 189.798C382.82 191.511 382.768 194.721 382.778 197.311C382.784 199.137 382.818 199.037 382.819 201.525C382.82 204.013 382.787 203.924 382.787 204.118C382.785 206.146 382.814 207.676 382.808 209.164C382.807 209.389 382.769 209.95 382.766 211.847C382.764 213.744 382.805 214.887 382.797 217.712C382.793 219.16 382.761 219.578 382.758 220.862C382.753 222.774 382.767 224.689 382.781 226.56C382.79 227.393 382.324 228.206 381.609 228.622C378.407 230.541 375.39 232.34 372.838 233.701C372.131 234.14 367.837 236.738 364.743 238.584C364.366 238.808 363.936 238.921 363.516 238.921C362.851 238.924 362.25 238.925 361.752 238.925C356.757 238.917 358.682 238.878 356.696 238.871C356.41 238.87 354.889 238.883 350.699 238.881C349.95 238.881 350.124 238.902 350.016 238.902C345.131 238.902 335.645 238.885 330.28 238.882C329.801 238.882 327.291 238.942 323.038 238.861C316.736 238.921 304.864 238.792 296.552 238.882C295.4 238.884 294.001 238.863 293.491 238.863C289.095 238.87 290.706 238.935 280.772 238.84C281.576 238.873 279.252 238.903 275.969 238.901C271.033 238.897 274.539 238.835 270.572 238.84C270.572 238.857 270.572 238.875 270.572 238.892C261.445 238.845 259.629 238.92 250.471 238.921C247.176 238.921 242.31 238.882 241.525 238.882C241.221 238.882 237.618 238.924 237.274 238.924C235.336 238.926 234.242 238.906 232.57 238.906C227.042 238.906 220.446 238.961 221.639 238.861C220.119 238.882 218.6 238.903 217.08 238.924C211.338 238.817 207.044 238.964 205.84 238.861C204.813 238.882 203.787 238.904 202.76 238.925C178.132 238.914 153.505 238.903 128.877 238.892C127.898 238.926 117.158 238.914 116.607 238.909C114.079 238.885 116.75 238.813 111.589 238.829C111.018 238.861 110.447 238.893 109.876 238.925C103.39 238.935 106.509 238.903 103.95 238.882C102.88 238.886 103.225 238.91 101.777 238.912C93.9243 238.922 77.8216 238.923 69.2339 238.925C67.5022 238.926 67.7635 238.903 67.2257 238.903C65.7472 238.903 62.8293 238.932 59.8622 238.932C44.5464 238.932 23.8991 238.92 6.74988 238.902C6.32265 238.903 5.89721 238.786 5.53112 238.569C4.04622 237.693 2.59288 236.835 1.17896 236C0.453809 235.58 -0.00700676 234.762 8.27312e-05 233.935C0.0013622 232.888 0.00266671 231.861 0.00399506 230.856C0.00568581 229.601 0.033199 229.446 0.0345727 228.599C0.0357815 227.806 0.0260072 226.351 0.0202669 225.111C0.0116389 224.213 0.54802 223.426 1.18797 223.062C1.34602 222.968 1.49116 222.882 1.6192 222.807C2.62182 222.219 3.27391 221.86 4.34677 221.231C4.65776 221.048 4.97543 220.862 5.29903 220.672C5.19523 220.732 5.12582 220.85 5.12671 220.974C5.12866 215.6 5.10791 209.039 5.16208 203.685C5.16728 203.173 5.27804 196.794 5.28531 196.65C5.32842 195.803 5.39616 201.472 5.45925 192.16C5.51431 200.483 5.61164 197.883 5.6592 187.072C5.67146 192.494 5.68373 197.917 5.696 203.339C5.70754 203.347 5.71907 203.355 5.73061 203.362C5.78777 198.426 5.8068 193.529 5.81209 186.023C5.82277 186.257 5.83345 186.492 5.84413 186.726C5.89749 193.355 5.90736 201.352 5.98017 206.401C6.03393 199.015 6.08769 191.629 6.14144 184.244C6.14158 184.231 6.14138 184.219 6.14083 184.207C6.14193 184.219 6.14269 184.231 6.14311 184.244C6.15111 184.595 6.15911 184.946 6.16712 185.298C6.18899 188.847 6.20183 196.6 6.22223 199.547C6.3 210.805 6.28043 189.695 6.32788 193.162C6.32654 202.433 6.32521 211.704 6.32388 220.974C6.32619 221.268 6.1614 221.557 5.90683 221.704C4.54092 222.508 3.17501 223.312 1.8091 224.116C1.46192 224.317 1.2373 224.71 1.24043 225.111C1.24038 225.448 1.24033 225.786 1.24029 226.123C1.24354 226.162 1.24734 225.799 1.25162 225.111C1.24882 224.783 1.41757 224.363 1.81758 224.131C2.83644 223.537 4.24662 222.714 5.9249 221.734C6.18338 221.587 6.36405 221.291 6.36315 220.974C6.40693 208.907 6.47277 186.902 6.54401 184.244C6.54606 184.036 6.50791 183.941 6.52297 183.964C6.54754 184.055 6.56003 184.149 6.56018 184.244C6.56709 187.892 6.57401 191.541 6.58092 195.189C6.60772 193.524 6.63451 191.859 6.6613 190.194C6.66979 190.653 6.67827 191.112 6.68675 191.571C6.70757 197.873 6.72838 204.175 6.74919 210.478C6.73539 197.839 6.7373 189.663 6.80074 184.244C6.81161 183.666 6.41472 183.145 5.9086 182.975C4.45146 182.456 3.23473 182.011 2.2108 181.625C1.96924 181.528 1.85028 181.282 1.87198 181.083C1.87339 181.301 2.02718 181.505 2.23066 181.566C2.33068 181.599 2.43069 181.632 2.53071 181.665C3.23352 181.929 4.41602 182.35 5.94011 182.883C6.47865 183.059 6.91476 183.615 6.90584 184.244C6.85694 191.88 6.88717 205.468 6.90757 213.539C6.94624 211.417 6.91637 202.248 6.93961 200.31C6.94628 199.761 6.97312 201.676 6.98685 200.404C7.02257 197.079 7.06853 182.911 7.11228 184.97C7.14039 186.296 7.17896 209.093 7.176 213.539C7.22278 203.886 7.23877 193.961 7.28964 184.244C7.30151 183.487 6.78349 182.759 6.06288 182.522C5.72298 182.404 5.3834 182.286 5.04415 182.169C5.38768 182.281 5.72908 182.392 6.06944 182.502C6.80273 182.736 7.3374 183.469 7.3335 184.244C7.41149 189.99 7.49342 195.79 7.49752 206.41C7.54027 209.905 7.59871 186.968 7.62538 184.244C7.62526 183.948 7.57371 183.766 7.56125 183.707C7.60694 183.882 7.63021 184.064 7.63067 184.244C7.65648 188.573 7.68228 192.901 7.70808 197.23C7.70107 193.498 7.69405 189.765 7.68703 186.033C7.69582 186.022 7.70461 186.011 7.71339 186C7.75419 195.669 7.82906 204.514 7.82399 215.58C7.87048 215.223 7.86586 208.602 7.86628 205.389ZM0.139123 40.4371C0.100568 40.6604 0.106889 36.6032 0.10763 34.3188C0.100611 34.6621 0.0935919 35.0054 0.086573 35.3487C0.0938649 30.4735 0.108661 21.3983 0.0338403 21.0617C0.0245411 17.584 0.0896057 19.1217 0.0970098 18.0002C0.0998446 17.58 0.0652058 13.3957 0.102818 9.85253C0.104463 9.69751 0.106247 9.54371 0.108179 9.39151C0.107996 8.52861 0.107813 7.66571 0.10763 6.80282C0.0830941 6.63585 0.0585588 6.46889 0.0340234 6.30193C0.0638076 5.09886 0.0935919 3.8958 0.123376 2.69274C0.124372 5.07933 0.125368 7.46593 0.126365 9.85253C0.130617 20.0412 0.13487 30.2298 0.139123 40.4184C0.139123 40.4246 0.139123 40.4309 0.139123 40.4371ZM88.2349 0.21261C92.8142 0.226454 99.8288 0.248313 98.4118 0.181117C95.5188 0.184657 92.6258 0.188197 89.7329 0.191737C89.2336 0.198694 88.7342 0.205652 88.2349 0.21261ZM382.629 164.328C382.563 168.153 382.62 171.674 382.608 177.59C382.622 177.582 382.636 177.574 382.65 177.566C382.617 175.147 382.639 168.753 382.629 164.328ZM0.391984 154.068C0.386796 154.911 0.381608 155.753 0.37642 156.596C0.301283 153.169 0.354233 152.556 0.346941 148.68C0.346485 148.446 0.329286 148.528 0.32918 148.446C0.32802 147.498 0.348723 146.62 0.348406 145.764C0.347771 144.111 0.326793 142.764 0.327532 139.837C0.328174 137.574 0.361153 137.553 0.360307 136.757C0.359492 136.079 0.268767 129.363 0.307941 125.04C0.38255 116.82 0.398958 151.559 0.391984 154.068ZM0.329913 178.434C0.329608 177.621 0.329302 176.808 0.328997 175.995C0.379689 178.439 0.371985 173.506 0.370927 169.886C0.419539 169.998 0.398745 177.656 0.413223 181.083C0.385453 180.2 0.357683 179.317 0.329913 178.434ZM0.434097 75.6256C0.439051 78.8067 0.378377 78.2767 0.360307 78.144C0.360307 77.1313 0.360307 76.1186 0.360307 75.1059C0.384904 75.2792 0.4095 75.4524 0.434097 75.6256ZM0.455153 99.5511C0.413938 98.5617 0.395915 91.6557 0.392533 88.3818C0.392526 88.2389 0.415144 89.138 0.41304 86.823C0.41238 86.1277 0.330077 79.2889 0.423477 80.7936C0.434036 87.043 0.444594 93.2924 0.455153 99.5417C0.455153 99.5449 0.455153 99.548 0.455153 99.5511ZM0.430801 106.526C0.417862 105.225 0.404923 103.923 0.391984 102.622C0.411331 101.949 0.430679 101.277 0.450026 100.604C0.454909 102.085 0.459792 103.566 0.464674 105.047C0.453383 105.54 0.442092 106.033 0.430801 106.526ZM114.791 238.409C115.094 238.43 115.397 238.45 115.699 238.471C116.872 238.484 122.574 238.394 120.769 238.376C118.776 238.387 116.784 238.398 114.791 238.409ZM90.7112 238.366C89.5253 238.355 88.3394 238.345 87.1535 238.334C85.7897 238.369 84.4259 238.405 83.0621 238.44C88.9865 238.463 95.2901 238.491 94.2736 238.387C95.6295 238.387 96.9855 238.387 98.3415 238.387C97.1996 238.43 97.3532 238.444 100.902 238.471C101.678 238.412 105.348 238.442 109.548 238.429C106.493 238.425 103.438 238.422 100.382 238.418C100.382 238.408 100.382 238.397 100.382 238.387C107.192 238.391 98.7285 238.324 94.2923 238.366C93.9427 238.352 93.5932 238.338 93.2437 238.324C92.3995 238.338 91.5554 238.352 90.7112 238.366ZM382.282 28.2833C382.271 29.1275 382.261 29.9717 382.25 30.8158C382.388 34.0873 382.257 27.4267 382.366 22.6846C382.283 24.2512 382.287 17.0221 382.281 16.6085C382.253 17.4401 382.226 18.2718 382.198 19.1035C382.226 22.1634 382.254 25.2234 382.282 28.2833ZM382.187 52.2135C382.256 49.2864 382.26 63.6658 382.245 68.49C382.241 69.663 382.203 71.7538 382.208 72.6001C382.222 73.1134 382.236 73.6268 382.25 74.1402C382.202 74.7483 382.256 84.1684 382.282 87.8794C382.264 88.229 382.247 88.5785 382.229 88.928C382.236 90.2809 382.243 91.6338 382.25 92.9866C382.232 92.8165 382.215 92.6465 382.198 92.4764C382.219 93.5 382.24 94.5236 382.261 95.5472C382.284 99.5657 382.189 97.0878 382.218 100.107C382.251 103.462 382.308 97.9637 382.345 98.0657C382.335 95.3422 382.314 89.1499 382.313 86.3861C382.313 84.7992 382.379 86.5979 382.303 79.7576C382.32 78.258 382.338 76.7586 382.356 75.259C382.328 72.5065 382.299 69.7539 382.271 67.0014C382.296 66.488 382.32 65.9746 382.345 65.4613C382.349 65.1674 382.293 58.8016 382.275 59.1417C382.321 56.5631 382.33 51.269 382.332 45.6926C382.319 45.1558 382.306 44.6191 382.292 44.0823C382.321 49.4758 382.278 45.7985 382.253 47.406C382.238 48.3341 382.209 51.1732 382.187 52.2135ZM152.367 238.355C143.311 238.415 148.918 238.366 139.129 238.366C139.812 238.398 140.496 238.429 141.179 238.461C145.992 238.403 153.911 238.441 152.376 238.355C152.373 238.355 152.37 238.355 152.367 238.355ZM56.576 238.461C61.7562 238.441 59.1567 238.392 65.723 238.377C65.7261 238.377 65.7292 238.377 65.7324 238.377C62.337 238.373 58.9415 238.369 55.5461 238.366C55.8894 238.397 56.2327 238.429 56.576 238.461ZM359.406 238.422C361.619 238.428 362.652 238.427 363.516 238.428C363.867 238.428 364.202 238.334 364.495 238.162C365.242 237.725 366.032 237.268 367.832 236.233C373.584 232.777 368.694 235.667 368.666 235.62C367.353 236.412 366.039 237.204 364.725 237.996C364.639 238.045 364.557 238.092 364.48 238.136C364.146 238.329 363.805 238.393 363.516 238.39C361.933 238.361 362.806 238.342 363.516 238.331C363.918 238.332 364.27 238.178 364.442 238.072C364.49 238.042 364.519 238.024 364.519 238.024C364.516 238.025 364.513 238.027 364.511 238.029C364.507 238.022 364.526 238.006 364.433 238.056C364.307 238.118 364.054 238.289 363.516 238.298C363.34 238.296 363.114 238.294 362.824 238.292C361.684 238.336 360.545 238.379 359.406 238.422ZM378.775 229.667C377.325 230.562 376.689 230.991 380.558 228.739C380.561 228.737 380.564 228.736 380.566 228.734C380.636 228.669 380.936 228.48 381.371 228.217C381.867 227.932 382.319 227.31 382.315 226.56C382.316 225.066 382.338 223.099 382.335 221.944C382.326 221.43 382.317 220.917 382.308 220.404C382.297 222.456 382.285 224.508 382.273 226.56C382.276 227.212 381.909 227.849 381.345 228.173C380.488 228.671 379.631 229.169 378.775 229.667ZM382.177 155.672C382.265 155.653 382.274 159.411 382.355 154.123C382.354 153.096 382.352 152.069 382.351 151.043C382.331 150.369 382.312 149.694 382.292 149.02C382.453 135.996 382.179 132.113 382.282 154.123C382.282 154.126 382.282 154.129 382.282 154.132C382.247 154.646 382.212 155.159 382.177 155.672ZM382.184 178.61C382.231 178.776 382.277 178.941 382.324 179.106C382.211 181.982 382.319 185.698 382.239 191.338C382.253 191.849 382.268 192.359 382.282 192.869C382.251 194.977 382.242 215.681 382.313 211.196C382.345 209.238 382.302 204.972 382.303 204.605C382.307 203.361 382.347 201.738 382.344 199.638C382.343 198.424 382.296 195.866 382.296 193.389C382.296 187.851 382.422 177.742 382.303 170.46C382.317 169.936 382.331 169.412 382.345 168.887C382.336 163.484 382.292 165.288 382.345 160.26C382.124 156.786 382.356 180.471 382.177 175.539C382.177 175.542 382.177 175.546 382.177 175.549C382.179 176.569 382.182 177.59 382.184 178.61ZM283.843 238.355C283.516 238.316 277.249 238.377 278.721 238.282C276.676 238.315 274.63 238.348 272.584 238.381C272.6 238.39 272.616 238.399 272.631 238.408C274.665 238.401 276.698 238.394 278.731 238.387C278.739 238.401 278.746 238.415 278.754 238.429C281.784 238.378 294.428 238.4 294.043 238.45C294.719 238.429 295.394 238.408 296.07 238.387C302.118 238.444 307.321 238.384 313.91 238.439C314.42 238.422 314.93 238.405 315.441 238.387C315.773 238.401 316.105 238.415 316.438 238.429C318.838 238.431 321.238 238.433 323.637 238.435C331.458 238.378 316.263 238.305 314.42 238.313C314.175 238.314 314.213 238.351 312.683 238.356C309.966 238.366 294.757 238.33 290.055 238.354C290.014 238.33 289.974 238.306 289.933 238.282C287.903 238.306 285.873 238.331 283.843 238.355ZM382.271 126.612C382.296 126.268 382.32 125.925 382.345 125.582C382.32 119.657 382.342 115.927 382.261 117.446C382.261 117.449 382.261 117.452 382.261 117.455C382.264 120.507 382.268 123.559 382.271 126.612ZM65.798 0.602613C65.9534 0.651385 68.7856 0.669618 72.4453 0.634655C72.269 0.620495 72.0926 0.606336 71.9163 0.592176C70.0091 0.633708 67.629 0.56132 61.7441 0.570936C61.7441 0.595472 61.7441 0.620007 61.7441 0.644543C63.0953 0.630566 64.4467 0.616589 65.798 0.602613ZM382.261 131.723C382.232 133.529 382.32 138.597 382.324 135.262C382.327 132.713 382.276 130.755 382.261 131.723ZM36.1988 238.413C37.5376 238.418 38.8764 238.423 40.2153 238.429C40.9127 238.408 41.6102 238.387 42.3077 238.366C42.3046 238.366 42.3015 238.366 42.2984 238.366C40.2652 238.382 38.232 238.397 36.1988 238.413ZM342.428 238.426C346.968 238.423 351.509 238.42 356.05 238.417C356.095 238.404 356.14 238.39 356.186 238.376C351.637 238.426 349.808 238.372 348.747 238.369C348.752 238.369 348.757 238.369 348.761 238.369C345.356 238.358 342.111 238.35 338.889 238.334C340.068 238.365 341.248 238.396 342.428 238.426ZM326.863 238.34C327.628 238.437 328.627 238.448 335.603 238.38C335.326 238.368 335.05 238.356 334.774 238.345C331.159 238.352 329.051 238.374 329.686 238.324C328.745 238.329 327.804 238.335 326.863 238.34ZM382.266 213.265C382.235 214.102 382.266 220.746 382.282 220.385C382.288 220.242 382.326 211.633 382.266 213.265ZM15.3583 0.623852C16.889 0.630871 18.4198 0.63789 19.9505 0.644909C17.9142 0.655345 15.8778 0.665782 13.8415 0.676219C14.3471 0.658763 14.8527 0.641308 15.3583 0.623852ZM0.655464 4.77118C0.643207 5.86234 0.556745 2.31451 0.534435 8.83913C0.53362 6.72609 0.532806 4.61304 0.531991 2.5C0.508761 1.50682 1.40133 0.613747 2.39485 0.636549C4.50648 0.635734 6.61806 0.63492 8.72969 0.634106C6.61806 0.64736 4.50648 0.660615 2.39485 0.673869C2.18645 0.674428 1.97545 0.711274 1.77752 0.783391C1.9782 0.718876 2.1892 0.690589 2.39485 0.698106C2.66837 0.71559 2.94172 0.733073 3.21525 0.750557C2.94172 0.751148 2.66837 0.751739 2.39485 0.752329C1.46305 0.731883 0.627707 1.57018 0.650559 2.5C0.652194 3.25706 0.653829 4.01412 0.655464 4.77118ZM0.592112 9.86899C0.592255 9.86343 0.592397 9.85794 0.59254 9.85253C0.603904 9.42063 0.61344 9.46989 0.621396 9.85253C0.659162 11.6688 0.661351 20.9968 0.654732 22.0307C0.652823 22.3101 0.603002 23.6384 0.592295 24.1279C0.592234 22.0947 0.592173 20.0615 0.592112 18.0283C0.576426 18.7086 0.560741 19.389 0.545055 20.0693C0.539684 17.6897 0.534313 15.3101 0.528942 12.9305C0.544689 13.9479 0.560435 14.9652 0.576182 15.9826C0.581492 13.9447 0.586802 11.9069 0.592112 9.86899ZM47.4758 0.681346C45.7735 0.679698 44.071 0.67805 42.3687 0.676402C42.7088 0.700937 43.049 0.725473 43.3892 0.750008C44.4081 0.750008 45.427 0.750008 46.446 0.750008C46.7893 0.727121 47.1326 0.704233 47.4758 0.681346ZM12.7883 0.713022C15.2668 0.594889 22.0208 0.853149 14.1271 0.757515C13.3316 0.747793 12.5537 0.724435 12.7883 0.713022ZM0.640633 27.077C0.726761 32.3703 0.536602 31.1758 0.592295 26.1782C0.595258 25.927 0.634273 26.6797 0.640633 27.077ZM0.64338 66.7641C0.64274 67.1928 0.58117 67.9424 0.639718 72.0351C0.632699 72.7107 0.62568 73.3864 0.618661 74.062C0.590053 72.4809 0.573036 58.9549 0.634042 60.8237C0.634993 62.8941 0.645282 64.6223 0.64338 66.7641ZM0.871156 53.6661C0.869447 51.6361 0.867738 49.606 0.866029 47.5759C0.846743 48.2453 0.827456 48.9147 0.80817 49.5841C0.802921 48.5855 0.797672 47.5868 0.792423 46.5882C0.825686 44.8811 0.858949 43.174 0.892212 41.467C0.897522 45.8798 0.902832 50.2926 0.908142 54.7054C0.895813 54.3589 0.883485 54.0125 0.871156 53.6661ZM3.63189 1.02393C3.22909 1.02143 2.81703 1.01947 2.39485 1.01795C1.6318 0.995071 0.893996 1.68051 0.909066 2.5C0.906265 4.66553 0.91138 7.08831 0.914501 9.85253C0.916215 11.3701 0.917327 12.9907 0.916198 14.7281C0.916137 14.7312 0.916076 14.7343 0.916015 14.7374C0.915734 15.0538 0.88924 15.6148 0.888184 16.6333C0.887341 17.5013 0.916434 34.6343 0.871522 33.2983C0.831264 26.6692 0.89247 24.1928 0.792606 22.6018C0.813663 22.2788 0.834719 21.9558 0.855776 21.6328C0.892235 15.2583 0.819343 13.4395 0.792606 9.85963C0.808475 9.87367 0.824343 9.88771 0.840212 9.90176C0.840223 9.88535 0.840234 9.86894 0.840245 9.85253C0.841821 7.47842 0.843397 5.1043 0.844973 2.73019C0.834536 3.06723 0.824099 3.40428 0.813663 3.74132C0.813663 3.32755 0.813663 2.91377 0.813663 2.5C0.80357 1.81094 1.29895 1.15665 1.96568 0.977917C2.10493 0.940799 2.25021 0.922842 2.39485 0.924838C4.39887 0.966884 6.65272 0.978882 3.63189 1.02393ZM0.844973 62.874C0.965337 64.7506 0.882892 83.0384 0.908142 91.3918C0.835665 87.0062 0.885613 80.212 0.886353 75.429C0.88772 66.1823 0.843363 72.5739 0.823916 71.0052C0.814299 70.2301 0.891471 64.9852 0.844973 62.874ZM17.9001 1.00287C13.2901 0.993147 10.7092 1.02086 6.72148 0.976686C7.05538 0.967897 7.38927 0.959108 7.72326 0.950319C9.08898 0.958365 20.2242 0.983751 17.9001 1.00287ZM0.876649 103.633C0.919871 94.7293 0.810889 99.1211 0.892579 94.4907C0.897766 97.5382 0.902954 100.586 0.908142 103.633C0.897644 103.633 0.887147 103.633 0.876649 103.633ZM381.808 141.914C381.805 145.667 381.783 149.857 381.829 152.101C381.836 149.551 381.843 147.001 381.85 144.452C381.836 143.606 381.822 142.76 381.808 141.914ZM381.364 34.9119C381.353 35.7686 381.386 39.1565 381.386 39.5135C381.386 40.1768 381.37 39.9956 381.366 40.005C381.368 44.3464 381.418 40.3411 381.428 43.5533C381.43 44.1026 381.406 51.6486 381.408 54.7179C381.411 59.4401 381.408 64.1556 381.408 65.92C381.41 68.8984 381.447 74.4273 381.448 79.3222C381.449 81.3403 381.42 82.0447 381.421 84.0736C381.425 97.0979 381.466 122.738 381.447 134.293C381.443 137.148 381.404 139.871 381.407 141.381C381.421 142.571 381.435 143.762 381.449 144.952C381.323 148.614 381.435 149.839 381.447 153.786C381.455 156.293 381.417 157.466 381.417 157.802C381.418 160.035 381.436 161.137 381.439 162.891C381.442 164.859 381.425 167.687 381.428 168.391C381.43 168.823 381.48 167.444 381.479 175.081C381.478 182.864 381.473 190.548 381.471 198.463C381.622 195.823 381.518 193.549 381.513 190.318C381.511 189.451 381.535 190.001 381.534 189.246C381.531 187.114 381.508 183.033 381.513 181.269C381.52 179.364 381.575 180.015 381.555 177.599C381.554 177.477 381.531 177.863 381.527 177.295C381.489 171.583 381.529 169.714 381.53 162.493C381.531 157.708 381.508 128.653 381.523 127.655C381.603 122.454 381.604 153.071 381.598 156.651C381.595 157.904 381.57 156.59 381.565 157.732C381.563 158.216 381.611 162.568 381.615 166.87C381.62 172.071 381.587 182.524 381.589 187.481C381.592 200.552 381.591 213.567 381.589 226.56C381.592 226.975 381.36 227.381 381.001 227.588C375.37 230.903 369.744 234.214 364.119 237.525C363.938 237.632 363.727 237.689 363.516 237.689C341.236 237.683 318.97 237.674 296.552 237.674C295.644 237.674 294.449 237.703 291.492 237.703C236.294 237.702 179.086 237.68 123.185 237.693C110.997 237.696 98.91 237.723 86.6105 237.702C85.0844 237.723 83.5583 237.744 82.0323 237.765C85.9357 237.748 93.0885 237.796 93.7399 237.797C93.9745 237.797 95.4544 237.773 97.8406 237.774C101.196 237.776 102.668 237.797 102.943 237.797C103.797 237.797 103.237 237.775 104.053 237.775C110.131 237.776 114.834 237.77 120.413 237.77C126.715 237.769 129.91 237.81 134.499 237.765C135.019 237.783 135.538 237.8 136.058 237.818C139.487 237.742 159.904 237.751 168.175 237.755C170.785 237.756 170.327 237.787 171.204 237.787C171.764 237.787 171.543 237.746 178.371 237.754C181.808 237.758 182.709 237.788 184.433 237.787C185.37 237.786 185.218 237.757 186.563 237.757C194.345 237.757 200.698 237.766 208.317 237.772C210.458 237.773 210.482 237.798 210.961 237.797C212.726 237.796 215.796 237.755 220.282 237.755C227.666 237.755 242.382 237.755 248.42 237.775C249.308 237.778 250.043 237.807 250.695 237.807C251.683 237.806 252.071 237.776 252.245 237.776C255.549 237.775 253.561 237.804 255.774 237.797C256.967 237.793 258.211 237.758 260.984 237.754C264.646 237.749 263.925 237.79 265.455 237.786C265.617 237.786 265.665 237.757 267.168 237.756C272.869 237.753 281.14 237.746 286.534 237.746C288.084 237.746 289.237 237.765 291.398 237.766C295.753 237.766 320.507 237.754 322.537 237.765C322.752 237.766 320.55 237.809 324.059 237.807C325.078 237.79 326.097 237.772 327.116 237.755C328.819 237.783 330.523 237.811 332.227 237.839C332.166 237.742 342.191 237.727 342.091 237.826C343.188 237.83 344.285 237.834 345.382 237.838C347.666 237.77 349.187 237.795 353.602 237.755C354.29 237.776 354.978 237.797 355.666 237.818C355.839 237.804 356.013 237.79 356.186 237.776C358.542 237.852 362.406 237.775 362.875 237.775C363.095 237.775 363.309 237.775 363.516 237.775C363.749 237.776 363.975 237.711 364.164 237.6C365.224 236.981 366.052 236.506 366.614 236.175C369.337 234.569 375.22 231.073 378.408 229.21C378.557 229.123 378.427 229.237 379.334 228.708C380.124 228.247 380.564 227.977 381.056 227.682C381.394 227.48 381.689 227.098 381.698 226.56C381.701 226.149 381.709 225.651 381.723 224.996C381.709 224.486 381.695 223.975 381.681 223.465C381.688 222.924 381.696 222.382 381.703 221.841C381.699 218.645 381.695 215.449 381.692 212.254C381.747 215.161 381.777 211.816 381.734 208.654C381.719 207.584 381.686 208.533 381.681 208.176C381.674 207.687 381.691 193.345 381.713 192.396C381.702 191.717 381.692 191.039 381.681 190.36C381.702 190.017 381.723 189.673 381.744 189.33C381.737 188.956 381.73 188.581 381.722 188.207C381.759 184.474 381.674 174.786 381.681 173.03C381.684 172.092 381.774 172.936 381.765 168.438C381.741 168.282 381.716 168.126 381.691 167.97C381.688 166.94 381.684 165.91 381.68 164.88C381.683 162.948 381.726 160.135 381.755 160.045C381.737 159.441 381.72 158.837 381.702 158.233C381.759 156.611 381.739 147.963 381.703 144.484C381.72 143.467 381.737 142.45 381.755 141.432C381.734 140.065 381.713 138.698 381.692 137.331C381.685 134.165 381.72 137.51 381.723 136.835C381.729 135.407 381.67 128.131 381.744 128.61C381.744 127.618 381.744 126.626 381.744 125.633C381.723 125.123 381.702 124.613 381.681 124.102C381.754 122.399 381.728 119.451 381.754 113.406C381.738 112.899 381.721 112.392 381.704 111.885C381.728 110.015 381.752 108.146 381.776 106.276C381.748 105.893 381.72 105.509 381.693 105.125C381.689 104.312 381.685 103.499 381.681 102.686C381.743 101.034 381.676 98.0684 381.701 96.5583C381.739 94.3554 381.783 96.059 381.791 100.149C381.836 99.843 381.816 87.6599 381.812 84.8507C381.804 85.0364 381.795 85.2221 381.786 85.4078C381.793 88.2804 381.8 91.1532 381.807 94.0258C381.694 96.4328 381.724 88.6319 381.71 85.052C381.708 84.7249 381.665 82.8694 381.669 79.2614C381.671 77.8641 381.734 72.4139 381.737 71.3736C381.766 62.9723 381.676 69.1497 381.755 60.9299C381.695 62.6434 381.744 57.9206 381.733 53.0047C381.731 52.1678 381.682 45.0718 381.681 44.5925C381.673 41.6043 381.726 44.8574 381.712 40.534C381.698 40.0144 381.684 39.4947 381.67 38.9751C381.67 37.9687 381.67 36.9622 381.67 35.9558C381.795 29.8483 381.703 28.4276 381.691 26.2564C381.687 25.3792 381.719 26.5085 381.712 24.2341C381.71 23.3777 381.683 22.428 381.681 20.124C381.675 12.9142 381.791 10.4668 381.67 3.83817C381.678 3.39212 381.686 2.94606 381.693 2.5C381.719 1.80883 381.102 1.16766 380.395 1.17469C380.347 1.17387 380.299 1.17305 380.252 1.17224C379.565 1.19317 378.879 1.21411 378.192 1.23504C372.941 1.17429 374.837 1.23651 372.94 1.23577C367.932 1.23387 357.682 1.22196 356.785 1.17187C352.461 1.28693 347.292 1.15713 345.588 1.16162C344.575 1.17559 343.562 1.18957 342.549 1.20355C341.359 1.18951 340.168 1.17547 338.978 1.16143C339.557 1.27442 333.39 1.16331 332.799 1.16162C332.115 1.15993 322.632 1.19336 319.101 1.19274C315.576 1.19211 309.433 1.16149 308.892 1.16143C308.27 1.16143 302.269 1.19215 297.577 1.19183C293.472 1.1915 269.152 1.14787 270.684 1.19824C272.275 1.21219 274.54 1.22428 276.498 1.23083C282.577 1.25091 318.255 1.27663 327.373 1.28466C344.764 1.29983 362.865 1.2979 380.395 1.30713C381.031 1.29229 381.602 1.86564 381.587 2.5C381.587 2.8777 381.586 3.25512 381.586 3.6322C381.586 4.71281 381.556 4.87724 381.556 5.80428C381.555 7.21176 381.584 10.7836 381.583 12.1707C381.581 17.3516 381.576 23.6556 381.575 26.4296C381.574 32.6296 381.556 36.8822 381.553 41.5732C381.553 43.0418 381.589 50.4666 381.574 55.5559C381.565 56.4781 381.557 57.4003 381.549 58.3224C381.539 55.7013 381.514 48.8241 381.511 45.6318C381.507 40.8807 381.531 38.4027 381.531 36.6486C381.53 35.1802 381.503 27.6751 381.503 24.2575C381.503 23.1968 381.533 22.9791 381.533 22.0714C381.532 17.1454 381.532 10.6577 381.501 6.38473C381.506 7.24476 381.513 5.03231 381.519 2.5C381.537 1.90671 380.994 1.35686 380.395 1.37223C378.297 1.36789 376.364 1.36481 376.132 1.36486C375.153 1.36487 374.091 1.3936 372.092 1.3936C368.249 1.39359 368.736 1.33348 363.933 1.3936C362.744 1.37609 361.555 1.35857 360.366 1.34105C360.293 1.42113 345.269 1.31221 340.995 1.40953C340.883 1.42052 360.407 1.45171 362.019 1.45329C367.283 1.45853 373.923 1.45509 380.395 1.45314C380.954 1.43958 381.456 1.9441 381.442 2.5C381.443 7.35973 381.443 12.0519 381.438 15.9109C381.433 18.7349 381.385 27.6134 381.386 28.2833C381.387 29.3636 381.415 28.3878 381.416 28.8544C381.436 38.4077 381.38 33.6415 381.364 34.9119ZM0.971495 9.85963C0.971497 9.85726 0.9715 9.8549 0.971503 9.85253C0.974286 7.40169 0.977069 4.95084 0.979852 2.5C0.969988 1.85793 1.45323 1.25395 2.08183 1.12142C1.79401 1.20405 1.5418 1.37969 1.3678 1.60737C1.15333 1.85013 1.03017 2.17545 1.03044 2.5C1.02483 3.59099 1.01922 4.68197 1.01361 5.77295C1.02411 6.79501 1.0346 7.81707 1.0451 8.83913C1.02074 9.17693 0.996371 9.51473 0.972006 9.85253C0.971836 9.8549 0.971665 9.85726 0.971495 9.85963ZM1.0451 17.0125C1.05395 19.5293 1.01688 19.6523 1.01507 20.2331C1.00958 21.9666 1.02457 23.4659 1.02404 25.1484C0.935994 23.2105 0.976346 19.0829 1.0451 17.0125ZM38.296 1.18194C37.7286 1.17773 33.94 1.08294 29.6312 1.17114C26.4074 1.14312 23.1836 1.11511 19.9598 1.08709C25.4368 1.12989 33.0156 1.0854 35.698 1.08709C36.7166 1.08774 36.911 1.11683 37.7249 1.11731C42.4165 1.11963 46.9777 1.0537 47.4571 1.15008C43.0205 1.12208 39.0201 1.18712 38.296 1.18194ZM9.98424 1.1477C9.23371 1.12756 8.48316 1.10742 7.73258 1.08728C10.4446 1.08728 13.1565 1.08728 15.8685 1.08728C15.1352 1.10766 14.4017 1.12805 13.6683 1.14843C12.4403 1.14819 11.2123 1.14795 9.98424 1.1477ZM218.62 1.21435C216.947 1.21411 215.274 1.21386 213.602 1.21362C213.693 1.2283 215.607 1.22824 216.312 1.23815C216.309 1.23815 216.306 1.23815 216.303 1.23815C217.088 1.24935 216.752 1.26825 218.18 1.2766C218.327 1.25585 218.473 1.2351 218.62 1.21435ZM80.0053 237.702C77.2014 237.701 51.3087 237.701 53.5145 237.755C54.6262 237.781 63.4819 237.758 66.0928 237.758C69.6126 237.759 79.1181 237.817 80.0053 237.702ZM34.1484 237.692C33.6999 237.745 49.882 237.754 51.4641 237.744C51.1282 237.737 50.6104 237.72 50.1628 237.716C47.9803 237.698 37.637 237.706 34.1484 237.692ZM312.295 1.36834C310.991 1.34136 309.686 1.31438 308.382 1.28741C308.725 1.3225 309.068 1.35759 309.411 1.39269C310.373 1.38457 311.334 1.37645 312.295 1.36834ZM381.565 59.3711C381.563 81.1026 381.562 102.834 381.56 124.566C381.545 122.654 381.531 120.743 381.516 118.831C381.521 100.106 381.536 80.1362 381.514 62.0534C381.531 61.1593 381.548 60.2651 381.565 59.3711ZM44.419 1.33996C49.9871 1.34048 54.6377 1.3147 60.6955 1.3557C54.9228 1.39544 52.0648 1.33396 46.4553 1.39251C46.4522 1.39251 46.4491 1.39251 46.446 1.39251C45.7704 1.37499 45.0946 1.35747 44.419 1.33996ZM168.732 1.35058C167.04 1.37511 165.346 1.39965 163.653 1.42418C165.69 1.42418 167.726 1.42418 169.762 1.42418C169.419 1.39965 169.076 1.37511 168.732 1.35058ZM362.304 237.534C356.48 237.587 341.581 237.491 336.848 237.555C336.542 237.559 339.356 237.586 334.807 237.639C338.243 237.628 340.669 237.617 340.925 237.576C341.946 237.59 342.966 237.604 343.987 237.618C345.68 237.607 347.373 237.597 349.066 237.586C348.882 237.627 349.016 237.625 351.617 237.597C352.803 237.607 353.989 237.618 355.175 237.628C355.677 237.611 356.179 237.593 356.682 237.576C357.709 237.6 358.735 237.625 359.762 237.649C363.764 237.623 361.327 237.575 362.304 237.534ZM380.109 227.939C379.485 228.299 365.851 236.346 364.073 237.445C363.79 237.589 363.761 237.607 364.083 237.462C364.429 237.269 365.242 236.802 366.653 235.983C369.4 234.363 372.147 232.742 374.894 231.121C372.548 232.344 380.1 228.038 380.716 227.679C380.799 227.63 380.883 227.581 380.967 227.532C381.3 227.342 381.528 226.961 381.525 226.56C381.528 223.407 381.503 219.808 381.505 217.642C381.506 215.51 381.531 214.244 381.53 212.745C381.528 207.639 381.527 199.573 381.471 198.463C381.469 202.432 381.469 206.464 381.47 210.592C381.472 214.879 381.421 218.658 381.488 226.56C381.489 226.717 381.456 226.876 381.389 227.022C381.278 227.258 381.107 227.411 380.949 227.501C379.849 228.134 380.297 227.831 380.109 227.939ZM158.556 1.41851C158.759 1.36193 148.454 1.37546 148.388 1.39782C148.368 1.41092 151.724 1.41061 152.203 1.41558C152.206 1.41558 152.209 1.41558 152.213 1.41558C152.412 1.41775 151.399 1.4394 152.976 1.44542C154.836 1.43645 156.696 1.42748 158.556 1.41851ZM120.278 237.576C118.884 237.544 87.061 237.555 86.1236 237.571C85.869 237.575 86.2241 237.589 86.1236 237.597C93.5478 237.552 104.102 237.605 111.149 237.608C113.114 237.609 112.527 237.587 112.638 237.586C112.643 237.586 112.647 237.586 112.652 237.586C113.767 237.586 118.799 237.641 120.278 237.576ZM326.657 237.581C328.01 237.59 329.363 237.598 330.715 237.607C331.059 237.59 331.402 237.572 331.745 237.555C331.742 237.555 331.739 237.555 331.736 237.555C330.043 237.563 328.35 237.572 326.657 237.581ZM279.784 237.523C280.113 237.535 280.443 237.548 280.772 237.56C284.178 237.562 287.585 237.563 290.991 237.565C290.648 237.572 290.304 237.579 289.961 237.586C295.111 237.605 297.245 237.561 299.988 237.568C299.985 237.568 299.982 237.568 299.979 237.568C300.274 237.568 300.631 237.594 301.73 237.595C304.248 237.597 311.465 237.606 312.337 237.581C314.183 237.525 299.658 237.552 296.95 237.549C295.726 237.548 294.254 237.525 293.509 237.525C292.694 237.524 291.583 237.555 289.596 237.554C289.015 237.554 282.569 237.518 279.784 237.523ZM219.659 237.56C220.71 237.588 222.903 237.561 223.708 237.565C223.901 237.566 222.404 237.59 224.218 237.597C224.732 237.581 225.245 237.565 225.759 237.549C223.725 237.553 221.692 237.556 219.659 237.56ZM141.24 1.44524C141.536 1.4512 147.069 1.44902 147.335 1.44524C150.65 1.39451 139.19 1.40001 141.24 1.44524ZM1.6935 1.79178C1.83406 1.67115 1.84929 1.67472 1.74463 1.76298C1.65113 1.85216 1.42384 2.08372 1.42174 2.5C1.43026 3.86306 1.43234 6.58306 1.43098 9.85253C1.42746 18.3238 1.40085 30.4837 1.40324 32.2872C1.35691 32.141 1.40349 24.9575 1.33989 28.7201C1.37487 25.13 1.3563 15.2052 1.36644 12.8696C1.37257 11.4521 1.4126 11.0943 1.41386 10.8801C1.41468 10.7279 1.41383 10.3593 1.41205 9.85253C1.40545 7.97732 1.38607 4.20917 1.39091 2.5C1.39434 2.11143 1.60106 1.87818 1.6935 1.79178ZM1.37175 57.2379C1.38054 54.3683 1.38933 51.4988 1.39812 48.6292C1.40337 52.0152 1.40861 55.4013 1.41386 58.7874C1.39983 58.2709 1.38579 57.7544 1.37175 57.2379ZM1.39281 60.8471C1.43772 60.7553 1.40351 70.4956 1.41386 73.0556C1.33746 70.1694 1.40949 65.3548 1.39281 60.8471ZM104.539 1.56114C109.027 1.59084 110.956 1.45393 105.499 1.51353C105.333 1.5155 104.352 1.55957 104.539 1.56114ZM360.918 237.341C360.153 237.34 350.637 237.296 350.086 237.318C348.344 237.388 354.589 237.36 356.682 237.386C360.058 237.429 355.093 237.465 363.334 237.439C362.997 237.453 362.66 237.467 362.323 237.481C362.774 237.481 363.17 237.481 363.516 237.48C363.705 237.479 363.875 237.424 364.012 237.342C366.321 235.961 365.383 236.429 366.015 236.045C366.242 235.907 368.844 234.384 369.31 234.102C373.535 231.548 367.689 235.001 363.94 237.219C363.809 237.297 363.66 237.336 363.516 237.336C362.134 237.339 361.091 237.341 360.918 237.341ZM215.629 1.57158C224.563 1.61279 220.719 1.55232 229.887 1.55601C230.193 1.52516 216.791 1.54452 215.629 1.57158ZM381.292 163.321C381.304 172.561 381.263 180.16 381.318 188.778C381.401 188.217 381.313 160.925 381.292 163.321ZM13.7713 237.312C49.7222 237.461 91.1903 237.412 129.467 237.41C133.638 237.409 134.038 237.442 135.548 237.439C136.536 237.437 136.363 237.41 137.677 237.41C185.174 237.405 230.654 237.371 276.152 237.386C279.017 237.388 292.96 237.445 295.939 237.358C298.192 237.293 288.176 237.344 286.506 237.343C285.252 237.343 285.199 237.312 284.362 237.312C283.475 237.312 284.208 237.333 283.178 237.333C278.813 237.335 274.05 237.327 270.103 237.328C231.398 237.346 193.743 237.341 155.241 237.338C150.581 237.337 151.539 237.313 151.304 237.313C151.301 237.313 151.298 237.313 151.295 237.313C126.307 237.311 97.7696 237.366 71.303 237.345C52.6656 237.328 34.0283 237.311 15.3909 237.294C14.851 237.3 14.3111 237.306 13.7713 237.312ZM378.292 228.875C376.241 229.975 375.841 230.32 368.633 234.521C368.056 234.879 367.479 235.237 366.902 235.595C370.703 233.353 374.503 231.111 378.304 228.868C378.3 228.871 378.296 228.873 378.292 228.875ZM325.547 237.394C324.138 237.269 305.482 237.358 297.081 237.334C295.541 237.397 307.753 237.368 310.633 237.375C312.071 237.378 319.773 237.443 325.627 237.407C325.6 237.403 325.574 237.399 325.547 237.394ZM33.2076 1.68785C34.5651 1.68418 35.9227 1.68052 37.2802 1.67686C33.8833 1.66294 30.4863 1.64903 27.0893 1.63511C32.5085 1.64408 37.9278 1.65306 43.347 1.66203C42.3375 1.68809 41.3279 1.71415 40.3183 1.74021C37.9481 1.72276 35.5778 1.7053 33.2076 1.68785ZM50.7901 1.67448C41.3 1.68429 51.207 1.61453 53.5754 1.64555C54.9931 1.66415 51.759 1.67342 50.7901 1.67448ZM75.474 1.71934C71.048 1.76509 62.1038 1.76824 65.2831 1.67686C70.0664 1.71966 73.1496 1.6841 80.085 1.70872C79.0723 1.72624 78.0595 1.74375 77.0468 1.76127C77.0422 1.76127 77.0375 1.76127 77.0328 1.76127C76.5132 1.74729 75.9936 1.73332 75.474 1.71934ZM46.4553 1.72978C40.2396 1.67728 58.2348 1.69523 52.5783 1.72978C52.3132 1.73136 46.7001 1.73178 46.4553 1.72978ZM53.5145 237.218C52.7657 237.248 57.5463 237.247 59.1366 237.249C66.0306 237.258 74.8722 237.245 82.0416 237.249C81.5017 237.239 80.9618 237.229 80.4219 237.22C71.4528 237.219 62.4836 237.218 53.5145 237.218ZM104.469 237.249C109.395 237.249 114.321 237.249 119.248 237.249C119.707 237.249 121.86 237.224 120.259 237.217C114.996 237.228 109.732 237.239 104.469 237.249ZM381.144 199.488C381.127 203.265 381.042 192.389 381.133 192.878C381.137 195.082 381.14 197.285 381.144 199.488ZM381.107 164.342C381.116 166.711 381.125 169.079 381.134 171.448C381.123 171.451 381.112 171.454 381.102 171.457C381.104 169.085 381.106 166.714 381.107 164.342ZM34.1484 237.197C36.6574 237.233 42.643 237.227 46.3757 237.228C43.8048 237.197 37.6767 237.212 34.1484 237.197ZM355.156 237.212C355.462 237.237 340.437 237.231 345.639 237.187C348.811 237.196 351.984 237.204 355.156 237.212ZM324.639 237.176C327.862 237.17 330.358 237.179 329.695 237.217C327.986 237.216 326.278 237.214 324.569 237.213C324.592 237.2 324.616 237.188 324.639 237.176ZM92.3216 1.79294C97.7517 1.78947 103.182 1.78599 108.612 1.78251C108.411 1.79307 108.21 1.80363 108.008 1.81418C102.773 1.8176 97.538 1.82102 92.3028 1.82444C92.3092 1.81394 92.3152 1.80344 92.3216 1.79294ZM31.0776 237.102C27.3482 237.109 23.6189 237.116 19.8896 237.122C23.622 237.13 27.3545 237.137 31.0869 237.144C31.0869 237.13 31.0869 237.116 31.0869 237.102C31.0838 237.102 31.0807 237.102 31.0776 237.102ZM17.9329 1.92972C34.5217 1.97896 13.355 2.03101 8.9778 1.95865C8.97312 1.95871 8.9684 1.95877 8.96376 1.95883C8.58051 1.95244 9.39096 1.92151 8.75308 1.90903C10.4415 1.92301 12.1298 1.93698 13.8181 1.95096C15.3582 1.93357 16.8984 1.91617 18.4384 1.89878C18.9455 1.90561 19.4528 1.91245 19.9598 1.91928C19.2842 1.92276 18.6086 1.92624 17.9329 1.92972ZM1.85202 52.3414C1.84631 67.3831 1.76897 51.9923 1.83005 44.5472C1.84418 44.6007 1.85255 50.9557 1.85202 52.3414ZM1.83536 12.9211C1.83233 11.8983 1.8293 10.8754 1.82627 9.85253C1.82228 8.50516 1.81829 7.15778 1.8143 5.8104C1.82315 5.50769 1.832 5.20497 1.84085 4.90226C1.84882 6.55235 1.85679 8.20244 1.86477 9.85253C1.86558 10.0219 1.8664 10.1912 1.86722 10.3605C1.8566 11.214 1.84598 12.0676 1.83536 12.9211ZM68.3539 2.07712C72.1682 2.08684 77.0339 1.98843 64.7868 2.01431C64.7932 2.02487 64.7993 2.03543 64.8056 2.04599C65.2938 2.0443 66.7262 2.0344 66.8045 2.03519C67.0287 2.03783 66.7641 2.07309 68.3539 2.07712ZM2.13015 80.1944C2.13417 80.6226 2.24554 80.8559 2.13033 85.3109C2.13735 86.6575 2.14437 88.0042 2.15139 89.3508C2.12685 89.6987 2.10232 90.0467 2.07778 90.3947C2.09681 85.1829 2.04716 84.6303 2.04611 84.253C2.04146 82.5205 2.067 83.8027 2.06735 82.6848C2.06819 79.7989 2.05105 73.2408 2.12392 76.2154C2.15003 77.2863 2.12613 79.7661 2.13015 80.1944ZM2.1935 70.0035C2.18421 70.6356 2.15163 68.5993 2.14242 69.0766C2.13439 69.4947 2.10115 75.7762 2.04611 74.0761C2.04843 73.0447 2.05075 72.0133 2.05307 70.9818C2.06814 70.6323 2.08322 70.2828 2.09829 69.9332C2.08438 68.9346 2.07046 67.9359 2.05654 66.9373C2.09374 65.2544 2.14193 61.6732 2.17226 65.9262C2.16909 64.3626 2.16592 62.7991 2.16274 61.2356C2.14492 60.4258 2.1271 59.6159 2.10928 58.8061C2.13644 59.2305 2.1636 59.6549 2.19076 60.0794C2.19167 63.3874 2.19259 66.6954 2.1935 70.0035ZM2.18307 118.472C2.16903 118.282 2.15499 118.092 2.14095 117.901C2.16705 123.643 2.17697 132.586 2.08895 127.507C2.08163 119.729 2.0743 111.95 2.06698 104.171C2.07754 103.655 2.0881 103.138 2.09866 102.622C2.05798 108.425 2.23109 106.632 2.18142 111.68C2.173 112.531 2.11246 110.061 2.15121 115.411C2.16531 115.221 2.1794 115.03 2.1935 114.84C2.19002 116.051 2.18655 117.262 2.18307 118.472ZM2.16201 167.836C2.1823 158.004 2.23353 168.833 2.19094 170.649C2.19094 170.646 2.19094 170.643 2.19094 170.64C2.0744 175.615 2.13071 164.917 2.12997 164.264C2.12894 163.396 2.0455 161.376 2.16714 156.657C2.16543 160.383 2.16372 164.109 2.16201 167.836ZM2.18288 135.737C2.18563 136.563 2.16444 136.105 2.16476 136.462C2.16476 136.465 2.16476 136.468 2.16476 136.472C2.1693 141.734 2.18827 154.252 2.1199 155.608C2.11419 151.713 2.09942 134.281 2.1459 133.228C2.15823 134.064 2.17055 134.9 2.18288 135.737ZM2.13198 98.7038C2.17625 95.4729 2.18214 102.747 2.16164 104.654C2.1572 105.014 2.08612 102.051 2.13198 98.7038ZM152.456 2.3514C159.565 2.32477 150.225 2.29819 153.458 2.25655C152.1 2.26009 150.743 2.26363 149.385 2.26717C150.409 2.29525 151.432 2.32332 152.456 2.3514ZM380.459 97.0873C380.454 98.7443 380.48 97.9593 380.48 98.1031C380.48 99.1916 380.459 100.218 380.461 100.636C380.503 108.359 380.524 103.223 380.529 103.145C380.554 102.982 380.584 105.012 380.612 102.199C380.604 100.492 380.595 98.7851 380.586 97.078C380.6 96.2307 380.614 95.3834 380.628 94.5361C380.598 91.1446 380.589 95.5827 380.55 96.0856C380.534 96.2793 380.515 93.0893 380.459 97.0873ZM165.194 2.43563C166.346 2.39145 169.171 2.33573 166.397 2.29134C166.393 2.29134 166.39 2.29134 166.387 2.29134C165.874 2.28322 163.785 2.27876 163.143 2.26736C158.567 2.32621 160.32 2.38702 165.194 2.43563ZM380.38 66.4677C380.391 63.7152 380.401 60.9626 380.411 58.2101C380.438 58.2569 380.464 58.3037 380.491 58.3505C380.484 59.8236 380.476 61.2966 380.469 62.7696C380.481 63.2861 380.493 63.8026 380.506 64.319C380.536 62.4903 380.566 60.6615 380.596 58.8327C380.586 56.6295 380.575 54.4262 380.564 52.2229C380.551 53.2356 380.537 54.2483 380.523 55.261C380.507 49.8759 380.572 51.0484 380.596 46.5914C380.572 45.0653 380.547 43.5393 380.523 42.0132C380.547 39.8037 380.572 37.5942 380.597 35.3847C380.585 31.6722 380.566 31.3457 380.538 33.8446C380.506 31.9987 380.557 29.9775 380.543 27.7543C380.542 27.5709 380.512 27.9166 380.512 27.7543C380.491 16.26 380.571 16.8714 380.574 15.0356C380.577 13.74 380.523 8.56815 380.505 8.4866C380.48 8.38734 380.384 19.0572 380.38 2.5C380.38 2.49952 380.38 2.50051 380.381 2.50184C380.38 2.50063 380.379 2.49962 380.379 2.5C380.314 11.1592 380.382 20.8594 380.48 14.5066C380.47 17.263 380.495 29.4182 380.492 30.1932C380.487 31.323 380.45 30.9267 380.449 32.3419C380.448 33.1782 380.534 35.394 380.459 42.0132C380.473 42.859 380.487 43.7047 380.501 44.5504C380.49 45.3431 380.478 46.1358 380.467 46.9285C380.426 45.2963 380.384 43.6641 380.343 42.0319C380.388 48.4975 380.304 53.8615 380.375 57.7982C380.367 61.2019 380.358 62.8556 380.322 61.3933C380.322 62.4154 380.322 63.4374 380.322 64.4595C380.342 65.1289 380.361 65.7983 380.38 66.4677ZM186.081 2.37246C189.464 2.41353 190.68 2.32492 190.154 2.31991C187.187 2.29233 184.321 2.35109 186.081 2.37246ZM380.506 90.9456C380.529 87.2132 380.552 83.4807 380.575 79.7482C380.547 79.7482 380.519 79.7482 380.491 79.7482C380.496 83.4807 380.501 87.2132 380.506 90.9456ZM151.417 2.41439C151.074 2.39339 150.73 2.37239 150.387 2.3514C146.299 2.42809 142.24 2.31806 140.219 2.34078C139.781 2.34574 140.666 2.38282 141.502 2.39077C142.022 2.39573 150.693 2.42147 151.417 2.41439ZM2.29915 22.1009C2.28505 20.578 2.27095 19.055 2.25686 17.5321C2.28048 17.6163 2.3041 17.7006 2.32772 17.7849C2.33211 18.537 2.3365 19.2891 2.3409 20.0412C2.32698 20.7278 2.31307 21.4143 2.29915 22.1009ZM2.26162 4.77118C2.26214 4.01412 2.26267 3.25706 2.2632 2.5C2.26077 2.43078 2.32626 2.36625 2.39485 2.36946C3.83077 2.37046 5.26681 2.37146 6.70273 2.37246C4.55813 2.37694 3.22158 2.38095 2.39485 2.38476C2.25936 2.41979 2.30131 2.48533 2.29926 2.47221C2.30661 2.47109 2.31161 2.45645 2.31397 2.5C2.31876 2.84334 2.32411 3.51004 2.33028 4.77118C2.30739 4.77118 2.2845 4.77118 2.26162 4.77118ZM26.0501 2.41457C25.7162 2.42867 25.3823 2.44277 25.0483 2.45686C22.3317 2.45686 19.615 2.45686 16.8984 2.45686C18.6163 2.50581 20.3343 2.55476 22.0524 2.60371C23.0479 2.60383 24.0434 2.60396 25.0389 2.60408C25.376 2.54091 25.713 2.47774 26.0501 2.41457ZM380.354 170.47C380.353 172.112 380.396 177.825 380.412 177.58C380.431 175.207 380.45 172.834 380.47 170.46C380.442 170.449 380.414 170.438 380.386 170.427C380.4 170.092 380.414 169.756 380.428 169.421C380.417 168.071 380.407 166.721 380.396 165.372C380.421 164.691 380.445 164.011 380.47 163.331C380.442 162.647 380.414 161.964 380.386 161.28C380.336 167.797 380.386 167.573 380.385 168.929C380.385 169.617 380.367 170.052 380.359 170.296C380.357 170.354 380.356 170.412 380.354 170.47ZM380.328 88.3663C380.321 96.148 380.395 100.595 380.333 106.225C380.465 102.614 380.329 79.2991 380.438 71.0787C380.417 70.2252 380.396 69.3716 380.375 68.5181C380.394 72.9942 380.35 76.0958 380.344 78.2783C380.339 80.0122 380.361 79.831 380.361 79.9636C380.361 79.9698 380.361 79.9761 380.361 79.9823C380.352 84.0412 380.331 85.297 380.328 88.3663ZM145.636 2.51765C147.727 2.55102 151.385 2.54768 151.426 2.49898C149.39 2.48488 147.354 2.47078 145.317 2.45668C145.735 2.46915 145.279 2.51195 145.636 2.51765ZM29.2099 2.55061C30.8417 2.56646 34.6969 2.55257 33.0344 2.51051C32.7355 2.50305 28.8957 2.53261 31.1479 2.45668C27.4063 2.45786 28.282 2.5415 29.2099 2.55061ZM334.858 2.4673C333.485 2.46871 332.112 2.47011 330.739 2.47151C330.419 2.49117 330.099 2.51082 329.779 2.53047C331.472 2.50941 333.165 2.48836 334.858 2.4673ZM127.988 2.55134C126.162 2.45516 123.043 2.54876 119.618 2.46968C118.352 2.46907 117.087 2.46846 115.821 2.46785C115.818 2.46785 115.815 2.46785 115.812 2.46785C115.777 2.4941 115.743 2.52034 115.709 2.54658C119.802 2.54817 123.895 2.54976 127.988 2.55134ZM380.38 41.0114C380.392 40.1657 380.405 39.32 380.417 38.4742C380.403 36.9685 380.388 35.4627 380.374 33.9569C380.364 34.7715 380.354 35.5859 380.344 36.4005C380.356 37.9375 380.368 39.4745 380.38 41.0114ZM105.743 2.55958C110.169 2.57163 111.834 2.48802 106.173 2.48781C103.787 2.48781 101.105 2.547 105.743 2.55958ZM356.204 236.49C357.721 236.498 359.238 236.505 360.755 236.512C361.271 236.494 361.788 236.477 362.304 236.459C360.271 236.47 358.238 236.48 356.204 236.49ZM8.21942 2.54109C8.39733 2.52351 8.57522 2.50594 8.75308 2.48836C10.106 2.4919 11.4588 2.49544 12.8117 2.49898C12.4715 2.51643 12.1314 2.53389 11.7912 2.55134C10.6006 2.54793 9.41004 2.54451 8.21942 2.54109ZM365.551 235.303C366.598 234.691 367.644 234.078 368.69 233.466C369.388 233.045 370.086 232.624 370.783 232.204C369.801 232.772 368.819 233.34 367.838 233.909C367.075 234.373 366.313 234.838 365.551 235.303ZM63.7851 2.55153C65.4883 2.57266 72.2913 2.50681 66.1631 2.49001C62.2582 2.47934 63.5295 2.54831 63.7851 2.55153ZM54.6053 2.57258C61.0918 2.61285 56.2281 2.40849 48.487 2.54091C56.2799 2.52275 54.2241 2.57015 54.6053 2.57258ZM2.57289 5.75891C2.57278 5.92202 2.5434 6.05646 2.54231 7.35988C2.54166 8.1547 2.5408 8.99261 2.53979 9.85253C2.53485 14.0684 2.52659 18.813 2.5251 21.6C2.52076 29.6668 2.57388 54.3761 2.48884 57.266C2.47098 57.8677 2.41762 56.4828 2.41487 56.7276C2.40721 57.4457 2.4331 61.5787 2.39381 60.8143C2.39412 56.7588 2.39442 52.7034 2.39473 48.6479C2.42244 49.6434 2.45015 50.639 2.47786 51.6345C2.46307 41.5296 2.46477 44.8744 2.40443 41.9679C2.42781 40.2577 2.45119 38.5475 2.47456 36.8373C2.45106 33.1142 2.42757 29.3911 2.40407 25.668C2.42158 26.5122 2.4391 27.3563 2.45662 28.2005C2.48906 22.5914 2.46779 24.1497 2.42531 21.0804C2.44282 21.0742 2.46034 21.0679 2.47786 21.0617C2.43516 15.646 2.48766 14.5911 2.48829 13.408C2.4887 12.4432 2.4562 11.3732 2.42985 9.85253C2.40014 8.13876 2.37823 5.85266 2.42002 2.5C2.42554 2.51272 2.42358 2.53713 2.39485 2.54828C3.11635 2.56043 3.8817 2.57535 4.69449 2.59346C8.59809 2.49428 8.50916 2.69605 10.8035 2.59346C16.2825 2.68607 8.57654 2.67409 2.39485 2.66519C2.48727 2.66478 2.55959 2.58443 2.55784 2.5C2.55694 3.18937 2.55622 3.83918 2.55586 4.42477C2.55586 4.42789 2.55586 4.43102 2.55586 4.43414C2.55554 4.88273 2.57435 4.17053 2.57289 5.75891ZM31.5036 2.57533C27.5039 2.66637 43.3054 2.67489 38.076 2.54347C37.2974 2.5392 36.5187 2.53493 35.7401 2.53065C34.3248 2.54555 32.9096 2.56044 31.4943 2.57533C31.4974 2.57533 31.5005 2.57533 31.5036 2.57533ZM179.972 2.63575C194.608 2.59834 186.286 2.54597 181.33 2.59712C180.341 2.60726 179.799 2.62117 179.972 2.63575ZM380.258 99.4841C380.269 99.6979 380.28 99.9116 380.291 100.125C380.28 95.2174 380.323 85.7268 380.249 85.8572C380.252 90.3995 380.255 94.9418 380.258 99.4841ZM380.21 60.6584C380.205 61.7123 380.195 66.0186 380.222 65.4987C380.242 63.6325 380.261 61.7663 380.281 59.9C380.269 59.0309 380.256 58.1618 380.244 57.2926C380.24 58.5063 380.211 60.373 380.21 60.6584Z" fill="#07596E"/>
</svg>
