<svg width="382" height="238" viewBox="0 0 382 238" fill="none" xmlns="http://www.w3.org/2000/svg">
<path d="M6.92056 188.92C6.94662 195.796 6.91876 204.81 6.88052 211.661C6.86866 213.808 6.81566 212.721 6.80508 214.203C6.79002 216.322 6.79986 218.335 6.79665 220.384C6.80122 221.029 6.43972 221.664 5.87613 221.989C5.5202 222.197 5.16184 222.405 4.79993 222.614C3.97767 223.088 4.95329 222.416 4.09208 222.915C3.29332 223.378 2.50268 223.839 1.71717 224.297C1.63872 224.341 1.58669 224.429 1.58653 224.52C1.57821 227.467 1.58071 230.372 1.57769 233.344C1.57651 233.438 1.62861 233.531 1.7103 233.579C2.41938 233.998 3.13343 234.42 3.85427 234.848C4.5893 235.284 5.32397 235.72 6.05831 236.155C6.10169 236.182 6.15232 236.196 6.20331 236.197C32.3568 236.277 58.1255 236.308 84.6314 236.345C93.7156 236.357 104.759 236.433 114.142 236.4C115.237 236.396 114.584 236.322 114.792 236.316C118.061 236.223 116.974 236.372 119.108 236.392C127.579 236.47 136.998 236.477 145.15 236.448C148.618 236.436 145.141 236.29 148.633 236.372C148.875 236.377 147.995 236.456 148.946 236.464C151.103 236.483 155.195 236.469 156.867 236.475C160.088 236.487 160.621 236.487 163.669 236.487C167.834 236.489 172.789 236.528 177.258 236.51C178.212 236.506 176.949 236.426 178.471 236.413C179.993 236.399 184.022 236.406 185.38 236.425C186.739 236.444 186.16 236.507 186.401 236.521C188.378 236.643 193.038 236.474 193.638 236.47C204.57 236.399 213.944 236.495 224.206 236.495C231.996 236.494 240.326 236.463 247.738 236.467C256.569 236.472 264.054 236.516 272.633 236.508C273.538 236.508 272.477 236.413 273.583 236.412C285.332 236.401 296.999 236.412 308.697 236.475C309.87 236.482 308.358 236.565 309.53 236.576C316.706 236.644 328.061 236.808 332.323 236.447C337.184 236.461 343.085 236.476 347.434 236.548C350.237 236.595 347.514 236.685 350.958 236.647C351.735 236.638 350.725 236.559 351.89 236.552C355.466 236.531 359.283 236.539 362.97 236.529C363.08 236.529 363.189 236.498 363.283 236.442C364.305 235.836 365.312 235.236 366.293 234.647C367.139 234.139 366.871 234.215 367.105 234.062C369.078 232.781 372.536 230.942 373.277 230.52C375.813 229.075 378.031 227.787 380.177 226.528C380.374 226.415 380.5 226.194 380.498 225.969C380.5 223.284 380.492 220.644 380.493 217.692C380.494 216.288 380.399 217.947 380.396 216.596C380.382 209.59 380.391 202.331 380.433 195.47C380.442 193.944 380.523 195.348 380.532 194.618C380.57 191.403 380.417 190.69 380.45 187.606C380.457 186.956 380.526 187.322 380.533 187.203C380.653 185.347 380.484 183.734 380.48 183.257C380.429 177.218 380.606 173.358 380.581 167.523C380.577 166.826 380.49 168.399 380.486 166.437C380.462 153.367 380.486 139.543 380.556 126.605C380.567 124.594 380.633 126.03 380.641 125.903C380.768 123.84 380.598 122.505 380.591 121.849C380.545 116.675 380.688 111.841 380.485 108.325C380.556 86.4106 380.442 64.5967 380.623 42.8633C380.626 42.587 380.709 43.0821 380.713 42.5309C380.76 35.8928 380.63 37.1676 380.471 32.7753C380.431 31.6689 380.623 28.303 380.637 28.0052C380.689 26.9202 380.814 28.0456 380.824 27.6822C380.903 24.6757 380.491 25.1656 380.49 21.1098C380.491 20.9829 380.567 21.5157 380.574 21.1753C380.598 20.1178 380.568 19.0691 380.594 18.0343C380.655 15.6657 380.855 14.8221 380.738 11.2044C380.723 10.7465 380.489 11.4458 380.5 7.82458C380.503 6.95398 380.503 4.28426 380.505 1.90926C380.514 1.53953 380.175 1.2385 379.848 1.24975C378.939 1.24791 378.172 1.24528 377.71 1.24137C375.921 1.22624 377.149 1.15089 377.022 1.14762C372.202 1.04798 374.03 1.00669 371.615 0.859172C369.201 0.712213 369.87 1.06273 368.886 1.10185C367.9 1.14086 364.366 1.05865 363.498 1.03007C362.63 1.00148 363.712 0.953598 362.941 0.937419C357.824 0.831711 360.695 1.1114 359.009 1.16703C355.033 1.29876 351.937 1.03882 348.298 1.01335C347.313 1.00647 348.117 1.06567 347.24 1.07121C343.767 1.09235 341.679 1.01124 337.728 1.08561C337.082 1.09773 333.888 1.25401 331.82 1.13932C331.527 1.12278 332.359 1.05801 330.879 1.0435C328.668 1.02172 324.685 1.00756 322.308 1.02922C320.553 1.04524 322.565 1.15197 320.356 1.11882C319.374 1.10401 321.194 1.04157 319.349 1.01896C317.515 0.996363 312.825 0.999106 311.04 1.00126C309.259 1.00347 310.234 1.08443 310.09 1.08988C309.219 1.12113 305.8 1.16017 305.498 1.16007C290.259 1.16996 276.206 1.03348 261.368 1.07865C260.204 1.08208 260.979 1.16746 260.802 1.16886C256.816 1.20464 259.958 0.977634 257.174 0.901653C257.576 1.07491 255.933 1.04354 253.125 1.06254C251.772 1.07184 252.509 1.13893 252.385 1.14579C250.379 1.24769 248.981 1.11608 248.621 1.08915C247.292 0.990112 245.846 1.10713 244.942 1.04093C244.038 0.975229 246.118 0.877822 243.425 0.87907C242.67 0.941091 244.669 1.10317 242.625 1.12944C234.911 1.22879 220.511 1.10163 214.308 1.08842C208.118 1.07522 206.119 1.08666 202.512 1.06425C195.996 1.02372 198.384 1.14397 194.338 1.19902C190.281 1.25405 192.253 0.958177 191.67 0.894573C191.098 0.830997 190.472 0.896442 189.76 0.861492C189.05 0.82655 190.587 0.783304 188.917 0.770184C187.247 0.757076 182.68 0.870181 182.088 0.936687C180.836 1.07758 182.894 1.22546 178.474 1.1735C178.22 1.17042 179.045 1.09262 178.071 1.08476C170.34 1.02487 162.308 1.02115 154.586 0.968181C153.524 0.960775 154.473 0.874227 153.855 0.868938C147.419 0.81358 149.72 0.959511 146.192 1.12162C146.984 0.905887 145.034 0.773899 140.149 0.772625C137.212 0.771784 137.718 0.866006 135.819 0.932414C135.249 0.952433 133.171 0.887737 132.795 0.932048C131.553 1.0769 133.51 1.23904 128.474 1.17448C128.253 1.17141 128.956 1.09212 128.193 1.08732C123.258 1.05589 122.667 1.2074 117.333 1.22575C113.151 1.24015 105.714 1.14776 100.953 1.13273C101.053 0.890181 96.5562 0.945722 94.7318 1.11296C91.6419 1.10611 88.3045 1.11556 85.318 1.09245C84.2902 1.08457 84.9654 1.01434 84.8358 1.00676C82.8483 0.887725 81.5051 1.05043 80.8381 1.0568C73.6095 1.11881 67.72 0.995495 60.8213 1.11601C60.5765 1.12035 60.1797 1.28883 58.3356 1.16581C58.2164 1.15733 60.4947 1.08068 57.2496 1.07475C54.0038 1.06881 47.8852 0.978488 43.3792 1.05656C42.2887 1.07535 39.5307 1.21213 37.317 1.10527C37.0221 1.09075 37.3449 1.04243 36.9191 1.01554C35.543 0.929865 34.7915 1.10016 33.1742 0.955486C31.5567 0.810819 28.1923 0.702474 23.648 0.802288C23.5032 0.80519 22.4275 0.940164 20.9984 0.93803C18.7171 0.934507 15.4785 0.906389 13.0966 0.907268C11.9561 0.907738 12.686 0.99155 12.488 0.993083C8.58738 1.01697 5.25877 1.00938 1.84828 0.991881C1.36306 0.976898 0.914016 1.4122 0.922258 1.90926C0.908886 4.2141 0.892567 6.6 0.879731 9.26179C0.876938 9.84087 0.87431 10.433 0.871913 11.0402C0.865803 12.5462 0.980094 16.8739 0.889736 19.7894C0.790821 22.9906 0.379354 19.701 0.477383 27.0593C0.516593 30.0271 1.03861 33.7845 0.768154 39.118C0.835172 49.4619 0.696752 59.0279 0.792446 69.4006C0.796685 69.8671 0.942377 71.3421 0.940395 72.4387C0.937169 74.0667 0.869075 74.9604 0.864589 76.1228C0.844078 80.9938 0.902337 85.4513 0.893276 90.1477C0.889983 91.9307 0.819574 91.3072 0.815639 93.4339C0.81177 95.5592 0.904484 96.9764 0.859706 99.8565C0.825575 102.032 0.636069 104.206 0.61398 107.094C0.800907 107.204 0.797056 109.187 0.846401 112.711C0.855975 113.388 0.921035 112.662 0.92892 112.983C0.962452 114.287 0.908531 115.494 0.945033 116.732C0.9538 117.033 1.01764 117.048 1.02841 117.294C1.12242 119.388 0.978824 122.838 0.953822 123.431C0.85887 125.702 0.941898 126.763 0.904506 128.505C0.867119 130.245 0.820383 127.644 0.797695 129.676C0.750768 133.887 0.761078 139.297 0.758144 143.574C0.757368 145.281 0.84258 144.116 0.844448 144.361C0.86606 147.889 0.775418 151.457 0.945155 153.414C0.506279 155.861 0.987724 155.542 0.899867 160.586C0.892761 160.983 0.68522 161.488 0.654751 159.963C0.624311 158.438 0.689185 156.125 0.641689 154.009C0.630543 153.507 0.436064 150.637 0.424283 150.245C0.332213 147.177 0.642355 146.742 0.65939 146.579C0.843221 144.739 0.633706 141.23 0.619229 140.307C0.552893 136.08 0.59651 132.49 0.54916 128.955C0.518558 126.643 0.315403 126.417 0.321622 124.601C0.342175 118.566 0.625578 116.46 0.379849 110.773C0.32744 109.554 0.105398 110.765 0.279996 106.396C0.291003 106.122 0.450729 102.878 0.349698 101.003C0.33696 100.768 0.272249 100.775 0.266813 100.465C0.23165 98.3845 0.283203 96.997 0.258512 94.7306C0.233821 92.4644 0.197013 89.7393 0.218961 87.1517C0.232086 85.5924 0.352652 83.5915 0.382169 82.845C0.467201 80.7373 0.327784 78.4773 0.430753 77.1714C0.53424 75.8546 0.691401 78.429 0.758266 74.9759C0.590142 74.8481 0.41758 74.5543 0.248502 74.3487C0.254422 66.7814 0.308786 59.3357 0.301359 51.7432C0.30027 50.8019 0.209885 51.7645 0.206388 50.7555C0.192029 46.4981 0.256461 42.7794 0.230802 38.3643C0.210595 34.9468 0.114897 31.1993 0.0907879 27.6257C0.283169 25.4429 0.21786 20.14 0.235441 16.2878C0.241515 14.9384 0.292897 15.0286 0.309659 14.069C0.371654 10.4486 0.201648 12.1451 0.174894 11.1526C0.155307 10.4221 0.150403 9.80624 0.155673 9.26179C0.180285 6.71866 0.426862 5.73371 0.435919 1.90926C0.436032 1.72679 0.471943 1.53736 0.547275 1.35913C0.578393 1.26375 0.914788 0.482624 1.84828 0.43591C2.91469 0.374239 4.35508 0.286922 4.64231 0.27873C7.48767 0.195439 5.11324 0.350122 6.89399 0.365278C10.1451 0.392973 12.4044 0.441957 16.2189 0.381879C17.3312 0.364084 19.9994 0.236238 22.1593 0.335126C22.4435 0.348075 22.2864 0.415873 22.5151 0.419843C26.6551 0.486027 26.7639 0.272997 29.1296 0.200849C31.4958 0.128717 35.1503 0.275775 35.894 0.318159C37.8396 0.427803 34.4031 0.365016 34.2977 0.375776C33.0599 0.503822 35.7252 0.481777 37.7618 0.492596C38.0566 0.701474 40.9047 0.688937 39.873 0.502972C39.7556 0.48266 38.1707 0.502139 37.7618 0.492596C39.5494 0.287659 42.6793 0.261412 46.1364 0.452924C47.7547 0.542682 46.2249 0.647336 51.1406 0.609051C53.3715 0.591769 52.5095 0.447946 54.4783 0.408734C58.9762 0.31927 64.821 0.453433 69.4581 0.432294C71.1411 0.42462 69.5016 0.345892 70.6518 0.337934C73.7043 0.316569 76.3962 0.37564 79.4618 0.34538C79.7395 0.342539 79.0609 0.260127 80.0142 0.259077C87.2411 0.249506 93.534 0.302291 101.08 0.303754C104.725 0.304424 111.243 0.258972 115.02 0.26811C121.566 0.283462 129.618 0.403301 135.21 0.374189C138.857 0.355554 138.057 0.273125 139.62 0.216963C142.635 0.108097 147.973 0.3031 148.692 0.333295C148.714 0.334295 145.576 0.353726 147.25 0.396039C148.224 0.484205 148.657 0.333678 148.692 0.333295C149.164 0.352801 155.433 0.371513 156.678 0.355756C157.355 0.347145 156.976 0.269048 157.329 0.266035C165.712 0.196146 174.11 0.176297 182.612 0.212812C182.762 0.21439 182.536 0.301746 182.888 0.304365C187.81 0.343205 190.962 0.236342 195.022 0.172895C199.081 0.109477 202.3 0.130718 204.702 0.280683C207.765 0.261801 212.159 0.328101 214.687 0.368329C217.216 0.408557 217.569 0.238512 217.791 0.235151C224.73 0.127555 228.741 0.224886 235.94 0.240034C239.363 0.247527 246.152 0.222862 249.857 0.204267C252.786 0.189287 254.55 0.229138 257.249 0.203657C257.614 0.200254 257.245 0.124541 257.356 0.121626C260.368 0.0310402 258.921 0.216132 259.543 0.249189C261.797 0.369401 263.19 0.433425 267.047 0.376874C267.936 0.363923 270.527 0.0974169 272.149 0.0818312C274.257 0.0620561 273.462 0.157583 275.669 0.134443C275.858 0.132551 275.819 0.0736175 277.181 0.076216C283.506 0.0875027 290.401 0.121795 296.973 0.115889C297.871 0.115308 296.72 0.0218312 298.017 0.0194535C304.104 0.00837302 310.775 0.0118324 316.705 0.0555862C318.164 0.0666498 317.249 0.1321 317.566 0.151533C319.511 0.269118 322.27 0.0982701 322.725 0.0950148C333.581 0.0129134 341.89 0.167529 352.956 0.0939161C353.558 0.0895945 358.195 -0.0935578 360.263 0.0635207C360.405 0.0739713 362.451 0.234679 364.261 0.1248C364.373 0.117926 363.098 0.0351909 365.323 0.0436233C367.549 0.0520374 371.131 -0.00321245 374.19 0.0876905C375.103 0.114695 377.191 0.258798 379.848 0.167962C380.126 0.161906 380.415 0.224071 380.674 0.354283C380.718 0.385086 381.604 0.744155 381.669 1.90926C381.745 3.37827 381.848 5.93999 381.707 7.06623C381.674 7.32428 381.463 7.05417 381.572 10.5022C381.593 11.161 381.64 9.96506 381.669 11.7006C381.714 14.3597 381.658 17.8831 381.752 21.1519C381.768 21.722 381.912 24.1487 381.803 26.0953C381.786 26.4002 381.715 25.8209 381.708 26.8489C381.67 31.7374 381.717 36.856 381.668 41.8194C381.651 43.5774 381.537 42.6786 381.507 44.5111C381.476 46.3441 381.447 50.0364 381.499 51.9542C381.551 53.8724 381.732 51.7769 381.747 54.6505C381.81 67.143 381.703 79.5183 381.688 91.9925C381.686 93.8426 381.751 92.3088 381.752 95.0352C381.757 105.087 381.817 122.442 381.679 131.165C381.569 138.153 381.485 129.358 381.44 134.699C381.418 137.276 381.629 140.064 381.636 140.686C381.703 146.764 381.61 150.987 381.639 156.457C381.645 157.587 381.73 156.479 381.734 157.44C381.749 160.724 381.711 164.175 381.718 167.313C381.721 168.721 381.787 168.461 381.782 169.756C381.77 172.856 381.743 175.597 381.682 178.618C381.676 178.893 381.595 177.036 381.592 179.329C381.587 183.041 381.527 187.647 381.589 191.917C381.608 193.184 381.757 193.234 381.654 195.957C381.632 196.528 381.453 195.799 381.608 198.972C381.634 199.505 381.843 204.834 381.708 207.449C381.673 208.139 381.526 209.9 381.549 211.424C381.553 211.63 381.633 210.803 381.641 212.065C381.667 216.514 381.658 221.177 381.683 225.748C381.684 225.837 381.685 225.91 381.686 225.969C381.632 226.659 381.666 226.352 381.715 226.253C381.731 226.203 381.75 226.208 381.711 226.423C381.658 226.619 381.574 227.126 380.891 227.596C380.87 227.609 380.85 227.622 380.829 227.634C376.534 230.188 371.158 233.329 366.94 235.783C365.381 236.69 366.42 235.998 366.303 236.059C365.247 236.602 364.47 237.084 363.887 237.467C363.589 237.654 363.266 237.737 362.97 237.747C362.678 237.764 362.437 237.779 362.24 237.782C357.884 237.839 354.567 237.762 350.551 237.782C349.443 237.788 350.229 237.866 350.008 237.873C347.72 237.941 349.425 237.801 347.977 237.785C343.92 237.741 339.398 237.748 335.295 237.758C333.788 237.761 335.482 237.852 334.13 237.855C326.125 237.87 317.805 237.862 309.993 237.812C308.523 237.802 309.448 237.732 309.141 237.716C307.029 237.604 303.932 237.757 303.22 237.771C299.98 237.837 298.722 237.776 295.861 237.787C281.885 237.845 264.629 237.804 251.436 237.778C234.245 237.746 220.906 237.679 204.512 237.697C203.47 237.698 204.521 237.791 203.623 237.793C192.027 237.815 180.61 237.779 168.991 237.806C168.038 237.808 169.412 237.896 167.882 237.902C164.743 237.915 160.766 237.911 157.592 237.883C156.044 237.869 158.121 237.793 156.563 237.781C152.934 237.753 149.045 237.747 145.318 237.761C143.732 237.767 146.125 237.857 144.064 237.858C130.022 237.867 116.231 237.883 102.041 237.766C101.068 237.758 100.214 237.575 98.146 237.61C97.9902 237.661 97.9987 237.72 97.9307 237.775C77.489 237.804 57.256 237.741 36.7569 237.731C35.8926 237.73 37.3862 237.827 35.713 237.827C26.0283 237.826 16.6239 237.853 6.71765 237.756C6.48409 237.754 6.33451 237.742 6.20331 237.727C5.90847 237.701 5.66102 237.636 5.31618 237.416C5.01845 237.197 4.5073 236.861 3.338 236.186C3.1192 236.06 2.08698 235.46 0.979393 234.82C0.462311 234.526 0.123479 233.934 0.126531 233.344C0.116888 232.394 0.105072 231.527 0.0912762 231.107C0.085683 230.954 0.00595367 231.75 0.00362998 230.344C0.000779748 228.421 -0.000390768 226.476 0.000121176 224.52C-0.00484538 223.879 0.354202 223.25 0.910623 222.928C2.27314 222.127 3.64151 221.323 5.01104 220.52C5.05888 220.493 5.0909 220.439 5.09115 220.384C5.10038 216.272 5.11695 212.165 5.1409 208.155C5.14892 206.839 5.23382 208.24 5.24027 207.303C5.28534 200.653 5.2208 193.42 5.29789 187.066C5.32819 184.583 5.39084 184.086 5.46648 183.653C5.49431 183.526 5.59204 183.259 5.15311 182.999C5.0728 182.965 4.98598 182.928 4.89181 182.89C4.59572 182.767 2.10324 181.916 2.00135 181.793C1.73834 181.48 3.02063 181.672 2.59757 181.29C2.56678 181.262 2.1457 181.114 1.69098 180.955C1.46786 180.885 1.3664 180.631 1.37992 180.538C1.40263 180.432 1.35339 180.52 1.5319 180.738C1.54337 180.748 1.60278 180.825 1.72355 180.859C2.51514 181.111 3.91002 181.555 4.35057 181.675C4.7746 181.79 4.05395 181.455 4.91239 181.709C5.11181 181.769 5.3139 181.835 5.52444 181.907C6.18251 182.121 6.76613 182.799 6.75943 183.653C6.7548 184.089 6.75447 184.574 6.76993 185.128C6.8118 186.611 6.90905 185.959 6.92056 188.92ZM226.072 0.548138C228.413 0.6298 228.759 0.330706 226.227 0.402265C226.104 0.406079 225.951 0.544132 226.072 0.548138ZM0.53439 59.3782C0.666312 56.3175 0.472334 54.223 0.37045 56.3822C0.268676 58.5411 0.4944 60.3107 0.53439 59.3782ZM0.630703 91.1167C0.734717 87.5395 0.310589 86.9764 0.396329 90.8077C0.401174 91.0305 0.624664 91.3258 0.630703 91.1167ZM5.68216 192.609C5.68613 192.576 5.69001 190.683 5.68607 190.638C5.59108 189.63 5.5834 193.415 5.68216 192.609ZM0.735561 122.612C0.792934 121.495 0.726704 118.28 0.655361 119.667C0.597968 120.784 0.664193 124.002 0.735561 122.612ZM348.2 0.867351C348.237 0.871808 349.594 0.875821 349.567 0.850628C349.474 0.769484 347.586 0.792384 348.2 0.867351ZM0.740444 176.141C0.756409 168.232 1.10676 163.437 1.06723 172.05C1.06007 173.609 0.955501 168.688 0.923915 170.674C0.86637 174.306 1.08635 176.718 0.968471 180.424C0.946895 181.096 0.738755 176.592 0.739956 176.127C0.740118 176.132 0.740281 176.137 0.740444 176.141ZM227.42 0.90739C227.467 0.911345 229.346 0.915095 229.391 0.911174C230.409 0.81622 226.623 0.80861 227.42 0.90739ZM380.705 47.8909C380.697 47.9946 380.689 52.355 380.697 52.4972C380.852 54.7719 380.868 45.9563 380.705 47.8909ZM100.878 1.12626C98.8281 1.22179 96.3755 1.23303 94.7412 1.11308C96.7786 1.11945 98.8297 1.12038 100.878 1.12626Z" fill="#07596E"/>
</svg>
