<svg width="412" height="14" viewBox="0 0 412 14" fill="none" xmlns="http://www.w3.org/2000/svg">
<path opacity="0.75" d="M402.587 10.923C393.822 10.6608 387.839 10.9394 379.707 10.9838C374.674 11.0112 369.19 11.024 363.5 11.0283L364.243 11.2651C359.187 7.68306 353.938 3.95119 348.747 0.258798L348.421 0.0235548L348 0.0205412C339.414 0.0108147 330.957 -0.00245571 323.401 0.000421524C309.545 0.00570583 295.464 0.024415 281.691 0.039422C280.985 0.0401611 280.563 0.068903 280.243 0.0692673C277.227 0.072648 272.17 0.046607 269.179 0.0504074C262.886 0.0583334 251.936 0.0538549 246.173 0.080802C243.725 0.0922127 241.215 0.0969696 240.263 0.165395C239.369 0.16888 238.881 0.107055 238.647 0.10369C238.645 0.103751 238.642 0.103812 238.639 0.103873C237.887 0.0934362 235.988 0.136784 235.569 0.134085C235.506 0.133661 235.892 0.0888815 234.875 0.102408C234.785 0.10357 234.868 0.134017 234.012 0.134451C233.789 0.134556 230.926 0.0878668 230.107 0.0850134C227.384 0.0757217 220.88 0.112375 217.624 0.111746C217.126 0.111746 216.839 0.093936 216.313 0.0936193C216.041 0.0934353 215.634 0.112767 215.55 0.112661C215.184 0.111974 213.584 0.0241776 214.158 0.197437C212.487 0.186451 212.98 0.129171 212.942 0.0919714C211.128 0.0865993 210.254 0.168199 209.78 0.0817175C200.861 0.0921545 191.941 0.102592 183.021 0.113028C183.019 0.0989294 183.016 0.0848303 183.013 0.0707321C180.384 0.127045 179.482 0.0317917 177.981 0.113577C177.056 0.0955725 176.131 0.0775671 175.205 0.0595627C151.42 0.11504 127.69 0.049099 104.173 0.0493088C103.181 0.0493088 102.933 0.0793095 101.296 0.0795202C99.489 0.079731 96.9472 0.0448656 94.5654 0.0452814C92.4761 0.045598 89.3937 0.0739784 87.064 0.0784216C86.5381 0.0793734 86.1578 0.0603724 86.0986 0.0604782C85.7505 0.0612202 85.7329 0.091301 85.3953 0.0921545C84.9913 0.0931053 84.5033 0.0708227 84.0367 0.072197C82.2928 0.0771589 80.3926 0.069479 80.1717 0.0699997C79.1081 0.0728474 78.8734 0.102266 78.7859 0.102592C77.6028 0.106181 78.0463 0.079628 77.7517 0.0811682C76.2229 0.0893059 75.1421 0.15559 73.0492 0.0919714C73.1062 0.116568 73.1632 0.141164 73.2202 0.165761C71.6184 0.179601 72.6764 0.114244 72.3491 0.102408C72.2156 0.0980234 68.7677 0.106005 68.5017 0.107169C67.5756 0.111395 67.5508 0.14408 67.4707 0.144521C67.2886 0.145509 65.2422 0.113183 64 0.132217L63.6324 0.129585L63.3172 0.34987C63.2469 0.40142 63.18 0.450883 63.1172 0.497749C61.9842 1.34326 63.3793 0.434716 63.1003 0.64801C63.0533 0.68399 61.8427 1.53476 61.6927 1.66671C61.5268 1.81189 62.57 1.07098 62.5594 1.09002C62.5518 1.10334 60.846 2.37049 61.1961 2.16011C61.395 2.04563 62.5884 1.18296 63.4635 0.555991L63.7112 0.382901L64 0.38497C64.4662 0.382894 64.8583 0.382334 65.0428 0.386762C65.1436 0.389188 64.9535 0.427648 65.0428 0.429058C65.4014 0.434235 72.042 0.435391 72.3459 0.429058C72.0001 0.411542 71.6544 0.394025 71.3085 0.376509C71.7684 0.374739 72.2281 0.372969 72.688 0.371199C72.0342 0.357161 71.3805 0.343123 70.7267 0.329085C71.6982 0.184855 74.6246 0.331067 74.7451 0.403058C74.7974 0.436347 73.0085 0.521996 74.6732 0.571877C74.4201 0.58042 74.167 0.588965 73.9139 0.59751C73.3923 0.583472 72.8707 0.569435 72.3491 0.555397C72.6965 0.546547 73.0439 0.537698 73.3913 0.528848C73.2634 0.518838 73.1355 0.508829 73.0076 0.498819C72.0326 0.482767 71.0576 0.466716 70.0826 0.450664C69.5812 0.458062 69.6854 0.487613 69.3409 0.493326C65.0436 0.565291 67.8466 0.473715 65.0332 0.486917C64.6888 0.500522 64.3444 0.514125 64 0.527728L63.7556 0.525979L63.5461 0.672412C63.5007 0.707447 63.4552 0.742483 63.4098 0.777518C63.4874 0.641983 62.495 1.39678 61.2493 2.24609C61.4085 2.15918 61.5676 2.07228 61.7268 1.98537C59.9395 3.23988 56.3918 5.88895 57.2981 5.10205C56.8959 5.39977 56.4937 5.69748 56.0915 5.99519C55.7358 6.22409 55.3802 6.45299 55.0245 6.68189C54.5496 7.02164 54.0746 7.36139 53.5997 7.70114C53.6035 7.71115 53.6073 7.72115 53.6112 7.73115C53.991 7.4617 54.3707 7.19224 54.7505 6.92279C54.4838 7.15085 54.2171 7.37892 53.9503 7.60698C53.667 7.80159 53.3837 7.9962 53.1004 8.19081C54.2587 7.33216 52.6806 8.39223 52.2812 8.62448C51.2813 9.3152 50.6794 9.80878 50.3485 10.0466C50.1929 10.1584 48.2976 11.3863 49.0798 10.96C48.7359 11.1984 48.392 11.4368 48.0481 11.6752L48.5 11.5312C47.7575 11.523 47.0149 11.5149 46.2723 11.5067C45.8184 11.5147 45.3644 11.5228 44.9105 11.5309C45.8956 11.5798 43.0405 11.6387 45.1438 11.659C46.7145 11.6742 47.1015 11.6285 47.8468 11.6288C48.0964 11.6289 48.3023 11.6332 48.5 11.6387L48.1103 11.7629C48.3884 11.5768 48.6493 11.407 49.0245 11.1418C53.0396 8.30296 56.3029 5.98017 60.1035 3.26628C60.8543 2.73006 61.5474 2.25669 62.0516 1.89628C62.6208 1.48937 61.8836 1.96519 62.616 1.45694C63.208 1.04618 63.453 0.897391 63.6265 0.785649L63.7989 0.665144L64 0.666584C64.0618 0.669368 64.1162 0.671153 64.1732 0.671299C64.3271 0.671658 64.8146 0.643285 65.2633 0.643285C67.1074 0.643291 69.8092 0.670726 70.0714 0.670567C70.3673 0.67025 75.5824 0.644649 75.832 0.639989C75.9644 0.637453 75.6898 0.532681 76.839 0.644383C77.1976 0.646459 77.5562 0.648534 77.9147 0.650609C77.8567 0.629675 77.7986 0.60874 77.7405 0.587806C79.8648 0.667168 79.1342 0.622768 81.1819 0.629004C86.0853 0.644007 93.3184 0.626367 98.6813 0.633764C99.8788 0.635458 100.335 0.660523 101.752 0.662328C103.068 0.663913 106.505 0.589118 105.757 0.692722C108.686 0.60301 109.157 0.757711 110.623 0.661229C110.8 0.675266 110.978 0.689304 111.155 0.703341C112.747 0.643108 113.238 0.696046 114.975 0.703341C115.724 0.706512 114.861 0.642446 116.372 0.713778C116.661 0.708468 116.95 0.703158 117.239 0.697849C117.172 0.682346 117.105 0.666844 117.037 0.651341C118.716 0.664022 118.824 0.655945 118.633 0.713962C119.443 0.703403 120.253 0.692844 121.064 0.682285C121.164 0.701327 121.265 0.72037 121.366 0.739412C120.978 0.775734 102.577 0.72096 100.014 0.703525C97.0092 0.746627 90.9719 0.69274 88.5442 0.702975C87.5725 0.707097 87.1433 0.750164 85.7294 0.755342C84.3159 0.760516 82.5371 0.7214 81.7845 0.720004C79.2771 0.715143 67.3977 0.723735 75.4772 0.777314C75.2449 0.798309 75.0126 0.819305 74.7803 0.840301C71.5697 0.768658 72.7322 0.812762 70.0682 0.82016C68.9467 0.823317 66.2797 0.776432 66.4286 0.871794C68.5111 0.889547 70.7236 0.859068 72.5345 0.860441C72.714 0.86059 74.8581 0.904131 75.9615 0.892301C76.9569 0.881502 76.2716 0.790595 78.4374 0.892667C80.0461 0.792958 80.976 0.883417 81.4009 0.893033C82.1352 0.909706 82.2156 0.860497 82.9497 0.854765C83.7494 0.848435 84.2999 0.881102 84.4091 0.881315C85.5057 0.882054 91.217 0.886508 91.4788 0.866667C91.2492 0.857939 91.0196 0.849212 90.7899 0.840484C92.2732 0.826438 91.9631 0.876757 92.3532 0.88278C92.6435 0.882597 92.934 0.882414 93.2243 0.882231C93.1092 0.871794 92.9941 0.861357 92.879 0.850921C94.6308 0.85314 93.2904 0.889407 95.777 0.888455C97.3559 0.887816 98.9865 0.847974 99.14 0.850921C99.1853 0.851766 98.6882 0.878628 99.3318 0.882231C100.397 0.888147 102.239 0.887464 102.446 0.850921C102.967 0.856093 102.923 0.891852 102.992 0.892667C103.295 0.896154 108.508 0.908313 109.442 0.910428C112.029 0.91624 114.91 0.908615 117.714 0.914639C118.002 0.915241 117.818 0.892294 118.107 0.893033C118.57 0.894209 120.951 0.930223 121.307 0.932766C122.194 0.938998 124.529 0.924713 124.897 0.935146C124.949 0.936625 124.18 0.967643 125.079 0.97726C126.076 0.987898 125.539 0.946182 125.594 0.945766C127.624 0.9315 128.905 0.960485 130.291 0.96609C130.741 0.967886 131.569 0.936491 132.203 0.945766C132.276 0.946819 132.131 0.975832 132.203 0.97726C133.161 0.992476 134.057 0.938634 134.471 0.935146C135.485 0.926621 134.933 0.966356 134.986 0.96664C135.661 0.967907 136.571 0.953573 137.598 0.95547C142.177 0.963924 145.914 0.966352 150.783 0.96371C151.394 0.963392 152.12 0.935366 152.214 0.935329C152.503 0.935541 152.42 0.968478 153.256 0.967738C155.018 0.966047 156.652 0.96764 158.396 0.967006C158.747 0.966872 158.897 0.936355 159.165 0.935696C160.063 0.933794 163.127 1.0137 163.177 0.914273C164.96 1.00229 166.144 0.92643 167.579 0.927273C170.978 0.929175 176.3 0.947109 179.689 0.935696C180.402 0.933249 180.737 0.907773 181.134 0.9064C181.845 0.903872 185.914 0.918102 186.127 0.91409C186.545 0.906375 186.294 0.794182 188.443 0.891934C189.703 0.898899 189.554 0.852854 189.815 0.850371C191.845 0.831878 193.82 0.934643 193.451 0.840484C195.815 0.866052 197.347 0.918086 198.312 0.830047C198.299 0.873011 199.411 0.898784 200.751 0.882414C199.379 0.81024 199.549 0.764113 196.231 0.777314C196.178 0.777526 196.278 0.808596 196.226 0.808807C195.752 0.810905 194.764 0.795219 193.956 0.796906C193.148 0.798596 193.597 0.819836 193.273 0.819427C192.977 0.819004 192.987 0.789272 192.559 0.78885C191.17 0.787686 189.94 0.77949 189.15 0.778962C188.652 0.778655 188.094 0.804779 187.708 0.804779C186.214 0.804565 183.048 0.784165 181.146 0.787019C180.75 0.787684 180.917 0.816998 180.05 0.819427C179.949 0.81971 179.579 0.789145 178.821 0.782807C178.062 0.776469 177.473 0.791647 176.986 0.788484C176.578 0.785842 176.749 0.758688 175.913 0.75699C175.217 0.755616 167.328 0.775179 166.9 0.779511C166.284 0.785757 165.991 0.823893 165.615 0.819244C165.548 0.818248 165.436 0.781415 165.207 0.778779C161.425 0.73525 153.054 0.785501 148.732 0.785188C139.699 0.784659 131.365 0.762987 122.251 0.754427C122.089 0.748018 121.926 0.74161 121.764 0.735201C122.685 0.734957 123.606 0.734713 124.528 0.734468C124.533 0.717135 124.539 0.699801 124.545 0.682468C125.791 0.679724 125.626 0.720717 125.59 0.745455C126.051 0.734957 126.512 0.72446 126.973 0.713962C127.371 0.774367 130.444 0.734192 132.029 0.734285C133.059 0.734285 134.286 0.757313 134.829 0.755526C135.977 0.75183 135.947 0.714556 136.038 0.713962C136.191 0.713117 137.794 0.745991 138.95 0.744722C140.659 0.742912 140.844 0.68568 143.184 0.734285C146.182 0.704593 149.505 0.719537 152.736 0.724399C152.121 0.671496 155.017 0.721567 156.323 0.720737C164.291 0.715558 174.084 0.692956 182.157 0.672031C183.194 0.669391 183.978 0.638225 184.556 0.639256C184.869 0.639785 185.006 0.676527 185.441 0.671665C185.518 0.670731 185.571 0.636374 186.381 0.631201C188.398 0.618202 193.42 0.675538 194.691 0.609594C201.585 0.619787 208.479 0.62998 215.373 0.640172C215.546 0.626135 215.719 0.612097 215.893 0.59806C217.202 0.669796 222.379 0.627642 224.904 0.631018C229.348 0.637041 235.018 0.659347 238.911 0.661778C239.757 0.662307 240.451 0.641955 241.251 0.642369C241.596 0.642581 242.024 0.668965 242.383 0.669102C246.409 0.67111 251.86 0.643932 255.917 0.644567C265.128 0.645941 273.803 0.641939 283.136 0.643102C304.833 0.645947 326.444 0.665307 348 0.671892L348.209 0.673386L348.37 0.789978C353.54 4.46084 358.706 8.12804 363.869 11.7914L363.5 11.6736C366.835 11.6731 370.168 11.6721 373.501 11.6704C373.919 11.6702 373.898 11.6398 374.222 11.6396C376.133 11.6381 380.403 11.6632 382.562 11.6618C384.282 11.6607 387.013 11.6143 387.605 11.661C381.493 11.7317 375.036 11.7264 368.674 11.7462C368.221 11.7476 368.165 11.7764 368.109 11.7769C367.079 11.787 367.73 11.7473 366.236 11.7455C365.982 11.7451 364.662 11.7689 363.5 11.7801L363.808 11.8782C362.887 11.2384 362.093 10.6739 362.339 10.7931C361.417 10.1839 355.058 5.69351 353.84 4.81416C353.47 4.54712 353.749 4.7119 353.676 4.65837C353.359 4.42591 353.192 4.35366 352.905 4.15103C352.14 3.61076 350.214 2.20701 349.845 1.94516C349.523 1.71694 348.956 1.31945 348.314 0.870091L348.177 0.771394L348 0.770129C346.715 0.778478 345.186 0.78855 344.331 0.784089C343.07 0.777536 343.306 0.738428 342.216 0.734835C341.357 0.732104 342.293 0.765 340.375 0.774934C339.424 0.779795 336.099 0.756262 335.29 0.756258C334.483 0.756258 333.584 0.77966 332.469 0.777864C330.864 0.775327 327.372 0.762297 325.738 0.754793C325.641 0.75437 325.403 0.723948 325.163 0.724582C324.665 0.725857 324.815 0.763429 324.439 0.767243C324.063 0.771048 317.55 0.766458 316.444 0.766877C315.681 0.767089 315.155 0.744708 314.733 0.744905C314.403 0.745117 314.367 0.776414 314.03 0.776765C313.926 0.776765 313.037 0.749581 312.149 0.750216C311.31 0.750854 308.124 0.776704 307.755 0.776948C307.514 0.777054 307.778 0.754814 307.067 0.755342C306.42 0.755887 305.995 0.784765 305.626 0.785188C304.769 0.786127 303.812 0.761502 302.904 0.761384C300.292 0.761067 300.426 0.796842 300.269 0.798004C299.835 0.801235 299.661 0.768469 299.518 0.767793C298.916 0.765046 297.44 0.758994 296.903 0.757723C296.234 0.756137 295.951 0.787279 295.241 0.787385C294.711 0.787364 293.642 0.757005 292.434 0.755526C289.711 0.752038 286.472 0.746306 283.798 0.747469C283 0.747786 282.878 0.776208 282.634 0.776948C281.353 0.780849 280.636 0.749067 280.27 0.749483C277.662 0.752337 273.009 0.8022 270.588 0.806427C269.603 0.808117 265.288 0.785094 262.854 0.789216C262.575 0.789642 262.836 0.811928 262.526 0.808441C261.785 0.800079 261.854 0.754701 261.478 0.756075C261.296 0.756877 260.882 0.782459 260.354 0.785005C257.613 0.798214 255.728 0.77832 254.478 0.779695C242.471 0.792904 230.226 0.804791 219.013 0.808807C217.762 0.80923 216.212 0.782233 214.325 0.808441C214.266 0.82254 214.208 0.836638 214.15 0.850738C214.084 0.836883 214.018 0.823028 213.952 0.809174C211.814 0.80167 211.006 0.783838 208.823 0.801483C208.635 0.802962 208.061 0.867325 207.706 0.787385C205.543 0.845297 206.73 0.786915 205.124 0.781526C203.519 0.776137 201.959 0.793986 200.402 0.798004C199.549 0.826643 203.129 0.892695 203.363 0.892484C203.739 0.892229 204.129 0.852484 204.491 0.850371C205.563 0.84405 206.6 0.875591 206.841 0.840117C208.226 0.877625 206.501 0.858884 206.675 0.892667C207.599 0.878691 208.524 0.864714 209.449 0.850738C209.921 0.96564 215.031 0.815795 214.676 0.903287C215.083 0.88577 215.489 0.868254 215.896 0.850738C217.678 0.9605 218.727 0.883211 221.105 0.850554C220.933 0.864592 220.762 0.87863 220.59 0.892667C220.639 0.898526 222.738 0.920972 221.987 0.861174C224.139 0.939965 224.048 0.808906 225.977 0.903653C227.123 0.915806 226.434 0.860774 228.485 0.861723C229.7 0.862251 231.209 0.891026 232.567 0.893033C232.88 0.893404 233.016 0.86154 233.294 0.86154C233.573 0.861552 233.709 0.892796 234.046 0.893582C234.742 0.895273 235.645 0.873343 236.08 0.875456C236.47 0.877259 237.028 0.904814 237.968 0.909146C241.251 0.924463 240.26 0.885113 240.778 0.871794C241.335 0.857634 241.736 0.909483 242.847 0.90347C242.958 0.902836 242.67 0.870525 243.032 0.871794C243.324 0.872787 243.471 0.907908 244.439 0.914456C244.824 0.917099 250.805 0.924622 251.716 0.925259C253.113 0.926209 256.223 0.896484 257.669 0.896695C258.225 0.896701 258.821 0.924898 259.412 0.924709C261.373 0.924075 264.512 0.921689 266.998 0.920315C269.238 0.91904 273.168 0.856802 274.394 0.912992C277.538 0.920281 278.302 0.872265 278.539 0.871611C279.18 0.869814 279.477 0.901625 280.284 0.903104C290.749 0.921596 304.53 0.900568 314.441 0.903104C325.604 0.90608 336.797 0.911709 348 0.915237L348.129 0.916163L348.23 0.988428C353.393 4.65555 358.56 8.32398 363.728 11.991L363.5 11.9183C369.039 11.9182 374.577 11.9168 380.113 11.9137C380.175 11.9278 380.237 11.9419 380.299 11.956C377.572 11.9651 374.367 11.9896 371.675 11.9952C369.284 12.0001 366.124 11.9758 363.5 11.9873L363.688 12.0472C362.608 11.2882 361.634 10.6151 360.896 10.1308C361.763 10.7564 363.205 11.7343 363.151 11.7567C361.59 10.6535 360.029 9.5503 358.469 8.4471C358.529 8.46143 358.588 8.47576 358.648 8.49009C357.025 7.32981 355.357 6.15268 353.726 4.99113C353.443 4.78939 353.656 4.915 353.409 4.73962C353.132 4.54343 353.308 4.69364 353.256 4.65703C352.557 4.16149 352.359 3.99441 352.273 3.93418C352.054 3.77967 352.212 3.91695 351.578 3.47416C350.403 2.65282 349.597 2.01435 349.819 2.28282C349.442 2.01485 349.064 1.74689 348.686 1.47893C348.603 1.38954 348.519 1.30015 348.436 1.21076C348.351 1.15527 348.269 1.10062 348.188 1.04677L348.106 0.987538L348 0.986779C345.355 1.0644 344.08 0.907436 342.562 1.04043C342.043 1.01937 341.524 0.998316 341.005 0.97726C340.712 1.00179 340.42 1.02633 340.127 1.05087C340.07 1.02981 340.013 1.00875 339.956 0.987696C337.16 1.00322 334.183 0.977944 331.509 0.980371C329.646 0.982062 329.199 0.990376 327.549 0.988794C323.879 0.985202 327.524 1.02698 324.474 1.0721C324.633 1.04629 324.792 1.02047 324.95 0.994654C324.445 0.985193 323.94 0.975734 323.435 0.966273C323.083 0.987329 322.732 1.00839 322.38 1.02944C320.82 0.920226 319.81 1.00839 319.597 1.00839C319.426 1.00819 318.836 0.942446 316.99 0.998133C317.756 0.908241 315.582 0.997604 315.408 0.998133C315.242 0.998497 313.126 0.978429 312.267 0.979273C311.591 0.979914 310.15 0.999264 309.144 0.998316C308.255 0.997473 308.345 0.966956 308.281 0.96664C307.187 0.964103 307.872 0.987815 307.082 0.988977C306.291 0.990137 305.678 0.964131 305.507 0.966456C305.421 0.967694 305.708 0.996121 305.315 0.998865C304.26 1.00635 302.352 0.981463 301.144 0.982203C300.715 0.982432 300.176 1.00655 299.699 1.00729C298.967 1.00834 298.626 0.976308 298.201 0.97726C298.053 0.977677 297.11 1.02716 295.938 1.01956C295.715 1.01803 295.059 0.913328 294.189 1.06167C294.122 1.04079 294.055 1.01992 293.988 0.999048C290.056 0.947371 288.962 1.11694 287.214 0.966456C284.359 0.983264 286.319 1.04188 286.005 1.05087C285.803 1.05654 284.872 1.04043 284.77 1.04134C284.589 1.04314 284.62 1.06196 284.421 1.06185C280.782 1.05836 282.398 1.02284 281.245 1.00033C278.504 0.946753 276.366 1.0657 281.133 1.02999C281.133 1.04049 281.133 1.05099 281.133 1.06149C279.959 1.05145 276.98 1.05622 277.975 1.10946C278.758 1.15141 285.827 1.12403 281.824 1.18288C280.915 1.1962 280.444 1.1568 278.87 1.23067C277.829 1.23468 277.679 1.13898 276.269 1.17739C276.501 1.144 276.733 1.11062 276.965 1.07723C275.042 1.03371 272.671 1.09209 271.194 1.07339C270.693 1.06701 268.885 0.907844 269.307 1.06698C268.463 1.05706 264.49 1.08637 263.752 1.0721C263.575 1.06866 263.343 0.983934 260.774 1.01351C260.596 1.02413 260.417 1.03475 260.239 1.04537C262.589 1.07623 258.439 1.10761 259.566 1.18801C259.949 1.15187 261.812 1.12983 262.112 1.11165C262.624 1.08037 261.099 1.04006 263.042 1.05105C264.267 1.18542 260.765 1.12359 261.3 1.25118C258.749 1.19162 258.494 1.24845 257.916 1.25081C255.447 1.26043 253.894 1.2469 251.564 1.2618C250.997 1.23559 255.214 1.19776 255.736 1.20906C253.814 1.11617 257.122 1.11197 258.519 1.16713C258.636 1.13906 258.753 1.11098 258.871 1.08291C257.053 1.09813 255.28 1.10594 253.479 1.08291C253.362 1.09341 253.245 1.1039 253.127 1.1144C253.531 1.13021 253.935 1.14602 254.339 1.16182C252.842 1.18771 253.74 1.10584 251.745 1.17757C251.683 1.14596 251.621 1.11434 251.559 1.08272C249.647 1.09322 247.734 1.10372 245.821 1.11422C244.825 1.05082 241.145 1.07444 241.819 1.15651C240.333 1.16231 242.167 1.11863 240.775 1.09865C240.169 1.08999 238.985 1.08755 238.692 1.10964C238.818 1.1878 240.59 1.1975 241.127 1.25118C240.801 1.26849 232.56 1.21269 233.294 1.30409C232.636 1.31508 232.939 1.26799 231.752 1.25594C228.426 1.22233 223.275 1.3154 220.597 1.19863C223.741 1.13363 224.672 1.20247 227.081 1.20522C228.621 1.20702 238.006 1.2181 235.909 1.13546C236.254 1.14596 236.599 1.15645 236.944 1.16695C237.292 1.14235 237.64 1.11776 237.989 1.09316C237.007 1.08962 236.025 1.08608 235.043 1.08254C234.809 1.10708 234.574 1.13161 234.34 1.15615C234.232 1.13863 234.123 1.12111 234.015 1.1036C233.602 1.10012 233.188 1.09664 232.775 1.09316C232.891 1.11422 233.007 1.13527 233.123 1.15633C232.486 1.15993 231.849 1.16353 231.212 1.16713C231.383 1.139 231.555 1.11086 231.726 1.08272C228.725 1.07565 229.742 1.09327 228.077 1.14589C226.835 1.15128 228.934 1.09719 226.305 1.08346C223.247 1.0675 225.253 1.15348 221.294 1.13509C221.237 1.12105 221.18 1.10702 221.123 1.09298C220.252 1.10702 219.381 1.12105 218.511 1.13509C218.626 1.11764 218.741 1.10018 218.856 1.08272C217.059 1.08949 214.583 1.05618 213.987 1.12465C215.809 1.09168 215.791 1.21125 215.317 1.23323C214.339 1.27834 199.897 1.23637 197.097 1.23342C193.517 1.22961 190.811 1.26791 187.542 1.20906C189.757 1.1608 197.55 1.20034 199.026 1.16695C199.172 1.16367 199.131 1.05407 200.072 1.17739C203.101 1.15647 206.722 1.19141 210.508 1.18782C210.392 1.15627 210.276 1.12472 210.161 1.09316C207.834 1.16027 205.681 1.01287 205.984 1.13546C205.521 1.13546 205.058 1.13546 204.595 1.13546C204.595 1.11434 204.595 1.09322 204.595 1.0721C203.897 1.0721 203.199 1.0721 202.501 1.0721C202.501 1.09322 202.501 1.11434 202.501 1.13546C201.923 1.13546 201.345 1.13546 200.767 1.13546C200.707 1.1144 200.646 1.09334 200.586 1.07229C198.855 1.11602 192.954 0.999086 195.548 1.12484C194.735 1.12484 193.922 1.12484 193.109 1.12484C193.111 1.1094 193.114 1.09396 193.117 1.07851C192.767 1.07644 192.418 1.07436 192.068 1.07229C192.183 1.08626 192.298 1.10024 192.414 1.11422C190.812 1.08918 189.293 1.16276 188.242 1.1144C188.935 1.10384 189.629 1.09328 190.323 1.08272C188.992 1.10278 186.541 1.06122 186.322 1.06112C185.653 1.06091 185.301 1.09213 184.577 1.09371C183.923 1.09506 184.013 1.07108 183.891 1.07192C180.364 1.09634 181.708 1.2262 180.061 1.07247C179.886 1.09347 179.71 1.11446 179.535 1.13546C179.302 1.11794 179.068 1.10042 178.835 1.08291C177.793 1.08456 176.752 1.0862 175.71 1.08785C176.058 1.06161 176.405 1.03536 176.752 1.00912C175.191 0.997406 174.463 1.05002 174.312 1.05123C173.884 1.05429 173.688 1.02127 173.555 1.0212C167.193 1.02406 171.057 1.05314 167.878 1.1772C166.744 1.12852 167.891 1.07971 168.052 1.03018C166.545 1.05341 166.074 1.0397 164.483 1.04244C164.069 1.04319 163.624 1.06991 163.362 1.07027C163.136 1.07059 162.429 1.04219 161.886 1.04208C160.98 1.04187 159.775 1.05879 158.535 1.05837C157.504 1.05795 154.349 1.03789 152.148 1.03768C151.209 1.03768 151.427 1.06144 151.184 1.06149C151.083 1.06149 150.351 1.03303 149.749 1.03292C144.835 1.03229 139.799 1.05029 134.861 1.04977C131.382 1.04945 127.847 1.02657 124.361 1.02889C123.62 1.02942 124.012 1.05031 123.688 1.05105C123.577 1.05124 123.443 1.01479 122.296 1.02944C121.882 1.03473 122.358 1.06022 121.951 1.06149C121.753 1.06209 121.668 1.03014 120.509 1.02285C118.402 1.00954 117.27 1.05213 117.082 1.05087C116.728 1.04841 116.831 1.02197 116.361 1.02102C114.063 1.01637 112.145 1.01189 110.094 1.00967C109.136 1.00861 102.533 1.00327 102.171 1.00802C101.359 1.01859 102.114 1.0738 101.074 1.07192C100.783 1.05795 100.491 1.04397 100.2 1.02999C100.663 1.01937 101.126 1.00875 101.589 0.998133C100.314 1.01589 98.869 0.990773 97.9252 0.991724C97.7509 0.99194 96.1462 1.01698 95.3278 1.01425C95.6757 1.02462 96.0237 1.035 96.3716 1.04537C96.2485 1.05422 96.1254 1.06307 96.0023 1.07192C94.3657 1.05851 92.6345 1.05885 90.9562 1.06075C90.3509 1.0614 90.5555 1.0829 89.9428 1.08364C86.3739 1.08817 87.2752 0.998776 83.8417 1.16658C85.0009 1.15137 89.2306 1.17272 89.8453 1.16713C90.2736 1.16322 91.9349 1.02143 91.3254 1.16695C94.7522 1.16632 91.7757 1.08606 94.9762 1.1036C94.9122 1.12136 94.8483 1.13912 94.7844 1.15688C95.9016 1.16808 96.7269 1.17705 97.4057 1.14571C97.6335 1.23187 101.43 1.18146 103.512 1.18727C106.52 1.19552 109.92 1.21653 112.901 1.22023C113.928 1.22149 114.509 1.18772 114.638 1.18782C114.827 1.18807 115.356 1.21764 115.731 1.21785C117.135 1.2187 121.405 1.1687 122.467 1.25081C114.116 1.25081 105.765 1.25081 97.4137 1.25081C98.4638 1.21045 90.0163 1.20651 89.5879 1.20851C89.1914 1.21032 89.5252 1.23866 89.4073 1.24037C88.5297 1.25253 87.7806 1.21144 87.502 1.21144C87.2895 1.21145 86.8606 1.23073 86.105 1.2303C85.9664 1.23024 85.9279 1.20986 85.7789 1.2098C84.7934 1.2098 83.8205 1.21008 82.8315 1.20998C82.7712 1.21018 82.5217 1.23995 82.272 1.24001C82.0217 1.24001 81.7741 1.21025 81.711 1.21016C80.9204 1.21037 79.5653 1.22973 78.8131 1.22994C78.5521 1.22993 78.7331 1.20812 78.4406 1.20833C77.5421 1.20886 77.8381 1.25155 76.7271 1.24056C76.3547 1.23685 76.3789 1.20421 75.6658 1.20851C75.1608 1.21158 75.2153 1.26975 75.1351 1.27187C75.0245 1.27442 73.2819 1.22848 72.7119 1.26656C73.9575 1.36708 71.3494 1.2718 71.4748 1.22939C70.7843 1.24007 70.0938 1.25075 69.4032 1.26143C69.1678 1.25069 68.9322 1.23995 68.6967 1.2292C66.8627 1.26107 65.4995 1.25936 64 1.25872L63.9834 1.25861L63.9692 1.26854C63.3343 1.71869 62.6697 2.1903 61.909 2.73644C61.8015 2.81364 59.932 4.16961 60.0288 4.11945C61.1711 3.34066 62.2965 2.54348 62.9901 1.99234C63.4484 1.70858 63.7344 1.51958 64.0099 1.32588L64 1.32904C64.5744 1.33159 65.1321 1.3054 66.614 1.31306C67.401 1.31719 67.457 1.34204 67.5475 1.34236C70.6083 1.35472 75.5106 1.36542 77.5727 1.29274C78.1508 1.3124 76.0726 1.32019 76.8806 1.33467C77.3214 1.3426 87.9267 1.36581 84.5386 1.28212C84.8902 1.28444 85.2418 1.28676 85.5935 1.28908C85.9452 1.36813 87.6941 1.35005 87.4956 1.27132C87.6613 1.28743 87.827 1.30354 87.9927 1.31966C88.32 1.33329 88.7074 1.34059 89.2506 1.34492C91.3309 1.3614 103.707 1.33398 104.365 1.34529C104.38 1.36397 104.395 1.38264 104.41 1.40132C98.9424 1.42245 93.6383 1.37604 87.6762 1.42952C87.8494 1.412 88.0225 1.39448 88.1957 1.37697C85.8167 1.4015 83.4378 1.42604 81.0588 1.45057C83.5767 1.48228 87.5825 1.5089 90.2257 1.4828C90.6955 1.47814 90.3511 1.45371 90.4591 1.45076C90.7411 1.44307 91.0443 1.48545 92.0575 1.48957C93.0711 1.49369 95.6172 1.46364 95.8505 1.46449C96.3003 1.46623 97.5143 1.51472 98.2801 1.51411C99.2865 1.51326 98.6119 1.48325 98.8139 1.48261C99.6495 1.47966 100.399 1.49454 101.053 1.49232C102.025 1.48902 104.044 1.43624 104.723 1.51374C104.029 1.51728 103.335 1.52082 102.641 1.52436C106.405 1.55215 109.348 1.45308 113.057 1.52949C113.9 1.62333 110.836 1.61065 113.427 1.6507C112.956 1.64936 112.486 1.64802 112.015 1.64667C111.905 1.62702 111.795 1.60737 111.684 1.58771C110.874 1.60175 110.064 1.61579 109.253 1.62983C109.484 1.61231 109.716 1.59479 109.947 1.57728C107.074 1.56407 104.173 1.54611 103.17 1.64026C103.11 1.6175 103.051 1.59473 102.992 1.57197C100.325 1.59965 96.3204 1.50316 97.0685 1.62983C96.9422 1.62311 96.8159 1.6164 96.6896 1.60969C95.0772 1.63558 95.7659 1.5832 95.16 1.57728C94.9869 1.57561 91.853 1.60266 93.2419 1.64026C90.1845 1.66901 91.1273 1.55061 90.2848 1.54542C88.3276 1.60407 84.8072 1.51609 86.2872 1.60877C85.9958 1.61225 85.7043 1.61573 85.4129 1.61921C84.4552 1.54629 83.5112 1.62879 82.4734 1.65638C82.1217 1.65802 81.7701 1.65967 81.4185 1.66132C81.183 1.63678 80.9475 1.61225 80.7119 1.58771C77.4036 1.70449 78.4511 1.38513 76.9397 1.65345C77.1753 1.6695 77.4107 1.68555 77.6462 1.7016C78.2046 1.70923 78.7629 1.71686 79.3214 1.72449C77.0692 1.73157 74.817 1.73865 72.5649 1.74573C69.7062 1.82094 68.0794 1.73934 64.9037 1.79883C64.6064 1.79169 64.3091 1.78455 64.0118 1.77741C64.2753 1.83026 65.1824 1.83039 64 1.84746L64.3099 1.74867C64.1671 1.85315 63.9864 1.98502 63.7604 2.14978C63.6965 2.22207 63.9773 2.03776 64.3363 1.78575L64 1.89294C64.4169 1.89504 64.9266 1.88813 65.249 1.87207C65.4084 1.86403 64.0516 1.83112 65.5766 1.82996C66.6134 1.82913 64.7308 1.88076 67.8368 1.86163C67.7217 1.87213 67.6066 1.88263 67.4915 1.89312C67.8283 1.89282 68.165 1.89251 68.5017 1.89221C68.8012 1.86792 69.1006 1.84363 69.4 1.81933C70.1696 1.85442 70.6017 1.90359 72.3603 1.89312C71.8833 1.87791 72.5305 1.82913 73.4008 1.82996C73.4008 1.84753 73.4008 1.86511 73.4008 1.88269C75.5078 1.894 74.7804 1.84242 76.5321 1.88269C76.7074 1.86871 76.8827 1.85473 77.058 1.84076C78.0122 1.89835 81.5254 1.93753 80.8846 1.85119C81.8702 1.9351 83.9399 1.89724 84.7096 1.83014C84.7687 1.84759 84.8279 1.86505 84.887 1.8825C85.2967 1.88604 85.7064 1.88958 86.1162 1.89312C86.3448 1.88257 86.5733 1.87201 86.8019 1.86145C87.0923 1.87201 87.3826 1.88257 87.673 1.89312C87.8483 1.87561 88.0236 1.85809 88.1989 1.84058C88.6656 1.86157 89.1324 1.88257 89.5991 1.90356C89.8847 1.88958 90.1703 1.87561 90.4558 1.86163C90.4854 1.89817 93.3147 1.9063 94.105 1.88232C94.3406 1.89294 94.576 1.90356 94.8115 1.91418C94.9266 1.89679 95.0417 1.87939 95.1568 1.862C95.3321 1.87591 95.5074 1.88983 95.6826 1.90374C96.0865 1.88983 96.4904 1.87591 96.8942 1.862C98.5414 1.94727 98.5945 1.87246 98.9706 1.87298C99.6678 1.87396 102.042 1.92736 102.439 1.92462C102.836 1.92185 103.027 1.89124 103.347 1.88836C108.623 1.84028 106.454 1.92242 107.512 1.93542C108.084 1.9425 108.488 1.91395 108.993 1.91711C109.856 1.92239 114.213 1.96018 114.464 1.95648C114.829 1.95114 113.97 1.81649 115.156 1.85119C115.195 1.92349 117.733 1.85052 116.547 1.95135C117.592 1.9425 118.636 1.93365 119.681 1.9248C119.563 2.01051 120.851 1.95538 122.255 1.96014C124.243 1.9668 128.721 2.02316 128.557 1.93524C129.033 1.95544 129.51 1.97564 129.986 1.99584C133.245 1.96817 136.442 1.99717 139.677 1.99822C149.279 2.0015 159.695 1.98241 169.251 1.96508C169.71 1.96423 169.644 1.93551 169.975 1.93487C171.713 1.9317 176.23 1.95201 178.664 1.94567C179.444 1.94367 179.823 1.91565 180.071 1.91436C180.91 1.90982 180.712 1.94673 181.098 1.94567C181.708 1.94398 184.933 1.90972 186.044 1.90613C186.594 1.90435 187.245 1.93367 187.888 1.92462C187.944 1.92388 187.842 1.89365 187.888 1.89312C189.062 1.88943 188.356 1.91556 188.753 1.91418C191.584 1.90435 194.61 1.90375 197.682 1.89752C198.445 1.89593 199.612 1.87463 200.267 1.87262C200.516 1.87191 200.068 1.89484 200.931 1.89294C201.227 1.89229 201.328 1.86247 201.662 1.86053C203.1 1.8524 203.581 1.94824 204.817 1.87115C207.203 1.87623 211.355 1.90084 213.532 1.90136C214.047 1.90145 214.297 1.88384 214.788 1.88415C215.136 1.88436 215.749 1.91165 216.292 1.91198C216.835 1.9123 217.693 1.88631 218.738 1.88727C219.838 1.88822 221.205 1.90366 221.453 1.90356C221.753 1.90356 221.892 1.87074 222.192 1.87115C223.097 1.87221 225.522 1.90447 226.688 1.90796C227.942 1.91165 228.694 1.89574 229.123 1.89605C229.519 1.89649 229.982 1.92419 230.163 1.92443C230.445 1.92486 230.512 1.89249 230.87 1.89276C231.455 1.89329 232.058 1.91364 232.935 1.91418C248.731 1.92422 264.219 1.90644 279.588 1.88287C281.301 1.88023 282.269 1.90293 284.794 1.89258C285.817 1.88835 285.386 1.85495 286.183 1.86127C286.538 1.86412 286.448 1.89039 286.897 1.89166C288.882 1.89715 291.195 1.87274 292.055 1.87317C292.396 1.87329 292.786 1.90313 293.486 1.90356C298.699 1.90694 304.867 1.89857 310.477 1.90374C313.447 1.90649 317.945 1.92169 321.354 1.9237C330.232 1.92898 339.743 1.92315 348 1.92493L347.645 1.81184C348.056 2.10386 348.464 2.39319 348.867 2.67959C353.633 6.06433 358.386 9.4456 363.138 12.8223L363.305 12.9391L363.5 12.9377C370.607 12.9423 377.708 12.9426 384.819 12.9246C378.763 12.9968 370.517 12.9908 363.774 12.9986C363.683 12.9987 363.591 12.9988 363.5 12.9989L363.286 13.0004L363.102 12.8722C358.018 9.27236 352.833 5.59321 347.6 1.87613L348 2.00376C334.436 1.99837 320.597 1.97958 307.114 1.98065C300.17 1.98117 291.414 1.97951 283.812 1.99621C283.467 1.99695 282.753 1.974 282.008 1.97643C281.849 1.977 279.886 2.01886 279.225 2.01928C279.852 1.94488 277.26 2.01119 276.459 2.00939C275.449 2.00705 273.343 1.96987 270.978 1.9909C268.833 2.00992 269.425 2.03854 269.307 2.04034C268.548 2.05194 268.283 2.00581 267.702 2.00115C265.327 1.98255 253.11 2.00935 249.7 2.01104C248.819 2.01146 248.794 2.04078 248.596 2.04089C248.07 2.04108 247.322 2.01213 246.48 2.01232C244.961 2.01274 243.212 2.04041 242.377 2.04052C240.378 2.04084 236.584 2.0082 233.987 2.00756C233.256 2.00737 233.301 2.03788 232.97 2.03777C231.514 2.03724 227.722 2.00129 225.915 2.00097C222.979 2.00044 219.959 2.02016 216.975 2.01013C216.786 2.02374 216.596 2.03735 216.407 2.05096C216.109 2.03667 215.811 2.02239 215.512 2.00811C210.466 2.01899 205.329 1.98834 200.311 1.99035C199.733 1.99056 196.871 2.01661 196.394 2.01672C195.997 2.01672 195.606 1.983 195.017 1.98797C194.193 1.99486 194.969 2.05907 193.622 2.0407C193.26 2.03574 193.611 2.00825 192.883 1.99969C192.643 1.99684 187.979 1.9857 187.729 1.9876C187.311 1.99081 186.938 2.04969 186.83 2.05096C186.27 2.0576 186.294 2.01241 185.918 2.00829C184.808 1.99596 183.358 2.02635 183.178 2.02569C180.998 2.01734 176.922 1.98127 174.634 2.00262C174.318 2.00559 174.356 2.03924 174.3 2.04034C173.942 2.04731 173.719 2.009 173.378 2.00811C171.543 2.00378 168.669 2.02957 166.823 2.03613C166.61 2.03684 166.162 2.01841 165.782 2.0202C163.637 2.03055 164.333 2.06013 164.211 2.06139C163.922 2.06453 163.414 2.03192 162.645 2.0299C160.663 2.02451 156.863 2.02919 154.739 2.03173C153.148 2.03374 153.172 2.07109 153.067 2.07183C152.844 2.07317 152.224 2.04335 151.176 2.03997C149.16 2.03332 149.39 2.06266 148.561 2.06139C148.492 2.06139 148.613 2.03268 147.693 2.02972C145.917 2.02402 141.927 2.05225 140.026 2.05077C139.294 2.05025 139.123 2.02256 138.375 2.02203C137.187 2.02108 134.508 2.05103 134.297 2.05096C134.238 2.05096 134.105 2.0191 133.757 2.0191C133.374 2.0191 132.997 2.0355 132.711 2.03539C131.085 2.03495 128.284 1.97935 129.062 2.09307C128.541 2.06499 128.02 2.03692 127.499 2.00884C124.093 2.01444 120.784 2.0032 117.41 1.99749C116.651 1.99623 116.017 2.01776 115.377 2.01672C114.736 2.01566 111.91 1.98003 111.438 1.97936C110.595 1.9782 105.806 1.97445 105.211 1.97698C104.048 1.98185 102.919 2.02884 102.446 2.01965C102.066 2.01225 102.417 1.98577 101.693 1.97827C100.439 1.96529 98.3082 1.9993 97.9252 1.99877C97.7617 1.99856 98.0679 1.97792 96.5362 1.97643C95.7108 1.97559 95.2676 1.99833 94.9682 1.99822C94.8751 1.9981 95.0147 1.96123 93.3809 1.96618C92.2526 1.96967 91.7715 1.99812 91.6531 1.99822C91.4753 1.99841 91.0465 1.96805 90.3328 1.96911C88.6646 1.97176 85.6147 2.00657 84.0303 2.00921C83.7238 2.00974 83.828 1.97306 82.6061 1.97643C81.732 1.97887 81.8847 2.00804 81.5575 2.00921C81.0386 2.01101 80.2656 1.97528 79.1199 1.97643C77.6782 1.97791 66.9729 2.01497 66.419 2.02459C66.0464 2.03104 65.6141 2.03144 65.4296 2.04729C65.5878 2.06249 65.7461 2.07769 65.9043 2.09289C67.5438 2.03956 66.8821 2.10051 67.3173 2.10442C67.9477 2.11002 70.3231 2.10225 70.8977 2.11577C71.1024 2.12066 70.6338 2.1531 71.7337 2.16979C72.914 2.18763 73.4391 2.12988 73.9091 2.20879C75.5843 2.12118 77.1932 2.21417 75.2534 2.239C74.4197 2.24966 67.9316 2.27065 64 2.28197L64.5614 2.10301C63.6051 2.7858 62.8346 3.33573 62.4282 3.62551C60.9962 4.64658 58.2963 6.53382 56.5363 7.79024C55.5018 8.52883 52.9511 10.344 53.0833 10.3016C52.1662 10.9589 53.1159 10.2338 52.9194 10.3661C52.5085 10.6428 49.6532 12.7045 49.1091 13.0892C49.0963 13.0982 49.0836 13.1073 49.0708 13.1163L48.8215 13.2959L48.5 13.2982C45.22 13.2924 41.0958 13.2462 37.9174 13.2989C38.0661 13.3101 38.2147 13.3213 38.3634 13.3326C39.0808 13.3532 42.4101 13.3237 42.7862 13.3776C37.9174 13.3776 33.0487 13.3776 28.1799 13.3776C28.2705 13.3317 22.2317 13.3324 21.9461 13.3531C22.0522 13.3753 22.1582 13.3975 22.2642 13.4197C25.6767 13.3354 25.3707 13.4469 27.6621 13.3877C28.5949 13.3868 28.3133 13.4235 28.7729 13.4305C33.348 13.4998 28.8463 13.3552 32.3486 13.388C31.2943 13.4413 34.1626 13.4607 35.4479 13.4675C35.7404 13.469 39.5823 13.4555 40.0385 13.4563C42.277 13.4605 45.9179 13.4833 48.5 13.4695L48.8773 13.4668L49.17 13.256C49.4742 13.0376 49.7598 12.8316 50.0206 12.642C51.6543 11.4783 52.5767 10.8702 54.0669 9.82334C55.1981 9.02877 54.8595 9.23635 55.39 8.85949C56.5028 8.06882 56.9162 7.87497 57.5635 7.27679C58.3264 6.75267 59.0893 6.22855 59.8522 5.70443C59.842 5.69009 59.8318 5.67576 59.8217 5.66142C60.2957 5.325 60.7698 4.98858 61.2438 4.65217C61.3934 4.56747 61.543 4.48277 61.6926 4.39807C63.1833 3.3108 62.5307 3.72204 62.783 3.48194C63.106 3.2485 63.429 3.01506 63.7521 2.78162C64.0258 2.63424 64.2995 2.48686 64.5731 2.33948C64.6077 2.31486 64.6423 2.29025 64.6768 2.26563L64 2.48139C65.7372 2.47835 67.4742 2.47531 69.2114 2.47227C69.3265 2.45475 69.4415 2.43724 69.5567 2.41972C69.5603 2.43724 69.5642 2.45475 69.5679 2.47227C72.5814 2.47587 75.5949 2.47947 78.6085 2.48307C79.41 2.51117 74.5816 2.53247 74.216 2.53416C72.182 2.54345 66.7808 2.51528 66.7738 2.57773C66.206 2.55681 65.1255 2.54761 64 2.5489L64.7159 2.32069C63.591 3.12091 62.4202 3.97309 61.9061 4.3757C62.851 3.70244 63.796 3.02918 64.7409 2.35593L64 2.59211C64.6369 2.59092 65.2738 2.58973 65.9107 2.58854C65.8526 2.60947 65.7946 2.63041 65.7365 2.65134C67.9757 2.56691 68.3032 2.57156 70.6052 2.65134C70.6073 2.62327 70.6095 2.59519 70.6116 2.56711C72.2166 2.66474 75.0538 2.49914 75.1351 2.61967C75.9897 2.6099 76.8444 2.60013 77.6989 2.59037C79.5444 2.60506 76.6788 2.69776 83.904 2.66141C84.402 2.65888 84.2982 2.62817 85.0468 2.63028C85.2627 2.63092 86.4993 2.67558 88.8638 2.67093C89.2329 2.67019 89.2608 2.64355 89.6439 2.64017C90.5283 2.63214 92.2899 2.68482 91.49 2.59897C94.9929 2.57394 93.5412 2.64439 94.6277 2.6724C95.3518 2.69098 95.2061 2.64019 95.8329 2.65171C96.6085 2.66599 96.0393 2.7172 99.1448 2.69364C98.7963 2.69016 98.4479 2.68668 98.0994 2.6832C98.2747 2.66928 98.45 2.65537 98.6253 2.64145C100.398 2.67484 100.23 2.62606 101.066 2.70426C102.355 2.66938 103.469 2.66661 105.232 2.67295C108.655 2.68531 106.9 2.76959 110.807 2.6561C111.44 2.67203 112.073 2.68796 112.706 2.70389C113.746 2.67039 112.905 2.62848 114.458 2.62003C113.242 2.70278 116.519 2.67261 117.073 2.74637C117.131 2.72879 117.189 2.71122 117.247 2.69364C117.594 2.69364 117.94 2.69364 118.287 2.69364C118.288 2.70774 118.289 2.72183 118.291 2.73593C118.752 2.72537 119.214 2.71482 119.676 2.70426C120.024 2.71823 120.371 2.73221 120.719 2.74619C121.29 2.71671 121.861 2.68723 122.432 2.65775C122.791 2.65574 123.149 2.65372 123.508 2.65171C123.394 2.6727 123.281 2.6937 123.167 2.71469C123.628 2.70767 124.089 2.70066 124.55 2.69364C124.014 2.72809 124.351 2.76848 125.785 2.76743C126.969 2.76658 125.636 2.69467 128.181 2.72458C128.359 2.72671 128.673 2.778 131.079 2.78592C133.965 2.79542 132.563 2.75828 133.077 2.75699C133.178 2.75678 134.06 2.78259 134.885 2.78629C135.354 2.78839 135.805 2.76756 135.867 2.76761C136.156 2.76856 136.24 2.79804 136.64 2.7991C137.657 2.80164 139.022 2.7872 140.018 2.78867C140.47 2.7893 140.896 2.80676 141.098 2.80698C141.412 2.80718 141.809 2.7805 142.126 2.78061C143.296 2.78117 145.072 2.86967 145.615 2.74674C146.74 2.85978 149.096 2.72311 148.924 2.79892C151.93 2.77031 159.947 2.86331 159.712 2.73593C161.414 2.84485 161.262 2.76597 161.975 2.76761C162.773 2.76941 162.359 2.79053 162.993 2.78958C164.473 2.78736 165.887 2.77829 167.36 2.77786C167.129 2.76041 166.898 2.74295 166.666 2.7255C168.212 2.7199 167.68 2.76052 169.257 2.76834C172.158 2.78261 170.936 2.7502 171.364 2.70444C171.249 2.74861 174.67 2.74175 175.018 2.73593C175.226 2.73239 174.316 2.67546 176.41 2.69382C176.296 2.71134 176.181 2.72885 176.067 2.74637C177.021 2.72241 179.613 2.75281 180.053 2.74692C180.255 2.74417 181.335 2.60291 182.324 2.71469C182.444 2.69718 182.563 2.67966 182.682 2.66214C183.781 2.6832 184.879 2.70426 185.977 2.72531C186.152 2.69376 186.327 2.6622 186.503 2.63065C186.851 2.63065 187.2 2.63065 187.548 2.63065C187.317 2.65866 187.086 2.68668 186.854 2.71469C189.006 2.70202 191.635 2.74619 192.078 2.65171C192.539 2.66922 193 2.68674 193.46 2.70426C193.76 2.67282 194.06 2.64139 194.36 2.60996C196.494 2.61789 196.53 2.6389 197.989 2.6724C197.932 2.64786 197.875 2.62333 197.818 2.59879C198.894 2.63324 200.858 2.66532 202.412 2.66965C203.15 2.67165 204.418 2.63784 204.592 2.6409C204.768 2.64413 206.499 2.77697 206.687 2.66196C209.236 2.7129 210.359 2.66088 211.393 2.66214C212.065 2.663 212.371 2.6906 213.13 2.69345C214.217 2.69757 215.31 2.68423 215.937 2.68613C216.296 2.68729 216.363 2.71421 216.61 2.71506C217.779 2.71917 217.094 2.69166 218.327 2.69345C218.441 2.69376 219.342 2.7266 220.357 2.72238C220.925 2.72005 222.393 2.68311 222.523 2.6832C223.097 2.68383 222.638 2.75768 224.602 2.6724C224.545 2.68643 224.488 2.70047 224.431 2.71451C226.862 2.75012 227.246 2.68753 227.737 2.6832C227.799 2.68284 228.391 2.70704 228.745 2.70371C229.344 2.69801 229.585 2.66488 229.717 2.66343C230.184 2.65835 231.756 2.67292 232.783 2.6409C232.567 2.73517 236.167 2.7687 236.964 2.66196C237.602 2.68302 238.239 2.70407 238.876 2.72513C239.164 2.70755 239.453 2.68997 239.741 2.6724C239.916 2.68991 240.091 2.70743 240.267 2.72495C241.195 2.68637 242.124 2.6478 243.053 2.60923C243.112 2.64786 243.171 2.6865 243.23 2.72513C243.49 2.72074 243.75 2.71634 244.01 2.71195C244.213 2.68125 244.416 2.65055 244.619 2.61985C244.944 2.62571 245.269 2.63157 245.594 2.63743C245.675 2.65964 245.755 2.68186 245.836 2.70407C247.583 2.72968 246.685 2.51779 250.014 2.70407C250.532 2.68656 251.05 2.66904 251.567 2.65152C252.152 2.73678 253.248 2.68515 254.133 2.69474C254.756 2.7015 254.722 2.73536 255.571 2.73612C256.421 2.73686 256.391 2.70447 256.457 2.70426C257.15 2.70226 257.672 2.73082 258.18 2.72513C258.257 2.72429 258.448 2.68582 259.096 2.68338C259.744 2.68095 260.134 2.72186 261.099 2.71414C261.593 2.71023 261.736 2.67783 262.174 2.67496C264.264 2.66101 266.368 2.82511 267.935 2.63047C268.288 2.65513 270.851 2.74145 271.947 2.73648C273.653 2.72855 272.995 2.69038 273.673 2.68338C273.771 2.68233 274.29 2.69522 275.721 2.6929C275.977 2.69248 275.918 2.71404 275.954 2.71433C277.622 2.7139 280.861 2.69689 282.693 2.69382C282.857 2.6935 283.714 2.75359 285.166 2.67276C287.318 2.73247 291.372 2.6042 294.21 2.69419C294.603 2.69609 295.081 2.67459 295.255 2.67533C296.756 2.68198 296.206 2.74724 299.598 2.65171C299.323 2.68499 300.117 2.71503 301.238 2.7125C302.923 2.70869 301.726 2.64664 303.081 2.65171C303.081 2.66922 303.081 2.68674 303.081 2.70426C306.197 2.65714 306.817 2.73203 309.944 2.73245C311.069 2.73256 312.731 2.69374 312.999 2.69364C313.103 2.69375 314.333 2.73598 314.45 2.7363C315.112 2.73757 315.486 2.71809 316.057 2.71799C317.944 2.71758 320.197 2.77252 319.789 2.67276C320.308 2.69382 320.827 2.71488 321.346 2.73593C323.307 2.62941 324.773 2.77622 325.184 2.67276C325.534 2.69413 325.885 2.71549 326.235 2.73685C333.49 2.72753 340.745 2.71821 348 2.70889L347.191 2.45116C348.134 3.11806 349.076 3.78496 350.018 4.45186C350.272 4.6725 353.269 6.78515 353.425 6.88977C354.143 7.37036 353.441 6.78332 354.869 7.81664C355.009 7.95543 355.15 8.09422 355.291 8.23301C357.091 9.52323 356.24 8.88092 356.966 9.36922C357.261 9.58381 357.151 9.53566 357.553 9.82324C358.788 10.7069 360.763 12.1114 362.677 13.4719L363.057 13.7375L363.5 13.7343C365.297 13.7356 367.051 13.7363 368.322 13.7372C368.913 13.7376 368.824 13.7146 369.008 13.7145C369.512 13.7147 370.509 13.7438 371.522 13.7438C377.787 13.7436 386.664 13.7272 392.971 13.7028C393.399 13.7011 393.452 13.6736 393.741 13.6722C394.142 13.6704 395.037 13.6927 395.458 13.6903C395.855 13.6882 396.109 13.6673 396.534 13.6649C398.477 13.6535 401.09 13.6888 403.169 13.6272C403.344 13.622 405.522 13.5112 405.571 13.5039C405.86 13.4608 403.925 13.3931 407.104 13.33C404.262 13.2749 405.15 13.1776 408.842 13.1301C406.99 13.1178 405.139 13.1055 403.287 13.0933C403.284 13.0817 403.282 13.0702 403.279 13.0586C404.965 13.0015 406.637 12.9825 409.2 12.9772C409.12 12.9665 409.04 12.9558 408.96 12.9451C406.696 12.8918 403.966 12.8819 402.242 12.8091C404.77 12.7552 407.298 12.7013 409.826 12.6474C409.7 12.639 409.574 12.6306 409.447 12.6221C408.235 12.6003 405.588 12.5874 404.582 12.567C400.738 12.4893 407.946 12.5088 406.762 12.4614C402.704 12.4631 398.645 12.4648 394.587 12.4665C394.445 12.4316 410.057 12.3351 409.896 12.2296C408.621 12.2225 407.345 12.2154 406.07 12.2083C406.638 12.1815 407.207 12.1547 407.775 12.128C407.619 12.1195 407.462 12.111 407.305 12.1025C405.153 12.0817 403.001 12.0609 400.85 12.0401C407.392 12.061 410.433 12.0458 412 11.8348C411.823 11.8294 411.645 11.8241 411.468 11.8187C410.05 11.9507 403.36 11.908 399.804 11.8817C400.529 11.843 403.66 11.8729 404.321 11.8496C404.509 11.843 403.855 11.8161 404.289 11.8024C405.425 11.7667 410.262 11.7207 409.559 11.677C409.107 11.6489 401.323 11.6103 399.804 11.6133C403.363 11.5627 407.03 11.5481 410.6 11.4867C408.347 11.4011 406.351 11.2964 402.239 11.2917C400.985 11.2468 409.691 11.1846 409.893 11.1601C408.387 11.1338 406.88 11.1075 405.373 11.0812C406.647 11.0882 407.922 11.0952 409.196 11.1022C409.2 11.0934 409.204 11.0846 409.208 11.0759C405.906 11.0351 402.886 10.9602 399.107 10.9653C399.229 10.9188 401.49 10.9234 402.587 10.923ZM48.0242 13.5677C47.9937 13.5831 48.1962 13.5913 48.5 13.5956L48.9184 13.5926L49.2429 13.3588C49.6197 13.0993 50.1787 12.6996 50.5606 12.428C50.4691 12.5016 50.3776 12.5751 50.286 12.6487C51.6393 11.6793 54.1578 9.87386 54.2949 9.86836C55.2687 9.1887 54.8028 9.43951 55.1108 9.21184C55.2312 9.12276 56.5171 8.25661 57.5015 7.50152C57.7419 7.33115 57.9823 7.16078 58.2227 6.99041C58.2834 6.97742 58.3441 6.96443 58.4048 6.95145C58.7225 6.68942 59.0403 6.42738 59.358 6.16535C55.9811 8.55572 52.6041 10.9461 49.2271 13.3365L48.9095 13.5653L48.5 13.5682C48.3435 13.568 48.1871 13.5679 48.0306 13.5677C48.0284 13.5677 48.0263 13.5677 48.0242 13.5677ZM87.3182 2.59934C88.8818 2.5855 91.277 2.56364 90.7931 2.63083C89.8053 2.62729 88.8175 2.62375 87.8297 2.62021C87.6592 2.61326 87.4886 2.6063 87.3182 2.59934ZM242.87 2.54642C244.176 2.48027 245.379 2.53749 247.399 2.52555C247.396 2.53953 247.393 2.5535 247.391 2.56748C246.565 2.53392 244.381 2.55625 242.87 2.54642ZM9.22441 13.3148C8.9367 13.32 8.64899 13.3252 8.36127 13.3304C9.53141 13.4055 9.74082 13.3526 11.0642 13.3598C11.144 13.3603 11.1163 13.3775 11.1441 13.3776C11.468 13.3788 11.7675 13.3581 12.06 13.3584C12.6242 13.359 13.0841 13.38 14.0836 13.3793C14.8564 13.3786 14.8637 13.3456 15.1353 13.3465C15.3668 13.3473 17.6602 13.438 19.1361 13.3988C21.9431 13.3242 10.0811 13.3078 9.22441 13.3148ZM0.904698 13.3769C1.18229 13.3772 1.45989 13.3775 1.73747 13.3778C0.902758 13.3271 2.58735 13.3348 3.82339 13.3359C3.78508 13.2872 1.17013 13.308 0 13.2936C0.301561 13.3213 0.603132 13.3491 0.904698 13.3769ZM36.0089 13.2727C34.9227 13.2677 35.1037 13.3284 35.149 13.3465C35.4948 13.3465 35.8406 13.3465 36.1864 13.3465C36.1272 13.3219 36.0681 13.2973 36.0089 13.2727ZM27.8395 13.2516C28.1773 13.2928 30.5354 13.3109 31.6533 13.3143C31.7021 13.3143 31.3951 13.2916 32.1856 13.2937C32.4229 13.2944 34.7581 13.3767 34.2443 13.2833C32.1104 13.2728 29.9765 13.2622 27.8427 13.2516C27.8416 13.2516 27.8405 13.2516 27.8395 13.2516ZM25.4578 13.276C25.9022 13.2889 26.3466 13.3019 26.7909 13.3148C27.0206 13.2955 27.2502 13.2761 27.4798 13.2568C26.9742 13.2519 26.4686 13.247 25.9629 13.2421C25.7946 13.2534 25.6262 13.2647 25.4578 13.276ZM354.22 6.8412C354.124 6.79826 354.028 6.75531 353.932 6.71236C353.598 6.49092 352.062 5.29064 352.575 5.63316C353.123 6.03584 353.672 6.43852 354.22 6.8412ZM360.951 11.5644C361.287 11.7902 361.623 12.0161 361.96 12.2419C362.293 12.5186 362.627 12.7954 362.96 13.0721L363.209 13.2462L363.5 13.2441C363.533 13.2466 363.567 13.2491 363.6 13.2516C363.567 13.252 363.533 13.2524 363.5 13.2528L363.207 13.2549L362.955 13.0792C361.317 11.9448 359.609 10.7633 359.946 10.8779C359.569 10.6099 359.191 10.342 358.814 10.074C359.107 10.3345 359.056 10.3157 358.052 9.63652C357.87 9.43458 356.831 8.73416 355.669 7.89341C356.522 8.49434 357.374 9.09527 358.227 9.6962C358.233 9.68764 358.239 9.67907 358.245 9.67051C356.347 8.32784 358.742 9.94615 359.953 10.8569C360.059 10.9145 360.164 10.9722 360.27 11.0299C360.497 11.2081 360.724 11.3862 360.951 11.5644ZM196.418 2.1989C196.706 2.18834 196.994 2.17778 197.282 2.16722C198.399 2.30475 196.125 2.17429 194.506 2.28313C195.041 2.20045 192.572 2.20391 192.431 2.19835C192.715 2.17052 192.999 2.14269 193.283 2.11486C194.328 2.14287 195.373 2.17089 196.418 2.1989ZM204.589 2.10406C203.589 2.17264 208.499 2.17684 210.146 2.16173C210.547 2.15802 211.261 2.12036 211.55 2.12511C211.725 2.13903 211.9 2.15294 212.076 2.16686C212.283 2.11876 215.5 2.17284 216.767 2.19872C216.886 2.1812 217.006 2.16368 217.125 2.14617C217.587 2.15313 218.049 2.16008 218.511 2.16704C218.453 2.14959 218.395 2.13213 218.337 2.11468C218.686 2.13567 219.036 2.15667 219.385 2.17766C220.757 2.20102 219.911 2.10585 220.942 2.13555C222.088 2.16852 220.21 2.22519 220.245 2.26207C219.315 2.25256 217.201 2.23127 216.257 2.23021C215.715 2.22964 216.329 2.29572 213.994 2.21977C213.482 2.23747 212.97 2.25517 212.458 2.27287C211.518 2.24474 210.578 2.2166 209.638 2.18846C209.463 2.21294 209.287 2.23741 209.112 2.26189C209.012 2.26572 206.838 2.21015 206.954 2.19176C206.074 2.23855 204.266 2.24689 202.362 2.24925C202.179 2.23595 201.995 2.22264 201.812 2.20934C203.654 2.23807 202.398 2.19526 202.947 2.16979C203.264 2.1551 204.233 2.12625 204.589 2.10406ZM343.442 2.16741C346.535 2.22711 344.62 2.17785 347.963 2.17785C347.729 2.20946 347.496 2.24108 347.263 2.27269C345.619 2.21493 342.915 2.25334 343.439 2.16741C343.44 2.16741 343.441 2.16741 343.442 2.16741ZM372.644 13.2725C370.875 13.2534 371.763 13.2042 369.521 13.1885C369.52 13.1885 369.519 13.1885 369.518 13.1885C370.677 13.1849 371.836 13.1814 372.996 13.1778C372.878 13.2094 372.761 13.241 372.644 13.2725ZM272.748 2.23424C271.052 2.24798 271.386 2.22338 269.847 2.27251C267.555 2.21291 269.495 2.22133 269.495 2.16722C270.019 2.18309 270.543 2.19896 271.066 2.21483C272.336 2.16423 271.132 2.13876 271.132 2.1339C271.133 2.1339 271.134 2.1339 271.135 2.1339C271.135 2.11766 271.094 2.11424 271.581 2.10442C271.97 2.14769 272.359 2.19097 272.748 2.23424ZM265.49 2.16741C266.071 2.20334 266.333 2.24947 264.804 2.27251C264.803 2.27251 264.802 2.27251 264.801 2.27251C264.678 2.19221 263.212 2.25702 262.544 2.25163C262.368 2.24291 262.193 2.23418 262.018 2.22545C263.175 2.2061 264.332 2.18676 265.49 2.16741ZM239.915 2.09362C239.909 2.18233 241.192 2.19077 239.386 2.27251C239.035 2.27092 238.685 2.26933 238.334 2.26775C238.104 2.24828 237.874 2.22881 237.644 2.20934C233.197 2.36986 231.871 2.09653 239.386 2.19872C239.387 2.19878 239.388 2.19884 239.389 2.1989C239.564 2.16381 239.74 2.12871 239.915 2.09362ZM247.747 2.10113C247.804 2.14769 247.86 2.19426 247.917 2.24083C248.899 2.1285 250.167 2.23568 252.093 2.15642C252.268 2.17058 252.442 2.18474 252.616 2.1989C253.336 2.16774 260.405 2.15876 258.874 2.23039C258.205 2.26168 256.749 2.21919 256.623 2.22014C256.198 2.22365 255.644 2.26366 254.927 2.26134C254.513 2.25994 253.639 2.21291 252.793 2.213C250.902 2.21321 247.451 2.33946 244.964 2.21996C244.785 2.234 244.606 2.24803 244.427 2.26207C242.582 2.2535 243.198 2.20903 241.481 2.26207C240.295 2.04088 248.383 2.27298 246.699 2.09362C246.7 2.09362 246.701 2.09362 246.702 2.09362C247.05 2.09612 247.399 2.09862 247.747 2.10113ZM298.549 2.16741C298.661 2.12769 300.801 2.18898 300.298 2.0938C300.997 2.12694 301.695 2.16008 302.394 2.19322C302.388 2.20208 302.383 2.21093 302.378 2.21977C301.683 2.21282 300.989 2.20586 300.295 2.1989C300.292 2.21294 300.29 2.22698 300.287 2.24101C299.252 2.19023 294.935 2.21235 295.066 2.26207C294.836 2.24108 294.605 2.22008 294.374 2.19908C292.309 2.25626 290.533 2.19547 288.283 2.25127C288.109 2.23387 287.934 2.21648 287.76 2.19908C287.647 2.21312 287.533 2.22716 287.42 2.2412C286.6 2.24297 285.781 2.24474 284.961 2.24651C282.291 2.18998 287.48 2.11681 288.109 2.12511C288.192 2.12627 288.179 2.16262 288.702 2.16832C289.629 2.17834 294.823 2.14216 296.428 2.16613C296.442 2.14202 296.456 2.11791 296.47 2.0938C297.163 2.11834 297.856 2.14287 298.549 2.16741ZM229.992 2.18846C229.875 2.213 229.758 2.23754 229.64 2.26207C227.618 2.23757 226.344 2.25899 226.862 2.17785C226.863 2.17785 226.865 2.17785 226.866 2.17785C227.908 2.18139 228.95 2.18493 229.992 2.18846ZM79.657 2.20934C79.7101 2.16057 80.6771 2.14233 81.9268 2.1773C81.8665 2.19145 81.8064 2.20562 81.7461 2.21977C81.0949 2.17824 80.2822 2.25063 78.2728 2.24101C78.2728 2.21648 78.2728 2.19194 78.2728 2.16741C78.7342 2.18139 79.1956 2.19536 79.657 2.20934ZM231.738 2.17785C232.354 2.14891 234.085 2.23668 232.946 2.24101C232.075 2.24429 231.407 2.19338 231.738 2.17785ZM379.602 13.2251C379.145 13.2302 378.688 13.2353 378.23 13.2405C377.992 13.2196 377.754 13.1987 377.516 13.1778C377.517 13.1778 377.518 13.1778 377.519 13.1778C378.213 13.1936 378.908 13.2093 379.602 13.2251ZM278.545 2.23827C276.995 2.23522 275.444 2.23216 273.894 2.22911C273.879 2.2155 273.863 2.20189 273.848 2.18828C275.401 2.23795 276.025 2.18442 276.388 2.18114C276.386 2.18114 276.384 2.18114 276.383 2.18114C277.546 2.17036 278.654 2.16244 279.754 2.14617C279.351 2.17687 278.948 2.20757 278.545 2.23827ZM283.86 2.15239C283.599 2.24856 283.258 2.25976 280.876 2.19213C280.97 2.18029 281.064 2.16845 281.159 2.1566C282.393 2.16368 283.113 2.18589 282.896 2.13573C283.217 2.14129 283.539 2.14684 283.86 2.15239ZM259.58 2.18316C259.866 2.15254 262.135 2.18328 262.011 2.19872C261.963 2.20485 259.023 2.24318 259.58 2.18316ZM63.2301 2.93268C63.6517 2.62489 64.0733 2.3171 64.4949 2.00931L64 2.16707C64.0007 2.16706 64.0015 2.16705 64.0022 2.16704C64.0015 2.16703 64.0007 2.16702 64 2.16701L64.4949 2.00926C63.9224 2.40274 63.3499 2.79622 62.7775 3.1897C62.9284 3.10403 63.0792 3.01836 63.2301 2.93268ZM58.4713 6.14216C58.1746 6.36778 59.2126 5.73719 57.4086 7.04475C58.7319 6.10791 60.0551 5.17107 61.3784 4.23423C60.7503 4.66286 60.1222 5.09149 59.494 5.52011C59.5878 5.42308 59.6817 5.32604 59.7755 5.229C59.3408 5.53339 58.9061 5.83777 58.4713 6.14216ZM57.0885 7.20123C57.7625 6.64233 54.0104 9.29907 53.6657 9.55351C53.589 9.61028 53.248 9.9134 53.1179 10.0189C53.6841 9.61712 54.2503 9.21538 54.8165 8.81363C54.6361 8.96087 54.4557 9.10811 54.2754 9.25534C54.9411 8.78948 55.6068 8.32361 56.2725 7.85774C55.9801 8.04595 55.6877 8.23416 55.3953 8.42237C55.9597 8.01532 56.5241 7.60828 57.0885 7.20123ZM73.4008 2.1306C72.8196 2.13225 72.2382 2.1339 71.657 2.13555C71.7731 2.11101 71.8893 2.08648 72.0054 2.06194C72.3533 2.06194 72.7013 2.06194 73.0492 2.06194C73.1664 2.08483 73.2837 2.10772 73.4008 2.1306ZM62.4629 3.36783C63.2214 2.97439 64.9527 1.42905 62.8099 3.06698C62.594 3.23211 62.391 3.40488 62.4629 3.36783ZM52.2687 10.5622C50.7449 11.538 51.1876 11.457 52.5469 10.424C52.6152 10.372 52.383 10.4889 52.2687 10.5622ZM39.0347 13.0634C38.8883 13.064 38.6324 13.1256 37.2349 13.0671C37.0042 13.0741 36.7735 13.0811 36.5428 13.0881C37.0827 13.1167 41.7012 13.1338 41.0631 13.0727C40.3562 13.0718 39.7661 13.0615 39.0347 13.0634ZM43.5071 12.8356C44.2003 12.8373 44.8934 12.839 45.5866 12.8408C45.358 12.86 45.1295 12.8793 44.9009 12.8986C45.2419 12.9039 45.5829 12.9091 45.9239 12.9144C46.5068 12.8811 47.0896 12.8478 47.6725 12.8146C46.1658 12.8093 44.659 12.804 43.1522 12.7986C43.2705 12.811 43.3888 12.8233 43.5071 12.8356ZM59.7333 4.92373C58.6596 5.7154 57.312 6.64017 55.5479 7.89716C55.547 7.89783 55.5462 7.8985 55.5454 7.89916C55.4574 7.96192 55.3166 8.09438 55.0336 8.29651C54.7923 8.46873 50.0047 11.8308 50.4027 11.6034C52.2719 10.3262 52.9261 9.7869 53.4269 9.55393C53.5046 9.47293 53.5824 9.39192 53.6602 9.31092C55.4141 8.0215 55.9627 7.72151 56.9751 7.03588C56.962 7.02571 56.9489 7.01554 56.9358 7.00538C57.6005 6.53168 58.2653 6.05798 58.93 5.58428C58.8422 5.6594 58.7544 5.73452 58.6666 5.80963C58.9021 5.6425 59.1376 5.47537 59.3731 5.30824C59.9195 4.8628 60.6405 4.33768 59.7333 4.92373ZM40.363 12.8618C39.7222 12.7414 33.4778 12.8239 30.6255 12.7986C32.123 12.8711 34.4429 12.8212 36.0761 12.8204C39.2334 12.8191 37.0509 12.8634 37.5866 12.8829C37.8512 12.8925 39.6421 12.8153 40.363 12.8618ZM63.7186 2.12128C62.4405 3.04022 61.7058 3.52762 60.6209 4.35171C60.719 4.29289 60.8171 4.23407 60.9151 4.17524C61.2908 3.89878 64.3768 1.67761 63.7186 2.12128ZM26.4457 12.8301C29.4859 12.7869 27.9863 12.8959 29.5674 12.8142C28.5268 12.809 27.4862 12.8038 26.4457 12.7986C26.4457 12.8091 26.4457 12.8196 26.4457 12.8301ZM235.217 1.72504C236.499 1.72229 237.929 1.70032 238.695 1.74573C237.825 1.75275 236.954 1.75977 236.084 1.76679C235.795 1.75287 235.506 1.73895 235.217 1.72504ZM198.681 1.28139C198.973 1.2705 200.13 1.30263 200.252 1.30263C200.479 1.30263 200.417 1.2868 200.42 1.28267C201.902 1.28554 200.535 1.33462 201.632 1.34529C201.819 1.34705 204.396 1.32279 205.444 1.32478C207.056 1.32785 208.666 1.32467 209.269 1.32551C210.286 1.3269 212.174 1.36371 213.845 1.36561C214.534 1.36633 214.775 1.33686 215.467 1.3376C219.915 1.34257 228.669 1.38304 232.615 1.36433C233.59 1.35968 234.52 1.32109 235.035 1.32423C235.442 1.33833 235.848 1.35243 236.255 1.36653C237.505 1.23961 237.923 1.3525 239.271 1.36433C240.127 1.37181 240.527 1.33421 240.642 1.3343C241.405 1.33504 241.781 1.35295 242.38 1.35591C243.052 1.35919 244.018 1.34223 244.258 1.34529C244.405 1.34734 243.934 1.39732 246.542 1.39637C249.2 1.39539 251.823 1.39011 254.526 1.38777C253.625 1.53866 252.848 1.43539 251.745 1.42988C251.449 1.4284 251.637 1.45236 251.379 1.4513C250.651 1.44845 249.258 1.42491 248.655 1.43061C248.005 1.43677 248.227 1.4923 247.402 1.47181C247.36 1.47076 247.492 1.44782 247.298 1.44398C245.348 1.40604 244.71 1.44593 242.244 1.44709C240.61 1.44793 230.689 1.42518 230.349 1.44014C228.572 1.52045 239.027 1.521 240.249 1.51466C240.677 1.51243 240.228 1.48711 240.618 1.48225C240.784 1.48031 242.27 1.52859 243.738 1.5326C245.514 1.53746 249.084 1.50453 250.776 1.50568C265.326 1.51572 279.674 1.48655 294.21 1.48591C294.52 1.48591 294.928 1.51484 295.938 1.51484C313.009 1.51436 330.644 1.4956 348 1.5022L347.89 1.4671C349.362 2.51266 350.831 3.5567 352.297 4.59871C355.689 7.00954 359.039 9.42032 362.477 11.8333C362.77 12.06 363.064 12.2866 363.357 12.5132L363.423 12.5593L363.5 12.5588C363.651 12.5649 363.801 12.571 363.952 12.5771C363.812 12.5753 363.66 12.5743 363.5 12.5738L363.418 12.5744L363.348 12.5255C362.235 11.7302 360.599 10.6167 360.437 10.5019C360.371 10.4558 359.973 10.1439 359.308 9.67336C358.372 9.01164 357.951 8.73766 357.874 8.68324C357.636 8.51464 357.805 8.60724 357.578 8.44623C355.884 7.24577 354.578 6.31126 353.025 5.20862C351.27 3.96306 350.357 3.36517 349.105 2.42164C348.95 2.33324 348.795 2.24484 348.641 2.15644C348.49 2.03421 348.209 1.82212 347.834 1.54584L348 1.59876C345.649 1.55672 340.402 1.56312 338.045 1.56647C337.153 1.56775 337.31 1.59852 337.01 1.59852C336.819 1.59848 336.895 1.5582 334.563 1.56611C333.39 1.57012 333.082 1.59947 332.493 1.59852C332.173 1.59796 332.225 1.56886 331.766 1.56885C329.109 1.56885 326.939 1.5783 324.338 1.58369C323.607 1.58517 323.599 1.60945 323.435 1.60914C322.832 1.60805 321.784 1.56692 320.253 1.56702C317.731 1.56723 312.706 1.56738 310.645 1.58735C310.342 1.59031 310.091 1.61945 309.868 1.61902C309.53 1.61828 309.398 1.58788 309.339 1.58771C308.21 1.58719 308.889 1.61546 308.133 1.60859C307.726 1.60489 307.301 1.57021 306.354 1.56629C305.104 1.56111 305.35 1.60227 304.828 1.59815C304.773 1.59751 304.756 1.56889 304.243 1.56794C302.296 1.56456 299.472 1.55795 297.63 1.55805C297.101 1.55805 296.708 1.57732 295.97 1.57764C294.483 1.57828 286.03 1.566 285.337 1.57709C285.264 1.57826 286.016 1.62047 284.818 1.61921C284.47 1.60163 284.122 1.58405 283.774 1.56647C283.192 1.59461 282.61 1.62275 282.028 1.65088C282.049 1.55367 278.626 1.53866 278.66 1.63807C278.286 1.64209 277.911 1.64612 277.537 1.65015C276.757 1.58147 276.238 1.60682 274.73 1.56647C274.495 1.58753 274.26 1.60859 274.025 1.62964C273.966 1.61561 273.907 1.60157 273.848 1.58753C273.043 1.6636 271.724 1.58722 271.564 1.5868C270.947 1.58511 270.484 1.60445 270.195 1.60383C269.116 1.60182 266.779 1.57518 265.518 1.58753C265.459 1.58817 265.517 1.62068 265.159 1.6247C264.512 1.63195 264.449 1.58434 263.586 1.64026C263.412 1.62623 263.237 1.61219 263.063 1.59815C262.878 1.60541 262.693 1.61268 262.509 1.61994C261.417 1.61622 260.326 1.61249 259.235 1.60877C260.228 1.66383 259.085 1.69458 258.006 1.65125C257.641 1.63656 257.965 1.60304 257.843 1.59797C257.676 1.5911 252.778 1.60816 252.455 1.62983C252.223 1.61927 251.991 1.60871 251.759 1.59815C251.642 1.61927 251.525 1.64039 251.408 1.6615C251.28 1.65412 251.152 1.64673 251.024 1.63935C249.75 1.67654 246.442 1.59123 245.842 1.59797C245.522 1.60156 245.81 1.69157 244.274 1.68238C244.221 1.65766 244.167 1.63294 244.114 1.60822C243.762 1.60468 243.411 1.60114 243.059 1.5976C242.399 1.5998 241.439 1.64264 241.408 1.67194C241.202 1.65436 240.996 1.63678 240.789 1.61921C240.236 1.67648 237.283 1.65618 236.095 1.61994C235.747 1.63721 235.4 1.65448 235.053 1.67176C234.586 1.65076 234.119 1.62977 233.652 1.60877C232.571 1.60245 233.713 1.63735 233.483 1.64026C232.995 1.64629 230.511 1.58732 230.675 1.66077C230.336 1.66095 229.997 1.66114 229.658 1.66132C229.484 1.64032 229.31 1.61933 229.135 1.59833C228.554 1.67072 227.547 1.64517 225.483 1.67157C225.31 1.65491 225.137 1.63825 224.964 1.62159C224.325 1.64527 223.687 1.66895 223.049 1.69263C222.918 1.66504 222.786 1.63746 222.655 1.60987C222.378 1.6059 222.1 1.60193 221.823 1.59797C221.259 1.65976 220.246 1.59299 219.73 1.61847C218.978 1.65567 219.56 1.7 220.956 1.70856C220.852 1.75357 216.692 1.7329 215.733 1.72962C215.796 1.72083 215.86 1.71204 215.923 1.70325C216.904 1.71021 217.885 1.71717 218.866 1.72412C219.687 1.61094 217.024 1.6413 215.801 1.62671C215.69 1.62532 215.056 1.58244 213.824 1.58643C213.347 1.58802 211.486 1.65069 211.131 1.65418C208.262 1.6828 210.372 1.59324 207.565 1.67176C208.15 1.61163 206.537 1.66159 204.859 1.64997C204.573 1.64798 202.15 1.59924 201.986 1.59797C200.966 1.59015 202.077 1.6433 200.601 1.62946C200.423 1.61548 200.246 1.60151 200.068 1.58753C199.725 1.58753 199.381 1.58753 199.037 1.58753C196.952 1.71209 196.467 1.62036 195.725 1.60859C195.426 1.60383 195.811 1.63633 195.035 1.62946C194.742 1.6269 194.418 1.59987 193.632 1.59797C191.17 1.59206 190.334 1.7078 188.071 1.58735C187.723 1.6048 187.376 1.62226 187.028 1.63971C186.794 1.61878 186.56 1.59785 186.325 1.57691C184.532 1.63766 185.179 1.57544 184.532 1.57618C182.822 1.57808 179.322 1.58999 179.016 1.64008C177.539 1.52502 175.774 1.65482 175.192 1.65033C174.847 1.63636 174.501 1.62238 174.155 1.6084C173.748 1.62244 173.342 1.63648 172.935 1.65052C173.133 1.53753 171.027 1.64864 170.825 1.65033C170.592 1.65202 167.354 1.61859 166.148 1.61921C164.945 1.61984 162.847 1.65046 162.662 1.65052C162.45 1.65052 160.401 1.61981 158.799 1.62012C157.397 1.62045 149.093 1.66408 149.616 1.61371C150.159 1.59976 150.933 1.58767 151.601 1.58112C153.677 1.56104 165.859 1.53532 168.973 1.52729C175.217 1.51134 181.729 1.51429 188 1.50331C188.369 1.50267 188.425 1.47339 188.742 1.47273C189.223 1.47188 190.442 1.50119 190.916 1.50056C192.685 1.49802 194.837 1.49324 195.785 1.4925C197.902 1.49102 199.354 1.47338 200.955 1.47053C201.457 1.46968 203.992 1.50599 205.73 1.49067C206.045 1.48243 206.36 1.47419 206.675 1.46595C205.78 1.45634 203.431 1.43145 202.341 1.4286C200.719 1.42448 199.873 1.44824 199.274 1.44783C198.772 1.44751 196.21 1.42045 195.043 1.41981C194.681 1.4196 194.606 1.45031 194.296 1.45021C192.614 1.44947 190.399 1.44864 188.94 1.41853C189.536 1.42836 185.817 1.4472 185.622 1.44709C185.288 1.44708 184.925 1.41835 184.242 1.41835C182.93 1.41836 183.097 1.47847 181.456 1.41835C181.05 1.43586 180.644 1.45338 180.238 1.4709C180.214 1.39082 175.083 1.49974 173.624 1.40242C173.586 1.39143 180.252 1.36024 180.803 1.35866C184.104 1.34904 188.989 1.36868 192.193 1.35463C193.157 1.3504 196.189 1.30172 196.418 1.30263C196.786 1.304 196.453 1.33185 196.613 1.33284C199.875 1.35355 198.247 1.29758 198.681 1.28139ZM56.8715 6.88999C57.6778 6.31376 58.4841 5.73752 59.2903 5.16129C59.2215 5.18858 59.1527 5.21588 59.0838 5.24317C58.7176 5.51147 58.3514 5.77976 57.9851 6.04806C57.6944 6.24147 57.4038 6.43488 57.1131 6.6283C57.0326 6.71553 56.952 6.80276 56.8715 6.88999ZM54.8372 8.24348C54.1312 8.73363 54.1184 8.78816 53.9577 8.90442C53.4782 9.25146 53.052 9.53553 52.5838 9.86843C53.1744 9.55728 54.3004 8.7087 54.8372 8.24348ZM70.2664 1.63001C70.0726 1.63422 68.779 1.72901 67.3077 1.64081C66.2069 1.66883 65.1062 1.69684 64.0054 1.72486C65.8755 1.68206 68.4634 1.72655 69.3792 1.72486C69.7271 1.72421 69.7934 1.69512 70.0714 1.69464C71.6733 1.69232 73.2308 1.75825 73.3944 1.66187C71.8796 1.68987 70.5136 1.62483 70.2664 1.63001ZM61.4305 3.56747C61.2332 3.73221 61.0358 3.89696 60.8385 4.0617C61.5937 3.52578 62.3488 2.98985 63.104 2.45393C62.888 2.58223 62.672 2.71053 62.4559 2.83884C62.1141 3.08171 61.7723 3.32459 61.4305 3.56747ZM131.839 1.5976C131.267 1.59785 130.696 1.59809 130.125 1.59833C130.156 1.58365 130.81 1.58371 131.051 1.5738C131.05 1.5738 131.048 1.5738 131.047 1.5738C131.316 1.5626 131.201 1.5437 131.688 1.53535C131.738 1.5561 131.789 1.57685 131.839 1.5976ZM364.644 12.5141C365.601 12.5131 374.443 12.5129 373.689 12.5665C373.31 12.5932 370.286 12.5699 369.394 12.5703C368.193 12.5709 364.947 12.6288 364.644 12.5141ZM380.302 12.5037C380.455 12.557 374.93 12.5655 374.389 12.5562C374.504 12.5486 374.681 12.5317 374.834 12.5278C375.579 12.5095 379.111 12.5183 380.302 12.5037ZM163.824 1.44361C163.379 1.47059 162.934 1.49757 162.488 1.52454C162.605 1.48945 162.723 1.45436 162.84 1.41926C163.168 1.42738 163.496 1.4355 163.824 1.44361ZM207.033 1.48225C214.453 1.48054 221.873 1.47883 229.294 1.47712C228.641 1.46253 227.988 1.44795 227.336 1.43336C220.942 1.43854 214.123 1.45331 207.948 1.4308C207.643 1.44795 207.338 1.4651 207.033 1.48225ZM72.3571 1.472C74.2583 1.47147 75.8464 1.49725 77.9147 1.45625C75.9436 1.41651 74.9678 1.47799 73.0524 1.41945C73.0513 1.41945 73.0502 1.41945 73.0492 1.41945C72.8185 1.43696 72.5877 1.45448 72.3571 1.472ZM114.804 1.46138C114.226 1.43684 113.648 1.4123 113.07 1.38777C113.765 1.38777 114.461 1.38777 115.156 1.38777C115.039 1.4123 114.922 1.43684 114.804 1.46138ZM271.759 1.34584C273.747 1.39939 278.834 1.30247 280.451 1.3669C280.555 1.37112 279.594 1.39831 281.148 1.45094C279.974 1.44016 279.146 1.42916 279.058 1.38777C278.71 1.40181 278.362 1.41584 278.013 1.42988C277.435 1.41926 276.857 1.40864 276.279 1.39802C276.341 1.43924 276.296 1.43704 275.408 1.40883C275.003 1.41926 274.598 1.4297 274.193 1.44014C274.021 1.42268 273.85 1.40522 273.678 1.38777C273.328 1.41218 272.977 1.4366 272.626 1.46101C271.26 1.43452 272.092 1.38722 271.759 1.34584ZM264.797 1.35591C265.121 1.34684 274.341 1.37644 270.151 1.45863C269.061 1.456 267.972 1.45338 266.883 1.45076C267.785 1.31464 264.817 1.43637 264.574 1.43922C263.407 1.45252 261.921 1.42015 261.075 1.42183C260.347 1.4233 259.915 1.44772 259.403 1.44709C257.659 1.44498 254.905 1.44409 254.526 1.38777C255.881 1.3866 257.258 1.38599 258.668 1.3874C260.158 1.38888 261.468 1.33572 264.268 1.40864C264.961 1.40081 264.714 1.35823 264.797 1.35591ZM111.329 1.39345C111.399 1.45002 107.88 1.43649 107.858 1.41413C107.851 1.40103 108.997 1.40134 109.16 1.39637C109.162 1.39637 109.163 1.39637 109.164 1.39637C109.232 1.3942 108.886 1.37255 109.424 1.36653C110.059 1.3755 110.694 1.38447 111.329 1.39345ZM353.175 5.07732C353.581 5.32671 362.436 11.6248 362.688 11.8225C362.757 11.8762 362.65 11.8174 362.673 11.8438C360.632 10.3402 357.662 8.29772 355.698 6.90794C355.15 6.5205 355.327 6.61818 355.296 6.59585C355.295 6.59492 355.293 6.594 355.292 6.59307C354.982 6.37274 353.549 5.42303 353.175 5.07732ZM283.93 1.39271C283.468 1.40156 283.007 1.41041 282.545 1.41926C282.427 1.40175 282.31 1.38423 282.193 1.36671C282.194 1.36671 282.195 1.36671 282.196 1.36671C282.774 1.37538 283.352 1.38405 283.93 1.39271ZM299.935 1.33504C299.823 1.34737 299.71 1.35969 299.598 1.37202C298.435 1.37373 297.272 1.37544 296.109 1.37715C296.226 1.38411 296.343 1.39106 296.46 1.39802C294.702 1.41662 293.973 1.37329 293.037 1.37953C293.038 1.37953 293.039 1.37953 293.04 1.37953C292.939 1.38025 292.817 1.40594 292.442 1.40681C291.582 1.40882 289.118 1.41838 288.82 1.39253C288.19 1.33738 293.149 1.36356 294.074 1.36104C294.492 1.35987 294.995 1.3374 295.249 1.33687C295.527 1.33637 295.907 1.36673 296.585 1.3658C296.783 1.36548 298.984 1.32977 299.935 1.33504ZM320.465 1.37184C320.107 1.39963 319.358 1.37279 319.083 1.37733C319.017 1.3784 319.528 1.40167 318.908 1.40864C318.733 1.39277 318.558 1.37691 318.382 1.36104C319.077 1.36464 319.771 1.36824 320.465 1.37184ZM105.417 1.36671C105.518 1.36075 107.407 1.36293 107.498 1.36671C108.63 1.41744 104.717 1.41194 105.417 1.36671ZM58.894 4.93152C59.5601 4.36845 51.1936 10.3948 50.3765 10.9699C50.444 10.9788 52.4174 9.52127 51.4065 10.3167C52.3859 9.5787 55.1603 7.63256 55.8048 7.16273C56.196 6.87761 56.2724 6.77426 56.3313 6.7309C56.5628 6.56112 58.6592 5.13001 58.894 4.93152ZM42.2875 12.335C43.2673 12.3262 44.2471 12.3175 45.227 12.3087C44.0708 12.3034 42.9146 12.2982 41.7584 12.2929C41.9348 12.307 42.1111 12.321 42.2875 12.335ZM41.0551 12.314C41.0865 12.2691 37.7606 12.3033 36.8865 12.2929C37.872 12.3693 39.5159 12.2973 41.0551 12.314ZM92.8854 1.25081C94.4178 1.22112 95.0763 1.35802 93.2131 1.29842C93.1564 1.29645 92.8215 1.25238 92.8854 1.25081ZM272.232 1.15322C272.493 1.15237 275.742 1.10798 275.93 1.12996C276.525 1.20009 274.393 1.17196 273.678 1.19844C272.525 1.24135 274.221 1.2767 271.407 1.25081C271.522 1.26485 271.637 1.27889 271.752 1.29292C270.105 1.29757 270.644 1.20033 270.349 1.18782C270.258 1.18402 269.229 1.1922 269.043 1.18599C266.722 1.10765 271.989 1.15387 272.232 1.15322ZM130.817 1.24037C133.868 1.19916 132.555 1.25963 135.686 1.25594C135.791 1.2868 131.214 1.26743 130.817 1.24037ZM242.527 1.2087C245.682 1.22085 248.276 1.18049 251.219 1.2347C251.027 1.31818 241.708 1.23026 242.527 1.2087ZM387.26 12.1241C379.812 12.2143 371.671 12.2318 363.5 12.231L363.547 12.246C359.228 9.18039 354.903 6.10146 350.712 3.12596C349.551 2.30145 349.42 2.2494 349.002 1.94818C348.728 1.7509 348.792 1.7633 348.426 1.50353C348.301 1.41507 348.177 1.32664 348.052 1.23824L348.029 1.22178L348 1.22157C331.948 1.21671 316.565 1.18264 301.176 1.19844C300.197 1.1995 295.436 1.25675 294.419 1.17043C293.65 1.10494 297.07 1.156 297.64 1.15542C298.068 1.15499 298.087 1.12421 298.372 1.12411C298.675 1.124 298.425 1.14503 298.776 1.14534C300.267 1.14682 301.893 1.13861 303.241 1.1404C316.457 1.15763 329.314 1.1527 342.461 1.14974C344.052 1.14942 343.725 1.12476 343.805 1.12465C343.806 1.12472 343.807 1.12478 343.808 1.12484C345.177 1.12446 346.577 1.12558 348 1.12761L348.06 1.12805L348.107 1.16162C353.089 4.70805 358.411 8.51714 363.587 12.1893L363.5 12.1615C364.883 12.1613 366.257 12.1599 367.615 12.1567C373.979 12.1397 380.343 12.1228 386.707 12.1058C386.891 12.1119 387.075 12.118 387.26 12.1241ZM265.494 1.24019C266.288 1.1472 266.466 1.24096 269.315 1.20302C269.546 1.21889 269.778 1.23476 270.01 1.25063C268.503 1.24715 266.996 1.24367 265.49 1.24019C265.491 1.24019 265.493 1.24019 265.494 1.24019ZM284.309 1.20632C284.791 1.08072 291.161 1.16948 294.029 1.14553C294.555 1.2086 290.385 1.18027 289.402 1.18691C288.911 1.19018 286.281 1.25506 284.282 1.21913C284.291 1.21486 284.3 1.21059 284.309 1.20632ZM68.5289 1.12411C68.9924 1.12777 69.456 1.13143 69.9195 1.13509C68.7596 1.14901 67.5997 1.16292 66.4398 1.17684C68.2902 1.16787 70.1406 1.15889 71.991 1.14992C71.6463 1.12386 71.3016 1.0978 70.9569 1.07174C70.1476 1.08919 69.3383 1.10665 68.5289 1.12411ZM74.5325 1.13747C71.2921 1.12766 74.6748 1.19742 75.4836 1.1664C75.9676 1.1478 74.8634 1.13853 74.5325 1.13747ZM82.9609 1.09261C81.4497 1.04686 78.3956 1.04371 79.4812 1.13509C81.1145 1.09229 82.1672 1.12786 84.5353 1.10323C84.1896 1.08572 83.8438 1.0682 83.498 1.05068C83.4964 1.05068 83.4948 1.05068 83.4932 1.05068C83.3157 1.06466 83.1384 1.07864 82.9609 1.09261ZM73.0524 1.08218C70.93 1.13468 77.0745 1.11672 75.1431 1.08218C75.0526 1.08059 73.136 1.08017 73.0524 1.08218ZM373.689 12.0296C373.945 12.0595 372.313 12.0589 371.77 12.0609C369.416 12.0698 366.397 12.0568 363.949 12.0609C364.133 12.0511 364.317 12.0413 364.502 12.0315C367.564 12.0308 370.627 12.0302 373.689 12.0296ZM357.766 7.93505C356.394 6.96157 355.022 5.98808 353.651 5.0146C353.523 4.9239 352.938 4.47745 353.388 4.7888C354.847 5.83755 356.306 6.8863 357.766 7.93505ZM254.876 1.06112C256.166 1.0444 252.452 0.958683 252.619 1.0505C253.372 1.05404 254.124 1.05758 254.876 1.06112ZM242.875 1.0245C243.684 1.03323 244.493 1.04195 245.302 1.05068C245.303 1.04012 245.304 1.02956 245.305 1.01901C244.495 1.02084 243.685 1.02267 242.875 1.0245ZM380.302 12.0086C379.445 12.0447 377.401 12.0391 376.127 12.0399C377.005 12.0088 379.097 12.0241 380.302 12.0086ZM274.199 1.02413C274.095 1.04876 279.225 1.04256 277.449 0.999231C276.366 1.00753 275.283 1.01583 274.199 1.02413ZM284.619 0.987696C283.519 0.982309 282.667 0.990767 282.893 1.02944C283.476 1.02779 284.06 1.02615 284.643 1.0245C284.635 1.01223 284.627 0.999964 284.619 0.987696ZM88.7136 1.01901C90.5677 1.02248 92.4219 1.02596 94.2761 1.02944C94.2073 1.01888 94.1386 1.00833 94.0699 0.997766C92.2823 0.994349 90.4947 0.990931 88.7072 0.987513C88.7094 0.998011 88.7114 1.00851 88.7136 1.01901ZM381.351 11.9137C382.624 11.9206 383.897 11.9275 385.171 11.9344C383.896 11.9415 382.622 11.9486 381.347 11.9557C381.347 11.9416 381.347 11.9276 381.347 11.9135C381.348 11.9136 381.349 11.9137 381.351 11.9137ZM63.1913 1.35895C63.3974 1.20995 63.5824 1.07599 63.7475 0.956097L63.864 0.874619L64 0.875592C66.3259 0.850389 65.4935 0.825948 64 0.819327L63.8465 0.818228L63.7149 0.910213C62.657 1.65398 61.2026 2.69546 60.6809 3.10502C60.6796 3.1059 60.6782 3.10677 60.6769 3.10765C60.5739 3.18859 60.8174 3.05367 60.6471 3.18989C61.1091 2.84485 61.5712 2.49981 62.0332 2.15477C62.4721 1.8646 62.911 1.57444 63.35 1.28428C63.4858 1.17958 63.6216 1.07489 63.7575 0.970196L63.8694 0.891945L64 0.892879C64.0018 0.892809 64.0036 0.892738 64.0054 0.892667C64.0036 0.89264 64.0018 0.892612 64 0.892586L63.8693 0.89165L63.7573 0.969955C63.5686 1.09962 63.38 1.22928 63.1913 1.35895ZM43.9594 11.8548C38.8234 11.8605 44.0786 11.9378 46.6208 11.8767C46.6025 11.8626 44.4326 11.8542 43.9594 11.8548ZM55.5191 6.7905C56.1831 6.32783 56.8472 5.86516 57.5113 5.40248C57.5905 5.33545 57.6696 5.26841 57.7488 5.20137C57.2371 5.55375 56.7254 5.90613 56.2136 6.2585C55.9821 6.43584 55.7506 6.61317 55.5191 6.7905ZM80.5297 0.734835C81.8321 0.725113 83.4935 0.823518 79.3118 0.797638C79.3139 0.78708 79.316 0.776521 79.3182 0.765962C79.4849 0.767649 79.974 0.777553 80.0007 0.776765C80.0772 0.774123 79.9869 0.738865 80.5297 0.734835ZM34.4489 11.5766C34.3027 11.5726 34.223 11.4612 32.7018 11.5765C32.242 11.5694 31.7822 11.5624 31.3224 11.5554C31.2036 11.5799 31.0848 11.6045 30.966 11.629C32.7455 11.61 32.9342 11.6596 33.0631 11.6607C33.6546 11.6653 33.2169 11.6398 33.5985 11.6394C34.5839 11.6386 36.8232 11.6557 35.8075 11.5829C35.4419 11.5568 34.5952 11.5807 34.4489 11.5766ZM37.9286 11.5133C37.7128 11.5226 38.4081 11.5552 38.2451 11.5644C38.1024 11.5724 35.9575 11.6056 36.538 11.6607C36.8902 11.6584 37.2424 11.656 37.5946 11.6537C37.7139 11.6386 37.8333 11.6236 37.9526 11.6085C38.2936 11.6224 38.6346 11.6363 38.9756 11.6502C39.5502 11.613 40.773 11.5649 39.3208 11.5345C39.8547 11.5377 40.3886 11.5409 40.9225 11.544C41.199 11.5619 41.4755 11.5797 41.752 11.5975C41.6071 11.5704 41.4622 11.5432 41.3173 11.516C40.1877 11.5151 39.0582 11.5142 37.9286 11.5133ZM21.3787 11.5237C21.4437 11.5378 21.5087 11.5518 21.5737 11.5658C19.613 11.5397 16.5597 11.5298 18.2938 11.6178C20.9498 11.6252 23.6058 11.6325 26.2619 11.6398C26.4382 11.6292 26.6146 11.6187 26.7909 11.6081C24.8094 11.6488 25.4218 11.4757 23.698 11.5254C23.4074 11.5338 24.2507 11.5943 22.4241 11.5556C22.4891 11.5415 22.5541 11.5274 22.6191 11.5133C22.2056 11.5168 21.7922 11.5202 21.3787 11.5237ZM4.5235 11.5448C7.88064 11.5245 4.18274 11.4733 3.56285 11.5158C3.56392 11.5158 3.56498 11.5158 3.56605 11.5158C1.86719 11.6324 5.52021 11.5761 5.74308 11.5768C6.03931 11.5779 6.7292 11.6613 8.3405 11.5397C7.06816 11.5414 5.79583 11.5431 4.5235 11.5448ZM15.4838 11.5239C15.2017 11.5212 15.3579 11.5423 15.236 11.542C15.235 11.542 15.2339 11.542 15.2328 11.542C13.4359 11.5375 9.16169 11.5185 8.69854 11.5869C10.0287 11.5926 15.9807 11.6074 16.3405 11.5609C16.0549 11.5486 15.7694 11.5362 15.4838 11.5239ZM28.1288 11.5748C29.232 11.5305 26.7484 11.5246 26.0972 11.5451C25.9743 11.5496 26.9859 11.6207 28.1288 11.5748ZM109.247 0.460551C111.674 0.487183 108.485 0.51376 109.589 0.555397C109.125 0.551857 108.662 0.548317 108.198 0.544777C108.548 0.516702 108.897 0.488626 109.247 0.460551ZM219.911 0.376509C220.477 0.371589 220.209 0.397007 220.258 0.397382C220.629 0.396673 220.98 0.375967 221.123 0.378157C223.76 0.419958 222.006 0.441305 221.979 0.44627C221.924 0.471416 222.617 0.500841 221.656 0.52958C221.074 0.520669 220.491 0.511758 219.908 0.502848C219.618 0.516824 219.329 0.530801 219.04 0.544777C217.882 0.514791 219.397 0.506565 219.569 0.466777C219.635 0.451137 218.546 0.432412 219.911 0.376509ZM113.596 0.376326C113.99 0.420499 114.954 0.476223 114.007 0.520608C114.006 0.520608 114.005 0.520608 114.004 0.520608C113.828 0.528728 113.115 0.533194 112.896 0.544594C111.333 0.485744 111.932 0.424928 113.596 0.376326ZM209.456 0.297409C208.516 0.307724 207.576 0.318039 206.636 0.328353C206.652 0.354842 206.668 0.38133 206.684 0.407819C207.187 0.400678 207.69 0.393537 208.193 0.386396C208.369 0.39848 208.546 0.410565 208.722 0.422649C208.098 0.452861 207.473 0.483072 206.849 0.513284C206.096 0.502726 205.344 0.492167 204.592 0.481607C204.938 0.467631 205.283 0.453654 205.629 0.439678C203.79 0.424249 204.191 0.488661 202.669 0.513284C202.148 0.488749 201.627 0.464213 201.106 0.439678C200.351 0.464335 199.597 0.488993 198.842 0.51365C197.575 0.502131 197.463 0.483352 198.316 0.455241C197.686 0.423118 196.996 0.473643 196.237 0.460551C196.174 0.459496 196.292 0.42924 196.237 0.428875C192.312 0.408479 192.521 0.48793 191.894 0.491312C191.452 0.493633 189.686 0.440016 189.658 0.421734C189.624 0.397099 193.297 0.29995 187.545 0.297409C190.519 0.230212 193.899 0.298615 191.713 0.397199C192.655 0.387278 196.805 0.411876 197.07 0.408917C197.455 0.404452 197.32 0.367049 197.803 0.366072C198.089 0.365543 198.846 0.45104 201.106 0.376326C201.394 0.390363 201.683 0.404401 201.972 0.418438C202.243 0.406903 202.513 0.395368 202.784 0.383833C202.227 0.342696 201.669 0.301559 201.112 0.260424C203.32 0.30512 205.151 0.221152 206.495 0.291917C207.658 0.28368 208.222 0.275538 207.723 0.239367C208.072 0.239367 208.421 0.239367 208.77 0.239367C208.999 0.258715 209.227 0.278062 209.456 0.297409ZM120.728 0.439495C121.883 0.398425 122.299 0.487029 122.119 0.492044C121.106 0.519616 120.127 0.460861 120.728 0.439495ZM217.814 0.423565C216.539 0.446392 215.265 0.469218 213.99 0.492044C213.99 0.46403 213.99 0.436016 213.99 0.408002C215.265 0.41319 216.539 0.418377 217.814 0.423565ZM108.892 0.397565C108.775 0.41856 108.657 0.439556 108.54 0.460551C107.144 0.383862 105.758 0.493895 105.069 0.471171C104.919 0.466207 105.221 0.429134 105.506 0.421185C105.684 0.416218 108.645 0.390485 108.892 0.397565ZM52.6945 8.22635C53.1267 7.93689 53.5589 7.64743 53.9912 7.35797C53.954 7.35535 53.9169 7.35274 53.8798 7.35013C53.6678 7.49518 53.4558 7.64022 53.2438 7.78527C53.0607 7.93229 52.8776 8.07932 52.6945 8.22635ZM57.5418 4.83233C58.2972 4.29394 59.0525 3.75554 59.8079 3.21715C56.91 5.24718 59.2719 3.55804 57.5021 4.77634C57.5153 4.795 57.5285 4.81367 57.5418 4.83233ZM66.0849 0.397382C65.9708 0.383284 65.8569 0.369184 65.7429 0.355086C65.1619 0.355086 64.5809 0.355086 64 0.355086L63.7018 0.352951L63.4462 0.531621C63.1635 0.732247 62.8808 0.932874 62.5981 1.1335C62.8641 0.909285 63.13 0.685069 63.396 0.460853L63.6748 0.26598L64 0.268308C64.2399 0.248285 64.4799 0.228263 64.7199 0.20824C65.0598 0.208117 65.3997 0.207995 65.7397 0.207873C65.8548 0.271043 65.9698 0.334212 66.0849 0.397382ZM244.968 0.271226C245.528 0.270381 247.479 0.313156 247.396 0.328902C246.585 0.34825 245.775 0.367598 244.964 0.386945C244.961 0.35887 244.957 0.330794 244.953 0.302719C244.839 0.316696 244.724 0.330672 244.61 0.344649C244.149 0.334151 243.688 0.323654 243.227 0.313156C242.995 0.337691 242.762 0.362226 242.53 0.386762C242.297 0.358747 242.063 0.330733 241.83 0.302719C244.055 0.253053 243.979 0.302694 244.442 0.30217C244.677 0.301932 244.825 0.28455 244.908 0.275804C244.928 0.274278 244.948 0.272752 244.968 0.271226ZM216.933 0.24486C219.59 0.237885 221.109 0.311799 223.031 0.249987C221.798 0.381657 213.837 0.245653 211.03 0.355452C210.739 0.334334 210.447 0.313217 210.156 0.2921C211.684 0.310905 212.743 0.267411 213.489 0.261156C214.081 0.256188 214.019 0.278317 214.064 0.278001C214.066 0.278001 214.068 0.278001 214.07 0.278001C215.456 0.268913 215.885 0.24761 216.933 0.24486ZM106.918 0.294296C107.632 0.260932 108.881 0.264269 108.895 0.312973C108.2 0.327071 107.504 0.34117 106.809 0.355269C106.952 0.342799 106.796 0.300003 106.918 0.294296ZM67.1638 0.261339C67.721 0.245487 69.0374 0.259377 68.4698 0.301437C68.3677 0.308903 67.0566 0.279338 67.8256 0.355269C66.548 0.354095 66.847 0.27045 67.1638 0.261339ZM171.529 0.344649C171.06 0.343246 170.591 0.341842 170.122 0.340438C170.013 0.320786 169.904 0.301132 169.794 0.28148C170.373 0.302536 170.951 0.323593 171.529 0.344649ZM100.892 0.260607C100.269 0.356786 99.2037 0.263188 98.0339 0.342269C97.6018 0.342879 97.1697 0.34349 96.7376 0.3441C96.7365 0.3441 96.7355 0.3441 96.7344 0.3441C96.7227 0.317856 96.711 0.291612 96.6992 0.265367C98.0968 0.26378 99.4943 0.262193 100.892 0.260607ZM200.764 0.297226C200.475 0.309433 200.186 0.32164 199.897 0.333846C199.383 0.319626 198.869 0.305405 198.355 0.291184C198.633 0.280992 198.911 0.270799 199.189 0.260607C199.714 0.272813 200.239 0.28502 200.764 0.297226ZM93.2962 0.252367C94.8076 0.240319 95.376 0.323931 93.4433 0.324142C92.6285 0.324142 91.7127 0.264956 93.2962 0.252367ZM273.841 0.302353C273.323 0.309494 272.805 0.316635 272.288 0.323776C272.111 0.306198 271.935 0.288621 271.759 0.271043C272.453 0.28148 273.147 0.291917 273.841 0.302353ZM60.1327 2.7799C60.1924 2.75908 60.2521 2.73827 60.3118 2.71745C60.6864 2.44721 61.0611 2.17698 61.4358 1.90675C61.331 1.95973 61.2261 2.01272 61.1213 2.06571C60.7918 2.30377 60.4622 2.54184 60.1327 2.7799ZM270.357 0.313156C269.943 0.316513 269.529 0.31987 269.115 0.323227C268.837 0.314682 268.559 0.306137 268.28 0.297592C268.668 0.289109 269.055 0.280625 269.442 0.272141C269.747 0.285813 270.052 0.299484 270.357 0.313156ZM78.9697 0.260424C79.5512 0.239288 81.8742 0.305139 79.7817 0.321945C78.4483 0.332615 78.8824 0.263638 78.9697 0.260424ZM75.8352 0.239367C78.0501 0.199103 76.3893 0.403459 73.7461 0.271043C76.407 0.289198 75.7051 0.241798 75.8352 0.239367ZM57.0866 4.77368C57.0412 4.806 57.0208 4.85653 56.6585 5.11499C55.3543 6.04521 53.6365 7.27853 52.7032 7.9431C51.696 8.66023 49.7485 10.0305 47.8394 11.3811L48.5 11.1705C45.6286 11.1662 42.8217 11.1711 42.2779 11.2179C42.0724 11.2358 42.5453 11.2892 42.4617 11.2919C42.2165 11.2996 40.8053 11.2737 41.0663 11.313C42.4511 11.3127 43.8358 11.3124 45.2206 11.3121C44.8806 11.2843 44.5407 11.2566 44.2008 11.2289C47.6511 11.2437 46.509 11.242 47.5015 11.3024C47.8343 11.289 48.1672 11.2757 48.5 11.2624L47.8926 11.456C48.0915 11.3025 48.2905 11.149 48.4895 10.9954C49.5398 10.2789 50.5901 9.56227 51.6405 8.84569C51.3953 8.99823 51.1501 9.15077 50.9049 9.3033C52.448 8.16839 52.0264 8.49369 52.9056 7.9218C52.8972 7.90628 52.8888 7.89076 52.8804 7.87524C54.4132 6.83984 54.6765 6.58855 55.0056 6.35424C55.6809 5.87377 56.6622 5.43144 59.1208 3.43378C60.2652 2.74325 60.1237 2.59628 60.8219 2.22655C62.597 0.829835 59.1215 3.34591 57.468 4.52392C57.4671 4.52454 57.4662 4.52515 57.4654 4.52577C57.3406 4.61468 57.5281 4.4586 57.0866 4.77368ZM67.9471 0.23662C66.5814 0.145578 71.9768 0.137055 70.1912 0.268479C69.9253 0.272752 69.6595 0.277024 69.3936 0.281297C68.9104 0.266404 68.4271 0.251513 67.9439 0.23662C67.9449 0.23662 67.946 0.23662 67.9471 0.23662ZM118.642 0.176197C123.64 0.213608 120.798 0.26598 119.106 0.214831C118.768 0.204687 118.583 0.190779 118.642 0.176197ZM220.729 0.174915C220.802 0.185841 220.875 0.196766 220.948 0.20769C219.272 0.197466 216.032 0.239608 216.076 0.165944C217.627 0.168935 219.178 0.171925 220.729 0.174915ZM207.472 0.12676C207.832 0.122317 209.302 0.11183 209.125 0.139394C208.488 0.158925 207.85 0.178455 207.213 0.197987C206.916 0.18578 206.62 0.173573 206.323 0.161366C206.737 0.157215 207.375 0.127922 207.472 0.12676Z" fill="url(#paint0_radial_43_235)"/>
<defs>
<radialGradient id="paint0_radial_43_235" cx="0" cy="0" r="1" gradientUnits="userSpaceOnUse" gradientTransform="translate(206 6.31196) rotate(-90) scale(185 174.579)">
<stop stop-color="#C9684D"/>
<stop offset="1" stop-color="#E82E5A"/>
</radialGradient>
</defs>
</svg>
