<svg width="412" height="539" viewBox="0 0 412 539" fill="none" xmlns="http://www.w3.org/2000/svg">
<g opacity="0.05" filter="url(#filter0_d_19_356)">
<path d="M239.496 226.543C236.999 226.543 234.603 227.535 232.837 229.301L209.451 252.688C206.297 252.041 203.013 252.291 199.979 253.434C196.395 254.784 193.367 257.298 191.38 260.573C189.394 263.848 188.564 267.694 189.023 271.497C189.482 275.299 191.203 278.838 193.911 281.547C196.62 284.255 200.159 285.976 203.961 286.435C207.764 286.894 211.61 286.063 214.885 284.077C218.16 282.091 220.674 279.063 222.024 275.479C223.167 272.444 223.417 269.159 222.769 266.006L246.157 242.62C247.923 240.854 248.915 238.458 248.915 235.961C248.915 233.463 247.923 231.068 246.157 229.301C244.39 227.535 241.994 226.543 239.496 226.543ZM105.731 217.567C97.4171 233.601 93.0905 251.402 93.1176 269.463L93.1215 272.266H135.3L135.296 269.455C135.281 258.693 137.734 248.071 142.465 238.405L145.4 232.408L140.254 234.109L109.627 216.428L107.083 214.959L105.731 217.567ZM302.371 216.426L270.652 234.74L268.38 236.051L269.534 238.407C274.265 248.072 276.718 258.694 276.703 269.455L276.7 272.266H318.878L318.882 269.463C318.908 251.402 314.581 233.6 306.268 217.566L304.915 214.958L302.371 216.426ZM145.114 174.399C131.401 183.203 119.745 194.858 110.94 208.57L109.35 211.048L111.899 212.519L143.615 230.83L145.881 232.138L147.346 229.969C152.447 222.412 158.954 215.906 166.513 210.807L168.684 209.342L167.374 207.075L149.063 175.358L147.591 172.808L145.114 174.399ZM262.951 175.355L244.635 207.078L243.327 209.344L245.496 210.809C253.052 215.909 259.556 222.413 264.656 229.968L266.12 232.138L268.387 230.83L300.108 212.515L302.658 211.044L301.067 208.566C292.263 194.855 280.61 183.202 266.9 174.397L264.422 172.806L262.951 175.355ZM200.786 156.7C184.505 157.427 168.577 161.69 154.111 169.194L151.503 170.547L152.972 173.091L171.284 204.808L172.595 207.08L174.951 205.926C183.131 201.921 192.012 199.543 201.1 198.927L203.718 198.75V156.569L200.786 156.7ZM208.282 198.746L210.9 198.923C219.985 199.538 228.865 201.914 237.043 205.918L239.399 207.071L240.71 204.8L259.025 173.081L260.494 170.536L257.885 169.183C243.419 161.683 227.494 157.421 211.215 156.694L208.282 156.563V198.746ZM182.585 397.981L180.328 397.53C163.634 394.199 147.758 387.619 133.603 378.164L131.687 376.883L130.058 378.513L113.428 395.142L80.3158 362.03L98.5736 343.772L97.2943 341.856C87.8386 327.701 81.2576 311.825 77.9271 295.132L77.4769 292.873H51.6693V246.044H77.4779L77.9281 243.786C81.2587 227.093 87.8388 211.217 97.2943 197.062L98.5746 195.146L96.9457 193.516L80.3158 176.886L113.428 143.774L130.058 160.404L131.688 162.033L133.604 160.753C147.758 151.297 163.634 144.717 180.328 141.386L182.585 140.936V115.128H229.414V140.938L231.673 141.389C248.366 144.72 264.242 151.3 278.396 160.756L280.312 162.036L281.941 160.406L298.572 143.774L331.684 176.886L315.053 193.518L313.424 195.147L314.703 197.063C324.159 211.217 330.74 227.093 334.071 243.786L334.521 246.044H360.33V292.873H334.521L334.07 295.132C330.739 311.825 324.159 327.701 314.703 341.855L313.423 343.771L315.053 345.4L331.683 362.03L298.571 395.142L281.942 378.513L280.313 376.883L278.397 378.164C264.242 387.619 248.366 394.199 231.673 397.53L229.414 397.981V423.789H182.585V397.981ZM250.506 327.142C250.501 325.389 249.803 323.708 248.563 322.468C247.323 321.229 245.642 320.53 243.889 320.525V320.524H168.119L168.112 320.525C166.358 320.53 164.677 321.228 163.437 322.468C162.197 323.708 161.498 325.389 161.494 327.142V343.126C161.498 344.879 162.197 346.56 163.437 347.8C164.677 349.039 166.357 349.738 168.111 349.743H243.89C245.643 349.738 247.323 349.039 248.563 347.8C249.802 346.56 250.501 344.88 250.506 343.127V327.142Z" stroke="#07596E" stroke-width="5.616"/>
<g filter="url(#filter1_f_19_356)">
<path d="M239.496 227.947C237.371 227.947 235.333 228.792 233.83 230.295L209.895 254.229C206.782 253.435 203.493 253.61 200.474 254.748C197.184 255.987 194.405 258.295 192.581 261.3C190.758 264.307 189.995 267.838 190.416 271.329C190.838 274.819 192.418 278.067 194.904 280.553C197.39 283.04 200.639 284.62 204.129 285.041C207.62 285.462 211.151 284.7 214.157 282.877C217.163 281.053 219.471 278.274 220.71 274.984C221.848 271.964 222.022 268.675 221.227 265.562L245.164 241.628C246.667 240.125 247.511 238.086 247.511 235.961C247.511 233.835 246.666 231.797 245.163 230.294C243.661 228.791 241.622 227.947 239.496 227.947ZM106.977 218.214C98.7671 234.047 94.4951 251.626 94.5219 269.461L94.5238 270.862H133.895L133.893 269.457C133.877 258.481 136.378 247.646 141.203 237.788L142.671 234.79L140.098 235.64L108.926 217.644L107.654 216.91L106.977 218.214ZM303.073 217.642L271.353 235.956L270.218 236.611L270.794 237.789C275.62 247.647 278.123 258.481 278.108 269.457L278.106 270.862H317.477L317.479 269.461C317.504 251.625 313.231 234.046 305.022 218.213L304.345 216.908L303.073 217.642ZM145.872 175.581C132.329 184.276 120.818 195.786 112.121 209.329L111.327 210.567L112.601 211.303L144.316 229.614L145.45 230.268L146.182 229.183C151.384 221.477 158.02 214.843 165.728 209.643L166.814 208.911L166.159 207.777L147.847 176.06L147.111 174.786L145.872 175.581ZM264.166 176.057L245.851 207.78L245.197 208.913L246.282 209.645C253.986 214.845 260.62 221.479 265.82 229.183L266.551 230.268L267.685 229.613L299.406 211.3L300.681 210.563L299.885 209.325C291.191 195.784 279.682 184.273 266.141 175.578L264.903 174.783L264.166 176.057ZM200.848 158.102C184.771 158.82 169.043 163.03 154.757 170.44L153.453 171.117L154.188 172.388L172.499 204.106L173.155 205.242L174.332 204.665C182.676 200.579 191.736 198.154 201.005 197.526L202.315 197.438V158.037L200.848 158.102ZM209.686 197.433L210.995 197.522C220.262 198.15 229.318 200.573 237.661 204.657L238.838 205.233L239.495 204.098L257.809 172.379L258.543 171.106L257.239 170.43C242.953 163.023 227.227 158.814 211.152 158.096L209.686 158.031V197.433ZM181.182 399.133L180.052 398.907C163.178 395.54 147.13 388.889 132.823 379.331L131.865 378.691L113.428 397.128L78.3304 362.029L95.9515 344.409L96.767 343.593L96.1263 342.635C86.5685 328.328 79.9166 312.28 76.5502 295.406L76.3256 294.277H50.266V244.64H76.3256L76.5511 243.51C79.9178 226.637 86.5695 210.589 96.1273 196.282L96.767 195.324L95.9525 194.509L78.3304 176.886L113.428 141.789L131.051 159.411L131.866 160.225L132.824 159.586C147.131 150.028 163.178 143.376 180.052 140.009L181.182 139.784V113.724H230.819V139.787L231.948 140.012C248.821 143.379 264.868 150.031 279.175 159.589L280.133 160.228L280.949 159.414L298.572 141.789L333.669 176.886L316.046 194.51L315.232 195.325L315.871 196.283C325.429 210.59 332.081 226.637 335.448 243.51L335.673 244.64H361.735V294.277H335.672L335.447 295.406C332.08 312.28 325.428 328.327 315.87 342.634L315.231 343.592L333.668 362.03L298.57 397.128L280.949 379.506L280.134 378.691L279.176 379.331C264.868 388.889 248.821 395.54 231.948 398.907L230.819 399.133V425.193H181.182V399.133ZM249.102 327.146C249.098 325.764 248.547 324.438 247.57 323.461C246.592 322.483 245.267 321.932 243.885 321.928H168.116C166.733 321.932 165.408 322.483 164.43 323.461C163.452 324.438 162.901 325.764 162.898 327.146V343.122C162.902 344.504 163.453 345.829 164.43 346.806C165.408 347.784 166.732 348.336 168.115 348.34H243.885C245.267 348.335 246.592 347.784 247.57 346.806C248.547 345.829 249.098 344.504 249.102 343.122V327.146Z" stroke="#07596E" stroke-width="2.808"/>
</g>
</g>
<defs>
<filter id="filter0_d_19_356" x="39.136" y="106.594" width="333.728" height="333.728" filterUnits="userSpaceOnUse" color-interpolation-filters="sRGB">
<feFlood flood-opacity="0" result="BackgroundImageFix"/>
<feColorMatrix in="SourceAlpha" type="matrix" values="0 0 0 0 0 0 0 0 0 0 0 0 0 0 0 0 0 0 127 0" result="hardAlpha"/>
<feOffset dy="4"/>
<feGaussianBlur stdDeviation="2"/>
<feComposite in2="hardAlpha" operator="out"/>
<feColorMatrix type="matrix" values="0 0 0 0 0 0 0 0 0 0 0 0 0 0 0 0 0 0 0.25 0"/>
<feBlend mode="normal" in2="BackgroundImageFix" result="effect1_dropShadow_19_356"/>
<feBlend mode="normal" in="SourceGraphic" in2="effect1_dropShadow_19_356" result="shape"/>
</filter>
<filter id="filter1_f_19_356" x="-63.4583" y="0" width="538.917" height="538.917" filterUnits="userSpaceOnUse" color-interpolation-filters="sRGB">
<feFlood flood-opacity="0" result="BackgroundImageFix"/>
<feBlend mode="normal" in="SourceGraphic" in2="BackgroundImageFix" result="shape"/>
<feGaussianBlur stdDeviation="56.16" result="effect1_foregroundBlur_19_356"/>
</filter>
</defs>
</svg>
