<svg width="412" height="14" viewBox="0 0 412 14" fill="none" xmlns="http://www.w3.org/2000/svg">
<path opacity="0.75" d="M9.41303 0.111019C18.1782 -0.151161 24.1614 0.12741 32.2926 0.171809C37.3256 0.199234 42.8096 0.212003 48.5 0.216344L48.9 0.213481L49.2429 0.45317C54.2931 4.04294 59.5486 7.76622 64.7474 11.4468L64 11.2086C72.5862 11.1989 81.0434 11.1856 88.5985 11.1885C102.455 11.1938 116.536 11.2125 130.309 11.2275C131.015 11.2282 131.437 11.257 131.757 11.2573C134.773 11.2607 139.83 11.2347 142.821 11.2385C149.114 11.2464 160.064 11.2419 165.827 11.2689C168.275 11.2803 170.785 11.285 171.737 11.3534C172.631 11.3569 173.119 11.2951 173.353 11.2917C173.355 11.2918 173.358 11.2919 173.361 11.2919C174.113 11.2815 176.012 11.3248 176.431 11.3221C176.494 11.3217 176.108 11.2769 177.125 11.2905C177.215 11.2916 177.132 11.3221 177.988 11.3225C178.211 11.3226 181.074 11.2759 181.893 11.2731C184.616 11.2638 191.12 11.3004 194.376 11.2998C194.874 11.2998 195.161 11.282 195.687 11.2817C195.959 11.2815 196.366 11.3008 196.45 11.3007C196.816 11.3 198.416 11.2122 197.842 11.3855C199.513 11.3745 199.02 11.3172 199.058 11.28C200.872 11.2746 201.746 11.3562 202.22 11.2698C211.139 11.2802 220.059 11.2906 228.979 11.3011C228.981 11.287 228.984 11.2729 228.987 11.2588C231.616 11.3151 232.518 11.2198 234.018 11.3016C234.944 11.2836 235.869 11.2656 236.795 11.2476C260.58 11.3031 284.31 11.2371 307.827 11.2374C308.819 11.2374 309.067 11.2674 310.704 11.2676C312.511 11.2678 315.053 11.2329 317.435 11.2333C319.524 11.2336 322.606 11.262 324.936 11.2665C325.462 11.2674 325.842 11.2484 325.901 11.2485C326.25 11.2493 326.267 11.2794 326.605 11.2802C327.009 11.2812 327.497 11.2589 327.963 11.2602C329.707 11.2652 331.607 11.2575 331.828 11.258C332.892 11.2609 333.127 11.2903 333.214 11.2906C334.397 11.2942 333.954 11.2677 334.248 11.2692C335.777 11.2774 336.858 11.3436 338.951 11.28C338.894 11.3046 338.837 11.3292 338.78 11.3538C340.382 11.3677 339.324 11.3023 339.651 11.2905C339.784 11.2861 343.232 11.2941 343.498 11.2952C344.424 11.2994 344.449 11.3321 344.529 11.3326C344.711 11.3336 346.758 11.3012 348 11.3203L347.317 11.5379C347.389 11.4885 347.458 11.4417 347.523 11.3978C348.695 10.6075 347.377 11.6245 347.67 11.4315C347.72 11.399 348.922 10.5371 349.096 10.4391C349.288 10.3305 348.245 11.0706 348.266 11.0669C348.281 11.0641 350.04 9.8722 349.726 10.1333C349.552 10.2832 348.344 11.1249 347.463 11.744L348 11.573C347.534 11.5709 347.142 11.5704 346.957 11.5748C346.856 11.5772 347.046 11.6157 346.957 11.6171C346.599 11.6223 339.958 11.6234 339.654 11.6171C340 11.5996 340.346 11.5821 340.691 11.5646C340.232 11.5628 339.772 11.561 339.312 11.5592C339.966 11.5452 340.62 11.5312 341.273 11.5171C340.302 11.3729 337.375 11.5191 337.255 11.5911C337.203 11.6244 338.991 11.71 337.327 11.7599C337.58 11.7685 337.833 11.777 338.086 11.7856C338.608 11.7715 339.129 11.7575 339.651 11.7434C339.304 11.7346 338.956 11.7257 338.609 11.7169C338.737 11.7069 338.864 11.6969 338.992 11.6869C339.967 11.6708 340.942 11.6548 341.917 11.6387C342.419 11.6461 342.315 11.6757 342.659 11.6814C346.956 11.7533 344.153 11.6618 346.967 11.675C347.311 11.6886 347.656 11.7022 348 11.7158L347.546 11.8605C347.594 11.8291 347.642 11.7978 347.69 11.7664C347.537 11.7949 348.577 11.1073 349.79 10.2118C349.655 10.3334 349.521 10.4549 349.386 10.5765C351.16 9.30353 354.832 6.8291 353.79 7.42485C354.204 7.14346 354.618 6.86208 355.031 6.58069C355.365 6.32054 355.698 6.06038 356.032 5.80022C356.509 5.46405 356.987 5.12789 357.464 4.79172C357.472 4.79864 357.481 4.80556 357.489 4.81248C357.109 5.08203 356.729 5.35159 356.35 5.62114C356.653 5.44464 356.956 5.26814 357.26 5.09164C357.537 4.88847 357.814 4.6853 358.091 4.48212C356.898 5.29201 358.42 4.15228 358.771 3.85196C359.753 3.13607 360.418 2.73086 360.751 2.49702C360.908 2.38712 362.693 1.00334 362.032 1.60095C362.371 1.35506 362.71 1.10916 363.048 0.863267L363.245 0.721041L363.5 0.719219C364.243 0.71106 364.985 0.702901 365.728 0.694742C366.182 0.702798 366.636 0.710855 367.09 0.718911C366.104 0.767839 368.96 0.826792 366.856 0.847081C365.286 0.862299 364.898 0.816552 364.153 0.816869C363.904 0.816953 363.698 0.821259 363.5 0.826709L363.28 0.82828L363.11 0.950927C362.843 1.15199 362.596 1.34218 362.222 1.60882C358.217 4.46176 354.947 6.77532 351.131 9.46698C350.377 9.99873 349.701 10.4967 349.195 10.8537C348.623 11.2566 349.315 10.7178 348.594 11.2414C348.01 11.6647 347.789 11.8468 347.626 11.9737L348 11.8546C347.938 11.8574 347.884 11.8592 347.827 11.8593C347.673 11.8597 347.185 11.8313 346.737 11.8313C344.893 11.8313 342.191 11.8588 341.929 11.8586C341.633 11.8583 336.418 11.8327 336.168 11.828C336.036 11.8255 336.31 11.7207 335.161 11.8324C334.802 11.8345 334.444 11.8366 334.085 11.8387C334.143 11.8177 334.201 11.7968 334.259 11.7759C332.135 11.8552 332.866 11.8108 330.818 11.8171C325.915 11.8321 318.682 11.8144 313.319 11.8218C312.121 11.8235 311.665 11.8486 310.248 11.8504C308.932 11.852 305.495 11.7772 306.243 11.8808C303.314 11.7911 302.843 11.9458 301.377 11.8493C301.2 11.8633 301.022 11.8774 300.845 11.8914C299.253 11.8312 298.762 11.8841 297.025 11.8914C296.276 11.8946 297.139 11.8305 295.628 11.9018C295.339 11.8965 295.05 11.8912 294.761 11.8859C294.828 11.8704 294.896 11.8549 294.963 11.8394C293.284 11.8521 293.176 11.844 293.367 11.902C292.557 11.8915 291.747 11.8809 290.936 11.8703C290.836 11.8894 290.735 11.9084 290.634 11.9275C291.022 11.9638 309.423 11.909 311.986 11.8916C314.991 11.9347 321.028 11.8808 323.456 11.891C324.427 11.8951 324.857 11.9382 326.271 11.9434C327.684 11.9486 329.463 11.9094 330.216 11.9081C332.723 11.9032 344.602 11.9118 336.523 11.9654C336.755 11.9864 336.987 12.0074 337.22 12.0283C340.43 11.9567 339.268 12.0008 341.932 12.0082C343.053 12.0114 345.72 11.9645 345.571 12.0598C343.489 12.0776 341.276 12.0471 339.465 12.0485C339.286 12.0486 337.142 12.0922 336.039 12.0803C335.043 12.0696 335.728 11.9786 333.563 12.0807C331.954 11.981 331.024 12.0715 330.599 12.0811C329.865 12.0978 329.784 12.0485 329.05 12.0428C328.251 12.0365 327.7 12.0692 327.591 12.0694C326.494 12.0701 320.783 12.0746 320.521 12.0547C320.751 12.046 320.98 12.0373 321.21 12.0285C319.727 12.0145 320.037 12.0648 319.647 12.0708C319.356 12.0706 319.066 12.0705 318.776 12.0703C318.891 12.0598 319.006 12.0494 319.121 12.039C317.369 12.0412 318.71 12.0775 316.223 12.0765C314.644 12.0759 313.013 12.036 312.86 12.039C312.815 12.0398 313.312 12.0667 312.668 12.0703C311.603 12.0762 309.761 12.0755 309.554 12.039C309.033 12.0441 309.077 12.0799 309.008 12.0807C308.705 12.0842 303.492 12.0964 302.558 12.0985C299.971 12.1043 297.09 12.0967 294.286 12.1027C293.998 12.1033 294.182 12.0803 293.893 12.0811C293.43 12.0823 291.049 12.1183 290.693 12.1208C289.806 12.127 287.471 12.1128 287.103 12.1232C287.051 12.1247 287.819 12.1557 286.921 12.1653C285.924 12.1759 286.461 12.1342 286.406 12.1338C284.376 12.1195 283.095 12.1485 281.709 12.1541C281.259 12.1559 280.431 12.1245 279.797 12.1338C279.724 12.1349 279.869 12.1639 279.797 12.1653C278.839 12.1805 277.943 12.1267 277.529 12.1232C276.515 12.1147 277.067 12.1544 277.014 12.1547C276.339 12.156 275.429 12.1416 274.402 12.1435C269.823 12.152 266.086 12.1544 261.217 12.1518C260.606 12.1514 259.88 12.1234 259.786 12.1234C259.497 12.1236 259.58 12.1565 258.744 12.1558C256.982 12.1541 255.349 12.1557 253.604 12.1551C253.253 12.1549 253.103 12.1244 252.835 12.1237C251.937 12.1218 248.873 12.2018 248.823 12.1023C247.04 12.1903 245.856 12.1145 244.421 12.1153C241.022 12.1172 235.7 12.1352 232.311 12.1237C231.598 12.1213 231.263 12.0958 230.866 12.0944C230.155 12.0919 226.086 12.1062 225.873 12.1021C225.455 12.0944 225.706 11.9822 223.557 12.08C222.297 12.0869 222.446 12.0409 222.185 12.0384C220.155 12.0199 218.18 12.1227 218.549 12.0285C216.185 12.0541 214.653 12.1061 213.688 12.0181C213.701 12.0611 212.589 12.0868 211.249 12.0705C212.621 11.9983 212.451 11.9522 215.769 11.9654C215.822 11.9656 215.722 11.9966 215.774 11.9969C216.248 11.999 217.236 11.9833 218.044 11.985C218.852 11.9866 218.403 12.0079 218.727 12.0075C219.023 12.0071 219.013 11.9773 219.441 11.9769C220.83 11.9757 222.06 11.9675 222.85 11.967C223.348 11.9667 223.906 11.9928 224.292 11.9928C225.786 11.9926 228.952 11.9722 230.854 11.9751C231.25 11.9757 231.084 12.005 231.95 12.0075C232.051 12.0078 232.421 11.9772 233.179 11.9709C233.938 11.9645 234.527 11.9797 235.014 11.9765C235.422 11.9739 235.251 11.9467 236.087 11.945C236.783 11.9437 244.672 11.9632 245.1 11.9676C245.716 11.9738 246.009 12.0119 246.385 12.0073C246.452 12.0063 246.564 11.9695 246.793 11.9668C250.575 11.9233 258.946 11.9735 263.268 11.9732C272.301 11.9727 280.635 11.951 289.749 11.9425C289.911 11.9361 290.074 11.9297 290.236 11.9233C289.315 11.923 288.394 11.9228 287.472 11.9225C287.467 11.9052 287.461 11.8879 287.455 11.8705C286.209 11.8678 286.374 11.9088 286.41 11.9335C285.949 11.923 285.488 11.9125 285.027 11.902C284.629 11.9624 281.556 11.9222 279.971 11.9223C278.94 11.9223 277.714 11.9454 277.171 11.9436C276.022 11.9399 276.053 11.9026 275.962 11.902C275.809 11.9012 274.206 11.934 273.05 11.9328C271.341 11.931 271.156 11.8737 268.816 11.9223C265.818 11.8926 262.495 11.9076 259.264 11.9124C259.879 11.8595 256.983 11.9096 255.677 11.9088C247.709 11.9036 237.916 11.881 229.843 11.8601C228.806 11.8574 228.022 11.8263 227.444 11.8273C227.131 11.8278 226.994 11.8646 226.559 11.8597C226.482 11.8588 226.429 11.8244 225.619 11.8193C223.602 11.8063 218.58 11.8636 217.309 11.7976C210.415 11.8078 203.521 11.818 196.627 11.8282C196.454 11.8142 196.281 11.8001 196.107 11.7861C194.798 11.8578 189.62 11.8157 187.096 11.8191C182.652 11.8251 176.982 11.8474 173.089 11.8498C172.243 11.8504 171.549 11.83 170.749 11.8304C170.404 11.8306 169.976 11.857 169.617 11.8572C165.591 11.8592 160.14 11.832 156.083 11.8326C146.872 11.834 138.197 11.83 128.864 11.8312C107.167 11.834 85.5557 11.8534 64 11.8599L64.3704 11.978C59.199 8.31032 54.032 4.64448 48.8694 0.979455L48.6989 0.860268L48.5 0.861692C45.1653 0.861155 41.8318 0.860105 38.4993 0.858433C38.0814 0.858222 38.1022 0.827885 37.7784 0.827672C35.8665 0.826193 31.5971 0.8512 29.4379 0.849827C27.7175 0.848771 24.9869 0.802385 24.3949 0.849095C30.5067 0.919794 36.9639 0.914475 43.3265 0.934237C43.7788 0.935628 43.835 0.964469 43.8907 0.964997C44.9208 0.975018 44.2703 0.9353 45.764 0.933504C46.0182 0.933198 47.3378 0.956905 48.5 0.968167L48.6657 0.966981L48.8078 1.06629C49.7156 1.72385 50.5106 2.28717 50.317 2.09459C51.1964 2.76362 57.5342 7.2839 58.7663 8.14344C59.1405 8.40445 58.8928 8.19538 58.9675 8.24667C59.2916 8.46935 59.4148 8.60266 59.7008 8.80687C60.4635 9.35093 62.4242 10.7052 62.7932 10.9673C63.1149 11.1958 63.6775 11.6005 64.3136 12.0581L64 11.9582C65.2854 11.9665 66.8144 11.9766 67.6689 11.9721C68.9296 11.9656 68.6936 11.9265 69.7836 11.9229C70.6428 11.9202 69.7069 11.953 71.625 11.963C72.5757 11.9678 75.9012 11.9443 76.7095 11.9443C77.5175 11.9443 78.4163 11.9677 79.5307 11.9659C81.136 11.9634 84.6281 11.9503 86.2616 11.9428C86.3591 11.9424 86.5968 11.912 86.8371 11.9126C87.3348 11.9139 87.1853 11.9515 87.5611 11.9553C87.9372 11.9591 94.4501 11.9545 95.5564 11.9549C96.3188 11.9551 96.8454 11.9328 97.2667 11.933C97.5973 11.9332 97.6327 11.9645 97.97 11.9648C98.0744 11.9648 98.9633 11.9376 99.8513 11.9383C100.69 11.9389 103.876 11.9648 104.245 11.965C104.486 11.9651 104.222 11.9429 104.933 11.9434C105.58 11.9439 106.005 11.9728 106.374 11.9732C107.231 11.9742 108.188 11.9496 109.096 11.9494C111.708 11.9491 111.574 11.9849 111.731 11.9861C112.165 11.9893 112.339 11.9565 112.482 11.9558C113.084 11.9531 114.56 11.947 115.097 11.9458C115.766 11.9442 116.049 11.9753 116.759 11.9754C117.289 11.9754 118.358 11.9451 119.566 11.9436C122.289 11.9401 125.528 11.9344 128.202 11.9355C129 11.9358 129.122 11.9643 129.366 11.965C130.647 11.9689 131.364 11.9371 131.73 11.9375C134.338 11.9404 138.991 11.9902 141.412 11.9945C142.397 11.9962 146.712 11.9731 149.146 11.9773C149.425 11.9777 149.164 12 149.474 11.9965C150.215 11.9881 150.146 11.9427 150.522 11.9441C150.704 11.9449 151.118 11.9705 151.646 11.9731C154.387 11.9863 156.272 11.9664 157.522 11.9677C169.529 11.981 181.774 11.9928 192.987 11.9969C194.238 11.9973 195.788 11.9703 197.675 11.9965C197.734 12.0106 197.792 12.0247 197.85 12.0388C197.916 12.0249 197.982 12.0111 198.048 11.9972C200.186 11.9897 200.994 11.9719 203.177 11.9895C203.365 11.991 203.939 12.0554 204.294 11.9754C206.457 12.0333 205.27 11.975 206.876 11.9696C208.481 11.9642 210.041 11.982 211.598 11.9861C212.451 12.0147 208.871 12.0807 208.637 12.0805C208.261 12.0803 207.871 12.0405 207.509 12.0384C206.437 12.0321 205.4 12.0636 205.159 12.0282C203.774 12.0657 205.499 12.0469 205.325 12.0807C204.401 12.0667 203.476 12.0528 202.551 12.0388C202.079 12.1537 196.969 12.0038 197.324 12.0913C196.917 12.0738 196.511 12.0563 196.104 12.0388C194.322 12.1485 193.273 12.0713 190.895 12.0386C191.067 12.0526 191.238 12.0667 191.41 12.0807C191.361 12.0866 189.262 12.109 190.013 12.0492C187.861 12.128 187.952 11.997 186.023 12.0917C184.877 12.1039 185.566 12.0488 183.515 12.0498C182.3 12.0503 180.791 12.0791 179.433 12.0811C179.12 12.0815 178.984 12.0496 178.706 12.0496C178.427 12.0496 178.291 12.0808 177.954 12.0816C177.258 12.0833 176.355 12.0614 175.92 12.0635C175.53 12.0653 174.972 12.0929 174.032 12.0972C170.749 12.1125 171.74 12.0732 171.222 12.0598C170.665 12.0457 170.264 12.0975 169.153 12.0915C169.042 12.0909 169.33 12.0586 168.968 12.0598C168.676 12.0608 168.529 12.096 167.561 12.1025C167.176 12.1051 161.195 12.1127 160.284 12.1133C158.887 12.1143 155.777 12.0845 154.331 12.0847C153.775 12.0848 153.179 12.1129 152.588 12.1128C150.627 12.1121 147.488 12.1097 145.002 12.1084C142.762 12.1071 138.832 12.0449 137.606 12.101C134.462 12.1083 133.698 12.0603 133.461 12.0597C132.82 12.0579 132.524 12.0897 131.716 12.0912C121.251 12.1096 107.47 12.0886 97.5592 12.0912C86.3958 12.0941 75.2029 12.0998 64 12.1033L64.2296 12.1765C59.0634 8.51261 53.895 4.84634 48.7278 1.17901L48.6227 1.10552L48.5 1.1064C42.9612 1.10622 37.4226 1.10487 31.8866 1.10177C31.8248 1.11587 31.763 1.12997 31.7012 1.14407C34.428 1.15316 37.6327 1.17765 40.3246 1.18325C42.7158 1.18817 45.8761 1.16382 48.5 1.17536L48.6012 1.17464L48.6879 1.23525C49.7608 2.00377 50.7177 2.70115 51.4185 3.23802C50.5418 2.62617 49.1427 1.588 49.1395 1.64648C50.696 2.75545 52.2525 3.86442 53.8091 4.97338C53.7758 4.92173 53.7426 4.87007 53.7093 4.81841C55.3405 5.96783 57.002 7.1531 58.6369 8.30931C58.9208 8.51017 58.732 8.35066 58.979 8.52588C59.2555 8.72195 59.0559 8.60623 59.1075 8.64311C59.8059 9.13899 60.0291 9.27118 60.1142 9.33192C60.3324 9.4878 60.1506 9.38374 60.7777 9.83583C61.9412 10.6746 62.81 11.2248 62.4831 11.1033C62.8607 11.3713 63.2383 11.6393 63.6158 11.9072C63.7278 11.9566 63.8398 12.006 63.9517 12.0553C64.0319 12.1165 64.1107 12.1763 64.1882 12.2348L64 12.1748C66.6446 12.2525 67.9202 12.0955 69.4384 12.2285C69.9573 12.2074 70.4763 12.1864 70.9952 12.1653C71.2877 12.1898 71.5803 12.2144 71.8728 12.2389C71.9298 12.2179 71.9868 12.1968 72.0438 12.1757C74.8399 12.1913 77.8171 12.166 80.4914 12.1684C82.3542 12.1701 82.8005 12.1784 84.4506 12.1768C88.121 12.1733 84.4761 12.215 87.526 12.2602C87.3672 12.2343 87.2084 12.2085 87.0497 12.1827C87.5547 12.1732 88.0598 12.1638 88.5649 12.1543C88.9166 12.1754 89.2682 12.1964 89.6199 12.2175C91.1798 12.1083 92.1903 12.1964 92.4027 12.1964C92.5743 12.1962 93.1636 12.1305 95.0097 12.1862C94.2442 12.0963 96.418 12.1857 96.5921 12.1862C96.7576 12.1865 98.874 12.1665 99.733 12.1673C100.409 12.168 101.85 12.1873 102.856 12.1864C103.745 12.1855 103.655 12.155 103.719 12.1547C104.813 12.1522 104.128 12.1759 104.918 12.177C105.709 12.1782 106.322 12.1522 106.493 12.1545C106.579 12.1557 106.292 12.1842 106.685 12.1869C107.74 12.1944 109.648 12.1695 110.856 12.1703C111.285 12.1705 111.824 12.1946 112.301 12.1953C113.032 12.1964 113.374 12.1644 113.799 12.1653C113.947 12.1657 114.89 12.2152 116.062 12.2076C116.285 12.2061 116.941 12.1014 117.811 12.2497C117.878 12.2288 117.945 12.208 118.012 12.1871C121.944 12.1354 123.038 12.305 124.786 12.1545C127.641 12.1713 125.681 12.2299 125.995 12.2389C126.197 12.2446 127.128 12.2285 127.23 12.2294C127.412 12.2312 127.38 12.25 127.579 12.2499C131.218 12.2464 129.602 12.2109 130.755 12.1884C133.496 12.1348 135.634 12.2538 130.867 12.218C130.867 12.2285 130.867 12.239 130.867 12.2495C132.041 12.2395 135.02 12.2443 134.025 12.2975C133.242 12.3395 126.173 12.3121 130.176 12.3709C131.085 12.3842 131.556 12.3448 133.13 12.4187C134.171 12.4227 134.321 12.327 135.731 12.3654C135.499 12.3321 135.267 12.2987 135.035 12.2653C136.958 12.2218 139.329 12.2801 140.806 12.2614C141.307 12.2551 143.115 12.0959 142.693 12.255C143.537 12.2451 147.51 12.2744 148.248 12.2602C148.426 12.2567 148.657 12.172 151.226 12.2016C151.404 12.2122 151.583 12.2228 151.761 12.2334C149.411 12.2643 153.561 12.2957 152.434 12.3761C152.051 12.3399 150.188 12.3179 149.888 12.2997C149.376 12.2684 150.901 12.2281 148.958 12.2391C147.733 12.3735 151.235 12.3116 150.7 12.4392C153.251 12.3797 153.506 12.4365 154.084 12.4389C156.553 12.4485 158.106 12.435 160.436 12.4498C161.003 12.4236 156.786 12.3858 156.264 12.3971C158.186 12.3042 154.878 12.3 153.481 12.3552C153.364 12.3271 153.247 12.299 153.129 12.271C154.947 12.2862 156.72 12.294 158.521 12.271C158.638 12.2815 158.755 12.292 158.873 12.3025C158.469 12.3183 158.065 12.3341 157.661 12.3499C159.158 12.3758 158.26 12.2939 160.255 12.3656C160.317 12.334 160.379 12.3024 160.441 12.2708C162.353 12.2813 164.266 12.2918 166.179 12.3023C167.175 12.2389 170.855 12.2625 170.181 12.3446C171.667 12.3504 169.833 12.3067 171.225 12.2867C171.831 12.278 173.015 12.2756 173.308 12.2977C173.182 12.3759 171.41 12.3856 170.873 12.4392C171.199 12.4565 179.44 12.4007 178.706 12.4921C179.364 12.5031 179.061 12.456 180.248 12.444C183.574 12.4104 188.725 12.5035 191.403 12.3867C188.259 12.3217 187.329 12.3905 184.919 12.3933C183.379 12.3951 173.994 12.4061 176.091 12.3235C175.746 12.334 175.401 12.3445 175.056 12.355C174.708 12.3304 174.36 12.3058 174.011 12.2812C174.993 12.2777 175.975 12.2741 176.957 12.2706C177.191 12.2951 177.426 12.3197 177.66 12.3442C177.768 12.3267 177.877 12.3092 177.985 12.2916C178.398 12.2882 178.812 12.2847 179.225 12.2812C179.109 12.3023 178.993 12.3233 178.877 12.3444C179.514 12.348 180.151 12.3516 180.788 12.3552C180.617 12.327 180.445 12.2989 180.274 12.2708C183.275 12.2637 182.258 12.2813 183.923 12.3339C185.165 12.3393 183.066 12.2852 185.695 12.2715C188.753 12.2556 186.747 12.3415 190.706 12.3231C190.763 12.3091 190.82 12.2951 190.877 12.281C191.748 12.2951 192.619 12.3091 193.489 12.3231C193.374 12.3057 193.259 12.2882 193.144 12.2708C194.941 12.2775 197.417 12.2442 198.013 12.3127C196.191 12.2797 196.209 12.3993 196.683 12.4213C197.661 12.4664 212.103 12.4244 214.903 12.4215C218.483 12.4177 221.189 12.456 224.458 12.3971C222.243 12.3488 214.45 12.3884 212.974 12.355C212.828 12.3517 212.869 12.2421 211.928 12.3654C208.899 12.3445 205.278 12.3795 201.492 12.3759C201.608 12.3443 201.724 12.3128 201.839 12.2812C204.166 12.3483 206.319 12.2009 206.016 12.3235C206.479 12.3235 206.942 12.3235 207.405 12.3235C207.405 12.3024 207.405 12.2813 207.405 12.2602C208.103 12.2602 208.801 12.2602 209.499 12.2602C209.499 12.2813 209.499 12.3024 209.499 12.3235C210.077 12.3235 210.655 12.3235 211.233 12.3235C211.293 12.3025 211.354 12.2814 211.414 12.2603C213.145 12.3041 219.046 12.1871 216.452 12.3129C217.265 12.3129 218.078 12.3129 218.891 12.3129C218.888 12.2974 218.886 12.282 218.883 12.2666C219.233 12.2645 219.582 12.2624 219.932 12.2603C219.817 12.2743 219.702 12.2883 219.586 12.3023C221.188 12.2772 222.707 12.3508 223.758 12.3025C223.065 12.2919 222.371 12.2813 221.677 12.2708C223.008 12.2908 225.459 12.2493 225.678 12.2492C226.347 12.249 226.699 12.2802 227.423 12.2818C228.077 12.2831 227.987 12.2591 228.109 12.26C231.636 12.2844 230.292 12.4142 231.939 12.2605C232.114 12.2815 232.29 12.3025 232.465 12.3235C232.698 12.306 232.932 12.2885 233.165 12.271C234.207 12.2726 235.248 12.2743 236.29 12.2759C235.942 12.2497 235.595 12.2234 235.248 12.1972C236.809 12.1855 237.537 12.2381 237.688 12.2393C238.116 12.2423 238.312 12.2093 238.444 12.2093C244.807 12.2121 240.942 12.2412 244.122 12.3653C245.256 12.3166 244.109 12.2678 243.948 12.2182C245.455 12.2415 245.926 12.2277 247.517 12.2305C247.931 12.2312 248.376 12.258 248.638 12.2583C248.864 12.2586 249.571 12.2302 250.114 12.2301C251.02 12.2299 252.225 12.2468 253.465 12.2464C254.496 12.246 257.651 12.2259 259.852 12.2257C260.791 12.2257 260.573 12.2495 260.816 12.2495C260.917 12.2495 261.649 12.2211 262.251 12.221C267.165 12.2203 272.201 12.2383 277.139 12.2378C280.618 12.2375 284.153 12.2146 287.639 12.2169C288.38 12.2175 287.988 12.2384 288.312 12.2391C288.423 12.2393 288.557 12.2028 289.704 12.2175C290.118 12.2228 289.642 12.2483 290.049 12.2495C290.247 12.2501 290.332 12.2182 291.491 12.2109C293.598 12.1976 294.73 12.2402 294.918 12.2389C295.272 12.2365 295.169 12.21 295.639 12.2091C297.937 12.2044 299.855 12.1999 301.906 12.1977C302.864 12.1967 309.467 12.1913 309.829 12.1961C310.641 12.2066 309.886 12.2619 310.926 12.26C311.217 12.246 311.509 12.232 311.8 12.218C311.337 12.2074 310.874 12.1968 310.411 12.1862C311.686 12.2039 313.131 12.1788 314.075 12.1798C314.249 12.18 315.854 12.205 316.672 12.2023C316.324 12.2127 315.976 12.223 315.628 12.2334C315.751 12.2423 315.875 12.2511 315.998 12.26C317.634 12.2466 319.365 12.2469 321.044 12.2488C321.649 12.2494 321.445 12.271 322.057 12.2717C325.626 12.2762 324.725 12.1868 328.158 12.3546C326.999 12.3394 322.77 12.3608 322.155 12.3552C321.726 12.3513 320.065 12.2095 320.675 12.355C317.248 12.3544 320.224 12.2741 317.024 12.2916C317.088 12.3094 317.152 12.3272 317.216 12.3449C316.098 12.3561 315.273 12.3651 314.594 12.3338C314.367 12.4199 310.57 12.3695 308.488 12.3753C305.48 12.3836 302.08 12.4046 299.099 12.4083C298.072 12.4095 297.491 12.3758 297.362 12.3759C297.174 12.3761 296.644 12.4057 296.268 12.4059C294.865 12.4067 290.595 12.3567 289.533 12.4389C297.884 12.4389 306.235 12.4389 314.586 12.4389C313.536 12.3985 321.984 12.3946 322.412 12.3966C322.809 12.3984 322.475 12.4267 322.593 12.4284C323.47 12.4406 324.219 12.3995 324.498 12.3995C324.71 12.3995 325.139 12.4188 325.895 12.4184C326.034 12.4183 326.072 12.3979 326.221 12.3978C327.207 12.3978 328.18 12.3981 329.169 12.398C329.229 12.3982 329.478 12.428 329.728 12.4281C329.978 12.4281 330.226 12.3983 330.289 12.3982C331.08 12.3984 332.435 12.4178 333.187 12.418C333.448 12.418 333.267 12.3962 333.559 12.3964C334.458 12.3969 334.162 12.4396 335.273 12.4286C335.645 12.4249 335.621 12.3923 336.334 12.3966C336.839 12.3996 336.785 12.4578 336.865 12.4599C336.975 12.4625 338.718 12.4165 339.288 12.4546C338.043 12.5551 340.651 12.4599 340.525 12.4174C341.216 12.4281 341.906 12.4388 342.597 12.4495C342.832 12.4387 343.068 12.428 343.303 12.4173C345.137 12.4491 346.501 12.4474 348 12.4468L347.969 12.4566C348.604 12.0059 349.268 11.5342 350.035 10.9964C350.143 10.9204 352.04 9.60335 351.961 9.67816C350.849 10.4993 349.725 11.2985 348.976 11.7712C348.556 12.1102 348.284 12.3178 348.01 12.5139L348.005 12.5171L348 12.5171C347.425 12.5196 346.868 12.4935 345.386 12.5011C344.599 12.5052 344.543 12.5301 344.453 12.5304C341.392 12.5428 336.489 12.5535 334.427 12.4808C333.849 12.5004 335.927 12.5082 335.119 12.5227C334.679 12.5306 324.073 12.5539 327.461 12.4702C327.11 12.4725 326.758 12.4748 326.406 12.4771C326.055 12.5562 324.306 12.5381 324.504 12.4594C324.339 12.4755 324.173 12.4916 324.007 12.5077C323.68 12.5213 323.293 12.5286 322.749 12.533C320.669 12.5495 308.293 12.522 307.635 12.5333C307.62 12.552 307.605 12.5707 307.59 12.5894C313.058 12.6105 318.362 12.5641 324.324 12.6176C324.151 12.6 323.977 12.5825 323.804 12.565C326.183 12.5896 328.562 12.6141 330.941 12.6386C328.423 12.6703 324.418 12.6969 321.774 12.6708C321.305 12.6662 321.649 12.6418 321.541 12.6388C321.259 12.6311 320.956 12.6735 319.943 12.6776C318.929 12.6817 316.383 12.6517 316.15 12.6525C315.7 12.6543 314.486 12.7028 313.72 12.7022C312.714 12.7013 313.388 12.6713 313.186 12.6707C312.35 12.6677 311.601 12.6826 310.947 12.6804C309.975 12.6771 307.956 12.6243 307.277 12.7018C307.971 12.7053 308.665 12.7089 309.359 12.7124C305.595 12.7402 302.652 12.6411 298.943 12.7175C298.1 12.8114 301.164 12.7987 298.573 12.8387C299.044 12.8374 299.514 12.8361 299.985 12.8347C300.095 12.8151 300.205 12.7954 300.316 12.7758C301.126 12.7898 301.936 12.8038 302.747 12.8179C302.516 12.8004 302.284 12.7828 302.053 12.7653C304.926 12.7521 307.827 12.7342 308.83 12.8283C308.89 12.8055 308.949 12.7828 309.008 12.76C311.675 12.7877 315.68 12.6912 314.932 12.8179C315.058 12.8112 315.184 12.8044 315.31 12.7977C316.923 12.8236 316.234 12.7712 316.84 12.7653C317.013 12.7637 320.147 12.7907 318.758 12.8283C321.816 12.8571 320.873 12.7387 321.715 12.7335C323.672 12.7921 327.193 12.7041 325.713 12.7968C326.004 12.8003 326.296 12.8038 326.587 12.8073C327.545 12.7343 328.489 12.8168 329.527 12.8444C329.878 12.8461 330.23 12.8477 330.582 12.8494C330.817 12.8248 331.053 12.8003 331.288 12.7758C334.596 12.8925 333.549 12.5732 335.06 12.8415C334.825 12.8575 334.589 12.8736 334.354 12.8897C333.795 12.8973 333.237 12.9049 332.679 12.9125C334.931 12.9196 337.183 12.9267 339.435 12.9338C342.294 13.009 343.92 12.9274 347.096 12.9869C347.394 12.9797 347.691 12.9726 347.988 12.9655C347.725 13.0183 346.818 13.0184 348 13.0355L348.167 13.0367L348.31 12.9367C348.456 12.8364 348.64 12.7093 348.87 12.5503C348.959 12.5139 348.693 12.7182 348.336 12.9738L348.181 13.0823L348 13.081C347.583 13.0831 347.073 13.0762 346.751 13.0601C346.592 13.0521 347.948 13.0192 346.423 13.018C345.387 13.0172 347.269 13.0688 344.163 13.0497C344.278 13.0602 344.393 13.0707 344.508 13.0812C344.172 13.0809 343.835 13.0806 343.498 13.0803C343.199 13.056 342.899 13.0317 342.6 13.0074C341.83 13.0425 341.398 13.0916 339.64 13.0812C340.117 13.066 339.47 13.0172 338.599 13.018C338.599 13.0356 338.599 13.0532 338.599 13.0707C336.492 13.082 337.22 13.0305 335.468 13.0707C335.293 13.0568 335.117 13.0428 334.942 13.0288C333.988 13.0864 330.475 13.1256 331.115 13.0392C330.13 13.1232 328.06 13.0853 327.29 13.0182C327.231 13.0356 327.172 13.0531 327.113 13.0706C326.703 13.0741 326.294 13.0776 325.884 13.0812C325.655 13.0706 325.427 13.0601 325.198 13.0495C324.908 13.0601 324.617 13.0706 324.327 13.0812C324.152 13.0637 323.976 13.0461 323.801 13.0286C323.334 13.0496 322.868 13.0706 322.401 13.0916C322.115 13.0776 321.83 13.0637 321.544 13.0497C321.515 13.0862 318.685 13.0944 317.895 13.0704C317.659 13.081 317.424 13.0916 317.188 13.1022C317.073 13.0848 316.958 13.0674 316.843 13.05C316.668 13.064 316.493 13.0779 316.317 13.0918C315.913 13.0779 315.51 13.064 315.106 13.05C313.459 13.1353 313.406 13.0605 313.029 13.061C312.332 13.062 309.958 13.1154 309.561 13.1127C309.164 13.1099 308.973 13.0793 308.653 13.0764C303.377 13.0283 305.546 13.1105 304.488 13.1235C303.916 13.1305 303.512 13.102 303.007 13.1052C302.144 13.1104 297.787 13.1482 297.536 13.1445C297.171 13.1392 298.03 13.0045 296.844 13.0392C296.805 13.1115 294.267 13.0386 295.453 13.1394C294.409 13.1305 293.364 13.1217 292.319 13.1129C292.437 13.1986 291.149 13.1434 289.745 13.1482C287.757 13.1549 283.279 13.2112 283.443 13.1233C282.967 13.1435 282.49 13.1637 282.014 13.1839C278.755 13.1562 275.558 13.1852 272.323 13.1863C262.721 13.1895 252.305 13.1705 242.749 13.1531C242.29 13.1523 242.356 13.1236 242.025 13.1229C240.287 13.1198 235.77 13.1401 233.336 13.1337C232.556 13.1317 232.177 13.1037 231.929 13.1024C231.09 13.0979 231.288 13.1348 230.902 13.1337C230.292 13.132 227.067 13.0978 225.956 13.0942C225.406 13.0924 224.755 13.1217 224.112 13.1127C224.056 13.1119 224.158 13.0817 224.112 13.0812C222.938 13.0775 223.644 13.1036 223.247 13.1022C220.416 13.0924 217.39 13.0918 214.318 13.0856C213.555 13.084 212.388 13.0627 211.733 13.0607C211.484 13.06 211.932 13.0829 211.069 13.081C210.773 13.0803 210.672 13.0505 210.338 13.0486C208.9 13.0404 208.419 13.1363 207.183 13.0592C204.797 13.0643 200.645 13.0889 198.468 13.0894C197.953 13.0895 197.703 13.0719 197.212 13.0722C196.864 13.0724 196.251 13.0997 195.708 13.1C195.165 13.1004 194.307 13.0744 193.262 13.0753C192.162 13.0763 190.795 13.0917 190.547 13.0916C190.247 13.0916 190.108 13.0588 189.808 13.0592C188.903 13.0603 186.478 13.0925 185.312 13.096C184.058 13.0997 183.306 13.0838 182.877 13.0841C182.481 13.0845 182.018 13.1122 181.837 13.1125C181.555 13.1129 181.488 13.0805 181.13 13.0808C180.545 13.0813 179.942 13.1017 179.065 13.1022C163.269 13.1123 147.781 13.0945 132.412 13.0709C130.699 13.0683 129.731 13.091 127.206 13.0806C126.183 13.0764 126.614 13.043 125.817 13.0493C125.462 13.0522 125.552 13.0784 125.103 13.0797C123.118 13.0852 120.805 13.0608 119.945 13.0612C119.604 13.0613 119.214 13.0912 118.514 13.0916C113.301 13.095 107.133 13.0866 101.523 13.0918C98.5526 13.0945 94.0555 13.1097 90.6461 13.1118C81.7685 13.117 72.2569 13.1112 64 13.113L63.8002 13.1116L63.6452 12.9999C63.2338 12.7081 62.8262 12.419 62.4228 12.1329C57.6545 8.75129 52.8938 5.3809 48.1378 2.01033L48.5 2.12578C41.3934 2.13036 34.2924 2.13061 27.1809 2.11267C33.2369 2.18484 41.4835 2.17882 48.2256 2.18664C48.317 2.18674 48.4085 2.18685 48.5 2.18695L48.1024 2.06021C53.1789 5.67138 58.3634 9.35126 63.5996 13.0642L63.7745 13.1902L64 13.1918C77.5644 13.1864 91.4027 13.1676 104.886 13.1687C111.83 13.1692 120.586 13.1676 128.188 13.1843C128.533 13.185 129.247 13.1621 129.992 13.1645C130.151 13.1651 132.114 13.2069 132.775 13.2073C132.148 13.1329 134.74 13.1992 135.541 13.1974C136.551 13.1951 138.657 13.1579 141.022 13.1789C143.167 13.198 142.575 13.2266 142.693 13.2284C143.452 13.24 143.717 13.1939 144.298 13.1892C146.673 13.1706 158.89 13.1974 162.3 13.1991C163.181 13.1995 163.206 13.2288 163.404 13.2289C163.93 13.2291 164.678 13.2002 165.52 13.2004C167.039 13.2008 168.788 13.2285 169.623 13.2286C171.622 13.2289 175.416 13.1962 178.013 13.1956C178.744 13.1954 178.699 13.2259 179.03 13.2258C180.486 13.2253 184.278 13.1893 186.085 13.189C189.021 13.1885 192.041 13.2082 195.025 13.1982C195.214 13.2118 195.404 13.2254 195.593 13.239C195.891 13.2247 196.189 13.2104 196.488 13.1962C201.534 13.207 206.671 13.1764 211.689 13.1784C212.267 13.1786 215.129 13.2047 215.606 13.2048C216.003 13.2048 216.394 13.1711 216.983 13.176C217.807 13.1829 217.031 13.2471 218.378 13.2288C218.74 13.2238 218.389 13.1963 219.117 13.1877C219.357 13.1849 224.021 13.1738 224.271 13.1757C224.689 13.1789 225.062 13.2377 225.17 13.239C225.73 13.2457 225.706 13.2005 226.082 13.1963C227.192 13.184 228.642 13.2144 228.822 13.2137C231.002 13.2054 235.078 13.1693 237.366 13.1907C237.682 13.1936 237.644 13.2273 237.7 13.2284C238.058 13.2354 238.281 13.197 238.622 13.1962C240.457 13.1918 243.331 13.2176 245.177 13.2242C245.39 13.2249 245.838 13.2065 246.218 13.2082C248.363 13.2186 247.667 13.2482 247.789 13.2494C248.078 13.2526 248.586 13.22 249.355 13.2179C251.337 13.2126 255.137 13.2172 257.261 13.2198C258.852 13.2218 258.828 13.2591 258.933 13.2599C259.156 13.2612 259.776 13.2314 260.824 13.228C262.84 13.2214 262.61 13.2507 263.439 13.2494C263.509 13.2494 263.387 13.2207 264.307 13.2178C266.083 13.2121 270.073 13.2403 271.974 13.2388C272.706 13.2383 272.877 13.2106 273.625 13.2101C274.812 13.2091 277.492 13.2391 277.703 13.239C277.762 13.239 277.895 13.2071 278.243 13.2071C278.626 13.2072 279.003 13.2235 279.289 13.2234C280.915 13.223 283.716 13.1674 282.938 13.2811C283.459 13.253 283.98 13.225 284.501 13.1969C287.907 13.2025 291.216 13.1912 294.59 13.1855C295.349 13.1843 295.983 13.2058 296.623 13.2048C297.264 13.2037 300.09 13.1681 300.562 13.1674C301.405 13.1663 306.194 13.1625 306.789 13.165C307.952 13.1699 309.081 13.2169 309.554 13.2077C309.934 13.2003 309.583 13.1738 310.307 13.1663C311.561 13.1533 313.692 13.1874 314.075 13.1868C314.238 13.1866 313.932 13.166 315.464 13.1645C316.289 13.1636 316.732 13.1864 317.032 13.1863C317.125 13.1862 316.985 13.1493 318.619 13.1542C319.747 13.1577 320.229 13.1862 320.347 13.1863C320.525 13.1865 320.954 13.1561 321.667 13.1572C323.335 13.1598 326.385 13.1946 327.97 13.1973C328.276 13.1978 328.172 13.1611 329.394 13.1645C330.268 13.1669 330.115 13.1961 330.442 13.1973C330.961 13.1991 331.734 13.1633 332.88 13.1645C334.322 13.166 345.027 13.203 345.581 13.2126C345.954 13.2191 346.386 13.2195 346.57 13.2353C346.412 13.2505 346.254 13.2657 346.096 13.2809C344.456 13.2276 345.118 13.2886 344.683 13.2925C344.052 13.2981 341.677 13.2903 341.102 13.3038C340.897 13.3087 341.366 13.3411 340.266 13.3578C339.086 13.3757 338.561 13.3179 338.091 13.3968C336.416 13.3092 334.807 13.4022 336.747 13.427C337.58 13.4377 344.068 13.4587 348 13.47L348.302 13.4722L348.561 13.2911C349.522 12.6138 350.295 12.0679 350.703 11.78C352.139 10.7653 354.812 8.83973 356.579 7.59314C357.618 6.86042 360.173 5.05192 360.089 5.16273C361.013 4.51402 360.015 5.17105 360.204 5.02925C360.601 4.73276 363.49 2.71811 364.033 2.33148C364.045 2.32244 364.058 2.31339 364.071 2.30433L363.5 2.48629C366.78 2.48044 370.904 2.43423 374.083 2.48692C373.934 2.49815 373.785 2.50938 373.637 2.52061C372.919 2.54122 369.59 2.51176 369.214 2.56566C374.083 2.56566 378.951 2.56566 383.82 2.56566C383.73 2.51979 389.768 2.52041 390.054 2.54112C389.948 2.56334 389.842 2.58555 389.736 2.60777C386.323 2.52346 386.629 2.6349 384.338 2.57573C383.405 2.57489 383.687 2.6116 383.227 2.61857C378.652 2.68788 383.154 2.54325 379.651 2.57609C380.706 2.62934 377.837 2.64879 376.552 2.65556C376.26 2.65704 372.418 2.64354 371.961 2.64439C369.723 2.64854 366.082 2.67132 363.5 2.65759L364.17 2.44402C363.863 2.6591 363.575 2.86067 363.31 3.04425C361.672 4.20226 360.793 4.87221 359.313 5.93334C358.19 6.73877 358.497 6.48771 357.967 6.86404C356.853 7.65351 356.534 7.9797 355.755 8.39329C355.009 8.9404 354.262 9.48752 353.515 10.0346C353.505 10.0203 353.495 10.006 353.485 9.99163C353.011 10.328 352.537 10.6645 352.063 11.0009C351.933 11.1142 351.804 11.2274 351.675 11.3407C350.156 12.3888 350.76 11.9086 350.45 12.0675C350.123 12.2953 349.796 12.5232 349.469 12.7511C349.24 12.9608 349.01 13.1705 348.781 13.3802C348.746 13.4047 348.711 13.4292 348.677 13.4537L348.364 13.672L348 13.6694C346.263 13.6664 344.526 13.6634 342.789 13.6603C342.674 13.6428 342.558 13.6253 342.443 13.6078C342.44 13.6253 342.436 13.6428 342.432 13.6603C339.419 13.6639 336.405 13.6675 333.392 13.6711C332.59 13.6992 337.418 13.7205 337.784 13.7222C339.818 13.7315 345.219 13.7033 345.226 13.7658C345.794 13.7449 346.875 13.7357 348 13.7369L348.385 13.7397L348.716 13.5087C349.843 12.7111 351.033 11.8872 351.583 11.5348C350.636 12.2045 349.688 12.8742 348.741 13.544L348.399 13.783L348 13.7802C347.363 13.779 346.726 13.7778 346.089 13.7766C346.147 13.7975 346.205 13.8185 346.264 13.8394C344.024 13.755 343.697 13.7596 341.395 13.8394C341.393 13.8113 341.391 13.7832 341.388 13.7552C339.783 13.8528 336.946 13.6872 336.865 13.8077C336.01 13.7979 335.156 13.7882 334.301 13.7784C332.456 13.7931 335.321 13.8858 328.096 13.8495C327.598 13.8469 327.702 13.8162 326.953 13.8183C326.737 13.819 325.501 13.8636 323.136 13.859C322.767 13.8582 322.739 13.8316 322.356 13.8282C321.472 13.8202 319.71 13.8729 320.51 13.787C317.007 13.762 318.459 13.8324 317.372 13.8604C316.648 13.879 316.794 13.8282 316.167 13.8398C315.392 13.854 315.961 13.9052 312.855 13.8817C313.204 13.8782 313.552 13.8747 313.901 13.8713C313.725 13.8573 313.55 13.8434 313.375 13.8295C311.602 13.8629 311.77 13.8141 310.934 13.8923C309.645 13.8574 308.531 13.8547 306.768 13.861C303.345 13.8734 305.1 13.9576 301.193 13.8442C300.56 13.8601 299.927 13.876 299.294 13.8919C298.254 13.8584 299.095 13.8165 297.542 13.8081C298.758 13.8908 295.481 13.8607 294.927 13.9344C294.869 13.9168 294.811 13.8993 294.753 13.8817C294.406 13.8817 294.06 13.8817 293.713 13.8817C293.712 13.8958 293.711 13.9099 293.709 13.924C293.248 13.9134 292.786 13.9029 292.324 13.8923C291.976 13.9063 291.629 13.9203 291.281 13.9342C290.71 13.9048 290.139 13.8753 289.568 13.8458C289.209 13.8438 288.851 13.8418 288.492 13.8398C288.606 13.8608 288.719 13.8817 288.833 13.9027C288.372 13.8957 287.911 13.8887 287.45 13.8817C287.986 13.9161 287.649 13.9565 286.215 13.9555C285.031 13.9546 286.364 13.8827 283.819 13.9126C283.641 13.9148 283.327 13.966 280.921 13.974C278.035 13.9835 279.437 13.9463 278.923 13.945C278.822 13.9448 277.94 13.9706 277.115 13.9743C276.646 13.9764 276.195 13.9556 276.133 13.9557C275.844 13.9566 275.76 13.9861 275.36 13.9872C274.343 13.9897 272.978 13.9752 271.982 13.9767C271.53 13.9773 271.104 13.9948 270.902 13.995C270.588 13.9952 270.191 13.9686 269.874 13.9687C268.704 13.9692 266.928 14.0577 266.385 13.9348C265.26 14.0478 262.904 13.9112 263.076 13.987C260.07 13.9584 252.053 14.0514 252.288 13.924C250.586 14.0329 250.738 13.954 250.025 13.9557C249.227 13.9575 249.641 13.9786 249.007 13.9776C247.527 13.9754 246.113 13.9663 244.64 13.9659C244.871 13.9485 245.102 13.931 245.334 13.9135C243.787 13.9079 244.32 13.9486 242.743 13.9564C239.842 13.9707 241.064 13.9382 240.636 13.8925C240.751 13.9367 237.33 13.9298 236.982 13.924C236.774 13.9204 237.684 13.8635 235.59 13.8819C235.704 13.8994 235.819 13.9169 235.933 13.9344C234.979 13.9105 232.387 13.9409 231.947 13.935C231.745 13.9322 230.665 13.791 229.676 13.9027C229.556 13.8852 229.437 13.8677 229.318 13.8502C228.219 13.8713 227.121 13.8923 226.023 13.9134C225.848 13.8818 225.673 13.8503 225.497 13.8187C225.149 13.8187 224.8 13.8187 224.452 13.8187C224.683 13.8467 224.914 13.8747 225.146 13.9027C222.994 13.8901 220.365 13.9342 219.922 13.8398C219.461 13.8573 219 13.8748 218.54 13.8923C218.24 13.8609 217.94 13.8294 217.64 13.798C215.506 13.8059 215.47 13.827 214.011 13.8604C214.068 13.8359 214.125 13.8114 214.182 13.7868C213.106 13.8213 211.142 13.8534 209.588 13.8577C208.85 13.8597 207.582 13.8259 207.408 13.829C207.232 13.8322 205.501 13.965 205.313 13.85C202.763 13.9009 201.641 13.8489 200.607 13.8502C199.935 13.851 199.629 13.8787 198.869 13.8815C197.783 13.8856 196.69 13.8723 196.063 13.8742C195.704 13.8753 195.637 13.9023 195.39 13.9031C194.221 13.9072 194.906 13.8797 193.673 13.8815C193.559 13.8818 192.658 13.9147 191.643 13.9104C191.075 13.9081 189.607 13.8712 189.477 13.8713C188.903 13.8719 189.362 13.9457 187.398 13.8604C187.455 13.8745 187.512 13.8885 187.569 13.9026C185.138 13.9382 184.754 13.8756 184.263 13.8713C184.201 13.8709 183.609 13.8951 183.255 13.8918C182.656 13.8861 182.415 13.8529 182.283 13.8515C181.816 13.8464 180.244 13.861 179.217 13.829C179.433 13.9232 175.833 13.9567 175.036 13.85C174.398 13.8711 173.761 13.8921 173.124 13.9132C172.836 13.8956 172.547 13.878 172.259 13.8604C172.084 13.878 171.909 13.8955 171.733 13.913C170.805 13.8744 169.876 13.8359 168.947 13.7973C168.888 13.8359 168.829 13.8745 168.77 13.9132C168.51 13.9088 168.25 13.9044 167.99 13.9C167.787 13.8693 167.584 13.8386 167.381 13.8079C167.056 13.8138 166.731 13.8196 166.406 13.8255C166.325 13.8477 166.245 13.8699 166.164 13.8921C164.417 13.9177 165.315 13.7058 161.986 13.8921C161.468 13.8746 160.95 13.8571 160.433 13.8396C159.848 13.9248 158.752 13.8732 157.867 13.8828C157.244 13.8895 157.278 13.9234 156.429 13.9242C155.579 13.9249 155.609 13.8925 155.543 13.8923C154.85 13.8903 154.328 13.9189 153.82 13.9132C153.743 13.9123 153.552 13.8739 152.904 13.8714C152.256 13.869 151.866 13.9099 150.901 13.9022C150.407 13.8983 150.264 13.8659 149.826 13.863C147.736 13.8491 145.632 14.0132 144.065 13.8185C143.712 13.8432 141.149 13.9295 140.053 13.9245C138.347 13.9166 139.005 13.8784 138.327 13.8714C138.229 13.8704 137.71 13.8833 136.279 13.881C136.023 13.8805 136.082 13.9021 136.046 13.9024C134.378 13.902 131.139 13.8849 129.307 13.8819C129.143 13.8816 128.286 13.9416 126.834 13.8608C124.682 13.9205 120.628 13.7922 117.79 13.8822C117.397 13.8841 116.919 13.8626 116.745 13.8634C115.244 13.87 115.794 13.9353 112.402 13.8398C112.677 13.873 111.883 13.9031 110.762 13.9005C109.076 13.8967 110.274 13.8347 108.919 13.8398C108.919 13.8573 108.919 13.8748 108.919 13.8923C105.803 13.8452 105.183 13.9201 102.056 13.9205C100.931 13.9206 99.2691 13.8818 99.0009 13.8817C98.8972 13.8818 97.667 13.924 97.5496 13.9243C96.8879 13.9256 96.5143 13.9061 95.9432 13.906C94.0558 13.9056 91.8035 13.9606 92.2109 13.8608C91.692 13.8819 91.173 13.9029 90.6541 13.924C88.6934 13.8175 87.2272 13.9643 86.8163 13.8608C86.4657 13.8822 86.1151 13.9035 85.7645 13.9249C78.5097 13.9156 71.2548 13.9063 64 13.8969L63.5447 13.8937L63.1915 13.6392C62.251 12.9699 61.3104 12.3006 60.3699 11.6313C60.078 11.465 57.0943 9.33302 56.9439 9.21996C56.2534 8.7011 57.0392 9.16975 55.5926 8.16348C55.4151 8.07655 55.2377 7.98962 55.0603 7.9027C53.2481 6.62937 54.1352 7.22008 53.4348 6.69661C53.1347 6.48842 53.2166 6.57682 52.8124 6.29216C51.5704 5.41758 49.5929 4.01761 47.6768 2.65994L48.5 2.92235C46.7028 2.92368 44.9493 2.92439 43.6781 2.92526C43.0868 2.92569 43.176 2.90262 42.9924 2.90256C42.4875 2.90277 41.4912 2.93184 40.4781 2.93186C34.2132 2.93164 25.3359 2.91525 19.0291 2.89084C18.6007 2.88915 18.5477 2.86164 18.2586 2.86026C17.858 2.85848 16.9632 2.88072 16.5419 2.87839C16.145 2.87628 15.8909 2.85538 15.4662 2.85294C13.523 2.84153 10.9103 2.87683 8.83121 2.81522C8.65636 2.81002 6.47808 2.69926 6.4288 2.692C6.13975 2.64888 8.07547 2.58114 4.89593 2.51805C7.73766 2.46299 6.84992 2.36566 3.15845 2.31811C5.00994 2.30584 6.86144 2.29357 8.71292 2.2813C8.71559 2.26977 8.71825 2.25823 8.72092 2.2467C7.03548 2.18953 5.36329 2.1705 2.80041 2.16522C2.88033 2.15454 2.96025 2.14386 3.04017 2.13317C5.3038 2.07981 8.03445 2.06994 9.75828 1.99713C7.23013 1.94324 4.70198 1.88935 2.17384 1.83545C2.30011 1.82703 2.42638 1.81861 2.55266 1.81019C3.76457 1.78831 6.41177 1.77547 7.41821 1.75507C11.2621 1.6773 4.05397 1.69687 5.23798 1.64942C9.29634 1.65113 13.3547 1.65284 17.4131 1.65455C17.5554 1.61961 1.94268 1.5231 2.10351 1.41762C3.37904 1.41054 4.65457 1.40346 5.9301 1.39638C5.3616 1.36959 4.79309 1.34279 4.22459 1.316C4.38124 1.30752 4.53788 1.29903 4.69453 1.29055C6.84652 1.26974 8.99851 1.24892 11.1505 1.22811C4.60769 1.24903 1.56719 1.23385 0 1.02286C0.177423 1.01749 0.354847 1.01211 0.53227 1.00674C1.94965 1.13874 8.6402 1.09604 12.1959 1.06973C11.4712 1.03107 8.34038 1.06094 7.67875 1.03769C7.49127 1.03102 8.14508 1.00419 7.71072 0.990448C6.57546 0.95473 1.73774 0.908774 2.44077 0.865025C2.8935 0.836914 10.6775 0.798347 12.1959 0.801306C8.6368 0.750793 4.96971 0.73618 1.40021 0.674784C3.65331 0.589186 5.64875 0.484433 9.76148 0.479783C11.0151 0.434869 2.30869 0.372651 2.1067 0.348134C3.61347 0.321828 5.12023 0.295523 6.627 0.269218C5.35254 0.276237 4.07807 0.283255 2.80361 0.290274C2.79988 0.281486 2.79615 0.272697 2.79242 0.263908C6.09385 0.223116 9.11423 0.148243 12.8928 0.153316C12.7709 0.106817 10.51 0.111442 9.41303 0.111019ZM363.976 2.75571C364.006 2.7711 363.804 2.77934 363.5 2.78364L364.243 2.54682C363.874 2.81681 363.312 3.21251 362.929 3.48338C363.029 3.42127 363.129 3.35915 363.228 3.29704C361.867 4.2545 359.331 6.03583 359.28 6.16337C358.317 6.8582 358.708 6.50126 358.391 6.71685C358.268 6.80111 357.025 7.72902 355.988 8.40895C355.748 8.57963 355.507 8.7503 355.267 8.92097C355.235 8.97397 355.203 9.02697 355.17 9.07998C354.818 9.29343 354.466 9.50689 354.114 9.72034C357.485 7.32173 360.856 4.92312 364.227 2.52451L363.5 2.75629C363.656 2.7561 363.813 2.75591 363.969 2.75571C363.972 2.75571 363.974 2.75571 363.976 2.75571ZM324.682 13.7874C323.118 13.7735 320.723 13.7517 321.207 13.8189C322.195 13.8153 323.183 13.8118 324.17 13.8083C324.341 13.8013 324.511 13.7943 324.682 13.7874ZM169.13 13.7345C167.824 13.6683 166.621 13.7255 164.601 13.7136C164.604 13.7276 164.607 13.7416 164.609 13.7555C165.435 13.722 167.619 13.7443 169.13 13.7345ZM402.776 2.50285C403.063 2.50804 403.351 2.51323 403.639 2.51842C402.469 2.59355 402.259 2.5406 400.936 2.5479C400.856 2.54835 400.884 2.56555 400.856 2.56566C400.532 2.56682 400.233 2.54611 399.94 2.54643C399.376 2.54707 398.916 2.56804 397.916 2.5673C397.144 2.56666 397.136 2.53368 396.865 2.53453C396.633 2.53534 394.34 2.62607 392.864 2.5869C390.057 2.51229 401.919 2.49588 402.776 2.50285ZM411.095 2.56492C410.818 2.56523 410.54 2.56553 410.263 2.56584C411.097 2.51515 409.413 2.52285 408.177 2.52391C408.215 2.4753 410.83 2.49609 412 2.48161C411.698 2.50938 411.397 2.53715 411.095 2.56492ZM375.991 2.46074C377.077 2.45579 376.896 2.51646 376.851 2.53453C376.505 2.53453 376.159 2.53453 375.814 2.53453C375.873 2.50993 375.932 2.48534 375.991 2.46074ZM384.161 2.43968C383.823 2.4809 381.465 2.49892 380.347 2.5023C380.298 2.50231 380.605 2.47969 379.814 2.4818C379.577 2.48246 377.242 2.56476 377.756 2.47136C379.89 2.4608 382.023 2.45024 384.157 2.43968C384.158 2.43968 384.159 2.43968 384.161 2.43968ZM386.542 2.46404C386.098 2.47697 385.653 2.48991 385.209 2.50285C384.979 2.48351 384.75 2.46416 384.52 2.44481C385.026 2.43993 385.531 2.43504 386.037 2.43016C386.205 2.44145 386.374 2.45274 386.542 2.46404ZM56.7274 8.45354C56.7997 8.53024 56.872 8.60693 56.9443 8.68363C57.2636 8.92575 58.9035 9.97909 58.4109 9.60813C57.8497 9.22327 57.2886 8.83841 56.7274 8.45354ZM50.0472 3.65957C49.723 3.41671 49.3988 3.17384 49.0747 2.93098C48.7033 2.70737 48.3319 2.48377 47.9605 2.26016L48.5 2.43213C48.4666 2.43465 48.4332 2.43717 48.3998 2.43968C48.4332 2.44007 48.4666 2.44047 48.5 2.44086L47.9555 2.26728C49.5673 3.43978 51.2463 4.66159 51.0268 4.38102C51.4044 4.64899 51.7819 4.91695 52.1595 5.18491C51.8168 4.99415 51.8514 5.036 52.8239 5.75947C53.0745 5.86429 54.0788 6.61419 55.256 7.43358C54.4072 6.82698 53.5585 6.22038 52.7097 5.61378C52.7158 5.60522 52.7219 5.59666 52.728 5.5881C54.6221 6.93695 52.3038 5.21003 51.0443 4.3674C50.955 4.28693 50.8658 4.20646 50.7766 4.12599C50.5334 3.97052 50.2903 3.81504 50.0472 3.65957ZM215.582 13.387C215.294 13.3764 215.006 13.3658 214.718 13.3553C213.601 13.4928 215.875 13.3623 217.494 13.4712C216.959 13.3885 219.428 13.392 219.569 13.3864C219.285 13.3586 219.001 13.3307 218.717 13.3029C217.672 13.3309 216.627 13.3589 215.582 13.387ZM207.411 13.2921C208.411 13.3607 203.501 13.3649 201.854 13.3498C201.453 13.3461 200.739 13.3084 200.45 13.3132C200.275 13.3271 200.1 13.341 199.924 13.3549C199.717 13.3068 196.5 13.3609 195.233 13.3868C195.114 13.3693 194.994 13.3517 194.875 13.3342C194.413 13.3412 193.951 13.3481 193.489 13.3551C193.547 13.3376 193.605 13.3202 193.663 13.3027C193.314 13.3237 192.964 13.3447 192.615 13.3657C191.243 13.3891 192.089 13.2939 191.058 13.3236C189.912 13.3566 191.79 13.4132 191.755 13.4501C192.685 13.4406 194.799 13.4193 195.743 13.4183C196.285 13.4177 195.671 13.4838 198.006 13.4078C198.518 13.4255 199.03 13.4432 199.542 13.4609C200.482 13.4328 201.422 13.4047 202.362 13.3765C202.537 13.401 202.713 13.4255 202.888 13.4499C202.988 13.4538 205.162 13.3982 205.046 13.3798C205.926 13.4266 207.734 13.4349 209.638 13.4373C209.821 13.424 210.005 13.4107 210.188 13.3974C208.346 13.4261 209.602 13.3833 209.053 13.3578C208.736 13.3431 207.767 13.3143 207.411 13.2921ZM68.5577 13.3555C65.4653 13.4152 67.3799 13.3659 64.0374 13.3659C64.2707 13.3975 64.5041 13.4291 64.7375 13.4607C66.3809 13.403 69.085 13.4414 68.5609 13.3555C68.5598 13.3555 68.5587 13.3555 68.5577 13.3555ZM39.356 2.46056C41.1248 2.44143 40.2372 2.39226 42.4793 2.37651C42.4804 2.37651 42.4814 2.37651 42.4825 2.37651C41.3231 2.37297 40.1637 2.36943 39.0044 2.36589C39.1216 2.39745 39.2388 2.429 39.356 2.46056ZM139.252 13.4223C140.948 13.436 140.614 13.4114 142.153 13.4606C144.445 13.401 142.505 13.4094 142.505 13.3553C141.981 13.3711 141.457 13.387 140.934 13.4029C139.664 13.3523 140.868 13.3268 140.868 13.3219C140.867 13.3219 140.866 13.3219 140.865 13.3219C140.865 13.3057 140.906 13.3023 140.419 13.2925C140.03 13.3357 139.641 13.379 139.252 13.4223ZM146.51 13.3555C145.929 13.3914 145.667 13.4375 147.196 13.4606C147.197 13.4606 147.198 13.4606 147.199 13.4606C147.322 13.3803 148.788 13.4451 149.456 13.4397C149.632 13.431 149.807 13.4222 149.982 13.4135C148.825 13.3942 147.668 13.3748 146.51 13.3555ZM172.085 13.2817C172.091 13.3704 170.808 13.3788 172.614 13.4606C172.965 13.459 173.315 13.4574 173.666 13.4558C173.896 13.4363 174.126 13.4169 174.356 13.3974C178.803 13.5579 180.129 13.2846 172.614 13.3868C172.613 13.3868 172.612 13.3869 172.611 13.387C172.436 13.3519 172.26 13.3168 172.085 13.2817ZM164.253 13.2892C164.196 13.3357 164.14 13.3823 164.083 13.4289C163.101 13.3165 161.833 13.4237 159.907 13.3445C159.732 13.3586 159.558 13.3728 159.384 13.387C158.664 13.3558 151.595 13.3468 153.126 13.4184C153.795 13.4497 155.251 13.4072 155.377 13.4082C155.802 13.4117 156.356 13.4517 157.073 13.4494C157.487 13.448 158.361 13.401 159.207 13.401C161.098 13.4013 164.549 13.5275 167.036 13.408C167.215 13.422 167.394 13.4361 167.573 13.4501C169.418 13.4416 168.802 13.3971 170.519 13.4501C171.705 13.2289 163.617 13.461 165.301 13.2817C165.3 13.2817 165.299 13.2817 165.298 13.2817C164.95 13.2842 164.601 13.2867 164.253 13.2892ZM113.451 13.3555C113.339 13.3157 111.199 13.377 111.702 13.2819C111.003 13.315 110.305 13.3481 109.606 13.3813C109.612 13.3901 109.617 13.399 109.622 13.4078C110.317 13.4009 111.011 13.3939 111.705 13.387C111.708 13.401 111.71 13.415 111.713 13.4291C112.748 13.3783 117.065 13.4004 116.933 13.4501C117.164 13.4291 117.395 13.4081 117.626 13.3871C119.691 13.4443 121.467 13.3835 123.717 13.4393C123.891 13.4219 124.066 13.4045 124.24 13.3871C124.353 13.4012 124.467 13.4152 124.58 13.4292C125.4 13.431 126.219 13.4328 127.039 13.4346C129.709 13.378 124.52 13.3049 123.891 13.3132C123.808 13.3143 123.821 13.3507 123.298 13.3564C122.371 13.3664 117.177 13.3302 115.572 13.3542C115.558 13.3301 115.544 13.306 115.53 13.2819C114.837 13.3064 114.144 13.3309 113.451 13.3555ZM182.008 13.3765C182.125 13.401 182.242 13.4256 182.36 13.4501C184.382 13.4256 185.656 13.447 185.138 13.3659C185.137 13.3659 185.135 13.3659 185.134 13.3659C184.092 13.3694 183.05 13.373 182.008 13.3765ZM332.343 13.3974C332.29 13.3486 331.323 13.3304 330.073 13.3653C330.134 13.3795 330.194 13.3937 330.254 13.4078C330.905 13.3663 331.718 13.4387 333.727 13.4291C333.727 13.4045 333.727 13.38 333.727 13.3555C333.266 13.3694 332.804 13.3834 332.343 13.3974ZM180.262 13.3659C179.646 13.337 177.915 13.4247 179.054 13.4291C179.925 13.4323 180.593 13.3814 180.262 13.3659ZM32.3981 2.41313C32.8553 2.41826 33.3124 2.42339 33.7696 2.42851C34.0077 2.40764 34.2459 2.38677 34.4841 2.36589C34.483 2.36589 34.4819 2.36589 34.4809 2.36589C33.7866 2.38164 33.0924 2.39739 32.3981 2.41313ZM133.455 13.4263C135.005 13.4233 136.556 13.4202 138.106 13.4172C138.121 13.4036 138.137 13.3899 138.152 13.3763C136.599 13.426 135.975 13.3725 135.612 13.3692C135.614 13.3692 135.616 13.3692 135.617 13.3692C134.454 13.3584 133.346 13.3505 132.246 13.3342C132.649 13.3649 133.052 13.3956 133.455 13.4263ZM128.14 13.3404C128.401 13.4366 128.742 13.4478 131.124 13.3802C131.03 13.3683 130.936 13.3565 130.841 13.3447C129.607 13.3517 128.887 13.3739 129.104 13.3238C128.782 13.3293 128.461 13.3349 128.14 13.3404ZM152.42 13.3712C152.134 13.3406 149.865 13.3713 149.989 13.3868C150.037 13.3929 152.977 13.4312 152.42 13.3712ZM349.784 12.3082C349.354 12.6046 348.925 12.901 348.495 13.1974L348.266 13.357L348 13.3551C347.999 13.3551 347.998 13.3551 347.998 13.3551C347.998 13.3551 347.999 13.3551 348 13.3551L348.266 13.357L348.495 13.1973C349.055 12.7868 349.616 12.3763 350.176 11.9658C350.045 12.08 349.915 12.1941 349.784 12.3082ZM354.384 8.87569C354.695 8.67005 353.758 9.44167 355.587 8.1705C354.266 9.11032 352.945 10.0502 351.624 10.99C352.236 10.5386 352.848 10.0871 353.46 9.6357C353.337 9.69223 353.215 9.74875 353.092 9.80527C353.523 9.49541 353.954 9.18555 354.384 8.87569ZM355.841 7.91995C355.091 8.37166 358.837 5.70688 359.191 5.46554C359.27 5.41188 359.669 5.19002 359.811 5.10202C359.245 5.50386 358.679 5.9057 358.113 6.30754C358.311 6.18589 358.51 6.06424 358.708 5.94258C358.049 6.41721 357.389 6.89184 356.73 7.36646C357.004 7.15257 357.278 6.93868 357.552 6.72479C356.982 7.12317 356.411 7.52156 355.841 7.91995ZM338.599 13.3187C339.18 13.3203 339.762 13.3219 340.343 13.3236C340.227 13.2991 340.111 13.2745 339.995 13.25C339.647 13.25 339.299 13.25 338.951 13.25C338.834 13.2729 338.716 13.2958 338.599 13.3187ZM350.448 11.7277C349.826 12.3138 347.796 13.4379 350.049 11.9559C350.277 11.8067 350.507 11.672 350.448 11.7277ZM360.604 4.4798C362.028 3.36353 361.806 3.75467 360.382 4.69684C360.31 4.74407 360.497 4.56351 360.604 4.4798ZM372.965 2.25146C373.112 2.2521 373.368 2.31367 374.765 2.25512C374.996 2.26214 375.226 2.26916 375.457 2.27618C374.917 2.30478 370.299 2.3218 370.937 2.26079C371.644 2.25984 372.234 2.24955 372.965 2.25146ZM368.493 2.02368C367.8 2.02539 367.107 2.0271 366.413 2.02881C366.642 2.04809 366.871 2.06738 367.099 2.08667C366.758 2.09192 366.417 2.09716 366.076 2.10241C365.493 2.06915 364.91 2.03589 364.327 2.00262C365.834 1.99731 367.341 1.992 368.848 1.98669C368.729 1.99902 368.611 2.01135 368.493 2.02368ZM352.818 9.66467C353.919 8.91248 355.237 7.9457 357.006 6.69542C357.007 6.69486 357.008 6.69429 357.009 6.69372C357.097 6.63142 357.269 6.54218 357.553 6.34177C357.795 6.17092 362.549 2.76144 362.203 3.06209C360.38 4.40493 359.655 4.84439 359.27 5.24024C359.168 5.2869 359.066 5.33356 358.964 5.38022C357.168 6.61017 356.703 7.02905 355.722 7.75829C355.717 7.74258 355.711 7.72686 355.706 7.71114C355.04 8.18225 354.373 8.65336 353.706 9.12447C353.806 9.06638 353.906 9.00829 354.006 8.95019C353.771 9.11732 353.535 9.28445 353.3 9.45158C352.699 9.82033 351.965 10.3276 352.818 9.66467ZM371.637 2.04986C372.278 1.9295 378.522 2.01194 381.374 1.98669C379.877 2.05917 377.557 2.00922 375.924 2.00848C372.767 2.00712 374.949 2.05147 374.413 2.07092C374.149 2.08054 372.358 2.00337 371.637 2.04986ZM348.857 12.5015C350.146 11.5984 350.849 11.0658 351.985 10.3137C351.897 10.3869 351.809 10.4601 351.721 10.5332C351.336 10.7966 348.221 12.9763 348.857 12.5015ZM385.554 2.01819C382.514 1.97497 384.014 2.08395 382.433 2.00226C383.473 1.99707 384.514 1.99188 385.554 1.98669C385.554 1.99719 385.554 2.00769 385.554 2.01819ZM176.783 12.9131C175.501 12.9103 174.071 12.8884 173.305 12.9338C174.175 12.9408 175.046 12.9478 175.916 12.9548C176.205 12.9409 176.494 12.927 176.783 12.9131ZM213.319 12.4694C213.027 12.4586 211.87 12.4907 211.748 12.4907C211.521 12.4907 211.583 12.4749 211.58 12.4707C210.098 12.4736 211.465 12.5227 210.368 12.5333C210.181 12.5351 207.604 12.5108 206.556 12.5128C204.944 12.5159 203.334 12.5127 202.731 12.5136C201.714 12.5149 199.826 12.5518 198.155 12.5537C197.466 12.5544 197.225 12.5249 196.533 12.5256C192.085 12.5306 183.331 12.5711 179.385 12.5524C178.41 12.5477 177.48 12.5091 176.965 12.5123C176.558 12.5264 176.152 12.5405 175.745 12.5546C174.495 12.4277 174.077 12.5405 172.729 12.5524C171.873 12.5599 171.473 12.5223 171.358 12.5224C170.595 12.5231 170.219 12.541 169.62 12.544C168.948 12.5472 167.982 12.5303 167.742 12.5333C167.595 12.5354 168.066 12.5854 165.458 12.5844C162.8 12.5834 160.177 12.5782 157.474 12.5758C158.375 12.7267 159.152 12.6234 160.255 12.6179C160.551 12.6165 160.363 12.6404 160.621 12.6394C161.349 12.6365 162.742 12.613 163.345 12.6187C163.995 12.6248 163.773 12.6803 164.598 12.6599C164.64 12.6588 164.508 12.6359 164.702 12.632C166.652 12.5941 167.29 12.634 169.756 12.6351C171.39 12.636 181.311 12.6132 181.651 12.6282C183.428 12.7085 172.973 12.709 171.751 12.7027C171.323 12.7005 171.772 12.6752 171.382 12.6703C171.216 12.6684 169.73 12.7166 168.262 12.7207C166.486 12.7255 162.916 12.6926 161.224 12.6937C146.674 12.7038 132.326 12.6746 117.79 12.674C117.48 12.674 117.072 12.7029 116.062 12.7029C98.991 12.7024 81.3562 12.6837 64 12.6903L63.938 12.6898L63.8899 12.6552C62.417 11.6107 60.9464 10.5683 59.4789 9.52836C56.0835 7.12236 52.702 4.75594 49.2896 2.30777C48.9788 2.10561 48.668 1.90345 48.3572 1.70129L48.5 1.74683C48.3494 1.75294 48.1988 1.75904 48.0482 1.76514C48.1879 1.76338 48.3398 1.76233 48.5 1.76186L48.3485 1.71355C49.4669 2.50235 51.0578 3.67841 51.2198 3.79416C51.285 3.84068 51.7109 4.11373 52.3746 4.58631C53.308 5.25078 53.7059 5.55844 53.7825 5.61285C54.0201 5.78157 53.8771 5.65315 54.1041 5.81433C55.7962 7.01634 57.1094 7.94068 58.663 9.04298C60.418 10.2882 61.2838 10.9528 62.5877 11.8231C62.7223 11.9401 62.8568 12.057 62.9914 12.174C63.1565 12.2758 63.4495 12.4712 63.834 12.7339L63.9065 12.7861L64 12.7868C66.3512 12.7448 71.5982 12.7512 73.9555 12.7545C74.8465 12.7558 74.6902 12.7866 74.9897 12.7866C75.1808 12.7865 75.1054 12.7462 77.4368 12.7542C78.6104 12.7582 78.9182 12.7875 79.5068 12.7866C79.8265 12.786 79.7746 12.7569 80.234 12.7569C82.8911 12.7569 85.0606 12.7663 87.6618 12.7717C88.3932 12.7732 88.4013 12.7975 88.5649 12.7972C89.1675 12.7961 90.2157 12.755 91.7474 12.7551C94.2687 12.7553 99.2937 12.7554 101.355 12.7754C101.658 12.7784 101.909 12.8075 102.132 12.8071C102.47 12.8063 102.602 12.7759 102.661 12.7758C103.79 12.7752 103.111 12.8035 103.867 12.7966C104.274 12.7929 104.699 12.7583 105.646 12.7543C106.896 12.7492 106.65 12.7903 107.172 12.7862C107.227 12.7856 107.244 12.7569 107.757 12.756C109.704 12.7526 112.528 12.746 114.37 12.7461C114.899 12.7461 115.292 12.7654 116.03 12.7657C117.517 12.7663 125.97 12.754 126.663 12.7651C126.736 12.7663 125.985 12.8085 127.182 12.8073C127.53 12.7897 127.878 12.7721 128.226 12.7545C128.808 12.7827 129.39 12.8108 129.972 12.8389C129.951 12.7417 133.374 12.7267 133.34 12.8261C133.714 12.8301 134.089 12.8342 134.463 12.8382C135.243 12.7695 135.763 12.7949 137.27 12.7545C137.505 12.7756 137.74 12.7966 137.975 12.8177C138.034 12.8037 138.093 12.7896 138.152 12.7756C138.957 12.8517 140.276 12.7753 140.436 12.7748C141.053 12.7732 141.516 12.7925 141.805 12.7919C142.884 12.7899 145.221 12.7632 146.482 12.7756C146.541 12.7762 146.483 12.8087 146.841 12.8127C147.488 12.82 147.551 12.7724 148.414 12.8283C148.588 12.8143 148.763 12.8002 148.937 12.7862C149.122 12.7935 149.307 12.8007 149.491 12.808C150.583 12.8043 151.674 12.8005 152.765 12.7968C151.773 12.8519 152.915 12.8826 153.994 12.8393C154.36 12.8246 154.035 12.7911 154.157 12.786C154.324 12.7791 159.222 12.7962 159.545 12.8179C159.777 12.8073 160.009 12.7968 160.241 12.7862C160.358 12.8073 160.475 12.8284 160.592 12.8496C160.72 12.8422 160.848 12.8348 160.976 12.8274C162.25 12.8646 165.558 12.7793 166.158 12.786C166.478 12.7896 166.19 12.8796 167.726 12.8704C167.779 12.8457 167.833 12.821 167.886 12.7963C168.238 12.7927 168.589 12.7892 168.941 12.7857C169.601 12.7879 170.561 12.8307 170.592 12.86C170.798 12.8424 171.004 12.8248 171.211 12.8073C171.764 12.8645 174.717 12.8442 175.905 12.808C176.253 12.8253 176.6 12.8425 176.947 12.8598C177.414 12.8388 177.881 12.8178 178.348 12.7968C179.429 12.7905 178.287 12.8254 178.517 12.8283C179.005 12.8343 181.489 12.7754 181.325 12.8488C181.664 12.849 182.003 12.8492 182.342 12.8494C182.516 12.8284 182.69 12.8074 182.865 12.7864C183.446 12.8588 184.453 12.8332 186.517 12.8596C186.69 12.843 186.863 12.8263 187.036 12.8096C187.675 12.8333 188.313 12.857 188.951 12.8807C189.082 12.8531 189.214 12.8255 189.345 12.7979C189.622 12.794 189.9 12.79 190.177 12.786C190.741 12.8478 191.754 12.781 192.27 12.8065C193.022 12.8437 192.44 12.888 191.044 12.8966C191.148 12.9416 195.308 12.921 196.267 12.9177C196.204 12.9089 196.141 12.9001 196.077 12.8913C195.096 12.8983 194.115 12.9052 193.134 12.9122C192.313 12.799 194.976 12.8293 196.199 12.8148C196.31 12.8134 196.944 12.7705 198.176 12.7745C198.653 12.7761 200.514 12.8387 200.869 12.8422C203.738 12.8708 201.628 12.7813 204.435 12.8598C203.85 12.7997 205.463 12.8496 207.141 12.838C207.427 12.836 209.85 12.7873 210.014 12.786C211.034 12.7782 209.923 12.8313 211.399 12.8175C211.577 12.8035 211.754 12.7896 211.932 12.7756C212.275 12.7756 212.619 12.7756 212.963 12.7756C215.048 12.9001 215.533 12.8084 216.275 12.7966C216.574 12.7919 216.188 12.8244 216.965 12.8175C217.258 12.815 217.582 12.7879 218.368 12.786C220.83 12.7801 221.666 12.8958 223.929 12.7754C224.277 12.7929 224.624 12.8103 224.972 12.8278C225.206 12.8068 225.44 12.7859 225.675 12.765C227.468 12.8257 226.82 12.7635 227.468 12.7642C229.178 12.7661 232.678 12.778 232.984 12.8281C234.461 12.7131 236.226 12.8429 236.808 12.8384C237.154 12.8244 237.499 12.8104 237.845 12.7965C238.252 12.8105 238.658 12.8245 239.065 12.8386C238.867 12.7256 240.972 12.8367 241.175 12.8384C241.408 12.8401 244.646 12.8066 245.852 12.8073C247.055 12.8079 249.153 12.8385 249.338 12.8386C249.55 12.8386 251.599 12.8079 253.201 12.8082C254.603 12.8085 262.907 12.8521 262.384 12.8018C261.841 12.7878 261.067 12.7757 260.399 12.7692C258.323 12.7491 246.14 12.7234 243.027 12.7153C236.783 12.6994 230.271 12.7023 224 12.6914C223.631 12.6907 223.575 12.6614 223.258 12.6608C222.777 12.6599 221.558 12.6892 221.084 12.6886C219.315 12.6861 217.163 12.6813 216.215 12.6806C214.098 12.6791 212.646 12.6614 211.045 12.6586C210.543 12.6577 208.008 12.694 206.27 12.6787C205.955 12.6705 205.64 12.6622 205.325 12.654C206.22 12.6444 208.569 12.6195 209.659 12.6166C211.281 12.6125 212.127 12.6363 212.726 12.6359C213.227 12.6356 215.79 12.6085 216.957 12.6079C217.319 12.6076 217.394 12.6384 217.704 12.6383C219.386 12.6375 221.601 12.6367 223.06 12.6066C222.464 12.6164 226.183 12.6352 226.378 12.6351C226.712 12.6351 227.075 12.6064 227.758 12.6064C229.07 12.6064 228.904 12.6665 230.544 12.6064C230.95 12.6239 231.356 12.6414 231.762 12.6589C231.786 12.5789 236.917 12.6878 238.376 12.5905C238.414 12.5795 231.748 12.5483 231.197 12.5467C227.896 12.5371 223.011 12.5567 219.807 12.5427C218.843 12.5385 215.811 12.4898 215.582 12.4907C215.214 12.4921 215.547 12.5199 215.387 12.5209C212.125 12.5416 213.753 12.4856 213.319 12.4694ZM355.618 7.61241C354.808 8.18327 353.998 8.75412 353.188 9.32498C353.237 9.26902 353.285 9.21306 353.334 9.15709C353.708 8.89994 354.082 8.6428 354.456 8.38565C354.735 8.17512 355.013 7.96458 355.292 7.75405C355.401 7.70683 355.51 7.65962 355.618 7.61241ZM357.568 6.13887C358.263 5.63428 358.319 5.64021 358.482 5.5269C358.968 5.18882 359.377 4.88031 359.845 4.54826C359.357 5.00302 358.184 5.78578 357.568 6.13887ZM341.734 12.8181C341.927 12.8223 343.221 12.9171 344.692 12.8289C345.793 12.8569 346.894 12.8849 347.995 12.9129C346.124 12.8701 343.537 12.9146 342.621 12.9129C342.273 12.9123 342.207 12.8832 341.929 12.8827C340.327 12.8804 338.769 12.9463 338.606 12.8499C340.12 12.8779 341.486 12.8129 341.734 12.8181ZM350.977 10.8191C351.198 10.6872 351.419 10.5553 351.639 10.4234C350.884 10.9593 350.129 11.4952 349.374 12.0312C349.566 11.8696 349.759 11.708 349.951 11.5465C350.293 11.304 350.635 11.0615 350.977 10.8191ZM280.161 12.7857C280.732 12.7859 281.304 12.7861 281.875 12.7864C281.844 12.7717 281.19 12.7718 280.949 12.7618C280.95 12.7618 280.952 12.7618 280.953 12.7618C280.684 12.7506 280.799 12.7317 280.312 12.7234C280.261 12.7441 280.211 12.7649 280.161 12.7857ZM47.356 1.70216C46.3987 1.7011 37.5575 1.70099 38.3107 1.75452C38.6902 1.78126 41.7141 1.75795 42.6056 1.75837C43.8074 1.75891 47.0531 1.8168 47.356 1.70216ZM31.698 1.69172C31.5449 1.74507 37.0703 1.75355 37.6105 1.74427C37.4958 1.73666 37.319 1.71973 37.1662 1.71589C36.421 1.6975 32.8892 1.7063 31.698 1.69172ZM248.176 12.6317C248.621 12.6586 249.066 12.6856 249.512 12.7126C249.395 12.6775 249.277 12.6424 249.16 12.6073C248.832 12.6154 248.504 12.6235 248.176 12.6317ZM204.967 12.6703C197.547 12.6686 190.127 12.6669 182.706 12.6652C183.359 12.6506 184.012 12.636 184.664 12.6214C191.058 12.6266 197.877 12.6414 204.052 12.6188C204.357 12.636 204.662 12.6531 204.967 12.6703ZM339.643 12.66C337.742 12.6595 336.154 12.6853 334.085 12.6443C336.056 12.6046 337.032 12.666 338.948 12.6075C338.949 12.6075 338.95 12.6075 338.951 12.6075C339.182 12.625 339.412 12.6425 339.643 12.66ZM297.196 12.6494C297.774 12.6249 298.352 12.6004 298.93 12.5758C298.235 12.5758 297.539 12.5758 296.844 12.5758C296.961 12.6004 297.078 12.6249 297.196 12.6494ZM140.241 12.5339C138.253 12.5874 133.166 12.4905 131.549 12.5549C131.445 12.5592 132.406 12.5864 130.852 12.639C132.026 12.6282 132.854 12.6172 132.942 12.5758C133.29 12.5899 133.638 12.6039 133.987 12.6179C134.565 12.6073 135.143 12.5967 135.721 12.5861C135.658 12.6273 135.704 12.6251 136.592 12.5969C136.997 12.6073 137.402 12.6177 137.807 12.6282C137.979 12.6107 138.15 12.5933 138.322 12.5758C138.672 12.6002 139.023 12.6246 139.374 12.6491C140.74 12.6226 139.908 12.5753 140.241 12.5339ZM147.203 12.544C146.879 12.5349 137.659 12.5645 141.849 12.6467C142.939 12.6441 144.028 12.6414 145.117 12.6388C144.215 12.5027 147.183 12.6244 147.426 12.6273C148.593 12.6406 150.079 12.6082 150.925 12.6099C151.653 12.6114 152.085 12.6358 152.597 12.6351C154.341 12.633 157.095 12.6321 157.474 12.5758C156.119 12.5746 154.742 12.574 153.332 12.5755C151.842 12.5769 150.532 12.5238 147.732 12.5967C147.039 12.5889 147.286 12.5463 147.203 12.544ZM300.671 12.5815C300.601 12.6381 304.12 12.6245 304.142 12.6022C304.149 12.5891 303.003 12.5894 302.84 12.5844C302.839 12.5844 302.837 12.5844 302.836 12.5844C302.768 12.5823 303.114 12.5606 302.576 12.5546C301.941 12.5636 301.306 12.5725 300.671 12.5815ZM58.7374 8.85803C58.3679 8.55685 49.4998 2.27735 49.23 2.1045C49.1566 2.05764 49.2475 2.13916 49.2148 2.12586C51.3081 3.55647 54.2163 5.68537 56.1766 7.08086C56.7231 7.46984 56.5726 7.33548 56.6039 7.35712C56.6052 7.35804 56.6065 7.35897 56.6078 7.35989C56.9182 7.58013 58.2878 8.61946 58.7374 8.85803ZM128.07 12.5808C128.532 12.5896 128.993 12.5985 129.455 12.6073C129.573 12.5898 129.69 12.5723 129.807 12.5548C129.806 12.5548 129.805 12.5548 129.804 12.5548C129.226 12.5634 128.648 12.5721 128.07 12.5808ZM112.065 12.5231C112.177 12.5354 112.29 12.5477 112.402 12.5601C113.565 12.5618 114.728 12.5635 115.891 12.5652C115.774 12.5722 115.657 12.5791 115.54 12.5861C117.298 12.6047 118.027 12.5613 118.963 12.5676C118.962 12.5676 118.961 12.5676 118.96 12.5676C119.061 12.5683 119.183 12.594 119.558 12.5949C120.418 12.5969 122.882 12.6064 123.18 12.5806C123.81 12.5254 118.851 12.5516 117.926 12.5491C117.508 12.5479 117.005 12.5254 116.751 12.5249C116.473 12.5244 116.093 12.5548 115.415 12.5538C115.217 12.5535 113.016 12.5178 112.065 12.5231ZM91.5348 12.5599C91.8935 12.5877 92.6423 12.5608 92.9174 12.5654C92.9831 12.5665 92.472 12.5897 93.0916 12.5967C93.2669 12.5808 93.4422 12.565 93.6175 12.5491C92.9233 12.5527 92.229 12.5563 91.5348 12.5599ZM306.583 12.5548C306.482 12.5488 304.593 12.551 304.502 12.5548C303.37 12.6055 307.283 12.6 306.583 12.5548ZM353.102 8.87505C352.351 9.31787 360.801 3.40975 361.614 2.82828C361.6 2.89496 359.573 4.27653 360.657 3.58485C359.637 4.26579 356.884 6.24222 356.228 6.6955C355.83 6.97063 355.707 7.0087 355.647 7.04999C355.41 7.21242 353.367 8.71894 353.102 8.87505ZM369.712 1.52309C368.733 1.5143 367.753 1.50551 366.773 1.49672C367.929 1.49147 369.085 1.48622 370.242 1.48097C370.065 1.49501 369.889 1.50905 369.712 1.52309ZM370.945 1.50203C370.914 1.45712 374.239 1.49133 375.114 1.48097C374.128 1.55737 372.484 1.48534 370.945 1.50203ZM319.115 12.4389C317.582 12.4092 316.924 12.5461 318.787 12.4865C318.844 12.4845 319.178 12.4404 319.115 12.4389ZM139.768 12.3413C139.507 12.3404 136.258 12.296 136.07 12.318C135.475 12.3881 137.607 12.36 138.322 12.3865C139.475 12.4294 137.779 12.4648 140.593 12.4389C140.478 12.4529 140.363 12.4669 140.248 12.481C141.895 12.4856 141.356 12.3884 141.651 12.3759C141.742 12.3721 142.771 12.3802 142.957 12.374C145.278 12.2957 140.011 12.3419 139.768 12.3413ZM281.183 12.4284C278.132 12.3872 279.445 12.4477 276.314 12.444C276.21 12.4748 280.786 12.4555 281.183 12.4284ZM169.473 12.3967C166.318 12.4089 163.724 12.3685 160.781 12.4227C160.973 12.5062 170.292 12.4183 169.473 12.3967ZM24.7402 1.31215C32.188 1.40236 40.3294 1.41982 48.5 1.41908L48.5252 1.4189L48.5468 1.43401C52.8662 4.49881 57.2001 7.5645 61.3924 10.5385C62.5541 11.3627 62.6463 11.4687 63.0687 11.7641C63.3453 11.9576 63.3126 11.9017 63.6786 12.1612C63.8032 12.2496 63.9278 12.338 64.0523 12.4263L64 12.4096C80.0525 12.4048 95.4352 12.3707 110.824 12.3865C111.803 12.3876 116.564 12.4448 117.581 12.3585C118.35 12.293 114.93 12.3441 114.36 12.3435C113.932 12.343 113.914 12.3123 113.628 12.3122C113.325 12.312 113.575 12.3331 113.224 12.3334C111.733 12.3349 110.107 12.3267 108.759 12.3285C95.5431 12.3457 82.6855 12.3407 69.5391 12.3378C67.9478 12.3375 68.2749 12.3128 68.1948 12.3127C68.1938 12.3128 68.1927 12.3128 68.1916 12.3129C66.823 12.3125 65.4231 12.3136 64 12.3157L64.1067 12.3497C59.1145 8.81755 53.7619 5.05076 48.5871 1.37731L48.5469 1.34921L48.5 1.34955C47.1166 1.34937 45.7426 1.34792 44.3846 1.34475C38.0208 1.32778 31.657 1.31081 25.2932 1.29384C25.1089 1.29995 24.9245 1.30605 24.7402 1.31215ZM146.506 12.4282C145.712 12.3352 145.534 12.429 142.685 12.3911C142.454 12.4069 142.222 12.4228 141.99 12.4387C143.497 12.4352 145.004 12.4317 146.51 12.4282C146.509 12.4282 146.507 12.4282 146.506 12.4282ZM127.691 12.3944C127.209 12.2688 120.839 12.3575 117.971 12.3336C117.445 12.3967 121.615 12.3683 122.598 12.375C123.089 12.3782 125.719 12.4431 127.718 12.4072C127.709 12.4029 127.7 12.3986 127.691 12.3944ZM343.471 12.3122C343.008 12.3158 342.544 12.3195 342.081 12.3231C343.24 12.3371 344.4 12.351 345.56 12.3649C343.71 12.3559 341.859 12.3469 340.009 12.338C340.354 12.3119 340.698 12.2858 341.043 12.2598C341.852 12.2772 342.662 12.2947 343.471 12.3122ZM337.467 12.3255C340.708 12.3157 337.325 12.3855 336.516 12.3545C336.032 12.3359 337.137 12.3266 337.467 12.3255ZM329.039 12.2807C330.55 12.2349 333.604 12.2318 332.519 12.3231C330.886 12.2803 329.833 12.3159 327.465 12.2913C327.81 12.2738 328.156 12.2562 328.502 12.2387C328.504 12.2387 328.505 12.2387 328.507 12.2387C328.684 12.2527 328.862 12.2667 329.039 12.2807ZM338.948 12.2702C341.07 12.3227 334.925 12.3048 336.857 12.2702C336.947 12.2686 338.864 12.2682 338.948 12.2702ZM38.3107 1.21768C38.055 1.24754 39.6873 1.24698 40.2303 1.24899C42.5843 1.25786 45.6033 1.24487 48.0514 1.24899C47.867 1.23916 47.6827 1.22933 47.4983 1.21951C44.4357 1.2189 41.3732 1.21829 38.3107 1.21768ZM54.5244 5.46782C55.8962 6.4413 57.2679 7.41479 58.6396 8.38828C58.7674 8.47897 59.3819 8.88363 58.9396 8.56211C57.4679 7.53068 55.9962 6.49925 54.5244 5.46782ZM157.124 12.2492C155.834 12.2324 159.548 12.1467 159.381 12.2385C158.628 12.2421 157.876 12.2456 157.124 12.2492ZM169.125 12.2125C168.316 12.2213 167.507 12.23 166.698 12.2387C166.697 12.2282 166.696 12.2176 166.695 12.2071C167.505 12.2089 168.315 12.2107 169.125 12.2125ZM31.698 1.19662C32.5547 1.23275 34.5985 1.22719 35.8731 1.22793C34.9952 1.19688 32.9028 1.21215 31.698 1.19662ZM137.801 12.2122C137.905 12.2368 132.775 12.2306 134.551 12.1873C135.634 12.1956 136.718 12.2039 137.801 12.2122ZM127.381 12.1757C128.481 12.1704 129.333 12.1788 129.107 12.2175C128.524 12.2158 127.94 12.2142 127.357 12.2125C127.365 12.2003 127.373 12.188 127.381 12.1757ZM323.286 12.2071C321.432 12.2105 319.578 12.214 317.724 12.2175C317.793 12.2069 317.861 12.1964 317.93 12.1858C319.718 12.1824 321.505 12.179 323.293 12.1756C323.291 12.1861 323.289 12.1966 323.286 12.2071ZM30.6495 1.10177C29.3761 1.10867 28.1027 1.11557 26.8293 1.12246C28.1038 1.12954 29.3782 1.13662 30.6527 1.1437C30.6527 1.12967 30.6527 1.11563 30.6527 1.10159C30.6516 1.10165 30.6505 1.10171 30.6495 1.10177ZM348.311 11.7521C348.103 11.8975 347.915 12.0279 347.747 12.1441L348 12.0636C345.674 12.0384 346.507 12.014 348 12.0074L347.715 12.0983C348.766 11.3451 350.229 10.3161 350.788 9.95883C350.789 9.95786 350.791 9.95688 350.792 9.95591C350.902 9.8854 350.695 10.0708 350.879 9.95489C350.401 10.2771 349.923 10.5994 349.445 10.9216C349.026 11.2402 348.607 11.5587 348.188 11.8772C348.045 11.9709 347.901 12.0646 347.757 12.1582L348 12.0809C347.998 12.0809 347.996 12.0808 347.995 12.0807C347.996 12.0807 347.998 12.0807 348 12.0806L347.757 12.158C347.942 12.0227 348.127 11.8874 348.311 11.7521ZM368.041 1.04281C373.177 1.04852 367.921 1.12587 365.379 1.06479C365.397 1.05065 367.567 1.04229 368.041 1.04281ZM355.971 6.30292C355.315 6.77704 354.659 7.25116 354.003 7.72528C353.914 7.77788 353.824 7.83049 353.735 7.88309C354.236 7.51638 354.738 7.14967 355.24 6.78295C355.483 6.62294 355.727 6.46293 355.971 6.30292ZM331.47 11.9229C330.168 11.9132 328.507 12.0116 332.688 11.9857C332.686 11.9751 332.684 11.9646 332.682 11.954C332.515 11.9557 332.026 11.9656 331.999 11.9648C331.923 11.9622 332.013 11.9269 331.47 11.9229ZM377.551 0.764686C377.697 0.760668 377.777 0.649293 379.298 0.764503C379.758 0.757484 380.218 0.750465 380.678 0.743446C380.796 0.767982 380.915 0.792517 381.034 0.817053C379.254 0.79803 379.066 0.847672 378.937 0.848729C378.345 0.853374 378.783 0.82784 378.401 0.827489C377.416 0.826644 375.177 0.843789 376.192 0.770911C376.558 0.744809 377.405 0.768702 377.551 0.764686ZM374.071 0.701333C374.287 0.71063 373.592 0.743211 373.755 0.752418C373.898 0.760448 376.042 0.793688 375.462 0.848729C375.11 0.84641 374.758 0.84409 374.405 0.841771C374.286 0.826696 374.167 0.811621 374.047 0.796545C373.706 0.810461 373.365 0.824377 373.024 0.838292C372.45 0.801093 371.227 0.752903 372.679 0.722573C372.145 0.725747 371.611 0.72892 371.078 0.732094C370.801 0.749916 370.525 0.767738 370.248 0.785559C370.393 0.7584 370.538 0.73124 370.683 0.70408C371.812 0.703164 372.942 0.702249 374.071 0.701333ZM390.621 0.71177C390.556 0.725808 390.491 0.739845 390.426 0.753883C392.387 0.727786 395.44 0.717863 393.706 0.805884C391.05 0.813208 388.394 0.820531 385.738 0.827855C385.562 0.817297 385.385 0.806738 385.209 0.796179C387.191 0.83686 386.578 0.66375 388.302 0.713418C388.593 0.721838 387.749 0.782375 389.576 0.74363C389.511 0.729531 389.446 0.715432 389.381 0.701333C389.794 0.704812 390.208 0.708291 390.621 0.71177ZM407.477 0.732827C404.119 0.712536 407.817 0.661308 408.437 0.703897C408.436 0.703897 408.435 0.703897 408.434 0.703897C410.133 0.820437 406.48 0.764129 406.257 0.764869C405.961 0.765901 405.271 0.849333 403.66 0.7277C404.932 0.729409 406.204 0.731118 407.477 0.732827ZM396.516 0.711953C396.798 0.709206 396.642 0.730394 396.764 0.73008C396.765 0.73008 396.766 0.73008 396.767 0.73008C398.564 0.725536 402.838 0.706566 403.301 0.77494C401.971 0.780646 396.019 0.79542 395.659 0.748939C395.945 0.736611 396.231 0.724282 396.516 0.711953ZM383.871 0.762855C382.768 0.718587 385.252 0.712693 385.903 0.733193C386.026 0.737634 385.014 0.808712 383.871 0.762855ZM302.753 11.6486C300.326 11.6752 303.515 11.7018 302.411 11.7434C302.875 11.7399 303.338 11.7364 303.802 11.7328C303.452 11.7048 303.103 11.6767 302.753 11.6486ZM192.089 11.5646C191.523 11.5596 191.791 11.5851 191.742 11.5854C191.371 11.5847 191.02 11.564 190.877 11.5662C188.24 11.608 189.994 11.6294 190.021 11.6343C190.076 11.6595 189.383 11.6889 190.344 11.7176C190.926 11.7087 191.509 11.6998 192.092 11.6909C192.382 11.7049 192.671 11.7189 192.96 11.7328C194.118 11.7028 192.603 11.6946 192.431 11.6548C192.365 11.6392 193.454 11.6205 192.089 11.5646ZM298.404 11.5644C298.01 11.6085 297.046 11.6643 297.993 11.7087C297.994 11.7087 297.995 11.7087 297.996 11.7087C298.172 11.7168 298.885 11.7212 299.104 11.7326C300.667 11.6738 300.068 11.613 298.404 11.5644ZM202.544 11.4855C203.484 11.4958 204.424 11.5061 205.364 11.5164C205.348 11.5429 205.332 11.5694 205.316 11.5959C204.813 11.5887 204.31 11.5816 203.807 11.5744C203.631 11.5865 203.454 11.5986 203.278 11.6107C203.902 11.6409 204.527 11.6711 205.151 11.7013C205.904 11.6908 206.656 11.6802 207.408 11.6697C207.062 11.6557 206.717 11.6417 206.371 11.6277C208.21 11.6123 207.809 11.6767 209.331 11.7013C209.852 11.6768 210.373 11.6523 210.894 11.6277C211.649 11.6524 212.403 11.677 213.158 11.7017C214.425 11.6902 214.537 11.6714 213.684 11.6433C214.314 11.6112 215.004 11.6617 215.763 11.6486C215.826 11.6475 215.708 11.6173 215.763 11.6169C219.688 11.5965 219.479 11.676 220.106 11.6794C220.548 11.6817 222.314 11.6281 222.342 11.6098C222.376 11.5851 218.703 11.488 224.455 11.4855C221.481 11.4183 218.101 11.4867 220.287 11.5852C219.345 11.5753 215.195 11.5999 214.93 11.597C214.545 11.5925 214.68 11.5551 214.197 11.5541C213.911 11.5536 213.154 11.6391 210.894 11.5644C210.606 11.5784 210.317 11.5925 210.028 11.6065C209.757 11.595 209.487 11.5834 209.216 11.5719C209.773 11.5307 210.331 11.4896 210.888 11.4485C208.68 11.4932 206.849 11.4092 205.504 11.48C204.342 11.4717 203.778 11.4636 204.277 11.4274C203.928 11.4274 203.579 11.4274 203.23 11.4274C203.001 11.4468 202.773 11.4661 202.544 11.4855ZM291.272 11.6275C290.117 11.5865 289.701 11.6751 289.881 11.6801C290.894 11.7077 291.873 11.6489 291.272 11.6275ZM194.186 11.6116C195.461 11.6344 196.735 11.6573 198.01 11.6801C198.01 11.6521 198.01 11.6241 198.01 11.5961C196.735 11.6012 195.461 11.6064 194.186 11.6116ZM303.108 11.5856C303.225 11.6066 303.343 11.6276 303.46 11.6486C304.856 11.5719 306.242 11.6819 306.931 11.6592C307.081 11.6543 306.779 11.6172 306.494 11.6092C306.316 11.6043 303.355 11.5785 303.108 11.5856ZM358.259 4.11062C357.843 4.42308 357.427 4.73554 357.011 5.04799C357.021 5.01208 357.031 4.97616 357.04 4.94025C357.247 4.78804 357.454 4.63582 357.661 4.48361C357.86 4.35928 358.06 4.23495 358.259 4.11062ZM353.455 7.56586C352.697 8.10117 351.94 8.63648 351.182 9.17178C354.055 7.10642 351.681 8.77831 353.415 7.50986C353.428 7.52853 353.442 7.54719 353.455 7.56586ZM345.915 11.5854C346.029 11.5713 346.143 11.5572 346.257 11.5431C346.838 11.5431 347.419 11.5431 348 11.5431L347.446 11.7197C347.729 11.519 348.012 11.3184 348.294 11.1178C347.995 11.2948 347.695 11.4719 347.396 11.6489L348 11.4564C347.76 11.4363 347.52 11.4163 347.28 11.3963C346.94 11.3962 346.6 11.396 346.26 11.3959C346.145 11.4591 346.03 11.5223 345.915 11.5854ZM167.032 11.4593C166.472 11.4584 164.521 11.5012 164.604 11.517C165.415 11.5363 166.225 11.5556 167.036 11.575C167.039 11.5469 167.043 11.5188 167.047 11.4908C167.161 11.5047 167.276 11.5187 167.39 11.5327C167.851 11.5222 168.312 11.5117 168.773 11.5012C169.005 11.5257 169.238 11.5503 169.47 11.5748C169.703 11.5468 169.937 11.5188 170.17 11.4908C167.945 11.4411 168.021 11.4907 167.558 11.4902C167.323 11.49 167.175 11.4726 167.092 11.4639C167.072 11.4623 167.052 11.4608 167.032 11.4593ZM195.067 11.4329C192.41 11.4259 190.891 11.4998 188.969 11.438C190.202 11.5697 198.163 11.4337 200.97 11.5435C201.261 11.5224 201.553 11.5013 201.844 11.4801C200.316 11.499 199.257 11.4555 198.511 11.4492C197.919 11.4442 197.981 11.4664 197.936 11.4661C197.934 11.4661 197.932 11.4661 197.93 11.4661C196.544 11.457 196.115 11.4357 195.067 11.4329ZM305.082 11.4823C304.368 11.449 303.119 11.4523 303.105 11.501C303.8 11.5151 304.495 11.5292 305.191 11.5433C305.048 11.5308 305.204 11.4881 305.082 11.4823ZM344.836 11.4494C344.279 11.4335 342.963 11.4474 343.53 11.4895C343.632 11.497 344.943 11.4674 344.174 11.5433C345.452 11.5421 345.153 11.4585 344.836 11.4494ZM240.471 11.5327C240.94 11.5313 241.409 11.5299 241.878 11.5285C241.987 11.5088 242.096 11.4892 242.206 11.4695C241.627 11.4906 241.049 11.5116 240.471 11.5327ZM311.108 11.4487C311.731 11.5448 312.796 11.4512 313.966 11.5303C314.398 11.5309 314.83 11.5315 315.262 11.5321C315.263 11.5321 315.265 11.5321 315.266 11.5321C315.277 11.5059 315.289 11.4797 315.301 11.4534C313.903 11.4518 312.506 11.4502 311.108 11.4487ZM211.236 11.4853C211.525 11.4975 211.814 11.5097 212.103 11.5219C212.617 11.5077 213.131 11.4935 213.645 11.4792C213.367 11.469 213.089 11.4588 212.811 11.4487C212.286 11.4609 211.761 11.4731 211.236 11.4853ZM318.704 11.4404C317.192 11.4284 316.624 11.512 318.557 11.5122C319.372 11.5122 320.287 11.453 318.704 11.4404ZM138.159 11.4904C138.677 11.4975 139.195 11.5047 139.712 11.5118C139.889 11.4942 140.065 11.4767 140.241 11.4591C139.547 11.4695 138.853 11.48 138.159 11.4904ZM350.662 9.33398C350.623 9.38347 350.584 9.43296 350.544 9.48245C350.165 9.74691 349.787 10.0114 349.408 10.2758C349.493 10.1944 349.577 10.1129 349.662 10.0315C349.995 9.79896 350.329 9.56647 350.662 9.33398ZM141.643 11.5012C142.057 11.5046 142.471 11.5079 142.885 11.5113C143.163 11.5027 143.441 11.4942 143.72 11.4856C143.332 11.4772 142.945 11.4687 142.558 11.4602C142.253 11.4739 141.948 11.4875 141.643 11.5012ZM333.03 11.4485C332.449 11.4273 330.126 11.4932 332.218 11.51C333.552 11.5207 333.118 11.4517 333.03 11.4485ZM336.165 11.4274C333.95 11.3872 335.611 11.5915 338.254 11.4591C335.593 11.4772 336.295 11.4298 336.165 11.4274ZM353.55 7.11683C353.595 7.08468 353.65 7.08207 354.013 6.82539C355.322 5.90138 357.053 4.68699 357.989 4.02535C358.998 3.3114 360.934 1.9254 362.839 0.56913L363.128 0.361202L363.5 0.358539C366.371 0.354222 369.178 0.359125 369.722 0.405993C369.928 0.423853 369.455 0.477218 369.538 0.479966C369.783 0.48763 371.195 0.461736 370.934 0.501022C369.549 0.500717 368.164 0.500412 366.779 0.500107C367.119 0.472398 367.459 0.444688 367.799 0.416979C364.349 0.431771 365.491 0.430064 364.499 0.490402C364.166 0.477078 363.833 0.463754 363.5 0.45043L363.158 0.452879L362.893 0.644068C362.682 0.781195 362.471 0.918316 362.261 1.05544C361.238 1.81035 360.214 2.56525 359.191 3.32016C359.416 3.13905 359.641 2.95794 359.866 2.77684C358.285 3.85884 358.732 3.56824 357.902 4.20941C357.89 4.19636 357.878 4.18331 357.866 4.17026C356.383 5.2753 356.059 5.44096 355.729 5.67424C355.052 6.15302 354.311 6.93338 351.613 8.5947C350.584 9.44699 350.492 9.26487 349.912 9.80192C348.008 11.0165 351.53 8.56633 353.188 7.39436C353.189 7.39374 353.19 7.39313 353.191 7.39251C353.316 7.30412 353.107 7.42952 353.55 7.11683ZM344.053 11.4247C345.419 11.3336 340.023 11.3251 341.809 11.4565C342.075 11.4608 342.341 11.4651 342.606 11.4693C343.09 11.4545 343.573 11.4396 344.056 11.4247C344.055 11.4247 344.054 11.4247 344.053 11.4247ZM293.358 11.3642C288.36 11.4017 291.202 11.454 292.894 11.4029C293.232 11.3927 293.417 11.3788 293.358 11.3642ZM191.271 11.363C191.198 11.3739 191.125 11.3848 191.052 11.3957C192.728 11.3855 195.968 11.4277 195.924 11.354C194.373 11.357 192.822 11.36 191.271 11.363ZM204.528 11.3148C204.168 11.3104 202.698 11.2999 202.875 11.3274C203.512 11.347 204.15 11.3665 204.787 11.386C205.084 11.3738 205.38 11.3616 205.677 11.3494C205.263 11.3453 204.625 11.316 204.528 11.3148Z" fill="url(#paint0_radial_43_234)"/>
<defs>
<radialGradient id="paint0_radial_43_234" cx="0" cy="0" r="1" gradientUnits="userSpaceOnUse" gradientTransform="translate(206 7.49999) rotate(90) scale(185 174.579)">
<stop stop-color="#C9684D"/>
<stop offset="1" stop-color="#E82E5A"/>
</radialGradient>
</defs>
</svg>
