<svg width="116" height="31" viewBox="0 0 116 31" fill="none" xmlns="http://www.w3.org/2000/svg">
<path d="M114.518 0.639648L114.451 25.0234L112.625 28.0713L111.453 29.9199H0.639648V0.639648H114.518Z" stroke="#F75049" stroke-opacity="0.3" stroke-width="1.28"/>
<path d="M23.3273 10.675C23.9835 10.7125 24.5226 10.9656 24.9445 11.4344C25.3663 11.8937 25.671 12.4187 25.8585 13.0094C26.046 13.6 26.1398 14.2047 26.1398 14.8234C26.1398 15.4422 26.046 16.0469 25.8585 16.6375C25.6804 17.2281 25.3757 17.7578 24.9445 18.2266C24.5226 18.6859 23.9835 18.9344 23.3273 18.9719H18.1523C17.8992 18.9625 17.6835 18.8734 17.5054 18.7047C17.3367 18.5266 17.2476 18.3109 17.2382 18.0578V14.5703C17.2476 14.3078 17.346 14.0922 17.5335 13.9234C17.721 13.7453 17.946 13.6562 18.2085 13.6562C18.4617 13.6656 18.6773 13.7594 18.8554 13.9375C19.0335 14.1062 19.1273 14.3172 19.1367 14.5703V16.7078C19.1367 16.9609 19.2679 17.0875 19.5304 17.0875H22.8492C23.2054 17.0687 23.5007 16.9328 23.7351 16.6797C23.9695 16.4266 24.1382 16.1406 24.2413 15.8219C24.3538 15.4937 24.4101 15.1609 24.4101 14.8234C24.4101 14.4859 24.3538 14.1578 24.2413 13.8391C24.1382 13.5109 23.9695 13.2203 23.7351 12.9672C23.5007 12.7141 23.2054 12.5781 22.8492 12.5594H18.1523C17.5898 12.5125 17.2851 12.2078 17.2382 11.6453C17.2382 11.3828 17.3226 11.1578 17.4913 10.9703C17.6695 10.7828 17.8898 10.6844 18.1523 10.675H23.3273ZM26.8013 18.0297C26.8013 17.7672 26.8903 17.5469 27.0685 17.3687C27.256 17.1812 27.481 17.0875 27.7435 17.0875H30.4435V12.5594H27.7435C27.481 12.5594 27.2607 12.4656 27.0825 12.2781C26.895 12.1 26.8013 11.8797 26.8013 11.6172C26.8013 11.3547 26.8903 11.1344 27.0685 10.9562C27.256 10.7687 27.481 10.675 27.7435 10.675H35.0278C35.2903 10.675 35.5153 10.7641 35.7028 10.9422C35.881 11.1297 35.97 11.3547 35.97 11.6172C35.97 11.8797 35.8763 12.1047 35.6888 12.2922C35.5107 12.4703 35.2903 12.5594 35.0278 12.5594H32.3419V17.0875H35.0278C35.2903 17.0875 35.5153 17.1766 35.7028 17.3547C35.881 17.5422 35.97 17.7672 35.97 18.0297C35.97 18.2922 35.8763 18.5172 35.6888 18.7047C35.5107 18.8828 35.2903 18.9719 35.0278 18.9719H27.7435C27.481 18.9719 27.2607 18.8781 27.0825 18.6906C26.895 18.5125 26.8013 18.2922 26.8013 18.0297ZM45.9409 11.6172C45.9409 11.8797 45.8472 12.1 45.6597 12.2781C45.4815 12.4656 45.2612 12.5594 44.9987 12.5594H39.3737C39.1956 12.5687 39.0456 12.6109 38.9237 12.6859C38.8112 12.7516 38.7268 12.8312 38.6706 12.925C38.6143 13.0094 38.5862 13.0984 38.5862 13.1922C38.5862 13.2859 38.6143 13.3797 38.6706 13.4734C38.7268 13.5578 38.8112 13.6375 38.9237 13.7125C39.0456 13.7781 39.1956 13.8156 39.3737 13.825H43.3675C44.0237 13.8437 44.5628 13.9984 44.9847 14.2891C45.4159 14.5703 45.7206 14.8984 45.8987 15.2734C46.0862 15.6391 46.18 16.0141 46.18 16.3984C46.18 16.7734 46.0862 17.1484 45.8987 17.5234C45.7112 17.8891 45.4065 18.2172 44.9847 18.5078C44.5628 18.7891 44.0237 18.9297 43.3675 18.9297H43.2831C43.2268 18.9391 43.1706 18.9437 43.1143 18.9437H37.7987C37.5362 18.9437 37.3112 18.8547 37.1237 18.6766C36.9456 18.4891 36.8565 18.2641 36.8565 18.0016C36.8565 17.7391 36.9503 17.5187 37.1378 17.3406C37.3159 17.1531 37.5362 17.0594 37.7987 17.0594H43.4518C43.63 17.0687 43.7753 17.0359 43.8878 16.9609C44.0097 16.8859 44.0987 16.8016 44.155 16.7078C44.2112 16.6047 44.2393 16.5016 44.2393 16.3984C44.2393 16.3328 44.2112 16.2437 44.155 16.1312C44.0987 16.0094 44.0097 15.9109 43.8878 15.8359C43.7753 15.7609 43.63 15.7187 43.4518 15.7094H39.4581C38.8018 15.6906 38.2581 15.5406 37.8268 15.2594C37.405 14.9781 37.1003 14.6594 36.9128 14.3031C36.7347 13.9375 36.6456 13.5672 36.6456 13.1922C36.6456 12.8266 36.7393 12.4656 36.9268 12.1094C37.1143 11.7437 37.419 11.4203 37.8409 11.1391C38.2628 10.8578 38.8018 10.7078 39.4581 10.6891H39.5425C39.5987 10.6797 39.655 10.675 39.7112 10.675H44.9987C45.2612 10.675 45.4815 10.7687 45.6597 10.9562C45.8472 11.1344 45.9409 11.3547 45.9409 11.6172ZM50.3852 12.5594C50.029 12.5781 49.729 12.7141 49.4852 12.9672C49.2509 13.2203 49.0821 13.5109 48.979 13.8391C48.8759 14.1578 48.8243 14.4859 48.8243 14.8234C48.8243 15.1609 48.8712 15.4937 48.9649 15.8219C49.068 16.15 49.2415 16.4406 49.4852 16.6937C49.729 16.9375 50.029 17.0687 50.3852 17.0875H55.0259C55.6165 17.1437 55.9399 17.4672 55.9962 18.0578C55.9868 18.3203 55.8884 18.5406 55.7009 18.7187C55.5134 18.8875 55.2884 18.9719 55.0259 18.9719H50.5399H49.893C49.2368 18.9344 48.6977 18.6859 48.2758 18.2266C47.854 17.7578 47.5493 17.2281 47.3618 16.6375C47.1837 16.0469 47.0946 15.4422 47.0946 14.8234C47.0946 14.3641 47.1462 13.9094 47.2493 13.4594C47.3524 13.0094 47.5118 12.5828 47.7274 12.1797C47.9524 11.7672 48.2477 11.4156 48.6134 11.125C48.9884 10.8344 49.4149 10.6844 49.893 10.675H50.1602H55.0259C55.6165 10.7312 55.9399 11.0547 55.9962 11.6453C55.9962 11.9078 55.8977 12.1281 55.7009 12.3062C55.5134 12.475 55.2884 12.5594 55.0259 12.5594H50.3852ZM64.2655 10.675C64.7436 10.6844 65.1702 10.8344 65.5452 11.125C65.9202 11.4156 66.2202 11.7625 66.4452 12.1656C66.6795 12.5687 66.853 12.9953 66.9655 13.4453C67.078 13.8953 67.1342 14.3547 67.1342 14.8234C67.1342 15.4422 67.0358 16.0516 66.8389 16.6516C66.6514 17.2422 66.3373 17.7672 65.8967 18.2266C65.4655 18.6859 64.9217 18.9344 64.2655 18.9719H59.3577C58.7014 18.9437 58.153 18.7 57.7123 18.2406C57.2717 17.7812 56.9577 17.2516 56.7702 16.6516C56.592 16.0516 56.503 15.4422 56.503 14.8234C56.503 14.2047 56.5967 13.6 56.7842 13.0094C56.9717 12.4094 57.2811 11.8797 57.7123 11.4203C58.153 10.9516 58.7014 10.7031 59.3577 10.675H59.6248H63.9983H64.2655ZM63.7873 17.0875C64.1436 17.0687 64.4389 16.9375 64.6733 16.6937C64.917 16.4406 65.0905 16.15 65.1936 15.8219C65.2967 15.4937 65.3483 15.1609 65.3483 14.8234C65.3483 14.4859 65.292 14.1578 65.1795 13.8391C65.0764 13.5109 64.9077 13.2203 64.6733 12.9672C64.4389 12.7141 64.1436 12.5781 63.7873 12.5594H59.7936C59.4373 12.5781 59.142 12.7141 58.9077 12.9672C58.6733 13.2203 58.4998 13.5109 58.3873 13.8391C58.2842 14.1578 58.2327 14.4859 58.2327 14.8234C58.2327 15.1609 58.2842 15.4937 58.3873 15.8219C58.4905 16.15 58.6592 16.4406 58.8936 16.6937C59.1373 16.9375 59.4373 17.0687 59.7936 17.0875H63.7873ZM70.777 18.2266C70.3457 17.5797 69.9145 16.7312 69.4832 15.6812L67.9363 11.6875C67.8895 11.5844 67.8613 11.4719 67.852 11.35C67.8332 11.0875 67.9082 10.8625 68.077 10.675C68.2551 10.4875 68.4801 10.3937 68.752 10.3937C69.0426 10.3937 69.2582 10.4594 69.3988 10.5906C69.5488 10.7125 69.6707 10.8719 69.7645 11.0687L71.1004 14.725C71.2504 15.1094 71.3957 15.475 71.5363 15.8219C71.6863 16.1594 71.8504 16.4687 72.0285 16.75C72.2067 17.0312 72.4082 17.1812 72.6332 17.2C72.8488 17.1812 73.041 17.0312 73.2098 16.75C73.3973 16.4687 73.5613 16.1594 73.702 15.8219C73.852 15.475 74.002 15.1094 74.152 14.725L75.4598 11.0687C75.5535 10.8719 75.6707 10.7125 75.8113 10.5906C75.9613 10.4594 76.191 10.3937 76.5004 10.3937C76.7723 10.3937 76.9926 10.4875 77.1613 10.675C77.3395 10.8625 77.4192 11.0875 77.4004 11.35C77.391 11.4719 77.3629 11.5844 77.316 11.6875L75.7692 15.6812C75.3379 16.75 74.9067 17.6031 74.4754 18.2406C74.0535 18.8687 73.4395 19.1875 72.6332 19.1969C71.8176 19.1875 71.1988 18.8641 70.777 18.2266ZM80.8885 10.675H81.5354H86.3166C86.5791 10.6844 86.7947 10.7828 86.9635 10.9703C87.1416 11.1578 87.2307 11.3828 87.2307 11.6453C87.1838 12.2078 86.8791 12.5125 86.3166 12.5594H81.3666C81.0104 12.5781 80.715 12.7141 80.4807 12.9672C80.2463 13.2203 80.0729 13.5109 79.9604 13.8391C79.8572 14.1578 79.8057 14.4859 79.8057 14.8234C79.8057 15.1609 79.8572 15.4937 79.9604 15.8219C80.0729 16.1406 80.2463 16.4266 80.4807 16.6797C80.715 16.9328 81.0104 17.0687 81.3666 17.0875H86.3166C86.5791 17.0969 86.7947 17.1953 86.9635 17.3828C87.1416 17.5703 87.2307 17.7953 87.2307 18.0578C87.2213 18.3109 87.1275 18.5266 86.9494 18.7047C86.7807 18.8734 86.5697 18.9625 86.3166 18.9719H81.1557H80.8885C80.2322 18.9344 79.6885 18.6859 79.2572 18.2266C78.8354 17.7578 78.5307 17.2281 78.3432 16.6375C78.165 16.0469 78.076 15.4422 78.076 14.8234C78.076 14.2047 78.1697 13.6 78.3572 13.0094C78.5447 12.4187 78.8494 11.8937 79.2713 11.4344C79.6932 10.9656 80.2322 10.7125 80.8885 10.675ZM87.2025 14.7672C87.2025 15.0297 87.1088 15.25 86.9213 15.4281C86.7432 15.6156 86.5229 15.7094 86.2604 15.7094H82.0135C81.751 15.7094 81.526 15.6203 81.3385 15.4422C81.1604 15.2547 81.0713 15.0297 81.0713 14.7672C81.0713 14.5047 81.1604 14.2797 81.3385 14.0922C81.526 13.9141 81.751 13.825 82.0135 13.825H86.2604C86.5229 13.825 86.7432 13.9187 86.9213 14.1062C87.1088 14.2844 87.2025 14.5047 87.2025 14.7672ZM89.9593 18.2547C89.9031 18.8172 89.5937 19.1219 89.0312 19.1688C88.7687 19.1688 88.539 19.0844 88.3422 18.9156C88.1547 18.7375 88.0609 18.5172 88.0609 18.2547V11.5891C88.0703 11.3266 88.1687 11.1109 88.3562 10.9422C88.5437 10.7641 88.7687 10.675 89.0312 10.675H89.7203H91.45H94.9234C94.9797 10.675 95.0359 10.6797 95.0922 10.6891H95.1765C95.8328 10.7078 96.3718 10.8578 96.7937 11.1391C97.2156 11.4203 97.5203 11.7437 97.7078 12.1094C97.8953 12.4656 97.989 12.8266 97.989 13.1922C97.989 13.5672 97.8953 13.9375 97.7078 14.3031C97.5297 14.6594 97.225 14.9781 96.7937 15.2594C96.3718 15.5406 95.8328 15.6906 95.1765 15.7094H92.7015C92.7765 16.1781 92.9312 16.525 93.1656 16.75C93.3906 16.975 93.6765 17.0875 94.0234 17.0875H97.0609C97.3234 17.0969 97.539 17.1953 97.7078 17.3828C97.8859 17.5703 97.975 17.7953 97.975 18.0578C97.9656 18.3109 97.8718 18.5266 97.6937 18.7047C97.525 18.8734 97.314 18.9625 97.0609 18.9719H93.7703C93.0765 18.9812 92.4484 18.7094 91.8859 18.1562C91.3234 17.6031 90.9812 16.9469 90.8593 16.1875C90.6906 15.3437 90.6062 14.8703 90.6062 14.7672C90.6062 14.5047 90.6953 14.2844 90.8734 14.1062C91.0609 13.9187 91.2859 13.825 91.5484 13.825H95.2609C95.439 13.8156 95.5843 13.7781 95.6968 13.7125C95.8187 13.6375 95.9078 13.5578 95.964 13.4734C96.0203 13.3797 96.0484 13.2859 96.0484 13.1922C96.0484 13.0984 96.0203 13.0094 95.964 12.925C95.9078 12.8312 95.8187 12.7516 95.6968 12.6859C95.5843 12.6109 95.439 12.5687 95.2609 12.5594H91.45H90.325C90.0812 12.5687 89.9593 12.6906 89.9593 12.925V18.2547Z" fill="#1DED83"/>
</svg>
