<svg width="78" height="7" viewBox="0 0 78 7" fill="none" xmlns="http://www.w3.org/2000/svg">
<path opacity="0.5" d="M4.818 1.602C4.818 1.794 4.974 1.95 5.166 1.95C5.358 1.95 5.514 1.794 5.514 1.602C5.514 1.41 5.358 1.254 5.166 1.254C4.974 1.254 4.818 1.41 4.818 1.602ZM4.446 1.602C4.446 1.206 4.77 0.882 5.166 0.882C5.562 0.882 5.886 1.206 5.886 1.602C5.886 1.998 5.562 2.322 5.166 2.322C4.77 2.322 4.446 1.998 4.446 1.602ZM5.178 2.076C5.118 2.19 5.076 2.364 5.046 2.49C4.908 3.078 4.644 4.014 4.14 4.68C3.6 5.4 2.802 5.994 1.728 6.336L1.074 5.616C2.268 5.34 2.946 4.818 3.426 4.212C3.828 3.714 4.056 3.03 4.134 2.514C3.768 2.514 1.788 2.514 1.338 2.514C1.062 2.514 0.78 2.532 0.624 2.544V1.692C0.804 1.716 1.14 1.746 1.338 1.746C1.788 1.746 3.78 1.746 4.116 1.746C4.236 1.746 4.428 1.74 4.584 1.698L5.178 2.076ZM6.756 1.746C6.996 1.752 7.224 1.758 7.386 1.758C7.824 1.758 10.26 1.758 10.692 1.758C10.842 1.758 11.064 1.758 11.286 1.752C11.274 1.932 11.274 2.148 11.274 2.334C11.274 2.7 11.274 4.908 11.274 5.274C11.274 5.508 11.28 6.084 11.286 6.108H10.452C10.452 6.084 10.47 5.616 10.47 5.286C10.47 4.938 10.47 2.526 10.47 2.526H7.566C7.566 2.526 7.566 4.932 7.566 5.286C7.566 5.574 7.572 6.078 7.572 6.108H6.75C6.75 6.078 6.762 5.55 6.762 5.262C6.762 4.902 6.762 2.682 6.762 2.334C6.762 2.16 6.762 1.92 6.756 1.746ZM10.764 5.016V5.778H7.158V5.016H10.764ZM16.674 1.086C16.824 1.308 17.034 1.686 17.148 1.908L16.668 2.118C16.542 1.872 16.356 1.512 16.194 1.284L16.674 1.086ZM17.382 0.816C17.538 1.044 17.76 1.422 17.868 1.632L17.388 1.836C17.262 1.59 17.07 1.236 16.908 1.014L17.382 0.816ZM17.208 2.406C17.142 2.526 17.058 2.688 17.01 2.838C16.848 3.372 16.506 4.176 15.966 4.842C15.396 5.538 14.67 6.09 13.542 6.534L12.834 5.904C14.064 5.532 14.73 5.01 15.252 4.416C15.66 3.948 16.008 3.228 16.104 2.784H14.082L14.358 2.1C14.628 2.1 15.882 2.1 16.074 2.1C16.26 2.1 16.458 2.076 16.596 2.028L17.208 2.406ZM15.252 1.458C15.114 1.668 14.958 1.944 14.886 2.07C14.484 2.796 13.764 3.642 12.906 4.23L12.228 3.732C13.284 3.09 13.806 2.316 14.106 1.8C14.196 1.656 14.322 1.374 14.376 1.17L15.252 1.458ZM19.338 1.398C19.5 1.422 19.758 1.434 19.962 1.434C20.34 1.434 21.918 1.434 22.266 1.434C22.458 1.434 22.752 1.422 22.914 1.398V2.178C22.758 2.166 22.476 2.154 22.254 2.154C21.924 2.154 20.316 2.154 19.962 2.154C19.764 2.154 19.512 2.16 19.338 2.178V1.398ZM23.424 3.144C23.382 3.222 23.328 3.33 23.31 3.39C23.124 3.972 22.866 4.56 22.422 5.052C21.816 5.73 21.048 6.132 20.28 6.354L19.68 5.676C20.586 5.484 21.3 5.094 21.762 4.62C22.08 4.296 22.272 3.918 22.374 3.588C22.074 3.588 20.016 3.588 19.482 3.588C19.332 3.588 19.032 3.594 18.78 3.612V2.832C19.038 2.856 19.29 2.874 19.482 2.874C19.89 2.874 22.038 2.874 22.446 2.874C22.644 2.874 22.806 2.85 22.89 2.808L23.424 3.144ZM27.1424 1.476C27.0644 1.656 26.9804 1.878 26.8904 2.148C26.6684 2.82 26.0444 4.752 25.7864 5.376L24.9044 5.406C25.2284 4.638 25.8524 2.67 26.0504 1.974C26.1344 1.674 26.1644 1.482 26.1884 1.284L27.1424 1.476ZM28.2164 3.414C28.6484 4.062 29.2604 5.244 29.5364 5.91L28.7264 6.27C28.4564 5.544 27.8984 4.302 27.4724 3.726L28.2164 3.414ZM24.8444 5.136C25.6784 5.106 27.6404 4.884 28.4804 4.77L28.6544 5.538C27.7664 5.652 25.7024 5.868 24.8924 5.952C24.7424 5.97 24.5144 6 24.3284 6.024L24.1844 5.142C24.3884 5.148 24.6524 5.142 24.8444 5.136ZM30.1304 2.538H35.5064V3.126H30.1304V2.538ZM32.4344 1.518H33.1484V4.068H32.4344V1.518ZM34.6064 0.942L35.0624 1.464C33.8444 1.71 32.1044 1.824 30.6344 1.848C30.6164 1.692 30.5444 1.446 30.4844 1.302C31.9364 1.266 33.6164 1.146 34.6064 0.942ZM32.1884 2.742L32.7704 3C32.2124 3.666 31.2944 4.254 30.4184 4.56C30.3224 4.398 30.1244 4.14 29.9744 4.008C30.8144 3.762 31.7204 3.27 32.1884 2.742ZM33.3884 2.76C33.8744 3.276 34.8164 3.726 35.7044 3.942C35.5424 4.086 35.3384 4.368 35.2304 4.548C34.3304 4.266 33.4004 3.678 32.8424 2.994L33.3884 2.76ZM33.9884 1.614L34.7864 1.806C34.5884 2.13 34.3784 2.448 34.2224 2.664L33.6044 2.478C33.7424 2.232 33.9044 1.872 33.9884 1.614ZM30.9404 1.938L31.5584 1.71C31.7264 1.926 31.9184 2.226 31.9964 2.43L31.3484 2.682C31.2764 2.484 31.1024 2.166 30.9404 1.938ZM30.8924 4.17H34.8164V6.528H34.0904V4.71H31.5824V6.552H30.8924V4.17ZM31.1624 5.022H34.4864V5.49H31.1624V5.022ZM31.1624 5.82H34.4864V6.36H31.1624V5.82ZM32.4584 4.5H33.1424V6.186H32.4584V4.5ZM37.5764 1.74V2.394H40.0604V1.74H37.5764ZM36.8744 1.116H40.8104V3.018H36.8744V1.116ZM36.1004 3.33H41.5064V3.984H36.1004V3.33ZM37.3784 4.332H40.3184V4.986H37.3784V4.332ZM40.0544 4.332H40.8344C40.8344 4.332 40.8164 4.536 40.7984 4.632C40.6724 5.616 40.5284 6.09 40.3064 6.294C40.1264 6.468 39.9284 6.51 39.6464 6.528C39.4184 6.546 39.0224 6.54 38.6084 6.528C38.5964 6.318 38.4944 6.03 38.3564 5.838C38.7584 5.874 39.2024 5.88 39.3824 5.88C39.5204 5.88 39.5984 5.874 39.6764 5.82C39.8384 5.7 39.9584 5.274 40.0484 4.428L40.0544 4.332ZM37.3784 3.51L38.1524 3.618C37.9844 4.188 37.7624 4.866 37.5884 5.304L36.8084 5.184C36.9944 4.746 37.2284 4.056 37.3784 3.51ZM44.622 5.49H45.048C45.336 5.49 45.48 5.342 45.48 5.046V3.096C45.48 2.8 45.336 2.652 45.048 2.652H44.622C44.334 2.652 44.19 2.8 44.19 3.096V5.046C44.19 5.342 44.334 5.49 44.622 5.49ZM45.132 6H44.532C44.236 6 44.006 5.918 43.842 5.754C43.678 5.59 43.596 5.362 43.596 5.07V3.072C43.596 2.776 43.678 2.548 43.842 2.388C44.006 2.224 44.236 2.142 44.532 2.142H45.132C45.424 2.142 45.652 2.224 45.816 2.388C45.98 2.548 46.062 2.776 46.062 3.072V5.07C46.062 5.362 45.98 5.59 45.816 5.754C45.652 5.918 45.424 6 45.132 6ZM47.792 5.49H48.218C48.506 5.49 48.65 5.342 48.65 5.046V3.096C48.65 2.8 48.506 2.652 48.218 2.652H47.792C47.504 2.652 47.36 2.8 47.36 3.096V5.046C47.36 5.342 47.504 5.49 47.792 5.49ZM48.302 6H47.702C47.406 6 47.176 5.918 47.012 5.754C46.848 5.59 46.766 5.362 46.766 5.07V3.072C46.766 2.776 46.848 2.548 47.012 2.388C47.176 2.224 47.406 2.142 47.702 2.142H48.302C48.594 2.142 48.822 2.224 48.986 2.388C49.15 2.548 49.232 2.776 49.232 3.072V5.07C49.232 5.362 49.15 5.59 48.986 5.754C48.822 5.918 48.594 6 48.302 6ZM50.4939 6H50.0799C50.0039 6 49.9859 5.962 50.0259 5.886L51.3099 2.682H49.7979C49.7299 2.682 49.6959 2.646 49.6959 2.574V2.244C49.6959 2.176 49.7299 2.142 49.7979 2.142H51.8319C51.9039 2.142 51.9399 2.176 51.9399 2.244V2.616C51.9399 2.68 51.9179 2.764 51.8739 2.868L50.6619 5.904C50.6379 5.968 50.5819 6 50.4939 6ZM52.9665 6H52.5525C52.4765 6 52.4585 5.962 52.4985 5.886L53.7825 2.682H52.2705C52.2025 2.682 52.1685 2.646 52.1685 2.574V2.244C52.1685 2.176 52.2025 2.142 52.2705 2.142H54.3045C54.3765 2.142 54.4125 2.176 54.4125 2.244V2.616C54.4125 2.68 54.3905 2.764 54.3465 2.868L53.1345 5.904C53.1105 5.968 53.0545 6 52.9665 6ZM55.8952 5.49H56.3692C56.5172 5.49 56.6252 5.456 56.6932 5.388C56.7652 5.32 56.8012 5.212 56.8012 5.064V4.74C56.8012 4.44 56.6572 4.29 56.3692 4.29H55.8952C55.6072 4.29 55.4632 4.44 55.4632 4.74V5.064C55.4632 5.212 55.4972 5.32 55.5652 5.388C55.6372 5.456 55.7472 5.49 55.8952 5.49ZM55.8952 3.822H56.3692C56.6572 3.822 56.8012 3.672 56.8012 3.372V3.078C56.8012 2.93 56.7652 2.822 56.6932 2.754C56.6252 2.686 56.5172 2.652 56.3692 2.652H55.8952C55.7472 2.652 55.6372 2.686 55.5652 2.754C55.4972 2.822 55.4632 2.93 55.4632 3.078V3.372C55.4632 3.672 55.6072 3.822 55.8952 3.822ZM56.4532 6H55.8172C55.5212 6 55.2912 5.924 55.1272 5.772C54.9632 5.62 54.8812 5.398 54.8812 5.106V4.782C54.8812 4.414 55.0192 4.174 55.2952 4.062C55.0192 3.95 54.8812 3.708 54.8812 3.336V3.03C54.8812 2.742 54.9632 2.522 55.1272 2.37C55.2912 2.218 55.5212 2.142 55.8172 2.142H56.4532C56.7492 2.142 56.9772 2.218 57.1372 2.37C57.3012 2.522 57.3832 2.742 57.3832 3.03V3.336C57.3832 3.52 57.3452 3.676 57.2692 3.804C57.1972 3.932 57.0992 4.018 56.9752 4.062C57.2472 4.17 57.3832 4.412 57.3832 4.788V5.106C57.3832 5.398 57.3012 5.62 57.1372 5.772C56.9772 5.924 56.7492 6 56.4532 6ZM60.5361 5.49H60.9621C61.2501 5.49 61.3941 5.342 61.3941 5.046V3.096C61.3941 2.8 61.2501 2.652 60.9621 2.652H60.5361C60.2481 2.652 60.1041 2.8 60.1041 3.096V5.046C60.1041 5.342 60.2481 5.49 60.5361 5.49ZM61.0461 6H60.4461C60.1501 6 59.9201 5.918 59.7561 5.754C59.5921 5.59 59.5101 5.362 59.5101 5.07V3.072C59.5101 2.776 59.5921 2.548 59.7561 2.388C59.9201 2.224 60.1501 2.142 60.4461 2.142H61.0461C61.3381 2.142 61.5661 2.224 61.7301 2.388C61.8941 2.548 61.9761 2.776 61.9761 3.072V5.07C61.9761 5.362 61.8941 5.59 61.7301 5.754C61.5661 5.918 61.3381 6 61.0461 6ZM63.706 5.49H64.132C64.42 5.49 64.564 5.342 64.564 5.046V3.096C64.564 2.8 64.42 2.652 64.132 2.652H63.706C63.418 2.652 63.274 2.8 63.274 3.096V5.046C63.274 5.342 63.418 5.49 63.706 5.49ZM64.216 6H63.616C63.32 6 63.09 5.918 62.926 5.754C62.762 5.59 62.68 5.362 62.68 5.07V3.072C62.68 2.776 62.762 2.548 62.926 2.388C63.09 2.224 63.32 2.142 63.616 2.142H64.216C64.508 2.142 64.736 2.224 64.9 2.388C65.064 2.548 65.146 2.776 65.146 3.072V5.07C65.146 5.362 65.064 5.59 64.9 5.754C64.736 5.918 64.508 6 64.216 6ZM66.876 5.49H67.302C67.59 5.49 67.734 5.342 67.734 5.046V3.096C67.734 2.8 67.59 2.652 67.302 2.652H66.876C66.588 2.652 66.444 2.8 66.444 3.096V5.046C66.444 5.342 66.588 5.49 66.876 5.49ZM67.386 6H66.786C66.49 6 66.26 5.918 66.096 5.754C65.932 5.59 65.85 5.362 65.85 5.07V3.072C65.85 2.776 65.932 2.548 66.096 2.388C66.26 2.224 66.49 2.142 66.786 2.142H67.386C67.678 2.142 67.906 2.224 68.07 2.388C68.234 2.548 68.316 2.776 68.316 3.072V5.07C68.316 5.362 68.234 5.59 68.07 5.754C67.906 5.918 67.678 6 67.386 6ZM70.0459 5.49H70.4719C70.7599 5.49 70.9039 5.342 70.9039 5.046V3.096C70.9039 2.8 70.7599 2.652 70.4719 2.652H70.0459C69.7579 2.652 69.6139 2.8 69.6139 3.096V5.046C69.6139 5.342 69.7579 5.49 70.0459 5.49ZM70.5559 6H69.9559C69.6599 6 69.4299 5.918 69.2659 5.754C69.1019 5.59 69.0199 5.362 69.0199 5.07V3.072C69.0199 2.776 69.1019 2.548 69.2659 2.388C69.4299 2.224 69.6599 2.142 69.9559 2.142H70.5559C70.8479 2.142 71.0759 2.224 71.2399 2.388C71.4039 2.548 71.4859 2.776 71.4859 3.072V5.07C71.4859 5.362 71.4039 5.59 71.2399 5.754C71.0759 5.918 70.8479 6 70.5559 6ZM72.0098 3.084V2.73C72.0098 2.666 72.0378 2.618 72.0938 2.586L72.7178 2.208C72.7938 2.164 72.8578 2.142 72.9098 2.142H73.2698C73.3378 2.142 73.3718 2.176 73.3718 2.244V5.898C73.3718 5.966 73.3398 6 73.2758 6H72.8858C72.8178 6 72.7838 5.966 72.7838 5.898V2.766L72.1298 3.144C72.0498 3.18 72.0098 3.16 72.0098 3.084ZM73.9727 3.084V2.73C73.9727 2.666 74.0007 2.618 74.0567 2.586L74.6807 2.208C74.7567 2.164 74.8207 2.142 74.8727 2.142H75.2327C75.3007 2.142 75.3347 2.176 75.3347 2.244V5.898C75.3347 5.966 75.3027 6 75.2387 6H74.8487C74.7807 6 74.7467 5.966 74.7467 5.898V2.766L74.0927 3.144C74.0127 3.18 73.9727 3.16 73.9727 3.084ZM75.9356 3.084V2.73C75.9356 2.666 75.9636 2.618 76.0196 2.586L76.6436 2.208C76.7196 2.164 76.7836 2.142 76.8356 2.142H77.1956C77.2636 2.142 77.2976 2.176 77.2976 2.244V5.898C77.2976 5.966 77.2656 6 77.2016 6H76.8116C76.7436 6 76.7096 5.966 76.7096 5.898V2.766L76.0556 3.144C75.9756 3.18 75.9356 3.16 75.9356 3.084Z" fill="#F75049"/>
</svg>
