<svg width="116" height="31" viewBox="0 0 116 31" fill="none" xmlns="http://www.w3.org/2000/svg">
<path d="M114.518 0.639648L114.451 25.0234L112.625 28.0713L111.453 29.9199H0.639648V0.639648H114.518Z" stroke="#F75049" stroke-opacity="0.3" stroke-width="1.28"/>
<mask id="path-2-outside-1_181_74" maskUnits="userSpaceOnUse" x="28" y="9" width="59" height="11" fill="black">
<rect fill="white" x="28" y="9" width="59" height="11"/>
<path d="M29.9443 10.45C30.2068 10.45 30.4318 10.5391 30.6193 10.7172C30.8068 10.8859 30.9052 11.1016 30.9146 11.3641V14.7531C30.9052 15.1375 30.9286 15.4937 30.9849 15.8219C31.0505 16.1406 31.2005 16.4266 31.4349 16.6797C31.6693 16.9328 31.9646 17.0687 32.3208 17.0875H36.8208C37.0833 17.0969 37.2989 17.1953 37.4677 17.3828C37.6458 17.5703 37.7349 17.7953 37.7349 18.0578C37.7255 18.3109 37.6318 18.5266 37.4536 18.7047C37.2849 18.8734 37.0739 18.9625 36.8208 18.9719H31.8427C31.1864 18.9344 30.6427 18.7141 30.2114 18.3109C29.7896 17.8984 29.4849 17.3969 29.2974 16.8062C29.1193 16.2156 29.0255 15.5875 29.0161 14.9219V11.3641C29.0255 11.1109 29.1193 10.9 29.2974 10.7312C29.4755 10.5531 29.6911 10.4594 29.9443 10.45ZM46.0464 10.675C46.5245 10.6844 46.9511 10.8344 47.3261 11.125C47.7011 11.4156 48.0011 11.7625 48.2261 12.1656C48.4604 12.5687 48.6339 12.9953 48.7464 13.4453C48.8589 13.8953 48.9151 14.3547 48.9151 14.8234C48.9151 15.4422 48.8167 16.0516 48.6198 16.6516C48.4323 17.2422 48.1183 17.7672 47.6776 18.2266C47.2464 18.6859 46.7026 18.9344 46.0464 18.9719H41.1386C40.4823 18.9437 39.9339 18.7 39.4933 18.2406C39.0526 17.7812 38.7386 17.2516 38.5511 16.6516C38.3729 16.0516 38.2839 15.4422 38.2839 14.8234C38.2839 14.2047 38.3776 13.6 38.5651 13.0094C38.7526 12.4094 39.062 11.8797 39.4933 11.4203C39.9339 10.9516 40.4823 10.7031 41.1386 10.675H41.4058H45.7792H46.0464ZM45.5683 17.0875C45.9245 17.0687 46.2198 16.9375 46.4542 16.6937C46.6979 16.4406 46.8714 16.15 46.9745 15.8219C47.0776 15.4937 47.1292 15.1609 47.1292 14.8234C47.1292 14.4859 47.0729 14.1578 46.9604 13.8391C46.8573 13.5109 46.6886 13.2203 46.4542 12.9672C46.2198 12.7141 45.9245 12.5781 45.5683 12.5594H41.5745C41.2183 12.5781 40.9229 12.7141 40.6886 12.9672C40.4542 13.2203 40.2808 13.5109 40.1683 13.8391C40.0651 14.1578 40.0136 14.4859 40.0136 14.8234C40.0136 15.1609 40.0651 15.4937 40.1683 15.8219C40.2714 16.15 40.4401 16.4406 40.6745 16.6937C40.9183 16.9375 41.2183 17.0687 41.5745 17.0875H45.5683ZM52.5438 10.675H58.4782C58.7407 10.6844 58.9563 10.7828 59.1251 10.9703C59.3032 11.1578 59.3923 11.3828 59.3923 11.6453C59.3454 12.2078 59.0407 12.5125 58.4782 12.5594H53.0219C52.6657 12.5781 52.3704 12.7141 52.136 12.9672C51.9016 13.2203 51.7282 13.5109 51.6157 13.8391C51.5126 14.1578 51.461 14.4859 51.461 14.8234C51.461 15.1609 51.5126 15.4937 51.6157 15.8219C51.7282 16.1406 51.9016 16.4266 52.136 16.6797C52.3704 16.9328 52.6657 17.0687 53.0219 17.0875H57.2969C57.4657 17.0781 57.5548 16.9844 57.5641 16.8062V15.9906C57.5548 15.8031 57.4657 15.7094 57.2969 15.7094H53.6969C53.4344 15.7094 53.2094 15.6203 53.0219 15.4422C52.8438 15.2547 52.7548 15.0297 52.7548 14.7672C52.7548 14.5047 52.8438 14.2797 53.0219 14.0922C53.2094 13.9141 53.4344 13.825 53.6969 13.825H58.5063C58.7688 13.825 58.9938 13.9141 59.1813 14.0922C59.3501 14.2703 59.4391 14.4859 59.4485 14.7391V14.7672V18.0578C59.4391 18.3109 59.3501 18.5219 59.1813 18.6906C59.0032 18.8687 58.7876 18.9625 58.5344 18.9719H52.5438C51.8876 18.9344 51.3438 18.6859 50.9126 18.2266C50.4907 17.7578 50.186 17.2281 49.9985 16.6375C49.8204 16.0469 49.7313 15.4422 49.7313 14.8234C49.7313 14.2047 49.8251 13.6 50.0126 13.0094C50.2001 12.4187 50.5048 11.8937 50.9266 11.4344C51.3485 10.9656 51.8876 10.7125 52.5438 10.675ZM66.9449 18.0297C66.9449 17.7672 67.034 17.5469 67.2121 17.3687C67.3996 17.1812 67.6246 17.0875 67.8871 17.0875H70.5871V12.5594H67.8871C67.6246 12.5594 67.4043 12.4656 67.2262 12.2781C67.0387 12.1 66.9449 11.8797 66.9449 11.6172C66.9449 11.3547 67.034 11.1344 67.2121 10.9562C67.3996 10.7687 67.6246 10.675 67.8871 10.675H75.1715C75.434 10.675 75.659 10.7641 75.8465 10.9422C76.0246 11.1297 76.1137 11.3547 76.1137 11.6172C76.1137 11.8797 76.0199 12.1047 75.8324 12.2922C75.6543 12.4703 75.434 12.5594 75.1715 12.5594H72.4856V17.0875H75.1715C75.434 17.0875 75.659 17.1766 75.8465 17.3547C76.0246 17.5422 76.1137 17.7672 76.1137 18.0297C76.1137 18.2922 76.0199 18.5172 75.8324 18.7047C75.6543 18.8828 75.434 18.9719 75.1715 18.9719H67.8871C67.6246 18.9719 67.4043 18.8781 67.2262 18.6906C67.0387 18.5125 66.9449 18.2922 66.9449 18.0297ZM81.4721 10.2953C81.9596 10.2953 82.4377 10.3516 82.9064 10.4641C83.3846 10.5766 83.8393 10.7453 84.2705 10.9703C84.7018 11.1859 85.0814 11.4766 85.4096 11.8422C85.7471 12.2078 85.9299 12.6437 85.958 13.15V13.7406V18.2266C85.9018 18.7891 85.5924 19.0938 85.0299 19.1406C84.7674 19.1406 84.5377 19.0563 84.3408 18.8875C84.1533 18.7094 84.0596 18.4891 84.0596 18.2266V13.5859C84.0408 13.2953 83.9283 13.0562 83.7221 12.8687C83.5252 12.6719 83.3002 12.5172 83.0471 12.4047C82.8033 12.2922 82.5455 12.2078 82.2736 12.1516C82.0111 12.0953 81.7439 12.0672 81.4721 12.0672C81.2002 12.0672 80.9283 12.0953 80.6564 12.1516C80.3939 12.2078 80.1361 12.2922 79.883 12.4047C79.6393 12.5172 79.4143 12.6719 79.208 12.8687C79.0111 13.0562 78.9033 13.2953 78.8846 13.5859V18.2266C78.8377 18.7891 78.533 19.0938 77.9705 19.1406C77.708 19.1406 77.4783 19.0563 77.2814 18.8875C77.0939 18.7094 77.0002 18.4891 77.0002 18.2266V13.7406V13.15C77.0283 12.6437 77.2064 12.2078 77.5346 11.8422C77.8627 11.4766 78.2424 11.1859 78.6736 10.9703C79.1049 10.7453 79.5549 10.5766 80.0236 10.4641C80.5018 10.3516 80.9846 10.2953 81.4721 10.2953Z"/>
</mask>
<path d="M29.9443 10.45C30.2068 10.45 30.4318 10.5391 30.6193 10.7172C30.8068 10.8859 30.9052 11.1016 30.9146 11.3641V14.7531C30.9052 15.1375 30.9286 15.4937 30.9849 15.8219C31.0505 16.1406 31.2005 16.4266 31.4349 16.6797C31.6693 16.9328 31.9646 17.0687 32.3208 17.0875H36.8208C37.0833 17.0969 37.2989 17.1953 37.4677 17.3828C37.6458 17.5703 37.7349 17.7953 37.7349 18.0578C37.7255 18.3109 37.6318 18.5266 37.4536 18.7047C37.2849 18.8734 37.0739 18.9625 36.8208 18.9719H31.8427C31.1864 18.9344 30.6427 18.7141 30.2114 18.3109C29.7896 17.8984 29.4849 17.3969 29.2974 16.8062C29.1193 16.2156 29.0255 15.5875 29.0161 14.9219V11.3641C29.0255 11.1109 29.1193 10.9 29.2974 10.7312C29.4755 10.5531 29.6911 10.4594 29.9443 10.45ZM46.0464 10.675C46.5245 10.6844 46.9511 10.8344 47.3261 11.125C47.7011 11.4156 48.0011 11.7625 48.2261 12.1656C48.4604 12.5687 48.6339 12.9953 48.7464 13.4453C48.8589 13.8953 48.9151 14.3547 48.9151 14.8234C48.9151 15.4422 48.8167 16.0516 48.6198 16.6516C48.4323 17.2422 48.1183 17.7672 47.6776 18.2266C47.2464 18.6859 46.7026 18.9344 46.0464 18.9719H41.1386C40.4823 18.9437 39.9339 18.7 39.4933 18.2406C39.0526 17.7812 38.7386 17.2516 38.5511 16.6516C38.3729 16.0516 38.2839 15.4422 38.2839 14.8234C38.2839 14.2047 38.3776 13.6 38.5651 13.0094C38.7526 12.4094 39.062 11.8797 39.4933 11.4203C39.9339 10.9516 40.4823 10.7031 41.1386 10.675H41.4058H45.7792H46.0464ZM45.5683 17.0875C45.9245 17.0687 46.2198 16.9375 46.4542 16.6937C46.6979 16.4406 46.8714 16.15 46.9745 15.8219C47.0776 15.4937 47.1292 15.1609 47.1292 14.8234C47.1292 14.4859 47.0729 14.1578 46.9604 13.8391C46.8573 13.5109 46.6886 13.2203 46.4542 12.9672C46.2198 12.7141 45.9245 12.5781 45.5683 12.5594H41.5745C41.2183 12.5781 40.9229 12.7141 40.6886 12.9672C40.4542 13.2203 40.2808 13.5109 40.1683 13.8391C40.0651 14.1578 40.0136 14.4859 40.0136 14.8234C40.0136 15.1609 40.0651 15.4937 40.1683 15.8219C40.2714 16.15 40.4401 16.4406 40.6745 16.6937C40.9183 16.9375 41.2183 17.0687 41.5745 17.0875H45.5683ZM52.5438 10.675H58.4782C58.7407 10.6844 58.9563 10.7828 59.1251 10.9703C59.3032 11.1578 59.3923 11.3828 59.3923 11.6453C59.3454 12.2078 59.0407 12.5125 58.4782 12.5594H53.0219C52.6657 12.5781 52.3704 12.7141 52.136 12.9672C51.9016 13.2203 51.7282 13.5109 51.6157 13.8391C51.5126 14.1578 51.461 14.4859 51.461 14.8234C51.461 15.1609 51.5126 15.4937 51.6157 15.8219C51.7282 16.1406 51.9016 16.4266 52.136 16.6797C52.3704 16.9328 52.6657 17.0687 53.0219 17.0875H57.2969C57.4657 17.0781 57.5548 16.9844 57.5641 16.8062V15.9906C57.5548 15.8031 57.4657 15.7094 57.2969 15.7094H53.6969C53.4344 15.7094 53.2094 15.6203 53.0219 15.4422C52.8438 15.2547 52.7548 15.0297 52.7548 14.7672C52.7548 14.5047 52.8438 14.2797 53.0219 14.0922C53.2094 13.9141 53.4344 13.825 53.6969 13.825H58.5063C58.7688 13.825 58.9938 13.9141 59.1813 14.0922C59.3501 14.2703 59.4391 14.4859 59.4485 14.7391V14.7672V18.0578C59.4391 18.3109 59.3501 18.5219 59.1813 18.6906C59.0032 18.8687 58.7876 18.9625 58.5344 18.9719H52.5438C51.8876 18.9344 51.3438 18.6859 50.9126 18.2266C50.4907 17.7578 50.186 17.2281 49.9985 16.6375C49.8204 16.0469 49.7313 15.4422 49.7313 14.8234C49.7313 14.2047 49.8251 13.6 50.0126 13.0094C50.2001 12.4187 50.5048 11.8937 50.9266 11.4344C51.3485 10.9656 51.8876 10.7125 52.5438 10.675ZM66.9449 18.0297C66.9449 17.7672 67.034 17.5469 67.2121 17.3687C67.3996 17.1812 67.6246 17.0875 67.8871 17.0875H70.5871V12.5594H67.8871C67.6246 12.5594 67.4043 12.4656 67.2262 12.2781C67.0387 12.1 66.9449 11.8797 66.9449 11.6172C66.9449 11.3547 67.034 11.1344 67.2121 10.9562C67.3996 10.7687 67.6246 10.675 67.8871 10.675H75.1715C75.434 10.675 75.659 10.7641 75.8465 10.9422C76.0246 11.1297 76.1137 11.3547 76.1137 11.6172C76.1137 11.8797 76.0199 12.1047 75.8324 12.2922C75.6543 12.4703 75.434 12.5594 75.1715 12.5594H72.4856V17.0875H75.1715C75.434 17.0875 75.659 17.1766 75.8465 17.3547C76.0246 17.5422 76.1137 17.7672 76.1137 18.0297C76.1137 18.2922 76.0199 18.5172 75.8324 18.7047C75.6543 18.8828 75.434 18.9719 75.1715 18.9719H67.8871C67.6246 18.9719 67.4043 18.8781 67.2262 18.6906C67.0387 18.5125 66.9449 18.2922 66.9449 18.0297ZM81.4721 10.2953C81.9596 10.2953 82.4377 10.3516 82.9064 10.4641C83.3846 10.5766 83.8393 10.7453 84.2705 10.9703C84.7018 11.1859 85.0814 11.4766 85.4096 11.8422C85.7471 12.2078 85.9299 12.6437 85.958 13.15V13.7406V18.2266C85.9018 18.7891 85.5924 19.0938 85.0299 19.1406C84.7674 19.1406 84.5377 19.0563 84.3408 18.8875C84.1533 18.7094 84.0596 18.4891 84.0596 18.2266V13.5859C84.0408 13.2953 83.9283 13.0562 83.7221 12.8687C83.5252 12.6719 83.3002 12.5172 83.0471 12.4047C82.8033 12.2922 82.5455 12.2078 82.2736 12.1516C82.0111 12.0953 81.7439 12.0672 81.4721 12.0672C81.2002 12.0672 80.9283 12.0953 80.6564 12.1516C80.3939 12.2078 80.1361 12.2922 79.883 12.4047C79.6393 12.5172 79.4143 12.6719 79.208 12.8687C79.0111 13.0562 78.9033 13.2953 78.8846 13.5859V18.2266C78.8377 18.7891 78.533 19.0938 77.9705 19.1406C77.708 19.1406 77.4783 19.0563 77.2814 18.8875C77.0939 18.7094 77.0002 18.4891 77.0002 18.2266V13.7406V13.15C77.0283 12.6437 77.2064 12.2078 77.5346 11.8422C77.8627 11.4766 78.2424 11.1859 78.6736 10.9703C79.1049 10.7453 79.5549 10.5766 80.0236 10.4641C80.5018 10.3516 80.9846 10.2953 81.4721 10.2953Z" fill="#F75049"/>
<path d="M29.9443 10.45V9.65H29.9294L29.9146 9.65055L29.9443 10.45ZM30.6193 10.7172L30.0683 11.2972L30.0761 11.3046L30.0841 11.3118L30.6193 10.7172ZM30.9146 11.3641H31.7146V11.3498L31.7141 11.3355L30.9146 11.3641ZM30.9146 14.7531L31.7143 14.7726L31.7146 14.7629V14.7531H30.9146ZM30.9849 15.8219L30.1964 15.957L30.1986 15.9702L30.2013 15.9832L30.9849 15.8219ZM32.3208 17.0875L32.2788 17.8864L32.2998 17.8875H32.3208V17.0875ZM36.8208 17.0875L36.8494 16.288L36.8351 16.2875H36.8208V17.0875ZM37.4677 17.3828L36.8731 17.918L36.8803 17.926L36.8877 17.9338L37.4677 17.3828ZM37.7349 18.0578L38.5343 18.0874L38.5349 18.0726V18.0578H37.7349ZM36.8208 18.9719V19.7719H36.8356L36.8504 19.7713L36.8208 18.9719ZM31.8427 18.9719L31.7971 19.7706L31.8199 19.7719H31.8427V18.9719ZM30.2114 18.3109L29.6521 18.8829L29.6586 18.8892L29.6651 18.8954L30.2114 18.3109ZM29.2974 16.8062L28.5314 17.0373L28.5349 17.0483L29.2974 16.8062ZM29.0161 14.9219L28.2161 14.9219L28.2162 14.9331L29.0161 14.9219ZM29.0161 11.3641L28.2167 11.3345L28.2161 11.3493V11.3641H29.0161ZM29.2974 10.7312L29.8476 11.312L29.8554 11.3046L29.8631 11.2969L29.2974 10.7312ZM29.9443 10.45V11.25C30.0051 11.25 30.0319 11.2626 30.0683 11.2972L30.6193 10.7172L31.1703 10.1372C30.8316 9.81547 30.4084 9.65 29.9443 9.65V10.45ZM30.6193 10.7172L30.0841 11.3118C30.1017 11.3276 30.1052 11.3359 30.106 11.3377C30.1071 11.3401 30.1137 11.3549 30.1151 11.3926L30.9146 11.3641L31.7141 11.3355C31.6973 10.8663 31.5104 10.443 31.1544 10.1226L30.6193 10.7172ZM30.9146 11.3641H30.1146V14.7531H30.9146H31.7146V11.3641H30.9146ZM30.9146 14.7531L30.1148 14.7336C30.1044 15.162 30.1302 15.5707 30.1964 15.957L30.9849 15.8219L31.7734 15.6867C31.7271 15.4168 31.706 15.113 31.7143 14.7726L30.9146 14.7531ZM30.9849 15.8219L30.2013 15.9832C30.2982 16.4536 30.5205 16.8697 30.8479 17.2232L31.4349 16.6797L32.0219 16.1362C31.8805 15.9834 31.8029 15.8277 31.7684 15.6606L30.9849 15.8219ZM31.4349 16.6797L30.8479 17.2232C31.229 17.6349 31.7224 17.8571 32.2788 17.8864L32.3208 17.0875L32.3629 16.2886C32.2067 16.2804 32.1095 16.2308 32.0219 16.1362L31.4349 16.6797ZM32.3208 17.0875V17.8875H36.8208V17.0875V16.2875H32.3208V17.0875ZM36.8208 17.0875L36.7923 17.887C36.8299 17.8883 36.8447 17.895 36.8472 17.8961C36.8489 17.8969 36.8572 17.9004 36.8731 17.918L37.4677 17.3828L38.0623 16.8476C37.7419 16.4916 37.3186 16.3048 36.8494 16.288L36.8208 17.0875ZM37.4677 17.3828L36.8877 17.9338C36.9222 17.9702 36.9349 17.997 36.9349 18.0578H37.7349H38.5349C38.5349 17.5937 38.3694 17.1705 38.0477 16.8318L37.4677 17.3828ZM37.7349 18.0578L36.9354 18.0282C36.9335 18.0808 36.9224 18.1045 36.8879 18.139L37.4536 18.7047L38.0193 19.2704C38.3411 18.9486 38.5175 18.5411 38.5343 18.0874L37.7349 18.0578ZM37.4536 18.7047L36.8879 18.139C36.8713 18.1556 36.8561 18.17 36.7912 18.1724L36.8208 18.9719L36.8504 19.7713C37.2918 19.755 37.6984 19.5912 38.0193 19.2704L37.4536 18.7047ZM36.8208 18.9719V18.1719H31.8427V18.9719V19.7719H36.8208V18.9719ZM31.8427 18.9719L31.8883 18.1732C31.3963 18.1451 31.0366 17.9872 30.7578 17.7265L30.2114 18.3109L29.6651 18.8954C30.2488 19.4409 30.9766 19.7237 31.7971 19.7706L31.8427 18.9719ZM30.2114 18.3109L30.7707 17.7389C30.4474 17.4227 30.2098 17.0363 30.0599 16.5642L29.2974 16.8062L28.5349 17.0483C28.76 17.7574 29.1318 18.3741 29.6521 18.8829L30.2114 18.3109ZM29.2974 16.8062L30.0633 16.5753C29.9083 16.0613 29.8245 15.5076 29.8161 14.9106L29.0161 14.9219L28.2162 14.9331C28.2266 15.6674 28.3302 16.3699 28.5315 17.0372L29.2974 16.8062ZM29.0161 14.9219H29.8161V11.3641H29.0161H28.2161V14.9219H29.0161ZM29.0161 11.3641L29.8156 11.3937C29.8169 11.3591 29.8229 11.3445 29.8245 11.3409C29.8259 11.3378 29.8302 11.3285 29.8476 11.312L29.2974 10.7312L28.7472 10.1505C28.4117 10.4684 28.2335 10.8796 28.2167 11.3345L29.0161 11.3641ZM29.2974 10.7312L29.8631 11.2969C29.8975 11.2625 29.9213 11.2514 29.9739 11.2495L29.9443 10.45L29.9146 9.65055C29.461 9.66735 29.0535 9.84378 28.7317 10.1656L29.2974 10.7312ZM46.0464 10.675L46.0621 9.87515L46.0542 9.875H46.0464V10.675ZM47.3261 11.125L46.836 11.7573L47.3261 11.125ZM48.2261 12.1656L47.5274 12.5556L47.5345 12.5677L48.2261 12.1656ZM48.6198 16.6516L47.8597 16.4021L47.8573 16.4095L48.6198 16.6516ZM47.6776 18.2266L47.1003 17.6728L47.0944 17.679L47.6776 18.2266ZM46.0464 18.9719V19.7719H46.0692L46.092 19.7706L46.0464 18.9719ZM41.1386 18.9719L41.1043 19.7711L41.1214 19.7719H41.1386V18.9719ZM38.5511 16.6516L37.7841 16.8793L37.7875 16.8902L38.5511 16.6516ZM38.5651 13.0094L39.3276 13.2514L39.3287 13.248L38.5651 13.0094ZM39.4933 11.4203L38.9104 10.8724L38.91 10.8728L39.4933 11.4203ZM41.1386 10.675V9.875H41.1214L41.1043 9.87573L41.1386 10.675ZM45.5683 17.0875V17.8875H45.5893L45.6103 17.8864L45.5683 17.0875ZM46.4542 16.6937L45.8779 16.1388L45.8775 16.1393L46.4542 16.6937ZM46.9604 13.8391L46.1972 14.0789L46.2014 14.0922L46.206 14.1053L46.9604 13.8391ZM45.5683 12.5594L45.6103 11.7605L45.5893 11.7594H45.5683V12.5594ZM41.5745 12.5594V11.7594H41.5535L41.5325 11.7605L41.5745 12.5594ZM40.1683 13.8391L39.4114 13.5796L39.4071 13.5928L40.1683 13.8391ZM40.6745 16.6937L40.0875 17.2373L40.0979 17.2486L40.1088 17.2594L40.6745 16.6937ZM41.5745 17.0875L41.5325 17.8864L41.5535 17.8875H41.5745V17.0875ZM46.0464 10.675L46.0307 11.4748C46.3383 11.4809 46.5982 11.573 46.836 11.7573L47.3261 11.125L47.8161 10.4927C47.304 10.0957 46.7107 9.88787 46.0621 9.87515L46.0464 10.675ZM47.3261 11.125L46.836 11.7573C47.1283 11.9839 47.3565 12.249 47.5275 12.5555L48.2261 12.1656L48.9246 11.7757C48.6457 11.276 48.2738 10.8474 47.8161 10.4927L47.3261 11.125ZM48.2261 12.1656L47.5345 12.5677C47.7312 12.9062 47.8761 13.2627 47.9703 13.6393L48.7464 13.4453L49.5225 13.2513C49.3916 12.7279 49.1897 12.2313 48.9177 11.7635L48.2261 12.1656ZM48.7464 13.4453L47.9703 13.6393C48.0667 14.0252 48.1151 14.4194 48.1151 14.8234H48.9151H49.7151C49.7151 14.29 49.651 13.7654 49.5225 13.2513L48.7464 13.4453ZM48.9151 14.8234H48.1151C48.1151 15.3557 48.0307 15.881 47.8597 16.4021L48.6198 16.6516L49.3799 16.901C49.6027 16.2222 49.7151 15.5287 49.7151 14.8234H48.9151ZM48.6198 16.6516L47.8573 16.4095C47.7079 16.8802 47.4585 17.2993 47.1003 17.6728L47.6776 18.2266L48.255 18.7803C48.778 18.2351 49.1567 17.6042 49.3823 16.8936L48.6198 16.6516ZM47.6776 18.2266L47.0944 17.679C46.8101 17.9818 46.462 18.1468 46.0007 18.1732L46.0464 18.9719L46.092 19.7706C46.9433 19.7219 47.6827 19.39 48.2609 18.7741L47.6776 18.2266ZM46.0464 18.9719V18.1719H41.1386V18.9719V19.7719H46.0464V18.9719ZM41.1386 18.9719L41.1728 18.1726C40.7152 18.153 40.3636 17.9923 40.0706 17.6868L39.4933 18.2406L38.9159 18.7944C39.5042 19.4077 40.2495 19.7345 41.1043 19.7711L41.1386 18.9719ZM39.4933 18.2406L40.0706 17.6868C39.7145 17.3155 39.4648 16.8934 39.3147 16.4129L38.5511 16.6516L37.7875 16.8902C38.0123 17.6098 38.3908 18.247 38.9159 18.7944L39.4933 18.2406ZM38.5511 16.6516L39.318 16.4239C39.1615 15.8969 39.0839 15.3642 39.0839 14.8234H38.2839H37.4839C37.4839 15.5202 37.5843 16.2062 37.7841 16.8792L38.5511 16.6516ZM38.2839 14.8234H39.0839C39.0839 14.2869 39.1649 13.7639 39.3276 13.2514L38.5651 13.0094L37.8026 12.7673C37.5903 13.4361 37.4839 14.1224 37.4839 14.8234H38.2839ZM38.5651 13.0094L39.3287 13.248C39.4801 12.7635 39.7277 12.3394 40.0765 11.9679L39.4933 11.4203L38.91 10.8728C38.3963 11.42 38.0252 12.0552 37.8015 12.7708L38.5651 13.0094ZM39.4933 11.4203L40.0762 11.9682C40.3704 11.6552 40.7204 11.4937 41.1728 11.4743L41.1386 10.675L41.1043 9.87573C40.2443 9.91259 39.4974 10.2479 38.9104 10.8724L39.4933 11.4203ZM41.1386 10.675V11.475H41.4058V10.675V9.875H41.1386V10.675ZM41.4058 10.675V11.475H45.7792V10.675V9.875H41.4058V10.675ZM45.7792 10.675V11.475H46.0464V10.675V9.875H45.7792V10.675ZM45.5683 17.0875L45.6103 17.8864C46.1571 17.8576 46.6475 17.647 47.0309 17.2482L46.4542 16.6937L45.8775 16.1393C45.7922 16.228 45.692 16.2799 45.5262 16.2886L45.5683 17.0875ZM46.4542 16.6937L47.0304 17.2487C47.3581 16.9084 47.5966 16.5105 47.7377 16.0617L46.9745 15.8219L46.2113 15.582C46.1461 15.7895 46.0378 15.9729 45.8779 16.1388L46.4542 16.6937ZM46.9745 15.8219L47.7377 16.0617C47.8647 15.6575 47.9292 15.2439 47.9292 14.8234H47.1292H46.3292C46.3292 15.078 46.2905 15.33 46.2113 15.582L46.9745 15.8219ZM47.1292 14.8234H47.9292C47.9292 14.3951 47.8575 13.9769 47.7148 13.5728L46.9604 13.8391L46.206 14.1053C46.2884 14.3387 46.3292 14.5768 46.3292 14.8234H47.1292ZM46.9604 13.8391L47.7236 13.5992C47.5849 13.1577 47.3558 12.7634 47.0412 12.4237L46.4542 12.9672L45.8672 13.5107C46.0213 13.6772 46.1298 13.8642 46.1972 14.0789L46.9604 13.8391ZM46.4542 12.9672L47.0412 12.4237C46.6601 12.012 46.1666 11.7898 45.6103 11.7605L45.5683 12.5594L45.5262 13.3583C45.6824 13.3665 45.7796 13.4161 45.8672 13.5107L46.4542 12.9672ZM45.5683 12.5594V11.7594H41.5745V12.5594V13.3594H45.5683V12.5594ZM41.5745 12.5594L41.5325 11.7605C40.9761 11.7898 40.4827 12.012 40.1016 12.4237L40.6886 12.9672L41.2756 13.5107C41.3632 13.4161 41.4604 13.3665 41.6166 13.3583L41.5745 12.5594ZM40.6886 12.9672L40.1016 12.4237C39.791 12.7591 39.56 13.1466 39.4115 13.5796L40.1683 13.8391L40.925 14.0985C41.0016 13.8753 41.1174 13.6816 41.2756 13.5107L40.6886 12.9672ZM40.1683 13.8391L39.4071 13.5928C39.278 13.9917 39.2136 14.403 39.2136 14.8234H40.0136H40.8136C40.8136 14.5689 40.8522 14.3239 40.9294 14.0853L40.1683 13.8391ZM40.0136 14.8234H39.2136C39.2136 15.2439 39.278 15.6575 39.4051 16.0617L40.1683 15.8219L40.9314 15.582C40.8522 15.33 40.8136 15.078 40.8136 14.8234H40.0136ZM40.1683 15.8219L39.4051 16.0617C39.5438 16.5032 39.7729 16.8975 40.0875 17.2373L40.6745 16.6937L41.2615 16.1502C41.1074 15.9838 40.9989 15.7968 40.9314 15.582L40.1683 15.8219ZM40.6745 16.6937L40.1088 17.2594C40.4976 17.6482 40.9864 17.8577 41.5325 17.8864L41.5745 17.0875L41.6166 16.2886C41.4501 16.2798 41.3389 16.2268 41.2402 16.1281L40.6745 16.6937ZM41.5745 17.0875V17.8875H45.5683V17.0875V16.2875H41.5745V17.0875ZM52.5438 10.675V9.875H52.521L52.4982 9.8763L52.5438 10.675ZM58.4782 10.675L58.5067 9.87551L58.4925 9.875H58.4782V10.675ZM59.1251 10.9703L58.5304 11.5055L58.5376 11.5135L58.5451 11.5213L59.1251 10.9703ZM59.3923 11.6453L60.1895 11.7117L60.1923 11.6786V11.6453H59.3923ZM58.4782 12.5594V13.3594H58.5115L58.5446 13.3566L58.4782 12.5594ZM53.0219 12.5594V11.7594H53.0009L52.9799 11.7605L53.0219 12.5594ZM51.6157 13.8391L50.8588 13.5796L50.8545 13.5928L51.6157 13.8391ZM51.6157 15.8219L50.8525 16.0617L50.8567 16.075L50.8613 16.0881L51.6157 15.8219ZM53.0219 17.0875L52.9799 17.8864L53.0009 17.8875H53.0219V17.0875ZM57.2969 17.0875V17.8875H57.3192L57.3413 17.8863L57.2969 17.0875ZM57.5641 16.8062L58.363 16.8483L58.3641 16.8273V16.8062H57.5641ZM57.5641 15.9906H58.3641V15.9706L58.3631 15.9507L57.5641 15.9906ZM53.0219 15.4422L52.4419 15.9932L52.4561 16.0081L52.4709 16.0222L53.0219 15.4422ZM53.0219 14.0922L52.4709 13.5122L52.4561 13.5263L52.4419 13.5412L53.0219 14.0922ZM59.1813 14.0922L59.7621 13.542L59.7476 13.5267L59.7323 13.5122L59.1813 14.0922ZM59.4485 14.7391H60.2485V14.7243L60.248 14.7095L59.4485 14.7391ZM59.4485 18.0578L60.248 18.0874L60.2485 18.0726V18.0578H59.4485ZM58.5344 18.9719V19.7719H58.5493L58.5641 19.7713L58.5344 18.9719ZM52.5438 18.9719L52.4982 19.7706L52.521 19.7719H52.5438V18.9719ZM50.9126 18.2266L50.3179 18.7617L50.3236 18.768L50.3293 18.7741L50.9126 18.2266ZM49.9985 16.6375L49.2325 16.8685L49.236 16.8796L49.9985 16.6375ZM50.9266 11.4344L51.5159 11.9755L51.5213 11.9695L50.9266 11.4344ZM52.5438 10.675V11.475H58.4782V10.675V9.875H52.5438V10.675ZM58.4782 10.675L58.4496 11.4745C58.4873 11.4758 58.5021 11.4825 58.5046 11.4836C58.5063 11.4844 58.5146 11.4879 58.5304 11.5055L59.1251 10.9703L59.7197 10.4351C59.3993 10.0791 58.9759 9.89227 58.5067 9.87551L58.4782 10.675ZM59.1251 10.9703L58.5451 11.5213C58.5796 11.5577 58.5923 11.5845 58.5923 11.6453H59.3923H60.1923C60.1923 11.1812 60.0268 10.758 59.7051 10.4193L59.1251 10.9703ZM59.3923 11.6453L58.595 11.5789C58.5824 11.7309 58.5447 11.7483 58.5629 11.73C58.5811 11.7118 58.5637 11.7495 58.4118 11.7621L58.4782 12.5594L58.5446 13.3566C58.9551 13.3224 59.3713 13.1843 59.6943 12.8614C60.0172 12.5385 60.1553 12.1223 60.1895 11.7117L59.3923 11.6453ZM58.4782 12.5594V11.7594H53.0219V12.5594V13.3594H58.4782V12.5594ZM53.0219 12.5594L52.9799 11.7605C52.4236 11.7898 51.9301 12.012 51.549 12.4237L52.136 12.9672L52.723 13.5107C52.8106 13.4161 52.9078 13.3665 53.064 13.3583L53.0219 12.5594ZM52.136 12.9672L51.549 12.4237C51.2384 12.7591 51.0074 13.1466 50.8589 13.5796L51.6157 13.8391L52.3725 14.0985C52.449 13.8753 52.5648 13.6816 52.723 13.5107L52.136 12.9672ZM51.6157 13.8391L50.8545 13.5928C50.7255 13.9917 50.661 14.403 50.661 14.8234H51.461H52.261C52.261 14.5689 52.2997 14.3239 52.3769 14.0853L51.6157 13.8391ZM51.461 14.8234H50.661C50.661 15.2439 50.7255 15.6575 50.8525 16.0617L51.6157 15.8219L52.3789 15.582C52.2997 15.33 52.261 15.078 52.261 14.8234H51.461ZM51.6157 15.8219L50.8613 16.0881C51.0109 16.5119 51.2421 16.8917 51.549 17.2232L52.136 16.6797L52.723 16.1362C52.5612 15.9614 52.4455 15.7694 52.3701 15.5556L51.6157 15.8219ZM52.136 16.6797L51.549 17.2232C51.9301 17.6349 52.4236 17.8571 52.9799 17.8864L53.0219 17.0875L53.064 16.2886C52.9078 16.2804 52.8106 16.2308 52.723 16.1362L52.136 16.6797ZM53.0219 17.0875V17.8875H57.2969V17.0875V16.2875H53.0219V17.0875ZM57.2969 17.0875L57.3413 17.8863C57.5648 17.8739 57.8464 17.7968 58.0703 17.5612C58.2884 17.3315 58.3521 17.0556 58.363 16.8483L57.5641 16.8062L56.7652 16.7642C56.7668 16.735 56.7812 16.595 56.9103 16.4592C57.0451 16.3172 57.1978 16.2918 57.2526 16.2887L57.2969 17.0875ZM57.5641 16.8062H58.3641V15.9906H57.5641H56.7641V16.8062H57.5641ZM57.5641 15.9906L58.3631 15.9507C58.3531 15.7504 58.2951 15.4653 58.0703 15.2287C57.8324 14.9783 57.5304 14.9094 57.2969 14.9094V15.7094V16.5094C57.2322 16.5094 57.0592 16.4874 56.9103 16.3307C56.7746 16.1879 56.7658 16.0433 56.7651 16.0306L57.5641 15.9906ZM57.2969 15.7094V14.9094H53.6969V15.7094V16.5094H57.2969V15.7094ZM53.6969 15.7094V14.9094C53.6361 14.9094 53.6093 14.8967 53.5729 14.8622L53.0219 15.4422L52.4709 16.0222C52.8096 16.3439 53.2328 16.5094 53.6969 16.5094V15.7094ZM53.0219 15.4422L53.6019 14.8912C53.5674 14.8548 53.5548 14.828 53.5548 14.7672H52.7548H51.9548C51.9548 15.2313 52.1202 15.6545 52.4419 15.9932L53.0219 15.4422ZM52.7548 14.7672H53.5548C53.5548 14.7063 53.5674 14.6795 53.6019 14.6432L53.0219 14.0922L52.4419 13.5412C52.1202 13.8798 51.9548 14.303 51.9548 14.7672H52.7548ZM53.0219 14.0922L53.5729 14.6722C53.6093 14.6376 53.6361 14.625 53.6969 14.625V13.825V13.025C53.2328 13.025 52.8096 13.1905 52.4709 13.5122L53.0219 14.0922ZM53.6969 13.825V14.625H58.5063V13.825V13.025H53.6969V13.825ZM58.5063 13.825V14.625C58.5672 14.625 58.594 14.6376 58.6303 14.6722L59.1813 14.0922L59.7323 13.5122C59.3937 13.1905 58.9705 13.025 58.5063 13.025V13.825ZM59.1813 14.0922L58.6006 14.6424C58.6309 14.6744 58.6466 14.703 58.6491 14.7687L59.4485 14.7391L60.248 14.7095C60.2316 14.2689 60.0692 13.8662 59.7621 13.542L59.1813 14.0922ZM59.4485 14.7391H58.6485V14.7672H59.4485H60.2485V14.7391H59.4485ZM59.4485 14.7672H58.6485V18.0578H59.4485H60.2485V14.7672H59.4485ZM59.4485 18.0578L58.6491 18.0282C58.6467 18.0931 58.6323 18.1083 58.6156 18.1249L59.1813 18.6906L59.747 19.2563C60.0679 18.9354 60.2316 18.5287 60.248 18.0874L59.4485 18.0578ZM59.1813 18.6906L58.6156 18.1249C58.5812 18.1594 58.5574 18.1705 58.5048 18.1724L58.5344 18.9719L58.5641 19.7713C59.0177 19.7545 59.4252 19.5781 59.747 19.2563L59.1813 18.6906ZM58.5344 18.9719V18.1719H52.5438V18.9719V19.7719H58.5344V18.9719ZM52.5438 18.9719L52.5895 18.1732C52.1282 18.1468 51.7801 17.9818 51.4958 17.679L50.9126 18.2266L50.3293 18.7741C50.9075 19.39 51.6469 19.7219 52.4982 19.7706L52.5438 18.9719ZM50.9126 18.2266L51.5072 17.6914C51.1601 17.3057 50.9134 16.8756 50.761 16.3954L49.9985 16.6375L49.236 16.8796C49.4586 17.5807 49.8213 18.2099 50.3179 18.7617L50.9126 18.2266ZM49.9985 16.6375L50.7644 16.4065C50.609 15.891 50.5313 15.3642 50.5313 14.8234H49.7313H48.9313C48.9313 15.5202 49.0318 16.2027 49.2326 16.8685L49.9985 16.6375ZM49.7313 14.8234H50.5313C50.5313 14.2869 50.6124 13.7639 50.7751 13.2514L50.0126 13.0094L49.2501 12.7673C49.0378 13.4361 48.9313 14.1224 48.9313 14.8234H49.7313ZM50.0126 13.0094L50.7751 13.2514C50.9271 12.7727 51.1723 12.3496 51.5159 11.9755L50.9266 11.4344L50.3374 10.8933C49.8372 11.4379 49.4731 12.0648 49.2501 12.7673L50.0126 13.0094ZM50.9266 11.4344L51.5213 11.9695C51.7955 11.6648 52.1339 11.4997 52.5895 11.4737L52.5438 10.675L52.4982 9.8763C51.6413 9.92527 50.9015 10.2664 50.332 10.8992L50.9266 11.4344ZM70.5871 17.0875V17.8875H71.3871V17.0875H70.5871ZM70.5871 12.5594H71.3871V11.7594H70.5871V12.5594ZM67.2262 12.2781L67.8062 11.7271L67.7921 11.7123L67.7772 11.6981L67.2262 12.2781ZM67.2121 10.9562L67.7778 11.5219L67.2121 10.9562ZM75.8465 10.9422L76.4265 10.3912L76.4124 10.3763L76.3975 10.3622L75.8465 10.9422ZM72.4856 12.5594V11.7594H71.6856V12.5594H72.4856ZM72.4856 17.0875H71.6856V17.8875H72.4856V17.0875ZM75.8465 17.3547L76.4265 16.8037L76.4124 16.7888L76.3975 16.7747L75.8465 17.3547ZM67.2262 18.6906L67.8062 18.1396L67.7921 18.1248L67.7772 18.1106L67.2262 18.6906ZM66.9449 18.0297H67.7449C67.7449 17.9904 67.7513 17.9728 67.7534 17.9674C67.7553 17.9627 67.76 17.9522 67.7778 17.9344L67.2121 17.3687L66.6465 16.8031C66.3114 17.1381 66.1449 17.565 66.1449 18.0297H66.9449ZM67.2121 17.3687L67.7778 17.9344C67.817 17.8953 67.8392 17.8875 67.8871 17.8875V17.0875V16.2875C67.4101 16.2875 66.9823 16.4672 66.6465 16.8031L67.2121 17.3687ZM67.8871 17.0875V17.8875H70.5871V17.0875V16.2875H67.8871V17.0875ZM70.5871 17.0875H71.3871V12.5594H70.5871H69.7871V17.0875H70.5871ZM70.5871 12.5594V11.7594H67.8871V12.5594V13.3594H70.5871V12.5594ZM67.8871 12.5594V11.7594C67.8531 11.7594 67.8402 11.7538 67.8383 11.7529C67.8366 11.7522 67.826 11.748 67.8062 11.7271L67.2262 12.2781L66.6462 12.8291C66.9779 13.1783 67.4091 13.3594 67.8871 13.3594V12.5594ZM67.2262 12.2781L67.7772 11.6981C67.7563 11.6783 67.7521 11.6677 67.7514 11.6661C67.7506 11.6641 67.7449 11.6512 67.7449 11.6172H66.9449H66.1449C66.1449 12.0953 66.326 12.5264 66.6752 12.8581L67.2262 12.2781ZM66.9449 11.6172H67.7449C67.7449 11.5779 67.7513 11.5603 67.7534 11.5549C67.7553 11.5502 67.76 11.5397 67.7778 11.5219L67.2121 10.9562L66.6465 10.3906C66.3114 10.7256 66.1449 11.1525 66.1449 11.6172H66.9449ZM67.2121 10.9562L67.7778 11.5219C67.817 11.4828 67.8392 11.475 67.8871 11.475V10.675V9.875C67.4101 9.875 66.9823 10.0547 66.6465 10.3906L67.2121 10.9562ZM67.8871 10.675V11.475H75.1715V10.675V9.875H67.8871V10.675ZM75.1715 10.675V11.475C75.2324 11.475 75.2592 11.4876 75.2955 11.5222L75.8465 10.9422L76.3975 10.3622C76.0589 10.0405 75.6357 9.875 75.1715 9.875V10.675ZM75.8465 10.9422L75.2665 11.4932C75.301 11.5295 75.3137 11.5563 75.3137 11.6172H76.1137H76.9137C76.9137 11.153 76.7482 10.7298 76.4265 10.3912L75.8465 10.9422ZM76.1137 11.6172H75.3137C75.3137 11.6651 75.3059 11.6873 75.2668 11.7265L75.8324 12.2922L76.3981 12.8579C76.734 12.5221 76.9137 12.0943 76.9137 11.6172H76.1137ZM75.8324 12.2922L75.2668 11.7265C75.249 11.7443 75.2385 11.749 75.2338 11.7509C75.2284 11.7531 75.2108 11.7594 75.1715 11.7594V12.5594V13.3594C75.6362 13.3594 76.0631 13.1929 76.3981 12.8579L75.8324 12.2922ZM75.1715 12.5594V11.7594H72.4856V12.5594V13.3594H75.1715V12.5594ZM72.4856 12.5594H71.6856V17.0875H72.4856H73.2856V12.5594H72.4856ZM72.4856 17.0875V17.8875H75.1715V17.0875V16.2875H72.4856V17.0875ZM75.1715 17.0875V17.8875C75.2324 17.8875 75.2592 17.9002 75.2955 17.9347L75.8465 17.3547L76.3975 16.7747C76.0589 16.453 75.6357 16.2875 75.1715 16.2875V17.0875ZM75.8465 17.3547L75.2665 17.9057C75.301 17.942 75.3137 17.9688 75.3137 18.0297H76.1137H76.9137C76.9137 17.5655 76.7482 17.1423 76.4265 16.8037L75.8465 17.3547ZM76.1137 18.0297H75.3137C75.3137 18.0776 75.3059 18.0998 75.2668 18.139L75.8324 18.7047L76.3981 19.2704C76.734 18.9346 76.9137 18.5068 76.9137 18.0297H76.1137ZM75.8324 18.7047L75.2668 18.139C75.249 18.1568 75.2385 18.1615 75.2338 18.1634C75.2284 18.1656 75.2108 18.1719 75.1715 18.1719V18.9719V19.7719C75.6362 19.7719 76.0631 19.6054 76.3981 19.2704L75.8324 18.7047ZM75.1715 18.9719V18.1719H67.8871V18.9719V19.7719H75.1715V18.9719ZM67.8871 18.9719V18.1719C67.8531 18.1719 67.8402 18.1663 67.8383 18.1654C67.8366 18.1647 67.826 18.1605 67.8062 18.1396L67.2262 18.6906L66.6462 19.2416C66.9779 19.5908 67.4091 19.7719 67.8871 19.7719V18.9719ZM67.2262 18.6906L67.7772 18.1106C67.7563 18.0908 67.7521 18.0802 67.7514 18.0786C67.7506 18.0766 67.7449 18.0637 67.7449 18.0297H66.9449H66.1449C66.1449 18.5078 66.326 18.9389 66.6752 19.2706L67.2262 18.6906ZM82.9064 10.4641L82.7197 11.242L82.7232 11.2428L82.9064 10.4641ZM84.2705 10.9703L83.9004 11.6797L83.9127 11.6859L84.2705 10.9703ZM85.4096 11.8422L84.8141 12.3766L84.8217 12.3848L85.4096 11.8422ZM85.958 13.15H86.758V13.1278L86.7568 13.1056L85.958 13.15ZM85.958 18.2266L86.754 18.3062L86.758 18.2665V18.2266H85.958ZM85.0299 19.1406V19.9406H85.0632L85.0963 19.9379L85.0299 19.1406ZM84.3408 18.8875L83.7898 19.4675L83.8046 19.4816L83.8202 19.4949L84.3408 18.8875ZM84.0596 13.5859H84.8596V13.5602L84.8579 13.5344L84.0596 13.5859ZM83.7221 12.8687L83.1564 13.4344L83.1698 13.4479L83.1839 13.4607L83.7221 12.8687ZM83.0471 12.4047L82.7118 13.1311L82.7222 13.1357L83.0471 12.4047ZM82.2736 12.1516L82.106 12.9338L82.1115 12.935L82.2736 12.1516ZM80.6564 12.1516L80.4944 11.3681L80.4888 11.3693L80.6564 12.1516ZM79.883 12.4047L79.5581 11.6736L79.5478 11.6783L79.883 12.4047ZM79.208 12.8687L79.7597 13.4481L79.7604 13.4474L79.208 12.8687ZM78.8846 13.5859L78.0862 13.5344L78.0846 13.5602V13.5859H78.8846ZM78.8846 18.2266L79.6818 18.293L79.6846 18.2598V18.2266H78.8846ZM77.9705 19.1406V19.9406H78.0038L78.0369 19.9379L77.9705 19.1406ZM77.2814 18.8875L76.7304 19.4675L76.7453 19.4816L76.7608 19.4949L77.2814 18.8875ZM77.0002 13.15L76.2014 13.1056L76.2002 13.1278V13.15H77.0002ZM78.6736 10.9703L79.0315 11.686L79.0437 11.6796L78.6736 10.9703ZM80.0236 10.4641L79.8404 9.68532L79.8369 9.68615L80.0236 10.4641ZM81.4721 10.2953V11.0953C81.8974 11.0953 82.3128 11.1443 82.7197 11.242L82.9064 10.4641L83.0931 9.68615C82.5625 9.55881 82.0217 9.49531 81.4721 9.49531V10.2953ZM82.9064 10.4641L82.7232 11.2428C83.137 11.3402 83.5289 11.4857 83.9004 11.6796L84.2705 10.9703L84.6406 10.261C84.1496 10.0049 83.6321 9.81295 83.0897 9.68533L82.9064 10.4641ZM84.2705 10.9703L83.9127 11.6859C84.2524 11.8557 84.5519 12.0842 84.8142 12.3765L85.4096 11.8422L86.005 11.3079C85.611 10.8689 85.1511 10.5162 84.6283 10.2548L84.2705 10.9703ZM85.4096 11.8422L84.8217 12.3848C85.0306 12.6111 85.1412 12.8698 85.1592 13.1944L85.958 13.15L86.7568 13.1056C86.7186 12.4177 86.4635 11.8045 85.9974 11.2996L85.4096 11.8422ZM85.958 13.15H85.158V13.7406H85.958H86.758V13.15H85.958ZM85.958 13.7406H85.158V18.2266H85.958H86.758V13.7406H85.958ZM85.958 18.2266L85.162 18.147C85.1467 18.2993 85.1083 18.3209 85.1224 18.307C85.1367 18.2929 85.115 18.3308 84.9634 18.3434L85.0299 19.1406L85.0963 19.9379C85.5073 19.9036 85.9215 19.7657 86.2451 19.4469C86.5686 19.1283 86.713 18.7164 86.754 18.3062L85.958 18.2266ZM85.0299 19.1406V18.3406C84.9558 18.3406 84.9114 18.3229 84.8614 18.2801L84.3408 18.8875L83.8202 19.4949C84.164 19.7896 84.579 19.9406 85.0299 19.9406V19.1406ZM84.3408 18.8875L84.8918 18.3075C84.8709 18.2877 84.8667 18.2771 84.866 18.2754C84.8652 18.2735 84.8596 18.2606 84.8596 18.2266H84.0596H83.2596C83.2596 18.7046 83.4407 19.1358 83.7898 19.4675L84.3408 18.8875ZM84.0596 18.2266H84.8596V13.5859H84.0596H83.2596V18.2266H84.0596ZM84.0596 13.5859L84.8579 13.5344C84.8265 13.047 84.6275 12.6107 84.2602 12.2768L83.7221 12.8687L83.1839 13.4607C83.2292 13.5018 83.2552 13.5436 83.2612 13.6374L84.0596 13.5859ZM83.7221 12.8687L84.2877 12.3031C84.0218 12.0371 83.7153 11.8262 83.372 11.6736L83.0471 12.4047L82.7222 13.1357C82.8851 13.2081 83.0286 13.3066 83.1564 13.4344L83.7221 12.8687ZM83.0471 12.4047L83.3823 11.6783C83.0813 11.5394 82.7652 11.4363 82.4357 11.3682L82.2736 12.1516L82.1115 12.935C82.3258 12.9793 82.5253 13.045 82.7118 13.1311L83.0471 12.4047ZM82.2736 12.1516L82.4413 11.3693C82.123 11.3011 81.7996 11.2672 81.4721 11.2672V12.0672V12.8672C81.6883 12.8672 81.8993 12.8895 82.106 12.9338L82.2736 12.1516ZM81.4721 12.0672V11.2672C81.1446 11.2672 80.8184 11.3011 80.4944 11.3682L80.6564 12.1516L80.8185 12.935C81.0382 12.8895 81.2558 12.8672 81.4721 12.8672V12.0672ZM80.6564 12.1516L80.4888 11.3693C80.1706 11.4375 79.8601 11.5394 79.5581 11.6736L79.883 12.4047L80.2079 13.1357C80.4121 13.045 80.6173 12.9781 80.8241 12.9338L80.6564 12.1516ZM79.883 12.4047L79.5478 11.6783C79.2191 11.83 78.9216 12.0361 78.6556 12.2901L79.208 12.8687L79.7604 13.4474C79.9069 13.3076 80.0594 13.2044 80.2182 13.1311L79.883 12.4047ZM79.208 12.8687L78.6563 12.2894C78.3028 12.6261 78.1169 13.0587 78.0862 13.5344L78.8846 13.5859L79.6829 13.6374C79.6897 13.5319 79.7194 13.4864 79.7597 13.4481L79.208 12.8687ZM78.8846 13.5859H78.0846V18.2266H78.8846H79.6846V13.5859H78.8846ZM78.8846 18.2266L78.0873 18.1601C78.0747 18.3121 78.037 18.3295 78.0552 18.3113C78.0734 18.293 78.0561 18.3307 77.9041 18.3434L77.9705 19.1406L78.0369 19.9379C78.4474 19.9037 78.8636 19.7656 79.1866 19.4426C79.5095 19.1197 79.6476 18.7035 79.6818 18.293L78.8846 18.2266ZM77.9705 19.1406V18.3406C77.8964 18.3406 77.852 18.3229 77.8021 18.2801L77.2814 18.8875L76.7608 19.4949C77.1046 19.7896 77.5196 19.9406 77.9705 19.9406V19.1406ZM77.2814 18.8875L77.8324 18.3075C77.8116 18.2877 77.8073 18.2771 77.8066 18.2754C77.8058 18.2735 77.8002 18.2606 77.8002 18.2266H77.0002H76.2002C76.2002 18.7046 76.3813 19.1358 76.7304 19.4675L77.2814 18.8875ZM77.0002 18.2266H77.8002V13.7406H77.0002H76.2002V18.2266H77.0002ZM77.0002 13.7406H77.8002V13.15H77.0002H76.2002V13.7406H77.0002ZM77.0002 13.15L77.799 13.1944C77.8173 12.8635 77.9275 12.6021 78.13 12.3765L77.5346 11.8422L76.9392 11.3079C76.4853 11.8135 76.2393 12.424 76.2014 13.1056L77.0002 13.15ZM77.5346 11.8422L78.13 12.3765C78.3923 12.0842 78.6918 11.8557 79.0314 11.6859L78.6736 10.9703L78.3159 10.2548C77.793 10.5162 77.3331 10.8689 76.9392 11.3079L77.5346 11.8422ZM78.6736 10.9703L79.0437 11.6796C79.4174 11.4846 79.8059 11.339 80.2103 11.242L80.0236 10.4641L79.8369 9.68615C79.3039 9.81408 78.7924 10.006 78.3036 10.261L78.6736 10.9703ZM80.0236 10.4641L80.2069 11.2428C80.6254 11.1443 81.0467 11.0953 81.4721 11.0953V10.2953V9.49531C80.9224 9.49531 80.3781 9.55881 79.8404 9.68533L80.0236 10.4641Z" fill="#F75049" fill-opacity="0.3" mask="url(#path-2-outside-1_181_74)"/>
</svg>
