<svg width="157" height="47" viewBox="0 0 157 47" fill="none" xmlns="http://www.w3.org/2000/svg">
<path d="M156.038 1.31995L155.947 38.5787L153.473 43.233L151.893 46.0397H1.91995V1.31995H156.038Z" stroke="#F75049" stroke-opacity="0.3" stroke-width="1.92"/>
<path d="M19.0093 29.5052C18.9249 30.349 18.4608 30.806 17.6171 30.8763C17.2233 30.8763 16.8788 30.7498 16.5835 30.4966C16.3022 30.2294 16.1616 29.899 16.1616 29.5052V19.5068C16.1757 19.113 16.3233 18.7896 16.6046 18.5365C16.8858 18.2693 17.2233 18.1357 17.6171 18.1357H18.6507H21.2452H26.4554C26.5397 18.1357 26.6241 18.1427 26.7085 18.1568H26.835C27.8194 18.1849 28.628 18.4099 29.2608 18.8318C29.8936 19.2537 30.3507 19.7388 30.6319 20.2873C30.9132 20.8216 31.0538 21.363 31.0538 21.9115C31.0538 22.474 30.9132 23.0294 30.6319 23.5779C30.3647 24.1123 29.9077 24.5904 29.2608 25.0123C28.628 25.4341 27.8194 25.6591 26.835 25.6873H23.1225C23.235 26.3904 23.4671 26.9107 23.8186 27.2482C24.1561 27.5857 24.585 27.7544 25.1054 27.7544H29.6616C30.0554 27.7685 30.3788 27.9162 30.6319 28.1974C30.8991 28.4787 31.0327 28.8162 31.0327 29.2099C31.0186 29.5896 30.878 29.913 30.6108 30.1802C30.3577 30.4334 30.0413 30.5669 29.6616 30.581H24.7257C23.685 30.5951 22.7429 30.1873 21.8991 29.3576C21.0554 28.5279 20.5421 27.5435 20.3593 26.4044C20.1061 25.1388 19.9796 24.4287 19.9796 24.274C19.9796 23.8802 20.1132 23.5498 20.3804 23.2826C20.6616 23.0013 20.9991 22.8607 21.3929 22.8607H26.9616C27.2288 22.8466 27.4468 22.7904 27.6155 22.6919C27.7983 22.5794 27.9319 22.4599 28.0163 22.3334C28.1007 22.1927 28.1429 22.0521 28.1429 21.9115C28.1429 21.7709 28.1007 21.6373 28.0163 21.5107C27.9319 21.3701 27.7983 21.2505 27.6155 21.1521C27.4468 21.0396 27.2288 20.9763 26.9616 20.9623H21.2452H19.5577C19.1921 20.9763 19.0093 21.1591 19.0093 21.5107V29.5052ZM36.3914 18.1357H37.3617H44.5335C44.9273 18.1498 45.2507 18.2974 45.5039 18.5787C45.771 18.8599 45.9046 19.1974 45.9046 19.5912C45.8343 20.4349 45.3773 20.8919 44.5335 20.9623H37.1085C36.5742 20.9904 36.1312 21.1943 35.7796 21.574C35.4281 21.9537 35.1679 22.3896 34.9992 22.8818C34.8445 23.3599 34.7671 23.8521 34.7671 24.3584C34.7671 24.8646 34.8445 25.3638 34.9992 25.856C35.1679 26.3341 35.4281 26.763 35.7796 27.1427C36.1312 27.5224 36.5742 27.7263 37.1085 27.7544H44.5335C44.9273 27.7685 45.2507 27.9162 45.5039 28.1974C45.771 28.4787 45.9046 28.8162 45.9046 29.2099C45.8906 29.5896 45.7499 29.913 45.4828 30.1802C45.2296 30.4334 44.9132 30.5669 44.5335 30.581H36.7921H36.3914C35.407 30.5248 34.5914 30.1521 33.9445 29.463C33.3117 28.7599 32.8546 27.9654 32.5734 27.0794C32.3062 26.1935 32.1726 25.2865 32.1726 24.3584C32.1726 23.4302 32.3132 22.5232 32.5945 21.6373C32.8757 20.7513 33.3328 19.9638 33.9656 19.2748C34.5984 18.5716 35.407 18.1919 36.3914 18.1357ZM45.8624 24.274C45.8624 24.6677 45.7218 24.9982 45.4406 25.2654C45.1734 25.5466 44.8429 25.6873 44.4492 25.6873H38.0789C37.6851 25.6873 37.3476 25.5537 37.0664 25.2865C36.7992 25.0052 36.6656 24.6677 36.6656 24.274C36.6656 23.8802 36.7992 23.5427 37.0664 23.2615C37.3476 22.9943 37.6851 22.8607 38.0789 22.8607H44.4492C44.8429 22.8607 45.1734 23.0013 45.4406 23.2826C45.7218 23.5498 45.8624 23.8802 45.8624 24.274ZM51.1578 18.1357H60.0594C60.4531 18.1498 60.7766 18.2974 61.0297 18.5787C61.2969 18.8599 61.4305 19.1974 61.4305 19.5912C61.3602 20.4349 60.9031 20.8919 60.0594 20.9623H51.875C51.3406 20.9904 50.8977 21.1943 50.5461 21.574C50.1945 21.9537 49.9344 22.3896 49.7656 22.8818C49.6109 23.3599 49.5336 23.8521 49.5336 24.3584C49.5336 24.8646 49.6109 25.3638 49.7656 25.856C49.9344 26.3341 50.1945 26.763 50.5461 27.1427C50.8977 27.5224 51.3406 27.7263 51.875 27.7544H58.2875C58.5406 27.7404 58.6742 27.5998 58.6883 27.3326V26.1091C58.6742 25.8279 58.5406 25.6873 58.2875 25.6873H52.8875C52.4938 25.6873 52.1563 25.5537 51.875 25.2865C51.6078 25.0052 51.4742 24.6677 51.4742 24.274C51.4742 23.8802 51.6078 23.5427 51.875 23.2615C52.1563 22.9943 52.4938 22.8607 52.8875 22.8607H60.1016C60.4953 22.8607 60.8328 22.9943 61.1141 23.2615C61.3672 23.5287 61.5008 23.8521 61.5149 24.2318V24.274V29.2099C61.5008 29.5896 61.3672 29.906 61.1141 30.1591C60.8469 30.4263 60.5234 30.5669 60.1438 30.581H51.1578C50.1734 30.5248 49.3578 30.1521 48.7109 29.463C48.0781 28.7599 47.6211 27.9654 47.3399 27.0794C47.0727 26.1935 46.9391 25.2865 46.9391 24.3584C46.9391 23.4302 47.0797 22.5232 47.3609 21.6373C47.6422 20.7513 48.0992 19.9638 48.732 19.2748C49.3649 18.5716 50.1734 18.1919 51.1578 18.1357ZM62.8235 29.1677C62.8235 28.774 62.9571 28.4435 63.2243 28.1763C63.5055 27.8951 63.843 27.7544 64.2368 27.7544H68.2868V20.9623H64.2368C63.843 20.9623 63.5126 20.8216 63.2454 20.5404C62.9641 20.2732 62.8235 19.9427 62.8235 19.549C62.8235 19.1552 62.9571 18.8248 63.2243 18.5576C63.5055 18.2763 63.843 18.1357 64.2368 18.1357H75.1634C75.5571 18.1357 75.8946 18.2693 76.1759 18.5365C76.443 18.8177 76.5766 19.1552 76.5766 19.549C76.5766 19.9427 76.436 20.2802 76.1548 20.5615C75.8876 20.8287 75.5571 20.9623 75.1634 20.9623H71.1344V27.7544H75.1634C75.5571 27.7544 75.8946 27.888 76.1759 28.1552C76.443 28.4365 76.5766 28.774 76.5766 29.1677C76.5766 29.5615 76.436 29.899 76.1548 30.1802C75.8876 30.4474 75.5571 30.581 75.1634 30.581H64.2368C63.843 30.581 63.5126 30.4404 63.2454 30.1591C62.9641 29.8919 62.8235 29.5615 62.8235 29.1677ZM91.5329 19.549C91.5329 19.9427 91.3923 20.2732 91.1111 20.5404C90.8439 20.8216 90.5134 20.9623 90.1197 20.9623H81.6822C81.415 20.9763 81.19 21.0396 81.0072 21.1521C80.8384 21.2505 80.7119 21.3701 80.6275 21.5107C80.5431 21.6373 80.5009 21.7709 80.5009 21.9115C80.5009 22.0521 80.5431 22.1927 80.6275 22.3334C80.7119 22.4599 80.8384 22.5794 81.0072 22.6919C81.19 22.7904 81.415 22.8466 81.6822 22.8607H87.6728C88.6572 22.8888 89.4658 23.1209 90.0986 23.5568C90.7454 23.9787 91.2025 24.4709 91.4697 25.0334C91.7509 25.5818 91.8915 26.1443 91.8915 26.7209C91.8915 27.2834 91.7509 27.8459 91.4697 28.4084C91.1884 28.9568 90.7314 29.449 90.0986 29.8849C89.4658 30.3068 88.6572 30.5177 87.6728 30.5177H87.5462C87.4619 30.5318 87.3775 30.5388 87.2931 30.5388H79.3197C78.9259 30.5388 78.5884 30.4052 78.3072 30.138C78.04 29.8568 77.9064 29.5193 77.9064 29.1255C77.9064 28.7318 78.047 28.4013 78.3283 28.1341C78.5954 27.8529 78.9259 27.7123 79.3197 27.7123H87.7994C88.0665 27.7263 88.2845 27.6771 88.4533 27.5646C88.6361 27.4521 88.7697 27.3255 88.854 27.1849C88.9384 27.0302 88.9806 26.8755 88.9806 26.7209C88.9806 26.6224 88.9384 26.4888 88.854 26.3201C88.7697 26.1373 88.6361 25.9896 88.4533 25.8771C88.2845 25.7646 88.0665 25.7013 87.7994 25.6873H81.8087C80.8244 25.6591 80.0087 25.4341 79.3619 25.0123C78.729 24.5904 78.272 24.1123 77.9908 23.5779C77.7236 23.0294 77.59 22.474 77.59 21.9115C77.59 21.363 77.7306 20.8216 78.0119 20.2873C78.2931 19.7388 78.7501 19.2537 79.3829 18.8318C80.0158 18.4099 80.8244 18.1849 81.8087 18.1568H81.9353C82.0197 18.1427 82.104 18.1357 82.1884 18.1357H90.1197C90.5134 18.1357 90.8439 18.2763 91.1111 18.5576C91.3923 18.8248 91.5329 19.1552 91.5329 19.549ZM92.9893 19.549C92.9893 19.1552 93.1229 18.8248 93.39 18.5576C93.6713 18.2763 94.0088 18.1357 94.4025 18.1357H106.679C107.073 18.1357 107.41 18.2693 107.692 18.5365C107.959 18.8177 108.092 19.1552 108.092 19.549C108.092 19.9427 107.952 20.2802 107.671 20.5615C107.403 20.8287 107.073 20.9623 106.679 20.9623H101.975V29.5052C101.891 30.349 101.427 30.806 100.583 30.8763C100.189 30.8763 99.8447 30.7498 99.5494 30.4966C99.2682 30.2294 99.1275 29.899 99.1275 29.5052V20.9623H94.4025C94.0088 20.9623 93.6783 20.8216 93.4111 20.5404C93.1299 20.2732 92.9893 19.9427 92.9893 19.549ZM113.367 18.1357H114.337H121.509C121.903 18.1498 122.226 18.2974 122.479 18.5787C122.746 18.8599 122.88 19.1974 122.88 19.5912C122.81 20.4349 122.353 20.8919 121.509 20.9623H114.084C113.549 20.9904 113.107 21.1943 112.755 21.574C112.403 21.9537 112.143 22.3896 111.974 22.8818C111.82 23.3599 111.742 23.8521 111.742 24.3584C111.742 24.8646 111.82 25.3638 111.974 25.856C112.143 26.3341 112.403 26.763 112.755 27.1427C113.107 27.5224 113.549 27.7263 114.084 27.7544H121.509C121.903 27.7685 122.226 27.9162 122.479 28.1974C122.746 28.4787 122.88 28.8162 122.88 29.2099C122.866 29.5896 122.725 29.913 122.458 30.1802C122.205 30.4334 121.889 30.5669 121.509 30.581H113.767H113.367C112.382 30.5248 111.567 30.1521 110.92 29.463C110.287 28.7599 109.83 27.9654 109.549 27.0794C109.282 26.1935 109.148 25.2865 109.148 24.3584C109.148 23.4302 109.289 22.5232 109.57 21.6373C109.851 20.7513 110.308 19.9638 110.941 19.2748C111.574 18.5716 112.382 18.1919 113.367 18.1357ZM122.838 24.274C122.838 24.6677 122.697 24.9982 122.416 25.2654C122.149 25.5466 121.818 25.6873 121.424 25.6873H115.054C114.66 25.6873 114.323 25.5537 114.042 25.2865C113.774 25.0052 113.641 24.6677 113.641 24.274C113.641 23.8802 113.774 23.5427 114.042 23.2615C114.323 22.9943 114.66 22.8607 115.054 22.8607H121.424C121.818 22.8607 122.149 23.0013 122.416 23.2826C122.697 23.5498 122.838 23.8802 122.838 24.274ZM126.973 29.5052C126.889 30.349 126.425 30.806 125.581 30.8763C125.187 30.8763 124.843 30.7498 124.547 30.4966C124.266 30.2294 124.125 29.899 124.125 29.5052V19.5068C124.139 19.113 124.287 18.7896 124.568 18.5365C124.85 18.2693 125.187 18.1357 125.581 18.1357H126.614H129.209H134.419C134.503 18.1357 134.588 18.1427 134.672 18.1568H134.799C135.783 18.1849 136.592 18.4099 137.225 18.8318C137.857 19.2537 138.314 19.7388 138.596 20.2873C138.877 20.8216 139.018 21.363 139.018 21.9115C139.018 22.474 138.877 23.0294 138.596 23.5779C138.328 24.1123 137.871 24.5904 137.225 25.0123C136.592 25.4341 135.783 25.6591 134.799 25.6873H131.086C131.199 26.3904 131.431 26.9107 131.782 27.2482C132.12 27.5857 132.549 27.7544 133.069 27.7544H137.625C138.019 27.7685 138.343 27.9162 138.596 28.1974C138.863 28.4787 138.996 28.8162 138.996 29.2099C138.982 29.5896 138.842 29.913 138.575 30.1802C138.321 30.4334 138.005 30.5669 137.625 30.581H132.689C131.649 30.5951 130.707 30.1873 129.863 29.3576C129.019 28.5279 128.506 27.5435 128.323 26.4044C128.07 25.1388 127.943 24.4287 127.943 24.274C127.943 23.8802 128.077 23.5498 128.344 23.2826C128.625 23.0013 128.963 22.8607 129.357 22.8607H134.925C135.193 22.8466 135.41 22.7904 135.579 22.6919C135.762 22.5794 135.896 22.4599 135.98 22.3334C136.064 22.1927 136.107 22.0521 136.107 21.9115C136.107 21.7709 136.064 21.6373 135.98 21.5107C135.896 21.3701 135.762 21.2505 135.579 21.1521C135.41 21.0396 135.193 20.9763 134.925 20.9623H129.209H127.521C127.156 20.9763 126.973 21.1591 126.973 21.5107V29.5052Z" fill="#F75049"/>
</svg>
