<svg width="116" height="31" viewBox="0 0 116 31" fill="none" xmlns="http://www.w3.org/2000/svg">
<path d="M114.518 0.639648L114.451 25.0234L112.625 28.0713L111.453 29.9199H0.639648V0.639648H114.518Z" stroke="#F75049" stroke-opacity="0.3" stroke-width="1.28"/>
<mask id="path-2-outside-1_181_78" maskUnits="userSpaceOnUse" x="12" y="9" width="91" height="11" fill="black">
<rect fill="white" x="12" y="9" width="91" height="11"/>
<path d="M15.5291 18.2547C15.4728 18.8172 15.1634 19.1219 14.6009 19.1688C14.3384 19.1688 14.1088 19.0844 13.9119 18.9156C13.7244 18.7375 13.6306 18.5172 13.6306 18.2547V11.5891C13.64 11.3266 13.7384 11.1109 13.9259 10.9422C14.1134 10.7641 14.3384 10.675 14.6009 10.675H15.29H17.0197H20.4931C20.5494 10.675 20.6056 10.6797 20.6619 10.6891H20.7463C21.4025 10.7078 21.9416 10.8578 22.3634 11.1391C22.7853 11.4203 23.09 11.7437 23.2775 12.1094C23.465 12.4656 23.5588 12.8266 23.5588 13.1922C23.5588 13.5672 23.465 13.9375 23.2775 14.3031C23.0994 14.6594 22.7947 14.9781 22.3634 15.2594C21.9416 15.5406 21.4025 15.6906 20.7463 15.7094H18.2713C18.3463 16.1781 18.5009 16.525 18.7353 16.75C18.9603 16.975 19.2463 17.0875 19.5931 17.0875H22.6306C22.8931 17.0969 23.1088 17.1953 23.2775 17.3828C23.4556 17.5703 23.5447 17.7953 23.5447 18.0578C23.5353 18.3109 23.4416 18.5266 23.2634 18.7047C23.0947 18.8734 22.8838 18.9625 22.6306 18.9719H19.34C18.6463 18.9812 18.0181 18.7094 17.4556 18.1562C16.8931 17.6031 16.5509 16.9469 16.4291 16.1875C16.2603 15.3437 16.1759 14.8703 16.1759 14.7672C16.1759 14.5047 16.265 14.2844 16.4431 14.1062C16.6306 13.9187 16.8556 13.825 17.1181 13.825H20.8306C21.0088 13.8156 21.1541 13.7781 21.2666 13.7125C21.3884 13.6375 21.4775 13.5578 21.5338 13.4734C21.59 13.3797 21.6181 13.2859 21.6181 13.1922C21.6181 13.0984 21.59 13.0094 21.5338 12.925C21.4775 12.8312 21.3884 12.7516 21.2666 12.6859C21.1541 12.6109 21.0088 12.5687 20.8306 12.5594H17.0197H15.8947C15.6509 12.5687 15.5291 12.6906 15.5291 12.925V18.2547ZM27.9811 10.675H28.628H33.4093C33.6718 10.6844 33.8874 10.7828 34.0561 10.9703C34.2343 11.1578 34.3233 11.3828 34.3233 11.6453C34.2764 12.2078 33.9718 12.5125 33.4093 12.5594H28.4593C28.103 12.5781 27.8077 12.7141 27.5733 12.9672C27.3389 13.2203 27.1655 13.5109 27.053 13.8391C26.9499 14.1578 26.8983 14.4859 26.8983 14.8234C26.8983 15.1609 26.9499 15.4937 27.053 15.8219C27.1655 16.1406 27.3389 16.4266 27.5733 16.6797C27.8077 16.9328 28.103 17.0687 28.4593 17.0875H33.4093C33.6718 17.0969 33.8874 17.1953 34.0561 17.3828C34.2343 17.5703 34.3233 17.7953 34.3233 18.0578C34.3139 18.3109 34.2202 18.5266 34.0421 18.7047C33.8733 18.8734 33.6624 18.9625 33.4093 18.9719H28.2483H27.9811C27.3249 18.9344 26.7811 18.6859 26.3499 18.2266C25.928 17.7578 25.6233 17.2281 25.4358 16.6375C25.2577 16.0469 25.1686 15.4422 25.1686 14.8234C25.1686 14.2047 25.2624 13.6 25.4499 13.0094C25.6374 12.4187 25.9421 11.8937 26.3639 11.4344C26.7858 10.9656 27.3249 10.7125 27.9811 10.675ZM34.2952 14.7672C34.2952 15.0297 34.2014 15.25 34.0139 15.4281C33.8358 15.6156 33.6155 15.7094 33.353 15.7094H29.1061C28.8436 15.7094 28.6186 15.6203 28.4311 15.4422C28.253 15.2547 28.1639 15.0297 28.1639 14.7672C28.1639 14.5047 28.253 14.2797 28.4311 14.0922C28.6186 13.9141 28.8436 13.825 29.1061 13.825H33.353C33.6155 13.825 33.8358 13.9187 34.0139 14.1062C34.2014 14.2844 34.2952 14.5047 34.2952 14.7672ZM38.6894 10.675H44.6238C44.8863 10.6844 45.1019 10.7828 45.2707 10.9703C45.4488 11.1578 45.5379 11.3828 45.5379 11.6453C45.491 12.2078 45.1863 12.5125 44.6238 12.5594H39.1676C38.8113 12.5781 38.516 12.7141 38.2816 12.9672C38.0473 13.2203 37.8738 13.5109 37.7613 13.8391C37.6582 14.1578 37.6066 14.4859 37.6066 14.8234C37.6066 15.1609 37.6582 15.4937 37.7613 15.8219C37.8738 16.1406 38.0473 16.4266 38.2816 16.6797C38.516 16.9328 38.8113 17.0687 39.1676 17.0875H43.4426C43.6113 17.0781 43.7004 16.9844 43.7098 16.8062V15.9906C43.7004 15.8031 43.6113 15.7094 43.4426 15.7094H39.8426C39.5801 15.7094 39.3551 15.6203 39.1676 15.4422C38.9894 15.2547 38.9004 15.0297 38.9004 14.7672C38.9004 14.5047 38.9894 14.2797 39.1676 14.0922C39.3551 13.9141 39.5801 13.825 39.8426 13.825H44.6519C44.9144 13.825 45.1394 13.9141 45.3269 14.0922C45.4957 14.2703 45.5848 14.4859 45.5941 14.7391V14.7672V18.0578C45.5848 18.3109 45.4957 18.5219 45.3269 18.6906C45.1488 18.8687 44.9332 18.9625 44.6801 18.9719H38.6894C38.0332 18.9344 37.4894 18.6859 37.0582 18.2266C36.6363 17.7578 36.3316 17.2281 36.1441 16.6375C35.966 16.0469 35.8769 15.4422 35.8769 14.8234C35.8769 14.2047 35.9707 13.6 36.1582 13.0094C36.3457 12.4187 36.6504 11.8937 37.0723 11.4344C37.4941 10.9656 38.0332 10.7125 38.6894 10.675ZM47.3306 18.0297C47.3306 17.7672 47.4196 17.5469 47.5978 17.3687C47.7853 17.1812 48.0103 17.0875 48.2728 17.0875H50.9728V12.5594H48.2728C48.0103 12.5594 47.7899 12.4656 47.6118 12.2781C47.4243 12.1 47.3306 11.8797 47.3306 11.6172C47.3306 11.3547 47.4196 11.1344 47.5978 10.9562C47.7853 10.7687 48.0103 10.675 48.2728 10.675H55.5571C55.8196 10.675 56.0446 10.7641 56.2321 10.9422C56.4103 11.1297 56.4993 11.3547 56.4993 11.6172C56.4993 11.8797 56.4056 12.1047 56.2181 12.2922C56.0399 12.4703 55.8196 12.5594 55.5571 12.5594H52.8712V17.0875H55.5571C55.8196 17.0875 56.0446 17.1766 56.2321 17.3547C56.4103 17.5422 56.4993 17.7672 56.4993 18.0297C56.4993 18.2922 56.4056 18.5172 56.2181 18.7047C56.0399 18.8828 55.8196 18.9719 55.5571 18.9719H48.2728C48.0103 18.9719 47.7899 18.8781 47.6118 18.6906C47.4243 18.5125 47.3306 18.2922 47.3306 18.0297ZM67.3342 11.6172C67.3342 11.8797 67.2404 12.1 67.0529 12.2781C66.8748 12.4656 66.6545 12.5594 66.392 12.5594H60.767C60.5889 12.5687 60.4389 12.6109 60.317 12.6859C60.2045 12.7516 60.1201 12.8312 60.0639 12.925C60.0076 13.0094 59.9795 13.0984 59.9795 13.1922C59.9795 13.2859 60.0076 13.3797 60.0639 13.4734C60.1201 13.5578 60.2045 13.6375 60.317 13.7125C60.4389 13.7781 60.5889 13.8156 60.767 13.825H64.7608C65.417 13.8437 65.9561 13.9984 66.3779 14.2891C66.8092 14.5703 67.1139 14.8984 67.292 15.2734C67.4795 15.6391 67.5733 16.0141 67.5733 16.3984C67.5733 16.7734 67.4795 17.1484 67.292 17.5234C67.1045 17.8891 66.7998 18.2172 66.3779 18.5078C65.9561 18.7891 65.417 18.9297 64.7608 18.9297H64.6764C64.6201 18.9391 64.5639 18.9437 64.5076 18.9437H59.192C58.9295 18.9437 58.7045 18.8547 58.517 18.6766C58.3389 18.4891 58.2498 18.2641 58.2498 18.0016C58.2498 17.7391 58.3436 17.5187 58.5311 17.3406C58.7092 17.1531 58.9295 17.0594 59.192 17.0594H64.8451C65.0233 17.0687 65.1686 17.0359 65.2811 16.9609C65.4029 16.8859 65.492 16.8016 65.5483 16.7078C65.6045 16.6047 65.6326 16.5016 65.6326 16.3984C65.6326 16.3328 65.6045 16.2437 65.5483 16.1312C65.492 16.0094 65.4029 15.9109 65.2811 15.8359C65.1686 15.7609 65.0233 15.7187 64.8451 15.7094H60.8514C60.1951 15.6906 59.6514 15.5406 59.2201 15.2594C58.7983 14.9781 58.4936 14.6594 58.3061 14.3031C58.1279 13.9375 58.0389 13.5672 58.0389 13.1922C58.0389 12.8266 58.1326 12.4656 58.3201 12.1094C58.5076 11.7437 58.8123 11.4203 59.2342 11.1391C59.6561 10.8578 60.1951 10.7078 60.8514 10.6891H60.9358C60.992 10.6797 61.0483 10.675 61.1045 10.675H66.392C66.6545 10.675 66.8748 10.7687 67.0529 10.9562C67.2404 11.1344 67.3342 11.3547 67.3342 11.6172ZM69.1691 11.6172C69.1691 11.3547 69.2581 11.1344 69.4363 10.9562C69.6238 10.7687 69.8488 10.675 70.1113 10.675H78.2956C78.5581 10.675 78.7831 10.7641 78.9706 10.9422C79.1488 11.1297 79.2378 11.3547 79.2378 11.6172C79.2378 11.8797 79.1441 12.1047 78.9566 12.2922C78.7784 12.4703 78.5581 12.5594 78.2956 12.5594H75.1597V18.2547C75.1034 18.8172 74.7941 19.1219 74.2316 19.1688C73.9691 19.1688 73.7394 19.0844 73.5425 18.9156C73.355 18.7375 73.2613 18.5172 73.2613 18.2547V12.5594H70.1113C69.8488 12.5594 69.6284 12.4656 69.4503 12.2781C69.2628 12.1 69.1691 11.8797 69.1691 11.6172ZM83.618 10.675H84.2649H89.0461C89.3086 10.6844 89.5243 10.7828 89.693 10.9703C89.8711 11.1578 89.9602 11.3828 89.9602 11.6453C89.9133 12.2078 89.6086 12.5125 89.0461 12.5594H84.0961C83.7399 12.5781 83.4446 12.7141 83.2102 12.9672C82.9758 13.2203 82.8024 13.5109 82.6899 13.8391C82.5868 14.1578 82.5352 14.4859 82.5352 14.8234C82.5352 15.1609 82.5868 15.4937 82.6899 15.8219C82.8024 16.1406 82.9758 16.4266 83.2102 16.6797C83.4446 16.9328 83.7399 17.0687 84.0961 17.0875H89.0461C89.3086 17.0969 89.5243 17.1953 89.693 17.3828C89.8711 17.5703 89.9602 17.7953 89.9602 18.0578C89.9508 18.3109 89.8571 18.5266 89.6789 18.7047C89.5102 18.8734 89.2993 18.9625 89.0461 18.9719H83.8852H83.618C82.9618 18.9344 82.418 18.6859 81.9868 18.2266C81.5649 17.7578 81.2602 17.2281 81.0727 16.6375C80.8946 16.0469 80.8055 15.4422 80.8055 14.8234C80.8055 14.2047 80.8993 13.6 81.0868 13.0094C81.2743 12.4187 81.5789 11.8937 82.0008 11.4344C82.4227 10.9656 82.9618 10.7125 83.618 10.675ZM89.9321 14.7672C89.9321 15.0297 89.8383 15.25 89.6508 15.4281C89.4727 15.6156 89.2524 15.7094 88.9899 15.7094H84.743C84.4805 15.7094 84.2555 15.6203 84.068 15.4422C83.8899 15.2547 83.8008 15.0297 83.8008 14.7672C83.8008 14.5047 83.8899 14.2797 84.068 14.0922C84.2555 13.9141 84.4805 13.825 84.743 13.825H88.9899C89.2524 13.825 89.4727 13.9187 89.6508 14.1062C89.8383 14.2844 89.9321 14.5047 89.9321 14.7672ZM93.5529 18.2547C93.4966 18.8172 93.1873 19.1219 92.6248 19.1688C92.3623 19.1688 92.1326 19.0844 91.9357 18.9156C91.7482 18.7375 91.6544 18.5172 91.6544 18.2547V11.5891C91.6638 11.3266 91.7623 11.1109 91.9498 10.9422C92.1373 10.7641 92.3623 10.675 92.6248 10.675H93.3138H95.0435H98.5169C98.5732 10.675 98.6294 10.6797 98.6857 10.6891H98.7701C99.4263 10.7078 99.9654 10.8578 100.387 11.1391C100.809 11.4203 101.114 11.7437 101.301 12.1094C101.489 12.4656 101.583 12.8266 101.583 13.1922C101.583 13.5672 101.489 13.9375 101.301 14.3031C101.123 14.6594 100.819 14.9781 100.387 15.2594C99.9654 15.5406 99.4263 15.6906 98.7701 15.7094H96.2951C96.3701 16.1781 96.5248 16.525 96.7591 16.75C96.9841 16.975 97.2701 17.0875 97.6169 17.0875H100.654C100.917 17.0969 101.133 17.1953 101.301 17.3828C101.479 17.5703 101.569 17.7953 101.569 18.0578C101.559 18.3109 101.465 18.5266 101.287 18.7047C101.119 18.8734 100.908 18.9625 100.654 18.9719H97.3638C96.6701 18.9812 96.0419 18.7094 95.4794 18.1562C94.9169 17.6031 94.5748 16.9469 94.4529 16.1875C94.2841 15.3437 94.1998 14.8703 94.1998 14.7672C94.1998 14.5047 94.2888 14.2844 94.4669 14.1062C94.6544 13.9187 94.8794 13.825 95.1419 13.825H98.8544C99.0326 13.8156 99.1779 13.7781 99.2904 13.7125C99.4123 13.6375 99.5013 13.5578 99.5576 13.4734C99.6138 13.3797 99.6419 13.2859 99.6419 13.1922C99.6419 13.0984 99.6138 13.0094 99.5576 12.925C99.5013 12.8312 99.4123 12.7516 99.2904 12.6859C99.1779 12.6109 99.0326 12.5687 98.8544 12.5594H95.0435H93.9185C93.6748 12.5687 93.5529 12.6906 93.5529 12.925V18.2547Z"/>
</mask>
<path d="M15.5291 18.2547C15.4728 18.8172 15.1634 19.1219 14.6009 19.1688C14.3384 19.1688 14.1088 19.0844 13.9119 18.9156C13.7244 18.7375 13.6306 18.5172 13.6306 18.2547V11.5891C13.64 11.3266 13.7384 11.1109 13.9259 10.9422C14.1134 10.7641 14.3384 10.675 14.6009 10.675H15.29H17.0197H20.4931C20.5494 10.675 20.6056 10.6797 20.6619 10.6891H20.7463C21.4025 10.7078 21.9416 10.8578 22.3634 11.1391C22.7853 11.4203 23.09 11.7437 23.2775 12.1094C23.465 12.4656 23.5588 12.8266 23.5588 13.1922C23.5588 13.5672 23.465 13.9375 23.2775 14.3031C23.0994 14.6594 22.7947 14.9781 22.3634 15.2594C21.9416 15.5406 21.4025 15.6906 20.7463 15.7094H18.2713C18.3463 16.1781 18.5009 16.525 18.7353 16.75C18.9603 16.975 19.2463 17.0875 19.5931 17.0875H22.6306C22.8931 17.0969 23.1088 17.1953 23.2775 17.3828C23.4556 17.5703 23.5447 17.7953 23.5447 18.0578C23.5353 18.3109 23.4416 18.5266 23.2634 18.7047C23.0947 18.8734 22.8838 18.9625 22.6306 18.9719H19.34C18.6463 18.9812 18.0181 18.7094 17.4556 18.1562C16.8931 17.6031 16.5509 16.9469 16.4291 16.1875C16.2603 15.3437 16.1759 14.8703 16.1759 14.7672C16.1759 14.5047 16.265 14.2844 16.4431 14.1062C16.6306 13.9187 16.8556 13.825 17.1181 13.825H20.8306C21.0088 13.8156 21.1541 13.7781 21.2666 13.7125C21.3884 13.6375 21.4775 13.5578 21.5338 13.4734C21.59 13.3797 21.6181 13.2859 21.6181 13.1922C21.6181 13.0984 21.59 13.0094 21.5338 12.925C21.4775 12.8312 21.3884 12.7516 21.2666 12.6859C21.1541 12.6109 21.0088 12.5687 20.8306 12.5594H17.0197H15.8947C15.6509 12.5687 15.5291 12.6906 15.5291 12.925V18.2547ZM27.9811 10.675H28.628H33.4093C33.6718 10.6844 33.8874 10.7828 34.0561 10.9703C34.2343 11.1578 34.3233 11.3828 34.3233 11.6453C34.2764 12.2078 33.9718 12.5125 33.4093 12.5594H28.4593C28.103 12.5781 27.8077 12.7141 27.5733 12.9672C27.3389 13.2203 27.1655 13.5109 27.053 13.8391C26.9499 14.1578 26.8983 14.4859 26.8983 14.8234C26.8983 15.1609 26.9499 15.4937 27.053 15.8219C27.1655 16.1406 27.3389 16.4266 27.5733 16.6797C27.8077 16.9328 28.103 17.0687 28.4593 17.0875H33.4093C33.6718 17.0969 33.8874 17.1953 34.0561 17.3828C34.2343 17.5703 34.3233 17.7953 34.3233 18.0578C34.3139 18.3109 34.2202 18.5266 34.0421 18.7047C33.8733 18.8734 33.6624 18.9625 33.4093 18.9719H28.2483H27.9811C27.3249 18.9344 26.7811 18.6859 26.3499 18.2266C25.928 17.7578 25.6233 17.2281 25.4358 16.6375C25.2577 16.0469 25.1686 15.4422 25.1686 14.8234C25.1686 14.2047 25.2624 13.6 25.4499 13.0094C25.6374 12.4187 25.9421 11.8937 26.3639 11.4344C26.7858 10.9656 27.3249 10.7125 27.9811 10.675ZM34.2952 14.7672C34.2952 15.0297 34.2014 15.25 34.0139 15.4281C33.8358 15.6156 33.6155 15.7094 33.353 15.7094H29.1061C28.8436 15.7094 28.6186 15.6203 28.4311 15.4422C28.253 15.2547 28.1639 15.0297 28.1639 14.7672C28.1639 14.5047 28.253 14.2797 28.4311 14.0922C28.6186 13.9141 28.8436 13.825 29.1061 13.825H33.353C33.6155 13.825 33.8358 13.9187 34.0139 14.1062C34.2014 14.2844 34.2952 14.5047 34.2952 14.7672ZM38.6894 10.675H44.6238C44.8863 10.6844 45.1019 10.7828 45.2707 10.9703C45.4488 11.1578 45.5379 11.3828 45.5379 11.6453C45.491 12.2078 45.1863 12.5125 44.6238 12.5594H39.1676C38.8113 12.5781 38.516 12.7141 38.2816 12.9672C38.0473 13.2203 37.8738 13.5109 37.7613 13.8391C37.6582 14.1578 37.6066 14.4859 37.6066 14.8234C37.6066 15.1609 37.6582 15.4937 37.7613 15.8219C37.8738 16.1406 38.0473 16.4266 38.2816 16.6797C38.516 16.9328 38.8113 17.0687 39.1676 17.0875H43.4426C43.6113 17.0781 43.7004 16.9844 43.7098 16.8062V15.9906C43.7004 15.8031 43.6113 15.7094 43.4426 15.7094H39.8426C39.5801 15.7094 39.3551 15.6203 39.1676 15.4422C38.9894 15.2547 38.9004 15.0297 38.9004 14.7672C38.9004 14.5047 38.9894 14.2797 39.1676 14.0922C39.3551 13.9141 39.5801 13.825 39.8426 13.825H44.6519C44.9144 13.825 45.1394 13.9141 45.3269 14.0922C45.4957 14.2703 45.5848 14.4859 45.5941 14.7391V14.7672V18.0578C45.5848 18.3109 45.4957 18.5219 45.3269 18.6906C45.1488 18.8687 44.9332 18.9625 44.6801 18.9719H38.6894C38.0332 18.9344 37.4894 18.6859 37.0582 18.2266C36.6363 17.7578 36.3316 17.2281 36.1441 16.6375C35.966 16.0469 35.8769 15.4422 35.8769 14.8234C35.8769 14.2047 35.9707 13.6 36.1582 13.0094C36.3457 12.4187 36.6504 11.8937 37.0723 11.4344C37.4941 10.9656 38.0332 10.7125 38.6894 10.675ZM47.3306 18.0297C47.3306 17.7672 47.4196 17.5469 47.5978 17.3687C47.7853 17.1812 48.0103 17.0875 48.2728 17.0875H50.9728V12.5594H48.2728C48.0103 12.5594 47.7899 12.4656 47.6118 12.2781C47.4243 12.1 47.3306 11.8797 47.3306 11.6172C47.3306 11.3547 47.4196 11.1344 47.5978 10.9562C47.7853 10.7687 48.0103 10.675 48.2728 10.675H55.5571C55.8196 10.675 56.0446 10.7641 56.2321 10.9422C56.4103 11.1297 56.4993 11.3547 56.4993 11.6172C56.4993 11.8797 56.4056 12.1047 56.2181 12.2922C56.0399 12.4703 55.8196 12.5594 55.5571 12.5594H52.8712V17.0875H55.5571C55.8196 17.0875 56.0446 17.1766 56.2321 17.3547C56.4103 17.5422 56.4993 17.7672 56.4993 18.0297C56.4993 18.2922 56.4056 18.5172 56.2181 18.7047C56.0399 18.8828 55.8196 18.9719 55.5571 18.9719H48.2728C48.0103 18.9719 47.7899 18.8781 47.6118 18.6906C47.4243 18.5125 47.3306 18.2922 47.3306 18.0297ZM67.3342 11.6172C67.3342 11.8797 67.2404 12.1 67.0529 12.2781C66.8748 12.4656 66.6545 12.5594 66.392 12.5594H60.767C60.5889 12.5687 60.4389 12.6109 60.317 12.6859C60.2045 12.7516 60.1201 12.8312 60.0639 12.925C60.0076 13.0094 59.9795 13.0984 59.9795 13.1922C59.9795 13.2859 60.0076 13.3797 60.0639 13.4734C60.1201 13.5578 60.2045 13.6375 60.317 13.7125C60.4389 13.7781 60.5889 13.8156 60.767 13.825H64.7608C65.417 13.8437 65.9561 13.9984 66.3779 14.2891C66.8092 14.5703 67.1139 14.8984 67.292 15.2734C67.4795 15.6391 67.5733 16.0141 67.5733 16.3984C67.5733 16.7734 67.4795 17.1484 67.292 17.5234C67.1045 17.8891 66.7998 18.2172 66.3779 18.5078C65.9561 18.7891 65.417 18.9297 64.7608 18.9297H64.6764C64.6201 18.9391 64.5639 18.9437 64.5076 18.9437H59.192C58.9295 18.9437 58.7045 18.8547 58.517 18.6766C58.3389 18.4891 58.2498 18.2641 58.2498 18.0016C58.2498 17.7391 58.3436 17.5187 58.5311 17.3406C58.7092 17.1531 58.9295 17.0594 59.192 17.0594H64.8451C65.0233 17.0687 65.1686 17.0359 65.2811 16.9609C65.4029 16.8859 65.492 16.8016 65.5483 16.7078C65.6045 16.6047 65.6326 16.5016 65.6326 16.3984C65.6326 16.3328 65.6045 16.2437 65.5483 16.1312C65.492 16.0094 65.4029 15.9109 65.2811 15.8359C65.1686 15.7609 65.0233 15.7187 64.8451 15.7094H60.8514C60.1951 15.6906 59.6514 15.5406 59.2201 15.2594C58.7983 14.9781 58.4936 14.6594 58.3061 14.3031C58.1279 13.9375 58.0389 13.5672 58.0389 13.1922C58.0389 12.8266 58.1326 12.4656 58.3201 12.1094C58.5076 11.7437 58.8123 11.4203 59.2342 11.1391C59.6561 10.8578 60.1951 10.7078 60.8514 10.6891H60.9358C60.992 10.6797 61.0483 10.675 61.1045 10.675H66.392C66.6545 10.675 66.8748 10.7687 67.0529 10.9562C67.2404 11.1344 67.3342 11.3547 67.3342 11.6172ZM69.1691 11.6172C69.1691 11.3547 69.2581 11.1344 69.4363 10.9562C69.6238 10.7687 69.8488 10.675 70.1113 10.675H78.2956C78.5581 10.675 78.7831 10.7641 78.9706 10.9422C79.1488 11.1297 79.2378 11.3547 79.2378 11.6172C79.2378 11.8797 79.1441 12.1047 78.9566 12.2922C78.7784 12.4703 78.5581 12.5594 78.2956 12.5594H75.1597V18.2547C75.1034 18.8172 74.7941 19.1219 74.2316 19.1688C73.9691 19.1688 73.7394 19.0844 73.5425 18.9156C73.355 18.7375 73.2613 18.5172 73.2613 18.2547V12.5594H70.1113C69.8488 12.5594 69.6284 12.4656 69.4503 12.2781C69.2628 12.1 69.1691 11.8797 69.1691 11.6172ZM83.618 10.675H84.2649H89.0461C89.3086 10.6844 89.5243 10.7828 89.693 10.9703C89.8711 11.1578 89.9602 11.3828 89.9602 11.6453C89.9133 12.2078 89.6086 12.5125 89.0461 12.5594H84.0961C83.7399 12.5781 83.4446 12.7141 83.2102 12.9672C82.9758 13.2203 82.8024 13.5109 82.6899 13.8391C82.5868 14.1578 82.5352 14.4859 82.5352 14.8234C82.5352 15.1609 82.5868 15.4937 82.6899 15.8219C82.8024 16.1406 82.9758 16.4266 83.2102 16.6797C83.4446 16.9328 83.7399 17.0687 84.0961 17.0875H89.0461C89.3086 17.0969 89.5243 17.1953 89.693 17.3828C89.8711 17.5703 89.9602 17.7953 89.9602 18.0578C89.9508 18.3109 89.8571 18.5266 89.6789 18.7047C89.5102 18.8734 89.2993 18.9625 89.0461 18.9719H83.8852H83.618C82.9618 18.9344 82.418 18.6859 81.9868 18.2266C81.5649 17.7578 81.2602 17.2281 81.0727 16.6375C80.8946 16.0469 80.8055 15.4422 80.8055 14.8234C80.8055 14.2047 80.8993 13.6 81.0868 13.0094C81.2743 12.4187 81.5789 11.8937 82.0008 11.4344C82.4227 10.9656 82.9618 10.7125 83.618 10.675ZM89.9321 14.7672C89.9321 15.0297 89.8383 15.25 89.6508 15.4281C89.4727 15.6156 89.2524 15.7094 88.9899 15.7094H84.743C84.4805 15.7094 84.2555 15.6203 84.068 15.4422C83.8899 15.2547 83.8008 15.0297 83.8008 14.7672C83.8008 14.5047 83.8899 14.2797 84.068 14.0922C84.2555 13.9141 84.4805 13.825 84.743 13.825H88.9899C89.2524 13.825 89.4727 13.9187 89.6508 14.1062C89.8383 14.2844 89.9321 14.5047 89.9321 14.7672ZM93.5529 18.2547C93.4966 18.8172 93.1873 19.1219 92.6248 19.1688C92.3623 19.1688 92.1326 19.0844 91.9357 18.9156C91.7482 18.7375 91.6544 18.5172 91.6544 18.2547V11.5891C91.6638 11.3266 91.7623 11.1109 91.9498 10.9422C92.1373 10.7641 92.3623 10.675 92.6248 10.675H93.3138H95.0435H98.5169C98.5732 10.675 98.6294 10.6797 98.6857 10.6891H98.7701C99.4263 10.7078 99.9654 10.8578 100.387 11.1391C100.809 11.4203 101.114 11.7437 101.301 12.1094C101.489 12.4656 101.583 12.8266 101.583 13.1922C101.583 13.5672 101.489 13.9375 101.301 14.3031C101.123 14.6594 100.819 14.9781 100.387 15.2594C99.9654 15.5406 99.4263 15.6906 98.7701 15.7094H96.2951C96.3701 16.1781 96.5248 16.525 96.7591 16.75C96.9841 16.975 97.2701 17.0875 97.6169 17.0875H100.654C100.917 17.0969 101.133 17.1953 101.301 17.3828C101.479 17.5703 101.569 17.7953 101.569 18.0578C101.559 18.3109 101.465 18.5266 101.287 18.7047C101.119 18.8734 100.908 18.9625 100.654 18.9719H97.3638C96.6701 18.9812 96.0419 18.7094 95.4794 18.1562C94.9169 17.6031 94.5748 16.9469 94.4529 16.1875C94.2841 15.3437 94.1998 14.8703 94.1998 14.7672C94.1998 14.5047 94.2888 14.2844 94.4669 14.1062C94.6544 13.9187 94.8794 13.825 95.1419 13.825H98.8544C99.0326 13.8156 99.1779 13.7781 99.2904 13.7125C99.4123 13.6375 99.5013 13.5578 99.5576 13.4734C99.6138 13.3797 99.6419 13.2859 99.6419 13.1922C99.6419 13.0984 99.6138 13.0094 99.5576 12.925C99.5013 12.8312 99.4123 12.7516 99.2904 12.6859C99.1779 12.6109 99.0326 12.5687 98.8544 12.5594H95.0435H93.9185C93.6748 12.5687 93.5529 12.6906 93.5529 12.925V18.2547Z" fill="#F75049"/>
<path d="M15.5291 18.2547L16.3251 18.3343L16.3291 18.2946V18.2547H15.5291ZM14.6009 19.1688V19.9688H14.6342L14.6674 19.966L14.6009 19.1688ZM13.9119 18.9156L13.3609 19.4956L13.3757 19.5097L13.3912 19.523L13.9119 18.9156ZM13.6306 11.5891L12.8311 11.5605L12.8306 11.5748V11.5891H13.6306ZM13.9259 10.9422L14.4611 11.5368L14.4691 11.5296L14.4769 11.5222L13.9259 10.9422ZM20.6619 10.6891L20.5304 11.4782L20.5957 11.4891H20.6619V10.6891ZM20.7463 10.6891L20.7691 9.88939L20.7577 9.88906H20.7463V10.6891ZM23.2775 12.1094L22.5656 12.4744L22.5696 12.482L23.2775 12.1094ZM23.2775 14.3031L22.5656 13.9381L22.562 13.9454L23.2775 14.3031ZM22.3634 15.2594L21.9264 14.5893L21.9197 14.5937L22.3634 15.2594ZM20.7463 15.7094V16.5094H20.7577L20.7691 16.509L20.7463 15.7094ZM18.2713 15.7094V14.9094H17.3331L17.4813 15.8358L18.2713 15.7094ZM18.7353 16.75L19.301 16.1843L19.2952 16.1785L19.2893 16.1729L18.7353 16.75ZM22.6306 17.0875L22.6592 16.288L22.6449 16.2875H22.6306V17.0875ZM23.2775 17.3828L22.6829 17.918L22.6901 17.926L22.6975 17.9338L23.2775 17.3828ZM23.5447 18.0578L24.3441 18.0874L24.3447 18.0726V18.0578H23.5447ZM22.6306 18.9719V19.7719H22.6454L22.6602 19.7713L22.6306 18.9719ZM19.34 18.9719V18.1718L19.3292 18.1719L19.34 18.9719ZM16.4291 16.1875L17.219 16.0607L17.2165 16.0456L17.2135 16.0306L16.4291 16.1875ZM16.4431 14.1062L17.0088 14.6719L16.4431 14.1062ZM20.8306 13.825V14.625H20.8517L20.8727 14.6239L20.8306 13.825ZM21.2666 13.7125L21.6697 14.4035L21.6778 14.3988L21.6858 14.3938L21.2666 13.7125ZM21.5338 13.4734L22.1994 13.9172L22.21 13.9014L22.2197 13.885L21.5338 13.4734ZM21.5338 12.925L20.8478 13.3366L20.8576 13.3529L20.8681 13.3688L21.5338 12.925ZM21.2666 12.6859L20.8228 13.3516L20.8541 13.3725L20.8873 13.3903L21.2666 12.6859ZM20.8306 12.5594L20.8727 11.7605L20.8517 11.7594H20.8306V12.5594ZM15.8947 12.5594V11.7594H15.8793L15.8639 11.76L15.8947 12.5594ZM15.5291 18.2547L14.733 18.1751C14.7178 18.3274 14.6794 18.349 14.6935 18.3351C14.7078 18.3211 14.6861 18.3589 14.5345 18.3715L14.6009 19.1688L14.6674 19.966C15.0783 19.9317 15.4926 19.7938 15.8162 19.4751C16.1397 19.1565 16.2841 18.7445 16.3251 18.3343L15.5291 18.2547ZM14.6009 19.1688V18.3687C14.5268 18.3687 14.4824 18.351 14.4325 18.3082L13.9119 18.9156L13.3912 19.523C13.7351 19.8177 14.1501 19.9688 14.6009 19.9688V19.1688ZM13.9119 18.9156L14.4629 18.3356C14.442 18.3158 14.4378 18.3052 14.4371 18.3036C14.4362 18.3016 14.4306 18.2887 14.4306 18.2547H13.6306H12.8306C12.8306 18.7328 13.0117 19.1639 13.3609 19.4956L13.9119 18.9156ZM13.6306 18.2547H14.4306V11.5891H13.6306H12.8306V18.2547H13.6306ZM13.6306 11.5891L14.4301 11.6176C14.4315 11.5799 14.4381 11.5651 14.4392 11.5627C14.44 11.5609 14.4435 11.5526 14.4611 11.5368L13.9259 10.9422L13.3908 10.3476C13.0348 10.668 12.8479 11.0913 12.8311 11.5605L13.6306 11.5891ZM13.9259 10.9422L14.4769 11.5222C14.5133 11.4876 14.5401 11.475 14.6009 11.475V10.675V9.875C14.1368 9.875 13.7136 10.0405 13.3749 10.3622L13.9259 10.9422ZM14.6009 10.675V11.475H15.29V10.675V9.875H14.6009V10.675ZM15.29 10.675V11.475H17.0197V10.675V9.875H15.29V10.675ZM17.0197 10.675V11.475H20.4931V10.675V9.875H17.0197V10.675ZM20.4931 10.675V11.475C20.5047 11.475 20.517 11.4759 20.5304 11.4782L20.6619 10.6891L20.7934 9.89995C20.6943 9.88343 20.594 9.875 20.4931 9.875V10.675ZM20.6619 10.6891V11.4891H20.7463V10.6891V9.88906H20.6619V10.6891ZM20.7463 10.6891L20.7234 11.4887C21.2731 11.5044 21.6546 11.628 21.9197 11.8047L22.3634 11.1391L22.8072 10.4734C22.2285 10.0876 21.5319 9.91118 20.7691 9.88939L20.7463 10.6891ZM22.3634 11.1391L21.9197 11.8047C22.2543 12.0278 22.4534 12.2555 22.5656 12.4744L23.2775 12.1094L23.9894 11.7443C23.7266 11.232 23.3163 10.8128 22.8072 10.4734L22.3634 11.1391ZM23.2775 12.1094L22.5696 12.482C22.7028 12.7352 22.7588 12.9691 22.7588 13.1922H23.5588H24.3588C24.3588 12.684 24.2272 12.1961 23.9854 11.7368L23.2775 12.1094ZM23.5588 13.1922H22.7588C22.7588 13.4284 22.7009 13.6744 22.5656 13.9381L23.2775 14.3031L23.9894 14.6682C24.2291 14.2006 24.3588 13.706 24.3588 13.1922H23.5588ZM23.2775 14.3031L22.562 13.9454C22.4633 14.1426 22.2728 14.3634 21.9264 14.5893L22.3634 15.2594L22.8005 15.9295C23.3166 15.5929 23.7354 15.1761 23.993 14.6609L23.2775 14.3031ZM22.3634 15.2594L21.9197 14.5937C21.6546 14.7704 21.2731 14.894 20.7234 14.9097L20.7463 15.7094L20.7691 16.509C21.5319 16.4873 22.2285 16.3108 22.8072 15.925L22.3634 15.2594ZM20.7463 15.7094V14.9094H18.2713V15.7094V16.5094H20.7463V15.7094ZM18.2713 15.7094L17.4813 15.8358C17.5716 16.4002 17.7752 16.9373 18.1813 17.3271L18.7353 16.75L19.2893 16.1729C19.2267 16.1127 19.1209 15.956 19.0612 15.583L18.2713 15.7094ZM18.7353 16.75L18.1696 17.3157C18.5589 17.705 19.0551 17.8875 19.5931 17.8875V17.0875V16.2875C19.4374 16.2875 19.3617 16.245 19.301 16.1843L18.7353 16.75ZM19.5931 17.0875V17.8875H22.6306V17.0875V16.2875H19.5931V17.0875ZM22.6306 17.0875L22.6021 17.887C22.6397 17.8883 22.6545 17.895 22.657 17.8961C22.6588 17.8969 22.6671 17.9004 22.6829 17.918L23.2775 17.3828L23.8721 16.8476C23.5517 16.4916 23.1284 16.3048 22.6592 16.288L22.6306 17.0875ZM23.2775 17.3828L22.6975 17.9338C22.732 17.9702 22.7447 17.997 22.7447 18.0578H23.5447H24.3447C24.3447 17.5937 24.1792 17.1705 23.8575 16.8318L23.2775 17.3828ZM23.5447 18.0578L22.7452 18.0282C22.7433 18.0808 22.7322 18.1045 22.6978 18.139L23.2634 18.7047L23.8291 19.2704C24.1509 18.9486 24.3273 18.5411 24.3441 18.0874L23.5447 18.0578ZM23.2634 18.7047L22.6978 18.139C22.6811 18.1556 22.6659 18.17 22.601 18.1724L22.6306 18.9719L22.6602 19.7713C23.1016 19.755 23.5083 19.5912 23.8291 19.2704L23.2634 18.7047ZM22.6306 18.9719V18.1719H19.34V18.9719V19.7719H22.6306V18.9719ZM19.34 18.9719L19.3292 18.1719C18.8789 18.178 18.4495 18.0116 18.0165 17.5858L17.4556 18.1562L16.8947 18.7267C17.5868 19.4072 18.4136 19.7845 19.3508 19.7718L19.34 18.9719ZM17.4556 18.1562L18.0165 17.5858C17.5724 17.1491 17.313 16.647 17.219 16.0607L16.4291 16.1875L15.6392 16.3143C15.7888 17.2468 16.2139 18.0572 16.8947 18.7267L17.4556 18.1562ZM16.4291 16.1875L17.2135 16.0306C17.1295 15.6107 17.0675 15.2878 17.0268 15.0592C17.0064 14.9445 16.9922 14.8585 16.9833 14.7981C16.9717 14.7189 16.9759 14.7259 16.9759 14.7672H16.1759H15.3759C15.3759 14.86 15.3907 14.9649 15.4002 15.0298C15.4125 15.1136 15.4299 15.218 15.4516 15.34C15.4953 15.5849 15.5598 15.9206 15.6446 16.3444L16.4291 16.1875ZM16.1759 14.7672H16.9759C16.9759 14.7279 16.9822 14.7103 16.9844 14.7049C16.9863 14.7002 16.991 14.6897 17.0088 14.6719L16.4431 14.1062L15.8774 13.5406C15.5424 13.8756 15.3759 14.3025 15.3759 14.7672H16.1759ZM16.4431 14.1062L17.0088 14.6719C17.048 14.6328 17.0702 14.625 17.1181 14.625V13.825V13.025C16.641 13.025 16.2133 13.2047 15.8774 13.5406L16.4431 14.1062ZM17.1181 13.825V14.625H20.8306V13.825V13.025H17.1181V13.825ZM20.8306 13.825L20.8727 14.6239C21.1334 14.6102 21.4141 14.5526 21.6697 14.4035L21.2666 13.7125L20.8635 13.0215C20.8796 13.0121 20.8853 13.0121 20.8733 13.0152C20.8609 13.0184 20.834 13.0237 20.7886 13.0261L20.8306 13.825ZM21.2666 13.7125L21.6858 14.3938C21.8684 14.2815 22.0584 14.1286 22.1994 13.9172L21.5338 13.4734L20.8681 13.0297C20.8834 13.0067 20.8942 12.9977 20.8913 13.0003C20.8901 13.0014 20.8861 13.0048 20.8787 13.0102C20.8713 13.0157 20.861 13.0227 20.8473 13.0312L21.2666 13.7125ZM21.5338 13.4734L22.2197 13.885C22.338 13.6879 22.4181 13.4535 22.4181 13.1922H21.6181H20.8181C20.8181 13.1578 20.8235 13.1273 20.8308 13.1029C20.8379 13.0792 20.8456 13.0654 20.8478 13.0618L21.5338 13.4734ZM21.6181 13.1922H22.4181C22.4181 12.9275 22.3358 12.6858 22.1994 12.4812L21.5338 12.925L20.8681 13.3688C20.858 13.3536 20.8447 13.3292 20.8342 13.296C20.8235 13.2623 20.8181 13.2267 20.8181 13.1922H21.6181ZM21.5338 12.925L22.2197 12.5134C22.0722 12.2674 21.8612 12.0975 21.6458 11.9816L21.2666 12.6859L20.8873 13.3903C20.9157 13.4056 20.8828 13.3951 20.8478 13.3366L21.5338 12.925ZM21.2666 12.6859L21.7103 12.0203C21.446 11.8441 21.1497 11.7751 20.8727 11.7605L20.8306 12.5594L20.7886 13.3583C20.8269 13.3603 20.8458 13.3651 20.8502 13.3663C20.8537 13.3673 20.842 13.3644 20.8228 13.3516L21.2666 12.6859ZM20.8306 12.5594V11.7594H17.0197V12.5594V13.3594H20.8306V12.5594ZM17.0197 12.5594V11.7594H15.8947V12.5594V13.3594H17.0197V12.5594ZM15.8947 12.5594L15.8639 11.76C15.6242 11.7692 15.308 11.8389 15.0548 12.0921C14.7963 12.3506 14.7291 12.674 14.7291 12.925H15.5291H16.3291C16.3291 12.9417 16.3228 13.0869 16.1862 13.2235C16.1232 13.2865 16.0562 13.3221 16.005 13.3405C15.957 13.3577 15.9263 13.3588 15.9254 13.3588L15.8947 12.5594ZM15.5291 12.925H14.7291V18.2547H15.5291H16.3291V12.925H15.5291ZM27.9811 10.675V9.875H27.9583L27.9355 9.8763L27.9811 10.675ZM33.4093 10.675L33.4378 9.87551L33.4235 9.875H33.4093V10.675ZM34.0561 10.9703L33.4615 11.5055L33.4687 11.5135L33.4761 11.5213L34.0561 10.9703ZM34.3233 11.6453L35.1206 11.7117L35.1233 11.6786V11.6453H34.3233ZM33.4093 12.5594V13.3594H33.4425L33.4757 13.3566L33.4093 12.5594ZM28.4593 12.5594V11.7594H28.4382L28.4172 11.7605L28.4593 12.5594ZM27.053 13.8391L26.2961 13.5796L26.2918 13.5928L27.053 13.8391ZM27.053 15.8219L26.2898 16.0617L26.294 16.075L26.2986 16.0881L27.053 15.8219ZM28.4593 17.0875L28.4172 17.8864L28.4382 17.8875H28.4593V17.0875ZM33.4093 17.0875L33.4378 16.288L33.4235 16.2875H33.4093V17.0875ZM34.0561 17.3828L33.4615 17.918L33.4687 17.926L33.4761 17.9338L34.0561 17.3828ZM34.3233 18.0578L35.1228 18.0874L35.1233 18.0726V18.0578H34.3233ZM33.4093 18.9719V19.7719H33.4241L33.4389 19.7713L33.4093 18.9719ZM27.9811 18.9719L27.9355 19.7706L27.9583 19.7719H27.9811V18.9719ZM26.3499 18.2266L25.7552 18.7617L25.7609 18.768L25.7666 18.7741L26.3499 18.2266ZM25.4358 16.6375L24.6698 16.8685L24.6733 16.8796L25.4358 16.6375ZM26.3639 11.4344L26.9532 11.9755L26.9586 11.9695L26.3639 11.4344ZM34.0139 15.4281L33.4629 14.8481L33.4481 14.8623L33.4339 14.8771L34.0139 15.4281ZM28.4311 15.4422L27.8511 15.9932L27.8653 16.0081L27.8801 16.0222L28.4311 15.4422ZM28.4311 14.0922L27.8801 13.5122L27.8653 13.5263L27.8511 13.5412L28.4311 14.0922ZM34.0139 14.1062L33.4339 14.6572L33.4481 14.6721L33.4629 14.6862L34.0139 14.1062ZM27.9811 10.675V11.475H28.628V10.675V9.875H27.9811V10.675ZM28.628 10.675V11.475H33.4093V10.675V9.875H28.628V10.675ZM33.4093 10.675L33.3807 11.4745C33.4184 11.4758 33.4332 11.4825 33.4356 11.4836C33.4374 11.4844 33.4457 11.4879 33.4615 11.5055L34.0561 10.9703L34.6508 10.4351C34.3304 10.0791 33.907 9.89227 33.4378 9.87551L33.4093 10.675ZM34.0561 10.9703L33.4761 11.5213C33.5107 11.5577 33.5233 11.5845 33.5233 11.6453H34.3233H35.1233C35.1233 11.1812 34.9578 10.758 34.6361 10.4193L34.0561 10.9703ZM34.3233 11.6453L33.5261 11.5789C33.5134 11.7309 33.4757 11.7483 33.494 11.73C33.5122 11.7118 33.4948 11.7495 33.3428 11.7621L33.4093 12.5594L33.4757 13.3566C33.8862 13.3224 34.3024 13.1843 34.6253 12.8614C34.9483 12.5385 35.0863 12.1223 35.1206 11.7117L34.3233 11.6453ZM33.4093 12.5594V11.7594H28.4593V12.5594V13.3594H33.4093V12.5594ZM28.4593 12.5594L28.4172 11.7605C27.8609 11.7898 27.3675 12.012 26.9863 12.4237L27.5733 12.9672L28.1603 13.5107C28.2479 13.4161 28.3451 13.3665 28.5013 13.3583L28.4593 12.5594ZM27.5733 12.9672L26.9863 12.4237C26.6757 12.7591 26.4447 13.1466 26.2962 13.5796L27.053 13.8391L27.8098 14.0985C27.8863 13.8753 28.0021 13.6816 28.1603 13.5107L27.5733 12.9672ZM27.053 13.8391L26.2918 13.5928C26.1628 13.9917 26.0983 14.403 26.0983 14.8234H26.8983H27.6983C27.6983 14.5689 27.737 14.3239 27.8142 14.0853L27.053 13.8391ZM26.8983 14.8234H26.0983C26.0983 15.2439 26.1628 15.6575 26.2898 16.0617L27.053 15.8219L27.8162 15.582C27.737 15.33 27.6983 15.078 27.6983 14.8234H26.8983ZM27.053 15.8219L26.2986 16.0881C26.4482 16.5119 26.6794 16.8917 26.9863 17.2232L27.5733 16.6797L28.1603 16.1362C27.9985 15.9614 27.8828 15.7694 27.8074 15.5556L27.053 15.8219ZM27.5733 16.6797L26.9863 17.2232C27.3675 17.6349 27.8609 17.8571 28.4172 17.8864L28.4593 17.0875L28.5013 16.2886C28.3451 16.2804 28.2479 16.2308 28.1603 16.1362L27.5733 16.6797ZM28.4593 17.0875V17.8875H33.4093V17.0875V16.2875H28.4593V17.0875ZM33.4093 17.0875L33.3807 17.887C33.4184 17.8883 33.4332 17.895 33.4356 17.8961C33.4374 17.8969 33.4457 17.9004 33.4615 17.918L34.0561 17.3828L34.6508 16.8476C34.3304 16.4916 33.907 16.3048 33.4378 16.288L33.4093 17.0875ZM34.0561 17.3828L33.4761 17.9338C33.5107 17.9702 33.5233 17.997 33.5233 18.0578H34.3233H35.1233C35.1233 17.5937 34.9578 17.1705 34.6361 16.8318L34.0561 17.3828ZM34.3233 18.0578L33.5239 18.0282C33.5219 18.0808 33.5108 18.1045 33.4764 18.139L34.0421 18.7047L34.6078 19.2704C34.9295 18.9486 35.106 18.5411 35.1228 18.0874L34.3233 18.0578ZM34.0421 18.7047L33.4764 18.139C33.4597 18.1556 33.4446 18.17 33.3796 18.1724L33.4093 18.9719L33.4389 19.7713C33.8802 19.755 34.2869 19.5912 34.6078 19.2704L34.0421 18.7047ZM33.4093 18.9719V18.1719H28.2483V18.9719V19.7719H33.4093V18.9719ZM28.2483 18.9719V18.1719H27.9811V18.9719V19.7719H28.2483V18.9719ZM27.9811 18.9719L28.0268 18.1732C27.5655 18.1468 27.2174 17.9818 26.9331 17.679L26.3499 18.2266L25.7666 18.7741C26.3448 19.39 27.0843 19.7219 27.9355 19.7706L27.9811 18.9719ZM26.3499 18.2266L26.9445 17.6914C26.5974 17.3057 26.3507 16.8756 26.1983 16.3954L25.4358 16.6375L24.6733 16.8796C24.8959 17.5807 25.2586 18.2099 25.7552 18.7617L26.3499 18.2266ZM25.4358 16.6375L26.2017 16.4065C26.0463 15.891 25.9686 15.3642 25.9686 14.8234H25.1686H24.3686C24.3686 15.5202 24.4691 16.2027 24.6699 16.8685L25.4358 16.6375ZM25.1686 14.8234H25.9686C25.9686 14.2869 26.0497 13.7639 26.2124 13.2514L25.4499 13.0094L24.6874 12.7673C24.4751 13.4361 24.3686 14.1224 24.3686 14.8234H25.1686ZM25.4499 13.0094L26.2124 13.2514C26.3644 12.7727 26.6096 12.3496 26.9532 11.9755L26.3639 11.4344L25.7747 10.8933C25.2745 11.4379 24.9104 12.0648 24.6874 12.7673L25.4499 13.0094ZM26.3639 11.4344L26.9586 11.9695C27.2328 11.6648 27.5712 11.4997 28.0268 11.4737L27.9811 10.675L27.9355 9.8763C27.0786 9.92527 26.3388 10.2664 25.7693 10.8992L26.3639 11.4344ZM34.2952 14.7672H33.4952C33.4952 14.8012 33.4896 14.8141 33.4888 14.8161C33.488 14.8177 33.4838 14.8283 33.4629 14.8481L34.0139 15.4281L34.5649 16.0081C34.9141 15.6764 35.0952 15.2453 35.0952 14.7672H34.2952ZM34.0139 15.4281L33.4339 14.8771C33.4141 14.898 33.4035 14.9022 33.4019 14.9029C33.3999 14.9038 33.387 14.9094 33.353 14.9094V15.7094V16.5094C33.8311 16.5094 34.2622 16.3283 34.5939 15.9791L34.0139 15.4281ZM33.353 15.7094V14.9094H29.1061V15.7094V16.5094H33.353V15.7094ZM29.1061 15.7094V14.9094C29.0453 14.9094 29.0185 14.8967 28.9821 14.8622L28.4311 15.4422L27.8801 16.0222C28.2188 16.3439 28.642 16.5094 29.1061 16.5094V15.7094ZM28.4311 15.4422L29.0111 14.8912C28.9766 14.8548 28.9639 14.828 28.9639 14.7672H28.1639H27.3639C27.3639 15.2313 27.5294 15.6545 27.8511 15.9932L28.4311 15.4422ZM28.1639 14.7672H28.9639C28.9639 14.7063 28.9766 14.6795 29.0111 14.6432L28.4311 14.0922L27.8511 13.5412C27.5294 13.8798 27.3639 14.303 27.3639 14.7672H28.1639ZM28.4311 14.0922L28.9821 14.6722C29.0185 14.6376 29.0453 14.625 29.1061 14.625V13.825V13.025C28.642 13.025 28.2188 13.1905 27.8801 13.5122L28.4311 14.0922ZM29.1061 13.825V14.625H33.353V13.825V13.025H29.1061V13.825ZM33.353 13.825V14.625C33.387 14.625 33.3999 14.6306 33.4019 14.6314C33.4035 14.6321 33.4141 14.6364 33.4339 14.6572L34.0139 14.1062L34.5939 13.5553C34.2622 13.2061 33.8311 13.025 33.353 13.025V13.825ZM34.0139 14.1062L33.4629 14.6862C33.4838 14.7061 33.488 14.7167 33.4888 14.7183C33.4896 14.7203 33.4952 14.7331 33.4952 14.7672H34.2952H35.0952C35.0952 14.2891 34.9141 13.858 34.5649 13.5263L34.0139 14.1062ZM38.6894 10.675V9.875H38.6666L38.6438 9.8763L38.6894 10.675ZM44.6238 10.675L44.6524 9.87551L44.6381 9.875H44.6238V10.675ZM45.2707 10.9703L44.6761 11.5055L44.6833 11.5135L44.6907 11.5213L45.2707 10.9703ZM45.5379 11.6453L46.3351 11.7117L46.3379 11.6786V11.6453H45.5379ZM44.6238 12.5594V13.3594H44.6571L44.6903 13.3566L44.6238 12.5594ZM39.1676 12.5594V11.7594H39.1465L39.1255 11.7605L39.1676 12.5594ZM37.7613 13.8391L37.0044 13.5796L37.0002 13.5928L37.7613 13.8391ZM37.7613 15.8219L36.9981 16.0617L37.0023 16.075L37.0069 16.0881L37.7613 15.8219ZM39.1676 17.0875L39.1255 17.8864L39.1465 17.8875H39.1676V17.0875ZM43.4426 17.0875V17.8875H43.4648L43.4869 17.8863L43.4426 17.0875ZM43.7098 16.8062L44.5086 16.8483L44.5098 16.8273V16.8062H43.7098ZM43.7098 15.9906H44.5098V15.9706L44.5088 15.9507L43.7098 15.9906ZM39.1676 15.4422L38.5876 15.9932L38.6017 16.0081L38.6166 16.0222L39.1676 15.4422ZM39.1676 14.0922L38.6166 13.5122L38.6017 13.5263L38.5876 13.5412L39.1676 14.0922ZM45.3269 14.0922L45.9077 13.542L45.8932 13.5267L45.8779 13.5122L45.3269 14.0922ZM45.5941 14.7391H46.3941V14.7243L46.3936 14.7095L45.5941 14.7391ZM45.5941 18.0578L46.3936 18.0874L46.3941 18.0726V18.0578H45.5941ZM44.6801 18.9719V19.7719H44.6949L44.7097 19.7713L44.6801 18.9719ZM38.6894 18.9719L38.6438 19.7706L38.6666 19.7719H38.6894V18.9719ZM37.0582 18.2266L36.4636 18.7617L36.4692 18.768L36.4749 18.7741L37.0582 18.2266ZM36.1441 16.6375L35.3781 16.8685L35.3816 16.8796L36.1441 16.6375ZM37.0723 11.4344L37.6615 11.9755L37.6669 11.9695L37.0723 11.4344ZM38.6894 10.675V11.475H44.6238V10.675V9.875H38.6894V10.675ZM44.6238 10.675L44.5953 11.4745C44.6329 11.4758 44.6477 11.4825 44.6502 11.4836C44.6519 11.4844 44.6602 11.4879 44.6761 11.5055L45.2707 10.9703L45.8653 10.4351C45.5449 10.0791 45.1216 9.89227 44.6524 9.87551L44.6238 10.675ZM45.2707 10.9703L44.6907 11.5213C44.7252 11.5577 44.7379 11.5845 44.7379 11.6453H45.5379H46.3379C46.3379 11.1812 46.1724 10.758 45.8507 10.4193L45.2707 10.9703ZM45.5379 11.6453L44.7406 11.5789C44.728 11.7309 44.6903 11.7483 44.7085 11.73C44.7268 11.7118 44.7094 11.7495 44.5574 11.7621L44.6238 12.5594L44.6903 13.3566C45.1008 13.3224 45.517 13.1843 45.8399 12.8614C46.1628 12.5385 46.3009 12.1223 46.3351 11.7117L45.5379 11.6453ZM44.6238 12.5594V11.7594H39.1676V12.5594V13.3594H44.6238V12.5594ZM39.1676 12.5594L39.1255 11.7605C38.5692 11.7898 38.0758 12.012 37.6946 12.4237L38.2816 12.9672L38.8686 13.5107C38.9562 13.4161 39.0534 13.3665 39.2096 13.3583L39.1676 12.5594ZM38.2816 12.9672L37.6946 12.4237C37.3841 12.7591 37.153 13.1466 37.0046 13.5796L37.7613 13.8391L38.5181 14.0985C38.5946 13.8753 38.7105 13.6816 38.8686 13.5107L38.2816 12.9672ZM37.7613 13.8391L37.0002 13.5928C36.8711 13.9917 36.8066 14.403 36.8066 14.8234H37.6066H38.4066C38.4066 14.5689 38.4453 14.3239 38.5225 14.0853L37.7613 13.8391ZM37.6066 14.8234H36.8066C36.8066 15.2439 36.8711 15.6575 36.9981 16.0617L37.7613 15.8219L38.5245 15.582C38.4453 15.33 38.4066 15.078 38.4066 14.8234H37.6066ZM37.7613 15.8219L37.0069 16.0881C37.1565 16.5119 37.3877 16.8917 37.6946 17.2232L38.2816 16.6797L38.8686 16.1362C38.7068 15.9614 38.5911 15.7694 38.5157 15.5556L37.7613 15.8219ZM38.2816 16.6797L37.6946 17.2232C38.0758 17.6349 38.5692 17.8571 39.1255 17.8864L39.1676 17.0875L39.2096 16.2886C39.0534 16.2804 38.9562 16.2308 38.8686 16.1362L38.2816 16.6797ZM39.1676 17.0875V17.8875H43.4426V17.0875V16.2875H39.1676V17.0875ZM43.4426 17.0875L43.4869 17.8863C43.7105 17.8739 43.992 17.7968 44.2159 17.5612C44.4341 17.3315 44.4977 17.0556 44.5086 16.8483L43.7098 16.8062L42.9109 16.7642C42.9124 16.735 42.9269 16.595 43.0559 16.4592C43.1907 16.3172 43.3434 16.2918 43.3982 16.2887L43.4426 17.0875ZM43.7098 16.8062H44.5098V15.9906H43.7098H42.9098V16.8062H43.7098ZM43.7098 15.9906L44.5088 15.9507C44.4987 15.7504 44.4407 15.4653 44.2159 15.2287C43.978 14.9783 43.676 14.9094 43.4426 14.9094V15.7094V16.5094C43.3778 16.5094 43.2048 16.4874 43.0559 16.3307C42.9202 16.1879 42.9114 16.0433 42.9108 16.0306L43.7098 15.9906ZM43.4426 15.7094V14.9094H39.8426V15.7094V16.5094H43.4426V15.7094ZM39.8426 15.7094V14.9094C39.7817 14.9094 39.7549 14.8967 39.7186 14.8622L39.1676 15.4422L38.6166 16.0222C38.9552 16.3439 39.3784 16.5094 39.8426 16.5094V15.7094ZM39.1676 15.4422L39.7476 14.8912C39.713 14.8548 39.7004 14.828 39.7004 14.7672H38.9004H38.1004C38.1004 15.2313 38.2659 15.6545 38.5876 15.9932L39.1676 15.4422ZM38.9004 14.7672H39.7004C39.7004 14.7063 39.713 14.6795 39.7476 14.6432L39.1676 14.0922L38.5876 13.5412C38.2659 13.8798 38.1004 14.303 38.1004 14.7672H38.9004ZM39.1676 14.0922L39.7186 14.6722C39.7549 14.6376 39.7817 14.625 39.8426 14.625V13.825V13.025C39.3784 13.025 38.9552 13.1905 38.6166 13.5122L39.1676 14.0922ZM39.8426 13.825V14.625H44.6519V13.825V13.025H39.8426V13.825ZM44.6519 13.825V14.625C44.7128 14.625 44.7396 14.6376 44.7759 14.6722L45.3269 14.0922L45.8779 13.5122C45.5393 13.1905 45.1161 13.025 44.6519 13.025V13.825ZM45.3269 14.0922L44.7462 14.6424C44.7765 14.6744 44.7922 14.703 44.7947 14.7687L45.5941 14.7391L46.3936 14.7095C46.3773 14.2689 46.2149 13.8662 45.9077 13.542L45.3269 14.0922ZM45.5941 14.7391H44.7941V14.7672H45.5941H46.3941V14.7391H45.5941ZM45.5941 14.7672H44.7941V18.0578H45.5941H46.3941V14.7672H45.5941ZM45.5941 18.0578L44.7947 18.0282C44.7923 18.0931 44.7779 18.1083 44.7613 18.1249L45.3269 18.6906L45.8926 19.2563C46.2135 18.9354 46.3772 18.5287 46.3936 18.0874L45.5941 18.0578ZM45.3269 18.6906L44.7613 18.1249C44.7268 18.1594 44.703 18.1705 44.6505 18.1724L44.6801 18.9719L44.7097 19.7713C45.1634 19.7545 45.5708 19.5781 45.8926 19.2563L45.3269 18.6906ZM44.6801 18.9719V18.1719H38.6894V18.9719V19.7719H44.6801V18.9719ZM38.6894 18.9719L38.7351 18.1732C38.2738 18.1468 37.9257 17.9818 37.6415 17.679L37.0582 18.2266L36.4749 18.7741C37.0531 19.39 37.7926 19.7219 38.6438 19.7706L38.6894 18.9719ZM37.0582 18.2266L37.6528 17.6914C37.3057 17.3057 37.0591 16.8756 36.9066 16.3954L36.1441 16.6375L35.3816 16.8796C35.6042 17.5807 35.9669 18.2099 36.4636 18.7617L37.0582 18.2266ZM36.1441 16.6375L36.9101 16.4065C36.7546 15.891 36.6769 15.3642 36.6769 14.8234H35.8769H35.0769C35.0769 15.5202 35.1774 16.2027 35.3782 16.8685L36.1441 16.6375ZM35.8769 14.8234H36.6769C36.6769 14.2869 36.758 13.7639 36.9207 13.2514L36.1582 13.0094L35.3957 12.7673C35.1834 13.4361 35.0769 14.1224 35.0769 14.8234H35.8769ZM36.1582 13.0094L36.9207 13.2514C37.0727 12.7727 37.3179 12.3496 37.6615 11.9755L37.0723 11.4344L36.483 10.8933C35.9828 11.4379 35.6187 12.0648 35.3957 12.7673L36.1582 13.0094ZM37.0723 11.4344L37.6669 11.9695C37.9412 11.6648 38.2795 11.4997 38.7351 11.4737L38.6894 10.675L38.6438 9.8763C37.7869 9.92527 37.0471 10.2664 36.4776 10.8992L37.0723 11.4344ZM50.9728 17.0875V17.8875H51.7728V17.0875H50.9728ZM50.9728 12.5594H51.7728V11.7594H50.9728V12.5594ZM47.6118 12.2781L48.1918 11.7271L48.1777 11.7123L48.1628 11.6981L47.6118 12.2781ZM47.5978 10.9562L48.1634 11.5219L47.5978 10.9562ZM56.2321 10.9422L56.8121 10.3912L56.798 10.3763L56.7831 10.3622L56.2321 10.9422ZM52.8712 12.5594V11.7594H52.0712V12.5594H52.8712ZM52.8712 17.0875H52.0712V17.8875H52.8712V17.0875ZM56.2321 17.3547L56.8121 16.8037L56.798 16.7888L56.7831 16.7747L56.2321 17.3547ZM47.6118 18.6906L48.1918 18.1396L48.1777 18.1248L48.1628 18.1106L47.6118 18.6906ZM47.3306 18.0297H48.1306C48.1306 17.9904 48.1369 17.9728 48.1391 17.9674C48.141 17.9627 48.1457 17.9522 48.1634 17.9344L47.5978 17.3687L47.0321 16.8031C46.697 17.1381 46.5306 17.565 46.5306 18.0297H47.3306ZM47.5978 17.3687L48.1634 17.9344C48.2026 17.8953 48.2248 17.8875 48.2728 17.8875V17.0875V16.2875C47.7957 16.2875 47.3679 16.4672 47.0321 16.8031L47.5978 17.3687ZM48.2728 17.0875V17.8875H50.9728V17.0875V16.2875H48.2728V17.0875ZM50.9728 17.0875H51.7728V12.5594H50.9728H50.1728V17.0875H50.9728ZM50.9728 12.5594V11.7594H48.2728V12.5594V13.3594H50.9728V12.5594ZM48.2728 12.5594V11.7594C48.2387 11.7594 48.2258 11.7538 48.2239 11.7529C48.2222 11.7522 48.2117 11.748 48.1918 11.7271L47.6118 12.2781L47.0318 12.8291C47.3635 13.1783 47.7947 13.3594 48.2728 13.3594V12.5594ZM47.6118 12.2781L48.1628 11.6981C48.1419 11.6783 48.1377 11.6677 48.137 11.6661C48.1362 11.6641 48.1306 11.6512 48.1306 11.6172H47.3306H46.5306C46.5306 12.0953 46.7117 12.5264 47.0608 12.8581L47.6118 12.2781ZM47.3306 11.6172H48.1306C48.1306 11.5779 48.1369 11.5603 48.1391 11.5549C48.141 11.5502 48.1457 11.5397 48.1634 11.5219L47.5978 10.9562L47.0321 10.3906C46.697 10.7256 46.5306 11.1525 46.5306 11.6172H47.3306ZM47.5978 10.9562L48.1634 11.5219C48.2026 11.4828 48.2248 11.475 48.2728 11.475V10.675V9.875C47.7957 9.875 47.3679 10.0547 47.0321 10.3906L47.5978 10.9562ZM48.2728 10.675V11.475H55.5571V10.675V9.875H48.2728V10.675ZM55.5571 10.675V11.475C55.618 11.475 55.6448 11.4876 55.6811 11.5222L56.2321 10.9422L56.7831 10.3622C56.4445 10.0405 56.0213 9.875 55.5571 9.875V10.675ZM56.2321 10.9422L55.6521 11.4932C55.6867 11.5295 55.6993 11.5563 55.6993 11.6172H56.4993H57.2993C57.2993 11.153 57.1338 10.7298 56.8121 10.3912L56.2321 10.9422ZM56.4993 11.6172H55.6993C55.6993 11.6651 55.6916 11.6873 55.6524 11.7265L56.2181 12.2922L56.7838 12.8579C57.1196 12.5221 57.2993 12.0943 57.2993 11.6172H56.4993ZM56.2181 12.2922L55.6524 11.7265C55.6346 11.7443 55.6241 11.749 55.6194 11.7509C55.614 11.7531 55.5964 11.7594 55.5571 11.7594V12.5594V13.3594C56.0219 13.3594 56.4487 13.1929 56.7838 12.8579L56.2181 12.2922ZM55.5571 12.5594V11.7594H52.8712V12.5594V13.3594H55.5571V12.5594ZM52.8712 12.5594H52.0712V17.0875H52.8712H53.6712V12.5594H52.8712ZM52.8712 17.0875V17.8875H55.5571V17.0875V16.2875H52.8712V17.0875ZM55.5571 17.0875V17.8875C55.618 17.8875 55.6448 17.9002 55.6811 17.9347L56.2321 17.3547L56.7831 16.7747C56.4445 16.453 56.0213 16.2875 55.5571 16.2875V17.0875ZM56.2321 17.3547L55.6521 17.9057C55.6867 17.942 55.6993 17.9688 55.6993 18.0297H56.4993H57.2993C57.2993 17.5655 57.1338 17.1423 56.8121 16.8037L56.2321 17.3547ZM56.4993 18.0297H55.6993C55.6993 18.0776 55.6916 18.0998 55.6524 18.139L56.2181 18.7047L56.7838 19.2704C57.1196 18.9346 57.2993 18.5068 57.2993 18.0297H56.4993ZM56.2181 18.7047L55.6524 18.139C55.6346 18.1568 55.6241 18.1615 55.6194 18.1634C55.614 18.1656 55.5964 18.1719 55.5571 18.1719V18.9719V19.7719C56.0219 19.7719 56.4487 19.6054 56.7838 19.2704L56.2181 18.7047ZM55.5571 18.9719V18.1719H48.2728V18.9719V19.7719H55.5571V18.9719ZM48.2728 18.9719V18.1719C48.2387 18.1719 48.2258 18.1663 48.2239 18.1654C48.2222 18.1647 48.2117 18.1605 48.1918 18.1396L47.6118 18.6906L47.0318 19.2416C47.3635 19.5908 47.7947 19.7719 48.2728 19.7719V18.9719ZM47.6118 18.6906L48.1628 18.1106C48.1419 18.0908 48.1377 18.0802 48.137 18.0786C48.1362 18.0766 48.1306 18.0637 48.1306 18.0297H47.3306H46.5306C46.5306 18.5078 46.7117 18.9389 47.0608 19.2706L47.6118 18.6906ZM67.0529 12.2781L66.5019 11.6981L66.4871 11.7123L66.4729 11.7271L67.0529 12.2781ZM60.767 12.5594V11.7594H60.746L60.725 11.7605L60.767 12.5594ZM60.317 12.6859L60.7201 13.377L60.7282 13.3722L60.7363 13.3673L60.317 12.6859ZM60.0639 12.925L60.7295 13.3688L60.7401 13.3529L60.7499 13.3366L60.0639 12.925ZM60.0639 13.4734L59.3779 13.885L59.3877 13.9014L59.3982 13.9172L60.0639 13.4734ZM60.317 13.7125L59.8732 14.3781L59.9046 14.399L59.9377 14.4169L60.317 13.7125ZM60.767 13.825L60.725 14.6239L60.746 14.625H60.767V13.825ZM64.7608 13.825L64.7836 13.0253L64.7722 13.025H64.7608V13.825ZM66.3779 14.2891L65.9241 14.9479L65.9324 14.9536L65.9409 14.9592L66.3779 14.2891ZM67.292 15.2734L66.5694 15.6167L66.5746 15.6277L66.5801 15.6385L67.292 15.2734ZM67.292 17.5234L68.0039 17.8885L68.0075 17.8812L67.292 17.5234ZM66.3779 18.5078L66.8218 19.1735L66.8318 19.1666L66.3779 18.5078ZM64.6764 18.9297V18.1297H64.6102L64.5449 18.1406L64.6764 18.9297ZM58.517 18.6766L57.937 19.2276L57.9511 19.2424L57.966 19.2566L58.517 18.6766ZM58.5311 17.3406L59.0821 17.9206L59.0969 17.9065L59.1111 17.8916L58.5311 17.3406ZM64.8451 17.0594L64.8872 16.2605L64.8662 16.2594H64.8451V17.0594ZM65.2811 16.9609L64.8618 16.2796L64.8494 16.2872L64.8373 16.2953L65.2811 16.9609ZM65.5483 16.7078L66.2342 17.1194L66.2427 17.1053L66.2506 17.0909L65.5483 16.7078ZM65.5483 16.1312L64.8219 16.4665L64.8271 16.4778L64.8327 16.489L65.5483 16.1312ZM65.2811 15.8359L64.8373 16.5016L64.8494 16.5096L64.8618 16.5173L65.2811 15.8359ZM64.8451 15.7094L64.8872 14.9105L64.8662 14.9094H64.8451V15.7094ZM60.8514 15.7094L60.8285 16.509L60.84 16.5094H60.8514V15.7094ZM59.2201 15.2594L58.7763 15.925L58.7831 15.9295L59.2201 15.2594ZM58.3061 14.3031L57.5869 14.6535L57.5923 14.6647L57.5981 14.6757L58.3061 14.3031ZM58.3201 12.1094L59.0281 12.482L59.032 12.4744L58.3201 12.1094ZM60.8514 10.6891V9.88906H60.84L60.8285 9.88939L60.8514 10.6891ZM60.9358 10.6891V11.4891H61.002L61.0673 11.4782L60.9358 10.6891ZM67.0529 10.9562L66.4729 11.5072L66.4871 11.5221L66.5019 11.5362L67.0529 10.9562ZM67.3342 11.6172H66.5342C66.5342 11.6512 66.5286 11.6641 66.5278 11.6661C66.527 11.6677 66.5228 11.6783 66.5019 11.6981L67.0529 12.2781L67.6039 12.8581C67.9531 12.5264 68.1342 12.0953 68.1342 11.6172H67.3342ZM67.0529 12.2781L66.4729 11.7271C66.4531 11.748 66.4425 11.7522 66.4409 11.7529C66.4389 11.7538 66.426 11.7594 66.392 11.7594V12.5594V13.3594C66.8701 13.3594 67.3012 13.1783 67.6329 12.8291L67.0529 12.2781ZM66.392 12.5594V11.7594H60.767V12.5594V13.3594H66.392V12.5594ZM60.767 12.5594L60.725 11.7605C60.4456 11.7752 60.1583 11.8443 59.8977 12.0046L60.317 12.6859L60.7363 13.3673C60.7195 13.3776 60.7321 13.3623 60.8091 13.3583L60.767 12.5594ZM60.317 12.6859L59.9139 11.9949C59.7073 12.1154 59.5155 12.284 59.3779 12.5134L60.0639 12.925L60.7499 13.3366C60.7382 13.3561 60.7263 13.3693 60.7186 13.3765C60.7114 13.3834 60.7103 13.3827 60.7201 13.377L60.317 12.6859ZM60.0639 12.925L59.3982 12.4812C59.2619 12.6858 59.1795 12.9275 59.1795 13.1922H59.9795H60.7795C60.7795 13.2267 60.7741 13.2623 60.7635 13.296C60.753 13.3292 60.7396 13.3536 60.7295 13.3688L60.0639 12.925ZM59.9795 13.1922H59.1795C59.1795 13.4535 59.2596 13.6879 59.3779 13.885L60.0639 13.4734L60.7499 13.0618C60.752 13.0654 60.7597 13.0792 60.7669 13.1029C60.7742 13.1273 60.7795 13.1578 60.7795 13.1922H59.9795ZM60.0639 13.4734L59.3982 13.9172C59.5291 14.1135 59.7006 14.263 59.8732 14.3781L60.317 13.7125L60.7608 13.0469C60.736 13.0304 60.7233 13.0192 60.7186 13.0149C60.7141 13.0106 60.7198 13.0151 60.7295 13.0297L60.0639 13.4734ZM60.317 13.7125L59.9377 14.4169C60.1892 14.5523 60.4616 14.61 60.725 14.6239L60.767 13.825L60.8091 13.0261C60.7161 13.0212 60.6886 13.004 60.6963 13.0081L60.317 13.7125ZM60.767 13.825V14.625H64.7608V13.825V13.025H60.767V13.825ZM64.7608 13.825L64.7379 14.6247C65.2829 14.6402 65.6606 14.7664 65.9241 14.9479L66.3779 14.2891L66.8318 13.6303C66.2515 13.2305 65.5511 13.0473 64.7836 13.0253L64.7608 13.825ZM66.3779 14.2891L65.9409 14.9592C66.2782 15.1791 66.4681 15.4035 66.5694 15.6167L67.292 15.2734L68.0146 14.9302C67.7596 14.3934 67.3402 13.9615 66.815 13.619L66.3779 14.2891ZM67.292 15.2734L66.5801 15.6385C66.7138 15.8991 66.7733 16.1497 66.7733 16.3984H67.5733H68.3733C68.3733 15.8784 68.2452 15.379 68.0039 14.9084L67.292 15.2734ZM67.5733 16.3984H66.7733C66.7733 16.6352 66.715 16.8885 66.5765 17.1657L67.292 17.5234L68.0075 17.8812C68.244 17.4084 68.3733 16.9116 68.3733 16.3984H67.5733ZM67.292 17.5234L66.5801 17.1584C66.4662 17.3807 66.2634 17.6152 65.9241 17.849L66.3779 18.5078L66.8318 19.1666C67.3362 18.8191 67.7428 18.3975 68.0039 17.8885L67.292 17.5234ZM66.3779 18.5078L65.9342 17.8422C65.6774 18.0134 65.3051 18.1297 64.7608 18.1297V18.9297V19.7297C65.5289 19.7297 66.2347 19.5648 66.8217 19.1735L66.3779 18.5078ZM64.7608 18.9297V18.1297H64.6764V18.9297V19.7297H64.7608V18.9297ZM64.6764 18.9297L64.5449 18.1406C64.5315 18.1428 64.5192 18.1437 64.5076 18.1437V18.9437V19.7438C64.6085 19.7438 64.7088 19.7353 64.8079 19.7188L64.6764 18.9297ZM64.5076 18.9437V18.1437H59.192V18.9437V19.7438H64.5076V18.9437ZM59.192 18.9437V18.1437C59.1312 18.1437 59.1044 18.1311 59.068 18.0966L58.517 18.6766L57.966 19.2566C58.3046 19.5783 58.7279 19.7438 59.192 19.7438V18.9437ZM58.517 18.6766L59.097 18.1256C59.0625 18.0892 59.0498 18.0624 59.0498 18.0016H58.2498H57.4498C57.4498 18.4657 57.6153 18.8889 57.937 19.2276L58.517 18.6766ZM58.2498 18.0016H59.0498C59.0498 17.9675 59.0554 17.9546 59.0563 17.9527C59.057 17.951 59.0612 17.9405 59.0821 17.9206L58.5311 17.3406L57.9801 16.7606C57.6309 17.0923 57.4498 17.5235 57.4498 18.0016H58.2498ZM58.5311 17.3406L59.1111 17.8916C59.1309 17.8707 59.1415 17.8665 59.1431 17.8658C59.1451 17.865 59.158 17.8594 59.192 17.8594V17.0594V16.2594C58.7139 16.2594 58.2828 16.4405 57.9511 16.7896L58.5311 17.3406ZM59.192 17.0594V17.8594H64.8451V17.0594V16.2594H59.192V17.0594ZM64.8451 17.0594L64.8031 17.8583C65.0986 17.8738 65.4292 17.8236 65.7248 17.6266L65.2811 16.9609L64.8373 16.2953C64.8704 16.2733 64.8984 16.2644 64.9115 16.2614C64.9229 16.2589 64.9169 16.262 64.8872 16.2605L64.8451 17.0594ZM65.2811 16.9609L65.7003 17.6423C65.8989 17.5201 66.0948 17.3518 66.2342 17.1194L65.5483 16.7078L64.8623 16.2962C64.8757 16.2737 64.8872 16.2624 64.8891 16.2606C64.8906 16.2592 64.8833 16.2664 64.8618 16.2796L65.2811 16.9609ZM65.5483 16.7078L66.2506 17.0909C66.3619 16.8868 66.4326 16.6531 66.4326 16.3984H65.6326H64.8326C64.8326 16.3763 64.8358 16.3572 64.8397 16.3426C64.8436 16.3286 64.8472 16.3225 64.8459 16.3247L65.5483 16.7078ZM65.6326 16.3984H66.4326C66.4326 16.1403 66.3336 15.9132 66.2638 15.7735L65.5483 16.1312L64.8327 16.489C64.848 16.5196 64.8508 16.53 64.8487 16.5233C64.8474 16.5193 64.8437 16.5071 64.8403 16.4879C64.8368 16.469 64.8326 16.4383 64.8326 16.3984H65.6326ZM65.5483 16.1312L66.2746 15.796C66.1479 15.5214 65.9471 15.3065 65.7003 15.1546L65.2811 15.8359L64.8618 16.5173C64.8632 16.5181 64.8562 16.5139 64.846 16.5027C64.8356 16.4913 64.8273 16.4782 64.8219 16.4665L65.5483 16.1312ZM65.2811 15.8359L65.7248 15.1703C65.4605 14.9941 65.1642 14.9251 64.8872 14.9105L64.8451 15.7094L64.8031 16.5083C64.8414 16.5103 64.8603 16.5151 64.8647 16.5163C64.8682 16.5173 64.8565 16.5144 64.8373 16.5016L65.2811 15.8359ZM64.8451 15.7094V14.9094H60.8514V15.7094V16.5094H64.8451V15.7094ZM60.8514 15.7094L60.8742 14.9097C60.3253 14.894 59.9352 14.7706 59.6571 14.5893L59.2201 15.2594L58.7831 15.9295C59.3675 16.3106 60.0649 16.4872 60.8285 16.509L60.8514 15.7094ZM59.2201 15.2594L59.6639 14.5937C59.3249 14.3677 59.1252 14.1418 59.014 13.9305L58.3061 14.3031L57.5981 14.6757C57.862 15.177 58.2716 15.5885 58.7764 15.925L59.2201 15.2594ZM58.3061 14.3031L59.0253 13.9527C58.8957 13.6869 58.8389 13.4357 58.8389 13.1922H58.0389H57.2389C57.2389 13.6986 57.3602 14.1881 57.5869 14.6535L58.3061 14.3031ZM58.0389 13.1922H58.8389C58.8389 12.9691 58.8948 12.7352 59.0281 12.482L58.3201 12.1094L57.6122 11.7368C57.3705 12.1961 57.2389 12.684 57.2389 13.1922H58.0389ZM58.3201 12.1094L59.032 12.4744C59.1442 12.2555 59.3433 12.0278 59.678 11.8047L59.2342 11.1391L58.7904 10.4734C58.2813 10.8128 57.871 11.232 57.6083 11.7443L58.3201 12.1094ZM59.2342 11.1391L59.678 11.8047C59.943 11.628 60.3245 11.5044 60.8742 11.4887L60.8514 10.6891L60.8285 9.88939C60.0657 9.91118 59.3691 10.0876 58.7904 10.4734L59.2342 11.1391ZM60.8514 10.6891V11.4891H60.9358V10.6891V9.88906H60.8514V10.6891ZM60.9358 10.6891L61.0673 11.4782C61.0807 11.4759 61.0929 11.475 61.1045 11.475V10.675V9.875C61.0036 9.875 60.9033 9.88343 60.8042 9.89995L60.9358 10.6891ZM61.1045 10.675V11.475H66.392V10.675V9.875H61.1045V10.675ZM66.392 10.675V11.475C66.426 11.475 66.4389 11.4806 66.4409 11.4814C66.4425 11.4821 66.4531 11.4864 66.4729 11.5072L67.0529 10.9562L67.6329 10.4053C67.3012 10.0561 66.8701 9.875 66.392 9.875V10.675ZM67.0529 10.9562L66.5019 11.5362C66.5228 11.5561 66.527 11.5667 66.5278 11.5683C66.5286 11.5703 66.5342 11.5831 66.5342 11.6172H67.3342H68.1342C68.1342 11.1391 67.9531 10.708 67.6039 10.3763L67.0529 10.9562ZM69.4363 10.9562L70.0019 11.5219L69.4363 10.9562ZM78.9706 10.9422L79.5506 10.3912L79.5365 10.3763L79.5216 10.3622L78.9706 10.9422ZM75.1597 12.5594V11.7594H74.3597V12.5594H75.1597ZM75.1597 18.2547L75.9557 18.3343L75.9597 18.2946V18.2547H75.1597ZM74.2316 19.1688V19.9688H74.2648L74.298 19.966L74.2316 19.1688ZM73.5425 18.9156L72.9915 19.4956L73.0063 19.5097L73.0219 19.523L73.5425 18.9156ZM73.2613 12.5594H74.0613V11.7594H73.2613V12.5594ZM69.4503 12.2781L70.0303 11.7271L70.0162 11.7123L70.0013 11.6981L69.4503 12.2781ZM69.1691 11.6172H69.9691C69.9691 11.5779 69.9754 11.5603 69.9776 11.5549C69.9795 11.5502 69.9842 11.5397 70.0019 11.5219L69.4363 10.9562L68.8706 10.3906C68.5355 10.7256 68.3691 11.1525 68.3691 11.6172H69.1691ZM69.4363 10.9562L70.0019 11.5219C70.0411 11.4828 70.0633 11.475 70.1113 11.475V10.675V9.875C69.6342 9.875 69.2064 10.0547 68.8706 10.3906L69.4363 10.9562ZM70.1113 10.675V11.475H78.2956V10.675V9.875H70.1113V10.675ZM78.2956 10.675V11.475C78.3565 11.475 78.3833 11.4876 78.4196 11.5222L78.9706 10.9422L79.5216 10.3622C79.183 10.0405 78.7598 9.875 78.2956 9.875V10.675ZM78.9706 10.9422L78.3906 11.4932C78.4252 11.5295 78.4378 11.5563 78.4378 11.6172H79.2378H80.0378C80.0378 11.153 79.8723 10.7298 79.5506 10.3912L78.9706 10.9422ZM79.2378 11.6172H78.4378C78.4378 11.6651 78.4301 11.6873 78.3909 11.7265L78.9566 12.2922L79.5223 12.8579C79.8581 12.5221 80.0378 12.0943 80.0378 11.6172H79.2378ZM78.9566 12.2922L78.3909 11.7265C78.3731 11.7443 78.3626 11.749 78.3579 11.7509C78.3525 11.7531 78.3349 11.7594 78.2956 11.7594V12.5594V13.3594C78.7604 13.3594 79.1872 13.1929 79.5223 12.8579L78.9566 12.2922ZM78.2956 12.5594V11.7594H75.1597V12.5594V13.3594H78.2956V12.5594ZM75.1597 12.5594H74.3597V18.2547H75.1597H75.9597V12.5594H75.1597ZM75.1597 18.2547L74.3637 18.1751C74.3484 18.3274 74.31 18.349 74.3241 18.3351C74.3384 18.3211 74.3167 18.3589 74.1651 18.3715L74.2316 19.1688L74.298 19.966C74.7089 19.9317 75.1232 19.7938 75.4468 19.4751C75.7703 19.1565 75.9147 18.7445 75.9557 18.3343L75.1597 18.2547ZM74.2316 19.1688V18.3687C74.1574 18.3687 74.1131 18.351 74.0631 18.3082L73.5425 18.9156L73.0219 19.523C73.3657 19.8177 73.7807 19.9688 74.2316 19.9688V19.1688ZM73.5425 18.9156L74.0935 18.3356C74.0726 18.3158 74.0684 18.3052 74.0677 18.3036C74.0669 18.3016 74.0613 18.2887 74.0613 18.2547H73.2613H72.4613C72.4613 18.7328 72.6423 19.1639 72.9915 19.4956L73.5425 18.9156ZM73.2613 18.2547H74.0613V12.5594H73.2613H72.4613V18.2547H73.2613ZM73.2613 12.5594V11.7594H70.1113V12.5594V13.3594H73.2613V12.5594ZM70.1113 12.5594V11.7594C70.0772 11.7594 70.0643 11.7538 70.0624 11.7529C70.0607 11.7522 70.0502 11.748 70.0303 11.7271L69.4503 12.2781L68.8703 12.8291C69.202 13.1783 69.6332 13.3594 70.1113 13.3594V12.5594ZM69.4503 12.2781L70.0013 11.6981C69.9804 11.6783 69.9762 11.6677 69.9755 11.6661C69.9747 11.6641 69.9691 11.6512 69.9691 11.6172H69.1691H68.3691C68.3691 12.0953 68.5502 12.5264 68.8993 12.8581L69.4503 12.2781ZM83.618 10.675V9.875H83.5952L83.5724 9.8763L83.618 10.675ZM89.0461 10.675L89.0747 9.87551L89.0604 9.875H89.0461V10.675ZM89.693 10.9703L89.0984 11.5055L89.1056 11.5135L89.113 11.5213L89.693 10.9703ZM89.9602 11.6453L90.7574 11.7117L90.7602 11.6786V11.6453H89.9602ZM89.0461 12.5594V13.3594H89.0794L89.1126 13.3566L89.0461 12.5594ZM84.0961 12.5594V11.7594H84.0751L84.0541 11.7605L84.0961 12.5594ZM82.6899 13.8391L81.933 13.5796L81.9287 13.5928L82.6899 13.8391ZM82.6899 15.8219L81.9267 16.0617L81.9309 16.075L81.9355 16.0881L82.6899 15.8219ZM84.0961 17.0875L84.0541 17.8864L84.0751 17.8875H84.0961V17.0875ZM89.0461 17.0875L89.0747 16.288L89.0604 16.2875H89.0461V17.0875ZM89.693 17.3828L89.0984 17.918L89.1056 17.926L89.113 17.9338L89.693 17.3828ZM89.9602 18.0578L90.7596 18.0874L90.7602 18.0726V18.0578H89.9602ZM89.0461 18.9719V19.7719H89.0609L89.0757 19.7713L89.0461 18.9719ZM83.618 18.9719L83.5724 19.7706L83.5952 19.7719H83.618V18.9719ZM81.9868 18.2266L81.3921 18.7617L81.3977 18.768L81.4035 18.7741L81.9868 18.2266ZM81.0727 16.6375L80.3067 16.8685L80.3102 16.8796L81.0727 16.6375ZM82.0008 11.4344L82.5901 11.9755L82.5955 11.9695L82.0008 11.4344ZM89.6508 15.4281L89.0998 14.8481L89.0849 14.8623L89.0708 14.8771L89.6508 15.4281ZM84.068 15.4422L83.488 15.9932L83.5021 16.0081L83.517 16.0222L84.068 15.4422ZM84.068 14.0922L83.517 13.5122L83.5021 13.5263L83.488 13.5412L84.068 14.0922ZM89.6508 14.1062L89.0708 14.6572L89.0849 14.6721L89.0998 14.6862L89.6508 14.1062ZM83.618 10.675V11.475H84.2649V10.675V9.875H83.618V10.675ZM84.2649 10.675V11.475H89.0461V10.675V9.875H84.2649V10.675ZM89.0461 10.675L89.0176 11.4745C89.0552 11.4758 89.07 11.4825 89.0725 11.4836C89.0743 11.4844 89.0826 11.4879 89.0984 11.5055L89.693 10.9703L90.2876 10.4351C89.9672 10.0791 89.5439 9.89227 89.0747 9.87551L89.0461 10.675ZM89.693 10.9703L89.113 11.5213C89.1475 11.5577 89.1602 11.5845 89.1602 11.6453H89.9602H90.7602C90.7602 11.1812 90.5947 10.758 90.273 10.4193L89.693 10.9703ZM89.9602 11.6453L89.163 11.5789C89.1503 11.7309 89.1126 11.7483 89.1308 11.73C89.1491 11.7118 89.1317 11.7495 88.9797 11.7621L89.0461 12.5594L89.1126 13.3566C89.5231 13.3224 89.9393 13.1843 90.2622 12.8614C90.5851 12.5385 90.7232 12.1223 90.7574 11.7117L89.9602 11.6453ZM89.0461 12.5594V11.7594H84.0961V12.5594V13.3594H89.0461V12.5594ZM84.0961 12.5594L84.0541 11.7605C83.4978 11.7898 83.0043 12.012 82.6232 12.4237L83.2102 12.9672L83.7972 13.5107C83.8848 13.4161 83.982 13.3665 84.1382 13.3583L84.0961 12.5594ZM83.2102 12.9672L82.6232 12.4237C82.3126 12.7591 82.0816 13.1466 81.9331 13.5796L82.6899 13.8391L83.4466 14.0985C83.5232 13.8753 83.639 13.6816 83.7972 13.5107L83.2102 12.9672ZM82.6899 13.8391L81.9287 13.5928C81.7997 13.9917 81.7352 14.403 81.7352 14.8234H82.5352H83.3352C83.3352 14.5689 83.3738 14.3239 83.451 14.0853L82.6899 13.8391ZM82.5352 14.8234H81.7352C81.7352 15.2439 81.7996 15.6575 81.9267 16.0617L82.6899 15.8219L83.4531 15.582C83.3739 15.33 83.3352 15.078 83.3352 14.8234H82.5352ZM82.6899 15.8219L81.9355 16.0881C82.0851 16.5119 82.3163 16.8917 82.6232 17.2232L83.2102 16.6797L83.7972 16.1362C83.6354 15.9614 83.5197 15.7694 83.4443 15.5556L82.6899 15.8219ZM83.2102 16.6797L82.6232 17.2232C83.0043 17.6349 83.4978 17.8571 84.0541 17.8864L84.0961 17.0875L84.1382 16.2886C83.982 16.2804 83.8848 16.2308 83.7972 16.1362L83.2102 16.6797ZM84.0961 17.0875V17.8875H89.0461V17.0875V16.2875H84.0961V17.0875ZM89.0461 17.0875L89.0176 17.887C89.0552 17.8883 89.07 17.895 89.0725 17.8961C89.0743 17.8969 89.0826 17.9004 89.0984 17.918L89.693 17.3828L90.2876 16.8476C89.9672 16.4916 89.5439 16.3048 89.0747 16.288L89.0461 17.0875ZM89.693 17.3828L89.113 17.9338C89.1475 17.9702 89.1602 17.997 89.1602 18.0578H89.9602H90.7602C90.7602 17.5937 90.5947 17.1705 90.273 16.8318L89.693 17.3828ZM89.9602 18.0578L89.1607 18.0282C89.1588 18.0808 89.1477 18.1045 89.1133 18.139L89.6789 18.7047L90.2446 19.2704C90.5664 18.9486 90.7428 18.5411 90.7596 18.0874L89.9602 18.0578ZM89.6789 18.7047L89.1133 18.139C89.0966 18.1556 89.0814 18.17 89.0165 18.1724L89.0461 18.9719L89.0757 19.7713C89.5171 19.755 89.9238 19.5912 90.2446 19.2704L89.6789 18.7047ZM89.0461 18.9719V18.1719H83.8852V18.9719V19.7719H89.0461V18.9719ZM83.8852 18.9719V18.1719H83.618V18.9719V19.7719H83.8852V18.9719ZM83.618 18.9719L83.6636 18.1732C83.2024 18.1468 82.8543 17.9818 82.57 17.679L81.9868 18.2266L81.4035 18.7741C81.9817 19.39 82.7211 19.7219 83.5724 19.7706L83.618 18.9719ZM81.9868 18.2266L82.5814 17.6914C82.2343 17.3057 81.9876 16.8756 81.8352 16.3954L81.0727 16.6375L80.3102 16.8796C80.5328 17.5807 80.8955 18.2099 81.3921 18.7617L81.9868 18.2266ZM81.0727 16.6375L81.8386 16.4065C81.6832 15.891 81.6055 15.3642 81.6055 14.8234H80.8055H80.0055C80.0055 15.5202 80.106 16.2027 80.3068 16.8685L81.0727 16.6375ZM80.8055 14.8234H81.6055C81.6055 14.2869 81.6866 13.7639 81.8493 13.2514L81.0868 13.0094L80.3243 12.7673C80.1119 13.4361 80.0055 14.1224 80.0055 14.8234H80.8055ZM81.0868 13.0094L81.8493 13.2514C82.0012 12.7727 82.2465 12.3496 82.59 11.9755L82.0008 11.4344L81.4116 10.8933C80.9114 11.4379 80.5473 12.0648 80.3243 12.7673L81.0868 13.0094ZM82.0008 11.4344L82.5955 11.9695C82.8697 11.6648 83.2081 11.4997 83.6636 11.4737L83.618 10.675L83.5724 9.8763C82.7154 9.92527 81.9757 10.2664 81.4062 10.8992L82.0008 11.4344ZM89.9321 14.7672H89.1321C89.1321 14.8012 89.1265 14.8141 89.1256 14.8161C89.1249 14.8177 89.1207 14.8283 89.0998 14.8481L89.6508 15.4281L90.2018 16.0081C90.551 15.6764 90.7321 15.2453 90.7321 14.7672H89.9321ZM89.6508 15.4281L89.0708 14.8771C89.051 14.898 89.0404 14.9022 89.0387 14.9029C89.0368 14.9038 89.0239 14.9094 88.9899 14.9094V15.7094V16.5094C89.4679 16.5094 89.8991 16.3283 90.2308 15.9791L89.6508 15.4281ZM88.9899 15.7094V14.9094H84.743V15.7094V16.5094H88.9899V15.7094ZM84.743 15.7094V14.9094C84.6822 14.9094 84.6554 14.8967 84.619 14.8622L84.068 15.4422L83.517 16.0222C83.8556 16.3439 84.2789 16.5094 84.743 16.5094V15.7094ZM84.068 15.4422L84.648 14.8912C84.6135 14.8548 84.6008 14.828 84.6008 14.7672H83.8008H83.0008C83.0008 15.2313 83.1663 15.6545 83.488 15.9932L84.068 15.4422ZM83.8008 14.7672H84.6008C84.6008 14.7063 84.6135 14.6795 84.648 14.6432L84.068 14.0922L83.488 13.5412C83.1663 13.8798 83.0008 14.303 83.0008 14.7672H83.8008ZM84.068 14.0922L84.619 14.6722C84.6554 14.6376 84.6822 14.625 84.743 14.625V13.825V13.025C84.2789 13.025 83.8556 13.1905 83.517 13.5122L84.068 14.0922ZM84.743 13.825V14.625H88.9899V13.825V13.025H84.743V13.825ZM88.9899 13.825V14.625C89.0239 14.625 89.0368 14.6306 89.0387 14.6314C89.0404 14.6321 89.051 14.6364 89.0708 14.6572L89.6508 14.1062L90.2308 13.5553C89.8991 13.2061 89.4679 13.025 88.9899 13.025V13.825ZM89.6508 14.1062L89.0998 14.6862C89.1207 14.7061 89.1249 14.7167 89.1256 14.7183C89.1265 14.7203 89.1321 14.7331 89.1321 14.7672H89.9321H90.7321C90.7321 14.2891 90.551 13.858 90.2018 13.5263L89.6508 14.1062ZM93.5529 18.2547L94.3489 18.3343L94.3529 18.2946V18.2547H93.5529ZM92.6248 19.1688V19.9688H92.658L92.6912 19.966L92.6248 19.1688ZM91.9357 18.9156L91.3847 19.4956L91.3995 19.5097L91.4151 19.523L91.9357 18.9156ZM91.6544 11.5891L90.855 11.5605L90.8544 11.5748V11.5891H91.6544ZM91.9498 10.9422L92.4849 11.5368L92.4929 11.5296L92.5008 11.5222L91.9498 10.9422ZM98.6857 10.6891L98.5542 11.4782L98.6195 11.4891H98.6857V10.6891ZM98.7701 10.6891L98.7929 9.88939L98.7815 9.88906H98.7701V10.6891ZM101.301 12.1094L100.589 12.4744L100.593 12.482L101.301 12.1094ZM101.301 14.3031L100.589 13.9381L100.586 13.9454L101.301 14.3031ZM100.387 15.2594L99.9502 14.5893L99.9435 14.5937L100.387 15.2594ZM98.7701 15.7094V16.5094H98.7815L98.7929 16.509L98.7701 15.7094ZM96.2951 15.7094V14.9094H95.3569L95.5051 15.8358L96.2951 15.7094ZM96.7591 16.75L97.3248 16.1843L97.319 16.1785L97.3132 16.1729L96.7591 16.75ZM100.654 17.0875L100.683 16.288L100.669 16.2875H100.654V17.0875ZM101.301 17.3828L100.707 17.918L100.714 17.926L100.721 17.9338L101.301 17.3828ZM101.569 18.0578L102.368 18.0874L102.369 18.0726V18.0578H101.569ZM100.654 18.9719V19.7719H100.669L100.684 19.7713L100.654 18.9719ZM97.3638 18.9719V18.1718L97.353 18.1719L97.3638 18.9719ZM94.4529 16.1875L95.2428 16.0607L95.2404 16.0456L95.2373 16.0306L94.4529 16.1875ZM94.4669 14.1062L95.0326 14.6719L94.4669 14.1062ZM98.8544 13.825V14.625H98.8755L98.8965 14.6239L98.8544 13.825ZM99.2904 13.7125L99.6935 14.4035L99.7016 14.3988L99.7097 14.3938L99.2904 13.7125ZM99.5576 13.4734L100.223 13.9172L100.234 13.9014L100.244 13.885L99.5576 13.4734ZM99.5576 12.925L98.8716 13.3366L98.8814 13.3529L98.8919 13.3688L99.5576 12.925ZM99.2904 12.6859L98.8466 13.3516L98.878 13.3725L98.9111 13.3903L99.2904 12.6859ZM98.8544 12.5594L98.8965 11.7605L98.8755 11.7594H98.8544V12.5594ZM93.9185 12.5594V11.7594H93.9031L93.8878 11.76L93.9185 12.5594ZM93.5529 18.2547L92.7569 18.1751C92.7416 18.3274 92.7032 18.349 92.7173 18.3351C92.7316 18.3211 92.7099 18.3589 92.5583 18.3715L92.6248 19.1688L92.6912 19.966C93.1021 19.9317 93.5164 19.7938 93.84 19.4751C94.1635 19.1565 94.3079 18.7445 94.3489 18.3343L93.5529 18.2547ZM92.6248 19.1688V18.3687C92.5506 18.3687 92.5063 18.351 92.4563 18.3082L91.9357 18.9156L91.4151 19.523C91.7589 19.8177 92.1739 19.9688 92.6248 19.9688V19.1688ZM91.9357 18.9156L92.4867 18.3356C92.4658 18.3158 92.4616 18.3052 92.4609 18.3036C92.4601 18.3016 92.4544 18.2887 92.4544 18.2547H91.6544H90.8544C90.8544 18.7328 91.0355 19.1639 91.3847 19.4956L91.9357 18.9156ZM91.6544 18.2547H92.4544V11.5891H91.6544H90.8544V18.2547H91.6544ZM91.6544 11.5891L92.4539 11.6176C92.4553 11.5799 92.4619 11.5651 92.4631 11.5627C92.4639 11.5609 92.4674 11.5526 92.4849 11.5368L91.9498 10.9422L91.4146 10.3476C91.0586 10.668 90.8717 11.0913 90.855 11.5605L91.6544 11.5891ZM91.9498 10.9422L92.5008 11.5222C92.5371 11.4876 92.5639 11.475 92.6248 11.475V10.675V9.875C92.1606 9.875 91.7374 10.0405 91.3988 10.3622L91.9498 10.9422ZM92.6248 10.675V11.475H93.3138V10.675V9.875H92.6248V10.675ZM93.3138 10.675V11.475H95.0435V10.675V9.875H93.3138V10.675ZM95.0435 10.675V11.475H98.5169V10.675V9.875H95.0435V10.675ZM98.5169 10.675V11.475C98.5285 11.475 98.5408 11.4759 98.5542 11.4782L98.6857 10.6891L98.8172 9.89995C98.7181 9.88343 98.6179 9.875 98.5169 9.875V10.675ZM98.6857 10.6891V11.4891H98.7701V10.6891V9.88906H98.6857V10.6891ZM98.7701 10.6891L98.7472 11.4887C99.2969 11.5044 99.6784 11.628 99.9435 11.8047L100.387 11.1391L100.831 10.4734C100.252 10.0876 99.5557 9.91118 98.7929 9.88939L98.7701 10.6891ZM100.387 11.1391L99.9435 11.8047C100.278 12.0278 100.477 12.2555 100.589 12.4744L101.301 12.1094L102.013 11.7443C101.75 11.232 101.34 10.8128 100.831 10.4734L100.387 11.1391ZM101.301 12.1094L100.593 12.482C100.727 12.7352 100.783 12.9691 100.783 13.1922H101.583H102.383C102.383 12.684 102.251 12.1961 102.009 11.7368L101.301 12.1094ZM101.583 13.1922H100.783C100.783 13.4284 100.725 13.6744 100.589 13.9381L101.301 14.3031L102.013 14.6682C102.253 14.2006 102.383 13.706 102.383 13.1922H101.583ZM101.301 14.3031L100.586 13.9454C100.487 14.1426 100.297 14.3634 99.9502 14.5893L100.387 15.2594L100.824 15.9295C101.34 15.5929 101.759 15.1761 102.017 14.6609L101.301 14.3031ZM100.387 15.2594L99.9435 14.5937C99.6784 14.7704 99.2969 14.894 98.7472 14.9097L98.7701 15.7094L98.7929 16.509C99.5557 16.4873 100.252 16.3108 100.831 15.925L100.387 15.2594ZM98.7701 15.7094V14.9094H96.2951V15.7094V16.5094H98.7701V15.7094ZM96.2951 15.7094L95.5051 15.8358C95.5954 16.4002 95.799 16.9373 96.2051 17.3271L96.7591 16.75L97.3132 16.1729C97.2505 16.1127 97.1447 15.956 97.085 15.583L96.2951 15.7094ZM96.7591 16.75L96.1934 17.3157C96.5827 17.705 97.079 17.8875 97.6169 17.8875V17.0875V16.2875C97.4612 16.2875 97.3855 16.245 97.3248 16.1843L96.7591 16.75ZM97.6169 17.0875V17.8875H100.654V17.0875V16.2875H97.6169V17.0875ZM100.654 17.0875L100.626 17.887C100.664 17.8883 100.678 17.895 100.681 17.8961C100.683 17.8969 100.691 17.9004 100.707 17.918L101.301 17.3828L101.896 16.8476C101.576 16.4916 101.152 16.3048 100.683 16.288L100.654 17.0875ZM101.301 17.3828L100.721 17.9338C100.756 17.9702 100.769 17.997 100.769 18.0578H101.569H102.369C102.369 17.5937 102.203 17.1705 101.881 16.8318L101.301 17.3828ZM101.569 18.0578L100.769 18.0282C100.767 18.0808 100.756 18.1045 100.722 18.139L101.287 18.7047L101.853 19.2704C102.175 18.9486 102.351 18.5411 102.368 18.0874L101.569 18.0578ZM101.287 18.7047L100.722 18.139C100.705 18.1556 100.69 18.17 100.625 18.1724L100.654 18.9719L100.684 19.7713C101.125 19.755 101.532 19.5912 101.853 19.2704L101.287 18.7047ZM100.654 18.9719V18.1719H97.3638V18.9719V19.7719H100.654V18.9719ZM97.3638 18.9719L97.353 18.1719C96.9027 18.178 96.4733 18.0116 96.0404 17.5858L95.4794 18.1562L94.9185 18.7267C95.6106 19.4072 96.4374 19.7845 97.3746 19.7718L97.3638 18.9719ZM95.4794 18.1562L96.0404 17.5858C95.5962 17.1491 95.3369 16.647 95.2428 16.0607L94.4529 16.1875L93.663 16.3143C93.8127 17.2468 94.2377 18.0572 94.9185 18.7267L95.4794 18.1562ZM94.4529 16.1875L95.2373 16.0306C95.1534 15.6107 95.0914 15.2878 95.0506 15.0592C95.0302 14.9445 95.016 14.8585 95.0071 14.7981C94.9956 14.7189 94.9998 14.7259 94.9998 14.7672H94.1998H93.3998C93.3998 14.86 93.4145 14.9649 93.424 15.0298C93.4363 15.1136 93.4537 15.218 93.4755 15.34C93.5191 15.5849 93.5837 15.9206 93.6684 16.3444L94.4529 16.1875ZM94.1998 14.7672H94.9998C94.9998 14.7279 95.0061 14.7103 95.0082 14.7049C95.0102 14.7002 95.0149 14.6897 95.0326 14.6719L94.4669 14.1062L93.9013 13.5406C93.5662 13.8756 93.3998 14.3025 93.3998 14.7672H94.1998ZM94.4669 14.1062L95.0326 14.6719C95.0718 14.6328 95.094 14.625 95.1419 14.625V13.825V13.025C94.6649 13.025 94.2371 13.2047 93.9013 13.5406L94.4669 14.1062ZM95.1419 13.825V14.625H98.8544V13.825V13.025H95.1419V13.825ZM98.8544 13.825L98.8965 14.6239C99.1572 14.6102 99.4379 14.5526 99.6935 14.4035L99.2904 13.7125L98.8873 13.0215C98.9034 13.0121 98.9091 13.0121 98.8971 13.0152C98.8847 13.0184 98.8578 13.0237 98.8124 13.0261L98.8544 13.825ZM99.2904 13.7125L99.7097 14.3938C99.8922 14.2815 100.082 14.1286 100.223 13.9172L99.5576 13.4734L98.8919 13.0297C98.9072 13.0067 98.918 12.9977 98.9152 13.0003C98.9139 13.0014 98.9099 13.0048 98.9025 13.0102C98.8952 13.0157 98.8849 13.0227 98.8711 13.0312L99.2904 13.7125ZM99.5576 13.4734L100.244 13.885C100.362 13.6879 100.442 13.4535 100.442 13.1922H99.6419H98.8419C98.8419 13.1578 98.8473 13.1273 98.8546 13.1029C98.8617 13.0792 98.8694 13.0654 98.8716 13.0618L99.5576 13.4734ZM99.6419 13.1922H100.442C100.442 12.9275 100.36 12.6858 100.223 12.4812L99.5576 12.925L98.8919 13.3688C98.8818 13.3536 98.8685 13.3292 98.858 13.296C98.8473 13.2623 98.8419 13.2267 98.8419 13.1922H99.6419ZM99.5576 12.925L100.244 12.5134C100.096 12.2674 99.885 12.0975 99.6697 11.9816L99.2904 12.6859L98.9111 13.3903C98.9395 13.4056 98.9066 13.3951 98.8716 13.3366L99.5576 12.925ZM99.2904 12.6859L99.7341 12.0203C99.4698 11.8441 99.1735 11.7751 98.8965 11.7605L98.8544 12.5594L98.8124 13.3583C98.8507 13.3603 98.8697 13.3651 98.874 13.3663C98.8775 13.3673 98.8658 13.3644 98.8466 13.3516L99.2904 12.6859ZM98.8544 12.5594V11.7594H95.0435V12.5594V13.3594H98.8544V12.5594ZM95.0435 12.5594V11.7594H93.9185V12.5594V13.3594H95.0435V12.5594ZM93.9185 12.5594L93.8878 11.76C93.6481 11.7692 93.3318 11.8389 93.0786 12.0921C92.8201 12.3506 92.7529 12.674 92.7529 12.925H93.5529H94.3529C94.3529 12.9417 94.3466 13.0869 94.21 13.2235C94.147 13.2865 94.08 13.3221 94.0288 13.3405C93.9808 13.3577 93.9501 13.3588 93.9493 13.3588L93.9185 12.5594ZM93.5529 12.925H92.7529V18.2547H93.5529H94.3529V12.925H93.5529Z" fill="#F75049" fill-opacity="0.3" mask="url(#path-2-outside-1_181_78)"/>
</svg>
