<svg width="412" height="412" viewBox="0 0 412 412" fill="none" xmlns="http://www.w3.org/2000/svg">
<g opacity="0.1">
<g filter="url(#filter0_f_90_355)">
<path d="M239.468 164.928C237.451 164.928 235.517 165.729 234.091 167.155L210.014 191.231C206.918 190.392 203.632 190.546 200.621 191.68C197.418 192.886 194.713 195.132 192.938 198.059C191.162 200.985 190.42 204.422 190.83 207.82C191.24 211.218 192.778 214.381 195.198 216.801C197.618 219.221 200.781 220.759 204.179 221.169C207.577 221.579 211.015 220.838 213.941 219.062C216.868 217.287 219.114 214.582 220.32 211.379C221.455 208.367 221.608 205.079 220.768 201.983L244.845 177.909C246.271 176.483 247.071 174.548 247.071 172.531C247.071 170.515 246.271 168.581 244.845 167.155C243.419 165.729 241.484 164.928 239.468 164.928ZM107.422 154.985C99.249 170.747 94.9959 188.247 95.0225 206.002L95.0244 207H133.555L133.554 205.999C133.538 194.971 136.051 184.086 140.899 174.181L141.94 172.052L140.111 172.651L108.81 154.58L107.903 154.057L107.422 154.985ZM303.188 154.579L271.497 172.876L270.688 173.343L271.099 174.182C275.948 184.086 278.461 194.971 278.446 205.999L278.445 207H316.977L316.978 206.001C317.003 188.246 312.749 170.747 304.577 154.984L304.095 154.056L303.188 154.579ZM146.143 112.544C132.66 121.2 121.2 132.659 112.543 146.141L111.977 147.023L112.885 147.547L144.572 165.842L145.379 166.308L145.9 165.535C151.127 157.792 157.794 151.127 165.538 145.903L166.312 145.382L165.845 144.574L147.549 112.885L147.025 111.978L146.143 112.544ZM264.464 112.883L246.165 144.577L245.699 145.385L246.472 145.906C254.212 151.131 260.876 157.795 266.101 165.535L266.622 166.308L267.43 165.842L299.122 147.544L300.03 147.02L299.464 146.138C290.808 132.657 279.35 121.198 265.87 112.541L264.988 111.975L264.464 112.883ZM200.87 95.1445C184.866 95.8593 169.209 100.05 154.988 107.427L154.06 107.908L154.582 108.814L172.878 140.504L173.345 141.312L174.184 140.902C182.567 136.797 191.669 134.361 200.982 133.729L201.915 133.666V95.0977L200.87 95.1445ZM210.085 133.662L211.018 133.726C220.329 134.356 229.429 136.79 237.811 140.894L238.648 141.305L239.116 140.496L257.414 108.804L257.938 107.897L257.009 107.416C242.788 100.043 227.133 95.8534 211.13 95.1387L210.085 95.0918V133.662ZM180.801 335.891L179.996 335.729C163.085 332.355 147.003 325.69 132.664 316.111L131.981 315.655L113.51 334.127L77.873 298.49L95.7637 280.6L96.3447 280.02L95.8887 279.337C86.3098 264.998 79.6434 248.915 76.2695 232.004L76.1094 231.199H50V180.801H76.1094L76.2705 179.996C79.6446 163.085 86.3099 147.003 95.8887 132.664L96.3447 131.982L95.7646 131.401L77.873 113.51L113.51 77.873L131.401 95.7646L131.982 96.3447L132.664 95.8887C147.003 86.31 163.086 79.6447 179.996 76.2705L180.801 76.1094V50H231.199V76.1123L232.004 76.2725C248.914 79.6465 264.996 86.3128 279.335 95.8916L280.018 96.3477L280.598 95.7676L298.49 77.873L334.127 113.51L316.234 131.403L315.653 131.983L316.109 132.666C325.688 147.004 332.355 163.086 335.729 179.996L335.889 180.801H362V231.199H335.889L335.728 232.004C332.353 248.914 325.688 264.997 316.109 279.336L315.653 280.018L316.233 280.599L334.126 298.49L298.489 334.126L280.599 316.235L280.018 315.655L279.336 316.111C264.997 325.69 248.914 332.355 232.004 335.729L231.199 335.891V362H180.801V335.891ZM248.661 263.638C248.658 262.363 248.149 261.142 247.248 260.24C246.347 259.339 245.125 258.831 243.851 258.827H168.149C166.875 258.831 165.652 259.338 164.751 260.239C163.85 261.141 163.342 262.363 163.339 263.638V279.598C163.342 280.872 163.851 282.094 164.752 282.995C165.653 283.897 166.875 284.405 168.149 284.408H243.851C245.125 284.404 246.347 283.896 247.248 282.995C248.149 282.094 248.657 280.872 248.661 279.598V263.638Z" stroke="#07596E" stroke-width="2"/>
</g>
<path d="M239.468 164.928C237.451 164.928 235.517 165.729 234.091 167.155L210.014 191.231C206.918 190.392 203.632 190.546 200.621 191.68C197.418 192.886 194.713 195.132 192.938 198.059C191.162 200.985 190.42 204.422 190.83 207.82C191.24 211.218 192.778 214.381 195.198 216.801C197.618 219.221 200.781 220.759 204.179 221.169C207.577 221.579 211.015 220.838 213.941 219.062C216.868 217.287 219.114 214.582 220.32 211.379C221.455 208.367 221.608 205.079 220.768 201.983L244.845 177.909C246.271 176.483 247.072 174.548 247.072 172.531C247.072 170.515 246.27 168.581 244.845 167.155C243.419 165.729 241.484 164.928 239.468 164.928ZM107.422 154.985C99.249 170.747 94.9959 188.247 95.0225 206.002L95.0244 207H133.555L133.554 205.999C133.538 194.971 136.051 184.086 140.899 174.181L141.943 172.047L140.111 172.65L108.81 154.58L107.903 154.057L107.422 154.985ZM303.188 154.579L271.497 172.876L270.688 173.343L271.099 174.182C275.948 184.086 278.461 194.971 278.446 205.999L278.445 207H316.977L316.978 206.001C317.003 188.246 312.749 170.747 304.577 154.984L304.095 154.056L303.188 154.579ZM146.143 112.544C132.66 121.2 121.2 132.659 112.543 146.141L111.977 147.023L112.885 147.547L144.572 165.842L145.379 166.308L145.9 165.535C151.127 157.792 157.794 151.127 165.538 145.903L166.312 145.382L165.845 144.574L147.549 112.885L147.025 111.978L146.143 112.544ZM264.464 112.883L246.165 144.577L245.699 145.385L246.472 145.906C254.212 151.131 260.876 157.795 266.101 165.535L266.622 166.308L267.43 165.842L299.122 147.544L300.03 147.02L299.464 146.138C290.808 132.657 279.35 121.198 265.87 112.541L264.988 111.975L264.464 112.883ZM200.87 95.1445C184.866 95.8593 169.209 100.05 154.988 107.427L154.06 107.908L154.582 108.814L172.878 140.504L173.345 141.312L174.184 140.902C182.567 136.797 191.669 134.361 200.982 133.729L201.915 133.666V95.0977L200.87 95.1445ZM210.085 133.662L211.018 133.726C220.329 134.356 229.429 136.79 237.811 140.894L238.648 141.305L239.116 140.496L257.414 108.804L257.938 107.897L257.009 107.416C242.788 100.043 227.133 95.8534 211.13 95.1387L210.085 95.0918V133.662ZM180.801 335.891L179.996 335.729C163.085 332.355 147.003 325.69 132.664 316.111L131.981 315.655L113.51 334.127L77.873 298.49L95.7637 280.6L96.3447 280.02L95.8887 279.337C86.3098 264.998 79.6434 248.915 76.2695 232.004L76.1094 231.199H50V180.801H76.1094L76.2705 179.996C79.6446 163.085 86.3099 147.003 95.8887 132.664L96.3447 131.982L95.7646 131.401L77.873 113.51L113.51 77.873L131.401 95.7646L131.982 96.3447L132.664 95.8887C147.003 86.31 163.086 79.6447 179.996 76.2705L180.801 76.1094V50H231.199V76.1123L232.004 76.2725C248.914 79.6465 264.996 86.3128 279.335 95.8916L280.018 96.3477L280.598 95.7676L298.49 77.873L334.127 113.51L316.234 131.403L315.653 131.983L316.109 132.666C325.688 147.004 332.355 163.086 335.729 179.996L335.889 180.801H362V231.199H335.889L335.728 232.004C332.353 248.914 325.688 264.997 316.109 279.336L315.653 280.018L316.233 280.599L334.126 298.49L298.489 334.126L280.599 316.235L280.018 315.655L279.336 316.111C264.997 325.69 248.914 332.355 232.004 335.729L231.199 335.891V362H180.801V335.891ZM248.661 263.638C248.658 262.363 248.149 261.142 247.248 260.24C246.347 259.339 245.125 258.831 243.851 258.827H168.149C166.875 258.831 165.652 259.338 164.751 260.239C163.85 261.141 163.342 262.363 163.339 263.638V279.598C163.342 280.872 163.851 282.094 164.752 282.995C165.653 283.897 166.875 284.405 168.149 284.408H243.851C245.125 284.404 246.347 283.896 247.248 282.995C248.149 282.094 248.657 280.872 248.661 279.598V263.638Z" stroke="#07596E" stroke-width="2"/>
</g>
<defs>
<filter id="filter0_f_90_355" x="42" y="42" width="328" height="328" filterUnits="userSpaceOnUse" color-interpolation-filters="sRGB">
<feFlood flood-opacity="0" result="BackgroundImageFix"/>
<feBlend mode="normal" in="SourceGraphic" in2="BackgroundImageFix" result="shape"/>
<feGaussianBlur stdDeviation="3.5" result="effect1_foregroundBlur_90_355"/>
</filter>
</defs>
</svg>
