<svg width="204" height="36" viewBox="0 0 204 36" fill="none" xmlns="http://www.w3.org/2000/svg">
<path opacity="0.7" d="M177.096 3.86843C158.423 3.8787 137.98 3.94038 119.232 3.86013C116.93 3.85032 117.088 3.71599 116.442 3.69826C114.677 3.64934 113.614 3.80779 112.327 3.79616C106.072 3.74017 100.221 3.71738 94.0852 3.66653C87.7641 3.61427 90.7542 3.19671 88.5579 3.09499C84.2666 2.89578 87.9167 3.44027 86.23 3.56252C81.3105 3.52986 76.3474 3.47087 71.4191 3.41115C72.6222 3.36031 73.8256 3.31056 75.0419 3.26345C72.8939 3.25224 69.8196 3.1682 73.4167 3.0259C72.6217 2.9867 71.8794 2.94087 71.0624 2.90261C70.8384 3.10089 67.0354 3.11684 66.6877 3.23439C66.3407 3.35198 68.4789 3.32496 68.4657 3.33522C68.3239 3.48168 59.5528 3.28149 58.9203 3.26516C57.2481 3.22171 58.7142 2.97589 57.2917 2.99172C54.845 3.01878 56.4749 3.51893 53.1629 2.85402C51.8453 3.07002 51.7303 2.95785 50.0619 2.94289C49.8423 2.94102 50.0127 3.06609 49.9161 3.06935C47.3907 3.16218 49.3319 2.92961 49.3187 2.91701C49.0894 2.70299 46.3793 2.79813 45.8084 2.77761C38.6443 2.52192 33.3951 2.34882 25.8357 2.28957C24.2015 2.27697 19.2245 2.3638 17.6431 2.32741C16.0835 2.29149 16.9203 2.13729 16.1041 2.06325C14.7957 2.43421 13.5476 2.47512 10.6102 2.23073C9.51649 2.50133 9.65713 2.28305 7.5619 2.33717C6.62426 2.36128 5.3121 2.46627 4.00094 2.51519C3.19193 2.55083 2.632 3.25536 2.53015 3.90074C2.55972 3.26436 2.83463 2.96384 3.04903 2.7405C3.28135 2.52808 3.52365 2.34923 4.00094 2.30104C4.34089 2.28029 4.75823 2.25982 5.30953 2.24196C6.1342 2.21538 14.7341 2.2097 14.0941 1.93312C13.7603 1.78895 10.9101 1.92136 10.7999 1.89479C10.1586 1.73988 11.7494 1.5495 13.1594 1.61622C12.8081 1.64749 12.3847 1.6792 12.0069 1.71046C15.174 1.9041 12.996 1.16039 15.403 1.81032C15.7007 1.89004 15.5853 1.97316 16.076 2.05788C16.1768 2.02284 15.5766 1.93598 16.0935 1.92042C16.6208 1.90474 17.6221 2.06966 17.7714 1.93068C17.9945 1.72857 15.8099 1.80822 15.6455 1.7964C15.6438 1.79762 15.642 1.79884 15.6402 1.80006C14.1868 1.69276 17.2223 1.68052 17.3673 1.66139C18.3063 1.53546 17.666 1.4385 19.075 1.33448C19.8789 1.27523 21.9264 1.31016 22.682 1.29103C23.4327 1.27142 22.2647 1.17581 22.7698 1.15529C23.275 1.13476 23.9039 1.2074 24.4969 1.18361C24.7507 1.17312 24.7377 1.06648 24.8606 1.06276C26.1781 1.02173 25.3138 1.24352 26.5086 1.22999C27.2826 1.221 29.8804 1.01424 28.0898 0.952648C28.9505 0.931193 29.7898 0.915485 30.6461 0.898692C30.106 0.866974 29.5479 0.845421 29.021 0.808116C30.6324 0.858906 31.3614 0.676428 32.3714 0.662852C33.3817 0.649321 34.2874 0.868295 35.3986 0.761485C37.7707 0.534249 31.8971 0.639237 31.1679 0.598642C30.8837 0.582684 31.975 0.411161 32.143 0.406259C32.8895 0.384803 33.7725 0.507464 34.348 0.501962C36.408 0.481433 37.6695 0.319547 39.6328 0.286874C46.3183 0.175823 54.6119 0.085763 60.9461 0.0503005C63.3049 0.0372355 64.7243 0.219252 65.7829 0.214119C68.2596 0.201973 68.563 0.0433551 70.7233 0.0349195C73.9388 0.0218546 78.4685 0.16033 81.1525 0.190194C83.0104 0.210723 84.6926 0.0572203 85.1758 0.0534743C91.8922 -0.00158489 100.063 0.00187361 105.628 7.27177e-06C108.246 -0.000923276 109.489 0.171576 110.029 0.166512C112.353 0.145051 111.73 -0.00243342 113.613 0.0124586C114.631 0.0203791 114.821 0.161959 114.957 0.167488C116.157 0.214149 116.395 0.0292666 117.331 0.0232008C122.712 -0.0117749 127.895 0.109226 133.222 0.126961C133.609 0.128361 133.575 0.210262 133.825 0.206063C134.9 0.185962 134.4 0.0569814 135.524 0.0476149C137.861 0.0275509 140.26 0.0488621 142.738 0.0651931C142.983 0.0668017 143.094 0.172086 143.655 0.172127C144.217 0.172127 144.644 0.0723194 145.526 0.0778885C147.832 0.0923531 150.108 0.211736 152.55 0.21827C152.954 0.219203 153.455 0.0923727 154.061 0.0937576C155.963 0.0979571 158.779 0.213094 160.409 0.217293C165.786 0.230355 170.746 0.158168 175.81 0.157234C177 0.15729 178.055 0.274797 178.674 0.277596C180.07 0.283625 179.017 0.172594 180.431 0.172127C186.937 0.170551 193.458 0.185876 200.001 0.19798C201.974 0.154205 203.746 1.92839 203.698 3.90074C203.692 7.93317 203.688 11.9746 203.691 16.0271C203.694 20.6174 203.809 26.2048 203.777 30.6412C203.773 31.1633 203.758 31.5644 203.739 31.9007C203.594 33.4643 203.041 34.3087 201.599 35.1356C201.043 35.4103 200.489 35.5123 200.001 35.5194C198.422 35.5608 197.807 35.7064 195.714 35.7231C193.755 35.7385 191.51 35.542 189.472 35.5542C187.434 35.5663 186.493 35.7571 184.152 35.78C182.223 35.7986 179.531 35.712 177.432 35.726C158.192 35.8548 139.247 35.9332 119.889 35.7839C113.058 35.7312 105.48 35.7586 98.4209 35.571C97.758 35.5533 98.7721 35.369 96.6465 35.4077C95.5044 35.4287 93.91 35.5875 91.2703 35.5954C75.5753 35.6421 58.8342 35.3024 42.8758 35.3696C29.9143 35.4245 16.6972 35.8352 4.00095 35.8938C1.86288 35.9477 -0.0498629 34.0248 0.000983953 31.9007C0.00444651 22.3022 0.246069 13.043 1.03845 4.46603C1.13269 3.4471 1.5945 3.99964 1.72571 4.6101C1.63194 5.17662 1.52057 5.70038 1.41467 6.29323C1.99171 7.03979 1.84146 6.90815 1.78967 9.67531C1.75751 11.3789 2.00429 10.0181 2.07434 10.9262C2.16486 12.1035 2.4499 17.6307 2.06775 16.5677C2.134 16.9103 2.19747 17.2266 2.26233 17.5604C2.32019 21.5619 2.41587 25.4497 2.52551 29.3634C2.54468 30.0395 2.66459 30.0707 2.68372 30.769C2.69462 31.1605 2.69982 31.5353 2.70132 31.9007C2.69611 32.5912 3.26111 33.2254 4.00095 33.2312C4.33065 33.2338 4.67015 33.2346 5.02457 33.2324C6.07441 33.2258 6.22005 33.0873 7.59495 33.0961C8.96902 33.1051 8.93891 33.2921 10.8136 33.0888C9.5925 32.8541 15.0397 33.0244 16.9769 33.01C17.258 33.0081 19.5639 32.7972 20.7895 32.8215C22.0192 32.8453 23.8862 32.98 25.7879 32.9035C26.6796 32.8676 27.2207 32.7034 28.1826 32.694C28.859 32.6875 29.6716 32.8335 30.5281 32.8396C31.3843 32.8456 33.2369 32.7258 33.5764 32.7238C34.8017 32.7159 33.4499 32.8185 34.2879 32.8237C38.3334 32.847 43.0337 32.902 47.0221 32.833C47.5125 32.8246 46.834 32.7037 46.8991 32.6997C50.2279 32.5513 48.4512 32.7088 49.35 32.8171C50.2208 32.9218 56.5925 32.8647 56.6395 32.6545C56.8352 32.9177 58.2517 32.7167 58.6196 32.7089C60.0513 32.6791 59.7705 32.9068 61.1583 32.8364C61.6676 32.8107 60.676 32.6568 61.2233 32.6613C62.5762 32.6725 63.7937 32.9198 65.5946 32.9445C66.0294 32.9506 66.1708 32.8405 66.9439 32.8442C67.7179 32.848 70.9622 32.9827 69.4651 32.7504C71.4328 32.9366 71.8289 32.8344 74.1174 32.8396C74.6971 32.8411 75.4435 33.0186 76.6772 32.9636C77.0945 32.9449 77.0822 32.7738 77.7103 32.7724C79.1465 32.7687 80.4995 32.9458 82.3222 32.9528C85.7309 32.9664 89.3594 32.8419 92.913 32.8862C93.8788 32.8983 93.6377 33.0704 95.0424 33.0737C95.2488 33.0737 96.9407 32.9249 97.9114 32.9389C98.4957 32.9473 101.523 33.0519 102.133 33.0603C103.143 33.0737 103.323 32.9074 103.876 32.9399C105.475 33.0337 104.192 33.2786 106.116 32.9436C106.749 33.1293 107.873 33.1107 108.233 33.3393C108.888 33.0888 109.737 33.3295 111.006 33.2456C112.275 33.1616 113.316 32.6763 113.624 33.1984C114.217 33.135 116.743 33.0267 117.169 33.0188C118.425 32.9964 117.753 33.1408 118.701 33.1213C118.868 33.118 118.693 33.0193 119.764 33.029C120.467 33.0355 125.616 33.0416 125.924 33.0551C129.432 33.2097 124.012 33.1531 123.253 33.26C123.119 33.2319 122.987 33.2037 122.844 33.176C121.294 33.1293 122.176 33.3525 122.879 33.4043C123.582 33.456 124.895 33.3566 125.479 33.4299C125.77 33.4667 125.59 33.7342 124.71 33.7019C125.652 33.7843 124.365 33.8713 124.738 33.9487C125.147 34.0336 129.38 34.0597 129.403 33.9123C128.612 33.9072 127.628 33.9123 126.829 33.9062C125.783 33.65 128.959 32.7752 131.871 33.1247C133.984 33.3776 130.501 33.5787 135.499 33.3664C134.731 33.3561 134.08 33.3322 133.382 33.3215C133.308 33.1294 134.441 33.3406 135.025 33.2795C135.305 33.2496 133.576 33.1136 135.077 33.0683C136.369 33.343 137.362 33.0667 139.528 33.0634C138.926 33.1124 138.323 33.1612 137.722 33.2102C141.381 33.4094 132.882 33.4751 139.997 33.5866C139.141 33.5955 138.289 33.5931 137.428 33.6066C137.845 33.7074 137.178 34.0034 137.551 34.0659C138.53 34.23 139.98 34.1311 141.174 34.1455C141.697 34.1515 141.373 34.2314 141.416 34.2319C142.132 34.2407 141.974 34.1236 142.602 34.1162C143.393 34.1068 145.676 34.2207 146.046 34.2077C147.003 34.1746 145.409 33.9435 145.501 33.9262C146.112 33.8143 147.359 33.9071 147.293 33.7607C144.293 33.8615 135.646 33.7321 143.469 33.4899C141.312 33.2534 141.935 32.9272 145.036 32.9016C147.601 32.8801 145.946 33.0108 147.281 33.1545C147.454 33.1725 150.889 33.2412 151.065 33.1396C150.928 33.3736 152.046 33.5808 151.296 33.8222C151.186 33.8577 149.776 33.8437 150.268 34.0378C150.514 34.1353 151.22 34.3475 151.106 34.4716C151.396 34.3853 151.699 34.2882 151.993 34.1982C154.106 34.173 154.406 34.266 155.561 34.427C155.509 34.3598 154.441 34.0774 156.062 34.1633C156.145 34.1684 156.217 34.2698 157.041 34.32C158.705 34.4208 159.053 34.4521 157.775 34.7497C161.222 34.58 161.965 34.9116 165.5 34.8147C164.797 34.4321 163.555 34.5268 160.317 34.6005C160.177 34.5096 160.111 34.4195 159.966 34.3276C164.275 34.5338 162.146 34.5128 164.587 34.3281C165.184 34.2828 168.369 34.3313 167.306 34.0737C167.056 34.0131 165.077 34.0201 165.304 33.9245C165.347 33.9063 167.753 33.86 167.965 33.8847C170.627 34.1894 165.87 34.4018 173.201 34.2907C173.403 34.2875 173.474 34.1761 173.869 34.1606C174.611 34.1317 174.62 34.2607 175.283 34.2309C175.946 34.2011 176.865 34.0275 177.862 34.1879C179.685 34.48 175.385 34.648 173.47 34.4931C172.692 34.8748 186.375 34.8832 187.223 34.8505C190.925 34.7083 184.764 34.7904 184.447 34.6845C184.315 34.6397 184.381 34.072 182.822 34.4404C182.361 34.5496 184.288 34.6934 183.138 34.7536C181.987 34.8138 182.443 34.6466 182.36 34.635C182.074 34.595 180.85 34.657 180.691 34.6333C178.248 34.2735 178.472 33.7299 181.71 34.5329C183.12 34.3514 179.883 34.0621 181.636 33.9389C183.766 33.7892 185.321 34.0481 185.589 34.0598C188.799 34.1978 185.098 33.8199 189.019 33.9406C191.202 34.0078 185.751 34.1922 190.737 34.1674C194.91 34.1464 192.656 34.0149 192.959 33.7158C193.031 33.6458 195.317 33.56 192.204 33.5908C192.116 33.6687 191.95 33.7714 191.752 33.8432C190.989 33.7863 189.715 33.3964 189.31 33.3828C187.329 33.3179 187.425 33.5203 186.257 33.2819C187.091 33.5427 185.733 33.3856 185.224 33.4406C183.332 33.6435 185.812 33.719 181.566 33.4582C182.119 33.5805 182.62 33.7004 183.156 33.8222C182.646 33.8264 182.136 33.8307 181.627 33.8349C180.867 33.5657 178.161 33.6001 180.612 33.3291C177.665 33.2521 176.473 33.3108 175.828 33.5202C175.705 33.5602 175.262 33.5762 174.742 33.58C174.84 33.6389 174.966 33.8209 174.884 33.8432C174.151 34.0395 173.014 33.7004 173.401 33.571C173.037 33.5648 172.749 33.5575 172.647 33.5544C172.003 33.5343 173.267 33.4173 172.744 33.3772C172.572 33.3641 170.755 33.3896 170.72 33.342C170.501 33.037 173.491 33.257 167.487 33.0798C167.342 33.3574 170.131 33.2964 169.415 33.5913C168.646 33.9081 167.078 33.4831 166.735 33.8718C166.608 33.8079 166.552 33.7546 166.442 33.6818C164.013 33.8512 163.981 33.5275 163.239 33.456C161.798 33.3165 155.174 33.3374 161.122 33.6179C160.252 33.6459 159.364 33.6588 158.499 33.6835C158.301 33.1032 158.828 33.3342 154.66 33.2456C153.742 33.226 153.443 32.9707 152.543 33.2739C152.665 32.9765 149.95 33.1562 149.697 33.1201C148.072 32.8854 154.106 32.5587 154.88 33.0844C155.898 32.8797 155.895 33.1503 157.032 33.1145C158.675 33.0627 158.903 33.01 160.853 33.2097C162.773 32.9283 153.338 33.0859 159.058 32.7126C163.813 32.4023 187.634 32.2061 200.001 32.1165C200.128 32.1109 200.207 31.9885 200.194 31.9007C200.187 30.8098 200.18 29.8905 200.175 29.183C200.1 18.6926 200.044 11.9092 200.027 3.90074C200.028 3.88895 200.01 3.87525 200.001 3.87887C198.201 3.88022 196.317 3.87966 194.298 3.87697C193.051 3.87558 183.634 3.90255 185.591 3.57741C185.872 3.53075 189.923 3.4071 186.448 3.15187C187.155 3.30257 185.112 3.40042 184.941 3.41628C181.01 3.77649 183.286 3.8647 177.096 3.86843ZM158.749 0.968517C166.826 1.0427 160.892 0.825341 162.57 0.334481C161.533 0.333081 160.501 0.331731 159.464 0.330331C159.736 0.361125 160.005 0.391822 160.277 0.422616C160.278 0.422616 160.28 0.422616 160.281 0.422616C159.771 0.604564 159.258 0.786569 158.749 0.968517ZM26.7001 0.639902C27.0152 0.57527 27.3267 0.510512 27.6681 0.447275C28.7354 0.467335 29.7985 0.487029 30.8658 0.507089C30.7384 0.550942 30.6154 0.595317 30.488 0.63917C29.2255 0.637307 27.9669 0.635272 26.7001 0.639902ZM172.34 34.5642C170.829 34.3846 170.965 34.7051 168.958 34.559C169.204 34.7956 169.477 35.027 169.736 35.2612C171.264 35.2262 171.611 35.1362 173.271 35.1941C173.078 35.118 172.88 35.0415 172.691 34.965C172.415 34.9814 172.121 34.9999 171.853 35.0144C171.428 34.8016 174.08 34.7699 172.345 34.5637C172.344 34.5638 172.342 34.564 172.34 34.5642ZM156.856 34.6594C156.044 34.6286 152.824 34.5128 152.385 34.6108C150.896 34.943 159.979 34.7322 153.284 35.0275C153.315 35.0742 153.284 35.1198 153.284 35.166C154.506 35.1823 155.723 35.1964 156.953 35.2094C156.887 35.0256 156.931 34.8441 156.856 34.6594ZM187.965 0.948009C189.214 0.973602 195.168 0.817338 193.227 0.606943C192.656 0.545352 189.998 0.846327 188.987 0.833262C188.333 0.824841 189.066 0.659815 187.775 0.720469C187.832 0.793206 187.867 0.873854 187.968 0.947521C187.967 0.947683 187.966 0.947846 187.965 0.948009ZM185.623 1.90822C186.914 1.87882 188.223 1.84158 189.523 1.81032C188.574 1.62232 186.708 1.74308 186.598 1.47853C186.953 1.45847 187.305 1.43853 187.661 1.41847C187.933 1.47631 188.201 1.53421 188.469 1.59205C189.585 1.44834 188.909 1.37694 190.987 1.41847C189.73 1.01859 189.497 0.803963 185.939 1.20851C186.611 0.991547 185.978 0.284606 184.006 0.789805C183.637 0.883592 185.178 0.946261 185.196 0.961193C185.433 1.14684 184.578 1.26531 184.832 1.44069C184.946 1.52001 185.886 1.5188 186.027 1.62892C186.092 1.68264 185.198 1.8359 185.623 1.90822ZM183.049 0.966808C183.449 0.854362 182.083 0.587518 180.897 0.641611C179.047 0.7256 181.964 0.979406 183.049 0.966808ZM26.6931 0.640146C26.6954 0.640065 26.6977 0.639984 26.7001 0.639902C26.6989 0.640146 26.6978 0.640391 26.6966 0.640635C26.6954 0.640472 26.6942 0.640309 26.6931 0.640146ZM161.047 34.7895C160.089 34.8851 158.672 34.8712 158.777 35.0232C158.311 34.9933 157.84 34.9639 157.375 34.934C157.379 34.9797 157.388 35.0255 157.392 35.0708C158.793 35.0992 160.19 35.1278 161.591 35.1567C161.415 35.0345 161.253 34.9118 161.047 34.7895ZM145.782 34.6831C144.021 34.6677 145.498 34.8745 145.111 34.9743C144.725 35.0742 143.156 34.9929 143.34 35.1362C144.377 35.1418 145.458 35.1474 146.508 35.1525C146.231 34.9967 146.038 34.838 145.779 34.6831C145.78 34.6831 145.781 34.6831 145.782 34.6831ZM125.782 0.805674C126.976 0.850477 126.489 1.00826 128.848 0.823497C128.846 0.823497 128.844 0.823497 128.842 0.823497C126.598 0.69427 123.709 0.579103 121.231 0.704111C122.747 0.870577 123.902 0.735694 125.782 0.805674ZM176.518 35.0297C177.022 34.9047 174.673 34.8003 174.155 34.9165C173.316 35.1045 175.749 35.2196 176.518 35.0297ZM77.5279 1.9131C75.7105 2.29801 79.1541 2.73008 82.76 2.54347C83.0719 2.52714 80.7439 2.40473 81.4336 2.32961C81.5032 2.32221 82.7812 2.33138 83.0974 2.27785C83.4136 2.22419 83.0815 2.09964 83.5998 2.04738C84.5094 1.95604 86.5647 2.12528 87.2455 2.00539C87.3351 1.98932 86.0605 1.82275 85.9805 1.81642C84.6716 1.71564 83.4103 1.93338 83.2081 1.93483C82.167 1.94229 82.3244 1.77159 82.0608 1.73146C81.5643 1.65599 80.6904 1.73144 80.6289 1.72584C79.049 1.57613 82.659 1.61897 83.1466 1.55739C84.4597 1.39128 83.2439 1.23686 86.3934 1.14308C86.6924 1.13425 90.2724 1.14428 85.7609 0.953136C94.6193 0.5547 81.3098 0.7265 79.8646 0.814219C79.1985 0.85489 80.2071 1.0176 79.8031 1.09083C78.8807 1.25831 77.3083 1.28785 77.4489 1.52394C77.7521 2.02029 79.8172 1.69506 81.2403 1.77858C81.0909 1.88636 81.0339 1.99149 80.7571 2.09694C81.1832 1.95509 77.6597 1.88413 77.5279 1.91212C77.5279 1.91245 77.5279 1.91277 77.5279 1.9131ZM99.9533 1.34596C101.943 1.49574 101.802 1.18241 103.625 1.36158C105.233 1.08024 102.062 1.09912 101.693 1.08326C100.006 1.01235 100.045 0.706422 98.3194 0.800547C98.9123 0.981564 99.3955 1.16448 99.9533 1.34596ZM82.6458 1.21681C83.9766 1.05817 81.5952 1.06086 81.4986 1.03053C80.4469 0.708736 87.5779 0.771275 82.6458 1.21681ZM195.716 1.57838C196.392 1.58911 195.963 1.43722 196.56 1.39235C197.157 1.3471 199.199 1.47709 199.148 1.38258C199.095 1.28786 195.353 1.04222 199.109 0.989025C198.982 0.935859 199.025 0.896199 198.963 0.848155C197.931 0.846755 196.889 0.844428 195.857 0.843028C196.423 0.996056 197.004 1.15704 197.549 1.30494C196.969 1.42673 196.643 1.27052 196.612 1.27052C196.612 1.27068 196.612 1.27085 196.612 1.27101C195.532 1.28326 194.198 1.55452 195.716 1.57838ZM142.483 1.10157C142.281 1.48186 143.876 1.05715 144.53 1.01002C145.184 0.963061 146.084 1.10384 145.746 0.940196C144.687 0.827283 142.505 1.05914 142.483 1.10206C142.483 1.1019 142.483 1.10174 142.483 1.10157ZM110.764 1.34523C112.432 1.25292 112.167 1.15406 114.207 1.26686C114.128 1.17494 114.049 1.08101 113.97 0.99049C112.349 0.988623 112.463 1.25546 110.588 1.1482C110.281 1.13048 110.939 0.917337 109.551 0.985851C109.955 1.09961 110.364 1.22587 110.764 1.34523ZM119.03 1.00441C117.115 1.01844 115.596 1.76225 119.123 1.42677C119.646 1.37663 120.47 0.993677 119.03 1.00441ZM178.05 1.59718C181.308 1.61862 177.607 1.49859 176.759 1.38429C184.343 1.29286 175.903 1.41557 175.146 1.03541C174.219 1.14367 172.485 1.39124 174.412 1.45753C175.216 1.48506 174.922 1.37186 174.97 1.37233C176.451 1.40033 176.271 1.58552 178.05 1.59718ZM96.4957 1.36427C96.6186 1.35867 96.4263 1.23026 96.8172 1.2046C97.2086 1.17913 98.0945 1.269 98.1823 1.1902C98.2697 1.11091 96.4927 1.04942 95.9475 1.10719C95.4028 1.16551 95.3844 1.41371 96.4957 1.36427ZM108.998 1.68068C110.626 1.58828 107.964 1.11523 107.61 1.11744C104.5 1.14217 109.09 1.5309 108.998 1.68068ZM170.485 2.40065C174.412 2.16035 171.539 1.74279 169.08 1.49269C168.755 1.54352 168.421 1.59442 168.101 1.64479C169.577 1.3359 172.163 1.03059 166.409 1.29982C169.559 1.37251 166.921 1.45549 166.901 1.47291C166.554 2.0403 171.22 1.7768 170.482 2.40065C170.483 2.40065 170.484 2.40065 170.485 2.40065ZM91.2021 1.22902C89.4928 1.23091 85.0494 1.32892 87.1225 1.57619C88.4839 1.46049 89.8406 1.34471 91.2021 1.22902ZM199.509 33.434C198.112 33.2927 196.825 33.2951 195.103 33.3044C196.653 33.5102 195.634 33.5338 195.112 33.5842C194.319 33.66 196.239 33.6538 196.245 33.6677C196.21 33.8632 194.985 33.8935 197.773 33.8889C197.084 33.957 196.404 34.0256 195.714 34.0932C197.84 34.1021 198.34 34.2296 199.688 34.3855C198.873 34.1483 199.234 34.1514 200.001 34.1416C200.517 34.1516 201.223 33.8827 201.594 33.3493C201.783 33.0521 201.583 33.1877 201.24 33.3484C200.894 33.5171 200.366 33.5935 200.001 33.5041C199.805 33.4715 199.631 33.4468 199.504 33.434C199.506 33.434 199.507 33.434 199.509 33.434ZM174.544 2.47707C174.948 2.40848 175.318 2.3157 175.708 2.23732C176.134 2.22985 176.561 2.2233 176.987 2.21584C177.04 2.27647 177.084 2.3399 177.146 2.39821C177.707 2.41586 177.488 2.33143 177.655 2.3235C177.655 2.32383 177.655 2.32415 177.655 2.32448C180.048 2.21255 181.028 2.22514 182.903 2.41261C182.903 2.22682 182.903 2.04103 182.903 1.85524C182.482 1.87296 182.056 1.89023 181.635 1.90749C181.411 2.00732 181.186 2.10721 180.962 2.20705C180.474 2.15199 179.991 2.09731 179.503 2.04225C179.113 2.07815 178.643 2.11593 178.305 2.15089C176.359 1.6316 180.782 1.98438 180.821 1.76881C180.847 1.63024 176.394 1.6363 175.752 1.73195C175.66 1.74594 176.622 2.13264 174.993 1.93117C174.739 1.89944 174.649 1.06285 172.892 1.74025C172.642 1.83635 173.516 2.35607 174.544 2.47707ZM190.714 2.74684C188.211 2.21167 197.451 2.77757 193.464 2.33717C194.601 2.09131 194.39 2.09451 193.244 1.87624C193.143 1.85667 193.935 1.78912 193.868 1.78053C192.796 1.66015 191.505 1.72398 191.496 1.50514C191.206 1.5168 190.934 1.52717 190.644 1.53883C191.851 1.74503 189.932 1.88361 189.189 2.05763C188.851 2.13645 189.628 2.16077 189.344 2.22975C189.238 2.25494 188.153 2.20466 188.109 2.27687C188.017 2.44018 188.698 2.66088 189.853 2.78127C189.853 2.78143 189.853 2.78159 189.853 2.78176C190.143 2.77103 190.425 2.75803 190.714 2.74684ZM137.202 2.30226C136.776 2.00644 135.068 1.92176 138.349 1.77711C138.187 1.71885 138.02 1.66106 137.857 1.6028C137.304 1.60793 136.768 1.61302 136.206 1.61769C134.519 2.48921 131.44 1.50568 133.412 2.12379C133.627 2.19099 134.94 2.11591 133.644 2.29836C133.646 2.29852 133.648 2.29868 133.649 2.29884C135.459 2.24285 135.687 2.13804 137.202 2.30226ZM149.312 2.09596C153.485 1.47351 143.546 1.74866 145.206 1.91383C145.356 1.92876 149.637 1.795 149.312 2.09596ZM115.827 2.63771C117.698 2.64844 117.822 2.3126 117.633 2.19167C117.444 2.07036 116.149 2.19294 115.982 2.17384C115.437 2.11085 116.592 2.06925 115.885 1.98292C115.651 1.95489 112.392 1.83516 112.243 1.84962C111.414 1.92995 112.626 2.20706 112.389 2.23879C111.616 2.34278 110.566 2.19863 110.342 2.34596C109.859 2.66034 111.816 2.33032 112.146 2.32497C113.144 2.31004 113.056 2.48702 113.803 2.52248C114.549 2.55787 115.037 2.49724 115.695 2.50978C115.914 2.51397 115.732 2.63659 115.827 2.63771ZM122.013 1.92848C120.059 2.18271 124.817 2.4592 125.381 2.39967C127.042 2.22283 122.949 1.80716 122.013 1.92848ZM184.446 1.93922C182.658 2.12352 186.822 2.27269 188.012 2.1985C187.791 2.12192 185.06 1.87578 184.446 1.93922ZM169.396 2.39967C171.039 2.34228 168.86 1.92708 167.49 1.93361C166.686 2.20648 167.442 2.15239 168.338 2.16359C169.233 2.17489 168.114 2.44438 169.396 2.39967ZM95.5346 2.33424C95.8891 2.33858 101.602 2.11303 98.3194 2.0193C98.069 2.0123 94.0703 2.05202 93.7672 2.09401C93.1573 2.17894 94.6211 2.32211 95.5346 2.33424ZM161.516 2.80275C162.386 2.56671 163.241 2.56988 162.442 2.29274C162.441 2.29274 162.44 2.29274 162.438 2.29274C164.639 2.20786 164.736 2.77484 165.211 2.76271C166.87 2.72016 165.298 2.31661 166.339 2.1841C163.919 2.30866 164.613 2.03657 162.772 2.0193C162.359 2.01557 160.707 2.17806 160.465 2.27931C160.224 2.38061 161.068 2.68423 161.516 2.80275ZM87.4651 2.39308C89.3932 2.48352 91.1586 2.10097 88.4841 2.0403C87.1795 2.01044 86.2879 2.33802 87.4651 2.39308ZM154.075 33.3127C154.369 33.413 154.672 33.5129 154.989 33.6123C154.277 33.6365 153.565 33.6613 152.854 33.686C153.416 33.6543 153.979 33.623 154.546 33.5918C153.211 33.5568 152.6 33.3743 154.072 33.3127C154.073 33.3127 154.074 33.3127 154.075 33.3127ZM106.534 33.2363C105.937 33.1397 104.76 33.4388 104.909 33.4621C106.033 33.636 107.364 33.3702 106.534 33.2363ZM187.086 2.84767C189.307 2.88951 187.78 2.40322 186.419 2.36989C187.251 2.46289 185.826 2.82389 187.086 2.84767ZM123.253 33.26C123.453 33.3018 123.654 33.3436 123.877 33.3855C123.174 33.3273 123.053 33.2882 123.253 33.26ZM96.443 2.76369C96.7821 2.801 99.2896 2.83182 99.6283 2.78566C100.331 2.68861 98.3757 2.42013 97.2248 2.5027C97.0974 2.51157 96.1056 2.72636 96.4482 2.76369C96.4465 2.76369 96.4447 2.76369 96.443 2.76369ZM151.071 33.1264C151.075 33.1311 151.073 33.1355 151.065 33.1396C151.068 33.1353 151.067 33.1308 151.071 33.1264ZM56.6202 32.6323C56.6338 32.6398 56.6411 32.6473 56.6395 32.6545C56.6343 32.6474 56.6236 32.64 56.6202 32.6323ZM114.128 3.17653C114.963 3.63987 116.887 3.39343 115.367 3.16433C115.282 3.15229 114.331 3.17744 114.128 3.17653Z" fill="#07596E"/>
</svg>
