<svg width="230" height="35" viewBox="0 0 230 35" fill="none" xmlns="http://www.w3.org/2000/svg">
<g filter="url(#filter0_f_84_400)">
<path d="M43.0892 13.9208C42.4954 13.9521 41.9954 14.1786 41.5892 14.6005C41.1986 15.0224 40.9173 15.5068 40.7454 16.0536C40.5736 16.5849 40.4876 17.1318 40.4876 17.6943C40.4876 18.2568 40.5658 18.8114 40.722 19.3583C40.8939 19.9052 41.1829 20.3896 41.5892 20.8114C41.9954 21.2177 42.4954 21.4364 43.0892 21.4677H50.8236C51.8079 21.5614 52.347 22.1005 52.4408 23.0849C52.4251 23.5224 52.2611 23.8896 51.9486 24.1864C51.6361 24.4677 51.2611 24.6083 50.8236 24.6083H43.347H42.2689C41.1751 24.5458 40.2767 24.1318 39.5736 23.3661C38.8704 22.5849 38.3626 21.7021 38.0501 20.7177C37.7533 19.7333 37.6048 18.7255 37.6048 17.6943C37.6048 16.9286 37.6908 16.1708 37.8626 15.4208C38.0345 14.6708 38.3001 13.9599 38.6595 13.288C39.0345 12.6005 39.5267 12.0146 40.1361 11.5302C40.7611 11.0458 41.472 10.7958 42.2689 10.7802H42.7142H50.8236C51.8079 10.8739 52.347 11.413 52.4408 12.3974C52.4408 12.8349 52.2767 13.2021 51.9486 13.4989C51.6361 13.7802 51.2611 13.9208 50.8236 13.9208H43.0892ZM56.4073 10.4052C56.8448 10.4052 57.2198 10.5536 57.5323 10.8505C57.8448 11.1318 58.0089 11.4911 58.0245 11.9286V12.3739C58.0089 13.0146 58.0479 13.6083 58.1417 14.1552C58.2511 14.6864 58.5011 15.163 58.8917 15.5849C59.2823 16.0068 59.7745 16.2333 60.3682 16.2646H66.9542V11.9755C66.9542 11.538 67.1104 11.1786 67.4229 10.8974C67.7511 10.6005 68.1339 10.4521 68.5714 10.4521C69.5089 10.5302 70.0245 11.038 70.1182 11.9755V17.413C70.1182 18.663 69.9464 19.8427 69.6026 20.9521C69.2901 21.9364 68.7745 22.7724 68.0557 23.4599C67.3526 24.1318 66.4542 24.4989 65.3604 24.5614H56.9229C56.5011 24.5458 56.1417 24.3974 55.8448 24.1161C55.5636 23.8193 55.4151 23.4599 55.3995 23.038C55.3995 22.6005 55.5401 22.2255 55.8214 21.913C56.1182 21.6005 56.4854 21.4364 56.9229 21.4208H64.5636C65.1573 21.3896 65.6495 21.163 66.0401 20.7411C66.3995 20.3505 66.6417 19.9052 66.7667 19.4052H59.5714C58.4776 19.3427 57.5714 18.9755 56.8526 18.3036C56.1495 17.6161 55.6417 16.7802 55.3292 15.7958C55.0323 14.8114 54.8761 13.7646 54.8604 12.6552V11.9286C54.8761 11.5068 55.0323 11.1552 55.3292 10.8739C55.6261 10.5771 55.9854 10.4208 56.4073 10.4052ZM89.0614 18.4208C89.3582 19.0458 89.5067 19.6786 89.5067 20.3193C89.5067 20.9443 89.3504 21.5693 89.0379 22.1943C88.7254 22.8036 88.2176 23.3505 87.5145 23.8349C86.8114 24.3036 85.9129 24.538 84.8192 24.538H84.6786C84.5848 24.5536 84.4911 24.5614 84.3973 24.5614H74.9754C74.5536 24.5458 74.1942 24.3974 73.8973 24.1161C73.6161 23.8193 73.4676 23.4599 73.452 23.038V12.3036C73.4676 11.8818 73.6161 11.5302 73.8973 11.2489C74.1942 10.9521 74.5536 10.7958 74.9754 10.7802H83.0379C83.1317 10.7802 83.2254 10.788 83.3192 10.8036H83.4598C84.5536 10.8349 85.452 11.0849 86.1551 11.5536C86.8582 12.0224 87.3661 12.5614 87.6786 13.1708C87.9911 13.7646 88.1473 14.3661 88.1473 14.9755C88.1473 15.6005 87.9989 16.2099 87.702 16.8036C87.6864 16.8349 87.6707 16.8583 87.6551 16.8739C88.2957 17.3271 88.7645 17.8427 89.0614 18.4208ZM84.9598 21.4208C85.2567 21.4364 85.4989 21.3818 85.6864 21.2568C85.8895 21.1318 86.0379 20.9911 86.1317 20.8349C86.2254 20.663 86.2723 20.4911 86.2723 20.3193C86.2723 20.2099 86.2254 20.0614 86.1317 19.8739C86.0379 19.6708 85.8895 19.5068 85.6864 19.3818C85.4989 19.2568 85.2567 19.1864 84.9598 19.1708H83.4598H76.6161V20.788C76.6161 21.2099 76.8348 21.4208 77.2723 21.4208H77.4598H84.9598ZM84.3504 15.8193C84.5379 15.7099 84.6786 15.5849 84.7723 15.4443C84.8661 15.288 84.9129 15.1318 84.9129 14.9755C84.9129 14.8193 84.8661 14.6708 84.7723 14.5302C84.6786 14.3739 84.5301 14.2411 84.327 14.1318C84.1395 14.0068 83.8973 13.9364 83.6004 13.9208H77.2723C76.8348 13.9208 76.6161 14.1318 76.6161 14.5536V16.0302H83.6004C83.8973 16.0146 84.1473 15.9443 84.3504 15.8193ZM96.5201 10.7802H97.5983H105.567C106.005 10.7958 106.364 10.9599 106.645 11.2724C106.942 11.5849 107.09 11.9599 107.09 12.3974C107.012 13.3349 106.505 13.8427 105.567 13.9208H97.317C96.7233 13.9521 96.2311 14.1786 95.8404 14.6005C95.4498 15.0224 95.1608 15.5068 94.9733 16.0536C94.8014 16.5849 94.7154 17.1318 94.7154 17.6943C94.7154 18.2568 94.8014 18.8114 94.9733 19.3583C95.1608 19.8896 95.4498 20.3661 95.8404 20.788C96.2311 21.2099 96.7233 21.4364 97.317 21.4677H105.567C106.005 21.4833 106.364 21.6474 106.645 21.9599C106.942 22.2724 107.09 22.6474 107.09 23.0849C107.075 23.5068 106.919 23.8661 106.622 24.163C106.34 24.4443 105.989 24.5927 105.567 24.6083H96.9654H96.5201C95.4264 24.5458 94.5201 24.1318 93.8014 23.3661C93.0983 22.5849 92.5904 21.7021 92.2779 20.7177C91.9811 19.7333 91.8326 18.7255 91.8326 17.6943C91.8326 16.663 91.9889 15.6552 92.3014 14.6708C92.6139 13.6864 93.1217 12.8114 93.8248 12.0458C94.5279 11.2646 95.4264 10.8427 96.5201 10.7802ZM107.044 17.6005C107.044 18.038 106.887 18.4052 106.575 18.7021C106.278 19.0146 105.911 19.1708 105.473 19.1708H98.3951C97.9576 19.1708 97.5826 19.0224 97.2701 18.7255C96.9733 18.413 96.8248 18.038 96.8248 17.6005C96.8248 17.163 96.9733 16.788 97.2701 16.4755C97.5826 16.1786 97.9576 16.0302 98.3951 16.0302H105.473C105.911 16.0302 106.278 16.1864 106.575 16.4989C106.887 16.7958 107.044 17.163 107.044 17.6005ZM112.838 23.413C112.744 24.3505 112.229 24.8583 111.291 24.9364C110.854 24.9364 110.471 24.7958 110.143 24.5146C109.83 24.2177 109.674 23.8505 109.674 23.413V12.3036C109.69 11.8661 109.854 11.5068 110.166 11.2255C110.479 10.9286 110.854 10.7802 111.291 10.7802H112.44H115.323H121.112C121.205 10.7802 121.299 10.788 121.393 10.8036H121.534C122.627 10.8349 123.526 11.0849 124.229 11.5536C124.932 12.0224 125.44 12.5614 125.752 13.1708C126.065 13.7646 126.221 14.3661 126.221 14.9755C126.221 15.6005 126.065 16.2177 125.752 16.8271C125.455 17.4208 124.948 17.9521 124.229 18.4208C123.526 18.8896 122.627 19.1396 121.534 19.1708H117.409C117.534 19.9521 117.791 20.5302 118.182 20.9052C118.557 21.2802 119.034 21.4677 119.612 21.4677H124.674C125.112 21.4833 125.471 21.6474 125.752 21.9599C126.049 22.2724 126.198 22.6474 126.198 23.0849C126.182 23.5068 126.026 23.8661 125.729 24.163C125.448 24.4443 125.096 24.5927 124.674 24.6083H119.19C118.034 24.6239 116.987 24.1708 116.049 23.2489C115.112 22.3271 114.541 21.2333 114.338 19.9677C114.057 18.5614 113.916 17.7724 113.916 17.6005C113.916 17.163 114.065 16.7958 114.362 16.4989C114.674 16.1864 115.049 16.0302 115.487 16.0302H121.674C121.971 16.0146 122.213 15.9521 122.401 15.8427C122.604 15.7177 122.752 15.5849 122.846 15.4443C122.94 15.288 122.987 15.1318 122.987 14.9755C122.987 14.8193 122.94 14.6708 122.846 14.5302C122.752 14.3739 122.604 14.2411 122.401 14.1318C122.213 14.0068 121.971 13.9364 121.674 13.9208H115.323H113.448C113.041 13.9364 112.838 14.1396 112.838 14.5302V23.413ZM136.469 10.1474C137.281 10.1474 138.078 10.2411 138.859 10.4286C139.656 10.6161 140.414 10.8974 141.133 11.2724C141.852 11.6318 142.484 12.1161 143.031 12.7255C143.594 13.3349 143.899 14.0614 143.945 14.9052V15.8896V23.3661C143.852 24.3036 143.336 24.8114 142.399 24.8896C141.961 24.8896 141.578 24.7489 141.25 24.4677C140.938 24.1708 140.781 23.8036 140.781 23.3661V15.6318C140.75 15.1474 140.563 14.7489 140.219 14.4364C139.891 14.1083 139.516 13.8505 139.094 13.663C138.688 13.4755 138.258 13.3349 137.805 13.2411C137.367 13.1474 136.922 13.1005 136.469 13.1005C136.016 13.1005 135.563 13.1474 135.109 13.2411C134.672 13.3349 134.242 13.4755 133.82 13.663C133.414 13.8505 133.039 14.1083 132.695 14.4364C132.367 14.7489 132.188 15.1474 132.156 15.6318V23.3661C132.078 24.3036 131.57 24.8114 130.633 24.8896C130.195 24.8896 129.813 24.7489 129.484 24.4677C129.172 24.1708 129.016 23.8036 129.016 23.3661V15.8896V14.9052C129.063 14.0614 129.359 13.3349 129.906 12.7255C130.453 12.1161 131.086 11.6318 131.805 11.2724C132.524 10.8974 133.274 10.6161 134.055 10.4286C134.852 10.2411 135.656 10.1474 136.469 10.1474ZM159.725 10.7802C160.521 10.7958 161.232 11.0458 161.857 11.5302C162.482 12.0146 162.982 12.5927 163.357 13.2646C163.748 13.9364 164.037 14.6474 164.225 15.3974C164.412 16.1474 164.506 16.913 164.506 17.6943C164.506 18.7255 164.342 19.7411 164.014 20.7411C163.701 21.7255 163.178 22.6005 162.443 23.3661C161.725 24.1318 160.818 24.5458 159.725 24.6083H151.545C150.451 24.5614 149.537 24.1552 148.803 23.3896C148.068 22.6239 147.545 21.7411 147.232 20.7411C146.935 19.7411 146.787 18.7255 146.787 17.6943C146.787 16.663 146.943 15.6552 147.256 14.6708C147.568 13.6708 148.084 12.788 148.803 12.0224C149.537 11.2411 150.451 10.8271 151.545 10.7802H151.99H159.279H159.725ZM158.928 21.4677C159.521 21.4364 160.014 21.2177 160.404 20.8114C160.81 20.3896 161.1 19.9052 161.271 19.3583C161.443 18.8114 161.529 18.2568 161.529 17.6943C161.529 17.1318 161.435 16.5849 161.248 16.0536C161.076 15.5068 160.795 15.0224 160.404 14.6005C160.014 14.1786 159.521 13.9521 158.928 13.9208H152.271C151.678 13.9521 151.185 14.1786 150.795 14.6005C150.404 15.0224 150.115 15.5068 149.928 16.0536C149.756 16.5849 149.67 17.1318 149.67 17.6943C149.67 18.2568 149.756 18.8114 149.928 19.3583C150.1 19.9052 150.381 20.3896 150.771 20.8114C151.178 21.2177 151.678 21.4364 152.271 21.4677H158.928ZM166.855 12.3505C166.855 11.913 167.004 11.5458 167.3 11.2489C167.613 10.9364 167.988 10.7802 168.425 10.7802H182.066C182.504 10.7802 182.879 10.9286 183.191 11.2255C183.488 11.538 183.636 11.913 183.636 12.3505C183.636 12.788 183.48 13.163 183.168 13.4755C182.871 13.7724 182.504 13.9208 182.066 13.9208H176.839V23.413C176.746 24.3505 176.23 24.8583 175.293 24.9364C174.855 24.9364 174.472 24.7958 174.144 24.5146C173.832 24.2177 173.675 23.8505 173.675 23.413V13.9208H168.425C167.988 13.9208 167.621 13.7646 167.324 13.4521C167.011 13.1552 166.855 12.788 166.855 12.3505ZM190.697 10.7802H191.775H199.744C200.181 10.7958 200.54 10.9599 200.822 11.2724C201.119 11.5849 201.267 11.9599 201.267 12.3974C201.189 13.3349 200.681 13.8427 199.744 13.9208H191.494C190.9 13.9521 190.408 14.1786 190.017 14.6005C189.626 15.0224 189.337 15.5068 189.15 16.0536C188.978 16.5849 188.892 17.1318 188.892 17.6943C188.892 18.2568 188.978 18.8114 189.15 19.3583C189.337 19.8896 189.626 20.3661 190.017 20.788C190.408 21.2099 190.9 21.4364 191.494 21.4677H199.744C200.181 21.4833 200.54 21.6474 200.822 21.9599C201.119 22.2724 201.267 22.6474 201.267 23.0849C201.251 23.5068 201.095 23.8661 200.798 24.163C200.517 24.4443 200.165 24.5927 199.744 24.6083H191.142H190.697C189.603 24.5458 188.697 24.1318 187.978 23.3661C187.275 22.5849 186.767 21.7021 186.454 20.7177C186.158 19.7333 186.009 18.7255 186.009 17.6943C186.009 16.663 186.165 15.6552 186.478 14.6708C186.79 13.6864 187.298 12.8114 188.001 12.0458C188.704 11.2646 189.603 10.8427 190.697 10.7802ZM201.22 17.6005C201.22 18.038 201.064 18.4052 200.751 18.7021C200.454 19.0146 200.087 19.1708 199.65 19.1708H192.572C192.134 19.1708 191.759 19.0224 191.447 18.7255C191.15 18.413 191.001 18.038 191.001 17.6005C191.001 17.163 191.15 16.788 191.447 16.4755C191.759 16.1786 192.134 16.0302 192.572 16.0302H199.65C200.087 16.0302 200.454 16.1864 200.751 16.4989C201.064 16.7958 201.22 17.163 201.22 17.6005ZM219.015 12.3505C219.015 12.788 218.859 13.1552 218.546 13.4521C218.249 13.7646 217.882 13.9208 217.445 13.9208H208.07C207.773 13.9364 207.523 14.0068 207.32 14.1318C207.132 14.2411 206.991 14.3739 206.898 14.5302C206.804 14.6708 206.757 14.8193 206.757 14.9755C206.757 15.1318 206.804 15.288 206.898 15.4443C206.991 15.5849 207.132 15.7177 207.32 15.8427C207.523 15.9521 207.773 16.0146 208.07 16.0302H214.726C215.82 16.0614 216.718 16.3193 217.421 16.8036C218.14 17.2724 218.648 17.8193 218.945 18.4443C219.257 19.0536 219.413 19.6786 219.413 20.3193C219.413 20.9443 219.257 21.5693 218.945 22.1943C218.632 22.8036 218.124 23.3505 217.421 23.8349C216.718 24.3036 215.82 24.538 214.726 24.538H214.585C214.491 24.5536 214.398 24.5614 214.304 24.5614H205.445C205.007 24.5614 204.632 24.413 204.32 24.1161C204.023 23.8036 203.874 23.4286 203.874 22.9911C203.874 22.5536 204.03 22.1864 204.343 21.8896C204.64 21.5771 205.007 21.4208 205.445 21.4208H214.866C215.163 21.4364 215.405 21.3818 215.593 21.2568C215.796 21.1318 215.945 20.9911 216.038 20.8349C216.132 20.663 216.179 20.4911 216.179 20.3193C216.179 20.2099 216.132 20.0614 216.038 19.8739C215.945 19.6708 215.796 19.5068 215.593 19.3818C215.405 19.2568 215.163 19.1864 214.866 19.1708H208.21C207.116 19.1396 206.21 18.8896 205.491 18.4208C204.788 17.9521 204.28 17.4208 203.968 16.8271C203.671 16.2177 203.523 15.6005 203.523 14.9755C203.523 14.3661 203.679 13.7646 203.991 13.1708C204.304 12.5614 204.812 12.0224 205.515 11.5536C206.218 11.0849 207.116 10.8349 208.21 10.8036H208.351C208.445 10.788 208.538 10.7802 208.632 10.7802H217.445C217.882 10.7802 218.249 10.9364 218.546 11.2489C218.859 11.5458 219.015 11.913 219.015 12.3505Z" fill="#07596E"/>
</g>
<path d="M43.0892 13.9208C42.4954 13.9521 41.9954 14.1786 41.5892 14.6005C41.1986 15.0224 40.9173 15.5068 40.7454 16.0536C40.5736 16.5849 40.4876 17.1318 40.4876 17.6943C40.4876 18.2568 40.5658 18.8114 40.722 19.3583C40.8939 19.9052 41.1829 20.3896 41.5892 20.8114C41.9954 21.2177 42.4954 21.4364 43.0892 21.4677H50.8236C51.8079 21.5614 52.347 22.1005 52.4408 23.0849C52.4251 23.5224 52.2611 23.8896 51.9486 24.1864C51.6361 24.4677 51.2611 24.6083 50.8236 24.6083H43.347H42.2689C41.1751 24.5458 40.2767 24.1318 39.5736 23.3661C38.8704 22.5849 38.3626 21.7021 38.0501 20.7177C37.7533 19.7333 37.6048 18.7255 37.6048 17.6943C37.6048 16.9286 37.6908 16.1708 37.8626 15.4208C38.0345 14.6708 38.3001 13.9599 38.6595 13.288C39.0345 12.6005 39.5267 12.0146 40.1361 11.5302C40.7611 11.0458 41.472 10.7958 42.2689 10.7802H42.7142H50.8236C51.8079 10.8739 52.347 11.413 52.4408 12.3974C52.4408 12.8349 52.2767 13.2021 51.9486 13.4989C51.6361 13.7802 51.2611 13.9208 50.8236 13.9208H43.0892ZM56.4073 10.4052C56.8448 10.4052 57.2198 10.5536 57.5323 10.8505C57.8448 11.1318 58.0089 11.4911 58.0245 11.9286V12.3739C58.0089 13.0146 58.0479 13.6083 58.1417 14.1552C58.2511 14.6864 58.5011 15.163 58.8917 15.5849C59.2823 16.0068 59.7745 16.2333 60.3682 16.2646H66.9542V11.9755C66.9542 11.538 67.1104 11.1786 67.4229 10.8974C67.7511 10.6005 68.1339 10.4521 68.5714 10.4521C69.5089 10.5302 70.0245 11.038 70.1182 11.9755V17.413C70.1182 18.663 69.9464 19.8427 69.6026 20.9521C69.2901 21.9364 68.7745 22.7724 68.0557 23.4599C67.3526 24.1318 66.4542 24.4989 65.3604 24.5614H56.9229C56.5011 24.5458 56.1417 24.3974 55.8448 24.1161C55.5636 23.8193 55.4151 23.4599 55.3995 23.038C55.3995 22.6005 55.5401 22.2255 55.8214 21.913C56.1182 21.6005 56.4854 21.4364 56.9229 21.4208H64.5636C65.1573 21.3896 65.6495 21.163 66.0401 20.7411C66.3995 20.3505 66.6417 19.9052 66.7667 19.4052H59.5714C58.4776 19.3427 57.5714 18.9755 56.8526 18.3036C56.1495 17.6161 55.6417 16.7802 55.3292 15.7958C55.0323 14.8114 54.8761 13.7646 54.8604 12.6552V11.9286C54.8761 11.5068 55.0323 11.1552 55.3292 10.8739C55.6261 10.5771 55.9854 10.4208 56.4073 10.4052ZM89.0614 18.4208C89.3582 19.0458 89.5067 19.6786 89.5067 20.3193C89.5067 20.9443 89.3504 21.5693 89.0379 22.1943C88.7254 22.8036 88.2176 23.3505 87.5145 23.8349C86.8114 24.3036 85.9129 24.538 84.8192 24.538H84.6786C84.5848 24.5536 84.4911 24.5614 84.3973 24.5614H74.9754C74.5536 24.5458 74.1942 24.3974 73.8973 24.1161C73.6161 23.8193 73.4676 23.4599 73.452 23.038V12.3036C73.4676 11.8818 73.6161 11.5302 73.8973 11.2489C74.1942 10.9521 74.5536 10.7958 74.9754 10.7802H83.0379C83.1317 10.7802 83.2254 10.788 83.3192 10.8036H83.4598C84.5536 10.8349 85.452 11.0849 86.1551 11.5536C86.8582 12.0224 87.3661 12.5614 87.6786 13.1708C87.9911 13.7646 88.1473 14.3661 88.1473 14.9755C88.1473 15.6005 87.9989 16.2099 87.702 16.8036C87.6864 16.8349 87.6707 16.8583 87.6551 16.8739C88.2957 17.3271 88.7645 17.8427 89.0614 18.4208ZM84.9598 21.4208C85.2567 21.4364 85.4989 21.3818 85.6864 21.2568C85.8895 21.1318 86.0379 20.9911 86.1317 20.8349C86.2254 20.663 86.2723 20.4911 86.2723 20.3193C86.2723 20.2099 86.2254 20.0614 86.1317 19.8739C86.0379 19.6708 85.8895 19.5068 85.6864 19.3818C85.4989 19.2568 85.2567 19.1864 84.9598 19.1708H83.4598H76.6161V20.788C76.6161 21.2099 76.8348 21.4208 77.2723 21.4208H77.4598H84.9598ZM84.3504 15.8193C84.5379 15.7099 84.6786 15.5849 84.7723 15.4443C84.8661 15.288 84.9129 15.1318 84.9129 14.9755C84.9129 14.8193 84.8661 14.6708 84.7723 14.5302C84.6786 14.3739 84.5301 14.2411 84.327 14.1318C84.1395 14.0068 83.8973 13.9364 83.6004 13.9208H77.2723C76.8348 13.9208 76.6161 14.1318 76.6161 14.5536V16.0302H83.6004C83.8973 16.0146 84.1473 15.9443 84.3504 15.8193ZM96.5201 10.7802H97.5983H105.567C106.005 10.7958 106.364 10.9599 106.645 11.2724C106.942 11.5849 107.09 11.9599 107.09 12.3974C107.012 13.3349 106.505 13.8427 105.567 13.9208H97.317C96.7233 13.9521 96.2311 14.1786 95.8404 14.6005C95.4498 15.0224 95.1608 15.5068 94.9733 16.0536C94.8014 16.5849 94.7154 17.1318 94.7154 17.6943C94.7154 18.2568 94.8014 18.8114 94.9733 19.3583C95.1608 19.8896 95.4498 20.3661 95.8404 20.788C96.2311 21.2099 96.7233 21.4364 97.317 21.4677H105.567C106.005 21.4833 106.364 21.6474 106.645 21.9599C106.942 22.2724 107.09 22.6474 107.09 23.0849C107.075 23.5068 106.919 23.8661 106.622 24.163C106.34 24.4443 105.989 24.5927 105.567 24.6083H96.9654H96.5201C95.4264 24.5458 94.5201 24.1318 93.8014 23.3661C93.0983 22.5849 92.5904 21.7021 92.2779 20.7177C91.9811 19.7333 91.8326 18.7255 91.8326 17.6943C91.8326 16.663 91.9889 15.6552 92.3014 14.6708C92.6139 13.6864 93.1217 12.8114 93.8248 12.0458C94.5279 11.2646 95.4264 10.8427 96.5201 10.7802ZM107.044 17.6005C107.044 18.038 106.887 18.4052 106.575 18.7021C106.278 19.0146 105.911 19.1708 105.473 19.1708H98.3951C97.9576 19.1708 97.5826 19.0224 97.2701 18.7255C96.9733 18.413 96.8248 18.038 96.8248 17.6005C96.8248 17.163 96.9733 16.788 97.2701 16.4755C97.5826 16.1786 97.9576 16.0302 98.3951 16.0302H105.473C105.911 16.0302 106.278 16.1864 106.575 16.4989C106.887 16.7958 107.044 17.163 107.044 17.6005ZM112.838 23.413C112.744 24.3505 112.229 24.8583 111.291 24.9364C110.854 24.9364 110.471 24.7958 110.143 24.5146C109.83 24.2177 109.674 23.8505 109.674 23.413V12.3036C109.69 11.8661 109.854 11.5068 110.166 11.2255C110.479 10.9286 110.854 10.7802 111.291 10.7802H112.44H115.323H121.112C121.205 10.7802 121.299 10.788 121.393 10.8036H121.534C122.627 10.8349 123.526 11.0849 124.229 11.5536C124.932 12.0224 125.44 12.5614 125.752 13.1708C126.065 13.7646 126.221 14.3661 126.221 14.9755C126.221 15.6005 126.065 16.2177 125.752 16.8271C125.455 17.4208 124.948 17.9521 124.229 18.4208C123.526 18.8896 122.627 19.1396 121.534 19.1708H117.409C117.534 19.9521 117.791 20.5302 118.182 20.9052C118.557 21.2802 119.034 21.4677 119.612 21.4677H124.674C125.112 21.4833 125.471 21.6474 125.752 21.9599C126.049 22.2724 126.198 22.6474 126.198 23.0849C126.182 23.5068 126.026 23.8661 125.729 24.163C125.448 24.4443 125.096 24.5927 124.674 24.6083H119.19C118.034 24.6239 116.987 24.1708 116.049 23.2489C115.112 22.3271 114.541 21.2333 114.338 19.9677C114.057 18.5614 113.916 17.7724 113.916 17.6005C113.916 17.163 114.065 16.7958 114.362 16.4989C114.674 16.1864 115.049 16.0302 115.487 16.0302H121.674C121.971 16.0146 122.213 15.9521 122.401 15.8427C122.604 15.7177 122.752 15.5849 122.846 15.4443C122.94 15.288 122.987 15.1318 122.987 14.9755C122.987 14.8193 122.94 14.6708 122.846 14.5302C122.752 14.3739 122.604 14.2411 122.401 14.1318C122.213 14.0068 121.971 13.9364 121.674 13.9208H115.323H113.448C113.041 13.9364 112.838 14.1396 112.838 14.5302V23.413ZM136.469 10.1474C137.281 10.1474 138.078 10.2411 138.859 10.4286C139.656 10.6161 140.414 10.8974 141.133 11.2724C141.852 11.6318 142.484 12.1161 143.031 12.7255C143.594 13.3349 143.899 14.0614 143.945 14.9052V15.8896V23.3661C143.852 24.3036 143.336 24.8114 142.399 24.8896C141.961 24.8896 141.578 24.7489 141.25 24.4677C140.938 24.1708 140.781 23.8036 140.781 23.3661V15.6318C140.75 15.1474 140.563 14.7489 140.219 14.4364C139.891 14.1083 139.516 13.8505 139.094 13.663C138.688 13.4755 138.258 13.3349 137.805 13.2411C137.367 13.1474 136.922 13.1005 136.469 13.1005C136.016 13.1005 135.563 13.1474 135.109 13.2411C134.672 13.3349 134.242 13.4755 133.82 13.663C133.414 13.8505 133.039 14.1083 132.695 14.4364C132.367 14.7489 132.188 15.1474 132.156 15.6318V23.3661C132.078 24.3036 131.57 24.8114 130.633 24.8896C130.195 24.8896 129.813 24.7489 129.484 24.4677C129.172 24.1708 129.016 23.8036 129.016 23.3661V15.8896V14.9052C129.063 14.0614 129.359 13.3349 129.906 12.7255C130.453 12.1161 131.086 11.6318 131.805 11.2724C132.524 10.8974 133.274 10.6161 134.055 10.4286C134.852 10.2411 135.656 10.1474 136.469 10.1474ZM159.725 10.7802C160.521 10.7958 161.232 11.0458 161.857 11.5302C162.482 12.0146 162.982 12.5927 163.357 13.2646C163.748 13.9364 164.037 14.6474 164.225 15.3974C164.412 16.1474 164.506 16.913 164.506 17.6943C164.506 18.7255 164.342 19.7411 164.014 20.7411C163.701 21.7255 163.178 22.6005 162.443 23.3661C161.725 24.1318 160.818 24.5458 159.725 24.6083H151.545C150.451 24.5614 149.537 24.1552 148.803 23.3896C148.068 22.6239 147.545 21.7411 147.232 20.7411C146.935 19.7411 146.787 18.7255 146.787 17.6943C146.787 16.663 146.943 15.6552 147.256 14.6708C147.568 13.6708 148.084 12.788 148.803 12.0224C149.537 11.2411 150.451 10.8271 151.545 10.7802H151.99H159.279H159.725ZM158.928 21.4677C159.521 21.4364 160.014 21.2177 160.404 20.8114C160.81 20.3896 161.1 19.9052 161.271 19.3583C161.443 18.8114 161.529 18.2568 161.529 17.6943C161.529 17.1318 161.435 16.5849 161.248 16.0536C161.076 15.5068 160.795 15.0224 160.404 14.6005C160.014 14.1786 159.521 13.9521 158.928 13.9208H152.271C151.678 13.9521 151.185 14.1786 150.795 14.6005C150.404 15.0224 150.115 15.5068 149.928 16.0536C149.756 16.5849 149.67 17.1318 149.67 17.6943C149.67 18.2568 149.756 18.8114 149.928 19.3583C150.1 19.9052 150.381 20.3896 150.771 20.8114C151.178 21.2177 151.678 21.4364 152.271 21.4677H158.928ZM166.855 12.3505C166.855 11.913 167.004 11.5458 167.3 11.2489C167.613 10.9364 167.988 10.7802 168.425 10.7802H182.066C182.504 10.7802 182.879 10.9286 183.191 11.2255C183.488 11.538 183.636 11.913 183.636 12.3505C183.636 12.788 183.48 13.163 183.168 13.4755C182.871 13.7724 182.504 13.9208 182.066 13.9208H176.839V23.413C176.746 24.3505 176.23 24.8583 175.293 24.9364C174.855 24.9364 174.472 24.7958 174.144 24.5146C173.832 24.2177 173.675 23.8505 173.675 23.413V13.9208H168.425C167.988 13.9208 167.621 13.7646 167.324 13.4521C167.011 13.1552 166.855 12.788 166.855 12.3505ZM190.697 10.7802H191.775H199.744C200.181 10.7958 200.54 10.9599 200.822 11.2724C201.119 11.5849 201.267 11.9599 201.267 12.3974C201.189 13.3349 200.681 13.8427 199.744 13.9208H191.494C190.9 13.9521 190.408 14.1786 190.017 14.6005C189.626 15.0224 189.337 15.5068 189.15 16.0536C188.978 16.5849 188.892 17.1318 188.892 17.6943C188.892 18.2568 188.978 18.8114 189.15 19.3583C189.337 19.8896 189.626 20.3661 190.017 20.788C190.408 21.2099 190.9 21.4364 191.494 21.4677H199.744C200.181 21.4833 200.54 21.6474 200.822 21.9599C201.119 22.2724 201.267 22.6474 201.267 23.0849C201.251 23.5068 201.095 23.8661 200.798 24.163C200.517 24.4443 200.165 24.5927 199.744 24.6083H191.142H190.697C189.603 24.5458 188.697 24.1318 187.978 23.3661C187.275 22.5849 186.767 21.7021 186.454 20.7177C186.158 19.7333 186.009 18.7255 186.009 17.6943C186.009 16.663 186.165 15.6552 186.478 14.6708C186.79 13.6864 187.298 12.8114 188.001 12.0458C188.704 11.2646 189.603 10.8427 190.697 10.7802ZM201.22 17.6005C201.22 18.038 201.064 18.4052 200.751 18.7021C200.454 19.0146 200.087 19.1708 199.65 19.1708H192.572C192.134 19.1708 191.759 19.0224 191.447 18.7255C191.15 18.413 191.001 18.038 191.001 17.6005C191.001 17.163 191.15 16.788 191.447 16.4755C191.759 16.1786 192.134 16.0302 192.572 16.0302H199.65C200.087 16.0302 200.454 16.1864 200.751 16.4989C201.064 16.7958 201.22 17.163 201.22 17.6005ZM219.015 12.3505C219.015 12.788 218.859 13.1552 218.546 13.4521C218.249 13.7646 217.882 13.9208 217.445 13.9208H208.07C207.773 13.9364 207.523 14.0068 207.32 14.1318C207.132 14.2411 206.991 14.3739 206.898 14.5302C206.804 14.6708 206.757 14.8193 206.757 14.9755C206.757 15.1318 206.804 15.288 206.898 15.4443C206.991 15.5849 207.132 15.7177 207.32 15.8427C207.523 15.9521 207.773 16.0146 208.07 16.0302H214.726C215.82 16.0614 216.718 16.3193 217.421 16.8036C218.14 17.2724 218.648 17.8193 218.945 18.4443C219.257 19.0536 219.413 19.6786 219.413 20.3193C219.413 20.9443 219.257 21.5693 218.945 22.1943C218.632 22.8036 218.124 23.3505 217.421 23.8349C216.718 24.3036 215.82 24.538 214.726 24.538H214.585C214.491 24.5536 214.398 24.5614 214.304 24.5614H205.445C205.007 24.5614 204.632 24.413 204.32 24.1161C204.023 23.8036 203.874 23.4286 203.874 22.9911C203.874 22.5536 204.03 22.1864 204.343 21.8896C204.64 21.5771 205.007 21.4208 205.445 21.4208H214.866C215.163 21.4364 215.405 21.3818 215.593 21.2568C215.796 21.1318 215.945 20.9911 216.038 20.8349C216.132 20.663 216.179 20.4911 216.179 20.3193C216.179 20.2099 216.132 20.0614 216.038 19.8739C215.945 19.6708 215.796 19.5068 215.593 19.3818C215.405 19.2568 215.163 19.1864 214.866 19.1708H208.21C207.116 19.1396 206.21 18.8896 205.491 18.4208C204.788 17.9521 204.28 17.4208 203.968 16.8271C203.671 16.2177 203.523 15.6005 203.523 14.9755C203.523 14.3661 203.679 13.7646 203.991 13.1708C204.304 12.5614 204.812 12.0224 205.515 11.5536C206.218 11.0849 207.116 10.8349 208.21 10.8036H208.351C208.445 10.788 208.538 10.7802 208.632 10.7802H217.445C217.882 10.7802 218.249 10.9364 218.546 11.2489C218.859 11.5458 219.015 11.913 219.015 12.3505Z" fill="#07596E"/>
<g opacity="0.67" filter="url(#filter1_f_84_400)">
<path d="M13.3893 6.93552C13.4666 6.90389 13.5772 6.86276 13.6687 6.82608C14.052 6.67262 14.1946 6.61705 14.5413 6.47794C15.0551 6.271 16.5798 5.65636 16.5794 5.65519C16.5794 5.65519 16.5792 5.65525 16.579 5.65537C16.5736 5.6575 16.4444 5.71093 16.4253 5.71916C16.4063 5.72738 16.4211 5.72249 16.2387 5.801C15.9743 5.91495 15.3383 6.18444 15.1969 6.24437C15.1004 6.2856 14.982 6.33758 14.8587 6.39062C14.4611 6.56179 14.2521 6.64894 13.8962 6.80861C13.7516 6.86708 13.6067 6.92505 13.4617 6.98251C13.2752 7.06408 12.9892 7.17961 12.8754 7.22811C12.7822 7.268 12.7289 7.29479 12.6318 7.33641C12.5228 7.38314 12.3535 7.45028 12.1552 7.53522C11.8302 7.67446 11.7772 7.71073 11.5828 7.79587C11.3813 7.88427 11.0638 8.01175 10.8077 8.12696C10.776 8.14236 10.7443 8.15777 10.7125 8.17321C10.7372 8.16678 10.7618 8.16031 10.7864 8.1538C10.6573 8.21146 10.5984 8.22824 10.479 8.27941C10.3385 8.33961 10.2699 8.37779 10.1755 8.41854C10.0981 8.45193 9.9906 8.49104 9.89039 8.5346C9.74429 8.59811 9.78013 8.59353 9.70217 8.62928C9.67101 8.64342 9.09296 8.90007 9.0603 8.91445C8.81155 9.02283 8.78386 9.01785 8.58463 9.10216C8.57591 9.10586 8.56719 9.10956 8.55846 9.11326L8.61096 9.06042C8.38933 9.60832 8.17834 10.176 7.983 10.6863C7.89426 10.9178 7.79822 11.1579 7.70421 11.3864C7.80006 11.005 7.44101 11.7888 7.63842 11.5216C7.5257 11.7725 7.47521 11.9625 7.37563 12.2034C7.3111 12.3591 7.25636 12.4628 7.16765 12.6866C7.00983 13.0835 6.87462 13.533 6.76283 13.6199C6.58872 14.0905 6.40133 14.483 6.39782 14.6769C6.3543 14.7988 6.19359 15.091 6.13421 15.2234C6.07866 15.3488 5.66883 16.3181 5.60333 16.4773C5.53815 16.6366 5.4246 16.9158 5.37715 17.053C5.35781 17.1089 5.3479 17.1623 5.33628 17.2181V17.0923C5.4007 17.1923 5.46776 17.3045 5.48964 17.5325C5.64313 17.8771 5.69275 18.002 5.81698 18.3301C5.83947 18.3895 5.82764 18.4021 5.84193 18.4363C5.87139 18.5068 5.93244 18.6223 5.98651 18.7475C6.07548 18.9535 6.09299 19.0846 6.13201 19.0416C6.19745 19.1746 6.26307 19.3075 6.32887 19.4403C6.33943 19.4921 6.34991 19.5438 6.36031 19.5956C6.40147 19.6642 6.44275 19.7327 6.48416 19.8012C6.37479 19.7457 6.63343 20.241 6.60633 20.0569C6.70253 20.3272 6.79809 20.5979 6.89301 20.8688C6.7894 20.8681 7.12544 21.4537 7.15357 21.3812C7.16625 21.4115 7.17893 21.4418 7.19161 21.472C7.27892 21.7466 7.40133 21.9814 7.52046 22.3108C7.63925 22.6404 7.61713 22.614 7.61395 22.7303C7.64818 22.8053 7.68244 22.8802 7.71673 22.9552C8.00747 23.303 7.7621 23.3212 8.14344 23.9646C8.15379 24.2159 8.41883 24.7371 8.59363 25.0831C8.61391 25.1234 8.63063 25.1173 8.65882 25.1705C8.66632 25.1847 8.67448 25.2016 8.68311 25.2203L8.58854 25.1252C8.74641 25.1834 9.01459 25.3072 9.02419 25.2548C9.13741 25.3193 9.25052 25.384 9.36355 25.449C9.46551 25.4791 9.56752 25.5092 9.66958 25.5391C9.67632 25.5216 9.68305 25.5041 9.68979 25.4866C9.86228 25.6259 10.1813 25.7299 10.3281 25.8067C10.3572 25.822 10.3536 25.8492 10.4452 25.8947C10.5522 25.948 10.7609 26.0251 10.8891 26.0869C10.9518 26.0802 11.0146 26.0733 11.0775 26.0662C11.3193 26.1468 11.371 26.2548 11.5066 26.3174C11.531 26.3286 11.987 26.5092 12.0121 26.5176C12.2177 26.5867 12.1883 26.4981 12.7618 26.7479C12.864 26.7925 12.9377 26.8497 13.0305 26.8887C13.1944 26.9578 13.7131 27.1065 13.7732 27.072C13.947 27.2155 14.4925 27.4071 14.6423 27.4895C14.6875 27.5145 14.681 27.56 14.8234 27.6284C14.9387 27.684 15.2575 27.7751 15.4054 27.8418C15.5622 27.9129 15.6042 27.9718 15.6746 28.0035C15.741 28.0335 15.8153 28.03 15.9071 28.0677C16.1937 28.1857 16.4337 28.3394 16.66 28.4333C16.6634 28.4348 16.6669 28.4362 16.6703 28.4376H16.4884C16.8101 28.3003 17.0581 28.0911 17.3108 27.9352C17.3808 27.9119 17.4554 27.9029 17.5263 27.8726C18.4044 27.4987 19.4007 27.0911 20.2895 26.7355C20.7016 26.5693 21.7758 26.274 21.4082 26.1595C21.533 26.0575 22.6036 25.7075 22.8008 25.6255C22.9976 25.5428 23.1351 25.4329 23.289 25.3658C23.6995 25.187 24.0136 25.0811 24.4611 24.8639L24.2137 25.1128C24.2351 25.0512 24.2566 24.9866 24.2785 24.9183C24.3272 24.7662 24.3365 24.5856 24.3718 24.4982C24.4145 24.3929 24.5118 24.3008 24.5696 24.1654C24.7068 23.8427 24.9309 23.2281 25.0645 22.9193C25.089 22.8629 25.1445 22.8624 25.192 22.7869C25.3773 22.4931 25.5154 22.1353 25.3357 22.1348C25.5855 21.7633 25.6554 21.3535 25.7999 20.9735C26.106 20.1703 26.7231 18.7315 26.9281 18.0065C27.0572 17.5492 26.9754 17.5287 27.2969 16.9094C27.3016 16.9004 27.3063 16.8913 27.311 16.8823V17.4281C27.2689 17.2895 27.2305 17.148 27.1787 16.9802C27.0485 16.5596 27.0395 16.1284 26.7314 15.8935C26.5873 15.4261 26.402 15.0828 26.4169 14.686C26.3631 14.662 26.3092 14.6381 26.2551 14.6143C26.2309 14.5596 26.2067 14.505 26.1825 14.4504C26.211 14.4186 26.2395 14.3867 26.2681 14.3549C26.1121 13.9564 25.7517 13.5176 25.6109 13.184C25.375 12.6245 24.8241 11.1602 24.6526 10.6082C24.5615 10.3152 24.472 10.3342 24.5747 10.1029C24.5364 10.0447 24.498 9.98654 24.4596 9.9284C24.4056 9.90434 24.3514 9.88032 24.2972 9.85633C24.2178 9.67072 24.1468 9.46076 24.0769 9.25371L24.404 9.5829C24.2194 9.49149 24.0373 9.40123 23.8693 9.33318C23.2385 9.07706 22.2461 8.80068 21.6425 8.47228C21.4912 8.38976 21.3271 8.22665 21.1714 8.16406C20.9447 8.07293 20.8322 8.18812 20.5437 8.07434C20.0465 7.87856 19.193 7.34022 18.7205 7.16127C18.5801 7.10822 18.493 7.13501 18.3947 7.10168C17.9821 6.96252 17.6538 6.82349 17.2328 6.75082C16.8769 6.44292 16.9887 6.27545 16.9373 6.03922C16.898 5.86097 16.7358 5.41401 16.7449 5.27365C16.7512 5.17522 16.9076 5.11207 16.9056 5C17.4292 5.13657 17.601 5.30908 17.9465 5.61062C18.6873 5.92135 19.428 6.23226 20.1687 6.54336C20.2155 6.62097 20.2623 6.69843 20.3092 6.77573C20.3092 6.77583 20.3092 6.77594 20.3091 6.77605C20.5696 6.95275 20.7422 6.87897 20.907 6.91624C21.9318 7.14741 23.467 7.84474 24.8586 8.49536L25.071 8.58061L25.1674 8.80611C25.4497 9.58533 25.7112 10.3257 25.9304 10.9C26.0656 11.253 26.5798 12.3707 26.6077 12.6396C26.6148 12.7092 26.5568 12.7532 26.5807 12.8206C26.8579 13.3966 27.1339 13.9731 27.4085 14.5501C27.6657 15.3778 28.0089 16.191 28.3559 16.9992L28.4198 17.1489L28.3559 17.3112C28.1892 17.7369 28.0245 18.1625 27.854 18.5813C26.9154 20.8885 25.9823 23.1791 25.0351 25.45L24.9721 25.6097L24.8034 25.6831C23.8109 26.0914 22.8191 26.4955 21.8276 26.8945C21.1969 27.1487 20.4111 27.5066 19.7854 27.7358C19.5242 27.8314 19.3882 27.8063 19.0716 27.9953C19.0603 27.9782 19.0491 27.9613 19.0378 27.9443C18.7523 28.0871 18.5811 28.2053 18.252 28.3439C17.9748 28.4607 17.2387 28.7628 16.9898 28.8562C16.8607 28.9048 16.8947 28.8532 16.7758 28.9019C16.7522 28.9116 16.7257 28.9232 16.6969 28.9362L16.5841 28.9852L16.4619 28.9362C16.237 28.8499 15.8566 28.727 15.6101 28.6209C15.3575 28.5122 14.9462 28.2939 14.7497 28.2158C14.0421 27.9343 13.2595 27.6558 12.5199 27.3213C12.3156 27.2288 12.0658 27.0789 12.0008 27.0523C11.8739 27.0003 11.8219 27.0188 11.7354 26.9868C11.2965 26.8238 10.6436 26.4947 10.2228 26.3124C9.63236 26.0559 9.02528 25.7966 8.41651 25.5367L8.31602 25.4964L8.27044 25.3897C7.9443 24.578 7.61682 23.7635 7.30622 22.9754C6.96118 22.1009 6.37917 20.6512 6.07512 19.8379C6.00953 19.6625 6.05364 19.6983 5.99512 19.5525C5.93018 19.3908 5.8781 19.3101 5.84652 19.2351C5.64743 18.7636 5.23632 17.7727 5.02635 17.2195L5 17.1578L5.02635 17.0909C5.05058 17.036 5.07311 16.9858 5.09353 16.9413C5.13585 16.8491 5.18146 16.7883 5.20488 16.7323C5.21677 16.704 5.23209 16.6353 5.26835 16.5459C5.58858 15.757 5.83666 15.1877 6.16367 14.4201C6.789 12.9495 7.49296 11.2371 8.15223 9.69322C8.29583 9.35683 8.41043 9.13275 8.43001 9.0852C8.44239 9.05533 8.45256 9.02815 8.4628 8.9996L8.47201 8.97623L8.4967 8.96549C8.56499 8.93323 8.63962 8.89528 8.78983 8.83176C9.49009 8.53646 10.4424 8.16072 11.1099 7.8834C11.4397 7.7465 11.8907 7.55303 12.2159 7.41976C12.4756 7.31328 13.0913 7.06733 13.2055 7.01798C13.275 6.988 13.3054 6.96988 13.3893 6.93552ZM7.05866 12.919C7.0477 12.8605 6.87711 13.3585 6.96656 13.1821C6.9866 13.1424 7.06147 12.9342 7.05866 12.919ZM18.7624 27.5182C18.7477 27.4957 18.7331 27.4731 18.7185 27.4506C18.6593 27.4879 18.6 27.5251 18.5408 27.5622C18.5826 27.5616 18.6244 27.5611 18.6662 27.5605C18.6982 27.5464 18.7303 27.5323 18.7624 27.5182Z" fill="#07596E"/>
</g>
<path opacity="0.67" d="M16.965 4.73254C16.7079 5.34764 16.4508 5.96274 16.1937 6.57784C17.2781 7.013 18.3624 7.44817 19.4468 7.88334C21.0646 8.53261 22.6824 9.18188 24.3003 9.83115L23.828 9.35588C24.9793 12.0506 26.1307 14.7453 27.282 17.44V16.8704C26.208 19.5968 25.134 22.3233 24.0601 25.0497L24.397 24.7106C21.7269 25.8717 19.0567 27.0328 16.3866 28.1939H16.7722C14.07 27.1094 11.3679 26.025 8.6657 24.9406L8.86821 25.1444C7.7169 22.4497 6.56558 19.755 5.41427 17.0603V17.2501C6.48825 14.5237 7.56222 11.7972 8.63619 9.07078L8.56898 9.13842C10.1676 8.44327 11.7663 7.74811 13.3649 7.05296C14.4364 6.58703 15.5079 6.12111 16.5794 5.65519C15.4951 6.09036 14.4107 6.52552 13.3264 6.96069C11.7085 7.60996 10.0907 8.25923 8.47287 8.9085L8.42392 8.92979L8.40566 8.97615C7.25435 11.6708 6.10304 14.3656 4.95172 17.0603L4.91281 17.159L4.95172 17.2501C6.0257 19.9766 7.09967 22.703 8.17364 25.4295L8.23683 25.5774L8.37615 25.6333C11.0463 26.7944 13.7164 27.9554 16.3866 29.1165L16.5871 29.197L16.7722 29.1165C19.4744 28.0321 22.1766 26.9476 24.8787 25.8632L25.1241 25.7565L25.2157 25.5241C26.367 22.8294 27.5183 20.1347 28.6696 17.44L28.7864 17.1436L28.6696 16.8704C27.5956 14.1439 26.5217 11.4175 25.4477 8.69104L25.3003 8.34616L24.9755 8.21578C23.3768 7.52062 21.7781 6.82546 20.1795 6.13031C19.108 5.66439 18.0365 5.19846 16.965 4.73254ZM16.1937 6.57784L16.965 4.73254L17.8679 5.09489L16.5794 5.65519L16.1937 6.57784Z" fill="#07596E"/>
<g filter="url(#filter2_f_84_400)">
<path d="M16.6786 10.5653C17.3557 10.5653 18.0197 10.6435 18.6708 10.7997C19.3348 10.956 19.9663 11.1903 20.5653 11.5028C21.1643 11.8023 21.6916 12.206 22.1473 12.7138C22.6161 13.2216 22.87 13.8271 22.909 14.5302V15.3505V21.581C22.8309 22.3622 22.4012 22.7854 21.62 22.8505C21.2554 22.8505 20.9364 22.7333 20.663 22.4989C20.4025 22.2515 20.2723 21.9456 20.2723 21.581V15.1357C20.2463 14.732 20.09 14.4 19.8036 14.1396C19.5301 13.8661 19.2176 13.6513 18.8661 13.495C18.5275 13.3388 18.1695 13.2216 17.7919 13.1435C17.4273 13.0653 17.0562 13.0263 16.6786 13.0263C16.301 13.0263 15.9234 13.0653 15.5458 13.1435C15.1812 13.2216 14.8231 13.3388 14.4715 13.495C14.133 13.6513 13.8205 13.8661 13.534 14.1396C13.2606 14.4 13.1109 14.732 13.0848 15.1357V21.581C13.0197 22.3622 12.5965 22.7854 11.8153 22.8505C11.4507 22.8505 11.1317 22.7333 10.8583 22.4989C10.5978 22.2515 10.4676 21.9456 10.4676 21.581V15.3505V14.5302C10.5067 13.8271 10.7541 13.2216 11.2098 12.7138C11.6656 12.206 12.1929 11.8023 12.7919 11.5028C13.3908 11.1903 14.0158 10.956 14.6669 10.7997C15.3309 10.6435 16.0015 10.5653 16.6786 10.5653Z" fill="#07596E"/>
</g>
<path d="M16.6785 10.5653C17.3495 10.5653 18.0076 10.6435 18.6527 10.7997C19.3108 10.956 19.9366 11.1903 20.5302 11.5028C21.1238 11.8023 21.6464 12.206 22.098 12.7138C22.5625 13.2216 22.8141 13.8271 22.8528 14.5302V21.581C22.7754 22.3622 22.3496 22.7854 21.5754 22.8505C21.2141 22.8505 20.898 22.7333 20.627 22.4989C20.3689 22.2515 20.2399 21.9456 20.2399 21.581V15.1357C20.2141 14.732 20.0592 14.4 19.7753 14.1396C19.5044 13.8661 19.1947 13.6513 18.8463 13.495C18.5108 13.3388 18.156 13.2216 17.7817 13.1435C17.4204 13.0653 17.0527 13.0263 16.6785 13.0263C16.3043 13.0263 15.9301 13.0653 15.5559 13.1435C15.1946 13.2216 14.8397 13.3388 14.4913 13.495C14.1559 13.6513 13.8462 13.8661 13.5623 14.1396C13.2913 14.4 13.1429 14.732 13.1171 15.1357V21.581C13.0526 22.3622 12.6332 22.7854 11.859 22.8505C11.4977 22.8505 11.1816 22.7333 10.9106 22.4989C10.6525 22.2515 10.5235 21.9456 10.5235 21.581V14.5302C10.5622 13.8271 10.8074 13.2216 11.259 12.7138C11.7106 12.206 12.2332 11.8023 12.8268 11.5028C13.4204 11.1903 14.0397 10.956 14.6849 10.7997C15.343 10.6435 16.0075 10.5653 16.6785 10.5653Z" stroke="#07596E" stroke-miterlimit="2.79043"/>
<defs>
<filter id="filter0_f_84_400" x="27.6048" y="0.147377" width="201.808" height="34.7891" filterUnits="userSpaceOnUse" color-interpolation-filters="sRGB">
<feFlood flood-opacity="0" result="BackgroundImageFix"/>
<feBlend mode="normal" in="SourceGraphic" in2="BackgroundImageFix" result="shape"/>
<feGaussianBlur stdDeviation="5" result="effect1_foregroundBlur_84_400"/>
</filter>
<filter id="filter1_f_84_400" x="0" y="0" width="33.4198" height="33.9852" filterUnits="userSpaceOnUse" color-interpolation-filters="sRGB">
<feFlood flood-opacity="0" result="BackgroundImageFix"/>
<feBlend mode="normal" in="SourceGraphic" in2="BackgroundImageFix" result="shape"/>
<feGaussianBlur stdDeviation="2.5" result="effect1_foregroundBlur_84_400"/>
</filter>
<filter id="filter2_f_84_400" x="5.46764" y="5.56535" width="22.4414" height="22.2852" filterUnits="userSpaceOnUse" color-interpolation-filters="sRGB">
<feFlood flood-opacity="0" result="BackgroundImageFix"/>
<feBlend mode="normal" in="SourceGraphic" in2="BackgroundImageFix" result="shape"/>
<feGaussianBlur stdDeviation="2.5" result="effect1_foregroundBlur_84_400"/>
</filter>
</defs>
</svg>
