<svg width="380" height="1" viewBox="0 0 380 1" fill="none" xmlns="http://www.w3.org/2000/svg">
<path d="M3.61952 0.220581C5.74894 0.209093 8.54025 0.195228 10.6616 0.187456C11.3265 0.184984 10.9898 0.18955 11.4487 0.188159C12.3463 0.185561 13.1826 0.180299 14.0696 0.178274C14.3636 0.177675 13.9976 0.185142 14.3059 0.184481C15.995 0.181108 17.593 0.173864 19.3041 0.169591C27.7324 0.149818 36.0172 0.134376 44.5486 0.122406C47.3617 0.118185 50.7813 0.129 53.6868 0.11572C54.026 0.114105 53.8238 0.0965587 53.8883 0.0949503C54.9005 0.0698792 54.564 0.107078 55.2248 0.110748C57.8478 0.125127 60.7646 0.123354 63.2889 0.111296C64.3628 0.106112 63.2861 0.0670302 64.3674 0.0880217C64.4425 0.089462 64.17 0.111919 64.4645 0.113805C65.1324 0.118081 66.3996 0.112223 66.9172 0.113232C67.9148 0.115355 68.0799 0.114921 69.0235 0.113842C70.3134 0.112498 71.8476 0.122394 73.2316 0.115174C73.527 0.113524 73.1359 0.0891141 73.6071 0.0841105C74.0786 0.0790942 75.3261 0.0791625 75.7467 0.084573C76.1673 0.0899743 75.9882 0.110445 76.0627 0.114967C76.6751 0.153501 78.1182 0.0973721 78.3037 0.0955133C81.6889 0.0671193 84.5919 0.0953773 87.7695 0.0919948C90.1819 0.0891019 92.7613 0.0744197 95.0566 0.0733039C97.7912 0.0720866 100.109 0.0865026 102.766 0.0810764C103.046 0.080521 102.717 0.0436299 103.06 0.0428148C106.698 0.0341609 110.311 0.0336728 113.933 0.0570613C114.296 0.05946 113.828 0.0946344 114.191 0.0991635C116.413 0.125666 119.929 0.196083 121.249 0.038387C122.754 0.0432002 124.582 0.0479671 125.928 0.0793058C126.797 0.0995222 125.953 0.140063 127.02 0.122456C127.261 0.11852 126.948 0.0835138 127.308 0.0802261C128.827 0.0663362 130.487 0.0768748 131.989 0.0574533C132.295 0.0534087 132.211 0.0213312 132.298 0.0154789C133.026 -0.0320791 134.237 0.0446712 134.501 0.0502867C136.512 0.0914147 137.981 0.074153 139.855 0.0741924C140.289 0.074233 139.776 0.0302573 140.194 0.0286667C142.364 0.0209682 144.611 0.0233244 146.736 0.0422715C147.208 0.046601 146.774 0.085227 147 0.0892782C147.995 0.106773 148.216 0.0339022 149.171 0.0491848C149.373 0.0523246 149.259 0.0854591 149.296 0.089077C149.871 0.145966 150.37 0.0648999 150.518 0.0630124C152.388 0.037677 153.583 0.122304 155.39 0.109853C155.606 0.108255 155.119 0.0659919 155.726 0.0640635C159.774 0.0509293 164.054 0.061211 168.061 0.0951516C168.684 0.100369 168.239 0.132979 168.278 0.136978C168.917 0.199585 169.33 0.115549 169.534 0.112333C171.136 0.0892355 172.633 0.159833 173.721 0.0591355C179.167 0.0863305 184.592 0.0549834 190 0.0884748C191.332 0.096728 192.663 0.108922 193.992 0.126882C194.078 0.127935 193.925 0.169806 194.095 0.171725C196.151 0.195269 195.756 0.130176 197.116 0.0507423C197.459 0.0308104 198.501 0.126858 198.593 0.133884C198.929 0.159814 198.581 0.221994 198.693 0.227016C199.624 0.266416 199.473 0.0607905 200.729 0.0608743C200.768 0.0612202 200.603 0.0990225 200.708 0.102792C201.036 0.114621 201.361 0.0996254 201.681 0.112664C202.415 0.142843 202.676 0.24252 203.796 0.184555C203.938 0.177042 203.721 0.0607089 204.843 0.0663698C205.29 0.068714 207.268 0.0670365 207.823 0.0746428C208.377 0.0822332 207.997 0.119505 208.036 0.12113C209.528 0.170645 208.963 0.191028 209.71 0.264012C210.458 0.336644 210.251 0.163366 210.555 0.144071C210.861 0.124838 211.955 0.165562 212.224 0.179659C212.493 0.193775 212.157 0.217369 212.396 0.225354C213.981 0.277449 213.092 0.139664 213.614 0.112342C214.845 0.0477941 215.804 0.17576 216.931 0.18824C217.236 0.191634 216.987 0.16261 217.258 0.15993C218.334 0.149744 218.981 0.1894 220.204 0.153289C220.404 0.147365 221.393 0.0715759 222.033 0.127475C222.124 0.135523 221.866 0.166959 222.325 0.174061C223.009 0.184723 224.243 0.191669 224.979 0.181292C225.522 0.173626 224.899 0.121991 225.583 0.138134C225.887 0.14533 225.324 0.175372 225.895 0.186344C226.463 0.197301 227.915 0.196096 228.468 0.195121C229.02 0.194118 228.718 0.155295 228.762 0.152683C229.032 0.137747 230.091 0.119357 230.184 0.119439C234.903 0.116383 239.255 0.18135 243.85 0.161342C244.21 0.159858 243.97 0.120559 244.025 0.119928C245.259 0.103973 244.286 0.207856 245.148 0.242718C245.024 0.163361 245.533 0.177818 246.402 0.169348C246.821 0.165211 246.593 0.134598 246.631 0.131476C247.253 0.0853491 247.685 0.145406 247.797 0.157612C248.208 0.20262 248.656 0.149715 248.936 0.179732C249.216 0.209444 248.572 0.253454 249.406 0.252854C249.64 0.224919 249.021 0.151637 249.654 0.139999C252.043 0.0963725 256.502 0.155245 258.422 0.161271C260.339 0.167636 260.958 0.162925 262.075 0.172891C264.093 0.190788 263.353 0.139266 264.606 0.116694C265.863 0.0942737 265.252 0.218552 265.432 0.24542C265.61 0.272176 265.803 0.244621 266.024 0.259294C266.244 0.273924 265.768 0.2922 266.285 0.297562C266.802 0.302819 268.216 0.255322 268.4 0.227855C268.787 0.169508 268.15 0.107954 269.519 0.130254C269.598 0.131561 269.342 0.163541 269.644 0.166903C272.038 0.192409 274.525 0.194546 276.916 0.215937C277.245 0.218905 276.951 0.253072 277.142 0.255153C279.135 0.276716 278.423 0.219276 279.515 0.15662C279.27 0.240545 279.874 0.291932 281.387 0.291745C282.296 0.291744 282.139 0.255702 282.728 0.230413C282.904 0.222829 283.547 0.247394 283.664 0.230607C284.048 0.175896 283.442 0.114337 285.002 0.139776C285.07 0.140964 284.853 0.170586 285.089 0.172501C286.617 0.18487 286.8 0.128659 288.452 0.123476C289.747 0.119496 292.05 0.154636 293.524 0.160668C293.493 0.246106 294.886 0.226188 295.451 0.168756C296.407 0.171668 297.441 0.169101 298.366 0.177432C298.684 0.180263 298.475 0.203804 298.515 0.206385C299.13 0.246518 299.546 0.192008 299.753 0.190075C301.991 0.170948 303.815 0.211294 305.951 0.174356C306.027 0.172989 306.15 0.120456 306.721 0.159365C306.758 0.161984 306.052 0.185508 307.057 0.187894C308.062 0.190517 309.957 0.218286 311.353 0.195625C311.69 0.190066 312.544 0.150862 313.23 0.182453C313.321 0.186711 313.221 0.200655 313.353 0.208487C313.779 0.233283 314.012 0.184527 314.513 0.226043C315.014 0.267599 316.055 0.29687 317.463 0.268645C317.507 0.267793 317.84 0.230704 318.283 0.231403C318.989 0.232466 319.992 0.240024 320.73 0.239754C321.083 0.239627 320.857 0.217617 320.918 0.217217C323.293 0.205842 324.983 0.225863 327.527 0.233601C327.993 0.234873 329.333 0.20884 330.236 0.229791C331.228 0.252201 330.209 0.345663 332.488 0.320379C333.407 0.309343 334.57 0.199452 336.222 0.255562C339.425 0.241925 342.387 0.266058 345.599 0.24842C345.743 0.247609 346.2 0.223878 346.54 0.224433C347.044 0.22519 347.321 0.235995 347.681 0.236688C349.189 0.239812 350.569 0.231385 352.024 0.233089C352.576 0.233654 352.383 0.243117 353.041 0.243529C353.699 0.243827 354.138 0.232128 355.03 0.237823C355.704 0.242228 356.377 0.264276 357.271 0.265578C357.305 0.244479 357.919 0.244663 359.011 0.239422C359.22 0.238433 358.995 0.231641 359.095 0.230842C359.499 0.227569 359.872 0.233176 360.256 0.229694C360.349 0.228871 360.353 0.222614 360.43 0.221628C361.078 0.213254 362.147 0.227813 362.33 0.229867C363.034 0.238465 363.362 0.231344 363.902 0.234664C364.44 0.23775 363.635 0.241521 364.264 0.243242C365.568 0.246576 367.243 0.244817 368.568 0.244486C369.096 0.244295 368.736 0.239589 368.811 0.239445C369.904 0.238505 371.009 0.242272 371.615 0.235045C372.372 0.253479 372.274 0.233335 373.836 0.237579C373.959 0.237922 374.115 0.244109 373.643 0.245593C373.17 0.247173 372.454 0.245391 371.799 0.247951C371.644 0.248355 370.755 0.258568 370.633 0.259613C369.683 0.26649 369.549 0.250351 369.498 0.249378C368.928 0.23966 367.842 0.252082 367.556 0.253736C366.247 0.259647 365.135 0.258118 364.041 0.263296C363.325 0.266705 363.255 0.284061 362.693 0.285015C360.824 0.288785 360.171 0.260319 358.41 0.289429C358.033 0.29579 358.408 0.319394 357.055 0.30371C356.97 0.302924 355.966 0.28633 355.385 0.299634C355.312 0.301343 355.315 0.309199 355.219 0.31012C354.574 0.316205 354.145 0.3109 353.443 0.3159C352.741 0.320932 351.897 0.328465 351.096 0.327681C350.613 0.327299 349.993 0.31144 349.762 0.307503C349.11 0.296153 348.41 0.318566 348.005 0.303615C347.598 0.288132 348.395 0.263282 347.326 0.253375C347.286 0.279806 347.195 0.307112 347.131 0.334009C344.788 0.339396 342.482 0.335408 340.131 0.34195C339.84 0.342829 340.138 0.35912 339.825 0.360603C338.507 0.366992 337.355 0.357189 335.988 0.365694C334.93 0.372349 333.77 0.395742 332.663 0.404441C331.987 0.3644 330.345 0.382289 329.152 0.381289C328.734 0.380872 328.762 0.368821 328.465 0.365508C327.344 0.353137 327.869 0.392314 327.562 0.399429C326.243 0.430473 326.13 0.33766 324.576 0.341951C324.493 0.341986 323.487 0.395443 323.348 0.399205C322.467 0.422493 323.202 0.381389 322.651 0.378644C321.644 0.373633 320.944 0.361761 319.763 0.379925C319.419 0.385171 318.592 0.421672 317.924 0.396167C317.836 0.392805 317.884 0.374164 317.813 0.373201C316.531 0.357073 316.498 0.416102 315.765 0.438244C315.032 0.460525 313.901 0.421514 313.67 0.409566C313.068 0.379075 314.132 0.395223 314.165 0.392057C314.548 0.354782 313.723 0.362364 313.092 0.360122C313.001 0.299692 312.119 0.303885 312.438 0.358015C312.475 0.3639 312.965 0.357525 313.092 0.360122C312.539 0.420235 311.569 0.431137 310.499 0.375626C309.998 0.349496 310.471 0.317459 308.949 0.330504C308.258 0.336451 308.525 0.38008 307.916 0.393104C306.523 0.423232 304.713 0.384346 303.277 0.392946C302.756 0.396216 303.263 0.420831 302.907 0.424017C301.962 0.432706 301.128 0.414775 300.179 0.426362C300.093 0.427465 300.303 0.454409 300.008 0.455343C297.77 0.463087 295.822 0.448757 293.485 0.452172C292.356 0.453817 290.338 0.473666 289.168 0.472476C287.141 0.470765 284.648 0.429587 282.916 0.442786C281.787 0.451433 282.034 0.48264 281.55 0.505014C280.617 0.548733 278.964 0.476151 278.741 0.464394C278.734 0.463995 279.706 0.455094 279.188 0.4393C278.886 0.405264 278.752 0.464207 278.741 0.464394C278.595 0.45702 276.654 0.452188 276.268 0.458931C276.059 0.462627 276.176 0.493491 276.067 0.494853C273.471 0.526608 270.87 0.539601 268.237 0.528413C268.191 0.527825 268.261 0.491455 268.152 0.49051C266.628 0.476263 265.652 0.522122 264.395 0.550969C263.138 0.579739 262.141 0.57263 261.397 0.509143C260.448 0.518485 259.088 0.491518 258.305 0.474745C257.522 0.457961 257.413 0.532372 257.344 0.533945C255.195 0.583882 253.953 0.54291 251.724 0.538534C250.664 0.536386 248.562 0.549792 247.414 0.559544C246.507 0.567393 245.961 0.549795 245.125 0.562339C245.012 0.56402 245.126 0.598569 245.092 0.599942C244.159 0.642612 244.607 0.557168 244.415 0.542201C243.717 0.487722 243.285 0.458383 242.091 0.48542C241.816 0.491538 241.013 0.615792 240.511 0.623711C239.858 0.633668 240.105 0.588935 239.421 0.600433C239.363 0.601377 239.375 0.628838 238.953 0.628108C236.994 0.625087 234.859 0.611084 232.824 0.61577C232.546 0.616312 232.902 0.66033 232.501 0.661878C230.616 0.669112 228.55 0.669601 226.714 0.650136C226.262 0.6452 226.545 0.613436 226.447 0.604159C225.845 0.547933 224.991 0.630931 224.85 0.632663C221.488 0.675202 218.915 0.601648 215.488 0.639573C215.302 0.641748 213.866 0.732762 213.226 0.655789C213.182 0.650689 212.548 0.571775 211.988 0.626215C211.953 0.629627 212.348 0.67023 211.659 0.666432C210.969 0.662619 209.86 0.690529 208.913 0.645953C208.613 0.631932 207.904 0.552729 207.01 0.616397C206.951 0.620794 205.57 0.764833 205.077 0.665996C204.998 0.649722 205.081 0.544859 204.013 0.598923C203.809 0.609411 204.18 0.632699 203.642 0.647481C202.819 0.670279 201.728 0.642444 200.716 0.689541C200.539 0.69787 199.788 0.769494 199.185 0.715436C199.09 0.706967 199.27 0.671794 198.951 0.66793C197.438 0.64938 195.853 0.673154 194.316 0.648958C193.771 0.640452 194.05 0.583523 193.482 0.56831C192.915 0.553103 191.771 0.538477 191.177 0.564502C190.583 0.590539 191.232 0.681263 190.342 0.688536C190.228 0.689468 190.114 0.690325 190 0.691111C186.248 0.716967 182.528 0.666073 178.779 0.657594C178.206 0.656282 178.681 0.688767 177.837 0.689129C174.724 0.690772 169.35 0.718131 166.649 0.648571C164.485 0.593074 167.208 0.552982 165.554 0.53014C164.756 0.519323 163.893 0.622463 163.7 0.625573C161.818 0.657506 160.511 0.610948 158.817 0.623818C158.467 0.62647 158.81 0.668309 158.512 0.670087C157.495 0.676496 156.427 0.657118 155.455 0.659701C155.019 0.660949 155.1 0.692567 154.698 0.689766C153.739 0.683434 152.89 0.669387 151.954 0.639181C151.869 0.636442 152.444 0.597897 151.734 0.595888C150.585 0.592699 149.158 0.562831 147.836 0.591383C147.444 0.599983 147.428 0.670784 146.585 0.62106C146.408 0.610666 146.634 0.526048 145.652 0.598447C145.486 0.610606 143.836 0.707122 143.026 0.642857C142.813 0.62595 142.267 0.556672 141.796 0.567052C141.732 0.568706 141.988 0.606485 141.597 0.609729C140.219 0.620476 138.775 0.614859 137.36 0.624753C136.982 0.627447 137.545 0.666468 136.982 0.669204C135.432 0.676742 133.498 0.664158 131.983 0.650193C131.425 0.644969 131.811 0.614404 131.77 0.610949C131.117 0.555056 130.73 0.628822 130.514 0.632775C129.165 0.656595 128.137 0.620411 126.894 0.627684C126.551 0.629571 126.794 0.66475 126.726 0.667747C126.017 0.696835 126.545 0.635281 126.097 0.627704C124.84 0.606315 123.44 0.607074 122.17 0.609392C121.703 0.610289 122.228 0.650744 121.809 0.651035C119.33 0.653446 116.754 0.644478 114.335 0.618829C113.879 0.613936 114.166 0.585105 114.071 0.578222C113.417 0.530304 112.458 0.592525 112.237 0.59804C111.234 0.623681 110.844 0.597238 109.958 0.600324C105.631 0.615378 100.287 0.586506 96.2018 0.567921C90.8784 0.543281 86.7476 0.510787 81.6711 0.504965C81.3485 0.504534 81.6738 0.536685 81.3957 0.536654C77.8049 0.534402 74.2697 0.512923 70.6717 0.510662C70.3764 0.510384 70.802 0.538395 70.3281 0.538732C69.356 0.539586 68.1247 0.533871 67.1419 0.522424C66.6626 0.516925 67.3055 0.496978 66.823 0.491999C65.6995 0.480434 64.4951 0.475318 63.3411 0.475796C62.85 0.47601 63.5909 0.503375 62.9526 0.501562C58.6043 0.489948 54.3338 0.476538 49.9397 0.434813C49.6384 0.431898 49.3741 0.389637 48.7336 0.395878C48.6854 0.407115 48.688 0.420483 48.6669 0.432555C42.3369 0.416959 36.0715 0.381546 29.7237 0.35771C29.4561 0.356644 29.9186 0.372438 29.4004 0.370298C26.4015 0.358241 23.4893 0.347821 20.4217 0.325384C20.1173 0.323206 20.2735 0.306577 19.3765 0.306269C19.2183 0.306236 17.8674 0.303897 17.5182 0.305834C17.4707 0.306129 17.7172 0.314147 17.2819 0.312588C14.7522 0.303424 12.1012 0.290422 9.57588 0.278061C9.16831 0.276085 9.60234 0.273614 9.31205 0.272268C7.25289 0.263495 5.01311 0.257482 3.04548 0.24932C1.72842 0.244327 2.21604 0.244085 1.51617 0.24156C1.41718 0.241246 0.601616 0.240029 0.55944 0.239793C0.451164 0.239298 0.846197 0.238144 0.684105 0.237511C0.657657 0.237446 0.000140848 0.239255 0 0.239258C0 0.239258 0 0.239258 0 0.239258C4.15111e-05 0.239256 0.0571582 0.239103 0.204291 0.238613C0.249469 0.238494 1.04136 0.235819 1.2364 0.234807C1.37219 0.234103 1.12749 0.234546 1.40455 0.233113C1.68159 0.23158 1.98602 0.230972 2.44535 0.228526C2.90448 0.225945 2.7026 0.2255 3.61952 0.220581ZM254.779 0.398806C254.054 0.363085 253.948 0.495729 254.732 0.463308C254.77 0.461584 254.817 0.400551 254.779 0.398806ZM342.495 0.295071C341.548 0.272408 340.899 0.308644 341.568 0.326104C342.236 0.34296 342.784 0.301648 342.495 0.295071ZM352.324 0.268611C351.216 0.255072 351.042 0.314905 352.228 0.300459C352.297 0.299628 352.388 0.269354 352.324 0.268611ZM4.7618 0.245409C4.75179 0.245293 4.16553 0.244477 4.15152 0.244545C3.83935 0.246055 5.01163 0.248293 4.7618 0.245409ZM362.077 0.249358C361.731 0.244282 360.735 0.250892 361.165 0.257403C361.511 0.26239 362.507 0.255358 362.077 0.249358ZM216.961 0.25977C216.95 0.257588 216.529 0.25563 216.538 0.267982C216.566 0.307763 217.151 0.29648 216.961 0.25977ZM378.653 0.239988C376.204 0.242573 374.719 0.23211 377.386 0.236234C377.869 0.236695 376.345 0.23706 376.959 0.238025C378.084 0.23879 378.831 0.23785 379.979 0.239212C380.187 0.238994 378.792 0.239534 378.648 0.239994C378.65 0.239992 378.651 0.23999 378.653 0.239988ZM254.362 0.240062C254.347 0.238313 253.766 0.236646 253.752 0.238385C253.437 0.280568 254.609 0.283743 254.362 0.240062ZM192.436 0.167738C192.403 0.163524 191.053 0.159573 191.009 0.163456C190.305 0.241092 193.035 0.249287 192.436 0.167738ZM293.547 0.162957C294.182 0.129758 294.942 0.126914 295.448 0.168712C294.817 0.166129 294.182 0.165414 293.547 0.162957Z" fill="#07596E"/>
</svg>
