<svg width="217" height="2" viewBox="0 0 217 2" fill="none" xmlns="http://www.w3.org/2000/svg">
<path d="M4.86362 0.0740131C9.39252 -0.100774 12.4839 0.0849403 16.6853 0.114539C25.934 0.179566 38.1305 0.120999 47.5898 0.125647C54.7495 0.12917 62.0247 0.141643 69.1412 0.151647C69.5062 0.15214 69.7239 0.171302 69.8894 0.171544C71.4476 0.173799 74.0605 0.156438 75.6062 0.158971C78.8576 0.164255 84.5151 0.16127 87.4931 0.179234C88.7577 0.186841 90.0549 0.190012 90.5464 0.235629C91.0085 0.237952 91.2607 0.196736 91.3814 0.194493C91.3827 0.194533 91.3841 0.194574 91.3855 0.194615C91.7741 0.187657 92.7555 0.216556 92.972 0.214756C93.0044 0.214474 92.805 0.184621 93.3304 0.193638C93.3772 0.194413 93.334 0.214711 93.7764 0.215C93.8916 0.21507 95.3712 0.183944 95.7941 0.182042C97.2012 0.175847 100.562 0.200283 102.244 0.199864C102.502 0.199864 102.65 0.18799 102.921 0.187779C103.062 0.187656 103.272 0.200544 103.315 0.200474C103.505 0.200016 104.332 0.141485 104.035 0.256991C104.898 0.249667 104.644 0.211481 104.663 0.18668C105.6 0.183099 106.052 0.237498 106.297 0.179845C110.905 0.186803 115.514 0.19376 120.123 0.200718C120.124 0.191319 120.126 0.18192 120.127 0.172521C121.485 0.210063 121.951 0.146561 122.727 0.201084C123.205 0.189081 123.683 0.177078 124.161 0.165075C136.451 0.20206 148.712 0.158099 160.863 0.158239C161.376 0.158239 161.504 0.178239 162.349 0.17838C163.283 0.17852 164.597 0.155276 165.827 0.155554C166.907 0.155765 168.499 0.174685 169.703 0.177648C169.975 0.178282 170.171 0.165615 170.202 0.165685C170.382 0.16618 170.391 0.186234 170.565 0.186803C170.774 0.187437 171.026 0.172581 171.267 0.173497C172.168 0.176806 173.15 0.171685 173.264 0.172032C173.814 0.173931 173.935 0.193544 173.98 0.19376C174.592 0.196154 174.362 0.178452 174.515 0.179479C175.305 0.184903 175.863 0.229093 176.944 0.18668C176.915 0.203078 176.885 0.219476 176.856 0.235873C177.684 0.2451 177.137 0.201529 177.306 0.193638C177.375 0.190715 179.157 0.196036 179.294 0.196812C179.773 0.199629 179.785 0.22142 179.827 0.221714C179.928 0.222418 181.131 0.197687 181.749 0.216709C182.479 0.239251 181.619 0.283578 181.801 0.291902C181.831 0.293311 182.596 0.288768 182.698 0.302644C182.812 0.317573 182.15 0.317256 182.161 0.323517C182.168 0.327815 183.266 0.358589 183.055 0.379301C182.886 0.400076 181.397 0.373439 181.081 0.383208C181.029 0.384825 181.127 0.410465 181.081 0.411405C180.896 0.414856 177.465 0.415627 177.308 0.411405C177.486 0.399727 177.665 0.38805 177.844 0.376372C177.606 0.375192 177.369 0.374012 177.131 0.372832C177.469 0.363474 177.807 0.354115 178.144 0.344757C177.642 0.248603 176.13 0.346078 176.068 0.394072C176.041 0.416264 176.965 0.473363 176.105 0.506617C176.236 0.512313 176.367 0.51801 176.498 0.523706C176.767 0.514348 177.037 0.504989 177.306 0.495631C177.127 0.489731 176.947 0.483831 176.768 0.477931C176.834 0.471258 176.9 0.464585 176.966 0.457912C177.47 0.447211 177.973 0.43651 178.477 0.425809C178.736 0.430741 178.682 0.450441 178.86 0.45425C181.081 0.502227 179.632 0.441176 181.086 0.449978C181.294 0.460557 181.501 0.471136 181.709 0.481715C181.636 0.437962 182.28 0.465434 183.058 0.44656C182.965 0.46072 182.872 0.47488 182.779 0.489039C183.907 0.481501 186.195 0.552889 185.577 0.474758C185.836 0.481431 186.094 0.488104 186.353 0.494776C186.571 0.482 186.789 0.469224 187.008 0.456448C187.309 0.457912 187.611 0.459377 187.913 0.460842C187.914 0.467759 187.916 0.474676 187.917 0.481593C187.676 0.481634 187.436 0.481675 187.195 0.481715C187.376 0.502792 187.556 0.523869 187.737 0.544946C187.915 0.541447 188.092 0.537947 188.27 0.534448C187.525 0.514514 188.507 0.481954 188.745 0.454128C189.372 0.443845 189.774 0.479965 189.984 0.481593C190.083 0.482368 191.249 0.418643 190.792 0.488673C191.392 0.480169 191.992 0.471665 192.592 0.463161C192.826 0.468532 193.061 0.473903 193.295 0.479274C192.786 0.511893 194.261 0.551194 193.175 0.564721C192.363 0.574866 192.163 0.544368 191.778 0.54458C191.431 0.544729 191.247 0.56527 190.87 0.566185C188.329 0.571963 186.259 0.568194 183.846 0.559106C183.37 0.557279 182.936 0.56735 182.616 0.565941C182.254 0.564317 182.707 0.538554 182.247 0.544824C181.763 0.551452 181.658 0.572477 181.531 0.572899C181.451 0.573138 181.199 0.554223 180.967 0.554223C180.014 0.554227 178.618 0.572517 178.483 0.572411C178.33 0.5722 175.636 0.555132 175.507 0.552026C175.438 0.550335 175.58 0.480487 174.986 0.554955C174.801 0.556339 174.616 0.557722 174.43 0.559106C174.46 0.545149 174.49 0.531193 174.52 0.517237C173.423 0.570145 173.8 0.540545 172.742 0.544702C170.209 0.554704 166.471 0.542944 163.701 0.547875C163.082 0.549005 162.846 0.565715 162.114 0.566918C161.434 0.567974 159.658 0.518111 160.044 0.587181C158.531 0.527373 158.288 0.630507 157.53 0.566185C157.439 0.575544 157.347 0.584902 157.255 0.594261C156.433 0.554105 156.179 0.589397 155.281 0.594261C154.895 0.596374 155.341 0.553663 154.56 0.601219C154.41 0.597679 154.261 0.594139 154.112 0.590599C154.147 0.580264 154.181 0.569929 154.216 0.559594C153.349 0.568048 153.293 0.562663 153.392 0.601341C152.973 0.594301 152.554 0.587262 152.136 0.580223C152.084 0.592918 152.032 0.605613 151.98 0.618308C152.18 0.642522 161.688 0.606006 163.012 0.594383C164.564 0.623118 167.684 0.587193 168.938 0.594017C169.44 0.596764 169.662 0.625476 170.393 0.628928C171.123 0.632377 172.042 0.6063 172.431 0.605369C173.727 0.602128 179.864 0.607856 175.69 0.643576C175.81 0.657573 175.93 0.67157 176.05 0.685567C177.709 0.637805 177.108 0.667208 178.485 0.672139C179.064 0.674244 180.442 0.642988 180.365 0.706562C179.289 0.718398 178.146 0.698078 177.21 0.698994C177.118 0.699093 176.01 0.72812 175.44 0.720233C174.925 0.713034 175.279 0.65243 174.16 0.720478C173.329 0.654005 172.849 0.714311 172.629 0.720722C172.25 0.731837 172.208 0.69903 171.829 0.69521C171.416 0.69099 171.131 0.712767 171.075 0.712909C170.508 0.713402 167.557 0.716372 167.422 0.703144C167.541 0.697326 167.659 0.691507 167.778 0.685689C167.012 0.676325 167.172 0.70987 166.97 0.713886C166.82 0.713764 166.67 0.713642 166.52 0.71352C166.58 0.706562 166.639 0.699604 166.698 0.692646C165.793 0.694126 166.486 0.718304 165.201 0.71767C164.385 0.717244 163.543 0.690682 163.464 0.692646C163.44 0.69321 163.697 0.711118 163.364 0.71352C162.814 0.717464 161.862 0.717009 161.756 0.692646C161.486 0.696095 161.509 0.719935 161.473 0.720478C161.317 0.722802 158.623 0.730908 158.141 0.732318C156.804 0.736193 155.315 0.73111 153.867 0.735126C153.718 0.735527 153.813 0.720229 153.664 0.720722C153.424 0.721505 152.194 0.745515 152.01 0.74721C151.552 0.751365 150.345 0.741842 150.155 0.748797C150.128 0.749783 150.525 0.770461 150.061 0.776872C149.546 0.783965 149.823 0.756154 149.795 0.755877C148.746 0.746367 148.084 0.76569 147.368 0.769426C147.136 0.770624 146.708 0.749694 146.38 0.755877C146.342 0.756579 146.417 0.775921 146.38 0.776872C145.885 0.787017 145.422 0.751122 145.208 0.748797C144.684 0.743114 144.97 0.769604 144.942 0.769792C144.593 0.770638 144.124 0.761081 143.593 0.762346C141.227 0.767983 139.296 0.769601 136.78 0.767839C136.464 0.767628 136.089 0.748943 136.041 0.748919C135.892 0.74906 135.934 0.771018 135.502 0.770525C134.592 0.769398 133.748 0.770459 132.846 0.770037C132.665 0.769948 132.588 0.749603 132.449 0.749163C131.985 0.747895 130.402 0.801169 130.376 0.734881C129.455 0.793563 128.843 0.742986 128.102 0.743548C126.346 0.744816 123.596 0.756772 121.845 0.749163C121.476 0.747532 121.303 0.730548 121.098 0.729633C120.73 0.727947 118.628 0.737435 118.518 0.734759C118.302 0.729616 118.432 0.654821 117.321 0.719989C116.671 0.724633 116.747 0.693935 116.613 0.69228C115.564 0.679951 114.543 0.748462 114.734 0.685689C113.513 0.702734 112.721 0.737424 112.222 0.678731C112.229 0.707374 111.655 0.724555 110.962 0.713642C111.671 0.665526 111.583 0.634775 113.298 0.643576C113.325 0.643717 113.273 0.66443 113.3 0.664571C113.545 0.66597 114.056 0.655513 114.473 0.656637C114.89 0.657764 114.659 0.671924 114.826 0.671651C114.979 0.671369 114.974 0.651548 115.195 0.651266C115.913 0.65049 116.548 0.645027 116.956 0.644674C117.214 0.644469 117.502 0.661886 117.701 0.661886C118.473 0.661743 120.109 0.648143 121.092 0.650045C121.296 0.650489 121.21 0.670031 121.658 0.671651C121.71 0.67184 121.901 0.651462 122.293 0.647238C122.686 0.643012 122.99 0.653131 123.241 0.651022C123.452 0.649261 123.364 0.631158 123.796 0.630026C124.155 0.62911 128.231 0.642152 128.453 0.64504C128.771 0.649204 128.922 0.674628 129.117 0.671529C129.151 0.670865 129.209 0.64631 129.327 0.644552C131.281 0.615533 135.607 0.649033 137.84 0.648825C142.507 0.648472 146.813 0.634024 151.522 0.628317C151.606 0.624045 151.69 0.619773 151.774 0.6155C151.298 0.615338 150.822 0.615175 150.346 0.615012C150.343 0.603456 150.34 0.591901 150.337 0.580345C149.693 0.578515 149.779 0.605845 149.797 0.622336C149.559 0.615338 149.321 0.608339 149.082 0.601341C148.877 0.641611 147.289 0.614828 146.47 0.61489C145.938 0.61489 145.304 0.630242 145.023 0.62905C144.43 0.626586 144.445 0.601737 144.399 0.601341C144.32 0.600777 143.491 0.622693 142.894 0.621848C142.011 0.620641 141.915 0.582486 140.706 0.61489C139.157 0.595095 137.441 0.605057 135.771 0.608298C136.089 0.57303 134.592 0.606411 133.918 0.605857C129.801 0.602405 124.741 0.587337 120.57 0.573387C120.034 0.571627 119.629 0.55085 119.33 0.551537C119.168 0.55189 119.097 0.576384 118.872 0.573143C118.833 0.57252 118.806 0.549616 118.387 0.546167C117.345 0.537501 114.75 0.575725 114.093 0.531763C110.531 0.538558 106.969 0.545353 103.407 0.552148C103.318 0.542789 103.228 0.533431 103.139 0.524072C102.462 0.571897 99.7869 0.543794 98.4823 0.546044C96.1863 0.55006 93.2568 0.564931 91.2451 0.566552C90.808 0.566904 90.4497 0.553337 90.036 0.553613C89.858 0.553753 89.6365 0.571343 89.4513 0.571434C87.3712 0.572773 84.5548 0.554655 82.4585 0.555077C77.6992 0.555993 73.2169 0.553326 68.3946 0.554101C52.1497 0.556848 35.9985 0.582716 19.8922 0.572289C19.6763 0.572148 19.6871 0.551923 19.5197 0.551782C18.5319 0.550795 16.3259 0.567467 15.2103 0.566552C14.3214 0.565847 12.9105 0.534923 12.6046 0.566063C15.7625 0.613196 19.0989 0.60965 22.3864 0.622824C22.6201 0.623752 22.6491 0.642979 22.6779 0.643332C23.2101 0.650012 22.874 0.623534 23.6458 0.622336C23.9038 0.621935 26.2864 0.683314 26.0029 0.622214C26.5735 0.646656 30.5957 0.658873 31.372 0.650778C31.6077 0.648312 31.4408 0.63021 31.4876 0.629294C31.6907 0.625296 31.7825 0.650255 31.9641 0.6509C32.4481 0.65245 33.6793 0.632205 33.9132 0.632346C34.4514 0.632562 36.065 0.65288 36.7757 0.648092C37.4271 0.643724 37.3051 0.617652 37.8683 0.615256C38.3122 0.613436 37.8287 0.635367 38.8198 0.641989C39.311 0.645229 41.0292 0.629541 41.4469 0.629538C41.8643 0.629538 42.3288 0.64514 42.9046 0.643942C43.734 0.642251 45.5383 0.633564 46.3824 0.628561C46.4327 0.62828 46.5555 0.607998 46.6797 0.60842C46.9368 0.609271 46.8596 0.634319 47.0538 0.636862C47.2481 0.639398 50.6133 0.636338 51.1849 0.636618C51.5788 0.636759 51.8509 0.621838 52.0686 0.62197C52.2394 0.622111 52.2577 0.642976 52.4319 0.643209C52.4859 0.643209 52.9452 0.625087 53.404 0.62551C53.8375 0.625935 55.4837 0.643169 55.6744 0.643332C55.7985 0.643402 55.6624 0.628575 56.0295 0.628928C56.364 0.629291 56.5837 0.648543 56.7744 0.648825C57.2169 0.649451 57.7115 0.633034 58.1809 0.632956C59.5304 0.632744 59.461 0.656594 59.542 0.657369C59.7664 0.659523 59.8564 0.637679 59.9301 0.637228C60.2413 0.635397 61.0039 0.631362 61.2813 0.630515C61.6268 0.629458 61.7731 0.650219 62.1402 0.650289C62.4138 0.650275 62.9663 0.630036 63.5904 0.62905C64.9975 0.626725 66.6708 0.622904 68.0527 0.623679C68.4647 0.62389 68.528 0.642838 68.6539 0.643332C69.3159 0.645932 69.6865 0.624744 69.8754 0.625022C71.2231 0.626924 73.6272 0.660166 74.8778 0.662984C75.387 0.664111 77.6165 0.648762 78.8742 0.65151C79.0181 0.651795 78.8834 0.666652 79.0435 0.664327C79.4265 0.658752 79.391 0.6285 79.5853 0.629416C79.679 0.629951 79.8928 0.647006 80.1659 0.648702C81.582 0.657509 82.5558 0.644247 83.2018 0.645163C89.406 0.653969 95.7325 0.661894 101.526 0.664571C102.172 0.664853 102.974 0.646855 103.949 0.664327C103.979 0.673726 104.009 0.683125 104.039 0.692524C104.073 0.683288 104.107 0.674052 104.141 0.664815C105.246 0.659813 105.663 0.647925 106.791 0.659688C106.889 0.660675 107.185 0.703583 107.369 0.650289C108.486 0.688897 107.873 0.649976 108.703 0.646383C109.532 0.642791 110.338 0.65469 111.142 0.657369C111.583 0.676462 109.733 0.720496 109.613 0.720356C109.418 0.720185 109.217 0.693689 109.03 0.69228C108.476 0.688067 107.94 0.709094 107.816 0.685444C107.1 0.710449 107.991 0.697956 107.901 0.720478C107.424 0.71116 106.946 0.701842 106.468 0.692524C106.224 0.769126 103.584 0.66923 103.767 0.727557C103.557 0.71588 103.347 0.704202 103.137 0.692524C102.216 0.765699 101.674 0.714174 100.445 0.692402C100.534 0.701761 100.623 0.711119 100.711 0.720478C100.686 0.724383 99.6018 0.739348 99.9895 0.699482C98.8779 0.75201 98.9247 0.664636 97.9281 0.727802C97.3361 0.735904 97.6921 0.699215 96.6323 0.699848C96.0043 0.700201 95.2248 0.719383 94.523 0.720722C94.3614 0.720969 94.2911 0.699726 94.1472 0.699726C94.0035 0.699735 93.9333 0.720563 93.7591 0.721088C93.3992 0.722215 92.9326 0.707594 92.7077 0.709003C92.5062 0.710205 92.2181 0.728575 91.7324 0.731464C90.0359 0.741675 90.5484 0.715441 90.2805 0.706562C89.9926 0.697122 89.7857 0.731688 89.2118 0.72768C89.1542 0.727257 89.3031 0.705717 89.116 0.706562C88.965 0.707224 88.8891 0.730638 88.3892 0.735004C88.1901 0.736765 85.0997 0.741781 84.629 0.742205C83.9074 0.742839 82.3001 0.723022 81.5534 0.723163C81.2656 0.723167 80.9581 0.741965 80.6523 0.741839C79.6393 0.741417 78.0174 0.739825 76.7327 0.73891C75.5758 0.738059 73.5449 0.696567 72.9113 0.734027C71.2868 0.738887 70.8923 0.706876 70.7698 0.70644C70.4387 0.705242 70.2854 0.726449 69.868 0.727435C64.4609 0.739763 57.3406 0.725745 52.2197 0.727435C40.3404 0.731522 28.3962 0.74311 16.4755 0.734515C16.4436 0.743914 16.4117 0.753313 16.3797 0.762713C17.7886 0.768772 19.4444 0.785101 20.8354 0.788835C22.6923 0.793762 25.4469 0.75462 26.809 0.818863C26.2566 0.824497 25.3566 0.799865 25.3727 0.832901C26.3602 0.835261 27.3477 0.837621 28.3352 0.839981C28.3057 0.824722 28.2763 0.809464 28.2468 0.794206C29.2778 0.789768 30.3324 0.793094 31.367 0.79091C31.5467 0.79055 31.4194 0.776699 31.5759 0.776628C31.751 0.776578 31.6323 0.790676 31.6651 0.790788C32.1077 0.790929 32.2413 0.776667 32.2953 0.776872C32.4338 0.777436 32.3261 0.791012 32.7256 0.794816C33.4666 0.801922 33.9972 0.765856 33.8232 0.825943C34.0624 0.825943 34.3016 0.825943 34.5409 0.825943C34.6028 0.809586 34.6647 0.793229 34.7267 0.776872C36.1982 0.84291 36.8767 0.72707 37.6899 0.818985C37.9581 0.804948 38.2262 0.79091 38.4944 0.776872C38.6455 0.793229 38.7966 0.809586 38.9478 0.825943C38.9772 0.811905 39.0067 0.797868 39.0361 0.78383C40.4809 0.794181 42.0191 0.777329 43.4009 0.778947C44.3634 0.780075 44.594 0.785617 45.4466 0.784563C47.3431 0.782167 45.4598 0.810021 47.0356 0.840103C46.9536 0.822891 46.8716 0.80568 46.7895 0.788469C47.0505 0.782162 47.3115 0.775855 47.5725 0.769548C47.7542 0.783586 47.9358 0.797624 48.1175 0.811661C48.9235 0.73885 49.4456 0.797624 49.5554 0.797624C49.644 0.797496 49.9486 0.753663 50.9024 0.790788C50.5069 0.73086 51.6301 0.790436 51.72 0.790788C51.8055 0.791031 52.8991 0.777652 53.3429 0.778215C53.692 0.778642 54.4367 0.791542 54.9567 0.79091C55.4157 0.790348 55.3691 0.770004 55.4026 0.769792C55.9676 0.768102 55.6136 0.78391 56.022 0.784685C56.4305 0.785458 56.7474 0.768121 56.8355 0.76967C56.8799 0.770496 56.7316 0.789447 56.9347 0.791276C57.4799 0.796268 58.466 0.779675 59.0902 0.780168C59.3115 0.780321 59.5904 0.796398 59.8368 0.796891C60.2146 0.797592 60.3912 0.776238 60.6106 0.776872C60.687 0.777151 61.1743 0.810137 61.7801 0.80507C61.8953 0.804053 62.2339 0.734252 62.6836 0.833145C62.7183 0.819229 62.753 0.805314 62.7877 0.791398C64.8192 0.756947 65.3845 0.869995 66.2878 0.76967C67.7628 0.780875 66.7502 0.819955 66.9121 0.825943C67.0167 0.829727 67.4977 0.818983 67.5505 0.819596C67.6441 0.820793 67.628 0.833337 67.7306 0.833267C69.6109 0.830942 68.776 0.807259 69.3716 0.792253C70.7877 0.756534 71.8925 0.835834 69.4294 0.812028C69.4294 0.819026 69.4294 0.826024 69.4294 0.833023C70.0359 0.826334 71.5755 0.829511 71.0614 0.865004C70.6565 0.892973 67.004 0.874719 69.0726 0.913953C69.5423 0.92283 69.7856 0.896566 70.5989 0.945812C71.1367 0.948484 71.2142 0.884685 71.9426 0.910291C71.8228 0.888034 71.7031 0.865777 71.5833 0.843521C72.5765 0.814509 73.8019 0.853426 74.5648 0.840957C74.824 0.836708 75.7578 0.730596 75.5401 0.836685C75.9759 0.83007 78.0286 0.849613 78.4101 0.840103C78.5018 0.837806 78.6213 0.781323 79.9487 0.801042C80.0409 0.808121 80.1331 0.815201 80.2253 0.822281C79.0113 0.84285 81.1553 0.863772 80.573 0.917371C80.3751 0.89328 79.4124 0.878586 79.2574 0.866469C78.9929 0.845615 79.7808 0.818738 78.7767 0.826065C78.1438 0.915646 79.9535 0.874424 79.677 0.959484C80.9952 0.919778 81.1269 0.957663 81.4254 0.95924C82.701 0.96565 83.5038 0.956635 84.7074 0.966564C85.0007 0.949092 82.8218 0.92387 82.5519 0.931409C83.5451 0.869481 81.8356 0.866679 81.114 0.903455C81.0534 0.884738 80.9929 0.866022 80.9323 0.847305C81.8716 0.85745 82.7878 0.862662 83.718 0.847305C83.7786 0.854303 83.8391 0.861302 83.8997 0.8683C83.691 0.878839 83.4823 0.889377 83.2737 0.899915C84.0473 0.917173 83.5833 0.862594 84.6141 0.910413C84.646 0.889336 84.678 0.86826 84.7099 0.847183C85.6982 0.854181 86.6865 0.86118 87.6748 0.868178C88.1893 0.825914 90.0911 0.841657 89.7428 0.896376C90.5104 0.900239 89.5628 0.871117 90.2821 0.857802C90.5952 0.852025 91.2071 0.850402 91.3582 0.865126C91.2931 0.917234 90.3775 0.923701 90.1004 0.959484C90.2685 0.971028 94.5269 0.933826 94.1472 0.994761C94.4873 1.00209 94.3309 0.970695 94.9442 0.962658C96.6626 0.940254 99.3243 1.0023 100.708 0.924451C99.0832 0.881123 98.6026 0.927013 97.3574 0.928845C96.5621 0.930043 91.7129 0.937431 92.7961 0.882338C92.618 0.889336 92.4399 0.896335 92.2617 0.903333C92.0817 0.886936 91.9017 0.870538 91.7216 0.85414C92.229 0.851781 92.7364 0.849421 93.2437 0.847061C93.3649 0.863418 93.486 0.879774 93.6071 0.896131C93.663 0.884454 93.7189 0.872776 93.7748 0.861098C93.9884 0.858779 94.202 0.85646 94.4156 0.85414C94.3556 0.868178 94.2956 0.882216 94.2356 0.896253C94.5648 0.898654 94.8941 0.901055 95.2234 0.903455C95.1347 0.884698 95.0461 0.86594 94.9574 0.847183C96.508 0.842465 95.9829 0.854213 96.8429 0.889296C97.485 0.892883 96.4004 0.856829 97.7588 0.847671C99.3385 0.837036 98.3021 0.894351 100.348 0.882094C100.377 0.872735 100.407 0.863377 100.436 0.854018C100.886 0.863377 101.336 0.872735 101.786 0.882094C101.726 0.870457 101.667 0.85882 101.607 0.847183C102.536 0.851692 103.815 0.829483 104.123 0.875136C103.182 0.853155 103.191 0.932867 103.436 0.947521C103.941 0.97759 111.404 0.949616 112.85 0.947643C114.7 0.945108 116.098 0.970641 117.787 0.931409C116.642 0.89923 112.616 0.925592 111.853 0.903333C111.778 0.901149 111.799 0.828077 111.313 0.910291C109.748 0.896347 107.877 0.919641 105.921 0.917249C105.981 0.896213 106.04 0.875177 106.1 0.85414C107.302 0.898878 108.415 0.800613 108.258 0.882338C108.497 0.882338 108.737 0.882338 108.976 0.882338C108.976 0.86826 108.976 0.854181 108.976 0.840103C109.337 0.840103 109.697 0.840103 110.058 0.840103C110.058 0.854181 110.058 0.86826 110.058 0.882338C110.357 0.882338 110.655 0.882338 110.954 0.882338C110.985 0.8683 111.016 0.854263 111.047 0.840225C111.942 0.869381 114.991 0.791424 113.65 0.875258C114.071 0.875258 114.491 0.875258 114.911 0.875258C114.909 0.864964 114.908 0.854669 114.907 0.844375C115.087 0.842992 115.268 0.841608 115.448 0.840225C115.389 0.849543 115.329 0.85886 115.27 0.868178C116.098 0.851484 116.882 0.900537 117.426 0.8683C117.067 0.861261 116.709 0.854222 116.35 0.847183C117.038 0.860554 118.304 0.832849 118.417 0.832779C118.763 0.832639 118.945 0.85345 119.319 0.854507C119.657 0.855409 119.611 0.839417 119.674 0.839981C121.496 0.856259 120.802 0.942833 121.652 0.840347C121.743 0.854344 121.834 0.868341 121.924 0.882338C122.045 0.87066 122.165 0.858982 122.286 0.847305C122.824 0.848403 123.362 0.849502 123.9 0.850601C123.721 0.833104 123.541 0.815608 123.362 0.798112C124.169 0.790303 124.545 0.825383 124.623 0.826187C124.844 0.828228 124.945 0.806209 125.014 0.806168C128.301 0.808071 126.304 0.827458 127.947 0.910169C128.533 0.877711 127.94 0.845171 127.857 0.81215C128.636 0.82764 128.879 0.818496 129.701 0.820328C129.915 0.820827 130.145 0.838642 130.28 0.838882C130.397 0.839093 130.763 0.820162 131.044 0.820084C131.511 0.819943 132.134 0.831228 132.775 0.830948C133.307 0.830666 134.938 0.817295 136.075 0.817154C136.56 0.817155 136.447 0.83299 136.573 0.833023C136.625 0.833023 137.003 0.814055 137.314 0.813981C139.853 0.813558 142.455 0.825562 145.007 0.825211C146.804 0.824999 148.631 0.809746 150.432 0.811295C150.815 0.811647 150.612 0.825572 150.78 0.826065C150.837 0.82619 150.906 0.801891 151.499 0.811661C151.713 0.815184 151.467 0.832178 151.677 0.833023C151.78 0.833426 151.823 0.812126 152.422 0.807267C153.511 0.798394 154.096 0.826788 154.193 0.825943C154.376 0.824308 154.323 0.80668 154.565 0.806046C155.753 0.802947 156.744 0.799958 157.804 0.798478C158.299 0.797774 161.71 0.79421 161.898 0.79738C162.317 0.804423 161.927 0.841234 162.464 0.839981C162.615 0.830663 162.765 0.821345 162.916 0.812028C162.677 0.804948 162.437 0.797868 162.198 0.790788C162.857 0.802623 163.604 0.785882 164.091 0.786516C164.181 0.78666 165.01 0.803353 165.433 0.80153C165.253 0.808447 165.074 0.815364 164.894 0.822281C164.958 0.828181 165.021 0.834081 165.085 0.839981C165.93 0.831036 166.825 0.831267 167.692 0.832535C168.005 0.832966 167.899 0.8473 168.216 0.847793C170.06 0.850816 169.594 0.791217 171.368 0.903089C170.769 0.892947 168.584 0.907178 168.266 0.903455C168.045 0.900849 167.186 0.80632 167.501 0.903333C165.731 0.902911 167.269 0.849403 165.615 0.861098C165.648 0.872939 165.681 0.884779 165.714 0.89662C165.137 0.904084 164.71 0.910067 164.36 0.889174C164.242 0.946615 162.281 0.913009 161.205 0.916883C159.65 0.922378 157.894 0.936389 156.354 0.938855C155.823 0.939691 155.522 0.917178 155.456 0.917249C155.358 0.917411 155.085 0.937127 154.891 0.937268C154.166 0.93783 151.959 0.9045 151.411 0.95924C155.726 0.95924 160.04 0.95924 164.355 0.95924C163.813 0.932333 168.178 0.929704 168.399 0.931042C168.604 0.932245 168.431 0.951136 168.492 0.952282C168.946 0.960384 169.333 0.932995 169.477 0.932995C169.587 0.932999 169.808 0.94585 170.199 0.945568C170.27 0.945528 170.29 0.931938 170.367 0.931897C170.876 0.931897 171.379 0.932089 171.89 0.932019C171.921 0.932151 172.05 0.952003 172.179 0.952038C172.308 0.952038 172.436 0.932203 172.469 0.932141C172.877 0.932282 173.578 0.945183 173.966 0.945324C174.101 0.945318 174.008 0.930781 174.159 0.93092C174.623 0.931273 174.47 0.959731 175.044 0.952404C175.236 0.949935 175.224 0.928173 175.592 0.931042C175.853 0.933086 175.825 0.971868 175.867 0.973277C175.924 0.97498 176.824 0.944353 177.119 0.969738C176.475 1.03675 177.823 0.973234 177.758 0.944958C178.115 0.952079 178.471 0.959199 178.828 0.96632C178.95 0.959158 179.072 0.951997 179.193 0.944836C180.633 0.977103 181.511 0.957729 182.927 0.967662C182.995 0.968156 184.189 0.984076 184.133 0.994151C183.419 1.01148 182.706 1.01227 182.249 0.980235C181.497 1.04132 181.484 0.99264 180.269 1.00074C179.863 1.00349 179.834 1.02006 179.787 1.02027C178.206 1.02851 175.673 1.03565 174.607 0.987193C174.308 1.0003 175.382 1.00549 174.965 1.01515C174.737 1.02043 169.257 1.03591 171.008 0.980113C170.826 0.981659 170.645 0.983206 170.463 0.984752C170.281 1.03745 169.378 1.0254 169.48 0.972911C169.394 0.983653 169.309 0.994395 169.223 1.00514C169.054 1.01423 168.854 1.01909 168.573 1.02198C167.498 1.03297 161.104 1.01469 160.764 1.02223C160.756 1.03468 160.748 1.04713 160.741 1.05958C163.566 1.07367 166.306 1.04273 169.387 1.07838C169.297 1.0667 169.208 1.05502 169.118 1.04334C170.348 1.0597 171.577 1.07606 172.806 1.09241C171.505 1.11355 169.435 1.1313 168.069 1.1139C167.827 1.11079 168.005 1.09451 167.949 1.09254C167.803 1.08741 167.646 1.11567 167.123 1.11841C166.599 1.12116 165.284 1.10113 165.163 1.10169C164.931 1.10285 164.303 1.13518 163.908 1.13477C163.388 1.13421 163.736 1.1142 163.632 1.11378C163.2 1.11181 162.813 1.12172 162.475 1.12025C161.973 1.11805 160.93 1.08286 160.579 1.13453C160.937 1.13689 161.296 1.13925 161.655 1.14161C159.71 1.16014 158.189 1.09409 156.273 1.14503C155.837 1.20759 157.421 1.19913 156.082 1.22583C156.325 1.22494 156.568 1.22404 156.811 1.22315C156.868 1.21005 156.925 1.19694 156.982 1.18384C157.401 1.1932 157.819 1.20256 158.238 1.21192C158.119 1.20024 157.999 1.18856 157.88 1.17688C159.364 1.16808 160.863 1.1561 161.381 1.21888C161.412 1.2037 161.443 1.18852 161.473 1.17334C162.851 1.1918 164.92 1.12747 164.534 1.21192C164.599 1.20744 164.664 1.20297 164.73 1.19849C165.563 1.21575 165.207 1.18083 165.52 1.17688C165.609 1.17577 167.229 1.1938 166.511 1.21888C168.091 1.23804 167.604 1.15911 168.039 1.15564C169.05 1.19475 170.869 1.13609 170.104 1.19788C170.255 1.2002 170.406 1.20252 170.556 1.20484C171.051 1.15623 171.539 1.21123 172.075 1.22962C172.257 1.23072 172.438 1.23181 172.62 1.23291C172.742 1.21656 172.863 1.2002 172.985 1.18384C174.695 1.26169 174.153 1.04879 174.934 1.22766C174.813 1.23837 174.691 1.24907 174.569 1.25977C174.281 1.26485 173.992 1.26994 173.704 1.27503C174.867 1.27975 176.031 1.28447 177.195 1.28919C178.672 1.33932 179.512 1.28492 181.153 1.32458C181.307 1.31982 181.46 1.31506 181.614 1.3103C181.457 1.35081 180.861 1.34486 181.972 1.36304C182.066 1.39168 181.316 1.39538 180.975 1.37341C180.892 1.36805 181.593 1.34611 180.805 1.34534C180.27 1.34478 181.242 1.3792 179.638 1.36645C179.697 1.37345 179.757 1.38045 179.816 1.38745C179.642 1.38725 179.468 1.38704 179.294 1.38684C179.139 1.37064 178.985 1.35445 178.83 1.33826C178.432 1.36165 178.209 1.39442 177.3 1.38745C177.547 1.37731 177.212 1.34479 176.763 1.34534C176.763 1.35705 176.763 1.36877 176.763 1.38049C175.674 1.38803 176.05 1.35365 175.145 1.38049C175.054 1.37117 174.964 1.36186 174.873 1.35254C174.38 1.39093 172.565 1.41706 172.896 1.3595C172.387 1.41544 171.317 1.3902 170.92 1.34546C170.889 1.3571 170.858 1.36873 170.828 1.38037C170.616 1.38273 170.404 1.38509 170.193 1.38745C170.075 1.38041 169.957 1.37337 169.839 1.36633C169.688 1.37337 169.538 1.38041 169.388 1.38745C169.298 1.37577 169.207 1.36409 169.117 1.35242C168.876 1.36641 168.634 1.38041 168.393 1.39441C168.246 1.38509 168.098 1.37577 167.951 1.36645C167.935 1.39081 166.473 1.39624 166.065 1.38025C165.943 1.38733 165.822 1.39441 165.7 1.40149C165.641 1.38989 165.581 1.37829 165.522 1.3667C165.431 1.37597 165.34 1.38525 165.25 1.39453C165.041 1.38525 164.833 1.37597 164.624 1.3667C163.773 1.42355 163.745 1.37367 163.551 1.37402C163.191 1.37467 161.964 1.41028 161.759 1.40844C161.554 1.4066 161.455 1.38619 161.29 1.38428C158.564 1.35222 159.684 1.40698 159.138 1.41565C158.842 1.42037 158.634 1.40133 158.373 1.40344C157.927 1.40696 155.675 1.43215 155.546 1.42968C155.357 1.42613 155.801 1.33636 155.188 1.3595C155.168 1.4077 153.857 1.35905 154.47 1.42627C153.93 1.42037 153.39 1.41447 152.85 1.40857C152.911 1.4657 152.246 1.42896 151.52 1.43213C150.493 1.43657 148.179 1.47414 148.264 1.41552C148.018 1.42899 147.772 1.44246 147.526 1.45593C145.842 1.43748 144.19 1.45681 142.518 1.45752C137.557 1.4597 132.175 1.44698 127.238 1.43542C127 1.43485 127.035 1.4157 126.864 1.41528C125.966 1.41317 123.632 1.42671 122.374 1.42248C121.971 1.42114 121.775 1.40247 121.647 1.40161C121.214 1.39858 121.316 1.42319 121.116 1.42248C120.801 1.42135 119.135 1.39851 118.561 1.39612C118.277 1.39493 117.941 1.41448 117.608 1.40844C117.579 1.40795 117.632 1.3878 117.608 1.38745C117.002 1.38498 117.366 1.4024 117.161 1.40149C115.698 1.39494 114.135 1.39454 112.548 1.39038C112.154 1.38932 111.551 1.37512 111.212 1.37378C111.083 1.3733 111.315 1.38859 110.869 1.38733C110.716 1.38689 110.664 1.36701 110.491 1.36572C109.748 1.3603 109.5 1.42419 108.861 1.3728C107.629 1.37618 105.483 1.39259 104.358 1.39294C104.092 1.393 103.963 1.38126 103.709 1.38147C103.529 1.38161 103.213 1.3998 102.932 1.40002C102.651 1.40023 102.208 1.38291 101.669 1.38354C101.1 1.38418 100.393 1.39447 100.265 1.39441C100.111 1.39441 100.039 1.37253 99.8838 1.3728C99.416 1.37351 98.1634 1.39501 97.5606 1.39734C96.9129 1.3998 96.5241 1.38919 96.3028 1.3894C96.0978 1.3897 95.8588 1.40816 95.7651 1.40832C95.6195 1.4086 95.5851 1.38703 95.4001 1.38721C95.0979 1.38756 94.7863 1.40113 94.3331 1.40149C86.1711 1.40818 78.1687 1.39632 70.228 1.38061C69.3428 1.37885 68.8426 1.39399 67.5381 1.38708C67.0093 1.38427 67.2321 1.362 66.8205 1.36621C66.6369 1.36811 66.6833 1.38562 66.4513 1.38647C65.4256 1.39014 64.2306 1.37386 63.7862 1.37414C63.6099 1.37423 63.4084 1.39412 63.047 1.39441C60.3534 1.39666 57.1666 1.39108 54.2679 1.39453C52.733 1.39636 50.4093 1.4065 48.6478 1.40783C43.7806 1.41157 38.5446 1.40696 34.1056 1.40893C27.4029 1.41182 20.7324 1.43021 14.0441 1.40844C17.1732 1.45656 21.4341 1.45255 24.9177 1.45776C34.9797 1.4727 45.6934 1.44474 56.0055 1.4458C59.5934 1.44615 64.1172 1.44504 68.0452 1.45617C68.2234 1.45667 68.5926 1.44137 68.9777 1.44299C69.0595 1.44337 70.0738 1.47127 70.4155 1.47155C70.0916 1.42195 71.4304 1.46616 71.8443 1.46496C72.3662 1.4634 73.4547 1.43862 74.6762 1.45263C75.7846 1.46531 75.479 1.48439 75.5401 1.48559C75.9322 1.49332 76.069 1.46258 76.3693 1.45947C77.5965 1.44707 83.9087 1.46493 85.6704 1.46606C86.1256 1.46634 86.1385 1.48589 86.2411 1.48596C86.5127 1.48609 86.8993 1.46678 87.3345 1.46691C88.1191 1.4672 89.0227 1.48564 89.4546 1.48571C90.4875 1.48592 92.4473 1.46416 93.7896 1.46374C94.1671 1.46361 94.144 1.48395 94.3149 1.48388C95.0672 1.48352 97.0266 1.45956 97.9603 1.45935C99.4772 1.45899 101.037 1.47214 102.579 1.46545C102.677 1.47452 102.775 1.4836 102.873 1.49267C103.027 1.48315 103.181 1.47363 103.335 1.46411C105.942 1.47136 108.596 1.45093 111.189 1.45227C111.488 1.45241 112.967 1.46977 113.214 1.46984C113.419 1.46984 113.621 1.44737 113.925 1.45068C114.351 1.45527 113.95 1.49808 114.646 1.48583C114.833 1.48252 114.651 1.4642 115.027 1.45849C115.151 1.45659 117.561 1.44917 117.691 1.45044C117.907 1.45257 118.099 1.49183 118.155 1.49267C118.444 1.4971 118.432 1.46698 118.626 1.46423C119.2 1.45601 119.949 1.47627 120.042 1.47583C121.168 1.47026 123.274 1.44621 124.456 1.46045C124.62 1.46243 124.6 1.48486 124.629 1.48559C124.814 1.49024 124.929 1.4647 125.105 1.46411C126.054 1.46122 127.539 1.47842 128.492 1.48278C128.602 1.48326 128.834 1.47097 129.03 1.47216C130.138 1.47907 129.779 1.49878 129.842 1.49963C129.991 1.50172 130.254 1.47998 130.651 1.47863C131.675 1.47504 133.638 1.47816 134.736 1.47985C135.558 1.48119 135.546 1.50609 135.6 1.50659C135.715 1.50748 136.036 1.4876 136.577 1.48535C137.619 1.48091 137.5 1.50047 137.928 1.49963C137.964 1.49963 137.901 1.48048 138.377 1.47851C139.294 1.47471 141.356 1.49353 142.338 1.49255C142.716 1.4922 142.805 1.47374 143.191 1.47338C143.805 1.47275 145.189 1.49272 145.298 1.49267C145.329 1.49267 145.397 1.47143 145.577 1.47143C145.775 1.47143 145.97 1.48237 146.118 1.48229C146.958 1.482 148.405 1.44494 148.003 1.52075C148.272 1.50203 148.541 1.48331 148.811 1.4646C150.571 1.46833 152.28 1.46083 154.024 1.45703C154.416 1.45618 154.743 1.47054 155.074 1.46984C155.405 1.46914 156.865 1.44539 157.109 1.44494C157.545 1.44417 160.019 1.44167 160.327 1.44336C160.928 1.4466 161.511 1.47793 161.756 1.4718C161.952 1.46687 161.77 1.44921 162.145 1.44421C162.792 1.43556 163.893 1.45823 164.091 1.45788C164.176 1.45774 164.018 1.44398 164.809 1.44299C165.235 1.44243 165.464 1.45759 165.619 1.45752C165.667 1.45744 165.595 1.43285 166.439 1.43615C167.022 1.43848 167.271 1.45744 167.332 1.45752C167.424 1.45764 167.645 1.4374 168.014 1.43811C168.876 1.43987 170.452 1.46308 171.271 1.46484C171.429 1.46519 171.375 1.44074 172.006 1.44299C172.458 1.44461 172.379 1.46406 172.548 1.46484C172.816 1.46604 173.216 1.44222 173.808 1.44299C174.553 1.44398 180.084 1.46868 180.37 1.47509C180.563 1.47939 180.786 1.47966 180.881 1.49023C180.8 1.50036 180.718 1.51049 180.636 1.52062C179.789 1.48507 180.131 1.5257 179.906 1.52831C179.58 1.53205 178.353 1.52686 178.056 1.53588C177.95 1.53914 178.192 1.56077 177.624 1.57189C177.014 1.58379 176.743 1.54529 176.5 1.59789C175.635 1.53949 174.803 1.60148 175.805 1.61803C176.365 1.62726 181.853 1.64812 182.974 1.65136C183.883 1.65396 185.585 1.63831 186.702 1.64232C187.359 1.64472 188.977 1.64743 188.908 1.6754C189.491 1.67893 188.874 1.65108 188.996 1.64721C189.252 1.63912 191.072 1.65835 191.416 1.65758C193.115 1.65392 195.258 1.62265 196.908 1.65795C196.832 1.66544 196.755 1.67292 196.678 1.68041C196.307 1.69415 194.587 1.67451 194.393 1.71044C196.908 1.71044 199.424 1.71044 201.94 1.71044C201.893 1.67986 205.013 1.68027 205.161 1.69408C205.106 1.70889 205.051 1.7237 204.996 1.73851C203.233 1.6823 203.391 1.7566 202.207 1.71715C201.725 1.71659 201.871 1.74107 201.633 1.74571C199.269 1.79192 201.595 1.6955 199.786 1.7174C200.331 1.75289 198.849 1.76586 198.184 1.77037C198.033 1.77136 196.048 1.76236 195.812 1.76293C194.488 1.7661 192.214 1.78554 190.898 1.7661C189.862 1.76377 189.292 1.78906 188.351 1.79491C187.636 1.79935 187.841 1.78158 187.505 1.78136C186.8 1.78086 186.567 1.83496 186.116 1.75951C185.638 1.76891 185.159 1.77831 184.681 1.78771C184.681 1.77599 184.681 1.76427 184.681 1.75255C184.381 1.75255 184.081 1.75255 183.78 1.75255C183.692 1.76423 183.603 1.77591 183.515 1.78758C182.562 1.77159 182.96 1.74337 182.782 1.71019C182.576 1.70791 182.37 1.70564 182.164 1.70336C182.005 1.72883 181.845 1.7543 181.686 1.77977C180.766 1.7777 179.847 1.77562 178.927 1.77355C178.868 1.76187 178.808 1.75019 178.749 1.73851C178.747 1.75019 178.745 1.76187 178.743 1.77355C177.186 1.77595 175.629 1.77835 174.072 1.78075C173.658 1.79948 176.153 1.81368 176.341 1.8148C177.392 1.821 180.183 1.80222 180.187 1.84386C180.84 1.81279 182.807 1.8205 183.418 1.85777C182.49 1.85553 181.561 1.8533 180.633 1.85106C180.663 1.86501 180.693 1.87897 180.723 1.89293C179.566 1.83664 179.397 1.83974 178.207 1.89293C178.206 1.87421 178.205 1.85549 178.204 1.83678C177.375 1.90186 175.909 1.79146 175.867 1.87181C175.425 1.8653 174.983 1.85879 174.542 1.85228C173.588 1.86207 175.069 1.92387 171.336 1.89964C171.079 1.89795 171.132 1.87748 170.745 1.87889C170.634 1.87931 169.995 1.90909 168.773 1.90599C168.582 1.90549 168.568 1.88774 168.37 1.88548C167.913 1.88013 167.003 1.91525 167.416 1.85802C165.606 1.84132 166.356 1.8883 165.795 1.90696C165.421 1.91935 165.496 1.88549 165.172 1.89317C164.772 1.90269 165.066 1.93683 163.461 1.92112C163.641 1.91881 163.821 1.91649 164.001 1.91417C163.911 1.90489 163.82 1.89561 163.729 1.88634C162.814 1.9086 162.9 1.87607 162.468 1.9282C161.803 1.90496 161.227 1.9031 160.316 1.90733C158.547 1.91557 159.454 1.97176 157.435 1.8961C157.108 1.90672 156.781 1.91734 156.454 1.92796C155.917 1.90563 156.352 1.87769 155.549 1.87205C156.177 1.92722 154.484 1.9071 154.198 1.95628C154.168 1.94456 154.138 1.93284 154.108 1.92112C153.929 1.92112 153.749 1.92112 153.57 1.92112C153.57 1.93052 153.569 1.93992 153.569 1.94932C153.33 1.94228 153.091 1.93524 152.853 1.9282C152.673 1.93752 152.494 1.94684 152.314 1.95616C152.019 1.9365 151.724 1.91685 151.429 1.8972C151.243 1.89586 151.058 1.89451 150.873 1.89317C150.932 1.90717 150.99 1.92116 151.049 1.93516C150.811 1.93048 150.573 1.9258 150.334 1.92112C150.612 1.94409 150.437 1.97102 149.696 1.97032C149.084 1.96975 149.773 1.92182 148.458 1.94175C148.366 1.94317 148.204 1.97736 146.961 1.98265C145.47 1.98898 146.194 1.96422 145.928 1.96336C145.876 1.96322 145.421 1.98042 144.994 1.98289C144.752 1.98429 144.519 1.9704 144.487 1.97044C144.338 1.97107 144.294 1.99072 144.087 1.99143C143.562 1.99313 142.857 1.9835 142.342 1.98448C142.108 1.9849 141.888 1.99654 141.784 1.99668C141.622 1.99682 141.417 1.97904 141.253 1.97911C140.649 1.97948 139.731 2.03848 139.45 1.95652C138.869 2.03188 137.651 1.94077 137.741 1.99131C136.188 1.97224 132.045 2.03424 132.167 1.94932C131.287 2.02193 131.366 1.96935 130.997 1.97044C130.585 1.97164 130.799 1.98572 130.471 1.98509C129.707 1.98361 128.976 1.97756 128.215 1.97727C128.334 1.96564 128.454 1.954 128.573 1.94236C127.774 1.93863 128.049 1.96571 127.235 1.97093C125.736 1.98044 126.367 1.95883 126.146 1.92833C126.205 1.95778 124.438 1.9532 124.258 1.94932C124.151 1.94696 124.621 1.909 123.539 1.92125C123.598 1.93292 123.657 1.9446 123.716 1.95628C123.223 1.94031 121.884 1.96057 121.657 1.95665C121.552 1.95481 120.994 1.86064 120.483 1.93516C120.421 1.92348 120.36 1.91181 120.298 1.90013C119.731 1.91417 119.163 1.9282 118.596 1.94224C118.505 1.92121 118.415 1.90017 118.324 1.87913C118.144 1.87913 117.964 1.87913 117.784 1.87913C117.903 1.89781 118.023 1.91649 118.142 1.93516C117.031 1.92671 115.673 1.95616 115.443 1.89317C115.205 1.90485 114.967 1.91653 114.729 1.9282C114.574 1.90725 114.419 1.88629 114.264 1.86534C113.161 1.87063 113.143 1.88463 112.389 1.90696C112.419 1.89061 112.448 1.87425 112.478 1.85789C111.922 1.88086 110.907 1.90225 110.104 1.90513C109.723 1.90647 109.068 1.88393 108.978 1.88597C108.887 1.88812 107.992 1.97668 107.895 1.90001C106.578 1.93396 105.998 1.89928 105.463 1.90013C105.116 1.9007 104.958 1.9191 104.566 1.921C104.004 1.92375 103.439 1.91485 103.115 1.91612C102.93 1.91689 102.896 1.93484 102.768 1.93541C102.164 1.93814 102.518 1.9198 101.881 1.921C101.822 1.92121 101.357 1.9431 100.832 1.94029C100.539 1.93873 99.7797 1.91411 99.7129 1.91417C99.416 1.91459 99.6532 1.96382 98.6384 1.90696C98.6678 1.91632 98.6973 1.92568 98.7268 1.93504C97.4708 1.95878 97.2725 1.91706 97.0188 1.91417C96.9865 1.91393 96.6807 1.93006 96.4977 1.92784C96.1886 1.92404 96.064 1.90196 95.9956 1.90098C95.7544 1.8976 94.9423 1.90732 94.4115 1.88597C94.5231 1.94881 92.6631 1.97116 92.251 1.90001C91.9218 1.91404 91.5925 1.92808 91.2633 1.94212C91.1143 1.9304 90.9654 1.91868 90.8165 1.90696C90.7259 1.91864 90.6353 1.93032 90.5447 1.942C90.0649 1.91628 89.5851 1.89057 89.1052 1.86485C89.0747 1.89061 89.0441 1.91636 89.0136 1.94212C88.8792 1.93919 88.7449 1.93626 88.6105 1.93333C88.5056 1.91286 88.4008 1.8924 88.2959 1.87193C88.1279 1.87584 87.96 1.87974 87.7921 1.88365C87.7505 1.89846 87.7089 1.91327 87.6674 1.92808C86.7646 1.94516 87.2285 1.80389 85.5085 1.92808C85.2409 1.9164 84.9733 1.90473 84.7058 1.89305C84.4035 1.94988 83.8372 1.91547 83.3802 1.92186C83.0582 1.92636 83.0757 1.94894 82.6369 1.94944C82.1979 1.94994 82.2136 1.92835 82.1794 1.9282C81.8215 1.92688 81.5517 1.94591 81.2891 1.94212C81.2495 1.94156 81.1504 1.91592 80.8159 1.91429C80.4812 1.91267 80.2794 1.93994 79.781 1.9348C79.5256 1.93219 79.4518 1.91059 79.2252 1.90867C78.1456 1.89937 77.0584 2.00877 76.2487 1.87901C76.0662 1.89545 74.7424 1.953 74.1758 1.94969C73.2946 1.9444 73.6341 1.91895 73.2838 1.91429C73.2334 1.91358 72.9651 1.92218 72.2259 1.92064C72.0936 1.92036 72.1243 1.93473 72.1053 1.93492C71.2435 1.93464 69.5699 1.92329 68.6234 1.92125C68.5388 1.92103 68.096 1.96109 67.3457 1.90721C66.2338 1.94701 64.1394 1.8615 62.6729 1.92149C62.4696 1.92276 62.2227 1.90843 62.1328 1.90892C61.3572 1.91336 61.6414 1.95686 59.8888 1.89317C60.0307 1.91536 59.6207 1.93538 59.0415 1.9337C58.1706 1.93116 58.7892 1.88979 58.0892 1.89317C58.0892 1.90485 58.0892 1.91653 58.0892 1.9282C56.479 1.89679 56.1586 1.94672 54.5429 1.947C53.9617 1.94707 53.1032 1.92119 52.9646 1.92112C52.911 1.9212 52.2754 1.94935 52.2147 1.94957C51.8728 1.95041 51.6798 1.93743 51.3847 1.93736C50.4095 1.93708 49.2458 1.97371 49.4563 1.90721C49.1881 1.92125 48.92 1.93528 48.6519 1.94932C47.6388 1.87831 46.8813 1.97618 46.6689 1.90721C46.4878 1.92145 46.3067 1.93569 46.1255 1.94993C41.7805 1.94273 37.4356 1.93553 33.0906 1.92833C32.9179 1.95052 31.0231 1.94264 30.926 1.93919C30.4798 1.92355 30.9511 1.87515 30.0406 1.88621C29.9399 1.90741 29.8391 1.92861 29.7384 1.94981C28.594 1.95671 29.1444 1.93562 28.6928 1.92125C28.5041 1.92386 28.565 1.94031 28.3096 1.94151C26.9241 1.94806 24.0831 1.94884 22.5681 1.95018C22.2625 1.95046 22.3086 1.93508 22.2137 1.93504C21.9529 1.93518 21.4381 1.95456 20.9146 1.95457C17.6776 1.95443 13.0908 1.9435 9.83212 1.92723C9.6108 1.9261 9.5834 1.90776 9.43405 1.90684C9.22707 1.90565 8.76474 1.92048 8.54705 1.91893C8.34199 1.91752 8.21064 1.90359 7.99123 1.90196C6.98718 1.89435 5.63723 1.91789 4.563 1.87681C4.47266 1.87335 3.34716 1.79951 3.3217 1.79466C3.17235 1.76592 4.17251 1.72076 2.52968 1.6787C3.99797 1.64199 3.53929 1.57711 1.63194 1.5454C2.58859 1.53722 3.54524 1.52905 4.50188 1.52087C4.50326 1.51318 4.50464 1.50549 4.50601 1.4978C3.63516 1.45968 2.77116 1.447 1.44695 1.44348C1.48824 1.43636 1.52953 1.42924 1.57083 1.42212C2.74042 1.38654 4.15132 1.37996 5.04201 1.33142C3.73574 1.29549 2.42947 1.25956 1.1232 1.22364C1.18844 1.21802 1.25369 1.21241 1.31893 1.20679C1.94512 1.19221 3.3129 1.18365 3.83292 1.17005C5.81902 1.1182 2.09464 1.13125 2.70642 1.09962C4.80333 1.10076 6.90024 1.10189 8.99716 1.10303C9.07068 1.07974 1.00376 1.0154 1.08686 0.94508C1.74591 0.94036 2.40497 0.93564 3.06402 0.93092C2.77028 0.913058 2.47654 0.895196 2.18281 0.877333C2.26374 0.871677 2.34468 0.866022 2.42562 0.860366C3.53753 0.846491 4.64944 0.832616 5.76135 0.818741C2.38075 0.832688 0.809753 0.822564 0 0.681905C0.0916729 0.678324 0.183346 0.674743 0.275019 0.671163C1.00737 0.759158 4.46431 0.730696 6.30148 0.713154C5.92703 0.687378 4.30939 0.70729 3.96754 0.691792C3.87067 0.687349 4.20848 0.669458 3.98405 0.660299C3.39748 0.636487 0.897875 0.605849 1.26112 0.576683C1.49504 0.557943 5.51695 0.532231 6.30148 0.534204C4.46255 0.500529 2.5678 0.490786 0.723473 0.449856C1.88763 0.392791 2.91866 0.322955 5.04366 0.319855C5.69137 0.289913 1.19288 0.248434 1.08851 0.232089C1.86704 0.214552 2.64558 0.197015 3.42411 0.179479C2.7656 0.184158 2.1071 0.188837 1.4486 0.193516C1.44667 0.187657 1.44474 0.181798 1.44282 0.175939C3.14863 0.148744 4.70923 0.0988287 6.66156 0.10221C6.59859 0.0712114 5.43043 0.0742949 4.86362 0.0740131ZM191.686 1.83714C191.726 1.86285 191.01 1.85863 190.607 1.85814C190.668 1.86282 190.728 1.8675 190.789 1.87218C189.929 1.86731 188.327 1.85745 188.268 1.90733C187.655 1.91353 187.926 1.87015 187.728 1.86522C187.651 1.86325 186.85 1.88849 186.209 1.85777C186.057 1.85789 185.905 1.85802 185.752 1.85814C185.723 1.87449 185.693 1.89085 185.664 1.90721C185.452 1.88735 185.24 1.8675 185.027 1.84764C187.246 1.84414 189.465 1.84064 191.683 1.83714C191.684 1.83714 191.685 1.83714 191.686 1.83714ZM169.572 1.85826C168.764 1.84903 167.526 1.83446 167.776 1.87926C168.287 1.8769 168.797 1.87454 169.307 1.87218C169.396 1.86754 169.484 1.8629 169.572 1.85826ZM89.1994 1.82298C88.5246 1.77888 87.9033 1.81703 86.8597 1.80907C86.861 1.81838 86.8624 1.8277 86.8638 1.83702C87.2905 1.81465 88.4187 1.82953 89.1994 1.82298ZM211.734 1.66857C211.883 1.67203 212.031 1.67549 212.18 1.67894C211.575 1.72904 211.467 1.69374 210.783 1.6986C210.742 1.6989 210.756 1.71037 210.742 1.71044C210.575 1.71121 210.42 1.69741 210.269 1.69762C209.977 1.69804 209.74 1.71203 209.223 1.71154C208.824 1.71111 208.82 1.68912 208.68 1.68969C208.56 1.69023 207.375 1.75071 206.613 1.7246C205.162 1.67486 211.291 1.66392 211.734 1.66857ZM216.033 1.70995C215.889 1.71015 215.746 1.71036 215.602 1.71056C216.034 1.67676 215.163 1.6819 214.524 1.68261C214.544 1.6502 215.895 1.66406 216.5 1.65441C216.344 1.67292 216.188 1.69144 216.033 1.70995ZM197.895 1.64049C198.456 1.63719 198.362 1.67764 198.339 1.68969C198.16 1.68969 197.982 1.68969 197.803 1.68969C197.833 1.67329 197.864 1.65689 197.895 1.64049ZM202.116 1.62646C201.941 1.65393 200.723 1.66595 200.145 1.6682C200.12 1.66821 200.278 1.65313 199.87 1.65453C199.747 1.65497 198.541 1.70984 198.806 1.64757C199.909 1.64053 201.011 1.63349 202.114 1.62646C202.115 1.62646 202.115 1.62646 202.116 1.62646ZM203.346 1.64269C203.117 1.65132 202.887 1.65994 202.657 1.66857C202.539 1.65567 202.42 1.64277 202.301 1.62987C202.563 1.62662 202.824 1.62336 203.085 1.62011C203.172 1.62764 203.259 1.63516 203.346 1.64269ZM30.6055 1.60607C30.6589 1.61986 30.7123 1.63366 30.7658 1.64745C30.9727 1.65591 31.9787 1.59585 31.6602 1.58422C31.3086 1.5915 30.9571 1.59879 30.6055 1.60607ZM26.3572 1.57714C26.148 1.57018 25.9387 1.56323 25.7295 1.55627C25.4889 1.57966 25.2483 1.60306 25.0077 1.62646C26.0529 1.64223 27.165 1.66041 26.9857 1.59142C27.2249 1.59142 27.4642 1.59142 27.7034 1.59142C27.5019 1.61995 27.529 1.62935 28.1551 1.64745C28.2921 1.60776 28.9395 1.62798 29.6805 1.61925C29.1415 1.61693 28.6025 1.61462 28.0635 1.6123C28.0635 1.6053 28.0635 1.5983 28.0635 1.5913C29.2649 1.59383 27.7717 1.54944 26.989 1.57726C26.9273 1.56795 26.8657 1.55863 26.804 1.54931C26.6551 1.55859 26.5061 1.56786 26.3572 1.57714ZM113.201 1.5913C113.052 1.58426 112.903 1.57722 112.754 1.57018C112.177 1.66187 113.352 1.57489 114.189 1.64745C113.913 1.59233 115.188 1.59464 115.261 1.59093C115.114 1.57238 114.967 1.55383 114.821 1.53527C114.281 1.55395 113.741 1.57262 113.201 1.5913ZM108.979 1.52807C109.496 1.57379 106.959 1.5766 106.108 1.56652C105.901 1.56404 105.532 1.53894 105.383 1.54211C105.292 1.55138 105.201 1.56066 105.111 1.56994C105.004 1.53788 103.342 1.57392 102.687 1.59118C102.625 1.5795 102.564 1.56782 102.502 1.55615C102.263 1.56078 102.024 1.56542 101.786 1.57006C101.816 1.55842 101.846 1.54679 101.876 1.53515C101.695 1.54915 101.515 1.56314 101.334 1.57714C100.625 1.59271 101.062 1.52927 100.53 1.54907C99.9377 1.57105 100.908 1.60883 100.89 1.63341C101.37 1.62707 102.463 1.61288 102.95 1.61217C103.23 1.61179 102.913 1.65585 104.12 1.60522C104.384 1.61702 104.649 1.62882 104.913 1.64062C105.399 1.62186 105.885 1.6031 106.37 1.58434C106.461 1.60066 106.551 1.61698 106.642 1.63329C106.694 1.63585 107.817 1.5988 107.757 1.58654C108.212 1.61773 109.146 1.62329 110.13 1.62487C110.224 1.616 110.319 1.60713 110.414 1.59826C109.462 1.61741 110.111 1.58887 109.827 1.57189C109.664 1.5621 109.163 1.54286 108.979 1.52807ZM37.2349 1.5703C35.6371 1.61011 36.6264 1.57727 34.8993 1.57726C35.0199 1.59834 35.1404 1.61942 35.261 1.64049C36.1102 1.60198 37.5074 1.62759 37.2365 1.5703C37.236 1.5703 37.2354 1.5703 37.2349 1.5703ZM20.3349 1.64037C21.2488 1.62762 20.7902 1.59484 21.9486 1.58434C21.9492 1.58434 21.9497 1.58434 21.9503 1.58434C21.3513 1.58198 20.7522 1.57962 20.1532 1.57726C20.2137 1.5983 20.2743 1.61934 20.3349 1.64037ZM73.762 1.61486C74.6383 1.62402 74.4658 1.60762 75.261 1.64037C76.4449 1.60064 75.4427 1.60625 75.4427 1.57018C75.1721 1.58076 74.9014 1.59134 74.6308 1.60192C73.9748 1.56819 74.597 1.55121 74.597 1.54797C74.5964 1.54797 74.5959 1.54797 74.5953 1.54797C74.5953 1.53714 74.6166 1.53486 74.3649 1.52831C74.1639 1.55716 73.963 1.58601 73.762 1.61486ZM77.5123 1.5703C77.2118 1.59426 77.0767 1.62501 77.8666 1.64037C77.8672 1.64037 77.8677 1.64037 77.8683 1.64037C77.9317 1.58684 78.6891 1.63005 79.0344 1.62646C79.125 1.62064 79.2156 1.61482 79.3061 1.609C78.7082 1.5961 78.1103 1.5832 77.5123 1.5703ZM90.7264 1.52111C90.7298 1.58025 90.0668 1.58588 90.9998 1.64037C91.1809 1.63931 91.3621 1.63826 91.5432 1.6372C91.6622 1.62422 91.7811 1.61124 91.9 1.59826C94.1978 1.70527 94.8829 1.52305 90.9998 1.59118C90.9993 1.59122 90.9987 1.59126 90.9982 1.5913C90.9076 1.5679 90.817 1.54451 90.7264 1.52111ZM86.6796 1.52612C86.6504 1.55716 86.6213 1.58821 86.5921 1.61925C86.0846 1.54436 85.4291 1.61582 84.434 1.56298C84.344 1.57242 84.254 1.58186 84.164 1.5913C83.7921 1.57053 80.1393 1.56454 80.9306 1.6123C81.2761 1.63315 82.0287 1.60483 82.0935 1.60546C82.313 1.6078 82.5992 1.63447 82.9698 1.63293C83.1839 1.63199 83.6353 1.60064 84.0723 1.6007C85.0493 1.60084 86.8327 1.68501 88.1175 1.60534C88.21 1.6147 88.3025 1.62405 88.395 1.63341C89.3483 1.6277 89.0301 1.59805 89.9171 1.63341C90.5299 1.48595 86.3513 1.64069 87.2214 1.52111C87.2208 1.52111 87.2203 1.52111 87.2197 1.52111C87.0397 1.52278 86.8597 1.52445 86.6796 1.52612ZM60.4306 1.5703C60.373 1.54382 59.2673 1.58468 59.5271 1.52123C59.1662 1.54333 58.8053 1.56542 58.4444 1.58752C58.4471 1.59342 58.4499 1.59932 58.4526 1.60522C58.8113 1.60058 59.17 1.59594 59.5287 1.5913C59.5301 1.60066 59.5315 1.61002 59.5329 1.61938C60.0674 1.58552 62.2981 1.60027 62.2302 1.63341C62.3494 1.61942 62.4686 1.60542 62.5878 1.59142C63.6548 1.62954 64.5728 1.58901 65.7352 1.62621C65.8253 1.61462 65.9153 1.60302 66.0053 1.59142C66.064 1.60078 66.1226 1.61014 66.1812 1.6195C66.6046 1.62068 67.028 1.62186 67.4514 1.62304C68.8312 1.58536 66.1503 1.53657 65.8253 1.54211C65.7821 1.54288 65.7888 1.56711 65.5189 1.57092C65.0395 1.57759 62.3562 1.55347 61.5266 1.56945C61.5194 1.55338 61.5122 1.53731 61.5051 1.52123C61.1469 1.53759 60.7888 1.55395 60.4306 1.5703ZM95.8535 1.58434C95.9141 1.6007 95.9746 1.61706 96.0352 1.63341C97.0804 1.61708 97.7386 1.63136 97.4706 1.57726C97.47 1.57726 97.4695 1.57726 97.4689 1.57726C96.9305 1.57962 96.392 1.58198 95.8535 1.58434ZM173.53 1.59826C173.503 1.56574 173.003 1.55359 172.357 1.5769C172.389 1.58634 172.42 1.59578 172.451 1.60522C172.787 1.57753 173.207 1.62579 174.245 1.61938C174.245 1.60302 174.245 1.58666 174.245 1.5703C174.007 1.57962 173.769 1.58894 173.53 1.59826ZM94.9516 1.57726C94.6331 1.55798 93.7389 1.61649 94.3273 1.61938C94.7771 1.62156 95.1226 1.58762 94.9516 1.57726ZM16.7398 1.60876C16.976 1.61217 17.2122 1.61559 17.4484 1.61901C17.5715 1.60509 17.6945 1.59118 17.8176 1.57726C17.817 1.57726 17.8165 1.57726 17.8159 1.57726C17.4572 1.58776 17.0985 1.59826 16.7398 1.60876ZM70.7665 1.61754C71.5676 1.61551 72.3687 1.61348 73.1698 1.61144C73.1778 1.60237 73.1858 1.59329 73.1938 1.58422C72.3913 1.61733 72.0686 1.58164 71.8815 1.57946C71.8823 1.57946 71.8831 1.57946 71.8839 1.57946C71.2831 1.57228 70.7106 1.56699 70.1422 1.55615C70.3503 1.57661 70.5584 1.59708 70.7665 1.61754ZM68.0205 1.5603C68.1554 1.62441 68.3316 1.63187 69.5624 1.58678C69.5137 1.57889 69.4649 1.571 69.4162 1.5631C68.7785 1.56782 68.4065 1.58262 68.5185 1.54919C68.3525 1.55289 68.1865 1.55659 68.0205 1.5603ZM80.5656 1.5808C80.4179 1.56039 79.2458 1.58089 79.3094 1.59118C79.3346 1.59526 80.8535 1.62082 80.5656 1.5808ZM182.429 1.5841C182.159 1.57942 181.889 1.57474 181.619 1.57006C181.978 1.5631 182.337 1.55615 182.697 1.54919C182.607 1.56082 182.518 1.57246 182.429 1.5841ZM185.394 1.49291C185.586 1.50109 184.961 1.55873 186.112 1.5736C185.274 1.57482 184.436 1.57604 183.599 1.57726C183.991 1.56795 184.384 1.55863 184.777 1.54931C184.709 1.53275 184.64 1.51619 184.571 1.49963C184.846 1.49739 185.12 1.49515 185.394 1.49291ZM186.293 1.53515C185.842 1.49134 188.218 1.48805 188.439 1.4934C188.488 1.49468 188.723 1.52789 188.809 1.53503C188.45 1.53507 188.092 1.53511 187.733 1.53515C187.853 1.54561 187.973 1.55606 188.093 1.56652C187.673 1.5701 187.253 1.57368 186.833 1.57726C187.013 1.56677 187.192 1.55627 187.372 1.54577C187.012 1.54223 186.653 1.53869 186.293 1.53515ZM176.763 1.54577C177.063 1.54687 177.363 1.54797 177.664 1.54907C177.604 1.53271 177.544 1.51635 177.484 1.49999C177.304 1.49999 177.124 1.49999 176.944 1.49999C176.884 1.51525 176.823 1.53051 176.763 1.54577ZM182.882 1.52465C182.445 1.60341 181.254 1.43123 182.646 1.49499C182.787 1.50147 182.924 1.51704 182.882 1.52465ZM189.329 1.5028C190.263 1.44538 190.052 1.57216 189.171 1.53503C189.126 1.53305 189.259 1.50704 189.329 1.5028ZM196.331 1.50097C196.407 1.5014 196.539 1.54244 197.261 1.50341C197.38 1.50809 197.499 1.51277 197.619 1.51745C197.34 1.53652 194.953 1.54787 195.283 1.5072C195.648 1.50656 195.953 1.4997 196.331 1.50097ZM194.02 1.34912C193.662 1.35026 193.304 1.3514 192.946 1.35254C193.064 1.3654 193.182 1.37825 193.3 1.39111C193.124 1.39461 192.948 1.39811 192.772 1.40161C192.47 1.37943 192.169 1.35726 191.868 1.33508C192.647 1.33154 193.425 1.328 194.204 1.32446C194.143 1.33268 194.081 1.3409 194.02 1.34912ZM184.498 1.31738C185.187 1.33352 186.031 1.31634 187.151 1.31909C187.151 1.31913 187.152 1.31917 187.152 1.31921C187.208 1.3194 187.307 1.33706 187.487 1.33777C187.64 1.33833 190.663 1.31893 190.427 1.34888C189.257 1.37571 188.82 1.33491 188.54 1.40149C188.483 1.38745 188.426 1.37341 188.369 1.35937C187.244 1.33507 186.923 1.38366 186.292 1.40149C186.294 1.39091 186.297 1.38033 186.299 1.36975C185.877 1.36869 185.456 1.36763 185.034 1.36658C185.093 1.37353 185.153 1.38049 185.212 1.38745C185.063 1.38745 184.914 1.38745 184.765 1.38745C184.401 1.3561 183.94 1.3488 184.498 1.31738ZM195.645 1.36658C195.976 1.28633 199.202 1.3413 200.676 1.32446C199.902 1.37278 198.704 1.33948 197.86 1.33899C196.228 1.33808 197.356 1.36765 197.079 1.38061C196.943 1.38702 196.017 1.33558 195.645 1.36658ZM181.981 1.33142C182.794 1.3379 183.249 1.31943 183.953 1.34888C183.894 1.35474 183.835 1.36059 183.776 1.36645C183.535 1.36109 181.571 1.34417 181.981 1.33142ZM202.836 1.34546C201.265 1.31664 202.04 1.3893 201.223 1.33484C201.76 1.33138 202.298 1.32792 202.836 1.32446C202.836 1.33146 202.836 1.33846 202.836 1.34546ZM93.1537 1.27539C92.4917 1.27356 91.7524 1.25891 91.3566 1.28919C91.8064 1.29386 92.2562 1.29854 92.7061 1.30322C92.8553 1.29395 93.0045 1.28467 93.1537 1.27539ZM112.032 0.979625C111.881 0.972368 111.283 0.993785 111.22 0.993785C111.103 0.993784 111.135 0.983235 111.133 0.980479C110.367 0.982391 111.074 1.01511 110.507 1.02223C110.41 1.0234 109.079 1.00723 108.537 1.00855C107.704 1.0106 106.872 1.00848 106.561 1.00904C106.036 1.00996 105.06 1.03451 104.197 1.03578C103.841 1.03626 103.716 1.01661 103.358 1.0171C101.06 1.02041 96.5369 1.04739 94.4982 1.03492C93.9946 1.03182 93.5142 1.00609 93.2479 1.00819C93.0378 1.01759 92.8278 1.02699 92.6177 1.03639C91.9717 0.951776 91.7556 1.02703 91.0593 1.03492C90.6169 1.03991 90.4101 1.01484 90.3507 1.0149C89.9567 1.0154 89.7623 1.02733 89.4529 1.02931C89.1056 1.03149 88.6067 1.02018 88.4825 1.02223C88.4063 1.0236 88.6497 1.05692 87.3023 1.05628C85.9292 1.05563 84.5736 1.0521 83.177 1.05055C83.6428 1.15114 84.044 1.08229 84.6141 1.07862C84.767 1.07763 84.6701 1.09361 84.8032 1.0929C85.1793 1.091 85.8993 1.07531 86.2105 1.07911C86.5466 1.08321 86.4318 1.12023 86.858 1.10657C86.8796 1.10587 86.8114 1.09058 86.9117 1.08802C87.9194 1.06273 88.2492 1.08932 89.5231 1.0901C90.3673 1.09066 95.4934 1.07548 95.6693 1.08546C96.587 1.139 91.1854 1.13936 90.5538 1.13514C90.3327 1.13365 90.5645 1.11677 90.3631 1.11353C90.2776 1.11224 89.5098 1.14442 88.7509 1.1471C87.8333 1.15034 85.9891 1.12838 85.1146 1.12916C77.5968 1.13585 70.1834 1.1164 62.6729 1.11597C62.5127 1.11597 62.3019 1.13526 61.7801 1.13526C52.0418 1.13491 41.9488 1.1197 32.0863 1.12879C29.9362 1.13076 27.8037 1.1489 25.6337 1.13453C25.3645 1.14861 25.0952 1.16268 24.826 1.17676C25.5147 1.16557 26.7766 1.19741 26.8915 1.19788C26.9329 1.19802 27.194 1.18215 27.615 1.18299C28.207 1.18411 28.4666 1.19788 28.5152 1.19788C28.6658 1.19792 28.5671 1.18328 28.711 1.18335C29.7834 1.18399 30.6132 1.17983 31.5974 1.17969C32.7093 1.17956 33.2728 1.20682 34.0825 1.17688C34.1742 1.18856 34.2658 1.20024 34.3575 1.21192C34.9625 1.16141 38.5647 1.16701 40.0239 1.16968C40.4843 1.17053 40.4035 1.19104 40.5582 1.19104C40.657 1.19102 40.618 1.16416 41.8227 1.16944C42.4291 1.17212 42.5881 1.19168 42.8922 1.19104C43.0574 1.19067 43.0306 1.17127 43.268 1.17127C44.6408 1.17127 45.7618 1.17756 47.1058 1.18116C47.4837 1.18214 47.4879 1.19834 47.5725 1.19812C47.8838 1.1974 48.4254 1.16998 49.2168 1.17005C50.5195 1.17019 53.1159 1.17028 54.1812 1.1836C54.3377 1.18557 54.4674 1.205 54.5825 1.20472C54.7569 1.20422 54.8253 1.18395 54.8559 1.18384C55.4389 1.18349 55.0882 1.20234 55.4786 1.19776C55.6891 1.19529 55.9086 1.17217 56.3978 1.16956C57.0438 1.16611 56.9166 1.19355 57.1865 1.1908C57.2151 1.19037 57.2236 1.17129 57.4888 1.17066C58.4947 1.1684 59.9537 1.164 60.9055 1.16407C61.1789 1.16407 61.3823 1.17691 61.7636 1.17713C62.5319 1.17755 66.8992 1.16937 67.2573 1.17676C67.2951 1.17754 66.9068 1.20568 67.5258 1.20484C67.7055 1.19312 67.8853 1.1814 68.0651 1.16968C68.3657 1.18844 68.6663 1.2072 68.9669 1.22596C68.9561 1.16115 70.7247 1.15114 70.7071 1.21741C70.9006 1.2201 71.0941 1.22278 71.2877 1.22547C71.6907 1.17968 71.959 1.19658 72.7379 1.16968C72.8593 1.18372 72.9807 1.19776 73.1021 1.2118C73.1327 1.20244 73.1632 1.19308 73.1938 1.18372C73.6095 1.23444 74.2912 1.18351 74.374 1.18323C74.6923 1.18211 74.9316 1.195 75.0809 1.19458C75.6387 1.19325 76.846 1.17548 77.4975 1.18372C77.5281 1.18414 77.4979 1.20582 77.6833 1.2085C78.0176 1.21333 78.0502 1.18159 78.4959 1.21888C78.586 1.20952 78.676 1.20016 78.766 1.1908C78.8615 1.19564 78.9571 1.20048 79.0526 1.20533C79.6164 1.20284 80.1802 1.20036 80.744 1.19788C80.2312 1.23459 80.8213 1.25508 81.3791 1.2262C81.5679 1.2164 81.4004 1.19406 81.4633 1.19068C81.5497 1.1861 84.08 1.19747 84.2474 1.21192C84.3671 1.20488 84.4869 1.19784 84.6067 1.1908C84.6672 1.20488 84.7278 1.21896 84.7883 1.23304C84.8544 1.22811 84.9205 1.22319 84.9866 1.21826C85.6451 1.24306 87.3543 1.18619 87.6641 1.19068C87.8296 1.19307 87.6807 1.25308 88.4743 1.24695C88.5018 1.23047 88.5293 1.21399 88.5568 1.19751C88.7385 1.19515 88.9202 1.19279 89.1019 1.19043C89.4429 1.1919 89.9392 1.22046 89.9551 1.23999C90.0616 1.22827 90.1682 1.21656 90.2747 1.20484C90.5608 1.24302 92.0866 1.22949 92.7003 1.20533C92.8798 1.21684 93.0593 1.22836 93.2388 1.23987C93.4799 1.22587 93.7211 1.21188 93.9622 1.19788C94.5209 1.19366 93.9307 1.21693 94.0498 1.21888C94.3017 1.22289 95.5854 1.18358 95.5009 1.23255C95.6759 1.23267 95.851 1.23279 96.0261 1.23291C96.1161 1.21892 96.2062 1.20492 96.2962 1.19092C96.5967 1.23918 97.1167 1.22214 98.1833 1.23975C98.2728 1.22864 98.3623 1.21753 98.4517 1.20642C98.7815 1.22221 99.1113 1.238 99.4411 1.25379C99.5089 1.23539 99.5766 1.217 99.6443 1.19861C99.7878 1.19597 99.9312 1.19332 100.075 1.19068C100.366 1.23188 100.889 1.18736 101.156 1.20435C101.544 1.22915 101.244 1.2587 100.522 1.26441C100.576 1.29441 102.726 1.28063 103.221 1.27844C103.188 1.27258 103.156 1.26673 103.123 1.26087C102.616 1.2655 102.109 1.27014 101.602 1.27478C101.178 1.19933 102.554 1.21956 103.186 1.20984C103.243 1.20891 103.571 1.18032 104.207 1.18299C104.454 1.18404 105.415 1.22583 105.599 1.22815C107.081 1.24723 105.991 1.18753 107.441 1.23987C107.139 1.19978 107.972 1.23309 108.84 1.22534C108.987 1.22402 110.239 1.19152 110.324 1.19068C110.851 1.18546 110.277 1.2209 111.04 1.21167C111.132 1.20236 111.223 1.19304 111.315 1.18372C111.492 1.18372 111.67 1.18372 111.848 1.18372C112.925 1.26676 113.176 1.20561 113.559 1.19776C113.714 1.19459 113.514 1.21625 113.916 1.21167C114.067 1.20997 114.234 1.19195 114.641 1.19068C115.913 1.18674 116.344 1.2639 117.514 1.1836C117.693 1.19524 117.873 1.20687 118.052 1.21851C118.174 1.20455 118.295 1.1906 118.416 1.17664C119.342 1.21714 119.008 1.17566 119.342 1.17615C120.226 1.17742 122.034 1.18536 122.193 1.21875C122.955 1.14205 123.867 1.22858 124.168 1.22559C124.347 1.21627 124.525 1.20695 124.704 1.19764C124.914 1.20699 125.124 1.21635 125.334 1.22571C125.232 1.15038 126.32 1.22446 126.424 1.22559C126.545 1.22672 128.218 1.20442 128.841 1.20484C129.463 1.20526 130.547 1.22567 130.642 1.22571C130.752 1.22571 131.811 1.20524 132.638 1.20545C133.363 1.20567 137.653 1.23475 137.383 1.20118C137.102 1.19188 136.703 1.18382 136.357 1.17945C135.285 1.16606 128.99 1.14891 127.382 1.14356C124.155 1.13292 120.791 1.1349 117.55 1.12757C117.36 1.12715 117.331 1.10762 117.167 1.10718C116.919 1.10662 116.289 1.12616 116.044 1.12574C115.13 1.12405 114.018 1.12086 113.528 1.12037C112.434 1.11938 111.684 1.10762 110.856 1.10572C110.597 1.10516 109.287 1.12936 108.39 1.11915C108.227 1.11365 108.064 1.10816 107.901 1.10267C108.364 1.09626 109.577 1.07967 110.14 1.07777C110.979 1.07502 111.416 1.09086 111.725 1.09058C111.984 1.09037 113.308 1.07234 113.911 1.07191C114.099 1.07177 114.137 1.09224 114.297 1.09217C115.166 1.09168 116.311 1.09113 117.065 1.07105C116.757 1.0776 118.678 1.09017 118.779 1.0901C118.952 1.09009 119.139 1.07093 119.492 1.07093C120.17 1.07094 120.084 1.11101 120.931 1.07093C121.141 1.08261 121.351 1.09429 121.561 1.10596C121.574 1.05258 124.224 1.12519 124.978 1.06031C124.998 1.05298 121.554 1.03219 121.269 1.03114C119.564 1.02473 117.039 1.03782 115.384 1.02845C114.886 1.02563 113.319 0.99318 113.201 0.993785C113.011 0.9947 113.183 1.01327 113.1 1.01393C111.415 1.02773 112.256 0.990419 112.032 0.979625ZM186.292 1.28223C185.78 1.28003 185.268 1.27783 184.756 1.27564C184.793 1.26392 184.83 1.2522 184.867 1.24048C185.102 1.24504 185.336 1.2496 185.571 1.25415C185.751 1.24715 185.931 1.24016 186.112 1.23316C186.172 1.24951 186.232 1.26587 186.292 1.28223ZM187.554 1.23316C187.998 1.22726 188.019 1.25197 188.122 1.25318C188.428 1.25684 188.692 1.24685 188.989 1.24719C188.647 1.30589 187.919 1.27899 187.554 1.23316ZM178.382 1.21204C178.482 1.21485 179.151 1.27804 179.911 1.21924C180.48 1.23792 181.048 1.25659 181.617 1.27527C180.651 1.24674 179.314 1.2764 178.841 1.27527C178.661 1.27484 178.627 1.25544 178.483 1.25513C177.655 1.25358 176.851 1.29753 176.766 1.23328C177.549 1.25195 178.254 1.20859 178.382 1.21204ZM183.377 1.23487C183.51 1.24829 183.642 1.26172 183.774 1.27515C183.296 1.27515 182.817 1.27515 182.339 1.27515C182.468 1.26156 182.598 1.24797 182.727 1.23438C182.944 1.23454 183.161 1.2347 183.377 1.23487ZM146.568 1.19043C146.864 1.1906 147.159 1.19076 147.454 1.19092C147.438 1.18114 147.1 1.18117 146.976 1.17457C146.976 1.17457 146.977 1.17457 146.977 1.17457C146.839 1.1671 146.898 1.1545 146.646 1.14893C146.62 1.16277 146.594 1.1766 146.568 1.19043ZM24.4684 1.13477C23.9737 1.13407 19.4056 1.134 19.7947 1.16968C19.9909 1.18751 21.5532 1.17196 22.0139 1.17225C22.6349 1.17261 24.3119 1.2112 24.4684 1.13477ZM16.3781 1.12781C16.2989 1.16338 19.1539 1.16903 19.433 1.16285C19.3737 1.15778 19.2824 1.14649 19.2034 1.14393C18.8184 1.13167 16.9935 1.13753 16.3781 1.12781ZM130.042 1.08778C130.272 1.10576 130.502 1.12374 130.732 1.14173C130.672 1.11833 130.611 1.09494 130.55 1.07154C130.381 1.07695 130.211 1.08236 130.042 1.08778ZM107.716 1.11353C103.882 1.11239 100.048 1.11125 96.2144 1.11011C96.5517 1.10039 96.8889 1.09066 97.2261 1.08094C100.53 1.08439 104.053 1.09424 107.243 1.07923C107.401 1.09066 107.559 1.1021 107.716 1.11353ZM177.302 1.1067C176.32 1.10635 175.499 1.12353 174.43 1.0962C175.449 1.06971 175.953 1.11069 176.943 1.07166C176.943 1.07166 176.944 1.07166 176.944 1.07166C177.064 1.08334 177.183 1.09502 177.302 1.1067ZM155.37 1.09962C155.669 1.08326 155.967 1.0669 156.266 1.05055C155.907 1.05055 155.547 1.05055 155.188 1.05055C155.249 1.0669 155.309 1.08326 155.37 1.09962ZM74.2732 1.02259C73.2457 1.05829 70.6171 0.993678 69.7821 1.03663C69.7281 1.03945 70.2245 1.05757 69.422 1.09266C70.0282 1.08547 70.4562 1.07814 70.5014 1.05055C70.6815 1.0599 70.8615 1.06926 71.0415 1.07862C71.3402 1.07154 71.6389 1.06446 71.9376 1.05738C71.9052 1.08486 71.9289 1.08339 72.3877 1.06458C72.597 1.07154 72.8062 1.0785 73.0154 1.08546C73.104 1.07382 73.1927 1.06218 73.2813 1.05055C73.4625 1.06682 73.6436 1.0831 73.8248 1.09937C74.5308 1.08172 74.1008 1.05018 74.2732 1.02259ZM77.8699 1.02931C77.7029 1.02326 72.939 1.04299 75.104 1.09779C75.6668 1.09604 76.2294 1.09429 76.7922 1.09254C76.3261 1.00179 77.8596 1.08294 77.9856 1.08485C78.5882 1.09371 79.3562 1.07213 79.7934 1.07325C80.1694 1.07424 80.3928 1.09051 80.6573 1.0901C81.5582 1.08869 82.9812 1.08809 83.177 1.05055C82.4768 1.04976 81.7654 1.04936 81.0372 1.0503C80.2671 1.05129 79.59 1.01585 78.1433 1.06446C77.7856 1.05924 77.9131 1.03086 77.8699 1.02931ZM157.165 1.05433C157.129 1.09205 158.948 1.08303 158.959 1.06812C158.963 1.05939 158.371 1.05959 158.286 1.05628C158.286 1.05628 158.285 1.05628 158.284 1.05628C158.249 1.05484 158.428 1.0404 158.15 1.03639C157.822 1.04237 157.493 1.04835 157.165 1.05433ZM31.5735 1.05042C31.3277 1.02926 25.7132 1.03687 25.5478 1.04701C25.5029 1.04982 25.5656 1.0591 25.5478 1.06446C26.8577 1.0346 28.7197 1.06994 29.963 1.07227C30.3096 1.0729 30.206 1.05791 30.2256 1.05763C30.2265 1.05763 30.2273 1.05763 30.2281 1.05763C30.4248 1.05759 31.3127 1.09422 31.5735 1.05042ZM67.9841 1.05384C68.2228 1.05974 68.4615 1.06564 68.7002 1.07154C68.7607 1.05986 68.8213 1.04819 68.8819 1.03651C68.8813 1.03651 68.8808 1.03651 68.8802 1.03651C68.5815 1.04229 68.2828 1.04806 67.9841 1.05384ZM59.7146 1.01539C59.7727 1.02361 59.8307 1.03183 59.8888 1.04005C60.4898 1.04119 61.0908 1.04233 61.6917 1.04347C61.6312 1.0481 61.5706 1.05274 61.51 1.05738C62.4187 1.06978 62.7951 1.0409 63.2791 1.04505C63.2785 1.04505 63.278 1.04505 63.2774 1.04505C63.3295 1.04554 63.3926 1.06266 63.5863 1.06324C64.0306 1.06458 65.3039 1.07095 65.4577 1.05372C65.7834 1.01695 63.2209 1.0344 62.7431 1.03272C62.5272 1.03195 62.2674 1.01696 62.1361 1.01661C61.9922 1.01628 61.7961 1.03652 61.4456 1.0359C61.3431 1.03569 60.2059 1.01188 59.7146 1.01539ZM49.1069 1.03993C49.2923 1.05845 49.6792 1.04056 49.8213 1.04359C49.8553 1.0443 49.5912 1.05981 49.9114 1.06446C50.0019 1.05388 50.0925 1.0433 50.1831 1.03272C49.8244 1.03512 49.4656 1.03753 49.1069 1.03993ZM160.22 1.03651C160.168 1.03253 159.192 1.03399 159.145 1.03651C158.56 1.07032 160.582 1.06666 160.22 1.03651ZM184.854 0.997813C184.405 0.948661 189.732 0.996982 190.249 0.994395C190.223 1.02529 188.955 0.994228 189.619 1.03663C188.986 1.01331 187.235 1.02569 186.823 1.01893C186.573 1.01484 186.51 0.988161 186.472 0.987315C186.323 0.98431 185.012 1.01514 184.854 0.997813ZM194.65 1.01539C194.144 1.00953 193.638 1.00367 193.132 0.997813C193.729 0.994314 194.326 0.990814 194.924 0.987315C194.833 0.996674 194.742 1.00603 194.65 1.01539ZM195.287 1.00135C195.271 0.97141 196.989 0.994219 197.441 0.987315C196.932 1.03825 196.083 0.990229 195.287 1.00135ZM166.695 0.95924C165.903 0.939443 165.563 1.03071 166.526 0.990977C166.555 0.989664 166.728 0.960289 166.695 0.95924ZM74.0288 0.894178C73.8938 0.893615 72.2148 0.864022 72.1177 0.878676C71.8104 0.925424 72.9121 0.906676 73.2813 0.924329C73.8769 0.952932 73.001 0.976501 74.4549 0.95924C74.3954 0.968598 74.336 0.977957 74.2765 0.987315C75.1274 0.990414 74.8489 0.925586 75.0016 0.917249C75.0484 0.914715 75.5804 0.920165 75.6764 0.916028C76.8755 0.8638 74.154 0.894614 74.0288 0.894178ZM147.096 0.952282C145.52 0.924806 146.198 0.965122 144.581 0.962658C144.527 0.98323 146.891 0.970318 147.096 0.952282ZM89.3769 0.931164C87.7468 0.939263 86.4062 0.912358 84.8858 0.948498C84.9848 1.00416 89.7998 0.945537 89.3769 0.931164ZM12.783 0.87477C19.1257 0.973892 26.4417 0.94126 33.1947 0.939709C33.9306 0.939568 34.0012 0.961635 34.2675 0.95924C34.4419 0.957688 34.4114 0.939915 34.6433 0.939831C43.023 0.936943 51.0467 0.913691 59.0737 0.924329C59.5793 0.925033 62.0391 0.963202 62.5647 0.905653C62.9622 0.861992 61.1951 0.896034 60.9005 0.895643C60.6792 0.895361 60.6698 0.874842 60.5223 0.87477C60.3657 0.874699 60.4951 0.888718 60.3133 0.888929C59.5432 0.889915 58.703 0.884436 58.0066 0.885634C51.178 0.897117 44.5346 0.893832 37.742 0.891859C36.9197 0.891647 37.0888 0.875206 37.0474 0.875136C37.0469 0.875177 37.0463 0.875217 37.0458 0.875258C32.6373 0.873708 27.6025 0.910588 22.9331 0.896498C19.645 0.885186 16.3569 0.873875 13.0688 0.862563C12.9735 0.866632 12.8783 0.870701 12.783 0.87477ZM77.5098 0.95216C77.0996 0.890163 77.0079 0.952673 75.536 0.92738C75.4162 0.93796 75.2965 0.948539 75.1767 0.959118C75.9553 0.956798 76.7338 0.954479 77.5123 0.95216C77.5115 0.95216 77.5107 0.95216 77.5098 0.95216ZM67.7884 0.929578C67.5396 0.845845 64.2483 0.905021 62.7662 0.889052C62.4946 0.931102 64.649 0.912212 65.1571 0.916639C65.4108 0.918823 66.7696 0.962071 67.8024 0.938122C67.7978 0.935274 67.7931 0.932426 67.7884 0.929578ZM179.28 0.87477C179.04 0.877211 178.801 0.879652 178.561 0.882094C179.161 0.891371 179.76 0.900648 180.359 0.909925C179.403 0.903944 178.447 0.897962 177.491 0.891981C177.669 0.874607 177.847 0.857233 178.025 0.839859C178.444 0.851496 178.862 0.863133 179.28 0.87477ZM176.178 0.883681C177.852 0.877138 176.104 0.923649 175.687 0.902967C175.436 0.890568 176.007 0.884385 176.178 0.883681ZM171.823 0.853774C172.604 0.823272 174.182 0.821171 173.621 0.882094C172.777 0.853561 172.233 0.87727 171.01 0.860854C171.188 0.849176 171.367 0.837499 171.546 0.825821C171.546 0.825821 171.547 0.825821 171.548 0.825821C171.64 0.835139 171.731 0.844457 171.823 0.853774ZM176.943 0.846816C178.039 0.881816 174.865 0.869849 175.862 0.846816C175.909 0.84576 176.9 0.845478 176.943 0.846816ZM19.7947 0.811783C19.6626 0.831691 20.5061 0.831319 20.7866 0.832657C22.0029 0.838573 23.5628 0.829911 24.8277 0.832657C24.7324 0.826106 24.6372 0.819555 24.5419 0.813004C22.9595 0.812597 21.3771 0.81219 19.7947 0.811783ZM28.7845 0.832779C29.6536 0.832779 30.5227 0.832779 31.3918 0.832779C31.4727 0.832779 31.8527 0.815696 31.5702 0.811539C30.6416 0.818619 29.713 0.825699 28.7845 0.832779ZM82.9962 0.832779C82.3298 0.821631 84.2487 0.764488 84.1623 0.825699C83.7736 0.828059 83.3849 0.830419 82.9962 0.832779ZM89.1969 0.808366C88.779 0.814184 88.3611 0.820003 87.9432 0.825821C87.9427 0.818782 87.9421 0.811743 87.9416 0.804704C88.36 0.805924 88.7785 0.807145 89.1969 0.808366ZM16.3781 0.797746C16.8207 0.821834 17.8767 0.818127 18.5353 0.818619C18.0817 0.797923 17.0005 0.808098 16.3781 0.797746ZM73.0121 0.808121C73.0661 0.824537 70.4154 0.820406 71.3331 0.79152C71.8927 0.797054 72.4524 0.802588 73.0121 0.808121ZM67.6282 0.78383C68.1967 0.780239 68.6371 0.785878 68.5201 0.811661C68.2187 0.810563 67.9172 0.809464 67.6158 0.808366C67.6199 0.800187 67.6241 0.792009 67.6282 0.78383ZM168.851 0.804704C167.893 0.807023 166.935 0.809342 165.977 0.811661C166.012 0.804622 166.048 0.797583 166.083 0.790544C167.007 0.788265 167.93 0.785987 168.854 0.783708C168.853 0.790707 168.852 0.797705 168.851 0.804704ZM15.8363 0.734515C15.1783 0.739113 14.5204 0.743711 13.8624 0.748309C14.5209 0.753029 15.1794 0.757749 15.8379 0.762468C15.8379 0.75311 15.8379 0.743752 15.8379 0.734393C15.8374 0.734434 15.8368 0.734475 15.8363 0.734515ZM181.975 0.71352C179.048 0.680692 182.782 0.64599 183.555 0.694233C183.556 0.694193 183.556 0.694152 183.557 0.694111C183.625 0.698375 183.482 0.718994 183.594 0.727313C183.297 0.717996 182.999 0.708678 182.701 0.69936C182.429 0.710956 182.157 0.722553 181.886 0.734149C181.796 0.729592 181.707 0.725035 181.617 0.720478C181.736 0.718158 181.856 0.715839 181.975 0.71352ZM193.787 0.69521C196.44 0.699017 193.725 0.750578 192.411 0.709858C192.421 0.700434 193.542 0.694858 193.787 0.69521ZM186.832 0.706318C186.414 0.710997 185.995 0.715676 185.577 0.720356C185.524 0.714456 185.471 0.708556 185.417 0.702656C185.738 0.696797 186.059 0.690937 186.38 0.685078C186.531 0.692158 186.681 0.699238 186.832 0.706318ZM173.079 0.615256C172.406 0.608775 171.548 0.674378 173.709 0.657125C173.707 0.650086 173.706 0.643047 173.705 0.636008C173.619 0.637132 173.366 0.643735 173.353 0.643209C173.313 0.641449 173.36 0.617943 173.079 0.615256ZM198.701 0.509791C198.776 0.507112 198.817 0.432862 199.603 0.509669C199.841 0.504989 200.078 0.50031 200.316 0.495631C200.377 0.511988 200.439 0.528345 200.5 0.544702C199.581 0.53202 199.483 0.565115 199.417 0.565819C199.111 0.568916 199.337 0.551894 199.14 0.55166C198.631 0.551096 197.474 0.562526 197.999 0.513941C198.188 0.496539 198.625 0.512468 198.701 0.509791ZM196.903 0.467556C197.014 0.473753 196.655 0.495474 196.739 0.501612C196.813 0.506966 197.921 0.529125 197.621 0.565819C197.439 0.564273 197.257 0.562727 197.075 0.561181C197.014 0.551131 196.952 0.54108 196.89 0.53103C196.714 0.540307 196.538 0.549584 196.362 0.558861C196.065 0.534062 195.433 0.501935 196.183 0.481715C195.907 0.483831 195.632 0.485947 195.356 0.488063C195.213 0.499944 195.07 0.511825 194.927 0.523706C195.002 0.5056 195.077 0.487493 195.152 0.469387C195.735 0.468776 196.319 0.468166 196.903 0.467556ZM205.454 0.474513C205.42 0.483872 205.387 0.49323 205.353 0.502589C206.366 0.485191 207.944 0.478575 207.048 0.537256C205.675 0.542138 204.303 0.547021 202.931 0.551904C202.84 0.544864 202.749 0.537825 202.657 0.530786C203.681 0.557907 203.365 0.4425 204.255 0.475612C204.406 0.481225 203.97 0.521583 204.914 0.495753C204.88 0.486354 204.847 0.476955 204.813 0.467556C205.027 0.469875 205.24 0.472194 205.454 0.474513ZM214.163 0.488551C212.428 0.475024 214.339 0.440872 214.659 0.469265C214.659 0.469265 214.658 0.469265 214.657 0.469265C215.535 0.546958 213.648 0.50942 213.533 0.509913C213.38 0.510601 213.023 0.566222 212.191 0.485133C212.848 0.486273 213.505 0.487412 214.163 0.488551ZM208.5 0.474635C208.645 0.472804 208.565 0.486929 208.628 0.48672C208.628 0.48672 208.629 0.48672 208.629 0.48672C209.558 0.483691 211.766 0.471044 212.006 0.516626C211.318 0.52043 208.243 0.53028 208.057 0.499293C208.205 0.491074 208.352 0.482855 208.5 0.474635ZM201.966 0.50857C201.396 0.479058 202.679 0.475129 203.016 0.488795C203.079 0.491756 202.557 0.539141 201.966 0.50857ZM158.241 0.4324C156.987 0.450154 158.635 0.467873 158.065 0.495631C158.304 0.493271 158.544 0.490911 158.783 0.488551C158.603 0.469834 158.422 0.451117 158.241 0.4324ZM101.062 0.376372C100.77 0.373092 100.909 0.390037 100.883 0.390288C100.691 0.389815 100.51 0.376011 100.436 0.37747C99.0738 0.405338 99.9799 0.41957 99.9937 0.422879C100.022 0.439644 99.6643 0.45926 100.16 0.47842C100.462 0.472479 100.763 0.466538 101.064 0.460598C101.213 0.469916 101.363 0.479233 101.512 0.488551C102.111 0.46856 101.328 0.463076 101.239 0.436551C101.205 0.426124 101.768 0.413641 101.062 0.376372ZM155.994 0.37625C155.791 0.405699 155.293 0.442848 155.782 0.472438C155.783 0.472438 155.783 0.472438 155.784 0.472438C155.874 0.477852 156.243 0.480829 156.356 0.488429C157.163 0.449196 156.854 0.408651 155.994 0.37625ZM106.464 0.323639C106.95 0.330516 107.436 0.337392 107.921 0.344268C107.913 0.361927 107.905 0.379586 107.897 0.397245C107.637 0.392485 107.377 0.387724 107.117 0.382963C107.026 0.39102 106.935 0.399076 106.844 0.407133C107.166 0.427274 107.489 0.447415 107.811 0.467556C108.2 0.460516 108.589 0.453477 108.978 0.446438C108.799 0.43712 108.62 0.427803 108.442 0.418485C109.392 0.408199 109.185 0.45114 109.971 0.467556C110.24 0.451199 110.51 0.434842 110.779 0.418485C111.169 0.434923 111.558 0.451361 111.948 0.4678C112.603 0.46012 112.661 0.447601 112.22 0.428861C112.546 0.407445 112.902 0.441128 113.294 0.4324C113.327 0.431697 113.266 0.411526 113.294 0.411283C115.322 0.397686 115.215 0.450653 115.538 0.452908C115.767 0.454455 116.679 0.41871 116.694 0.406522C116.711 0.390098 114.814 0.325333 117.786 0.323639C116.249 0.278841 114.502 0.324442 115.632 0.390165C115.145 0.383552 113.001 0.39995 112.864 0.397978C112.665 0.395001 112.735 0.370066 112.485 0.369414C112.338 0.369062 111.947 0.42606 110.779 0.37625C110.63 0.385608 110.48 0.394967 110.331 0.404325C110.191 0.396635 110.052 0.388945 109.912 0.381255C110.2 0.35383 110.488 0.326406 110.776 0.298982C109.635 0.32878 108.689 0.272801 107.994 0.319977C107.393 0.314486 107.102 0.309059 107.36 0.284944C107.179 0.284944 106.999 0.284944 106.819 0.284944C106.701 0.297842 106.583 0.310741 106.464 0.323639ZM152.309 0.418363C151.712 0.390983 151.498 0.450052 151.591 0.453396C152.114 0.471777 152.62 0.432607 152.309 0.418363ZM102.146 0.407743C102.804 0.422961 103.463 0.438178 104.121 0.453396C104.121 0.43472 104.121 0.416044 104.121 0.397367C103.463 0.400826 102.804 0.404284 102.146 0.407743ZM158.425 0.39041C158.485 0.404407 158.546 0.418404 158.607 0.4324C159.328 0.381274 160.044 0.454629 160.4 0.43948C160.478 0.436171 160.322 0.411456 160.174 0.406156C160.082 0.402845 158.553 0.385689 158.425 0.39041ZM188.451 0.397123C188.183 0.406522 187.914 0.415921 187.645 0.425321C187.66 0.409574 187.675 0.393827 187.69 0.378081C187.823 0.375151 187.955 0.372222 188.088 0.369292C188.209 0.378569 188.33 0.387846 188.451 0.397123ZM185.394 0.422147C184.915 0.420886 184.435 0.419624 183.956 0.418363C185.784 0.40392 184.284 0.396872 185.394 0.376372C185.394 0.39163 185.394 0.406889 185.394 0.422147ZM180.543 0.390288C180.602 0.380888 180.661 0.371489 180.719 0.36209C181.199 0.36209 181.678 0.36209 182.157 0.36209C181.854 0.329458 181.551 0.296825 181.248 0.264193C181.072 0.264111 180.897 0.26403 180.721 0.263949C180.662 0.306062 180.602 0.348175 180.543 0.390288ZM88.1158 0.306184C87.8261 0.30562 86.8181 0.334137 86.8613 0.344635C87.28 0.357533 87.6988 0.370431 88.1175 0.38333C88.1194 0.364613 88.1213 0.345896 88.1233 0.327179C88.1824 0.336497 88.2416 0.345815 88.3008 0.355132C88.539 0.348134 88.7771 0.341135 89.0152 0.334137C89.1352 0.350494 89.2553 0.366851 89.3753 0.383208C89.4959 0.364531 89.6164 0.345855 89.737 0.327179C88.5873 0.294068 88.6268 0.327163 88.3875 0.326813C88.2662 0.326654 88.1894 0.315066 88.1464 0.309235C88.1362 0.308218 88.126 0.307201 88.1158 0.306184ZM102.601 0.288606C101.228 0.283956 100.443 0.333232 99.4502 0.292024C100.087 0.379804 104.201 0.289135 105.651 0.362334C105.802 0.348256 105.952 0.334178 106.103 0.320099C105.313 0.332636 104.766 0.30364 104.381 0.29947C104.075 0.296159 104.107 0.310911 104.083 0.3107C104.082 0.3107 104.081 0.3107 104.08 0.3107C103.364 0.304642 103.142 0.29044 102.601 0.288606ZM159.445 0.321564C159.076 0.299321 158.43 0.301545 158.423 0.334015C158.782 0.343414 159.142 0.352813 159.501 0.362212C159.427 0.353899 159.508 0.325368 159.445 0.321564ZM179.985 0.299592C179.697 0.289024 179.017 0.298285 179.311 0.326325C179.363 0.331301 180.041 0.311591 179.643 0.362212C180.303 0.36143 180.149 0.305666 179.985 0.299592ZM126.061 0.355132C126.303 0.354196 126.545 0.353261 126.788 0.352325C126.844 0.339223 126.901 0.326121 126.957 0.313019C126.658 0.327057 126.36 0.341095 126.061 0.355132ZM162.558 0.299104C162.88 0.363223 163.431 0.300825 164.035 0.353545C164.258 0.353952 164.482 0.354359 164.705 0.354766C164.705 0.354766 164.706 0.354766 164.706 0.354766C164.713 0.33727 164.719 0.319774 164.725 0.302278C164.003 0.30122 163.28 0.300162 162.558 0.299104ZM110.956 0.323517C111.105 0.331655 111.254 0.339793 111.403 0.34793C111.669 0.33845 111.935 0.328969 112.2 0.319489C112.056 0.312694 111.913 0.305899 111.769 0.299104C111.498 0.307242 111.227 0.315379 110.956 0.323517ZM166.483 0.293611C165.702 0.285579 165.408 0.34132 166.407 0.341461C166.828 0.341461 167.301 0.302003 166.483 0.293611ZM73.1971 0.326935C73.4647 0.331696 73.7323 0.336456 73.9998 0.341217C74.091 0.329498 74.1821 0.31778 74.2732 0.306062C73.9145 0.313019 73.5558 0.319977 73.1971 0.326935ZM183.689 0.305939C183.657 0.317658 183.626 0.329376 183.594 0.341095C183.356 0.338735 183.117 0.336375 182.878 0.334015C182.938 0.322378 182.998 0.310741 183.058 0.299104C183.268 0.301382 183.479 0.303661 183.689 0.305939ZM74.9975 0.334137C75.2114 0.336375 75.4253 0.338613 75.6392 0.340851C75.7829 0.335154 75.9266 0.329458 76.0703 0.323761C75.8702 0.318105 75.6701 0.31245 75.4699 0.306794C75.3125 0.315908 75.155 0.325023 74.9975 0.334137ZM173.885 0.298982C173.585 0.284892 172.385 0.328792 173.466 0.339996C174.155 0.347109 173.93 0.301125 173.885 0.298982ZM175.505 0.284944C174.36 0.258102 175.219 0.394338 176.584 0.306062C175.209 0.318165 175.572 0.286565 175.505 0.284944ZM185.568 0.214634C185.597 0.214704 185.621 0.234293 185.851 0.235019C186.678 0.237555 187.771 0.245295 188.363 0.246493C189.786 0.249381 194.146 0.213969 194.655 0.270662C194.762 0.282569 194.517 0.318145 194.56 0.319977C194.687 0.325087 195.416 0.307824 195.281 0.334015C194.566 0.333811 193.85 0.333608 193.135 0.333404C193.311 0.314932 193.486 0.296459 193.662 0.277986C191.879 0.287848 192.469 0.286709 191.956 0.326935C191.655 0.311351 191.353 0.295767 191.051 0.280183C190.394 0.295849 189.738 0.311514 189.081 0.327179C189.23 0.315501 189.379 0.303824 189.528 0.292146C188.538 0.270518 188.813 0.284701 188.271 0.313019C188.27 0.301342 188.269 0.289664 188.268 0.277986C187.313 0.306449 187.126 0.271451 186.918 0.271028C186.49 0.270341 185.944 0.408508 184.31 0.271028C183.622 0.337149 183.637 0.202635 183.233 0.271028C182.067 0.196573 184.284 0.22352 185.333 0.225986C185.333 0.225986 185.334 0.225986 185.335 0.225986C185.414 0.226197 185.288 0.21366 185.568 0.214634ZM179.581 0.283113C180.286 0.222418 177.498 0.216737 178.421 0.304353C178.558 0.307201 178.696 0.310049 178.833 0.312897C179.083 0.302969 179.333 0.293041 179.582 0.283113C179.582 0.283113 179.581 0.283113 179.581 0.283113ZM153.387 0.242831C150.805 0.267771 152.273 0.302686 153.147 0.268587C153.322 0.261824 153.418 0.252552 153.387 0.242831ZM100.639 0.241977C100.602 0.24926 100.564 0.256543 100.526 0.263827C101.392 0.25701 103.067 0.285105 103.044 0.235995C102.242 0.237989 101.441 0.239983 100.639 0.241977ZM107.489 0.209873C107.303 0.206911 106.544 0.199919 106.635 0.218296C106.965 0.231316 107.294 0.244337 107.623 0.257357C107.776 0.249219 107.93 0.241081 108.083 0.232944C107.869 0.230176 107.54 0.210648 107.489 0.209873Z" fill="#07596E"/>
</svg>
