<svg width="165" height="31" viewBox="0 0 165 31" fill="none" xmlns="http://www.w3.org/2000/svg">
<path d="M0.64 30.36V0.64H164.358L164.263 25.3273L161.672 28.3886L159.907 30.36H0.64Z" stroke="#FBC706" stroke-opacity="0.3" stroke-width="1.28"/>
<path d="M18.1636 11.055C18.8198 11.0925 19.3589 11.3456 19.7808 11.8144C20.2027 12.2738 20.5073 12.7988 20.6948 13.3894C20.8823 13.98 20.9761 14.5847 20.9761 15.2034C20.9761 15.8222 20.8823 16.4269 20.6948 17.0175C20.5167 17.6081 20.212 18.1378 19.7808 18.6066C19.3589 19.0659 18.8198 19.3144 18.1636 19.3519H12.9886C12.7355 19.3425 12.5198 19.2534 12.3417 19.0847C12.173 18.9066 12.0839 18.6909 12.0745 18.4378V14.9503C12.0839 14.6878 12.1823 14.4722 12.3698 14.3034C12.5573 14.1253 12.7823 14.0363 13.0448 14.0363C13.298 14.0456 13.5136 14.1394 13.6917 14.3175C13.8698 14.4863 13.9636 14.6972 13.973 14.9503V17.0878C13.973 17.3409 14.1042 17.4675 14.3667 17.4675H17.6855C18.0417 17.4488 18.337 17.3128 18.5714 17.0597C18.8058 16.8066 18.9745 16.5206 19.0777 16.2019C19.1902 15.8738 19.2464 15.5409 19.2464 15.2034C19.2464 14.8659 19.1902 14.5378 19.0777 14.2191C18.9745 13.8909 18.8058 13.6003 18.5714 13.3472C18.337 13.0941 18.0417 12.9581 17.6855 12.9394H12.9886C12.4261 12.8925 12.1214 12.5878 12.0745 12.0253C12.0745 11.7628 12.1589 11.5378 12.3277 11.3503C12.5058 11.1628 12.7261 11.0644 12.9886 11.055H18.1636ZM21.6376 18.4097C21.6376 18.1472 21.7267 17.9269 21.9048 17.7488C22.0923 17.5613 22.3173 17.4675 22.5798 17.4675H25.2798V12.9394H22.5798C22.3173 12.9394 22.097 12.8456 21.9188 12.6581C21.7313 12.48 21.6376 12.2597 21.6376 11.9972C21.6376 11.7347 21.7267 11.5144 21.9048 11.3363C22.0923 11.1488 22.3173 11.055 22.5798 11.055H29.8642C30.1267 11.055 30.3517 11.1441 30.5392 11.3222C30.7173 11.5097 30.8063 11.7347 30.8063 11.9972C30.8063 12.2597 30.7126 12.4847 30.5251 12.6722C30.347 12.8503 30.1267 12.9394 29.8642 12.9394H27.1782V17.4675H29.8642C30.1267 17.4675 30.3517 17.5566 30.5392 17.7347C30.7173 17.9222 30.8063 18.1472 30.8063 18.4097C30.8063 18.6722 30.7126 18.8972 30.5251 19.0847C30.347 19.2628 30.1267 19.3519 29.8642 19.3519H22.5798C22.3173 19.3519 22.097 19.2581 21.9188 19.0706C21.7313 18.8925 21.6376 18.6722 21.6376 18.4097ZM40.7772 11.9972C40.7772 12.2597 40.6835 12.48 40.496 12.6581C40.3178 12.8456 40.0975 12.9394 39.835 12.9394H34.21C34.0319 12.9488 33.8819 12.9909 33.76 13.0659C33.6475 13.1316 33.5632 13.2113 33.5069 13.305C33.4507 13.3894 33.4225 13.4784 33.4225 13.5722C33.4225 13.6659 33.4507 13.7597 33.5069 13.8534C33.5632 13.9378 33.6475 14.0175 33.76 14.0925C33.8819 14.1581 34.0319 14.1956 34.21 14.205H38.2038C38.86 14.2238 39.3991 14.3784 39.821 14.6691C40.2522 14.9503 40.5569 15.2784 40.735 15.6534C40.9225 16.0191 41.0163 16.3941 41.0163 16.7784C41.0163 17.1534 40.9225 17.5284 40.735 17.9034C40.5475 18.2691 40.2428 18.5972 39.821 18.8878C39.3991 19.1691 38.86 19.3097 38.2038 19.3097H38.1194C38.0632 19.3191 38.0069 19.3238 37.9507 19.3238H32.635C32.3725 19.3238 32.1475 19.2347 31.96 19.0566C31.7819 18.8691 31.6928 18.6441 31.6928 18.3816C31.6928 18.1191 31.7866 17.8988 31.9741 17.7206C32.1522 17.5331 32.3725 17.4394 32.635 17.4394H38.2882C38.4663 17.4488 38.6116 17.4159 38.7241 17.3409C38.846 17.2659 38.935 17.1816 38.9913 17.0878C39.0475 16.9847 39.0757 16.8816 39.0757 16.7784C39.0757 16.7128 39.0475 16.6238 38.9913 16.5113C38.935 16.3894 38.846 16.2909 38.7241 16.2159C38.6116 16.1409 38.4663 16.0988 38.2882 16.0894H34.2944C33.6382 16.0706 33.0944 15.9206 32.6632 15.6394C32.2413 15.3581 31.9366 15.0394 31.7491 14.6831C31.571 14.3175 31.4819 13.9472 31.4819 13.5722C31.4819 13.2066 31.5757 12.8456 31.7632 12.4894C31.9507 12.1238 32.2553 11.8003 32.6772 11.5191C33.0991 11.2378 33.6382 11.0878 34.2944 11.0691H34.3788C34.435 11.0597 34.4913 11.055 34.5475 11.055H39.835C40.0975 11.055 40.3178 11.1488 40.496 11.3363C40.6835 11.5144 40.7772 11.7347 40.7772 11.9972ZM45.2215 12.9394C44.8653 12.9581 44.5653 13.0941 44.3215 13.3472C44.0872 13.6003 43.9184 13.8909 43.8153 14.2191C43.7122 14.5378 43.6606 14.8659 43.6606 15.2034C43.6606 15.5409 43.7075 15.8738 43.8012 16.2019C43.9043 16.53 44.0778 16.8206 44.3215 17.0738C44.5653 17.3175 44.8653 17.4488 45.2215 17.4675H49.8622C50.4528 17.5238 50.7762 17.8472 50.8325 18.4378C50.8231 18.7003 50.7247 18.9206 50.5372 19.0988C50.3497 19.2675 50.1247 19.3519 49.8622 19.3519H45.3762H44.7293C44.0731 19.3144 43.534 19.0659 43.1122 18.6066C42.6903 18.1378 42.3856 17.6081 42.1981 17.0175C42.02 16.4269 41.9309 15.8222 41.9309 15.2034C41.9309 14.7441 41.9825 14.2894 42.0856 13.8394C42.1887 13.3894 42.3481 12.9628 42.5637 12.5597C42.7887 12.1472 43.084 11.7956 43.4497 11.505C43.8247 11.2144 44.2512 11.0644 44.7293 11.055H44.9965H49.8622C50.4528 11.1113 50.7762 11.4347 50.8325 12.0253C50.8325 12.2878 50.734 12.5081 50.5372 12.6863C50.3497 12.855 50.1247 12.9394 49.8622 12.9394H45.2215ZM59.1018 11.055C59.5799 11.0644 60.0065 11.2144 60.3815 11.505C60.7565 11.7956 61.0565 12.1425 61.2815 12.5456C61.5158 12.9488 61.6893 13.3753 61.8018 13.8253C61.9143 14.2753 61.9705 14.7347 61.9705 15.2034C61.9705 15.8222 61.8721 16.4316 61.6752 17.0316C61.4877 17.6222 61.1737 18.1472 60.733 18.6066C60.3018 19.0659 59.758 19.3144 59.1018 19.3519H54.194C53.5377 19.3238 52.9893 19.08 52.5487 18.6206C52.108 18.1613 51.794 17.6316 51.6065 17.0316C51.4283 16.4316 51.3393 15.8222 51.3393 15.2034C51.3393 14.5847 51.433 13.98 51.6205 13.3894C51.808 12.7894 52.1174 12.2597 52.5487 11.8003C52.9893 11.3316 53.5377 11.0831 54.194 11.055H54.4612H58.8346H59.1018ZM58.6237 17.4675C58.9799 17.4488 59.2752 17.3175 59.5096 17.0738C59.7533 16.8206 59.9268 16.53 60.0299 16.2019C60.133 15.8738 60.1846 15.5409 60.1846 15.2034C60.1846 14.8659 60.1283 14.5378 60.0158 14.2191C59.9127 13.8909 59.744 13.6003 59.5096 13.3472C59.2752 13.0941 58.9799 12.9581 58.6237 12.9394H54.6299C54.2737 12.9581 53.9783 13.0941 53.744 13.3472C53.5096 13.6003 53.3362 13.8909 53.2237 14.2191C53.1205 14.5378 53.069 14.8659 53.069 15.2034C53.069 15.5409 53.1205 15.8738 53.2237 16.2019C53.3268 16.53 53.4955 16.8206 53.7299 17.0738C53.9737 17.3175 54.2737 17.4488 54.6299 17.4675H58.6237ZM65.6133 18.6066C65.182 17.9597 64.7508 17.1113 64.3195 16.0613L62.7727 12.0675C62.7258 11.9644 62.6977 11.8519 62.6883 11.73C62.6695 11.4675 62.7445 11.2425 62.9133 11.055C63.0914 10.8675 63.3164 10.7738 63.5883 10.7738C63.8789 10.7738 64.0945 10.8394 64.2352 10.9706C64.3852 11.0925 64.507 11.2519 64.6008 11.4488L65.9367 15.105C66.0867 15.4894 66.232 15.855 66.3727 16.2019C66.5227 16.5394 66.6867 16.8488 66.8648 17.13C67.043 17.4113 67.2445 17.5613 67.4695 17.58C67.6852 17.5613 67.8773 17.4113 68.0461 17.13C68.2336 16.8488 68.3977 16.5394 68.5383 16.2019C68.6883 15.855 68.8383 15.4894 68.9883 15.105L70.2961 11.4488C70.3898 11.2519 70.507 11.0925 70.6477 10.9706C70.7977 10.8394 71.0273 10.7738 71.3367 10.7738C71.6086 10.7738 71.8289 10.8675 71.9977 11.055C72.1758 11.2425 72.2555 11.4675 72.2367 11.73C72.2273 11.8519 72.1992 11.9644 72.1523 12.0675L70.6055 16.0613C70.1742 17.13 69.743 17.9831 69.3117 18.6206C68.8898 19.2488 68.2758 19.5675 67.4695 19.5769C66.6539 19.5675 66.0352 19.2441 65.6133 18.6066ZM75.7248 11.055H76.3717H81.1529C81.4154 11.0644 81.631 11.1628 81.7998 11.3503C81.9779 11.5378 82.067 11.7628 82.067 12.0253C82.0201 12.5878 81.7154 12.8925 81.1529 12.9394H76.2029C75.8467 12.9581 75.5513 13.0941 75.317 13.3472C75.0826 13.6003 74.9092 13.8909 74.7967 14.2191C74.6935 14.5378 74.642 14.8659 74.642 15.2034C74.642 15.5409 74.6935 15.8738 74.7967 16.2019C74.9092 16.5206 75.0826 16.8066 75.317 17.0597C75.5513 17.3128 75.8467 17.4488 76.2029 17.4675H81.1529C81.4154 17.4769 81.631 17.5753 81.7998 17.7628C81.9779 17.9503 82.067 18.1753 82.067 18.4378C82.0576 18.6909 81.9638 18.9066 81.7857 19.0847C81.617 19.2534 81.406 19.3425 81.1529 19.3519H75.992H75.7248C75.0685 19.3144 74.5248 19.0659 74.0935 18.6066C73.6717 18.1378 73.367 17.6081 73.1795 17.0175C73.0013 16.4269 72.9123 15.8222 72.9123 15.2034C72.9123 14.5847 73.006 13.98 73.1935 13.3894C73.381 12.7988 73.6857 12.2738 74.1076 11.8144C74.5295 11.3456 75.0685 11.0925 75.7248 11.055ZM82.0388 15.1472C82.0388 15.4097 81.9451 15.63 81.7576 15.8081C81.5795 15.9956 81.3592 16.0894 81.0967 16.0894H76.8498C76.5873 16.0894 76.3623 16.0003 76.1748 15.8222C75.9967 15.6347 75.9076 15.4097 75.9076 15.1472C75.9076 14.8847 75.9967 14.6597 76.1748 14.4722C76.3623 14.2941 76.5873 14.205 76.8498 14.205H81.0967C81.3592 14.205 81.5795 14.2988 81.7576 14.4863C81.9451 14.6644 82.0388 14.8847 82.0388 15.1472ZM84.7957 18.6347C84.7394 19.1972 84.43 19.5019 83.8675 19.5488C83.605 19.5488 83.3753 19.4644 83.1785 19.2956C82.991 19.1175 82.8972 18.8972 82.8972 18.6347V11.9691C82.9066 11.7066 83.005 11.4909 83.1925 11.3222C83.38 11.1441 83.605 11.055 83.8675 11.055H84.5566H86.2863H89.7597C89.816 11.055 89.8722 11.0597 89.9285 11.0691H90.0128C90.6691 11.0878 91.2082 11.2378 91.63 11.5191C92.0519 11.8003 92.3566 12.1238 92.5441 12.4894C92.7316 12.8456 92.8253 13.2066 92.8253 13.5722C92.8253 13.9472 92.7316 14.3175 92.5441 14.6831C92.366 15.0394 92.0613 15.3581 91.63 15.6394C91.2082 15.9206 90.6691 16.0706 90.0128 16.0894H87.5378C87.6128 16.5581 87.7675 16.905 88.0019 17.13C88.2269 17.355 88.5128 17.4675 88.8597 17.4675H91.8972C92.1597 17.4769 92.3753 17.5753 92.5441 17.7628C92.7222 17.9503 92.8113 18.1753 92.8113 18.4378C92.8019 18.6909 92.7082 18.9066 92.53 19.0847C92.3613 19.2534 92.1503 19.3425 91.8972 19.3519H88.6066C87.9128 19.3613 87.2847 19.0894 86.7222 18.5363C86.1597 17.9831 85.8175 17.3269 85.6957 16.5675C85.5269 15.7238 85.4425 15.2503 85.4425 15.1472C85.4425 14.8847 85.5316 14.6644 85.7097 14.4863C85.8972 14.2988 86.1222 14.205 86.3847 14.205H90.0972C90.2753 14.1956 90.4207 14.1581 90.5332 14.0925C90.655 14.0175 90.7441 13.9378 90.8003 13.8534C90.8566 13.7597 90.8847 13.6659 90.8847 13.5722C90.8847 13.4784 90.8566 13.3894 90.8003 13.305C90.7441 13.2113 90.655 13.1316 90.5332 13.0659C90.4207 12.9909 90.2753 12.9488 90.0972 12.9394H86.2863H85.1613C84.9175 12.9488 84.7957 13.0706 84.7957 13.305V18.6347ZM104.878 10.6753C105.366 10.6753 105.844 10.7316 106.312 10.8441C106.791 10.9566 107.245 11.1253 107.676 11.3503C108.108 11.5659 108.487 11.8566 108.816 12.2222C109.153 12.5878 109.336 13.0238 109.364 13.53V14.1206V18.6066C109.308 19.1691 108.998 19.4738 108.436 19.5206C108.173 19.5206 107.944 19.4363 107.747 19.2675C107.559 19.0894 107.466 18.8691 107.466 18.6066V13.9659C107.447 13.6753 107.334 13.4363 107.128 13.2488C106.931 13.0519 106.706 12.8972 106.453 12.7847C106.209 12.6722 105.951 12.5878 105.68 12.5316C105.417 12.4753 105.15 12.4472 104.878 12.4472C104.606 12.4472 104.334 12.4753 104.062 12.5316C103.8 12.5878 103.542 12.6722 103.289 12.7847C103.045 12.8972 102.82 13.0519 102.614 13.2488C102.417 13.4363 102.309 13.6753 102.291 13.9659V18.6066C102.244 19.1691 101.939 19.4738 101.376 19.5206C101.114 19.5206 100.884 19.4363 100.687 19.2675C100.5 19.0894 100.406 18.8691 100.406 18.6066V14.1206V13.53C100.434 13.0238 100.612 12.5878 100.941 12.2222C101.269 11.8566 101.648 11.5659 102.08 11.3503C102.511 11.1253 102.961 10.9566 103.43 10.8441C103.908 10.7316 104.391 10.6753 104.878 10.6753ZM118.111 11.055C118.59 11.0644 119.016 11.2144 119.391 11.505C119.766 11.7956 120.066 12.1425 120.291 12.5456C120.525 12.9488 120.699 13.3753 120.811 13.8253C120.924 14.2753 120.98 14.7347 120.98 15.2034C120.98 15.8222 120.882 16.4316 120.685 17.0316C120.497 17.6222 120.183 18.1472 119.743 18.6066C119.311 19.0659 118.768 19.3144 118.111 19.3519H113.204C112.547 19.3238 111.999 19.08 111.558 18.6206C111.118 18.1613 110.804 17.6316 110.616 17.0316C110.438 16.4316 110.349 15.8222 110.349 15.2034C110.349 14.5847 110.443 13.98 110.63 13.3894C110.818 12.7894 111.127 12.2597 111.558 11.8003C111.999 11.3316 112.547 11.0831 113.204 11.055H113.471H117.844H118.111ZM117.633 17.4675C117.99 17.4488 118.285 17.3175 118.519 17.0738C118.763 16.8206 118.936 16.53 119.04 16.2019C119.143 15.8738 119.194 15.5409 119.194 15.2034C119.194 14.8659 119.138 14.5378 119.025 14.2191C118.922 13.8909 118.754 13.6003 118.519 13.3472C118.285 13.0941 117.99 12.9581 117.633 12.9394H113.64C113.283 12.9581 112.988 13.0941 112.754 13.3472C112.519 13.6003 112.346 13.8909 112.233 14.2191C112.13 14.5378 112.079 14.8659 112.079 15.2034C112.079 15.5409 112.13 15.8738 112.233 16.2019C112.336 16.53 112.505 16.8206 112.74 17.0738C112.983 17.3175 113.283 17.4488 113.64 17.4675H117.633ZM121.67 11.9972C121.67 11.7347 121.759 11.5144 121.937 11.3363C122.124 11.1488 122.349 11.055 122.612 11.055H130.796C131.059 11.055 131.284 11.1441 131.471 11.3222C131.649 11.5097 131.739 11.7347 131.739 11.9972C131.739 12.2597 131.645 12.4847 131.457 12.6722C131.279 12.8503 131.059 12.9394 130.796 12.9394H127.66V18.6347C127.604 19.1972 127.295 19.5019 126.732 19.5488C126.47 19.5488 126.24 19.4644 126.043 19.2956C125.856 19.1175 125.762 18.8972 125.762 18.6347V12.9394H122.612C122.349 12.9394 122.129 12.8456 121.951 12.6581C121.764 12.48 121.67 12.2597 121.67 11.9972ZM135.255 11.055H135.902H140.683C140.945 11.0644 141.161 11.1628 141.33 11.3503C141.508 11.5378 141.597 11.7628 141.597 12.0253C141.55 12.5878 141.245 12.8925 140.683 12.9394H135.733C135.377 12.9581 135.081 13.0941 134.847 13.3472C134.613 13.6003 134.439 13.8909 134.327 14.2191C134.223 14.5378 134.172 14.8659 134.172 15.2034C134.172 15.5409 134.223 15.8738 134.327 16.2019C134.439 16.5206 134.613 16.8066 134.847 17.0597C135.081 17.3128 135.377 17.4488 135.733 17.4675H140.683C140.945 17.4769 141.161 17.5753 141.33 17.7628C141.508 17.9503 141.597 18.1753 141.597 18.4378C141.588 18.6909 141.494 18.9066 141.316 19.0847C141.147 19.2534 140.936 19.3425 140.683 19.3519H135.522H135.255C134.598 19.3144 134.055 19.0659 133.623 18.6066C133.202 18.1378 132.897 17.6081 132.709 17.0175C132.531 16.4269 132.442 15.8222 132.442 15.2034C132.442 14.5847 132.536 13.98 132.723 13.3894C132.911 12.7988 133.216 12.2738 133.638 11.8144C134.059 11.3456 134.598 11.0925 135.255 11.055ZM141.569 15.1472C141.569 15.4097 141.475 15.63 141.288 15.8081C141.109 15.9956 140.889 16.0894 140.627 16.0894H136.38C136.117 16.0894 135.892 16.0003 135.705 15.8222C135.527 15.6347 135.438 15.4097 135.438 15.1472C135.438 14.8847 135.527 14.6597 135.705 14.4722C135.892 14.2941 136.117 14.205 136.38 14.205H140.627C140.889 14.205 141.109 14.2988 141.288 14.4863C141.475 14.6644 141.569 14.8847 141.569 15.1472ZM151.526 11.9972C151.526 12.2597 151.432 12.48 151.244 12.6581C151.066 12.8456 150.846 12.9394 150.583 12.9394H144.958C144.78 12.9488 144.63 12.9909 144.508 13.0659C144.396 13.1316 144.312 13.2113 144.255 13.305C144.199 13.3894 144.171 13.4784 144.171 13.5722C144.171 13.6659 144.199 13.7597 144.255 13.8534C144.312 13.9378 144.396 14.0175 144.508 14.0925C144.63 14.1581 144.78 14.1956 144.958 14.205H148.952C149.608 14.2238 150.147 14.3784 150.569 14.6691C151.001 14.9503 151.305 15.2784 151.483 15.6534C151.671 16.0191 151.765 16.3941 151.765 16.7784C151.765 17.1534 151.671 17.5284 151.483 17.9034C151.296 18.2691 150.991 18.5972 150.569 18.8878C150.147 19.1691 149.608 19.3097 148.952 19.3097H148.868C148.812 19.3191 148.755 19.3238 148.699 19.3238H143.383C143.121 19.3238 142.896 19.2347 142.708 19.0566C142.53 18.8691 142.441 18.6441 142.441 18.3816C142.441 18.1191 142.535 17.8988 142.722 17.7206C142.901 17.5331 143.121 17.4394 143.383 17.4394H149.037C149.215 17.4488 149.36 17.4159 149.472 17.3409C149.594 17.2659 149.683 17.1816 149.74 17.0878C149.796 16.9847 149.824 16.8816 149.824 16.7784C149.824 16.7128 149.796 16.6238 149.74 16.5113C149.683 16.3894 149.594 16.2909 149.472 16.2159C149.36 16.1409 149.215 16.0988 149.037 16.0894H145.043C144.387 16.0706 143.843 15.9206 143.412 15.6394C142.99 15.3581 142.685 15.0394 142.497 14.6831C142.319 14.3175 142.23 13.9472 142.23 13.5722C142.23 13.2066 142.324 12.8456 142.512 12.4894C142.699 12.1238 143.004 11.8003 143.426 11.5191C143.847 11.2378 144.387 11.0878 145.043 11.0691H145.127C145.183 11.0597 145.24 11.055 145.296 11.055H150.583C150.846 11.055 151.066 11.1488 151.244 11.3363C151.432 11.5144 151.526 11.7347 151.526 11.9972Z" fill="#FBC706"/>
</svg>
