<svg width="933" height="23" viewBox="0 0 933 23" fill="none" xmlns="http://www.w3.org/2000/svg">
<path opacity="0.5" d="M829.928 16.66H830.276C830.471 16.66 830.568 16.5613 830.568 16.364V15.064C830.568 14.8667 830.471 14.768 830.276 14.768H829.928C829.736 14.768 829.64 14.8667 829.64 15.064V16.364C829.64 16.5613 829.736 16.66 829.928 16.66ZM830.336 17H829.872C829.675 17 829.521 16.9453 829.412 16.836C829.305 16.7267 829.252 16.5747 829.252 16.38V15.048C829.252 14.8507 829.305 14.6987 829.412 14.592C829.521 14.4827 829.675 14.428 829.872 14.428H830.336C830.533 14.428 830.687 14.4827 830.796 14.592C830.905 14.6987 830.96 14.8507 830.96 15.048V16.38C830.96 16.5747 830.905 16.7267 830.796 16.836C830.687 16.9453 830.533 17 830.336 17ZM831.815 17H831.567C831.522 17 831.499 16.9773 831.499 16.932V14.496C831.499 14.4507 831.522 14.428 831.567 14.428H831.791C831.834 14.428 831.863 14.4427 831.879 14.472L832.847 16.212H832.863V14.496C832.863 14.4507 832.886 14.428 832.931 14.428H833.179C833.224 14.428 833.247 14.4507 833.247 14.496V16.932C833.247 16.9773 833.224 17 833.179 17H832.963C832.92 17 832.886 16.9787 832.859 16.936L831.899 15.216H831.883V16.932C831.883 16.9773 831.86 17 831.815 17ZM835.195 17H833.899C833.854 17 833.831 16.9773 833.831 16.932V14.496C833.831 14.4507 833.854 14.428 833.899 14.428H834.151C834.196 14.428 834.219 14.4507 834.219 14.496V16.612C834.219 16.6387 834.235 16.652 834.267 16.652H835.195C835.24 16.652 835.263 16.676 835.263 16.724V16.932C835.263 16.9773 835.24 17 835.195 17ZM836.484 17H836.228C836.183 17 836.16 16.9773 836.16 16.932V16.048L835.412 14.5C835.401 14.4787 835.401 14.4613 835.412 14.448C835.423 14.4347 835.437 14.428 835.456 14.428H835.776C835.811 14.428 835.837 14.4507 835.856 14.496L836.348 15.596H836.372L836.856 14.496C836.872 14.4507 836.899 14.428 836.936 14.428H837.256C837.277 14.428 837.292 14.4347 837.3 14.448C837.311 14.4613 837.311 14.4787 837.3 14.5L836.552 16.048V16.932C836.552 16.9773 836.529 17 836.484 17ZM839.66 17H839.196C838.999 17 838.846 16.9453 838.736 16.836C838.63 16.7267 838.576 16.5747 838.576 16.38V15.048C838.576 14.8507 838.63 14.6987 838.736 14.592C838.846 14.4827 838.999 14.428 839.196 14.428H839.66C839.855 14.428 840.007 14.4827 840.116 14.592C840.226 14.6987 840.28 14.8507 840.28 15.048V15.24C840.28 15.288 840.256 15.312 840.208 15.312H839.956C839.911 15.312 839.888 15.288 839.888 15.24V15.064C839.888 14.8667 839.792 14.768 839.6 14.768H839.252C839.06 14.768 838.964 14.8667 838.964 15.064V16.364C838.964 16.5613 839.06 16.66 839.252 16.66H839.6C839.792 16.66 839.888 16.5613 839.888 16.364V16.188C839.888 16.14 839.911 16.116 839.956 16.116H840.208C840.256 16.116 840.28 16.14 840.28 16.188V16.38C840.28 16.5747 840.226 16.7267 840.116 16.836C840.007 16.9453 839.855 17 839.66 17ZM841.82 17H841.356C841.159 17 841.006 16.9453 840.896 16.836C840.79 16.7267 840.736 16.5747 840.736 16.38V15.048C840.736 14.8507 840.79 14.6987 840.896 14.592C841.006 14.4827 841.159 14.428 841.356 14.428H841.82C842.015 14.428 842.167 14.4827 842.276 14.592C842.386 14.6987 842.44 14.8507 842.44 15.048V15.24C842.44 15.288 842.416 15.312 842.368 15.312H842.116C842.071 15.312 842.048 15.288 842.048 15.24V15.064C842.048 14.8667 841.952 14.768 841.76 14.768H841.412C841.22 14.768 841.124 14.8667 841.124 15.064V16.364C841.124 16.5613 841.22 16.66 841.412 16.66H841.76C841.952 16.66 842.048 16.5613 842.048 16.364V16.188C842.048 16.14 842.071 16.116 842.116 16.116H842.368C842.416 16.116 842.44 16.14 842.44 16.188V16.38C842.44 16.5747 842.386 16.7267 842.276 16.836C842.167 16.9453 842.015 17 841.82 17ZM843.529 15.548H843.749C843.946 15.548 844.045 15.4507 844.045 15.256V15.048C844.045 14.856 843.946 14.76 843.749 14.76H843.513C843.414 14.76 843.341 14.7827 843.293 14.828C843.247 14.8733 843.225 14.9467 843.225 15.048V15.164C843.225 15.2093 843.202 15.232 843.157 15.232H842.901C842.855 15.232 842.833 15.2093 842.833 15.164V15.04C842.833 14.8453 842.887 14.6947 842.997 14.588C843.106 14.4813 843.259 14.428 843.457 14.428H843.805C844.002 14.428 844.155 14.4813 844.265 14.588C844.374 14.6947 844.429 14.8453 844.429 15.04V15.26C844.429 15.4947 844.322 15.644 844.109 15.708C844.322 15.7587 844.429 15.908 844.429 16.156V16.388C844.429 16.5827 844.374 16.7333 844.265 16.84C844.155 16.9467 844.002 17 843.805 17H843.457C843.259 17 843.106 16.9467 842.997 16.84C842.887 16.7333 842.833 16.5827 842.833 16.388V16.248C842.833 16.2 842.855 16.176 842.901 16.176H843.157C843.202 16.176 843.225 16.2 843.225 16.248V16.38C843.225 16.4787 843.247 16.552 843.293 16.6C843.341 16.6453 843.414 16.668 843.513 16.668H843.749C843.946 16.668 844.045 16.572 844.045 16.38V16.16C844.045 15.9653 843.946 15.868 843.749 15.868H843.529C843.483 15.868 843.461 15.8453 843.461 15.8V15.62C843.461 15.572 843.483 15.548 843.529 15.548ZM845.764 15.64H845.516C845.465 15.64 845.423 15.6493 845.388 15.668C845.356 15.6867 845.335 15.7067 845.324 15.728C845.295 15.7893 845.259 15.82 845.216 15.82H844.964C844.919 15.82 844.896 15.7973 844.896 15.752V14.496C844.896 14.4507 844.919 14.428 844.964 14.428H846.32C846.368 14.428 846.392 14.4507 846.392 14.496V14.724C846.392 14.7693 846.368 14.792 846.32 14.792H845.288V15.52C845.333 15.3893 845.445 15.324 845.624 15.324H845.86C846.052 15.324 846.199 15.3747 846.3 15.476C846.401 15.5747 846.452 15.7213 846.452 15.916V16.38C846.452 16.5747 846.397 16.7267 846.288 16.836C846.179 16.9453 846.027 17 845.832 17H845.492C845.295 17 845.141 16.9453 845.032 16.836C844.925 16.7267 844.872 16.5747 844.872 16.38V16.276C844.872 16.228 844.895 16.204 844.94 16.204H845.192C845.237 16.204 845.26 16.228 845.26 16.276V16.376C845.26 16.5707 845.356 16.668 845.548 16.668H845.776C845.973 16.668 846.072 16.5707 846.072 16.376V15.972C846.072 15.852 846.048 15.7667 846 15.716C845.955 15.6653 845.876 15.64 845.764 15.64ZM848.938 17H848.474C848.276 17 848.123 16.9453 848.014 16.836C847.907 16.7267 847.854 16.5747 847.854 16.38V15.048C847.854 14.8507 847.907 14.6987 848.014 14.592C848.123 14.4827 848.276 14.428 848.474 14.428H848.938C849.132 14.428 849.284 14.4827 849.394 14.592C849.503 14.6987 849.558 14.8507 849.558 15.048V15.24C849.558 15.288 849.534 15.312 849.486 15.312H849.234C849.188 15.312 849.166 15.288 849.166 15.24V15.064C849.166 14.8667 849.07 14.768 848.878 14.768H848.53C848.338 14.768 848.242 14.8667 848.242 15.064V16.364C848.242 16.5613 848.338 16.66 848.53 16.66H848.878C849.07 16.66 849.166 16.5613 849.166 16.364V16.188C849.166 16.14 849.188 16.116 849.234 16.116H849.486C849.534 16.116 849.558 16.14 849.558 16.188V16.38C849.558 16.5747 849.503 16.7267 849.394 16.836C849.284 16.9453 849.132 17 848.938 17ZM851.402 17H850.122C850.076 17 850.054 16.9773 850.054 16.932V14.496C850.054 14.4507 850.076 14.428 850.122 14.428H851.402C851.444 14.428 851.466 14.4507 851.466 14.496V14.7C851.466 14.7453 851.444 14.768 851.402 14.768H850.49C850.458 14.768 850.442 14.7813 850.442 14.808V15.484C850.442 15.5107 850.458 15.524 850.49 15.524H851.262C851.31 15.524 851.334 15.5467 851.334 15.592V15.796C851.334 15.8413 851.31 15.864 851.262 15.864H850.49C850.458 15.864 850.442 15.8773 850.442 15.904V16.616C850.442 16.6453 850.458 16.66 850.49 16.66H851.402C851.444 16.66 851.466 16.6827 851.466 16.728V16.932C851.466 16.9773 851.444 17 851.402 17ZM852.296 17H852.044C851.998 17 851.976 16.9773 851.976 16.932V14.496C851.976 14.4507 851.998 14.428 852.044 14.428H852.98C853.174 14.428 853.326 14.484 853.436 14.596C853.548 14.7053 853.604 14.8573 853.604 15.052V15.388C853.604 15.6947 853.477 15.888 853.224 15.968V15.984L853.668 16.92C853.697 16.9733 853.68 17 853.616 17H853.368C853.304 17 853.262 16.9773 853.244 16.932L852.816 16.012H852.412C852.38 16.012 852.364 16.0253 852.364 16.052V16.932C852.364 16.9773 852.341 17 852.296 17ZM852.408 15.692H852.916C853.113 15.692 853.212 15.5947 853.212 15.4V15.064C853.212 14.8667 853.113 14.768 852.916 14.768H852.408C852.378 14.768 852.364 14.7813 852.364 14.808V15.652C852.364 15.6787 852.378 15.692 852.408 15.692ZM854.848 17H854.596C854.548 17 854.524 16.9773 854.524 16.932V14.808C854.524 14.7813 854.51 14.768 854.484 14.768H853.98C853.932 14.768 853.908 14.7453 853.908 14.7V14.496C853.908 14.4507 853.932 14.428 853.98 14.428H855.464C855.512 14.428 855.536 14.4507 855.536 14.496V14.7C855.536 14.7453 855.512 14.768 855.464 14.768H854.96C854.93 14.768 854.916 14.7813 854.916 14.808V16.932C854.916 16.9773 854.893 17 854.848 17ZM856.286 14.496V16.932C856.286 16.9773 856.263 17 856.218 17H855.966C855.921 17 855.898 16.9773 855.898 16.932V14.496C855.898 14.4507 855.921 14.428 855.966 14.428H856.218C856.263 14.428 856.286 14.4507 856.286 14.496ZM857.21 17H856.958C856.912 17 856.89 16.9773 856.89 16.932V14.496C856.89 14.4507 856.912 14.428 856.958 14.428H858.214C858.259 14.428 858.282 14.4507 858.282 14.496V14.7C858.282 14.7453 858.259 14.768 858.214 14.768H857.326C857.294 14.768 857.278 14.7813 857.278 14.808V15.564C857.278 15.5933 857.294 15.608 857.326 15.608H858.098C858.146 15.608 858.17 15.6307 858.17 15.676V15.876C858.17 15.924 858.146 15.948 858.098 15.948H857.326C857.294 15.948 857.278 15.9613 857.278 15.988V16.932C857.278 16.9773 857.255 17 857.21 17ZM859.114 14.496V16.932C859.114 16.9773 859.091 17 859.046 17H858.794C858.749 17 858.726 16.9773 858.726 16.932V14.496C858.726 14.4507 858.749 14.428 858.794 14.428H859.046C859.091 14.428 859.114 14.4507 859.114 14.496ZM861.066 17H859.786C859.74 17 859.718 16.9773 859.718 16.932V14.496C859.718 14.4507 859.74 14.428 859.786 14.428H861.066C861.108 14.428 861.13 14.4507 861.13 14.496V14.7C861.13 14.7453 861.108 14.768 861.066 14.768H860.154C860.122 14.768 860.106 14.7813 860.106 14.808V15.484C860.106 15.5107 860.122 15.524 860.154 15.524H860.926C860.974 15.524 860.998 15.5467 860.998 15.592V15.796C860.998 15.8413 860.974 15.864 860.926 15.864H860.154C860.122 15.864 860.106 15.8773 860.106 15.904V16.616C860.106 16.6453 860.122 16.66 860.154 16.66H861.066C861.108 16.66 861.13 16.6827 861.13 16.728V16.932C861.13 16.9773 861.108 17 861.066 17ZM862.072 16.66H862.636C862.828 16.66 862.924 16.5613 862.924 16.364V15.064C862.924 14.8667 862.828 14.768 862.636 14.768H862.072C862.042 14.768 862.028 14.7813 862.028 14.808V16.616C862.028 16.6453 862.042 16.66 862.072 16.66ZM861.64 16.932V14.496C861.64 14.4507 861.662 14.428 861.708 14.428H862.692C862.886 14.428 863.038 14.4827 863.148 14.592C863.26 14.6987 863.316 14.8507 863.316 15.048V16.38C863.316 16.5747 863.26 16.7267 863.148 16.836C863.038 16.9453 862.886 17 862.692 17H861.708C861.662 17 861.64 16.9773 861.64 16.932ZM864.952 17H864.664C864.626 17 864.613 16.9773 864.624 16.932L865.32 14.496C865.333 14.4507 865.365 14.428 865.416 14.428H865.816C865.869 14.428 865.901 14.4507 865.912 14.496L866.608 16.932C866.618 16.9773 866.604 17 866.564 17H866.28C866.256 17 866.238 16.996 866.228 16.988C866.22 16.9773 866.213 16.9587 866.208 16.932L866.056 16.412H865.176L865.024 16.932C865.013 16.9773 864.989 17 864.952 17ZM865.608 14.812L865.256 16.092H865.98L865.624 14.812H865.608ZM867.319 17H867.071C867.026 17 867.003 16.9773 867.003 16.932V14.496C867.003 14.4507 867.026 14.428 867.071 14.428H867.295C867.338 14.428 867.367 14.4427 867.383 14.472L868.351 16.212H868.367V14.496C868.367 14.4507 868.39 14.428 868.435 14.428H868.683C868.728 14.428 868.751 14.4507 868.751 14.496V16.932C868.751 16.9773 868.728 17 868.683 17H868.467C868.424 17 868.39 16.9787 868.363 16.936L867.403 15.216H867.387V16.932C867.387 16.9773 867.364 17 867.319 17ZM869.767 16.66H870.331C870.523 16.66 870.619 16.5613 870.619 16.364V15.064C870.619 14.8667 870.523 14.768 870.331 14.768H869.767C869.738 14.768 869.723 14.7813 869.723 14.808V16.616C869.723 16.6453 869.738 16.66 869.767 16.66ZM869.335 16.932V14.496C869.335 14.4507 869.358 14.428 869.403 14.428H870.387C870.582 14.428 870.734 14.4827 870.843 14.592C870.955 14.6987 871.011 14.8507 871.011 15.048V16.38C871.011 16.5747 870.955 16.7267 870.843 16.836C870.734 16.9453 870.582 17 870.387 17H869.403C869.358 17 869.335 16.9773 869.335 16.932ZM872.939 16.66H873.503C873.695 16.66 873.791 16.5613 873.791 16.364V15.064C873.791 14.8667 873.695 14.768 873.503 14.768H872.939C872.91 14.768 872.895 14.7813 872.895 14.808V16.616C872.895 16.6453 872.91 16.66 872.939 16.66ZM872.507 16.932V14.496C872.507 14.4507 872.53 14.428 872.575 14.428H873.559C873.754 14.428 873.906 14.4827 874.015 14.592C874.127 14.6987 874.183 14.8507 874.183 15.048V16.38C874.183 16.5747 874.127 16.7267 874.015 16.836C873.906 16.9453 873.754 17 873.559 17H872.575C872.53 17 872.507 16.9773 872.507 16.932ZM875.046 17H874.794C874.748 17 874.726 16.9773 874.726 16.932V14.496C874.726 14.4507 874.748 14.428 874.794 14.428H875.046C875.091 14.428 875.114 14.4507 875.114 14.496V15.496C875.114 15.5227 875.13 15.536 875.162 15.536H876.006C876.032 15.536 876.046 15.5227 876.046 15.496V14.496C876.046 14.4507 876.068 14.428 876.114 14.428H876.37C876.415 14.428 876.438 14.4507 876.438 14.496V16.932C876.438 16.9773 876.415 17 876.37 17H876.114C876.068 17 876.046 16.9773 876.046 16.932V15.92C876.046 15.8933 876.032 15.88 876.006 15.88H875.162C875.13 15.88 875.114 15.8933 875.114 15.92V16.932C875.114 16.9773 875.091 17 875.046 17ZM876.974 16.376V16.272C876.974 16.2267 876.997 16.204 877.042 16.204H877.298C877.344 16.204 877.366 16.2267 877.366 16.272V16.344C877.366 16.456 877.39 16.5373 877.438 16.588C877.489 16.636 877.572 16.66 877.686 16.66H877.962C878.077 16.66 878.16 16.6347 878.21 16.584C878.261 16.5307 878.286 16.4453 878.286 16.328V16.236C878.286 16.1507 878.253 16.084 878.186 16.036C878.122 15.9853 878.042 15.9533 877.946 15.94C877.85 15.924 877.745 15.9027 877.63 15.876C877.516 15.8493 877.41 15.8187 877.314 15.784C877.218 15.7493 877.137 15.684 877.07 15.588C877.006 15.492 876.974 15.3693 876.974 15.22V15.052C876.974 14.8573 877.029 14.7053 877.138 14.596C877.25 14.484 877.404 14.428 877.598 14.428H878.022C878.22 14.428 878.373 14.484 878.482 14.596C878.594 14.7053 878.65 14.8573 878.65 15.052V15.14C878.65 15.1853 878.628 15.208 878.582 15.208H878.326C878.281 15.208 878.258 15.1853 878.258 15.14V15.088C878.258 14.9733 878.233 14.892 878.182 14.844C878.134 14.7933 878.053 14.768 877.938 14.768H877.686C877.572 14.768 877.489 14.7947 877.438 14.848C877.39 14.8987 877.366 14.9867 877.366 15.112V15.236C877.366 15.356 877.453 15.4373 877.626 15.48C877.704 15.4987 877.788 15.5147 877.878 15.528C877.972 15.5413 878.065 15.5613 878.158 15.588C878.252 15.6147 878.337 15.6507 878.414 15.696C878.492 15.7387 878.554 15.8053 878.602 15.896C878.65 15.984 878.674 16.092 878.674 16.22V16.376C878.674 16.5707 878.618 16.724 878.506 16.836C878.397 16.9453 878.245 17 878.05 17H877.602C877.408 17 877.254 16.9453 877.142 16.836C877.03 16.724 876.974 16.5707 876.974 16.376ZM879.534 17H879.282C879.237 17 879.214 16.9773 879.214 16.932V14.496C879.214 14.4507 879.237 14.428 879.282 14.428H880.538C880.583 14.428 880.606 14.4507 880.606 14.496V14.7C880.606 14.7453 880.583 14.768 880.538 14.768H879.65C879.618 14.768 879.602 14.7813 879.602 14.808V15.564C879.602 15.5933 879.618 15.608 879.65 15.608H880.422C880.47 15.608 880.494 15.6307 880.494 15.676V15.876C880.494 15.924 880.47 15.948 880.422 15.948H879.65C879.618 15.948 879.602 15.9613 879.602 15.988V16.932C879.602 16.9773 879.579 17 879.534 17ZM882.795 15.64H882.547C882.497 15.64 882.454 15.6493 882.419 15.668C882.387 15.6867 882.366 15.7067 882.355 15.728C882.326 15.7893 882.29 15.82 882.247 15.82H881.995C881.95 15.82 881.927 15.7973 881.927 15.752V14.496C881.927 14.4507 881.95 14.428 881.995 14.428H883.351C883.399 14.428 883.423 14.4507 883.423 14.496V14.724C883.423 14.7693 883.399 14.792 883.351 14.792H882.319V15.52C882.365 15.3893 882.477 15.324 882.655 15.324H882.891C883.083 15.324 883.23 15.3747 883.331 15.476C883.433 15.5747 883.483 15.7213 883.483 15.916V16.38C883.483 16.5747 883.429 16.7267 883.319 16.836C883.21 16.9453 883.058 17 882.863 17H882.523C882.326 17 882.173 16.9453 882.063 16.836C881.957 16.7267 881.903 16.5747 881.903 16.38V16.276C881.903 16.228 881.926 16.204 881.971 16.204H882.223C882.269 16.204 882.291 16.228 882.291 16.276V16.376C882.291 16.5707 882.387 16.668 882.579 16.668H882.807C883.005 16.668 883.103 16.5707 883.103 16.376V15.972C883.103 15.852 883.079 15.7667 883.031 15.716C882.986 15.6653 882.907 15.64 882.795 15.64ZM884.676 17H884.424C884.376 17 884.352 16.9773 884.352 16.932V14.808C884.352 14.7813 884.338 14.768 884.312 14.768H883.808C883.76 14.768 883.736 14.7453 883.736 14.7V14.496C883.736 14.4507 883.76 14.428 883.808 14.428H885.292C885.34 14.428 885.364 14.4507 885.364 14.496V14.7C885.364 14.7453 885.34 14.768 885.292 14.768H884.788C884.758 14.768 884.744 14.7813 884.744 14.808V16.932C884.744 16.9773 884.721 17 884.676 17ZM886.026 17H885.774C885.729 17 885.706 16.9773 885.706 16.932V14.496C885.706 14.4507 885.729 14.428 885.774 14.428H886.026C886.071 14.428 886.094 14.4507 886.094 14.496V15.496C886.094 15.5227 886.11 15.536 886.142 15.536H886.986C887.013 15.536 887.026 15.5227 887.026 15.496V14.496C887.026 14.4507 887.049 14.428 887.094 14.428H887.35C887.395 14.428 887.418 14.4507 887.418 14.496V16.932C887.418 16.9773 887.395 17 887.35 17H887.094C887.049 17 887.026 16.9773 887.026 16.932V15.92C887.026 15.8933 887.013 15.88 886.986 15.88H886.142C886.11 15.88 886.094 15.8933 886.094 15.92V16.932C886.094 16.9773 886.071 17 886.026 17ZM890 17H889.536C889.339 17 889.185 16.9453 889.076 16.836C888.969 16.7267 888.916 16.5747 888.916 16.38V15.048C888.916 14.8507 888.969 14.6987 889.076 14.592C889.185 14.4827 889.339 14.428 889.536 14.428H890C890.195 14.428 890.347 14.4827 890.456 14.592C890.565 14.6987 890.62 14.8507 890.62 15.048V15.24C890.62 15.288 890.596 15.312 890.548 15.312H890.296C890.251 15.312 890.228 15.288 890.228 15.24V15.064C890.228 14.8667 890.132 14.768 889.94 14.768H889.592C889.4 14.768 889.304 14.8667 889.304 15.064V16.364C889.304 16.5613 889.4 16.66 889.592 16.66H889.94C890.132 16.66 890.228 16.5613 890.228 16.364V16.188C890.228 16.14 890.251 16.116 890.296 16.116H890.548C890.596 16.116 890.62 16.14 890.62 16.188V16.38C890.62 16.5747 890.565 16.7267 890.456 16.836C890.347 16.9453 890.195 17 890 17ZM892.48 17H891.184C891.139 17 891.116 16.9773 891.116 16.932V14.496C891.116 14.4507 891.139 14.428 891.184 14.428H891.436C891.482 14.428 891.504 14.4507 891.504 14.496V16.612C891.504 16.6387 891.52 16.652 891.552 16.652H892.48C892.526 16.652 892.548 16.676 892.548 16.724V16.932C892.548 16.9773 892.526 17 892.48 17ZM893.057 17H892.769C892.732 17 892.718 16.9773 892.729 16.932L893.425 14.496C893.438 14.4507 893.47 14.428 893.521 14.428H893.921C893.974 14.428 894.006 14.4507 894.017 14.496L894.713 16.932C894.724 16.9773 894.709 17 894.669 17H894.385C894.361 17 894.344 16.996 894.333 16.988C894.325 16.9773 894.318 16.9587 894.313 16.932L894.161 16.412H893.281L893.129 16.932C893.118 16.9773 893.094 17 893.057 17ZM893.713 14.812L893.361 16.092H894.085L893.729 14.812H893.713ZM895.06 16.376V16.272C895.06 16.2267 895.083 16.204 895.128 16.204H895.384C895.43 16.204 895.452 16.2267 895.452 16.272V16.344C895.452 16.456 895.476 16.5373 895.524 16.588C895.575 16.636 895.658 16.66 895.772 16.66H896.048C896.163 16.66 896.246 16.6347 896.296 16.584C896.347 16.5307 896.372 16.4453 896.372 16.328V16.236C896.372 16.1507 896.339 16.084 896.272 16.036C896.208 15.9853 896.128 15.9533 896.032 15.94C895.936 15.924 895.831 15.9027 895.716 15.876C895.602 15.8493 895.496 15.8187 895.4 15.784C895.304 15.7493 895.223 15.684 895.156 15.588C895.092 15.492 895.06 15.3693 895.06 15.22V15.052C895.06 14.8573 895.115 14.7053 895.224 14.596C895.336 14.484 895.49 14.428 895.684 14.428H896.108C896.306 14.428 896.459 14.484 896.568 14.596C896.68 14.7053 896.736 14.8573 896.736 15.052V15.14C896.736 15.1853 896.714 15.208 896.668 15.208H896.412C896.367 15.208 896.344 15.1853 896.344 15.14V15.088C896.344 14.9733 896.319 14.892 896.268 14.844C896.22 14.7933 896.139 14.768 896.024 14.768H895.772C895.658 14.768 895.575 14.7947 895.524 14.848C895.476 14.8987 895.452 14.9867 895.452 15.112V15.236C895.452 15.356 895.539 15.4373 895.712 15.48C895.79 15.4987 895.874 15.5147 895.964 15.528C896.058 15.5413 896.151 15.5613 896.244 15.588C896.338 15.6147 896.423 15.6507 896.5 15.696C896.578 15.7387 896.64 15.8053 896.688 15.896C896.736 15.984 896.76 16.092 896.76 16.22V16.376C896.76 16.5707 896.704 16.724 896.592 16.836C896.483 16.9453 896.331 17 896.136 17H895.688C895.494 17 895.34 16.9453 895.228 16.836C895.116 16.724 895.06 16.5707 895.06 16.376ZM897.252 16.376V16.272C897.252 16.2267 897.274 16.204 897.32 16.204H897.576C897.621 16.204 897.644 16.2267 897.644 16.272V16.344C897.644 16.456 897.668 16.5373 897.716 16.588C897.766 16.636 897.849 16.66 897.964 16.66H898.24C898.354 16.66 898.437 16.6347 898.488 16.584C898.538 16.5307 898.564 16.4453 898.564 16.328V16.236C898.564 16.1507 898.53 16.084 898.464 16.036C898.4 15.9853 898.32 15.9533 898.224 15.94C898.128 15.924 898.022 15.9027 897.908 15.876C897.793 15.8493 897.688 15.8187 897.592 15.784C897.496 15.7493 897.414 15.684 897.348 15.588C897.284 15.492 897.252 15.3693 897.252 15.22V15.052C897.252 14.8573 897.306 14.7053 897.416 14.596C897.528 14.484 897.681 14.428 897.876 14.428H898.3C898.497 14.428 898.65 14.484 898.76 14.596C898.872 14.7053 898.928 14.8573 898.928 15.052V15.14C898.928 15.1853 898.905 15.208 898.86 15.208H898.604C898.558 15.208 898.536 15.1853 898.536 15.14V15.088C898.536 14.9733 898.51 14.892 898.46 14.844C898.412 14.7933 898.33 14.768 898.216 14.768H897.964C897.849 14.768 897.766 14.7947 897.716 14.848C897.668 14.8987 897.644 14.9867 897.644 15.112V15.236C897.644 15.356 897.73 15.4373 897.904 15.48C897.981 15.4987 898.065 15.5147 898.156 15.528C898.249 15.5413 898.342 15.5613 898.436 15.588C898.529 15.6147 898.614 15.6507 898.692 15.696C898.769 15.7387 898.832 15.8053 898.88 15.896C898.928 15.984 898.952 16.092 898.952 16.22V16.376C898.952 16.5707 898.896 16.724 898.784 16.836C898.674 16.9453 898.522 17 898.328 17H897.88C897.685 17 897.532 16.9453 897.42 16.836C897.308 16.724 897.252 16.5707 897.252 16.376ZM901.08 16.66H901.428C901.623 16.66 901.72 16.5613 901.72 16.364V15.064C901.72 14.8667 901.623 14.768 901.428 14.768H901.08C900.888 14.768 900.792 14.8667 900.792 15.064V16.364C900.792 16.5613 900.888 16.66 901.08 16.66ZM901.488 17H901.024C900.827 17 900.674 16.9453 900.564 16.836C900.458 16.7267 900.404 16.5747 900.404 16.38V15.048C900.404 14.8507 900.458 14.6987 900.564 14.592C900.674 14.4827 900.827 14.428 901.024 14.428H901.488C901.686 14.428 901.839 14.4827 901.948 14.592C902.058 14.6987 902.112 14.8507 902.112 15.048V16.38C902.112 16.5747 902.058 16.7267 901.948 16.836C901.839 16.9453 901.686 17 901.488 17ZM902.971 17H902.719C902.674 17 902.651 16.9773 902.651 16.932V14.496C902.651 14.4507 902.674 14.428 902.719 14.428H903.975C904.021 14.428 904.043 14.4507 904.043 14.496V14.7C904.043 14.7453 904.021 14.768 903.975 14.768H903.087C903.055 14.768 903.039 14.7813 903.039 14.808V15.564C903.039 15.5933 903.055 15.608 903.087 15.608H903.859C903.907 15.608 903.931 15.6307 903.931 15.676V15.876C903.931 15.924 903.907 15.948 903.859 15.948H903.087C903.055 15.948 903.039 15.9613 903.039 15.988V16.932C903.039 16.9773 903.017 17 902.971 17ZM904.788 17H904.536C904.49 17 904.468 16.9773 904.468 16.932V14.496C904.468 14.4507 904.49 14.428 904.536 14.428H905.792C905.837 14.428 905.86 14.4507 905.86 14.496V14.7C905.86 14.7453 905.837 14.768 905.792 14.768H904.904C904.872 14.768 904.856 14.7813 904.856 14.808V15.564C904.856 15.5933 904.872 15.608 904.904 15.608H905.676C905.724 15.608 905.748 15.6307 905.748 15.676V15.876C905.748 15.924 905.724 15.948 905.676 15.948H904.904C904.872 15.948 904.856 15.9613 904.856 15.988V16.932C904.856 16.9773 904.833 17 904.788 17ZM906.692 14.496V16.932C906.692 16.9773 906.67 17 906.624 17H906.372C906.327 17 906.304 16.9773 906.304 16.932V14.496C906.304 14.4507 906.327 14.428 906.372 14.428H906.624C906.67 14.428 906.692 14.4507 906.692 14.496ZM908.34 17H907.876C907.679 17 907.525 16.9453 907.416 16.836C907.309 16.7267 907.256 16.5747 907.256 16.38V15.048C907.256 14.8507 907.309 14.6987 907.416 14.592C907.525 14.4827 907.679 14.428 907.876 14.428H908.34C908.535 14.428 908.687 14.4827 908.796 14.592C908.905 14.6987 908.96 14.8507 908.96 15.048V15.24C908.96 15.288 908.936 15.312 908.888 15.312H908.636C908.591 15.312 908.568 15.288 908.568 15.24V15.064C908.568 14.8667 908.472 14.768 908.28 14.768H907.932C907.74 14.768 907.644 14.8667 907.644 15.064V16.364C907.644 16.5613 907.74 16.66 907.932 16.66H908.28C908.472 16.66 908.568 16.5613 908.568 16.364V16.188C908.568 16.14 908.591 16.116 908.636 16.116H908.888C908.936 16.116 908.96 16.14 908.96 16.188V16.38C908.96 16.5747 908.905 16.7267 908.796 16.836C908.687 16.9453 908.535 17 908.34 17ZM910.804 17H909.524C909.479 17 909.456 16.9773 909.456 16.932V14.496C909.456 14.4507 909.479 14.428 909.524 14.428H910.804C910.847 14.428 910.868 14.4507 910.868 14.496V14.7C910.868 14.7453 910.847 14.768 910.804 14.768H909.892C909.86 14.768 909.844 14.7813 909.844 14.808V15.484C909.844 15.5107 909.86 15.524 909.892 15.524H910.664C910.712 15.524 910.736 15.5467 910.736 15.592V15.796C910.736 15.8413 910.712 15.864 910.664 15.864H909.892C909.86 15.864 909.844 15.8773 909.844 15.904V16.616C909.844 16.6453 909.86 16.66 909.892 16.66H910.804C910.847 16.66 910.868 16.6827 910.868 16.728V16.932C910.868 16.9773 910.847 17 910.804 17ZM911.698 17H911.446C911.401 17 911.378 16.9773 911.378 16.932V14.496C911.378 14.4507 911.401 14.428 911.446 14.428H912.382C912.577 14.428 912.729 14.484 912.838 14.596C912.95 14.7053 913.006 14.8573 913.006 15.052V15.388C913.006 15.6947 912.879 15.888 912.626 15.968V15.984L913.07 16.92C913.099 16.9733 913.082 17 913.018 17H912.77C912.706 17 912.665 16.9773 912.646 16.932L912.218 16.012H911.814C911.782 16.012 911.766 16.0253 911.766 16.052V16.932C911.766 16.9773 911.743 17 911.698 17ZM911.81 15.692H912.318C912.515 15.692 912.614 15.5947 912.614 15.4V15.064C912.614 14.8667 912.515 14.768 912.318 14.768H911.81C911.781 14.768 911.766 14.7813 911.766 14.808V15.652C911.766 15.6787 911.781 15.692 911.81 15.692ZM913.498 16.376V16.272C913.498 16.2267 913.521 16.204 913.566 16.204H913.822C913.867 16.204 913.89 16.2267 913.89 16.272V16.344C913.89 16.456 913.914 16.5373 913.962 16.588C914.013 16.636 914.095 16.66 914.21 16.66H914.486C914.601 16.66 914.683 16.6347 914.734 16.584C914.785 16.5307 914.81 16.4453 914.81 16.328V16.236C914.81 16.1507 914.777 16.084 914.71 16.036C914.646 15.9853 914.566 15.9533 914.47 15.94C914.374 15.924 914.269 15.9027 914.154 15.876C914.039 15.8493 913.934 15.8187 913.838 15.784C913.742 15.7493 913.661 15.684 913.594 15.588C913.53 15.492 913.498 15.3693 913.498 15.22V15.052C913.498 14.8573 913.553 14.7053 913.662 14.596C913.774 14.484 913.927 14.428 914.122 14.428H914.546C914.743 14.428 914.897 14.484 915.006 14.596C915.118 14.7053 915.174 14.8573 915.174 15.052V15.14C915.174 15.1853 915.151 15.208 915.106 15.208H914.85C914.805 15.208 914.782 15.1853 914.782 15.14V15.088C914.782 14.9733 914.757 14.892 914.706 14.844C914.658 14.7933 914.577 14.768 914.462 14.768H914.21C914.095 14.768 914.013 14.7947 913.962 14.848C913.914 14.8987 913.89 14.9867 913.89 15.112V15.236C913.89 15.356 913.977 15.4373 914.15 15.48C914.227 15.4987 914.311 15.5147 914.402 15.528C914.495 15.5413 914.589 15.5613 914.682 15.588C914.775 15.6147 914.861 15.6507 914.938 15.696C915.015 15.7387 915.078 15.8053 915.126 15.896C915.174 15.984 915.198 16.092 915.198 16.22V16.376C915.198 16.5707 915.142 16.724 915.03 16.836C914.921 16.9453 914.769 17 914.574 17H914.126C913.931 17 913.778 16.9453 913.666 16.836C913.554 16.724 913.498 16.5707 913.498 16.376ZM916.83 17H916.542C916.505 17 916.492 16.9773 916.502 16.932L917.198 14.496C917.212 14.4507 917.244 14.428 917.294 14.428H917.694C917.748 14.428 917.78 14.4507 917.79 14.496L918.486 16.932C918.497 16.9773 918.482 17 918.442 17H918.158C918.134 17 918.117 16.996 918.106 16.988C918.098 16.9773 918.092 16.9587 918.086 16.932L917.934 16.412H917.054L916.902 16.932C916.892 16.9773 916.868 17 916.83 17ZM917.486 14.812L917.134 16.092H917.858L917.502 14.812H917.486ZM919.202 17H918.95C918.905 17 918.882 16.9773 918.882 16.932V14.496C918.882 14.4507 918.905 14.428 918.95 14.428H919.886C920.081 14.428 920.233 14.484 920.342 14.596C920.454 14.7053 920.51 14.8573 920.51 15.052V15.388C920.51 15.6947 920.383 15.888 920.13 15.968V15.984L920.574 16.92C920.603 16.9733 920.586 17 920.522 17H920.274C920.21 17 920.169 16.9773 920.15 16.932L919.722 16.012H919.318C919.286 16.012 919.27 16.0253 919.27 16.052V16.932C919.27 16.9773 919.247 17 919.202 17ZM919.314 15.692H919.822C920.019 15.692 920.118 15.5947 920.118 15.4V15.064C920.118 14.8667 920.019 14.768 919.822 14.768H919.314C919.285 14.768 919.27 14.7813 919.27 14.808V15.652C919.27 15.6787 919.285 15.692 919.314 15.692ZM922.398 17H921.118C921.072 17 921.05 16.9773 921.05 16.932V14.496C921.05 14.4507 921.072 14.428 921.118 14.428H922.398C922.44 14.428 922.462 14.4507 922.462 14.496V14.7C922.462 14.7453 922.44 14.768 922.398 14.768H921.486C921.454 14.768 921.438 14.7813 921.438 14.808V15.484C921.438 15.5107 921.454 15.524 921.486 15.524H922.258C922.306 15.524 922.33 15.5467 922.33 15.592V15.796C922.33 15.8413 922.306 15.864 922.258 15.864H921.486C921.454 15.864 921.438 15.8773 921.438 15.904V16.616C921.438 16.6453 921.454 16.66 921.486 16.66H922.398C922.44 16.66 922.462 16.6827 922.462 16.728V16.932C922.462 16.9773 922.44 17 922.398 17ZM829.432 22H829.144C829.107 22 829.093 21.9773 829.104 21.932L829.8 19.496C829.813 19.4507 829.845 19.428 829.896 19.428H830.296C830.349 19.428 830.381 19.4507 830.392 19.496L831.088 21.932C831.099 21.9773 831.084 22 831.044 22H830.76C830.736 22 830.719 21.996 830.708 21.988C830.7 21.9773 830.693 21.9587 830.688 21.932L830.536 21.412H829.656L829.504 21.932C829.493 21.9773 829.469 22 829.432 22ZM830.088 19.812L829.736 21.092H830.46L830.104 19.812H830.088ZM832.847 22H831.551C831.506 22 831.483 21.9773 831.483 21.932V19.496C831.483 19.4507 831.506 19.428 831.551 19.428H831.803C831.849 19.428 831.871 19.4507 831.871 19.496V21.612C831.871 21.6387 831.887 21.652 831.919 21.652H832.847C832.893 21.652 832.915 21.676 832.915 21.724V21.932C832.915 21.9773 832.893 22 832.847 22ZM834.648 22H833.352C833.307 22 833.284 21.9773 833.284 21.932V19.496C833.284 19.4507 833.307 19.428 833.352 19.428H833.604C833.65 19.428 833.672 19.4507 833.672 19.496V21.612C833.672 21.6387 833.688 21.652 833.72 21.652H834.648C834.694 21.652 834.716 21.676 834.716 21.724V21.932C834.716 21.9773 834.694 22 834.648 22ZM835.721 21.66H836.069C836.264 21.66 836.361 21.5613 836.361 21.364V20.064C836.361 19.8667 836.264 19.768 836.069 19.768H835.721C835.529 19.768 835.433 19.8667 835.433 20.064V21.364C835.433 21.5613 835.529 21.66 835.721 21.66ZM836.129 22H835.665C835.468 22 835.314 21.9453 835.205 21.836C835.098 21.7267 835.045 21.5747 835.045 21.38V20.048C835.045 19.8507 835.098 19.6987 835.205 19.592C835.314 19.4827 835.468 19.428 835.665 19.428H836.129C836.326 19.428 836.48 19.4827 836.589 19.592C836.698 19.6987 836.753 19.8507 836.753 20.048V21.38C836.753 21.5747 836.698 21.7267 836.589 21.836C836.48 21.9453 836.326 22 836.129 22ZM838.068 22H837.644C837.596 22 837.568 21.9773 837.56 21.932L837.084 19.496C837.079 19.4507 837.101 19.428 837.152 19.428H837.46C837.511 19.428 837.537 19.4507 837.54 19.496L837.864 21.592H837.888L838.36 19.488C838.365 19.448 838.389 19.428 838.432 19.428H838.768C838.811 19.428 838.836 19.448 838.844 19.488L839.32 21.592H839.344L839.668 19.5C839.671 19.452 839.697 19.428 839.748 19.428H840.056C840.109 19.428 840.132 19.452 840.124 19.5L839.648 21.932C839.64 21.9773 839.613 22 839.568 22H839.144C839.099 22 839.072 21.9773 839.064 21.932L838.612 19.908H838.596L838.144 21.932C838.136 21.9773 838.111 22 838.068 22ZM841.847 22H840.567C840.522 22 840.499 21.9773 840.499 21.932V19.496C840.499 19.4507 840.522 19.428 840.567 19.428H841.847C841.89 19.428 841.911 19.4507 841.911 19.496V19.7C841.911 19.7453 841.89 19.768 841.847 19.768H840.935C840.903 19.768 840.887 19.7813 840.887 19.808V20.484C840.887 20.5107 840.903 20.524 840.935 20.524H841.707C841.755 20.524 841.779 20.5467 841.779 20.592V20.796C841.779 20.8413 841.755 20.864 841.707 20.864H840.935C840.903 20.864 840.887 20.8773 840.887 20.904V21.616C840.887 21.6453 840.903 21.66 840.935 21.66H841.847C841.89 21.66 841.911 21.6827 841.911 21.728V21.932C841.911 21.9773 841.89 22 841.847 22ZM842.853 21.66H843.417C843.609 21.66 843.705 21.5613 843.705 21.364V20.064C843.705 19.8667 843.609 19.768 843.417 19.768H842.853C842.824 19.768 842.809 19.7813 842.809 19.808V21.616C842.809 21.6453 842.824 21.66 842.853 21.66ZM842.421 21.932V19.496C842.421 19.4507 842.444 19.428 842.489 19.428H843.473C843.668 19.428 843.82 19.4827 843.929 19.592C844.041 19.6987 844.097 19.8507 844.097 20.048V21.38C844.097 21.5747 844.041 21.7267 843.929 21.836C843.82 21.9453 843.668 22 843.473 22H842.489C842.444 22 842.421 21.9773 842.421 21.932ZM846.297 22H846.045C845.997 22 845.973 21.9773 845.973 21.932V19.808C845.973 19.7813 845.959 19.768 845.933 19.768H845.429C845.381 19.768 845.357 19.7453 845.357 19.7V19.496C845.357 19.4507 845.381 19.428 845.429 19.428H846.913C846.961 19.428 846.985 19.4507 846.985 19.496V19.7C846.985 19.7453 846.961 19.768 846.913 19.768H846.409C846.379 19.768 846.365 19.7813 846.365 19.808V21.932C846.365 21.9773 846.342 22 846.297 22ZM847.963 21.66H848.311C848.506 21.66 848.603 21.5613 848.603 21.364V20.064C848.603 19.8667 848.506 19.768 848.311 19.768H847.963C847.771 19.768 847.675 19.8667 847.675 20.064V21.364C847.675 21.5613 847.771 21.66 847.963 21.66ZM848.371 22H847.907C847.71 22 847.556 21.9453 847.447 21.836C847.34 21.7267 847.287 21.5747 847.287 21.38V20.048C847.287 19.8507 847.34 19.6987 847.447 19.592C847.556 19.4827 847.71 19.428 847.907 19.428H848.371C848.568 19.428 848.722 19.4827 848.831 19.592C848.94 19.6987 848.995 19.8507 848.995 20.048V21.38C848.995 21.5747 848.94 21.7267 848.831 21.836C848.722 21.9453 848.568 22 848.371 22ZM852.247 19.428H852.695C852.741 19.428 852.763 19.4507 852.763 19.496V21.932C852.763 21.9773 852.741 22 852.695 22H852.447C852.402 22 852.379 21.9773 852.379 21.932V19.912H852.363L851.843 21.376C851.827 21.4187 851.798 21.44 851.755 21.44H851.499C851.459 21.44 851.431 21.4187 851.415 21.376L850.883 19.908H850.867V21.932C850.867 21.9587 850.862 21.9773 850.851 21.988C850.843 21.996 850.826 22 850.799 22H850.555C850.51 22 850.487 21.9773 850.487 21.932V19.496C850.487 19.4507 850.51 19.428 850.555 19.428H851.003C851.033 19.428 851.054 19.4427 851.067 19.472L851.615 21.016H851.635L852.187 19.472C852.193 19.4427 852.213 19.428 852.247 19.428ZM853.487 22H853.199C853.161 22 853.148 21.9773 853.159 21.932L853.855 19.496C853.868 19.4507 853.9 19.428 853.951 19.428H854.351C854.404 19.428 854.436 19.4507 854.447 19.496L855.143 21.932C855.153 21.9773 855.139 22 855.099 22H854.815C854.791 22 854.773 21.996 854.763 21.988C854.755 21.9773 854.748 21.9587 854.743 21.932L854.591 21.412H853.711L853.559 21.932C853.548 21.9773 853.524 22 853.487 22ZM854.143 19.812L853.791 21.092H854.515L854.159 19.812H854.143ZM855.854 22H855.606C855.561 22 855.538 21.9773 855.538 21.932V19.496C855.538 19.4507 855.561 19.428 855.606 19.428H855.83C855.873 19.428 855.902 19.4427 855.918 19.472L856.886 21.212H856.902V19.496C856.902 19.4507 856.925 19.428 856.97 19.428H857.218C857.263 19.428 857.286 19.4507 857.286 19.496V21.932C857.286 21.9773 857.263 22 857.218 22H857.002C856.959 22 856.925 21.9787 856.898 21.936L855.938 20.216H855.922V21.932C855.922 21.9773 855.899 22 855.854 22ZM858.278 19.496V21.932C858.278 21.9773 858.255 22 858.21 22H857.958C857.913 22 857.89 21.9773 857.89 21.932V19.496C857.89 19.4507 857.913 19.428 857.958 19.428H858.21C858.255 19.428 858.278 19.4507 858.278 19.496ZM859.202 22H858.95C858.905 22 858.882 21.9773 858.882 21.932V19.496C858.882 19.4507 858.905 19.428 858.95 19.428H859.902C860.097 19.428 860.249 19.4827 860.358 19.592C860.467 19.6987 860.522 19.8507 860.522 20.048V20.464C860.522 20.6587 860.467 20.8107 860.358 20.92C860.249 21.0293 860.097 21.084 859.902 21.084H859.318C859.286 21.084 859.27 21.0973 859.27 21.124V21.932C859.27 21.9773 859.247 22 859.202 22ZM859.314 20.74H859.846C860.035 20.74 860.13 20.6413 860.13 20.444V20.064C860.13 19.8667 860.035 19.768 859.846 19.768H859.314C859.285 19.768 859.27 19.7813 859.27 19.808V20.7C859.27 20.7267 859.285 20.74 859.314 20.74ZM862.339 19.428H862.591C862.639 19.428 862.663 19.4493 862.663 19.492V21.38C862.663 21.5747 862.607 21.7267 862.495 21.836C862.386 21.9453 862.234 22 862.039 22H861.595C861.4 22 861.248 21.9453 861.139 21.836C861.03 21.7267 860.975 21.5747 860.975 21.38V19.496C860.975 19.4507 860.998 19.428 861.043 19.428H861.295C861.34 19.428 861.363 19.4507 861.363 19.496V21.364C861.363 21.5613 861.459 21.66 861.651 21.66H861.979C862.174 21.66 862.271 21.5613 862.271 21.364V19.496C862.271 19.4507 862.294 19.428 862.339 19.428ZM864.586 22H863.29C863.244 22 863.222 21.9773 863.222 21.932V19.496C863.222 19.4507 863.244 19.428 863.29 19.428H863.542C863.587 19.428 863.61 19.4507 863.61 19.496V21.612C863.61 21.6387 863.626 21.652 863.658 21.652H864.586C864.631 21.652 864.654 21.676 864.654 21.724V21.932C864.654 21.9773 864.631 22 864.586 22ZM865.162 22H864.874C864.837 22 864.824 21.9773 864.834 21.932L865.53 19.496C865.544 19.4507 865.576 19.428 865.626 19.428H866.026C866.08 19.428 866.112 19.4507 866.122 19.496L866.818 21.932C866.829 21.9773 866.814 22 866.774 22H866.49C866.466 22 866.449 21.996 866.438 21.988C866.43 21.9773 866.424 21.9587 866.418 21.932L866.266 21.412H865.386L865.234 21.932C865.224 21.9773 865.2 22 865.162 22ZM865.818 19.812L865.466 21.092H866.19L865.834 19.812H865.818ZM867.918 22H867.666C867.618 22 867.594 21.9773 867.594 21.932V19.808C867.594 19.7813 867.581 19.768 867.554 19.768H867.05C867.002 19.768 866.978 19.7453 866.978 19.7V19.496C866.978 19.4507 867.002 19.428 867.05 19.428H868.534C868.582 19.428 868.606 19.4507 868.606 19.496V19.7C868.606 19.7453 868.582 19.768 868.534 19.768H868.03C868.001 19.768 867.986 19.7813 867.986 19.808V21.932C867.986 21.9773 867.963 22 867.918 22ZM870.296 22H869.016C868.971 22 868.948 21.9773 868.948 21.932V19.496C868.948 19.4507 868.971 19.428 869.016 19.428H870.296C870.339 19.428 870.36 19.4507 870.36 19.496V19.7C870.36 19.7453 870.339 19.768 870.296 19.768H869.384C869.352 19.768 869.336 19.7813 869.336 19.808V20.484C869.336 20.5107 869.352 20.524 869.384 20.524H870.156C870.204 20.524 870.228 20.5467 870.228 20.592V20.796C870.228 20.8413 870.204 20.864 870.156 20.864H869.384C869.352 20.864 869.336 20.8773 869.336 20.904V21.616C869.336 21.6453 869.352 21.66 869.384 21.66H870.296C870.339 21.66 870.36 21.6827 870.36 21.728V21.932C870.36 21.9773 870.339 22 870.296 22ZM871.178 21.444V21.756C871.178 21.82 871.153 21.9 871.102 21.996L870.89 22.384C870.879 22.408 870.859 22.42 870.83 22.42C870.793 22.42 870.774 22.3987 870.774 22.356V21.444C870.774 21.4013 870.797 21.38 870.842 21.38H871.114C871.157 21.38 871.178 21.4013 871.178 21.444ZM872.76 22H872.472C872.435 22 872.421 21.9773 872.432 21.932L873.128 19.496C873.141 19.4507 873.173 19.428 873.224 19.428H873.624C873.677 19.428 873.709 19.4507 873.72 19.496L874.416 21.932C874.427 21.9773 874.412 22 874.372 22H874.088C874.064 22 874.047 21.996 874.036 21.988C874.028 21.9773 874.021 21.9587 874.016 21.932L873.864 21.412H872.984L872.832 21.932C872.821 21.9773 872.797 22 872.76 22ZM873.416 19.812L873.064 21.092H873.788L873.432 19.812H873.416ZM875.856 22H875.392C875.194 22 875.041 21.9453 874.932 21.836C874.825 21.7267 874.772 21.5747 874.772 21.38V20.048C874.772 19.8507 874.825 19.6987 874.932 19.592C875.041 19.4827 875.194 19.428 875.392 19.428H875.856C876.05 19.428 876.202 19.4827 876.312 19.592C876.421 19.6987 876.476 19.8507 876.476 20.048V20.24C876.476 20.288 876.452 20.312 876.404 20.312H876.152C876.106 20.312 876.084 20.288 876.084 20.24V20.064C876.084 19.8667 875.988 19.768 875.796 19.768H875.448C875.256 19.768 875.16 19.8667 875.16 20.064V21.364C875.16 21.5613 875.256 21.66 875.448 21.66H875.796C875.988 21.66 876.084 21.5613 876.084 21.364V21.188C876.084 21.14 876.106 21.116 876.152 21.116H876.404C876.452 21.116 876.476 21.14 876.476 21.188V21.38C876.476 21.5747 876.421 21.7267 876.312 21.836C876.202 21.9453 876.05 22 875.856 22ZM878.016 22H877.552C877.354 22 877.201 21.9453 877.092 21.836C876.985 21.7267 876.932 21.5747 876.932 21.38V20.048C876.932 19.8507 876.985 19.6987 877.092 19.592C877.201 19.4827 877.354 19.428 877.552 19.428H878.016C878.21 19.428 878.362 19.4827 878.472 19.592C878.581 19.6987 878.636 19.8507 878.636 20.048V20.24C878.636 20.288 878.612 20.312 878.564 20.312H878.312C878.266 20.312 878.244 20.288 878.244 20.24V20.064C878.244 19.8667 878.148 19.768 877.956 19.768H877.608C877.416 19.768 877.32 19.8667 877.32 20.064V21.364C877.32 21.5613 877.416 21.66 877.608 21.66H877.956C878.148 21.66 878.244 21.5613 878.244 21.364V21.188C878.244 21.14 878.266 21.116 878.312 21.116H878.564C878.612 21.116 878.636 21.14 878.636 21.188V21.38C878.636 21.5747 878.581 21.7267 878.472 21.836C878.362 21.9453 878.21 22 878.016 22ZM880.48 22H879.2C879.155 22 879.132 21.9773 879.132 21.932V19.496C879.132 19.4507 879.155 19.428 879.2 19.428H880.48C880.523 19.428 880.544 19.4507 880.544 19.496V19.7C880.544 19.7453 880.523 19.768 880.48 19.768H879.568C879.536 19.768 879.52 19.7813 879.52 19.808V20.484C879.52 20.5107 879.536 20.524 879.568 20.524H880.34C880.388 20.524 880.412 20.5467 880.412 20.592V20.796C880.412 20.8413 880.388 20.864 880.34 20.864H879.568C879.536 20.864 879.52 20.8773 879.52 20.904V21.616C879.52 21.6453 879.536 21.66 879.568 21.66H880.48C880.523 21.66 880.544 21.6827 880.544 21.728V21.932C880.544 21.9773 880.523 22 880.48 22ZM881.006 21.376V21.272C881.006 21.2267 881.028 21.204 881.074 21.204H881.33C881.375 21.204 881.398 21.2267 881.398 21.272V21.344C881.398 21.456 881.422 21.5373 881.47 21.588C881.52 21.636 881.603 21.66 881.718 21.66H881.994C882.108 21.66 882.191 21.6347 882.242 21.584C882.292 21.5307 882.318 21.4453 882.318 21.328V21.236C882.318 21.1507 882.284 21.084 882.218 21.036C882.154 20.9853 882.074 20.9533 881.978 20.94C881.882 20.924 881.776 20.9027 881.662 20.876C881.547 20.8493 881.442 20.8187 881.346 20.784C881.25 20.7493 881.168 20.684 881.102 20.588C881.038 20.492 881.006 20.3693 881.006 20.22V20.052C881.006 19.8573 881.06 19.7053 881.17 19.596C881.282 19.484 881.435 19.428 881.63 19.428H882.054C882.251 19.428 882.404 19.484 882.514 19.596C882.626 19.7053 882.682 19.8573 882.682 20.052V20.14C882.682 20.1853 882.659 20.208 882.614 20.208H882.358C882.312 20.208 882.29 20.1853 882.29 20.14V20.088C882.29 19.9733 882.264 19.892 882.214 19.844C882.166 19.7933 882.084 19.768 881.97 19.768H881.718C881.603 19.768 881.52 19.7947 881.47 19.848C881.422 19.8987 881.398 19.9867 881.398 20.112V20.236C881.398 20.356 881.484 20.4373 881.658 20.48C881.735 20.4987 881.819 20.5147 881.91 20.528C882.003 20.5413 882.096 20.5613 882.19 20.588C882.283 20.6147 882.368 20.6507 882.446 20.696C882.523 20.7387 882.586 20.8053 882.634 20.896C882.682 20.984 882.706 21.092 882.706 21.22V21.376C882.706 21.5707 882.65 21.724 882.538 21.836C882.428 21.9453 882.276 22 882.082 22H881.634C881.439 22 881.286 21.9453 881.174 21.836C881.062 21.724 881.006 21.5707 881.006 21.376ZM883.197 21.376V21.272C883.197 21.2267 883.22 21.204 883.265 21.204H883.521C883.566 21.204 883.589 21.2267 883.589 21.272V21.344C883.589 21.456 883.613 21.5373 883.661 21.588C883.712 21.636 883.794 21.66 883.909 21.66H884.185C884.3 21.66 884.382 21.6347 884.433 21.584C884.484 21.5307 884.509 21.4453 884.509 21.328V21.236C884.509 21.1507 884.476 21.084 884.409 21.036C884.345 20.9853 884.265 20.9533 884.169 20.94C884.073 20.924 883.968 20.9027 883.853 20.876C883.738 20.8493 883.633 20.8187 883.537 20.784C883.441 20.7493 883.36 20.684 883.293 20.588C883.229 20.492 883.197 20.3693 883.197 20.22V20.052C883.197 19.8573 883.252 19.7053 883.361 19.596C883.473 19.484 883.626 19.428 883.821 19.428H884.245C884.442 19.428 884.596 19.484 884.705 19.596C884.817 19.7053 884.873 19.8573 884.873 20.052V20.14C884.873 20.1853 884.85 20.208 884.805 20.208H884.549C884.504 20.208 884.481 20.1853 884.481 20.14V20.088C884.481 19.9733 884.456 19.892 884.405 19.844C884.357 19.7933 884.276 19.768 884.161 19.768H883.909C883.794 19.768 883.712 19.7947 883.661 19.848C883.613 19.8987 883.589 19.9867 883.589 20.112V20.236C883.589 20.356 883.676 20.4373 883.849 20.48C883.926 20.4987 884.01 20.5147 884.101 20.528C884.194 20.5413 884.288 20.5613 884.381 20.588C884.474 20.6147 884.56 20.6507 884.637 20.696C884.714 20.7387 884.777 20.8053 884.825 20.896C884.873 20.984 884.897 21.092 884.897 21.22V21.376C884.897 21.5707 884.841 21.724 884.729 21.836C884.62 21.9453 884.468 22 884.273 22H883.825C883.63 22 883.477 21.9453 883.365 21.836C883.253 21.724 883.197 21.5707 883.197 21.376ZM887.026 21.66H887.374C887.568 21.66 887.666 21.5613 887.666 21.364V20.064C887.666 19.8667 887.568 19.768 887.374 19.768H887.026C886.834 19.768 886.738 19.8667 886.738 20.064V21.364C886.738 21.5613 886.834 21.66 887.026 21.66ZM887.434 22H886.97C886.772 22 886.619 21.9453 886.51 21.836C886.403 21.7267 886.35 21.5747 886.35 21.38V20.048C886.35 19.8507 886.403 19.6987 886.51 19.592C886.619 19.4827 886.772 19.428 886.97 19.428H887.434C887.631 19.428 887.784 19.4827 887.894 19.592C888.003 19.6987 888.058 19.8507 888.058 20.048V21.38C888.058 21.5747 888.003 21.7267 887.894 21.836C887.784 21.9453 887.631 22 887.434 22ZM888.917 22H888.665C888.619 22 888.597 21.9773 888.597 21.932V19.496C888.597 19.4507 888.619 19.428 888.665 19.428H889.601C889.795 19.428 889.947 19.484 890.057 19.596C890.169 19.7053 890.225 19.8573 890.225 20.052V20.388C890.225 20.6947 890.098 20.888 889.845 20.968V20.984L890.289 21.92C890.318 21.9733 890.301 22 890.237 22H889.989C889.925 22 889.883 21.9773 889.865 21.932L889.437 21.012H889.033C889.001 21.012 888.985 21.0253 888.985 21.052V21.932C888.985 21.9773 888.962 22 888.917 22ZM889.029 20.692H889.537C889.734 20.692 889.833 20.5947 889.833 20.4V20.064C889.833 19.8667 889.734 19.768 889.537 19.768H889.029C888.999 19.768 888.985 19.7813 888.985 19.808V20.652C888.985 20.6787 888.999 20.692 889.029 20.692ZM892.15 21.66H892.714C892.906 21.66 893.002 21.5613 893.002 21.364V20.064C893.002 19.8667 892.906 19.768 892.714 19.768H892.15C892.12 19.768 892.106 19.7813 892.106 19.808V21.616C892.106 21.6453 892.12 21.66 892.15 21.66ZM891.718 21.932V19.496C891.718 19.4507 891.74 19.428 891.786 19.428H892.77C892.964 19.428 893.116 19.4827 893.226 19.592C893.338 19.6987 893.394 19.8507 893.394 20.048V21.38C893.394 21.5747 893.338 21.7267 893.226 21.836C893.116 21.9453 892.964 22 892.77 22H891.786C891.74 22 891.718 21.9773 891.718 21.932ZM894.345 19.496V21.932C894.345 21.9773 894.322 22 894.277 22H894.025C893.979 22 893.957 21.9773 893.957 21.932V19.496C893.957 19.4507 893.979 19.428 894.025 19.428H894.277C894.322 19.428 894.345 19.4507 894.345 19.496ZM894.9 21.376V21.272C894.9 21.2267 894.923 21.204 894.968 21.204H895.224C895.27 21.204 895.292 21.2267 895.292 21.272V21.344C895.292 21.456 895.316 21.5373 895.364 21.588C895.415 21.636 895.498 21.66 895.612 21.66H895.888C896.003 21.66 896.086 21.6347 896.136 21.584C896.187 21.5307 896.212 21.4453 896.212 21.328V21.236C896.212 21.1507 896.179 21.084 896.112 21.036C896.048 20.9853 895.968 20.9533 895.872 20.94C895.776 20.924 895.671 20.9027 895.556 20.876C895.442 20.8493 895.336 20.8187 895.24 20.784C895.144 20.7493 895.063 20.684 894.996 20.588C894.932 20.492 894.9 20.3693 894.9 20.22V20.052C894.9 19.8573 894.955 19.7053 895.064 19.596C895.176 19.484 895.33 19.428 895.524 19.428H895.948C896.146 19.428 896.299 19.484 896.408 19.596C896.52 19.7053 896.576 19.8573 896.576 20.052V20.14C896.576 20.1853 896.554 20.208 896.508 20.208H896.252C896.207 20.208 896.184 20.1853 896.184 20.14V20.088C896.184 19.9733 896.159 19.892 896.108 19.844C896.06 19.7933 895.979 19.768 895.864 19.768H895.612C895.498 19.768 895.415 19.7947 895.364 19.848C895.316 19.8987 895.292 19.9867 895.292 20.112V20.236C895.292 20.356 895.379 20.4373 895.552 20.48C895.63 20.4987 895.714 20.5147 895.804 20.528C895.898 20.5413 895.991 20.5613 896.084 20.588C896.178 20.6147 896.263 20.6507 896.34 20.696C896.418 20.7387 896.48 20.8053 896.528 20.896C896.576 20.984 896.6 21.092 896.6 21.22V21.376C896.6 21.5707 896.544 21.724 896.432 21.836C896.323 21.9453 896.171 22 895.976 22H895.528C895.334 22 895.18 21.9453 895.068 21.836C894.956 21.724 894.9 21.5707 894.9 21.376ZM897.28 22H896.992C896.954 22 896.941 21.9773 896.952 21.932L897.648 19.496C897.661 19.4507 897.693 19.428 897.744 19.428H898.144C898.197 19.428 898.229 19.4507 898.24 19.496L898.936 21.932C898.946 21.9773 898.932 22 898.892 22H898.608C898.584 22 898.566 21.996 898.556 21.988C898.548 21.9773 898.541 21.9587 898.536 21.932L898.384 21.412H897.504L897.352 21.932C897.341 21.9773 897.317 22 897.28 22ZM897.936 19.812L897.584 21.092H898.308L897.952 19.812H897.936ZM899.763 21.668H900.323C900.523 21.668 900.623 21.572 900.623 21.38V21.132C900.623 20.94 900.518 20.844 900.307 20.844H899.763C899.734 20.844 899.719 20.8573 899.719 20.884V21.628C899.719 21.6547 899.734 21.668 899.763 21.668ZM899.763 20.524H900.283C900.486 20.524 900.587 20.4267 900.587 20.232V20.048C900.587 19.856 900.488 19.76 900.291 19.76H899.763C899.734 19.76 899.719 19.7733 899.719 19.8V20.484C899.719 20.5107 899.734 20.524 899.763 20.524ZM899.331 21.932V19.496C899.331 19.4507 899.354 19.428 899.399 19.428H900.347C900.544 19.428 900.698 19.4813 900.807 19.588C900.916 19.6947 900.971 19.8453 900.971 20.04V20.236C900.971 20.468 900.862 20.6173 900.643 20.684C900.747 20.6973 900.832 20.7427 900.899 20.82C900.968 20.8973 901.003 21.0013 901.003 21.132V21.388C901.003 21.5827 900.948 21.7333 900.839 21.84C900.73 21.9467 900.578 22 900.383 22H899.399C899.354 22 899.331 21.9773 899.331 21.932ZM902.902 22H901.606C901.561 22 901.538 21.9773 901.538 21.932V19.496C901.538 19.4507 901.561 19.428 901.606 19.428H901.858C901.903 19.428 901.926 19.4507 901.926 19.496V21.612C901.926 21.6387 901.942 21.652 901.974 21.652H902.902C902.947 21.652 902.97 21.676 902.97 21.724V21.932C902.97 21.9773 902.947 22 902.902 22ZM904.687 22H903.407C903.362 22 903.339 21.9773 903.339 21.932V19.496C903.339 19.4507 903.362 19.428 903.407 19.428H904.687C904.73 19.428 904.751 19.4507 904.751 19.496V19.7C904.751 19.7453 904.73 19.768 904.687 19.768H903.775C903.743 19.768 903.727 19.7813 903.727 19.808V20.484C903.727 20.5107 903.743 20.524 903.775 20.524H904.547C904.595 20.524 904.619 20.5467 904.619 20.592V20.796C904.619 20.8413 904.595 20.864 904.547 20.864H903.775C903.743 20.864 903.727 20.8773 903.727 20.904V21.616C903.727 21.6453 903.743 21.66 903.775 21.66H904.687C904.73 21.66 904.751 21.6827 904.751 21.728V21.932C904.751 21.9773 904.73 22 904.687 22ZM906.918 22H906.666C906.618 22 906.594 21.9773 906.594 21.932V19.808C906.594 19.7813 906.581 19.768 906.554 19.768H906.05C906.002 19.768 905.978 19.7453 905.978 19.7V19.496C905.978 19.4507 906.002 19.428 906.05 19.428H907.534C907.582 19.428 907.606 19.4507 907.606 19.496V19.7C907.606 19.7453 907.582 19.768 907.534 19.768H907.03C907.001 19.768 906.986 19.7813 906.986 19.808V21.932C906.986 21.9773 906.963 22 906.918 22ZM908.268 22H908.016C907.971 22 907.948 21.9773 907.948 21.932V19.496C907.948 19.4507 907.971 19.428 908.016 19.428H908.268C908.314 19.428 908.336 19.4507 908.336 19.496V20.496C908.336 20.5227 908.352 20.536 908.384 20.536H909.228C909.255 20.536 909.268 20.5227 909.268 20.496V19.496C909.268 19.4507 909.291 19.428 909.336 19.428H909.592C909.638 19.428 909.66 19.4507 909.66 19.496V21.932C909.66 21.9773 909.638 22 909.592 22H909.336C909.291 22 909.268 21.9773 909.268 21.932V20.92C909.268 20.8933 909.255 20.88 909.228 20.88H908.384C908.352 20.88 908.336 20.8933 908.336 20.92V21.932C908.336 21.9773 908.314 22 908.268 22ZM911.593 22H910.313C910.268 22 910.245 21.9773 910.245 21.932V19.496C910.245 19.4507 910.268 19.428 910.313 19.428H911.593C911.636 19.428 911.657 19.4507 911.657 19.496V19.7C911.657 19.7453 911.636 19.768 911.593 19.768H910.681C910.649 19.768 910.633 19.7813 910.633 19.808V20.484C910.633 20.5107 910.649 20.524 910.681 20.524H911.453C911.501 20.524 911.525 20.5467 911.525 20.592V20.796C911.525 20.8413 911.501 20.864 911.453 20.864H910.681C910.649 20.864 910.633 20.8773 910.633 20.904V21.616C910.633 21.6453 910.649 21.66 910.681 21.66H911.593C911.636 21.66 911.657 21.6827 911.657 21.728V21.932C911.657 21.9773 911.636 22 911.593 22ZM912.119 21.376V21.272C912.119 21.2267 912.142 21.204 912.187 21.204H912.443C912.488 21.204 912.511 21.2267 912.511 21.272V21.344C912.511 21.456 912.535 21.5373 912.583 21.588C912.634 21.636 912.716 21.66 912.831 21.66H913.107C913.222 21.66 913.304 21.6347 913.355 21.584C913.406 21.5307 913.431 21.4453 913.431 21.328V21.236C913.431 21.1507 913.398 21.084 913.331 21.036C913.267 20.9853 913.187 20.9533 913.091 20.94C912.995 20.924 912.89 20.9027 912.775 20.876C912.66 20.8493 912.555 20.8187 912.459 20.784C912.363 20.7493 912.282 20.684 912.215 20.588C912.151 20.492 912.119 20.3693 912.119 20.22V20.052C912.119 19.8573 912.174 19.7053 912.283 19.596C912.395 19.484 912.548 19.428 912.743 19.428H913.167C913.364 19.428 913.518 19.484 913.627 19.596C913.739 19.7053 913.795 19.8573 913.795 20.052V20.14C913.795 20.1853 913.772 20.208 913.727 20.208H913.471C913.426 20.208 913.403 20.1853 913.403 20.14V20.088C913.403 19.9733 913.378 19.892 913.327 19.844C913.279 19.7933 913.198 19.768 913.083 19.768H912.831C912.716 19.768 912.634 19.7947 912.583 19.848C912.535 19.8987 912.511 19.9867 912.511 20.112V20.236C912.511 20.356 912.598 20.4373 912.771 20.48C912.848 20.4987 912.932 20.5147 913.023 20.528C913.116 20.5413 913.21 20.5613 913.303 20.588C913.396 20.6147 913.482 20.6507 913.559 20.696C913.636 20.7387 913.699 20.8053 913.747 20.896C913.795 20.984 913.819 21.092 913.819 21.22V21.376C913.819 21.5707 913.763 21.724 913.651 21.836C913.542 21.9453 913.39 22 913.195 22H912.747C912.552 22 912.399 21.9453 912.287 21.836C912.175 21.724 912.119 21.5707 912.119 21.376ZM915.706 22H914.426C914.381 22 914.358 21.9773 914.358 21.932V19.496C914.358 19.4507 914.381 19.428 914.426 19.428H915.706C915.749 19.428 915.77 19.4507 915.77 19.496V19.7C915.77 19.7453 915.749 19.768 915.706 19.768H914.794C914.762 19.768 914.746 19.7813 914.746 19.808V20.484C914.746 20.5107 914.762 20.524 914.794 20.524H915.566C915.614 20.524 915.638 20.5467 915.638 20.592V20.796C915.638 20.8413 915.614 20.864 915.566 20.864H914.794C914.762 20.864 914.746 20.8773 914.746 20.904V21.616C914.746 21.6453 914.762 21.66 914.794 21.66H915.706C915.749 21.66 915.77 21.6827 915.77 21.728V21.932C915.77 21.9773 915.749 22 915.706 22ZM917.665 21.66H918.229C918.421 21.66 918.517 21.5613 918.517 21.364V20.064C918.517 19.8667 918.421 19.768 918.229 19.768H917.665C917.636 19.768 917.621 19.7813 917.621 19.808V21.616C917.621 21.6453 917.636 21.66 917.665 21.66ZM917.233 21.932V19.496C917.233 19.4507 917.256 19.428 917.301 19.428H918.285C918.48 19.428 918.632 19.4827 918.741 19.592C918.853 19.6987 918.909 19.8507 918.909 20.048V21.38C918.909 21.5747 918.853 21.7267 918.741 21.836C918.632 21.9453 918.48 22 918.285 22H917.301C917.256 22 917.233 21.9773 917.233 21.932ZM920.8 22H919.52C919.475 22 919.452 21.9773 919.452 21.932V19.496C919.452 19.4507 919.475 19.428 919.52 19.428H920.8C920.843 19.428 920.864 19.4507 920.864 19.496V19.7C920.864 19.7453 920.843 19.768 920.8 19.768H919.888C919.856 19.768 919.84 19.7813 919.84 19.808V20.484C919.84 20.5107 919.856 20.524 919.888 20.524H920.66C920.708 20.524 920.732 20.5467 920.732 20.592V20.796C920.732 20.8413 920.708 20.864 920.66 20.864H919.888C919.856 20.864 919.84 20.8773 919.84 20.904V21.616C919.84 21.6453 919.856 21.66 919.888 21.66H920.8C920.843 21.66 920.864 21.6827 920.864 21.728V21.932C920.864 21.9773 920.843 22 920.8 22ZM922.31 22H921.914C921.869 22 921.841 21.9773 921.83 21.932L921.166 19.504C921.15 19.4533 921.17 19.428 921.226 19.428H921.51C921.553 19.428 921.578 19.4507 921.586 19.496L922.102 21.584H922.118L922.63 19.496C922.641 19.4507 922.667 19.428 922.71 19.428H922.99C923.046 19.428 923.067 19.4533 923.054 19.504L922.386 21.932C922.375 21.9773 922.35 22 922.31 22ZM923.833 19.496V21.932C923.833 21.9773 923.81 22 923.765 22H923.513C923.467 22 923.445 21.9773 923.445 21.932V19.496C923.445 19.4507 923.467 19.428 923.513 19.428H923.765C923.81 19.428 923.833 19.4507 923.833 19.496ZM925.481 22H925.017C924.819 22 924.666 21.9453 924.557 21.836C924.45 21.7267 924.397 21.5747 924.397 21.38V20.048C924.397 19.8507 924.45 19.6987 924.557 19.592C924.666 19.4827 924.819 19.428 925.017 19.428H925.481C925.675 19.428 925.827 19.4827 925.937 19.592C926.046 19.6987 926.101 19.8507 926.101 20.048V20.24C926.101 20.288 926.077 20.312 926.029 20.312H925.777C925.731 20.312 925.709 20.288 925.709 20.24V20.064C925.709 19.8667 925.613 19.768 925.421 19.768H925.073C924.881 19.768 924.785 19.8667 924.785 20.064V21.364C924.785 21.5613 924.881 21.66 925.073 21.66H925.421C925.613 21.66 925.709 21.5613 925.709 21.364V21.188C925.709 21.14 925.731 21.116 925.777 21.116H926.029C926.077 21.116 926.101 21.14 926.101 21.188V21.38C926.101 21.5747 926.046 21.7267 925.937 21.836C925.827 21.9453 925.675 22 925.481 22ZM927.945 22H926.665C926.619 22 926.597 21.9773 926.597 21.932V19.496C926.597 19.4507 926.619 19.428 926.665 19.428H927.945C927.987 19.428 928.009 19.4507 928.009 19.496V19.7C928.009 19.7453 927.987 19.768 927.945 19.768H927.033C927.001 19.768 926.985 19.7813 926.985 19.808V20.484C926.985 20.5107 927.001 20.524 927.033 20.524H927.805C927.853 20.524 927.877 20.5467 927.877 20.592V20.796C927.877 20.8413 927.853 20.864 927.805 20.864H927.033C927.001 20.864 926.985 20.8773 926.985 20.904V21.616C926.985 21.6453 927.001 21.66 927.033 21.66H927.945C927.987 21.66 928.009 21.6827 928.009 21.728V21.932C928.009 21.9773 927.987 22 927.945 22Z" fill="#AED5B2"/>
<path opacity="0.3" d="M0 1H150L163.5 14.5H795.5L809 1H928" stroke="#AED5B2" stroke-width="2"/>
</svg>
