<svg width="124" height="31" viewBox="0 0 124 31" fill="none" xmlns="http://www.w3.org/2000/svg">
<path d="M0.64 30.36V0.64H123.358L123.287 25.3757L121.326 28.4585L120.047 30.36H0.64Z" stroke="#FBC706" stroke-opacity="0.3" stroke-width="1.28"/>
<path d="M12.5448 10.83C12.8073 10.83 13.0323 10.9191 13.2198 11.0972C13.4073 11.2659 13.5057 11.4816 13.5151 11.7441V12.0113C13.5057 12.3956 13.5292 12.7519 13.5854 13.08C13.651 13.3988 13.801 13.6847 14.0354 13.9378C14.2698 14.1909 14.5651 14.3269 14.9214 14.3456H18.8729V11.7722C18.8729 11.5097 18.9667 11.2941 19.1542 11.1253C19.351 10.9472 19.5807 10.8581 19.8432 10.8581C20.4057 10.905 20.7151 11.2097 20.7714 11.7722V15.0347C20.7714 15.7847 20.6682 16.4925 20.462 17.1581C20.2745 17.7488 19.9651 18.2503 19.5339 18.6628C19.112 19.0659 18.5729 19.2863 17.9167 19.3238H12.8542C12.601 19.3144 12.3854 19.2253 12.2073 19.0566C12.0385 18.8784 11.9495 18.6628 11.9401 18.4097C11.9401 18.1472 12.0245 17.9222 12.1932 17.7347C12.3714 17.5472 12.5917 17.4488 12.8542 17.4394H17.4385C17.7948 17.4206 18.0901 17.2847 18.3245 17.0316C18.5401 16.7972 18.6854 16.53 18.7604 16.23H14.4432C13.787 16.1925 13.2432 15.9722 12.812 15.5691C12.3901 15.1566 12.0854 14.655 11.8979 14.0644C11.7198 13.4738 11.626 12.8456 11.6167 12.18V11.7441C11.626 11.4909 11.7198 11.28 11.8979 11.1113C12.076 10.9331 12.2917 10.8394 12.5448 10.83ZM29.5891 11.055C30.0672 11.0644 30.4938 11.2144 30.8688 11.505C31.2438 11.7956 31.5438 12.1425 31.7688 12.5456C32.0032 12.9488 32.1766 13.3753 32.2891 13.8253C32.4016 14.2753 32.4579 14.7347 32.4579 15.2034C32.4579 15.8222 32.3594 16.4316 32.1625 17.0316C31.975 17.6222 31.661 18.1472 31.2204 18.6066C30.7891 19.0659 30.2454 19.3144 29.5891 19.3519H24.6813C24.025 19.3238 23.4766 19.08 23.036 18.6206C22.5954 18.1613 22.2813 17.6316 22.0938 17.0316C21.9157 16.4316 21.8266 15.8222 21.8266 15.2034C21.8266 14.5847 21.9204 13.98 22.1079 13.3894C22.2954 12.7894 22.6047 12.2597 23.036 11.8003C23.4766 11.3316 24.025 11.0831 24.6813 11.055H24.9485H29.3219H29.5891ZM29.111 17.4675C29.4672 17.4488 29.7625 17.3175 29.9969 17.0738C30.2407 16.8206 30.4141 16.53 30.5172 16.2019C30.6204 15.8738 30.6719 15.5409 30.6719 15.2034C30.6719 14.8659 30.6157 14.5378 30.5032 14.2191C30.4 13.8909 30.2313 13.6003 29.9969 13.3472C29.7625 13.0941 29.4672 12.9581 29.111 12.9394H25.1172C24.761 12.9581 24.4657 13.0941 24.2313 13.3472C23.9969 13.6003 23.8235 13.8909 23.711 14.2191C23.6079 14.5378 23.5563 14.8659 23.5563 15.2034C23.5563 15.5409 23.6079 15.8738 23.711 16.2019C23.8141 16.53 23.9829 16.8206 24.2172 17.0738C24.461 17.3175 24.761 17.4488 25.1172 17.4675H29.111ZM37.9006 19.6753C37.4131 19.6753 36.9303 19.6191 36.4522 19.5066C35.9834 19.3941 35.5334 19.23 35.1022 19.0144C34.6709 18.7894 34.2912 18.4941 33.9631 18.1284C33.635 17.7628 33.4569 17.3269 33.4287 16.8206V16.23V11.7441C33.4287 11.4816 33.5225 11.2659 33.71 11.0972C33.9069 10.9191 34.1365 10.83 34.399 10.83C34.9615 10.8769 35.2662 11.1816 35.3131 11.7441V16.3847C35.3319 16.6753 35.4397 16.9191 35.6365 17.1159C35.8428 17.3034 36.0678 17.4534 36.3115 17.5659C36.5647 17.6784 36.8225 17.7628 37.085 17.8191C37.3569 17.8753 37.6287 17.9034 37.9006 17.9034C38.1725 17.9034 38.4397 17.8753 38.7022 17.8191C38.974 17.7628 39.2319 17.6784 39.4756 17.5659C39.7287 17.4534 39.9537 17.3034 40.1506 17.1159C40.3569 16.9191 40.4694 16.6753 40.4881 16.3847V11.7441C40.4881 11.4816 40.5819 11.2659 40.7694 11.0972C40.9662 10.9191 41.1959 10.83 41.4584 10.83C42.0209 10.8769 42.3303 11.1816 42.3865 11.7441V16.23V16.8206C42.3584 17.3269 42.1756 17.7628 41.8381 18.1284C41.51 18.4941 41.1303 18.7894 40.699 19.0144C40.2678 19.23 39.8131 19.3941 39.335 19.5066C38.8662 19.6191 38.3881 19.6753 37.9006 19.6753ZM45.5793 18.6347C45.523 19.1972 45.2137 19.5019 44.6512 19.5488C44.3887 19.5488 44.159 19.4644 43.9621 19.2956C43.7746 19.1175 43.6809 18.8972 43.6809 18.6347V11.9691C43.6902 11.7066 43.7887 11.4909 43.9762 11.3222C44.1637 11.1441 44.3887 11.055 44.6512 11.055H45.3402H47.0699H50.5434C50.5996 11.055 50.6559 11.0597 50.7121 11.0691H50.7965C51.4527 11.0878 51.9918 11.2378 52.4137 11.5191C52.8355 11.8003 53.1402 12.1238 53.3277 12.4894C53.5152 12.8456 53.609 13.2066 53.609 13.5722C53.609 13.9472 53.5152 14.3175 53.3277 14.6831C53.1496 15.0394 52.8449 15.3581 52.4137 15.6394C51.9918 15.9206 51.4527 16.0706 50.7965 16.0894H48.3215C48.3965 16.5581 48.5512 16.905 48.7855 17.13C49.0105 17.355 49.2965 17.4675 49.6434 17.4675H52.6809C52.9434 17.4769 53.159 17.5753 53.3277 17.7628C53.5059 17.9503 53.5949 18.1753 53.5949 18.4378C53.5855 18.6909 53.4918 18.9066 53.3137 19.0847C53.1449 19.2534 52.934 19.3425 52.6809 19.3519H49.3902C48.6965 19.3613 48.0684 19.0894 47.5059 18.5363C46.9434 17.9831 46.6012 17.3269 46.4793 16.5675C46.3105 15.7238 46.2262 15.2503 46.2262 15.1472C46.2262 14.8847 46.3152 14.6644 46.4934 14.4863C46.6809 14.2988 46.9059 14.205 47.1684 14.205H50.8809C51.059 14.1956 51.2043 14.1581 51.3168 14.0925C51.4387 14.0175 51.5277 13.9378 51.584 13.8534C51.6402 13.7597 51.6684 13.6659 51.6684 13.5722C51.6684 13.4784 51.6402 13.3894 51.584 13.305C51.5277 13.2113 51.4387 13.1316 51.3168 13.0659C51.2043 12.9909 51.059 12.9488 50.8809 12.9394H47.0699H45.9449C45.7012 12.9488 45.5793 13.0706 45.5793 13.305V18.6347ZM65.6617 10.6753C66.1492 10.6753 66.6273 10.7316 67.096 10.8441C67.5742 10.9566 68.0289 11.1253 68.4601 11.3503C68.8914 11.5659 69.271 11.8566 69.5992 12.2222C69.9367 12.5878 70.1195 13.0238 70.1476 13.53V14.1206V18.6066C70.0914 19.1691 69.782 19.4738 69.2195 19.5206C68.957 19.5206 68.7273 19.4363 68.5304 19.2675C68.3429 19.0894 68.2492 18.8691 68.2492 18.6066V13.9659C68.2304 13.6753 68.1179 13.4363 67.9117 13.2488C67.7148 13.0519 67.4898 12.8972 67.2367 12.7847C66.9929 12.6722 66.7351 12.5878 66.4632 12.5316C66.2007 12.4753 65.9335 12.4472 65.6617 12.4472C65.3898 12.4472 65.1179 12.4753 64.846 12.5316C64.5835 12.5878 64.3257 12.6722 64.0726 12.7847C63.8289 12.8972 63.6039 13.0519 63.3976 13.2488C63.2007 13.4363 63.0929 13.6753 63.0742 13.9659V18.6066C63.0273 19.1691 62.7226 19.4738 62.1601 19.5206C61.8976 19.5206 61.6679 19.4363 61.471 19.2675C61.2835 19.0894 61.1898 18.8691 61.1898 18.6066V14.1206V13.53C61.2179 13.0238 61.396 12.5878 61.7242 12.2222C62.0523 11.8566 62.432 11.5659 62.8632 11.3503C63.2945 11.1253 63.7445 10.9566 64.2132 10.8441C64.6914 10.7316 65.1742 10.6753 65.6617 10.6753ZM78.895 11.055C79.3732 11.0644 79.7997 11.2144 80.1747 11.505C80.5497 11.7956 80.8497 12.1425 81.0747 12.5456C81.3091 12.9488 81.4825 13.3753 81.595 13.8253C81.7075 14.2753 81.7638 14.7347 81.7638 15.2034C81.7638 15.8222 81.6654 16.4316 81.4685 17.0316C81.281 17.6222 80.9669 18.1472 80.5263 18.6066C80.095 19.0659 79.5513 19.3144 78.895 19.3519H73.9872C73.331 19.3238 72.7825 19.08 72.3419 18.6206C71.9013 18.1613 71.5872 17.6316 71.3997 17.0316C71.2216 16.4316 71.1325 15.8222 71.1325 15.2034C71.1325 14.5847 71.2263 13.98 71.4138 13.3894C71.6013 12.7894 71.9107 12.2597 72.3419 11.8003C72.7825 11.3316 73.331 11.0831 73.9872 11.055H74.2544H78.6279H78.895ZM78.4169 17.4675C78.7732 17.4488 79.0685 17.3175 79.3029 17.0738C79.5466 16.8206 79.72 16.53 79.8232 16.2019C79.9263 15.8738 79.9779 15.5409 79.9779 15.2034C79.9779 14.8659 79.9216 14.5378 79.8091 14.2191C79.706 13.8909 79.5372 13.6003 79.3029 13.3472C79.0685 13.0941 78.7732 12.9581 78.4169 12.9394H74.4232C74.0669 12.9581 73.7716 13.0941 73.5372 13.3472C73.3029 13.6003 73.1294 13.8909 73.0169 14.2191C72.9138 14.5378 72.8622 14.8659 72.8622 15.2034C72.8622 15.5409 72.9138 15.8738 73.0169 16.2019C73.12 16.53 73.2888 16.8206 73.5232 17.0738C73.7669 17.3175 74.0669 17.4488 74.4232 17.4675H78.4169ZM82.4534 11.9972C82.4534 11.7347 82.5425 11.5144 82.7206 11.3363C82.9081 11.1488 83.1331 11.055 83.3956 11.055H91.58C91.8425 11.055 92.0675 11.1441 92.255 11.3222C92.4331 11.5097 92.5222 11.7347 92.5222 11.9972C92.5222 12.2597 92.4284 12.4847 92.2409 12.6722C92.0628 12.8503 91.8425 12.9394 91.58 12.9394H88.444V18.6347C88.3878 19.1972 88.0784 19.5019 87.5159 19.5488C87.2534 19.5488 87.0237 19.4644 86.8269 19.2956C86.6394 19.1175 86.5456 18.8972 86.5456 18.6347V12.9394H83.3956C83.1331 12.9394 82.9128 12.8456 82.7347 12.6581C82.5472 12.48 82.4534 12.2597 82.4534 11.9972ZM96.0384 11.055H96.6852H101.466C101.729 11.0644 101.945 11.1628 102.113 11.3503C102.291 11.5378 102.381 11.7628 102.381 12.0253C102.334 12.5878 102.029 12.8925 101.466 12.9394H96.5165C96.1602 12.9581 95.8649 13.0941 95.6305 13.3472C95.3962 13.6003 95.2227 13.8909 95.1102 14.2191C95.0071 14.5378 94.9555 14.8659 94.9555 15.2034C94.9555 15.5409 95.0071 15.8738 95.1102 16.2019C95.2227 16.5206 95.3962 16.8066 95.6305 17.0597C95.8649 17.3128 96.1602 17.4488 96.5165 17.4675H101.466C101.729 17.4769 101.945 17.5753 102.113 17.7628C102.291 17.9503 102.381 18.1753 102.381 18.4378C102.371 18.6909 102.277 18.9066 102.099 19.0847C101.931 19.2534 101.72 19.3425 101.466 19.3519H96.3055H96.0384C95.3821 19.3144 94.8384 19.0659 94.4071 18.6066C93.9852 18.1378 93.6805 17.6081 93.493 17.0175C93.3149 16.4269 93.2259 15.8222 93.2259 15.2034C93.2259 14.5847 93.3196 13.98 93.5071 13.3894C93.6946 12.7988 93.9993 12.2738 94.4212 11.8144C94.843 11.3456 95.3821 11.0925 96.0384 11.055ZM102.352 15.1472C102.352 15.4097 102.259 15.63 102.071 15.8081C101.893 15.9956 101.673 16.0894 101.41 16.0894H97.1634C96.9009 16.0894 96.6759 16.0003 96.4884 15.8222C96.3102 15.6347 96.2212 15.4097 96.2212 15.1472C96.2212 14.8847 96.3102 14.6597 96.4884 14.4722C96.6759 14.2941 96.9009 14.205 97.1634 14.205H101.41C101.673 14.205 101.893 14.2988 102.071 14.4863C102.259 14.6644 102.352 14.8847 102.352 15.1472ZM112.309 11.9972C112.309 12.2597 112.215 12.48 112.028 12.6581C111.85 12.8456 111.63 12.9394 111.367 12.9394H105.742C105.564 12.9488 105.414 12.9909 105.292 13.0659C105.18 13.1316 105.095 13.2113 105.039 13.305C104.983 13.3894 104.955 13.4784 104.955 13.5722C104.955 13.6659 104.983 13.7597 105.039 13.8534C105.095 13.9378 105.18 14.0175 105.292 14.0925C105.414 14.1581 105.564 14.1956 105.742 14.205H109.736C110.392 14.2238 110.931 14.3784 111.353 14.6691C111.784 14.9503 112.089 15.2784 112.267 15.6534C112.455 16.0191 112.548 16.3941 112.548 16.7784C112.548 17.1534 112.455 17.5284 112.267 17.9034C112.08 18.2691 111.775 18.5972 111.353 18.8878C110.931 19.1691 110.392 19.3097 109.736 19.3097H109.651C109.595 19.3191 109.539 19.3238 109.483 19.3238H104.167C103.905 19.3238 103.68 19.2347 103.492 19.0566C103.314 18.8691 103.225 18.6441 103.225 18.3816C103.225 18.1191 103.319 17.8988 103.506 17.7206C103.684 17.5331 103.905 17.4394 104.167 17.4394H109.82C109.998 17.4488 110.144 17.4159 110.256 17.3409C110.378 17.2659 110.467 17.1816 110.523 17.0878C110.58 16.9847 110.608 16.8816 110.608 16.7784C110.608 16.7128 110.58 16.6238 110.523 16.5113C110.467 16.3894 110.378 16.2909 110.256 16.2159C110.144 16.1409 109.998 16.0988 109.82 16.0894H105.826C105.17 16.0706 104.626 15.9206 104.195 15.6394C103.773 15.3581 103.469 15.0394 103.281 14.6831C103.103 14.3175 103.014 13.9472 103.014 13.5722C103.014 13.2066 103.108 12.8456 103.295 12.4894C103.483 12.1238 103.787 11.8003 104.209 11.5191C104.631 11.2378 105.17 11.0878 105.826 11.0691H105.911C105.967 11.0597 106.023 11.055 106.08 11.055H111.367C111.63 11.055 111.85 11.1488 112.028 11.3363C112.215 11.5144 112.309 11.7347 112.309 11.9972Z" fill="#FBC706"/>
</svg>
