<svg width="93" height="31" viewBox="0 0 93 31" fill="none" xmlns="http://www.w3.org/2000/svg">
<path d="M0.64 29.92V0.64H91.5186L91.4655 25.0539L89.997 28.1169L89.0822 29.92H0.64Z" stroke="#FBC706" stroke-opacity="0.3" stroke-width="1.28"/>
<path d="M11.7283 10.83C11.9908 10.83 12.2158 10.9191 12.4033 11.0972C12.5908 11.2659 12.6892 11.4816 12.6986 11.7441V15.1331C12.6892 15.5175 12.7127 15.8738 12.7689 16.2019C12.8345 16.5206 12.9845 16.8066 13.2189 17.0597C13.4533 17.3128 13.7486 17.4488 14.1049 17.4675H18.6049C18.8674 17.4769 19.083 17.5753 19.2517 17.7628C19.4299 17.9503 19.5189 18.1753 19.5189 18.4378C19.5095 18.6909 19.4158 18.9066 19.2377 19.0847C19.0689 19.2534 18.858 19.3425 18.6049 19.3519H13.6267C12.9705 19.3144 12.4267 19.0941 11.9955 18.6909C11.5736 18.2784 11.2689 17.7769 11.0814 17.1863C10.9033 16.5956 10.8095 15.9675 10.8002 15.3019V11.7441C10.8095 11.4909 10.9033 11.28 11.0814 11.1113C11.2595 10.9331 11.4752 10.8394 11.7283 10.83ZM27.8304 11.055C28.3085 11.0644 28.7351 11.2144 29.1101 11.505C29.4851 11.7956 29.7851 12.1425 30.0101 12.5456C30.2445 12.9488 30.4179 13.3753 30.5304 13.8253C30.6429 14.2753 30.6992 14.7347 30.6992 15.2034C30.6992 15.8222 30.6007 16.4316 30.4039 17.0316C30.2164 17.6222 29.9023 18.1472 29.4617 18.6066C29.0304 19.0659 28.4867 19.3144 27.8304 19.3519H22.9226C22.2664 19.3238 21.7179 19.08 21.2773 18.6206C20.8367 18.1613 20.5226 17.6316 20.3351 17.0316C20.157 16.4316 20.0679 15.8222 20.0679 15.2034C20.0679 14.5847 20.1617 13.98 20.3492 13.3894C20.5367 12.7894 20.846 12.2597 21.2773 11.8003C21.7179 11.3316 22.2664 11.0831 22.9226 11.055H23.1898H27.5632H27.8304ZM27.3523 17.4675C27.7085 17.4488 28.0039 17.3175 28.2382 17.0738C28.482 16.8206 28.6554 16.53 28.7585 16.2019C28.8617 15.8738 28.9132 15.5409 28.9132 15.2034C28.9132 14.8659 28.857 14.5378 28.7445 14.2191C28.6414 13.8909 28.4726 13.6003 28.2382 13.3472C28.0039 13.0941 27.7085 12.9581 27.3523 12.9394H23.3585C23.0023 12.9581 22.707 13.0941 22.4726 13.3472C22.2382 13.6003 22.0648 13.8909 21.9523 14.2191C21.8492 14.5378 21.7976 14.8659 21.7976 15.2034C21.7976 15.5409 21.8492 15.8738 21.9523 16.2019C22.0554 16.53 22.2242 16.8206 22.4585 17.0738C22.7023 17.3175 23.0023 17.4488 23.3585 17.4675H27.3523ZM34.3279 11.055H40.2622C40.5247 11.0644 40.7404 11.1628 40.9091 11.3503C41.0872 11.5378 41.1763 11.7628 41.1763 12.0253C41.1294 12.5878 40.8247 12.8925 40.2622 12.9394H34.806C34.4497 12.9581 34.1544 13.0941 33.92 13.3472C33.6857 13.6003 33.5122 13.8909 33.3997 14.2191C33.2966 14.5378 33.245 14.8659 33.245 15.2034C33.245 15.5409 33.2966 15.8738 33.3997 16.2019C33.5122 16.5206 33.6857 16.8066 33.92 17.0597C34.1544 17.3128 34.4497 17.4488 34.806 17.4675H39.081C39.2497 17.4581 39.3388 17.3644 39.3482 17.1863V16.3706C39.3388 16.1831 39.2497 16.0894 39.081 16.0894H35.481C35.2185 16.0894 34.9935 16.0003 34.806 15.8222C34.6279 15.6347 34.5388 15.4097 34.5388 15.1472C34.5388 14.8847 34.6279 14.6597 34.806 14.4722C34.9935 14.2941 35.2185 14.205 35.481 14.205H40.2904C40.5529 14.205 40.7779 14.2941 40.9654 14.4722C41.1341 14.6503 41.2232 14.8659 41.2325 15.1191V15.1472V18.4378C41.2232 18.6909 41.1341 18.9019 40.9654 19.0706C40.7872 19.2488 40.5716 19.3425 40.3185 19.3519H34.3279C33.6716 19.3144 33.1279 19.0659 32.6966 18.6066C32.2747 18.1378 31.97 17.6081 31.7825 17.0175C31.6044 16.4269 31.5154 15.8222 31.5154 15.2034C31.5154 14.5847 31.6091 13.98 31.7966 13.3894C31.9841 12.7988 32.2888 12.2738 32.7107 11.8144C33.1325 11.3456 33.6716 11.0925 34.3279 11.055ZM56.5759 11.055C57.054 11.0644 57.4805 11.2144 57.8555 11.505C58.2305 11.7956 58.5305 12.1425 58.7555 12.5456C58.9899 12.9488 59.1634 13.3753 59.2759 13.8253C59.3884 14.2753 59.4446 14.7347 59.4446 15.2034C59.4446 15.8222 59.3462 16.4316 59.1493 17.0316C58.9618 17.6222 58.6477 18.1472 58.2071 18.6066C57.7759 19.0659 57.2321 19.3144 56.5759 19.3519H51.668C51.0118 19.3238 50.4634 19.08 50.0227 18.6206C49.5821 18.1613 49.268 17.6316 49.0805 17.0316C48.9024 16.4316 48.8134 15.8222 48.8134 15.2034C48.8134 14.5847 48.9071 13.98 49.0946 13.3894C49.2821 12.7894 49.5915 12.2597 50.0227 11.8003C50.4634 11.3316 51.0118 11.0831 51.668 11.055H51.9352H56.3087H56.5759ZM56.0977 17.4675C56.454 17.4488 56.7493 17.3175 56.9837 17.0738C57.2274 16.8206 57.4009 16.53 57.504 16.2019C57.6071 15.8738 57.6587 15.5409 57.6587 15.2034C57.6587 14.8659 57.6024 14.5378 57.4899 14.2191C57.3868 13.8909 57.218 13.6003 56.9837 13.3472C56.7493 13.0941 56.454 12.9581 56.0977 12.9394H52.104C51.7477 12.9581 51.4524 13.0941 51.218 13.3472C50.9837 13.6003 50.8102 13.8909 50.6977 14.2191C50.5946 14.5378 50.543 14.8659 50.543 15.2034C50.543 15.5409 50.5946 15.8738 50.6977 16.2019C50.8009 16.53 50.9696 16.8206 51.204 17.0738C51.4477 17.3175 51.7477 17.4488 52.104 17.4675H56.0977ZM64.8874 19.6753C64.3999 19.6753 63.917 19.6191 63.4389 19.5066C62.9702 19.3941 62.5202 19.23 62.0889 19.0144C61.6577 18.7894 61.278 18.4941 60.9499 18.1284C60.6217 17.7628 60.4436 17.3269 60.4155 16.8206V16.23V11.7441C60.4155 11.4816 60.5092 11.2659 60.6967 11.0972C60.8936 10.9191 61.1233 10.83 61.3858 10.83C61.9483 10.8769 62.253 11.1816 62.2999 11.7441V16.3847C62.3186 16.6753 62.4264 16.9191 62.6233 17.1159C62.8295 17.3034 63.0545 17.4534 63.2983 17.5659C63.5514 17.6784 63.8092 17.7628 64.0717 17.8191C64.3436 17.8753 64.6155 17.9034 64.8874 17.9034C65.1592 17.9034 65.4264 17.8753 65.6889 17.8191C65.9608 17.7628 66.2186 17.6784 66.4624 17.5659C66.7155 17.4534 66.9405 17.3034 67.1374 17.1159C67.3436 16.9191 67.4561 16.6753 67.4749 16.3847V11.7441C67.4749 11.4816 67.5686 11.2659 67.7561 11.0972C67.953 10.9191 68.1827 10.83 68.4452 10.83C69.0077 10.8769 69.317 11.1816 69.3733 11.7441V16.23V16.8206C69.3452 17.3269 69.1624 17.7628 68.8249 18.1284C68.4967 18.4941 68.117 18.7894 67.6858 19.0144C67.2545 19.23 66.7999 19.3941 66.3217 19.5066C65.853 19.6191 65.3749 19.6753 64.8874 19.6753ZM70.4004 11.9972C70.4004 11.7347 70.4895 11.5144 70.6676 11.3363C70.8551 11.1488 71.0801 11.055 71.3426 11.055H79.527C79.7895 11.055 80.0145 11.1441 80.202 11.3222C80.3801 11.5097 80.4692 11.7347 80.4692 11.9972C80.4692 12.2597 80.3754 12.4847 80.1879 12.6722C80.0098 12.8503 79.7895 12.9394 79.527 12.9394H76.391V18.6347C76.3348 19.1972 76.0254 19.5019 75.4629 19.5488C75.2004 19.5488 74.9707 19.4644 74.7739 19.2956C74.5864 19.1175 74.4926 18.8972 74.4926 18.6347V12.9394H71.3426C71.0801 12.9394 70.8598 12.8456 70.6817 12.6581C70.4942 12.48 70.4004 12.2597 70.4004 11.9972Z" fill="#FBC706"/>
</svg>
