<svg width="158" height="31" viewBox="0 0 158 31" fill="none" xmlns="http://www.w3.org/2000/svg">
<path d="M0.64 30.36V0.64H157.358L157.267 25.3351L154.784 28.399L153.103 30.36H0.64Z" stroke="#FBC706" stroke-opacity="0.3" stroke-width="1.28"/>
<path d="M45.1997 18.6066C45.1434 19.1691 44.834 19.4738 44.2715 19.5206C44.009 19.5206 43.7794 19.4363 43.5825 19.2675C43.395 19.0894 43.3012 18.8691 43.3012 18.6066V11.9691C43.3106 11.7066 43.409 11.4909 43.5965 11.3222C43.784 11.1441 44.009 11.055 44.2715 11.055H50.1778C51.0028 11.0831 51.6262 11.2659 52.0481 11.6034C52.47 11.9316 52.7747 12.3066 52.9622 12.7284C53.1497 13.1503 53.2434 13.5769 53.2434 14.0081C53.2434 14.4581 53.1497 14.8941 52.9622 15.3159C52.784 15.7378 52.4794 16.1175 52.0481 16.455C51.6262 16.7831 51.0872 16.9425 50.4309 16.9331H46.8872C46.6247 16.9331 46.4044 16.8394 46.2262 16.6519C46.0387 16.4738 45.945 16.2534 45.945 15.9909C45.945 15.7284 46.034 15.5081 46.2122 15.33C46.3997 15.1425 46.6247 15.0488 46.8872 15.0488H50.5153C50.6934 15.0488 50.8387 14.9925 50.9512 14.88C51.0731 14.7581 51.1622 14.6222 51.2184 14.4722C51.2747 14.3128 51.3028 14.1534 51.3028 13.9941C51.3028 13.8441 51.2747 13.6941 51.2184 13.5441C51.1622 13.3847 51.0731 13.2488 50.9512 13.1363C50.8387 13.0144 50.6934 12.9488 50.5153 12.9394H45.5653C45.3215 12.9488 45.1997 13.0706 45.1997 13.305V18.6066ZM56.0565 18.6347C56.0002 19.1972 55.6909 19.5019 55.1284 19.5488C54.8659 19.5488 54.6362 19.4644 54.4393 19.2956C54.2518 19.1175 54.158 18.8972 54.158 18.6347V11.9691C54.1674 11.7066 54.2659 11.4909 54.4534 11.3222C54.6409 11.1441 54.8659 11.055 55.1284 11.055H55.8174H57.5471H61.0205C61.0768 11.055 61.133 11.0597 61.1893 11.0691H61.2737C61.9299 11.0878 62.469 11.2378 62.8909 11.5191C63.3127 11.8003 63.6174 12.1238 63.8049 12.4894C63.9924 12.8456 64.0862 13.2066 64.0862 13.5722C64.0862 13.9472 63.9924 14.3175 63.8049 14.6831C63.6268 15.0394 63.3221 15.3581 62.8909 15.6394C62.469 15.9206 61.9299 16.0706 61.2737 16.0894H58.7987C58.8737 16.5581 59.0284 16.905 59.2627 17.13C59.4877 17.355 59.7737 17.4675 60.1205 17.4675H63.158C63.4205 17.4769 63.6362 17.5753 63.8049 17.7628C63.983 17.9503 64.0721 18.1753 64.0721 18.4378C64.0627 18.6909 63.969 18.9066 63.7909 19.0847C63.6221 19.2534 63.4112 19.3425 63.158 19.3519H59.8674C59.1737 19.3613 58.5455 19.0894 57.983 18.5363C57.4205 17.9831 57.0784 17.3269 56.9565 16.5675C56.7877 15.7238 56.7034 15.2503 56.7034 15.1472C56.7034 14.8847 56.7924 14.6644 56.9705 14.4863C57.158 14.2988 57.383 14.205 57.6455 14.205H61.358C61.5362 14.1956 61.6815 14.1581 61.794 14.0925C61.9159 14.0175 62.0049 13.9378 62.0612 13.8534C62.1174 13.7597 62.1455 13.6659 62.1455 13.5722C62.1455 13.4784 62.1174 13.3894 62.0612 13.305C62.0049 13.2113 61.9159 13.1316 61.794 13.0659C61.6815 12.9909 61.5362 12.9488 61.358 12.9394H57.5471H56.4221C56.1784 12.9488 56.0565 13.0706 56.0565 13.305V18.6347ZM64.7336 18.4097C64.7336 18.1472 64.8227 17.9269 65.0008 17.7488C65.1883 17.5613 65.4133 17.4675 65.6758 17.4675H68.3758V12.9394H65.6758C65.4133 12.9394 65.193 12.8456 65.0149 12.6581C64.8274 12.48 64.7336 12.2597 64.7336 11.9972C64.7336 11.7347 64.8227 11.5144 65.0008 11.3363C65.1883 11.1488 65.4133 11.055 65.6758 11.055H72.9602C73.2227 11.055 73.4477 11.1441 73.6352 11.3222C73.8133 11.5097 73.9024 11.7347 73.9024 11.9972C73.9024 12.2597 73.8086 12.4847 73.6211 12.6722C73.443 12.8503 73.2227 12.9394 72.9602 12.9394H70.2742V17.4675H72.9602C73.2227 17.4675 73.4477 17.5566 73.6352 17.7347C73.8133 17.9222 73.9024 18.1472 73.9024 18.4097C73.9024 18.6722 73.8086 18.8972 73.6211 19.0847C73.443 19.2628 73.2227 19.3519 72.9602 19.3519H65.6758C65.4133 19.3519 65.193 19.2581 65.0149 19.0706C64.8274 18.8925 64.7336 18.6722 64.7336 18.4097ZM77.4607 18.6066C77.0295 17.9597 76.5982 17.1113 76.167 16.0613L74.6201 12.0675C74.5732 11.9644 74.5451 11.8519 74.5357 11.73C74.517 11.4675 74.592 11.2425 74.7607 11.055C74.9389 10.8675 75.1639 10.7738 75.4357 10.7738C75.7264 10.7738 75.942 10.8394 76.0826 10.9706C76.2326 11.0925 76.3545 11.2519 76.4482 11.4488L77.7842 15.105C77.9342 15.4894 78.0795 15.855 78.2201 16.2019C78.3701 16.5394 78.5342 16.8488 78.7123 17.13C78.8904 17.4113 79.092 17.5613 79.317 17.58C79.5326 17.5613 79.7248 17.4113 79.8936 17.13C80.0811 16.8488 80.2451 16.5394 80.3857 16.2019C80.5357 15.855 80.6857 15.4894 80.8357 15.105L82.1436 11.4488C82.2373 11.2519 82.3545 11.0925 82.4951 10.9706C82.6451 10.8394 82.8748 10.7738 83.1842 10.7738C83.4561 10.7738 83.6764 10.8675 83.8451 11.055C84.0232 11.2425 84.1029 11.4675 84.0842 11.73C84.0748 11.8519 84.0467 11.9644 83.9998 12.0675L82.4529 16.0613C82.0217 17.13 81.5904 17.9831 81.1592 18.6206C80.7373 19.2488 80.1232 19.5675 79.317 19.5769C78.5014 19.5675 77.8826 19.2441 77.4607 18.6066ZM88.1207 17.1722C88.1207 16.9097 88.2097 16.6894 88.3879 16.5113C88.5754 16.3238 88.8004 16.23 89.0629 16.23H91.2144L90.8488 15.1894C90.6988 14.805 90.5488 14.4441 90.3988 14.1066C90.2582 13.7597 90.0941 13.4456 89.9066 13.1644C89.7379 12.8831 89.5457 12.7331 89.3301 12.7144C89.1051 12.7331 88.9035 12.8831 88.7254 13.1644C88.5472 13.4456 88.3832 13.7597 88.2332 14.1066C88.0926 14.4441 87.9472 14.805 87.7972 15.1894L86.4613 18.8456C86.3676 19.0425 86.2457 19.2066 86.0957 19.3378C85.9551 19.4597 85.7394 19.5206 85.4488 19.5206C85.1769 19.5206 84.9519 19.4269 84.7738 19.2394C84.6051 19.0519 84.5301 18.8269 84.5488 18.5644C84.5582 18.4425 84.5863 18.33 84.6332 18.2269L86.1801 14.2331C86.6113 13.1831 87.0426 12.3347 87.4738 11.6878C87.8957 11.0503 88.5144 10.7269 89.3301 10.7175C90.1363 10.7269 90.7504 11.0503 91.1722 11.6878C91.6035 12.3159 92.0347 13.1644 92.466 14.2331L94.0129 18.2269C94.0597 18.33 94.0879 18.4425 94.0972 18.5644C94.116 18.8269 94.0363 19.0519 93.8582 19.2394C93.6894 19.4269 93.4691 19.5206 93.1972 19.5206C92.8879 19.5206 92.6582 19.4597 92.5082 19.3378C92.3676 19.2066 92.2504 19.0425 92.1566 18.8456L91.8894 18.1144H89.0629C88.8004 18.1144 88.5801 18.0206 88.4019 17.8331C88.2144 17.655 88.1207 17.4347 88.1207 17.1722ZM94.6603 11.9972C94.6603 11.7347 94.7494 11.5144 94.9275 11.3363C95.115 11.1488 95.34 11.055 95.6025 11.055H103.787C104.049 11.055 104.274 11.1441 104.462 11.3222C104.64 11.5097 104.729 11.7347 104.729 11.9972C104.729 12.2597 104.635 12.4847 104.448 12.6722C104.27 12.8503 104.049 12.9394 103.787 12.9394H100.651V18.6347C100.595 19.1972 100.285 19.5019 99.7228 19.5488C99.4603 19.5488 99.2306 19.4644 99.0337 19.2956C98.8462 19.1175 98.7525 18.8972 98.7525 18.6347V12.9394H95.6025C95.34 12.9394 95.1197 12.8456 94.9415 12.6581C94.754 12.48 94.6603 12.2597 94.6603 11.9972ZM108.245 11.055H108.892H113.673C113.936 11.0644 114.151 11.1628 114.32 11.3503C114.498 11.5378 114.587 11.7628 114.587 12.0253C114.541 12.5878 114.236 12.8925 113.673 12.9394H108.723C108.367 12.9581 108.072 13.0941 107.837 13.3472C107.603 13.6003 107.43 13.8909 107.317 14.2191C107.214 14.5378 107.162 14.8659 107.162 15.2034C107.162 15.5409 107.214 15.8738 107.317 16.2019C107.43 16.5206 107.603 16.8066 107.837 17.0597C108.072 17.3128 108.367 17.4488 108.723 17.4675H113.673C113.936 17.4769 114.151 17.5753 114.32 17.7628C114.498 17.9503 114.587 18.1753 114.587 18.4378C114.578 18.6909 114.484 18.9066 114.306 19.0847C114.137 19.2534 113.926 19.3425 113.673 19.3519H108.512H108.245C107.589 19.3144 107.045 19.0659 106.614 18.6066C106.192 18.1378 105.887 17.6081 105.7 17.0175C105.522 16.4269 105.433 15.8222 105.433 15.2034C105.433 14.5847 105.526 13.98 105.714 13.3894C105.901 12.7988 106.206 12.2738 106.628 11.8144C107.05 11.3456 107.589 11.0925 108.245 11.055ZM114.559 15.1472C114.559 15.4097 114.466 15.63 114.278 15.8081C114.1 15.9956 113.88 16.0894 113.617 16.0894H109.37C109.108 16.0894 108.883 16.0003 108.695 15.8222C108.517 15.6347 108.428 15.4097 108.428 15.1472C108.428 14.8847 108.517 14.6597 108.695 14.4722C108.883 14.2941 109.108 14.205 109.37 14.205H113.617C113.88 14.205 114.1 14.2988 114.278 14.4863C114.466 14.6644 114.559 14.8847 114.559 15.1472Z" fill="#FBC706"/>
</svg>
