<svg width="140" height="47" viewBox="0 0 140 47" fill="none" xmlns="http://www.w3.org/2000/svg">
<path d="M1.91999 45.24V1.31999H138.238L138.158 37.9407L135.955 42.5354L134.583 45.24H1.91999Z" stroke="#F75049" stroke-opacity="0.3" stroke-width="1.92"/>
<path d="M31.6684 19.3558C31.6684 19.7495 31.5278 20.08 31.2466 20.3472C30.9794 20.6284 30.6489 20.7691 30.2552 20.7691H21.8177C21.5505 20.7831 21.3255 20.8464 21.1427 20.9589C20.9739 21.0574 20.8474 21.1769 20.763 21.3175C20.6786 21.4441 20.6364 21.5777 20.6364 21.7183C20.6364 21.8589 20.6786 21.9995 20.763 22.1402C20.8474 22.2667 20.9739 22.3863 21.1427 22.4988C21.3255 22.5972 21.5505 22.6534 21.8177 22.6675H27.8083C28.7927 22.6956 29.6013 22.9277 30.2341 23.3636C30.8809 23.7855 31.338 24.2777 31.6052 24.8402C31.8864 25.3886 32.027 25.9511 32.027 26.5277C32.027 27.0902 31.8864 27.6527 31.6052 28.2152C31.3239 28.7636 30.8669 29.2558 30.2341 29.6917C29.6013 30.1136 28.7927 30.3245 27.8083 30.3245H27.6817C27.5974 30.3386 27.513 30.3456 27.4286 30.3456H19.4552C19.0614 30.3456 18.7239 30.212 18.4427 29.9449C18.1755 29.6636 18.0419 29.3261 18.0419 28.9324C18.0419 28.5386 18.1825 28.2081 18.4638 27.9409C18.7309 27.6597 19.0614 27.5191 19.4552 27.5191H27.9349C28.202 27.5331 28.42 27.4839 28.5888 27.3714C28.7716 27.2589 28.9052 27.1324 28.9895 26.9917C29.0739 26.837 29.1161 26.6824 29.1161 26.5277C29.1161 26.4292 29.0739 26.2956 28.9895 26.1269C28.9052 25.9441 28.7716 25.7964 28.5888 25.6839C28.42 25.5714 28.202 25.5081 27.9349 25.4941H21.9442C20.9599 25.4659 20.1442 25.2409 19.4974 24.8191C18.8645 24.3972 18.4075 23.9191 18.1263 23.3847C17.8591 22.8363 17.7255 22.2808 17.7255 21.7183C17.7255 21.1699 17.8661 20.6284 18.1474 20.0941C18.4286 19.5456 18.8856 19.0605 19.5184 18.6386C20.1513 18.2167 20.9599 17.9917 21.9442 17.9636H22.0708C22.1552 17.9495 22.2395 17.9425 22.3239 17.9425H30.2552C30.6489 17.9425 30.9794 18.0831 31.2466 18.3644C31.5278 18.6316 31.6684 18.962 31.6684 19.3558ZM33.0826 28.9745C33.0826 28.5808 33.2162 28.2503 33.4834 27.9831C33.7646 27.7019 34.1021 27.5613 34.4959 27.5613H38.5459V20.7691H34.4959C34.1021 20.7691 33.7716 20.6284 33.5044 20.3472C33.2232 20.08 33.0826 19.7495 33.0826 19.3558C33.0826 18.962 33.2162 18.6316 33.4834 18.3644C33.7646 18.0831 34.1021 17.9425 34.4959 17.9425H45.4224C45.8162 17.9425 46.1537 18.0761 46.4349 18.3433C46.7021 18.6245 46.8357 18.962 46.8357 19.3558C46.8357 19.7495 46.6951 20.087 46.4138 20.3683C46.1466 20.6355 45.8162 20.7691 45.4224 20.7691H41.3935V27.5613H45.4224C45.8162 27.5613 46.1537 27.6949 46.4349 27.962C46.7021 28.2433 46.8357 28.5808 46.8357 28.9745C46.8357 29.3683 46.6951 29.7058 46.4138 29.987C46.1466 30.2542 45.8162 30.3878 45.4224 30.3878H34.4959C34.1021 30.3878 33.7716 30.2472 33.5044 29.9659C33.2232 29.6988 33.0826 29.3683 33.0826 28.9745ZM52.1522 17.9425H61.0537C61.4475 17.9566 61.7709 18.1042 62.024 18.3855C62.2912 18.6667 62.4248 19.0042 62.4248 19.398C62.3545 20.2417 61.8975 20.6988 61.0537 20.7691H52.8694C52.335 20.7972 51.892 21.0011 51.5404 21.3808C51.1889 21.7605 50.9287 22.1964 50.76 22.6886C50.6053 23.1667 50.5279 23.6589 50.5279 24.1652C50.5279 24.6714 50.6053 25.1706 50.76 25.6628C50.9287 26.1409 51.1889 26.5699 51.5404 26.9495C51.892 27.3292 52.335 27.5331 52.8694 27.5613H59.2819C59.535 27.5472 59.6686 27.4066 59.6826 27.1394V25.9159C59.6686 25.6347 59.535 25.4941 59.2819 25.4941H53.8819C53.4881 25.4941 53.1506 25.3605 52.8694 25.0933C52.6022 24.812 52.4686 24.4745 52.4686 24.0808C52.4686 23.687 52.6022 23.3495 52.8694 23.0683C53.1506 22.8011 53.4881 22.6675 53.8819 22.6675H61.0959C61.4897 22.6675 61.8272 22.8011 62.1084 23.0683C62.3615 23.3355 62.4951 23.6589 62.5092 24.0386V24.0808V29.0167C62.4951 29.3964 62.3615 29.7128 62.1084 29.9659C61.8412 30.2331 61.5178 30.3738 61.1381 30.3878H52.1522C51.1678 30.3316 50.3522 29.9589 49.7053 29.2699C49.0725 28.5667 48.6154 27.7722 48.3342 26.8863C48.067 26.0003 47.9334 25.0933 47.9334 24.1652C47.9334 23.237 48.074 22.33 48.3553 21.4441C48.6365 20.5581 49.0936 19.7706 49.7264 19.0816C50.3592 18.3784 51.1678 17.9988 52.1522 17.9425ZM70.9897 17.373C71.721 17.373 72.4382 17.4574 73.1413 17.6261C73.8585 17.7949 74.5405 18.048 75.1874 18.3855C75.8343 18.7089 76.4038 19.1449 76.896 19.6933C77.4022 20.2417 77.6765 20.8956 77.7186 21.655V22.5409V29.2699C77.6343 30.1136 77.1702 30.5706 76.3265 30.6409C75.9327 30.6409 75.5882 30.5144 75.2929 30.2613C75.0116 29.9941 74.871 29.6636 74.871 29.2699V22.3089C74.8429 21.873 74.6741 21.5144 74.3647 21.2331C74.0694 20.9378 73.7319 20.7058 73.3522 20.537C72.9866 20.3683 72.5999 20.2417 72.1921 20.1574C71.7983 20.073 71.3975 20.0308 70.9897 20.0308C70.5819 20.0308 70.1741 20.073 69.7663 20.1574C69.3725 20.2417 68.9858 20.3683 68.6061 20.537C68.2405 20.7058 67.903 20.9378 67.5936 21.2331C67.2983 21.5144 67.1366 21.873 67.1085 22.3089V29.2699C67.0382 30.1136 66.5811 30.5706 65.7374 30.6409C65.3436 30.6409 64.9991 30.5144 64.7038 30.2613C64.4225 29.9941 64.2819 29.6636 64.2819 29.2699V22.5409V21.655C64.3241 20.8956 64.5913 20.2417 65.0835 19.6933C65.5757 19.1449 66.1452 18.7089 66.7921 18.3855C67.439 18.048 68.114 17.7949 68.8171 17.6261C69.5343 17.4574 70.2585 17.373 70.9897 17.373ZM96.1774 30.873C95.4461 30.873 94.7219 30.7886 94.0047 30.6199C93.3016 30.4511 92.6266 30.205 91.9797 29.8816C91.3328 29.5441 90.7633 29.1011 90.2711 28.5527C89.7789 28.0042 89.5117 27.3503 89.4695 26.5909V25.705V18.9761C89.4695 18.5824 89.6102 18.2589 89.8914 18.0058C90.1867 17.7386 90.5313 17.605 90.925 17.605C91.7688 17.6753 92.2258 18.1324 92.2961 18.9761V25.937C92.3242 26.373 92.4859 26.7386 92.7813 27.0339C93.0906 27.3152 93.4281 27.5402 93.7938 27.7089C94.1734 27.8777 94.5602 28.0042 94.9539 28.0886C95.3617 28.173 95.7695 28.2152 96.1774 28.2152C96.5852 28.2152 96.9859 28.173 97.3797 28.0886C97.7875 28.0042 98.1742 27.8777 98.5399 27.7089C98.9195 27.5402 99.257 27.3152 99.5524 27.0339C99.8617 26.7386 100.03 26.373 100.059 25.937V18.9761C100.059 18.5824 100.199 18.2589 100.48 18.0058C100.776 17.7386 101.12 17.605 101.514 17.605C102.358 17.6753 102.822 18.1324 102.906 18.9761V25.705V26.5909C102.864 27.3503 102.59 28.0042 102.084 28.5527C101.591 29.1011 101.022 29.5441 100.375 29.8816C99.7281 30.205 99.0461 30.4511 98.3289 30.6199C97.6258 30.7886 96.9086 30.873 96.1774 30.873ZM107.695 29.2699C107.611 30.1136 107.147 30.5706 106.303 30.6409C105.909 30.6409 105.565 30.5144 105.27 30.2613C104.988 29.9941 104.848 29.6636 104.848 29.2699V19.3136C104.862 18.9199 105.009 18.5964 105.291 18.3433C105.572 18.0761 105.909 17.9425 106.303 17.9425H115.163C116.4 17.9847 117.335 18.2589 117.968 18.7652C118.601 19.2574 119.058 19.8199 119.339 20.4527C119.62 21.0855 119.761 21.7253 119.761 22.3722C119.761 23.0472 119.62 23.7011 119.339 24.3339C119.072 24.9667 118.615 25.5363 117.968 26.0425C117.335 26.5347 116.527 26.7738 115.542 26.7597H110.227C109.833 26.7597 109.502 26.6191 109.235 26.3378C108.954 26.0706 108.813 25.7402 108.813 25.3464C108.813 24.9527 108.947 24.6222 109.214 24.355C109.495 24.0738 109.833 23.9331 110.227 23.9331H115.669C115.936 23.9331 116.154 23.8488 116.323 23.68C116.506 23.4972 116.639 23.2933 116.724 23.0683C116.808 22.8292 116.85 22.5902 116.85 22.3511C116.85 22.1261 116.808 21.9011 116.724 21.6761C116.639 21.437 116.506 21.2331 116.323 21.0644C116.154 20.8816 115.936 20.7831 115.669 20.7691H108.244C107.878 20.7831 107.695 20.9659 107.695 21.3175V29.2699Z" fill="#F75049"/>
</svg>
