<svg width="93" height="31" viewBox="0 0 93 31" fill="none" xmlns="http://www.w3.org/2000/svg">
<path d="M0.64 29.92V0.64H91.5186L91.4655 25.0539L89.997 28.1169L89.0822 29.92H0.64Z" stroke="#F75049" stroke-opacity="0.3" stroke-width="1.28"/>
<path d="M18.5442 10.83C18.8067 10.83 19.0317 10.9191 19.2192 11.0972C19.4067 11.2659 19.5051 11.4816 19.5145 11.7441V15.1331C19.5051 15.5175 19.5286 15.8738 19.5848 16.2019C19.6504 16.5206 19.8004 16.8066 20.0348 17.0597C20.2692 17.3128 20.5645 17.4488 20.9208 17.4675H25.4208C25.6833 17.4769 25.8989 17.5753 26.0676 17.7628C26.2458 17.9503 26.3348 18.1753 26.3348 18.4378C26.3254 18.6909 26.2317 18.9066 26.0536 19.0847C25.8848 19.2534 25.6739 19.3425 25.4208 19.3519H20.4426C19.7864 19.3144 19.2426 19.0941 18.8114 18.6909C18.3895 18.2784 18.0848 17.7769 17.8973 17.1863C17.7192 16.5956 17.6254 15.9675 17.6161 15.3019V11.7441C17.6254 11.4909 17.7192 11.28 17.8973 11.1113C18.0754 10.9331 18.2911 10.8394 18.5442 10.83ZM34.6463 11.055C35.1244 11.0644 35.551 11.2144 35.926 11.505C36.301 11.7956 36.601 12.1425 36.826 12.5456C37.0604 12.9488 37.2338 13.3753 37.3463 13.8253C37.4588 14.2753 37.5151 14.7347 37.5151 15.2034C37.5151 15.8222 37.4166 16.4316 37.2198 17.0316C37.0323 17.6222 36.7182 18.1472 36.2776 18.6066C35.8463 19.0659 35.3026 19.3144 34.6463 19.3519H29.7385C29.0823 19.3238 28.5338 19.08 28.0932 18.6206C27.6526 18.1613 27.3385 17.6316 27.151 17.0316C26.9729 16.4316 26.8838 15.8222 26.8838 15.2034C26.8838 14.5847 26.9776 13.98 27.1651 13.3894C27.3526 12.7894 27.6619 12.2597 28.0932 11.8003C28.5338 11.3316 29.0823 11.0831 29.7385 11.055H30.0057H34.3791H34.6463ZM34.1682 17.4675C34.5244 17.4488 34.8198 17.3175 35.0541 17.0738C35.2979 16.8206 35.4713 16.53 35.5744 16.2019C35.6776 15.8738 35.7291 15.5409 35.7291 15.2034C35.7291 14.8659 35.6729 14.5378 35.5604 14.2191C35.4573 13.8909 35.2885 13.6003 35.0541 13.3472C34.8198 13.0941 34.5244 12.9581 34.1682 12.9394H30.1744C29.8182 12.9581 29.5229 13.0941 29.2885 13.3472C29.0541 13.6003 28.8807 13.8909 28.7682 14.2191C28.6651 14.5378 28.6135 14.8659 28.6135 15.2034C28.6135 15.5409 28.6651 15.8738 28.7682 16.2019C28.8713 16.53 29.0401 16.8206 29.2744 17.0738C29.5182 17.3175 29.8182 17.4488 30.1744 17.4675H34.1682ZM41.1438 11.055H47.0781C47.3406 11.0644 47.5563 11.1628 47.725 11.3503C47.9031 11.5378 47.9922 11.7628 47.9922 12.0253C47.9453 12.5878 47.6406 12.8925 47.0781 12.9394H41.6219C41.2656 12.9581 40.9703 13.0941 40.7359 13.3472C40.5016 13.6003 40.3281 13.8909 40.2156 14.2191C40.1125 14.5378 40.0609 14.8659 40.0609 15.2034C40.0609 15.5409 40.1125 15.8738 40.2156 16.2019C40.3281 16.5206 40.5016 16.8066 40.7359 17.0597C40.9703 17.3128 41.2656 17.4488 41.6219 17.4675H45.8969C46.0656 17.4581 46.1547 17.3644 46.1641 17.1863V16.3706C46.1547 16.1831 46.0656 16.0894 45.8969 16.0894H42.2969C42.0344 16.0894 41.8094 16.0003 41.6219 15.8222C41.4438 15.6347 41.3547 15.4097 41.3547 15.1472C41.3547 14.8847 41.4438 14.6597 41.6219 14.4722C41.8094 14.2941 42.0344 14.205 42.2969 14.205H47.1063C47.3688 14.205 47.5938 14.2941 47.7813 14.4722C47.95 14.6503 48.0391 14.8659 48.0484 15.1191V15.1472V18.4378C48.0391 18.6909 47.95 18.9019 47.7813 19.0706C47.6031 19.2488 47.3875 19.3425 47.1344 19.3519H41.1438C40.4875 19.3144 39.9438 19.0659 39.5125 18.6066C39.0906 18.1378 38.7859 17.6081 38.5984 17.0175C38.4203 16.4269 38.3313 15.8222 38.3313 15.2034C38.3313 14.5847 38.425 13.98 38.6125 13.3894C38.8 12.7988 39.1047 12.2738 39.5266 11.8144C39.9484 11.3456 40.4875 11.0925 41.1438 11.055ZM55.5449 18.4097C55.5449 18.1472 55.6339 17.9269 55.8121 17.7488C55.9996 17.5613 56.2246 17.4675 56.4871 17.4675H59.1871V12.9394H56.4871C56.2246 12.9394 56.0043 12.8456 55.8261 12.6581C55.6386 12.48 55.5449 12.2597 55.5449 11.9972C55.5449 11.7347 55.6339 11.5144 55.8121 11.3363C55.9996 11.1488 56.2246 11.055 56.4871 11.055H63.7714C64.0339 11.055 64.2589 11.1441 64.4464 11.3222C64.6246 11.5097 64.7136 11.7347 64.7136 11.9972C64.7136 12.2597 64.6199 12.4847 64.4324 12.6722C64.2543 12.8503 64.0339 12.9394 63.7714 12.9394H61.0855V17.4675H63.7714C64.0339 17.4675 64.2589 17.5566 64.4464 17.7347C64.6246 17.9222 64.7136 18.1472 64.7136 18.4097C64.7136 18.6722 64.6199 18.8972 64.4324 19.0847C64.2543 19.2628 64.0339 19.3519 63.7714 19.3519H56.4871C56.2246 19.3519 56.0043 19.2581 55.8261 19.0706C55.6386 18.8925 55.5449 18.6722 55.5449 18.4097ZM70.072 10.6753C70.5595 10.6753 71.0376 10.7316 71.5064 10.8441C71.9845 10.9566 72.4392 11.1253 72.8704 11.3503C73.3017 11.5659 73.6814 11.8566 74.0095 12.2222C74.347 12.5878 74.5298 13.0238 74.5579 13.53V14.1206V18.6066C74.5017 19.1691 74.1923 19.4738 73.6298 19.5206C73.3673 19.5206 73.1376 19.4363 72.9408 19.2675C72.7533 19.0894 72.6595 18.8691 72.6595 18.6066V13.9659C72.6408 13.6753 72.5283 13.4363 72.322 13.2488C72.1251 13.0519 71.9001 12.8972 71.647 12.7847C71.4033 12.6722 71.1454 12.5878 70.8736 12.5316C70.6111 12.4753 70.3439 12.4472 70.072 12.4472C69.8001 12.4472 69.5283 12.4753 69.2564 12.5316C68.9939 12.5878 68.7361 12.6722 68.4829 12.7847C68.2392 12.8972 68.0142 13.0519 67.8079 13.2488C67.6111 13.4363 67.5033 13.6753 67.4845 13.9659V18.6066C67.4376 19.1691 67.1329 19.4738 66.5704 19.5206C66.3079 19.5206 66.0783 19.4363 65.8814 19.2675C65.6939 19.0894 65.6001 18.8691 65.6001 18.6066V14.1206V13.53C65.6283 13.0238 65.8064 12.5878 66.1345 12.2222C66.4626 11.8566 66.8423 11.5659 67.2736 11.3503C67.7048 11.1253 68.1548 10.9566 68.6236 10.8441C69.1017 10.7316 69.5845 10.6753 70.072 10.6753Z" fill="#F75049"/>
</svg>
