<svg width="99" height="9" viewBox="0 0 99 9" fill="none" xmlns="http://www.w3.org/2000/svg">
<path opacity="0.5" d="M0.928 2.66H1.276C1.47067 2.66 1.568 2.56133 1.568 2.364V1.064C1.568 0.866667 1.47067 0.768 1.276 0.768H0.928C0.736 0.768 0.64 0.866667 0.64 1.064V2.364C0.64 2.56133 0.736 2.66 0.928 2.66ZM1.336 3H0.872C0.674667 3 0.521333 2.94533 0.412 2.836C0.305333 2.72667 0.252 2.57467 0.252 2.38V1.048C0.252 0.850667 0.305333 0.698666 0.412 0.592C0.521333 0.482667 0.674667 0.428 0.872 0.428H1.336C1.53333 0.428 1.68667 0.482667 1.796 0.592C1.90533 0.698666 1.96 0.850667 1.96 1.048V2.38C1.96 2.57467 1.90533 2.72667 1.796 2.836C1.68667 2.94533 1.53333 3 1.336 3ZM2.81503 3H2.56703C2.5217 3 2.49903 2.97733 2.49903 2.932V0.496C2.49903 0.450667 2.5217 0.428 2.56703 0.428H2.79103C2.8337 0.428 2.86303 0.442667 2.87903 0.472L3.84703 2.212H3.86303V0.496C3.86303 0.450667 3.8857 0.428 3.93103 0.428H4.17903C4.22436 0.428 4.24703 0.450667 4.24703 0.496V2.932C4.24703 2.97733 4.22436 3 4.17903 3H3.96303C3.92036 3 3.8857 2.97867 3.85903 2.936L2.89903 1.216H2.88303V2.932C2.88303 2.97733 2.86036 3 2.81503 3ZM6.19506 3H4.89906C4.85373 3 4.83106 2.97733 4.83106 2.932V0.496C4.83106 0.450667 4.85373 0.428 4.89906 0.428H5.15106C5.1964 0.428 5.21906 0.450667 5.21906 0.496V2.612C5.21906 2.63867 5.23506 2.652 5.26706 2.652H6.19506C6.2404 2.652 6.26306 2.676 6.26306 2.724V2.932C6.26306 2.97733 6.2404 3 6.19506 3ZM7.48384 3H7.22784C7.18251 3 7.15984 2.97733 7.15984 2.932V2.048L6.41184 0.5C6.40118 0.478667 6.40118 0.461333 6.41184 0.448C6.42251 0.434667 6.43718 0.428 6.45584 0.428H6.77584C6.81051 0.428 6.83718 0.450667 6.85584 0.496L7.34784 1.596H7.37184L7.85584 0.496C7.87184 0.450667 7.89851 0.428 7.93584 0.428H8.25584C8.27718 0.428 8.29184 0.434667 8.29984 0.448C8.31051 0.461333 8.31051 0.478667 8.29984 0.5L7.55184 2.048V2.932C7.55184 2.97733 7.52918 3 7.48384 3ZM10.6602 3H10.1962C9.99889 3 9.84555 2.94533 9.73622 2.836C9.62955 2.72667 9.57622 2.57467 9.57622 2.38V1.048C9.57622 0.850667 9.62955 0.698666 9.73622 0.592C9.84555 0.482667 9.99889 0.428 10.1962 0.428H10.6602C10.8549 0.428 11.0069 0.482667 11.1162 0.592C11.2256 0.698666 11.2802 0.850667 11.2802 1.048V1.24C11.2802 1.288 11.2562 1.312 11.2082 1.312H10.9562C10.9109 1.312 10.8882 1.288 10.8882 1.24V1.064C10.8882 0.866667 10.7922 0.768 10.6002 0.768H10.2522C10.0602 0.768 9.96422 0.866667 9.96422 1.064V2.364C9.96422 2.56133 10.0602 2.66 10.2522 2.66H10.6002C10.7922 2.66 10.8882 2.56133 10.8882 2.364V2.188C10.8882 2.14 10.9109 2.116 10.9562 2.116H11.2082C11.2562 2.116 11.2802 2.14 11.2802 2.188V2.38C11.2802 2.57467 11.2256 2.72667 11.1162 2.836C11.0069 2.94533 10.8549 3 10.6602 3ZM12.8204 3H12.3564C12.159 3 12.0057 2.94533 11.8964 2.836C11.7897 2.72667 11.7364 2.57467 11.7364 2.38V1.048C11.7364 0.850667 11.7897 0.698666 11.8964 0.592C12.0057 0.482667 12.159 0.428 12.3564 0.428H12.8204C13.015 0.428 13.167 0.482667 13.2764 0.592C13.3857 0.698666 13.4404 0.850667 13.4404 1.048V1.24C13.4404 1.288 13.4164 1.312 13.3684 1.312H13.1164C13.071 1.312 13.0484 1.288 13.0484 1.24V1.064C13.0484 0.866667 12.9524 0.768 12.7604 0.768H12.4124C12.2204 0.768 12.1244 0.866667 12.1244 1.064V2.364C12.1244 2.56133 12.2204 2.66 12.4124 2.66H12.7604C12.9524 2.66 13.0484 2.56133 13.0484 2.364V2.188C13.0484 2.14 13.071 2.116 13.1164 2.116H13.3684C13.4164 2.116 13.4404 2.14 13.4404 2.188V2.38C13.4404 2.57467 13.3857 2.72667 13.2764 2.836C13.167 2.94533 13.015 3 12.8204 3ZM14.5285 1.548H14.7485C14.9459 1.548 15.0445 1.45067 15.0445 1.256V1.048C15.0445 0.856 14.9459 0.76 14.7485 0.76H14.5125C14.4139 0.76 14.3405 0.782667 14.2925 0.828C14.2472 0.873333 14.2245 0.946667 14.2245 1.048V1.164C14.2245 1.20933 14.2019 1.232 14.1565 1.232H13.9005C13.8552 1.232 13.8325 1.20933 13.8325 1.164V1.04C13.8325 0.845333 13.8872 0.694667 13.9965 0.588C14.1059 0.481333 14.2592 0.428 14.4565 0.428H14.8045C15.0019 0.428 15.1552 0.481333 15.2645 0.588C15.3739 0.694667 15.4285 0.845333 15.4285 1.04V1.26C15.4285 1.49467 15.3219 1.644 15.1085 1.708C15.3219 1.75867 15.4285 1.908 15.4285 2.156V2.388C15.4285 2.58267 15.3739 2.73333 15.2645 2.84C15.1552 2.94667 15.0019 3 14.8045 3H14.4565C14.2592 3 14.1059 2.94667 13.9965 2.84C13.8872 2.73333 13.8325 2.58267 13.8325 2.388V2.248C13.8325 2.2 13.8552 2.176 13.9005 2.176H14.1565C14.2019 2.176 14.2245 2.2 14.2245 2.248V2.38C14.2245 2.47867 14.2472 2.552 14.2925 2.6C14.3405 2.64533 14.4139 2.668 14.5125 2.668H14.7485C14.9459 2.668 15.0445 2.572 15.0445 2.38V2.16C15.0445 1.96533 14.9459 1.868 14.7485 1.868H14.5285C14.4832 1.868 14.4605 1.84533 14.4605 1.8V1.62C14.4605 1.572 14.4832 1.548 14.5285 1.548ZM16.7642 1.64H16.5162C16.4655 1.64 16.4228 1.64933 16.3882 1.668C16.3562 1.68667 16.3348 1.70667 16.3242 1.728C16.2948 1.78933 16.2588 1.82 16.2162 1.82H15.9642C15.9188 1.82 15.8962 1.79733 15.8962 1.752V0.496C15.8962 0.450667 15.9188 0.428 15.9642 0.428H17.3202C17.3682 0.428 17.3922 0.450667 17.3922 0.496V0.724C17.3922 0.769333 17.3682 0.792 17.3202 0.792H16.2882V1.52C16.3335 1.38933 16.4455 1.324 16.6242 1.324H16.8602C17.0522 1.324 17.1988 1.37467 17.3002 1.476C17.4015 1.57467 17.4522 1.72133 17.4522 1.916V2.38C17.4522 2.57467 17.3975 2.72667 17.2882 2.836C17.1788 2.94533 17.0268 3 16.8322 3H16.4922C16.2948 3 16.1415 2.94533 16.0322 2.836C15.9255 2.72667 15.8722 2.57467 15.8722 2.38V2.276C15.8722 2.228 15.8948 2.204 15.9402 2.204H16.1922C16.2375 2.204 16.2602 2.228 16.2602 2.276V2.376C16.2602 2.57067 16.3562 2.668 16.5482 2.668H16.7762C16.9735 2.668 17.0722 2.57067 17.0722 2.376V1.972C17.0722 1.852 17.0482 1.76667 17.0002 1.716C16.9548 1.66533 16.8762 1.64 16.7642 1.64ZM19.9376 3H19.4736C19.2762 3 19.1229 2.94533 19.0136 2.836C18.9069 2.72667 18.8536 2.57467 18.8536 2.38V1.048C18.8536 0.850667 18.9069 0.698666 19.0136 0.592C19.1229 0.482667 19.2762 0.428 19.4736 0.428H19.9376C20.1322 0.428 20.2842 0.482667 20.3936 0.592C20.5029 0.698666 20.5576 0.850667 20.5576 1.048V1.24C20.5576 1.288 20.5336 1.312 20.4856 1.312H20.2336C20.1882 1.312 20.1656 1.288 20.1656 1.24V1.064C20.1656 0.866667 20.0696 0.768 19.8776 0.768H19.5296C19.3376 0.768 19.2416 0.866667 19.2416 1.064V2.364C19.2416 2.56133 19.3376 2.66 19.5296 2.66H19.8776C20.0696 2.66 20.1656 2.56133 20.1656 2.364V2.188C20.1656 2.14 20.1882 2.116 20.2336 2.116H20.4856C20.5336 2.116 20.5576 2.14 20.5576 2.188V2.38C20.5576 2.57467 20.5029 2.72667 20.3936 2.836C20.2842 2.94533 20.1322 3 19.9376 3ZM22.4017 3H21.1217C21.0764 3 21.0537 2.97733 21.0537 2.932V0.496C21.0537 0.450667 21.0764 0.428 21.1217 0.428H22.4017C22.4444 0.428 22.4657 0.450667 22.4657 0.496V0.7C22.4657 0.745333 22.4444 0.768 22.4017 0.768H21.4897C21.4577 0.768 21.4417 0.781333 21.4417 0.808V1.484C21.4417 1.51067 21.4577 1.524 21.4897 1.524H22.2617C22.3097 1.524 22.3337 1.54667 22.3337 1.592V1.796C22.3337 1.84133 22.3097 1.864 22.2617 1.864H21.4897C21.4577 1.864 21.4417 1.87733 21.4417 1.904V2.616C21.4417 2.64533 21.4577 2.66 21.4897 2.66H22.4017C22.4444 2.66 22.4657 2.68267 22.4657 2.728V2.932C22.4657 2.97733 22.4444 3 22.4017 3ZM23.2956 3H23.0436C22.9983 3 22.9756 2.97733 22.9756 2.932V0.496C22.9756 0.450667 22.9983 0.428 23.0436 0.428H23.9796C24.1743 0.428 24.3263 0.484 24.4356 0.596C24.5476 0.705333 24.6036 0.857333 24.6036 1.052V1.388C24.6036 1.69467 24.4769 1.888 24.2236 1.968V1.984L24.6676 2.92C24.6969 2.97333 24.6796 3 24.6156 3H24.3676C24.3036 3 24.2623 2.97733 24.2436 2.932L23.8156 2.012H23.4116C23.3796 2.012 23.3636 2.02533 23.3636 2.052V2.932C23.3636 2.97733 23.3409 3 23.2956 3ZM23.4076 1.692H23.9156C24.1129 1.692 24.2116 1.59467 24.2116 1.4V1.064C24.2116 0.866667 24.1129 0.768 23.9156 0.768H23.4076C23.3783 0.768 23.3636 0.781333 23.3636 0.808V1.652C23.3636 1.67867 23.3783 1.692 23.4076 1.692ZM25.8476 3H25.5956C25.5476 3 25.5236 2.97733 25.5236 2.932V0.808C25.5236 0.781333 25.5102 0.768 25.4836 0.768H24.9796C24.9316 0.768 24.9076 0.745333 24.9076 0.7V0.496C24.9076 0.450667 24.9316 0.428 24.9796 0.428H26.4636C26.5116 0.428 26.5356 0.450667 26.5356 0.496V0.7C26.5356 0.745333 26.5116 0.768 26.4636 0.768H25.9596C25.9302 0.768 25.9156 0.781333 25.9156 0.808V2.932C25.9156 2.97733 25.8929 3 25.8476 3ZM27.2859 0.496V2.932C27.2859 2.97733 27.2633 3 27.2179 3H26.9659C26.9206 3 26.8979 2.97733 26.8979 2.932V0.496C26.8979 0.450667 26.9206 0.428 26.9659 0.428H27.2179C27.2633 0.428 27.2859 0.450667 27.2859 0.496ZM28.2097 3H27.9577C27.9123 3 27.8897 2.97733 27.8897 2.932V0.496C27.8897 0.450667 27.9123 0.428 27.9577 0.428H29.2137C29.259 0.428 29.2817 0.450667 29.2817 0.496V0.7C29.2817 0.745333 29.259 0.768 29.2137 0.768H28.3257C28.2937 0.768 28.2777 0.781333 28.2777 0.808V1.564C28.2777 1.59333 28.2937 1.608 28.3257 1.608H29.0977C29.1457 1.608 29.1697 1.63067 29.1697 1.676V1.876C29.1697 1.924 29.1457 1.948 29.0977 1.948H28.3257C28.2937 1.948 28.2777 1.96133 28.2777 1.988V2.932C28.2777 2.97733 28.255 3 28.2097 3ZM30.1141 0.496V2.932C30.1141 2.97733 30.0914 3 30.0461 3H29.7941C29.7487 3 29.7261 2.97733 29.7261 2.932V0.496C29.7261 0.450667 29.7487 0.428 29.7941 0.428H30.0461C30.0914 0.428 30.1141 0.450667 30.1141 0.496ZM32.0658 3H30.7858C30.7404 3 30.7178 2.97733 30.7178 2.932V0.496C30.7178 0.450667 30.7404 0.428 30.7858 0.428H32.0658C32.1084 0.428 32.1298 0.450667 32.1298 0.496V0.7C32.1298 0.745333 32.1084 0.768 32.0658 0.768H31.1538C31.1218 0.768 31.1058 0.781333 31.1058 0.808V1.484C31.1058 1.51067 31.1218 1.524 31.1538 1.524H31.9258C31.9738 1.524 31.9978 1.54667 31.9978 1.592V1.796C31.9978 1.84133 31.9738 1.864 31.9258 1.864H31.1538C31.1218 1.864 31.1058 1.87733 31.1058 1.904V2.616C31.1058 2.64533 31.1218 2.66 31.1538 2.66H32.0658C32.1084 2.66 32.1298 2.68267 32.1298 2.728V2.932C32.1298 2.97733 32.1084 3 32.0658 3ZM33.0717 2.66H33.6357C33.8277 2.66 33.9237 2.56133 33.9237 2.364V1.064C33.9237 0.866667 33.8277 0.768 33.6357 0.768H33.0717C33.0423 0.768 33.0277 0.781333 33.0277 0.808V2.616C33.0277 2.64533 33.0423 2.66 33.0717 2.66ZM32.6397 2.932V0.496C32.6397 0.450667 32.6623 0.428 32.7077 0.428H33.6917C33.8863 0.428 34.0383 0.482667 34.1477 0.592C34.2597 0.698666 34.3157 0.850667 34.3157 1.048V2.38C34.3157 2.57467 34.2597 2.72667 34.1477 2.836C34.0383 2.94533 33.8863 3 33.6917 3H32.7077C32.6623 3 32.6397 2.97733 32.6397 2.932ZM35.9515 3H35.6635C35.6262 3 35.6129 2.97733 35.6235 2.932L36.3195 0.496C36.3329 0.450667 36.3649 0.428 36.4155 0.428H36.8155C36.8689 0.428 36.9009 0.450667 36.9115 0.496L37.6075 2.932C37.6182 2.97733 37.6035 3 37.5635 3H37.2795C37.2555 3 37.2382 2.996 37.2275 2.988C37.2195 2.97733 37.2129 2.95867 37.2075 2.932L37.0555 2.412H36.1755L36.0235 2.932C36.0129 2.97733 35.9889 3 35.9515 3ZM36.6075 0.812L36.2555 2.092H36.9795L36.6235 0.812H36.6075ZM38.3189 3H38.0709C38.0256 3 38.0029 2.97733 38.0029 2.932V0.496C38.0029 0.450667 38.0256 0.428 38.0709 0.428H38.2949C38.3376 0.428 38.3669 0.442667 38.3829 0.472L39.3509 2.212H39.3669V0.496C39.3669 0.450667 39.3896 0.428 39.4349 0.428H39.6829C39.7283 0.428 39.7509 0.450667 39.7509 0.496V2.932C39.7509 2.97733 39.7283 3 39.6829 3H39.4669C39.4243 3 39.3896 2.97867 39.3629 2.936L38.4029 1.216H38.3869V2.932C38.3869 2.97733 38.3643 3 38.3189 3ZM40.767 2.66H41.331C41.523 2.66 41.619 2.56133 41.619 2.364V1.064C41.619 0.866667 41.523 0.768 41.331 0.768H40.767C40.7376 0.768 40.723 0.781333 40.723 0.808V2.616C40.723 2.64533 40.7376 2.66 40.767 2.66ZM40.335 2.932V0.496C40.335 0.450667 40.3576 0.428 40.403 0.428H41.387C41.5816 0.428 41.7336 0.482667 41.843 0.592C41.955 0.698666 42.011 0.850667 42.011 1.048V2.38C42.011 2.57467 41.955 2.72667 41.843 2.836C41.7336 2.94533 41.5816 3 41.387 3H40.403C40.3576 3 40.335 2.97733 40.335 2.932ZM43.9388 2.66H44.5028C44.6948 2.66 44.7908 2.56133 44.7908 2.364V1.064C44.7908 0.866667 44.6948 0.768 44.5028 0.768H43.9388C43.9095 0.768 43.8948 0.781333 43.8948 0.808V2.616C43.8948 2.64533 43.9095 2.66 43.9388 2.66ZM43.5068 2.932V0.496C43.5068 0.450667 43.5295 0.428 43.5748 0.428H44.5588C44.7535 0.428 44.9055 0.482667 45.0148 0.592C45.1268 0.698666 45.1828 0.850667 45.1828 1.048V2.38C45.1828 2.57467 45.1268 2.72667 45.0148 2.836C44.9055 2.94533 44.7535 3 44.5588 3H43.5748C43.5295 3 43.5068 2.97733 43.5068 2.932ZM46.0456 3H45.7936C45.7483 3 45.7256 2.97733 45.7256 2.932V0.496C45.7256 0.450667 45.7483 0.428 45.7936 0.428H46.0456C46.0909 0.428 46.1136 0.450667 46.1136 0.496V1.496C46.1136 1.52267 46.1296 1.536 46.1616 1.536H47.0056C47.0323 1.536 47.0456 1.52267 47.0456 1.496V0.496C47.0456 0.450667 47.0683 0.428 47.1136 0.428H47.3696C47.4149 0.428 47.4376 0.450667 47.4376 0.496V2.932C47.4376 2.97733 47.4149 3 47.3696 3H47.1136C47.0683 3 47.0456 2.97733 47.0456 2.932V1.92C47.0456 1.89333 47.0323 1.88 47.0056 1.88H46.1616C46.1296 1.88 46.1136 1.89333 46.1136 1.92V2.932C46.1136 2.97733 46.0909 3 46.0456 3ZM47.9745 2.376V2.272C47.9745 2.22667 47.9971 2.204 48.0425 2.204H48.2985C48.3438 2.204 48.3665 2.22667 48.3665 2.272V2.344C48.3665 2.456 48.3905 2.53733 48.4385 2.588C48.4891 2.636 48.5718 2.66 48.6865 2.66H48.9625C49.0771 2.66 49.1598 2.63467 49.2105 2.584C49.2611 2.53067 49.2865 2.44533 49.2865 2.328V2.236C49.2865 2.15067 49.2531 2.084 49.1865 2.036C49.1225 1.98533 49.0425 1.95333 48.9465 1.94C48.8505 1.924 48.7451 1.90267 48.6305 1.876C48.5158 1.84933 48.4105 1.81867 48.3145 1.784C48.2185 1.74933 48.1371 1.684 48.0705 1.588C48.0065 1.492 47.9745 1.36933 47.9745 1.22V1.052C47.9745 0.857333 48.0291 0.705333 48.1385 0.596C48.2505 0.484 48.4038 0.428 48.5985 0.428H49.0225C49.2198 0.428 49.3731 0.484 49.4825 0.596C49.5945 0.705333 49.6505 0.857333 49.6505 1.052V1.14C49.6505 1.18533 49.6278 1.208 49.5825 1.208H49.3265C49.2811 1.208 49.2585 1.18533 49.2585 1.14V1.088C49.2585 0.973333 49.2331 0.892 49.1825 0.844C49.1345 0.793333 49.0531 0.768 48.9385 0.768H48.6865C48.5718 0.768 48.4891 0.794667 48.4385 0.848C48.3905 0.898666 48.3665 0.986666 48.3665 1.112V1.236C48.3665 1.356 48.4531 1.43733 48.6265 1.48C48.7038 1.49867 48.7878 1.51467 48.8785 1.528C48.9718 1.54133 49.0651 1.56133 49.1585 1.588C49.2518 1.61467 49.3371 1.65067 49.4145 1.696C49.4918 1.73867 49.5545 1.80533 49.6025 1.896C49.6505 1.984 49.6745 2.092 49.6745 2.22V2.376C49.6745 2.57067 49.6185 2.724 49.5065 2.836C49.3971 2.94533 49.2451 3 49.0505 3H48.6025C48.4078 3 48.2545 2.94533 48.1425 2.836C48.0305 2.724 47.9745 2.57067 47.9745 2.376ZM50.5339 3H50.2819C50.2365 3 50.2139 2.97733 50.2139 2.932V0.496C50.2139 0.450667 50.2365 0.428 50.2819 0.428H51.5379C51.5832 0.428 51.6059 0.450667 51.6059 0.496V0.7C51.6059 0.745333 51.5832 0.768 51.5379 0.768H50.6499C50.6179 0.768 50.6019 0.781333 50.6019 0.808V1.564C50.6019 1.59333 50.6179 1.608 50.6499 1.608H51.4219C51.4699 1.608 51.4939 1.63067 51.4939 1.676V1.876C51.4939 1.924 51.4699 1.948 51.4219 1.948H50.6499C50.6179 1.948 50.6019 1.96133 50.6019 1.988V2.932C50.6019 2.97733 50.5792 3 50.5339 3ZM53.7954 1.64H53.5474C53.4967 1.64 53.4541 1.64933 53.4194 1.668C53.3874 1.68667 53.3661 1.70667 53.3554 1.728C53.3261 1.78933 53.2901 1.82 53.2474 1.82H52.9954C52.9501 1.82 52.9274 1.79733 52.9274 1.752V0.496C52.9274 0.450667 52.9501 0.428 52.9954 0.428H54.3514C54.3994 0.428 54.4234 0.450667 54.4234 0.496V0.724C54.4234 0.769333 54.3994 0.792 54.3514 0.792H53.3194V1.52C53.3647 1.38933 53.4767 1.324 53.6554 1.324H53.8914C54.0834 1.324 54.2301 1.37467 54.3314 1.476C54.4327 1.57467 54.4834 1.72133 54.4834 1.916V2.38C54.4834 2.57467 54.4287 2.72667 54.3194 2.836C54.2101 2.94533 54.0581 3 53.8634 3H53.5234C53.3261 3 53.1727 2.94533 53.0634 2.836C52.9567 2.72667 52.9034 2.57467 52.9034 2.38V2.276C52.9034 2.228 52.9261 2.204 52.9714 2.204H53.2234C53.2687 2.204 53.2914 2.228 53.2914 2.276V2.376C53.2914 2.57067 53.3874 2.668 53.5794 2.668H53.8074C54.0047 2.668 54.1034 2.57067 54.1034 2.376V1.972C54.1034 1.852 54.0794 1.76667 54.0314 1.716C53.9861 1.66533 53.9074 1.64 53.7954 1.64ZM55.6757 3H55.4237C55.3757 3 55.3517 2.97733 55.3517 2.932V0.808C55.3517 0.781333 55.3384 0.768 55.3117 0.768H54.8077C54.7597 0.768 54.7357 0.745333 54.7357 0.7V0.496C54.7357 0.450667 54.7597 0.428 54.8077 0.428H56.2917C56.3397 0.428 56.3637 0.450667 56.3637 0.496V0.7C56.3637 0.745333 56.3397 0.768 56.2917 0.768H55.7877C55.7584 0.768 55.7437 0.781333 55.7437 0.808V2.932C55.7437 2.97733 55.721 3 55.6757 3ZM57.0261 3H56.7741C56.7287 3 56.7061 2.97733 56.7061 2.932V0.496C56.7061 0.450667 56.7287 0.428 56.7741 0.428H57.0261C57.0714 0.428 57.0941 0.450667 57.0941 0.496V1.496C57.0941 1.52267 57.1101 1.536 57.1421 1.536H57.9861C58.0127 1.536 58.0261 1.52267 58.0261 1.496V0.496C58.0261 0.450667 58.0487 0.428 58.0941 0.428H58.3501C58.3954 0.428 58.4181 0.450667 58.4181 0.496V2.932C58.4181 2.97733 58.3954 3 58.3501 3H58.0941C58.0487 3 58.0261 2.97733 58.0261 2.932V1.92C58.0261 1.89333 58.0127 1.88 57.9861 1.88H57.1421C57.1101 1.88 57.0941 1.89333 57.0941 1.92V2.932C57.0941 2.97733 57.0714 3 57.0261 3ZM61.0001 3H60.5361C60.3387 3 60.1854 2.94533 60.0761 2.836C59.9694 2.72667 59.9161 2.57467 59.9161 2.38V1.048C59.9161 0.850667 59.9694 0.698666 60.0761 0.592C60.1854 0.482667 60.3387 0.428 60.5361 0.428H61.0001C61.1947 0.428 61.3467 0.482667 61.4561 0.592C61.5654 0.698666 61.6201 0.850667 61.6201 1.048V1.24C61.6201 1.288 61.5961 1.312 61.5481 1.312H61.2961C61.2507 1.312 61.2281 1.288 61.2281 1.24V1.064C61.2281 0.866667 61.1321 0.768 60.9401 0.768H60.5921C60.4001 0.768 60.3041 0.866667 60.3041 1.064V2.364C60.3041 2.56133 60.4001 2.66 60.5921 2.66H60.9401C61.1321 2.66 61.2281 2.56133 61.2281 2.364V2.188C61.2281 2.14 61.2507 2.116 61.2961 2.116H61.5481C61.5961 2.116 61.6201 2.14 61.6201 2.188V2.38C61.6201 2.57467 61.5654 2.72667 61.4561 2.836C61.3467 2.94533 61.1947 3 61.0001 3ZM63.4802 3H62.1842C62.1389 3 62.1162 2.97733 62.1162 2.932V0.496C62.1162 0.450667 62.1389 0.428 62.1842 0.428H62.4362C62.4816 0.428 62.5042 0.450667 62.5042 0.496V2.612C62.5042 2.63867 62.5202 2.652 62.5522 2.652H63.4802C63.5256 2.652 63.5482 2.676 63.5482 2.724V2.932C63.5482 2.97733 63.5256 3 63.4802 3ZM64.057 3H63.769C63.7317 3 63.7183 2.97733 63.729 2.932L64.425 0.496C64.4383 0.450667 64.4703 0.428 64.521 0.428H64.921C64.9743 0.428 65.0063 0.450667 65.017 0.496L65.713 2.932C65.7237 2.97733 65.709 3 65.669 3H65.385C65.361 3 65.3437 2.996 65.333 2.988C65.325 2.97733 65.3183 2.95867 65.313 2.932L65.161 2.412H64.281L64.129 2.932C64.1183 2.97733 64.0943 3 64.057 3ZM64.713 0.812L64.361 2.092H65.085L64.729 0.812H64.713ZM66.0604 2.376V2.272C66.0604 2.22667 66.0831 2.204 66.1284 2.204H66.3844C66.4297 2.204 66.4524 2.22667 66.4524 2.272V2.344C66.4524 2.456 66.4764 2.53733 66.5244 2.588C66.5751 2.636 66.6577 2.66 66.7724 2.66H67.0484C67.1631 2.66 67.2457 2.63467 67.2964 2.584C67.3471 2.53067 67.3724 2.44533 67.3724 2.328V2.236C67.3724 2.15067 67.3391 2.084 67.2724 2.036C67.2084 1.98533 67.1284 1.95333 67.0324 1.94C66.9364 1.924 66.8311 1.90267 66.7164 1.876C66.6017 1.84933 66.4964 1.81867 66.4004 1.784C66.3044 1.74933 66.2231 1.684 66.1564 1.588C66.0924 1.492 66.0604 1.36933 66.0604 1.22V1.052C66.0604 0.857333 66.1151 0.705333 66.2244 0.596C66.3364 0.484 66.4897 0.428 66.6844 0.428H67.1084C67.3057 0.428 67.4591 0.484 67.5684 0.596C67.6804 0.705333 67.7364 0.857333 67.7364 1.052V1.14C67.7364 1.18533 67.7137 1.208 67.6684 1.208H67.4124C67.3671 1.208 67.3444 1.18533 67.3444 1.14V1.088C67.3444 0.973333 67.3191 0.892 67.2684 0.844C67.2204 0.793333 67.1391 0.768 67.0244 0.768H66.7724C66.6577 0.768 66.5751 0.794667 66.5244 0.848C66.4764 0.898666 66.4524 0.986666 66.4524 1.112V1.236C66.4524 1.356 66.5391 1.43733 66.7124 1.48C66.7897 1.49867 66.8737 1.51467 66.9644 1.528C67.0577 1.54133 67.1511 1.56133 67.2444 1.588C67.3377 1.61467 67.4231 1.65067 67.5004 1.696C67.5777 1.73867 67.6404 1.80533 67.6884 1.896C67.7364 1.984 67.7604 2.092 67.7604 2.22V2.376C67.7604 2.57067 67.7044 2.724 67.5924 2.836C67.4831 2.94533 67.3311 3 67.1364 3H66.6884C66.4937 3 66.3404 2.94533 66.2284 2.836C66.1164 2.724 66.0604 2.57067 66.0604 2.376ZM68.2518 2.376V2.272C68.2518 2.22667 68.2745 2.204 68.3198 2.204H68.5758C68.6211 2.204 68.6438 2.22667 68.6438 2.272V2.344C68.6438 2.456 68.6678 2.53733 68.7158 2.588C68.7665 2.636 68.8491 2.66 68.9638 2.66H69.2398C69.3545 2.66 69.4371 2.63467 69.4878 2.584C69.5385 2.53067 69.5638 2.44533 69.5638 2.328V2.236C69.5638 2.15067 69.5305 2.084 69.4638 2.036C69.3998 1.98533 69.3198 1.95333 69.2238 1.94C69.1278 1.924 69.0225 1.90267 68.9078 1.876C68.7931 1.84933 68.6878 1.81867 68.5918 1.784C68.4958 1.74933 68.4145 1.684 68.3478 1.588C68.2838 1.492 68.2518 1.36933 68.2518 1.22V1.052C68.2518 0.857333 68.3065 0.705333 68.4158 0.596C68.5278 0.484 68.6811 0.428 68.8758 0.428H69.2998C69.4971 0.428 69.6505 0.484 69.7598 0.596C69.8718 0.705333 69.9278 0.857333 69.9278 1.052V1.14C69.9278 1.18533 69.9051 1.208 69.8598 1.208H69.6038C69.5585 1.208 69.5358 1.18533 69.5358 1.14V1.088C69.5358 0.973333 69.5105 0.892 69.4598 0.844C69.4118 0.793333 69.3305 0.768 69.2158 0.768H68.9638C68.8491 0.768 68.7665 0.794667 68.7158 0.848C68.6678 0.898666 68.6438 0.986666 68.6438 1.112V1.236C68.6438 1.356 68.7305 1.43733 68.9038 1.48C68.9811 1.49867 69.0651 1.51467 69.1558 1.528C69.2491 1.54133 69.3425 1.56133 69.4358 1.588C69.5291 1.61467 69.6145 1.65067 69.6918 1.696C69.7691 1.73867 69.8318 1.80533 69.8798 1.896C69.9278 1.984 69.9518 2.092 69.9518 2.22V2.376C69.9518 2.57067 69.8958 2.724 69.7838 2.836C69.6745 2.94533 69.5225 3 69.3278 3H68.8798C68.6851 3 68.5318 2.94533 68.4198 2.836C68.3078 2.724 68.2518 2.57067 68.2518 2.376ZM72.0803 2.66H72.4283C72.623 2.66 72.7203 2.56133 72.7203 2.364V1.064C72.7203 0.866667 72.623 0.768 72.4283 0.768H72.0803C71.8883 0.768 71.7923 0.866667 71.7923 1.064V2.364C71.7923 2.56133 71.8883 2.66 72.0803 2.66ZM72.4883 3H72.0243C71.827 3 71.6737 2.94533 71.5643 2.836C71.4577 2.72667 71.4043 2.57467 71.4043 2.38V1.048C71.4043 0.850667 71.4577 0.698666 71.5643 0.592C71.6737 0.482667 71.827 0.428 72.0243 0.428H72.4883C72.6857 0.428 72.839 0.482667 72.9483 0.592C73.0577 0.698666 73.1123 0.850667 73.1123 1.048V2.38C73.1123 2.57467 73.0577 2.72667 72.9483 2.836C72.839 2.94533 72.6857 3 72.4883 3ZM73.9714 3H73.7194C73.674 3 73.6514 2.97733 73.6514 2.932V0.496C73.6514 0.450667 73.674 0.428 73.7194 0.428H74.9754C75.0207 0.428 75.0434 0.450667 75.0434 0.496V0.7C75.0434 0.745333 75.0207 0.768 74.9754 0.768H74.0874C74.0554 0.768 74.0394 0.781333 74.0394 0.808V1.564C74.0394 1.59333 74.0554 1.608 74.0874 1.608H74.8594C74.9074 1.608 74.9314 1.63067 74.9314 1.676V1.876C74.9314 1.924 74.9074 1.948 74.8594 1.948H74.0874C74.0554 1.948 74.0394 1.96133 74.0394 1.988V2.932C74.0394 2.97733 74.0167 3 73.9714 3ZM75.7878 3H75.5358C75.4904 3 75.4678 2.97733 75.4678 2.932V0.496C75.4678 0.450667 75.4904 0.428 75.5358 0.428H76.7918C76.8371 0.428 76.8598 0.450667 76.8598 0.496V0.7C76.8598 0.745333 76.8371 0.768 76.7918 0.768H75.9038C75.8718 0.768 75.8558 0.781333 75.8558 0.808V1.564C75.8558 1.59333 75.8718 1.608 75.9038 1.608H76.6758C76.7238 1.608 76.7478 1.63067 76.7478 1.676V1.876C76.7478 1.924 76.7238 1.948 76.6758 1.948H75.9038C75.8718 1.948 75.8558 1.96133 75.8558 1.988V2.932C75.8558 2.97733 75.8331 3 75.7878 3ZM77.6922 0.496V2.932C77.6922 2.97733 77.6695 3 77.6242 3H77.3722C77.3269 3 77.3042 2.97733 77.3042 2.932V0.496C77.3042 0.450667 77.3269 0.428 77.3722 0.428H77.6242C77.6695 0.428 77.6922 0.450667 77.6922 0.496ZM79.3399 3H78.8759C78.6786 3 78.5252 2.94533 78.4159 2.836C78.3092 2.72667 78.2559 2.57467 78.2559 2.38V1.048C78.2559 0.850667 78.3092 0.698666 78.4159 0.592C78.5252 0.482667 78.6786 0.428 78.8759 0.428H79.3399C79.5346 0.428 79.6866 0.482667 79.7959 0.592C79.9052 0.698666 79.9599 0.850667 79.9599 1.048V1.24C79.9599 1.288 79.9359 1.312 79.8879 1.312H79.6359C79.5906 1.312 79.5679 1.288 79.5679 1.24V1.064C79.5679 0.866667 79.4719 0.768 79.2799 0.768H78.9319C78.7399 0.768 78.6439 0.866667 78.6439 1.064V2.364C78.6439 2.56133 78.7399 2.66 78.9319 2.66H79.2799C79.4719 2.66 79.5679 2.56133 79.5679 2.364V2.188C79.5679 2.14 79.5906 2.116 79.6359 2.116H79.8879C79.9359 2.116 79.9599 2.14 79.9599 2.188V2.38C79.9599 2.57467 79.9052 2.72667 79.7959 2.836C79.6866 2.94533 79.5346 3 79.3399 3ZM81.8041 3H80.5241C80.4787 3 80.4561 2.97733 80.4561 2.932V0.496C80.4561 0.450667 80.4787 0.428 80.5241 0.428H81.8041C81.8467 0.428 81.8681 0.450667 81.8681 0.496V0.7C81.8681 0.745333 81.8467 0.768 81.8041 0.768H80.8921C80.8601 0.768 80.8441 0.781333 80.8441 0.808V1.484C80.8441 1.51067 80.8601 1.524 80.8921 1.524H81.6641C81.7121 1.524 81.7361 1.54667 81.7361 1.592V1.796C81.7361 1.84133 81.7121 1.864 81.6641 1.864H80.8921C80.8601 1.864 80.8441 1.87733 80.8441 1.904V2.616C80.8441 2.64533 80.8601 2.66 80.8921 2.66H81.8041C81.8467 2.66 81.8681 2.68267 81.8681 2.728V2.932C81.8681 2.97733 81.8467 3 81.8041 3ZM82.6979 3H82.4459C82.4006 3 82.3779 2.97733 82.3779 2.932V0.496C82.3779 0.450667 82.4006 0.428 82.4459 0.428H83.3819C83.5766 0.428 83.7286 0.484 83.8379 0.596C83.9499 0.705333 84.0059 0.857333 84.0059 1.052V1.388C84.0059 1.69467 83.8793 1.888 83.6259 1.968V1.984L84.0699 2.92C84.0993 2.97333 84.0819 3 84.0179 3H83.7699C83.7059 3 83.6646 2.97733 83.6459 2.932L83.2179 2.012H82.8139C82.7819 2.012 82.7659 2.02533 82.7659 2.052V2.932C82.7659 2.97733 82.7433 3 82.6979 3ZM82.8099 1.692H83.3179C83.5153 1.692 83.6139 1.59467 83.6139 1.4V1.064C83.6139 0.866667 83.5153 0.768 83.3179 0.768H82.8099C82.7806 0.768 82.7659 0.781333 82.7659 0.808V1.652C82.7659 1.67867 82.7806 1.692 82.8099 1.692ZM84.4979 2.376V2.272C84.4979 2.22667 84.5206 2.204 84.5659 2.204H84.8219C84.8672 2.204 84.8899 2.22667 84.8899 2.272V2.344C84.8899 2.456 84.9139 2.53733 84.9619 2.588C85.0126 2.636 85.0952 2.66 85.2099 2.66H85.4859C85.6006 2.66 85.6832 2.63467 85.7339 2.584C85.7846 2.53067 85.8099 2.44533 85.8099 2.328V2.236C85.8099 2.15067 85.7766 2.084 85.7099 2.036C85.6459 1.98533 85.5659 1.95333 85.4699 1.94C85.3739 1.924 85.2686 1.90267 85.1539 1.876C85.0392 1.84933 84.9339 1.81867 84.8379 1.784C84.7419 1.74933 84.6606 1.684 84.5939 1.588C84.5299 1.492 84.4979 1.36933 84.4979 1.22V1.052C84.4979 0.857333 84.5526 0.705333 84.6619 0.596C84.7739 0.484 84.9272 0.428 85.1219 0.428H85.5459C85.7432 0.428 85.8966 0.484 86.0059 0.596C86.1179 0.705333 86.1739 0.857333 86.1739 1.052V1.14C86.1739 1.18533 86.1512 1.208 86.1059 1.208H85.8499C85.8046 1.208 85.7819 1.18533 85.7819 1.14V1.088C85.7819 0.973333 85.7566 0.892 85.7059 0.844C85.6579 0.793333 85.5766 0.768 85.4619 0.768H85.2099C85.0952 0.768 85.0126 0.794667 84.9619 0.848C84.9139 0.898666 84.8899 0.986666 84.8899 1.112V1.236C84.8899 1.356 84.9766 1.43733 85.1499 1.48C85.2272 1.49867 85.3112 1.51467 85.4019 1.528C85.4952 1.54133 85.5886 1.56133 85.6819 1.588C85.7752 1.61467 85.8606 1.65067 85.9379 1.696C86.0152 1.73867 86.0779 1.80533 86.1259 1.896C86.1739 1.984 86.1979 2.092 86.1979 2.22V2.376C86.1979 2.57067 86.1419 2.724 86.0299 2.836C85.9206 2.94533 85.7686 3 85.5739 3H85.1259C84.9312 3 84.7779 2.94533 84.6659 2.836C84.5539 2.724 84.4979 2.57067 84.4979 2.376ZM87.8304 3H87.5424C87.5051 3 87.4918 2.97733 87.5024 2.932L88.1984 0.496C88.2118 0.450667 88.2438 0.428 88.2944 0.428H88.6944C88.7478 0.428 88.7798 0.450667 88.7904 0.496L89.4864 2.932C89.4971 2.97733 89.4824 3 89.4424 3H89.1584C89.1344 3 89.1171 2.996 89.1064 2.988C89.0984 2.97733 89.0918 2.95867 89.0864 2.932L88.9344 2.412H88.0544L87.9024 2.932C87.8918 2.97733 87.8678 3 87.8304 3ZM88.4864 0.812L88.1344 2.092H88.8584L88.5024 0.812H88.4864ZM90.2018 3H89.9498C89.9045 3 89.8818 2.97733 89.8818 2.932V0.496C89.8818 0.450667 89.9045 0.428 89.9498 0.428H90.8858C91.0805 0.428 91.2325 0.484 91.3418 0.596C91.4538 0.705333 91.5098 0.857333 91.5098 1.052V1.388C91.5098 1.69467 91.3832 1.888 91.1298 1.968V1.984L91.5738 2.92C91.6032 2.97333 91.5858 3 91.5218 3H91.2738C91.2098 3 91.1685 2.97733 91.1498 2.932L90.7218 2.012H90.3178C90.2858 2.012 90.2698 2.02533 90.2698 2.052V2.932C90.2698 2.97733 90.2472 3 90.2018 3ZM90.3138 1.692H90.8218C91.0192 1.692 91.1178 1.59467 91.1178 1.4V1.064C91.1178 0.866667 91.0192 0.768 90.8218 0.768H90.3138C90.2845 0.768 90.2698 0.781333 90.2698 0.808V1.652C90.2698 1.67867 90.2845 1.692 90.3138 1.692ZM93.3978 3H92.1178C92.0725 3 92.0498 2.97733 92.0498 2.932V0.496C92.0498 0.450667 92.0725 0.428 92.1178 0.428H93.3978C93.4405 0.428 93.4618 0.450667 93.4618 0.496V0.7C93.4618 0.745333 93.4405 0.768 93.3978 0.768H92.4858C92.4538 0.768 92.4378 0.781333 92.4378 0.808V1.484C92.4378 1.51067 92.4538 1.524 92.4858 1.524H93.2578C93.3058 1.524 93.3298 1.54667 93.3298 1.592V1.796C93.3298 1.84133 93.3058 1.864 93.2578 1.864H92.4858C92.4538 1.864 92.4378 1.87733 92.4378 1.904V2.616C92.4378 2.64533 92.4538 2.66 92.4858 2.66H93.3978C93.4405 2.66 93.4618 2.68267 93.4618 2.728V2.932C93.4618 2.97733 93.4405 3 93.3978 3ZM0.432 8H0.144C0.106667 8 0.0933333 7.97733 0.104 7.932L0.8 5.496C0.813333 5.45067 0.845333 5.428 0.896 5.428H1.296C1.34933 5.428 1.38133 5.45067 1.392 5.496L2.088 7.932C2.09867 7.97733 2.084 8 2.044 8H1.76C1.736 8 1.71867 7.996 1.708 7.988C1.7 7.97733 1.69333 7.95867 1.688 7.932L1.536 7.412H0.656L0.504 7.932C0.493333 7.97733 0.469333 8 0.432 8ZM1.088 5.812L0.736 7.092H1.46L1.104 5.812H1.088ZM3.84741 8H2.55141C2.50607 8 2.48341 7.97733 2.48341 7.932V5.496C2.48341 5.45067 2.50607 5.428 2.55141 5.428H2.80341C2.84874 5.428 2.87141 5.45067 2.87141 5.496V7.612C2.87141 7.63867 2.88741 7.652 2.91941 7.652H3.84741C3.89274 7.652 3.91541 7.676 3.91541 7.724V7.932C3.91541 7.97733 3.89274 8 3.84741 8ZM5.64819 8H4.35219C4.30685 8 4.28419 7.97733 4.28419 7.932V5.496C4.28419 5.45067 4.30685 5.428 4.35219 5.428H4.60419C4.64952 5.428 4.67219 5.45067 4.67219 5.496V7.612C4.67219 7.63867 4.68819 7.652 4.72019 7.652H5.64819C5.69352 7.652 5.71619 7.676 5.71619 7.724V7.932C5.71619 7.97733 5.69352 8 5.64819 8ZM6.72097 7.66H7.06897C7.26364 7.66 7.36097 7.56133 7.36097 7.364V6.064C7.36097 5.86667 7.26364 5.768 7.06897 5.768H6.72097C6.52897 5.768 6.43297 5.86667 6.43297 6.064V7.364C6.43297 7.56133 6.52897 7.66 6.72097 7.66ZM7.12897 8H6.66497C6.46764 8 6.3143 7.94533 6.20497 7.836C6.0983 7.72667 6.04497 7.57467 6.04497 7.38V6.048C6.04497 5.85067 6.0983 5.69867 6.20497 5.592C6.3143 5.48267 6.46764 5.428 6.66497 5.428H7.12897C7.3263 5.428 7.47964 5.48267 7.58897 5.592C7.6983 5.69867 7.75297 5.85067 7.75297 6.048V7.38C7.75297 7.57467 7.6983 7.72667 7.58897 7.836C7.47964 7.94533 7.3263 8 7.12897 8ZM9.068 8H8.644C8.596 8 8.568 7.97733 8.56 7.932L8.084 5.496C8.07867 5.45067 8.10133 5.428 8.152 5.428H8.46C8.51067 5.428 8.53733 5.45067 8.54 5.496L8.864 7.592H8.888L9.36 5.488C9.36533 5.448 9.38933 5.428 9.432 5.428H9.768C9.81067 5.428 9.836 5.448 9.844 5.488L10.32 7.592H10.344L10.668 5.5C10.6707 5.452 10.6973 5.428 10.748 5.428H11.056C11.1093 5.428 11.132 5.452 11.124 5.5L10.648 7.932C10.64 7.97733 10.6133 8 10.568 8H10.144C10.0987 8 10.072 7.97733 10.064 7.932L9.612 5.908H9.596L9.144 7.932C9.136 7.97733 9.11067 8 9.068 8ZM12.847 8H11.567C11.5217 8 11.499 7.97733 11.499 7.932V5.496C11.499 5.45067 11.5217 5.428 11.567 5.428H12.847C12.8897 5.428 12.911 5.45067 12.911 5.496V5.7C12.911 5.74533 12.8897 5.768 12.847 5.768H11.935C11.903 5.768 11.887 5.78133 11.887 5.808V6.484C11.887 6.51067 11.903 6.524 11.935 6.524H12.707C12.755 6.524 12.779 6.54667 12.779 6.592V6.796C12.779 6.84133 12.755 6.864 12.707 6.864H11.935C11.903 6.864 11.887 6.87733 11.887 6.904V7.616C11.887 7.64533 11.903 7.66 11.935 7.66H12.847C12.8897 7.66 12.911 7.68267 12.911 7.728V7.932C12.911 7.97733 12.8897 8 12.847 8ZM13.8529 7.66H14.4169C14.6089 7.66 14.7049 7.56133 14.7049 7.364V6.064C14.7049 5.86667 14.6089 5.768 14.4169 5.768H13.8529C13.8236 5.768 13.8089 5.78133 13.8089 5.808V7.616C13.8089 7.64533 13.8236 7.66 13.8529 7.66ZM13.4209 7.932V5.496C13.4209 5.45067 13.4436 5.428 13.4889 5.428H14.4729C14.6676 5.428 14.8196 5.48267 14.9289 5.592C15.0409 5.69867 15.0969 5.85067 15.0969 6.048V7.38C15.0969 7.57467 15.0409 7.72667 14.9289 7.836C14.8196 7.94533 14.6676 8 14.4729 8H13.4889C13.4436 8 13.4209 7.97733 13.4209 7.932ZM17.2968 8H17.0448C16.9968 8 16.9728 7.97733 16.9728 7.932V5.808C16.9728 5.78133 16.9594 5.768 16.9328 5.768H16.4288C16.3808 5.768 16.3568 5.74533 16.3568 5.7V5.496C16.3568 5.45067 16.3808 5.428 16.4288 5.428H17.9128C17.9608 5.428 17.9848 5.45067 17.9848 5.496V5.7C17.9848 5.74533 17.9608 5.768 17.9128 5.768H17.4088C17.3794 5.768 17.3648 5.78133 17.3648 5.808V7.932C17.3648 7.97733 17.3421 8 17.2968 8ZM18.9632 7.66H19.3112C19.5058 7.66 19.6032 7.56133 19.6032 7.364V6.064C19.6032 5.86667 19.5058 5.768 19.3112 5.768H18.9632C18.7712 5.768 18.6752 5.86667 18.6752 6.064V7.364C18.6752 7.56133 18.7712 7.66 18.9632 7.66ZM19.3712 8H18.9072C18.7098 8 18.5565 7.94533 18.4472 7.836C18.3405 7.72667 18.2872 7.57467 18.2872 7.38V6.048C18.2872 5.85067 18.3405 5.69867 18.4472 5.592C18.5565 5.48267 18.7098 5.428 18.9072 5.428H19.3712C19.5685 5.428 19.7218 5.48267 19.8312 5.592C19.9405 5.69867 19.9952 5.85067 19.9952 6.048V7.38C19.9952 7.57467 19.9405 7.72667 19.8312 7.836C19.7218 7.94533 19.5685 8 19.3712 8ZM23.2473 5.428H23.6953C23.7406 5.428 23.7633 5.45067 23.7633 5.496V7.932C23.7633 7.97733 23.7406 8 23.6953 8H23.4473C23.402 8 23.3793 7.97733 23.3793 7.932V5.912H23.3633L22.8433 7.376C22.8273 7.41867 22.798 7.44 22.7553 7.44H22.4993C22.4593 7.44 22.4313 7.41867 22.4153 7.376L21.8833 5.908H21.8673V7.932C21.8673 7.95867 21.862 7.97733 21.8513 7.988C21.8433 7.996 21.826 8 21.7993 8H21.5553C21.51 8 21.4873 7.97733 21.4873 7.932V5.496C21.4873 5.45067 21.51 5.428 21.5553 5.428H22.0033C22.0326 5.428 22.054 5.44267 22.0673 5.472L22.6153 7.016H22.6353L23.1873 5.472C23.1926 5.44267 23.2126 5.428 23.2473 5.428ZM24.4867 8H24.1987C24.1614 8 24.148 7.97733 24.1587 7.932L24.8547 5.496C24.868 5.45067 24.9 5.428 24.9507 5.428H25.3507C25.404 5.428 25.436 5.45067 25.4467 5.496L26.1427 7.932C26.1534 7.97733 26.1387 8 26.0987 8H25.8147C25.7907 8 25.7734 7.996 25.7627 7.988C25.7547 7.97733 25.748 7.95867 25.7427 7.932L25.5907 7.412H24.7107L24.5587 7.932C24.548 7.97733 24.524 8 24.4867 8ZM25.1427 5.812L24.7907 7.092H25.5147L25.1587 5.812H25.1427ZM26.8541 8H26.6061C26.5608 8 26.5381 7.97733 26.5381 7.932V5.496C26.5381 5.45067 26.5608 5.428 26.6061 5.428H26.8301C26.8728 5.428 26.9021 5.44267 26.9181 5.472L27.8861 7.212H27.9021V5.496C27.9021 5.45067 27.9248 5.428 27.9701 5.428H28.2181C28.2634 5.428 28.2861 5.45067 28.2861 5.496V7.932C28.2861 7.97733 28.2634 8 28.2181 8H28.0021C27.9594 8 27.9248 7.97867 27.8981 7.936L26.9381 6.216H26.9221V7.932C26.9221 7.97733 26.8994 8 26.8541 8ZM29.2781 5.496V7.932C29.2781 7.97733 29.2555 8 29.2101 8H28.9581C28.9128 8 28.8901 7.97733 28.8901 7.932V5.496C28.8901 5.45067 28.9128 5.428 28.9581 5.428H29.2101C29.2555 5.428 29.2781 5.45067 29.2781 5.496ZM30.2018 8H29.9498C29.9045 8 29.8818 7.97733 29.8818 7.932V5.496C29.8818 5.45067 29.9045 5.428 29.9498 5.428H30.9018C31.0965 5.428 31.2485 5.48267 31.3578 5.592C31.4672 5.69867 31.5218 5.85067 31.5218 6.048V6.464C31.5218 6.65867 31.4672 6.81067 31.3578 6.92C31.2485 7.02933 31.0965 7.084 30.9018 7.084H30.3178C30.2858 7.084 30.2698 7.09733 30.2698 7.124V7.932C30.2698 7.97733 30.2472 8 30.2018 8ZM30.3138 6.74H30.8458C31.0352 6.74 31.1298 6.64133 31.1298 6.444V6.064C31.1298 5.86667 31.0352 5.768 30.8458 5.768H30.3138C30.2845 5.768 30.2698 5.78133 30.2698 5.808V6.7C30.2698 6.72667 30.2845 6.74 30.3138 6.74ZM33.3391 5.428H33.5911C33.6391 5.428 33.6631 5.44933 33.6631 5.492V7.38C33.6631 7.57467 33.6071 7.72667 33.4951 7.836C33.3858 7.94533 33.2338 8 33.0391 8H32.5951C32.4005 8 32.2485 7.94533 32.1391 7.836C32.0298 7.72667 31.9751 7.57467 31.9751 7.38V5.496C31.9751 5.45067 31.9978 5.428 32.0431 5.428H32.2951C32.3405 5.428 32.3631 5.45067 32.3631 5.496V7.364C32.3631 7.56133 32.4591 7.66 32.6511 7.66H32.9791C33.1738 7.66 33.2711 7.56133 33.2711 7.364V5.496C33.2711 5.45067 33.2938 5.428 33.3391 5.428ZM35.5857 8H34.2897C34.2444 8 34.2217 7.97733 34.2217 7.932V5.496C34.2217 5.45067 34.2444 5.428 34.2897 5.428H34.5417C34.587 5.428 34.6097 5.45067 34.6097 5.496V7.612C34.6097 7.63867 34.6257 7.652 34.6577 7.652H35.5857C35.631 7.652 35.6537 7.676 35.6537 7.724V7.932C35.6537 7.97733 35.631 8 35.5857 8ZM36.1625 8H35.8745C35.8371 8 35.8238 7.97733 35.8345 7.932L36.5305 5.496C36.5438 5.45067 36.5758 5.428 36.6265 5.428H37.0265C37.0798 5.428 37.1118 5.45067 37.1225 5.496L37.8185 7.932C37.8291 7.97733 37.8145 8 37.7745 8H37.4905C37.4665 8 37.4491 7.996 37.4385 7.988C37.4305 7.97733 37.4238 7.95867 37.4185 7.932L37.2665 7.412H36.3865L36.2345 7.932C36.2238 7.97733 36.1998 8 36.1625 8ZM36.8185 5.812L36.4665 7.092H37.1905L36.8345 5.812H36.8185ZM38.9179 8H38.6659C38.6179 8 38.5939 7.97733 38.5939 7.932V5.808C38.5939 5.78133 38.5805 5.768 38.5539 5.768H38.0499C38.0019 5.768 37.9779 5.74533 37.9779 5.7V5.496C37.9779 5.45067 38.0019 5.428 38.0499 5.428H39.5339C39.5819 5.428 39.6059 5.45067 39.6059 5.496V5.7C39.6059 5.74533 39.5819 5.768 39.5339 5.768H39.0299C39.0005 5.768 38.9859 5.78133 38.9859 5.808V7.932C38.9859 7.97733 38.9632 8 38.9179 8ZM41.2963 8H40.0163C39.9709 8 39.9483 7.97733 39.9483 7.932V5.496C39.9483 5.45067 39.9709 5.428 40.0163 5.428H41.2963C41.3389 5.428 41.3603 5.45067 41.3603 5.496V5.7C41.3603 5.74533 41.3389 5.768 41.2963 5.768H40.3843C40.3523 5.768 40.3363 5.78133 40.3363 5.808V6.484C40.3363 6.51067 40.3523 6.524 40.3843 6.524H41.1563C41.2043 6.524 41.2283 6.54667 41.2283 6.592V6.796C41.2283 6.84133 41.2043 6.864 41.1563 6.864H40.3843C40.3523 6.864 40.3363 6.87733 40.3363 6.904V7.616C40.3363 7.64533 40.3523 7.66 40.3843 7.66H41.2963C41.3389 7.66 41.3603 7.68267 41.3603 7.728V7.932C41.3603 7.97733 41.3389 8 41.2963 8ZM42.1781 7.444V7.756C42.1781 7.82 42.1528 7.9 42.1021 7.996L41.8901 8.384C41.8795 8.408 41.8595 8.42 41.8301 8.42C41.7928 8.42 41.7741 8.39867 41.7741 8.356V7.444C41.7741 7.40133 41.7968 7.38 41.8421 7.38H42.1141C42.1568 7.38 42.1781 7.40133 42.1781 7.444ZM43.7601 8H43.4721C43.4348 8 43.4215 7.97733 43.4321 7.932L44.1281 5.496C44.1415 5.45067 44.1735 5.428 44.2241 5.428H44.6241C44.6775 5.428 44.7095 5.45067 44.7201 5.496L45.4161 7.932C45.4268 7.97733 45.4121 8 45.3721 8H45.0881C45.0641 8 45.0468 7.996 45.0361 7.988C45.0281 7.97733 45.0215 7.95867 45.0161 7.932L44.8641 7.412H43.9841L43.8321 7.932C43.8215 7.97733 43.7975 8 43.7601 8ZM44.4161 5.812L44.0641 7.092H44.7881L44.4321 5.812H44.4161ZM46.8555 8H46.3915C46.1942 8 46.0409 7.94533 45.9315 7.836C45.8249 7.72667 45.7715 7.57467 45.7715 7.38V6.048C45.7715 5.85067 45.8249 5.69867 45.9315 5.592C46.0409 5.48267 46.1942 5.428 46.3915 5.428H46.8555C47.0502 5.428 47.2022 5.48267 47.3115 5.592C47.4209 5.69867 47.4755 5.85067 47.4755 6.048V6.24C47.4755 6.288 47.4515 6.312 47.4035 6.312H47.1515C47.1062 6.312 47.0835 6.288 47.0835 6.24V6.064C47.0835 5.86667 46.9875 5.768 46.7955 5.768H46.4475C46.2555 5.768 46.1595 5.86667 46.1595 6.064V7.364C46.1595 7.56133 46.2555 7.66 46.4475 7.66H46.7955C46.9875 7.66 47.0835 7.56133 47.0835 7.364V7.188C47.0835 7.14 47.1062 7.116 47.1515 7.116H47.4035C47.4515 7.116 47.4755 7.14 47.4755 7.188V7.38C47.4755 7.57467 47.4209 7.72667 47.3115 7.836C47.2022 7.94533 47.0502 8 46.8555 8ZM49.0157 8H48.5517C48.3544 8 48.201 7.94533 48.0917 7.836C47.985 7.72667 47.9317 7.57467 47.9317 7.38V6.048C47.9317 5.85067 47.985 5.69867 48.0917 5.592C48.201 5.48267 48.3544 5.428 48.5517 5.428H49.0157C49.2104 5.428 49.3624 5.48267 49.4717 5.592C49.581 5.69867 49.6357 5.85067 49.6357 6.048V6.24C49.6357 6.288 49.6117 6.312 49.5637 6.312H49.3117C49.2664 6.312 49.2437 6.288 49.2437 6.24V6.064C49.2437 5.86667 49.1477 5.768 48.9557 5.768H48.6077C48.4157 5.768 48.3197 5.86667 48.3197 6.064V7.364C48.3197 7.56133 48.4157 7.66 48.6077 7.66H48.9557C49.1477 7.66 49.2437 7.56133 49.2437 7.364V7.188C49.2437 7.14 49.2664 7.116 49.3117 7.116H49.5637C49.6117 7.116 49.6357 7.14 49.6357 7.188V7.38C49.6357 7.57467 49.581 7.72667 49.4717 7.836C49.3624 7.94533 49.2104 8 49.0157 8ZM51.4798 8H50.1998C50.1545 8 50.1318 7.97733 50.1318 7.932V5.496C50.1318 5.45067 50.1545 5.428 50.1998 5.428H51.4798C51.5225 5.428 51.5438 5.45067 51.5438 5.496V5.7C51.5438 5.74533 51.5225 5.768 51.4798 5.768H50.5678C50.5358 5.768 50.5198 5.78133 50.5198 5.808V6.484C50.5198 6.51067 50.5358 6.524 50.5678 6.524H51.3398C51.3878 6.524 51.4118 6.54667 51.4118 6.592V6.796C51.4118 6.84133 51.3878 6.864 51.3398 6.864H50.5678C50.5358 6.864 50.5198 6.87733 50.5198 6.904V7.616C50.5198 7.64533 50.5358 7.66 50.5678 7.66H51.4798C51.5225 7.66 51.5438 7.68267 51.5438 7.728V7.932C51.5438 7.97733 51.5225 8 51.4798 8ZM52.0057 7.376V7.272C52.0057 7.22667 52.0284 7.204 52.0737 7.204H52.3297C52.3751 7.204 52.3977 7.22667 52.3977 7.272V7.344C52.3977 7.456 52.4217 7.53733 52.4697 7.588C52.5204 7.636 52.6031 7.66 52.7177 7.66H52.9937C53.1084 7.66 53.1911 7.63467 53.2417 7.584C53.2924 7.53067 53.3177 7.44533 53.3177 7.328V7.236C53.3177 7.15067 53.2844 7.084 53.2177 7.036C53.1537 6.98533 53.0737 6.95333 52.9777 6.94C52.8817 6.924 52.7764 6.90267 52.6617 6.876C52.5471 6.84933 52.4417 6.81867 52.3457 6.784C52.2497 6.74933 52.1684 6.684 52.1017 6.588C52.0377 6.492 52.0057 6.36933 52.0057 6.22V6.052C52.0057 5.85733 52.0604 5.70533 52.1697 5.596C52.2817 5.484 52.4351 5.428 52.6297 5.428H53.0537C53.2511 5.428 53.4044 5.484 53.5137 5.596C53.6257 5.70533 53.6817 5.85733 53.6817 6.052V6.14C53.6817 6.18533 53.6591 6.208 53.6137 6.208H53.3577C53.3124 6.208 53.2897 6.18533 53.2897 6.14V6.088C53.2897 5.97333 53.2644 5.892 53.2137 5.844C53.1657 5.79333 53.0844 5.768 52.9697 5.768H52.7177C52.6031 5.768 52.5204 5.79467 52.4697 5.848C52.4217 5.89867 52.3977 5.98667 52.3977 6.112V6.236C52.3977 6.356 52.4844 6.43733 52.6577 6.48C52.7351 6.49867 52.8191 6.51467 52.9097 6.528C53.0031 6.54133 53.0964 6.56133 53.1897 6.588C53.2831 6.61467 53.3684 6.65067 53.4457 6.696C53.5231 6.73867 53.5857 6.80533 53.6337 6.896C53.6817 6.984 53.7057 7.092 53.7057 7.22V7.376C53.7057 7.57067 53.6497 7.724 53.5377 7.836C53.4284 7.94533 53.2764 8 53.0817 8H52.6337C52.4391 8 52.2857 7.94533 52.1737 7.836C52.0617 7.724 52.0057 7.57067 52.0057 7.376ZM54.1971 7.376V7.272C54.1971 7.22667 54.2198 7.204 54.2651 7.204H54.5211C54.5665 7.204 54.5891 7.22667 54.5891 7.272V7.344C54.5891 7.456 54.6131 7.53733 54.6611 7.588C54.7118 7.636 54.7945 7.66 54.9091 7.66H55.1851C55.2998 7.66 55.3825 7.63467 55.4331 7.584C55.4838 7.53067 55.5091 7.44533 55.5091 7.328V7.236C55.5091 7.15067 55.4758 7.084 55.4091 7.036C55.3451 6.98533 55.2651 6.95333 55.1691 6.94C55.0731 6.924 54.9678 6.90267 54.8531 6.876C54.7385 6.84933 54.6331 6.81867 54.5371 6.784C54.4411 6.74933 54.3598 6.684 54.2931 6.588C54.2291 6.492 54.1971 6.36933 54.1971 6.22V6.052C54.1971 5.85733 54.2518 5.70533 54.3611 5.596C54.4731 5.484 54.6265 5.428 54.8211 5.428H55.2451C55.4425 5.428 55.5958 5.484 55.7051 5.596C55.8171 5.70533 55.8731 5.85733 55.8731 6.052V6.14C55.8731 6.18533 55.8505 6.208 55.8051 6.208H55.5491C55.5038 6.208 55.4811 6.18533 55.4811 6.14V6.088C55.4811 5.97333 55.4558 5.892 55.4051 5.844C55.3571 5.79333 55.2758 5.768 55.1611 5.768H54.9091C54.7945 5.768 54.7118 5.79467 54.6611 5.848C54.6131 5.89867 54.5891 5.98667 54.5891 6.112V6.236C54.5891 6.356 54.6758 6.43733 54.8491 6.48C54.9265 6.49867 55.0105 6.51467 55.1011 6.528C55.1945 6.54133 55.2878 6.56133 55.3811 6.588C55.4745 6.61467 55.5598 6.65067 55.6371 6.696C55.7145 6.73867 55.7771 6.80533 55.8251 6.896C55.8731 6.984 55.8971 7.092 55.8971 7.22V7.376C55.8971 7.57067 55.8411 7.724 55.7291 7.836C55.6198 7.94533 55.4678 8 55.2731 8H54.8251C54.6305 8 54.4771 7.94533 54.3651 7.836C54.2531 7.724 54.1971 7.57067 54.1971 7.376ZM58.0257 7.66H58.3737C58.5683 7.66 58.6657 7.56133 58.6657 7.364V6.064C58.6657 5.86667 58.5683 5.768 58.3737 5.768H58.0257C57.8337 5.768 57.7377 5.86667 57.7377 6.064V7.364C57.7377 7.56133 57.8337 7.66 58.0257 7.66ZM58.4337 8H57.9697C57.7723 8 57.619 7.94533 57.5097 7.836C57.403 7.72667 57.3497 7.57467 57.3497 7.38V6.048C57.3497 5.85067 57.403 5.69867 57.5097 5.592C57.619 5.48267 57.7723 5.428 57.9697 5.428H58.4337C58.631 5.428 58.7843 5.48267 58.8937 5.592C59.003 5.69867 59.0577 5.85067 59.0577 6.048V7.38C59.0577 7.57467 59.003 7.72667 58.8937 7.836C58.7843 7.94533 58.631 8 58.4337 8ZM59.9167 8H59.6647C59.6194 8 59.5967 7.97733 59.5967 7.932V5.496C59.5967 5.45067 59.6194 5.428 59.6647 5.428H60.6007C60.7954 5.428 60.9474 5.484 61.0567 5.596C61.1687 5.70533 61.2247 5.85733 61.2247 6.052V6.388C61.2247 6.69467 61.098 6.888 60.8447 6.968V6.984L61.2887 7.92C61.318 7.97333 61.3007 8 61.2367 8H60.9887C60.9247 8 60.8834 7.97733 60.8647 7.932L60.4367 7.012H60.0327C60.0007 7.012 59.9847 7.02533 59.9847 7.052V7.932C59.9847 7.97733 59.962 8 59.9167 8ZM60.0287 6.692H60.5367C60.734 6.692 60.8327 6.59467 60.8327 6.4V6.064C60.8327 5.86667 60.734 5.768 60.5367 5.768H60.0287C59.9994 5.768 59.9847 5.78133 59.9847 5.808V6.652C59.9847 6.67867 59.9994 6.692 60.0287 6.692ZM63.1498 7.66H63.7138C63.9058 7.66 64.0018 7.56133 64.0018 7.364V6.064C64.0018 5.86667 63.9058 5.768 63.7138 5.768H63.1498C63.1204 5.768 63.1058 5.78133 63.1058 5.808V7.616C63.1058 7.64533 63.1204 7.66 63.1498 7.66ZM62.7178 7.932V5.496C62.7178 5.45067 62.7404 5.428 62.7858 5.428H63.7698C63.9644 5.428 64.1164 5.48267 64.2258 5.592C64.3378 5.69867 64.3938 5.85067 64.3938 6.048V7.38C64.3938 7.57467 64.3378 7.72667 64.2258 7.836C64.1164 7.94533 63.9644 8 63.7698 8H62.7858C62.7404 8 62.7178 7.97733 62.7178 7.932ZM65.3445 5.496V7.932C65.3445 7.97733 65.3219 8 65.2765 8H65.0245C64.9792 8 64.9565 7.97733 64.9565 7.932V5.496C64.9565 5.45067 64.9792 5.428 65.0245 5.428H65.2765C65.3219 5.428 65.3445 5.45067 65.3445 5.496ZM65.9003 7.376V7.272C65.9003 7.22667 65.9229 7.204 65.9683 7.204H66.2243C66.2696 7.204 66.2923 7.22667 66.2923 7.272V7.344C66.2923 7.456 66.3163 7.53733 66.3643 7.588C66.4149 7.636 66.4976 7.66 66.6123 7.66H66.8883C67.0029 7.66 67.0856 7.63467 67.1363 7.584C67.1869 7.53067 67.2123 7.44533 67.2123 7.328V7.236C67.2123 7.15067 67.1789 7.084 67.1123 7.036C67.0483 6.98533 66.9683 6.95333 66.8723 6.94C66.7763 6.924 66.6709 6.90267 66.5563 6.876C66.4416 6.84933 66.3363 6.81867 66.2403 6.784C66.1443 6.74933 66.0629 6.684 65.9963 6.588C65.9323 6.492 65.9003 6.36933 65.9003 6.22V6.052C65.9003 5.85733 65.9549 5.70533 66.0643 5.596C66.1763 5.484 66.3296 5.428 66.5243 5.428H66.9483C67.1456 5.428 67.2989 5.484 67.4083 5.596C67.5203 5.70533 67.5763 5.85733 67.5763 6.052V6.14C67.5763 6.18533 67.5536 6.208 67.5083 6.208H67.2523C67.2069 6.208 67.1843 6.18533 67.1843 6.14V6.088C67.1843 5.97333 67.1589 5.892 67.1083 5.844C67.0603 5.79333 66.9789 5.768 66.8643 5.768H66.6123C66.4976 5.768 66.4149 5.79467 66.3643 5.848C66.3163 5.89867 66.2923 5.98667 66.2923 6.112V6.236C66.2923 6.356 66.3789 6.43733 66.5523 6.48C66.6296 6.49867 66.7136 6.51467 66.8043 6.528C66.8976 6.54133 66.9909 6.56133 67.0843 6.588C67.1776 6.61467 67.2629 6.65067 67.3403 6.696C67.4176 6.73867 67.4803 6.80533 67.5283 6.896C67.5763 6.984 67.6003 7.092 67.6003 7.22V7.376C67.6003 7.57067 67.5443 7.724 67.4323 7.836C67.3229 7.94533 67.1709 8 66.9763 8H66.5283C66.3336 8 66.1803 7.94533 66.0683 7.836C65.9563 7.724 65.9003 7.57067 65.9003 7.376ZM68.2797 8H67.9917C67.9543 8 67.941 7.97733 67.9517 7.932L68.6477 5.496C68.661 5.45067 68.693 5.428 68.7437 5.428H69.1437C69.197 5.428 69.229 5.45067 69.2397 5.496L69.9357 7.932C69.9463 7.97733 69.9317 8 69.8917 8H69.6077C69.5837 8 69.5663 7.996 69.5557 7.988C69.5477 7.97733 69.541 7.95867 69.5357 7.932L69.3837 7.412H68.5037L68.3517 7.932C68.341 7.97733 68.317 8 68.2797 8ZM68.9357 5.812L68.5837 7.092H69.3077L68.9517 5.812H68.9357ZM70.7631 7.668H71.3231C71.5231 7.668 71.6231 7.572 71.6231 7.38V7.132C71.6231 6.94 71.5177 6.844 71.3071 6.844H70.7631C70.7337 6.844 70.7191 6.85733 70.7191 6.884V7.628C70.7191 7.65467 70.7337 7.668 70.7631 7.668ZM70.7631 6.524H71.2831C71.4857 6.524 71.5871 6.42667 71.5871 6.232V6.048C71.5871 5.856 71.4884 5.76 71.2911 5.76H70.7631C70.7337 5.76 70.7191 5.77333 70.7191 5.8V6.484C70.7191 6.51067 70.7337 6.524 70.7631 6.524ZM70.3311 7.932V5.496C70.3311 5.45067 70.3537 5.428 70.3991 5.428H71.3471C71.5444 5.428 71.6977 5.48133 71.8071 5.588C71.9164 5.69467 71.9711 5.84533 71.9711 6.04V6.236C71.9711 6.468 71.8617 6.61733 71.6431 6.684C71.7471 6.69733 71.8324 6.74267 71.8991 6.82C71.9684 6.89733 72.0031 7.00133 72.0031 7.132V7.388C72.0031 7.58267 71.9484 7.73333 71.8391 7.84C71.7297 7.94667 71.5777 8 71.3831 8H70.3991C70.3537 8 70.3311 7.97733 70.3311 7.932ZM73.9021 8H72.6061C72.5608 8 72.5381 7.97733 72.5381 7.932V5.496C72.5381 5.45067 72.5608 5.428 72.6061 5.428H72.8581C72.9034 5.428 72.9261 5.45067 72.9261 5.496V7.612C72.9261 7.63867 72.9421 7.652 72.9741 7.652H73.9021C73.9474 7.652 73.9701 7.676 73.9701 7.724V7.932C73.9701 7.97733 73.9474 8 73.9021 8ZM75.6869 8H74.4069C74.3615 8 74.3389 7.97733 74.3389 7.932V5.496C74.3389 5.45067 74.3615 5.428 74.4069 5.428H75.6869C75.7295 5.428 75.7509 5.45067 75.7509 5.496V5.7C75.7509 5.74533 75.7295 5.768 75.6869 5.768H74.7749C74.7429 5.768 74.7269 5.78133 74.7269 5.808V6.484C74.7269 6.51067 74.7429 6.524 74.7749 6.524H75.5469C75.5949 6.524 75.6189 6.54667 75.6189 6.592V6.796C75.6189 6.84133 75.5949 6.864 75.5469 6.864H74.7749C74.7429 6.864 74.7269 6.87733 74.7269 6.904V7.616C74.7269 7.64533 74.7429 7.66 74.7749 7.66H75.6869C75.7295 7.66 75.7509 7.68267 75.7509 7.728V7.932C75.7509 7.97733 75.7295 8 75.6869 8ZM77.9179 8H77.6659C77.6179 8 77.5939 7.97733 77.5939 7.932V5.808C77.5939 5.78133 77.5805 5.768 77.5539 5.768H77.0499C77.0019 5.768 76.9779 5.74533 76.9779 5.7V5.496C76.9779 5.45067 77.0019 5.428 77.0499 5.428H78.5339C78.5819 5.428 78.6059 5.45067 78.6059 5.496V5.7C78.6059 5.74533 78.5819 5.768 78.5339 5.768H78.0299C78.0005 5.768 77.9859 5.78133 77.9859 5.808V7.932C77.9859 7.97733 77.9632 8 77.9179 8ZM79.2683 8H79.0163C78.9709 8 78.9483 7.97733 78.9483 7.932V5.496C78.9483 5.45067 78.9709 5.428 79.0163 5.428H79.2683C79.3136 5.428 79.3363 5.45067 79.3363 5.496V6.496C79.3363 6.52267 79.3523 6.536 79.3843 6.536H80.2283C80.2549 6.536 80.2683 6.52267 80.2683 6.496V5.496C80.2683 5.45067 80.2909 5.428 80.3363 5.428H80.5923C80.6376 5.428 80.6603 5.45067 80.6603 5.496V7.932C80.6603 7.97733 80.6376 8 80.5923 8H80.3363C80.2909 8 80.2683 7.97733 80.2683 7.932V6.92C80.2683 6.89333 80.2549 6.88 80.2283 6.88H79.3843C79.3523 6.88 79.3363 6.89333 79.3363 6.92V7.932C79.3363 7.97733 79.3136 8 79.2683 8ZM82.5931 8H81.3131C81.2678 8 81.2451 7.97733 81.2451 7.932V5.496C81.2451 5.45067 81.2678 5.428 81.3131 5.428H82.5931C82.6358 5.428 82.6571 5.45067 82.6571 5.496V5.7C82.6571 5.74533 82.6358 5.768 82.5931 5.768H81.6811C81.6491 5.768 81.6331 5.78133 81.6331 5.808V6.484C81.6331 6.51067 81.6491 6.524 81.6811 6.524H82.4531C82.5011 6.524 82.5251 6.54667 82.5251 6.592V6.796C82.5251 6.84133 82.5011 6.864 82.4531 6.864H81.6811C81.6491 6.864 81.6331 6.87733 81.6331 6.904V7.616C81.6331 7.64533 81.6491 7.66 81.6811 7.66H82.5931C82.6358 7.66 82.6571 7.68267 82.6571 7.728V7.932C82.6571 7.97733 82.6358 8 82.5931 8ZM83.119 7.376V7.272C83.119 7.22667 83.1417 7.204 83.187 7.204H83.443C83.4883 7.204 83.511 7.22667 83.511 7.272V7.344C83.511 7.456 83.535 7.53733 83.583 7.588C83.6337 7.636 83.7163 7.66 83.831 7.66H84.107C84.2217 7.66 84.3043 7.63467 84.355 7.584C84.4057 7.53067 84.431 7.44533 84.431 7.328V7.236C84.431 7.15067 84.3977 7.084 84.331 7.036C84.267 6.98533 84.187 6.95333 84.091 6.94C83.995 6.924 83.8897 6.90267 83.775 6.876C83.6603 6.84933 83.555 6.81867 83.459 6.784C83.363 6.74933 83.2817 6.684 83.215 6.588C83.151 6.492 83.119 6.36933 83.119 6.22V6.052C83.119 5.85733 83.1737 5.70533 83.283 5.596C83.395 5.484 83.5483 5.428 83.743 5.428H84.167C84.3643 5.428 84.5177 5.484 84.627 5.596C84.739 5.70533 84.795 5.85733 84.795 6.052V6.14C84.795 6.18533 84.7723 6.208 84.727 6.208H84.471C84.4257 6.208 84.403 6.18533 84.403 6.14V6.088C84.403 5.97333 84.3777 5.892 84.327 5.844C84.279 5.79333 84.1977 5.768 84.083 5.768H83.831C83.7163 5.768 83.6337 5.79467 83.583 5.848C83.535 5.89867 83.511 5.98667 83.511 6.112V6.236C83.511 6.356 83.5977 6.43733 83.771 6.48C83.8483 6.49867 83.9323 6.51467 84.023 6.528C84.1163 6.54133 84.2097 6.56133 84.303 6.588C84.3963 6.61467 84.4817 6.65067 84.559 6.696C84.6363 6.73867 84.699 6.80533 84.747 6.896C84.795 6.984 84.819 7.092 84.819 7.22V7.376C84.819 7.57067 84.763 7.724 84.651 7.836C84.5417 7.94533 84.3897 8 84.195 8H83.747C83.5523 8 83.399 7.94533 83.287 7.836C83.175 7.724 83.119 7.57067 83.119 7.376ZM86.7064 8H85.4264C85.3811 8 85.3584 7.97733 85.3584 7.932V5.496C85.3584 5.45067 85.3811 5.428 85.4264 5.428H86.7064C86.7491 5.428 86.7704 5.45067 86.7704 5.496V5.7C86.7704 5.74533 86.7491 5.768 86.7064 5.768H85.7944C85.7624 5.768 85.7464 5.78133 85.7464 5.808V6.484C85.7464 6.51067 85.7624 6.524 85.7944 6.524H86.5664C86.6144 6.524 86.6384 6.54667 86.6384 6.592V6.796C86.6384 6.84133 86.6144 6.864 86.5664 6.864H85.7944C85.7624 6.864 85.7464 6.87733 85.7464 6.904V7.616C85.7464 7.64533 85.7624 7.66 85.7944 7.66H86.7064C86.7491 7.66 86.7704 7.68267 86.7704 7.728V7.932C86.7704 7.97733 86.7491 8 86.7064 8ZM88.6654 7.66H89.2294C89.4214 7.66 89.5174 7.56133 89.5174 7.364V6.064C89.5174 5.86667 89.4214 5.768 89.2294 5.768H88.6654C88.6361 5.768 88.6214 5.78133 88.6214 5.808V7.616C88.6214 7.64533 88.6361 7.66 88.6654 7.66ZM88.2334 7.932V5.496C88.2334 5.45067 88.2561 5.428 88.3014 5.428H89.2854C89.4801 5.428 89.6321 5.48267 89.7414 5.592C89.8534 5.69867 89.9094 5.85067 89.9094 6.048V7.38C89.9094 7.57467 89.8534 7.72667 89.7414 7.836C89.6321 7.94533 89.4801 8 89.2854 8H88.3014C88.2561 8 88.2334 7.97733 88.2334 7.932ZM91.8002 8H90.5202C90.4748 8 90.4522 7.97733 90.4522 7.932V5.496C90.4522 5.45067 90.4748 5.428 90.5202 5.428H91.8002C91.8428 5.428 91.8642 5.45067 91.8642 5.496V5.7C91.8642 5.74533 91.8428 5.768 91.8002 5.768H90.8882C90.8562 5.768 90.8402 5.78133 90.8402 5.808V6.484C90.8402 6.51067 90.8562 6.524 90.8882 6.524H91.6602C91.7082 6.524 91.7322 6.54667 91.7322 6.592V6.796C91.7322 6.84133 91.7082 6.864 91.6602 6.864H90.8882C90.8562 6.864 90.8402 6.87733 90.8402 6.904V7.616C90.8402 7.64533 90.8562 7.66 90.8882 7.66H91.8002C91.8428 7.66 91.8642 7.68267 91.8642 7.728V7.932C91.8642 7.97733 91.8428 8 91.8002 8ZM93.31 8H92.914C92.8687 8 92.8407 7.97733 92.83 7.932L92.166 5.504C92.15 5.45333 92.17 5.428 92.226 5.428H92.51C92.5527 5.428 92.578 5.45067 92.586 5.496L93.102 7.584H93.118L93.63 5.496C93.6407 5.45067 93.6674 5.428 93.71 5.428H93.99C94.046 5.428 94.0674 5.45333 94.054 5.504L93.386 7.932C93.3754 7.97733 93.35 8 93.31 8ZM94.8328 5.496V7.932C94.8328 7.97733 94.8101 8 94.7648 8H94.5128C94.4675 8 94.4448 7.97733 94.4448 7.932V5.496C94.4448 5.45067 94.4675 5.428 94.5128 5.428H94.7648C94.8101 5.428 94.8328 5.45067 94.8328 5.496ZM96.4805 8H96.0165C95.8192 8 95.6659 7.94533 95.5565 7.836C95.4499 7.72667 95.3965 7.57467 95.3965 7.38V6.048C95.3965 5.85067 95.4499 5.69867 95.5565 5.592C95.6659 5.48267 95.8192 5.428 96.0165 5.428H96.4805C96.6752 5.428 96.8272 5.48267 96.9365 5.592C97.0459 5.69867 97.1005 5.85067 97.1005 6.048V6.24C97.1005 6.288 97.0765 6.312 97.0285 6.312H96.7765C96.7312 6.312 96.7085 6.288 96.7085 6.24V6.064C96.7085 5.86667 96.6125 5.768 96.4205 5.768H96.0725C95.8805 5.768 95.7845 5.86667 95.7845 6.064V7.364C95.7845 7.56133 95.8805 7.66 96.0725 7.66H96.4205C96.6125 7.66 96.7085 7.56133 96.7085 7.364V7.188C96.7085 7.14 96.7312 7.116 96.7765 7.116H97.0285C97.0765 7.116 97.1005 7.14 97.1005 7.188V7.38C97.1005 7.57467 97.0459 7.72667 96.9365 7.836C96.8272 7.94533 96.6752 8 96.4805 8ZM98.9447 8H97.6647C97.6194 8 97.5967 7.97733 97.5967 7.932V5.496C97.5967 5.45067 97.6194 5.428 97.6647 5.428H98.9447C98.9874 5.428 99.0087 5.45067 99.0087 5.496V5.7C99.0087 5.74533 98.9874 5.768 98.9447 5.768H98.0327C98.0007 5.768 97.9847 5.78133 97.9847 5.808V6.484C97.9847 6.51067 98.0007 6.524 98.0327 6.524H98.8047C98.8527 6.524 98.8767 6.54667 98.8767 6.592V6.796C98.8767 6.84133 98.8527 6.864 98.8047 6.864H98.0327C98.0007 6.864 97.9847 6.87733 97.9847 6.904V7.616C97.9847 7.64533 98.0007 7.66 98.0327 7.66H98.9447C98.9874 7.66 99.0087 7.68267 99.0087 7.728V7.932C99.0087 7.97733 98.9874 8 98.9447 8Z" fill="#F75049"/>
</svg>
