<svg width="96" height="96" viewBox="0 0 96 96" fill="none" xmlns="http://www.w3.org/2000/svg">
<g filter="url(#filter0_f_1_955)">
<path d="M43.5808 24.7048V20.2695H52.4192V24.7053V24.9103L52.6203 24.9505C55.6249 25.5499 58.4822 26.7343 61.0298 28.4362L61.2004 28.5502L61.3455 28.4051L64.4836 25.2668L70.7332 31.5166L67.5951 34.6546L67.45 34.7997L67.564 34.9703C69.2659 37.5178 70.4503 40.3752 71.0498 43.3797L71.0899 43.5808H71.2949H75.7305V52.4192H71.2948H71.0898L71.0496 52.6203C70.4501 55.6249 69.2658 58.4823 67.5639 61.03L67.4499 61.2006L67.595 61.3456L70.7332 64.4836L64.4833 70.7332L61.3456 67.5953L61.2006 67.4503L61.03 67.5642C58.4823 69.2661 55.6249 70.4505 52.6203 71.05L52.4192 71.0901V71.2952V75.7305H43.5808V71.2952V71.0901L43.3797 71.05C40.3751 70.4505 37.5176 69.2661 34.9699 67.5642L34.7993 67.4503L34.6543 67.5953L31.5164 70.7332L25.2668 64.4836L28.4046 61.3458L28.5496 61.2008L28.4357 61.0302C26.7337 58.4825 25.5493 55.625 24.9499 52.6203L24.9098 52.4192H24.7047H20.2695V43.5808H24.7048H24.9099L24.95 43.3797C25.5495 40.3751 26.7339 37.5177 28.4358 34.97L28.5497 34.7995L28.4047 34.6544L25.2668 31.5164L31.5164 25.2668L34.6544 28.4047L34.7995 28.5497L34.97 28.4358C37.5177 26.7339 40.3751 25.5495 43.3797 24.95L43.5808 24.9099V24.7048ZM41.2548 57.343H41.2541C41.0079 57.3437 40.772 57.4417 40.5979 57.6158C40.4238 57.7899 40.3257 58.0258 40.3251 58.272V58.2727L40.3251 61.116L40.3251 61.1167C40.3258 61.3629 40.4239 61.5988 40.598 61.7729C40.772 61.9469 41.0079 62.045 41.2541 62.0457H41.2548H54.7452H54.746C54.9921 62.045 55.228 61.9469 55.402 61.7728C55.5761 61.5988 55.6742 61.3629 55.6749 61.1168V61.116V58.2727V58.272C55.6742 58.0258 55.5761 57.7899 55.4021 57.6159C55.228 57.4418 54.9921 57.3437 54.7459 57.343H54.7452H41.2548ZM38.8756 30.3686L38.6435 30.489L38.7742 30.7155L42.0348 36.3632L42.1516 36.5654L42.3613 36.4628C43.847 35.7352 45.4601 35.3035 47.1107 35.1916L47.3438 35.1758V34.9422V28.4214V28.16L47.0826 28.1716C44.2199 28.2995 41.4194 29.0491 38.8756 30.3686ZM40.8291 37.3491L41.0223 37.2188L40.9058 37.0169L37.6451 31.3692L37.5141 31.1423L37.2935 31.2839C34.882 32.8322 32.8323 34.8818 31.2838 37.2932L31.1421 37.5137L31.3691 37.6448L37.0164 40.9052L37.2183 41.0217L37.3486 40.8286C38.2749 39.4563 39.4565 38.275 40.8291 37.3491ZM36.7232 41.8275L36.2654 41.9784L30.7147 38.7738L30.4882 38.643L30.3678 38.8752C28.9059 41.6945 28.1451 44.8246 28.1499 48.0004L28.1502 48.25H28.3999H34.9104H35.1607L35.1604 47.9996C35.1576 46.0452 35.6029 44.1161 36.4622 42.3607L36.7232 41.8275ZM48.9174 28.1706L48.6562 28.1589V28.4204V34.9414V35.175L48.8894 35.1908C50.5395 35.3026 52.1522 35.7341 53.6376 36.4613L53.8473 36.564L53.9641 36.3618L57.2252 30.7137L57.356 30.4871L57.1238 30.3667C54.5801 29.0478 51.7798 28.2984 48.9174 28.1706ZM58.7089 31.2834L58.4883 31.1418L58.3573 31.3688L55.096 37.0173L54.9795 37.2192L55.1727 37.3496C56.5446 38.2755 57.7256 39.4566 58.6516 40.8285L58.782 41.0216L58.9838 40.9051L64.6321 37.6441L64.8591 37.513L64.7175 37.2925C63.1693 34.8813 61.12 32.8318 58.7089 31.2834ZM65.632 38.875L65.5116 38.6428L65.2851 38.7736L59.637 42.0345L59.4348 42.1512L59.5375 42.3609C60.3968 44.1162 60.8423 46.0452 60.8396 47.9997L60.8393 48.25H61.0896H67.6001H67.8498L67.8501 48.0004C67.8546 44.8245 67.0938 41.6944 65.632 38.875ZM50.6193 48.9839C50.8219 48.4461 50.8535 47.8603 50.7119 47.3059L54.9736 43.0443L54.7969 42.8676L54.9737 43.0443C55.2413 42.7767 55.3916 42.4138 55.3916 42.0353C55.3916 41.6568 55.2412 41.2939 54.9736 41.0263C54.706 40.7587 54.343 40.6084 53.9646 40.6084C53.5861 40.6084 53.2231 40.7587 52.9555 41.0264L48.694 45.288C48.1396 45.1464 47.5538 45.178 47.016 45.3806C46.4301 45.6013 45.9352 46.0121 45.6106 46.5474C45.2859 47.0827 45.1502 47.7115 45.2252 48.333C45.3002 48.9545 45.5815 49.533 46.0242 49.9757C46.4669 50.4184 47.0453 50.6997 47.6669 50.7747C48.2884 50.8497 48.9172 50.714 49.4525 50.3893C49.9877 50.0646 50.3986 49.5697 50.6193 48.9839Z" stroke="#F75049" stroke-width="0.5"/>
</g>
<defs>
<filter id="filter0_f_1_955" x="0.0195312" y="0.0195312" width="95.9609" height="95.9609" filterUnits="userSpaceOnUse" color-interpolation-filters="sRGB">
<feFlood flood-opacity="0" result="BackgroundImageFix"/>
<feBlend mode="normal" in="SourceGraphic" in2="BackgroundImageFix" result="shape"/>
<feGaussianBlur stdDeviation="10" result="effect1_foregroundBlur_1_955"/>
</filter>
</defs>
</svg>
