<svg width="156" height="31" viewBox="0 0 156 31" fill="none" xmlns="http://www.w3.org/2000/svg">
<path d="M0.64 30.36V0.64H155.358L155.268 25.3373L152.816 28.4023L151.159 30.36H0.64Z" stroke="#F75049" stroke-opacity="0.3" stroke-width="1.28"/>
<path d="M14.3276 11.055C14.9839 11.0925 15.5229 11.3456 15.9448 11.8144C16.3667 12.2738 16.6714 12.7988 16.8589 13.3894C17.0464 13.98 17.1401 14.5847 17.1401 15.2034C17.1401 15.8222 17.0464 16.4269 16.8589 17.0175C16.6808 17.6081 16.3761 18.1378 15.9448 18.6066C15.5229 19.0659 14.9839 19.3144 14.3276 19.3519H9.15263C8.89951 19.3425 8.68388 19.2534 8.50576 19.0847C8.33701 18.9066 8.24794 18.6909 8.23857 18.4378V14.9503C8.24794 14.6878 8.34638 14.4722 8.53388 14.3034C8.72138 14.1253 8.94638 14.0363 9.20888 14.0363C9.46201 14.0456 9.67763 14.1394 9.85576 14.3175C10.0339 14.4863 10.1276 14.6972 10.137 14.9503V17.0878C10.137 17.3409 10.2683 17.4675 10.5308 17.4675H13.8495C14.2058 17.4488 14.5011 17.3128 14.7354 17.0597C14.9698 16.8066 15.1386 16.5206 15.2417 16.2019C15.3542 15.8738 15.4104 15.5409 15.4104 15.2034C15.4104 14.8659 15.3542 14.5378 15.2417 14.2191C15.1386 13.8909 14.9698 13.6003 14.7354 13.3472C14.5011 13.0941 14.2058 12.9581 13.8495 12.9394H9.15263C8.59013 12.8925 8.28544 12.5878 8.23857 12.0253C8.23857 11.7628 8.32294 11.5378 8.49169 11.3503C8.66982 11.1628 8.89013 11.0644 9.15263 11.055H14.3276ZM17.8016 18.4097C17.8016 18.1472 17.8907 17.9269 18.0688 17.7488C18.2563 17.5613 18.4813 17.4675 18.7438 17.4675H21.4438V12.9394H18.7438C18.4813 12.9394 18.261 12.8456 18.0829 12.6581C17.8954 12.48 17.8016 12.2597 17.8016 11.9972C17.8016 11.7347 17.8907 11.5144 18.0688 11.3363C18.2563 11.1488 18.4813 11.055 18.7438 11.055H26.0282C26.2907 11.055 26.5157 11.1441 26.7032 11.3222C26.8813 11.5097 26.9704 11.7347 26.9704 11.9972C26.9704 12.2597 26.8766 12.4847 26.6891 12.6722C26.511 12.8503 26.2907 12.9394 26.0282 12.9394H23.3423V17.4675H26.0282C26.2907 17.4675 26.5157 17.5566 26.7032 17.7347C26.8813 17.9222 26.9704 18.1472 26.9704 18.4097C26.9704 18.6722 26.8766 18.8972 26.6891 19.0847C26.511 19.2628 26.2907 19.3519 26.0282 19.3519H18.7438C18.4813 19.3519 18.261 19.2581 18.0829 19.0706C17.8954 18.8925 17.8016 18.6722 17.8016 18.4097ZM36.9413 11.9972C36.9413 12.2597 36.8475 12.48 36.66 12.6581C36.4819 12.8456 36.2616 12.9394 35.9991 12.9394H30.3741C30.1959 12.9488 30.0459 12.9909 29.9241 13.0659C29.8116 13.1316 29.7272 13.2113 29.6709 13.305C29.6147 13.3894 29.5866 13.4784 29.5866 13.5722C29.5866 13.6659 29.6147 13.7597 29.6709 13.8534C29.7272 13.9378 29.8116 14.0175 29.9241 14.0925C30.0459 14.1581 30.1959 14.1956 30.3741 14.205H34.3678C35.0241 14.2238 35.5631 14.3784 35.985 14.6691C36.4163 14.9503 36.7209 15.2784 36.8991 15.6534C37.0866 16.0191 37.1803 16.3941 37.1803 16.7784C37.1803 17.1534 37.0866 17.5284 36.8991 17.9034C36.7116 18.2691 36.4069 18.5972 35.985 18.8878C35.5631 19.1691 35.0241 19.3097 34.3678 19.3097H34.2834C34.2272 19.3191 34.1709 19.3238 34.1147 19.3238H28.7991C28.5366 19.3238 28.3116 19.2347 28.1241 19.0566C27.9459 18.8691 27.8569 18.6441 27.8569 18.3816C27.8569 18.1191 27.9506 17.8988 28.1381 17.7206C28.3163 17.5331 28.5366 17.4394 28.7991 17.4394H34.4522C34.6303 17.4488 34.7756 17.4159 34.8881 17.3409C35.01 17.2659 35.0991 17.1816 35.1553 17.0878C35.2116 16.9847 35.2397 16.8816 35.2397 16.7784C35.2397 16.7128 35.2116 16.6238 35.1553 16.5113C35.0991 16.3894 35.01 16.2909 34.8881 16.2159C34.7756 16.1409 34.6303 16.0988 34.4522 16.0894H30.4584C29.8022 16.0706 29.2584 15.9206 28.8272 15.6394C28.4053 15.3581 28.1006 15.0394 27.9131 14.6831C27.735 14.3175 27.6459 13.9472 27.6459 13.5722C27.6459 13.2066 27.7397 12.8456 27.9272 12.4894C28.1147 12.1238 28.4194 11.8003 28.8413 11.5191C29.2631 11.2378 29.8022 11.0878 30.4584 11.0691H30.5428C30.5991 11.0597 30.6553 11.055 30.7116 11.055H35.9991C36.2616 11.055 36.4819 11.1488 36.66 11.3363C36.8475 11.5144 36.9413 11.7347 36.9413 11.9972ZM41.3856 12.9394C41.0293 12.9581 40.7293 13.0941 40.4856 13.3472C40.2512 13.6003 40.0824 13.8909 39.9793 14.2191C39.8762 14.5378 39.8246 14.8659 39.8246 15.2034C39.8246 15.5409 39.8715 15.8738 39.9653 16.2019C40.0684 16.53 40.2418 16.8206 40.4856 17.0738C40.7293 17.3175 41.0293 17.4488 41.3856 17.4675H46.0262C46.6168 17.5238 46.9403 17.8472 46.9965 18.4378C46.9871 18.7003 46.8887 18.9206 46.7012 19.0988C46.5137 19.2675 46.2887 19.3519 46.0262 19.3519H41.5403H40.8934C40.2371 19.3144 39.6981 19.0659 39.2762 18.6066C38.8543 18.1378 38.5496 17.6081 38.3621 17.0175C38.184 16.4269 38.0949 15.8222 38.0949 15.2034C38.0949 14.7441 38.1465 14.2894 38.2496 13.8394C38.3528 13.3894 38.5121 12.9628 38.7278 12.5597C38.9528 12.1472 39.2481 11.7956 39.6137 11.505C39.9887 11.2144 40.4153 11.0644 40.8934 11.055H41.1606H46.0262C46.6168 11.1113 46.9403 11.4347 46.9965 12.0253C46.9965 12.2878 46.8981 12.5081 46.7012 12.6863C46.5137 12.855 46.2887 12.9394 46.0262 12.9394H41.3856ZM55.2658 11.055C55.7439 11.0644 56.1705 11.2144 56.5455 11.505C56.9205 11.7956 57.2205 12.1425 57.4455 12.5456C57.6799 12.9488 57.8533 13.3753 57.9658 13.8253C58.0783 14.2753 58.1346 14.7347 58.1346 15.2034C58.1346 15.8222 58.0361 16.4316 57.8393 17.0316C57.6518 17.6222 57.3377 18.1472 56.8971 18.6066C56.4658 19.0659 55.9221 19.3144 55.2658 19.3519H50.358C49.7018 19.3238 49.1533 19.08 48.7127 18.6206C48.2721 18.1613 47.958 17.6316 47.7705 17.0316C47.5924 16.4316 47.5033 15.8222 47.5033 15.2034C47.5033 14.5847 47.5971 13.98 47.7846 13.3894C47.9721 12.7894 48.2814 12.2597 48.7127 11.8003C49.1533 11.3316 49.7018 11.0831 50.358 11.055H50.6252H54.9986H55.2658ZM54.7877 17.4675C55.1439 17.4488 55.4393 17.3175 55.6736 17.0738C55.9174 16.8206 56.0908 16.53 56.1939 16.2019C56.2971 15.8738 56.3486 15.5409 56.3486 15.2034C56.3486 14.8659 56.2924 14.5378 56.1799 14.2191C56.0768 13.8909 55.908 13.6003 55.6736 13.3472C55.4393 13.0941 55.1439 12.9581 54.7877 12.9394H50.7939C50.4377 12.9581 50.1424 13.0941 49.908 13.3472C49.6736 13.6003 49.5002 13.8909 49.3877 14.2191C49.2846 14.5378 49.233 14.8659 49.233 15.2034C49.233 15.5409 49.2846 15.8738 49.3877 16.2019C49.4908 16.53 49.6596 16.8206 49.8939 17.0738C50.1377 17.3175 50.4377 17.4488 50.7939 17.4675H54.7877ZM61.7773 18.6066C61.3461 17.9597 60.9148 17.1113 60.4836 16.0613L58.9367 12.0675C58.8898 11.9644 58.8617 11.8519 58.8523 11.73C58.8336 11.4675 58.9086 11.2425 59.0773 11.055C59.2554 10.8675 59.4804 10.7738 59.7523 10.7738C60.0429 10.7738 60.2586 10.8394 60.3992 10.9706C60.5492 11.0925 60.6711 11.2519 60.7648 11.4488L62.1008 15.105C62.2508 15.4894 62.3961 15.855 62.5367 16.2019C62.6867 16.5394 62.8508 16.8488 63.0289 17.13C63.207 17.4113 63.4086 17.5613 63.6336 17.58C63.8492 17.5613 64.0414 17.4113 64.2101 17.13C64.3976 16.8488 64.5617 16.5394 64.7023 16.2019C64.8523 15.855 65.0023 15.4894 65.1523 15.105L66.4601 11.4488C66.5539 11.2519 66.6711 11.0925 66.8117 10.9706C66.9617 10.8394 67.1914 10.7738 67.5008 10.7738C67.7726 10.7738 67.9929 10.8675 68.1617 11.055C68.3398 11.2425 68.4195 11.4675 68.4008 11.73C68.3914 11.8519 68.3633 11.9644 68.3164 12.0675L66.7695 16.0613C66.3383 17.13 65.907 17.9831 65.4758 18.6206C65.0539 19.2488 64.4398 19.5675 63.6336 19.5769C62.8179 19.5675 62.1992 19.2441 61.7773 18.6066ZM71.8888 11.055H72.5357H77.3169C77.5794 11.0644 77.7951 11.1628 77.9638 11.3503C78.1419 11.5378 78.231 11.7628 78.231 12.0253C78.1841 12.5878 77.8794 12.8925 77.3169 12.9394H72.3669C72.0107 12.9581 71.7154 13.0941 71.481 13.3472C71.2466 13.6003 71.0732 13.8909 70.9607 14.2191C70.8576 14.5378 70.806 14.8659 70.806 15.2034C70.806 15.5409 70.8576 15.8738 70.9607 16.2019C71.0732 16.5206 71.2466 16.8066 71.481 17.0597C71.7154 17.3128 72.0107 17.4488 72.3669 17.4675H77.3169C77.5794 17.4769 77.7951 17.5753 77.9638 17.7628C78.1419 17.9503 78.231 18.1753 78.231 18.4378C78.2216 18.6909 78.1279 18.9066 77.9498 19.0847C77.781 19.2534 77.5701 19.3425 77.3169 19.3519H72.156H71.8888C71.2326 19.3144 70.6888 19.0659 70.2576 18.6066C69.8357 18.1378 69.531 17.6081 69.3435 17.0175C69.1654 16.4269 69.0763 15.8222 69.0763 15.2034C69.0763 14.5847 69.1701 13.98 69.3576 13.3894C69.5451 12.7988 69.8498 12.2738 70.2716 11.8144C70.6935 11.3456 71.2326 11.0925 71.8888 11.055ZM78.2029 15.1472C78.2029 15.4097 78.1091 15.63 77.9216 15.8081C77.7435 15.9956 77.5232 16.0894 77.2607 16.0894H73.0138C72.7513 16.0894 72.5263 16.0003 72.3388 15.8222C72.1607 15.6347 72.0716 15.4097 72.0716 15.1472C72.0716 14.8847 72.1607 14.6597 72.3388 14.4722C72.5263 14.2941 72.7513 14.205 73.0138 14.205H77.2607C77.5232 14.205 77.7435 14.2988 77.9216 14.4863C78.1091 14.6644 78.2029 14.8847 78.2029 15.1472ZM80.9597 18.6347C80.9034 19.1972 80.5941 19.5019 80.0316 19.5488C79.7691 19.5488 79.5394 19.4644 79.3425 19.2956C79.155 19.1175 79.0613 18.8972 79.0613 18.6347V11.9691C79.0706 11.7066 79.1691 11.4909 79.3566 11.3222C79.5441 11.1441 79.7691 11.055 80.0316 11.055H80.7206H82.4503H85.9238C85.98 11.055 86.0363 11.0597 86.0925 11.0691H86.1769C86.8331 11.0878 87.3722 11.2378 87.7941 11.5191C88.2159 11.8003 88.5206 12.1238 88.7081 12.4894C88.8956 12.8456 88.9894 13.2066 88.9894 13.5722C88.9894 13.9472 88.8956 14.3175 88.7081 14.6831C88.53 15.0394 88.2253 15.3581 87.7941 15.6394C87.3722 15.9206 86.8331 16.0706 86.1769 16.0894H83.7019C83.7769 16.5581 83.9316 16.905 84.1659 17.13C84.3909 17.355 84.6769 17.4675 85.0238 17.4675H88.0613C88.3238 17.4769 88.5394 17.5753 88.7081 17.7628C88.8863 17.9503 88.9753 18.1753 88.9753 18.4378C88.9659 18.6909 88.8722 18.9066 88.6941 19.0847C88.5253 19.2534 88.3144 19.3425 88.0613 19.3519H84.7706C84.0769 19.3613 83.4488 19.0894 82.8863 18.5363C82.3238 17.9831 81.9816 17.3269 81.8597 16.5675C81.6909 15.7238 81.6066 15.2503 81.6066 15.1472C81.6066 14.8847 81.6956 14.6644 81.8738 14.4863C82.0613 14.2988 82.2863 14.205 82.5488 14.205H86.2613C86.4394 14.1956 86.5847 14.1581 86.6972 14.0925C86.8191 14.0175 86.9081 13.9378 86.9644 13.8534C87.0206 13.7597 87.0488 13.6659 87.0488 13.5722C87.0488 13.4784 87.0206 13.3894 86.9644 13.305C86.9081 13.2113 86.8191 13.1316 86.6972 13.0659C86.5847 12.9909 86.4394 12.9488 86.2613 12.9394H82.4503H81.3253C81.0816 12.9488 80.9597 13.0706 80.9597 13.305V18.6347ZM101.042 10.6753C101.53 10.6753 102.008 10.7316 102.476 10.8441C102.955 10.9566 103.409 11.1253 103.841 11.3503C104.272 11.5659 104.651 11.8566 104.98 12.2222C105.317 12.5878 105.5 13.0238 105.528 13.53V14.1206V18.6066C105.472 19.1691 105.162 19.4738 104.6 19.5206C104.337 19.5206 104.108 19.4363 103.911 19.2675C103.723 19.0894 103.63 18.8691 103.63 18.6066V13.9659C103.611 13.6753 103.498 13.4363 103.292 13.2488C103.095 13.0519 102.87 12.8972 102.617 12.7847C102.373 12.6722 102.116 12.5878 101.844 12.5316C101.581 12.4753 101.314 12.4472 101.042 12.4472C100.77 12.4472 100.498 12.4753 100.226 12.5316C99.9639 12.5878 99.7061 12.6722 99.453 12.7847C99.2093 12.8972 98.9843 13.0519 98.778 13.2488C98.5811 13.4363 98.4733 13.6753 98.4546 13.9659V18.6066C98.4077 19.1691 98.103 19.4738 97.5405 19.5206C97.278 19.5206 97.0483 19.4363 96.8514 19.2675C96.6639 19.0894 96.5702 18.8691 96.5702 18.6066V14.1206V13.53C96.5983 13.0238 96.7764 12.5878 97.1046 12.2222C97.4327 11.8566 97.8124 11.5659 98.2436 11.3503C98.6749 11.1253 99.1249 10.9566 99.5936 10.8441C100.072 10.7316 100.555 10.6753 101.042 10.6753ZM114.275 11.055C114.754 11.0644 115.18 11.2144 115.555 11.505C115.93 11.7956 116.23 12.1425 116.455 12.5456C116.69 12.9488 116.863 13.3753 116.975 13.8253C117.088 14.2753 117.144 14.7347 117.144 15.2034C117.144 15.8222 117.046 16.4316 116.849 17.0316C116.661 17.6222 116.347 18.1472 115.907 18.6066C115.475 19.0659 114.932 19.3144 114.275 19.3519H109.368C108.711 19.3238 108.163 19.08 107.722 18.6206C107.282 18.1613 106.968 17.6316 106.78 17.0316C106.602 16.4316 106.513 15.8222 106.513 15.2034C106.513 14.5847 106.607 13.98 106.794 13.3894C106.982 12.7894 107.291 12.2597 107.722 11.8003C108.163 11.3316 108.711 11.0831 109.368 11.055H109.635H114.008H114.275ZM113.797 17.4675C114.154 17.4488 114.449 17.3175 114.683 17.0738C114.927 16.8206 115.1 16.53 115.204 16.2019C115.307 15.8738 115.358 15.5409 115.358 15.2034C115.358 14.8659 115.302 14.5378 115.19 14.2191C115.086 13.8909 114.918 13.6003 114.683 13.3472C114.449 13.0941 114.154 12.9581 113.797 12.9394H109.804C109.447 12.9581 109.152 13.0941 108.918 13.3472C108.683 13.6003 108.51 13.8909 108.397 14.2191C108.294 14.5378 108.243 14.8659 108.243 15.2034C108.243 15.5409 108.294 15.8738 108.397 16.2019C108.5 16.53 108.669 16.8206 108.904 17.0738C109.147 17.3175 109.447 17.4488 109.804 17.4675H113.797ZM117.834 11.9972C117.834 11.7347 117.923 11.5144 118.101 11.3363C118.289 11.1488 118.514 11.055 118.776 11.055H126.96C127.223 11.055 127.448 11.1441 127.635 11.3222C127.814 11.5097 127.903 11.7347 127.903 11.9972C127.903 12.2597 127.809 12.4847 127.621 12.6722C127.443 12.8503 127.223 12.9394 126.96 12.9394H123.824V18.6347C123.768 19.1972 123.459 19.5019 122.896 19.5488C122.634 19.5488 122.404 19.4644 122.207 19.2956C122.02 19.1175 121.926 18.8972 121.926 18.6347V12.9394H118.776C118.514 12.9394 118.293 12.8456 118.115 12.6581C117.928 12.48 117.834 12.2597 117.834 11.9972ZM131.419 11.055H132.066H136.847C137.109 11.0644 137.325 11.1628 137.494 11.3503C137.672 11.5378 137.761 11.7628 137.761 12.0253C137.714 12.5878 137.409 12.8925 136.847 12.9394H131.897C131.541 12.9581 131.245 13.0941 131.011 13.3472C130.777 13.6003 130.603 13.8909 130.491 14.2191C130.388 14.5378 130.336 14.8659 130.336 15.2034C130.336 15.5409 130.388 15.8738 130.491 16.2019C130.603 16.5206 130.777 16.8066 131.011 17.0597C131.245 17.3128 131.541 17.4488 131.897 17.4675H136.847C137.109 17.4769 137.325 17.5753 137.494 17.7628C137.672 17.9503 137.761 18.1753 137.761 18.4378C137.752 18.6909 137.658 18.9066 137.48 19.0847C137.311 19.2534 137.1 19.3425 136.847 19.3519H131.686H131.419C130.763 19.3144 130.219 19.0659 129.788 18.6066C129.366 18.1378 129.061 17.6081 128.873 17.0175C128.695 16.4269 128.606 15.8222 128.606 15.2034C128.606 14.5847 128.7 13.98 128.888 13.3894C129.075 12.7988 129.38 12.2738 129.802 11.8144C130.223 11.3456 130.763 11.0925 131.419 11.055ZM137.733 15.1472C137.733 15.4097 137.639 15.63 137.452 15.8081C137.273 15.9956 137.053 16.0894 136.791 16.0894H132.544C132.281 16.0894 132.056 16.0003 131.869 15.8222C131.691 15.6347 131.602 15.4097 131.602 15.1472C131.602 14.8847 131.691 14.6597 131.869 14.4722C132.056 14.2941 132.281 14.205 132.544 14.205H136.791C137.053 14.205 137.273 14.2988 137.452 14.4863C137.639 14.6644 137.733 14.8847 137.733 15.1472ZM147.69 11.9972C147.69 12.2597 147.596 12.48 147.408 12.6581C147.23 12.8456 147.01 12.9394 146.747 12.9394H141.122C140.944 12.9488 140.794 12.9909 140.672 13.0659C140.56 13.1316 140.476 13.2113 140.419 13.305C140.363 13.3894 140.335 13.4784 140.335 13.5722C140.335 13.6659 140.363 13.7597 140.419 13.8534C140.476 13.9378 140.56 14.0175 140.672 14.0925C140.794 14.1581 140.944 14.1956 141.122 14.205H145.116C145.772 14.2238 146.312 14.3784 146.733 14.6691C147.165 14.9503 147.469 15.2784 147.647 15.6534C147.835 16.0191 147.929 16.3941 147.929 16.7784C147.929 17.1534 147.835 17.5284 147.647 17.9034C147.46 18.2691 147.155 18.5972 146.733 18.8878C146.312 19.1691 145.772 19.3097 145.116 19.3097H145.032C144.976 19.3191 144.919 19.3238 144.863 19.3238H139.547C139.285 19.3238 139.06 19.2347 138.872 19.0566C138.694 18.8691 138.605 18.6441 138.605 18.3816C138.605 18.1191 138.699 17.8988 138.887 17.7206C139.065 17.5331 139.285 17.4394 139.547 17.4394H145.201C145.379 17.4488 145.524 17.4159 145.637 17.3409C145.758 17.2659 145.847 17.1816 145.904 17.0878C145.96 16.9847 145.988 16.8816 145.988 16.7784C145.988 16.7128 145.96 16.6238 145.904 16.5113C145.847 16.3894 145.758 16.2909 145.637 16.2159C145.524 16.1409 145.379 16.0988 145.201 16.0894H141.207C140.551 16.0706 140.007 15.9206 139.576 15.6394C139.154 15.3581 138.849 15.0394 138.662 14.6831C138.483 14.3175 138.394 13.9472 138.394 13.5722C138.394 13.2066 138.488 12.8456 138.676 12.4894C138.863 12.1238 139.168 11.8003 139.59 11.5191C140.012 11.2378 140.551 11.0878 141.207 11.0691H141.291C141.347 11.0597 141.404 11.055 141.46 11.055H146.747C147.01 11.055 147.23 11.1488 147.408 11.3363C147.596 11.5144 147.69 11.7347 147.69 11.9972Z" fill="#1DED83"/>
</svg>
